<svg xmlns="http://www.w3.org/2000/svg" width="48" height="48">
	<path d="m 24.412772,1.9929565 c -4.69772,-0.09091 -9.450709,1.310717 -13.488282,4.291015 -1.1535913,0.851514 -2.2003113,1.797215 -3.1386713,2.81836 C 1.2172967,16.250348 0.00394675,27.11944 5.3092557,35.63944 a 1.9000004,1.8999996 85.381803 0 0 2.617187,0.609375 1.9000004,1.8999996 85.381803 0 0 0.609376,-2.617187 c -5.033768,-8.083923 -3.015352,-18.6355 4.6464843,-24.2910155 7.661836,-5.655516 18.338034,-4.475247 24.580078,2.7167965 6.242043,7.192044 5.907931,17.929044 -0.769531,24.71875 -6.677463,6.789706 -17.408042,7.302944 -24.703125,1.181641 a 1.9000004,1.8999996 85.381803 0 0 -2.6777353,0.232421 1.9000004,1.8999996 85.381803 0 0 0.234375,2.677735 C 18.633346,48.241111 31.65683,47.618472 39.699881,39.440221 47.742933,31.261972 48.150108,18.230044 40.631522,9.5671745 36.402317,4.6943105 30.452696,2.1098355 24.412772,1.9929565 Z m -7,12.4218745 a 3.4647925,3.4648135 0 0 0 -3.464844,3.464843 3.4647925,3.4648135 0 0 0 3.464844,3.464844 3.4647925,3.4648135 0 0 0 3.464843,-3.464844 3.4647925,3.4648135 0 0 0 -3.464843,-3.464843 z m 13.175781,0 a 3.4647925,3.4648135 0 0 0 -3.464844,3.464843 3.4647925,3.4648135 0 0 0 3.464844,3.464844 3.4647925,3.4648135 0 0 0 3.464844,-3.464844 3.4647925,3.4648135 0 0 0 -3.464844,-3.464843 z M 13.510428,27.11405 a 1.9,1.9 0 0 0 -0.648438,0.132812 1.9,1.9 0 0 0 -1.0625,2.46875 c 4.093874,10.283456 19.538065,10.262488 24.351563,0.177734 a 1.9,1.9 0 0 0 -0.896484,-2.533203 1.9,1.9 0 0 0 -2.533204,0.896485 c -3.453902,7.236266 -14.526052,7.253198 -17.392578,0.05273 a 1.9,1.9 0 0 0 -1.818359,-1.195312 z" fill="#008055"/>
</svg>
