<svg xmlns="http://www.w3.org/2000/svg" width="48" height="48">
	<path d="M 24.411194,1.992968 C 19.713153,1.901788 14.962438,3.303686 10.924866,6.283984 9.7712744,7.135498 8.7226014,8.081198 7.7842414,9.102344 1.2157189,16.250361 0.00432417,27.119452 5.3096324,35.639453 a 1.9000004,1.8999996 85.381803 0 0 2.615234,0.609375 1.9000004,1.8999996 85.381803 0 0 0.609375,-2.617188 C 3.5004737,25.547717 5.5188894,14.998094 13.180725,9.342578 20.842562,3.687062 31.520714,4.865377 37.762757,12.057422 44.0048,19.249465 43.668735,29.988419 36.991272,36.778125 30.31381,43.567831 19.585183,44.079116 12.290101,37.957812 a 1.9000004,1.8999996 85.381803 0 0 -2.6777346,0.234375 1.9000004,1.8999996 85.381803 0 0 0.236328,2.675781 C 18.635674,48.241123 31.657206,47.618484 39.700257,39.440234 47.743309,31.261985 48.150484,18.230058 40.631897,9.567187 36.402692,4.694323 30.451533,2.110195 24.411194,1.992968 Z m -6.378906,12.617188 c -2.089436,-0.02856 -4.161229,1.195626 -5.005859,3.271484 a 2,2 0 0 0 1.097656,2.607422 2,2 0 0 0 2.607422,-1.099609 c 0.361144,-0.887588 1.16195,-1.14568 1.894531,-0.546875 a 2,2 0 0 0 2.814453,-0.283203 2,2 0 0 0 -0.283203,-2.814453 C 20.480783,15.191953 19.713419,14.850383 18.924866,14.7 18.629159,14.64361 18.330779,14.61424 18.032288,14.61016 Z m 11.974609,0.01758 c -0.299204,0.0043 -0.598261,0.03313 -0.894531,0.08789 -0.790052,0.146028 -1.556394,0.474107 -2.230469,0.998047 a 2,2 0 0 0 -0.351562,2.80664 2,2 0 0 0 2.80664,0.351563 c 0.756702,-0.588163 1.578939,-0.412346 1.914063,0.472656 a 2,2 0 0 0 2.578125,1.162109 2,2 0 0 0 1.162109,-2.578125 C 34.179048,15.783578 32.101331,14.597382 30.006897,14.627735 Z M 24.32721,24.24297 c -3.013778,-0.0058 -6.186263,0.380391 -9.521485,1.240235 a 1.80018,1.80018 0 0 0 -0.02148,0.0059 c -0.371582,0.100762 -0.712028,0.189818 -1.099609,0.355469 -0.387582,0.165651 -0.904242,0.446148 -1.275391,1.033203 -0.371149,0.587056 -0.410041,1.297665 -0.333984,1.789063 0.07606,0.491397 0.223254,0.883254 0.404297,1.324218 a 1.80018,1.80018 0 0 0 0.01758,0.03711 c 2.185995,4.996343 6.806129,7.644678 11.416015,7.630859 4.609886,-0.01382 9.262805,-2.674369 11.574219,-7.708984 a 1.80018,1.80018 0 0 0 0.0293,-0.06641 c 0.202538,-0.492358 0.360653,-0.957394 0.382812,-1.542969 0.02216,-0.585575 -0.20659,-1.34707 -0.638671,-1.830078 -0.861195,-0.962699 -1.64402,-0.963557 -2.369141,-1.150391 -2.695588,-0.713462 -5.550675,-1.111393 -8.564453,-1.117188 z m -0.0078,3.591797 c 2.698415,0.0051 5.236172,0.367543 7.648438,1.00586 -1.804342,3.528569 -4.926678,5.209338 -8.066406,5.21875 -3.158378,0.0095 -6.220585,-1.65176 -7.90625,-5.146485 2.944301,-0.734686 5.713545,-1.08306 8.324218,-1.078125 z" fill="#008055"/>
</svg>
