<svg xmlns="http://www.w3.org/2000/svg" width="48" height="48">
	<path d="M 24.411648,2.0054056 C 19.716536,1.9144186 14.966375,3.315924 10.931179,6.294468 9.778266,7.14548 8.7322683,8.088376 7.7944606,9.108921 1.2298045,16.252736 0.01766742,27.117373 5.3198512,35.632359 a 1.9000005,1.8999995 84.833921 0 0 2.6152344,0.609375 1.9000005,1.8999995 84.833921 0 0 0.6113281,-2.617188 C 3.5162154,25.546355 5.5306358,15.002615 13.187039,9.351109 c 7.656403,-5.651507 18.326836,-4.472102 24.564453,2.714843 6.237617,7.186946 5.903196,17.91628 -0.769531,24.701172 -6.672727,6.784892 -17.395638,7.298605 -24.685547,1.181641 a 1.9000005,1.8999995 84.833921 0 0 -2.6738284,0.232422 1.9000005,1.8999995 84.833921 0 0 0.2324218,2.677734 C 18.636814,48.227736 31.652629,47.604622 39.690945,39.431187 47.729261,31.257751 48.136746,18.233489 40.622586,9.575718 36.395871,4.705722 30.448221,2.122389 24.411648,2.0054056 Z m -7,13.7695314 a 3.4647925,3.4648135 0 0 0 -3.464844,3.464844 3.4647925,3.4648135 0 0 0 3.464844,3.464843 3.4647925,3.4648135 0 0 0 3.464844,-3.464843 3.4647925,3.4648135 0 0 0 -3.464844,-3.464844 z m 13.175782,0 a 3.4647925,3.4648135 0 0 0 -3.464844,3.464844 3.4647925,3.4648135 0 0 0 3.464844,3.464843 3.4647925,3.4648135 0 0 0 3.464843,-3.464843 3.4647925,3.4648135 0 0 0 -3.464843,-3.464844 z m -0.369141,13.355469 a 2,2 0 0 0 -1.605469,0.748046 c -1.406571,1.749545 -3.078211,2.523875 -4.654297,2.541016 -1.576085,0.01714 -3.162171,-0.681501 -4.537109,-2.496094 a 2,2 0 0 0 -1.652344,-0.791015 2,2 0 0 0 -1.148437,0.404297 2,2 0 0 0 -0.386719,2.802734 c 2.020012,2.665938 4.881876,4.111462 7.767578,4.080078 2.885702,-0.03138 5.688947,-1.498269 7.728516,-4.035156 a 2,2 0 0 0 -0.304688,-2.8125 2,2 0 0 0 -1.207031,-0.441406 z" fill="#008055"/>
</svg>
