<svg xmlns="http://www.w3.org/2000/svg" width="48" height="48">
	<path d="M 24.412315,1.99198 C 19.714596,1.90107 14.961606,3.302697 10.924033,6.282995 9.7704419,7.134509 8.7237219,8.08021 7.7853619,9.101355 1.2168396,16.249373 0.00349094,27.120416 5.3087989,35.640417 a 1.9000004,1.8999996 85.381803 0 0 2.615234,0.607422 1.9000004,1.8999996 85.381803 0 0 0.611329,-2.617188 C 3.5015944,25.546729 5.5180566,14.997105 13.179893,9.341589 c 7.661836,-5.655516 18.338035,-4.475247 24.580078,2.716797 6.242044,7.192045 5.90793,17.92709 -0.769531,24.716797 -6.677463,6.789706 -17.406089,7.302944 -24.701172,1.18164 a 1.9000004,1.8999996 85.381803 0 0 -2.6757821,0.236328 1.9000004,1.8999996 85.381803 0 0 0.232422,2.675782 c 8.7869811,7.373155 21.8124181,6.750516 29.8554691,-1.427735 8.043051,-8.178249 8.448274,-21.21213 0.929688,-29.875 C 36.401859,4.693334 30.452239,2.108859 24.412315,1.99198 Z m -9.488282,13.853515 a 1.8,1.8 0 0 0 -1.662109,1.154297 1.8,1.8 0 0 0 1.035156,2.326172 l 6.582032,2.527344 a 1.8,1.8 0 0 0 2.326171,-1.035157 1.8,1.8 0 0 0 -1.035156,-2.324218 l -6.583984,-2.529297 a 1.8,1.8 0 0 0 -0.66211,-0.119141 z m 18.158203,0 a 1.8,1.8 0 0 0 -0.669921,0.119141 l -6.583985,2.529297 a 1.8,1.8 0 0 0 -1.033203,2.324218 1.8,1.8 0 0 0 2.324219,1.035157 l 6.583984,-2.527344 a 1.8,1.8 0 0 0 1.035156,-2.326172 1.8,1.8 0 0 0 -1.65625,-1.154297 z m -15.669921,5.398438 a 3.4647925,3.4648135 0 0 0 -3.464844,3.464844 3.4647925,3.4648135 0 0 0 3.464844,3.464843 3.4647925,3.4648135 0 0 0 3.464843,-3.464843 3.4647925,3.4648135 0 0 0 -3.464843,-3.464844 z m 13.175781,0 a 3.4647925,3.4648135 0 0 0 -3.464844,3.464844 3.4647925,3.4648135 0 0 0 3.464844,3.464843 3.4647925,3.4648135 0 0 0 3.464844,-3.464843 3.4647925,3.4648135 0 0 0 -3.464844,-3.464844 z M 17.816612,32.406042 a 2,2 0 0 0 -2,2 2,2 0 0 0 2,2 h 12.34375 a 2,2 0 0 0 2,-2 2,2 0 0 0 -2,-2 z" fill="#008055"/>
</svg>
