<svg xmlns="http://www.w3.org/2000/svg" width="48" height="48">
	<path d="M 24.411192,2.0049653 C 19.716079,1.9139753 14.967871,3.3154833 10.932676,6.2940273 9.7797634,7.1450393 8.7318118,8.0898893 7.7940039,9.1104343 1.2293487,16.254248 0.01720965,27.116932 5.3193946,35.631918 a 1.9000005,1.8999995 84.833921 0 0 2.6171875,0.611328 1.9000005,1.8999995 84.833921 0 0 0.609375,-2.617188 C 3.5157597,25.547868 5.5301787,15.004128 13.186582,9.3526213 c 7.656402,-5.651507 18.32879,-4.474055 24.566407,2.7128907 6.237616,7.186944 5.903195,17.916279 -0.769532,24.701172 -6.672726,6.784892 -17.395637,7.298604 -24.685547,1.18164 a 1.9000005,1.8999995 84.833921 0 0 -2.6777342,0.232422 1.9000005,1.8999995 84.833921 0 0 0.234375,2.677734 C 18.636358,48.227296 31.654125,47.606136 39.692442,39.432699 47.730758,31.259264 48.136289,18.235001 40.622129,9.5772303 36.395414,4.7072343 30.447764,2.1219483 24.411192,2.0049653 Z M 17.411191,15.665121 a 3.4647925,3.4648135 0 0 0 -3.464843,3.464844 3.4647925,3.4648135 0 0 0 3.464843,3.464843 3.4647925,3.4648135 0 0 0 3.464844,-3.464843 3.4647925,3.4648135 0 0 0 -3.464844,-3.464844 z m 13.175782,0 a 3.4647925,3.4648135 0 0 0 -3.464844,3.464844 3.4647925,3.4648135 0 0 0 3.464844,3.464843 3.4647925,3.4648135 0 0 0 3.464844,-3.464843 3.4647925,3.4648135 0 0 0 -3.464844,-3.464844 z m -6.583984,11.830078 c -2.885704,-0.03138 -5.749565,1.414129 -7.769532,4.080078 a 2,2 0 0 0 0.386719,2.800781 2,2 0 0 0 2.800781,-0.384765 c 1.374893,-1.814581 2.961027,-2.513233 4.53711,-2.496094 1.576082,0.01714 3.247683,0.791453 4.654297,2.541016 a 2,2 0 0 0 2.8125,0.304687 2,2 0 0 0 0.304687,-2.8125 c -2.039607,-2.536887 -4.84086,-4.001822 -7.726562,-4.033203 z" fill="#008055"/>
</svg>
