<svg xmlns="http://www.w3.org/2000/svg" width="48" height="48">
	<path d="M 24.410738,1.99198 C 19.713019,1.9010742 14.961982,3.3026969 10.92441,6.2829959 9.7708171,7.1345089 8.7221445,8.0821629 7.7837846,9.1033079 1.2152621,16.251325 0.00386717,27.120417 5.3091752,35.640418 A 1.9000004,1.8999996 85.381803 0 0 7.9263627,36.24784 1.9000004,1.8999996 85.381803 0 0 8.5337846,33.632605 C 3.5000167,25.548682 5.5184325,14.997106 13.180269,9.3415899 20.842106,3.6860729 31.520258,4.8643889 37.7623,12.056433 c 6.242043,7.192044 5.907932,17.930997 -0.769531,24.720703 -6.677461,6.789706 -17.408042,7.302945 -24.703125,1.181641 a 1.9000004,1.8999996 85.381803 0 0 -2.6777344,0.234375 1.9000004,1.8999996 85.381803 0 0 0.2363281,2.675781 C 18.635218,48.242088 31.658702,47.619448 39.701754,39.441199 47.744805,31.262949 48.150028,18.231022 40.631441,9.5681519 36.402237,4.6952879 30.450663,2.1088589 24.410738,1.99198 Z m -6.998047,13.652344 a 3.4647925,3.4648135 0 0 0 -3.464844,3.464844 3.4647925,3.4648135 0 0 0 3.464844,3.464843 3.4647925,3.4648135 0 0 0 3.464844,-3.464843 3.4647925,3.4648135 0 0 0 -3.464844,-3.464844 z m 13.175781,0 a 3.4647925,3.4648135 0 0 0 -3.464843,3.464844 3.4647925,3.4648135 0 0 0 3.464843,3.464843 3.4647925,3.4648135 0 0 0 3.464844,-3.464843 3.4647925,3.4648135 0 0 0 -3.464844,-3.464844 z M 17.953707,26.257605 a 1.8,1.8 0 0 0 -1.644531,1.011719 1.8,1.8 0 0 0 0.830078,2.40625 l 2.751953,1.341797 -2.751953,1.339843 a 1.8,1.8 0 0 0 -0.830078,2.40625 1.8,1.8 0 0 0 2.40625,0.830079 l 5.285156,-2.574219 5.283203,2.574219 a 1.8,1.8 0 0 0 2.40625,-0.830079 1.8,1.8 0 0 0 -0.828125,-2.40625 l -2.751953,-1.339843 2.751953,-1.341797 a 1.8,1.8 0 0 0 0.828125,-2.40625 1.8,1.8 0 0 0 -1.636719,-1.011719 1.8,1.8 0 0 0 -0.769531,0.181641 l -5.283203,2.574218 -5.285156,-2.574218 a 1.8,1.8 0 0 0 -0.761719,-0.181641 z" fill="#008055"/>
</svg>
