<svg xmlns="http://www.w3.org/2000/svg" width="48" height="48">
	<path d="m 24.411194,1.9919775 c -4.697719,-0.09091 -9.448756,1.31267 -13.486328,4.292969 -1.1535917,0.851513 -2.2022647,1.79526 -3.1406246,2.816406 C 1.2157194,16.249369 0.00432408,27.120414 5.3096321,35.640414 a 1.9000004,1.8999996 85.381803 0 0 2.6171872,0.609375 1.9000004,1.8999996 85.381803 0 0 0.607422,-2.61914 C 3.5004736,25.546726 5.5188897,14.995149 13.180725,9.3396335 c 7.661837,-5.655516 18.338035,-4.473294 24.580079,2.7187495 6.242042,7.192045 5.907931,17.927091 -0.769532,24.716797 -6.677462,6.789706 -17.406089,7.302944 -24.701171,1.181641 a 1.9000004,1.8999996 85.381803 0 0 -2.6757817,0.234375 1.9000004,1.8999996 85.381803 0 0 0.232422,2.677734 C 18.633721,48.242085 31.657205,47.619445 39.700257,39.441196 47.743308,31.262946 48.150484,18.231019 40.631897,9.5681495 36.402692,4.6952855 30.451119,2.1088565 24.411194,1.9919775 Z M 18.219788,15.304477 a 3.4647925,3.4648135 0 0 0 -3.464844,3.464844 3.4647925,3.4648135 0 0 0 3.464844,3.464843 3.4647925,3.4648135 0 0 0 3.464844,-3.464843 3.4647925,3.4648135 0 0 0 -3.464844,-3.464844 z m 11.091797,0.345703 c -1.588856,0.0045 -3.181928,0.703312 -4.212891,2.064453 a 2,2 0 0 0 0.386719,2.802734 2,2 0 0 0 2.802734,-0.386718 c 0.578595,-0.763897 1.417991,-0.807136 1.970704,-0.03906 a 2,2 0 0 0 2.792968,0.455078 2,2 0 0 0 0.455078,-2.791015 C 32.486194,16.337236 30.900441,15.645705 29.311585,15.65018 Z M 15.784241,28.253696 a 2,2 0 0 0 -1.263672,0.423828 2,2 0 0 0 -0.341797,2.808593 c 0.380793,0.486528 0.796587,0.924423 1.226563,1.337891 -0.770866,1.793725 -1.047045,3.360564 -0.734375,4.740235 0.345522,1.52463 1.593784,2.706157 2.962891,2.988281 2.571292,0.529851 5.230304,-1.230409 6.300781,-4.275391 3.582033,-9.59e-4 7.205648,-1.55458 9.851562,-4.748047 a 2,2 0 0 0 -0.263672,-2.816406 2,2 0 0 0 -2.816406,0.263672 c -3.938812,4.753921 -9.874271,4.520187 -13.376953,0.04492 a 2,2 0 0 0 -1.544922,-0.767578 z m 2.460938,6.61914 c 0.705252,0.369301 1.43735,0.661287 2.189453,0.884766 -0.686493,1.202718 -1.770778,1.535824 -2.115235,1.464844 -0.211997,-0.04368 -0.235188,0.01717 -0.332031,-0.410157 -0.07145,-0.315284 -0.05931,-0.97243 0.257813,-1.939453 z" fill="#008055"/>
</svg>
