<svg xmlns="http://www.w3.org/2000/svg" width="48" height="48">
	<path d="M 24.410816,2.0053939 C 19.716026,1.9146772 14.967495,3.3159124 10.9323,6.2944567 9.7793866,7.1454687 8.7333886,8.0883647 7.7955806,9.1089097 1.2309246,16.252725 0.01683363,27.117362 5.3190186,35.632347 a 1.9000005,1.8999995 84.833921 0 0 2.61914,0.607422 1.9000005,1.8999995 84.833921 0 0 0.607422,-2.615234 C 3.5153836,25.546344 5.5337096,15.002604 13.190112,9.3510967 c 7.656404,-5.6515064 18.324883,-4.4721013 24.5625,2.7148443 6.237618,7.186946 5.903196,17.914327 -0.769531,24.699219 -6.672727,6.784892 -17.393684,7.298604 -24.683593,1.181641 a 1.9000005,1.8999995 84.833921 0 0 -2.6777354,0.234374 1.9000005,1.8999995 84.833921 0 0 0.234375,2.677735 C 18.637935,48.227725 31.65375,47.604611 39.692066,39.431175 47.730382,31.257739 48.135913,18.231524 40.621753,9.5737537 36.395039,4.7037572 30.446974,2.1220297 24.410816,2.0053939 Z M 17.412769,15.57766 a 3.4647925,3.4648135 0 0 0 -3.464844,3.464844 3.4647925,3.4648135 0 0 0 3.464844,3.464843 3.4647925,3.4648135 0 0 0 3.464843,-3.464843 3.4647925,3.4648135 0 0 0 -3.464843,-3.464844 z m 13.175781,0 a 3.4647925,3.4648135 0 0 0 -3.464844,3.464844 3.4647925,3.4648135 0 0 0 3.464844,3.464843 3.4647925,3.4648135 0 0 0 3.464844,-3.464843 3.4647925,3.4648135 0 0 0 -3.464844,-3.464844 z m 4.701172,6.011719 c -1.265328,0.102407 -2.49204,0.683384 -3.373047,1.716796 -1.653758,1.939844 -1.475452,4.78872 0.25,6.597657 a 1.3999848,1.4000152 85.011082 0 0 0.292969,0.375 c 0.0016,0.0014 0.0023,0.0045 0.0039,0.0059 a 1.3999848,1.4000152 85.011082 0 0 0.04102,0.03516 1.3999848,1.4000152 85.011082 0 0 0.419922,0.228516 c 2.066525,1.406182 4.909271,1.1162 6.552734,-0.832031 1.751223,-2.075976 1.489415,-5.218029 -0.582031,-6.97461 -1.035723,-0.878289 -2.340141,-1.25475 -3.605469,-1.152343 z m -23.375,0.002 c -1.265328,0.102407 -2.4920404,0.681431 -3.3730474,1.714843 -1.655567,1.941966 -1.475007,4.796923 0.255859,6.605469 a 1.3999848,1.4000152 85.011082 0 0 0.283204,0.363281 c 0.00311,0.0027 0.00469,0.0071 0.00781,0.0098 a 1.3999848,1.4000152 85.011082 0 0 0.027344,0.02344 1.3999848,1.4000152 85.011082 0 0 0.013672,0.01172 1.3999848,1.4000152 85.011082 0 0 0.419922,0.228516 c 2.0665254,1.406182 4.9092714,1.1162 6.5527344,-0.832031 1.751223,-2.075976 1.487462,-5.21803 -0.583984,-6.97461 -1.035723,-0.878289 -2.338188,-1.252797 -3.603516,-1.15039 z m 0.222656,2.771484 c 0.546535,-0.04436 1.11067,0.123896 1.570313,0.513672 0.919286,0.779551 1.031072,2.111916 0.253906,3.033203 -0.777167,0.921286 -2.111822,1.038424 -3.035156,0.263672 a 1.3999848,1.4000152 85.011082 0 0 -0.01367,-0.0098 1.3999848,1.4000152 85.011082 0 0 -0.0039,-0.0039 C 9.9936586,27.375381 9.8886346,26.039826 10.67059,25.122601 c 0.390977,-0.458613 0.920262,-0.715407 1.466797,-0.759766 z m 23.375,0 c 0.546535,-0.04436 1.11067,0.123896 1.570313,0.513672 0.919286,0.779551 1.033025,2.113869 0.255859,3.035156 -0.777166,0.921287 -2.113775,1.036471 -3.037109,0.261719 a 1.3999848,1.4000152 85.011082 0 0 -0.01172,-0.0098 1.3999848,1.4000152 85.011082 0 0 -0.0059,-0.0039 c -0.915212,-0.784329 -1.020236,-2.119884 -0.238281,-3.037109 0.390977,-0.458613 0.920262,-0.715407 1.466797,-0.759766 z m -17.683594,8.103516 a 2,2 0 0 0 -2,2 2,2 0 0 0 2,2 h 12.34375 a 2,2 0 0 0 2,-2 2,2 0 0 0 -2,-2 z" fill="#008055"/>
</svg>
