<svg xmlns="http://www.w3.org/2000/svg" width="48" height="48">
	<path d="m 24.411195,1.9919799 c -4.697719,-0.09091 -9.448756,1.310717 -13.486328,4.291015 -1.1535922,0.851515 -2.2022642,1.797215 -3.1406252,2.81836 -6.568522,7.1480171 -7.779918,18.0190621 -2.47461,26.5390621 a 1.9000004,1.8999996 85.381803 0 0 2.615235,0.607422 1.9000004,1.8999996 85.381803 0 0 0.609375,-2.617187 C 3.5004748,25.546729 5.5169368,14.997105 13.178773,9.3415889 c 7.661836,-5.655516 18.339987,-4.475247 24.582031,2.7167971 6.242043,7.192044 5.907932,17.927091 -0.769531,24.716797 -6.677463,6.789706 -17.408042,7.302944 -24.703125,1.18164 a 1.9000004,1.8999996 85.381803 0 0 -2.6757812,0.236329 1.9000004,1.8999996 85.381803 0 0 0.232422,2.675781 C 18.631769,48.242088 31.657206,47.619449 39.700257,39.441199 47.743309,31.262949 48.150484,18.229068 40.631898,9.5661989 36.402693,4.6933339 30.45112,2.1088589 24.411195,1.9919799 Z m -7,12.4218751 a 3.4647925,3.4648135 0 0 0 -3.464844,3.464844 3.4647925,3.4648135 0 0 0 3.464844,3.464843 3.4647925,3.4648135 0 0 0 3.464844,-3.464843 3.4647925,3.4648135 0 0 0 -3.464844,-3.464844 z m 13.175781,0 a 3.4647925,3.4648135 0 0 0 -3.464844,3.464844 3.4647925,3.4648135 0 0 0 3.464844,3.464843 3.4647925,3.4648135 0 0 0 3.464844,-3.464843 3.4647925,3.4648135 0 0 0 -3.464844,-3.464844 z m -1.351562,14.849609 c -1.743571,0 -2.943362,1.073305 -3.560547,1.605469 -0.617186,0.532164 -0.701891,0.685547 -1.47461,0.685547 -0.586743,0 -0.950304,-0.232778 -1.724609,-0.78125 -0.774305,-0.548473 -1.964759,-1.478516 -3.691406,-1.478516 -1.08923,0 -2.109554,0.310113 -2.886719,0.792969 -0.777165,0.482856 -1.313155,1.052307 -1.839844,1.585937 a 1.9,1.9 0 0 0 0.01758,2.685547 1.9,1.9 0 0 0 2.685547,-0.01758 c 0.521951,-0.52883 0.885888,-0.867121 1.140625,-1.02539 0.254738,-0.158271 0.397912,-0.222657 0.882813,-0.222657 0.343693,0 0.67288,0.199518 1.49414,0.78125 0.821261,0.581733 2.130939,1.480469 3.921875,1.480469 1.870772,0 3.245357,-0.993786 3.957032,-1.607422 0.711674,-0.613636 0.707525,-0.685547 1.078125,-0.685547 0.55283,0 0.693539,0.06644 0.894531,0.191407 0.200992,0.124963 0.513377,0.422266 0.984375,1.001953 a 1.9,1.9 0 0 0 2.673828,0.277343 1.9,1.9 0 0 0 0.275391,-2.673828 C 33.514318,31.183202 32.954034,30.5339 32.135806,30.025181 31.317578,29.516462 30.291685,29.263462 29.235416,29.263462 Z" fill="#008055"/>
</svg>
