<?xml version="1.0" encoding="UTF-8" standalone="no"?>
<svg
   xmlns:dc="http://purl.org/dc/elements/1.1/"
   xmlns:cc="http://creativecommons.org/ns#"
   xmlns:rdf="http://www.w3.org/1999/02/22-rdf-syntax-ns#"
   xmlns:svg="http://www.w3.org/2000/svg"
   xmlns="http://www.w3.org/2000/svg"
   xmlns:xlink="http://www.w3.org/1999/xlink"
   xmlns:sodipodi="http://sodipodi.sourceforge.net/DTD/sodipodi-0.dtd"
   xmlns:inkscape="http://www.inkscape.org/namespaces/inkscape"
   width="64"
   version="1.1"
   height="64"
   id="svg17"
   sodipodi:docname="folder-mail.svg"
   inkscape:version="1.0.1 (3bc2e813f5, 2020-09-07)">
  <sodipodi:namedview
     pagecolor="#ffffff"
     bordercolor="#666666"
     borderopacity="1"
     objecttolerance="10"
     gridtolerance="10"
     guidetolerance="10"
     inkscape:pageopacity="0"
     inkscape:pageshadow="2"
     inkscape:window-width="1920"
     inkscape:window-height="1016"
     id="namedview19"
     showgrid="false"
     inkscape:zoom="6.9384853"
     inkscape:cx="28.657143"
     inkscape:cy="51.034987"
     inkscape:window-x="0"
     inkscape:window-y="0"
     inkscape:window-maximized="1"
     inkscape:current-layer="layer1"
     inkscape:document-rotation="0" />
  <defs
     id="defs5455">
    <linearGradient
       inkscape:collect="always"
       xlink:href="#linearGradient853"
       id="linearGradient903"
       x1="406.24146"
       y1="522.7749"
       x2="425.22531"
       y2="522.7749"
       gradientUnits="userSpaceOnUse"
       gradientTransform="matrix(1.1110844,0,0,1.1110844,-45.624617,-57.97113)" />
    <linearGradient
       inkscape:collect="always"
       xlink:href="#linearGradient853"
       id="linearGradient905"
       x1="406.242"
       y1="514.64697"
       x2="425.22653"
       y2="514.64697"
       gradientUnits="userSpaceOnUse"
       gradientTransform="matrix(1.1110844,0,0,1.1110844,-45.624617,-57.97113)" />
    <linearGradient
       inkscape:collect="always"
       xlink:href="#linearGradient853"
       id="linearGradient907"
       x1="412.01132"
       y1="515.8595"
       x2="419.45621"
       y2="515.8595"
       gradientUnits="userSpaceOnUse"
       gradientTransform="matrix(1.2873333,0,0,1.2873333,-118.79618,-148.11364)" />
    <linearGradient
       inkscape:collect="always"
       xlink:href="#linearGradient853"
       id="linearGradient854"
       gradientUnits="userSpaceOnUse"
       gradientTransform="matrix(0.72629168,0,0,0.74255505,380.21368,478.65999)"
       x1="6"
       y1="50.000134"
       x2="94.005508"
       y2="50.000134" />
    <linearGradient
       inkscape:collect="always"
       id="linearGradient853">
      <stop
         style="stop-color:#008080;stop-opacity:1"
         offset="0"
         id="stop849" />
      <stop
         style="stop-color:#00e5e5;stop-opacity:1"
         offset="1"
         id="stop851" />
    </linearGradient>
  </defs>
  <metadata
     id="metadata5458">
    <rdf:RDF>
      <cc:Work
         rdf:about="">
        <dc:format>image/svg+xml</dc:format>
        <dc:type
           rdf:resource="http://purl.org/dc/dcmitype/StillImage" />
      </cc:Work>
    </rdf:RDF>
  </metadata>
  <g
     inkscape:label="Capa 1"
     inkscape:groupmode="layer"
     id="layer1"
     transform="translate(-384.57143,-483.798)">
    <path
       d="M 416.29015,522.08438 405.744,516.12579 v 11.24125 c 0,1.2478 1.01158,2.26006 2.26006,2.26006 h 16.57254 c 1.24779,0 2.26006,-1.01158 2.26006,-2.26006 v -11.24211 z"
       id="path2-3"
       style="fill:url(#linearGradient903);fill-opacity:1.0;stroke-width:0.809128" />
    <path
       d="m 409.09393,518.0192 -0.005,-6.70205 c -3.6e-4,-0.31168 0.25322,-0.56473 0.56473,-0.56473 h 13.27794 c 0.3115,0 0.56471,0.25305 0.56471,0.56473 l 0.0227,6.75235 1.64092,-0.98904 1.67822,-0.95553 -2.2136,-1.57623 v -3.23155 c 0,-0.93452 -0.75978,-1.69505 -1.69511,-1.69505 h -4.78228 l -1.67117,-10e-4 -2.04135,0.002 h -4.78238 c -0.93465,-6.4e-4 -1.69523,0.75986 -1.69523,1.69437 v 3.23177 l -2.21237,1.5771 1.90659,1.10433 z"
       id="path4"
       style="fill:url(#linearGradient905);fill-opacity:1.0;stroke-width:0.809162"
       sodipodi:nodetypes="cssssccccssccccscccc" />
    <path
       d="m 418.81854,513.77372 c -0.32151,-0.19524 -1.09121,-0.36384 -1.72125,-0.36384 -2.04277,0 -3.2596,1.52432 -3.2596,3.2174 0,1.1605 0.65702,1.86104 1.59463,1.86104 0.71342,0 1.3144,-0.36384 1.72103,-1.02193 h 0.041 c 0.11431,0.68634 0.56147,1.02193 1.26105,1.02193 1.5946,0 2.72796,-1.31543 2.72796,-3.33 0,-2.36439 -1.81878,-4.05743 -4.29563,-4.05743 -3.16112,0 -5.28834,2.47669 -5.28834,5.31633 0,2.75625 2.0981,4.42118 4.42123,4.42118 1.02094,0 1.72029,-0.11363 2.58843,-0.47617 0,0 0.57561,-0.20065 0.39368,-0.63833 -0.18191,-0.43784 -0.6449,-0.25601 -0.6449,-0.25601 -0.5606,0.26622 -1.32959,0.40588 -2.00068,0.40588 -2.08499,0 -3.5681,-1.25988 -3.5681,-3.60937 0,-2.6024 1.86001,-4.21213 3.94485,-4.21213 2.15449,0 3.30203,1.38574 3.30203,3.12084 0,1.60872 -0.7275,2.29411 -1.27316,2.26604 -0.36372,-0.009 -0.4349,-0.34976 -0.32337,-1.04901 z m -1.81956,2.14106 c -0.11289,0.78278 -0.56081,1.27318 -0.96497,1.27318 -0.37772,0 -0.57273,-0.28035 -0.57273,-0.76955 0,-0.95178 0.60196,-1.74956 1.38477,-1.74956 0.1136,0 0.22396,0.009 0.32144,0.0425 z"
       id="path6"
       style="fill:url(#linearGradient907);fill-opacity:1.0;stroke-width:0.937487" />
    <path
       style="color:#000000;font-style:normal;font-variant:normal;font-weight:normal;font-stretch:normal;font-size:medium;line-height:normal;font-family:Sans;-inkscape-font-specification:Sans;text-indent:0;text-align:start;text-decoration:none;text-decoration-line:none;letter-spacing:normal;word-spacing:normal;text-transform:none;writing-mode:lr-tb;direction:ltr;baseline-shift:baseline;text-anchor:start;display:inline;overflow:visible;visibility:visible;opacity:1;fill:url(#linearGradient854);fill-opacity:1;fill-rule:nonzero;stroke:none;stroke-width:2.93752;marker:none;enable-background:accumulate"
       d="m 390.06401,489.79832 c -2.96184,0 -5.49258,2.12365 -5.49258,4.94263 v 41.59534 c 0,1.75607 0.62112,2.88438 1.827,3.90814 1.20589,1.02376 2.45739,1.53271 4.0543,1.53271 h 50.76916 c 1.21887,0.0215 1.18421,-1.65211 2.9e-4,-1.66986 l -50.83968,-0.0297 c -1.57123,0 -2.87678,-1.10856 -2.87678,-1.10856 0,0 -1.20306,-0.90331 -1.20306,-2.63287 V 494.7408 c 0,-1.94263 1.32113,-3.18899 3.62883,-3.16363 l 17.87074,-0.009 8.52177,7.59699 c 0.25751,0.23235 0.58719,0.5636 0.93054,0.57102 l 24.77924,-0.009 c 1.26345,-0.007 1.22353,-1.74084 -0.0399,-1.76111 h -24.21729 l -9.03326,-7.82 c -0.2607,-0.22393 -0.59006,-0.34713 -0.93055,-0.34807 z m 28.82471,2.15805 c -1.15301,-0.003 -1.15532,1.9833 0.0288,2.00023 l 22.10036,-0.0303 c 2.2394,-0.003 3.20957,0.72263 3.9552,1.41823 0.74565,0.6956 1.87873,2.39858 1.87873,4.15338 v 40.79412 c 0.007,1.38049 1.63241,1.42593 1.63726,0.0475 l -0.004,-40.84186 c -2.3e-4,-2.38391 -0.77964,-4.37983 -2.17888,-5.68517 -1.39923,-1.30535 -3.30423,-1.85639 -5.28831,-1.85639 h -21.99302 c -0.0454,-0.002 -0.0908,-0.002 -0.13618,0 z"
       id="path2-3-3"
       sodipodi:nodetypes="sssssccscsssccccccccsccsssccssscc" />
  </g>
</svg>
