<?xml version="1.0" encoding="UTF-8" standalone="no"?>
<svg
   xmlns:dc="http://purl.org/dc/elements/1.1/"
   xmlns:cc="http://creativecommons.org/ns#"
   xmlns:rdf="http://www.w3.org/1999/02/22-rdf-syntax-ns#"
   xmlns:svg="http://www.w3.org/2000/svg"
   xmlns="http://www.w3.org/2000/svg"
   xmlns:xlink="http://www.w3.org/1999/xlink"
   xmlns:sodipodi="http://sodipodi.sourceforge.net/DTD/sodipodi-0.dtd"
   xmlns:inkscape="http://www.inkscape.org/namespaces/inkscape"
   width="64"
   version="1.1"
   height="64"
   id="svg15"
   sodipodi:docname="folder-KDE.svg"
   inkscape:version="1.0.1 (3bc2e813f5, 2020-09-07)">
  <sodipodi:namedview
     pagecolor="#ffffff"
     bordercolor="#666666"
     borderopacity="1"
     objecttolerance="10"
     gridtolerance="10"
     guidetolerance="10"
     inkscape:pageopacity="0"
     inkscape:pageshadow="2"
     inkscape:window-width="1920"
     inkscape:window-height="1016"
     id="namedview17"
     showgrid="false"
     inkscape:zoom="9.8125"
     inkscape:cx="32"
     inkscape:cy="32"
     inkscape:window-x="0"
     inkscape:window-y="0"
     inkscape:window-maximized="1"
     inkscape:current-layer="layer1"
     inkscape:document-rotation="0" />
  <defs
     id="defs5455">
    <linearGradient
       inkscape:collect="always"
       id="linearGradient842">
      <stop
         style="stop-color:#008080;stop-opacity:1"
         offset="0"
         id="stop838" />
      <stop
         style="stop-color:#00e5e5;stop-opacity:1"
         offset="1"
         id="stop840" />
    </linearGradient>
    <linearGradient
       inkscape:collect="always"
       xlink:href="#linearGradient842"
       id="linearGradient838"
       x1="6"
       y1="50.000134"
       x2="94.005508"
       y2="50.000134"
       gradientUnits="userSpaceOnUse"
       gradientTransform="matrix(0.9780981,0,0,1,64.250683,974.47294)" />
    <linearGradient
       inkscape:collect="always"
       xlink:href="#linearGradient842"
       id="linearGradient890"
       x1="405.99969"
       y1="519.43079"
       x2="426.00165"
       y2="519.43079"
       gradientUnits="userSpaceOnUse"
       gradientTransform="matrix(0.95712953,0,0,0.95241923,17.676841,25.082543)" />
  </defs>
  <metadata
     id="metadata5458">
    <rdf:RDF>
      <cc:Work
         rdf:about="">
        <dc:format>image/svg+xml</dc:format>
        <dc:type
           rdf:resource="http://purl.org/dc/dcmitype/StillImage" />
      </cc:Work>
    </rdf:RDF>
  </metadata>
  <g
     inkscape:label="Capa 1"
     inkscape:groupmode="layer"
     id="layer1"
     transform="translate(-384.57143,-483.798)">
    <path
       style="color:#d3dae3;fill:url(#linearGradient890);fill-opacity:1.0;stroke-width:0.954771"
       d="m 417.75672,509.798 -3.82857,0.57669 v 13.7803 l 3.82857,-1.02312 v -5.32388 l 3.82849,6.2763 3.82852,-1.42865 -4.78563,-5.71449 4.78749,-6.18887 -3.71449,-0.95428 -3.94438,6.24653 z m -7.79541,3.73711 c -0.0905,0 -0.18108,0.0348 -0.25048,0.10416 l -1.5049,1.49751 c -0.1388,0.13817 -0.10537,0.33553 0,0.50037 l 1.55726,2.43314 c -0.11542,0.23833 -0.21529,0.48373 -0.29912,0.73481 -0.004,0.0102 -0.01,0.0208 -0.0128,0.0311 l -2.82468,0.62499 c -0.19164,0.0425 -0.35516,0.15805 -0.35516,0.35351 v 0.93566 0.93565 c 0,0.19539 0.16352,0.31103 0.35516,0.35342 l 2.82468,0.62507 c 0.006,0.0184 0.0159,0.0353 0.0225,0.0536 0.0816,0.24387 0.17833,0.48244 0.28976,0.71434 l -1.55725,2.43124 c -0.10539,0.16486 -0.13884,0.36224 0,0.5004 l 1.50491,1.49743 c 0.13886,0.13817 0.36211,0.13817 0.50095,0 l 2.44147,-1.54765 c 0.23997,0.11615 0.48724,0.21682 0.74024,0.3013 0.0165,0.006 0.0318,0.0145 0.0489,0.0205 l 0.62624,2.80892 c 0,0.19537 0.15884,0.35342 0.3552,0.35342 h 2.12546 c 0.19641,0 0.31261,-0.16272 0.35523,-0.35342 l 0.62622,-2.89447 c 0.28773,-0.10763 0.56702,-0.23635 0.83561,-0.38511 l 2.38349,1.69651 c 0.13884,0.13818 0.36213,0.13818 0.50099,0 l 1.50487,-1.49742 c 0.13884,-0.13816 0.10543,-0.33554 0,-0.5004 l -0.90664,-1.36909 -0.0951,0.0351 c -0.21562,0.0806 -0.45828,-0.003 -0.57765,-0.19903 l -0.95338,-1.56255 c -0.79436,1.89071 -2.67035,3.21999 -4.85856,3.21999 -2.90735,0 -5.26422,-2.3453 -5.26422,-5.23831 0,-2.22001 1.39051,-4.11291 3.34994,-4.87556 v -1.0436 l -0.008,0.0332 c -0.0212,0.007 -0.0406,0.0186 -0.0617,0.0263 -0.24966,0.0826 -0.49375,0.1806 -0.7309,0.2939 l -2.43776,-1.54584 c -0.0697,-0.0693 -0.15995,-0.10416 -0.25048,-0.10416 z"
       class="ColorScheme-Text"
       id="path10-7" />
    <g
       transform="matrix(0.74255505,0,0,0.74255505,332.60107,-244.44015)"
       id="g4">
      <path
         style="color:#000000;font-style:normal;font-variant:normal;font-weight:normal;font-stretch:normal;font-size:medium;line-height:normal;font-family:Sans;-inkscape-font-specification:Sans;text-indent:0;text-align:start;text-decoration:none;text-decoration-line:none;letter-spacing:normal;word-spacing:normal;text-transform:none;writing-mode:lr-tb;direction:ltr;baseline-shift:baseline;text-anchor:start;display:inline;overflow:visible;visibility:visible;opacity:1;fill:url(#linearGradient838);fill-opacity:1;fill-rule:nonzero;stroke:none;stroke-width:3.95596;marker:none;enable-background:accumulate"
         d="m 77.516136,989.47294 c -3.988712,0 -7.396866,2.85993 -7.396866,6.65625 v 56.01651 c 0,2.3649 0.836461,3.8844 2.460429,5.2631 1.623967,1.3787 3.30936,2.0641 5.459931,2.0641 h 68.3709 c 1.64145,0.029 1.59477,-2.2249 3.9e-4,-2.2488 l -68.465873,-0.04 c -2.115981,0 -3.874159,-1.4929 -3.874159,-1.4929 0,0 -1.620163,-1.2165 -1.620163,-3.5457 v -56.01651 c 0,-2.61614 1.77916,-4.29462 4.886948,-4.26047 l 24.066557,-0.0121 11.47627,10.23088 c 0.34679,0.3129 0.79077,0.759 1.25317,0.769 l 33.37023,-0.012 c 1.7015,-0.01 1.64773,-2.3444 -0.0538,-2.3717 h -32.61346 l -12.1651,-10.53119 c -0.35109,-0.30157 -0.79464,-0.46748 -1.25318,-0.46875 z m 38.818274,2.90625 c -1.55276,-0.004 -1.55586,2.67092 0.0388,2.69371 l 29.7626,-0.0408 c 3.0158,-0.004 4.32232,0.97316 5.32647,1.90993 1.00416,0.93677 2.53008,3.23017 2.53008,5.59337 v 54.9375 c 0.009,1.8591 2.19838,1.9203 2.20491,0.064 l -0.006,-55.0018 c -3.1e-4,-3.21041 -1.04994,-5.89832 -2.9343,-7.65623 -1.88434,-1.75791 -4.44981,-2.5 -7.12177,-2.5 h -29.61804 c -0.0611,-0.003 -0.12228,-0.003 -0.18339,0 z"
         id="path2-3"
         sodipodi:nodetypes="sssssccscsssccccccccsccsssccssscc" />
    </g>
  </g>
</svg>
