<?xml version="1.0" encoding="UTF-8" standalone="no"?>
<svg
   xmlns:dc="http://purl.org/dc/elements/1.1/"
   xmlns:cc="http://creativecommons.org/ns#"
   xmlns:rdf="http://www.w3.org/1999/02/22-rdf-syntax-ns#"
   xmlns:svg="http://www.w3.org/2000/svg"
   xmlns="http://www.w3.org/2000/svg"
   xmlns:xlink="http://www.w3.org/1999/xlink"
   xmlns:sodipodi="http://sodipodi.sourceforge.net/DTD/sodipodi-0.dtd"
   xmlns:inkscape="http://www.inkscape.org/namespaces/inkscape"
   width="64"
   version="1.1"
   height="64"
   id="svg15"
   sodipodi:docname="folder-Pop_OS.svg"
   inkscape:version="1.0.2 (e86c870879, 2021-01-15)">
  <sodipodi:namedview
     pagecolor="#ffffff"
     bordercolor="#666666"
     borderopacity="1"
     objecttolerance="10"
     gridtolerance="10"
     guidetolerance="10"
     inkscape:pageopacity="0"
     inkscape:pageshadow="2"
     inkscape:window-width="1920"
     inkscape:window-height="1007"
     id="namedview17"
     showgrid="true"
     inkscape:zoom="9.8125"
     inkscape:cx="32"
     inkscape:cy="32"
     inkscape:window-x="0"
     inkscape:window-y="0"
     inkscape:window-maximized="1"
     inkscape:current-layer="layer1"
     inkscape:document-rotation="0">
    <inkscape:grid
       type="xygrid"
       id="grid850" />
  </sodipodi:namedview>
  <defs
     id="defs5455">
    <linearGradient
       inkscape:collect="always"
       xlink:href="#linearGradient836"
       id="linearGradient838"
       x1="6"
       y1="50.000134"
       x2="94.005508"
       y2="50.000134"
       gradientUnits="userSpaceOnUse"
       gradientTransform="matrix(0.9780981,0,0,1,64.250683,974.47294)" />
    <linearGradient
       inkscape:collect="always"
       id="linearGradient836">
      <stop
         style="stop-color:#008080;stop-opacity:1"
         offset="0"
         id="stop832" />
      <stop
         style="stop-color:#00e5e5;stop-opacity:1"
         offset="1"
         id="stop834" />
    </linearGradient>
    <linearGradient
       inkscape:collect="always"
       xlink:href="#linearGradient836"
       id="linearGradient926"
       x1="423.31808"
       y1="517.20392"
       x2="426.5556"
       y2="517.20392"
       gradientUnits="userSpaceOnUse"
       gradientTransform="matrix(1.1000015,0,0,1.1000138,-41.378357,-50.541724)" />
    <linearGradient
       inkscape:collect="always"
       xlink:href="#linearGradient836"
       id="linearGradient928"
       x1="413.9173"
       y1="518.79504"
       x2="417.81851"
       y2="518.79504"
       gradientUnits="userSpaceOnUse"
       gradientTransform="matrix(1.1000015,0,0,1.1000138,-41.378357,-50.541724)" />
    <linearGradient
       inkscape:collect="always"
       xlink:href="#linearGradient836"
       id="linearGradient930"
       x1="418.5582"
       y1="518.65289"
       x2="422.60925"
       y2="518.65289"
       gradientUnits="userSpaceOnUse"
       gradientTransform="matrix(1.1000015,0,0,1.1000138,-41.378357,-50.541724)" />
    <linearGradient
       inkscape:collect="always"
       xlink:href="#linearGradient836"
       id="linearGradient932"
       x1="406.31744"
       y1="517.87299"
       x2="413.16266"
       y2="517.87299"
       gradientUnits="userSpaceOnUse"
       gradientTransform="matrix(1.1000015,0,0,1.1000138,-41.378357,-50.541724)" />
    <linearGradient
       inkscape:collect="always"
       xlink:href="#linearGradient836"
       id="linearGradient934"
       x1="420.06085"
       y1="524.62439"
       x2="426.59094"
       y2="524.62439"
       gradientUnits="userSpaceOnUse"
       gradientTransform="matrix(1.1000015,0,0,1.1000138,-41.378357,-50.541724)" />
    <linearGradient
       inkscape:collect="always"
       xlink:href="#linearGradient836"
       id="linearGradient936"
       x1="415.65665"
       y1="526.09137"
       x2="419.34311"
       y2="526.09137"
       gradientUnits="userSpaceOnUse"
       gradientTransform="matrix(1.1000015,0,0,1.1000138,-41.378357,-50.541724)" />
  </defs>
  <metadata
     id="metadata5458">
    <rdf:RDF>
      <cc:Work
         rdf:about="">
        <dc:format>image/svg+xml</dc:format>
        <dc:type
           rdf:resource="http://purl.org/dc/dcmitype/StillImage" />
      </cc:Work>
    </rdf:RDF>
  </metadata>
  <g
     inkscape:label="Capa 1"
     inkscape:groupmode="layer"
     id="layer1"
     transform="translate(-384.57143,-483.798)">
    <g
       transform="matrix(0.74255505,0,0,0.74255505,332.56265,-244.61311)"
       id="g4">
      <path
         style="color:#000000;font-style:normal;font-variant:normal;font-weight:normal;font-stretch:normal;font-size:medium;line-height:normal;font-family:Sans;-inkscape-font-specification:Sans;text-indent:0;text-align:start;text-decoration:none;text-decoration-line:none;letter-spacing:normal;word-spacing:normal;text-transform:none;writing-mode:lr-tb;direction:ltr;baseline-shift:baseline;text-anchor:start;display:inline;overflow:visible;visibility:visible;opacity:1;fill:url(#linearGradient838);fill-opacity:1;fill-rule:nonzero;stroke:none;stroke-width:3.95596;marker:none;enable-background:accumulate"
         d="m 77.516136,989.47294 c -3.988712,0 -7.396866,2.85993 -7.396866,6.65625 v 56.01651 c 0,2.3649 0.836461,3.8844 2.460429,5.2631 1.623967,1.3787 3.30936,2.0641 5.459931,2.0641 h 68.3709 c 1.64145,0.029 1.59477,-2.2249 3.9e-4,-2.2488 l -68.465873,-0.04 c -2.115981,0 -3.874159,-1.4929 -3.874159,-1.4929 0,0 -1.620163,-1.2165 -1.620163,-3.5457 v -56.01651 c 0,-2.61614 1.77916,-4.29462 4.886948,-4.26047 l 24.066557,-0.0121 11.47627,10.23088 c 0.34679,0.3129 0.79077,0.759 1.25317,0.769 l 33.37023,-0.012 c 1.7015,-0.01 1.64773,-2.3444 -0.0538,-2.3717 h -32.61346 l -12.1651,-10.53119 c -0.35109,-0.30157 -0.79464,-0.46748 -1.25318,-0.46875 z m 38.818274,2.90625 c -1.55276,-0.004 -1.55586,2.67092 0.0388,2.69371 l 29.7626,-0.0408 c 3.0158,-0.004 4.32232,0.97316 5.32647,1.90993 1.00416,0.93677 2.53008,3.23017 2.53008,5.59337 v 54.9375 c 0.009,1.8591 2.19838,1.9203 2.20491,0.064 l -0.006,-55.0018 c -3.1e-4,-3.21041 -1.04994,-5.89832 -2.9343,-7.65623 -1.88434,-1.75791 -4.44981,-2.5 -7.12177,-2.5 h -29.61804 c -0.0611,-0.003 -0.12228,-0.003 -0.18339,0 z"
         id="path2-3"
         sodipodi:nodetypes="sssssccscsssccccccccsccsssccssscc" />
    </g>
    <path
       style="fill:url(#linearGradient926);fill-opacity:1;stroke-width:0.0217446"
       id="path2-3-3"
       d="m 425.49867,521.82355 c -0.041,0.17363 -0.1291,0.32749 -0.27969,0.42416 -0.2366,0.15168 -0.52492,0.1077 -0.72922,-0.0769 -0.19153,-0.17142 -0.25606,-0.46153 -0.19579,-0.7121 0.0623,-0.26157 0.26031,-0.49234 0.51411,-0.56488 0.56582,-0.16042 0.80027,0.46814 0.69059,0.92975 z m -0.34636,-1.78472 c -0.35067,-0.14286 -0.23022,-2.02207 0.0905,-4.30348 0.0905,-0.63741 0.24523,-0.93856 0.41946,-1.09242 0.24954,-0.21756 0.70349,-0.2264 1.0111,-0.18023 0.35284,0.0525 0.69054,0.21983 0.94654,0.47257 0.2259,0.22421 0.25174,0.45277 0.17424,0.7495 -0.1269,0.47257 -0.34417,0.92534 -0.55287,1.36711 -0.0492,0.10769 -0.4819,0.94507 -0.53992,1.04837 -1.04339,1.87704 -1.25203,2.0595 -1.54893,1.93858 z" />
    <path
       style="fill:url(#linearGradient928);fill-opacity:1;stroke-width:0.0217446"
       id="path4"
       d="m 418.07469,519.19266 c 0.2065,0.90113 0.18498,1.89019 0.008,2.60229 -0.16567,0.67256 -0.61528,1.27478 -1.32953,1.47697 -0.62597,0.17806 -1.35528,0.0482 -1.8027,-0.39121 -0.73574,-0.72091 -1.16598,-2.4133 -0.97452,-3.64189 0.15486,-0.98688 0.67548,-2.25071 1.81777,-2.30566 0.0735,-0.004 0.14628,-0.002 0.21947,0.004 1.16381,0.1077 1.79845,1.10998 2.06089,2.25509 z m -2.10391,2.05061 c 0.0643,0.0113 0.12907,0.0113 0.19363,-0.008 0.21725,-0.0635 0.34203,-0.29458 0.40008,-0.51872 0.0883,-0.34067 0.0755,-0.70775 -0.0388,-1.04185 -0.0581,-0.16925 -0.14409,-0.33409 -0.27536,-0.45718 -0.46249,-0.43297 -0.92498,0.0174 -1.0046,0.5297 -0.0623,0.40004 0.0282,0.86379 0.27318,1.1869 0.11402,0.14946 0.27755,0.27912 0.4518,0.30989 z" />
    <path
       style="fill:url(#linearGradient930);fill-opacity:1;stroke-width:0.0217446"
       id="path6"
       d="m 420.59383,521.10264 c -0.002,1.66378 0.16133,2.93641 -0.55508,3.08804 -0.58081,0.1209 -0.56142,-0.40002 -0.60664,-0.83741 -0.17204,-1.69457 -0.32909,-4.51009 -0.39585,-6.21345 0.0472,-0.73194 0.52714,-1.18034 1.02621,-1.29018 0.77014,-0.16925 1.59191,-0.1209 2.27383,0.30987 1.34884,0.85282 1.4564,2.41771 0.63893,3.69468 -0.44741,0.69677 -1.80059,1.20229 -2.3814,1.15831 z m 0.17209,-3.72986 c -0.0841,0.0134 -0.22156,0.0524 -0.2603,0.13625 -0.0925,0.1956 -0.0864,1.43745 0.0755,1.95834 0.026,0.086 0.0837,0.16702 0.16779,0.1978 0.3055,0.11429 0.58089,-0.26813 0.70566,-0.49893 0.17423,-0.32089 0.23012,-0.69889 0.12041,-1.05061 -0.10352,-0.32744 -0.42377,-0.80221 -0.80884,-0.74285 z" />
    <path
       style="fill:url(#linearGradient932);fill-opacity:1;stroke-width:0.0217446"
       id="path8"
       d="m 412.87939,518.19918 c -0.50553,1.09239 -1.34452,1.96057 -2.50618,2.38914 0.33348,0.89015 0.67335,1.76933 1.00462,2.65725 0.18506,0.47912 0.36142,1.00448 0.20008,1.47698 -0.16781,0.48355 -0.82176,0.61761 -1.2972,0.10352 -0.91428,-0.99351 -4.00561,-7.28829 -4.23363,-7.76087 -0.19366,-0.4066 -0.48402,-0.84181 -0.47547,-1.31214 0.0151,-0.70775 1.08643,-1.42427 1.60053,-1.79127 0.71854,-0.51215 1.54889,-0.86162 2.43736,-0.86379 0.69273,0 1.2843,0.19344 1.80923,0.53625 0.80455,0.52756 1.36391,1.36931 1.57045,2.32102 0.18065,0.83739 0.14195,1.69463 -0.10971,2.24411 m -2.35561,-1.19572 c -0.18068,-0.67031 -0.58947,-1.28792 -1.10361,-1.72093 -0.11186,-0.0943 -0.23235,-0.18246 -0.37214,-0.23076 -0.96375,-0.32312 -0.5464,1.32312 -0.38936,1.73853 0.21726,0.58245 0.54641,1.31873 0.9874,1.75829 0.0966,0.0965 0.21083,0.18245 0.34203,0.20881 0.20007,0.0418 0.38506,-0.10144 0.48622,-0.26812 0.0837,-0.13848 0.11607,-0.30332 0.13553,-0.46373 0.0364,-0.34069 0.004,-0.68799 -0.0864,-1.02209 z" />
    <path
       style="fill:url(#linearGradient934);fill-opacity:1;stroke-width:0.0217446"
       id="path10"
       d="m 424.40441,526.56597 c -0.004,0.96491 -0.58084,1.92983 -1.85218,1.92983 -1.27141,0 -1.86298,-0.94953 -1.86298,-1.91879 0,-1.20886 0.82392,-1.95618 1.88875,-1.95618 1.23482,0.0111 1.83718,0.94735 1.82641,1.94514 z m -1.82641,-1.33629 c -0.7981,0 -1.2456,0.56707 -1.24982,1.3407 0,0.67257 0.36785,1.30341 1.23477,1.30341 0.86694,0 1.19827,-0.68354 1.19827,-1.30999 0.0113,-0.65056 -0.32702,-1.31873 -1.18322,-1.33412 z m 2.35997,2.77153 c 0,0.14287 0.004,-0.67915 0,-0.80441 h 0.58515 l 0.0411,0.50334 c 0.19152,0.11213 0.48836,0.19562 0.73143,0.19562 0.45182,0 0.92295,-0.11658 0.92295,-0.56707 -0.0151,-0.40886 -0.54001,-0.49235 -0.96378,-0.53633 -0.72067,-0.075 -1.30149,-0.25492 -1.30149,-1.08135 0,-0.73631 0.81528,-1.10332 1.42193,-1.10332 0.48835,-0.0112 0.83468,0.0678 1.27568,0.42855 0,0.29677 -0.004,0.47258 -0.004,0.7693 h -0.56563 l -0.0364,-0.48792 c -0.22803,-0.11215 -0.46255,-0.14289 -0.64322,-0.13848 -0.3894,0.004 -0.80457,0.1912 -0.80457,0.52528 0,0.3275 0.26889,0.41759 0.74645,0.48796 0.7788,0.10565 1.52957,0.28569 1.52957,1.1341 -0.004,0.92754 -0.8562,1.17149 -1.58762,1.17149 -0.55718,0.002 -0.90567,-0.10352 -1.34669,-0.49676 z"
       inkscape:connector-curvature="0" />
    <path
       style="fill:url(#linearGradient936);fill-opacity:1;stroke-width:0.0217446"
       id="path12"
       d="m 419.89969,528.17927 c 0,0.16925 -0.13336,0.30548 -0.299,0.30548 h -3.45707 c -0.16561,0 -0.299,-0.13623 -0.299,-0.30548 v -0.0264 c 0,-0.16925 0.13339,-0.30555 0.299,-0.30555 h 3.45707 c 0.16564,0 0.299,0.1363 0.299,0.30555 z"
       inkscape:connector-curvature="0" />
  </g>
</svg>
