<?xml version="1.0" encoding="UTF-8" standalone="no"?>
<svg
   xmlns:dc="http://purl.org/dc/elements/1.1/"
   xmlns:cc="http://creativecommons.org/ns#"
   xmlns:rdf="http://www.w3.org/1999/02/22-rdf-syntax-ns#"
   xmlns:svg="http://www.w3.org/2000/svg"
   xmlns="http://www.w3.org/2000/svg"
   xmlns:xlink="http://www.w3.org/1999/xlink"
   xmlns:sodipodi="http://sodipodi.sourceforge.net/DTD/sodipodi-0.dtd"
   xmlns:inkscape="http://www.inkscape.org/namespaces/inkscape"
   width="64"
   version="1.1"
   height="64"
   id="svg17"
   sodipodi:docname="folder-html.svg"
   inkscape:version="1.0.1 (3bc2e813f5, 2020-09-07)">
  <sodipodi:namedview
     pagecolor="#ffffff"
     bordercolor="#666666"
     borderopacity="1"
     objecttolerance="10"
     gridtolerance="10"
     guidetolerance="10"
     inkscape:pageopacity="0"
     inkscape:pageshadow="2"
     inkscape:window-width="1920"
     inkscape:window-height="1016"
     id="namedview19"
     showgrid="false"
     inkscape:zoom="9.8125"
     inkscape:cx="32"
     inkscape:cy="32"
     inkscape:window-x="0"
     inkscape:window-y="0"
     inkscape:window-maximized="1"
     inkscape:current-layer="layer1"
     inkscape:document-rotation="0" />
  <defs
     id="defs5455">
    <linearGradient
       inkscape:collect="always"
       id="linearGradient842">
      <stop
         style="stop-color:#008080;stop-opacity:1"
         offset="0"
         id="stop838" />
      <stop
         style="stop-color:#00e5e5;stop-opacity:1"
         offset="1"
         id="stop840" />
    </linearGradient>
    <linearGradient
       inkscape:collect="always"
       xlink:href="#linearGradient842"
       id="linearGradient890"
       x1="406.05936"
       y1="519.07739"
       x2="425.9559"
       y2="519.07739"
       gradientUnits="userSpaceOnUse"
       gradientTransform="translate(0,0.72062187)" />
    <linearGradient
       inkscape:collect="always"
       xlink:href="#linearGradient842"
       id="linearGradient838"
       x1="6"
       y1="50.000134"
       x2="94.005508"
       y2="50.000134"
       gradientUnits="userSpaceOnUse"
       gradientTransform="matrix(0.9780981,0,0,1,126.99591,990.06777)" />
  </defs>
  <metadata
     id="metadata5458">
    <rdf:RDF>
      <cc:Work
         rdf:about="">
        <dc:format>image/svg+xml</dc:format>
        <dc:type
           rdf:resource="http://purl.org/dc/dcmitype/StillImage" />
      </cc:Work>
    </rdf:RDF>
  </metadata>
  <g
     inkscape:label="Capa 1"
     inkscape:groupmode="layer"
     id="layer1"
     transform="translate(-384.57143,-483.798)">
    <path
       d="m 425.55976,517.47056 v 0 0 c 0,0 0,0 0,0 0,0 0,0 0,0 z m -7.15873,12.04378 c -4.86254,1.19313 -10.01773,-1.46326 -11.75113,-6.34831 -0.63033,-1.77842 -0.7654,-3.60187 -0.36019,-5.44784 0.0225,-0.045 0.045,-0.11256 0.0675,-0.15758 0,0.045 0,0.11256 0.0225,0.15758 0,0.0225 0.0225,0.0675 0.045,0.0901 0,-0.045 0.0225,-0.0675 0.0225,-0.11256 0,-0.13507 0,-0.27014 0.0225,-0.42772 0.13507,0.11256 0.045,0.27014 0.09,0.3827 0.0675,0.1801 0.0675,0.36019 0.0675,0.56279 -0.0225,0.29266 0.24763,0.49526 0.45023,0.51777 0.3827,0.045 0.60782,0.33768 0.9455,0.45024 0.15758,0.045 0.24763,0.20261 0.27014,0.27014 0.045,0.29265 0.27014,0.3827 0.45023,0.49526 0.045,0.0225 0.0901,0.0675 0.13507,0 0.15759,-0.31517 0.1801,-0.0901 0.24763,0.045 0.15758,0.33768 0.0225,0.60782 -0.15758,0.87796 -0.13507,0.18009 -0.29265,0.36018 -0.13507,0.60781 0.0225,0.0225 0,0.09 -0.0225,0.11256 -0.11256,0.1801 -0.045,0.31517 0.0675,0.47275 0.15759,0.22512 0.29266,0.45023 0.40521,0.69786 0.15759,0.31517 0.29266,0.60782 0.65284,0.7654 0.22512,0.09 0.36019,0.29265 0.3827,0.56279 0.0675,0.7654 0.1801,1.5308 0.29266,2.27369 0.0675,0.45024 0.42772,0.7654 0.5853,1.17061 0.0675,0.18009 0.1801,0.33768 0.31517,0.49526 0.24763,0.29265 0.60781,0.31516 0.92298,0.47275 0.0225,0 0.0675,0 0.0901,0 -0.0225,-0.0225 -0.0675,-0.045 -0.0901,-0.0675 -0.20261,-0.18009 -0.63033,-0.22511 -0.36019,-0.65283 0,-0.0225 -0.0225,-0.0675 -0.0225,-0.0675 -0.31516,-0.0675 -0.15758,-0.29265 -0.13507,-0.45023 0,-0.09 0.0901,-0.15758 -0.045,-0.18009 -0.0225,0 -0.045,-0.045 -0.045,-0.0675 0.24763,0.0675 0.15758,-0.29266 0.36019,-0.29266 0.29265,0 0.40521,-0.11256 0.24763,-0.40521 -0.045,-0.0675 -0.11256,-0.15758 0.0675,-0.11256 0.18009,0.045 0.27014,-0.0225 0.31516,-0.18009 0.045,-0.15758 0.11256,-0.31517 0.24763,-0.45024 0.11256,-0.13507 0.18009,-0.29265 0.13507,-0.49525 -0.0675,-0.33768 0.27014,-0.40522 0.47275,-0.42773 0.42772,-0.045 0.45023,-0.33767 0.54028,-0.63033 0.0675,-0.22511 0.0675,-0.45023 0.045,-0.69786 -0.0225,-0.24763 0.18009,-0.40521 0.31516,-0.5853 0.1801,-0.22512 0.29266,-0.51777 0.11256,-0.72038 -0.18009,-0.20261 -0.40521,-0.42772 -0.72037,-0.45023 -0.45024,-0.0225 -0.78791,-0.31517 -1.17061,-0.47275 -0.13507,-0.045 -0.13507,-0.27014 -0.1801,-0.40521 -0.11256,-0.31517 -0.31516,-0.45024 -0.63033,-0.49526 -0.3827,-0.045 -0.54028,-0.33768 -0.69786,-0.60782 -0.11256,-0.2026 -0.27014,-0.11256 -0.36019,-0.0901 -0.22512,0.0675 -0.40521,0 -0.56279,-0.0901 -0.3827,-0.2026 -0.69787,-0.13507 -0.96801,0.27014 -0.045,0.0675 -0.11255,0.1801 -0.22511,0.0675 -0.0675,-0.0675 -0.15759,-0.0675 -0.27014,-0.0225 -0.20261,0.09 -0.3827,-0.0675 -0.36019,-0.29265 0,-0.09 0.0225,-0.18009 0.045,-0.27014 0.0675,-0.3827 0.045,-0.42772 -0.33767,-0.3827 -0.15759,0.0225 -0.1801,-0.0225 -0.11256,-0.15758 0.0675,-0.13507 0.13507,-0.27014 0.15758,-0.42772 0.0225,-0.0901 0.15758,-0.20261 0,-0.27015 -0.11256,-0.045 -0.31517,0 -0.33768,0.15759 -0.045,0.27014 -0.2026,0.33767 -0.42772,0.29265 -0.24763,-0.0675 -0.22512,-0.31517 -0.18009,-0.49526 0.045,-0.36019 0.0675,-0.7654 0.45023,-0.99052 0.09,-0.0675 0.18009,-0.09 0.29265,-0.0675 0.11256,0.0225 0.20261,0.0225 0.31517,-0.0901 0.15758,-0.15758 0.33767,-0.045 0.51777,0 0.13507,0.045 0.0675,0.1801 0.09,0.27015 0.0225,0.13507 0.0225,0.33767 0.15759,0.31516 0.15758,0 0.18009,-0.20261 0.13507,-0.36019 -0.0901,-0.33767 0.0225,-0.63033 0.33767,-0.78791 0.33768,-0.18009 0.49526,-0.47275 0.69787,-0.7654 0.13507,-0.22512 0.3827,-0.33767 0.60781,-0.49526 0.22512,-0.13507 0.40522,-0.3827 0.69787,-0.49525 0.045,-0.0225 0.0901,-0.0225 0.11256,-0.045 -0.0225,0.045 -0.0225,0.0675 -0.045,0.11255 -0.0225,0.045 -0.045,0.0675 0,0.0901 0.0225,0 0.0675,0 0.0901,-0.0225 0.0675,-0.0901 0.18009,-0.11255 0.29265,-0.13507 0.0675,-0.0225 0.18009,-0.0675 0.2026,-0.11255 0,-0.0901 -0.11255,-0.045 -0.15758,-0.0901 -0.0901,-0.0675 -0.0901,-0.13507 -0.045,-0.20261 0.045,-0.11256 0.20261,-0.22511 -0.0675,-0.22511 0,0 -0.0225,-0.0225 -0.0225,-0.045 0.0225,0 0.045,-0.0225 0.0675,-0.0225 0.31517,-0.0675 0.65284,0.045 0.9455,-0.18009 0.0225,0 0.045,0.0225 0.0675,0.0225 -0.0225,0.0225 -0.0225,0.045 -0.045,0.0675 -0.0675,0.15759 -0.36019,0.22512 -0.27015,0.40521 0.045,0.09 0.31517,-0.0675 0.49526,0.0675 0.0675,0.045 0.1801,0 0.13507,-0.0675 -0.0675,-0.11255 0.15758,-0.29264 -0.045,-0.29264 -0.20261,-0.0225 -0.13507,-0.0901 -0.09,-0.1801 0.13507,-0.22511 0.1801,-0.40521 -0.11256,-0.51777 -0.15758,-0.0675 -0.0675,-0.22511 -0.11256,-0.33767 -0.045,-0.1801 -0.0675,-0.31517 -0.29265,-0.13507 -0.09,0.0675 -0.33767,0.29265 -0.27014,-0.11256 0.0225,-0.09 -0.13507,-0.1801 -0.2026,-0.1801 -0.1801,0 -0.40522,-0.11255 -0.49526,0.11256 -0.0901,0.1801 -0.31517,0.29265 -0.31517,0.54028 0,0.0675 -0.11256,0.13507 -0.2026,0.1801 -0.1801,0.0675 -0.31517,0.15758 -0.33768,0.36019 -0.0225,0.11255 -0.11256,0.2026 -0.22512,0.15758 -0.13507,-0.0675 -0.0225,-0.1801 0.0225,-0.24763 0.09,-0.11256 0.09,-0.20261 -0.0901,-0.1801 -0.18009,0.0225 -0.29265,-0.15758 -0.49526,-0.18009 -0.0675,0 -0.0675,-0.18009 0.0225,-0.24763 0.29265,-0.29265 0.67535,-0.3827 1.01303,-0.60781 0.09,-0.0675 0.11255,0.2026 0.18009,0.0675 0.0675,-0.13507 0.49526,0.0901 0.29265,-0.29265 0.11256,-0.045 0.20261,-0.0675 0.31517,-0.11256 0.15758,-0.0675 0.2026,-0.27014 0.40521,-0.31517 0.18009,-0.0225 0.3827,-0.045 0.40521,0.11256 0.0225,0.15759 -0.20261,0.20261 -0.33768,0.27014 -0.0675,0.0225 -0.13507,0 -0.2026,0.0225 -0.045,0.0225 -0.11256,0.0675 -0.11256,0.09 0,0.0675 0.09,0.045 0.13507,0.045 0.13507,-0.0225 0.24763,-0.0225 0.33767,0.11256 0.0675,0.09 0.31517,0.13507 0.31517,0.09 0.0225,-0.2026 0.54028,-0.045 0.27014,-0.40521 0,-0.0225 0,-0.0675 0,-0.0675 0.045,-0.045 0.0901,-0.0225 0.13507,0.0225 0.15758,0.18009 0.29265,0.0225 0.36019,-0.0675 0.0901,-0.13507 -0.15758,-0.13507 -0.15758,-0.18009 0,-0.29265 -0.27014,-0.24763 -0.40521,-0.33768 -0.13507,-0.09 -0.24763,-0.09 -0.3827,-0.0675 0.045,0.0225 0.045,0.09 0,0.0675 -0.18009,-0.11256 -0.31516,-0.0225 -0.47275,0 -0.15758,0.045 -0.29265,0.045 -0.42772,-0.045 -0.09,-0.0675 -0.18009,-0.045 -0.27014,0 -0.0225,0 -0.045,0.0225 -0.045,0.045 0,0 0.0225,0.0225 0.045,0.0225 0.0675,0 0.13507,-0.11255 0.20261,-0.0225 -0.0901,0.0675 -0.1801,0.11256 -0.29266,0.13507 v 0 c 0,0 0,0 0,0 -0.27014,-0.045 -0.36019,0.045 -0.33767,0.27014 0,0.045 -0.0225,0.09 -0.045,0.13507 -0.11256,-0.09 -0.33768,0.0675 -0.33768,-0.0225 0,-0.13507 -0.0675,-0.33767 0.11256,-0.45023 2.16113,-1.28317 4.45732,-1.75592 6.93361,-1.3282 1.64336,0.29266 3.10662,0.9455 4.43482,1.95853 0.0675,0.045 0.11255,0.11255 0.15758,0.15758 -0.0901,0.045 -0.13507,-0.045 -0.20261,-0.0675 -0.2026,-0.09 -0.3827,-0.24763 -0.60782,-0.29265 -0.29265,-0.045 -0.5853,-0.09 -0.81042,0.15758 -0.15758,0.15758 -0.33767,0.27014 -0.56279,0.31517 -0.18009,0.045 -0.22512,0.13507 -0.13507,0.31516 0.0675,0.18009 0.15758,0.29265 0.33767,0.20261 0.15759,-0.0901 0.22512,-0.0225 0.31517,0.09 0.11256,0.13507 0.0675,0.1801 -0.0225,0.27014 -0.0225,0.0225 0.0225,0.11256 -0.0675,0.0901 -0.11256,0.0225 -0.09,-0.0225 -0.09,-0.0901 0,-0.0675 0.09,-0.18009 -0.045,-0.18009 -0.11256,0 -0.20261,0.11256 -0.15758,0.22512 0.0901,0.18009 -0.0225,0.22512 -0.15758,0.22512 -0.22512,0.0225 -0.31517,0.29265 -0.51777,0.31516 -0.11256,0.24763 -0.3827,0.11256 -0.5628,0.22512 -0.045,0.0225 -0.13507,0 -0.15758,0.0675 0,0.0225 0.0675,0.0675 0.11256,0.0901 0.09,0.045 0.15758,0.11256 0.22512,0.18009 0.09,0.11256 0.0675,0.22512 0.0225,0.33768 -0.045,0.13507 -0.15759,0.0675 -0.24763,0.0675 -0.0225,0 -0.045,0 -0.045,0 -0.58531,-0.0675 -0.7654,0.11256 -0.67536,0.69786 0.0225,0.11256 0.0225,0.27014 0.22512,0.24763 0.15758,0 0.22512,0.11256 0.11256,0.24763 -0.22512,0.27014 -0.47275,0.54028 -0.58531,0.90047 -0.0675,0.15758 -0.31516,0.15758 -0.42772,0.36019 -0.15758,0.36019 -0.56279,0.60781 -0.40521,1.10307 0.0675,0.20261 0,0.40521 -0.0675,0.63033 -0.0675,0.20261 -0.0675,0.45024 0.13507,0.63033 0.33768,0.27014 0.45024,0.72038 0.83294,0.94549 0.15758,0.09 0.27014,0.11256 0.45023,0.09 0.42772,-0.045 0.83293,-0.18009 1.23815,-0.2026 0.24762,-0.0225 0.51776,0.24763 0.78791,0.36019 0.15758,0.0675 0,0.36018 -0.0225,0.54028 -0.0225,0.15758 -0.0225,0.27014 0.0901,0.3827 0.33767,0.36018 0.3827,0.81042 0.47274,1.26065 0.045,0.20261 -0.18009,0.33768 -0.22511,0.54028 -0.0675,0.27015 -0.11256,0.51778 0.045,0.7654 0.15758,0.24763 0.22511,0.51777 0.18009,0.81043 -0.0225,0.29265 0.22512,0.45023 0.27014,0.69786 0.0901,0.49526 0.11256,0.47275 0.63033,0.3827 0.5853,-0.11256 0.85545,-0.58531 1.10307,-1.05805 0.0675,-0.11256 0.0675,-0.22512 0.20261,-0.27014 0.13507,-0.0675 0.2026,-0.24763 0.15758,-0.3827 -0.0675,-0.29265 0.0901,-0.49526 0.29265,-0.63033 0.42773,-0.27014 0.47275,-0.67535 0.36019,-1.05805 -0.2026,-0.74289 0.15758,-1.26066 0.58531,-1.75592 0.33767,-0.3827 0.45023,-0.81042 0.51777,-1.26066 0.0225,-0.11255 0,-0.2026 -0.15759,-0.11255 -0.0675,0.045 -0.13507,0.0675 -0.22511,0.09 -0.11256,0.0225 -0.24763,0.0675 -0.31517,-0.09 -0.0901,-0.20261 0.11256,-0.15759 0.1801,-0.1801 0.40521,-0.22512 0.83293,-0.45023 0.90047,-0.99051 0.0225,-0.15759 0,-0.31517 -0.11256,-0.45024 -0.0675,-0.0901 -0.11256,-0.2026 -0.0675,-0.31516 0.49526,0.54028 0.42772,1.26065 0.45023,1.89098 0.24763,4.795 -2.97155,8.95967 -7.54143,10.08526 z m -8.66702,-11.41345 c -0.24763,-0.15758 -0.45024,-0.40521 -0.78791,-0.40521 -0.0901,0.0225 -0.20261,0.045 -0.29265,0.13507 -0.0225,0.0225 -0.045,0.11256 0.0225,0.09 0.36018,-0.13507 0.56279,0.0225 0.78791,0.27014 0.045,0.045 0.18009,0.0901 0.29265,0.0225 0,-0.045 -0.0225,-0.11255 -0.0225,-0.11255 z m 0.67535,0.24763 c -0.0901,-0.13507 -0.22512,-0.15758 -0.3827,-0.18009 -0.2026,-0.045 -0.11256,0.24763 -0.27014,0.22512 0.0675,0.0225 0.13507,0.0675 0.22512,0.0901 0.13507,-0.0675 0.29265,-0.0901 0.42772,-0.13507 z m 7.78906,-6.50589 c 0,-0.09 -0.0901,-0.11256 -0.15758,-0.11256 -0.18009,0 -0.36019,0 -0.54028,0 -0.0675,0 -0.15759,-0.0675 -0.20261,0.0225 0.0901,0.045 0.0225,0.20261 0.15758,0.24763 0.0675,0.0225 0.15759,0.0225 0.24763,0.045 0.11256,-0.0225 0.24763,-0.0675 0.36019,-0.0901 0.0675,-0.045 0.13507,-0.045 0.13507,-0.11256 z m 0.72038,1.21563 c 0.13507,0.0675 0.36018,0.0901 0.11256,0.31517 -0.0675,0.0675 0,0.22512 -0.09,0.31516 0.11255,0.0675 0.2026,-0.0225 0.29265,-0.0225 0.13507,0 0.29265,-0.0225 0.42772,-0.045 0,-0.20261 -0.11256,-0.36019 -0.27014,-0.51777 -0.045,-0.045 -0.11256,-0.11256 -0.11256,-0.1801 0.0225,-0.22511 -0.11256,-0.33767 -0.29265,-0.29265 -0.18009,0.0675 -0.15758,0.24763 -0.0675,0.42772 z m -0.20261,-0.045 c -0.11256,0.0225 -0.29265,0.0675 -0.29265,0.20261 0,0.09 -0.13507,0.22511 0,0.27014 0.0901,0.0225 0.27014,-0.0225 0.33768,-0.0901 0.0901,-0.09 0.11255,-0.22512 0.15758,-0.33768 -0.0675,-0.0225 -0.13507,-0.045 -0.20261,-0.045 z m -1.46326,-1.57582 c 0.09,0 0.18009,-0.0675 0.27014,-0.11256 0.045,-0.0225 0.0901,-0.045 0.0675,-0.09 -0.24763,-0.27014 0.09,-0.11255 0.13507,-0.18009 0.045,-0.045 0.18009,-0.0675 0.2026,-0.11256 0.0675,-0.29265 0.29266,-0.33767 0.5628,-0.33767 -0.0225,0 0.0225,-0.0225 0.045,-0.0225 -0.0225,-0.0225 -0.045,-0.045 -0.0901,-0.045 -0.24763,-0.045 -0.49526,-0.09 -0.74289,-0.13507 -1.05805,-0.13507 -2.1161,0.0901 -3.19666,0.0225 -0.60782,-0.045 -1.17061,0.22512 -1.77843,0.29265 -0.0901,0 -0.18009,0.0675 -0.27014,0.0901 -0.0225,0 -0.0901,0.0675 -0.0225,0.0675 0.2026,0.045 0,0.09 0,0.09 -0.0675,0.0901 -0.1801,0.045 -0.27014,0.0675 -0.045,0.0225 -0.11256,0.0675 -0.11256,0.0901 0.0225,0.0675 0.09,0.0225 0.13507,0.0225 0.15758,0 0.31516,0 0.47275,-0.0225 v 0 c 0.33767,-0.24763 0.72037,-0.33768 1.10307,-0.47275 0.045,-0.0225 0.09,0 0.13507,-0.0225 0,0.40521 0.29265,0.13507 0.42772,0.18009 0.1801,0.045 0.45024,-0.0675 0.3827,0.29265 0,0.0225 0.0225,0.045 0.045,0.0675 0.13507,0.11256 0.0901,0.22512 -0.045,0.27014 -0.27014,0.0675 -0.22511,0.29265 -0.24763,0.49526 0,0.31516 0.27015,0.33767 0.47275,0.42772 0.18009,0.0675 0.24763,-0.0901 0.33768,-0.18009 0.18009,-0.15759 0.29265,-0.3827 0.54028,-0.40521 0.49526,-0.0675 0.94549,-0.31517 1.44075,-0.33768 z m 7.83408,11.5035 c -0.0225,-0.0675 -0.045,-0.11256 -0.045,-0.1801 -0.045,0.045 -0.0901,0.09 -0.11256,0.13507 -0.045,0.0675 -0.0675,0.20261 -0.15758,0.24763 -0.42772,0.29265 -0.31516,0.7654 -0.47274,1.17061 -0.0225,0.0675 -0.0225,0.15758 0.0675,0.1801 0.0675,0.0225 0.13508,-0.0225 0.1801,-0.0901 0.22512,-0.47275 0.42772,-0.9455 0.54028,-1.46327 z m -1.59833,-6.46087 c -0.0675,0.15758 -0.22512,0 -0.31516,0.0225 -0.3827,0.0901 -0.67536,-0.0901 -0.99052,-0.24763 -0.11256,-0.045 -0.24763,-0.0225 -0.27014,0.0675 -0.15759,0.51777 -0.36019,-0.045 -0.51777,0.0225 -0.0225,0 -0.0675,-0.11256 -0.0901,-0.11256 -0.36019,-0.045 -0.60782,-0.15758 -0.49526,-0.60782 0.0225,-0.0675 -0.11256,-0.11255 -0.18009,-0.09 -0.45024,0.0675 -0.9455,-0.0901 -1.35071,0.22512 -0.045,0.045 -0.13507,0 -0.2026,0 -0.0675,0 -0.20261,0.0225 -0.20261,-0.0675 0,-0.11256 0.11256,-0.09 0.20261,-0.11256 0.22511,-0.0225 0.33767,-0.15758 0.42772,-0.36019 0.11256,-0.29265 0.40521,-0.42772 0.60782,-0.56279 0.45023,-0.33767 0.60781,0.0675 0.85544,0.24763 0.09,0.0675 0.1801,0.13507 0.29265,0.18009 0.0675,0.045 0.13508,0.11256 0.11256,0.1801 -0.0225,0.11256 -0.11256,0.09 -0.2026,0.09 -0.045,0.0225 -0.13507,-0.045 -0.15758,0.045 0,0.0225 0.045,0.0675 0.0901,0.0901 0.0675,0.0225 0.15758,0.13507 0.2026,0.045 0.045,-0.11256 0.13507,-0.1801 0.20261,-0.29265 0.22511,-0.33768 -0.15759,-0.29266 -0.24763,-0.42773 -0.0225,-0.045 -0.11256,-0.045 -0.11256,-0.0901 -0.045,-0.11256 -0.27014,-0.2026 -0.15758,-0.31516 0.11256,-0.11256 0.2026,0.11256 0.31516,0.15758 0.42772,0.15758 0.47275,0.60782 0.69787,0.90047 0.045,0.0675 0.0675,0.20261 0.18009,0.15758 0.09,-0.045 0.13507,-0.15758 0.09,-0.27014 -0.0225,-0.11256 -0.11256,-0.22512 0.045,-0.27014 0.18009,-0.045 0.2026,0.11256 0.22512,0.22512 0.045,0.29265 0.22511,0.40521 0.51776,0.40521 0.15759,0 0.29266,0.13507 0.47275,0.0675 0.0225,0 0.0675,0.0225 0.0675,0.0675 0.0225,0.27014 -0.045,0.45023 -0.11256,0.63033 z m -2.85899,-1.32819 c -0.045,-0.11256 0.0225,-0.24763 -0.0901,-0.36019 -0.0225,0.11256 -0.0675,0.22512 -0.09,0.33767 0.0675,0.045 -0.0225,0.1801 0.11256,0.1801 0.0675,-0.0225 0.0901,-0.11256 0.0675,-0.15758 z m 2.65638,-0.42773 c -0.0901,0.0225 -0.15758,0.0225 -0.22511,-0.0675 -0.0675,-0.0901 -0.13507,-0.24763 -0.24763,-0.13507 -0.13507,0.11256 -0.20261,0.29265 -0.15759,0.47275 0.045,0.13507 0.1801,0.2026 0.29266,0.15758 0.27014,-0.11256 0.49526,-0.045 0.72037,0.0901 0.0675,0.045 0.1801,0.11256 0.22512,0 0.045,-0.11256 -0.045,-0.15758 -0.11256,-0.2026 -0.11256,-0.09 -0.24763,-0.1801 -0.33767,-0.29266 -0.045,-0.0675 0.045,-0.2026 -0.13507,-0.18009 -0.0225,0 -0.045,0 -0.045,0.0225 -0.045,0.0901 0.0675,0.0675 0.0901,0.11256 0,0.0225 -0.0225,0.0225 -0.0675,0.0225 z m 0.69787,2.92653 c -0.0675,-0.20261 -0.20261,-0.36019 -0.31517,-0.54028 -0.0225,-0.045 -0.0675,-0.0901 -0.13507,-0.0675 -0.09,0.0225 -0.045,0.0901 -0.0225,0.13507 0.27014,0.54028 0.49526,1.10307 0.72038,1.64335 0.045,0.11256 0.18009,0.20261 0.29265,0.31517 0.0225,0.0225 0.045,0.0225 0.0675,0.045 0,-0.0225 0.0225,-0.0675 0,-0.0225 0,-0.65284 -0.42772,-1.01303 -0.60782,-1.50829 z m -2.47629,-5.06514 c -0.09,-0.15758 -0.0225,-0.22512 0.11256,-0.29265 0.0225,-0.0225 0.0675,-0.0675 0.0225,-0.0675 -0.045,-0.0225 -0.13508,-0.0225 -0.13508,0 -0.0675,0.15758 -0.5853,0.13507 -0.18009,0.47275 0,0 0,0.0675 0,0.0675 -0.15758,0.11256 -0.11256,0.45024 -0.42772,0.40521 -0.0225,0 -0.09,0 -0.045,0.045 0.18009,0.22511 0.42772,0 0.65284,0.0675 0.0675,0.0225 0.11256,-0.0675 0.13507,-0.15758 0.0225,-0.24763 0.09,-0.45024 0.40521,-0.29265 0.0225,0.0225 0.0901,0.0225 0.0901,-0.0225 0,0 -0.045,-0.045 -0.0901,-0.045 -0.045,0 -0.11256,0 -0.15758,0 -0.15759,-0.0225 -0.29266,-0.0225 -0.3827,-0.18009 z m 4.05211,4.88504 c -0.22512,-0.11255 -0.42772,-0.24762 -0.49526,-0.49525 -0.0225,-0.045 -0.0675,-0.13507 -0.13507,-0.0901 -0.0675,0.045 -0.045,0.11256 0,0.18009 0.0901,0.13507 0.20261,0.22512 0.24763,0.36019 0.11256,0.42772 0.22512,0.29265 0.3827,0.045 0,0 0,0 0,0 z m -14.13737,-6.07816 c -0.15758,0.09 0.0901,0.11255 0.0225,0.22511 -0.0675,0.11256 0.11256,0.1801 0.15758,0.15759 0.20261,-0.0225 0.20261,-0.20261 0.15758,-0.36019 -0.0225,-0.0901 -0.11255,-0.0225 -0.18009,0 -0.0675,0.045 -0.11256,0.045 -0.15758,-0.0225 -0.0225,0 0,0 0,0 z m -1.59833,2.8815 c 0.0225,-0.0901 -0.0675,-0.11256 -0.13507,-0.11256 -0.13508,0.0225 -0.27015,0.0901 -0.33768,0.18009 -0.0225,0.045 0.13507,-0.0225 0.18009,0.045 0.0901,-0.0675 0.27014,0.0675 0.29266,-0.11255 z m -0.0225,0.36019 c -0.045,0.045 0.0225,0.11255 0.045,0.0901 0.09,-0.0675 0.2026,-0.13507 0.27014,-0.22512 0.0225,-0.0225 -0.11256,-0.0675 -0.20261,-0.0675 -0.18009,-0.045 -0.045,0.13507 -0.11256,0.2026 z m 13.7997,6.46086 c -0.11256,0 -0.15758,0.0675 -0.1801,0.15759 0,0.0675 -0.0225,0.15758 0.0901,0.15758 0.11256,0 0.11256,-0.13507 0.15759,-0.20261 0.045,-0.0901 -0.0225,-0.0901 -0.0675,-0.11256 z m -14.02483,-6.55093 c -0.11256,0.0225 -0.1801,0.11256 -0.22512,0.2026 -0.045,0.0675 -0.09,0.1801 -0.11256,0.24763 0.0225,0 0.045,0.0225 0.0675,0 0.13507,-0.11256 0.13507,-0.31516 0.31516,-0.42772 -0.045,0 -0.045,-0.0225 -0.045,-0.0225 z"
       id="path2-3"
       style="fill:url(#linearGradient890);fill-opacity:1;stroke-width:0.225117" />
    <g
       transform="matrix(0.74255505,0,0,0.74255505,286.07385,-256.34355)"
       id="g4">
      <path
         style="color:#000000;font-style:normal;font-variant:normal;font-weight:normal;font-stretch:normal;font-size:medium;line-height:normal;font-family:Sans;-inkscape-font-specification:Sans;text-indent:0;text-align:start;text-decoration:none;text-decoration-line:none;letter-spacing:normal;word-spacing:normal;text-transform:none;writing-mode:lr-tb;direction:ltr;baseline-shift:baseline;text-anchor:start;display:inline;overflow:visible;visibility:visible;opacity:1;fill:url(#linearGradient838);fill-opacity:1;fill-rule:nonzero;stroke:none;stroke-width:3.95596;marker:none;enable-background:accumulate"
         d="m 140.26136,1005.0678 c -3.98871,0 -7.39687,2.8599 -7.39687,6.6562 v 56.0165 c 0,2.3649 0.83647,3.8844 2.46043,5.2631 1.62397,1.3787 3.30936,2.0641 5.45993,2.0641 h 68.3709 c 1.64145,0.029 1.59477,-2.2249 3.9e-4,-2.2488 l -68.46587,-0.04 c -2.11598,0 -3.87416,-1.4929 -3.87416,-1.4929 0,0 -1.62016,-1.2165 -1.62016,-3.5457 v -56.0165 c 0,-2.6161 1.77916,-4.2946 4.88695,-4.2605 l 24.06655,-0.012 11.47627,10.2309 c 0.34679,0.3129 0.79077,0.759 1.25317,0.769 l 33.37023,-0.012 c 1.7015,-0.01 1.64773,-2.3444 -0.0538,-2.3717 h -32.61346 l -12.1651,-10.5312 c -0.35109,-0.3015 -0.79464,-0.4674 -1.25318,-0.4687 z m 38.81827,2.9062 c -1.55276,0 -1.55586,2.6709 0.0388,2.6937 l 29.7626,-0.041 c 3.0158,0 4.32232,0.9732 5.32647,1.91 1.00416,0.9367 2.53008,3.2301 2.53008,5.5933 v 54.9375 c 0.009,1.8591 2.19838,1.9203 2.20491,0.064 l -0.006,-55.0018 c -3.1e-4,-3.2104 -1.04994,-5.8983 -2.9343,-7.6562 -1.88434,-1.7579 -4.44981,-2.5 -7.12177,-2.5 h -29.61804 c -0.0611,0 -0.12228,0 -0.18339,0 z"
         id="path2-3-3"
         sodipodi:nodetypes="sssssccscsssccccccccsccsssccssscc" />
    </g>
  </g>
</svg>
