<?xml version="1.0" encoding="UTF-8" standalone="no"?>
<svg
   xmlns:dc="http://purl.org/dc/elements/1.1/"
   xmlns:cc="http://creativecommons.org/ns#"
   xmlns:rdf="http://www.w3.org/1999/02/22-rdf-syntax-ns#"
   xmlns:svg="http://www.w3.org/2000/svg"
   xmlns="http://www.w3.org/2000/svg"
   xmlns:xlink="http://www.w3.org/1999/xlink"
   xmlns:sodipodi="http://sodipodi.sourceforge.net/DTD/sodipodi-0.dtd"
   xmlns:inkscape="http://www.inkscape.org/namespaces/inkscape"
   width="32"
   version="1.1"
   height="32"
   viewBox="0 0 32 32"
   id="svg15"
   sodipodi:docname="folder-KDE.svg"
   inkscape:version="1.0.1 (3bc2e813f5, 2020-09-07)">
  <sodipodi:namedview
     pagecolor="#ffffff"
     bordercolor="#666666"
     borderopacity="1"
     objecttolerance="10"
     gridtolerance="10"
     guidetolerance="10"
     inkscape:pageopacity="0"
     inkscape:pageshadow="2"
     inkscape:window-width="1920"
     inkscape:window-height="1016"
     id="namedview17"
     showgrid="false"
     inkscape:zoom="9.8125"
     inkscape:cx="-26.308778"
     inkscape:cy="8.6141759"
     inkscape:window-x="0"
     inkscape:window-y="0"
     inkscape:window-maximized="1"
     inkscape:current-layer="layer1"
     inkscape:document-rotation="0" />
  <defs
     id="defs5455">
    <linearGradient
       inkscape:collect="always"
       xlink:href="#linearGradient836"
       id="linearGradient838"
       x1="6"
       y1="50.000134"
       x2="94.005508"
       y2="50.000134"
       gradientUnits="userSpaceOnUse"
       gradientTransform="matrix(0.9780981,0,0,1,64.250683,974.47294)" />
    <linearGradient
       inkscape:collect="always"
       id="linearGradient836">
      <stop
         style="stop-color:#008080;stop-opacity:1"
         offset="0"
         id="stop832" />
      <stop
         style="stop-color:#00e5e5;stop-opacity:1"
         offset="1"
         id="stop834" />
    </linearGradient>
    <linearGradient
       inkscape:collect="always"
       xlink:href="#linearGradient836"
       id="linearGradient890"
       x1="405.99969"
       y1="519.43079"
       x2="426.00165"
       y2="519.43079"
       gradientUnits="userSpaceOnUse"
       gradientTransform="matrix(0.47855624,0,0,0.47620111,201.18111,286.44461)" />
  </defs>
  <metadata
     id="metadata5458">
    <rdf:RDF>
      <cc:Work
         rdf:about="">
        <dc:format>image/svg+xml</dc:format>
        <dc:type
           rdf:resource="http://purl.org/dc/dcmitype/StillImage" />
      </cc:Work>
    </rdf:RDF>
  </metadata>
  <g
     inkscape:label="Capa 1"
     inkscape:groupmode="layer"
     id="layer1"
     transform="translate(-384.57143,-515.798)">
    <g
       transform="matrix(0.36013848,0,0,0.37142583,359.81878,151.2823)"
       id="g4">
      <path
         style="color:#000000;font-style:normal;font-variant:normal;font-weight:normal;font-stretch:normal;font-size:medium;line-height:normal;font-family:Sans;-inkscape-font-specification:Sans;text-indent:0;text-align:start;text-decoration:none;text-decoration-line:none;letter-spacing:normal;word-spacing:normal;text-transform:none;writing-mode:lr-tb;direction:ltr;baseline-shift:baseline;text-anchor:start;display:inline;overflow:visible;visibility:visible;opacity:1;fill:url(#linearGradient838);fill-opacity:1;fill-rule:nonzero;stroke:none;stroke-width:3.95596;marker:none;enable-background:accumulate"
         d="m 77.516136,989.47294 c -3.988712,0 -7.396866,2.85993 -7.396866,6.65625 v 56.01651 c 0,2.3649 0.836461,3.8844 2.460429,5.2631 1.623967,1.3787 3.30936,2.0641 5.459931,2.0641 h 68.3709 c 1.64145,0.029 1.59477,-2.2249 3.9e-4,-2.2488 l -68.465873,-0.04 c -2.115981,0 -3.874159,-1.4929 -3.874159,-1.4929 0,0 -1.620163,-1.2165 -1.620163,-3.5457 v -56.01651 c 0,-2.61614 1.77916,-4.29462 4.886948,-4.26047 l 24.066557,-0.0121 11.47627,10.23088 c 0.34679,0.3129 0.79077,0.759 1.25317,0.769 l 33.37023,-0.012 c 1.7015,-0.01 1.64773,-2.3444 -0.0538,-2.3717 h -32.61346 l -12.1651,-10.53119 c -0.35109,-0.30157 -0.79464,-0.46748 -1.25318,-0.46875 z m 38.818274,2.90625 c -1.55276,-0.004 -1.55586,2.67092 0.0388,2.69371 l 29.7626,-0.0408 c 3.0158,-0.004 4.32232,0.97316 5.32647,1.90993 1.00416,0.93677 2.53008,3.23017 2.53008,5.59337 v 54.9375 c 0.009,1.8591 2.19838,1.9203 2.20491,0.064 l -0.006,-55.0018 c -3.1e-4,-3.21041 -1.04994,-5.89832 -2.9343,-7.65623 -1.88434,-1.75791 -4.44981,-2.5 -7.12177,-2.5 h -29.61804 c -0.0611,-0.003 -0.12228,-0.003 -0.18339,0 z"
         id="path2-3"
         sodipodi:nodetypes="sssssccscsssccccccccsccsssccssscc" />
    </g>
    <path
       style="color:#d3dae3;fill:url(#linearGradient890);fill-opacity:1;stroke-width:0.477372"
       d="m 401.21747,528.798 -1.9142,0.2884 v 6.88997 l 1.9142,-0.51156 v -2.66187 l 1.91424,3.13811 1.91426,-0.7144 -2.39278,-2.85713 2.39368,-3.09434 -1.85723,-0.47718 -1.97217,3.12324 z m -3.89761,1.86852 c -0.0451,0 -0.0906,0.0171 -0.12527,0.0525 l -0.75237,0.74877 c -0.0692,0.0687 -0.053,0.16774 0,0.25015 l 0.77857,1.21657 c -0.0573,0.1192 -0.1076,0.2419 -0.14953,0.36737 -0.004,0.01 -0.01,0.0108 -0.01,0.0155 l -1.4123,0.31237 c -0.0958,0.022 -0.17753,0.0788 -0.17753,0.17682 v 0.46785 0.4678 c 0,0.0976 0.082,0.15545 0.17753,0.17666 l 1.4123,0.31254 c 0.006,0.01 0.01,0.0176 0.012,0.0263 0.0416,0.12191 0.0891,0.24129 0.1449,0.35725 l -0.77863,1.21554 c -0.0531,0.0827 -0.0692,0.18109 0,0.25017 l 0.75248,0.7487 c 0.0692,0.0687 0.18105,0.0687 0.25039,0 l 1.22079,-0.77382 c 0.11998,0.0576 0.24354,0.10851 0.37007,0.1507 0.01,0.006 0.0154,0.01 0.0249,0.0105 l 0.31315,1.40448 c 0,0.0976 0.0793,0.1767 0.17758,0.1767 h 1.06271 c 0.0982,0 0.15632,-0.0817 0.1776,-0.1767 l 0.31315,-1.44717 c 0.14383,-0.0543 0.28346,-0.1183 0.41773,-0.19258 l 1.19175,0.8482 c 0.0691,0.0687 0.18105,0.0687 0.25054,0 l 0.75235,-0.74864 c 0.0691,-0.0687 0.0529,-0.1678 0,-0.25029 l -0.45326,-0.68447 -0.0471,0.0172 c -0.1078,0.0406 -0.22917,-0.003 -0.2888,-0.0994 l -0.47668,-0.78128 c -0.39722,0.94535 -1.33521,1.60997 -2.42928,1.60997 -1.4536,0 -2.63204,-1.17263 -2.63204,-2.61919 0,-1.10999 0.69523,-2.05632 1.67494,-2.43762 v -0.52182 l -0.008,0.0159 c -0.0112,0.007 -0.0206,0.01 -0.0315,0.0136 -0.1248,0.042 -0.24685,0.0904 -0.36543,0.14691 l -1.21886,-0.77288 c -0.035,-0.0344 -0.08,-0.0525 -0.12524,-0.0525 z"
       class="ColorScheme-Text"
       id="path10-7" />
  </g>
</svg>
