<?xml version="1.0" encoding="UTF-8" standalone="no"?>
<svg
   xmlns:dc="http://purl.org/dc/elements/1.1/"
   xmlns:cc="http://creativecommons.org/ns#"
   xmlns:rdf="http://www.w3.org/1999/02/22-rdf-syntax-ns#"
   xmlns:svg="http://www.w3.org/2000/svg"
   xmlns="http://www.w3.org/2000/svg"
   xmlns:xlink="http://www.w3.org/1999/xlink"
   xmlns:sodipodi="http://sodipodi.sourceforge.net/DTD/sodipodi-0.dtd"
   xmlns:inkscape="http://www.inkscape.org/namespaces/inkscape"
   width="32"
   version="1.1"
   height="32"
   viewBox="0 0 32 32"
   id="svg15"
   sodipodi:docname="folder-black.svg"
   inkscape:version="1.0.1 (3bc2e813f5, 2020-09-07)">
  <sodipodi:namedview
     pagecolor="#ffffff"
     bordercolor="#666666"
     borderopacity="1"
     objecttolerance="10"
     gridtolerance="10"
     guidetolerance="10"
     inkscape:pageopacity="0"
     inkscape:pageshadow="2"
     inkscape:window-width="1920"
     inkscape:window-height="1016"
     id="namedview17"
     showgrid="false"
     inkscape:zoom="9.8125"
     inkscape:cx="-15.474972"
     inkscape:cy="5.4665649"
     inkscape:window-x="0"
     inkscape:window-y="0"
     inkscape:window-maximized="1"
     inkscape:current-layer="layer1" />
  <defs
     id="defs5455">
    <linearGradient
       inkscape:collect="always"
       xlink:href="#linearGradient853"
       id="linearGradient854"
       gradientUnits="userSpaceOnUse"
       gradientTransform="matrix(0.35226061,0,0,0.37138134,382.95783,513.73044)"
       x1="6"
       y1="50.000134"
       x2="94.005508"
       y2="50.000134" />
    <linearGradient
       inkscape:collect="always"
       id="linearGradient853">
      <stop
         style="stop-color:#2d2d2d;stop-opacity:1"
         offset="0"
         id="stop849" />
      <stop
         style="stop-color:#404040;stop-opacity:1"
         offset="1"
         id="stop851" />
    </linearGradient>
  </defs>
  <metadata
     id="metadata5458">
    <rdf:RDF>
      <cc:Work
         rdf:about="">
        <dc:format>image/svg+xml</dc:format>
        <dc:type
           rdf:resource="http://purl.org/dc/dcmitype/StillImage" />
      </cc:Work>
    </rdf:RDF>
  </metadata>
  <g
     inkscape:label="Capa 1"
     inkscape:groupmode="layer"
     id="layer1"
     transform="translate(-384.57143,-515.798)">
    <path
       style="color:#000000;font-style:normal;font-variant:normal;font-weight:normal;font-stretch:normal;font-size:medium;line-height:normal;font-family:Sans;-inkscape-font-specification:Sans;text-indent:0;text-align:start;text-decoration:none;text-decoration-line:none;letter-spacing:normal;word-spacing:normal;text-transform:none;writing-mode:lr-tb;direction:ltr;baseline-shift:baseline;text-anchor:start;display:inline;overflow:visible;visibility:visible;opacity:1;fill:url(#linearGradient854);fill-opacity:1;fill-rule:nonzero;stroke:none;stroke-width:1.44683;marker:none;enable-background:accumulate"
       d="m 387.7354,519.30133 c -1.43655,0 -2.66397,1.06198 -2.66397,2.47193 v 20.80347 c 0,0.87826 0.30125,1.44256 0.88613,1.95459 0.58487,0.51205 1.19181,0.76657 1.96652,0.76657 h 24.62357 c 0.59119,0.0112 0.57425,-0.82631 1.3e-4,-0.83506 l -24.65789,-0.0152 c -0.76203,0 -1.39535,-0.55444 -1.39535,-0.55444 0,0 -0.58331,-0.45175 -0.58331,-1.31684 v -20.80338 c 0,-0.97158 0.64062,-1.59491 1.75986,-1.58219 l 8.66751,-0.006 4.13325,3.7997 c 0.12485,0.11603 0.28481,0.28177 0.45137,0.28551 l 12.01817,-0.006 c 0.61278,-0.006 0.59344,-0.87071 -0.0197,-0.88085 h -11.74567 l -4.38128,-3.91109 c -0.1264,-0.11173 -0.28614,-0.17366 -0.45125,-0.17405 z m 13.98037,1.07931 c -0.5593,-0.003 -0.56032,0.99181 0.0131,1.00033 l 10.71893,-0.0149 c 1.08618,-0.003 1.55673,0.36141 1.91831,0.70929 0.36163,0.34786 0.91125,1.19961 0.91125,2.07729 v 20.40263 c 0.006,0.69051 0.7917,0.71323 0.7941,0.0239 l -0.004,-20.42662 c -1.2e-4,-1.19228 -0.37817,-2.19051 -1.05683,-2.84335 -0.67861,-0.65283 -1.60263,-0.92841 -2.56483,-0.92841 h -10.66658 c -0.0224,-0.002 -0.0436,-0.002 -0.0661,0 z"
       id="path2-3"
       sodipodi:nodetypes="sssssccscsssccccccccsccsssccssscc" />
  </g>
</svg>
