<?xml version="1.0" encoding="UTF-8" standalone="no"?>
<svg
   xmlns:dc="http://purl.org/dc/elements/1.1/"
   xmlns:cc="http://creativecommons.org/ns#"
   xmlns:rdf="http://www.w3.org/1999/02/22-rdf-syntax-ns#"
   xmlns:svg="http://www.w3.org/2000/svg"
   xmlns="http://www.w3.org/2000/svg"
   xmlns:xlink="http://www.w3.org/1999/xlink"
   xmlns:sodipodi="http://sodipodi.sourceforge.net/DTD/sodipodi-0.dtd"
   xmlns:inkscape="http://www.inkscape.org/namespaces/inkscape"
   width="32"
   version="1.1"
   height="32"
   viewBox="0 0 32 32"
   id="svg17"
   sodipodi:docname="folder-templates.svg"
   inkscape:version="1.0.1 (3bc2e813f5, 2020-09-07)">
  <sodipodi:namedview
     pagecolor="#ffffff"
     bordercolor="#666666"
     borderopacity="1"
     objecttolerance="10"
     gridtolerance="10"
     guidetolerance="10"
     inkscape:pageopacity="0"
     inkscape:pageshadow="2"
     inkscape:window-width="1920"
     inkscape:window-height="1016"
     id="namedview19"
     showgrid="false"
     inkscape:zoom="9.8125"
     inkscape:cx="-11.129652"
     inkscape:cy="3.0235023"
     inkscape:window-x="0"
     inkscape:window-y="0"
     inkscape:window-maximized="1"
     inkscape:current-layer="layer1" />
  <defs
     id="defs5455">
    <linearGradient
       inkscape:collect="always"
       xlink:href="#linearGradient934"
       id="linearGradient892"
       x1="4"
       y1="12"
       x2="20"
       y2="12"
       gradientUnits="userSpaceOnUse" />
    <linearGradient
       inkscape:collect="always"
       id="linearGradient934">
      <stop
         style="stop-color:#ffcc00;stop-opacity:1"
         offset="0"
         id="stop930" />
      <stop
         style="stop-color:#00ffff;stop-opacity:1"
         offset="1"
         id="stop932" />
    </linearGradient>
    <linearGradient
       inkscape:collect="always"
       xlink:href="#linearGradient853"
       id="linearGradient865"
       gradientUnits="userSpaceOnUse"
       x1="4"
       y1="12"
       x2="20"
       y2="12" />
    <linearGradient
       inkscape:collect="always"
       id="linearGradient853">
      <stop
         style="stop-color:#008080;stop-opacity:1"
         offset="0"
         id="stop849" />
      <stop
         style="stop-color:#00e5e5;stop-opacity:1"
         offset="1"
         id="stop851" />
    </linearGradient>
    <linearGradient
       inkscape:collect="always"
       xlink:href="#linearGradient853"
       id="linearGradient854"
       gradientUnits="userSpaceOnUse"
       gradientTransform="matrix(0.35225203,0,0,0.3713903,382.95786,513.22978)"
       x1="6"
       y1="50.000134"
       x2="94.005508"
       y2="50.000134" />
  </defs>
  <metadata
     id="metadata5458">
    <rdf:RDF>
      <cc:Work
         rdf:about="">
        <dc:format>image/svg+xml</dc:format>
        <dc:type
           rdf:resource="http://purl.org/dc/dcmitype/StillImage" />
      </cc:Work>
    </rdf:RDF>
  </metadata>
  <g
     inkscape:label="Capa 1"
     inkscape:groupmode="layer"
     id="layer1"
     transform="translate(-384.57143,-515.798)">
    <g
       id="g6"
       transform="matrix(0.60625083,0,0,0.62518975,393.04262,526.15763)"
       style="fill:url(#linearGradient892);fill-opacity:1">
      <path
         d="m 4,7 v 10 a 3,3 0 0 0 3,3 h 10 a 3,3 0 0 0 3,-3 V 7 A 3,3 0 0 0 17,4 H 7 A 3,3 0 0 0 4,7 Z m 6,10 H 8 A 1,1 0 0 1 7,16 v -5 h 3 z m 6,0 h -5 v -6 h 6 v 5 a 1,1 0 0 1 -1,1 z m 1,-7 H 7 V 8 A 1,1 0 0 1 8,7 h 8 a 1,1 0 0 1 1,1 z"
         id="path4"
         style="fill:url(#linearGradient865);fill-opacity:1" />
    </g>
    <path
       style="color:#000000;font-style:normal;font-variant:normal;font-weight:normal;font-stretch:normal;font-size:medium;line-height:normal;font-family:Sans;-inkscape-font-specification:Sans;text-indent:0;text-align:start;text-decoration:none;text-decoration-line:none;letter-spacing:normal;word-spacing:normal;text-transform:none;writing-mode:lr-tb;direction:ltr;baseline-shift:baseline;text-anchor:start;display:inline;overflow:visible;visibility:visible;opacity:1;fill:url(#linearGradient854);fill-opacity:1;fill-rule:nonzero;stroke:none;stroke-width:1.44684;marker:none;enable-background:accumulate"
       d="m 387.7353,518.8006 c -1.43648,0 -2.66387,1.06216 -2.66387,2.47206 v 20.80405 c 0,0.87834 0.3013,1.44264 0.88617,1.95471 0.58487,0.51202 1.19176,0.76648 1.96634,0.76648 h 24.62296 c 0.59127,0.0113 0.57437,-0.82624 1.3e-4,-0.83515 l -24.65733,-0.0143 c -0.762,0 -1.39509,-0.55455 -1.39509,-0.55455 0,0 -0.58344,-0.45173 -0.58344,-1.31679 v -20.80406 c 0,-0.97156 0.6407,-1.59495 1.75993,-1.58225 l 8.66725,-0.006 4.13311,3.79972 c 0.12484,0.11615 0.28479,0.28177 0.45134,0.28557 l 12.01789,-0.006 c 0.61285,-0.005 0.59341,-0.87065 -0.0188,-0.8808 h -11.74532 l -4.38109,-3.91125 c -0.12646,-0.112 -0.28628,-0.17356 -0.45132,-0.17404 z m 13.98007,1.07938 c -0.55927,-0.003 -0.56035,0.99195 0.0139,1.0004 l 10.71864,-0.0146 c 1.08621,-0.002 1.55668,0.3614 1.91831,0.70928 0.36168,0.34791 0.91117,1.19968 0.91117,2.07732 v 20.40333 c 0.005,0.69038 0.79173,0.71314 0.79407,0.023 l -0.003,-20.42715 c -1.2e-4,-1.1923 -0.37813,-2.19057 -1.05675,-2.84345 -0.67864,-0.65292 -1.60254,-0.92852 -2.56477,-0.92852 h -10.66667 c -0.0212,-0.002 -0.0442,-0.002 -0.0658,0 z"
       id="path2-3"
       sodipodi:nodetypes="sssssccscsssccccccccsccsssccssscc" />
  </g>
</svg>
