<?xml version="1.0" encoding="UTF-8" standalone="no"?>
<svg
   xmlns:dc="http://purl.org/dc/elements/1.1/"
   xmlns:cc="http://creativecommons.org/ns#"
   xmlns:rdf="http://www.w3.org/1999/02/22-rdf-syntax-ns#"
   xmlns:svg="http://www.w3.org/2000/svg"
   xmlns="http://www.w3.org/2000/svg"
   xmlns:xlink="http://www.w3.org/1999/xlink"
   xmlns:sodipodi="http://sodipodi.sourceforge.net/DTD/sodipodi-0.dtd"
   xmlns:inkscape="http://www.inkscape.org/namespaces/inkscape"
   width="32"
   version="1.1"
   height="32"
   viewBox="0 0 32 32"
   id="svg17"
   sodipodi:docname="folder_html.svg"
   inkscape:version="1.0.1 (3bc2e813f5, 2020-09-07)">
  <sodipodi:namedview
     pagecolor="#ffffff"
     bordercolor="#666666"
     borderopacity="1"
     objecttolerance="10"
     gridtolerance="10"
     guidetolerance="10"
     inkscape:pageopacity="0"
     inkscape:pageshadow="2"
     inkscape:window-width="1920"
     inkscape:window-height="1016"
     id="namedview19"
     showgrid="true"
     inkscape:zoom="9.8125"
     inkscape:cx="-24.109288"
     inkscape:cy="7.7683749"
     inkscape:window-x="0"
     inkscape:window-y="0"
     inkscape:window-maximized="1"
     inkscape:current-layer="layer1"
     inkscape:document-rotation="0">
    <inkscape:grid
       type="xygrid"
       id="grid838" />
  </sodipodi:namedview>
  <defs
     id="defs5455">
    <linearGradient
       inkscape:collect="always"
       xlink:href="#linearGradient842"
       id="linearGradient890"
       x1="406.05936"
       y1="519.07739"
       x2="425.9559"
       y2="519.07739"
       gradientUnits="userSpaceOnUse"
       gradientTransform="matrix(0.50020057,0,0,0.50020057,192.12762,274.21246)" />
    <linearGradient
       inkscape:collect="always"
       id="linearGradient842">
      <stop
         style="stop-color:#008080;stop-opacity:1"
         offset="0"
         id="stop838" />
      <stop
         style="stop-color:#00e5e5;stop-opacity:1"
         offset="1"
         id="stop840" />
    </linearGradient>
    <linearGradient
       inkscape:collect="always"
       xlink:href="#linearGradient842"
       id="linearGradient838"
       x1="6"
       y1="50.000134"
       x2="94.005508"
       y2="50.000134"
       gradientUnits="userSpaceOnUse"
       gradientTransform="matrix(0.9483706,0,0,0.99999804,128.52046,988.72209)" />
  </defs>
  <metadata
     id="metadata5458">
    <rdf:RDF>
      <cc:Work
         rdf:about="">
        <dc:format>image/svg+xml</dc:format>
        <dc:type
           rdf:resource="http://purl.org/dc/dcmitype/StillImage" />
      </cc:Work>
    </rdf:RDF>
  </metadata>
  <g
     inkscape:label="Capa 1"
     inkscape:groupmode="layer"
     id="layer1"
     transform="translate(-384.57143,-515.798)">
    <path
       d="m 404.99282,532.69103 v 0 0 c 0,0 0,0 0,0 0,0 0,0 0,0 z m -3.5808,6.02436 c -2.43229,0.59672 -5.01093,-0.73199 -5.87789,-3.1755 -0.31532,-0.88958 -0.38291,-1.80168 -0.18021,-2.72498 0.0119,-0.0225 0.0222,-0.0564 0.0341,-0.079 0,0.0226 0,0.0565 0.0116,0.079 0,0.0121 0.012,0.0338 0.0223,0.0449 0,-0.0223 0.0117,-0.0341 0.0117,-0.0563 0,-0.0674 0,-0.13515 0.0118,-0.21389 0.0671,0.0564 0.0222,0.13511 0.0447,0.19133 0.0341,0.0903 0.0341,0.18023 0.0341,0.28157 -0.0119,0.14643 0.12379,0.24776 0.22514,0.25896 0.19142,0.0223 0.30403,0.16887 0.47294,0.22522 0.079,0.0223 0.12385,0.10135 0.13511,0.13513 0.0223,0.14632 0.13512,0.19138 0.22523,0.24766 0.0224,0.0121 0.0448,0.0338 0.0673,0 0.079,-0.15761 0.0902,-0.0446 0.12381,0.0225 0.0791,0.16894 0.012,0.30405 -0.0791,0.43916 -0.0671,0.0903 -0.14628,0.18015 -0.0671,0.30399 0.012,0.0118 0,0.0447 -0.0114,0.0563 -0.0566,0.0905 -0.0227,0.15771 0.0338,0.23643 0.079,0.11267 0.14637,0.22532 0.20271,0.34908 0.079,0.15766 0.14635,0.30406 0.32651,0.38295 0.11259,0.0445 0.18015,0.14635 0.19142,0.28151 0.0341,0.38277 0.0904,0.76564 0.14634,1.1372 0.0338,0.22528 0.21401,0.38293 0.29283,0.58563 0.0341,0.0901 0.0904,0.1689 0.15766,0.24773 0.12381,0.1463 0.30398,0.15762 0.46166,0.23647 0.0118,0 0.0342,0 0.0446,0 -0.0119,-0.0119 -0.0341,-0.0224 -0.0446,-0.0339 -0.10136,-0.0904 -0.31527,-0.11263 -0.18015,-0.32662 0,-0.0115 -0.012,-0.0339 -0.012,-0.0339 -0.15761,-0.034 -0.079,-0.14637 -0.0671,-0.22519 0,-0.0446 0.0448,-0.0791 -0.0224,-0.09 -0.012,0 -0.0223,-0.0225 -0.0223,-0.0341 0.12388,0.0341 0.0791,-0.14639 0.18017,-0.14639 0.14638,0 0.20268,-0.0562 0.12388,-0.20266 -0.0222,-0.0339 -0.0561,-0.0791 0.0338,-0.0564 0.0902,0.0222 0.13512,-0.0118 0.15767,-0.0903 0.0225,-0.079 0.0564,-0.15756 0.12385,-0.22511 0.0561,-0.0671 0.0902,-0.14644 0.0672,-0.24778 -0.0339,-0.16889 0.13511,-0.20268 0.23643,-0.21396 0.214,-0.0224 0.22529,-0.16888 0.27029,-0.31526 0.0341,-0.11263 0.0341,-0.22525 0.0222,-0.34906 -0.012,-0.12389 0.0903,-0.20269 0.15765,-0.2928 0.0904,-0.11255 0.14645,-0.259 0.0561,-0.36033 -0.0903,-0.10133 -0.20269,-0.21396 -0.36031,-0.22516 -0.2252,-0.012 -0.3941,-0.15769 -0.58555,-0.23649 -0.0672,-0.0223 -0.0672,-0.13515 -0.0902,-0.20272 -0.0562,-0.15769 -0.15762,-0.22526 -0.31531,-0.2477 -0.19139,-0.0224 -0.27024,-0.16891 -0.3491,-0.30401 -0.0561,-0.10133 -0.13511,-0.0561 -0.1801,-0.0449 -0.11263,0.0341 -0.20271,0 -0.28152,-0.0445 -0.19142,-0.10136 -0.3491,-0.0671 -0.48421,0.13512 -0.0223,0.0339 -0.0562,0.0905 -0.11257,0.0339 -0.0341,-0.0339 -0.079,-0.0339 -0.13514,-0.0111 -0.10135,0.0446 -0.19146,-0.0338 -0.18017,-0.14641 0,-0.0446 0.0117,-0.0901 0.0223,-0.13514 0.0338,-0.19135 0.0222,-0.21394 -0.16892,-0.19135 -0.079,0.0112 -0.0903,-0.012 -0.0564,-0.0791 0.034,-0.0671 0.0671,-0.13511 0.079,-0.21399 0.0118,-0.0449 0.079,-0.10133 0,-0.1351 -0.0561,-0.0224 -0.15766,0 -0.16892,0.079 -0.0224,0.1351 -0.10133,0.16887 -0.21389,0.1464 -0.12391,-0.034 -0.11266,-0.15772 -0.0901,-0.24772 0.0222,-0.1802 0.0339,-0.38291 0.2252,-0.49555 0.0446,-0.0341 0.0904,-0.0446 0.14637,-0.0341 0.0565,0.012 0.10134,0.012 0.15767,-0.0447 0.079,-0.0791 0.1689,-0.0222 0.25896,0 0.0672,0.0224 0.034,0.0903 0.0447,0.13515 0.0118,0.0671 0.0118,0.16891 0.079,0.15761 0.079,0 0.0903,-0.10137 0.0672,-0.18021 -0.0447,-0.16893 0.0115,-0.31525 0.16892,-0.39411 0.1689,-0.09 0.24768,-0.23647 0.34903,-0.38285 0.0673,-0.11255 0.19147,-0.16891 0.30402,-0.24769 0.1126,-0.0673 0.20272,-0.19146 0.34907,-0.24769 0.0222,-0.0121 0.0447,-0.0121 0.0563,-0.0226 -0.012,0.0226 -0.012,0.034 -0.0223,0.0564 -0.0117,0.0224 -0.0224,0.0339 0,0.0446 0.012,0 0.034,0 0.0449,-0.012 0.0341,-0.0447 0.0903,-0.0564 0.14635,-0.0671 0.0339,-0.0118 0.0903,-0.0342 0.10135,-0.0563 0,-0.0445 -0.0566,-0.0223 -0.079,-0.0445 -0.0449,-0.0341 -0.0449,-0.0671 -0.0224,-0.10136 0.0224,-0.0561 0.10132,-0.11262 -0.0341,-0.11262 0,0 -0.0119,-0.0116 -0.0119,-0.0223 0.0119,0 0.0224,-0.0121 0.0341,-0.0121 0.15765,-0.0338 0.32654,0.0223 0.47296,-0.09 0.0119,0 0.0224,0.0118 0.0338,0.0118 -0.012,0.0119 -0.012,0.0223 -0.0225,0.034 -0.0341,0.079 -0.18014,0.11259 -0.13516,0.20272 0.0223,0.0447 0.15769,-0.0341 0.24776,0.0341 0.0341,0.0226 0.0901,0 0.0671,-0.0341 -0.0339,-0.0564 0.0791,-0.14636 -0.0223,-0.14636 -0.10134,-0.0121 -0.0672,-0.0449 -0.0447,-0.0904 0.0671,-0.11256 0.0902,-0.20271 -0.0564,-0.25902 -0.0791,-0.0339 -0.0341,-0.11261 -0.0561,-0.16888 -0.0224,-0.0904 -0.0341,-0.15759 -0.14636,-0.0671 -0.0448,0.034 -0.16896,0.1464 -0.13516,-0.0561 0.0115,-0.0445 -0.0672,-0.0903 -0.10136,-0.0903 -0.0902,0 -0.20266,-0.0561 -0.24767,0.0564 -0.0445,0.0902 -0.15769,0.14629 -0.15769,0.27023 0,0.0341 -0.0561,0.0671 -0.10131,0.0901 -0.0903,0.0339 -0.15765,0.0791 -0.16889,0.18021 -0.0118,0.0561 -0.0563,0.10134 -0.11261,0.079 -0.0672,-0.0338 -0.0118,-0.0902 0.0118,-0.12381 0.0447,-0.0564 0.0447,-0.10135 -0.0446,-0.0902 -0.0901,0.0118 -0.14643,-0.0791 -0.24778,-0.0904 -0.034,0 -0.034,-0.0901 0.012,-0.12386 0.14635,-0.14641 0.33777,-0.19136 0.50667,-0.304 0.0448,-0.0341 0.0564,0.10132 0.0903,0.0338 0.0339,-0.0671 0.2478,0.0447 0.14642,-0.14643 0.0561,-0.0222 0.10138,-0.0341 0.15761,-0.0564 0.0791,-0.0342 0.10135,-0.13511 0.20271,-0.1576 0.0902,-0.012 0.19149,-0.0224 0.20266,0.0565 0.012,0.079 -0.10133,0.10132 -0.16888,0.1351 -0.0342,0.0118 -0.0671,0 -0.10135,0.0118 -0.0223,0.0119 -0.0564,0.0338 -0.0564,0.0445 0,0.0341 0.0445,0.0223 0.0671,0.0223 0.0672,-0.0121 0.12389,-0.0121 0.1689,0.0564 0.0338,0.0448 0.15766,0.0671 0.15766,0.0448 0.0118,-0.10135 0.27028,-0.0224 0.13514,-0.20269 0,-0.0121 0,-0.0341 0,-0.0341 0.0222,-0.0222 0.0446,-0.0121 0.0673,0.0113 0.079,0.0906 0.14636,0.0121 0.18013,-0.0341 0.0449,-0.0671 -0.079,-0.0671 -0.079,-0.0901 0,-0.14644 -0.13516,-0.12386 -0.20271,-0.16894 -0.0673,-0.0447 -0.12389,-0.0447 -0.19147,-0.0338 0.0223,0.0117 0.0223,0.0446 0,0.0338 -0.0902,-0.0561 -0.15764,-0.0119 -0.23648,0 -0.079,0.0224 -0.14637,0.0224 -0.21392,-0.0223 -0.0448,-0.0341 -0.0904,-0.0223 -0.13511,0 -0.0118,0 -0.0222,0.0118 -0.0222,0.0223 0,0 0.0118,0.0119 0.0222,0.0119 0.0341,0 0.0673,-0.0564 0.10133,-0.0119 -0.0449,0.0339 -0.0906,0.0564 -0.14638,0.0671 v 0 c 0,0 0,0 0,0 -0.13512,-0.0224 -0.18015,0.0223 -0.16889,0.13513 0,0.0223 -0.012,0.0447 -0.0222,0.0671 -0.0564,-0.0446 -0.16892,0.0338 -0.16892,-0.0115 0,-0.0672 -0.0339,-0.16891 0.0561,-0.22525 1.08099,-0.6418 2.22955,-0.87828 3.46823,-0.66435 0.82197,0.14639 1.5539,0.47296 2.21827,0.97967 0.0342,0.0224 0.0564,0.0564 0.079,0.079 -0.0447,0.0223 -0.0671,-0.0225 -0.10132,-0.0338 -0.10134,-0.0446 -0.19142,-0.12392 -0.30403,-0.14641 -0.14642,-0.0223 -0.29273,-0.0447 -0.40537,0.079 -0.0791,0.079 -0.16893,0.13514 -0.28156,0.15764 -0.0905,0.0225 -0.11256,0.0671 -0.0672,0.15764 0.0342,0.0905 0.079,0.14639 0.16887,0.10135 0.079,-0.0447 0.1126,-0.0118 0.15768,0.0448 0.0566,0.0671 0.0342,0.0904 -0.0119,0.13511 -0.012,0.0118 0.0119,0.0561 -0.034,0.0448 -0.0561,0.0117 -0.0448,-0.012 -0.0448,-0.0448 0,-0.0341 0.0448,-0.0901 -0.0223,-0.0901 -0.0564,0 -0.10133,0.0565 -0.0791,0.11258 0.0447,0.0903 -0.0118,0.11256 -0.079,0.11256 -0.11261,0.0119 -0.15761,0.14642 -0.25894,0.15769 -0.0562,0.12384 -0.19146,0.0564 -0.28157,0.11258 -0.0223,0.012 -0.0671,0 -0.079,0.034 0,0.012 0.034,0.034 0.0564,0.0448 0.0447,0.0223 0.079,0.0561 0.11261,0.0901 0.0445,0.0564 0.0339,0.11261 0.0115,0.16889 -0.0223,0.0671 -0.079,0.0339 -0.12385,0.0339 -0.012,0 -0.0222,0 -0.0222,0 -0.2928,-0.0339 -0.38286,0.0564 -0.33784,0.34911 0.0118,0.0564 0.0118,0.13512 0.11261,0.12385 0.079,0 0.11262,0.0564 0.0564,0.12388 -0.11261,0.13513 -0.2365,0.27025 -0.29278,0.45041 -0.0339,0.0791 -0.15766,0.0791 -0.21398,0.18014 -0.079,0.18016 -0.28147,0.30402 -0.20268,0.55179 0.0339,0.10134 0,0.20269 -0.0341,0.3153 -0.0341,0.10134 -0.0341,0.22518 0.0671,0.31529 0.16891,0.13512 0.22524,0.3603 0.41668,0.4729 0.0791,0.0446 0.13512,0.0564 0.2252,0.0446 0.21391,-0.0224 0.41658,-0.0905 0.61929,-0.10133 0.12388,-0.012 0.259,0.12383 0.39414,0.18011 0.079,0.0341 0,0.18016 -0.0119,0.27029 -0.0114,0.079 -0.0114,0.13512 0.0447,0.19144 0.16887,0.18011 0.19134,0.40534 0.23643,0.63053 0.0223,0.10134 -0.0903,0.16891 -0.11266,0.27024 -0.0338,0.13513 -0.0564,0.25903 0.0222,0.38285 0.079,0.12392 0.11255,0.25903 0.0902,0.40544 -0.012,0.14634 0.11259,0.22516 0.13513,0.34905 0.0445,0.24772 0.0561,0.23647 0.31531,0.19139 0.29268,-0.0564 0.42783,-0.29274 0.55172,-0.52921 0.034,-0.0564 0.034,-0.1126 0.10135,-0.1351 0.0671,-0.0341 0.10132,-0.12387 0.079,-0.19143 -0.0341,-0.14641 0.0448,-0.24774 0.14643,-0.3153 0.21392,-0.13511 0.23648,-0.33783 0.18015,-0.52925 -0.10133,-0.37157 0.079,-0.63056 0.2928,-0.87833 0.16889,-0.19139 0.22513,-0.40535 0.25892,-0.63059 0.012,-0.0565 0,-0.10135 -0.079,-0.0565 -0.0338,0.0224 -0.0674,0.0338 -0.11264,0.0446 -0.0564,0.012 -0.12386,0.0338 -0.15764,-0.0446 -0.0446,-0.10135 0.0561,-0.079 0.0904,-0.0902 0.20268,-0.11263 0.41665,-0.2252 0.45043,-0.49544 0.0115,-0.0791 0,-0.15765 -0.0564,-0.22521 -0.034,-0.0446 -0.0561,-0.10135 -0.034,-0.15763 0.2477,0.27024 0.21391,0.63055 0.22524,0.94586 0.1238,2.39845 -1.48639,4.48159 -3.77223,5.04464 z m -4.3353,-5.70898 c -0.1238,-0.079 -0.22517,-0.20271 -0.3941,-0.20271 -0.0449,0.0118 -0.10131,0.0225 -0.14638,0.0672 -0.0116,0.0112 -0.0222,0.0564 0.012,0.0448 0.1801,-0.0671 0.28144,0.0121 0.39403,0.13509 0.0226,0.0223 0.0901,0.0445 0.14648,0.0121 0,-0.0223 -0.0121,-0.0563 -0.0121,-0.0563 z m 0.33783,0.12386 c -0.0449,-0.0671 -0.11256,-0.0791 -0.19137,-0.0902 -0.10131,-0.0225 -0.0564,0.12387 -0.13509,0.11252 0.0339,0.0121 0.0671,0.034 0.11255,0.0447 0.0672,-0.0338 0.14635,-0.0447 0.21391,-0.0671 z m 3.8961,-3.25425 c 0,-0.0447 -0.0449,-0.0567 -0.0791,-0.0567 -0.0901,0 -0.1801,0 -0.27023,0 -0.0341,0 -0.079,-0.0341 -0.10135,0.0121 0.0447,0.0223 0.012,0.10138 0.079,0.1238 0.0339,0.012 0.079,0.012 0.12388,0.0222 0.0564,-0.0121 0.12385,-0.0338 0.18016,-0.0445 0.0341,-0.0223 0.0671,-0.0223 0.0671,-0.0565 z m 0.36028,0.60801 c 0.0671,0.0341 0.18028,0.0449 0.0564,0.15757 -0.0342,0.0342 0,0.11268 -0.0445,0.15764 0.0564,0.0339 0.10133,-0.012 0.14639,-0.012 0.0673,0 0.14635,-0.0119 0.21391,-0.0223 0,-0.10136 -0.0565,-0.18014 -0.13512,-0.25903 -0.0226,-0.0224 -0.0564,-0.0564 -0.0564,-0.0901 0.012,-0.11263 -0.0564,-0.16893 -0.14645,-0.14641 -0.0901,0.0341 -0.079,0.12385 -0.0338,0.21397 z m -0.10131,-0.0223 c -0.0564,0.0121 -0.1463,0.0342 -0.1463,0.10135 0,0.0447 -0.0675,0.11264 0,0.13514 0.0447,0.0121 0.13515,-0.0118 0.16892,-0.0449 0.0447,-0.0446 0.0561,-0.11268 0.079,-0.16895 -0.0338,-0.0121 -0.0671,-0.0224 -0.10131,-0.0224 z m -0.73186,-0.78828 c 0.0448,0 0.0904,-0.0341 0.1351,-0.0564 0.0226,-0.0118 0.0448,-0.0223 0.0342,-0.0446 -0.12392,-0.13511 0.0447,-0.0562 0.0671,-0.0906 0.0222,-0.0222 0.0903,-0.0341 0.10134,-0.0565 0.0338,-0.14648 0.14638,-0.16891 0.28152,-0.16891 -0.012,0 0.0115,-0.0121 0.0223,-0.0121 -0.0118,-0.0118 -0.0223,-0.0225 -0.0447,-0.0225 -0.12385,-0.0222 -0.24777,-0.0448 -0.37161,-0.0671 -0.52916,-0.0671 -1.05848,0.0449 -1.59899,0.0117 -0.30404,-0.0224 -0.58554,0.11265 -0.88957,0.14643 -0.0447,0 -0.0901,0.0338 -0.13511,0.0445 -0.0118,0 -0.0447,0.0343 -0.0118,0.0343 0.10135,0.0226 0,0.0448 0,0.0448 -0.0339,0.0447 -0.0904,0.0222 -0.13513,0.034 -0.0224,0.0117 -0.0561,0.0341 -0.0561,0.0446 0.012,0.0339 0.0445,0.0121 0.0671,0.0121 0.079,0 0.15773,0 0.23645,-0.0121 v 0 c 0.16889,-0.1238 0.36041,-0.16888 0.55181,-0.23644 0.0224,-0.0118 0.0445,0 0.0671,-0.0118 0,0.20265 0.14641,0.0671 0.21396,0.09 0.0901,0.0223 0.22518,-0.0341 0.1914,0.14636 0,0.0118 0.012,0.0222 0.0223,0.0341 0.0671,0.0564 0.0446,0.11257 -0.0223,0.13515 -0.13511,0.0341 -0.11251,0.14635 -0.12384,0.2477 0,0.15767 0.13513,0.16895 0.23647,0.21395 0.0901,0.0338 0.12382,-0.0447 0.1689,-0.0901 0.0903,-0.079 0.14643,-0.19144 0.27027,-0.2027 0.24775,-0.0338 0.47291,-0.15767 0.72067,-0.16889 z m 3.91864,5.75412 c -0.012,-0.0341 -0.0223,-0.0565 -0.0223,-0.0901 -0.0223,0.0223 -0.0446,0.0444 -0.0563,0.0671 -0.0223,0.0341 -0.0338,0.10133 -0.0791,0.12386 -0.21399,0.14636 -0.15761,0.38285 -0.2365,0.58556 -0.0119,0.0342 -0.0119,0.0791 0.0338,0.0905 0.0338,0.0113 0.0671,-0.012 0.0903,-0.0445 0.11265,-0.23643 0.21398,-0.47294 0.27028,-0.73198 z m -0.79962,-3.23172 c -0.0338,0.079 -0.11257,0 -0.15757,0.0121 -0.19145,0.0447 -0.33781,-0.0449 -0.49549,-0.12391 -0.0564,-0.0223 -0.1238,-0.0116 -0.13514,0.0342 -0.079,0.25901 -0.18006,-0.0223 -0.25896,0.0118 -0.0121,0 -0.034,-0.0563 -0.0449,-0.0563 -0.18017,-0.0224 -0.304,-0.0791 -0.24775,-0.30407 0.0121,-0.0338 -0.0561,-0.0562 -0.0901,-0.0447 -0.22521,0.0342 -0.47298,-0.0445 -0.67563,0.11261 -0.0223,0.0224 -0.0671,0 -0.10132,0 -0.0341,0 -0.10131,0.0118 -0.10131,-0.0339 0,-0.0564 0.0564,-0.0446 0.10131,-0.0564 0.11263,-0.0117 0.16888,-0.079 0.214,-0.18016 0.0564,-0.14636 0.20265,-0.21392 0.30397,-0.28149 0.22519,-0.16891 0.30402,0.0341 0.42788,0.12383 0.0448,0.0341 0.0903,0.0671 0.14645,0.0903 0.0341,0.0222 0.0671,0.0565 0.0561,0.0902 -0.0115,0.0564 -0.0561,0.0447 -0.10135,0.0447 -0.0223,0.012 -0.0671,-0.0224 -0.079,0.0222 0,0.0118 0.0226,0.0339 0.0448,0.0449 0.0341,0.0118 0.0791,0.0672 0.10132,0.0223 0.0225,-0.0563 0.0672,-0.0904 0.10135,-0.14641 0.11268,-0.16892 -0.079,-0.14637 -0.1238,-0.21392 -0.0117,-0.0226 -0.0563,-0.0226 -0.0563,-0.0449 -0.0224,-0.0564 -0.13513,-0.10136 -0.079,-0.15767 0.0561,-0.0564 0.10138,0.0564 0.15759,0.079 0.21403,0.0791 0.23647,0.30404 0.34915,0.45047 0.0222,0.0342 0.034,0.10133 0.0903,0.0791 0.0448,-0.0223 0.0673,-0.0791 0.0448,-0.1351 -0.0118,-0.0564 -0.0565,-0.11263 0.0222,-0.13512 0.0904,-0.0223 0.10133,0.0564 0.11256,0.11261 0.0223,0.1464 0.1126,0.2027 0.259,0.2027 0.079,0 0.14636,0.0671 0.23648,0.0341 0.0119,0 0.0339,0.0113 0.0339,0.0342 0.0118,0.13516 -0.0225,0.2252 -0.0564,0.31527 z m -1.43003,-0.66435 c -0.0222,-0.0561 0.012,-0.12391 -0.0444,-0.18022 -0.0113,0.0565 -0.034,0.11267 -0.0448,0.16887 0.0338,0.0224 -0.0119,0.0904 0.0564,0.0904 0.0341,-0.012 0.0445,-0.0561 0.0341,-0.079 z m 1.32872,-0.214 c -0.0445,0.012 -0.079,0.012 -0.11262,-0.0339 -0.0339,-0.0446 -0.0671,-0.12377 -0.1238,-0.0671 -0.0671,0.0561 -0.10133,0.14643 -0.079,0.23646 0.0222,0.0671 0.0905,0.10135 0.14639,0.079 0.13509,-0.0566 0.24777,-0.0223 0.36031,0.0448 0.0341,0.0223 0.0905,0.0563 0.11261,0 0.0223,-0.0564 -0.0222,-0.079 -0.0562,-0.10131 -0.0561,-0.0448 -0.12396,-0.0901 -0.16891,-0.14637 -0.0222,-0.0341 0.0225,-0.10132 -0.0671,-0.0906 -0.012,0 -0.0223,0 -0.0223,0.012 -0.0223,0.0446 0.0341,0.034 0.0449,0.0564 0,0.0121 -0.0121,0.0121 -0.0339,0.0121 z m 0.34915,1.46386 c -0.0341,-0.10135 -0.10136,-0.18021 -0.15774,-0.27024 -0.0113,-0.0223 -0.0338,-0.0445 -0.0671,-0.0338 -0.0448,0.0118 -0.0222,0.0447 -0.0116,0.0671 0.13509,0.27027 0.24765,0.55181 0.36028,0.82209 0.0222,0.0562 0.0902,0.10138 0.14639,0.15759 0.0113,0.0121 0.0226,0.0121 0.0341,0.0223 0,-0.012 0.0118,-0.0341 0,-0.012 0,-0.32652 -0.21393,-0.50678 -0.30402,-0.75443 z m -1.23868,-2.53351 c -0.0445,-0.0791 -0.0116,-0.11267 0.0561,-0.14645 0.0113,-0.0121 0.034,-0.0339 0.0113,-0.0339 -0.0222,-0.0121 -0.0671,-0.0121 -0.0671,0 -0.0338,0.079 -0.2927,0.0671 -0.0904,0.23644 0,0 0,0.034 0,0.034 -0.079,0.0561 -0.0567,0.22518 -0.21394,0.20269 -0.0118,0 -0.0447,0 -0.0224,0.0223 0.09,0.11257 0.21391,0 0.32652,0.0339 0.0341,0.0121 0.0564,-0.0339 0.0671,-0.079 0.0121,-0.12392 0.0447,-0.2253 0.2027,-0.14645 0.0121,0.0118 0.0447,0.0118 0.0447,-0.0118 0,0 -0.0222,-0.0224 -0.0447,-0.0224 -0.0222,0 -0.0561,0 -0.079,0 -0.079,-0.0114 -0.14639,-0.0114 -0.19147,-0.09 z m 2.02688,2.44349 c -0.11255,-0.0564 -0.21392,-0.12397 -0.2477,-0.24776 -0.012,-0.0224 -0.0338,-0.0671 -0.0671,-0.0445 -0.0341,0.0223 -0.0222,0.0561 0,0.0904 0.0445,0.0673 0.10133,0.11261 0.12382,0.18017 0.0562,0.21394 0.11262,0.14639 0.19148,0.0223 0,0 0,0 0,0 z m -7.07161,-3.04038 c -0.079,0.0447 0.0445,0.0564 0.0121,0.11268 -0.0341,0.0561 0.0564,0.0901 0.079,0.079 0.10134,-0.0118 0.10134,-0.10137 0.079,-0.18006 -0.0115,-0.0448 -0.0561,-0.0121 -0.0901,0 -0.0338,0.0224 -0.0563,0.0224 -0.079,-0.0121 -0.0114,0 0,0 0,0 z m -0.79934,1.44141 c 0.0115,-0.0445 -0.0341,-0.0565 -0.0671,-0.0565 -0.0671,0.0121 -0.1351,0.0445 -0.16887,0.0906 -0.0121,0.0225 0.0671,-0.0121 0.0903,0.0225 0.0449,-0.034 0.13513,0.0341 0.14642,-0.0564 z m -0.012,0.18005 c -0.0222,0.0224 0.012,0.0564 0.0222,0.0445 0.0445,-0.0341 0.10137,-0.0671 0.13515,-0.11252 0.0118,-0.0116 -0.0566,-0.0342 -0.10135,-0.0342 -0.0903,-0.0224 -0.0223,0.0674 -0.0565,0.10135 z m 6.90266,3.23178 c -0.0564,0 -0.079,0.034 -0.0905,0.079 0,0.0341 -0.0115,0.0791 0.0449,0.0791 0.0564,0 0.0564,-0.0672 0.079,-0.10133 0.0224,-0.0448 -0.0119,-0.0448 -0.0339,-0.0562 z m -7.01523,-3.27672 c -0.0564,0.0113 -0.0904,0.0564 -0.11265,0.10134 -0.0223,0.0341 -0.0445,0.0901 -0.0561,0.12376 0.0114,0 0.0223,0.0121 0.034,0 0.0672,-0.0561 0.0672,-0.15753 0.1576,-0.21395 -0.0222,0 -0.0222,-0.0115 -0.0222,-0.0115 z"
       id="path2-3"
       style="fill:url(#linearGradient890);fill-opacity:1;stroke-width:0.112612" />
    <g
       transform="matrix(0.37142657,0,0,0.37142657,335.22203,145.98919)"
       id="g4">
      <path
         style="color:#000000;font-style:normal;font-variant:normal;font-weight:normal;font-stretch:normal;font-size:medium;line-height:normal;font-family:Sans;-inkscape-font-specification:Sans;text-indent:0;text-align:start;text-decoration:none;text-decoration-line:none;letter-spacing:normal;word-spacing:normal;text-transform:none;writing-mode:lr-tb;direction:ltr;baseline-shift:baseline;text-anchor:start;display:inline;overflow:visible;visibility:visible;opacity:1;fill:url(#linearGradient838);fill-opacity:1;fill-rule:nonzero;stroke:none;stroke-width:3.89541;marker:none;enable-background:accumulate"
         d="m 141.38268,1003.722 c -3.86745,0 -7.17203,2.8599 -7.17203,6.6563 v 56.0166 c 0,2.365 0.81102,3.884 2.38562,5.2629 1.57461,1.3787 3.20879,2.0637 5.29402,2.0637 h 66.29287 c 1.59157,0.029 1.54631,-2.2247 3.9e-4,-2.2482 l -66.38498,-0.04 c -2.05166,0 -3.7564,-1.4926 -3.7564,-1.4926 0,0 -1.5709,-1.2167 -1.5709,-3.5458 v -56.0166 c 0,-2.6157 1.72505,-4.2948 4.73839,-4.2608 l 23.33509,-0.012 11.12746,10.2308 c 0.33628,0.3135 0.76676,0.7596 1.21509,0.7689 l 32.356,-0.012 c 1.64981,-0.01 1.59766,-2.3448 -0.0519,-2.3719 h -31.62225 l -11.79535,-10.5315 c -0.34044,-0.3012 -0.77051,-0.4671 -1.21508,-0.4684 z m 37.63849,2.9062 c -1.50556,0 -1.50857,2.6712 0.0378,2.694 l 28.85799,-0.041 c 2.92415,0 4.19096,0.9734 5.1646,1.9099 0.97364,0.9369 2.45318,3.2301 2.45318,5.5932 v 54.9376 c 0.009,1.8593 2.13156,1.9205 2.1379,0.064 l -0.006,-55.0019 c -3e-4,-3.2101 -1.01803,-5.8978 -2.84511,-7.6559 -1.82707,-1.7579 -4.31458,-2.5002 -6.90534,-2.5002 h -28.71782 c -0.0592,0 -0.11859,0 -0.17785,0 z"
         id="path2-3-3"
         sodipodi:nodetypes="sssssccscsssccccccccsccsssccssscc" />
    </g>
  </g>
</svg>
