<?xml version="1.0" encoding="UTF-8" standalone="no"?>
<svg
   xmlns:dc="http://purl.org/dc/elements/1.1/"
   xmlns:cc="http://creativecommons.org/ns#"
   xmlns:rdf="http://www.w3.org/1999/02/22-rdf-syntax-ns#"
   xmlns:svg="http://www.w3.org/2000/svg"
   xmlns="http://www.w3.org/2000/svg"
   xmlns:xlink="http://www.w3.org/1999/xlink"
   xmlns:sodipodi="http://sodipodi.sourceforge.net/DTD/sodipodi-0.dtd"
   xmlns:inkscape="http://www.inkscape.org/namespaces/inkscape"
   width="32"
   version="1.1"
   height="32"
   viewBox="0 0 32 32"
   id="svg15"
   sodipodi:docname="folder-grey.svg"
   inkscape:version="1.0.1 (3bc2e813f5, 2020-09-07)">
  <sodipodi:namedview
     pagecolor="#ffffff"
     bordercolor="#666666"
     borderopacity="1"
     objecttolerance="10"
     gridtolerance="10"
     guidetolerance="10"
     inkscape:pageopacity="0"
     inkscape:pageshadow="2"
     inkscape:window-width="1920"
     inkscape:window-height="1016"
     id="namedview17"
     showgrid="false"
     inkscape:zoom="6.9384853"
     inkscape:cx="-5.4229901"
     inkscape:cy="8.5705803"
     inkscape:window-x="0"
     inkscape:window-y="0"
     inkscape:window-maximized="1"
     inkscape:current-layer="layer1" />
  <defs
     id="defs5455">
    <linearGradient
       inkscape:collect="always"
       xlink:href="#linearGradient860"
       id="linearGradient854"
       gradientUnits="userSpaceOnUse"
       gradientTransform="matrix(0.35225394,0,0,0.37139344,382.95787,513.22947)"
       x1="6"
       y1="50.000134"
       x2="94.005508"
       y2="50.000134" />
    <linearGradient
       inkscape:collect="always"
       id="linearGradient860">
      <stop
         style="stop-color:#75828a;stop-opacity:1"
         id="stop856" />
      <stop
         offset="1"
         style="stop-color:#abb2ba;stop-opacity:1"
         id="stop858" />
    </linearGradient>
  </defs>
  <metadata
     id="metadata5458">
    <rdf:RDF>
      <cc:Work
         rdf:about="">
        <dc:format>image/svg+xml</dc:format>
        <dc:type
           rdf:resource="http://purl.org/dc/dcmitype/StillImage" />
      </cc:Work>
    </rdf:RDF>
  </metadata>
  <g
     inkscape:label="Capa 1"
     inkscape:groupmode="layer"
     id="layer1"
     transform="translate(-384.57143,-515.798)">
    <path
       style="color:#000000;font-style:normal;font-variant:normal;font-weight:normal;font-stretch:normal;font-size:medium;line-height:normal;font-family:Sans;-inkscape-font-specification:Sans;text-indent:0;text-align:start;text-decoration:none;text-decoration-line:none;letter-spacing:normal;word-spacing:normal;text-transform:none;writing-mode:lr-tb;direction:ltr;baseline-shift:baseline;text-anchor:start;display:inline;overflow:visible;visibility:visible;opacity:1;fill:url(#linearGradient854);fill-opacity:1;fill-rule:nonzero;stroke:none;stroke-width:1.44687;marker:none;enable-background:accumulate"
       d="m 387.7353,518.80042 c -1.4365,0 -2.66387,1.06211 -2.66387,2.47201 v 20.80424 c 0,0.87835 0.3013,1.44267 0.8862,1.95475 0.58489,0.512 1.19175,0.76646 1.96632,0.76646 h 24.62313 c 0.59126,0.0117 0.57434,-0.82622 1.3e-4,-0.83514 l -24.65747,-0.014 c -0.76205,0 -1.39511,-0.55454 -1.39511,-0.55454 0,0 -0.58351,-0.45172 -0.58351,-1.3168 v -20.80433 c 0,-0.9716 0.64076,-1.59498 1.76001,-1.5823 l 8.66728,-0.006 4.1332,3.79981 c 0.12478,0.11613 0.28473,0.2818 0.4513,0.2856 l 12.01794,-0.006 c 0.6128,-0.005 0.59344,-0.8707 -0.0188,-0.88084 h -11.74556 l -4.38113,-3.91129 c -0.12644,-0.11204 -0.28623,-0.17356 -0.45133,-0.17405 z m 13.98013,1.07934 c -0.55926,-0.003 -0.56033,0.99195 0.0137,1.00042 l 10.71877,-0.0145 c 1.08617,-0.003 1.55663,0.3614 1.91829,0.70934 0.36165,0.34787 0.91117,1.1997 0.91117,2.07733 v 20.40349 c 0.005,0.69037 0.79174,0.71311 0.7941,0.0229 l -0.003,-20.42735 c -1e-4,-1.19231 -0.37815,-2.1906 -1.05674,-2.84348 -0.67869,-0.65287 -1.60259,-0.92846 -2.56486,-0.92846 h -10.66648 c -0.0208,-0.002 -0.0443,-0.002 -0.0654,0 z"
       id="path2-3"
       sodipodi:nodetypes="sssssccscsssccccccccsccsssccssscc" />
  </g>
</svg>
