<?xml version="1.0" encoding="UTF-8" standalone="no"?>
<svg
   xmlns:dc="http://purl.org/dc/elements/1.1/"
   xmlns:cc="http://creativecommons.org/ns#"
   xmlns:rdf="http://www.w3.org/1999/02/22-rdf-syntax-ns#"
   xmlns:svg="http://www.w3.org/2000/svg"
   xmlns="http://www.w3.org/2000/svg"
   xmlns:xlink="http://www.w3.org/1999/xlink"
   xmlns:sodipodi="http://sodipodi.sourceforge.net/DTD/sodipodi-0.dtd"
   xmlns:inkscape="http://www.inkscape.org/namespaces/inkscape"
   width="32"
   version="1.1"
   height="32"
   viewBox="0 0 32 32"
   id="svg15"
   sodipodi:docname="folder-Github.svg"
   inkscape:version="1.0.1 (3bc2e813f5, 2020-09-07)">
  <sodipodi:namedview
     pagecolor="#ffffff"
     bordercolor="#666666"
     borderopacity="1"
     objecttolerance="10"
     gridtolerance="10"
     guidetolerance="10"
     inkscape:pageopacity="0"
     inkscape:pageshadow="2"
     inkscape:window-width="1920"
     inkscape:window-height="1016"
     id="namedview17"
     showgrid="true"
     inkscape:zoom="9.8125"
     inkscape:cx="-26.308778"
     inkscape:cy="8.6141759"
     inkscape:window-x="0"
     inkscape:window-y="0"
     inkscape:window-maximized="1"
     inkscape:current-layer="layer1"
     inkscape:document-rotation="0">
    <inkscape:grid
       type="xygrid"
       id="grid847" />
  </sodipodi:namedview>
  <defs
     id="defs5455">
    <linearGradient
       inkscape:collect="always"
       xlink:href="#linearGradient836"
       id="linearGradient838"
       x1="6"
       y1="50.000134"
       x2="94.005508"
       y2="50.000134"
       gradientUnits="userSpaceOnUse"
       gradientTransform="matrix(0.9780981,0,0,1,64.250683,974.47294)" />
    <linearGradient
       inkscape:collect="always"
       id="linearGradient836">
      <stop
         style="stop-color:#008080;stop-opacity:1"
         offset="0"
         id="stop832" />
      <stop
         style="stop-color:#00e5e5;stop-opacity:1"
         offset="1"
         id="stop834" />
    </linearGradient>
    <linearGradient
       inkscape:collect="always"
       xlink:href="#linearGradient836"
       id="linearGradient855"
       gradientUnits="userSpaceOnUse"
       x1="405.72083"
       y1="519.26166"
       x2="426.59012"
       y2="519.26166"
       gradientTransform="matrix(0.50000796,0,0,0.50000796,192.60778,274.1631)" />
  </defs>
  <metadata
     id="metadata5458">
    <rdf:RDF>
      <cc:Work
         rdf:about="">
        <dc:format>image/svg+xml</dc:format>
        <dc:type
           rdf:resource="http://purl.org/dc/dcmitype/StillImage" />
      </cc:Work>
    </rdf:RDF>
  </metadata>
  <g
     inkscape:label="Capa 1"
     inkscape:groupmode="layer"
     id="layer1"
     transform="translate(-384.57143,-515.798)">
    <g
       transform="matrix(0.36013848,0,0,0.37142583,359.81878,151.2823)"
       id="g4">
      <path
         style="color:#000000;font-style:normal;font-variant:normal;font-weight:normal;font-stretch:normal;font-size:medium;line-height:normal;font-family:Sans;-inkscape-font-specification:Sans;text-indent:0;text-align:start;text-decoration:none;text-decoration-line:none;letter-spacing:normal;word-spacing:normal;text-transform:none;writing-mode:lr-tb;direction:ltr;baseline-shift:baseline;text-anchor:start;display:inline;overflow:visible;visibility:visible;opacity:1;fill:url(#linearGradient838);fill-opacity:1;fill-rule:nonzero;stroke:none;stroke-width:3.95596;marker:none;enable-background:accumulate"
         d="m 77.516136,989.47294 c -3.988712,0 -7.396866,2.85993 -7.396866,6.65625 v 56.01651 c 0,2.3649 0.836461,3.8844 2.460429,5.2631 1.623967,1.3787 3.30936,2.0641 5.459931,2.0641 h 68.3709 c 1.64145,0.029 1.59477,-2.2249 3.9e-4,-2.2488 l -68.465873,-0.04 c -2.115981,0 -3.874159,-1.4929 -3.874159,-1.4929 0,0 -1.620163,-1.2165 -1.620163,-3.5457 v -56.01651 c 0,-2.61614 1.77916,-4.29462 4.886948,-4.26047 l 24.066557,-0.0121 11.47627,10.23088 c 0.34679,0.3129 0.79077,0.759 1.25317,0.769 l 33.37023,-0.012 c 1.7015,-0.01 1.64773,-2.3444 -0.0538,-2.3717 h -32.61346 l -12.1651,-10.53119 c -0.35109,-0.30157 -0.79464,-0.46748 -1.25318,-0.46875 z m 38.818274,2.90625 c -1.55276,-0.004 -1.55586,2.67092 0.0388,2.69371 l 29.7626,-0.0408 c 3.0158,-0.004 4.32232,0.97316 5.32647,1.90993 1.00416,0.93677 2.53008,3.23017 2.53008,5.59337 v 54.9375 c 0.009,1.8591 2.19838,1.9203 2.20491,0.064 l -0.006,-55.0018 c -3.1e-4,-3.21041 -1.04994,-5.89832 -2.9343,-7.65623 -1.88434,-1.75791 -4.44981,-2.5 -7.12177,-2.5 h -29.61804 c -0.0611,-0.003 -0.12228,-0.003 -0.18339,0 z"
         id="path2-3"
         sodipodi:nodetypes="sssssccscsssccccccccsccsssccssscc" />
    </g>
    <path
       d="m 400.68885,528.798 c -2.88268,0 -5.21742,2.29564 -5.21742,5.12691 0,2.26566 1.49473,4.18697 3.56746,4.86443 0.26082,0.0476 0.35638,-0.1105 0.35638,-0.24655 0,-0.12179 -0.009,-0.44431 -0.01,-0.87177 -1.45131,0.30924 -1.75742,-0.68773 -1.75742,-0.68773 -0.23738,-0.59175 -0.58044,-0.75002 -0.58044,-0.75002 -0.47263,-0.31788 0.0358,-0.31139 0.0358,-0.31139 0.52389,0.0353 0.79915,0.52839 0.79915,0.52839 0.46522,0.78384 1.22132,0.5573 1.51956,0.42641 0.0466,-0.33178 0.18129,-0.55737 0.33045,-0.68564 -1.15869,-0.12825 -2.37654,-0.56916 -2.37654,-2.53348 0,-0.55961 0.20217,-1.01699 0.53694,-1.37572 -0.0582,-0.12947 -0.23477,-0.65079 0.0452,-1.35694 0,0 0.43693,-0.13736 1.43474,0.52568 0.41742,-0.1139 0.86092,-0.17034 1.3044,-0.17304 0.44344,0.005 0.88694,0.0586 1.3043,0.17304 0.99131,-0.66304 1.42828,-0.52568 1.42828,-0.52568 0.28044,0.70615 0.10436,1.22747 0.0526,1.35694 0.33261,0.35873 0.53479,0.81611 0.53479,1.37572 0,1.96964 -1.21956,2.40301 -2.38043,2.52913 0.1826,0.15388 0.35217,0.46821 0.35217,0.9487 0,0.68614 -0.01,1.2374 -0.01,1.40396 0,0.13424 0.0914,0.29472 0.35869,0.24344 2.0874,-0.67305 3.58088,-2.59561 3.58088,-4.85788 0,-2.83127 -2.33612,-5.12691 -5.2174,-5.12691 z"
       id="path2-3-3"
       style="fill:url(#linearGradient855);fill-opacity:1;stroke-width:0.434778" />
  </g>
</svg>
