<?xml version="1.0" encoding="UTF-8" standalone="no"?>
<svg
   xmlns:dc="http://purl.org/dc/elements/1.1/"
   xmlns:cc="http://creativecommons.org/ns#"
   xmlns:rdf="http://www.w3.org/1999/02/22-rdf-syntax-ns#"
   xmlns:svg="http://www.w3.org/2000/svg"
   xmlns="http://www.w3.org/2000/svg"
   xmlns:xlink="http://www.w3.org/1999/xlink"
   xmlns:sodipodi="http://sodipodi.sourceforge.net/DTD/sodipodi-0.dtd"
   xmlns:inkscape="http://www.inkscape.org/namespaces/inkscape"
   width="32"
   version="1.1"
   height="32"
   viewBox="0 0 32 32"
   id="svg17"
   sodipodi:docname="folder-print.svg"
   inkscape:version="1.0.1 (3bc2e813f5, 2020-09-07)">
  <sodipodi:namedview
     pagecolor="#ffffff"
     bordercolor="#666666"
     borderopacity="1"
     objecttolerance="10"
     gridtolerance="10"
     guidetolerance="10"
     inkscape:pageopacity="0"
     inkscape:pageshadow="2"
     inkscape:window-width="1920"
     inkscape:window-height="1016"
     id="namedview19"
     showgrid="false"
     inkscape:zoom="9.8125"
     inkscape:cx="-10.325016"
     inkscape:cy="9.2198823"
     inkscape:window-x="0"
     inkscape:window-y="0"
     inkscape:window-maximized="1"
     inkscape:current-layer="layer1" />
  <defs
     id="defs5455">
    <linearGradient
       inkscape:collect="always"
       xlink:href="#linearGradient934"
       id="linearGradient898"
       x1="1"
       y1="8"
       x2="15"
       y2="8"
       gradientUnits="userSpaceOnUse" />
    <linearGradient
       inkscape:collect="always"
       id="linearGradient934">
      <stop
         style="stop-color:#ffcc00;stop-opacity:1"
         offset="0"
         id="stop930" />
      <stop
         style="stop-color:#00ffff;stop-opacity:1"
         offset="1"
         id="stop932" />
    </linearGradient>
    <linearGradient
       inkscape:collect="always"
       xlink:href="#linearGradient853"
       id="linearGradient907"
       gradientUnits="userSpaceOnUse"
       x1="1"
       y1="8"
       x2="15"
       y2="8" />
    <linearGradient
       inkscape:collect="always"
       id="linearGradient853">
      <stop
         style="stop-color:#008080;stop-opacity:1"
         offset="0"
         id="stop849" />
      <stop
         style="stop-color:#00e5e5;stop-opacity:1"
         offset="1"
         id="stop851" />
    </linearGradient>
    <linearGradient
       inkscape:collect="always"
       xlink:href="#linearGradient853"
       id="linearGradient854"
       gradientUnits="userSpaceOnUse"
       gradientTransform="matrix(0.35225432,0,0,0.37137251,382.95783,513.23126)"
       x1="6"
       y1="50.000134"
       x2="94.005508"
       y2="50.000134" />
    <linearGradient
       inkscape:collect="always"
       xlink:href="#linearGradient853"
       id="linearGradient893"
       gradientUnits="userSpaceOnUse"
       x1="1"
       y1="8"
       x2="15"
       y2="8" />
    <linearGradient
       inkscape:collect="always"
       xlink:href="#linearGradient853"
       id="linearGradient895"
       gradientUnits="userSpaceOnUse"
       x1="1"
       y1="8"
       x2="15"
       y2="8" />
    <linearGradient
       inkscape:collect="always"
       xlink:href="#linearGradient853"
       id="linearGradient897"
       gradientUnits="userSpaceOnUse"
       x1="1"
       y1="8"
       x2="15"
       y2="8" />
  </defs>
  <metadata
     id="metadata5458">
    <rdf:RDF>
      <cc:Work
         rdf:about="">
        <dc:format>image/svg+xml</dc:format>
        <dc:type
           rdf:resource="http://purl.org/dc/dcmitype/StillImage" />
      </cc:Work>
    </rdf:RDF>
  </metadata>
  <g
     inkscape:label="Capa 1"
     inkscape:groupmode="layer"
     id="layer1"
     transform="translate(-384.57143,-515.798)">
    <g
       id="g10"
       transform="matrix(0.69286263,0,0,0.71446841,394.67164,527.71943)"
       style="fill:url(#linearGradient898);fill-opacity:1">
      <path
         d="M 13,2 C 13,1.448 12.552,1 12,1 H 4 C 3.448,1 3,1.448 3,2 v 1 h 10 z"
         id="path2-3"
         style="fill:url(#linearGradient893);fill-opacity:1" />
      <path
         d="M 14,4 H 2 C 1.448,4 1,4.448 1,5 v 6 c 0,0.552 0.448,1 1,1 h 1 v 2 c 0,0.552 0.448,1 1,1 h 8 c 0.552,0 1,-0.448 1,-1 v -2 h 1 c 0.552,0 1,-0.448 1,-1 V 5 C 15,4.448 14.552,4 14,4 Z M 12,14 H 4 V 9 h 8 z M 13,7 H 11 V 6 h 2 z"
         id="path4"
         style="fill:url(#linearGradient895);fill-opacity:1" />
      <rect
         x="5"
         y="12"
         width="3"
         height="1"
         id="rect6"
         style="fill:url(#linearGradient897);fill-opacity:1" />
      <rect
         x="5"
         y="10"
         width="6"
         height="1"
         id="rect8"
         style="fill:url(#linearGradient907);fill-opacity:1" />
    </g>
    <path
       style="color:#000000;font-style:normal;font-variant:normal;font-weight:normal;font-stretch:normal;font-size:medium;line-height:normal;font-family:Sans;-inkscape-font-specification:Sans;text-indent:0;text-align:start;text-decoration:none;text-decoration-line:none;letter-spacing:normal;word-spacing:normal;text-transform:none;writing-mode:lr-tb;direction:ltr;baseline-shift:baseline;text-anchor:start;display:inline;overflow:visible;visibility:visible;opacity:1;fill:url(#linearGradient854);fill-opacity:1;fill-rule:nonzero;stroke:none;stroke-width:1.44683;marker:none;enable-background:accumulate"
       d="m 387.73532,518.80191 c -1.43652,0 -2.66389,1.06199 -2.66389,2.47193 v 20.80298 c 0,0.87829 0.30134,1.44257 0.88621,1.9546 0.58482,0.51203 1.19174,0.76647 1.96623,0.76647 h 24.62326 c 0.59117,0.011 0.57437,-0.82619 1.1e-4,-0.83512 l -24.6575,-0.0144 c -0.76202,0 -1.39508,-0.55439 -1.39508,-0.55439 0,0 -0.58355,-0.45178 -0.58355,-1.31676 v -20.80313 c 0,-0.97154 0.64075,-1.59499 1.76001,-1.58224 l 8.66738,-0.007 4.13306,3.79954 c 0.12484,0.11615 0.28476,0.28179 0.45129,0.28553 l 12.01799,-0.006 c 0.61281,-0.005 0.59348,-0.87073 -0.0189,-0.88075 H 401.1764 l -4.38112,-3.91115 c -0.12645,-0.11196 -0.28617,-0.17354 -0.4513,-0.17402 z m 13.98015,1.07929 c -0.55924,-0.003 -0.56036,0.99186 0.0136,1.00039 l 10.71879,-0.0149 c 1.08614,-0.003 1.5567,0.36142 1.91832,0.70926 0.36164,0.34791 0.91116,1.19951 0.91116,2.07721 v 20.40232 c 0.005,0.69032 0.79177,0.71309 0.79409,0.0231 l -0.003,-20.42616 c -1.3e-4,-1.19225 -0.37815,-2.19046 -1.05676,-2.84331 -0.67867,-0.65286 -1.60257,-0.92844 -2.56485,-0.92844 h -10.66648 c -0.0212,-0.002 -0.0439,-0.002 -0.066,0 z"
       id="path2-3-3"
       sodipodi:nodetypes="sssssccscsssccccccccsccsssccssscc" />
  </g>
</svg>
