<?xml version="1.0" encoding="UTF-8" standalone="no"?>
<svg
   xmlns:dc="http://purl.org/dc/elements/1.1/"
   xmlns:cc="http://creativecommons.org/ns#"
   xmlns:rdf="http://www.w3.org/1999/02/22-rdf-syntax-ns#"
   xmlns:svg="http://www.w3.org/2000/svg"
   xmlns="http://www.w3.org/2000/svg"
   xmlns:xlink="http://www.w3.org/1999/xlink"
   xmlns:sodipodi="http://sodipodi.sourceforge.net/DTD/sodipodi-0.dtd"
   xmlns:inkscape="http://www.inkscape.org/namespaces/inkscape"
   width="32"
   version="1.1"
   height="32"
   viewBox="0 0 32 32"
   id="svg2"
   inkscape:version="1.0.1 (3bc2e813f5, 2020-09-07)"
   sodipodi:docname="folder-gdrive.svg">
  <sodipodi:namedview
     pagecolor="#ffffff"
     bordercolor="#666666"
     borderopacity="1"
     objecttolerance="10"
     gridtolerance="10"
     guidetolerance="10"
     inkscape:pageopacity="0"
     inkscape:pageshadow="2"
     inkscape:window-width="1920"
     inkscape:window-height="1016"
     id="namedview46"
     showgrid="false"
     inkscape:zoom="10.429825"
     inkscape:cx="-17.931921"
     inkscape:cy="6.3618787"
     inkscape:window-x="0"
     inkscape:window-y="0"
     inkscape:window-maximized="1"
     inkscape:current-layer="layer1"
     inkscape:document-rotation="0" />
  <defs
     id="defs5455">
    <linearGradient
       inkscape:collect="always"
       xlink:href="#linearGradient853"
       id="linearGradient894"
       x1="36.23"
       y1="34.7715"
       x2="95.899002"
       y2="34.7715"
       gradientUnits="userSpaceOnUse" />
    <linearGradient
       inkscape:collect="always"
       id="linearGradient853">
      <stop
         style="stop-color:#008080;stop-opacity:1"
         offset="0"
         id="stop849" />
      <stop
         style="stop-color:#00e5e5;stop-opacity:1"
         offset="1"
         id="stop851" />
    </linearGradient>
    <linearGradient
       inkscape:collect="always"
       xlink:href="#linearGradient853"
       id="linearGradient892"
       x1="22.782"
       y1="76.005997"
       x2="95.899002"
       y2="76.005997"
       gradientUnits="userSpaceOnUse" />
    <linearGradient
       inkscape:collect="always"
       xlink:href="#linearGradient853"
       id="linearGradient890"
       x1="4"
       y1="49.855499"
       x2="48.738998"
       y2="49.855499"
       gradientUnits="userSpaceOnUse" />
    <linearGradient
       inkscape:collect="always"
       xlink:href="#linearGradient853"
       id="linearGradient854"
       gradientUnits="userSpaceOnUse"
       gradientTransform="matrix(0.35225096,0,0,0.37138338,382.95793,513.23037)"
       x1="6"
       y1="50.000134"
       x2="94.005508"
       y2="50.000134" />
  </defs>
  <metadata
     id="metadata5458">
    <rdf:RDF>
      <cc:Work
         rdf:about="">
        <dc:format>image/svg+xml</dc:format>
        <dc:type
           rdf:resource="http://purl.org/dc/dcmitype/StillImage" />
      </cc:Work>
    </rdf:RDF>
  </metadata>
  <g
     inkscape:label="Capa 1"
     inkscape:groupmode="layer"
     id="layer1"
     transform="translate(-384.57143,-515.798)">
    <polygon
       points="65.446,59.543 95.899,59.543 66.683,10 36.23,10 "
       id="polygon2"
       transform="matrix(0.12279861,0,0,0.12663281,394.16902,527.28619)"
       style="fill:url(#linearGradient894);fill-opacity:1" />
    <polygon
       points="22.782,88.991 80.827,88.991 95.899,63.021 37.854,63.021 "
       id="polygon4"
       transform="matrix(0.12279861,0,0,0.12663281,394.16902,527.28619)"
       style="fill:url(#linearGradient892);fill-opacity:1" />
    <polygon
       points="4,61.631 19.458,87.678 48.739,38.08 33.281,12.033 "
       id="polygon6"
       transform="matrix(0.12279861,0,0,0.12663281,394.16902,527.28619)"
       style="fill:url(#linearGradient890);fill-opacity:1" />
    <path
       style="color:#000000;font-style:normal;font-variant:normal;font-weight:normal;font-stretch:normal;font-size:medium;line-height:normal;font-family:Sans;-inkscape-font-specification:Sans;text-indent:0;text-align:start;text-decoration:none;text-decoration-line:none;letter-spacing:normal;word-spacing:normal;text-transform:none;writing-mode:lr-tb;direction:ltr;baseline-shift:baseline;text-anchor:start;display:inline;overflow:visible;visibility:visible;opacity:1;fill:url(#linearGradient854);fill-opacity:1;fill-rule:nonzero;stroke:none;stroke-width:1.44678;marker:none;enable-background:accumulate"
       d="m 387.73533,518.80111 c -1.43648,0 -2.6639,1.06214 -2.6639,2.47202 v 20.8036 c 0,0.8783 0.30127,1.44262 0.88611,1.95463 0.58484,0.51207 1.19175,0.76654 1.9663,0.76654 h 24.62298 c 0.59127,0.0106 0.57435,-0.82627 10e-5,-0.83511 l -24.65715,-0.015 c -0.76203,0 -1.39523,-0.55439 -1.39523,-0.55439 0,0 -0.58343,-0.45183 -0.58343,-1.31688 V 521.2731 c 0,-0.97158 0.6407,-1.59493 1.75992,-1.58228 l 8.66732,-0.006 4.13306,3.79965 c 0.12482,0.1161 0.28476,0.28182 0.45132,0.28555 l 12.01786,-0.006 c 0.61285,-0.005 0.59346,-0.87067 -0.019,-0.88082 h -11.74551 l -4.38115,-3.91116 c -0.12634,-0.11193 -0.2862,-0.17361 -0.45133,-0.17404 z m 13.97997,1.07932 c -0.55923,-0.003 -0.56036,0.99196 0.014,1.00042 l 10.71862,-0.0152 c 1.08618,-0.003 1.55659,0.36141 1.91829,0.70932 0.36164,0.3479 0.91117,1.19968 0.91117,2.07727 v 20.40298 c 0.005,0.69038 0.79172,0.71317 0.79408,0.0235 l -0.003,-20.42674 c -1.2e-4,-1.1923 -0.37813,-2.19055 -1.05671,-2.84341 -0.67865,-0.65286 -1.60263,-0.92847 -2.56484,-0.92847 H 401.7804 c -0.0217,-0.002 -0.0443,-0.002 -0.0663,0 z"
       id="path2-3"
       sodipodi:nodetypes="sssssccscsssccccccccsccsssccssscc" />
  </g>
</svg>
