<?xml version="1.0" encoding="UTF-8" standalone="no"?>
<svg
   xmlns:dc="http://purl.org/dc/elements/1.1/"
   xmlns:cc="http://creativecommons.org/ns#"
   xmlns:rdf="http://www.w3.org/1999/02/22-rdf-syntax-ns#"
   xmlns:svg="http://www.w3.org/2000/svg"
   xmlns="http://www.w3.org/2000/svg"
   xmlns:xlink="http://www.w3.org/1999/xlink"
   xmlns:sodipodi="http://sodipodi.sourceforge.net/DTD/sodipodi-0.dtd"
   xmlns:inkscape="http://www.inkscape.org/namespaces/inkscape"
   width="32"
   version="1.1"
   height="32"
   viewBox="0 0 32 32"
   id="svg15"
   sodipodi:docname="folder-Pop_OS.svg"
   inkscape:version="1.0.2 (e86c870879, 2021-01-15)">
  <sodipodi:namedview
     pagecolor="#ffffff"
     bordercolor="#666666"
     borderopacity="1"
     objecttolerance="10"
     gridtolerance="10"
     guidetolerance="10"
     inkscape:pageopacity="0"
     inkscape:pageshadow="2"
     inkscape:window-width="1920"
     inkscape:window-height="1007"
     id="namedview17"
     showgrid="false"
     inkscape:zoom="9.8125"
     inkscape:cx="-26.308778"
     inkscape:cy="8.6141759"
     inkscape:window-x="0"
     inkscape:window-y="0"
     inkscape:window-maximized="1"
     inkscape:current-layer="layer1"
     inkscape:document-rotation="0" />
  <defs
     id="defs5455">
    <linearGradient
       inkscape:collect="always"
       xlink:href="#linearGradient836"
       id="linearGradient838"
       x1="6"
       y1="50.000134"
       x2="94.005508"
       y2="50.000134"
       gradientUnits="userSpaceOnUse"
       gradientTransform="matrix(0.9780981,0,0,1,64.250683,974.47294)" />
    <linearGradient
       inkscape:collect="always"
       id="linearGradient836">
      <stop
         style="stop-color:#008080;stop-opacity:1"
         offset="0"
         id="stop832" />
      <stop
         style="stop-color:#00e5e5;stop-opacity:1"
         offset="1"
         id="stop834" />
    </linearGradient>
    <linearGradient
       inkscape:collect="always"
       xlink:href="#linearGradient836"
       id="linearGradient926"
       x1="423.31808"
       y1="517.20392"
       x2="426.5556"
       y2="517.20392"
       gradientUnits="userSpaceOnUse"
       gradientTransform="matrix(0.62144539,0,0,0.62145229,141.79892,211.45294)" />
    <linearGradient
       inkscape:collect="always"
       xlink:href="#linearGradient836"
       id="linearGradient928"
       x1="413.9173"
       y1="518.79504"
       x2="417.81851"
       y2="518.79504"
       gradientUnits="userSpaceOnUse"
       gradientTransform="matrix(0.62144539,0,0,0.62145229,141.79892,211.45294)" />
    <linearGradient
       inkscape:collect="always"
       xlink:href="#linearGradient836"
       id="linearGradient930"
       x1="418.5582"
       y1="518.65289"
       x2="422.60925"
       y2="518.65289"
       gradientUnits="userSpaceOnUse"
       gradientTransform="matrix(0.62144539,0,0,0.62145229,141.79892,211.45294)" />
    <linearGradient
       inkscape:collect="always"
       xlink:href="#linearGradient836"
       id="linearGradient932"
       x1="406.31744"
       y1="517.87299"
       x2="413.16266"
       y2="517.87299"
       gradientUnits="userSpaceOnUse"
       gradientTransform="matrix(0.62144539,0,0,0.62145229,141.79892,211.45294)" />
    <linearGradient
       inkscape:collect="always"
       xlink:href="#linearGradient836"
       id="linearGradient934"
       x1="420.06085"
       y1="524.62439"
       x2="426.59094"
       y2="524.62439"
       gradientUnits="userSpaceOnUse"
       gradientTransform="matrix(0.62144539,0,0,0.62145229,141.79892,211.45294)" />
    <linearGradient
       inkscape:collect="always"
       xlink:href="#linearGradient836"
       id="linearGradient936"
       x1="415.65665"
       y1="526.09137"
       x2="419.34311"
       y2="526.09137"
       gradientUnits="userSpaceOnUse"
       gradientTransform="matrix(0.62144539,0,0,0.62145229,141.79892,211.45294)" />
  </defs>
  <metadata
     id="metadata5458">
    <rdf:RDF>
      <cc:Work
         rdf:about="">
        <dc:format>image/svg+xml</dc:format>
        <dc:type
           rdf:resource="http://purl.org/dc/dcmitype/StillImage" />
      </cc:Work>
    </rdf:RDF>
  </metadata>
  <g
     inkscape:label="Capa 1"
     inkscape:groupmode="layer"
     id="layer1"
     transform="translate(-384.57143,-515.798)">
    <g
       transform="matrix(0.36013848,0,0,0.37142583,359.81878,151.2823)"
       id="g4">
      <path
         style="color:#000000;font-style:normal;font-variant:normal;font-weight:normal;font-stretch:normal;font-size:medium;line-height:normal;font-family:Sans;-inkscape-font-specification:Sans;text-indent:0;text-align:start;text-decoration:none;text-decoration-line:none;letter-spacing:normal;word-spacing:normal;text-transform:none;writing-mode:lr-tb;direction:ltr;baseline-shift:baseline;text-anchor:start;display:inline;overflow:visible;visibility:visible;opacity:1;fill:url(#linearGradient838);fill-opacity:1;fill-rule:nonzero;stroke:none;stroke-width:3.95596;marker:none;enable-background:accumulate"
         d="m 77.516136,989.47294 c -3.988712,0 -7.396866,2.85993 -7.396866,6.65625 v 56.01651 c 0,2.3649 0.836461,3.8844 2.460429,5.2631 1.623967,1.3787 3.30936,2.0641 5.459931,2.0641 h 68.3709 c 1.64145,0.029 1.59477,-2.2249 3.9e-4,-2.2488 l -68.465873,-0.04 c -2.115981,0 -3.874159,-1.4929 -3.874159,-1.4929 0,0 -1.620163,-1.2165 -1.620163,-3.5457 v -56.01651 c 0,-2.61614 1.77916,-4.29462 4.886948,-4.26047 l 24.066557,-0.0121 11.47627,10.23088 c 0.34679,0.3129 0.79077,0.759 1.25317,0.769 l 33.37023,-0.012 c 1.7015,-0.01 1.64773,-2.3444 -0.0538,-2.3717 h -32.61346 l -12.1651,-10.53119 c -0.35109,-0.30157 -0.79464,-0.46748 -1.25318,-0.46875 z m 38.818274,2.90625 c -1.55276,-0.004 -1.55586,2.67092 0.0388,2.69371 l 29.7626,-0.0408 c 3.0158,-0.004 4.32232,0.97316 5.32647,1.90993 1.00416,0.93677 2.53008,3.23017 2.53008,5.59337 v 54.9375 c 0.009,1.8591 2.19838,1.9203 2.20491,0.064 l -0.006,-55.0018 c -3.1e-4,-3.21041 -1.04994,-5.89832 -2.9343,-7.65623 -1.88434,-1.75791 -4.44981,-2.5 -7.12177,-2.5 h -29.61804 c -0.0611,-0.003 -0.12228,-0.003 -0.18339,0 z"
         id="path2-3"
         sodipodi:nodetypes="sssssccscsssccccccccsccsssccssscc" />
    </g>
    <path
       style="fill:url(#linearGradient926);fill-opacity:1;stroke-width:0.0122847"
       id="path2-3-3"
       d="m 405.56091,534.8105 c -0.023,0.0981 -0.073,0.18502 -0.15795,0.23963 -0.13369,0.0857 -0.29659,0.0608 -0.41203,-0.0434 -0.10817,-0.0968 -0.14463,-0.26078 -0.11056,-0.40234 0.0355,-0.1477 0.14704,-0.27812 0.29042,-0.31904 0.31963,-0.0908 0.45213,0.26448 0.39012,0.52516 z m -0.19564,-1.00827 c -0.19809,-0.0805 -0.13007,-1.14237 0.0506,-2.43125 0.0506,-0.36009 0.13851,-0.53022 0.23697,-0.61712 0.14101,-0.12296 0.39743,-0.12791 0.57124,-0.10184 0.19932,0.0302 0.3901,0.12416 0.53475,0.26695 0.12758,0.12669 0.14219,0.25579 0.0985,0.42343 -0.0717,0.267 -0.1945,0.52279 -0.31236,0.77237 -0.0279,0.0608 -0.27221,0.53392 -0.30504,0.59233 -0.58944,1.06036 -0.70733,1.16347 -0.87508,1.09513 z" />
    <path
       style="fill:url(#linearGradient928);fill-opacity:1;stroke-width:0.0122847"
       id="path4"
       d="m 401.36678,533.32421 c 0.11668,0.50906 0.10452,1.06782 0.008,1.47014 -0.0936,0.37999 -0.34761,0.72025 -0.75113,0.83446 -0.35364,0.10056 -0.76566,0.0276 -1.01842,-0.22104 -0.41568,-0.40725 -0.65872,-1.36338 -0.55058,-2.05748 0.0876,-0.55756 0.38162,-1.27156 1.02695,-1.30257 0.0415,-0.004 0.0825,-0.002 0.12399,0.004 0.6575,0.0608 1.01605,0.62709 1.16431,1.27404 z m -1.18868,1.15851 c 0.0366,0.01 0.0731,0.01 0.10944,-0.008 0.12278,-0.0363 0.19327,-0.16644 0.22606,-0.29306 0.0499,-0.19246 0.0423,-0.39984 -0.0218,-0.58858 -0.0328,-0.0956 -0.0814,-0.18876 -0.15556,-0.2583 -0.26128,-0.2446 -0.52261,0.0102 -0.56754,0.29926 -0.0355,0.22601 0.0155,0.48801 0.15429,0.67054 0.0647,0.0845 0.15683,0.15768 0.2552,0.17507 z" />
    <path
       style="fill:url(#linearGradient930);fill-opacity:1;stroke-width:0.0122847"
       id="path6"
       d="m 402.78991,534.40323 c -0.002,0.94004 0.0913,1.65891 -0.31356,1.74458 -0.3281,0.0682 -0.31722,-0.22596 -0.34271,-0.47304 -0.0973,-0.95741 -0.18598,-2.54802 -0.22364,-3.51032 0.0271,-0.41344 0.29778,-0.66684 0.57969,-0.7289 0.43515,-0.0956 0.89943,-0.0681 1.28469,0.17506 0.76203,0.4818 0.82278,1.36587 0.36097,2.08734 -0.25282,0.39362 -1.01725,0.6792 -1.34544,0.65441 z m 0.0973,-2.10719 c -0.0475,0.01 -0.1252,0.0302 -0.14707,0.0769 -0.0523,0.1105 -0.0483,0.81204 0.0421,1.10632 0.0147,0.0483 0.0477,0.0944 0.0948,0.11179 0.17253,0.0649 0.32814,-0.15148 0.39863,-0.28187 0.0984,-0.18133 0.13002,-0.39486 0.0679,-0.59351 -0.0584,-0.18503 -0.23934,-0.45323 -0.45688,-0.41974 z" />
    <path
       style="fill:url(#linearGradient932);fill-opacity:1;stroke-width:0.0122847"
       id="path8"
       d="m 398.43168,532.76294 c -0.28556,0.61712 -0.75953,1.10763 -1.41582,1.34972 0.18831,0.50289 0.38036,0.9996 0.56757,1.50122 0.10445,0.27073 0.20416,0.56746 0.113,0.83445 -0.0948,0.27318 -0.46424,0.34895 -0.73287,0.0588 -0.51653,-0.5613 -2.26301,-4.11751 -2.39182,-4.3845 -0.10932,-0.22969 -0.27342,-0.4756 -0.26852,-0.74125 0.01,-0.39991 0.61367,-0.80468 0.90422,-1.01208 0.40588,-0.28927 0.87502,-0.48665 1.37695,-0.48794 0.39131,0 0.72557,0.10924 1.02208,0.30297 0.45459,0.298 0.77054,0.77363 0.88725,1.3113 0.1021,0.47305 0.08,0.95729 -0.0623,1.26772 m -1.33088,-0.67546 c -0.10202,-0.37878 -0.33299,-0.72768 -0.62345,-0.97227 -0.063,-0.0538 -0.13128,-0.10304 -0.21023,-0.13039 -0.54454,-0.18252 -0.30876,0.74753 -0.22003,0.98221 0.12273,0.32904 0.30876,0.74504 0.55786,0.99332 0.0546,0.0544 0.11907,0.1031 0.19323,0.11801 0.11302,0.0237 0.21756,-0.057 0.27467,-0.15149 0.0478,-0.0782 0.0654,-0.17133 0.0767,-0.26206 0.0209,-0.19242 0.004,-0.38859 -0.0485,-0.57733 z" />
    <path
       style="fill:url(#linearGradient934);fill-opacity:1;stroke-width:0.0122847"
       id="path10"
       d="m 404.94276,537.4898 c -0.004,0.54506 -0.32814,1.09018 -1.0464,1.09018 -0.71827,0 -1.05257,-0.53643 -1.05257,-1.08401 0,-0.68294 0.46549,-1.10514 1.06715,-1.10514 0.69761,0.01 1.03791,0.53524 1.03182,1.09897 z m -1.03182,-0.755 c -0.45092,0 -0.70373,0.32036 -0.70614,0.75742 0,0.37999 0.20783,0.73637 0.69762,0.73637 0.48977,0 0.67697,-0.38617 0.67697,-0.74008 0.01,-0.36755 -0.18475,-0.74502 -0.66845,-0.75371 z m 1.33318,1.56583 c 0,0.0806 0.004,-0.38369 0,-0.45447 h 0.33059 l 0.0231,0.28431 c 0.10815,0.0634 0.27586,0.11051 0.41323,0.11051 0.2552,0 0.52139,-0.0655 0.52139,-0.32034 -0.01,-0.23095 -0.3051,-0.27817 -0.54452,-0.30294 -0.40715,-0.0421 -0.73525,-0.1441 -0.73525,-0.61095 0,-0.41593 0.46058,-0.62334 0.8033,-0.62334 0.2759,-0.01 0.47156,0.0388 0.72072,0.24215 0,0.16762 -0.004,0.26693 -0.004,0.43455 h -0.31955 l -0.0209,-0.27563 c -0.12881,-0.0634 -0.26128,-0.0807 -0.36335,-0.0782 -0.22002,0.004 -0.45455,0.10804 -0.45455,0.29674 0,0.18502 0.1519,0.23602 0.42171,0.27567 0.43998,0.0593 0.86415,0.16144 0.86415,0.64073 -0.004,0.52398 -0.48372,0.66183 -0.89695,0.66183 -0.3148,0.002 -0.51164,-0.0586 -0.76082,-0.28058 z"
       inkscape:connector-curvature="0" />
    <path
       style="fill:url(#linearGradient936);fill-opacity:1;stroke-width:0.0122847"
       id="path12"
       d="m 402.39783,538.40119 c 0,0.0956 -0.0755,0.17261 -0.16893,0.17261 h -1.95309 c -0.0936,0 -0.16893,-0.0769 -0.16893,-0.17261 v -0.0151 c 0,-0.0956 0.0755,-0.17261 0.16893,-0.17261 h 1.95309 c 0.0936,0 0.16893,0.0769 0.16893,0.17261 z"
       inkscape:connector-curvature="0" />
  </g>
</svg>
