<?xml version="1.0" encoding="UTF-8" standalone="no"?>
<svg
   xmlns:dc="http://purl.org/dc/elements/1.1/"
   xmlns:cc="http://creativecommons.org/ns#"
   xmlns:rdf="http://www.w3.org/1999/02/22-rdf-syntax-ns#"
   xmlns:svg="http://www.w3.org/2000/svg"
   xmlns="http://www.w3.org/2000/svg"
   xmlns:xlink="http://www.w3.org/1999/xlink"
   xmlns:sodipodi="http://sodipodi.sourceforge.net/DTD/sodipodi-0.dtd"
   xmlns:inkscape="http://www.inkscape.org/namespaces/inkscape"
   width="32"
   version="1.1"
   height="32"
   viewBox="0 0 32 32"
   id="svg18"
   sodipodi:docname="folder-image-people.svg"
   inkscape:version="1.0.1 (3bc2e813f5, 2020-09-07)">
  <sodipodi:namedview
     pagecolor="#ffffff"
     bordercolor="#666666"
     borderopacity="1"
     objecttolerance="10"
     gridtolerance="10"
     guidetolerance="10"
     inkscape:pageopacity="0"
     inkscape:pageshadow="2"
     inkscape:window-width="1920"
     inkscape:window-height="1016"
     id="namedview20"
     showgrid="false"
     inkscape:zoom="9.8125"
     inkscape:cx="-26.71406"
     inkscape:cy="6.0653119"
     inkscape:window-x="0"
     inkscape:window-y="0"
     inkscape:window-maximized="1"
     inkscape:current-layer="layer1" />
  <defs
     id="defs5455">
    <linearGradient
       inkscape:collect="always"
       xlink:href="#linearGradient934"
       id="linearGradient902"
       x1="5"
       y1="49.9995"
       x2="94.999001"
       y2="49.9995"
       gradientUnits="userSpaceOnUse" />
    <linearGradient
       inkscape:collect="always"
       id="linearGradient934">
      <stop
         style="stop-color:#ffcc00;stop-opacity:1"
         offset="0"
         id="stop930" />
      <stop
         style="stop-color:#00ffff;stop-opacity:1"
         offset="1"
         id="stop932" />
    </linearGradient>
    <linearGradient
       inkscape:collect="always"
       xlink:href="#linearGradient853"
       id="linearGradient963"
       gradientUnits="userSpaceOnUse"
       x1="5"
       y1="49.9995"
       x2="94.999001"
       y2="49.9995" />
    <linearGradient
       inkscape:collect="always"
       id="linearGradient853">
      <stop
         style="stop-color:#008080;stop-opacity:1"
         offset="0"
         id="stop849" />
      <stop
         style="stop-color:#00e5e5;stop-opacity:1"
         offset="1"
         id="stop851" />
    </linearGradient>
    <linearGradient
       inkscape:collect="always"
       xlink:href="#linearGradient853"
       id="linearGradient854"
       gradientUnits="userSpaceOnUse"
       gradientTransform="matrix(0.35225205,0,0,0.37136042,382.95787,513.23225)"
       x1="6"
       y1="50.000134"
       x2="94.005508"
       y2="50.000134" />
    <linearGradient
       inkscape:collect="always"
       xlink:href="#linearGradient853"
       id="linearGradient894"
       gradientUnits="userSpaceOnUse"
       x1="5"
       y1="49.9995"
       x2="94.999001"
       y2="49.9995" />
    <linearGradient
       inkscape:collect="always"
       xlink:href="#linearGradient853"
       id="linearGradient896"
       gradientUnits="userSpaceOnUse"
       x1="5"
       y1="49.9995"
       x2="94.999001"
       y2="49.9995" />
    <linearGradient
       inkscape:collect="always"
       xlink:href="#linearGradient853"
       id="linearGradient898"
       gradientUnits="userSpaceOnUse"
       x1="5"
       y1="49.9995"
       x2="94.999001"
       y2="49.9995" />
  </defs>
  <metadata
     id="metadata5458">
    <rdf:RDF>
      <cc:Work
         rdf:about="">
        <dc:format>image/svg+xml</dc:format>
        <dc:type
           rdf:resource="http://purl.org/dc/dcmitype/StillImage" />
      </cc:Work>
    </rdf:RDF>
  </metadata>
  <g
     inkscape:label="Capa 1"
     inkscape:groupmode="layer"
     id="layer1"
     transform="translate(-384.57143,-515.798)">
    <g
       id="g10"
       transform="matrix(0.15884217,0,0,0.16379111,392.71065,524.75378)"
       style="fill:url(#linearGradient902);fill-opacity:1">
      <path
         d="m 82.221,52.379 c -0.059,2.565 -3.859,4.637 -8.545,4.637 -4.686,0 -8.487,-2.071 -8.543,-4.637 -2.431,0.222 -4.681,0.295 -6.595,0.839 3.706,3.392 5.365,8.91 5.365,17.861 0,0.939 -0.066,1.825 -0.186,2.668 0.154,0.001 0.309,0.001 0.464,0.001 0.729,0 1.481,-0.005 2.246,-0.005 h 14.498 c 0.762,0 1.514,0.005 2.245,0.005 6.707,0 11.829,-0.345 11.829,-7.353 C 95,52.379 89.386,53.032 82.221,52.379 Z"
         id="path2-3"
         style="fill:url(#linearGradient894);fill-opacity:1" />
      <path
         d="m 73.677,54.217 c 6.483,0 11.736,-9.748 11.736,-16.228 0,-6.482 -5.253,-11.737 -11.736,-11.737 -6.481,0 -11.736,5.255 -11.736,11.737 -0.001,6.481 5.255,16.228 11.736,16.228 z"
         id="path4"
         style="fill:url(#linearGradient896);fill-opacity:1" />
      <path
         d="m 59.832,71.079 c 0,-18.021 -7.22,-17.181 -16.432,-18.021 -0.075,3.299 -4.962,5.961 -10.986,5.961 -6.023,0 -10.912,-2.662 -10.983,-5.961 C 12.216,53.9 5,53.059 5,71.079 c 0,9.011 6.585,9.454 15.208,9.454 0.939,0 1.905,-0.006 2.889,-0.006 h 18.639 c 0.98,0 1.947,0.006 2.888,0.006 8.62,0 15.208,-0.442 15.208,-9.454 z"
         id="path6"
         style="fill:url(#linearGradient898);fill-opacity:1" />
      <path
         d="m 25.49,52.49 c 0.865,0.75 1.778,1.382 2.73,1.866 1.333,0.676 2.739,1.065 4.195,1.065 1.458,0 2.866,-0.391 4.2,-1.068 0.951,-0.482 1.862,-1.113 2.726,-1.862 1.167,-1.014 2.249,-2.236 3.213,-3.598 3.042,-4.29 4.951,-9.907 4.951,-14.336 0,-8.334 -6.754,-15.091 -15.09,-15.091 -8.334,0 -15.089,6.756 -15.089,15.091 0,4.43 1.91,10.046 4.951,14.336 0.965,1.361 2.045,2.584 3.213,3.597 z"
         id="path8"
         style="fill:url(#linearGradient963);fill-opacity:1" />
    </g>
    <path
       style="color:#000000;font-style:normal;font-variant:normal;font-weight:normal;font-stretch:normal;font-size:medium;line-height:normal;font-family:Sans;-inkscape-font-specification:Sans;text-indent:0;text-align:start;text-decoration:none;text-decoration-line:none;letter-spacing:normal;word-spacing:normal;text-transform:none;writing-mode:lr-tb;direction:ltr;baseline-shift:baseline;text-anchor:start;display:inline;overflow:visible;visibility:visible;opacity:1;fill:url(#linearGradient854);fill-opacity:1;fill-rule:nonzero;stroke:none;stroke-width:1.44682;marker:none;enable-background:accumulate"
       d="m 387.73529,518.80275 c -1.43648,0 -2.66386,1.062 -2.66386,2.4718 v 20.80235 c 0,0.87825 0.30131,1.44252 0.88615,1.95452 0.58484,0.51204 1.19179,0.76647 1.96627,0.76647 h 24.62311 c 0.59112,0.0113 0.57433,-0.82616 1.8e-4,-0.83513 l -24.65739,-0.0142 c -0.76203,0 -1.39513,-0.55444 -1.39513,-0.55444 0,0 -0.58352,-0.45172 -0.58352,-1.31674 v -20.80239 c 0,-0.97158 0.64075,-1.59486 1.76005,-1.58223 l 8.66721,-0.007 4.1331,3.79936 c 0.12485,0.11622 0.28477,0.28192 0.45131,0.28562 l 12.018,-0.007 c 0.61274,-0.005 0.59335,-0.87064 -0.0186,-0.88077 h -11.74534 l -4.38115,-3.91095 c -0.12646,-0.11198 -0.2862,-0.17353 -0.45134,-0.17402 z m 13.9801,1.07918 c -0.55926,-0.003 -0.5604,0.99192 0.0138,1.00039 l 10.71866,-0.015 c 1.08615,-0.003 1.55672,0.3614 1.9183,0.70929 0.36173,0.34787 0.91125,1.19951 0.91125,2.07714 v 20.40162 c 0.005,0.69036 0.79176,0.7131 0.79407,0.0231 l -0.003,-20.42552 c -1.1e-4,-1.19225 -0.37814,-2.19044 -1.05677,-2.84325 -0.67867,-0.6528 -1.60256,-0.92838 -2.56489,-0.92838 h -10.66676 c -0.0212,-0.002 -0.0441,-0.002 -0.0659,0 z"
       id="path2-3-3"
       sodipodi:nodetypes="sssssccscsssccccccccsccsssccssscc" />
  </g>
</svg>
