<?xml version="1.0" encoding="UTF-8" standalone="no"?>
<svg
   xmlns:dc="http://purl.org/dc/elements/1.1/"
   xmlns:cc="http://creativecommons.org/ns#"
   xmlns:rdf="http://www.w3.org/1999/02/22-rdf-syntax-ns#"
   xmlns:svg="http://www.w3.org/2000/svg"
   xmlns="http://www.w3.org/2000/svg"
   xmlns:xlink="http://www.w3.org/1999/xlink"
   xmlns:sodipodi="http://sodipodi.sourceforge.net/DTD/sodipodi-0.dtd"
   xmlns:inkscape="http://www.inkscape.org/namespaces/inkscape"
   width="32"
   version="1.1"
   height="32"
   viewBox="0 0 32 32"
   id="svg17"
   sodipodi:docname="folder-publicshare.svg"
   inkscape:version="1.0.1 (3bc2e813f5, 2020-09-07)">
  <sodipodi:namedview
     pagecolor="#ffffff"
     bordercolor="#666666"
     borderopacity="1"
     objecttolerance="10"
     gridtolerance="10"
     guidetolerance="10"
     inkscape:pageopacity="0"
     inkscape:pageshadow="2"
     inkscape:window-width="1920"
     inkscape:window-height="1016"
     id="namedview19"
     showgrid="false"
     inkscape:zoom="9.8125"
     inkscape:cx="-13.523095"
     inkscape:cy="4.7444321"
     inkscape:window-x="0"
     inkscape:window-y="0"
     inkscape:window-maximized="1"
     inkscape:current-layer="layer1" />
  <defs
     id="defs5455">
    <linearGradient
       inkscape:collect="always"
       xlink:href="#linearGradient853"
       id="linearGradient890"
       x1="406.57678"
       y1="519.45715"
       x2="425.97177"
       y2="519.45715"
       gradientUnits="userSpaceOnUse"
       gradientTransform="matrix(0.48500071,0,0,0.50010466,198.55392,273.85257)" />
    <linearGradient
       inkscape:collect="always"
       id="linearGradient853">
      <stop
         style="stop-color:#008080;stop-opacity:1"
         offset="0"
         id="stop849" />
      <stop
         style="stop-color:#00e5e5;stop-opacity:1"
         offset="1"
         id="stop851" />
    </linearGradient>
    <linearGradient
       inkscape:collect="always"
       xlink:href="#linearGradient853"
       id="linearGradient854"
       gradientUnits="userSpaceOnUse"
       gradientTransform="matrix(0.35225203,0,0,0.37135522,382.95784,513.23268)"
       x1="6"
       y1="50.000134"
       x2="94.005508"
       y2="50.000134" />
  </defs>
  <metadata
     id="metadata5458">
    <rdf:RDF>
      <cc:Work
         rdf:about="">
        <dc:format>image/svg+xml</dc:format>
        <dc:type
           rdf:resource="http://purl.org/dc/dcmitype/StillImage" />
      </cc:Work>
    </rdf:RDF>
  </metadata>
  <g
     inkscape:label="Capa 1"
     inkscape:groupmode="layer"
     id="layer1"
     transform="translate(-384.57143,-515.798)">
    <path
       d="m 397.20213,532.71589 a 0.74158855,0.76468316 0 1 1 0.74162,-0.76469 0.74158855,0.76468316 0 0 1 -0.74162,0.76469 z m 0.98786,0.68236 a 0.60436554,0.62318672 0 0 0 -0.50123,-0.47466 0.15668728,0.16156685 0 0 0 -0.12357,0.0368 l -0.19462,0.17463 a 0.25303541,0.26091546 0 0 1 -0.32902,0 l -0.19461,-0.17465 a 0.15668728,0.16156685 0 0 0 -0.1236,-0.0368 0.6033918,0.62218267 0 0 0 -0.50024,0.47467 l -0.47493,2.06027 a 0.25692821,0.2649295 0 0 0 0.22001,0.31002 0.23941048,0.24686621 0 0 0 0.0975,-0.0102 l -0.21991,0.95737 a 0.164473,0.16959505 0 0 0 0.16063,0.2007 h 0.65883 l 0.12939,1.49124 a 0.24330328,0.25088027 0 0 0 0.24138,0.2228 h 0.33188 a 0.24330328,0.25088027 0 0 0 0.24132,-0.2228 l 0.12947,-1.49124 h 0.65885 a 0.164473,0.16959505 0 0 0 0.1606,-0.2007 l -0.22189,-0.95733 a 0.23941048,0.24686621 0 0 0 0.0975,0.0102 0.25692821,0.2649295 0 0 0 0.22,-0.31002 z m 6.2499,-1.44808 a 0.74158855,0.76468316 0 1 0 -0.74158,0.76469 0.74158855,0.76468316 0 0 0 0.74158,-0.76469 z m 0.24629,1.44808 a 0.60436554,0.62318672 0 0 0 -0.50127,-0.47466 0.15668728,0.16156685 0 0 0 -0.12359,0.0368 l -0.19456,0.17463 a 0.25303541,0.26091546 0 0 1 -0.32898,0 l -0.19466,-0.17467 a 0.15668728,0.16156685 0 0 0 -0.12359,-0.0369 0.6033918,0.62218267 0 0 0 -0.50024,0.47458 l -0.47684,2.06034 a 0.25692821,0.2649295 0 0 0 0.21993,0.31004 0.23941048,0.24686621 0 0 0 0.0975,-0.0102 l -0.22287,0.95737 a 0.164473,0.16959505 0 0 0 0.16057,0.2007 h 0.65889 l 0.12943,1.49126 a 0.24330328,0.25088027 0 0 0 0.24234,0.22279 h 0.33186 a 0.24330328,0.25088027 0 0 0 0.24231,-0.22279 l 0.12947,-1.49126 h 0.65889 a 0.164473,0.16959505 0 0 0 0.16057,-0.2007 l -0.22188,-0.95737 a 0.23843725,0.24586267 0 0 0 0.0975,0.0102 0.25692821,0.2649295 0 0 0 0.22001,-0.31004 z m -5.11815,-2.72353 a 0.74158855,0.76468316 0 1 0 -0.74159,0.76467 0.74158855,0.76468316 0 0 0 0.74159,-0.76467 z m 3.24764,0 a 0.74158855,0.76468316 0 1 0 -0.74161,0.76467 0.74158855,0.76468316 0 0 0 0.74161,-0.76467 z m -2.36589,-0.51079 a 0.74158855,0.76468316 0 1 0 -0.74157,-0.76475 0.74158855,0.76468316 0 0 0 0.74157,0.76475 z m 0,2.55093 a 0.74158855,0.76468316 0 1 0 -0.74157,-0.76469 0.74256163,0.76568654 0 0 0 0.74157,0.76572 z m 0.70365,0.20072 h -0.25698 a 0.15668728,0.16156685 0 0 0 -0.083,0.037 l -0.1946,0.17565 a 0.25400859,0.26191896 0 0 1 -0.32896,0 l -0.19464,-0.17565 a 0.15766049,0.16257037 0 0 0 -0.0831,-0.037 h -0.26473 a 0.62772245,0.64727102 0 0 0 -0.62376,0.71952 l 0.18201,1.41497 a 0.53332086,0.54992957 0 0 0 0.34639,0.45357 l 0.30754,2.91028 a 0.24330328,0.25088027 0 0 0 0.24232,0.22269 h 0.48658 a 0.24330328,0.25088027 0 0 0 0.24137,-0.22269 l 0.30661,-2.90423 a 0.53234777,0.54892617 0 0 0 0.35907,-0.4576 l 0.18301,-1.41699 a 0.62772245,0.64727102 0 0 0 -0.62385,-0.71859 z"
       id="path4"
       style="fill:url(#linearGradient890);fill-opacity:1;stroke-width:0.0988327" />
    <path
       style="color:#000000;font-style:normal;font-variant:normal;font-weight:normal;font-stretch:normal;font-size:medium;line-height:normal;font-family:Sans;-inkscape-font-specification:Sans;text-indent:0;text-align:start;text-decoration:none;text-decoration-line:none;letter-spacing:normal;word-spacing:normal;text-transform:none;writing-mode:lr-tb;direction:ltr;baseline-shift:baseline;text-anchor:start;display:inline;overflow:visible;visibility:visible;opacity:1;fill:url(#linearGradient854);fill-opacity:1;fill-rule:nonzero;stroke:none;stroke-width:1.44684;marker:none;enable-background:accumulate"
       d="m 387.73527,518.80309 c -1.43642,0 -2.66384,1.06204 -2.66384,2.4718 v 20.802 c 0,0.87823 0.3013,1.4425 0.88609,1.95448 0.58488,0.51205 1.1918,0.76653 1.96631,0.76653 h 24.62309 c 0.59122,0.0108 0.57436,-0.8262 1.7e-4,-0.83507 l -24.65731,-0.0149 c -0.762,0 -1.39518,-0.55439 -1.39518,-0.55439 0,0 -0.58351,-0.45172 -0.58351,-1.31673 v -20.80196 c 0,-0.97152 0.64071,-1.59486 1.76007,-1.58219 l 8.66722,-0.007 4.13306,3.79932 c 0.12488,0.1162 0.28477,0.28188 0.45129,0.28565 l 12.01801,-0.007 c 0.61281,-0.006 0.5934,-0.87064 -0.019,-0.88081 h -11.74548 l -4.38116,-3.9108 c -0.12645,-0.11191 -0.28617,-0.17359 -0.4513,-0.17402 z m 13.98009,1.07917 c -0.55924,-0.003 -0.56033,0.99195 0.0138,1.00042 l 10.71868,-0.0153 c 1.08617,-0.003 1.55674,0.36138 1.91829,0.70928 0.36171,0.34788 0.91124,1.19951 0.91124,2.07712 v 20.40125 c 0.006,0.69041 0.79171,0.71313 0.79406,0.0235 l -0.004,-20.42517 c -1.1e-4,-1.19224 -0.37811,-2.19041 -1.05675,-2.84322 -0.67869,-0.65278 -1.60254,-0.92836 -2.56489,-0.92836 h -10.66651 c -0.0219,-0.002 -0.0444,-0.002 -0.0663,0 z"
       id="path2-3"
       sodipodi:nodetypes="sssssccscsssccccccccsccsssccssscc" />
  </g>
</svg>
