<?xml version="1.0" encoding="UTF-8" standalone="no"?>
<svg
   xmlns:dc="http://purl.org/dc/elements/1.1/"
   xmlns:cc="http://creativecommons.org/ns#"
   xmlns:rdf="http://www.w3.org/1999/02/22-rdf-syntax-ns#"
   xmlns:svg="http://www.w3.org/2000/svg"
   xmlns="http://www.w3.org/2000/svg"
   xmlns:xlink="http://www.w3.org/1999/xlink"
   xmlns:sodipodi="http://sodipodi.sourceforge.net/DTD/sodipodi-0.dtd"
   xmlns:inkscape="http://www.inkscape.org/namespaces/inkscape"
   width="32"
   version="1.1"
   height="32"
   viewBox="0 0 32 32"
   id="svg17"
   sodipodi:docname="folder-mail.svg"
   inkscape:version="1.0.1 (3bc2e813f5, 2020-09-07)">
  <sodipodi:namedview
     pagecolor="#ffffff"
     bordercolor="#666666"
     borderopacity="1"
     objecttolerance="10"
     gridtolerance="10"
     guidetolerance="10"
     inkscape:pageopacity="0"
     inkscape:pageshadow="2"
     inkscape:window-width="1920"
     inkscape:window-height="1016"
     id="namedview19"
     showgrid="false"
     inkscape:zoom="9.8125"
     inkscape:cx="-23.767533"
     inkscape:cy="1.0907911"
     inkscape:window-x="0"
     inkscape:window-y="0"
     inkscape:window-maximized="1"
     inkscape:current-layer="layer1" />
  <defs
     id="defs5455">
    <linearGradient
       inkscape:collect="always"
       xlink:href="#linearGradient853"
       id="linearGradient903"
       x1="406.24146"
       y1="522.7749"
       x2="425.22531"
       y2="522.7749"
       gradientUnits="userSpaceOnUse"
       gradientTransform="matrix(0.53886943,0,0,0.55566772,176.42889,244.85608)" />
    <linearGradient
       inkscape:collect="always"
       id="linearGradient853">
      <stop
         style="stop-color:#008080;stop-opacity:1"
         offset="0"
         id="stop849" />
      <stop
         style="stop-color:#00e5e5;stop-opacity:1"
         offset="1"
         id="stop851" />
    </linearGradient>
    <linearGradient
       inkscape:collect="always"
       xlink:href="#linearGradient853"
       id="linearGradient905"
       x1="406.242"
       y1="514.64697"
       x2="425.22653"
       y2="514.64697"
       gradientUnits="userSpaceOnUse"
       gradientTransform="matrix(0.53886943,0,0,0.55566772,176.42889,244.85608)" />
    <linearGradient
       inkscape:collect="always"
       xlink:href="#linearGradient853"
       id="linearGradient907"
       x1="412.01132"
       y1="515.8595"
       x2="419.45621"
       y2="515.8595"
       gradientUnits="userSpaceOnUse"
       gradientTransform="matrix(0.62434919,0,0,0.64381216,140.94116,199.77465)" />
    <linearGradient
       inkscape:collect="always"
       xlink:href="#linearGradient853"
       id="linearGradient854"
       gradientUnits="userSpaceOnUse"
       gradientTransform="matrix(0.35224713,0,0,0.37136131,382.95791,513.2322)"
       x1="6"
       y1="50.000134"
       x2="94.005508"
       y2="50.000134" />
  </defs>
  <metadata
     id="metadata5458">
    <rdf:RDF>
      <cc:Work
         rdf:about="">
        <dc:format>image/svg+xml</dc:format>
        <dc:type
           rdf:resource="http://purl.org/dc/dcmitype/StillImage" />
      </cc:Work>
    </rdf:RDF>
  </metadata>
  <g
     inkscape:label="Capa 1"
     inkscape:groupmode="layer"
     id="layer1"
     transform="translate(-384.57143,-515.798)">
    <path
       d="M 400.45484,534.94927 395.34,531.96929 v 5.6219 c 0,0.62405 0.49064,1.13024 1.0961,1.13024 h 8.03764 c 0.60517,0 1.09604,-0.50583 1.09604,-1.13024 v -5.62229 z"
       id="path2-3"
       style="fill:url(#linearGradient903);fill-opacity:1;stroke-width:0.398485" />
    <path
       d="m 396.96469,532.91622 -0.004,-3.35176 c -1.6e-4,-0.1559 0.12285,-0.28241 0.27391,-0.28241 h 6.43975 c 0.15107,0 0.27387,0.12651 0.27387,0.28241 l 0.0118,3.37694 0.79589,-0.49462 0.81385,-0.47788 -1.07352,-0.78829 v -1.61615 c 0,-0.46735 -0.36849,-0.84772 -0.82213,-0.84772 h -2.31938 l -0.81054,-5.3e-4 -0.99005,0.002 h -2.31943 c -0.45325,-3.2e-4 -0.82214,0.37999 -0.82214,0.84736 v 1.61622 l -1.073,0.78872 0.92471,0.55231 z"
       id="path4"
       style="fill:url(#linearGradient905);fill-opacity:1;stroke-width:0.398505"
       sodipodi:nodetypes="cssssccccssccccscccc" />
    <path
       d="m 401.68107,530.79299 c -0.15589,-0.0975 -0.52921,-0.18195 -0.8348,-0.18195 -0.99069,0 -1.58089,0.76236 -1.58089,1.60905 0,0.58046 0.31862,0.93075 0.7734,0.93075 0.34597,0 0.63751,-0.18197 0.83469,-0.51106 h 0.0192 c 0.0557,0.34324 0.27232,0.51106 0.61163,0.51106 0.77338,0 1.32304,-0.65784 1.32304,-1.66537 0,-1.18247 -0.88209,-2.02915 -2.08335,-2.02915 -1.53316,0 -2.56483,1.23861 -2.56483,2.65875 0,1.37845 1.01755,2.21107 2.14426,2.21107 0.49519,0 0.83434,-0.0572 1.2554,-0.23814 0,0 0.27912,-0.10026 0.19091,-0.31922 -0.0879,-0.21899 -0.31278,-0.12804 -0.31278,-0.12804 -0.27188,0.13314 -0.64482,0.20297 -0.97031,0.20297 -1.0112,0 -1.73045,-0.63004 -1.73045,-1.80505 0,-1.30153 0.90202,-2.10652 1.91315,-2.10652 1.04494,0 1.60149,0.69295 1.60149,1.56073 0,0.80457 -0.35285,1.14732 -0.61751,1.13331 -0.1764,-0.006 -0.21088,-0.17492 -0.15677,-0.52464 z m -0.88246,1.07083 c -0.0548,0.39142 -0.27202,0.63673 -0.46802,0.63673 -0.1832,0 -0.27776,-0.14019 -0.27776,-0.38489 0,-0.47598 0.29197,-0.87497 0.67162,-0.87497 0.0552,0 0.10861,0.007 0.15586,0.021 z"
       id="path6"
       style="fill:url(#linearGradient907);fill-opacity:1;stroke-width:0.461707" />
    <path
       style="color:#000000;font-style:normal;font-variant:normal;font-weight:normal;font-stretch:normal;font-size:medium;line-height:normal;font-family:Sans;-inkscape-font-specification:Sans;text-indent:0;text-align:start;text-decoration:none;text-decoration-line:none;letter-spacing:normal;word-spacing:normal;text-transform:none;writing-mode:lr-tb;direction:ltr;baseline-shift:baseline;text-anchor:start;display:inline;overflow:visible;visibility:visible;opacity:1;fill:url(#linearGradient854);fill-opacity:1;fill-rule:nonzero;stroke:none;stroke-width:1.44684;marker:none;enable-background:accumulate"
       d="m 387.73522,518.80263 c -1.43642,0 -2.66379,1.06208 -2.66379,2.47184 v 20.80238 c 0,0.87829 0.3013,1.44256 0.88616,1.95456 0.58485,0.51203 1.19174,0.76648 1.96628,0.76648 h 24.6227 c 0.59111,0.0113 0.57431,-0.82617 1.7e-4,-0.83515 l -24.65704,-0.0142 c -0.76207,0 -1.39514,-0.55445 -1.39514,-0.55445 0,0 -0.58336,-0.45169 -0.58336,-1.31676 v -20.80235 c 0,-0.9716 0.64075,-1.59487 1.75989,-1.58224 l 8.66713,-0.007 4.13302,3.79935 c 0.12488,0.11626 0.28478,0.28194 0.45133,0.28565 l 12.01779,-0.007 c 0.61277,-0.005 0.59334,-0.87062 -0.0187,-0.88074 h -11.74523 l -4.38105,-3.91098 c -0.1265,-0.11197 -0.28614,-0.17353 -0.45132,-0.17402 z m 13.97988,1.07923 c -0.55919,-0.003 -0.56035,0.99192 0.0143,1.00042 l 10.7185,-0.0152 c 1.08614,-0.003 1.5567,0.36138 1.91824,0.70932 0.36175,0.34786 0.91124,1.19951 0.91124,2.07712 v 20.40168 c 0.005,0.69034 0.79177,0.71307 0.79408,0.0231 l -0.004,-20.4256 c -9e-5,-1.19225 -0.37809,-2.19048 -1.05671,-2.84325 -0.67861,-0.65281 -1.6025,-0.92838 -2.56482,-0.92838 h -10.66647 c -0.0213,-0.002 -0.0439,-0.002 -0.0657,0 z"
       id="path2-3-3"
       sodipodi:nodetypes="sssssccscsssccccccccsccsssccssscc" />
  </g>
</svg>
