<?xml version="1.0" encoding="UTF-8" standalone="no"?>
<svg
   xmlns:dc="http://purl.org/dc/elements/1.1/"
   xmlns:cc="http://creativecommons.org/ns#"
   xmlns:rdf="http://www.w3.org/1999/02/22-rdf-syntax-ns#"
   xmlns:svg="http://www.w3.org/2000/svg"
   xmlns="http://www.w3.org/2000/svg"
   xmlns:xlink="http://www.w3.org/1999/xlink"
   xmlns:sodipodi="http://sodipodi.sourceforge.net/DTD/sodipodi-0.dtd"
   xmlns:inkscape="http://www.inkscape.org/namespaces/inkscape"
   width="32"
   version="1.1"
   height="32"
   viewBox="0 0 32 32"
   id="svg15"
   sodipodi:docname="folder-orange.svg"
   inkscape:version="1.0.1 (3bc2e813f5, 2020-09-07)">
  <sodipodi:namedview
     pagecolor="#ffffff"
     bordercolor="#666666"
     borderopacity="1"
     objecttolerance="10"
     gridtolerance="10"
     guidetolerance="10"
     inkscape:pageopacity="0"
     inkscape:pageshadow="2"
     inkscape:window-width="1920"
     inkscape:window-height="1016"
     id="namedview17"
     showgrid="false"
     inkscape:zoom="9.8125"
     inkscape:cx="-13.760871"
     inkscape:cy="3.9967353"
     inkscape:window-x="0"
     inkscape:window-y="0"
     inkscape:window-maximized="1"
     inkscape:current-layer="layer1" />
  <defs
     id="defs5455">
    <linearGradient
       id="linearGradient4172-0">
      <stop
         style="stop-color:#f89406"
         id="stop4174-4" />
      <stop
         offset="1"
         style="stop-color:#faa938"
         id="stop4176-5" />
    </linearGradient>
    <linearGradient
       inkscape:collect="always"
       xlink:href="#linearGradient4172-0"
       id="linearGradient854"
       gradientUnits="userSpaceOnUse"
       gradientTransform="matrix(0.3522545,0,0,0.37138443,382.95788,513.23029)"
       x1="6"
       y1="50.000134"
       x2="94.005508"
       y2="50.000134" />
  </defs>
  <metadata
     id="metadata5458">
    <rdf:RDF>
      <cc:Work
         rdf:about="">
        <dc:format>image/svg+xml</dc:format>
        <dc:type
           rdf:resource="http://purl.org/dc/dcmitype/StillImage" />
      </cc:Work>
    </rdf:RDF>
  </metadata>
  <g
     inkscape:label="Capa 1"
     inkscape:groupmode="layer"
     id="layer1"
     transform="translate(-384.57143,-515.798)">
    <path
       style="color:#000000;font-style:normal;font-variant:normal;font-weight:normal;font-stretch:normal;font-size:medium;line-height:normal;font-family:Sans;-inkscape-font-specification:Sans;text-indent:0;text-align:start;text-decoration:none;text-decoration-line:none;letter-spacing:normal;word-spacing:normal;text-transform:none;writing-mode:lr-tb;direction:ltr;baseline-shift:baseline;text-anchor:start;display:inline;overflow:visible;visibility:visible;opacity:1;fill:url(#linearGradient854);fill-opacity:1;fill-rule:nonzero;stroke:none;stroke-width:1.44679;marker:none;enable-background:accumulate"
       d="m 387.73533,518.80106 c -1.43646,0 -2.6639,1.06211 -2.6639,2.47203 v 20.80368 c 0,0.87829 0.30128,1.44262 0.88615,1.95463 0.58484,0.51203 1.19173,0.76649 1.9663,0.76649 h 24.62324 c 0.59123,0.0109 0.57436,-0.82622 1.3e-4,-0.83512 l -24.65746,-0.0148 c -0.76205,0 -1.39522,-0.55445 -1.39522,-0.55445 0,0 -0.58343,-0.45177 -0.58343,-1.31681 v -20.80363 c 0,-0.97158 0.6407,-1.59493 1.75992,-1.58227 l 8.6674,-0.006 4.13312,3.79964 c 0.12484,0.11612 0.28477,0.28182 0.4513,0.28556 l 12.01801,-0.006 c 0.6128,-0.004 0.59345,-0.87067 -0.019,-0.8808 h -11.74546 l -4.38123,-3.91116 c -0.12639,-0.11195 -0.28616,-0.1736 -0.45129,-0.17405 z m 13.98018,1.07935 c -0.55927,-0.002 -0.5604,0.99192 0.0136,1.0004 l 10.71875,-0.0151 c 1.08619,-0.002 1.55668,0.3614 1.9183,0.70931 0.36169,0.34789 0.91119,1.19965 0.91119,2.0773 v 20.40295 c 0.004,0.69038 0.79176,0.71313 0.79411,0.0234 l -0.002,-20.42682 c -9e-5,-1.19233 -0.37812,-2.19056 -1.05679,-2.84342 -0.67864,-0.65286 -1.60258,-0.92847 -2.56489,-0.92847 h -10.66657 c -0.0217,-0.002 -0.044,-0.002 -0.0661,0 z"
       id="path2-3"
       sodipodi:nodetypes="sssssccscsssccccccccsccsssccssscc" />
  </g>
</svg>
