<?xml version="1.0" encoding="UTF-8" standalone="no"?>
<svg
   xmlns:dc="http://purl.org/dc/elements/1.1/"
   xmlns:cc="http://creativecommons.org/ns#"
   xmlns:rdf="http://www.w3.org/1999/02/22-rdf-syntax-ns#"
   xmlns:svg="http://www.w3.org/2000/svg"
   xmlns="http://www.w3.org/2000/svg"
   xmlns:xlink="http://www.w3.org/1999/xlink"
   xmlns:sodipodi="http://sodipodi.sourceforge.net/DTD/sodipodi-0.dtd"
   xmlns:inkscape="http://www.inkscape.org/namespaces/inkscape"
   width="32"
   version="1.1"
   height="32"
   viewBox="0 0 32 32"
   id="svg15"
   sodipodi:docname="folder-reddit.svg"
   inkscape:version="1.0.1 (3bc2e813f5, 2020-09-07)">
  <sodipodi:namedview
     pagecolor="#ffffff"
     bordercolor="#666666"
     borderopacity="1"
     objecttolerance="10"
     gridtolerance="10"
     guidetolerance="10"
     inkscape:pageopacity="0"
     inkscape:pageshadow="2"
     inkscape:window-width="1920"
     inkscape:window-height="1016"
     id="namedview17"
     showgrid="true"
     inkscape:zoom="9.8125"
     inkscape:cx="-26.308778"
     inkscape:cy="8.6141759"
     inkscape:window-x="0"
     inkscape:window-y="0"
     inkscape:window-maximized="1"
     inkscape:current-layer="layer1"
     inkscape:document-rotation="0">
    <inkscape:grid
       type="xygrid"
       id="grid847" />
  </sodipodi:namedview>
  <defs
     id="defs5455">
    <linearGradient
       inkscape:collect="always"
       xlink:href="#linearGradient836"
       id="linearGradient838"
       x1="6"
       y1="50.000134"
       x2="94.005508"
       y2="50.000134"
       gradientUnits="userSpaceOnUse"
       gradientTransform="matrix(0.9780981,0,0,1,64.250683,974.47294)" />
    <linearGradient
       inkscape:collect="always"
       id="linearGradient836">
      <stop
         style="stop-color:#008080;stop-opacity:1"
         offset="0"
         id="stop832" />
      <stop
         style="stop-color:#00e5e5;stop-opacity:1"
         offset="1"
         id="stop834" />
    </linearGradient>
    <linearGradient
       inkscape:collect="always"
       xlink:href="#linearGradient836"
       id="linearGradient867"
       x1="20.388903"
       y1="41.65657"
       x2="41.60445"
       y2="41.65657"
       gradientUnits="userSpaceOnUse"
       gradientTransform="matrix(0.5555555,0,0,0.5555555,383.2442,510.65545)" />
  </defs>
  <metadata
     id="metadata5458">
    <rdf:RDF>
      <cc:Work
         rdf:about="">
        <dc:format>image/svg+xml</dc:format>
        <dc:type
           rdf:resource="http://purl.org/dc/dcmitype/StillImage" />
      </cc:Work>
    </rdf:RDF>
  </metadata>
  <g
     inkscape:label="Capa 1"
     inkscape:groupmode="layer"
     id="layer1"
     transform="translate(-384.57143,-515.798)">
    <g
       transform="matrix(0.36013848,0,0,0.37142583,359.81878,151.2823)"
       id="g4">
      <path
         style="color:#000000;font-style:normal;font-variant:normal;font-weight:normal;font-stretch:normal;font-size:medium;line-height:normal;font-family:Sans;-inkscape-font-specification:Sans;text-indent:0;text-align:start;text-decoration:none;text-decoration-line:none;letter-spacing:normal;word-spacing:normal;text-transform:none;writing-mode:lr-tb;direction:ltr;baseline-shift:baseline;text-anchor:start;display:inline;overflow:visible;visibility:visible;opacity:1;fill:url(#linearGradient838);fill-opacity:1;fill-rule:nonzero;stroke:none;stroke-width:3.95596;marker:none;enable-background:accumulate"
         d="m 77.516136,989.47294 c -3.988712,0 -7.396866,2.85993 -7.396866,6.65625 v 56.01651 c 0,2.3649 0.836461,3.8844 2.460429,5.2631 1.623967,1.3787 3.30936,2.0641 5.459931,2.0641 h 68.3709 c 1.64145,0.029 1.59477,-2.2249 3.9e-4,-2.2488 l -68.465873,-0.04 c -2.115981,0 -3.874159,-1.4929 -3.874159,-1.4929 0,0 -1.620163,-1.2165 -1.620163,-3.5457 v -56.01651 c 0,-2.61614 1.77916,-4.29462 4.886948,-4.26047 l 24.066557,-0.0121 11.47627,10.23088 c 0.34679,0.3129 0.79077,0.759 1.25317,0.769 l 33.37023,-0.012 c 1.7015,-0.01 1.64773,-2.3444 -0.0538,-2.3717 h -32.61346 l -12.1651,-10.53119 c -0.35109,-0.30157 -0.79464,-0.46748 -1.25318,-0.46875 z m 38.818274,2.90625 c -1.55276,-0.004 -1.55586,2.67092 0.0388,2.69371 l 29.7626,-0.0408 c 3.0158,-0.004 4.32232,0.97316 5.32647,1.90993 1.00416,0.93677 2.53008,3.23017 2.53008,5.59337 v 54.9375 c 0.009,1.8591 2.19838,1.9203 2.20491,0.064 l -0.006,-55.0018 c -3.1e-4,-3.21041 -1.04994,-5.89832 -2.9343,-7.65623 -1.88434,-1.75791 -4.44981,-2.5 -7.12177,-2.5 h -29.61804 c -0.0611,-0.003 -0.12228,-0.003 -0.18339,0 z"
         id="path2-3"
         sodipodi:nodetypes="sssssccscsssccccccccsccsssccssscc" />
    </g>
    <path
       d="m 406.35793,533.5771 c 0,-0.91396 -0.74372,-1.65532 -1.65518,-1.65532 -0.3591,0 -0.7021,0.11512 -0.98532,0.32472 -0.8035,-0.4052 -1.75874,-0.64913 -2.76945,-0.70679 l 0.6608,-1.82542 1.59759,0.39821 c 0.0346,0.656 0.58016,1.17621 1.24317,1.17621 0.68589,0 1.24539,-0.55925 1.24539,-1.24521 0,-0.686 -0.5595,-1.2455 -1.24539,-1.2455 -0.4674,0 -0.87478,0.25774 -1.08886,0.63997 l -2.1894,-0.54783 -0.95302,2.6357 c -1.09805,0.0329 -2.13854,0.28087 -3.00633,0.71596 -0.28321,-0.20935 -0.62398,-0.3223 -0.983,-0.3223 -0.914,0.005 -1.6575,0.746 -1.6575,1.6576 0,0.44642 0.18422,0.87704 0.4995,1.1854 -0.0212,0.13123 -0.0327,0.26492 -0.0327,0.39821 0,1.00152 0.5846,1.93158 1.64353,2.61759 1.01296,0.6582 2.355,1.0197 3.77769,1.0197 1.42276,0 2.76243,-0.3615 3.77762,-1.0197 1.05892,-0.68846 1.64369,-1.61844 1.64369,-2.61759 0,-0.13121 -0.0122,-0.26222 -0.0299,-0.39345 0.31998,-0.30625 0.50657,-0.73897 0.50657,-1.19016 z m -8.48536,0.96674 c 0,-0.53167 0.43266,-0.96448 0.96448,-0.96448 0.53188,0 0.96467,0.43281 0.96467,0.96448 0,0.5317 -0.43279,0.96466 -0.96467,0.96466 -0.53182,0 -0.96448,-0.43296 -0.96448,-0.96466 z m 2.65429,3.05261 c -0.74818,0 -1.47793,-0.21195 -2.10872,-0.61233 l 0.37066,-0.58257 c 0.52013,0.33162 1.12332,0.5066 1.74024,0.5066 0.61695,0 1.21789,-0.17498 1.74033,-0.5066 l 0.3706,0.58257 c -0.63525,0.40038 -1.36504,0.61233 -2.11311,0.61233 z m 1.71028,-2.08795 c -0.53177,0 -0.96442,-0.43296 -0.96442,-0.96466 0,-0.53167 0.43265,-0.96448 0.96442,-0.96448 0.53179,0 0.96462,0.43281 0.96462,0.96448 0,0.5317 -0.43283,0.96466 -0.96462,0.96466 z m 0,0"
       id="path2-3-3"
       style="fill:url(#linearGradient867);fill-opacity:1;stroke-width:0.0230207" />
  </g>
</svg>
