<?xml version="1.0" encoding="UTF-8" standalone="no"?>
<svg
   xmlns:dc="http://purl.org/dc/elements/1.1/"
   xmlns:cc="http://creativecommons.org/ns#"
   xmlns:rdf="http://www.w3.org/1999/02/22-rdf-syntax-ns#"
   xmlns:svg="http://www.w3.org/2000/svg"
   xmlns="http://www.w3.org/2000/svg"
   xmlns:xlink="http://www.w3.org/1999/xlink"
   xmlns:sodipodi="http://sodipodi.sourceforge.net/DTD/sodipodi-0.dtd"
   xmlns:inkscape="http://www.inkscape.org/namespaces/inkscape"
   width="32"
   version="1.1"
   height="32"
   viewBox="0 0 32 32"
   id="svg15"
   sodipodi:docname="folder-violet.svg"
   inkscape:version="1.0.1 (3bc2e813f5, 2020-09-07)">
  <sodipodi:namedview
     pagecolor="#ffffff"
     bordercolor="#666666"
     borderopacity="1"
     objecttolerance="10"
     gridtolerance="10"
     guidetolerance="10"
     inkscape:pageopacity="0"
     inkscape:pageshadow="2"
     inkscape:window-width="1920"
     inkscape:window-height="1016"
     id="namedview17"
     showgrid="false"
     inkscape:zoom="9.8125"
     inkscape:cx="-24.14857"
     inkscape:cy="3.8820324"
     inkscape:window-x="0"
     inkscape:window-y="0"
     inkscape:window-maximized="1"
     inkscape:current-layer="layer1" />
  <defs
     id="defs5455">
    <linearGradient
       id="linearGradient4194">
      <stop
         style="stop-color:#8e44ad"
         id="stop4196" />
      <stop
         offset="1"
         style="stop-color:#9d52bd"
         id="stop4198" />
    </linearGradient>
    <linearGradient
       inkscape:collect="always"
       xlink:href="#linearGradient4194"
       id="linearGradient854"
       gradientUnits="userSpaceOnUse"
       gradientTransform="matrix(0.35225496,0,0,0.37138582,382.95794,513.23021)"
       x1="6"
       y1="50.000134"
       x2="94.005508"
       y2="50.000134" />
  </defs>
  <metadata
     id="metadata5458">
    <rdf:RDF>
      <cc:Work
         rdf:about="">
        <dc:format>image/svg+xml</dc:format>
        <dc:type
           rdf:resource="http://purl.org/dc/dcmitype/StillImage" />
      </cc:Work>
    </rdf:RDF>
  </metadata>
  <g
     inkscape:label="Capa 1"
     inkscape:groupmode="layer"
     id="layer1"
     transform="translate(-384.57143,-515.798)">
    <path
       style="color:#000000;font-style:normal;font-variant:normal;font-weight:normal;font-stretch:normal;font-size:medium;line-height:normal;font-family:Sans;-inkscape-font-specification:Sans;text-indent:0;text-align:start;text-decoration:none;text-decoration-line:none;letter-spacing:normal;word-spacing:normal;text-transform:none;writing-mode:lr-tb;direction:ltr;baseline-shift:baseline;text-anchor:start;display:inline;overflow:visible;visibility:visible;opacity:1;fill:url(#linearGradient854);fill-opacity:1;fill-rule:nonzero;stroke:none;stroke-width:1.44681;marker:none;enable-background:accumulate"
       d="m 387.73537,518.80097 c -1.43652,0 -2.66394,1.06211 -2.66394,2.47203 v 20.80376 c 0,0.87829 0.3013,1.44262 0.88615,1.95463 0.58483,0.51204 1.19178,0.7665 1.96637,0.7665 h 24.62324 c 0.59115,0.0109 0.57437,-0.82623 1.3e-4,-0.83512 l -24.65747,-0.0147 c -0.76208,0 -1.39527,-0.55444 -1.39527,-0.55444 0,0 -0.58343,-0.45178 -0.58343,-1.31682 v -20.80377 c 0,-0.97158 0.64065,-1.59493 1.75988,-1.58226 l 8.66739,-0.006 4.13313,3.79964 c 0.12491,0.11614 0.28479,0.28183 0.45138,0.2856 l 12.01802,-0.006 c 0.61273,-0.004 0.5934,-0.87067 -0.0192,-0.8808 h -11.74559 l -4.38125,-3.91117 c -0.12635,-0.11195 -0.28615,-0.17361 -0.45128,-0.17405 z m 13.98014,1.07936 c -0.55928,-0.002 -0.56036,0.99192 0.0136,1.00039 l 10.71878,-0.0152 c 1.08614,-0.002 1.55663,0.3614 1.91824,0.70931 0.3616,0.3479 0.9112,1.19965 0.9112,2.0773 v 20.40305 c 0.004,0.69038 0.79173,0.71315 0.7941,0.0234 l -0.003,-20.4269 c -1.3e-4,-1.1923 -0.37814,-2.19057 -1.05674,-2.84341 -0.67868,-0.65285 -1.60256,-0.92846 -2.56491,-0.92846 h -10.66676 c -0.0221,-0.002 -0.0444,-0.002 -0.0663,0 z"
       id="path2-3"
       sodipodi:nodetypes="sssssccscsssccccccccsccsssccssscc" />
  </g>
</svg>
