<?xml version="1.0" encoding="UTF-8" standalone="no"?>
<svg
   xmlns:dc="http://purl.org/dc/elements/1.1/"
   xmlns:cc="http://creativecommons.org/ns#"
   xmlns:rdf="http://www.w3.org/1999/02/22-rdf-syntax-ns#"
   xmlns:svg="http://www.w3.org/2000/svg"
   xmlns="http://www.w3.org/2000/svg"
   xmlns:xlink="http://www.w3.org/1999/xlink"
   xmlns:sodipodi="http://sodipodi.sourceforge.net/DTD/sodipodi-0.dtd"
   xmlns:inkscape="http://www.inkscape.org/namespaces/inkscape"
   id="svg2"
   viewBox="0 0 32 32"
   height="32"
   version="1.1"
   width="32"
   sodipodi:docname="folder-unlocked.svg"
   inkscape:version="1.0.1 (3bc2e813f5, 2020-09-07)">
  <sodipodi:namedview
     pagecolor="#ffffff"
     bordercolor="#666666"
     borderopacity="1"
     objecttolerance="10"
     gridtolerance="10"
     guidetolerance="10"
     inkscape:pageopacity="0"
     inkscape:pageshadow="2"
     inkscape:window-width="1920"
     inkscape:window-height="1016"
     id="namedview18"
     showgrid="false"
     inkscape:zoom="9.8125"
     inkscape:cx="-24.252492"
     inkscape:cy="2.5106203"
     inkscape:window-x="0"
     inkscape:window-y="0"
     inkscape:window-maximized="1"
     inkscape:current-layer="svg2" />
  <defs
     id="defs5455">
    <linearGradient
       id="linearGradient4172-5">
      <stop
         id="stop4174-6"
         style="stop-color:#3daee9" />
      <stop
         id="stop4176-6"
         style="stop-color:#6cc1ef"
         offset="1" />
    </linearGradient>
    <linearGradient
       x2="0"
       gradientUnits="userSpaceOnUse"
       y2="8"
       y1="29"
       xlink:href="#linearGradient4172-5"
       id="linearGradient4342" />
    <linearGradient
       inkscape:collect="always"
       xlink:href="#linearGradient853"
       id="linearGradient890"
       x1="23.999212"
       y1="35.422577"
       x2="38.999214"
       y2="35.422577"
       gradientUnits="userSpaceOnUse"
       gradientTransform="matrix(0.48499971,0,0,0.50020155,0.50001454,-0.001305)" />
    <linearGradient
       inkscape:collect="always"
       id="linearGradient853">
      <stop
         style="stop-color:#008080;stop-opacity:1"
         offset="0"
         id="stop849" />
      <stop
         style="stop-color:#00e5e5;stop-opacity:1"
         offset="1"
         id="stop851" />
    </linearGradient>
    <linearGradient
       inkscape:collect="always"
       xlink:href="#linearGradient853"
       id="linearGradient854"
       gradientUnits="userSpaceOnUse"
       gradientTransform="matrix(0.35225123,0,0,0.37142717,-1.6134887,-2.571398)"
       x1="6"
       y1="50.000134"
       x2="94.005508"
       y2="50.000134" />
  </defs>
  <metadata
     id="metadata5458">
    <rdf:RDF>
      <cc:Work
         rdf:about="">
        <dc:format>image/svg+xml</dc:format>
        <dc:type
           rdf:resource="http://purl.org/dc/dcmitype/StillImage" />
        <dc:title />
      </cc:Work>
    </rdf:RDF>
  </metadata>
  <path
     d="m 18.20211,16.893866 v -1.615238 c 0,-1.375556 -1.091249,-2.563532 -2.424998,-2.563532 -1.323646,0 -2.404785,1.104613 -2.425,2.459329 0,0.239679 0.16167,0.448097 0.394066,0.458516 0.232397,0.01043 0.424373,-0.187577 0.424373,-0.416833 0,-0.948299 0.767915,-1.709025 1.697504,-1.667341 0.868961,0.0417 1.53583,0.812829 1.53583,1.698599 v 1.6465 h -4.253864 c -0.555716,0 -1.010415,0.468939 -1.010415,1.042087 v 3.741091 c 0,0.57315 0.454699,1.042088 1.010415,1.042088 h 5.254173 c 0.555733,0 1.010423,-0.468938 1.010423,-1.042088 v -3.741091 c 0,-0.573148 -0.45469,-1.042087 -1.010423,-1.042087 z"
     id="path2-3"
     style="fill:url(#linearGradient890);fill-opacity:1;stroke-width:0.102609" />
  <path
     style="color:#000000;font-style:normal;font-variant:normal;font-weight:normal;font-stretch:normal;font-size:medium;line-height:normal;font-family:Sans;-inkscape-font-specification:Sans;text-indent:0;text-align:start;text-decoration:none;text-decoration-line:none;letter-spacing:normal;word-spacing:normal;text-transform:none;writing-mode:lr-tb;direction:ltr;baseline-shift:baseline;text-anchor:start;display:inline;overflow:visible;visibility:visible;opacity:1;fill:url(#linearGradient854);fill-opacity:1;fill-rule:nonzero;stroke:none;stroke-width:1.44689;marker:none;enable-background:accumulate"
     d="M 3.1638957,3 C 1.7274099,3 0.5,4.062261 0.5,5.472315 v 20.806058 c 0,0.878393 0.30123317,1.442775 0.8860904,1.954862 0.5848618,0.512089 1.1918274,0.766661 1.9663407,0.766661 H 27.975466 c 0.591153,0.01078 0.574337,-0.826386 1.38e-4,-0.83526 L 3.3183649,28.14975 c -0.7620406,0 -1.3952315,-0.554502 -1.3952315,-0.554502 0,0 -0.5834883,-0.45184 -0.5834883,-1.316967 V 5.472208 c 0,-0.971705 0.6407486,-1.595132 1.7599734,-1.58245 l 8.6673155,-0.0042 4.133053,3.80003 c 0.124898,0.11622 0.284783,0.281915 0.451317,0.285627 l 12.017922,-0.0042 c 0.612775,-0.0042 0.593412,-0.870776 -0.01945,-0.880916 H 16.604442 L 12.223315,3.174522 C 12.096866,3.062513 11.93713,3.00089 11.771985,3.000417 Z M 17.143876,4.079461 c -0.559211,-0.0025 -0.56032,0.992053 0.01392,1.000515 l 10.718671,-0.01511 c 1.086104,-0.0025 1.556642,0.361458 1.91828,0.709395 0.361631,0.347948 0.911174,1.199776 0.911174,2.077535 v 20.405267 c 0.0037,0.690518 0.791721,0.713249 0.794079,0.02378 L 31.4969,7.851677 C 31.496789,6.659241 31.118779,5.66088 30.440144,5.007941 29.761518,4.355006 28.837592,4.079372 27.875318,4.079372 H 17.208985 c -0.02206,-0.0022 -0.04414,-0.0022 -0.06607,0 z"
     id="path2-3-3"
     sodipodi:nodetypes="sssssccscsssccccccccsccsssccssscc" />
</svg>
