<?xml version="1.0" encoding="UTF-8" standalone="no"?>
<svg
   xmlns:dc="http://purl.org/dc/elements/1.1/"
   xmlns:cc="http://creativecommons.org/ns#"
   xmlns:rdf="http://www.w3.org/1999/02/22-rdf-syntax-ns#"
   xmlns:svg="http://www.w3.org/2000/svg"
   xmlns="http://www.w3.org/2000/svg"
   xmlns:xlink="http://www.w3.org/1999/xlink"
   xmlns:sodipodi="http://sodipodi.sourceforge.net/DTD/sodipodi-0.dtd"
   xmlns:inkscape="http://www.inkscape.org/namespaces/inkscape"
   width="32"
   version="1.1"
   height="32"
   viewBox="0 0 32 32"
   id="svg15"
   sodipodi:docname="folder-brown.svg"
   inkscape:version="1.0.1 (3bc2e813f5, 2020-09-07)">
  <sodipodi:namedview
     pagecolor="#ffffff"
     bordercolor="#666666"
     borderopacity="1"
     objecttolerance="10"
     gridtolerance="10"
     guidetolerance="10"
     inkscape:pageopacity="0"
     inkscape:pageshadow="2"
     inkscape:window-width="1920"
     inkscape:window-height="1016"
     id="namedview17"
     showgrid="true"
     inkscape:zoom="9.8125"
     inkscape:cx="-20.036074"
     inkscape:cy="13.878302"
     inkscape:window-x="0"
     inkscape:window-y="0"
     inkscape:window-maximized="1"
     inkscape:current-layer="layer1">
    <inkscape:grid
       type="xygrid"
       id="grid871" />
  </sodipodi:namedview>
  <defs
     id="defs5455">
    <linearGradient
       inkscape:collect="always"
       id="linearGradient4172-5">
      <stop
         style="stop-color:#8b6039"
         id="stop4174-6" />
      <stop
         offset="1"
         style="stop-color:#996e45"
         id="stop4176-6" />
    </linearGradient>
    <linearGradient
       inkscape:collect="always"
       xlink:href="#linearGradient4172-5"
       id="linearGradient854"
       gradientUnits="userSpaceOnUse"
       gradientTransform="matrix(0.3522538,0,0,0.37136458,382.95787,513.23192)"
       x1="6"
       y1="50.000134"
       x2="94.005508"
       y2="50.000134" />
  </defs>
  <metadata
     id="metadata5458">
    <rdf:RDF>
      <cc:Work
         rdf:about="">
        <dc:format>image/svg+xml</dc:format>
        <dc:type
           rdf:resource="http://purl.org/dc/dcmitype/StillImage" />
      </cc:Work>
    </rdf:RDF>
  </metadata>
  <g
     inkscape:label="Capa 1"
     inkscape:groupmode="layer"
     id="layer1"
     transform="translate(-384.57143,-515.798)">
    <path
       style="color:#000000;font-style:normal;font-variant:normal;font-weight:normal;font-stretch:normal;font-size:medium;line-height:normal;font-family:Sans;-inkscape-font-specification:Sans;text-indent:0;text-align:start;text-decoration:none;text-decoration-line:none;letter-spacing:normal;word-spacing:normal;text-transform:none;writing-mode:lr-tb;direction:ltr;baseline-shift:baseline;text-anchor:start;display:inline;overflow:visible;visibility:visible;opacity:1;fill:url(#linearGradient854);fill-opacity:1;fill-rule:nonzero;stroke:none;stroke-width:1.44684;marker:none;enable-background:accumulate"
       d="m 387.73527,518.80239 c -1.43647,0 -2.66384,1.06206 -2.66384,2.47192 v 20.8026 c 0,0.87824 0.30132,1.44252 0.88622,1.95456 0.58486,0.51198 1.19179,0.76641 1.96624,0.76641 h 24.62319 c 0.5912,0.0118 0.57436,-0.82613 1.8e-4,-0.83513 l -24.65753,-0.0138 c -0.76207,0 -1.395,-0.55451 -1.395,-0.55451 0,0 -0.58364,-0.45166 -0.58364,-1.31674 v -20.80264 c 0,-0.9716 0.64082,-1.59481 1.76007,-1.58222 l 8.66722,-0.007 4.13313,3.79938 c 0.1249,0.11631 0.28476,0.28193 0.45131,0.28559 l 12.01804,-0.007 c 0.6128,-0.005 0.59341,-0.87061 -0.0181,-0.88077 h -11.7455 l -4.38119,-3.91102 c -0.1265,-0.11204 -0.28613,-0.1735 -0.45133,-0.17402 z m 13.9802,1.07923 c -0.55922,-0.003 -0.56038,0.99195 0.0137,1.00046 l 10.71867,-0.0152 c 1.08622,-0.003 1.55674,0.36139 1.91839,0.70939 0.36161,0.34787 0.91113,1.19954 0.91113,2.07716 v 20.40183 c 0.005,0.69028 0.79175,0.71299 0.7941,0.023 l -0.003,-20.42581 c -1e-4,-1.19224 -0.37815,-2.19047 -1.05671,-2.84323 -0.67865,-0.65278 -1.60265,-0.92837 -2.56484,-0.92837 h -10.66644 c -0.0208,-0.002 -0.0439,-0.002 -0.0651,0 z"
       id="path2-3"
       sodipodi:nodetypes="sssssccscsssccccccccsccsssccssscc" />
  </g>
</svg>
