<?xml version="1.0" encoding="UTF-8" standalone="no"?>
<svg
   xmlns:dc="http://purl.org/dc/elements/1.1/"
   xmlns:cc="http://creativecommons.org/ns#"
   xmlns:rdf="http://www.w3.org/1999/02/22-rdf-syntax-ns#"
   xmlns:svg="http://www.w3.org/2000/svg"
   xmlns="http://www.w3.org/2000/svg"
   xmlns:xlink="http://www.w3.org/1999/xlink"
   xmlns:sodipodi="http://sodipodi.sourceforge.net/DTD/sodipodi-0.dtd"
   xmlns:inkscape="http://www.inkscape.org/namespaces/inkscape"
   width="32"
   version="1.1"
   height="32"
   viewBox="0 0 32 32"
   id="svg17"
   sodipodi:docname="folder-activities.svg"
   inkscape:version="1.0.1 (3bc2e813f5, 2020-09-07)">
  <sodipodi:namedview
     pagecolor="#ffffff"
     bordercolor="#666666"
     borderopacity="1"
     objecttolerance="10"
     gridtolerance="10"
     guidetolerance="10"
     inkscape:pageopacity="0"
     inkscape:pageshadow="2"
     inkscape:window-width="1920"
     inkscape:window-height="1016"
     id="namedview19"
     showgrid="false"
     inkscape:zoom="9.8125"
     inkscape:cx="-20.914077"
     inkscape:cy="1.9287781"
     inkscape:window-x="0"
     inkscape:window-y="0"
     inkscape:window-maximized="1"
     inkscape:current-layer="layer1"
     inkscape:document-rotation="0" />
  <defs
     id="defs5455">
    <linearGradient
       inkscape:collect="always"
       xlink:href="#linearGradient844"
       id="linearGradient913"
       x1="22"
       y1="37"
       x2="42"
       y2="37"
       gradientUnits="userSpaceOnUse"
       gradientTransform="matrix(0.50019971,0,0,0.50019971,384.49493,515.60862)" />
    <linearGradient
       inkscape:collect="always"
       id="linearGradient844">
      <stop
         style="stop-color:#008080;stop-opacity:1"
         offset="0"
         id="stop840" />
      <stop
         style="stop-color:#00e5e5;stop-opacity:1"
         offset="1"
         id="stop842" />
    </linearGradient>
    <linearGradient
       inkscape:collect="always"
       xlink:href="#linearGradient844"
       id="linearGradient845"
       gradientUnits="userSpaceOnUse"
       gradientTransform="matrix(0.94837258,0,0,1,65.505971,973.12677)"
       x1="6"
       y1="50.000134"
       x2="94.005508"
       y2="50.000134" />
  </defs>
  <metadata
     id="metadata5458">
    <rdf:RDF>
      <cc:Work
         rdf:about="">
        <dc:format>image/svg+xml</dc:format>
        <dc:type
           rdf:resource="http://purl.org/dc/dcmitype/StillImage" />
      </cc:Work>
    </rdf:RDF>
  </metadata>
  <g
     inkscape:label="Capa 1"
     inkscape:groupmode="layer"
     id="layer1"
     transform="translate(-384.57143,-515.798)">
    <path
       style="color:#000000;fill:url(#linearGradient913);fill-opacity:1;stroke-width:0.700292"
       id="path3023"
       d="m 397.75013,529.11394 a 0.75030052,0.75029657 0 0 0 -0.75024,0.75028 0.75030052,0.75029657 0 0 0 0.75024,0.75036 0.75030052,0.75029657 0 0 0 0.75033,-0.75036 0.75030052,0.75029657 0 0 0 -0.75033,-0.75028 z m 4.25171,0 -1.42243,1.42249 2.18834,2.18832 -2.26652,2.57916 1.50061,1.31304 3.50139,-4.00153 z m -5.25216,3.50148 a 1.2504949,1.2504988 0 0 0 -1.25043,1.25048 1.2504949,1.2504988 0 0 0 1.25043,1.25046 1.2504949,1.2504988 0 0 0 1.25059,-1.25046 1.2504949,1.2504988 0 0 0 -1.25059,-1.25048 z m 2.25095,3.50133 a 1.5005955,1.5005996 0 0 0 -1.50057,1.50063 1.5005955,1.5005996 0 0 0 1.50057,1.50064 1.5005955,1.5005996 0 0 0 1.5006,-1.50064 1.5005955,1.5005996 0 0 0 -1.5006,-1.50063 z" />
    <g
       transform="matrix(0.37142583,0,0,0.37142583,358.62732,151.7823)"
       id="g4">
      <path
         style="color:#000000;font-style:normal;font-variant:normal;font-weight:normal;font-stretch:normal;font-size:medium;line-height:normal;font-family:Sans;-inkscape-font-specification:Sans;text-indent:0;text-align:start;text-decoration:none;text-decoration-line:none;letter-spacing:normal;word-spacing:normal;text-transform:none;writing-mode:lr-tb;direction:ltr;baseline-shift:baseline;text-anchor:start;display:inline;overflow:visible;visibility:visible;opacity:1;fill:url(#linearGradient845);fill-opacity:1;fill-rule:nonzero;stroke:none;stroke-width:3.89539;marker:none;enable-background:accumulate"
         d="m 78.368273,988.12677 c -3.867493,0 -7.172067,2.85993 -7.172067,6.65625 v 56.01668 c 0,2.3649 0.811041,3.8844 2.385656,5.2631 1.574611,1.3787 3.208782,2.0641 5.293995,2.0641 h 66.293023 c 1.59156,0.029 1.5463,-2.2249 3.8e-4,-2.2488 l -66.385112,-0.04 c -2.051673,0 -3.756419,-1.4929 -3.756419,-1.4929 0,0 -1.570925,-1.2165 -1.570925,-3.5457 v -56.01668 c 0,-2.61614 1.725091,-4.29462 4.738429,-4.26047 l 23.335147,-0.0121 11.12748,10.23105 c 0.33626,0.3129 0.76674,0.759 1.21508,0.769 l 32.35607,-0.012 c 1.64979,-0.01 1.59765,-2.34453 -0.0519,-2.37183 h -31.62232 l -11.79538,-10.53123 c -0.34043,-0.30157 -0.77051,-0.46748 -1.2151,-0.46875 z m 37.638537,2.90625 c -1.50557,-0.004 -1.50859,2.67092 0.0378,2.69371 l 28.85807,-0.0408 c 2.92414,-0.004 4.19096,0.97316 5.16459,1.90993 0.97365,0.93677 2.45319,3.23017 2.45319,5.59354 v 54.9375 c 0.009,1.8591 2.13157,1.9203 2.13789,0.064 l -0.006,-55.0018 c -3e-4,-3.21058 -1.01803,-5.89849 -2.84511,-7.6564 -1.82708,-1.75791 -4.31458,-2.5 -6.90532,-2.5 h -28.71793 c -0.0592,-0.003 -0.11856,-0.003 -0.17781,0 z"
         id="path2-3"
         sodipodi:nodetypes="sssssccscsssccccccccsccsssccssscc" />
    </g>
  </g>
</svg>
