<?xml version="1.0" encoding="UTF-8" standalone="no"?>
<svg
   xmlns:dc="http://purl.org/dc/elements/1.1/"
   xmlns:cc="http://creativecommons.org/ns#"
   xmlns:rdf="http://www.w3.org/1999/02/22-rdf-syntax-ns#"
   xmlns:svg="http://www.w3.org/2000/svg"
   xmlns="http://www.w3.org/2000/svg"
   xmlns:xlink="http://www.w3.org/1999/xlink"
   xmlns:sodipodi="http://sodipodi.sourceforge.net/DTD/sodipodi-0.dtd"
   xmlns:inkscape="http://www.inkscape.org/namespaces/inkscape"
   version="1.1"
   viewBox="0 0 32 32"
   id="svg91"
   sodipodi:docname="user-trash-full.svg"
   inkscape:version="1.0.1 (3bc2e813f5, 2020-09-07)">
  <metadata
     id="metadata95">
    <rdf:RDF>
      <cc:Work
         rdf:about="">
        <dc:format>image/svg+xml</dc:format>
        <dc:type
           rdf:resource="http://purl.org/dc/dcmitype/StillImage" />
      </cc:Work>
    </rdf:RDF>
  </metadata>
  <sodipodi:namedview
     pagecolor="#ffffff"
     bordercolor="#666666"
     borderopacity="1"
     objecttolerance="10"
     gridtolerance="10"
     guidetolerance="10"
     inkscape:pageopacity="0"
     inkscape:pageshadow="2"
     inkscape:window-width="1920"
     inkscape:window-height="1016"
     id="namedview93"
     showgrid="true"
     showguides="true"
     inkscape:zoom="9.8125"
     inkscape:cx="-10.506045"
     inkscape:cy="13.595858"
     inkscape:window-x="0"
     inkscape:window-y="0"
     inkscape:window-maximized="1"
     inkscape:current-layer="svg91"
     inkscape:document-rotation="0">
    <inkscape:grid
       type="xygrid"
       id="grid1046" />
  </sodipodi:namedview>
  <defs
     id="defs36">
    <linearGradient
       id="u"
       x1="394.57101"
       x2="399.57101"
       y1="517.79797"
       y2="522.79797"
       gradientTransform="translate(-384.571,-515.798)"
       gradientUnits="userSpaceOnUse">
      <stop
         stop-color="#d4ba94"
         offset="0"
         id="stop2" />
      <stop
         stop-color="#bb9d71"
         offset="1"
         id="stop4" />
    </linearGradient>
    <linearGradient
       id="t"
       x1="390.57101"
       x2="410.57101"
       y1="521.79797"
       y2="545.79797"
       gradientTransform="matrix(1 0 0 .91666666 -384.571 -471.31484)"
       gradientUnits="userSpaceOnUse">
      <stop
         stop-color="#bdc3c7"
         offset="0"
         id="stop7" />
      <stop
         stop-color="#8a9696"
         offset="1"
         id="stop9" />
    </linearGradient>
    <linearGradient
       id="ab"
       x1="395.57101"
       x2="395.57101"
       y1="520.79797"
       y2="516.79797"
       gradientTransform="rotate(85.177693,488.15482,66.06004)"
       gradientUnits="userSpaceOnUse">
      <stop
         stop-color="#afb0b3"
         offset="0"
         id="stop12" />
      <stop
         stop-color="#bdc3c7"
         offset="1"
         id="stop14" />
    </linearGradient>
    <radialGradient
       id="n"
       cx="16"
       cy="8.5"
       r="4"
       gradientTransform="matrix(.14711513 1.7438054 -1.4946903 .12609869 38.014756 -11.958567)"
       gradientUnits="userSpaceOnUse">
      <stop
         stop-color="#4f575f"
         stop-opacity=".25"
         offset="0"
         id="stop17" />
      <stop
         stop-color="#9da5ab"
         offset="1"
         id="stop19" />
    </radialGradient>
    <linearGradient
       id="ad"
       x1="412.57101"
       x2="412.57101"
       y1="522.79797"
       y2="520.79797"
       gradientTransform="rotate(85.177693,488.15482,66.06004)"
       gradientUnits="userSpaceOnUse">
      <stop
         stop-color="#9da5ab"
         offset="0"
         id="stop22" />
      <stop
         stop-color="#bdc3c7"
         offset="1"
         id="stop24" />
    </linearGradient>
    <linearGradient
       id="z"
       x1="391.57101"
       x2="394.57101"
       y1="534.79797"
       y2="534.79797"
       gradientTransform="matrix(.66667 0 0 .9 -249.047 -463.31817)"
       gradientUnits="userSpaceOnUse"
       xlink:href="#a" />
    <linearGradient
       id="x"
       x1="391.57101"
       x2="394.57101"
       y1="534.79797"
       y2="534.79797"
       gradientTransform="matrix(.66667 0 0 .89999994 -254.048 -463.31813)"
       gradientUnits="userSpaceOnUse"
       xlink:href="#a" />
    <linearGradient
       id="w"
       x1="391.57101"
       x2="394.57101"
       y1="534.79797"
       y2="534.79797"
       gradientTransform="matrix(.66667 0 0 .9 -243.048 -463.31817)"
       gradientUnits="userSpaceOnUse"
       xlink:href="#a" />
    <linearGradient
       id="v"
       x1="391.57101"
       x2="394.57101"
       y1="534.79797"
       y2="534.79797"
       gradientTransform="matrix(.66667 0 0 .9 -238.047 -463.31817)"
       gradientUnits="userSpaceOnUse"
       xlink:href="#a" />
    <radialGradient
       id="p"
       cx="20.571428"
       cy="8.5"
       r="4"
       gradientTransform="matrix(.31455566 3.7285336 -1.4946903 .12609872 31.90703 -60.564598)"
       gradientUnits="userSpaceOnUse">
      <stop
         stop-color="#4f575f"
         stop-opacity=".25098041"
         offset="0"
         id="stop31" />
      <stop
         stop-color="#8a939a"
         offset="1"
         id="stop33" />
    </radialGradient>
    <linearGradient
       inkscape:collect="always"
       xlink:href="#linearGradient967"
       id="linearGradient969"
       x1="43.584"
       y1="256"
       x2="468.41501"
       y2="256"
       gradientUnits="userSpaceOnUse" />
    <linearGradient
       inkscape:collect="always"
       id="linearGradient967">
      <stop
         style="stop-color:#000000;stop-opacity:1;"
         offset="0"
         id="stop963" />
      <stop
         style="stop-color:#000000;stop-opacity:0;"
         offset="1"
         id="stop965" />
    </linearGradient>
    <linearGradient
       inkscape:collect="always"
       xlink:href="#linearGradient891"
       id="linearGradient893"
       x1="43.584"
       y1="256"
       x2="468.41501"
       y2="256"
       gradientUnits="userSpaceOnUse" />
    <linearGradient
       inkscape:collect="always"
       id="linearGradient891">
      <stop
         style="stop-color:#008080;stop-opacity:1"
         offset="0"
         id="stop887" />
      <stop
         style="stop-color:#00e5e5;stop-opacity:1"
         offset="1"
         id="stop889" />
    </linearGradient>
    <linearGradient
       inkscape:collect="always"
       xlink:href="#linearGradient891"
       id="linearGradient885"
       x1="127.65975"
       y1="328.66718"
       x2="195.40553"
       y2="328.66718"
       gradientUnits="userSpaceOnUse" />
    <linearGradient
       inkscape:collect="always"
       xlink:href="#linearGradient891"
       id="linearGradient894"
       x1="230.37199"
       y1="328.68051"
       x2="281.62799"
       y2="328.68051"
       gradientUnits="userSpaceOnUse" />
    <linearGradient
       inkscape:collect="always"
       xlink:href="#linearGradient891"
       id="linearGradient902"
       x1="316.59418"
       y1="328.68314"
       x2="384.37369"
       y2="328.68314"
       gradientUnits="userSpaceOnUse" />
  </defs>
  <linearGradient
     id="o"
     x1="393.571"
     x2="396.071"
     y1="521.798"
     y2="524.298"
     gradientTransform="translate(-384.571,-514.798)"
     gradientUnits="userSpaceOnUse"
     xlink:href="#m" />
  <linearGradient
     id="m">
    <stop
       stop-color="#fcfcfc"
       offset="0"
       id="stop39" />
    <stop
       stop-color="#eff0f1"
       offset="1"
       id="stop41" />
  </linearGradient>
  <linearGradient
     id="ac"
     x1="399.571"
     x2="400.571"
     y1="521.798"
     y2="523.798"
     gradientTransform="translate(-384.571,-514.798)"
     gradientUnits="userSpaceOnUse"
     xlink:href="#l" />
  <linearGradient
     id="l">
    <stop
       stop-color="#292c2f"
       offset="0"
       id="stop45" />
    <stop
       stop-color="#292c2f"
       stop-opacity="0"
       offset="1"
       id="stop47" />
  </linearGradient>
  <linearGradient
     id="aa"
     x1="409.571"
     x2="405.571"
     y1="521.798"
     y2="525.798"
     gradientTransform="matrix(-1,0,0,1,424.572,-514.798)"
     gradientUnits="userSpaceOnUse"
     xlink:href="#m" />
  <linearGradient
     id="y"
     x1="407.571"
     x2="408.571"
     y1="521.798"
     y2="523.798"
     gradientTransform="translate(-384.571,-514.798)"
     gradientUnits="userSpaceOnUse"
     xlink:href="#l" />
  <linearGradient
     id="a">
    <stop
       stop-color="#4f575f"
       stop-opacity=".4"
       offset="0"
       id="stop52" />
    <stop
       stop-color="#4f575f"
       stop-opacity=".6"
       offset=".5"
       id="stop54" />
    <stop
       stop-color="#4f575f"
       stop-opacity=".4"
       offset="1"
       id="stop56" />
  </linearGradient>
  <g
     id="g10"
     transform="matrix(0.0507812,0,0,0.05078125,2.9867522,3)"
     style="fill:url(#linearGradient969);fill-opacity:1">
    <path
       d="M 393.503,67.505 H 355.152 C 349.862,29.121 317.399,0 278.344,0 H 273.5 c -4.143,0 -7.5,3.357 -7.5,7.5 0,4.143 3.357,7.5 7.5,7.5 h 4.844 c 30.79,0 56.493,22.502 61.625,52.505 H 319.616 C 315.078,48.808 298.131,35 278.318,35 h -46.803 c -19.812,0 -36.759,13.808 -41.297,32.505 H 169.865 C 174.998,37.502 200.702,15 231.491,15 H 238.5 C 242.643,15 246,11.643 246,7.5 246,3.357 242.643,0 238.5,0 h -7.009 c -39.056,0 -71.518,29.121 -76.809,67.505 h -36.186 c -41.307,0 -74.912,33.605 -74.912,74.912 v 0.156 c 0,9.632 7.837,17.469 17.47,17.469 h 11.49 l 22.934,289.684 c 1.285,16.995 8.909,32.735 21.467,44.321 12.549,11.577 28.882,17.953 45.993,17.953 h 186.125 c 17.11,0 33.443,-6.376 45.991,-17.953 12.558,-11.586 20.182,-27.326 21.465,-44.295 l 22.936,-289.71 h 11.49 c 9.633,0 17.47,-7.837 17.47,-17.469 v -0.156 c 0,-41.307 -33.605,-74.912 -74.912,-74.912 z M 231.516,50 h 46.803 c 11.541,0 21.579,7.238 25.611,17.505 H 205.907 C 209.937,57.238 219.976,50 231.516,50 Z M 401.563,448.595 C 399.511,475.738 376.449,497 349.063,497 H 162.938 c -27.387,0 -50.448,-21.262 -52.503,-48.432 L 87.592,160.042 h 336.816 z m 51.852,-306.022 c 0,1.361 -1.107,2.469 -2.47,2.469 H 61.055 c -1.362,0 -2.47,-1.107 -2.47,-2.469 v -0.156 c 0,-33.035 26.877,-59.912 59.912,-59.912 h 275.006 c 33.035,0 59.912,26.877 59.912,59.912 z"
       id="path2"
       style="fill:url(#linearGradient893);fill-opacity:1" />
    <path
       d="m 256,457.985 c 14.131,0 25.628,-11.497 25.628,-25.628 V 301.602 c 0,-4.143 -3.357,-7.5 -7.5,-7.5 -4.143,0 -7.5,3.357 -7.5,7.5 v 130.756 c 0,5.86 -4.768,10.628 -10.628,10.628 -5.86,0 -10.628,-4.768 -10.628,-10.628 V 225.004 c 0,-5.86 4.768,-10.628 10.628,-10.628 5.86,0 10.628,4.768 10.628,10.628 v 41.598 c 0,4.143 3.357,7.5 7.5,7.5 4.143,0 7.5,-3.357 7.5,-7.5 v -41.598 c 0,-14.131 -11.497,-25.628 -25.628,-25.628 -14.131,0 -25.628,11.497 -25.628,25.628 v 207.354 c 0,14.13 11.497,25.627 25.628,25.627 z"
       id="path4"
       style="fill:url(#linearGradient894);fill-opacity:1.0" />
    <path
       d="m 340.224,457.904 c 13.931,1.189 26.531,-9.57 27.582,-23.52 l 4.161,-52.445 c 0.327,-4.129 -2.754,-7.741 -6.884,-8.069 -4.129,-0.322 -7.742,2.755 -8.069,6.884 l -4.161,52.444 c -0.436,5.788 -5.659,10.25 -11.436,9.754 -5.706,-0.334 -10.324,-5.75 -9.755,-11.436 l 16.453,-207.353 c 0.464,-5.843 5.612,-10.221 11.436,-9.755 5.704,0.335 10.325,5.75 9.755,11.436 l -9.515,119.909 c -0.327,4.129 2.754,7.741 6.884,8.069 4.103,0.318 7.741,-2.754 8.069,-6.883 l 9.515,-119.909 c 1.373,-13.71 -9.766,-26.769 -23.521,-27.575 -14.074,-1.128 -26.457,9.432 -27.576,23.521 L 316.709,430.33 c -1.374,13.707 9.767,26.769 23.515,27.574 z"
       id="path6"
       style="fill:url(#linearGradient902);fill-opacity:1.0" />
    <path
       d="m 139.329,373.064 c 0.328,4.128 3.948,7.218 8.069,6.883 4.13,-0.328 7.211,-3.94 6.884,-8.069 L 142.694,225.845 c -0.464,-5.841 3.912,-10.971 9.764,-11.436 5.678,-0.582 11.094,4.06 11.427,9.754 l 16.453,207.355 c 0.569,5.689 -4.051,11.1 -9.761,11.436 -5.856,0.457 -10.972,-3.984 -11.43,-9.755 l -2.034,-25.637 c -0.327,-4.129 -3.926,-7.199 -8.069,-6.884 -4.13,0.328 -7.211,3.94 -6.884,8.069 l 2.034,25.638 c 1.05,13.947 13.648,24.705 27.576,23.521 13.754,-0.806 24.893,-13.866 23.521,-27.574 L 178.838,222.977 c -0.806,-13.748 -13.869,-24.914 -27.576,-23.52 -14.087,1.118 -24.639,13.488 -23.521,27.575 z"
       id="path8"
       style="fill:url(#linearGradient885);fill-opacity:1.0" />
  </g>
</svg>
