<?xml version="1.0" encoding="UTF-8" standalone="no"?>
<svg
   xmlns:dc="http://purl.org/dc/elements/1.1/"
   xmlns:cc="http://creativecommons.org/ns#"
   xmlns:rdf="http://www.w3.org/1999/02/22-rdf-syntax-ns#"
   xmlns:svg="http://www.w3.org/2000/svg"
   xmlns="http://www.w3.org/2000/svg"
   xmlns:xlink="http://www.w3.org/1999/xlink"
   xmlns:sodipodi="http://sodipodi.sourceforge.net/DTD/sodipodi-0.dtd"
   xmlns:inkscape="http://www.inkscape.org/namespaces/inkscape"
   width="32"
   version="1.1"
   height="32"
   viewBox="0 0 32 32"
   id="svg17"
   sodipodi:docname="user-home.svg"
   inkscape:version="1.0.1 (3bc2e813f5, 2020-09-07)">
  <sodipodi:namedview
     pagecolor="#ffffff"
     bordercolor="#666666"
     borderopacity="1"
     objecttolerance="10"
     gridtolerance="10"
     guidetolerance="10"
     inkscape:pageopacity="0"
     inkscape:pageshadow="2"
     inkscape:window-width="1920"
     inkscape:window-height="1016"
     id="namedview19"
     showgrid="false"
     inkscape:zoom="9.8125"
     inkscape:cx="-8.7297855"
     inkscape:cy="0.98355405"
     inkscape:window-x="0"
     inkscape:window-y="0"
     inkscape:window-maximized="1"
     inkscape:current-layer="layer1" />
  <defs
     id="defs5455">
    <linearGradient
       inkscape:collect="always"
       xlink:href="#linearGradient934"
       id="linearGradient892"
       x1="0.11111111"
       y1="139.125"
       x2="271.23053"
       y2="139.125"
       gradientUnits="userSpaceOnUse" />
    <linearGradient
       inkscape:collect="always"
       id="linearGradient934">
      <stop
         style="stop-color:#ffcc00;stop-opacity:1"
         offset="0"
         id="stop930" />
      <stop
         style="stop-color:#00ffff;stop-opacity:1"
         offset="1"
         id="stop932" />
    </linearGradient>
    <linearGradient
       inkscape:collect="always"
       xlink:href="#linearGradient853"
       id="linearGradient865"
       gradientUnits="userSpaceOnUse"
       x1="0.11111111"
       y1="139.125"
       x2="271.23053"
       y2="139.125" />
    <linearGradient
       inkscape:collect="always"
       id="linearGradient853">
      <stop
         style="stop-color:#008080;stop-opacity:1"
         offset="0"
         id="stop849" />
      <stop
         style="stop-color:#00e5e5;stop-opacity:1"
         offset="1"
         id="stop851" />
    </linearGradient>
    <linearGradient
       inkscape:collect="always"
       xlink:href="#linearGradient853"
       id="linearGradient854"
       gradientUnits="userSpaceOnUse"
       gradientTransform="matrix(0.35225246,0,0,0.3713902,382.95786,513.22981)"
       x1="6"
       y1="50.000134"
       x2="94.005508"
       y2="50.000134" />
  </defs>
  <metadata
     id="metadata5458">
    <rdf:RDF>
      <cc:Work
         rdf:about="">
        <dc:format>image/svg+xml</dc:format>
        <dc:type
           rdf:resource="http://purl.org/dc/dcmitype/StillImage" />
      </cc:Work>
    </rdf:RDF>
  </metadata>
  <g
     inkscape:label="Capa 1"
     inkscape:groupmode="layer"
     id="layer1"
     transform="translate(-384.57143,-515.798)">
    <g
       id="g8"
       transform="matrix(0.03492365,0,0,0.03601459,395.50177,527.97653)"
       style="fill:url(#linearGradient892);fill-opacity:1;image-rendering:optimizeQuality;shape-rendering:geometricPrecision;text-rendering:geometricPrecision">
      <path
         class="fil0"
         d="m 231,148 v 117 c 0,7 -6,13 -13,13 h -41 c -7,0 -12,-6 -12,-13 v -77 l -58,-1 v 78 c 0,7 -6,13 -13,13 H 53 c -7,0 -13,-6 -13,-13 V 149 H 13 C 1,149 -4,136 4,128 L 128,4 c 5,-5 13,-5 18,0 l 122,122 c 7,8 2,22 -9,22 z"
         id="path6"
         style="fill:url(#linearGradient865);fill-opacity:1" />
    </g>
    <path
       style="color:#000000;font-style:normal;font-variant:normal;font-weight:normal;font-stretch:normal;font-size:medium;line-height:normal;font-family:Sans;-inkscape-font-specification:Sans;text-indent:0;text-align:start;text-decoration:none;text-decoration-line:none;letter-spacing:normal;word-spacing:normal;text-transform:none;writing-mode:lr-tb;direction:ltr;baseline-shift:baseline;text-anchor:start;display:inline;overflow:visible;visibility:visible;opacity:1;fill:url(#linearGradient854);fill-opacity:1;fill-rule:nonzero;stroke:none;stroke-width:1.44689;marker:none;enable-background:accumulate"
       d="m 387.73527,518.8006 c -1.43649,0 -2.66384,1.0622 -2.66384,2.4721 v 20.80402 c 0,0.87835 0.3013,1.44268 0.8862,1.9547 0.58484,0.51202 1.19175,0.76646 1.96628,0.76646 h 24.62304 c 0.59125,0.0114 0.57435,-0.8262 1.2e-4,-0.83512 l -24.65734,-0.0142 c -0.76204,0 -1.3951,-0.55454 -1.3951,-0.55454 0,0 -0.58352,-0.45171 -0.58352,-1.31678 v -20.80425 c 0,-0.97154 0.6408,-1.59491 1.75996,-1.58224 l 8.66728,-0.006 4.13317,3.79975 c 0.1248,0.11612 0.28475,0.28173 0.45133,0.2856 l 12.01788,-0.006 c 0.61283,-0.006 0.59343,-0.87063 -0.0189,-0.88081 h -11.74548 l -4.38115,-3.91126 c -0.12646,-0.112 -0.2862,-0.17352 -0.45132,-0.17403 z m 13.98013,1.07937 c -0.55929,-0.003 -0.56035,0.99198 0.0138,1.0004 l 10.71875,-0.0145 c 1.08618,-0.003 1.55663,0.36143 1.91827,0.70932 0.36163,0.34793 0.91114,1.19971 0.91114,2.07734 v 20.40319 c 0.006,0.69038 0.79176,0.71311 0.7941,0.023 l -0.004,-20.42715 c -1.1e-4,-1.19234 -0.37812,-2.19061 -1.0567,-2.84349 -0.67858,-0.65288 -1.60251,-0.92848 -2.56484,-0.92848 h -10.66626 c -0.0211,-0.002 -0.044,-0.002 -0.0657,0 z"
       id="path2-3"
       sodipodi:nodetypes="sssssccscsssccccccccsccsssccssscc" />
  </g>
</svg>
