<?xml version="1.0" encoding="UTF-8" standalone="no"?>
<svg
   xmlns:dc="http://purl.org/dc/elements/1.1/"
   xmlns:cc="http://creativecommons.org/ns#"
   xmlns:rdf="http://www.w3.org/1999/02/22-rdf-syntax-ns#"
   xmlns:svg="http://www.w3.org/2000/svg"
   xmlns="http://www.w3.org/2000/svg"
   xmlns:xlink="http://www.w3.org/1999/xlink"
   xmlns:sodipodi="http://sodipodi.sourceforge.net/DTD/sodipodi-0.dtd"
   xmlns:inkscape="http://www.inkscape.org/namespaces/inkscape"
   viewBox="0 0 48 48"
   version="1.1"
   id="svg27"
   sodipodi:docname="folder_html.svg"
   inkscape:version="1.0.1 (3bc2e813f5, 2020-09-07)">
  <metadata
     id="metadata33">
    <rdf:RDF>
      <cc:Work
         rdf:about="">
        <dc:format>image/svg+xml</dc:format>
        <dc:type
           rdf:resource="http://purl.org/dc/dcmitype/StillImage" />
      </cc:Work>
    </rdf:RDF>
  </metadata>
  <defs
     id="defs31">
    <linearGradient
       inkscape:collect="always"
       xlink:href="#linearGradient842"
       id="linearGradient890"
       x1="406.05936"
       y1="519.07739"
       x2="425.9559"
       y2="519.07739"
       gradientUnits="userSpaceOnUse"
       gradientTransform="matrix(0.69258544,0,0,0.69258544,-264.5606,-333.3492)" />
    <linearGradient
       inkscape:collect="always"
       id="linearGradient842">
      <stop
         style="stop-color:#008080;stop-opacity:1"
         offset="0"
         id="stop838" />
      <stop
         style="stop-color:#00e5e5;stop-opacity:1"
         offset="1"
         id="stop840" />
    </linearGradient>
    <linearGradient
       inkscape:collect="always"
       xlink:href="#linearGradient842"
       id="linearGradient838"
       x1="6"
       y1="50.000134"
       x2="94.005508"
       y2="50.000134"
       gradientUnits="userSpaceOnUse"
       gradientTransform="matrix(0.9780981,0,0,1,126.99591,990.06777)" />
  </defs>
  <sodipodi:namedview
     pagecolor="#ffffff"
     bordercolor="#666666"
     borderopacity="1"
     objecttolerance="10"
     gridtolerance="10"
     guidetolerance="10"
     inkscape:pageopacity="0"
     inkscape:pageshadow="2"
     inkscape:window-width="1920"
     inkscape:window-height="1016"
     id="namedview29"
     showgrid="false"
     inkscape:zoom="6.5416667"
     inkscape:cx="-15.151438"
     inkscape:cy="10.718121"
     inkscape:window-x="0"
     inkscape:window-y="0"
     inkscape:window-maximized="1"
     inkscape:current-layer="svg27" />
  <linearGradient
     id="a"
     x2="0"
     y1="541.79797"
     y2="499.78421"
     gradientTransform="matrix(.69229859 0 0 .69207328 120.25629 150.83367)"
     gradientUnits="userSpaceOnUse">
    <stop
       stop-color="#3daee9"
       offset="0"
       id="stop2" />
    <stop
       stop-color="#6cc1ef"
       offset="1"
       id="stop4" />
  </linearGradient>
  <path
     d="m 30.17584,24.544254 v 0 0 c 0,0 0,0 0,0 0,0 0,0 0,0 z m -4.958039,8.341354 c -3.367719,0.826345 -6.938127,-1.013433 -8.138653,-4.396748 -0.436572,-1.231708 -0.530108,-2.494607 -0.249467,-3.773093 0.01568,-0.03108 0.03105,-0.07787 0.04673,-0.109135 0,0.03108 0,0.07787 0.01568,0.109135 0,0.01566 0.01568,0.04674 0.03106,0.06248 0,-0.03108 0.01568,-0.04674 0.01568,-0.07788 0,-0.09354 0,-0.187097 0.01568,-0.296227 0.09355,0.07788 0.03105,0.187088 0.06241,0.265041 0.04673,0.124737 0.04673,0.249463 0.04673,0.389789 -0.01568,0.202692 0.171507,0.343006 0.311826,0.358598 0.265048,0.03107 0.420965,0.23387 0.65484,0.31182 0.109142,0.03107 0.171499,0.140334 0.187085,0.187106 0.03105,0.202685 0.187098,0.265043 0.311832,0.343009 0.03105,0.01566 0.0625,0.04675 0.09354,0 0.109157,-0.218291 0.124745,-0.06248 0.17152,0.03108 0.10913,0.233883 0.01568,0.420974 -0.109142,0.608065 -0.09353,0.124734 -0.202682,0.249457 -0.09353,0.420964 0.01568,0.01561 0,0.06236 -0.01568,0.07793 -0.07788,0.124736 -0.03105,0.218282 0.04673,0.327421 0.109148,0.155914 0.202695,0.311822 0.280653,0.483327 0.109146,0.218282 0.202689,0.420967 0.452155,0.530105 0.155903,0.06234 0.249462,0.202685 0.265043,0.38978 0.04673,0.530105 0.124736,1.06021 0.20269,1.574725 0.04673,0.311829 0.296234,0.530105 0.405363,0.810747 0.04673,0.124728 0.12474,0.233873 0.218287,0.34301 0.171509,0.202685 0.420974,0.218276 0.639237,0.32742 0.01568,0 0.04673,0 0.0625,0 -0.01568,-0.01559 -0.04673,-0.03116 -0.0625,-0.04674 -0.140324,-0.124728 -0.436551,-0.155909 -0.249463,-0.452141 0,-0.01559 -0.01568,-0.04674 -0.01568,-0.04674 -0.218277,-0.04674 -0.109137,-0.202685 -0.09354,-0.311823 0,-0.06234 0.0625,-0.109138 -0.03105,-0.124728 -0.01568,0 -0.03105,-0.03116 -0.03105,-0.04674 0.171499,0.04674 0.109131,-0.202692 0.249464,-0.202692 0.202685,0 0.280643,-0.07795 0.171498,-0.280643 -0.03105,-0.04674 -0.07787,-0.109137 0.04673,-0.07795 0.124736,0.03116 0.1871,-0.01559 0.218285,-0.124728 0.03105,-0.109136 0.07787,-0.218281 0.1715,-0.311829 0.07788,-0.09354 0.124723,-0.202685 0.09355,-0.343003 -0.04673,-0.233872 0.187087,-0.280649 0.327407,-0.296239 0.296232,-0.03116 0.311824,-0.233866 0.374198,-0.436558 0.04673,-0.155908 0.04673,-0.311823 0.03105,-0.483328 -0.01568,-0.171505 0.124733,-0.280642 0.218286,-0.40537 0.124737,-0.155915 0.202693,-0.3586 0.07787,-0.498925 -0.124732,-0.140325 -0.280647,-0.296233 -0.498922,-0.311823 -0.311823,-0.01561 -0.545701,-0.21828 -0.810743,-0.327419 -0.09354,-0.03112 -0.09354,-0.187094 -0.124742,-0.280645 -0.07787,-0.21828 -0.218276,-0.311827 -0.43655,-0.343016 -0.265056,-0.03109 -0.374193,-0.233868 -0.483342,-0.420959 -0.07786,-0.140326 -0.187088,-0.07787 -0.249459,-0.06248 -0.155912,0.04675 -0.280635,0 -0.389772,-0.06248 -0.265059,-0.140325 -0.483333,-0.09354 -0.670442,0.187095 -0.03105,0.04674 -0.07786,0.124727 -0.1559,0.04674 -0.04673,-0.04674 -0.109141,-0.04674 -0.187095,-0.01565 -0.140314,0.0624 -0.265056,-0.04674 -0.249464,-0.202684 0,-0.06241 0.01567,-0.124721 0.03105,-0.187094 0.04673,-0.265053 0.03105,-0.296232 -0.233867,-0.265053 -0.109144,0.01566 -0.124729,-0.01567 -0.07788,-0.109133 0.04673,-0.09354 0.09354,-0.187102 0.109133,-0.296237 0.01568,-0.06248 0.109134,-0.140327 0,-0.1871 -0.07788,-0.03107 -0.218279,0 -0.233874,0.109145 -0.03105,0.18709 -0.140312,0.233862 -0.296239,0.202685 -0.171498,-0.04674 -0.155908,-0.218289 -0.124718,-0.343002 0.03105,-0.249461 0.04673,-0.530118 0.311815,-0.686028 0.0624,-0.04674 0.124737,-0.0624 0.202684,-0.04674 0.07787,0.01568 0.140332,0.01568 0.21829,-0.06249 0.109136,-0.109135 0.233859,-0.03107 0.358602,0 0.09354,0.03106 0.04673,0.124734 0.06241,0.187103 0.01568,0.09354 0.01568,0.233858 0.10914,0.218277 0.109131,0 0.124723,-0.140335 0.09354,-0.249462 -0.0625,-0.233869 0.01568,-0.436562 0.233853,-0.545706 0.233872,-0.124716 0.343011,-0.327408 0.483335,-0.530093 0.09354,-0.155922 0.265057,-0.23387 0.420963,-0.34301 0.155916,-0.09354 0.280654,-0.265056 0.483337,-0.34301 0.03105,-0.01567 0.0625,-0.01567 0.07788,-0.03106 -0.01568,0.03106 -0.01568,0.04673 -0.03105,0.07786 -0.01568,0.03106 -0.03105,0.04673 0,0.06249 0.01568,0 0.04673,0 0.0625,-0.01567 0.04673,-0.06249 0.124722,-0.07786 0.202685,-0.09353 0.04673,-0.01567 0.124721,-0.04673 0.140307,-0.07786 0,-0.06249 -0.07786,-0.03106 -0.109139,-0.06249 -0.0625,-0.04673 -0.0625,-0.09354 -0.03105,-0.140324 0.03105,-0.07787 0.140323,-0.155913 -0.04673,-0.155913 0,0 -0.01568,-0.01568 -0.01568,-0.03106 0.01568,0 0.03105,-0.01568 0.04673,-0.01568 0.218294,-0.04673 0.452147,0.03106 0.654838,-0.124739 0.01568,0 0.03105,0.01568 0.04673,0.01568 -0.01568,0.01567 -0.01568,0.03106 -0.03105,0.04673 -0.04673,0.109147 -0.249462,0.15592 -0.187106,0.280647 0.03105,0.06241 0.218279,-0.04673 0.343017,0.04673 0.04673,0.03106 0.124722,0 0.09354,-0.04673 -0.04673,-0.07786 0.10914,-0.202679 -0.03105,-0.202679 -0.140323,-0.01567 -0.09354,-0.06249 -0.06241,-0.12473 0.09354,-0.155917 0.124733,-0.280643 -0.07787,-0.358608 -0.109143,-0.04673 -0.04673,-0.155907 -0.07787,-0.23386 -0.03105,-0.124742 -0.04673,-0.218286 -0.202684,-0.09354 -0.0624,0.04673 -0.233873,0.202686 -0.1871,-0.07787 0.01568,-0.06242 -0.09354,-0.124737 -0.140317,-0.124737 -0.124732,0 -0.280644,-0.07785 -0.343004,0.07788 -0.0625,0.124738 -0.218292,0.202688 -0.218292,0.374201 0,0.04673 -0.07786,0.09354 -0.140311,0.124723 -0.124734,0.04673 -0.218286,0.109142 -0.23387,0.249459 -0.01568,0.07786 -0.07788,0.140319 -0.155915,0.109143 -0.09354,-0.04673 -0.01568,-0.124733 0.01568,-0.171505 0.0624,-0.07788 0.0624,-0.140333 -0.0625,-0.124736 -0.124736,0.01566 -0.202685,-0.109139 -0.343012,-0.124734 -0.04673,0 -0.04673,-0.124721 0.01568,-0.17149 0.202685,-0.202687 0.467748,-0.265061 0.701613,-0.42097 0.06241,-0.04673 0.07787,0.14031 0.124731,0.04673 0.04673,-0.09354 0.343007,0.0625 0.202687,-0.202686 0.07786,-0.03105 0.14032,-0.04673 0.218278,-0.07787 0.109138,-0.04673 0.140323,-0.187103 0.280649,-0.218286 0.124723,-0.01568 0.265053,-0.03105 0.28064,0.07787 0.01568,0.109139 -0.140333,0.140319 -0.233871,0.18709 -0.04673,0.01568 -0.09354,0 -0.140317,0.01568 -0.03105,0.01568 -0.07788,0.04673 -0.07788,0.0624 0,0.04673 0.0624,0.03105 0.09354,0.03105 0.09355,-0.01568 0.171507,-0.01568 0.233869,0.07786 0.04673,0.0624 0.218278,0.09354 0.218278,0.0624 0.01568,-0.140312 0.374191,-0.03105 0.187101,-0.280636 0,-0.01568 0,-0.04673 0,-0.04673 0.03105,-0.03105 0.0625,-0.01567 0.09354,0.01568 0.109138,0.12474 0.202686,0.01568 0.249461,-0.04673 0.0625,-0.09354 -0.109145,-0.09354 -0.109145,-0.124725 0,-0.202686 -0.187085,-0.171502 -0.280633,-0.233882 -0.09354,-0.0624 -0.17151,-0.0624 -0.265053,-0.04673 0.03105,0.01568 0.03105,0.06241 0,0.04673 -0.12473,-0.07787 -0.218281,-0.01568 -0.327424,0 -0.109133,0.03105 -0.202686,0.03105 -0.296233,-0.03105 -0.0624,-0.04673 -0.124723,-0.03105 -0.187091,0 -0.01568,0 -0.03105,0.01568 -0.03105,0.03105 0,0 0.01568,0.01568 0.03105,0.01568 0.04673,0 0.09355,-0.07786 0.140318,-0.01568 -0.0625,0.04673 -0.124725,0.07788 -0.202689,0.09354 v 0 c 0,0 0,0 0,0 -0.187092,-0.03105 -0.249464,0.03105 -0.233859,0.187106 0,0.03105 -0.01568,0.06241 -0.03105,0.09354 -0.07787,-0.0624 -0.233876,0.04673 -0.233876,-0.01568 0,-0.09354 -0.04673,-0.233857 0.07788,-0.31183 1.496771,-0.888692 3.087077,-1.216116 4.80212,-0.919878 1.138171,0.202693 2.151605,0.654839 3.071491,1.356449 0.04673,0.03105 0.07786,0.07787 0.109133,0.109134 -0.0625,0.03105 -0.09355,-0.03105 -0.140317,-0.04673 -0.140316,-0.06241 -0.265057,-0.171486 -0.42097,-0.202681 -0.202685,-0.03105 -0.40537,-0.06241 -0.561287,0.109139 -0.109129,0.109149 -0.233865,0.187101 -0.389784,0.21829 -0.124715,0.03105 -0.15591,0.09354 -0.09355,0.218279 0.04673,0.124725 0.109143,0.202684 0.233867,0.140328 0.109143,-0.06248 0.155914,-0.01567 0.21828,0.06239 0.07788,0.09354 0.04673,0.124729 -0.01568,0.187095 -0.01568,0.01566 0.01568,0.07788 -0.04673,0.06249 -0.07787,0.01567 -0.06241,-0.01567 -0.06241,-0.06249 0,-0.04673 0.06241,-0.124739 -0.03105,-0.124739 -0.07788,0 -0.140326,0.07787 -0.10915,0.155911 0.0625,0.124741 -0.01568,0.155921 -0.109134,0.155921 -0.155913,0.01567 -0.218277,0.202686 -0.358596,0.218282 -0.07787,0.171496 -0.265048,0.07787 -0.389794,0.15592 -0.03105,0.01567 -0.09353,0 -0.109134,0.04673 0,0.01567 0.04673,0.04673 0.07788,0.06249 0.0624,0.03106 0.109129,0.07788 0.155914,0.124738 0.0624,0.07787 0.04673,0.15592 0.01568,0.233862 -0.03105,0.09354 -0.109144,0.04673 -0.171498,0.04673 -0.01568,0 -0.03105,0 -0.03105,0 -0.405379,-0.04673 -0.530101,0.07787 -0.467743,0.483336 0.01568,0.07787 0.01568,0.187083 0.155914,0.171499 0.109133,0 0.155915,0.07787 0.07788,0.171505 -0.155915,0.18709 -0.327423,0.374194 -0.405378,0.623661 -0.04673,0.109139 -0.218279,0.109139 -0.29623,0.249462 -0.109142,0.249461 -0.38978,0.42095 -0.280647,0.763965 0.04673,0.140325 0,0.280638 -0.04673,0.436553 -0.04673,0.140319 -0.04673,0.311835 0.09355,0.436551 0.233874,0.187105 0.311826,0.498925 0.576885,0.654834 0.109138,0.06238 0.187088,0.0779 0.311823,0.06238 0.296233,-0.03111 0.576869,-0.124722 0.857525,-0.140312 0.17149,-0.01565 0.358592,0.171503 0.545694,0.249463 0.109138,0.04675 0,0.249455 -0.01568,0.374188 -0.01568,0.109136 -0.01568,0.187098 0.0625,0.265052 0.233859,0.249456 0.265052,0.561286 0.327406,0.873109 0.03105,0.140325 -0.124721,0.233873 -0.155907,0.37419 -0.04673,0.187102 -0.07788,0.358607 0.03105,0.530105 0.109137,0.171505 0.155909,0.3586 0.124722,0.561292 -0.01568,0.202685 0.155919,0.311823 0.187102,0.483328 0.0625,0.34301 0.07787,0.32742 0.436551,0.265052 0.405373,-0.07795 0.592472,-0.405377 0.763974,-0.73279 0.04673,-0.07795 0.04673,-0.155914 0.140317,-0.187095 0.09354,-0.04674 0.140326,-0.171505 0.109144,-0.265052 -0.04673,-0.202685 0.0625,-0.34301 0.202686,-0.436557 0.296236,-0.187096 0.327418,-0.467738 0.249465,-0.732791 -0.140318,-0.514514 0.109136,-0.873115 0.405374,-1.216121 0.233866,-0.265059 0.311826,-0.561289 0.358602,-0.873125 0.01568,-0.07786 0,-0.140311 -0.109148,-0.07786 -0.04673,0.03108 -0.09354,0.04674 -0.155912,0.06241 -0.07786,0.01566 -0.171499,0.04674 -0.218278,-0.06241 -0.0625,-0.14033 0.07788,-0.109144 0.124736,-0.124739 0.280644,-0.155914 0.576876,-0.311824 0.623654,-0.686006 0.01568,-0.109145 0,-0.218286 -0.07788,-0.311829 -0.04673,-0.06248 -0.07786,-0.140317 -0.04673,-0.218282 0.343007,0.374193 0.296232,0.873113 0.311828,1.309662 0.1715,3.320954 -2.058054,6.205344 -5.223089,6.984911 z m -6.002657,-7.904784 c -0.171492,-0.109137 -0.311823,-0.280654 -0.54569,-0.280654 -0.0625,0.01565 -0.140319,0.03108 -0.202685,0.09354 -0.01568,0.01567 -0.03105,0.07787 0.01568,0.0624 0.249453,-0.09354 0.389776,0.01566 0.545694,0.187092 0.03105,0.03107 0.124715,0.06248 0.202685,0.01567 0,-0.03107 -0.01568,-0.07786 -0.01568,-0.07786 z m 0.467751,0.171493 c -0.0625,-0.09354 -0.155922,-0.109138 -0.265065,-0.124715 -0.140309,-0.03107 -0.07787,0.171493 -0.187083,0.155906 0.04673,0.01567 0.09354,0.04674 0.155911,0.06248 0.09354,-0.04674 0.202686,-0.06248 0.296237,-0.09354 z m 5.394587,-4.505888 c 0,-0.0624 -0.0625,-0.07786 -0.10914,-0.07786 -0.124722,0 -0.24946,0 -0.37419,0 -0.04673,0 -0.109136,-0.04673 -0.140328,0.01568 0.0625,0.03105 0.01568,0.140329 0.109137,0.1715 0.04673,0.01568 0.109151,0.01568 0.171514,0.03105 0.07787,-0.01568 0.171497,-0.04673 0.249462,-0.0625 0.04673,-0.03105 0.09354,-0.03105 0.09354,-0.07787 z m 0.498923,0.84194 c 0.09353,0.04673 0.249454,0.06249 0.07786,0.218273 -0.04673,0.04673 0,0.155915 -0.0624,0.218274 0.07787,0.04673 0.140321,-0.01567 0.202684,-0.01567 0.09354,0 0.202684,-0.01567 0.296234,-0.03106 0,-0.14032 -0.07788,-0.249458 -0.187095,-0.358602 -0.03105,-0.03106 -0.07787,-0.07788 -0.07787,-0.124729 0.01568,-0.155904 -0.07787,-0.23388 -0.202683,-0.202683 -0.124724,0.04673 -0.109142,0.171486 -0.04673,0.296232 z m -0.14032,-0.03106 c -0.07788,0.01566 -0.202686,0.04673 -0.202686,0.140323 0,0.06242 -0.09354,0.155907 0,0.187107 0.0625,0.01567 0.187088,-0.01566 0.23386,-0.06249 0.0625,-0.06241 0.07786,-0.155915 0.109146,-0.233858 -0.04673,-0.01567 -0.09355,-0.03107 -0.14032,-0.03107 z m -1.013434,-1.091376 c 0.0624,0 0.124727,-0.04673 0.187083,-0.07788 0.03105,-0.01568 0.0625,-0.03105 0.04673,-0.0624 -0.171505,-0.187102 0.0624,-0.07787 0.09355,-0.124736 0.03105,-0.03105 0.124727,-0.04673 0.140317,-0.07787 0.04673,-0.202686 0.202693,-0.233868 0.389782,-0.233868 -0.01568,0 0.01568,-0.01568 0.03105,-0.01568 -0.01568,-0.01568 -0.03105,-0.03105 -0.0625,-0.03105 -0.171509,-0.03105 -0.343022,-0.0624 -0.514522,-0.09352 -0.732791,-0.09355 -1.465577,0.0625 -2.213966,0.01568 -0.420963,-0.03105 -0.810742,0.155917 -1.231716,0.202687 -0.0625,0 -0.124714,0.04673 -0.187087,0.0625 -0.01568,0 -0.0625,0.04673 -0.01568,0.04673 0.140326,0.03106 0,0.0624 0,0.0624 -0.04673,0.0625 -0.124722,0.03105 -0.187089,0.04673 -0.03105,0.01568 -0.07788,0.04673 -0.07788,0.0625 0.01568,0.04673 0.0624,0.01568 0.09355,0.01568 0.10913,0 0.218273,0 0.327414,-0.01568 v 0 c 0.233861,-0.171511 0.498916,-0.23387 0.763973,-0.32742 0.03105,-0.01568 0.06241,0 0.09354,-0.01568 0,0.280634 0.202686,0.09354 0.296234,0.124716 0.124729,0.03105 0.311834,-0.04673 0.265055,0.202688 0,0.01568 0.01568,0.03105 0.03105,0.04673 0.09355,0.07788 0.0625,0.155915 -0.03105,0.187096 -0.187094,0.04673 -0.155908,0.202686 -0.171508,0.343011 0,0.218273 0.187107,0.233857 0.32742,0.296229 0.124728,0.04673 0.171503,-0.0625 0.233871,-0.124724 0.124724,-0.109145 0.202685,-0.265051 0.374192,-0.280648 0.343017,-0.04673 0.654833,-0.218281 0.997847,-0.233868 z m 5.425764,7.967149 c -0.01568,-0.04675 -0.03105,-0.07795 -0.03105,-0.124734 -0.03105,0.03116 -0.0625,0.06234 -0.07788,0.09354 -0.03105,0.04674 -0.04673,0.140324 -0.109137,0.171505 -0.29623,0.202684 -0.218264,0.530104 -0.327399,0.810747 -0.01568,0.04674 -0.01568,0.109137 0.04673,0.124735 0.04673,0.01559 0.09355,-0.01559 0.124743,-0.06241 0.155906,-0.32742 0.296228,-0.65484 0.374178,-1.013439 z m -1.106982,-4.474703 c -0.04673,0.109124 -0.155912,0 -0.218269,0.01567 -0.26505,0.06249 -0.46774,-0.06249 -0.686028,-0.1715 -0.07787,-0.03108 -0.171496,-0.01567 -0.187084,0.04674 -0.109148,0.358596 -0.249462,-0.03107 -0.358607,0.01567 -0.01568,0 -0.04673,-0.07786 -0.0625,-0.07786 -0.249461,-0.03108 -0.420968,-0.10914 -0.343015,-0.420969 0.01568,-0.04674 -0.07787,-0.07786 -0.124723,-0.0624 -0.311825,0.04674 -0.65484,-0.06248 -0.935486,0.155917 -0.03105,0.03107 -0.09353,0 -0.140318,0 -0.04673,0 -0.140317,0.01565 -0.140317,-0.04674 0,-0.07787 0.07786,-0.06239 0.140317,-0.07787 0.155914,-0.01566 0.233872,-0.10914 0.296233,-0.249462 0.07787,-0.202684 0.28065,-0.296237 0.420972,-0.389782 0.311822,-0.233868 0.420962,0.04673 0.592467,0.171504 0.0624,0.04673 0.124738,0.09354 0.202682,0.124725 0.04673,0.03108 0.09354,0.07787 0.07787,0.124732 -0.01568,0.07787 -0.07787,0.06242 -0.140317,0.06242 -0.03105,0.01566 -0.09355,-0.03108 -0.10914,0.03108 0,0.01566 0.03105,0.04674 0.0625,0.06248 0.04673,0.01566 0.109139,0.09354 0.140315,0.03108 0.03105,-0.07787 0.09354,-0.124738 0.140325,-0.202686 0.155906,-0.233876 -0.109143,-0.202693 -0.171501,-0.296236 -0.01568,-0.03107 -0.07788,-0.03107 -0.07788,-0.06248 -0.03105,-0.07787 -0.187099,-0.140322 -0.109131,-0.218276 0.07788,-0.07787 0.140318,0.07787 0.218265,0.10914 0.296237,0.109136 0.327423,0.42096 0.483342,0.623646 0.03105,0.04674 0.04673,0.14033 0.124722,0.109133 0.06241,-0.03108 0.09354,-0.109133 0.06241,-0.187084 -0.01568,-0.07787 -0.07788,-0.15592 0.03105,-0.187094 0.12473,-0.03108 0.140311,0.07787 0.155911,0.155908 0.03105,0.202683 0.155907,0.280645 0.358593,0.280645 0.109143,0 0.202693,0.09354 0.327427,0.04674 0.01568,0 0.04673,0.01565 0.04673,0.04674 0.01568,0.187099 -0.03105,0.311822 -0.07787,0.436564 z m -1.980088,-0.919885 c -0.03105,-0.07787 0.01568,-0.171521 -0.0625,-0.249461 -0.01568,0.07787 -0.04673,0.155909 -0.0624,0.233852 0.04673,0.03108 -0.01568,0.124741 0.07786,0.124741 0.04673,-0.01566 0.0625,-0.07787 0.04673,-0.109132 z m 1.839771,-0.296242 c -0.0625,0.01566 -0.109147,0.01566 -0.155915,-0.04673 -0.04673,-0.06248 -0.09354,-0.171502 -0.171497,-0.09354 -0.09355,0.07787 -0.140332,0.202684 -0.109145,0.327436 0.03105,0.09354 0.124724,0.140309 0.202692,0.109132 0.187092,-0.07787 0.343012,-0.03108 0.498917,0.06247 0.04673,0.03108 0.124729,0.07787 0.155916,0 0.03105,-0.07787 -0.03105,-0.109132 -0.07788,-0.140314 -0.07786,-0.06239 -0.171492,-0.124732 -0.233852,-0.202694 -0.03105,-0.04673 0.03106,-0.140312 -0.09354,-0.124723 -0.01568,0 -0.03105,0 -0.03105,0.01567 -0.03105,0.06248 0.04673,0.04673 0.0625,0.07787 0,0.01566 -0.01568,0.01566 -0.04673,0.01566 z m 0.483332,2.026866 c -0.04673,-0.140329 -0.140333,-0.249466 -0.21828,-0.374187 -0.01568,-0.03108 -0.04673,-0.06248 -0.09354,-0.04674 -0.06241,0.01566 -0.03105,0.06248 -0.01568,0.09354 0.187096,0.374185 0.343006,0.763975 0.498931,1.138151 0.03105,0.07787 0.124722,0.140339 0.202685,0.218289 0.01568,0.01566 0.03105,0.01566 0.04673,0.03107 0,-0.01567 0.01568,-0.04674 0,-0.01567 0,-0.452148 -0.296223,-0.701609 -0.420958,-1.044611 z m -1.715043,-3.508051 c -0.06241,-0.109142 -0.01568,-0.155918 0.07787,-0.202687 0.01568,-0.01568 0.04673,-0.04673 0.01568,-0.04673 -0.03106,-0.01568 -0.09355,-0.01568 -0.09355,0 -0.04673,0.109143 -0.405368,0.09354 -0.124724,0.32741 0,0 0,0.04673 0,0.04673 -0.109142,0.07786 -0.07788,0.311818 -0.296232,0.280632 -0.01568,0 -0.0624,0 -0.03105,0.03106 0.12474,0.155909 0.296232,0 0.45215,0.04673 0.04673,0.01567 0.07788,-0.04673 0.09354,-0.109147 0.01568,-0.171505 0.0624,-0.311831 0.280662,-0.202682 0.01568,0.01566 0.0625,0.01566 0.0625,-0.01566 0,0 -0.03105,-0.03107 -0.0625,-0.03107 -0.03105,0 -0.07788,0 -0.109146,0 -0.10915,-0.01566 -0.202695,-0.01566 -0.265057,-0.124739 z m 2.806435,3.383312 c -0.155916,-0.07787 -0.296232,-0.171504 -0.343008,-0.342992 -0.01568,-0.03107 -0.04673,-0.09354 -0.09355,-0.06248 -0.04673,0.03107 -0.03105,0.07787 0,0.124738 0.0625,0.09354 0.140331,0.155916 0.171508,0.249462 0.07787,0.296233 0.155913,0.202683 0.265054,0.03109 0,0 0,0 0,0 z m -9.791342,-4.209656 c -0.109143,0.06242 0.0625,0.07787 0.01568,0.155902 -0.04673,0.07787 0.07788,0.124757 0.10913,0.109148 0.140332,-0.01568 0.140332,-0.140321 0.109133,-0.249462 -0.01568,-0.0625 -0.07786,-0.01568 -0.12472,0 -0.04673,0.03105 -0.07788,0.03105 -0.10914,-0.01568 -0.01568,0 0,0 0,0 z m -1.106977,1.9957 c 0.01568,-0.06249 -0.04673,-0.07788 -0.09354,-0.07788 -0.09355,0.01567 -0.187101,0.06249 -0.233872,0.124731 -0.01568,0.03106 0.09354,-0.01567 0.124726,0.03106 0.0625,-0.04673 0.187085,0.04673 0.202693,-0.07786 z m -0.01568,0.249457 c -0.03105,0.03107 0.01568,0.07786 0.03105,0.06248 0.0624,-0.04673 0.14032,-0.09354 0.187096,-0.155911 0.01568,-0.01567 -0.07787,-0.04673 -0.140323,-0.04673 -0.124724,-0.03106 -0.03105,0.09354 -0.07788,0.140325 z m 9.557478,4.474693 c -0.07788,0 -0.109137,0.04674 -0.124741,0.109147 0,0.04675 -0.01568,0.109139 0.0625,0.109139 0.07787,0 0.07787,-0.09354 0.109145,-0.140326 0.03105,-0.06244 -0.01568,-0.06244 -0.04673,-0.07792 z m -9.713394,-4.537085 c -0.07787,0.01566 -0.124731,0.07787 -0.15591,0.14032 -0.03105,0.04673 -0.06242,0.12474 -0.07788,0.171503 0.01568,0 0.03105,0.01567 0.04673,0 0.09355,-0.07787 0.09355,-0.218276 0.218288,-0.29622 -0.03105,0 -0.03105,-0.01566 -0.03105,-0.01566 z"
     id="path2-3"
     style="fill:url(#linearGradient890);fill-opacity:1;stroke-width:0.155923" />
  <g
     transform="matrix(0.51428294,0,0,0.51428294,-66.429941,-510.88912)"
     id="g4">
    <path
       style="color:#000000;font-style:normal;font-variant:normal;font-weight:normal;font-stretch:normal;font-size:medium;line-height:normal;font-family:Sans;-inkscape-font-specification:Sans;text-indent:0;text-align:start;text-decoration:none;text-decoration-line:none;letter-spacing:normal;word-spacing:normal;text-transform:none;writing-mode:lr-tb;direction:ltr;baseline-shift:baseline;text-anchor:start;display:inline;overflow:visible;visibility:visible;opacity:1;fill:url(#linearGradient838);fill-opacity:1;fill-rule:nonzero;stroke:none;stroke-width:3.95596;marker:none;enable-background:accumulate"
       d="m 140.26136,1005.0678 c -3.98871,0 -7.39687,2.8599 -7.39687,6.6562 v 56.0165 c 0,2.3649 0.83647,3.8844 2.46043,5.2631 1.62397,1.3787 3.30936,2.0641 5.45993,2.0641 h 68.3709 c 1.64145,0.029 1.59477,-2.2249 3.9e-4,-2.2488 l -68.46587,-0.04 c -2.11598,0 -3.87416,-1.4929 -3.87416,-1.4929 0,0 -1.62016,-1.2165 -1.62016,-3.5457 v -56.0165 c 0,-2.6161 1.77916,-4.2946 4.88695,-4.2605 l 24.06655,-0.012 11.47627,10.2309 c 0.34679,0.3129 0.79077,0.759 1.25317,0.769 l 33.37023,-0.012 c 1.7015,-0.01 1.64773,-2.3444 -0.0538,-2.3717 h -32.61346 l -12.1651,-10.5312 c -0.35109,-0.3015 -0.79464,-0.4674 -1.25318,-0.4687 z m 38.81827,2.9062 c -1.55276,0 -1.55586,2.6709 0.0388,2.6937 l 29.7626,-0.041 c 3.0158,0 4.32232,0.9732 5.32647,1.91 1.00416,0.9367 2.53008,3.2301 2.53008,5.5933 v 54.9375 c 0.009,1.8591 2.19838,1.9203 2.20491,0.064 l -0.006,-55.0018 c -3.1e-4,-3.2104 -1.04994,-5.8983 -2.9343,-7.6562 -1.88434,-1.7579 -4.44981,-2.5 -7.12177,-2.5 h -29.61804 c -0.0611,0 -0.12228,0 -0.18339,0 z"
       id="path2-3-3"
       sodipodi:nodetypes="sssssccscsssccccccccsccsssccssscc" />
  </g>
</svg>
