<?xml version="1.0" encoding="UTF-8" standalone="no"?>
<svg
   xmlns:dc="http://purl.org/dc/elements/1.1/"
   xmlns:cc="http://creativecommons.org/ns#"
   xmlns:rdf="http://www.w3.org/1999/02/22-rdf-syntax-ns#"
   xmlns:svg="http://www.w3.org/2000/svg"
   xmlns="http://www.w3.org/2000/svg"
   xmlns:xlink="http://www.w3.org/1999/xlink"
   xmlns:sodipodi="http://sodipodi.sourceforge.net/DTD/sodipodi-0.dtd"
   xmlns:inkscape="http://www.inkscape.org/namespaces/inkscape"
   viewBox="0 0 48 48"
   version="1.1"
   id="svg27"
   sodipodi:docname="folder-image-people.svg"
   inkscape:version="1.0.1 (3bc2e813f5, 2020-09-07)">
  <metadata
     id="metadata33">
    <rdf:RDF>
      <cc:Work
         rdf:about="">
        <dc:format>image/svg+xml</dc:format>
        <dc:type
           rdf:resource="http://purl.org/dc/dcmitype/StillImage" />
      </cc:Work>
    </rdf:RDF>
  </metadata>
  <defs
     id="defs31">
    <linearGradient
       inkscape:collect="always"
       xlink:href="#linearGradient934"
       id="linearGradient902"
       x1="5"
       y1="49.9995"
       x2="94.999001"
       y2="49.9995"
       gradientUnits="userSpaceOnUse" />
    <linearGradient
       inkscape:collect="always"
       id="linearGradient934">
      <stop
         style="stop-color:#ffcc00;stop-opacity:1"
         offset="0"
         id="stop930" />
      <stop
         style="stop-color:#00ffff;stop-opacity:1"
         offset="1"
         id="stop932" />
    </linearGradient>
    <linearGradient
       inkscape:collect="always"
       xlink:href="#linearGradient853"
       id="linearGradient874"
       gradientUnits="userSpaceOnUse"
       x1="5"
       y1="49.9995"
       x2="94.999001"
       y2="49.9995" />
    <linearGradient
       inkscape:collect="always"
       id="linearGradient853">
      <stop
         style="stop-color:#008080;stop-opacity:1"
         offset="0"
         id="stop849" />
      <stop
         style="stop-color:#00e5e5;stop-opacity:1"
         offset="1"
         id="stop851" />
    </linearGradient>
    <linearGradient
       inkscape:collect="always"
       xlink:href="#linearGradient853"
       id="linearGradient854"
       gradientUnits="userSpaceOnUse"
       gradientTransform="matrix(0.50301007,0,0,0.5142736,-1.118072,-1.713352)"
       x1="6"
       y1="50.000134"
       x2="94.005508"
       y2="50.000134" />
    <linearGradient
       inkscape:collect="always"
       xlink:href="#linearGradient853"
       id="linearGradient963"
       gradientUnits="userSpaceOnUse"
       x1="5"
       y1="49.9995"
       x2="94.999001"
       y2="49.9995" />
    <linearGradient
       inkscape:collect="always"
       xlink:href="#linearGradient853"
       id="linearGradient965"
       gradientUnits="userSpaceOnUse"
       x1="5"
       y1="49.9995"
       x2="94.999001"
       y2="49.9995" />
    <linearGradient
       inkscape:collect="always"
       xlink:href="#linearGradient853"
       id="linearGradient967"
       gradientUnits="userSpaceOnUse"
       x1="5"
       y1="49.9995"
       x2="94.999001"
       y2="49.9995" />
  </defs>
  <sodipodi:namedview
     pagecolor="#ffffff"
     bordercolor="#666666"
     borderopacity="1"
     objecttolerance="10"
     gridtolerance="10"
     guidetolerance="10"
     inkscape:pageopacity="0"
     inkscape:pageshadow="2"
     inkscape:window-width="1920"
     inkscape:window-height="1016"
     id="namedview29"
     showgrid="false"
     inkscape:zoom="6.5416667"
     inkscape:cx="-21.40955"
     inkscape:cy="7.3064463"
     inkscape:window-x="0"
     inkscape:window-y="0"
     inkscape:window-maximized="1"
     inkscape:current-layer="svg27" />
  <linearGradient
     id="a"
     x2="0"
     y1="541.79797"
     y2="499.78421"
     gradientTransform="matrix(.69229859 0 0 .69207328 120.25629 150.83367)"
     gradientUnits="userSpaceOnUse">
    <stop
       stop-color="#3daee9"
       offset="0"
       id="stop2" />
    <stop
       stop-color="#6cc1ef"
       offset="1"
       id="stop4" />
  </linearGradient>
  <g
     id="g10"
     transform="matrix(0.22682397,0,0,0.22682397,12.808693,14.242036)"
     style="fill:url(#linearGradient902);fill-opacity:1">
    <path
       d="m 82.221,52.379 c -0.059,2.565 -3.859,4.637 -8.545,4.637 -4.686,0 -8.487,-2.071 -8.543,-4.637 -2.431,0.222 -4.681,0.295 -6.595,0.839 3.706,3.392 5.365,8.91 5.365,17.861 0,0.939 -0.066,1.825 -0.186,2.668 0.154,0.001 0.309,0.001 0.464,0.001 0.729,0 1.481,-0.005 2.246,-0.005 h 14.498 c 0.762,0 1.514,0.005 2.245,0.005 6.707,0 11.829,-0.345 11.829,-7.353 C 95,52.379 89.386,53.032 82.221,52.379 Z"
       id="path2-3"
       style="fill:url(#linearGradient963);fill-opacity:1" />
    <path
       d="m 73.677,54.217 c 6.483,0 11.736,-9.748 11.736,-16.228 0,-6.482 -5.253,-11.737 -11.736,-11.737 -6.481,0 -11.736,5.255 -11.736,11.737 -0.001,6.481 5.255,16.228 11.736,16.228 z"
       id="path4"
       style="fill:url(#linearGradient965);fill-opacity:1" />
    <path
       d="m 59.832,71.079 c 0,-18.021 -7.22,-17.181 -16.432,-18.021 -0.075,3.299 -4.962,5.961 -10.986,5.961 -6.023,0 -10.912,-2.662 -10.983,-5.961 C 12.216,53.9 5,53.059 5,71.079 c 0,9.011 6.585,9.454 15.208,9.454 0.939,0 1.905,-0.006 2.889,-0.006 h 18.639 c 0.98,0 1.947,0.006 2.888,0.006 8.62,0 15.208,-0.442 15.208,-9.454 z"
       id="path6"
       style="fill:url(#linearGradient967);fill-opacity:1" />
    <path
       d="m 25.49,52.49 c 0.865,0.75 1.778,1.382 2.73,1.866 1.333,0.676 2.739,1.065 4.195,1.065 1.458,0 2.866,-0.391 4.2,-1.068 0.951,-0.482 1.862,-1.113 2.726,-1.862 1.167,-1.014 2.249,-2.236 3.213,-3.598 3.042,-4.29 4.951,-9.907 4.951,-14.336 0,-8.334 -6.754,-15.091 -15.09,-15.091 -8.334,0 -15.089,6.756 -15.089,15.091 0,4.43 1.91,10.046 4.951,14.336 0.965,1.361 2.045,2.584 3.213,3.597 z"
       id="path8"
       style="fill:url(#linearGradient874);fill-opacity:1" />
  </g>
  <path
     style="color:#000000;font-style:normal;font-variant:normal;font-weight:normal;font-stretch:normal;font-size:medium;line-height:normal;font-family:Sans;-inkscape-font-specification:Sans;text-indent:0;text-align:start;text-decoration:none;text-decoration-line:none;letter-spacing:normal;word-spacing:normal;text-transform:none;writing-mode:lr-tb;direction:ltr;baseline-shift:baseline;text-anchor:start;display:inline;overflow:visible;visibility:visible;opacity:1;fill:url(#linearGradient854);fill-opacity:1;fill-rule:nonzero;stroke:none;stroke-width:2.03448;marker:none;enable-background:accumulate"
     d="M 5.704009,6.000755 C 3.652723,6.000755 1.9,7.471533 1.9,9.423889 v 28.807813 c 0,1.216205 0.430165,1.997645 1.265335,2.70667 0.835161,0.709035 1.701919,1.061515 2.80789,1.061515 h 35.161359 c 0.84416,0.01492 0.820154,-1.144206 2e-4,-1.156496 L 5.924591,40.822814 c -1.088193,0 -1.992378,-0.767759 -1.992378,-0.767759 0,0 -0.833213,-0.625605 -0.833213,-1.823454 V 9.423786 c 0,-1.34541 0.914988,-2.208605 2.513227,-2.191044 l 12.376798,-0.0065 5.901951,5.261468 c 0.178345,0.16092 0.40667,0.390343 0.64447,0.395473 l 17.161429,-0.0065 c 0.87503,-0.0051 0.847386,-1.205662 -0.02761,-1.2197 H 24.897013 L 18.640819,6.241054 C 18.460268,6.085972 18.232156,6.000645 17.996343,6 Z M 25.667234,7.49536 c -0.798545,-0.0029 -0.800149,1.37358 0.01992,1.385309 l 15.306111,-0.02094 c 1.550948,-0.0029 2.222866,0.500474 2.73927,0.982231 0.516417,0.481751 1.301159,1.661186 1.301159,2.876517 v 28.252907 c 0.0051,0.956094 1.130556,0.987562 1.133916,0.03294 L 46.16431,12.718346 C 46.164148,11.067307 45.624348,9.684988 44.655271,8.780946 43.686199,7.876893 42.366848,7.495264 40.992729,7.495264 H 25.760967 c -0.03142,-0.002 -0.0629,-0.002 -0.09435,0 z"
     id="path2-3-3"
     sodipodi:nodetypes="sssssccscsssccccccccsccsssccssscc" />
</svg>
