<?xml version="1.0" encoding="UTF-8" standalone="no"?>
<svg
   xmlns:dc="http://purl.org/dc/elements/1.1/"
   xmlns:cc="http://creativecommons.org/ns#"
   xmlns:rdf="http://www.w3.org/1999/02/22-rdf-syntax-ns#"
   xmlns:svg="http://www.w3.org/2000/svg"
   xmlns="http://www.w3.org/2000/svg"
   xmlns:xlink="http://www.w3.org/1999/xlink"
   xmlns:sodipodi="http://sodipodi.sourceforge.net/DTD/sodipodi-0.dtd"
   xmlns:inkscape="http://www.inkscape.org/namespaces/inkscape"
   viewBox="0 0 48 48"
   version="1.1"
   id="svg27"
   sodipodi:docname="folder-black.svg"
   inkscape:version="1.0.1 (3bc2e813f5, 2020-09-07)">
  <metadata
     id="metadata33">
    <rdf:RDF>
      <cc:Work
         rdf:about="">
        <dc:format>image/svg+xml</dc:format>
        <dc:type
           rdf:resource="http://purl.org/dc/dcmitype/StillImage" />
      </cc:Work>
    </rdf:RDF>
  </metadata>
  <defs
     id="defs31">
    <linearGradient
       inkscape:collect="always"
       xlink:href="#linearGradient853"
       id="linearGradient854"
       gradientUnits="userSpaceOnUse"
       gradientTransform="matrix(0.50301041,0,0,0.51427395,-1.1181004,-1.713379)"
       x1="6"
       y1="50.000134"
       x2="94.005508"
       y2="50.000134" />
    <linearGradient
       inkscape:collect="always"
       id="linearGradient853">
      <stop
         style="stop-color:#2d2d2d;stop-opacity:1"
         offset="0"
         id="stop849" />
      <stop
         style="stop-color:#404040;stop-opacity:1"
         offset="1"
         id="stop851" />
    </linearGradient>
  </defs>
  <sodipodi:namedview
     pagecolor="#ffffff"
     bordercolor="#666666"
     borderopacity="1"
     objecttolerance="10"
     gridtolerance="10"
     guidetolerance="10"
     inkscape:pageopacity="0"
     inkscape:pageshadow="2"
     inkscape:window-width="1920"
     inkscape:window-height="1016"
     id="namedview29"
     showgrid="false"
     inkscape:zoom="6.5416667"
     inkscape:cx="-32.006523"
     inkscape:cy="7.6597535"
     inkscape:window-x="0"
     inkscape:window-y="0"
     inkscape:window-maximized="1"
     inkscape:current-layer="svg27" />
  <linearGradient
     id="a"
     x2="0"
     y1="541.79797"
     y2="499.78421"
     gradientTransform="matrix(.69229859 0 0 .69207328 120.25629 150.83367)"
     gradientUnits="userSpaceOnUse">
    <stop
       stop-color="#3e3e3e"
       offset="0"
       id="stop2" />
    <stop
       stop-color="#494949"
       offset="1"
       id="stop4" />
  </linearGradient>
  <path
     style="color:#000000;font-style:normal;font-variant:normal;font-weight:normal;font-stretch:normal;font-size:medium;line-height:normal;font-family:Sans;-inkscape-font-specification:Sans;text-indent:0;text-align:start;text-decoration:none;text-decoration-line:none;letter-spacing:normal;word-spacing:normal;text-transform:none;writing-mode:lr-tb;direction:ltr;baseline-shift:baseline;text-anchor:start;display:inline;overflow:visible;visibility:visible;opacity:1;fill:url(#linearGradient854);fill-opacity:1;fill-rule:nonzero;stroke:none;stroke-width:2.03455;marker:none;enable-background:accumulate"
     d="M 5.70402,6.000736 C 3.65264,6.000736 1.9,7.471515 1.9,9.423868 v 28.807833 c 0,1.216205 0.43018,1.99765 1.26538,2.706667 0.83519,0.709046 1.70189,1.061519 2.80796,1.061519 h 35.161263 c 0.844162,0.01499 0.820157,-1.144201 2e-4,-1.156488 L 5.92454,40.822839 c -1.08815,0 -1.99237,-0.767756 -1.99237,-0.767756 0,0 -0.83307,-0.625597 -0.83307,-1.823449 V 9.423791 c 0,-1.345411 0.915,-2.208611 2.51316,-2.191042 l 12.376772,-0.0065 5.901956,5.261469 c 0.178342,0.160919 0.40667,0.390338 0.644472,0.395476 l 17.161436,-0.0065 c 0.875033,-0.0058 0.847387,-1.205666 -0.0276,-1.219703 H 24.897038 L 18.640842,6.241055 C 18.460286,6.085973 18.23218,6.000646 17.996362,6 Z m 19.963229,1.494605 c -0.798551,-0.003 -0.800154,1.373584 0.01987,1.385309 L 40.993243,8.85971 c 1.550947,-0.003 2.222864,0.500476 2.739266,0.982235 0.516419,0.481755 1.301161,1.661186 1.301161,2.876515 v 28.252922 c 0.0058,0.956097 1.130561,0.987554 1.133921,0.03299 l -0.004,-28.285994 C 46.163434,11.067346 45.623636,9.685024 44.654557,8.780981 43.685486,7.876931 42.366133,7.495296 40.992014,7.495296 H 25.760363 c -0.03139,-0.002 -0.06293,-0.002 -0.09434,0 z"
     id="path2-3"
     sodipodi:nodetypes="sssssccscsssccccccccsccsssccssscc" />
</svg>
