<?xml version="1.0" encoding="UTF-8" standalone="no"?>
<svg
   xmlns:dc="http://purl.org/dc/elements/1.1/"
   xmlns:cc="http://creativecommons.org/ns#"
   xmlns:rdf="http://www.w3.org/1999/02/22-rdf-syntax-ns#"
   xmlns:svg="http://www.w3.org/2000/svg"
   xmlns="http://www.w3.org/2000/svg"
   xmlns:xlink="http://www.w3.org/1999/xlink"
   xmlns:sodipodi="http://sodipodi.sourceforge.net/DTD/sodipodi-0.dtd"
   xmlns:inkscape="http://www.inkscape.org/namespaces/inkscape"
   viewBox="0 0 48 48"
   version="1.1"
   id="svg27"
   sodipodi:docname="folder-publicshare.svg"
   inkscape:version="1.0.1 (3bc2e813f5, 2020-09-07)">
  <metadata
     id="metadata33">
    <rdf:RDF>
      <cc:Work
         rdf:about="">
        <dc:format>image/svg+xml</dc:format>
        <dc:type
           rdf:resource="http://purl.org/dc/dcmitype/StillImage" />
      </cc:Work>
    </rdf:RDF>
  </metadata>
  <defs
     id="defs31">
    <linearGradient
       inkscape:collect="always"
       xlink:href="#linearGradient853"
       id="linearGradient890"
       x1="406.57678"
       y1="519.45715"
       x2="425.97177"
       y2="519.45715"
       gradientUnits="userSpaceOnUse"
       gradientTransform="matrix(0.69256281,0,0,0.69256281,-264.43991,-333.21482)" />
    <linearGradient
       inkscape:collect="always"
       id="linearGradient853">
      <stop
         style="stop-color:#008080;stop-opacity:1"
         offset="0"
         id="stop849" />
      <stop
         style="stop-color:#00e5e5;stop-opacity:1"
         offset="1"
         id="stop851" />
    </linearGradient>
    <linearGradient
       inkscape:collect="always"
       xlink:href="#linearGradient853"
       id="linearGradient854"
       gradientUnits="userSpaceOnUse"
       gradientTransform="matrix(0.50300263,0,0,0.51426598,-1.118013,-1.712701)"
       x1="6"
       y1="50.000134"
       x2="94.005508"
       y2="50.000134" />
  </defs>
  <sodipodi:namedview
     pagecolor="#ffffff"
     bordercolor="#666666"
     borderopacity="1"
     objecttolerance="10"
     gridtolerance="10"
     guidetolerance="10"
     inkscape:pageopacity="0"
     inkscape:pageshadow="2"
     inkscape:window-width="1920"
     inkscape:window-height="1016"
     id="namedview29"
     showgrid="false"
     inkscape:zoom="9.2513137"
     inkscape:cx="-2.2873586"
     inkscape:cy="38.262343"
     inkscape:window-x="0"
     inkscape:window-y="0"
     inkscape:window-maximized="1"
     inkscape:current-layer="svg27" />
  <linearGradient
     id="a"
     x2="0"
     y1="541.79797"
     y2="499.78421"
     gradientTransform="matrix(.69229859 0 0 .69207328 120.25629 150.83367)"
     gradientUnits="userSpaceOnUse">
    <stop
       stop-color="#3daee9"
       offset="0"
       id="stop2" />
    <stop
       stop-color="#6cc1ef"
       offset="1"
       id="stop4" />
  </linearGradient>
  <path
     d="m 19.222212,25.26823 a 1.0589603,1.0589603 0 1 1 1.058962,-1.058964 1.0589603,1.0589603 0 0 1 -1.058962,1.058964 z m 1.410561,0.945001 a 0.86301107,0.86301107 0 0 0 -0.715707,-0.657334 0.22374354,0.22374354 0 0 0 -0.176488,0.05143 l -0.277942,0.241807 a 0.36132498,0.36132498 0 0 1 -0.469732,0 l -0.277936,-0.241807 a 0.22374354,0.22374354 0 0 0 -0.176488,-0.05143 0.86162068,0.86162068 0 0 0 -0.714321,0.657335 l -0.678171,2.853081 a 0.36688382,0.36688382 0 0 0 0.314069,0.429417 0.34186906,0.34186906 0 0 0 0.138966,-0.01253 l -0.314056,1.325786 a 0.23486122,0.23486122 0 0 0 0.229298,0.277946 h 0.940822 l 0.184838,2.065112 a 0.34742791,0.34742791 0 0 0 0.344644,0.308516 h 0.473891 a 0.34742791,0.34742791 0 0 0 0.344649,-0.308517 l 0.184828,-2.065111 h 0.94084 a 0.23486122,0.23486122 0 0 0 0.229303,-0.277946 l -0.316854,-1.325787 a 0.34186906,0.34186906 0 0 0 0.138973,0.01253 0.36688382,0.36688382 0 0 0 0.314077,-0.429417 z m 8.924728,-2.005353 a 1.0589603,1.0589603 0 1 0 -1.058961,1.058958 1.0589603,1.0589603 0 0 0 1.058961,-1.058958 z m 0.351591,2.005353 a 0.86301107,0.86301107 0 0 0 -0.715698,-0.657334 0.22374354,0.22374354 0 0 0 -0.176493,0.05143 l -0.277939,0.241807 a 0.36132498,0.36132498 0 0 1 -0.469729,0 l -0.277941,-0.241807 a 0.22374354,0.22374354 0 0 0 -0.176487,-0.05143 0.86162068,0.86162068 0 0 0 -0.714313,0.657335 l -0.680964,2.85308 a 0.36688382,0.36688382 0 0 0 0.314076,0.429417 0.34186906,0.34186906 0 0 0 0.13897,-0.01253 l -0.318247,1.325787 a 0.23486122,0.23486122 0 0 0 0.2293,0.277946 h 0.940846 l 0.184824,2.065111 a 0.34742791,0.34742791 0 0 0 0.346044,0.308517 h 0.473896 a 0.34742791,0.34742791 0 0 0 0.346031,-0.308517 l 0.184838,-2.065111 h 0.940832 a 0.23486122,0.23486122 0 0 0 0.2293,-0.277946 L 30.113383,29.4832 a 0.34047931,0.34047931 0 0 0 0.13897,0.01253 0.36688382,0.36688382 0 0 0 0.314074,-0.429416 z m -7.308491,-3.771676 a 1.0589603,1.0589603 0 1 0 -1.058959,1.058962 1.0589603,1.0589603 0 0 0 1.058959,-1.058962 z m 4.63747,0 a 1.0589603,1.0589603 0 1 0 -1.058968,1.058962 1.0589603,1.0589603 0 0 0 1.058968,-1.058962 z m -3.378395,-0.707363 a 1.0589603,1.0589603 0 1 0 -1.058956,-1.058958 1.0589603,1.0589603 0 0 0 1.058956,1.058958 z m 0,3.532644 a 1.0589603,1.0589603 0 1 0 -1.058956,-1.058958 1.0603501,1.0603501 0 0 0 1.058956,1.060352 z m 1.004762,0.277946 h -0.366884 a 0.22374354,0.22374354 0 0 0 -0.119515,0.05138 l -0.27794,0.243201 a 0.3627147,0.3627147 0 0 1 -0.469723,0 l -0.277943,-0.243201 a 0.22513325,0.22513325 0 0 0 -0.119517,-0.05138 h -0.378002 a 0.89636391,0.89636391 0 0 0 -0.890802,0.996427 l 0.259879,1.959488 a 0.76156195,0.76156195 0 0 0 0.494743,0.628153 l 0.439144,4.030161 a 0.34742791,0.34742791 0 0 0 0.34604,0.308517 h 0.694848 a 0.34742791,0.34742791 0 0 0 0.344651,-0.308517 l 0.437764,-4.02183 a 0.76017242,0.76017242 0 0 0 0.512799,-0.633702 l 0.261273,-1.96227 a 0.89636391,0.89636391 0 0 0 -0.890815,-0.995041 z"
     id="path4"
     style="fill:url(#linearGradient890);fill-opacity:1;stroke-width:0.138977" />
  <path
     style="color:#000000;font-style:normal;font-variant:normal;font-weight:normal;font-stretch:normal;font-size:medium;line-height:normal;font-family:Sans;-inkscape-font-specification:Sans;text-indent:0;text-align:start;text-decoration:none;text-decoration-line:none;letter-spacing:normal;word-spacing:normal;text-transform:none;writing-mode:lr-tb;direction:ltr;baseline-shift:baseline;text-anchor:start;display:inline;overflow:visible;visibility:visible;opacity:1;fill:url(#linearGradient854);fill-opacity:1;fill-rule:nonzero;stroke:none;stroke-width:2.03449;marker:none;enable-background:accumulate"
     d="M 5.703952,6.001292 C 3.652696,6.001292 1.9,7.47205 1.9,9.42437 v 28.807388 c 0,1.216187 0.430155,1.997616 1.265308,2.70663 0.835159,0.709025 1.701902,1.0615 2.807857,1.0615 h 35.160839 c 0.844146,0.0149 0.82014,-1.144191 1.95e-4,-1.156479 L 5.924527,40.822841 c -1.08817,0 -1.992344,-0.767746 -1.992344,-0.767746 0,0 -0.833204,-0.625595 -0.833204,-1.823423 V 9.424262 c 0,-1.345387 0.914979,-2.208571 2.513191,-2.191007 l 12.376621,-0.0068 5.901856,5.26139 c 0.178346,0.160918 0.406671,0.390334 0.644461,0.395465 l 17.16118,-0.0068 c 0.875015,-0.0058 0.847371,-1.205647 -0.02762,-1.219685 H 24.896671 L 18.640562,6.241054 C 18.460016,6.085968 18.231907,6.000643 17.996094,6 Z m 19.962926,1.494583 c -0.798535,-0.003 -0.800131,1.373562 0.01989,1.385281 l 15.305884,-0.0209 c 1.550925,-0.003 2.222834,0.500466 2.739224,0.982216 0.516414,0.481745 1.301145,1.661166 1.301145,2.876473 v 28.252412 c 0.0058,0.956079 1.130541,0.987545 1.133899,0.03291 l -0.004,-28.285555 C 46.162764,11.067708 45.622974,9.685407 44.65391,8.781375 43.684853,7.877343 42.36552,7.49571 40.991422,7.49571 H 25.760065 c -0.03138,-0.002 -0.06289,-0.002 -0.09433,0 z"
     id="path2-3"
     sodipodi:nodetypes="sssssccscsssccccccccsccsssccssscc" />
</svg>
