<?xml version="1.0" encoding="UTF-8" standalone="no"?>
<svg
   xmlns:dc="http://purl.org/dc/elements/1.1/"
   xmlns:cc="http://creativecommons.org/ns#"
   xmlns:rdf="http://www.w3.org/1999/02/22-rdf-syntax-ns#"
   xmlns:svg="http://www.w3.org/2000/svg"
   xmlns="http://www.w3.org/2000/svg"
   xmlns:xlink="http://www.w3.org/1999/xlink"
   xmlns:sodipodi="http://sodipodi.sourceforge.net/DTD/sodipodi-0.dtd"
   xmlns:inkscape="http://www.inkscape.org/namespaces/inkscape"
   viewBox="0 0 48 48"
   version="1.1"
   id="svg27"
   sodipodi:docname="folder-gdrive.svg"
   inkscape:version="1.0.1 (3bc2e813f5, 2020-09-07)">
  <metadata
     id="metadata33">
    <rdf:RDF>
      <cc:Work
         rdf:about="">
        <dc:format>image/svg+xml</dc:format>
        <dc:type
           rdf:resource="http://purl.org/dc/dcmitype/StillImage" />
      </cc:Work>
    </rdf:RDF>
  </metadata>
  <defs
     id="defs31">
    <linearGradient
       inkscape:collect="always"
       xlink:href="#linearGradient853"
       id="linearGradient894"
       x1="36.23"
       y1="34.7715"
       x2="95.899002"
       y2="34.7715"
       gradientUnits="userSpaceOnUse" />
    <linearGradient
       inkscape:collect="always"
       id="linearGradient853">
      <stop
         style="stop-color:#008080;stop-opacity:1"
         offset="0"
         id="stop849" />
      <stop
         style="stop-color:#00e5e5;stop-opacity:1"
         offset="1"
         id="stop851" />
    </linearGradient>
    <linearGradient
       inkscape:collect="always"
       xlink:href="#linearGradient853"
       id="linearGradient892"
       x1="22.782"
       y1="76.005997"
       x2="95.899002"
       y2="76.005997"
       gradientUnits="userSpaceOnUse" />
    <linearGradient
       inkscape:collect="always"
       xlink:href="#linearGradient853"
       id="linearGradient890"
       x1="4"
       y1="49.855499"
       x2="48.738998"
       y2="49.855499"
       gradientUnits="userSpaceOnUse" />
    <linearGradient
       inkscape:collect="always"
       xlink:href="#linearGradient853"
       id="linearGradient854"
       gradientUnits="userSpaceOnUse"
       gradientTransform="matrix(0.50301804,0,0,0.51428175,-1.1181061,-1.714045)"
       x1="6"
       y1="50.000134"
       x2="94.005508"
       y2="50.000134" />
  </defs>
  <sodipodi:namedview
     pagecolor="#ffffff"
     bordercolor="#666666"
     borderopacity="1"
     objecttolerance="10"
     gridtolerance="10"
     guidetolerance="10"
     inkscape:pageopacity="0"
     inkscape:pageshadow="2"
     inkscape:window-width="1920"
     inkscape:window-height="1016"
     id="namedview29"
     showgrid="false"
     inkscape:zoom="9.2513137"
     inkscape:cx="-6.2387386"
     inkscape:cy="14.774381"
     inkscape:window-x="0"
     inkscape:window-y="0"
     inkscape:window-maximized="1"
     inkscape:current-layer="svg27" />
  <linearGradient
     id="a"
     x2="0"
     y1="541.79797"
     y2="499.78421"
     gradientTransform="matrix(.69229859 0 0 .69207328 120.25629 150.83367)"
     gradientUnits="userSpaceOnUse">
    <stop
       stop-color="#3daee9"
       offset="0"
       id="stop2" />
    <stop
       stop-color="#6cc1ef"
       offset="1"
       id="stop4" />
  </linearGradient>
  <polygon
     points="36.23,10 65.446,59.543 95.899,59.543 66.683,10 "
     id="polygon2"
     transform="matrix(0.17535771,0,0,0.17535771,14.891475,17.750095)"
     style="fill:url(#linearGradient894);fill-opacity:1" />
  <polygon
     points="37.854,63.021 22.782,88.991 80.827,88.991 95.899,63.021 "
     id="polygon4"
     transform="matrix(0.17535771,0,0,0.17535771,14.891475,17.750095)"
     style="fill:url(#linearGradient892);fill-opacity:1" />
  <polygon
     points="33.281,12.033 4,61.631 19.458,87.678 48.739,38.08 "
     id="polygon6"
     transform="matrix(0.17535771,0,0,0.17535771,14.891475,17.750095)"
     style="fill:url(#linearGradient890);fill-opacity:1" />
  <path
     style="color:#000000;font-style:normal;font-variant:normal;font-weight:normal;font-stretch:normal;font-size:medium;line-height:normal;font-family:Sans;-inkscape-font-specification:Sans;text-indent:0;text-align:start;text-decoration:none;text-decoration-line:none;letter-spacing:normal;word-spacing:normal;text-transform:none;writing-mode:lr-tb;direction:ltr;baseline-shift:baseline;text-anchor:start;display:inline;overflow:visible;visibility:visible;opacity:1;fill:url(#linearGradient854);fill-opacity:1;fill-rule:nonzero;stroke:none;stroke-width:2.03448;marker:none;enable-background:accumulate"
     d="M 5.704074,6.000189 C 3.652753,6.000189 1.9,7.470987 1.9,9.423375 v 28.808269 c 0,1.216223 0.430172,1.997675 1.265355,2.706712 0.835179,0.709043 1.701942,1.061528 2.807938,1.061528 h 35.161911 c 0.844167,0.01491 0.820167,-1.144223 2.01e-4,-1.156507 l -35.210751,-0.0206 c -1.088205,0 -1.992412,-0.767772 -1.992412,-0.767772 0,0 -0.833219,-0.625611 -0.833219,-1.823479 V 9.423278 c 0,-1.345433 0.914996,-2.208645 2.513263,-2.191077 l 12.376994,-0.0062 5.902042,5.26155 c 0.17835,0.160923 0.406676,0.390337 0.644481,0.395477 l 17.161697,-0.0062 c 0.87505,-0.005 0.847402,-1.205685 -0.02764,-1.219723 H 24.897347 L 18.641058,6.241064 C 18.4605,6.085976 18.23239,6.000649 17.996575,6 Z m 19.963532,1.494623 c -0.798554,-0.0028 -0.800161,1.373605 0.0199,1.385334 l 15.306361,-0.02096 c 1.550973,-0.0028 2.222898,0.500484 2.739311,0.982247 0.516426,0.481756 1.301177,1.661214 1.301177,2.876562 v 28.253364 c 0.005,0.956106 1.130579,0.987573 1.133936,0.03292 l -0.0032,-28.286418 C 46.164933,11.066801 45.62513,9.68446 44.656033,8.7804 43.686951,7.876338 42.367577,7.494693 40.993436,7.494693 H 25.761409 c -0.03146,-0.002 -0.0629,-0.002 -0.09433,0 z"
     id="path2-3"
     sodipodi:nodetypes="sssssccscsssccccccccsccsssccssscc" />
</svg>
