<?xml version="1.0" encoding="UTF-8" standalone="no"?>
<svg
   xmlns:dc="http://purl.org/dc/elements/1.1/"
   xmlns:cc="http://creativecommons.org/ns#"
   xmlns:rdf="http://www.w3.org/1999/02/22-rdf-syntax-ns#"
   xmlns:svg="http://www.w3.org/2000/svg"
   xmlns="http://www.w3.org/2000/svg"
   xmlns:xlink="http://www.w3.org/1999/xlink"
   xmlns:sodipodi="http://sodipodi.sourceforge.net/DTD/sodipodi-0.dtd"
   xmlns:inkscape="http://www.inkscape.org/namespaces/inkscape"
   viewBox="0 0 48 48"
   version="1.1"
   id="svg27"
   sodipodi:docname="folder-Pop_OS.svg"
   inkscape:version="1.0.2 (e86c870879, 2021-01-15)">
  <metadata
     id="metadata33">
    <rdf:RDF>
      <cc:Work
         rdf:about="">
        <dc:format>image/svg+xml</dc:format>
        <dc:type
           rdf:resource="http://purl.org/dc/dcmitype/StillImage" />
      </cc:Work>
    </rdf:RDF>
  </metadata>
  <defs
     id="defs31">
    <linearGradient
       inkscape:collect="always"
       xlink:href="#linearGradient836"
       id="linearGradient838"
       x1="6"
       y1="50.000134"
       x2="94.005508"
       y2="50.000134"
       gradientUnits="userSpaceOnUse"
       gradientTransform="matrix(0.9780981,0,0,1,64.250683,974.47294)" />
    <linearGradient
       inkscape:collect="always"
       id="linearGradient836">
      <stop
         style="stop-color:#008080;stop-opacity:1"
         offset="0"
         id="stop832" />
      <stop
         style="stop-color:#00e5e5;stop-opacity:1"
         offset="1"
         id="stop834" />
    </linearGradient>
    <linearGradient
       inkscape:collect="always"
       xlink:href="#linearGradient836"
       id="linearGradient926"
       x1="423.31808"
       y1="517.20392"
       x2="426.5556"
       y2="517.20392"
       gradientUnits="userSpaceOnUse"
       gradientTransform="matrix(0.97142994,0,0,0.97144063,-380.63498,-477.33057)" />
    <linearGradient
       inkscape:collect="always"
       xlink:href="#linearGradient836"
       id="linearGradient928"
       x1="413.9173"
       y1="518.79504"
       x2="417.81851"
       y2="518.79504"
       gradientUnits="userSpaceOnUse"
       gradientTransform="matrix(0.97142994,0,0,0.97144063,-380.63498,-477.33057)" />
    <linearGradient
       inkscape:collect="always"
       xlink:href="#linearGradient836"
       id="linearGradient930"
       x1="418.5582"
       y1="518.65289"
       x2="422.60925"
       y2="518.65289"
       gradientUnits="userSpaceOnUse"
       gradientTransform="matrix(0.97142994,0,0,0.97144063,-380.63498,-477.33057)" />
    <linearGradient
       inkscape:collect="always"
       xlink:href="#linearGradient836"
       id="linearGradient932"
       x1="406.31744"
       y1="517.87299"
       x2="413.16266"
       y2="517.87299"
       gradientUnits="userSpaceOnUse"
       gradientTransform="matrix(0.97142994,0,0,0.97144063,-380.63498,-477.33057)" />
    <linearGradient
       inkscape:collect="always"
       xlink:href="#linearGradient836"
       id="linearGradient934"
       x1="420.06085"
       y1="524.62439"
       x2="426.59094"
       y2="524.62439"
       gradientUnits="userSpaceOnUse"
       gradientTransform="matrix(0.97142994,0,0,0.97144063,-380.63498,-477.33057)" />
    <linearGradient
       inkscape:collect="always"
       xlink:href="#linearGradient836"
       id="linearGradient936"
       x1="415.65665"
       y1="526.09137"
       x2="419.34311"
       y2="526.09137"
       gradientUnits="userSpaceOnUse"
       gradientTransform="matrix(0.97142994,0,0,0.97144063,-380.63498,-477.33057)" />
  </defs>
  <sodipodi:namedview
     pagecolor="#ffffff"
     bordercolor="#666666"
     borderopacity="1"
     objecttolerance="10"
     gridtolerance="10"
     guidetolerance="10"
     inkscape:pageopacity="0"
     inkscape:pageshadow="2"
     inkscape:window-width="1920"
     inkscape:window-height="1007"
     id="namedview29"
     showgrid="false"
     inkscape:zoom="6.5416667"
     inkscape:cx="-33.315536"
     inkscape:cy="8.7432396"
     inkscape:window-x="0"
     inkscape:window-y="0"
     inkscape:window-maximized="1"
     inkscape:current-layer="svg27"
     inkscape:document-rotation="0" />
  <linearGradient
     id="a"
     x2="0"
     y1="541.79797"
     y2="499.78421"
     gradientTransform="matrix(.69229859 0 0 .69207328 120.25629 150.83367)"
     gradientUnits="userSpaceOnUse">
    <stop
       stop-color="#3daee9"
       offset="0"
       id="stop2" />
    <stop
       stop-color="#6cc1ef"
       offset="1"
       id="stop4" />
  </linearGradient>
  <g
     transform="matrix(0.51428191,0,0,0.51428191,-34.161072,-502.86789)"
     id="g4">
    <path
       style="color:#000000;font-style:normal;font-variant:normal;font-weight:normal;font-stretch:normal;font-size:medium;line-height:normal;font-family:Sans;-inkscape-font-specification:Sans;text-indent:0;text-align:start;text-decoration:none;text-decoration-line:none;letter-spacing:normal;word-spacing:normal;text-transform:none;writing-mode:lr-tb;direction:ltr;baseline-shift:baseline;text-anchor:start;display:inline;overflow:visible;visibility:visible;opacity:1;fill:url(#linearGradient838);fill-opacity:1;fill-rule:nonzero;stroke:none;stroke-width:3.95596;marker:none;enable-background:accumulate"
       d="m 77.516136,989.47294 c -3.988712,0 -7.396866,2.85993 -7.396866,6.65625 v 56.01651 c 0,2.3649 0.836461,3.8844 2.460429,5.2631 1.623967,1.3787 3.30936,2.0641 5.459931,2.0641 h 68.3709 c 1.64145,0.029 1.59477,-2.2249 3.9e-4,-2.2488 l -68.465873,-0.04 c -2.115981,0 -3.874159,-1.4929 -3.874159,-1.4929 0,0 -1.620163,-1.2165 -1.620163,-3.5457 v -56.01651 c 0,-2.61614 1.77916,-4.29462 4.886948,-4.26047 l 24.066557,-0.0121 11.47627,10.23088 c 0.34679,0.3129 0.79077,0.759 1.25317,0.769 l 33.37023,-0.012 c 1.7015,-0.01 1.64773,-2.3444 -0.0538,-2.3717 h -32.61346 l -12.1651,-10.53119 c -0.35109,-0.30157 -0.79464,-0.46748 -1.25318,-0.46875 z m 38.818274,2.90625 c -1.55276,-0.004 -1.55586,2.67092 0.0388,2.69371 l 29.7626,-0.0408 c 3.0158,-0.004 4.32232,0.97316 5.32647,1.90993 1.00416,0.93677 2.53008,3.23017 2.53008,5.59337 v 54.9375 c 0.009,1.8591 2.19838,1.9203 2.20491,0.064 l -0.006,-55.0018 c -3.1e-4,-3.21041 -1.04994,-5.89832 -2.9343,-7.65623 -1.88434,-1.75791 -4.44981,-2.5 -7.12177,-2.5 h -29.61804 c -0.0611,-0.003 -0.12228,-0.003 -0.18339,0 z"
       id="path2-3"
       sodipodi:nodetypes="sssssccscsssccccccccsccsssccssscc" />
  </g>
  <path
     style="fill:url(#linearGradient926);fill-opacity:1;stroke-width:0.019203"
     id="path2-3-3"
     d="m 31.672085,28.134862 c -0.03619,0.153331 -0.114009,0.289209 -0.247002,0.374581 -0.208939,0.13395 -0.463563,0.09511 -0.643983,-0.0679 -0.169145,-0.151385 -0.226133,-0.407584 -0.172906,-0.628868 0.05502,-0.231001 0.229885,-0.434794 0.45402,-0.498856 0.499683,-0.141671 0.70673,0.413425 0.609871,0.821077 z m -0.305878,-1.576118 c -0.309684,-0.126164 -0.20331,-1.785724 0.07991,-3.800477 0.07991,-0.562908 0.216561,-0.828856 0.370428,-0.964734 0.220377,-0.19213 0.621266,-0.19994 0.892917,-0.159164 0.311602,0.04638 0.609829,0.194138 0.835908,0.417335 0.199497,0.198006 0.222315,0.39985 0.153879,0.661899 -0.112067,0.417329 -0.303945,0.817179 -0.488249,1.207312 -0.04344,0.0951 -0.425577,0.834611 -0.476812,0.925839 -0.921439,1.657642 -1.105689,1.818775 -1.367887,1.71199 z" />
  <path
     style="fill:url(#linearGradient928);fill-opacity:1;stroke-width:0.019203"
     id="path4"
     d="m 25.115843,25.811477 c 0.182362,0.795806 0.163362,1.669257 0.0067,2.298126 -0.146304,0.593948 -0.543362,1.12578 -1.174128,1.304339 -0.552807,0.157245 -1.196873,0.04257 -1.591995,-0.345485 -0.649744,-0.636652 -1.029699,-2.131227 -0.860615,-3.216214 0.136761,-0.871529 0.596525,-1.987639 1.6053,-2.03617 0.06491,-0.0035 0.129187,-0.002 0.19382,0.0035 1.027781,0.09511 1.588243,0.980242 1.820006,1.991508 z m -1.857999,1.810929 c 0.05678,0.01 0.113985,0.01 0.170996,-0.0068 0.191859,-0.05611 0.302052,-0.260148 0.353316,-0.458088 0.07799,-0.300854 0.06668,-0.62503 -0.0343,-0.920078 -0.05129,-0.149468 -0.127246,-0.295041 -0.243172,-0.40374 -0.40843,-0.382364 -0.816865,0.01537 -0.887179,0.467787 -0.05502,0.353279 0.02491,0.762827 0.241248,1.048167 0.100697,0.131992 0.245113,0.246496 0.398994,0.273674 z" />
  <path
     style="fill:url(#linearGradient930);fill-opacity:1;stroke-width:0.019203"
     id="path6"
     d="m 27.340539,27.498215 c -0.002,1.469308 0.142472,2.593187 -0.490203,2.727099 -0.512919,0.10677 -0.495797,-0.353268 -0.53573,-0.739533 -0.151934,-1.496504 -0.290629,-3.982935 -0.349585,-5.487204 0.04167,-0.646386 0.465526,-1.042376 0.906263,-1.139379 0.680123,-0.149467 1.405842,-0.106767 2.008056,0.273652 1.191183,0.753141 1.286174,2.135122 0.564252,3.262836 -0.395113,0.615325 -1.590133,1.061764 -2.103053,1.022919 z m 0.151972,-3.293905 c -0.07425,0.01183 -0.195664,0.04628 -0.229872,0.120326 -0.0817,0.172739 -0.07632,1.269438 0.06668,1.729438 0.02294,0.07592 0.07393,0.147503 0.148182,0.174683 0.269788,0.100934 0.512994,-0.236792 0.623179,-0.440609 0.153865,-0.283384 0.203221,-0.617206 0.106337,-0.927814 -0.09143,-0.28917 -0.374239,-0.708448 -0.714302,-0.656024 z" />
  <path
     style="fill:url(#linearGradient932);fill-opacity:1;stroke-width:0.019203"
     id="path8"
     d="m 20.527785,24.934115 c -0.446444,0.96471 -1.18737,1.731414 -2.213249,2.109895 0.294498,0.786103 0.594642,1.562521 0.887194,2.34666 0.163429,0.423121 0.319174,0.887072 0.176698,1.304348 -0.148196,0.42703 -0.725712,0.545417 -1.145583,0.09142 -0.807417,-0.877386 -3.537421,-6.436411 -3.738791,-6.853754 -0.171021,-0.35908 -0.427446,-0.743417 -0.419891,-1.158775 0.0133,-0.625028 0.95944,-1.257794 1.413454,-1.5819 0.634554,-0.452287 1.367848,-0.76091 2.152473,-0.762828 0.611758,0 1.134184,0.170832 1.597759,0.473574 0.710511,0.465892 1.204495,1.209257 1.386895,2.04973 0.159533,0.739513 0.125356,1.496553 -0.0969,1.981809 m -2.080277,-1.055953 c -0.159559,-0.591967 -0.520571,-1.137386 -0.974615,-1.519787 -0.09879,-0.08329 -0.205195,-0.161132 -0.328646,-0.203784 -0.851101,-0.285356 -0.482535,1.168465 -0.343851,1.535323 0.191869,0.514374 0.482546,1.164596 0.871994,1.552776 0.0853,0.08521 0.186186,0.161126 0.302054,0.184403 0.176683,0.03694 0.340048,-0.08956 0.429385,-0.236782 0.07393,-0.122291 0.102508,-0.267865 0.119687,-0.409525 0.03213,-0.300868 0.0035,-0.607578 -0.07632,-0.902624 z" />
  <path
     style="fill:url(#linearGradient934);fill-opacity:1;stroke-width:0.019203"
     id="path10"
     d="m 30.705728,32.322973 c -0.0035,0.852127 -0.51295,1.704265 -1.635695,1.704265 -1.122802,0 -1.645229,-0.838548 -1.645229,-1.694516 0,-1.067566 0.727615,-1.727539 1.667988,-1.727539 1.090489,0.0099 1.622446,0.836627 1.612936,1.71779 z m -1.612936,-1.180099 c -0.704818,0 -1.100011,0.500788 -1.103739,1.183992 0,0.593959 0.324858,1.151063 1.090446,1.151063 0.765613,0 1.058212,-0.603643 1.058212,-1.156874 0.01,-0.574523 -0.288793,-1.164591 -1.044919,-1.178181 z m 2.084127,2.447584 c 0,0.126166 0.0035,-0.59977 0,-0.710391 h 0.516759 l 0.03629,0.444511 c 0.169129,0.09903 0.431276,0.172755 0.645933,0.172755 0.399011,0 0.815074,-0.102954 0.815074,-0.500789 -0.0133,-0.36107 -0.47689,-0.434804 -0.851131,-0.473641 -0.636435,-0.06623 -1.149366,-0.225125 -1.149366,-0.954962 0,-0.650245 0.719987,-0.974359 1.25573,-0.974359 0.431267,-0.0099 0.73712,0.05988 1.126576,0.37846 0,0.262084 -0.0035,0.417343 -0.0035,0.679382 h -0.499511 l -0.03213,-0.430888 c -0.201354,-0.09905 -0.408463,-0.126192 -0.568016,-0.122298 -0.343885,0.0035 -0.710529,0.16885 -0.710529,0.463882 0,0.289224 0.237461,0.368784 0.659203,0.43093 0.68777,0.09331 1.350789,0.252293 1.350789,1.001541 -0.0035,0.819126 -0.756124,1.034559 -1.402054,1.034559 -0.492055,0.002 -0.799813,-0.09141 -1.189285,-0.438692 z"
     inkscape:connector-curvature="0" />
  <path
     style="fill:url(#linearGradient936);fill-opacity:1;stroke-width:0.019203"
     id="path12"
     d="m 26.72753,33.747705 c 0,0.149468 -0.117772,0.269773 -0.264049,0.269773 H 23.41048 c -0.14625,0 -0.26405,-0.120305 -0.26405,-0.269773 v -0.02334 c 0,-0.149467 0.1178,-0.269834 0.26405,-0.269834 h 3.053001 c 0.146277,0 0.264049,0.120367 0.264049,0.269834 z"
     inkscape:connector-curvature="0" />
</svg>
