<?xml version="1.0" encoding="UTF-8" standalone="no"?>
<svg
   xmlns:dc="http://purl.org/dc/elements/1.1/"
   xmlns:cc="http://creativecommons.org/ns#"
   xmlns:rdf="http://www.w3.org/1999/02/22-rdf-syntax-ns#"
   xmlns:svg="http://www.w3.org/2000/svg"
   xmlns="http://www.w3.org/2000/svg"
   xmlns:xlink="http://www.w3.org/1999/xlink"
   xmlns:sodipodi="http://sodipodi.sourceforge.net/DTD/sodipodi-0.dtd"
   xmlns:inkscape="http://www.inkscape.org/namespaces/inkscape"
   viewBox="0 0 48 48"
   version="1.1"
   id="svg27"
   sodipodi:docname="folder-green.svg"
   inkscape:version="1.0.1 (3bc2e813f5, 2020-09-07)">
  <metadata
     id="metadata33">
    <rdf:RDF>
      <cc:Work
         rdf:about="">
        <dc:format>image/svg+xml</dc:format>
        <dc:type
           rdf:resource="http://purl.org/dc/dcmitype/StillImage" />
      </cc:Work>
    </rdf:RDF>
  </metadata>
  <defs
     id="defs31">
    <linearGradient
       inkscape:collect="always"
       xlink:href="#linearGradient4172"
       id="linearGradient854"
       gradientUnits="userSpaceOnUse"
       gradientTransform="matrix(0.50301305,0,0,0.51427665,-1.118076,-1.713612)"
       x1="6"
       y1="50.000134"
       x2="94.005508"
       y2="50.000134" />
    <linearGradient
       id="linearGradient4172">
      <stop
         style="stop-color:#3bad7e"
         id="stop4174" />
      <stop
         offset="1"
         style="stop-color:#45cc87"
         id="stop4176" />
    </linearGradient>
  </defs>
  <sodipodi:namedview
     pagecolor="#ffffff"
     bordercolor="#666666"
     borderopacity="1"
     objecttolerance="10"
     gridtolerance="10"
     guidetolerance="10"
     inkscape:pageopacity="0"
     inkscape:pageshadow="2"
     inkscape:window-width="1920"
     inkscape:window-height="1016"
     id="namedview29"
     showgrid="false"
     inkscape:zoom="6.5416667"
     inkscape:cx="-9.9330372"
     inkscape:cy="4.9315605"
     inkscape:window-x="0"
     inkscape:window-y="0"
     inkscape:window-maximized="1"
     inkscape:current-layer="svg27" />
  <linearGradient
     id="a"
     x2="0"
     y1="541.79797"
     y2="499.78421"
     gradientTransform="matrix(.69229859 0 0 .69207328 120.25629 150.83367)"
     gradientUnits="userSpaceOnUse">
    <stop
       stop-color="#3bad7e"
       offset="0"
       id="stop2" />
    <stop
       stop-color="#45cc87"
       offset="1"
       id="stop4" />
  </linearGradient>
  <path
     style="color:#000000;font-style:normal;font-variant:normal;font-weight:normal;font-stretch:normal;font-size:medium;line-height:normal;font-family:Sans;-inkscape-font-specification:Sans;text-indent:0;text-align:start;text-decoration:none;text-decoration-line:none;letter-spacing:normal;word-spacing:normal;text-transform:none;writing-mode:lr-tb;direction:ltr;baseline-shift:baseline;text-anchor:start;display:inline;overflow:visible;visibility:visible;opacity:1;fill:url(#linearGradient854);fill-opacity:1;fill-rule:nonzero;stroke:none;stroke-width:2.03447;marker:none;enable-background:accumulate"
     d="M 5.704037,6.000545 C 3.652732,6.000545 1.9,7.471332 1.9,9.423699 v 28.80798 c 0,1.216211 0.430168,1.997656 1.265343,2.706687 0.835168,0.709038 1.701929,1.06152 2.807908,1.06152 h 35.161562 c 0.844161,0.01489 0.82016,-1.144214 2.01e-4,-1.156501 L 5.924613,40.822805 c -1.088199,0 -1.99239,-0.767761 -1.99239,-0.767761 0,0 -0.833215,-0.625609 -0.833215,-1.823461 V 9.4236 c 0,-1.345419 0.914991,-2.20862 2.513241,-2.191059 l 12.376872,-0.0064 5.901983,5.261502 c 0.17835,0.16092 0.406672,0.390342 0.644474,0.395478 l 17.16153,-0.0064 c 0.875037,-0.005 0.847393,-1.205663 -0.0276,-1.219701 H 24.897168 L 18.640934,6.241058 C 18.460381,6.085974 18.232271,6.000648 17.996454,6 Z m 19.963335,1.494613 c -0.79855,-0.0028 -0.800152,1.373589 0.0199,1.385315 l 15.306206,-0.02097 c 1.550959,-0.0028 2.222875,0.500473 2.739283,0.982235 0.516421,0.481756 1.301161,1.661202 1.301161,2.876535 v 28.253039 c 0.005,0.956102 1.130571,0.987567 1.13393,0.03291 L 46.164652,12.71808 C 46.164494,11.067032 45.624694,9.684705 44.655611,8.780657 43.686532,7.876604 42.367176,7.494965 40.993046,7.494965 H 25.761365 c -0.03142,-0.002 -0.06292,-0.002 -0.09435,0 z"
     id="path2-3"
     sodipodi:nodetypes="sssssccscsssccccccccsccsssccssscc" />
</svg>
