<?xml version="1.0" encoding="UTF-8" standalone="no"?>
<svg
   xmlns:dc="http://purl.org/dc/elements/1.1/"
   xmlns:cc="http://creativecommons.org/ns#"
   xmlns:rdf="http://www.w3.org/1999/02/22-rdf-syntax-ns#"
   xmlns:svg="http://www.w3.org/2000/svg"
   xmlns="http://www.w3.org/2000/svg"
   xmlns:xlink="http://www.w3.org/1999/xlink"
   xmlns:sodipodi="http://sodipodi.sourceforge.net/DTD/sodipodi-0.dtd"
   xmlns:inkscape="http://www.inkscape.org/namespaces/inkscape"
   viewBox="0 0 48 48"
   version="1.1"
   id="svg27"
   sodipodi:docname="folder-templates.svg"
   inkscape:version="1.0.1 (3bc2e813f5, 2020-09-07)">
  <metadata
     id="metadata33">
    <rdf:RDF>
      <cc:Work
         rdf:about="">
        <dc:format>image/svg+xml</dc:format>
        <dc:type
           rdf:resource="http://purl.org/dc/dcmitype/StillImage" />
      </cc:Work>
    </rdf:RDF>
  </metadata>
  <defs
     id="defs31">
    <linearGradient
       inkscape:collect="always"
       xlink:href="#linearGradient934"
       id="linearGradient892"
       x1="4"
       y1="12"
       x2="20"
       y2="12"
       gradientUnits="userSpaceOnUse" />
    <linearGradient
       inkscape:collect="always"
       id="linearGradient934">
      <stop
         style="stop-color:#ffcc00;stop-opacity:1"
         offset="0"
         id="stop930" />
      <stop
         style="stop-color:#00ffff;stop-opacity:1"
         offset="1"
         id="stop932" />
    </linearGradient>
    <linearGradient
       inkscape:collect="always"
       xlink:href="#linearGradient853"
       id="linearGradient865"
       gradientUnits="userSpaceOnUse"
       x1="4"
       y1="12"
       x2="20"
       y2="12" />
    <linearGradient
       inkscape:collect="always"
       id="linearGradient853">
      <stop
         style="stop-color:#008080;stop-opacity:1"
         offset="0"
         id="stop849" />
      <stop
         style="stop-color:#00e5e5;stop-opacity:1"
         offset="1"
         id="stop851" />
    </linearGradient>
    <linearGradient
       inkscape:collect="always"
       xlink:href="#linearGradient853"
       id="linearGradient854"
       gradientUnits="userSpaceOnUse"
       gradientTransform="matrix(0.50302024,0,0,0.51428402,-1.11813,-1.714263)"
       x1="6"
       y1="50.000134"
       x2="94.005508"
       y2="50.000134" />
  </defs>
  <sodipodi:namedview
     pagecolor="#ffffff"
     bordercolor="#666666"
     borderopacity="1"
     objecttolerance="10"
     gridtolerance="10"
     guidetolerance="10"
     inkscape:pageopacity="0"
     inkscape:pageshadow="2"
     inkscape:window-width="1920"
     inkscape:window-height="1016"
     id="namedview29"
     showgrid="false"
     inkscape:zoom="6.5416667"
     inkscape:cx="-29.494639"
     inkscape:cy="4.0864473"
     inkscape:window-x="0"
     inkscape:window-y="0"
     inkscape:window-maximized="1"
     inkscape:current-layer="svg27" />
  <linearGradient
     id="a"
     x2="0"
     y1="541.79797"
     y2="499.78421"
     gradientTransform="matrix(.69229859 0 0 .69207328 120.25629 150.83367)"
     gradientUnits="userSpaceOnUse">
    <stop
       stop-color="#3daee9"
       offset="0"
       id="stop2" />
    <stop
       stop-color="#6cc1ef"
       offset="1"
       id="stop4" />
  </linearGradient>
  <g
     id="g6"
     transform="matrix(0.86573372,0,0,0.86573372,13.28297,16.187639)"
     style="fill:url(#linearGradient892);fill-opacity:1">
    <path
       d="m 4,7 v 10 a 3,3 0 0 0 3,3 h 10 a 3,3 0 0 0 3,-3 V 7 A 3,3 0 0 0 17,4 H 7 A 3,3 0 0 0 4,7 Z m 6,10 H 8 A 1,1 0 0 1 7,16 v -5 h 3 z m 6,0 h -5 v -6 h 6 v 5 a 1,1 0 0 1 -1,1 z m 1,-7 H 7 V 8 A 1,1 0 0 1 8,7 h 8 a 1,1 0 0 1 1,1 z"
       id="path4"
       style="fill:url(#linearGradient865);fill-opacity:1" />
  </g>
  <path
     style="color:#000000;font-style:normal;font-variant:normal;font-weight:normal;font-stretch:normal;font-size:medium;line-height:normal;font-family:Sans;-inkscape-font-specification:Sans;text-indent:0;text-align:start;text-decoration:none;text-decoration-line:none;letter-spacing:normal;word-spacing:normal;text-transform:none;writing-mode:lr-tb;direction:ltr;baseline-shift:baseline;text-anchor:start;display:inline;overflow:visible;visibility:visible;opacity:1;fill:url(#linearGradient854);fill-opacity:1;fill-rule:nonzero;stroke:none;stroke-width:2.03447;marker:none;enable-background:accumulate"
     d="M 5.70411,6 C 3.65278,6 1.9,7.470811 1.9,9.423206 v 28.808391 c 0,1.216229 0.43022,1.997686 1.26541,2.70673 0.83521,0.709049 1.70192,1.061532 2.80799,1.061532 h 35.161971 c 0.844175,0.01488 0.820171,-1.144228 2.02e-4,-1.156515 L 5.9246,40.822744 c -1.08813,0 -1.99238,-0.76777 -1.99238,-0.76777 0,0 -0.83314,-0.625621 -0.83314,-1.823493 V 9.423077 c 0,-1.345442 0.91496,-2.208652 2.51325,-2.191092 l 12.377009,-0.0061 5.902074,5.26158 c 0.178352,0.160923 0.406678,0.390345 0.644486,0.395477 l 17.161775,-0.0061 c 0.875047,-0.0047 0.847405,-1.205682 -0.02764,-1.219721 H 24.897451 L 18.64115,6.241091 C 18.4606,6.086004 18.23245,6.000676 17.99668,6.000026 Z m 19.963598,1.494637 c -0.798562,-0.0025 -0.800159,1.373611 0.01992,1.385334 L 40.99405,8.858991 c 1.550982,-0.0025 2.222908,0.500485 2.73932,0.982246 0.516427,0.481765 1.301187,1.661226 1.301187,2.87658 v 28.253475 c 0.0047,0.956113 1.130585,0.987585 1.133944,0.03289 l -0.0029,-28.286546 C 46.16544,11.066571 45.625629,9.68422 44.656536,8.78016 43.687446,7.876095 42.36807,7.49445 40.993918,7.49445 H 25.761813 c -0.03145,-0.002 -0.06293,-0.002 -0.09432,0 z"
     id="path2-3"
     sodipodi:nodetypes="sssssccscsssccccccccsccsssccssscc" />
</svg>
