<?xml version="1.0" encoding="UTF-8" standalone="no"?>
<svg
   xmlns:dc="http://purl.org/dc/elements/1.1/"
   xmlns:cc="http://creativecommons.org/ns#"
   xmlns:rdf="http://www.w3.org/1999/02/22-rdf-syntax-ns#"
   xmlns:svg="http://www.w3.org/2000/svg"
   xmlns="http://www.w3.org/2000/svg"
   xmlns:xlink="http://www.w3.org/1999/xlink"
   xmlns:sodipodi="http://sodipodi.sourceforge.net/DTD/sodipodi-0.dtd"
   xmlns:inkscape="http://www.inkscape.org/namespaces/inkscape"
   viewBox="0 0 48 48"
   version="1.1"
   id="svg27"
   sodipodi:docname="folder-reddit.svg"
   inkscape:version="1.0.1 (3bc2e813f5, 2020-09-07)">
  <metadata
     id="metadata33">
    <rdf:RDF>
      <cc:Work
         rdf:about="">
        <dc:format>image/svg+xml</dc:format>
        <dc:type
           rdf:resource="http://purl.org/dc/dcmitype/StillImage" />
      </cc:Work>
    </rdf:RDF>
  </metadata>
  <defs
     id="defs31">
    <linearGradient
       inkscape:collect="always"
       xlink:href="#linearGradient836"
       id="linearGradient838"
       x1="6"
       y1="50.000134"
       x2="94.005508"
       y2="50.000134"
       gradientUnits="userSpaceOnUse"
       gradientTransform="matrix(0.9780981,0,0,1,64.250683,974.47294)" />
    <linearGradient
       inkscape:collect="always"
       id="linearGradient836">
      <stop
         style="stop-color:#008080;stop-opacity:1"
         offset="0"
         id="stop832" />
      <stop
         style="stop-color:#00e5e5;stop-opacity:1"
         offset="1"
         id="stop834" />
    </linearGradient>
    <linearGradient
       inkscape:collect="always"
       xlink:href="#linearGradient836"
       id="linearGradient867"
       x1="20.388903"
       y1="41.65657"
       x2="41.60445"
       y2="41.65657"
       gradientUnits="userSpaceOnUse"
       gradientTransform="matrix(0.77777772,0,0,0.77777772,-0.05803018,-5.399551)" />
  </defs>
  <sodipodi:namedview
     pagecolor="#ffffff"
     bordercolor="#666666"
     borderopacity="1"
     objecttolerance="10"
     gridtolerance="10"
     guidetolerance="10"
     inkscape:pageopacity="0"
     inkscape:pageshadow="2"
     inkscape:window-width="1920"
     inkscape:window-height="1016"
     id="namedview29"
     showgrid="true"
     inkscape:zoom="9.2513138"
     inkscape:cx="-16.569086"
     inkscape:cy="11.801695"
     inkscape:window-x="0"
     inkscape:window-y="0"
     inkscape:window-maximized="1"
     inkscape:current-layer="svg27"
     inkscape:document-rotation="0">
    <inkscape:grid
       type="xygrid"
       id="grid849" />
  </sodipodi:namedview>
  <linearGradient
     id="a"
     x2="0"
     y1="541.79797"
     y2="499.78421"
     gradientTransform="matrix(.69229859 0 0 .69207328 120.25629 150.83367)"
     gradientUnits="userSpaceOnUse">
    <stop
       stop-color="#3daee9"
       offset="0"
       id="stop2" />
    <stop
       stop-color="#6cc1ef"
       offset="1"
       id="stop4" />
  </linearGradient>
  <g
     transform="matrix(0.51428191,0,0,0.51428191,-34.161072,-502.86789)"
     id="g4">
    <path
       style="color:#000000;font-style:normal;font-variant:normal;font-weight:normal;font-stretch:normal;font-size:medium;line-height:normal;font-family:Sans;-inkscape-font-specification:Sans;text-indent:0;text-align:start;text-decoration:none;text-decoration-line:none;letter-spacing:normal;word-spacing:normal;text-transform:none;writing-mode:lr-tb;direction:ltr;baseline-shift:baseline;text-anchor:start;display:inline;overflow:visible;visibility:visible;opacity:1;fill:url(#linearGradient838);fill-opacity:1;fill-rule:nonzero;stroke:none;stroke-width:3.95596;marker:none;enable-background:accumulate"
       d="m 77.516136,989.47294 c -3.988712,0 -7.396866,2.85993 -7.396866,6.65625 v 56.01651 c 0,2.3649 0.836461,3.8844 2.460429,5.2631 1.623967,1.3787 3.30936,2.0641 5.459931,2.0641 h 68.3709 c 1.64145,0.029 1.59477,-2.2249 3.9e-4,-2.2488 l -68.465873,-0.04 c -2.115981,0 -3.874159,-1.4929 -3.874159,-1.4929 0,0 -1.620163,-1.2165 -1.620163,-3.5457 v -56.01651 c 0,-2.61614 1.77916,-4.29462 4.886948,-4.26047 l 24.066557,-0.0121 11.47627,10.23088 c 0.34679,0.3129 0.79077,0.759 1.25317,0.769 l 33.37023,-0.012 c 1.7015,-0.01 1.64773,-2.3444 -0.0538,-2.3717 h -32.61346 l -12.1651,-10.53119 c -0.35109,-0.30157 -0.79464,-0.46748 -1.25318,-0.46875 z m 38.818274,2.90625 c -1.55276,-0.004 -1.55586,2.67092 0.0388,2.69371 l 29.7626,-0.0408 c 3.0158,-0.004 4.32232,0.97316 5.32647,1.90993 1.00416,0.93677 2.53008,3.23017 2.53008,5.59337 v 54.9375 c 0.009,1.8591 2.19838,1.9203 2.20491,0.064 l -0.006,-55.0018 c -3.1e-4,-3.21041 -1.04994,-5.89832 -2.9343,-7.65623 -1.88434,-1.75791 -4.44981,-2.5 -7.12177,-2.5 h -29.61804 c -0.0611,-0.003 -0.12228,-0.003 -0.18339,0 z"
       id="path2-3"
       sodipodi:nodetypes="sssssccscsssccccccccsccsssccssscc" />
  </g>
  <path
     d="m 32.30098,26.690678 c 0,-1.279569 -1.041,-2.317296 -2.31718,-2.317296 -0.502816,0 -0.982964,0.16114 -1.3794,0.454464 -1.12485,-0.567265 -2.462336,-0.90881 -3.877116,-0.989388 l 0.924936,-2.555739 2.236736,0.557573 c 0.04832,0.918517 0.812124,1.646797 1.740334,1.646797 0.96031,0 1.743486,-0.783168 1.743486,-1.743475 C 31.372776,20.783176 30.5896,20 29.62929,20 c -0.654266,0 -1.224686,0.360936 -1.52443,0.895976 l -3.06498,-0.767067 -1.33421,3.690167 c -1.537273,0.04511 -2.9941,0.393166 -4.20909,1.002353 -0.396423,-0.293331 -0.87332,-0.451197 -1.37613,-0.451197 -1.279444,0.0039 -2.32045,1.044152 -2.32045,2.320446 0,0.625186 0.25783,1.227831 0.69933,1.65977 -0.02896,0.18368 -0.0451,0.370626 -0.0451,0.557449 0,1.401944 0.818556,2.704053 2.30106,3.664484 C 20.173338,33.49404 22.052282,34 24.044026,34 c 1.991752,0 3.86742,-0.50596 5.288622,-1.427619 1.48251,-0.963705 2.301184,-2.26569 2.301184,-3.664484 0,-0.183673 -0.01606,-0.367353 -0.0419,-0.551033 0.447916,-0.428656 0.709026,-1.034576 0.709026,-1.666186 z m -11.87947,1.353598 c 0,-0.744528 0.60592,-1.350448 1.35045,-1.350448 0.74441,0 1.35033,0.60592 1.35033,1.350448 0,0.744402 -0.60592,1.350323 -1.35033,1.350323 -0.74453,0 -1.35045,-0.605921 -1.35045,-1.350323 z m 3.71597,4.273422 c -1.04742,0 -2.06904,-0.296482 -2.952056,-0.857204 l 0.518812,-0.8154 c 0.728414,0.464038 1.572774,0.709022 2.436514,0.709022 0.863767,0 1.70484,-0.244984 2.436406,-0.709022 l 0.518918,0.8154 c -0.88955,0.560722 -1.911164,0.857204 -2.958594,0.857204 z m 2.394606,-2.923099 c -0.74453,0 -1.350326,-0.605921 -1.350326,-1.350323 0,-0.744528 0.605796,-1.350448 1.350326,-1.350448 0.744524,0 1.350318,0.60592 1.350318,1.350448 0,0.744402 -0.605794,1.350323 -1.350318,1.350323 z m 0,0"
     id="path2-3-3"
     style="fill:url(#linearGradient867);fill-opacity:1;stroke-width:0.0322287" />
</svg>
