<?xml version="1.0" encoding="UTF-8" standalone="no"?>
<svg
   xmlns:dc="http://purl.org/dc/elements/1.1/"
   xmlns:cc="http://creativecommons.org/ns#"
   xmlns:rdf="http://www.w3.org/1999/02/22-rdf-syntax-ns#"
   xmlns:svg="http://www.w3.org/2000/svg"
   xmlns="http://www.w3.org/2000/svg"
   xmlns:xlink="http://www.w3.org/1999/xlink"
   xmlns:sodipodi="http://sodipodi.sourceforge.net/DTD/sodipodi-0.dtd"
   xmlns:inkscape="http://www.inkscape.org/namespaces/inkscape"
   viewBox="0 0 48 48"
   version="1.1"
   id="svg27"
   sodipodi:docname="network-workgroup.svg"
   inkscape:version="1.0.1 (3bc2e813f5, 2020-09-07)">
  <metadata
     id="metadata33">
    <rdf:RDF>
      <cc:Work
         rdf:about="">
        <dc:format>image/svg+xml</dc:format>
        <dc:type
           rdf:resource="http://purl.org/dc/dcmitype/StillImage" />
      </cc:Work>
    </rdf:RDF>
  </metadata>
  <defs
     id="defs31">
    <linearGradient
       inkscape:collect="always"
       xlink:href="#linearGradient934"
       id="linearGradient902"
       x1="2.9999995"
       y1="1035.3622"
       x2="29"
       y2="1035.3622"
       gradientUnits="userSpaceOnUse" />
    <linearGradient
       inkscape:collect="always"
       id="linearGradient934">
      <stop
         style="stop-color:#ffcc00;stop-opacity:1"
         offset="0"
         id="stop930" />
      <stop
         style="stop-color:#00ffff;stop-opacity:1"
         offset="1"
         id="stop932" />
    </linearGradient>
    <linearGradient
       inkscape:collect="always"
       xlink:href="#linearGradient853"
       id="linearGradient844"
       x1="3"
       y1="15"
       x2="29"
       y2="15"
       gradientUnits="userSpaceOnUse" />
    <linearGradient
       inkscape:collect="always"
       id="linearGradient853">
      <stop
         style="stop-color:#008080;stop-opacity:1"
         offset="0"
         id="stop849" />
      <stop
         style="stop-color:#00e5e5;stop-opacity:1"
         offset="1"
         id="stop851" />
    </linearGradient>
    <linearGradient
       inkscape:collect="always"
       xlink:href="#linearGradient853"
       id="linearGradient854"
       gradientUnits="userSpaceOnUse"
       gradientTransform="matrix(0.50301304,0,0,0.51427668,-1.118086,-1.71361)"
       x1="6"
       y1="50.000134"
       x2="94.005508"
       y2="50.000134" />
  </defs>
  <sodipodi:namedview
     pagecolor="#ffffff"
     bordercolor="#666666"
     borderopacity="1"
     objecttolerance="10"
     gridtolerance="10"
     guidetolerance="10"
     inkscape:pageopacity="0"
     inkscape:pageshadow="2"
     inkscape:window-width="1920"
     inkscape:window-height="1016"
     id="namedview29"
     showgrid="false"
     inkscape:zoom="6.5416667"
     inkscape:cx="-30.425908"
     inkscape:cy="6.0919658"
     inkscape:window-x="0"
     inkscape:window-y="0"
     inkscape:window-maximized="1"
     inkscape:current-layer="svg27" />
  <linearGradient
     id="a"
     x2="0"
     y1="541.79797"
     y2="499.78421"
     gradientTransform="matrix(.69229859 0 0 .69207328 120.25629 150.83367)"
     gradientUnits="userSpaceOnUse">
    <stop
       stop-color="#3daee9"
       offset="0"
       id="stop2" />
    <stop
       stop-color="#6cc1ef"
       offset="1"
       id="stop4" />
  </linearGradient>
  <g
     transform="matrix(0.46171809,0,0,0.46171809,16.719532,-452.32438)"
     id="g4"
     style="fill:url(#linearGradient902);fill-opacity:1">
    <path
       style="color:#000000;text-indent:0;text-transform:none;direction:ltr;baseline-shift:baseline;fill:url(#linearGradient844);fill-opacity:1;enable-background:accumulate"
       d="M 6,0 C 4.3466487,0 3,1.3466001 3,3 3,4.6533999 4.3466487,6 6,6 h 9.5 V 8 H 6 c -1.6533513,0 -3,1.3466001 -3,3 0,1.6534 1.3466487,3 3,3 h 9.5 v 2 H 6 c -1.6533513,0 -3,1.3466 -3,3 0,1.6534 1.3466487,3 3,3 h 9.5 v 3.0625 h 1 V 22 H 26 c 1.653351,0 3,-1.3466 3,-3 0,-1.6534 -1.346649,-3 -3,-3 H 16.5 V 14 H 26 c 1.653351,0 3,-1.3466 3,-3 C 29,9.3466001 27.653351,8 26,8 H 16.5 V 6 H 26 C 27.653351,6 29,4.6533999 29,3 29,1.3466001 27.653351,0 26,0 Z m 10,26 c 1.11049,0 2,0.8895 2,2 0,1.1105 -0.88951,2 -2,2 -1.11049,0 -2,-0.8895 -2,-2 0,-1.1105 0.88951,-2 2,-2 z m 0,0.5 c -0.82249,0 -1.5,0.6775 -1.5,1.5 0,0.8225 0.67751,1.5 1.5,1.5 0.82249,0 1.5,-0.6775 1.5,-1.5 0,-0.8225 -0.67751,-1.5 -1.5,-1.5 z M 8.3006405,27 H 13.1875 C 13.073609,27.316114 13,27.645744 13,28 c 0,0.343937 0.07986,0.69173 0.1875,1 H 8.3006405 Z M 18.8125,27 h 4.28714 v 2 H 18.8125 C 18.920138,28.69173 19,28.343937 19,28 19,27.645744 18.926391,27.316114 18.8125,27 Z M 16,27.5 c 0.28207,0 0.5,0.2179 0.5,0.5 0,0.2821 -0.21793,0.5 -0.5,0.5 -0.28207,0 -0.5,-0.2179 -0.5,-0.5 0,-0.2821 0.21793,-0.5 0.5,-0.5 z"
       transform="translate(-5e-7,1020.3622)"
       fill-opacity="1"
       stroke="none"
       marker="none"
       visibility="visible"
       display="inline"
       overflow="visible"
       id="path2-3"
       sodipodi:nodetypes="sssccsssccsssccccsssccsssccssssssssssssssccscccccccscsssss" />
  </g>
  <path
     style="color:#000000;font-style:normal;font-variant:normal;font-weight:normal;font-stretch:normal;font-size:medium;line-height:normal;font-family:Sans;-inkscape-font-specification:Sans;text-indent:0;text-align:start;text-decoration:none;text-decoration-line:none;letter-spacing:normal;word-spacing:normal;text-transform:none;writing-mode:lr-tb;direction:ltr;baseline-shift:baseline;text-anchor:start;display:inline;overflow:visible;visibility:visible;opacity:1;fill:url(#linearGradient854);fill-opacity:1;fill-rule:nonzero;stroke:none;stroke-width:2.0345;marker:none;enable-background:accumulate"
     d="M 5.704035,6.000546 C 3.652735,6.000546 1.9,7.471334 1.9,9.423701 v 28.807982 c 0,1.216208 0.430167,1.997655 1.26534,2.706684 0.835168,0.709044 1.701933,1.061518 2.807909,1.061518 h 35.161565 c 0.844163,0.01494 0.82016,-1.144207 1.98e-4,-1.156494 L 5.924615,40.822804 c -1.0882,0 -1.99239,-0.767761 -1.99239,-0.767761 0,0 -0.833219,-0.625606 -0.833219,-1.823463 V 9.423599 c 0,-1.345416 0.914994,-2.208619 2.513245,-2.191051 l 12.376869,-0.0064 5.901984,5.261504 c 0.178348,0.160919 0.406672,0.390337 0.644472,0.395471 l 17.161533,-0.0064 c 0.875034,-0.0053 0.847391,-1.205666 -0.02761,-1.219704 H 24.897159 L 18.640926,6.241058 C 18.460373,6.085973 18.232263,6.000647 17.996446,6 Z M 25.667374,7.49516 c -0.798553,-0.003 -0.800154,1.37359 0.01989,1.385316 l 15.306201,-0.02095 c 1.550957,-0.003 2.222879,0.50048 2.739283,0.982237 0.516424,0.481756 1.301171,1.6612 1.301171,2.876537 v 28.253057 c 0.0053,0.9561 1.130559,0.987566 1.133923,0.03295 l -0.0035,-28.286135 C 46.164182,11.067129 45.624384,9.684798 44.655303,8.780749 43.686223,7.8767 42.366866,7.495059 40.992737,7.495059 H 25.760893 c -0.03141,-0.002 -0.06293,-0.002 -0.09432,0 z"
     id="path2-3-3"
     sodipodi:nodetypes="sssssccscsssccccccccsccsssccssscc" />
</svg>
