<?xml version="1.0" encoding="UTF-8" standalone="no"?>
<svg
   xmlns:dc="http://purl.org/dc/elements/1.1/"
   xmlns:cc="http://creativecommons.org/ns#"
   xmlns:rdf="http://www.w3.org/1999/02/22-rdf-syntax-ns#"
   xmlns:svg="http://www.w3.org/2000/svg"
   xmlns="http://www.w3.org/2000/svg"
   xmlns:xlink="http://www.w3.org/1999/xlink"
   xmlns:sodipodi="http://sodipodi.sourceforge.net/DTD/sodipodi-0.dtd"
   xmlns:inkscape="http://www.inkscape.org/namespaces/inkscape"
   viewBox="0 0 48 48"
   version="1.1"
   id="svg27"
   sodipodi:docname="user-home.svg"
   inkscape:version="1.0.1 (3bc2e813f5, 2020-09-07)">
  <metadata
     id="metadata33">
    <rdf:RDF>
      <cc:Work
         rdf:about="">
        <dc:format>image/svg+xml</dc:format>
        <dc:type
           rdf:resource="http://purl.org/dc/dcmitype/StillImage" />
      </cc:Work>
    </rdf:RDF>
  </metadata>
  <defs
     id="defs31">
    <linearGradient
       inkscape:collect="always"
       xlink:href="#linearGradient934"
       id="linearGradient892"
       x1="0.11111111"
       y1="139.125"
       x2="271.23053"
       y2="139.125"
       gradientUnits="userSpaceOnUse" />
    <linearGradient
       inkscape:collect="always"
       id="linearGradient934">
      <stop
         style="stop-color:#ffcc00;stop-opacity:1"
         offset="0"
         id="stop930" />
      <stop
         style="stop-color:#00ffff;stop-opacity:1"
         offset="1"
         id="stop932" />
    </linearGradient>
    <linearGradient
       inkscape:collect="always"
       xlink:href="#linearGradient853"
       id="linearGradient865"
       gradientUnits="userSpaceOnUse"
       x1="0.11111111"
       y1="139.125"
       x2="271.23053"
       y2="139.125" />
    <linearGradient
       inkscape:collect="always"
       id="linearGradient853">
      <stop
         style="stop-color:#008080;stop-opacity:1"
         offset="0"
         id="stop849" />
      <stop
         style="stop-color:#00e5e5;stop-opacity:1"
         offset="1"
         id="stop851" />
    </linearGradient>
    <linearGradient
       inkscape:collect="always"
       xlink:href="#linearGradient853"
       id="linearGradient854"
       gradientUnits="userSpaceOnUse"
       gradientTransform="matrix(0.50301852,0,0,0.51428218,-1.118094,-1.71409)"
       x1="6"
       y1="50.000134"
       x2="94.005508"
       y2="50.000134" />
  </defs>
  <sodipodi:namedview
     pagecolor="#ffffff"
     bordercolor="#666666"
     borderopacity="1"
     objecttolerance="10"
     gridtolerance="10"
     guidetolerance="10"
     inkscape:pageopacity="0"
     inkscape:pageshadow="2"
     inkscape:window-width="1920"
     inkscape:window-height="1016"
     id="namedview29"
     showgrid="false"
     inkscape:zoom="6.5416667"
     inkscape:cx="-31.823467"
     inkscape:cy="-1.453173"
     inkscape:window-x="0"
     inkscape:window-y="0"
     inkscape:window-maximized="1"
     inkscape:current-layer="svg27" />
  <linearGradient
     id="a"
     x2="0"
     y1="541.79797"
     y2="499.78421"
     gradientTransform="matrix(.69229859 0 0 .69207328 120.25629 150.83367)"
     gradientUnits="userSpaceOnUse">
    <stop
       stop-color="#3daee9"
       offset="0"
       id="stop2" />
    <stop
       stop-color="#6cc1ef"
       offset="1"
       id="stop4" />
  </linearGradient>
  <g
     id="g8"
     transform="matrix(0.0498711,0,0,0.0498711,16.794529,18.706476)"
     style="fill:url(#linearGradient892);fill-opacity:1;image-rendering:optimizeQuality;shape-rendering:geometricPrecision;text-rendering:geometricPrecision">
    <path
       class="fil0"
       d="m 231,148 v 117 c 0,7 -6,13 -13,13 h -41 c -7,0 -12,-6 -12,-13 v -77 l -58,-1 v 78 c 0,7 -6,13 -13,13 H 53 c -7,0 -13,-6 -13,-13 V 149 H 13 C 1,149 -4,136 4,128 L 128,4 c 5,-5 13,-5 18,0 l 122,122 c 7,8 2,22 -9,22 z"
       id="path6"
       style="fill:url(#linearGradient865);fill-opacity:1" />
  </g>
  <path
     style="color:#000000;font-style:normal;font-variant:normal;font-weight:normal;font-stretch:normal;font-size:medium;line-height:normal;font-family:Sans;-inkscape-font-specification:Sans;text-indent:0;text-align:start;text-decoration:none;text-decoration-line:none;letter-spacing:normal;word-spacing:normal;text-transform:none;writing-mode:lr-tb;direction:ltr;baseline-shift:baseline;text-anchor:start;display:inline;overflow:visible;visibility:visible;opacity:1;fill:url(#linearGradient854);fill-opacity:1;fill-rule:nonzero;stroke:none;stroke-width:2.03454;marker:none;enable-background:accumulate"
     d="M 5.704069,6.000146 C 3.652751,6.000146 1.9,7.47095 1.9,9.423337 v 28.808299 c 0,1.216226 0.430166,1.997679 1.265348,2.706715 0.835187,0.709047 1.70195,1.061534 2.807946,1.061534 h 35.161952 c 0.844173,0.01492 0.820172,-1.144226 1.97e-4,-1.156516 L 5.92465,40.822793 c -1.088196,0 -1.992399,-0.767772 -1.992399,-0.767772 0,0 -0.83323,-0.625615 -0.83323,-1.823484 V 9.423245 c 0,-1.345433 0.915002,-2.208647 2.513263,-2.191078 l 12.377013,-0.0062 5.902055,5.261552 c 0.17834,0.160921 0.406673,0.390346 0.644476,0.395486 l 17.161722,-0.0062 c 0.875045,-0.0057 0.847398,-1.205685 -0.02764,-1.219723 H 24.897373 L 18.641078,6.241062 C 18.460518,6.085976 18.232404,6.000649 17.996586,6 Z m 19.963568,1.494628 c -0.798562,-0.003 -0.800166,1.373609 0.0199,1.385327 l 15.306369,-0.02091 c 1.550975,-0.003 2.222901,0.50048 2.73931,0.982241 0.516428,0.481763 1.301187,1.661219 1.301187,2.876568 v 28.25335 c 0.0057,0.956109 1.130572,0.987579 1.133938,0.03293 l -0.004,-28.286449 C 46.164182,11.066776 45.62437,9.684424 44.655279,8.78037 43.686195,7.876298 42.36682,7.494665 40.992672,7.494665 H 25.760789 c -0.03143,-0.002 -0.06298,-0.002 -0.09432,0 z"
     id="path2-3"
     sodipodi:nodetypes="sssssccscsssccccccccsccsssccssscc" />
</svg>
