<svg xmlns="http://www.w3.org/2000/svg" width="48" height="48">
	<path d="m 43.405704,3.3118674 a 2,2 0 0 0 -1.441407,0.580078 L 18.288516,27.393898 a 2,2 0 0 0 -0.0098,2.828125 2,2 0 0 0 2.828124,0.01172 L 44.782657,6.7317894 a 2,2 0 0 0 0.0098,-2.828125 2,2 0 0 0 -1.386718,-0.591797 z m -15.28711,0.810547 c -3.838823,-0.11223 -7.468832,1.248463 -9.601562,3.919922 -1.118572,1.304954 -1.616758,2.8306146 -1.5625,4.1679686 0.05474,1.349264 0.534621,2.43558 0.93164,3.310547 0.397019,0.874966 0.707178,1.574971 0.769532,1.929687 0.06235,0.354716 0.132422,0.256249 -0.19336,0.601563 l -0.01563,0.01953 -0.01758,0.01758 c -0.256287,0.286306 -0.347071,0.312293 -0.96289,0.292969 -0.61582,-0.01932 -1.586185,-0.248184 -2.714844,-0.484375 -1.128659,-0.236192 -2.445443,-0.478883 -3.900391,-0.259766 -1.4549477,0.219117 -3.0076067,1.009587 -4.1816407,2.457031 l -0.015624,0.02148 -0.017579,0.02148 c -2.379401,3.110468 -2.439492,7.024963 -1.019531,10.369141 a 1.9,1.9 0 0 0 2.492188,1.005859 1.9,1.9 0 0 0 1.005859,-2.490234 c -1.021643,-2.406091 -0.96722,-4.581266 0.523437,-6.548829 0.6342747,-0.774226 1.1197427,-0.979089 1.7773437,-1.078124 0.6641,-0.100015 1.54716,0.0114 2.556641,0.222656 1.009481,0.211251 2.115942,0.52299 3.375,0.5625 1.251208,0.03926 2.818071,-0.359749 3.890625,-1.541016 1.031796,-1.107328 1.366145,-2.675838 1.160156,-3.847656 C 22.190733,15.613899 21.70135,14.731235 21.347103,13.950531 20.992856,13.169827 20.770546,12.527928 20.7514,12.056 c -0.01915,-0.471928 0.03344,-0.84141 0.65625,-1.558594 l 0.0293,-0.03516 0.02734,-0.0332 c 1.139655,-1.4428816 3.708991,-2.5907226 6.544922,-2.5078126 1.417956,0.04145 2.885228,0.370295 4.265625,1.041016 A 1.9,1.9 0 0 0 34.8139,8.0833434 1.9,1.9 0 0 0 33.934994,5.5442804 c -1.891583,-0.9191 -3.888423,-1.365521 -5.816407,-1.421875 z M 40.011172,14.415383 a 1.9,1.9 0 0 0 -0.654297,0.103515 1.9,1.9 0 0 0 -1.177734,2.416016 c 0.670655,1.946618 1.236027,3.447449 1.314453,5.214844 0.171171,3.85766 -0.801421,7.721214 -3.1875,10.544922 -3.018154,3.365193 -6.780989,5.033027 -10.558593,5.412109 -1.893226,0.18998 -3.787103,0.04901 -5.564454,-0.378906 a 1.9,1.9 0 0 0 -2.291015,1.402343 1.9,1.9 0 0 0 1.402343,2.292969 c 2.18895,0.527008 4.504517,0.698404 6.832032,0.464844 4.655062,-0.467135 9.371404,-2.584481 13.033203,-6.681641 l 0.01758,-0.01953 0.01563,-0.01758 c 3.162977,-3.730395 4.302203,-8.579589 4.097656,-13.189453 -0.109594,-2.469786 -0.876546,-4.416901 -1.519531,-6.283203 a 1.9,1.9 0 0 0 -1.759766,-1.28125 z m -24.68164,14.96289 a 1.50015,1.50015 0 0 0 -0.38086,0.04883 c -4.525272,1.184429 -6.7759297,3.186225 -8.1093747,5.5 -1.333444,2.313773 -1.914778,4.6539 -3.919922,7.371093 a 1.50015,1.50015 0 0 0 1.980469,2.175781 c 3.101354,-1.867693 5.4177957,-2.349081 7.7167967,-3.544921 2.299002,-1.195841 4.301479,-3.226682 5.982422,-7.466797 a 1.50015,1.50015 0 0 0 -0.292969,-1.570313 l -1.876953,-2.03125 a 1.50015,1.50015 0 0 0 -1.099609,-0.482423 z m -0.402344,3.275391 0.455078,0.494141 c -1.333949,3.009807 -2.52801,4.275249 -4.150391,5.11914 -0.900664,0.468487 -2.0087047,0.859458 -3.3242177,1.392578 0.57962,-1.247234 1.022957,-2.352393 1.53125,-3.234375 0.9505337,-1.649352 2.2788177,-2.781474 5.4882807,-3.771484 z" fill="#008055"/>
</svg>
