<svg xmlns="http://www.w3.org/2000/svg" width="48" height="48">
	<path d="m 15.123047,2.4521241 a 1.9,1.9 0 0 0 -1.898438,1.9003904 1.9,1.9 0 0 0 1.898438,1.900391 h 12.582031 c 0.283117,0 0.433535,0.02819 0.539063,0.04688 0.0074,0.06961 0.01758,0.120954 0.01758,0.365234 v 9.4648435 c -1.3e-5,2.321403 0.973711,4.181659 1.964843,5.421875 2.294753,2.987827 5.54762,6.797633 8.210938,10.267578 1.335459,1.739924 2.51798,3.393676 3.330078,4.75 0.812098,1.356324 1.148437,2.524659 1.148437,2.591797 0,0.893019 -0.174154,1.411068 -0.554687,1.78125 -0.380533,0.370182 -1.228158,0.812289 -3.193359,0.806641 a 1.90019,1.90019 0 0 0 -0.0059,0 H 8.835937 a 1.90019,1.90019 0 0 0 -0.00586,0 C 6.86483,41.754517 6.019207,41.312526 5.638672,40.942358 5.258136,40.57219 5.082031,40.054127 5.082031,39.161108 c 0,-0.05097 0.32728,-1.192791 1.132813,-2.521484 0.805532,-1.328694 1.983498,-2.952389 3.314453,-4.664063 2.661909,-3.423348 5.929261,-7.203718 8.257812,-10.214844 a 1.90019,1.90019 0 0 0 0.02148,-0.0293 c 1.109405,-1.493622 1.821542,-3.270034 1.925781,-5.357422 a 1.90019,1.90019 0 0 0 0.002,-0.0957 v -6.027343 a 1.9,1.9 0 0 0 -1.900391,-1.9003905 1.9,1.9 0 0 0 -1.90039,1.9003905 v 5.955078 c -0.07385,1.408367 -0.407233,2.220807 -1.169922,3.25 -2.215134,2.862779 -5.488666,6.653869 -8.236328,10.1875 -1.376454,1.770188 -2.621467,3.473194 -3.5625002,5.025391 -0.9410335,1.552196 -1.6835938,2.845208 -1.6835938,4.492187 0,1.493181 0.389531,3.226153 1.7050781,4.505859 1.3144309,1.278622 3.2929439,1.886991 5.8476559,1.88086 h 30.326172 c 2.554769,0.0063 4.53322,-0.602177 5.847656,-1.88086 1.315554,-1.279768 1.707032,-3.012678 1.707032,-4.505859 0,-1.653912 -0.742556,-2.964771 -1.6875,-4.542969 C 44.084352,33.039942 42.831908,31.305725 41.451172,29.506811 38.6897,25.908984 35.404623,22.056369 33.21875,19.207983 a 1.90019,1.90019 0 0 0 -0.02344,-0.0293 C 32.605385,18.440502 32.062493,17.375055 32.0625,16.129858 V 6.6650145 c 0,-1.238966 -0.337111,-2.536196 -1.322266,-3.3437498 C 29.755079,2.513711 28.665267,2.4521241 27.705078,2.4521241 Z M 20.828125,20.36228 a 1.8,1.8 0 0 0 -1.800781,1.798828 1.8,1.8 0 0 0 1.800781,1.800781 h 6.414062 a 1.8,1.8 0 0 0 1.798828,-1.800781 1.8,1.8 0 0 0 -1.798828,-1.798828 z m 3.464844,5.269531 a 1.8809943,1.8809943 0 0 0 -1.88086,1.88086 1.8809943,1.8809943 0 0 0 1.88086,1.880859 1.8809943,1.8809943 0 0 0 1.880859,-1.880859 1.8809943,1.8809943 0 0 0 -1.880859,-1.88086 z m -7.726563,4.703125 a 3.4605861,3.4605861 0 0 0 -3.460937,3.460938 3.4605861,3.4605861 0 0 0 3.460937,3.460937 3.4605861,3.4605861 0 0 0 3.460938,-3.460937 3.4605861,3.4605861 0 0 0 -3.460938,-3.460938 z m 16.613281,0.199219 a 1.5373311,1.5373311 0 0 0 -1.521484,1.537109 1.5373311,1.5373311 0 0 0 1.537109,1.53711 1.5373311,1.5373311 0 0 0 1.53711,-1.53711 1.5373311,1.5373311 0 0 0 -1.53711,-1.537109 1.5373311,1.5373311 0 0 0 -0.01563,0 z M 26.28125,35.76853 a 2.3576984,2.3576984 0 0 0 -2.357422,2.357422 2.3576984,2.3576984 0 0 0 2.357422,2.359375 2.3576984,2.3576984 0 0 0 2.357422,-2.359375 2.3576984,2.3576984 0 0 0 -2.357422,-2.357422 z" fill="#008055"/>
</svg>
