<svg xmlns="http://www.w3.org/2000/svg" width="48" height="48">
	<path d="m 24.400912,2.0097646 c -13.031825,0 -22.4550786,10.1459134 -22.4550786,21.9316404 0,13.158752 10.7429276,22.011868 22.6152346,22.048828 0.002,3e-6 0.0039,3e-6 0.0059,0 h 20.682416 c 1.049646,2.15e-4 1.900605,-0.850744 1.90039,-1.90039 2.16e-4,-1.049646 -0.850744,-1.900606 -1.90039,-1.900391 h -20.676557 -0.0059 C 14.53452,42.155436 5.7446615,35.059464 5.7446615,23.941405 c 0,-9.791273 7.5658155,-18.1308591 18.6562505,-18.1308591 9.534256,0 17.711411,8.0378281 17.744141,18.5664061 -0.0019,5.041681 -2.490035,10.006273 -5.736328,12.912109 -0.782307,0.699938 -0.848777,1.901647 -0.148438,2.683594 0.699755,0.781025 1.89996,0.847461 2.681641,0.148438 4.098691,-3.66884 7.003906,-9.49649 7.003906,-15.75 3e-6,-0.002 3e-6,-0.0039 0,-0.0059 C 45.906964,11.861412 36.072236,2.0097646 24.400912,2.0097646 Z m -4.277344,7.3710935 c -1.780529,0.00253 -3.303656,1.2852529 -3.613281,3.0429689 -0.352953,2.001706 0.97974,3.909801 2.976562,4.261719 1.996393,0.351816 3.900779,-0.985101 4.253907,-2.986328 0.352952,-2.001706 -0.979741,-3.9098009 -2.976563,-4.2617189 -0.211462,-0.037629 -0.425826,-0.056582 -0.640625,-0.056641 z m 10.664063,1.6660159 c -1.780529,0.0025 -3.303656,1.285253 -3.613282,3.042969 -0.352952,2.001706 0.979741,3.9098 2.976563,4.261718 1.996393,0.351815 3.900778,-0.985101 4.253906,-2.986328 0.353029,-2.001063 -0.978581,-3.90886 -2.974609,-4.261719 -0.212104,-0.03774 -0.427126,-0.0567 -0.642578,-0.05664 z m -17.65625,6.982422 c -1.780529,0.0025 -3.3036566,1.285252 -3.6132825,3.042968 -0.3529526,2.001706 0.9797405,3.909801 2.9765635,4.261719 1.996393,0.351815 3.900778,-0.985101 4.253906,-2.986328 0.353029,-2.001063 -0.978581,-3.90886 -2.974609,-4.261719 -0.212104,-0.03774 -0.427126,-0.0567 -0.642578,-0.05664 z m 21.830078,3.148437 c -1.780529,0.0025 -3.303656,1.285253 -3.613281,3.042969 -0.352953,2.001706 0.97974,3.909801 2.976562,4.261719 1.997033,0.351738 3.901714,-0.986261 4.253906,-2.988281 0.353029,-2.001063 -0.978581,-3.90886 -2.974609,-4.261719 -0.212161,-0.03709 -0.427184,-0.05539 -0.642578,-0.05469 z m -10.914063,0.730469 c -1.168855,0.02928 -2.10125,0.985075 -2.101562,2.154297 -3.87e-4,1.190262 0.964035,2.155559 2.154297,2.15625 1.191024,3.87e-4 2.156637,-0.965226 2.15625,-2.15625 -6.91e-4,-1.190262 -0.965988,-2.154684 -2.15625,-2.154297 -0.01758,-2.15e-4 -0.03515,-2.15e-4 -0.05273,0 z m -6.923828,6.603516 c -1.780529,0.0025 -3.303655,1.285252 -3.613281,3.042968 -0.352953,2.001706 0.97974,3.909801 2.976562,4.261719 1.996393,0.351816 3.900779,-0.985101 4.253907,-2.986328 0.352953,-2.001706 -0.979741,-3.909801 -2.976563,-4.261719 -0.211462,-0.03763 -0.425826,-0.05658 -0.640625,-0.05664 z m 11.267578,2.125 c -1.780529,0.0025 -3.303655,1.285252 -3.613281,3.042968 -0.352953,2.001706 0.979741,3.909801 2.976563,4.261719 1.997033,0.351738 3.901714,-0.986261 4.253906,-2.988281 0.352953,-2.001706 -0.979741,-3.909801 -2.976563,-4.261719 -0.211519,-0.03697 -0.425883,-0.05527 -0.640625,-0.05469 z" fill="#008055"/>
</svg>
