<svg xmlns="http://www.w3.org/2000/svg" width="48" height="48">
	<path d="M 26.272461,3.2275763 A 1.7,1.7 0 0 0 25.139648,3.6728888 1.7,1.7 0 0 0 25.02832,6.0732789 c 1.348318,1.4783 3.109257,4.6991611 4.130859,9.5175791 -1.589903,0.177203 -3.319325,0.273437 -5.185547,0.273437 -1.875834,0 -3.625455,-0.109084 -5.24414,-0.302734 1.022555,-4.801784 2.777523,-8.0130461 4.123047,-9.4882821 A 1.7,1.7 0 0 0 22.743164,3.6728888 1.7,1.7 0 0 0 21.538085,3.2295294 1.7,1.7 0 0 0 20.34082,3.7822638 c -1.953583,2.1419121 -3.916938,5.8831931 -5,11.1953122 C 12.939951,14.446962 10.935188,13.723117 9.4248044,12.883826 11.315634,10.4234 13.648848,8.6406829 15.766601,7.5654669 a 1.8,1.8 0 0 0 0.789063,-2.419922 1.8,1.8 0 0 0 -1.654297,-0.984375 1.8,1.8 0 0 0 -0.765625,0.195313 C 8.5923805,7.1709319 2.0947265,13.807045 2.0947265,23.928748 c 0,5.612791 2.0079119,10.100414 4.554688,13.365235 2.5467749,3.264821 5.5850015,5.342427 7.9062495,6.40625 a 1.8,1.8 0 0 0 2.386718,-0.886719 1.8,1.8 0 0 0 -0.886718,-2.386719 c -1.763653,-0.808278 -4.43121,-2.607952 -6.5683596,-5.347656 -0.024533,-0.03145 -0.047861,-0.06597 -0.072265,-0.09766 1.5108756,-0.841451 3.5171666,-1.567407 5.9218746,-2.09961 1.205365,5.931165 3.464108,9.642574 5.238281,11.398438 a 1.7,1.7 0 0 0 2.404297,-0.01172 1.7,1.7 0 0 0 -0.01367,-2.404297 c -1.011555,-1.001115 -3.069081,-4.171709 -4.230469,-9.568359 1.617027,-0.193389 3.364753,-0.302735 5.238281,-0.302735 1.863308,0 3.589878,0.09676 5.177735,0.273438 -1.160258,5.414027 -3.222993,8.594778 -4.236328,9.597656 a 1.7,1.7 0 0 0 -0.01172,2.404297 1.7,1.7 0 0 0 2.404297,0.01172 c 1.779498,-1.761133 4.044067,-5.490749 5.246094,-11.453125 2.458894,0.52478 4.480712,1.260572 6.013671,2.144531 -0.01886,0.02442 -0.03575,0.0519 -0.05469,0.07617 -2.137136,2.739712 -4.804706,4.539441 -6.56836,5.347656 a 1.8,1.8 0 0 0 -0.886718,2.386719 1.8,1.8 0 0 0 2.386718,0.886719 c 2.321347,-1.063785 5.359486,-3.143364 7.90625,-6.408204 2.546766,-3.264838 4.554688,-7.750496 4.554688,-13.363281 0,-10.121703 -6.49776,-16.7597661 -12.041016,-19.5742191 A 1.8,1.8 0 0 0 32.993164,4.12992 a 1.8,1.8 0 0 0 -1.548829,0.9843749 1.8,1.8 0 0 0 0.789063,2.419922 c 2.122774,1.077786 4.462264,2.8663311 6.355469,5.3359381 -1.536478,0.890271 -3.564343,1.634563 -6.03711,2.162109 C 31.471116,9.6906539 29.500413,5.9316229 27.540039,3.7822638 A 1.7,1.7 0 0 0 26.272461,3.2275763 Z m 14.21875,12.7109377 c 1.105124,2.262831 1.8125,4.912065 1.8125,7.958984 0,3.140369 -0.726831,5.784989 -1.828126,8.013672 -2.00107,-1.186207 -4.474796,-2.074944 -7.371093,-2.667969 0.180717,-1.645292 0.289062,-3.413039 0.289062,-5.330078 0,-1.885482 -0.101409,-3.649538 -0.283203,-5.296875 2.901528,-0.594614 5.378183,-1.487635 7.38086,-2.677734 z m -32.9726565,0.0098 c 1.9677559,1.134933 4.4149575,2.014452 7.2578125,2.617188 -0.185286,1.661519 -0.289063,3.443163 -0.289063,5.347656 0,1.935819 0.110772,3.720145 0.294922,5.378906 -2.849531,0.603617 -5.3008456,1.486949 -7.2714836,2.625 -1.0940189,-2.223296 -1.8144529,-4.860159 -1.8144529,-7.988281 0,-3.0564 0.711184,-5.713058 1.822265,-7.980469 z m 10.6328125,3.183594 c 1.814103,0.216223 3.752424,0.333985 5.822265,0.333985 2.054579,0 3.970527,-0.106283 5.757813,-0.306641 0.164609,1.475621 0.261719,3.057719 0.261719,4.753906 0,1.723028 -0.102793,3.308739 -0.269532,4.785156 -1.784967,-0.199753 -3.698557,-0.304687 -5.75,-0.304687 -2.066103,0 -4.001197,0.118524 -5.8125,0.333984 -0.168777,-1.484518 -0.273437,-3.080069 -0.273437,-4.814453 0,-1.706441 0.0972,-3.298064 0.263672,-4.78125 z" fill="#008055"/>
</svg>
