<svg xmlns="http://www.w3.org/2000/svg" width="48" height="48">
	<path d="M 27.699219,1.9160156 C 26.94734,1.9091459 26.258538,2.0432461 25.625,2.3535156 24.357924,2.9740547 23.776559,4.0732383 23.378906,4.8574219 22.583601,6.4257891 22.52439,7.3308596 20.013672,7.9648438 17.462042,8.6091584 16.971938,7.8388535 15.515625,6.8398438 14.787468,6.3403389 13.743946,5.6546259 12.333984,5.7128906 10.924023,5.7711554 9.6461388,6.5433159 8.3066406,7.8339844 6.9781638,9.1140333 6.1625416,10.361942 6.0664062,11.769531 c -0.096135,1.40759 0.5646252,2.460797 1.0449219,3.197266 0.9605935,1.472938 1.7141253,1.977412 1.0078125,4.46875 -0.7178219,2.531933 -1.6293317,2.570332 -3.2226562,3.332031 -0.7966623,0.38085 -1.9118842,0.943165 -2.5664063,2.19336 -0.654522,1.250194 -0.6257372,2.741501 -0.1777343,4.546874 0.4443162,1.79052 1.1181219,3.121153 2.2890624,3.908204 1.1709406,0.78705 2.4130665,0.741074 3.2910157,0.693359 1.3388984,-0.07277 1.6208346,-0.260488 2.4951581,0.215627 2.16134,1.08155 4.099492,-1.610325 1.916032,-3.237889 C 10.718641,30.097592 8.8154938,30.244445 7.5273438,30.314453 6.7936566,30.354328 6.6087097,30.294092 6.5605469,30.261719 6.512384,30.229346 6.1746298,29.93501 5.8417969,28.59375 5.504379,27.234014 5.6613761,26.791208 5.6972656,26.722656 5.7331551,26.654104 5.870311,26.513146 6.5351562,26.195312 7.8648467,25.559645 10.71423,24.215629 11.775391,20.472656 12.829326,16.755168 11.097673,14.121534 10.294922,12.890625 9.8935459,12.27517 9.8534677,12.08524 9.8574219,12.027344 c 0.00395,-0.0579 0.09079,-0.498158 1.0859371,-1.457032 1.008857,-0.9720789 1.469563,-1.0553986 1.546875,-1.0585932 0.07731,-0.00319 0.267326,0.044082 0.875,0.4609374 1.21535,0.8337118 3.806036,2.6282738 7.578125,1.6757818 3.746407,-0.946012 5.159596,-3.7616083 5.824219,-5.0722661 0.332311,-0.6553289 0.47718,-0.785023 0.529297,-0.8105469 0.02606,-0.012762 0.145169,-0.05549 0.423828,-0.046875 0.27866,0.00861 0.716869,0.068572 1.380859,0.2597656 1.346275,0.3876556 1.649984,0.7451896 1.691407,0.8105469 0.04142,0.065357 0.09428,0.2535915 0.03711,0.9882813 -0.114341,1.4693794 -0.373038,4.6099122 2.337891,7.4003902 2.692471,2.771479 5.837313,2.587562 7.304687,2.507813 0.733687,-0.03987 0.918634,0.02036 0.966797,0.05273 0.04816,0.03237 0.385917,0.326709 0.71875,1.667969 0.337418,1.359736 0.180421,1.802542 0.144531,1.871094 -0.03589,0.06855 -0.173045,0.20951 -0.83789,0.527344 -1.329691,0.635667 -4.179074,1.979683 -5.240235,5.722656 -1.053935,3.717488 0.677718,6.351122 1.480469,7.582031 0.401376,0.615455 0.441454,0.805385 0.4375,0.863281 -0.004,0.0579 -0.09079,0.49816 -1.085937,1.457032 -1.008857,0.972079 -1.469563,1.055398 -1.546875,1.058593 -0.07731,0.0032 -0.267326,-0.04408 -0.875,-0.460937 -1.21535,-0.833712 -3.806036,-2.628276 -7.578125,-1.675782 -3.746407,0.946011 -5.159596,3.761608 -5.824219,5.072266 -0.332311,0.655329 -0.47718,0.785023 -0.529297,0.810547 -0.05212,0.02552 -0.476706,0.169497 -1.804687,-0.212891 -1.346275,-0.387655 -1.649984,-0.74519 -1.691407,-0.810546 -0.04142,-0.06536 -0.09428,-0.253592 -0.03711,-0.988282 0.09266,-1.190712 0.0077,-2.912655 -0.745291,-4.338424 -1.12486,-2.22887 -4.306217,-0.74955 -3.113127,1.930163 0.242163,0.903547 0.163896,0.898422 0.06935,2.113339 -0.06851,0.880355 -0.140205,2.12643 0.615235,3.31836 0.755439,1.19193 2.064061,1.913029 3.851562,2.427734 1.772794,0.51047 3.260268,0.593195 4.527344,-0.02734 1.267076,-0.620539 1.848441,-1.719722 2.246094,-2.503906 0.795305,-1.568367 0.854516,-2.473438 3.365234,-3.107422 2.55163,-0.644314 3.041734,0.12599 4.498047,1.125 0.728157,0.499505 1.771679,1.185218 3.181641,1.126953 1.409961,-0.05826 2.687845,-0.830425 4.027343,-2.121093 1.328477,-1.280049 2.144099,-2.527958 2.240235,-3.935547 0.09614,-1.40759 -0.564625,-2.460797 -1.044922,-3.197266 -0.960594,-1.472938 -1.714125,-1.977412 -1.007813,-4.46875 0.717822,-2.531933 1.629332,-2.570332 3.222657,-3.332031 0.796662,-0.38085 1.911884,-0.943165 2.566406,-2.19336 0.654522,-1.250194 0.625737,-2.741501 0.177734,-4.546874 -0.444316,-1.79052 -1.118122,-3.121153 -2.289062,-3.908204 -1.170941,-0.78705 -2.413067,-0.741074 -3.291016,-0.693359 -1.755898,0.09543 -2.570594,0.496026 -4.375,-1.361328 C 34.058771,10.641678 34.482129,9.8329748 34.619141,8.0722656 34.687646,7.191911 34.759346,5.9458366 34.003906,4.7539062 33.248467,3.561976 31.939845,2.8408771 30.152344,2.3261719 29.265947,2.0709368 28.451097,1.9228853 27.699219,1.9160156 Z M 23.712891,14.978516 c -1.264021,0.02942 -2.534145,0.327934 -3.72461,0.914062 -0.952372,0.468903 -1.788691,1.090395 -2.492187,1.824219 -2.11049,2.201471 -3.014732,5.407898 -2.199219,8.486328 0.269012,1.013631 1.308373,1.617666 2.322266,1.349609 1.013643,-0.269018 1.617679,-1.30838 1.349609,-2.322265 -0.629815,-2.377451 0.49269,-4.841345 2.699219,-5.927735 2.206528,-1.086389 4.841499,-0.474258 6.341797,1.47461 1.500297,1.948867 1.419345,4.656497 -0.195313,6.511718 -1.614657,1.855222 -4.282636,2.306822 -6.419922,1.089844 -0.912522,-0.519184 -2.073166,-0.199941 -2.591797,0.712891 -0.517878,0.912079 -0.198795,2.071268 0.712891,2.589844 3.689934,2.10106 8.376416,1.304534 11.164063,-1.898438 2.787646,-3.202971 2.931999,-7.957626 0.341796,-11.322265 -1.780763,-2.31319 -4.527748,-3.547145 -7.308593,-3.482422 z" fill="#008055"/>
</svg>
