<svg xmlns="http://www.w3.org/2000/svg" width="48" height="48">
	<path d="M 5.375 4.7421875 C 4.190159 4.7421875 3.0282596 5.1444147 2.1914062 5.96875 C 1.3545531 6.7930853 0.91015625 7.9896843 0.91015625 9.2714844 L 0.91015625 38.287109 A 1.5 1.5 0 0 0 2.4101562 39.787109 A 1.5 1.5 0 0 0 3.9101562 38.287109 L 3.9101562 9.2714844 C 3.9101562 8.6332044 4.0838183 8.3153384 4.296875 8.1054688 C 4.5099317 7.8955989 4.831421 7.7421875 5.375 7.7421875 L 8.7929688 7.7421875 C 9.5013377 7.7421875 9.7631696 7.9015277 9.9199219 8.0664062 C 10.076674 8.231285 10.242188 8.5598902 10.242188 9.2714844 L 10.242188 38.287109 C 10.242188 39.016513 10.036325 39.530752 9.7949219 39.822266 C 9.5535185 40.11378 9.3043144 40.257812 8.7929688 40.257812 L 5.1601562 40.257812 A 1.5 1.5 0 0 0 3.6601562 41.757812 A 1.5 1.5 0 0 0 5.1601562 43.257812 L 8.7929688 43.257812 C 10.102363 43.257812 11.327462 42.675834 12.105469 41.736328 C 12.883475 40.796822 13.242188 39.575706 13.242188 38.287109 L 13.242188 9.2714844 C 13.242188 8.0542185 12.918138 6.8671263 12.09375 6 C 11.269362 5.1328737 10.05842 4.7421875 8.7929688 4.7421875 L 5.375 4.7421875 z M 18.736328 4.7421875 C 17.551484 4.7421875 16.38959 5.1444146 15.552734 5.96875 C 14.715879 6.7930854 14.271484 7.9896843 14.271484 9.2714844 L 14.271484 38.287109 A 1.5 1.5 0 0 0 15.771484 39.787109 A 1.5 1.5 0 0 0 17.271484 38.287109 L 17.271484 9.2714844 C 17.271484 8.6332044 17.445146 8.3153383 17.658203 8.1054688 C 17.87126 7.895599 18.192742 7.7421875 18.736328 7.7421875 L 22.154297 7.7421875 C 22.862659 7.7421875 23.124496 7.9015259 23.28125 8.0664062 C 23.438004 8.2312868 23.603516 8.5598928 23.603516 9.2714844 L 23.603516 38.287109 C 23.603516 39.016513 23.397653 39.530752 23.15625 39.822266 C 22.914847 40.11378 22.665642 40.257812 22.154297 40.257812 L 18.439453 40.257812 A 1.5 1.5 0 0 0 16.939453 41.757812 A 1.5 1.5 0 0 0 18.439453 43.257812 L 22.154297 43.257812 C 23.463691 43.257812 24.68879 42.675834 25.466797 41.736328 C 26.244804 40.796822 26.603516 39.575706 26.603516 38.287109 L 26.603516 9.2714844 C 26.603516 8.0542159 26.281419 6.8671246 25.457031 6 C 24.632643 5.1328754 23.419744 4.7421875 22.154297 4.7421875 L 18.736328 4.7421875 z M 7.0683594 9.0371094 A 2.6317697 -2.6206362 0 0 0 4.4355469 11.65625 A 2.6317697 -2.6206362 0 0 0 7.0683594 14.277344 A 2.6317697 -2.6206362 0 0 0 9.6992188 11.65625 A 2.6317697 -2.6206362 0 0 0 7.0683594 9.0371094 z M 20.429688 9.0371094 A 2.6317697 -2.6206362 0 0 0 17.798828 11.65625 A 2.6317697 -2.6206362 0 0 0 20.429688 14.277344 A 2.6317697 -2.6206362 0 0 0 23.0625 11.65625 A 2.6317697 -2.6206362 0 0 0 20.429688 9.0371094 z M 34.818359 10.714844 C 34.217739 10.713504 33.602567 10.831317 33.007812 11.046875 L 29.794922 12.210938 C 28.681082 12.614622 27.726675 13.38796 27.222656 14.449219 C 26.718637 15.510477 26.712249 16.788144 27.152344 17.992188 L 35.121094 39.792969 A 1.5 1.5 0 0 0 37.044922 40.6875 A 1.5 1.5 0 0 0 37.939453 38.763672 L 29.970703 16.962891 C 29.751308 16.362654 29.806243 16.004477 29.933594 15.736328 C 30.060945 15.468179 30.308009 15.216215 30.818359 15.03125 L 34.03125 13.867188 C 34.69652 13.626072 34.997404 13.686624 35.203125 13.789062 C 35.408846 13.891502 35.677326 14.14539 35.921875 14.814453 L 43.890625 36.615234 C 44.141302 37.30104 44.124237 37.854319 43.998047 38.208984 C 43.871857 38.56365 43.68894 38.781127 43.208984 38.955078 A 1.50015 1.50015 0 0 0 43.160156 38.974609 L 39.779297 40.333984 A 1.5 1.5 0 0 0 38.947266 42.285156 A 1.5 1.5 0 0 0 40.898438 43.117188 L 44.279297 41.757812 L 44.230469 41.775391 C 45.461453 41.329242 46.415299 40.364143 46.824219 39.214844 C 47.233139 38.065545 47.151447 36.794478 46.708984 35.583984 L 38.740234 13.783203 C 38.322264 12.639676 37.611729 11.636681 36.541016 11.103516 C 36.005659 10.836933 35.418979 10.716184 34.818359 10.714844 z M 33.623047 15.314453 A 2.6317695 2.6206363 0.00035376739 0 0 32.785156 15.470703 A 2.6317695 2.6206363 0.00035376739 0 0 31.212891 18.830078 A 2.6317695 2.6206363 0.00035376739 0 0 34.585938 20.396484 A 2.6317695 2.6206363 0.00035376739 0 0 36.158203 17.037109 A 2.6317695 2.6206363 0.00035376739 0 0 33.623047 15.314453 z M 41.371094 33.257812 A 1.7 1.7 0 0 0 40.794922 33.359375 L 38.21875 34.292969 A 1.7 1.7 0 0 0 37.199219 36.470703 A 1.7 1.7 0 0 0 39.376953 37.488281 L 41.953125 36.554688 A 1.7 1.7 0 0 0 42.972656 34.376953 A 1.7 1.7 0 0 0 41.371094 33.257812 z M 5.7050781 34.175781 A 1.7 1.7 0 0 0 4.0039062 35.876953 A 1.7 1.7 0 0 0 5.7050781 37.576172 L 8.4453125 37.576172 A 1.7 1.7 0 0 0 10.146484 35.876953 A 1.7 1.7 0 0 0 8.4453125 34.175781 L 5.7050781 34.175781 z M 19.066406 34.175781 A 1.7 1.7 0 0 0 17.367188 35.876953 A 1.7 1.7 0 0 0 19.066406 37.576172 L 21.808594 37.576172 A 1.7 1.7 0 0 0 23.507812 35.876953 A 1.7 1.7 0 0 0 21.808594 34.175781 L 19.066406 34.175781 z " fill="#008055"/>
</svg>
