<svg xmlns="http://www.w3.org/2000/svg" width="48" height="48">
	<path d="m 24.857352,1.0757182 a 2,2 0 0 0 -1.97461,2.0273437 l 0.01367,1.0175782 a 2,2 0 0 0 2.027344,1.9726562 2,2 0 0 0 1.972656,-2.0273437 l -0.01367,-1.015625 a 2,2 0 0 0 -2.02539,-1.9746094 z m 0.117187,5.5859375 c -2.53719,0.036838 -4.909983,1.6661609 -5.923828,4.2011723 a 2.0002,2.0002 0 0 0 -0.03125,0.08398 c -0.5074,1.455893 -0.494469,3.04244 0.07422,4.417968 0.568687,1.375529 1.617215,2.498842 2.933593,3.382812 l -0.03711,-0.02539 c 0.254044,0.178938 1.318349,1.463131 2.224609,2.904297 0.906261,1.441165 1.805334,3.049282 2.589844,4.253906 a 2,2 0 0 0 2.767578,0.583984 2,2 0 0 0 0.583985,-2.767578 C 29.50944,22.703736 28.583429,21.05715 27.601492,19.49564 26.619555,17.934131 25.731175,16.465734 24.292898,15.452671 a 2.0002,2.0002 0 0 0 -0.03711,-0.02539 c -0.831742,-0.558529 -1.268568,-1.115098 -1.464844,-1.589844 -0.191405,-0.462966 -0.207528,-0.897785 0.0059,-1.535156 0.611775,-1.48617 1.30237,-1.831609 2.607421,-1.611328 1.107102,0.186926 1.903474,1.068143 1.867188,2.304687 a 2.0002,2.0002 0 0 0 0,0.04297 c -0.0043,0.516034 -0.110235,0.71783 -0.167969,0.81836 -0.05773,0.100529 0.01865,0.02218 -0.140625,0.160156 a 2,2 0 0 0 -0.201172,2.820312 2,2 0 0 0 2.820313,0.201172 c 0.03131,-0.02712 0.600275,-0.510433 0.990234,-1.189453 0.387185,-0.674191 0.679855,-1.621278 0.69336,-2.757812 0.08136,-3.1564376 -2.19884,-5.8394409 -5.197266,-6.3457036 -0.365693,-0.061726 -0.731294,-0.089247 -1.09375,-0.083985 z M 20.658133,20.442906 a 2,2 0 0 0 -1.699219,1.013672 L 6.2421169,43.939 a 2,2 0 0 0 0.7558594,2.726562 2,2 0 0 0 2.7246094,-0.755859 L 22.439383,23.425328 a 2,2 0 0 0 -0.75586,-2.724609 2,2 0 0 0 -1.02539,-0.257813 z m 18.080078,4.060547 a 2,2 0 0 0 -0.119141,0.002 2,2 0 0 0 -1.144531,0.423828 c -0.723197,0.565171 -1.247839,0.947803 -2.164063,1.298828 a 2,2 0 0 0 -1.15039,2.583985 2,2 0 0 0 2.582031,1.152343 c 1.407838,-0.539374 2.403709,-1.266136 3.195313,-1.884765 A 2,2 0 0 0 40.283133,25.273031 2,2 0 0 0 38.738211,24.5035 Z m -16.445313,3.171875 a 2,2 0 0 0 -1.904296,1.425781 2,2 0 0 0 1.339843,2.490234 c 2.659485,0.798438 5.213473,0.665725 7.628907,0.275391 a 2.0002,2.0002 0 0 0 0.02148,-0.0039 c 0.448422,-0.07766 0.65429,-0.06008 0.992187,0.480469 l 7.9375,13.064453 a 2,2 0 0 0 2.748047,0.669922 2,2 0 0 0 0.669922,-2.748047 L 33.777273,30.24564 a 2.0002,2.0002 0 0 0 -0.01367,-0.02148 C 32.64864,28.440509 30.543414,27.601686 28.697196,27.921426 l 0.02148,-0.0039 c -2.125407,0.343466 -3.962029,0.407513 -5.839844,-0.15625 a 2,2 0 0 0 -0.585938,-0.08594 z" fill="#008055"/>
</svg>
