<svg xmlns="http://www.w3.org/2000/svg" width="48" height="48">
	<path d="m 8.6279296,4.1103515 c -1.720414,0 -3.3942581,0.3729439 -4.7226561,1.4472656 -1.3283977,1.0743217 -2.078125,2.8366944 -2.078125,4.7421869 V 29.84082 c 0,1.807665 0.7813799,3.491679 2.0625,4.576172 1.28112,1.084492 2.961546,1.59375 4.7382811,1.59375 H 21.256836 v 1.708984 c 0,1.032082 -0.238205,1.454234 -0.488281,1.697266 -0.250075,0.243031 -0.711781,0.472656 -1.701172,0.472656 H 10.90918 a 2,2 0 0 0 -2.0000004,2 2,2 0 0 0 2.0000004,2 h 8.158203 c 1.678599,0 3.312853,-0.46125 4.490235,-1.605469 1.177382,-1.144218 1.699218,-2.805735 1.699218,-4.564453 v -3.708984 a 2.0002,2.0002 0 0 0 -2,-2 H 8.6279296 c -1.014555,0 -1.7326791,-0.289577 -2.154297,-0.646485 C 6.0520155,31.00735 5.8271485,30.607554 5.8271485,29.84082 V 10.299804 c 0,-1.0095065 0.230209,-1.3403835 0.591797,-1.6328115 0.361587,-0.292429 1.087159,-0.556641 2.2089841,-0.556641 H 39.985352 c 0.889358,0 1.339953,0.244245 1.650391,0.566406 0.310437,0.322162 0.537109,0.819306 0.537109,1.6230465 V 29.84082 c 0,1.032145 -0.236253,1.45423 -0.486328,1.697265 -0.250075,0.243036 -0.711781,0.472657 -1.701172,0.472657 H 28.715821 a 2,2 0 0 0 -2,2 2,2 0 0 0 2,2 h 11.269531 c 1.678599,0 3.310899,-0.459276 4.488281,-1.603516 1.177383,-1.14424 1.699219,-2.807652 1.699219,-4.566406 V 10.299804 c 0,-1.6401575 -0.538138,-3.2360733 -1.658203,-4.3984369 C 43.394584,4.7390036 41.751824,4.1103515 39.985352,4.1103515 Z M 30.819336,11.891601 c -0.681532,0 -1.476834,0.167902 -2.136718,0.742187 -0.659885,0.574287 -1.007813,1.504591 -1.007813,2.40625 v 4.351563 c 0,0.804041 0.317278,1.624947 0.910156,2.195313 0.592879,0.570365 1.416271,0.859374 2.234375,0.859374 a 1.6,1.6 0 0 0 1.59961,-1.599609 1.6,1.6 0 0 0 -1.544922,-1.599609 v -4.15625 h 4.451172 v 4.15625 h -0.576172 a 1.6,1.6 0 0 0 -1.59961,1.599609 1.6,1.6 0 0 0 1.59961,1.599609 h 0.740234 c 1.56931,0 3.035156,-1.435682 3.035156,-3.054687 l 0.002,-4.351563 c 1.5e-5,-0.79142 -0.221744,-1.638107 -0.822266,-2.267578 -0.600522,-0.62947 -1.461061,-0.880859 -2.214844,-0.880859 z M 10.581055,25.729492 a 1.8,1.8 0 0 0 -1.8007814,1.800781 1.8,1.8 0 0 0 1.8007814,1.798828 h 18.945313 a 1.8,1.8 0 0 0 1.798828,-1.798828 1.8,1.8 0 0 0 -1.798828,-1.800781 z m 17.492188,14.160156 a 2,2 0 0 0 -2,2 2,2 0 0 0 2,2 h 7.140625 a 2,2 0 0 0 2,-2 2,2 0 0 0 -2,-2 z" fill="#008055"/>
</svg>
