<svg xmlns="http://www.w3.org/2000/svg" width="48" height="48">
	<path d="m 8.6289062,4.1093748 c -1.720391,0 -3.3961985,0.3729726 -4.7246093,1.4472656 -1.3284109,1.0742931 -2.078125,2.8386475 -2.078125,4.7441406 v 19.541015 c 0,1.807666 0.7813684,3.491707 2.0625,4.576172 1.2811315,1.084465 2.963523,1.59375 4.7402343,1.59375 l 12.6269528,-0.002 v 1.708984 c 0,1.032146 -0.236253,1.456184 -0.486328,1.699219 -0.250075,0.243036 -0.711781,0.472657 -1.701172,0.472657 h -8.158203 a 2,2 0 0 0 -1.9999998,2 2,2 0 0 0 1.9999998,2 h 8.158203 c 1.678599,0 3.310899,-0.46123 4.488282,-1.605469 1.177382,-1.14424 1.699218,-2.807651 1.699218,-4.566407 v -3.708984 a 2.0002,2.0002 0 0 0 -2,-2 l -14.6269528,0.002 c -1.0145786,0 -1.734644,-0.289599 -2.15625,-0.646484 C 6.0510503,31.008349 5.8261719,30.608531 5.8261719,29.841796 V 10.300781 c 0,-1.0095069 0.2321757,-1.3404055 0.59375,-1.6328125 C 6.7814959,8.3755616 7.5070572,8.1093748 8.6289062,8.1093748 H 39.984375 c 0.889383,0 1.339967,0.2462233 1.65039,0.5683594 0.310424,0.3221361 0.539063,0.8193055 0.539063,1.6230468 v 19.541015 c 0,1.032083 -0.238206,1.454235 -0.488281,1.697266 -0.250076,0.243031 -0.711781,0.472656 -1.701172,0.472656 H 28.714844 a 2,2 0 0 0 -2,2 2,2 0 0 0 2,2 h 11.269531 c 1.678599,0 3.310899,-0.46125 4.488281,-1.605469 1.177382,-1.144218 1.701172,-2.805735 1.701172,-4.564453 V 10.300781 c 0,-1.6401586 -0.538124,-3.2360984 -1.658203,-4.3984375 C 43.395546,4.7400047 41.750822,4.1093748 39.984375,4.1093748 Z M 36.119141,9.9980467 a 3.4605861,3.4605861 0 0 0 -3.460938,3.4609373 3.4605861,3.4605861 0 0 0 3.460938,3.460937 3.4605861,3.4605861 0 0 0 3.458984,-3.460937 3.4605861,3.4605861 0 0 0 -3.458984,-3.4609373 z M 16.123047,15.671875 c -0.289979,-0.02199 -0.582715,-0.01005 -0.871094,0.0332 -1.154382,0.173135 -2.243577,0.859429 -2.851562,1.986328 a 1.70017,1.70017 0 0 0 -0.01172,0.02148 l -4.9316398,9.457038 a 1.7,1.7 0 0 0 0.7207031,2.292969 1.7,1.7 0 0 0 2.2949217,-0.720703 l 4.919922,-9.435547 c 0.188509,-0.349402 0.498616,-0.310423 0.613281,-0.1875 a 1.70017,1.70017 0 0 0 0.02539,0.02734 l 2.494141,2.556641 c 0.718588,0.793217 1.732847,1.308032 2.763671,1.322265 1.030825,0.01423 1.972727,-0.432343 2.691407,-1.078125 a 1.70017,1.70017 0 0 0 0.0625,-0.05859 l 1.740234,-1.732422 c 0.250597,-0.245651 0.374597,-0.270985 0.509766,-0.271484 0.135168,-4.98e-4 0.401704,0.04583 0.853515,0.429688 a 1.70017,1.70017 0 0 0 0.02344,0.01953 l 11.021484,9.042969 a 1.7,1.7 0 0 0 2.392578,-0.236328 1.7,1.7 0 0 0 -0.236328,-2.392579 l -11.021484,-9.042968 0.02148,0.01953 c -0.899999,-0.764641 -1.96103,-1.244312 -3.066406,-1.240234 -1.105377,0.0041 -2.133741,0.515593 -2.876953,1.24414 a 1.70017,1.70017 0 0 0 -0.0098,0.0078 l -1.693359,1.685547 c -0.212712,0.187186 -0.33565,0.203533 -0.365235,0.203124 -0.0302,-4.17e-4 -0.0751,0.0311 -0.289062,-0.205078 a 1.70017,1.70017 0 0 0 -0.04492,-0.04492 l -2.509766,-2.574218 -0.002,-0.002 c -0.649736,-0.695443 -1.49725,-1.060991 -2.367187,-1.126953 z m 11.951172,24.21875 a 2,2 0 0 0 -2,2 2,2 0 0 0 2,2 h 7.140625 a 2,2 0 0 0 2,-2 2,2 0 0 0 -2,-2 z" fill="#008055"/>
</svg>
