<svg xmlns="http://www.w3.org/2000/svg" width="48" height="48">
	<path d="m 8.628907,5.3242189 c -1.7204098,0 -3.3942562,0.3729519 -4.7226563,1.4472656 -1.3284,1.0743138 -2.078125,2.8366978 -2.078125,4.7421875 v 19.541015 c 0,1.807672 0.7813748,3.491686 2.0625,4.576172 1.2811252,1.084486 2.9615557,1.59375 4.7382813,1.59375 a 2.0002,2.0002 0 0 0 0.00195,0 l 12.6269529,-0.002 v 1.710938 c 0,1.03212 -0.238203,1.454227 -0.488281,1.697265 -0.250079,0.243039 -0.709833,0.472657 -1.699219,0.472657 H 10.91211 a 2,2 0 0 0 -1.9999999,2 2,2 0 0 0 1.9999999,2 h 8.158203 c 1.678604,0 3.310902,-0.461233 4.488281,-1.605469 1.177379,-1.144237 1.699219,-2.805714 1.699219,-4.564453 v -3.710938 a 2.0002,2.0002 0 0 0 -2,-2 l -14.628906,0.002 c -1.0145643,0 -1.7326846,-0.289585 -2.1542968,-0.646484 C 6.0529978,32.221226 5.8281257,31.821436 5.8281257,31.054687 V 11.513672 c 0,-1.009501 0.2321651,-1.340389 0.59375,-1.6328127 0.361585,-0.292423 1.085201,-0.55664 2.2070313,-0.55664 h 31.357422 c 0.889362,0 1.339955,0.24425 1.65039,0.566406 0.310435,0.3221557 0.539063,0.8193117 0.539063,1.6230467 v 19.541015 c 0,1.032121 -0.238203,1.454227 -0.488281,1.697266 -0.250079,0.243039 -0.711786,0.472656 -1.701172,0.472656 H 28.716797 a 2,2 0 0 0 -2,2 2,2 0 0 0 2,2 h 11.269532 c 1.678604,0 3.310902,-0.461232 4.488281,-1.605469 1.177379,-1.144235 1.701172,-2.805713 1.701172,-4.564453 V 11.513672 c 0,-1.6401557 -0.540089,-3.2360807 -1.660157,-4.3984375 C 43.395559,5.9528781 41.752796,5.3242189 39.986329,5.3242189 Z m 14.683594,6.5722651 c -0.883423,0.01823 -1.808534,0.511451 -2.271485,1.125 -0.462955,0.61355 -0.603486,1.194443 -0.730469,1.675782 -0.25397,0.962685 -0.435969,1.467715 -0.605468,1.595703 -0.1695,0.127983 -0.707056,0.164298 -1.707031,0.148437 -0.49999,-0.0079 -1.099952,-0.02847 -1.81836,0.25 -0.718407,0.278466 -1.445605,1.033209 -1.701172,1.875 -0.25557,0.841787 -0.07022,1.868309 0.373047,2.496094 0.443267,0.62778 0.956205,0.940051 1.376953,1.208984 0.841497,0.537862 1.269918,0.866428 1.339844,1.066406 0.06993,0.199983 -0.06255,0.720534 -0.386719,1.66211 -0.162082,0.470784 -0.368331,1.032805 -0.324218,1.798828 0.04412,0.766023 0.540151,1.685477 1.265625,2.1875 0.725469,0.502023 1.766995,0.64548 2.503906,0.419922 0.73691,-0.225559 1.193056,-0.614555 1.580078,-0.929688 0.774038,-0.630265 1.218924,-0.93311 1.43164,-0.9375 0.212717,-0.0044 0.669122,0.279172 1.46875,0.876954 0.399819,0.298895 0.87347,0.668321 1.619141,0.863281 0.745671,0.19496 1.778489,0.01004 2.482422,-0.521485 0.703937,-0.531522 1.159709,-1.473052 1.171875,-2.240234 0.01217,-0.767186 -0.216879,-1.317556 -0.398438,-1.78125 -0.363109,-0.927389 -0.514661,-1.443791 -0.453125,-1.646484 0.06154,-0.202694 0.474606,-0.547021 1.292969,-1.119141 0.409186,-0.286062 0.907482,-0.618142 1.324219,-1.263672 0.416737,-0.64553 0.559949,-1.681196 0.269531,-2.511719 -0.290414,-0.830519 -1.047951,-1.554149 -1.777344,-1.802734 -0.729392,-0.248589 -1.328897,-0.200431 -1.828125,-0.171875 -0.998456,0.0571 -1.536253,0.0408 -1.710937,-0.08008 -0.174688,-0.120878 -0.37802,-0.618936 -0.671875,-1.570313 -0.146928,-0.475688 -0.310711,-1.050612 -0.798828,-1.644531 -0.488113,-0.593919 -1.432984,-1.047529 -2.316406,-1.029297 z m 0.07617,3.69336 c 0.229884,0.778227 0.486505,2.208342 1.878907,3.171875 1.391859,0.963159 2.827356,0.70507 3.640625,0.648437 -0.672833,0.458073 -1.958845,1.142622 -2.449219,2.757813 -0.490349,1.615113 0.198496,2.892294 0.503906,3.644531 -0.645695,-0.495363 -1.695803,-1.499824 -3.390625,-1.464844 -1.695078,0.03498 -2.703641,1.08397 -3.328125,1.605469 0.273768,-0.764158 0.908829,-2.070419 0.351563,-3.664063 -0.557242,-1.593586 -1.869216,-2.224378 -2.560547,-2.654296 0.814926,0.02303 2.258826,0.220939 3.609375,-0.798829 1.350915,-1.020039 1.546901,-2.458989 1.74414,-3.246093 z m 4.6875,25.513672 a 2,2 0 0 0 -2,2 2,2 0 0 0 2,2 h 7.138672 a 2,2 0 0 0 2,-2 2,2 0 0 0 -2,-2 z" fill="#008055"/>
</svg>
