<svg xmlns="http://www.w3.org/2000/svg" width="48" height="48">
	<path d="M 8.6542969 6.6230469 C 6.9137226 6.6230469 5.2818626 7.1387721 4.1601562 8.2929688 C 3.0384499 9.4471652 2.5839844 11.049563 2.5839844 12.710938 L 2.546875 34.671875 A 1.90019 1.90019 0 0 0 2.546875 34.675781 C 2.546875 36.321816 3.0156024 37.932018 4.046875 39.203125 C 5.0781476 40.474232 6.7172677 41.32234 8.5605469 41.376953 A 1.9 1.9 0 0 0 10.515625 39.533203 A 1.9 1.9 0 0 0 8.671875 37.578125 C 7.8231242 37.552978 7.3787418 37.279777 6.9980469 36.810547 C 6.6179891 36.342102 6.3466057 35.592697 6.3457031 34.679688 L 6.3457031 34.675781 L 6.3847656 12.714844 A 1.90019 1.90019 0 0 0 6.3847656 12.710938 C 6.3847656 11.70432 6.6191969 11.214667 6.8847656 10.941406 C 7.1503343 10.668145 7.6040111 10.423828 8.6542969 10.423828 L 39.363281 10.423828 C 40.187926 10.423828 40.71348 10.659558 41.056641 10.990234 C 41.399802 11.32091 41.654297 11.799646 41.654297 12.710938 L 41.654297 34.675781 C 41.654297 35.812576 41.38619 36.56151 41.074219 36.947266 C 40.762248 37.333021 40.395181 37.576172 39.363281 37.576172 L 14.195312 37.576172 A 1.9 1.9 0 0 0 12.294922 39.476562 A 1.9 1.9 0 0 0 14.195312 41.376953 L 39.363281 41.376953 C 41.246371 41.376953 42.97453 40.64212 44.029297 39.337891 C 45.084063 38.033661 45.453125 36.381227 45.453125 34.675781 L 45.453125 12.710938 C 45.453125 10.966397 44.834711 9.3537329 43.693359 8.2539062 C 42.552008 7.1540798 40.982526 6.6230469 39.363281 6.6230469 L 8.6542969 6.6230469 z M 18.841797 15.228516 A 1.6 1.6 0 0 0 17.402344 16.257812 L 15.970703 20.011719 L 11.640625 20.027344 A 1.6 1.6 0 0 0 10.046875 21.632812 A 1.6 1.6 0 0 0 11.652344 23.228516 L 14.75 23.216797 L 13.921875 25.392578 L 10.492188 25.404297 A 1.6 1.6 0 0 0 8.8984375 27.009766 A 1.6 1.6 0 0 0 10.503906 28.605469 L 12.699219 28.597656 L 11.730469 31.142578 A 1.6 1.6 0 0 0 12.65625 33.207031 A 1.6 1.6 0 0 0 14.720703 32.283203 L 16.128906 28.585938 L 18.404297 28.578125 L 17.425781 31.142578 A 1.6 1.6 0 0 0 18.351562 33.207031 A 1.6 1.6 0 0 0 20.416016 32.283203 L 21.833984 28.564453 L 26.476562 28.548828 A 1.6 1.6 0 0 0 28.070312 26.943359 A 1.6 1.6 0 0 0 26.464844 25.349609 L 23.054688 25.361328 L 23.884766 23.185547 L 27.625 23.171875 A 1.6 1.6 0 0 0 29.220703 21.566406 A 1.6 1.6 0 0 0 27.615234 19.972656 L 25.105469 19.980469 L 26.089844 17.398438 A 1.6 1.6 0 0 0 25.164062 15.332031 A 1.6 1.6 0 0 0 24.539062 15.228516 A 1.6 1.6 0 0 0 23.099609 16.257812 L 21.675781 19.992188 L 19.400391 20 L 20.392578 17.398438 A 1.6 1.6 0 0 0 19.46875 15.332031 A 1.6 1.6 0 0 0 18.841797 15.228516 z M 20.455078 23.197266 L 19.625 25.373047 L 17.351562 25.380859 L 18.179688 23.205078 L 20.455078 23.197266 z M 35.5 27.113281 A 3.074666 -3.074666 0 0 0 32.425781 30.1875 A 3.074666 -3.074666 0 0 0 35.5 33.261719 A 3.074666 -3.074666 0 0 0 38.574219 30.1875 A 3.074666 -3.074666 0 0 0 35.5 27.113281 z " fill="#008055"/>
</svg>
