<svg xmlns="http://www.w3.org/2000/svg" width="48" height="48">
	<path d="m 23.908204,2.8775867 c -7.802332,0.173569 -13.142579,6.062088 -13.142579,12.4160163 0,3.834113 1.678832,6.467977 3.126954,8.224609 0.724061,0.878316 1.37892,1.578273 1.763672,2.117188 0.384751,0.538914 0.469929,0.810697 0.466796,1.060546 a 1.9,1.9 0 0 0 1.876954,1.923829 1.9,1.9 0 0 0 1.921874,-1.876953 c 0.01672,-1.333251 -0.557777,-2.451562 -1.173828,-3.314454 -0.61605,-0.862891 -1.303561,-1.575716 -1.923828,-2.328125 -1.240533,-1.504818 -2.257812,-3.002354 -2.257812,-5.80664 0,-4.254273 3.444025,-8.4791763 9.419922,-8.6152353 5.595189,-0.08127 9.449218,3.6666973 9.449218,8.6152353 0,3.128134 -1.009671,4.498844 -2.238281,5.882812 -0.614305,0.691985 -1.312279,1.341606 -1.957031,2.185547 -0.644753,0.843941 -1.240499,2.001733 -1.240234,3.357422 0,0.306138 -0.06505,0.370503 -0.316407,0.445312 l -10.224609,3.048829 a 1.9,1.9 0 0 0 -1.277344,2.363281 1.9,1.9 0 0 0 2.363281,1.277344 l 10.222657,-3.046875 c 1.765285,-0.525391 3.033203,-2.225629 3.033203,-4.087891 -6.7e-5,-0.341611 0.08482,-0.559076 0.458984,-1.048828 0.37416,-0.489753 1.034887,-1.132163 1.779297,-1.970703 1.48882,-1.677082 3.195312,-4.323384 3.195312,-8.40625 0,-7.0133093 -5.882496,-12.5291493 -13.3125,-12.4160163 a 1.90019,1.90019 0 0 0 -0.01367,0 z m 6.007812,29.6718753 a 1.9,1.9 0 0 0 -0.542969,0.08203 l -11.855468,3.615235 a 1.9,1.9 0 0 0 -1.261719,2.371094 1.9,1.9 0 0 0 2.371094,1.263671 l 11.855468,-3.615234 a 1.9,1.9 0 0 0 1.263672,-2.371094 1.9,1.9 0 0 0 -1.830078,-1.345702 z m -2.720703,6.904297 a 1.9,1.9 0 0 0 -0.542969,0.07813 l -6.373047,1.869141 a 1.9,1.9 0 0 0 -1.289062,2.357421 1.9,1.9 0 0 0 2.357422,1.289063 l 6.373047,-1.869141 a 1.9,1.9 0 0 0 1.289062,-2.357422 1.9,1.9 0 0 0 -1.814453,-1.367187 z" fill="#008055"/>
</svg>
