<svg xmlns="http://www.w3.org/2000/svg" width="48" height="48">
	<path d="m 8.6279299,4.1103515 c -1.7204145,0 -3.3962117,0.372944 -4.7246094,1.447266 -1.3283977,1.074322 -2.0761719,2.836694 -2.0761719,4.7421875 V 29.84082 c 0,1.807696 0.7813656,3.491687 2.0625,4.576172 1.2811346,1.084486 2.96157,1.59375 4.7382813,1.59375 H 21.256836 v 1.708985 c 0,1.032083 -0.23819,1.45421 -0.488281,1.697265 -0.250092,0.243057 -0.711806,0.472656 -1.701172,0.472656 h -8.158204 a 2,2 0 0 0 -1.9999991,2 2,2 0 0 0 1.9999991,2 h 8.158204 c 1.678624,0 3.310915,-0.461224 4.488281,-1.605468 1.177366,-1.144245 1.701172,-2.805735 1.701172,-4.564453 v -3.708985 a 2.0002,2.0002 0 0 0 -2,-2 H 8.6279299 c -1.0145787,0 -1.7326939,-0.289597 -2.1542969,-0.646484 C 6.05203,31.00737 5.8271486,30.607625 5.8271486,29.84082 V 10.299805 c 0,-1.0095065 0.2302096,-1.3403845 0.5917969,-1.6328125 0.3615873,-0.292428 1.0871589,-0.556641 2.2089844,-0.556641 H 39.983398 c 0.889358,0 1.339953,0.244245 1.650391,0.566407 0.310438,0.322161 0.539062,0.819305 0.539062,1.6230465 V 29.84082 c 0,1.032145 -0.238206,1.454231 -0.488281,1.697266 -0.250075,0.243035 -0.711781,0.472656 -1.701172,0.472656 H 28.71582 a 2,2 0 0 0 -2,2 2,2 0 0 0 2,2 h 11.267578 c 1.678599,0 3.312852,-0.461229 4.490235,-1.605469 1.177382,-1.144238 1.699218,-2.805697 1.699218,-4.564453 V 10.299805 c 0,-1.6401585 -0.538138,-3.2360745 -1.658203,-4.3984375 -1.120064,-1.162364 -2.764778,-1.791016 -4.53125,-1.791016 z m 2.3378901,5.511719 c -0.885233,0 -1.8851046,0.295648 -2.5605464,1.0312495 -0.6754416,0.735602 -0.8984374,1.695721 -0.8984374,2.619141 v 3.394531 a 1.7,1.7 0 0 0 1.7011718,1.699219 1.7,1.7 0 0 0 1.699218,-1.699219 v -3.394531 c 0,-0.14444 0.01284,-0.193728 0.02344,-0.25 0.02017,-3.12e-4 0.0058,0 0.03516,0 h 3.984375 a 1.7,1.7 0 0 0 1.699213,-1.701172 1.7,1.7 0 0 0 -1.699219,-1.6992185 z m 22.011719,0 a 1.7,1.7 0 0 0 -1.699219,1.6992185 1.7,1.7 0 0 0 1.699219,1.701172 h 3.984375 c 0.02939,0 0.01498,-3.12e-4 0.03516,0 0.0106,0.05627 0.02344,0.10556 0.02344,0.25 v 3.394531 a 1.7,1.7 0 0 0 1.699218,1.699219 1.7,1.7 0 0 0 1.699219,-1.699219 v -3.394531 c 0,-0.92342 -0.221042,-1.883539 -0.896484,-2.619141 C 38.847019,9.9177185 37.847147,9.6220705 36.961914,9.6220705 Z M 9.208008,21.495117 a 1.7,1.7 0 0 0 -1.6992187,1.701172 v 3.984375 c 0,0.885242 0.2956293,1.883156 1.03125,2.558594 0.7356207,0.675436 1.6957477,0.898437 2.6191397,0.898437 h 3.392579 a 1.7,1.7 0 0 0 1.701171,-1.699218 1.7,1.7 0 0 0 -1.701171,-1.701172 h -3.392579 c -0.145645,0 -0.195835,-0.0131 -0.251953,-0.02344 -3.28e-4,-0.01951 0,-0.0054 0,-0.0332 V 23.196289 A 1.7,1.7 0 0 0 9.208008,21.495117 Z m 29.511718,0 a 1.7,1.7 0 0 0 -1.699218,1.701172 v 3.984375 c 0,0.02777 3.28e-4,0.01369 0,0.0332 -0.05612,0.01034 -0.106308,0.02344 -0.251953,0.02344 h -3.392579 a 1.7,1.7 0 0 0 -1.701171,1.701172 1.7,1.7 0 0 0 1.701171,1.699218 h 3.392579 c 0.923393,0 1.883519,-0.223 2.61914,-0.898437 0.735621,-0.675438 1.03125,-1.673352 1.03125,-2.558594 V 23.196289 A 1.7,1.7 0 0 0 38.719726,21.495117 Z M 28.073242,39.889648 a 2,2 0 0 0 -2,2 2,2 0 0 0 2,2 h 7.140625 a 2,2 0 0 0 2,-2 2,2 0 0 0 -2,-2 z" fill="#008055"/>
</svg>
