<svg xmlns="http://www.w3.org/2000/svg" width="48" height="48">
	<path d="M 8.6289062 10.091797 C 6.9084966 10.091797 5.232697 10.464749 3.9042969 11.539062 C 2.5758968 12.613377 1.8261719 14.377713 1.8261719 16.283203 L 1.8261719 31.738281 C 1.8261719 33.545953 2.6075466 35.229967 3.8886719 36.314453 C 5.1697971 37.398939 6.8521807 37.908203 8.6289062 37.908203 A 2 2 0 0 0 10.628906 35.908203 A 2 2 0 0 0 8.6289062 33.908203 C 7.614342 33.908203 6.8942685 33.618618 6.4726562 33.261719 C 6.051044 32.90482 5.8261719 32.50503 5.8261719 31.738281 L 5.8261719 16.283203 C 5.8261719 15.273703 6.058337 14.94086 6.4199219 14.648438 C 6.7815068 14.356013 7.5070761 14.091797 8.6289062 14.091797 L 39.984375 14.091797 C 40.873738 14.091797 41.32433 14.336047 41.634766 14.658203 C 41.945201 14.980359 42.173828 15.479468 42.173828 16.283203 L 42.173828 31.738281 C 42.173828 32.770401 41.935625 33.192508 41.685547 33.435547 C 41.435468 33.678586 40.973761 33.908203 39.984375 33.908203 L 14.205078 33.908203 A 2 2 0 0 0 12.205078 35.908203 A 2 2 0 0 0 14.205078 37.908203 L 39.984375 37.908203 C 41.662979 37.908203 43.295277 37.448923 44.472656 36.304688 C 45.650035 35.160451 46.173828 33.497021 46.173828 31.738281 L 46.173828 16.283203 C 46.173828 14.643048 45.635692 13.04517 44.515625 11.882812 C 43.395558 10.720457 41.750842 10.091797 39.984375 10.091797 L 8.6289062 10.091797 z M 13.398438 16.164062 A 2 2 0 0 0 11.398438 18.164062 L 11.398438 30.060547 A 2 2 0 0 0 13.398438 32.060547 A 2 2 0 0 0 15.398438 30.060547 L 15.398438 18.164062 A 2 2 0 0 0 13.398438 16.164062 z " fill="#008055"/>
</svg>
