<svg xmlns="http://www.w3.org/2000/svg" width="48" height="48">
	<path d="m 8.6289062,5.3242188 c -1.7204098,0 -3.3942563,0.3729518 -4.7226562,1.4472657 C 2.5778498,7.8457983 1.8281249,9.6081823 1.8281249,11.513672 v 19.541016 c 0,1.807671 0.7813747,3.491686 2.0625001,4.576172 1.2811251,1.084486 2.9615555,1.59375 4.7382812,1.59375 l 12.6289058,-0.002 v 1.710937 c 0,1.03212 -0.238203,1.454227 -0.488281,1.697266 -0.250078,0.243038 -0.711786,0.472656 -1.701172,0.472656 h -8.15625 a 2,2 0 0 0 -1.9999997,2 2,2 0 0 0 1.9999997,2 h 8.15625 c 1.678604,0 3.312855,-0.461232 4.490234,-1.605469 1.17738,-1.144236 1.699219,-2.805713 1.699219,-4.564453 v -3.710937 a 2.0002,2.0002 0 0 0 -2,-2 l -14.6289058,0.002 c -1.0145643,0 -1.7326846,-0.289585 -2.1542969,-0.646485 C 6.0529971,32.221226 5.828125,31.821436 5.828125,31.054688 V 11.513672 c 0,-1.0095 0.2302119,-1.340389 0.5917968,-1.6328125 C 6.7815067,9.5884358 7.507076,9.3242188 8.6289062,9.3242188 H 39.986328 c 0.889363,0 1.339955,0.2442504 1.650391,0.5664063 0.310434,0.3221559 0.537109,0.8193119 0.537109,1.6230469 v 19.541016 c 0,1.03212 -0.23625,1.454227 -0.486328,1.697266 -0.250079,0.243038 -0.711786,0.472656 -1.701172,0.472656 H 28.716797 a 2,2 0 0 0 -2,2 2,2 0 0 0 2,2 h 11.269531 c 1.678604,0 3.310902,-0.461233 4.488281,-1.605469 1.177379,-1.144236 1.699219,-2.805713 1.699219,-4.564453 V 11.513672 c 0,-1.6401553 -0.538136,-3.236081 -1.658203,-4.3984375 -1.120068,-1.1623567 -2.76283,-1.7910157 -4.529297,-1.7910157 z m 5.8769528,4.8925782 a 1.7,1.7 0 0 0 -1.705078,1.458984 c -0.288938,2.02001 -2.15663,4.089383 -4.5605467,4.320313 a 1.7,1.7 0 0 0 -1.53125,1.855469 1.7,1.7 0 0 0 1.8554688,1.529297 c 4.0650829,-0.39051 7.0825999,-3.596459 7.6015619,-7.22461 a 1.7,1.7 0 0 0 -1.441406,-1.923828 1.7,1.7 0 0 0 -0.21875,-0.01563 z m 25.083984,12.962891 a 1.7,1.7 0 0 0 -0.148437,0.0078 c -4.065076,0.39051 -7.080646,3.596467 -7.599609,7.22461 a 1.7,1.7 0 0 0 1.441406,1.921875 1.7,1.7 0 0 0 1.923828,-1.441407 c 0.288937,-2.019997 2.156642,-4.089382 4.560547,-4.320312 a 1.7,1.7 0 0 0 1.529297,-1.855469 1.7,1.7 0 0 0 -1.707032,-1.537109 z M 28.074219,41.103516 a 2,2 0 0 0 -2,2 2,2 0 0 0 2,2 h 7.140624 a 2,2 0 0 0 2,-2 2,2 0 0 0 -2,-2 z" fill="#008055"/>
</svg>
