<svg xmlns="http://www.w3.org/2000/svg" width="48" height="48">
	<path d="m 17.425872,2.981462 a 2,2 0 0 0 -2.001953,1.998047 l -0.0098,11.785156 h -1.625 c -1.186879,0 -2.471815,0.351838 -3.294922,1.3125 -0.8231034,0.960662 -0.9589834,2.087665 -0.9589834,3.095703 v 11.757813 c -0.016034,4.037949 1.6499544,7.299639 4.3046874,9.292969 2.656517,1.99467 6.110695,2.794922 9.769531,2.794922 3.943519,0 7.565885,-0.828042 10.337891,-2.824219 2.772005,-1.996178 4.517578,-5.267048 4.517578,-9.263672 V 21.172868 c 0,-1.333571 -0.534243,-2.638602 -1.464844,-3.414062 -0.930601,-0.77546 -2.026692,-0.994141 -2.982422,-0.994141 H 23.285247 a 2,2 0 0 0 -2,2 2,2 0 0 0 2,2 h 10.732422 c 0.320553,0 0.447839,0.08804 0.421875,0.06641 -0.02596,-0.02164 0.02539,-0.123932 0.02539,0.341796 v 11.757813 c 0,2.929176 -1.027549,4.701256 -2.855469,6.017578 -1.82792,1.316322 -4.63322,2.070313 -8,2.070313 -3.058564,0 -5.658005,-0.710786 -7.367188,-1.994141 -1.709182,-1.283355 -2.720721,-3.061993 -2.707031,-6.083985 a 2.0002,2.0002 0 0 0 0,-0.0098 V 21.172868 c 0,-0.220201 0.02156,-0.312827 0.03711,-0.40039 0.05826,-0.0043 0.06194,-0.0078 0.216796,-0.0078 h 1.8125 c 0.988082,0 2.078768,-0.347985 2.814454,-1.136719 0.735198,-0.788212 0.997701,-1.821519 0.998046,-2.767578 v -0.002 l 0.0098,-11.875 A 2,2 0 0 0 17.425905,2.981428 Z m 13.152344,0 a 2,2 0 0 0 -2,2 v 8.277344 a 2,2 0 0 0 2,2 2,2 0 0 0 2,-2 V 4.981462 a 2,2 0 0 0 -2,-2 z" fill="#008055"/>
</svg>
