<svg xmlns="http://www.w3.org/2000/svg" width="48" height="48">
	<path d="m 8.628905,5.3222175 c -1.72041,0 -3.3962092,0.3729518 -4.7246092,1.4472656 -1.3284001,1.0743138 -2.0761719,2.838651 -2.0761719,4.7441409 v 19.539062 c 0,1.807672 0.7813747,3.493639 2.0625,4.578125 1.2811252,1.084486 2.9615551,1.591797 4.7382811,1.591797 h 12.628906 v 1.708984 c 0,1.032122 -0.238202,1.454227 -0.488281,1.697266 -0.250078,0.243039 -0.711786,0.472656 -1.701172,0.472656 h -8.158203 a 2,2 0 0 0 -2,2 2,2 0 0 0 2,2 h 8.158203 c 1.678604,0 3.312856,-0.459279 4.490235,-1.603515 1.177379,-1.144237 1.699218,-2.807667 1.699218,-4.566407 v -3.708984 a 2.0002,2.0002 0 0 0 -2,-2 H 8.628905 c -1.014564,0 -1.732684,-0.287632 -2.154297,-0.644531 C 6.052996,32.221178 5.8281239,31.819435 5.8281239,31.052686 V 11.513624 c 0,-1.009501 0.2302121,-1.340389 0.5917971,-1.6328128 C 6.781506,9.5883877 7.507075,9.3222175 8.628905,9.3222175 h 31.357422 c 0.889363,0 1.338002,0.2442502 1.648438,0.5664063 0.310434,0.3221562 0.539062,0.8212652 0.539062,1.6250002 v 19.539062 c 0,1.03212 -0.238203,1.454227 -0.488281,1.697266 -0.250079,0.243039 -0.709833,0.472656 -1.699219,0.472656 H 28.716796 a 2,2 0 0 0 -2,2 2,2 0 0 0 2,2 h 11.269531 c 1.678604,0 3.310902,-0.459278 4.488281,-1.603516 1.177379,-1.144236 1.699219,-2.807666 1.699219,-4.566406 V 11.513624 c 0,-1.6401556 -0.538136,-3.2380343 -1.658203,-4.4003909 -1.120067,-1.1623566 -2.76283,-1.7910156 -4.529297,-1.7910156 z m 1.8125,21.3769535 a 2,2 0 0 0 -2,2 2,2 0 0 0 2,2 h 27.302734 a 2,2 0 0 0 2,-2 2,2 0 0 0 -2,-2 z m 17.632813,14.402343 a 2,2 0 0 0 -2,2 2,2 0 0 0 2,2 h 7.140625 a 2,2 0 0 0 2,-2 2,2 0 0 0 -2,-2 z" fill="#008055"/>
</svg>
