<svg xmlns="http://www.w3.org/2000/svg" width="48" height="48">
	<path d="m 27.984117,7.8456092 c -0.908692,-0.05881 -1.468018,0.355673 -1.941406,0.677734 -0.494778,0.336614 -0.967468,0.760269 -1.492188,1.244141 L 16.36107,16.050687 c -0.889407,0.678173 -1.057923,0.679687 -2.089843,0.679687 h -6.0117189 -0.00195 c -2.9018613,9.97e-4 -4.8750002,2.473983 -4.8750002,5.003907 v 4.86914 c 0,2.523372 1.9947328,4.765625 4.6601562,4.765625 H 14.36498 c 0.884963,0 1.488388,0.155917 2.058593,0.642578 a 1.90019,1.90019 0 0 0 0.09766,0.07813 l 6.009765,4.486328 a 1.9,1.9 0 0 0 2.660157,-0.386718 1.9,1.9 0 0 0 -0.386719,-2.658203 l -6.009766,-4.486329 0.0957,0.07813 C 17.508573,27.943614 15.824214,27.568265 14.364977,27.568265 H 8.0427111 c -0.432977,0 -0.861328,-0.488815 -0.861328,-0.964844 v -4.86914 c 0,-0.503083 0.453551,-1.203161 1.076172,-1.203125 h 6.0136719 c 1.433089,0 2.992417,-0.388385 4.40039,-1.462891 a 1.90019,1.90019 0 0 0 0.0039,-0.002 l 8.074219,-6.195313 v 25.390625 a 1.9,1.9 0 0 0 1.898438,1.898438 1.9,1.9 0 0 0 1.90039,-1.898438 V 12.17764 c 0,-0.85814 -0.02484,-1.533348 -0.203125,-2.2324218 -0.08914,-0.349537 -0.215756,-0.724212 -0.515625,-1.125 -0.299868,-0.400788 -0.854332,-0.800654 -1.433593,-0.917969 -0.144816,-0.02933 -0.282297,-0.04824 -0.41211,-0.05664 z m 10.142578,3.2949218 a 1.9,1.9 0 0 0 -1.408203,0.640625 1.9,1.9 0 0 0 0.164063,2.68164 c 2.575394,2.278901 3.960794,6.220105 3.933594,10.072266 -0.0272,3.852161 -1.482468,7.415113 -3.78125,9.0625 a 1.9,1.9 0 0 0 -0.4375,2.650391 1.9,1.9 0 0 0 2.65039,0.4375 c 3.679717,-2.637013 5.335593,-7.372158 5.369141,-12.123047 0.03355,-4.750889 -1.570293,-9.718614 -5.216797,-12.945313 a 1.9,1.9 0 0 0 -1.273438,-0.476562 z m -3.554687,6.429687 a 1.9,1.9 0 0 0 -1.341797,0.527344 1.9,1.9 0 0 0 -0.05664,2.6875 c 0.52919,0.551987 0.981911,1.835271 0.96875,3.228515 -0.01316,1.393246 -0.490058,2.806082 -1.052734,3.478516 a 1.9,1.9 0 0 0 0.236328,2.675781 1.9,1.9 0 0 0 2.677735,-0.238281 c 1.365923,-1.632366 1.917535,-3.765425 1.9375,-5.878906 0.01996,-2.113481 -0.491328,-4.298372 -2.023438,-5.896484 a 1.9,1.9 0 0 0 -1.345704,-0.583985 z" fill="#008055"/>
</svg>
