<svg xmlns="http://www.w3.org/2000/svg" width="48" height="48">
	<path d="M 8.6289062 4.109375 C 6.9084966 4.109375 5.232697 4.4823268 3.9042969 5.5566406 C 2.5758968 6.6309544 1.8261719 8.3952918 1.8261719 10.300781 L 1.8261719 29.841797 C 1.8261719 31.649468 2.6075466 33.333483 3.8886719 34.417969 C 5.1697971 35.502455 6.8521807 36.011719 8.6289062 36.011719 L 21.255859 36.009766 L 21.255859 37.720703 C 21.255859 38.752823 21.01961 39.17493 20.769531 39.417969 C 20.519453 39.661007 20.057745 39.890625 19.068359 39.890625 L 10.910156 39.890625 A 2 2 0 0 0 8.9101562 41.890625 A 2 2 0 0 0 10.910156 43.890625 L 19.068359 43.890625 C 20.746963 43.890625 22.379262 43.429393 23.556641 42.285156 C 24.73402 41.14092 25.255859 39.479443 25.255859 37.720703 L 25.255859 34.009766 A 2.0002 2.0002 0 0 0 23.255859 32.009766 L 8.6289062 32.011719 C 7.614342 32.011719 6.8942685 31.722134 6.4726562 31.365234 C 6.051044 31.008335 5.8261719 30.608545 5.8261719 29.841797 L 5.8261719 10.300781 C 5.8261719 9.2912811 6.058337 8.9603923 6.4199219 8.6679688 C 6.7815068 8.375545 7.5070761 8.109375 8.6289062 8.109375 L 39.984375 8.109375 C 40.873738 8.109375 41.32433 8.3555785 41.634766 8.6777344 C 41.945201 8.9998903 42.173828 9.4970468 42.173828 10.300781 L 42.173828 29.841797 C 42.173828 30.873917 41.935625 31.296024 41.685547 31.539062 C 41.435468 31.782101 40.973761 32.011719 39.984375 32.011719 L 28.714844 32.011719 A 2 2 0 0 0 26.714844 34.011719 A 2 2 0 0 0 28.714844 36.011719 L 39.984375 36.011719 C 41.662979 36.011719 43.295277 35.550486 44.472656 34.40625 C 45.650035 33.262014 46.173828 31.600537 46.173828 29.841797 L 46.173828 10.300781 C 46.173828 8.6606261 45.635692 7.0647003 44.515625 5.9023438 C 43.395558 4.7399872 41.750842 4.109375 39.984375 4.109375 L 8.6289062 4.109375 z M 28.074219 39.890625 A 2 2 0 0 0 26.074219 41.890625 A 2 2 0 0 0 28.074219 43.890625 L 35.214844 43.890625 A 2 2 0 0 0 37.214844 41.890625 A 2 2 0 0 0 35.214844 39.890625 L 28.074219 39.890625 z " fill="#008055"/>
</svg>
