<svg xmlns="http://www.w3.org/2000/svg" width="48" height="48">
	<path d="m 8.6279297,4.1103518 c -1.7204144,0 -3.3942585,0.3729439 -4.7226562,1.4472657 -1.3283977,1.0743217 -2.078125,2.8386478 -2.078125,4.7441395 V 29.84082 c 0,1.807695 0.7813655,3.491686 2.0625,4.576172 1.2811345,1.084486 2.9615699,1.59375 4.7382812,1.59375 H 21.256836 v 1.708984 c 0,1.032146 -0.238207,1.45423 -0.488281,1.697266 -0.250076,0.243035 -0.711782,0.472656 -1.701172,0.472656 H 10.90918 a 2,2 0 0 0 -2.0000003,2 2,2 0 0 0 2.0000003,2 h 8.158203 c 1.678598,0 3.312852,-0.459276 4.490234,-1.603516 1.177383,-1.144239 1.699219,-2.807651 1.699219,-4.566406 v -3.708984 a 2.0002,2.0002 0 0 0 -2,-2 H 8.6279297 c -1.0145786,0 -1.7326938,-0.289596 -2.1542968,-0.646485 C 6.0520299,31.007369 5.8271485,30.607624 5.8271485,29.84082 V 10.301757 c 0,-1.0095054 0.2302096,-1.3423364 0.5917969,-1.6347645 C 6.7805327,8.3745641 7.5061042,8.1103518 8.6279297,8.1103518 H 39.985352 c 0.889358,0 1.339953,0.2442448 1.65039,0.5664063 0.310438,0.3221614 0.53711,0.821259 0.53711,1.6249989 V 29.84082 c 0,1.032145 -0.236253,1.45423 -0.486329,1.697265 -0.250075,0.243037 -0.711781,0.472657 -1.701171,0.472657 H 28.71582 a 2,2 0 0 0 -2,2 2,2 0 0 0 2,2 h 11.269532 c 1.678598,0 3.310898,-0.459276 4.488281,-1.603516 1.177382,-1.144239 1.699219,-2.807652 1.699219,-4.566406 V 10.301757 c 0,-1.6401571 -0.538139,-3.238026 -1.658204,-4.4003895 C 43.394584,4.7390039 41.751824,4.1103518 39.985352,4.1103518 Z m 2.1113283,9.6933592 c -0.698059,0 -1.5196208,0.172735 -2.2031251,0.767578 -0.6835043,0.594843 -1.0429688,1.559903 -1.0429688,2.482422 v 6.609374 c 0,0.82801 0.3282673,1.677722 0.9414063,2.267579 0.6131389,0.589856 1.464831,0.886718 2.3046876,0.886718 a 1.7,1.7 0 0 0 1.699219,-1.701171 1.7,1.7 0 0 0 -1.544922,-1.69336 v -6.21875 h 8.732422 v 6.212891 h -4.957032 a 1.7,1.7 0 0 0 -1.699218,1.699219 1.7,1.7 0 0 0 1.699218,1.701171 h 5.220703 c 1.615767,0 3.134766,-1.489042 3.134766,-3.154297 v -6.609374 c 1.6e-5,-0.808433 -0.22496,-1.685177 -0.847656,-2.337891 -0.622697,-0.652715 -1.514523,-0.912109 -2.28711,-0.912109 z m 17.492187,0 c -0.698059,0 -1.517668,0.172735 -2.201172,0.767578 -0.683503,0.594843 -1.042968,1.559903 -1.042968,2.482422 v 6.609374 c 0,0.82801 0.328267,1.677722 0.941406,2.267579 0.613139,0.589856 1.462878,0.886718 2.302734,0.886718 a 1.7,1.7 0 0 0 1.701172,-1.701171 1.7,1.7 0 0 0 -1.544922,-1.691407 v -6.220703 h 8.730469 v 6.212891 h -4.955078 a 1.7,1.7 0 0 0 -1.701172,1.699219 1.7,1.7 0 0 0 1.701172,1.701171 h 5.220703 c 1.615766,0 3.134766,-1.489042 3.134766,-3.154297 v -6.609374 c 1.5e-5,-0.808433 -0.22496,-1.685177 -0.847657,-2.337891 -0.622696,-0.652715 -1.514523,-0.912109 -2.287109,-0.912109 z m -0.158203,26.085937 a 2,2 0 0 0 -2,2 2,2 0 0 0 2,2 h 7.140625 a 2,2 0 0 0 2,-2 2,2 0 0 0 -2,-2 z" fill="#008055"/>
</svg>
