<svg xmlns="http://www.w3.org/2000/svg" width="48" height="48">
	<path d="m 16.967773,1.4903189 c -2.082621,-0.00904 -3.883085,0.3444377 -5.33789,0.9375 -1.457234,0.5940522 -2.6138512,1.3811311 -3.2871096,2.609375 -0.3366292,0.614122 -0.5267724,1.3952885 -0.375,2.1796875 0.1517723,0.784399 0.6403928,1.473834 1.2304687,1.933594 1.1801519,0.9195186 2.7073929,1.2211986 4.7441409,1.2382806 a 1.80018,1.80018 0 0 0 0.01367,0 h 21.923828 c 0.716796,0 0.777344,0.178858 0.777344,0.591797 v 31.574219 c 0,0.184859 -0.08125,0.355468 -0.519532,0.355468 h -22.41406 c -1.078781,0 -1.515839,-0.227345 -1.802735,-0.544922 -0.286896,-0.317576 -0.578125,-0.996468 -0.578125,-2.345703 V 13.711022 A 1.8,1.8 0 0 0 9.5419921,11.912194 1.8,1.8 0 0 0 7.743164,13.711022 v 26.308593 c 0,1.867466 0.4022885,3.534064 1.5078125,4.757813 1.1055245,1.223748 2.7600765,1.732422 4.4726565,1.732422 h 22.414062 c 2.192115,0 4.119141,-1.751538 4.119141,-3.955078 V 10.980553 c 0,-2.2714616 -2.019489,-4.191406 -4.376953,-4.191406 H 13.97168 C 12.746367,6.7788705 12.361153,6.5651431 12.010742,6.4219595 12.243802,6.2095267 12.366791,6.0155565 12.989258,5.7618033 13.936532,5.3756399 15.295686,5.083696 16.959961,5.0918814 a 1.80018,1.80018 0 0 0 0.0078,0 h 19 A 1.8,1.8 0 0 0 37.766601,3.2911002 1.8,1.8 0 0 0 35.967773,1.4903189 H 16.977539 Z m 1.664063,14.5703121 a 1.50015,1.50015 0 0 0 -1.332031,0.886719 l -4.785157,10.695312 a 1.5,1.5 0 0 0 0.75586,1.982422 1.5,1.5 0 0 0 1.982422,-0.757812 l 0.505859,-1.13086 h 5.132812 l 0.392579,1.046875 a 1.5,1.5 0 0 0 1.93164,0.876953 1.5,1.5 0 0 0 0.875,-1.933593 L 20.073242,17.031334 a 1.50015,1.50015 0 0 0 -1.441406,-0.970703 z m -0.08398,5.441406 1.214844,3.234375 h -2.662109 z m 8.88086,1.560547 a 1.5,1.5 0 0 0 -1.5,1.5 1.5,1.5 0 0 0 1.5,1.5 h 3.302734 l -4.767578,8.125 a 1.50015,1.50015 0 0 0 1.294922,2.259766 h 6.183594 a 1.5,1.5 0 0 0 1.5,-1.5 1.5,1.5 0 0 0 -1.5,-1.5 h -3.566406 l 4.767578,-8.125 a 1.50015,1.50015 0 0 0 -1.294922,-2.259766 z" fill="#008055"/>
</svg>
