<svg xmlns="http://www.w3.org/2000/svg" width="48" height="48">
	<path d="m 16.956055,2.458097 c -2.083517,-0.0093 -3.882599,0.344241 -5.337891,0.9375 -1.457236,0.594054 -2.613856,1.381126 -3.287109,2.609376 -0.336627,0.614124 -0.526777,1.395291 -0.375,2.179687 0.151776,0.784396 0.638441,1.471882 1.228515,1.931641 1.180149,0.919516 2.707404,1.221199 4.744141,1.238281 a 1.80018,1.80018 0 0 0 0.01563,0 H 30.85645 c 0.13693,0 0.198066,0.01358 0.253907,0.02539 -4.5e-5,0.02432 -0.002,0.0057 -0.002,0.04883 v 30.505859 c -0.01137,0.0042 0.0128,0.0059 -0.107422,0.0059 h -17.68164 c -0.91733,0 -1.990234,-0.830406 -1.990234,-2.40039 V 14.678801 A 1.8,1.8 0 0 0 9.530273,12.878019 1.8,1.8 0 0 0 7.729492,14.678801 v 24.861328 c 0,3.341815 2.553574,6.001953 5.589844,6.001953 h 17.68164 c 0.886674,0 1.811565,-0.262247 2.542969,-0.904297 0.731405,-0.64205 1.160262,-1.661048 1.164063,-2.667969 a 1.80018,1.80018 0 0 0 0,-0.0059 V 11.428801 c 0,-1.027228 -0.400142,-2.12261 -1.195313,-2.798828 -0.79517,-0.676219 -1.762713,-0.875 -2.65625,-0.875 H 13.959961 C 12.735782,7.744703 12.349912,7.532941 11.999023,7.389738 12.232168,7.177312 12.355435,6.981234 12.977539,6.727629 13.924813,6.341466 15.281998,6.049522 16.946289,6.057707 a 1.80018,1.80018 0 0 0 0.0098,0 h 19.507812 c 0.265748,0 0.165244,0.01566 0.148438,-0.0039 -0.01681,-0.01957 0.05859,0.06987 0.05859,0.33789 v 32.154297 a 1.8,1.8 0 0 0 1.798828,1.800781 1.8,1.8 0 0 0 1.800782,-1.800781 V 6.391691 c 0,-0.917375 -0.246893,-1.893227 -0.925782,-2.683594 -0.678888,-0.790364 -1.781176,-1.25 -2.880859,-1.25 h -19.5 z m 4.46875,15.496094 a 1.9,1.9 0 0 0 -1.900391,1.900391 v 4.736328 h -4.736328 a 1.9,1.9 0 0 0 -1.900391,1.900391 1.9,1.9 0 0 0 1.900391,1.90039 h 4.736328 v 4.736328 a 1.9,1.9 0 0 0 1.900391,1.900391 1.9,1.9 0 0 0 1.898437,-1.900391 v -4.736328 h 4.738281 a 1.9,1.9 0 0 0 1.900391,-1.90039 1.9,1.9 0 0 0 -1.900391,-1.900391 h -4.738281 v -4.736328 a 1.9,1.9 0 0 0 -1.898437,-1.900391 z" fill="#008055"/>
</svg>
