<svg xmlns="http://www.w3.org/2000/svg" width="48" height="48">
	<path d="m 25.622425,2.1200592 c -0.48903,0.0072 -0.848972,0.1417481 -1.210937,0.2382812 v -0.00195 l -6.283204,1.6738281 a 1.70017,1.70017 0 0 0 -0.01758,0.00586 C 16.771097,4.4092689 15.483399,5.069111 14.42711,6.1337347 L 2.6107066,17.979434 c -0.5734007,0.523078 -1.1679586,1.075628 -1.3886718,2.09961 -0.22823518,1.058879 0.3352221,2.155626 1.0117187,2.835937 a 1.70017,1.70017 0 0 0 0.00391,0.0039 l 2.4882816,2.486329 a 1.70017,1.70017 0 0 0 0.00391,0.0039 c 0.642065,0.637604 1.594828,1.273261 2.703125,1.111328 1.108297,-0.161933 1.670558,-0.784833 2.253906,-1.369141 a 1.70017,1.70017 0 0 0 0.011719,-0.01367 l 3.6054689,-3.685546 c 0.1368,-0.135618 0.185992,-0.164106 0.25,-0.210938 0.04504,0.03811 0.05398,0.03837 0.144531,0.13086 a 1.70017,1.70017 0 0 0 0.01563,0.01562 l 3.49414,3.478516 a 1.7,1.7 0 0 0 2.404297,-0.0059 1.7,1.7 0 0 0 -0.0059,-2.404297 l -3.478516,-3.462891 c -0.640355,-0.654038 -1.503654,-1.275438 -2.609375,-1.257812 -1.105721,0.01763 -1.929517,0.628759 -2.609375,1.302734 a 1.70017,1.70017 0 0 0 -0.01953,0.01953 L 7.2806011,22.74891 c -0.248201,0.24861 -0.123763,0.176612 -0.18164,0.220703 l -2.351563,-2.34961 c 0.054955,-0.07128 -0.00807,0.01804 0.212891,-0.183593 a 1.70017,1.70017 0 0 0 0.058593,-0.05469 L 16.835316,8.5360748 a 1.70017,1.70017 0 0 0 0.0039,-0.00586 c 0.603141,-0.6088163 1.267024,-0.9634102 2.183594,-1.21875 l -0.01953,0.00391 5.257813,-1.3984376 -5.630859,5.5996098 c -0.614979,0.590239 -1.232014,1.288158 -1.40625,2.357421 -0.174237,1.069264 0.356108,2.20894 1.126953,2.958985 l 3.425781,3.451172 a 1.7,1.7 0 0 0 2.404297,0.0078 1.7,1.7 0 0 0 0.0078,-2.404297 l -3.445296,-3.470694 a 1.70017,1.70017 0 0 0 -0.02148,-0.02148 c -0.05059,-0.04922 -0.0343,-0.02474 -0.06055,-0.04883 0.05978,-0.08616 0.149872,-0.211495 0.322265,-0.376953 a 1.70017,1.70017 0 0 0 0.02148,-0.02148 l 6.824218,-6.7851562 -0.04883,0.044922 C 27.96946,7.034327 28.148682,6.8769814 28.3568,6.6220123 28.564918,6.3670432 28.845679,5.9359708 28.891956,5.3563873 28.938236,4.7768037 28.717721,4.274102 28.526722,3.9696686 28.335723,3.665235 28.151387,3.4632629 27.946644,3.2411529 a 1.70017,1.70017 0 0 0 -0.0098,-0.00977 C 27.52463,2.7916546 26.945361,2.2898977 26.159534,2.1610748 25.963078,2.1288688 25.785435,2.1176598 25.622425,2.1200592 Z m 15.804687,3.6484374 c -0.14493,-0.00218 -0.288446,0.00854 -0.425781,0.033203 -1.098673,0.1972859 -1.533379,0.7688126 -2.048828,1.2285156 a 1.70017,1.70017 0 0 0 -0.0098,0.00781 l -2.087891,1.890625 a 1.7,1.7 0 0 0 -0.119141,2.4003907 1.7,1.7 0 0 0 2.402344,0.119141 l 2.076172,-1.8808598 0.0059,-0.00586 c 0.189185,-0.1664852 0.0537,-0.096584 0.150391,-0.1621094 l 1.853516,1.9082032 c 0.03342,0.03473 0.02223,0.02679 0.04687,0.05469 -0.04486,0.0518 -0.0365,0.0527 -0.123046,0.136719 l -1.55469,1.476565 c -0.329503,0.264979 -0.755755,0.384694 -1.28125,0.382812 -0.529611,-0.0019 -1.117337,-0.159729 -1.419922,-0.291015 a 1.70017,1.70017 0 0 0 -1.871094,0.349609 l -7.84375,7.738282 c -0.497581,-0.08443 -0.938559,-0.204074 -1.585937,-0.166016 -1.026807,0.06036 -2.204944,0.463292 -3.255859,1.324219 a 1.70017,1.70017 0 0 0 -0.109375,0.09766 L 8.8802384,37.366153 a 1.70017,1.70017 0 0 0 -0.03711,0.03711 c -2.134609,2.209721 -1.828006,5.46266 -0.00391,7.175781 1.8240996,1.71312 5.1010316,1.879011 7.6074216,-0.375 a 1.70017,1.70017 0 0 0 0.05078,-0.04492 L 31.827503,29.225528 a 1.7,1.7 0 0 0 0.03125,-2.404297 1.7,1.7 0 0 0 -2.404297,-0.03125 L 14.173206,41.6767 c 0,0 -0.002,0 -0.002,0 -1.500465,1.348357 -2.421004,0.9731 -3.005859,0.423828 -0.583919,-0.548393 -0.893274,-1.275773 0.121094,-2.330078 l 15.21875,-14.833984 c 0.551918,-0.44759 0.873773,-0.530503 1.285156,-0.554688 0.416508,-0.02449 0.969296,0.08076 1.71289,0.214844 a 1.70017,1.70017 0 0 0 1.496094,-0.462891 l 7.791016,-7.6875 c 0.496484,0.119876 0.913967,0.310367 1.509765,0.3125 1.089906,0.0039 2.370964,-0.271928 3.451172,-1.152344 a 1.70017,1.70017 0 0 0 0.0957,-0.08398 l 1.65625,-1.570313 a 1.70017,1.70017 0 0 0 0.01367,-0.01367 c 0.700466,-0.679961 1.321886,-1.504516 1.3125,-2.601562 -0.0094,-1.097046 -0.62384,-1.8354853 -1.154297,-2.386719 a 1.70017,1.70017 0 0 0 -0.0059,-0.00586 l -1.921875,-1.9765625 -0.0039,-0.00391 C 43.427616,6.6230753 43.104909,6.3194913 42.651722,6.0770904 42.310503,5.8945795 41.861905,5.7750439 41.427112,5.7684966 Z m -6.93164,23.2148444 a 1.7,1.7 0 0 0 -1.21875,0.501953 1.7,1.7 0 0 0 0.01172,2.404297 l 6.623047,6.564453 c 1.327581,1.364826 0.954989,2.148449 0.46289,2.634765 -0.491169,0.485398 -1.30232,0.839331 -2.621094,-0.453125 l -0.002,-0.002 c -0.0016,-0.0015 -0.0024,-4.24e-4 -0.0039,-0.002 L 31.1068,34.049747 a 1.7,1.7 0 0 0 -2.404297,0.01172 1.7,1.7 0 0 0 0.0098,2.404297 l 6.646484,6.583984 a 1.70017,1.70017 0 0 0 0.0059,0.0059 c 2.326378,2.287635 5.611943,2.218605 7.400391,0.451172 1.788448,-1.767433 1.878391,-5.065054 -0.416015,-7.423828 a 1.70017,1.70017 0 0 0 -0.02148,-0.02148 l -6.646484,-6.585938 a 1.7,1.7 0 0 0 -1.185547,-0.492187 z" fill="#008055"/>
</svg>
