<svg xmlns="http://www.w3.org/2000/svg" width="48" height="48">
	<path d="M 40.265625 1.6132812 A 1.80018 1.80018 0 0 0 39.623047 1.75 L 11.132812 13.574219 A 1.80018 1.80018 0 0 0 10.533203 16.492188 L 31.595703 38.095703 A 1.80018 1.80018 0 0 0 31.611328 38.113281 C 32.718116 39.219679 32.719881 40.933113 31.648438 42.007812 C 31.648438 42.007812 31.646484 42.007812 31.646484 42.007812 C 31.646484 42.007812 31.646484 42.009766 31.646484 42.009766 C 30.571549 43.083008 28.857133 43.082145 27.75 41.974609 L 5.8125 20.039062 A 1.80018 1.80018 0 0 0 5.8125 20.037109 C 4.7042822 18.9293 4.7040837 17.215437 5.7792969 16.140625 C 6.329036 15.591699 7.1880959 15.31027 7.4140625 15.292969 A 1.8 1.8 0 0 0 9.0722656 13.361328 A 1.8 1.8 0 0 0 7.140625 11.703125 C 5.8489116 11.802024 4.4550759 12.374856 3.234375 13.59375 C 0.76836822 16.058838 0.79735597 20.114673 3.2675781 22.583984 L 25.203125 44.519531 C 27.672438 46.989742 31.72827 47.018729 34.193359 44.552734 C 36.656294 42.087111 36.624888 38.034175 34.15625 35.566406 L 14.964844 15.880859 L 38.066406 6.2929688 C 37.863813 7.1142388 37.58194 7.8396594 37.111328 8.5292969 C 36.140434 9.9520508 34.225978 11.485411 30.142578 13.240234 C 30.139198 13.241687 30.138149 13.242688 30.134766 13.244141 L 21.189453 16.824219 A 1.8 1.8 0 0 0 20.1875 19.164062 A 1.8 1.8 0 0 0 22.527344 20.166016 L 31.513672 16.568359 A 1.80018 1.80018 0 0 0 31.556641 16.552734 C 35.967121 14.658619 38.56161 12.792352 40.085938 10.558594 C 41.610264 8.3248353 41.877759 5.9562062 42.105469 3.5839844 A 1.80018 1.80018 0 0 0 40.265625 1.6132812 z M 40.964844 26.603516 C 39.377223 26.546887 37.876527 27.041968 36.587891 27.679688 C 36.586108 27.68057 36.583814 27.680758 36.582031 27.681641 L 32.636719 29.576172 A 1.5 1.5 0 0 0 31.933594 31.576172 A 1.5 1.5 0 0 0 33.933594 32.279297 L 37.896484 30.378906 A 1.50015 1.50015 0 0 0 37.914062 30.371094 C 39.043285 29.811666 40.275514 29.499545 41.238281 29.632812 C 41.833616 29.715219 42.357163 30.021724 42.857422 30.509766 L 36.529297 33.941406 A 1.5 1.5 0 0 0 35.925781 35.974609 A 1.5 1.5 0 0 0 37.960938 36.578125 L 45.814453 32.318359 A 1.50015 1.50015 0 0 0 46.435547 30.318359 C 45.319487 28.132282 43.492433 26.917087 41.650391 26.662109 C 41.420414 26.630276 41.191647 26.611605 40.964844 26.603516 z M 7.6992188 28.888672 A 1.5 1.5 0 0 0 6.1992188 30.388672 L 6.1992188 32.039062 A 1.5 1.5 0 0 0 7.6992188 33.539062 A 1.5 1.5 0 0 0 9.1992188 32.039062 L 9.1992188 30.388672 A 1.5 1.5 0 0 0 7.6992188 28.888672 z M 10.476562 33.03125 A 1.5 1.5 0 0 0 9.7910156 33.183594 L 5.1113281 35.472656 A 1.5 1.5 0 0 0 4.421875 37.478516 A 1.5 1.5 0 0 0 6.4296875 38.167969 L 11.109375 35.878906 A 1.5 1.5 0 0 0 11.796875 33.871094 A 1.5 1.5 0 0 0 10.476562 33.03125 z M 10.556641 37.146484 A 1.5 1.5 0 0 0 9.8710938 37.298828 L 5.1914062 39.587891 A 1.5 1.5 0 0 0 4.5039062 41.59375 A 1.5 1.5 0 0 0 6.5097656 42.283203 L 11.189453 39.994141 A 1.5 1.5 0 0 0 11.878906 37.988281 A 1.5 1.5 0 0 0 10.556641 37.146484 z M 9.3203125 41.947266 A 1.5 1.5 0 0 0 8.640625 42.121094 L 6.90625 43.039062 A 1.5 1.5 0 0 0 6.28125 45.066406 A 1.5 1.5 0 0 0 8.3085938 45.691406 L 10.042969 44.773438 A 1.5 1.5 0 0 0 10.667969 42.746094 A 1.5 1.5 0 0 0 9.3203125 41.947266 z " fill="#008055"/>
</svg>
