<svg xmlns="http://www.w3.org/2000/svg" width="48" height="48">
	<path d="m 20.538086,3.5624998 c -1.705445,0 -3.355926,0.3690615 -4.660156,1.4238282 -1.304229,1.0547664 -2.041016,2.7829252 -2.041016,4.6660152 l 0.002,8.6249998 a 1.9,1.9 0 0 0 1.898438,1.900391 1.9,1.9 0 0 0 1.90039,-1.900391 V 9.6523432 c 0,-1.0319 0.243152,-1.398966 0.628907,-1.710937 0.385756,-0.311971 1.134689,-0.580078 2.271484,-0.580078 h 7.533203 c 0.91129,0 1.391981,0.254495 1.722656,0.597656 0.330676,0.343161 0.566407,0.868714 0.566407,1.693359 V 17 c 0,1.050285 -0.244318,1.503962 -0.517579,1.769531 -0.27326,0.265569 -0.764868,0.5 -1.771484,0.5 H 20.03032 a 1.9,1.9 0 0 0 -1.90039,1.900391 1.9,1.9 0 0 0 1.90039,1.90039 h 8.041016 c 1.661373,0 3.265726,-0.454465 4.419922,-1.576172 C 33.645454,20.372434 34.16118,18.740574 34.16118,17 V 9.6523432 c 0,-1.619244 -0.531033,-3.188726 -1.63086,-4.3300778 C 31.430447,4.180914 29.815829,3.5624998 28.071289,3.5624998 Z M 32.020508,24.910156 c -1.70545,0 -3.355925,0.369062 -4.660156,1.423828 C 26.05612,27.38875 25.319336,29.11691 25.319336,31 v 8.625 a 1.9,1.9 0 0 0 1.900391,1.90039 1.9,1.9 0 0 0 1.90039,-1.90039 V 31 c 0,-1.0319 0.24315,-1.398967 0.628906,-1.710938 0.385757,-0.311971 1.134684,-0.580078 2.271485,-0.580078 h 7.533203 c 0.91129,0 1.391981,0.254495 1.722656,0.597656 0.330676,0.343161 0.566406,0.868714 0.566406,1.69336 v 7.347656 c 0,1.050286 -0.244317,1.503962 -0.517578,1.769531 -0.27326,0.265569 -0.764868,0.5 -1.771484,0.5 h -8.041016 a 1.9,1.9 0 0 0 -1.90039,1.900391 1.9,1.9 0 0 0 1.90039,1.90039 h 8.041016 c 1.661373,0 3.265726,-0.454464 4.419922,-1.576172 1.154196,-1.121706 1.669922,-2.753566 1.669922,-4.49414 V 31 c 0,-1.619245 -0.531033,-3.188727 -1.63086,-4.330078 -1.099826,-1.141352 -2.714444,-1.759766 -4.458984,-1.759766 z m -22.9628905,0.01953 c -1.705445,0 -3.3578798,0.371015 -4.6621095,1.425781 -1.3042297,1.054768 -2.0390625,2.782927 -2.0390625,4.666017 v 8.625 a 1.9,1.9 0 0 0 1.9003906,1.898438 1.9,1.9 0 0 0 1.8984375,-1.898438 v -8.625 c 0,-1.0319 0.2451041,-1.398967 0.6308594,-1.710938 0.3857553,-0.31197 1.1346895,-0.580078 2.2714845,-0.580078 h 7.5312495 c 0.911291,0 1.39198,0.254496 1.722656,0.597657 0.330677,0.343161 0.566407,0.868714 0.566407,1.693359 v 7.347656 c 0,1.050286 -0.244318,1.50201 -0.517578,1.767578 -0.273262,0.265569 -0.764868,0.501954 -1.771485,0.501954 H 8.5478515 a 1.9,1.9 0 0 0 -1.8984372,1.90039 1.9,1.9 0 0 0 1.8984372,1.898438 h 8.0410155 c 1.661374,0 3.265725,-0.452513 4.419922,-1.574219 1.154196,-1.121706 1.669922,-2.753566 1.669922,-4.494141 v -7.347656 c 0,-1.619245 -0.531033,-3.188727 -1.630859,-4.330078 -1.099827,-1.141352 -2.714446,-1.761719 -4.458985,-1.761719 z" fill="#008055"/>
</svg>
