<svg xmlns="http://www.w3.org/2000/svg" width="48" height="48">
	<path d="M 22.315467,2.7412907 C 16.049154,2.8604505 9.9278812,5.7217741 5.8525766,10.954181 a 2.1968433,2.2031624 85.000004 0 0 0.3886718,3.083984 2.1968433,2.2031624 85.000004 0 0 3.0917969,-0.388671 C 14.523655,6.9851115 23.805053,5.1677678 31.139686,9.3799626 38.47432,13.592158 41.556763,22.510094 38.37992,30.331134 35.203078,38.152176 26.766547,42.418557 18.559608,40.354572 a 2.1968433,2.2031624 85.000004 0 0 -2.675782,1.59375 2.1968433,2.2031624 85.000004 0 0 1.595703,2.667969 C 27.786241,47.208355 38.471306,41.804107 42.461951,31.979572 46.452597,22.155037 42.551569,10.85902 33.340858,5.5694157 29.886841,3.5858138 26.075255,2.6697948 22.315467,2.7412907 Z M 22.59867,8.9854313 A 2.2,2.2 0 0 0 20.397498,11.186603 V 23.7784 a 2.20022,2.20022 0 0 0 0.652344,1.5625 l 6.443359,6.388672 a 2.2,2.2 0 0 0 3.111328,-0.01367 2.2,2.2 0 0 0 -0.01367,-3.111328 l -5.79297,-5.744143 V 11.186603 A 2.2,2.2 0 0 0 22.59867,8.9854313 Z M 9.9307016,16.411212 a 2.2,2.2 0 0 0 -2.1992188,2.199219 v 15.300781 a 2.2,2.2 0 0 0 2.1992188,2.199219 2.2,2.2 0 0 0 2.2011714,-2.199219 V 18.610431 A 2.2,2.2 0 0 0 9.9307016,16.411212 Z M 9.7861703,38.376056 a 3.0079019,2.9991419 0 0 0 -3.0078125,3 3.0079019,2.9991419 0 0 0 3.0078125,3 3.0079019,2.9991419 0 0 0 3.0097657,-3 3.0079019,2.9991419 0 0 0 -3.0097657,-3 z" fill="#008055"/>
</svg>
