<svg xmlns="http://www.w3.org/2000/svg" width="48" height="48">
	<path d="m 31.064459,36.543754 a 2.20022,2.20022 0 0 0 2.111328,-1.935547 c 0.250542,-2.077157 1.925999,-3.95915 2.714844,-4.617187 a 2.2,2.2 0 0 0 0.279297,-3.09961 2.2,2.2 0 0 0 -3.09961,-0.279297 c -0.915224,0.763461 -2.250877,2.177681 -3.207031,4.119141 l -8.894531,-6.730469 8.990234,-6.804687 c 2.063721,4.810268 6.410055,9.003906 12.595703,9.003906 h 2.371094 a 2.2,2.2 0 0 0 2.199219,-2.199219 2.2,2.2 0 0 0 -2.199219,-2.201172 h -2.371094 c -5.066017,0 -8.544743,-4.322466 -9.40625,-8.580078 a 2.20022,2.20022 0 0 0 -3.484375,-1.318359 l -13.667969,10.34375 a 2.20022,2.20022 0 0 0 0,3.509765 l 13.667969,10.34375 a 2.20022,2.20022 0 0 0 1.275391,0.445313 2.20022,2.20022 0 0 0 0.125,0 z m -14.248047,0 a 2.2,2.2 0 0 0 1.683594,-0.873047 2.2,2.2 0 0 0 -0.427735,-3.082031 L 6.722662,24.000785 18.072271,15.410941 A 2.2,2.2 0 0 0 18.500006,12.32891 2.2,2.2 0 0 0 15.417975,11.901176 L 1.748053,22.244926 a 2.20022,2.20022 0 0 0 0,3.509765 l 13.669922,10.34375 a 2.2,2.2 0 0 0 1.273437,0.445313 2.2,2.2 0 0 0 0.125,0 z" fill="#008055"/>
</svg>
