<svg xmlns="http://www.w3.org/2000/svg" width="48" height="48">
	<path d="M 36.543754,16.935541 A 2.20022,2.20022 0 0 0 34.608207,14.824213 C 32.53105,14.573671 30.649057,12.898214 29.99102,12.109369 a 2.2,2.2 0 0 0 -3.09961,-0.279297 2.2,2.2 0 0 0 -0.279297,3.09961 c 0.763461,0.915224 2.177681,2.250877 4.119141,3.207031 l -6.730469,8.894531 -6.804687,-8.990234 c 4.810268,-2.063721 9.003906,-6.410055 9.003906,-12.5957034 V 3.0742128 A 2.2,2.2 0 0 0 24.000785,0.874994 2.2,2.2 0 0 0 21.799613,3.0742128 v 2.3710938 c 0,5.0660174 -4.322466,8.5447434 -8.580078,9.4062504 a 2.20022,2.20022 0 0 0 -1.318359,3.484375 l 10.34375,13.667969 a 2.20022,2.20022 0 0 0 3.509765,0 l 10.34375,-13.667969 a 2.20022,2.20022 0 0 0 0.445313,-1.275391 2.20022,2.20022 0 0 0 0,-0.125 z m 0,14.248047 a 2.2,2.2 0 0 0 -0.873047,-1.683594 2.2,2.2 0 0 0 -3.082031,0.427735 L 24.000785,41.277338 15.410941,29.927729 a 2.2,2.2 0 0 0 -3.082031,-0.427735 2.2,2.2 0 0 0 -0.427734,3.082031 l 10.34375,13.669922 a 2.20022,2.20022 0 0 0 3.509765,0 l 10.34375,-13.669922 a 2.2,2.2 0 0 0 0.445313,-1.273437 2.2,2.2 0 0 0 0,-0.125 z" fill="#008055"/>
</svg>
