<svg xmlns="http://www.w3.org/2000/svg" width="48" height="48">
	<path d="m 16.935541,11.456246 a 2.20022,2.20022 0 0 0 -2.111328,1.935547 c -0.250542,2.077157 -1.925999,3.95915 -2.714844,4.617187 a 2.2,2.2 0 0 0 -0.279297,3.09961 2.2,2.2 0 0 0 3.09961,0.279297 c 0.915224,-0.763461 2.250877,-2.177681 3.207031,-4.119141 l 8.894531,6.730469 -8.990234,6.804687 C 15.977289,25.993634 11.630955,21.799996 5.4453067,21.799996 H 3.0742129 a 2.2,2.2 0 0 0 -2.19921881,2.199219 2.2,2.2 0 0 0 2.19921881,2.201172 h 2.3710938 c 5.0660173,0 8.5447433,4.322466 9.4062503,8.580078 a 2.20022,2.20022 0 0 0 3.484375,1.318359 l 13.667969,-10.34375 a 2.20022,2.20022 0 0 0 0,-3.509765 L 18.335932,11.901559 a 2.20022,2.20022 0 0 0 -1.275391,-0.445313 2.20022,2.20022 0 0 0 -0.125,0 z m 14.248047,0 a 2.2,2.2 0 0 0 -1.683594,0.873047 2.2,2.2 0 0 0 0.427735,3.082031 l 11.349609,8.587891 -11.349609,8.589844 a 2.2,2.2 0 0 0 -0.427735,3.082031 2.2,2.2 0 0 0 3.082031,0.427734 l 13.669922,-10.34375 a 2.20022,2.20022 0 0 0 0,-3.509765 L 32.582025,11.901559 a 2.2,2.2 0 0 0 -1.273437,-0.445313 2.2,2.2 0 0 0 -0.125,0 z" fill="#008055"/>
</svg>
