<svg xmlns="http://www.w3.org/2000/svg" width="48" height="48">
	<path d="m 11.456246,31.064459 a 2.20022,2.20022 0 0 0 1.935547,2.111328 c 2.077157,0.250542 3.95915,1.925999 4.617187,2.714844 a 2.2,2.2 0 0 0 3.09961,0.279297 2.2,2.2 0 0 0 0.279297,-3.09961 c -0.763461,-0.915224 -2.177681,-2.250877 -4.119141,-3.207031 l 6.730469,-8.894531 6.804687,8.990234 c -4.810268,2.063721 -9.003906,6.410055 -9.003906,12.595703 v 2.371094 a 2.2,2.2 0 0 0 2.199219,2.199219 2.2,2.2 0 0 0 2.201172,-2.199219 v -2.371094 c 0,-5.066017 4.322466,-8.544743 8.580078,-9.40625 a 2.20022,2.20022 0 0 0 1.318359,-3.484375 L 25.755074,15.996099 a 2.20022,2.20022 0 0 0 -3.509765,0 l -10.34375,13.667969 a 2.20022,2.20022 0 0 0 -0.445313,1.275391 2.20022,2.20022 0 0 0 0,0.125 z m 0,-14.248047 a 2.2,2.2 0 0 0 0.873047,1.683594 2.2,2.2 0 0 0 3.082031,-0.427735 l 8.587891,-11.349609 8.589844,11.349609 a 2.2,2.2 0 0 0 3.082031,0.427735 2.2,2.2 0 0 0 0.427734,-3.082031 L 25.755074,1.748053 a 2.20022,2.20022 0 0 0 -3.509765,0 l -10.34375,13.669922 a 2.2,2.2 0 0 0 -0.445313,1.273437 2.2,2.2 0 0 0 0,0.125 z" fill="#008055"/>
</svg>
