<svg xmlns="http://www.w3.org/2000/svg" width="48" height="48">
	<path d="m 26.32689,7.8457692 c -0.908318,-0.05881 -1.466065,0.355674 -1.939453,0.677734 -0.525624,0.357599 -1.01782,0.791485 -1.583984,1.316407 l -7.34375,6.2167958 c -0.876365,0.666784 -1.053969,0.673828 -2.080078,0.673828 H 9.9167342 C 7.0137554,16.73037 5.0397811,19.203923 5.0397811,21.734441 v 4.86914 c 0,2.523372 1.9947328,4.763672 4.6601562,4.763672 h 3.7753907 c 0.884963,0 1.486435,0.157871 2.05664,0.644531 v -0.002 l 5.244141,4.486329 c 0.797578,0.682595 1.997578,0.589008 2.679687,-0.208985 0.681273,-0.797293 0.587736,-1.995791 -0.208984,-2.677734 l -5.246094,-4.486328 v -0.002 c -1.381794,-1.179245 -3.066153,-1.552641 -4.52539,-1.552641 H 9.6999373 c -0.4329766,0 -0.859375,-0.488815 -0.859375,-0.964844 v -4.86914 c 0,-0.503083 0.4535507,-1.203161 1.0761719,-1.203125 h 3.4628908 c 1.433089,0 2.992417,-0.388385 4.40039,-1.462891 0.02524,-0.01956 0.04999,-0.03975 0.07422,-0.06055 l 7.238281,-6.126953 v 25.378906 c -2.16e-4,1.049646 0.850745,1.900607 1.900391,1.900391 1.049646,2.15e-4 1.900606,-0.850745 1.90039,-1.900391 V 12.1778 c 0,-0.85814 -0.02484,-1.533348 -0.203124,-2.2324218 -0.08914,-0.349537 -0.215757,-0.724212 -0.515626,-1.125 -0.299868,-0.400788 -0.856285,-0.800654 -1.435546,-0.917968 -0.144816,-0.02933 -0.28235,-0.04824 -0.41211,-0.05664 z m 10.144532,3.2929688 c -0.539024,0.0041 -1.050929,0.236994 -1.408204,0.640625 -0.69688,0.785615 -0.624272,1.987579 0.16211,2.683593 2.575395,2.278901 3.962748,6.220105 3.935547,10.072266 -0.0272,3.852161 -1.482468,7.41316 -3.78125,9.060547 -0.854314,0.610738 -1.051143,1.798711 -0.439453,2.652344 0.611349,0.85366 1.79922,1.049597 2.652343,0.4375 3.679718,-2.637013 5.33364,-7.374111 5.367188,-12.125 0.03355,-4.750889 -1.568339,-9.716661 -5.214844,-12.94336 -0.350872,-0.311207 -0.804448,-0.481646 -1.273437,-0.478515 z m -3.556641,6.43164 c -0.498504,-0.0068 -0.979712,0.182586 -1.339844,0.527344 -0.758196,0.726306 -0.783562,1.929894 -0.05664,2.6875 0.529191,0.551987 0.979958,1.835272 0.966797,3.228516 -0.01316,1.393244 -0.490058,2.804128 -1.052734,3.476562 -0.674165,0.805069 -0.567445,2.004354 0.238281,2.677734 0.804777,0.672841 2.00256,0.566177 2.675782,-0.238281 1.365923,-1.632366 1.919488,-3.767378 1.939453,-5.880859 0.01996,-2.113481 -0.493281,-4.296419 -2.025391,-5.894531 -0.352303,-0.36696 -0.837046,-0.57732 -1.345704,-0.583985 z" fill="#008055"/>
</svg>
