<svg xmlns="http://www.w3.org/2000/svg" width="48" height="48">
	<path d="m 18.633229,2.5004165 c -1.05133,0.1418978 -2.059846,0.4965872 -2.96875,1.1542969 -1.817807,1.3154192 -3.005451,3.5471992 -3.894531,6.8242186 a 1.70017,1.70017 0 0 0 -0.02148,0.08789 c -1.173295,5.465747 -1.024705,11.345429 1.310543,17.761719 2.33527,6.416151 6.002183,11.016311 10.414062,14.449219 a 1.70017,1.70017 0 0 0 0.07227,0.05469 c 2.787488,1.938753 5.131077,2.885389 7.36914,2.72461 2.238063,-0.16078 4.003653,-1.504823 5.408203,-3.19336 0.573926,-0.689944 0.710312,-1.597866 0.623047,-2.3125 -0.08727,-0.714633 -0.340477,-1.333832 -0.662109,-1.939453 C 35.64036,36.900507 34.679671,35.73455 33.609796,34.666435 32.53992,33.598321 31.374961,32.650798 30.236749,31.986748 29.667643,31.654723 29.109954,31.387084 28.48089,31.234795 27.851825,31.082505 27.008189,31.009333 26.207452,31.56292 a 1.70017,1.70017 0 0 0 -0.05469,0.03906 c -1.147117,0.862274 -1.757886,1.948412 -2.421874,3.347657 a 1.7,1.7 0 0 0 0.80664,2.263672 1.7,1.7 0 0 0 2.263672,-0.806641 c 0.528334,-1.113376 0.757176,-1.372241 1.162109,-1.738281 0.163585,0.06397 0.303835,0.106089 0.560547,0.255859 0.771216,0.449938 1.788107,1.254425 2.683594,2.148437 0.895487,0.894013 1.682076,1.900054 2.072266,2.634766 0.167836,0.316031 0.222086,0.52397 0.25,0.650391 -1.019836,1.17382 -1.850739,1.734321 -2.857422,1.80664 -1.062382,0.07632 -2.70544,-0.411955 -5.146485,-2.101562 -3.963908,-3.093634 -7.153714,-7.072549 -9.273437,-12.896485 -2.118863,-5.821753 -2.234249,-10.918111 -1.1875,-15.833984 0.784277,-2.8689681 1.728072,-4.2988116 2.591797,-4.9238284 0.817755,-0.5917517 1.815719,-0.6988964 3.351562,-0.4550781 0.05982,0.1144137 0.153784,0.3094852 0.228516,0.6601562 0.173384,0.8135886 0.216774,2.0891626 0.105469,3.3496094 -0.111305,1.2604469 -0.374221,2.5326689 -0.675782,3.3730469 -0.100424,0.27986 -0.181423,0.402498 -0.265625,0.556641 -0.545696,-0.01996 -0.885274,-0.07255 -2.005859,-0.585937 a 1.70017,1.70017 0 0 0 -2.349609,1.099609 c -1.140719,4.208875 -0.576581,9.008352 0.720703,12.572265 1.192943,3.276458 2.615446,4.998389 3.816406,6.306641 a 1.7,1.7 0 0 0 2.402344,0.101563 1.7,1.7 0 0 0 0.101562,-2.400391 c -1.13844,-1.240148 -2.082943,-2.307879 -3.125,-5.169922 -0.866659,-2.380897 -1.132463,-5.682696 -0.777344,-8.621094 0.580463,0.144496 1.161056,0.243505 1.802735,0.208985 a 1.70017,1.70017 0 0 0 0.06641,-0.0059 c 0.969272,-0.09056 1.569114,-0.68797 1.953125,-1.208984 0.384012,-0.521014 0.636838,-1.084921 0.859375,-1.705078 0.445074,-1.240314 0.730299,-2.716731 0.863281,-4.222657 C 24.861915,8.7562095 24.84682,7.2480197 24.560964,5.9066665 24.418035,5.2359898 24.215251,4.5980859 23.822682,3.9945571 23.430114,3.3910283 22.740982,2.7830048 21.857839,2.6234634 20.777283,2.428095 19.68456,2.3585186 18.633229,2.5004165 Z" fill="#008055"/>
</svg>
