<svg xmlns="http://www.w3.org/2000/svg" width="48" height="48">
	<path d="m 24,14.72267 c -6.827938,0 -12.403883,1.871891 -17.1386718,4.84375 a 1.70017,1.70017 0 0 0 -0.076172,0.05078 c -2.7752736,1.956231 -4.4657761,3.834113 -5.0800781,5.992188 -0.6143021,2.158074 0.044334,4.276598 1.1503906,6.173828 0.4520128,0.775308 1.2575941,1.214517 1.9589844,1.376953 0.7013902,0.162436 1.369721,0.13611 2.0488281,0.04102 1.3582142,-0.190189 2.7827165,-0.693957 4.1523438,-1.333985 1.369628,-0.640028 2.658576,-1.411484 3.671875,-2.253906 0.50665,-0.421211 0.948375,-0.851606 1.306641,-1.390625 0.358266,-0.539019 0.717067,-1.308172 0.470703,-2.25 a 1.70017,1.70017 0 0 0 -0.01953,-0.06445 c -0.417917,-1.373162 -1.228746,-2.319375 -2.316407,-3.421875 a 1.7,1.7 0 0 0 -2.404296,-0.01563 1.7,1.7 0 0 0 -0.01563,2.404297 c 0.865739,0.877551 1.030858,1.179568 1.236328,1.685547 -0.116068,0.131832 -0.203119,0.249467 -0.431641,0.439453 -0.686591,0.570809 -1.791115,1.251402 -2.9375003,1.787109 -1.146385,0.535707 -2.3597422,0.931512 -3.1835936,1.046875 -0.354355,0.04962 -0.5689232,0.02873 -0.6972656,0.01172 C 4.940266,28.484821 4.6981395,27.512283 4.9746094,26.541029 5.266462,25.515736 6.2879746,24.139701 8.7148438,22.421889 12.976217,19.756994 17.804838,18.123061 24,18.123061 c 6.195162,0 11.023784,1.633933 15.285156,4.298828 2.42687,1.717812 3.448382,3.093847 3.740235,4.11914 0.27647,0.971254 0.03434,1.943792 -0.720703,3.304688 -0.128342,0.01701 -0.342912,0.0379 -0.697266,-0.01172 -0.823849,-0.115362 -2.037216,-0.511169 -3.183594,-1.046875 -1.146377,-0.535706 -2.250927,-1.216306 -2.9375,-1.787109 -0.228516,-0.189984 -0.315581,-0.307626 -0.43164,-0.439453 0.205416,-0.505889 0.370625,-0.80795 1.236328,-1.685547 A 1.70017,1.70017 0 0 0 36.060547,22.291029 C 32.495612,19.779579 27.792686,18.667982 24,18.667982 c -3.487234,0 -5.590921,0.74901 -7.230468,1.429688 a 1.7,1.7 0 0 0 -0.917969,2.222656 1.7,1.7 0 0 0 2.222656,0.917969 C 19.629471,22.592613 20.954434,22.068373 24,22.068373 c 2.533366,0 5.725747,0.878603 8.365235,2.216797 -0.334284,0.495978 -0.62351,1.008303 -0.810547,1.623047 a 1.70017,1.70017 0 0 0 -0.01953,0.06445 c -0.246408,0.941818 0.112445,1.710968 0.470704,2.25 0.358258,0.539032 0.799995,0.969411 1.30664,1.390625 1.01329,0.842428 2.302253,1.613877 3.671875,2.253906 1.369623,0.640029 2.794131,1.143796 4.152344,1.333985 0.679107,0.09509 1.347438,0.12142 2.048828,-0.04102 0.70139,-0.162436 1.506972,-0.601645 1.958985,-1.376953 1.106056,-1.89723 1.764692,-4.015754 1.15039,-6.173828 -0.614302,-2.158075 -2.304804,-4.035957 -5.080078,-5.992188 a 1.70017,1.70017 0 0 0 -0.07617,-0.05078 C 36.403883,16.594561 30.827938,14.72267 24,14.72267 Z" fill="#008055"/>
</svg>
