<svg xmlns="http://www.w3.org/2000/svg" width="48" height="48">
	<path d="m 24.565515,2.1551094 c -3.223645,-0.090202 -6.407008,1.5281063 -8.142578,4.484375 -2.44043,4.1568826 -1.104624,9.4542426 2.865234,12.0976556 a 1.8980909,1.9019072 84.999998 0 0 0.326172,0.292969 c 0.01222,0.0073 0.01703,0.02206 0.0293,0.0293 a 1.8980909,1.9019072 84.999998 0 0 0.07422,0.04102 1.8980909,1.9019072 84.999998 0 0 0.05469,0.0332 c 0.01083,0.0062 0.02431,0.0037 0.03516,0.0098 a 1.8980909,1.9019072 84.999998 0 0 0.425781,0.140626 c 4.2685,2.125082 9.538202,0.655739 11.94336,-3.519532 2.48889,-4.320628 0.994059,-9.8914979 -3.324219,-12.3925777 -1.349462,-0.781587 -2.821816,-1.1757959 -4.287109,-1.2167969 z m -0.638672,3.7871094 c 1.014779,-0.065747 2.062852,0.1618814 3.017578,0.7148438 2.545937,1.4745664 3.400164,4.6689294 1.933594,7.2148434 -1.466569,2.545915 -4.664639,3.416479 -7.222656,1.962891 a 1.8980909,1.9019072 84.999998 0 0 -0.02344,-0.01367 1.8980909,1.9019072 84.999998 0 0 -0.05078,-0.03125 c -2.533684,-1.495445 -3.36253,-4.698651 -1.875,-7.2324218 0.929706,-1.5836068 2.529405,-2.5056562 4.220703,-2.6152344 z M 23.557702,21.698078 c -4.083754,0 -7.902696,0.819254 -10.851562,2.861328 -2.9488671,2.042075 -4.8548581,5.450438 -4.8339851,9.695313 v 5.210937 c 0,2.009366 0.870165,3.858786 2.3164071,4.9375 1.446242,1.078714 3.238186,1.445313 5.125,1.445313 a 1.999995,1.999995 0 0 0 2,-2 1.999995,1.999995 0 0 0 -2,-2 c -1.334757,0 -2.265085,-0.302313 -2.734375,-0.652344 -0.469291,-0.350031 -0.707032,-0.692594 -0.707032,-1.730469 v -5.220703 a 2.000195,2.000195 0 0 0 0,-0.0098 c -0.01544,-3.139205 1.111825,-5.004026 3.111328,-6.388671 1.999504,-1.384647 5.044083,-2.148438 8.574219,-2.148438 3.877032,0 7.149171,0.806 9.285157,2.224609 2.135984,1.418609 3.285156,3.280993 3.285156,6.322266 v 5.220703 c 0,0.823934 -0.239551,1.332425 -0.628906,1.705078 -0.389357,0.372653 -1.018467,0.677735 -2.119141,0.677735 H 21.01864 a 1.999995,1.999995 0 0 0 -2,2 1.999995,1.999995 0 0 0 2,2 h 12.361328 c 1.909606,0 3.652702,-0.609853 4.884765,-1.789063 1.232065,-1.179209 1.863282,-2.862914 1.863282,-4.59375 v -5.220703 c 0,-4.198677 -1.994419,-7.610153 -5.072266,-9.654297 -3.077847,-2.044109 -7.089108,-2.892544 -11.498047,-2.892544 z m 0.56836,6.072266 a 1.8,1.8 0 0 0 -1.800782,1.800781 v 2.638672 h -2.638671 a 1.8,1.8 0 0 0 -1.800782,1.800781 1.8,1.8 0 0 0 1.800782,1.800781 h 2.638671 v 2.638672 a 1.8,1.8 0 0 0 1.800782,1.800781 1.8,1.8 0 0 0 1.800781,-1.800781 v -2.638672 h 2.638672 a 1.8,1.8 0 0 0 1.800781,-1.800781 1.8,1.8 0 0 0 -1.800781,-1.800781 h -2.638672 v -2.638672 a 1.8,1.8 0 0 0 -1.800781,-1.800781 z" fill="#008055"/>
</svg>
