<svg xmlns="http://www.w3.org/2000/svg" width="48" height="48">
	<path d="M 19.213228,40.831447 A 2.20022,2.20022 0 0 0 21.324556,38.8959 c 0.250542,-2.077157 1.926,-3.95915 2.714844,-4.617187 a 2.2,2.2 0 0 0 0.279297,-3.09961 2.2,2.2 0 0 0 -3.097656,-0.279297 c -0.91527,0.763499 -2.252824,2.177527 -3.208985,4.119141 L 9.117525,28.288478 18.10776,21.485744 c 2.063812,4.810053 6.410338,9.001953 12.595703,9.001953 4.00552,0 7.823581,-1.735002 10.298829,-5.314453 2.475247,-3.579451 3.724609,-8.747856 3.724609,-15.8066417 a 2.2,2.2 0 0 0 -2.199219,-2.199218 2.2,2.2 0 0 0 -2.201172,2.199218 c 0,6.5241167 -1.224856,10.8176117 -2.94336,13.3027357 -1.718502,2.485124 -3.813407,3.417968 -6.679687,3.417968 -5.065898,0 -8.544743,-4.322466 -9.40625,-8.580078 A 2.20022,2.20022 0 0 0 17.812838,16.188869 L 4.144869,26.534572 a 2.20022,2.20022 0 0 0 0,3.507813 l 13.667969,10.343749 a 2.20022,2.20022 0 0 0 1.40039,0.445313 z" fill="#008055"/>
</svg>
