<svg xmlns="http://www.w3.org/2000/svg" width="48" height="48">
	<path d="M 24.398179,2.7490636 C 19.848131,2.6614182 15.247047,4.0143473 11.337632,6.891642 10.220656,7.713726 9.2052273,8.626262 8.2966168,9.612345 1.9363417,16.514926 0.76194096,27.016793 5.8981792,35.241251 a 2.1968433,2.2031624 85.000004 0 0 3.0351563,0.701172 2.1968433,2.2031624 85.000004 0 0 0.7050782,-3.025391 C 4.9614212,25.427945 6.8352451,15.665304 13.952867,10.426798 c 7.117622,-5.2385058 17.02646,-4.147303 22.826172,2.515625 5.799711,6.662928 5.490217,16.597712 -0.712891,22.886719 -6.203109,6.289007 -16.161292,6.764738 -22.939453,1.09375 a 2.1968433,2.2031624 85.000004 0 0 -3.105469,0.273437 2.1968433,2.2031624 85.000004 0 0 0.271484,3.09375 C 18.79954,47.407368 31.418959,46.80683 39.206773,38.911173 46.994586,31.015517 47.386066,18.42189 40.107164,10.059611 36.012781,5.3558289 30.248242,2.8617506 24.398179,2.7490636 Z M 23.902086,8.989298 a 2.2,2.2 0 0 0 -2.199219,2.199219 v 12.591797 a 2.20022,2.20022 0 0 0 0.650391,1.5625 l 6.443359,6.388671 a 2.2,2.2 0 0 0 3.111328,-0.01172 2.2,2.2 0 0 0 -0.01172,-3.111328 L 26.103258,22.864298 V 11.188517 A 2.2,2.2 0 0 0 23.902086,8.989298 Z" fill="#008055"/>
</svg>
