<svg xmlns="http://www.w3.org/2000/svg" width="48" height="48">
	<path d="m 14.240234,1.926758 c -1.619247,0 -3.188727,0.5310364 -4.3300775,1.6308594 -1.14135,1.099823 -1.759766,2.7125016 -1.759766,4.4570316 v 31.357422 c 0,1.705429 0.369068,3.355922 1.423828,4.660156 1.0547605,1.304233 2.7829145,2.041015 4.6660155,2.041015 a 1.9,1.9 0 0 0 1.900391,-1.90039 1.9,1.9 0 0 0 -1.900391,-1.900391 c -1.031888,0 -1.398959,-0.243139 -1.710937,-0.628906 C 12.21732,41.257788 11.949218,40.50884 11.949218,39.372071 V 8.014649 c 0,-0.9112715 0.254494,-1.3900265 0.597657,-1.7207035 0.343162,-0.330677 0.868717,-0.5683594 1.693359,-0.5683594 H 33.78125 c 1.050291,0 1.502012,0.246275 1.767578,0.5195313 0.265566,0.2732563 0.501953,0.7629081 0.501953,1.7695316 v 31.357422 c 0,1.033624 -0.294837,1.775657 -0.669922,2.21875 -0.375084,0.443092 -0.806829,0.68164 -1.599609,0.68164 H 19.923828 a 1.9,1.9 0 0 0 -1.898437,1.900391 1.9,1.9 0 0 0 1.898437,1.90039 H 33.78125 c 1.781641,0 3.433701,-0.767711 4.5,-2.027343 1.066299,-1.259633 1.568359,-2.916154 1.568359,-4.673828 V 8.014649 c 0,-1.6613781 -0.452508,-3.2637754 -1.574218,-4.4179691 C 37.153681,2.4424862 35.521819,1.926758 33.78125,1.926758 Z m 2.681641,6.033203 a 1.7,1.7 0 0 0 -1.699219,1.699219 1.7,1.7 0 0 0 1.699219,1.701172 H 31.03125 A 1.7,1.7 0 0 0 32.732422,9.65918 1.7,1.7 0 0 0 31.03125,7.959961 Z m 0,5.736328 a 1.7,1.7 0 0 0 -1.699219,1.699219 1.7,1.7 0 0 0 1.699219,1.699219 h 9.917969 a 1.7,1.7 0 0 0 1.699219,-1.699219 1.7,1.7 0 0 0 -1.699219,-1.699219 z m 0,5.734375 a 1.7,1.7 0 0 0 -1.699219,1.701172 1.7,1.7 0 0 0 1.699219,1.699219 H 31.03125 a 1.7,1.7 0 0 0 1.701172,-1.699219 1.7,1.7 0 0 0 -1.701172,-1.701172 z m 0,5.736328 a 1.7,1.7 0 0 0 -1.699219,1.701172 1.7,1.7 0 0 0 1.699219,1.699219 h 9.917969 a 1.7,1.7 0 0 0 1.699219,-1.699219 1.7,1.7 0 0 0 -1.699219,-1.701172 z m 0,5.736329 a 1.7,1.7 0 0 0 -1.699219,1.699218 1.7,1.7 0 0 0 1.699219,1.701172 H 31.03125 A 1.7,1.7 0 0 0 32.732422,32.602539 1.7,1.7 0 0 0 31.03125,30.903321 Z M 24,36.237305 A 2.2368069,2.2366056 0 0 0 21.763672,38.475586 2.2368069,2.2366056 0 0 0 24,40.711914 2.2368069,2.2366056 0 0 0 26.236328,38.475586 2.2368069,2.2366056 0 0 0 24,36.237305 Z" fill="#008055"/>
</svg>
