<svg xmlns="http://www.w3.org/2000/svg" width="48" height="48">
	<path d="m 22.172852,1.917969 c -1.162655,0 -2.219707,0.3770848 -2.97461,0.90625 -0.754903,0.5291652 -1.224827,1.1322666 -1.595703,1.5800781 -0.741751,0.8956231 -0.724848,1.109375 -1.677734,1.109375 h -5.875 a 1.9,1.9 0 0 0 -1.900391,1.9003909 1.9,1.9 0 0 0 1.900391,1.90039 h 5.875 c 2.337263,0 3.856212,-1.584001 4.603515,-2.486328 0.373652,-0.4511629 0.644613,-0.7475118 0.851563,-0.8925779 0.20695,-0.145066 0.331379,-0.2167969 0.792969,-0.2167969 h 4.08789 c 0.388668,0 0.445249,0.049922 0.611328,0.1757813 0.16608,0.125859 0.409319,0.4108912 0.740235,0.8554687 0.330916,0.4445778 0.74599,1.0484778 1.451172,1.5996098 0.705182,0.551131 1.746746,0.964843 2.86914,0.964843 h 6.017578 a 1.9,1.9 0 0 0 1.900391,-1.90039 1.9,1.9 0 0 0 -1.900391,-1.9003909 h -6.017578 c -0.347946,0 -0.369836,-0.035103 -0.527343,-0.1582031 C 31.247765,5.2323692 30.999358,4.9368194 30.661133,4.4824221 30.322908,4.0280248 29.890606,3.4136069 29.166992,2.8652346 28.443379,2.3168624 27.39642,1.917969 26.260742,1.917969 Z M 11.081055,12.3125 a 1.9,1.9 0 0 0 -1.900391,1.900391 1.9,1.9 0 0 0 1.900391,1.90039 H 35.25293 c 0.83884,0 0.796875,0.120571 0.796875,0.585938 v 21.849609 c 0,1.225258 -0.342931,2.129496 -0.890625,2.722657 -0.547695,0.59316 -1.35104,1.009765 -2.820313,1.009765 H 15.499023 c -1.292186,0 -2.069185,-0.39793 -2.628906,-1.007812 -0.559721,-0.609882 -0.921875,-1.52702 -0.921875,-2.72461 V 19.21875 A 1.9,1.9 0 0 0 10.049805,17.320313 1.9,1.9 0 0 0 8.149414,19.21875 v 19.330078 c 0,1.98271 0.6246127,3.883529 1.919922,5.294922 1.295309,1.411393 3.244254,2.238281 5.429687,2.238281 h 16.839844 c 2.293098,0 4.293925,-0.805657 5.611328,-2.232421 1.317403,-1.426765 1.900391,-3.340339 1.900391,-5.300782 V 16.699219 c 0,-2.333433 -2.106156,-4.386719 -4.597656,-4.386719 z m 8.701172,6.978516 a 1.85,1.85 0 0 0 -1.84961,1.849609 v 15.75586 a 1.85,1.85 0 0 0 1.84961,1.849609 1.85,1.85 0 0 0 1.849609,-1.849609 v -15.75586 a 1.85,1.85 0 0 0 -1.849609,-1.849609 z m 8.435547,0 a 1.85,1.85 0 0 0 -1.84961,1.849609 v 15.75586 a 1.85,1.85 0 0 0 1.84961,1.849609 1.85,1.85 0 0 0 1.849609,-1.849609 v -15.75586 a 1.85,1.85 0 0 0 -1.849609,-1.849609 z" fill="#008055"/>
</svg>
