<svg xmlns="http://www.w3.org/2000/svg" width="48" height="48">
	<path d="m 31.132674,1.0639844 c -1.123389,0.086141 -2.226549,0.5791398 -3.0625,1.3749999 a 1.90019,1.90019 0 0 0 -0.002,0.00195 l -8.06836,7.6914067 a 1.90019,1.90019 0 0 0 -0.05469,0.05664 c -1.834234,1.899375 -1.583967,4.903982 0.189453,6.615235 l -0.06055,-0.06055 4.123047,4.357422 -5.984375,4.027343 a 1.90019,1.90019 0 0 0 -0.04101,0.0293 c -0.116382,0.08285 -0.128622,0.08592 -0.179688,0.117188 -0.08835,-0.05597 -0.211871,-0.132153 -0.435547,-0.324219 l -0.002,-0.002 c -0.203437,-0.182327 -0.250259,-0.243713 -0.298828,-0.298828 0.03293,-0.08309 0.07969,-0.196218 0.177734,-0.394531 l 2.28711,-4.179688 a 1.9,1.9 0 0 0 -0.753907,-2.578125 1.9,1.9 0 0 0 -2.578125,0.753906 l -2.30664,4.208985 a 1.90019,1.90019 0 0 0 -0.0293,0.05859 c -0.252666,0.502123 -0.715552,1.21632 -0.664063,2.34375 0.05149,1.12743 0.733269,2.11481 1.636719,2.921875 a 1.90019,1.90019 0 0 0 0.01367,0.01172 c 0.831952,0.729663 1.688666,1.309805 2.808594,1.359375 1.117946,0.04948 1.942303,-0.486877 2.523437,-0.90039 l 6.246094,-4.203126 a 1.90019,1.90019 0 0 0 0.08789,-0.0625 c 0.746688,-0.566921 1.366197,-1.379534 1.515625,-2.390624 0.149428,-1.011092 -0.268182,-2.046484 -0.902344,-2.72461 a 1.90019,1.90019 0 0 0 -0.0059,-0.0078 l -4.478515,-4.734375 a 1.90019,1.90019 0 0 0 -0.06055,-0.0625 c -0.403554,-0.389408 -0.469058,-0.843522 -0.09766,-1.234375 l 8.01382,-7.6444915 c 0.456527,-0.4346333 0.893799,-0.3971252 1.064453,-0.2460938 l 5.408203,5.5996093 a 1.90019,1.90019 0 0 0 0.06836,0.06836 c 0.07321,0.06848 0.206784,0.302 0.22461,0.486329 0.01769,0.182967 0.0187,0.297326 -0.212891,0.544921 l -7.240234,6.941407 a 1.9,1.9 0 0 0 -0.05664,2.685546 1.9,1.9 0 0 0 2.685547,0.05664 l 7.30664,-7.005859 a 1.90019,1.90019 0 0 0 0.06836,-0.06836 c 0.956455,-1.015447 1.344621,-2.361262 1.232422,-3.521484 -0.1122,-1.1602215 -0.622117,-2.1555152 -1.41211,-2.8945311 l 0.06836,0.068359 L 34.40416,2.2163278 A 1.90019,1.90019 0 0 0 34.31432,2.1303908 C 33.398699,1.2981957 32.256063,0.97784306 31.132674,1.0639844 Z m -6.589844,20.4023436 0.0078,0.0098 -0.0078,-0.0059 c 2.22e-4,2.37e-4 -1.96e-4,-0.0041 0,-0.0039 z m -11.722656,8.248047 a 1.8,1.8 0 0 0 -1.566406,0.955078 l -3.4492189,6.488281 a 1.80018,1.80018 0 0 0 -0.015625,0.0332 c -1.3990528,2.768134 -1.3449934,5.408482 -0.1328125,7.222657 1.2121809,1.814174 3.2849604,2.630389 5.2578124,2.527343 1.972852,-0.103045 4.049744,-1.254374 4.904297,-3.408203 0.854553,-2.153829 0.447715,-4.905661 -1.369141,-8.138672 a 1.8,1.8 0 0 0 -2.451172,-0.6875 1.8,1.8 0 0 0 -0.6875,2.451172 c 1.502394,2.67344 1.466266,4.280276 1.16211,5.046875 -0.304156,0.7666 -0.915808,1.097258 -1.746094,1.140625 -0.830286,0.04337 -1.674318,-0.330218 -2.076172,-0.93164 -0.401853,-0.601422 -0.6579849,-1.602143 0.351563,-3.59961 l 3.43164,-6.455078 a 1.8,1.8 0 0 0 -0.746094,-2.433594 1.8,1.8 0 0 0 -0.867187,-0.210937 z" fill="#008055"/>
</svg>
