<svg xmlns="http://www.w3.org/2000/svg" width="48" height="48">
	<path d="m 29.806488,1.6964081 c -5.111154,0.050717 -9.558284,2.3907774 -11.708984,6.1347654 a 1.7,1.7 0 0 0 0.626953,2.3203135 1.7,1.7 0 0 0 2.320312,-0.6269535 c 1.890202,-3.290506 7.193397,-5.539972 13.072266,-3.820313 6.43204,1.957605 9.253537,8.2797885 7.396484,14.6503915 -0.929805,2.983809 -3.087045,4.81986 -4.267578,5.40039 a 1.7,1.7 0 0 0 -0.77539,2.275391 1.7,1.7 0 0 0 2.27539,0.775391 c 2.121702,-1.043353 4.786564,-3.472595 6.021484,-7.457032 a 1.70017,1.70017 0 0 0 0.0078,-0.02539 C 47.091639,13.405939 43.276572,4.9284915 35.093584,2.4464085 a 1.70017,1.70017 0 0 0 -0.01563,-0.0059 C 33.287508,1.9160285 31.510206,1.6795024 29.806488,1.6964081 Z M 7.5271908,2.6553925 c -0.6789349,0.03254 -1.4048315,0.266896 -1.9882812,0.791016 a 1.70017,1.70017 0 0 0 -0.066406,0.0625 l -2.3730468,2.373047 a 1.70017,1.70017 0 0 0 -0.00586,0.0059 c -1.3864881,1.397191 -1.2692387,3.641085 0.078125,5.0156255 a 1.70017,1.70017 0 0 0 0.013672,0.01367 l 27.5878912,27.509765 -0.05664,-0.05859 c 0.509151,0.559422 1.153822,0.912916 1.91211,1.017578 0.758287,0.104662 1.739026,-0.131 2.373047,-0.84961 l -0.05078,0.05469 0.722656,-0.748047 a 1.7,1.7 0 0 0 -0.04102,-2.404297 1.7,1.7 0 0 0 -2.404297,0.04102 L 32.935394,35.784299 5.5994565,8.5245335 C 5.4654981,8.3878725 5.5259096,8.2639545 5.5076596,8.2823455 l 2.2148437,-2.214844 c 0.070831,0.02257 0.1830066,0.07588 0.2148438,0.107422 L 38.677582,36.846799 c 0.5326,0.532556 0.780294,0.800654 0.982422,1.236328 l 1.396484,3.376953 -4.328125,-1.796874 a 1.7,1.7 0 0 0 -2.220703,0.919921 1.7,1.7 0 0 0 0.917969,2.220703 l 8.117187,3.371094 a 1.70017,1.70017 0 0 0 2.222656,-2.21875 l -2.986328,-7.230468 a 1.70017,1.70017 0 0 0 -0.0293,-0.06445 c -0.458277,-0.99204 -1.106928,-1.657757 -1.667968,-2.21875 a 1.70017,1.70017 0 0 0 -0.002,-0.002 L 10.333832,3.7628145 a 1.70017,1.70017 0 0 0 -0.0039,-0.0039 c -0.5866,-0.581201 -1.3110166,-0.948877 -2.1464912,-1.072272 -0.2088686,-0.03085 -0.4299383,-0.0421 -0.65625,-0.03125 z M 15.911957,26.432737 a 1.7,1.7 0 0 0 -1.210938,0.521484 l -9.6386719,10.021485 0.076172,-0.07422 c -2.3577483,2.164297 -2.4633856,5.38868 -0.828125,7.232422 1.6352609,1.843741 4.9072838,2.029105 7.2343749,-0.205079 a 1.70017,1.70017 0 0 0 0.0293,-0.02734 L 21.673675,33.74719 a 1.7,1.7 0 0 0 -0.0059,-2.404297 1.7,1.7 0 0 0 -2.404297,0.0059 L 9.1873471,41.477659 C 7.8688156,42.741078 7.2639872,42.341025 6.8533627,41.878049 6.442221,41.414491 6.1216956,40.613096 7.4373471,39.405393 a 1.70017,1.70017 0 0 0 0.076172,-0.07422 l 9.6386719,-10.01953 a 1.7,1.7 0 0 0 -0.04688,-2.404297 1.7,1.7 0 0 0 -1.193359,-0.474609 z" fill="#008055"/>
</svg>
