<svg xmlns="http://www.w3.org/2000/svg" width="48" height="48">
	<path d="M 28.944617,1.9412333 C 23.224253,2.2882138 18.112384,5.5610835 15.901649,11.472483 a 1.90019,1.90019 0 0 0 -0.02344,0.06836 c -1.508499,4.556461 -1.100965,8.086048 -0.830078,10.591796 0.135444,1.252875 0.212954,2.237493 0.109375,2.996094 -0.103383,0.757167 -0.317169,1.32329 -0.984375,2.083984 -0.0013,0.0014 -6.86e-4,0.0025 -0.002,0.0039 l -9.5800781,9.958984 0.083984,-0.08398 c -2.4190482,2.220567 -2.5490646,5.588743 -0.8417969,7.513672 1.7072678,1.924928 5.1372228,2.097585 7.523438,-0.19336 a 1.90019,1.90019 0 0 0 0.02539,-0.02539 L 21.667274,34.124827 a 1.9,1.9 0 0 0 0.0039,-2.6875 1.9,1.9 0 0 0 -2.6875,-0.002 L 8.7239141,41.669749 C 7.4610387,42.882204 7.014221,42.466183 6.6750862,42.083811 6.3359514,41.70144 5.991047,41.043838 7.2453987,39.892405 a 1.90019,1.90019 0 0 0 0.083984,-0.08398 L 16.968055,29.788889 a 1.90019,1.90019 0 0 0 0.05859,-0.06445 c 1.115309,-1.269527 1.707064,-2.709048 1.894531,-4.082031 0.187466,-1.372983 0.04189,-2.645206 -0.0957,-3.917969 -0.274053,-2.53503 -0.600618,-5.132995 0.652344,-8.947265 2.301279,-6.1085345 7.925102,-8.2943203 14.265624,-6.5371096 6.318913,1.9308554 9.076999,8.1183316 7.25,14.3925776 -1.218528,3.785234 -3.370045,5.845265 -6.238281,6.902344 -2.875983,1.059935 -6.592076,1.00168 -10.58789,-0.125 a 1.9,1.9 0 0 0 -2.345703,1.3125 1.9,1.9 0 0 0 1.314453,2.34375 c 4.543895,1.28122 9.043154,1.466293 12.93164,0.0332 3.888487,-1.43309 7.043569,-4.598368 8.558594,-9.335937 a 1.90019,1.90019 0 0 0 0.01367,-0.04492 C 46.982817,13.710669 43.108745,5.1066703 34.823524,2.5935771 a 1.90019,1.90019 0 0 0 -0.04102,-0.013672 C 32.824991,2.0349441 30.851406,1.8255732 28.944617,1.9412333 Z" fill="#008055"/>
</svg>
