<svg xmlns="http://www.w3.org/2000/svg" width="48" height="48">
	<path d="m 21.717591,8.149414 c -1.635645,0 -3.155196,0.3384319 -4.53711,1.1425781 -1.371439,0.7980509 -2.602383,1.9396159 -4.248047,3.5605469 L 2.4754032,22.62207 a 1.90019,1.90019 0 0 0 0,2.777344 l 10.4570308,9.769531 c 2.622214,2.554352 5.247097,4.681641 8.785157,4.681641 h 12.361328 a 1.9,1.9 0 0 0 1.90039,-1.900391 1.9,1.9 0 0 0 -1.90039,-1.90039 H 21.717591 c -2.031055,0 -3.676963,-1.20887 -6.160157,-3.63086 a 1.90019,1.90019 0 0 0 -0.0293,-0.02734 l -8.9707035,-8.38086 8.9707035,-8.382812 a 1.90019,1.90019 0 0 0 0.03516,-0.03516 c 1.61061,-1.587429 2.697036,-2.531326 3.529297,-3.015625 0.83226,-0.484298 1.418445,-0.626953 2.625,-0.626953 h 18.320312 c 0.911271,0 1.391979,0.252541 1.722656,0.595703 0.330677,0.343163 0.566407,0.87067 0.566407,1.695313 v 19.539062 c 0,1.050291 -0.244322,1.503966 -0.517578,1.769532 -0.273258,0.265565 -0.764862,0.5 -1.771485,0.5 a 1.9,1.9 0 0 0 -1.900391,1.90039 1.9,1.9 0 0 0 1.900391,1.900391 c 1.661377,0 3.265728,-0.454463 4.419922,-1.576172 1.154194,-1.121709 1.669922,-2.753571 1.669922,-4.494141 V 14.241211 c 0,-1.619248 -0.531037,-3.190682 -1.630859,-4.3320314 C 43.397064,8.7678298 41.782432,8.149414 40.037903,8.149414 Z m 2.498047,8.150391 a 2,2 0 0 0 -1.439454,0.585937 2,2 0 0 0 0,2.828125 l 4.285157,4.285156 -4.285157,4.285157 a 2,2 0 0 0 0,2.828125 2,2 0 0 0 2.828125,0 l 4.285157,-4.285157 4.285156,4.285157 a 2,2 0 0 0 2.828125,0 2,2 0 0 0 0,-2.828125 l -4.285156,-4.285157 4.285156,-4.285156 a 2,2 0 0 0 0,-2.828125 2,2 0 0 0 -1.388672,-0.585937 2,2 0 0 0 -1.439453,0.585937 l -4.285156,4.285156 -4.285157,-4.285156 a 2,2 0 0 0 -1.388671,-0.585937 z" fill="#008055"/>
</svg>
