<svg xmlns="http://www.w3.org/2000/svg" width="48" height="48">
	<path d="m 41.869272,2.5645752 a 1.9,1.9 0 0 0 -1.607421,0.931641 l -6.9375,11.7246088 a 1.9,1.9 0 0 0 0.667968,2.603516 1.9,1.9 0 0 0 2.603516,-0.667969 L 43.531382,5.4317632 A 1.9,1.9 0 0 0 42.863413,2.8282472 1.9,1.9 0 0 0 41.869272,2.5645752 Z M 26.234507,15.179809 c -1.059497,-0.0083 -2.071078,0.212526 -2.953125,0.566407 -1.764095,0.707762 -3.118144,1.86304 -4.041016,2.90625 a 1.8,1.8 0 0 0 0.154297,2.541015 1.8,1.8 0 0 0 2.541016,-0.15625 c 0.606328,-0.68539 1.630067,-1.525756 2.685547,-1.949218 1.054291,-0.422987 2.030434,-0.511682 3.173828,0.08789 0.0013,6.76e-4 0.0026,-6.77e-4 0.0039,0 l 7.8125,4.515625 c 0.952871,0.598785 1.333738,1.224589 1.548828,2.056641 0.188292,0.728387 0.111305,1.694261 -0.05078,2.691406 L 25.005991,21.412231 a 1.8,1.8 0 0 0 -2.460937,0.654297 1.8,1.8 0 0 0 0.652344,2.458985 l 12.289062,7.134765 -0.0332,-0.02148 c 0.856148,0.522185 1.861862,1.029339 3.125,0.609375 1.263138,-0.419965 1.825182,-1.631013 2.048828,-2.685547 a 1.80018,1.80018 0 0 0 0.002,-0.01563 c 0.303473,-1.491547 0.431657,-3.0974 0.01758,-4.699219 -0.414079,-1.601818 -1.455818,-3.161675 -3.130859,-4.210937 a 1.80018,1.80018 0 0 0 -0.05469,-0.03125 l -7.923828,-4.582032 a 1.80018,1.80018 0 0 0 -0.0625,-0.03516 c -1.07322,-0.564048 -2.180737,-0.800321 -3.240234,-0.808594 z m -8.498047,7.039063 a 1.8,1.8 0 0 0 -1.544922,0.990234 c -1.731969,3.442378 -3.887249,5.433428 -10.6816396,7.375 a 1.80018,1.80018 0 0 0 -0.355469,3.31836 l 6.3144526,3.384765 a 1.80018,1.80018 0 0 0 0.0039,0.002 c 2.133585,1.137024 4.404716,1.002373 6.128906,0.236329 1.724191,-0.766046 2.990793,-2.037329 3.800782,-3.31836 a 1.8,1.8 0 0 0 -0.560547,-2.482422 1.8,1.8 0 0 0 -2.482422,0.558594 c -0.445812,0.70507 -1.304591,1.545017 -2.21875,1.951172 -0.912971,0.405626 -1.792202,0.505473 -2.970703,-0.121094 l -0.0039,-0.002 -2.757813,-1.478516 c 4.66582,-1.959405 7.334098,-4.493622 9,-7.804687 A 1.8,1.8 0 0 0 18.609507,22.410278 1.8,1.8 0 0 0 17.73646,22.218872 Z m 18.365234,11.101562 a 1.8,1.8 0 0 0 -1.787109,1.814453 c 0.0091,1.240637 -0.949429,3.904417 -2.365234,5.369141 -0.707903,0.732362 -1.464207,1.175053 -2.195313,1.298828 -0.731106,0.123775 -1.527335,0.01327 -2.644531,-0.767578 a 1.8,1.8 0 0 0 -2.505859,0.443359 1.8,1.8 0 0 0 0.443359,2.507813 c 1.730203,1.209301 3.617778,1.651156 5.306641,1.365234 1.688862,-0.285921 3.090921,-1.215277 4.183593,-2.345703 2.185344,-2.260851 3.396084,-5.281673 3.376953,-7.898437 a 1.8,1.8 0 0 0 -1.8125,-1.78711 z m -10.693359,1.199219 a 1.8,1.8 0 0 0 -1.552734,0.976563 c -0.483653,0.940211 -1.172365,1.832788 -1.695313,2.216797 -0.522948,0.384008 -0.494828,0.42164 -0.929687,0.15625 a 1.8,1.8 0 0 0 -2.47461,0.597656 1.8,1.8 0 0 0 0.59961,2.474609 c 1.63694,0.99901 3.67847,0.596919 4.935547,-0.326172 1.257075,-0.923091 2.113977,-2.205867 2.765624,-3.472656 a 1.8,1.8 0 0 0 -0.777343,-2.423828 1.8,1.8 0 0 0 -0.871094,-0.199219 z" fill="#008055"/>
</svg>
