<svg xmlns="http://www.w3.org/2000/svg" width="48" height="48">
	<path d="m 19.163424,7.1680255 a 2.20022,2.20022 0 0 0 -1.349609,0.445312 L 4.1438928,17.957088 a 2.20022,2.20022 0 0 0 0,3.507813 l 13.6699222,10.34375 a 2.20022,2.20022 0 0 0 3.511719,-1.490234 c 0.250548,-2.077281 1.924046,-3.959151 2.71289,-4.617188 a 2.2,2.2 0 0 0 0.28125,-3.097656 2.2,2.2 0 0 0 -3.099609,-0.28125 c -0.915183,0.763426 -2.252835,2.177786 -3.208984,4.11914 L 9.1185022,19.710995 18.108737,12.906307 c 2.063519,4.810645 6.409684,9.00586 12.595703,9.00586 2.86628,0 4.959231,0.932844 6.677734,3.417968 1.718503,2.485124 2.945313,6.776666 2.945313,13.300782 a 2.2,2.2 0 0 0 2.199219,2.201171 2.2,2.2 0 0 0 2.201171,-2.201171 c 0,-7.058785 -1.251315,-12.225237 -3.726562,-15.804688 -2.475247,-3.579451 -6.291355,-5.314453 -10.296875,-5.314453 -5.065898,0 -8.546701,-4.322576 -9.408203,-8.5800785 a 2.20022,2.20022 0 0 0 -2.132813,-1.763672 z" fill="#008055"/>
</svg>
