<svg xmlns="http://www.w3.org/2000/svg" width="48" height="48">
	<path d="M 18.073242,3.6122404 A 2.8305027,2.8305027 0 0 0 15.243164,6.4423186 2.8305027,2.8305027 0 0 0 18.073242,9.2723967 2.8305027,2.8305027 0 0 0 20.90332,6.4423186 2.8305027,2.8305027 0 0 0 18.073242,3.6122404 Z M 6.4501956,3.6141936 A 2.8305027,2.8305027 0 0 0 3.6201174,6.4462248 2.8305027,2.8305027 0 0 0 6.4501956,9.276303 2.8305027,2.8305027 0 0 0 9.2802737,6.4462248 2.8305027,2.8305027 0 0 0 6.4501956,3.6141936 Z m 23.2695314,0.00977 a 2.8305027,2.8305027 0 0 0 -2.830078,2.8320312 2.8305027,2.8305027 0 0 0 2.830078,2.8300782 2.8305027,2.8305027 0 0 0 2.832031,-2.8300782 2.8305027,2.8305027 0 0 0 -2.832031,-2.8320312 z m 11.841796,0.00391 A 2.8305027,2.8305027 0 0 0 38.731445,6.4579436 2.8305027,2.8305027 0 0 0 41.561523,9.2880217 2.8305027,2.8305027 0 0 0 44.391602,6.4579436 2.8305027,2.8305027 0 0 0 41.561523,3.6278654 Z M 6.4443362,15.444272 A 2.8305027,2.8305027 0 0 0 3.6142581,18.27435 2.8305027,2.8305027 0 0 0 6.4443362,21.106381 2.8305027,2.8305027 0 0 0 9.2744143,18.27435 2.8305027,2.8305027 0 0 0 6.4443362,15.444272 Z m 35.1230468,0.01562 a 2.8305027,2.8305027 0 0 0 -2.830078,2.830079 2.8305027,2.8305027 0 0 0 2.830078,2.830078 2.8305027,2.8305027 0 0 0 2.830078,-2.830078 2.8305027,2.8305027 0 0 0 -2.830078,-2.830079 z M 6.4326174,27.090756 a 2.8305027,2.8305027 0 0 0 -2.8300781,2.832031 2.8305027,2.8305027 0 0 0 2.8300781,2.830078 2.8305027,2.8305027 0 0 0 2.8300782,-2.830078 2.8305027,2.8305027 0 0 0 -2.8300782,-2.832031 z m 35.1230466,0.01563 a 2.8305027,2.8305027 0 0 0 -2.832031,2.830078 2.8305027,2.8305027 0 0 0 2.832031,2.832031 2.8305027,2.8305027 0 0 0 2.830078,-2.832031 2.8305027,2.8305027 0 0 0 -2.830078,-2.830078 z M 18.073242,38.71185 a 2.8305027,2.8305027 0 0 0 -2.830078,2.830078 2.8305027,2.8305027 0 0 0 2.830078,2.830078 2.8305027,2.8305027 0 0 0 2.830078,-2.830078 2.8305027,2.8305027 0 0 0 -2.830078,-2.830078 z m -11.6230464,0.002 A 2.8305027,2.8305027 0 0 0 3.6181643,41.543928 2.8305027,2.8305027 0 0 0 6.4501956,44.374006 2.8305027,2.8305027 0 0 0 9.2802737,41.543928 2.8305027,2.8305027 0 0 0 6.4501956,38.71385 Z m 23.2695314,0.0098 a 2.8305027,2.8305027 0 0 0 -2.830078,2.830078 2.8305027,2.8305027 0 0 0 2.830078,2.830079 2.8305027,2.8305027 0 0 0 2.830078,-2.830079 2.8305027,2.8305027 0 0 0 -2.830078,-2.830078 z m 11.841796,0.002 a 2.8305027,2.8305027 0 0 0 -2.832031,2.832031 2.8305027,2.8305027 0 0 0 2.832031,2.830078 2.8305027,2.8305027 0 0 0 2.830079,-2.830078 2.8305027,2.8305027 0 0 0 -2.830079,-2.832031 z" fill="#008055"/>
</svg>
