<svg xmlns="http://www.w3.org/2000/svg" width="48" height="48">
	<path d="M 13.487439,4.5992337 C 11.579456,4.5344217 9.6464155,5.1863898 8.1632195,6.6695462 a 1.70017,1.70017 0 0 0 0,0.00195 c -1.395985,1.3960098 -2.282013,3.2168162 -2.376953,5.1660158 -0.09494,1.949199 0.660242,3.996264 2.28125,5.603516 l 4.3554695,4.355468 a 1.7,1.7 0 0 0 2.404297,0 1.7,1.7 0 0 0 0,-2.404296 l -4.361329,-4.361329 a 1.70017,1.70017 0 0 0 -0.0039,-0.0039 c -1.0078985,-0.999335 -1.3287885,-2.00746 -1.2793035,-3.023433 0.049485,-1.015973 0.526151,-2.0710577 1.3847665,-2.929688 1.543008,-1.5429673 4.211027,-1.3183041 5.693359,0.1640625 1.465878,1.4658435 1.595731,3.9433095 -0.169922,5.7089845 a 1.7,1.7 0 0 0 0,2.402344 1.7,1.7 0 0 0 2.404297,0 C 21.499798,14.344649 21.454495,9.6228653 18.665173,6.8336087 17.278839,5.4472419 15.395422,4.6640461 13.487439,4.5992337 Z m 23.833984,1.1875 C 36.767594,5.789486 36.20404,5.8457462 35.643689,5.948843 33.402283,6.3612306 31.077252,7.5426638 29.133923,9.4859524 L 8.0616565,30.560171 c -1.621062,1.607245 -2.376172,3.652352 -2.28125,5.601563 0.094925,1.949211 0.980968,3.771957 2.376954,5.167969 2.9663935,2.966301 7.7292835,2.610612 10.5019535,-0.16211 2.789324,-2.789258 2.832673,-7.512992 -0.171875,-10.517578 a 1.7,1.7 0 0 0 -2.402344,0 1.7,1.7 0 0 0 0,2.404297 c 1.765651,1.765673 1.635798,4.243143 0.169922,5.708984 -1.482331,1.482359 -4.150353,1.705068 -5.69336,0.16211 -0.8586145,-0.85863 -1.3372425,-1.913721 -1.3867185,-2.929688 -0.049476,-1.015966 0.271359,-2.022139 1.2792975,-3.021484 a 1.70017,1.70017 0 0 0 0.0059,-0.0059 L 31.53822,11.890249 c 1.462171,-1.462141 3.223484,-2.3221885 4.720703,-2.597656 0.464258,-0.085417 0.808714,-0.025736 1.189453,-0.00781 L 19.85072,26.88439 a 1.7,1.7 0 0 0 0,2.404297 1.7,1.7 0 0 0 2.404297,0 L 41.723767,9.8179837 a 1.70017,1.70017 0 0 0 0,-2.4042969 C 40.949521,6.6394601 39.98884,6.1711963 38.942517,5.9468899 38.419355,5.8347368 37.875252,5.7839813 37.321423,5.7867337 Z M 28.653454,25.788687 a 1.7,1.7 0 0 0 -1.220703,0.498047 1.7,1.7 0 0 0 0,2.404297 l 10.023438,10.02539 c -0.381223,0.0181 -0.72638,0.07579 -1.191406,-0.0098 -1.497234,-0.275468 -3.258593,-1.135533 -4.720704,-2.597657 l -5.789062,-5.789062 a 1.7,1.7 0 0 0 -2.404297,0 1.7,1.7 0 0 0 0,2.404297 l 5.789063,5.789062 c 1.943289,1.943307 4.268347,3.124723 6.509765,3.53711 2.241418,0.412387 4.531576,0.08362 6.080078,-1.464844 a 1.70017,1.70017 0 0 0 0,-2.404297 L 29.835095,26.286734 a 1.7,1.7 0 0 0 -1.181641,-0.498047 z" fill="#008055"/>
</svg>
