<svg xmlns="http://www.w3.org/2000/svg" width="48" height="48">
	<path d="M 18.072265,3.613244 A 2.8305027,2.8305027 0 0 0 15.242187,6.4433221 2.8305027,2.8305027 0 0 0 18.072265,9.2734005 2.8305027,2.8305027 0 0 0 20.904297,6.4433221 2.8305027,2.8305027 0 0 0 18.072265,3.613244 Z M 6.4492189,3.6151971 A 2.8305027,2.8305027 0 0 0 3.6191408,6.4452753 2.8305027,2.8305027 0 0 0 6.4492189,9.2753535 2.8305027,2.8305027 0 0 0 9.279297,6.4452753 2.8305027,2.8305027 0 0 0 6.4492189,3.6151971 Z m 23.2714841,0.00977 a 2.8305027,2.8305027 0 0 0 -2.830078,2.8300782 2.8305027,2.8305027 0 0 0 2.830078,2.8300786 2.8305027,2.8305027 0 0 0 2.830078,-2.8300786 2.8305027,2.8305027 0 0 0 -2.830078,-2.8300782 z m 11.839844,0.00195 a 2.8305027,2.8305027 0 0 0 -2.830078,2.83203 2.8305027,2.8305027 0 0 0 2.830078,2.8300784 2.8305027,2.8305027 0 0 0 2.832031,-2.8300784 2.8305027,2.8305027 0 0 0 -2.832031,-2.8320312 z M 17.847656,13.660119 c -1.166407,0 -2.347412,0.387126 -3.214844,1.220703 -0.867432,0.833576 -1.326172,2.060029 -1.326172,3.3125 v 11.228515 c 0,1.178372 0.253684,2.384842 1.056641,3.375 0.802957,0.990158 2.141262,1.542969 3.484375,1.542969 a 1.9,1.9 0 0 0 1.900391,-1.900391 1.9,1.9 0 0 0 -1.900391,-1.90039 c -0.494287,0 -0.47471,-0.06264 -0.533203,-0.134766 -0.05849,-0.07213 -0.207031,-0.374223 -0.207031,-0.982422 V 18.193322 c 0,-0.41693 0.08994,-0.506662 0.158203,-0.572266 0.06827,-0.0656 0.208038,-0.160156 0.582031,-0.160156 h 12.316406 c 0.535355,0 0.604801,0.104578 0.613281,0.113281 0.0085,0.0087 0.115235,0.108874 0.115235,0.619141 v 11.228515 c 0,0.514244 -0.145958,0.810326 -0.253906,0.9375 -0.107949,0.127174 -0.156417,0.179688 -0.47461,0.179688 H 22.375 a 1.9,1.9 0 0 0 -1.900391,1.90039 1.9,1.9 0 0 0 1.900391,1.900391 h 7.789062 c 1.304407,0 2.570542,-0.578353 3.371094,-1.521484 0.800552,-0.943131 1.158203,-2.156189 1.158203,-3.396485 V 18.193322 c 0,-1.166773 -0.329418,-2.382923 -1.195312,-3.271485 -0.865895,-0.888562 -2.11024,-1.261718 -3.333985,-1.261718 z M 6.4453126,15.445275 a 2.8305027,2.8305027 0 0 0 -2.8320312,2.830078 2.8305027,2.8305027 0 0 0 2.8320312,2.830078 2.8305027,2.8305027 0 0 0 2.8300782,-2.830078 2.8305027,2.8305027 0 0 0 -2.8300782,-2.830078 z m 35.1210934,0.01563 a 2.8305027,2.8305027 0 0 0 -2.830078,2.830078 2.8305027,2.8305027 0 0 0 2.830078,2.830078 2.8305027,2.8305027 0 0 0 2.832031,-2.830078 2.8305027,2.8305027 0 0 0 -2.832031,-2.830078 z M 6.4316408,27.091759 a 2.8305027,2.8305027 0 0 0 -2.8300782,2.830078 2.8305027,2.8305027 0 0 0 2.8300782,2.830078 2.8305027,2.8305027 0 0 0 2.8300781,-2.830078 2.8305027,2.8305027 0 0 0 -2.8300781,-2.830078 z m 35.1230462,0.01563 a 2.8305027,2.8305027 0 0 0 -2.830078,2.830078 2.8305027,2.8305027 0 0 0 2.830078,2.830078 2.8305027,2.8305027 0 0 0 2.830078,-2.830078 2.8305027,2.8305027 0 0 0 -2.830078,-2.830078 z M 18.072265,38.7109 a 2.8305027,2.8305027 0 0 0 -2.830078,2.830078 2.8305027,2.8305027 0 0 0 2.830078,2.832031 2.8305027,2.8305027 0 0 0 2.830078,-2.832031 A 2.8305027,2.8305027 0 0 0 18.072265,38.7109 Z M 6.4492189,38.7148 A 2.8305027,2.8305027 0 0 0 3.6191408,41.544884 2.8305027,2.8305027 0 0 0 6.4492189,44.374962 2.8305027,2.8305027 0 0 0 9.279297,41.544884 2.8305027,2.8305027 0 0 0 6.4492189,38.714806 Z M 29.71875,38.7246 a 2.8305027,2.8305027 0 0 0 -2.830078,2.830078 2.8305027,2.8305027 0 0 0 2.830078,2.830078 2.8305027,2.8305027 0 0 0 2.832031,-2.830078 A 2.8305027,2.8305027 0 0 0 29.71875,38.7246 Z m 11.841797,0.002 a 2.8305027,2.8305027 0 0 0 -2.830078,2.830078 2.8305027,2.8305027 0 0 0 2.830078,2.830078 2.8305027,2.8305027 0 0 0 2.830078,-2.830078 2.8305027,2.8305027 0 0 0 -2.830078,-2.830078 z" fill="#008055"/>
</svg>
