<svg xmlns="http://www.w3.org/2000/svg" width="48" height="48">
	<path d="m 16.026367,2.2168141 c -1.981719,0 -3.996239,0.5771694 -5.591797,1.9433594 C 8.8390125,5.5263634 7.8603518,7.7163663 7.8603518,9.875017 v 28.230469 c 0,2.164793 0.9292122,4.505731 2.6269532,5.894531 1.697741,1.3888 3.700703,1.783203 5.539062,1.783203 h 16.478516 c 2.039224,0 4.153181,-0.779641 5.578125,-2.27539 1.424943,-1.49575 2.05664,-3.503145 2.05664,-5.402344 V 18.712908 c 0,-1.942883 -0.602958,-4.086159 -2.144531,-5.601563 -1.541573,-1.515404 -3.635784,-2.058593 -5.490234,-2.058593 H 27.65332 a 4,4 0 0 0 -4,4 4,4 0 0 0 4,4 h 4.486328 V 37.78322 H 16.026367 c -0.219446,0 -0.07061,0.02598 -0.166015,0.0078 V 10.22658 c 0.06655,-0.01764 -0.0219,-0.0098 0.166015,-0.0098 h 16.269531 a 4,4 0 0 0 4,-4 4,4 0 0 0 -4,-4 z" fill="#ffaa00"/>
</svg>
