<svg xmlns="http://www.w3.org/2000/svg" width="48" height="48">
	<path d="m 23.626953,2.4902344 c -2.165923,0.044908 -4.452052,1.2663576 -5.589844,2.78125 -1.137793,1.5148924 -1.475248,2.9405737 -1.783203,4.1132812 -0.61589,2.3454244 -1.053052,3.5352114 -1.416015,3.8105464 -0.362953,0.275324 -1.625739,0.374586 -4.050782,0.335938 C 9.5745879,13.51194 8.1093653,13.45502 6.34375,14.142578 4.5781347,14.830137 2.7847855,16.701974 2.1582031,18.775391 1.531611,20.848808 1.9887145,23.39723 3.078125,24.947266 c 1.0894203,1.550035 2.3390225,2.313538 3.359375,2.96875 0.7527734,0.483382 1.3184594,0.873902 1.796875,1.222656 3.890699,2.176997 8.891219,-1.443918 6.204,-5.331171 -1.028216,-1.370629 -1.877344,-1.502669 -3.161031,-2.278204 2.017754,0.0875 5.25901,0.415638 8.394531,-1.962891 3.134654,-2.377861 3.693238,-5.586104 4.152344,-7.552734 0.540255,1.945899 1.230336,5.13104 4.460937,7.376953 3.231911,2.246818 6.458403,1.780383 8.470703,1.609375 -1.683758,1.114982 -4.502133,2.756086 -5.640625,6.523438 -1.1386,3.767665 0.301459,6.692142 1.085938,8.552734 -1.58087,-1.256411 -4.011287,-3.429272 -7.947266,-3.347656 -3.935122,0.08159 -6.273294,2.350859 -7.800781,3.671875 0.504406,-1.349915 0.822077,-1.620224 0.764685,-3.026918 -0.51403,-5.283603 -7.4706851,-3.506258 -8.5244506,1.024965 -0.3930711,1.146994 -0.8974738,2.520745 -0.7890625,4.412109 0.1084212,1.891364 1.3326569,4.175574 3.1113281,5.412109 1.77867,1.236536 4.345158,1.590114 6.15625,1.033203 1.811083,-0.55692 2.922764,-1.51153 3.861328,-2.279297 1.877128,-1.535535 2.931206,-2.24056 3.386719,-2.25 0.455503,-0.0094 1.537386,0.651022 3.476562,2.107422 0.969598,0.728204 2.1205,1.635819 3.953125,2.117188 1.832626,0.481368 4.383506,0.02209 6.109375,-1.28711 1.725858,-1.309193 2.852921,-3.642881 2.882813,-5.537109 0.0299,-1.894228 -0.532365,-3.245281 -0.972656,-4.375 -0.880583,-2.259439 -1.225525,-3.478015 -1.09375,-3.914062 0.131775,-0.436046 1.093501,-1.262369 3.078125,-2.65625 0.992302,-0.69694 2.210173,-1.509665 3.234375,-3.103516 1.024203,-1.59386 1.376086,-4.161374 0.664062,-6.207031 -0.712023,-2.045668 -2.580434,-3.839346 -4.373047,-4.453125 -1.792602,-0.613779 -3.252209,-0.495348 -4.46289,-0.425781 -2.42135,0.139124 -3.690394,0.09013 -4.064454,-0.169922 C 32.477494,12.562219 31.991921,11.390137 31.279297,9.0722656 30.92299,7.9133298 30.525795,6.5035303 29.326172,5.0371094 28.126538,3.5706787 25.792876,2.4453263 23.626953,2.4902344 Z" fill="#ffaa00"/>
</svg>
