<svg xmlns="http://www.w3.org/2000/svg" width="48" height="48">
	<path d="m 9.6162107,8.3138955 c -1.9242367,0 -3.9893933,0.399949 -5.7480469,1.8124995 -1.7586536,1.41255 -2.7441406,3.82545 -2.7441406,6.082031 v 15.601562 c 0,2.256586 0.9854854,4.667531 2.7441406,6.080079 1.7586552,1.412547 3.8238102,1.814453 5.7480469,1.814453 H 38.956055 c 2.113597,0 4.281708,-0.78317 5.763672,-2.310547 1.481963,-1.527377 2.15625,-3.606258 2.15625,-5.583985 V 21.643973 a 4,4 0 0 0 -4,-4 4,4 0 0 0 -4,4 V 31.70452 H 9.6162107 c -0.4901045,0 -0.4366934,-0.01835 -0.4921875,-0.0332 V 16.347098 c 0.055434,-0.01483 0.002,-0.0332 0.4921875,-0.0332 H 29.629883 l -5.921875,5.265625 -7.283204,-4.480469 a 4,4 0 0 0 -5.503906,1.310547 4,4 0 0 0 1.310547,5.503906 l 9.816406,6.039063 a 4.0004,4.0004 0 0 0 4.75586,-0.417969 L 40.03418,17.765067 c 0.599098,-0.532836 1.126657,-1.037485 1.646484,-1.748047 0.519827,-0.710563 1.37516,-1.783336 1.015625,-3.84375 C 42.516522,11.143063 41.8515,10.099344 41.155273,9.5189735 40.459047,8.9386025 39.811918,8.7020845 39.27832,8.5541295 38.211125,8.2582205 37.431523,8.2782715 36.555664,8.3178015 l 0.179687,-0.0039 z" fill="#ffaa00"/>
</svg>
