<svg xmlns="http://www.w3.org/2000/svg" width="48" height="48">
	<path d="M 23.269279,2.2122333 C 19.376575,2.3371986 15.483918,3.4994855 12.032951,5.7649675 9.7323056,7.2752885 7.8022276,9.1614025 6.2790446,11.294264 1.7094929,17.692849 0.79378404,26.316858 4.4684976,33.71028 a 3.9999969,4.0000031 85.043101 0 0 5.361328,1.800781 3.9999969,4.0000031 85.043101 0 0 1.8027344,-5.361328 c -3.1261024,-6.28963 -1.0805,-13.842748 4.791016,-17.697266 5.871515,-3.8545175 13.614748,-2.7268485 18.142578,2.642578 4.52783,5.369427 4.329634,13.191746 -0.460937,18.328125 -4.790572,5.13638 -12.5785,5.875623 -18.25,1.732422 a 3.9999969,4.0000031 85.043101 0 0 -5.589844,0.871094 3.9999969,4.0000031 85.043101 0 0 0.871094,5.58789 c 8.889084,6.493742 21.311927,5.314053 28.820312,-2.736328 C 47.465165,30.827869 47.776017,18.354433 40.679435,9.9387955 36.244072,4.6790235 29.757119,2.0039577 23.269279,2.2122333 Z m 0.642578,9.2910147 a 4,4 0 0 0 -4,4 v 8.292969 a 4.0004,4.0004 0 0 0 1.154297,2.810547 l 4.597656,4.65625 a 4,4 0 0 0 5.65625,0.03711 4,4 0 0 0 0.03711,-5.65625 L 27.911857,22.15364 v -6.650391 a 4,4 0 0 0 -4,-4.000001 z" fill="#ffaa00"/>
</svg>
