<svg xmlns="http://www.w3.org/2000/svg" width="48" height="48">
	<path d="M 27.544922,1.8789062 C 26.675204,1.8480779 25.812181,1.9723927 24.962891,2.3261719 23.264302,3.0337304 22.404626,4.4165825 21.970703,5.15625 21.102856,6.6355943 21.636334,6.6065812 19.892578,7.046875 18.013634,7.5213048 18.474333,7.2637317 16.970703,6.3847656 16.218897,5.9452825 14.776229,5.1744141 12.96875,5.3632812 11.16127,5.5521484 9.7139154,6.5271355 8.34375,7.8261719 7.0015764,9.0986643 5.9454798,10.503405 5.7089844,12.328125 5.472489,14.152837 6.2404127,15.590327 6.6640625,16.335938 7.511353,17.82714 7.7542153,17.351841 7.2636719,19.082031 6.735084,20.946379 6.7415902,20.41862 5.2285156,21.28125 4.471983,21.712561 3.0839187,22.572752 2.34375,24.232422 1.6035906,25.892093 1.7240855,27.632697 2.1640625,29.46875 c 0.4309934,1.798536 1.1179937,3.416041 2.5800781,4.533203 1.4620937,1.117153 3.0943811,1.087985 3.9472656,1.177735 0.7061127,0.07431 1.0568906,0.114819 1.3458168,0.146669 4.076334,0.01953 5.097127,-4.913947 1.800872,-6.24657 0.8545,0.343452 -1.616396,-0.831996 -2.7404388,-0.853223 -0.044706,-0.128031 -0.0658,-0.139658 -0.125,-0.386718 -0.090293,-0.376787 -0.1232182,-0.518688 -0.140625,-0.576172 1.0503582,-0.604866 4.0891608,-2.475295 5.1660158,-6.273438 1.030898,-3.636036 -0.479305,-6.642979 -1.109375,-7.783203 0.08851,-0.102675 0.08938,-0.126268 0.273437,-0.300781 0.280662,-0.266091 0.384673,-0.36422 0.425782,-0.408203 1.047357,0.606319 4.18767,2.304951 8.017578,1.337891 3.6649,-0.925376 5.513258,-3.738031 6.185547,-4.8535161 0.133253,0.025291 0.154745,0.01364 0.398437,0.085937 0.3707,0.1099766 0.508176,0.1523592 0.566406,0.1660156 -0.0014,1.2096265 0.09867,4.7778285 2.851563,7.6113275 2.634177,2.711325 5.994976,2.905291 7.296875,2.929688 0.04468,0.127994 0.06198,0.139999 0.121094,0.386718 0.09029,0.376768 0.123151,0.517635 0.140625,0.574219 -1.049119,0.604097 -4.088724,2.477659 -5.166016,6.277344 -1.030585,3.63494 0.478935,6.638198 1.109375,7.779297 -0.08855,0.102822 -0.0885,0.127402 -0.273437,0.302734 -0.281492,0.266881 -0.386466,0.364467 -0.427735,0.408203 -1.047746,-0.606487 -4.188118,-2.302879 -8.017578,-1.335937 -3.663536,0.925043 -5.510605,3.735156 -6.183594,4.851562 -0.133317,-0.02527 -0.152276,-0.01349 -0.396484,-0.08594 -0.372142,-0.110406 -0.51175,-0.154174 -0.570313,-0.167969 0.0012,-1.028214 -0.343954,-2.853149 -1.143953,-3.946033 -1.831233,-2.443359 -5.99221,-0.602329 -5.845774,2.852648 -0.0047,0.870803 0.05523,3.728051 1.12254,5.198854 1.067312,1.470803 2.63516,2.236421 4.445312,2.773437 1.773158,0.526044 3.516264,0.73881 5.214844,0.03125 1.69858,-0.707558 2.558265,-2.088458 2.992188,-2.828125 0.867847,-1.479345 0.336332,-1.452284 2.080078,-1.892578 1.878944,-0.474438 1.420198,-0.216856 2.923828,0.66211 0.751806,0.439483 2.190568,1.21036 3.998047,1.021484 1.80748,-0.188867 3.254835,-1.163854 4.625,-2.462891 1.342174,-1.272501 2.400224,-2.677241 2.636718,-4.501953 0.236495,-1.824711 -0.531428,-3.260258 -0.955078,-4.005859 -0.84729,-1.491202 -1.090162,-1.017847 -0.599609,-2.748047 0.528578,-1.864339 0.52209,-1.334636 2.035156,-2.197266 0.756542,-0.431311 2.144607,-1.293454 2.884766,-2.953125 0.740169,-1.659679 0.619664,-3.400274 0.179687,-5.236328 C 45.402991,16.734667 44.715999,15.117153 43.253906,14 41.791821,12.882847 40.164215,12.82819 39.306641,12.822266 37.591504,12.810396 37.882109,13.258656 36.628906,11.96875 35.278541,10.578841 35.73079,10.847066 35.740234,9.1054688 35.744952,8.234675 35.69232,6.6016627 34.625,5.1308594 33.557688,3.6600561 31.989831,2.8944389 30.179688,2.3574219 29.293108,2.0944047 28.41463,1.9097346 27.544922,1.8789062 Z M 23.65625,14.472656 c -0.743003,0.02813 -1.488355,0.143652 -2.224609,0.351563 -1.963342,0.554429 -3.648332,1.708886 -4.869141,3.234375 -1.22081,1.525489 -1.979248,3.423831 -2.089844,5.460937 -0.103117,1.928867 1.375908,3.576599 3.304688,3.681641 1.930366,0.105328 3.580542,-1.374322 3.685547,-3.304688 0.06034,-1.111463 0.797923,-2.033436 1.86914,-2.335937 1.071216,-0.302501 2.183594,0.09794 2.816407,1.013672 0.632812,0.915727 0.614874,2.097151 -0.04688,2.992187 -0.661743,0.895036 -1.786648,1.258448 -2.847656,0.921875 -1.842956,-0.584389 -3.810656,0.436191 -4.394531,2.279297 -0.584587,1.842378 0.43499,3.809829 2.277344,4.394531 3.88925,1.233748 8.166084,-0.154665 10.591797,-3.435547 2.425715,-3.280881 2.499332,-7.776109 0.179687,-11.132812 -1.884712,-2.727321 -5.032275,-4.243001 -8.251953,-4.121094 z" fill="#ffaa00"/>
</svg>
