<svg xmlns="http://www.w3.org/2000/svg" width="48" height="48">
	<path d="m 23.99978,4.447365 a 4,4 0 0 0 -4,4.0000004 v 5.8730456 c 0,4.068032 -3.582297,6.92336 -7.136719,7.642579 a 4.0004,4.0004 0 0 0 -2.396484,6.333984 l 10.34375,13.669922 a 4.0004,4.0004 0 0 0 6.378906,0 L 37.532983,28.296974 A 4.0004,4.0004 0 0 0 36.243921,22.36338 C 35.289403,21.84833 34.514032,21.379268 33.909937,21.004005 33.305841,20.628743 33.354639,20.51013 32.167749,19.98838 a 4,4 0 0 0 -5.271484,2.052735 4,4 0 0 0 1.550781,5.005859 l -4.447266,5.876953 -4.042969,-5.34375 c 4.46224,-2.624133 8.042969,-7.162172 8.042969,-13.259766 V 8.4473654 a 4,4 0 0 0 -4,-4.0000004 z" fill="#ffaa00"/>
</svg>
