<svg xmlns="http://www.w3.org/2000/svg" width="48" height="48">
	<path d="m 9.5654304,5.4843752 c -2.037059,0 -4.2536036,0.6388696 -5.8085937,2.2343746 C 2.2018465,9.3142558 1.6435554,11.469778 1.6435554,13.41211 l -0.035156,20.59375 v 0.0078 c 0,1.972642 0.557794,3.988679 1.9082031,5.648438 1.3504091,1.659759 3.5865432,2.783323 5.8964844,2.851562 2.2072651,0.0646 4.0493221,-1.671668 4.1152341,-3.878894 0.06512,-2.185983 -1.637429,-4.01903 -3.8222656,-4.115234 -0.016777,-0.03593 -0.095529,-0.14532 -0.097656,-0.5 v -0.0059 L 9.6435554,13.484375 H 38.391603 v 20.529297 c 0,0.503399 -0.02267,0.458027 -0.0332,0.501953 H 18.293946 c -2.209139,0 -4,1.790861 -4,4 0,2.209139 1.790861,4 4,4 h 20.15625 c 2.264327,0 4.679028,-0.973596 6.105469,-2.732421 1.426441,-1.758827 1.835938,-3.836378 1.835938,-5.769532 V 13.41211 c 0,-2.12505 -0.798496,-4.3040102 -2.337891,-5.7832032 -1.539395,-1.479194 -3.620143,-2.1445316 -5.603516,-2.1445316 z" fill="#ffaa00"/>
</svg>
