<svg xmlns="http://www.w3.org/2000/svg" width="48" height="48">
	<path d="m 15.833984,3.7761095 c -3.783896,0 -7.1830634,1.2247019 -9.5976559,3.5820313 -2.4145925,2.3573294 -3.75,5.7771522 -3.75,9.7285152 0,6.116722 2.5237451,11.402447 6.3105468,15.794922 3.7868021,4.392475 8.8254811,7.982491 14.1523441,11.060547 a 2.1002099,2.1002099 0 0 0 2.101562,0 c 5.326863,-3.078056 10.367495,-6.668072 14.154297,-11.060547 3.786802,-4.392475 6.308594,-9.6782 6.308594,-15.794922 0,-3.951362 -1.335409,-7.3711852 -3.75,-9.7285152 -2.414592,-2.35733 -5.811803,-3.5820313 -9.595703,-3.5820313 -1.644877,0 -3.60858,0.2279948 -5.285157,1.6894532 a 2.0999999,2.0999999 0 0 0 -0.203124,2.9628906 2.0999999,2.0999999 0 0 0 2.96289,0.203125 c 0.179584,-0.1565417 1.709928,-0.65625 2.525391,-0.65625 2.899259,0 5.124321,0.8873519 6.662109,2.3886717 1.537789,1.50132 2.484375,3.685418 2.484375,6.722656 0,4.981779 -1.975077,9.206435 -5.291015,13.052734 C 32.949291,33.705225 28.656824,36.82813 24,39.614 19.343258,36.82816 15.052616,33.705172 11.978516,30.13939 8.6625773,26.293091 6.6875,22.068435 6.6875,17.086656 6.6875,14.049419 7.634085,11.86532 9.1718749,10.364 10.709665,8.8626796 12.934731,7.9753283 15.833984,7.9753283 c 2.597529,0 5.453279,1.4772439 6.138672,4.0371087 a 2.0999999,2.0999999 0 0 0 2.570313,1.484375 2.0999999,2.0999999 0 0 0 1.486328,-2.572265 C 24.741671,6.1154125 20.009076,3.7761095 15.833984,3.7761095 Z" fill="#008055"/>
</svg>
