<svg xmlns="http://www.w3.org/2000/svg" width="48" height="48">
	<path d="m 14.375977,6.5273435 c -1.776714,0 -3.452612,0.514775 -4.707031,1.615235 -1.254419,1.10046 -1.97461,2.7779475 -1.97461,4.5546875 V 35.28125 c 0,1.878149 0.687647,3.628639 1.990235,4.720703 1.302588,1.092065 2.970996,1.470703 4.691406,1.470703 h 19.623047 c 1.766467,0 3.410607,-0.618158 4.560547,-1.763672 1.149939,-1.145513 1.746093,-2.754983 1.746093,-4.427734 V 15.273437 c 0,-1.787282 -0.58276,-3.4685 -1.789062,-4.59375 C 37.3103,9.5544395 35.677628,9.1035155 33.999024,9.1035155 h -8.185547 a 2,2 0 0 0 -2,2.0000005 2,2 0 0 0 2,2 h 8.185547 c 0.989386,0 1.508162,0.237974 1.789062,0.5 0.280901,0.262027 0.517578,0.666345 0.517578,1.669921 V 35.28125 c 0,0.771141 -0.228051,1.254753 -0.568359,1.59375 -0.340308,0.338998 -0.848918,0.597656 -1.738281,0.597656 H 14.375977 c -1.12183,0 -1.795425,-0.260483 -2.123047,-0.535156 -0.327622,-0.274672 -0.558594,-0.619408 -0.558594,-1.65625 V 12.697266 c 0,-0.797682 0.224688,-1.205975 0.613282,-1.546875 0.388593,-0.340901 1.053783,-0.623047 2.068359,-0.623047 h 7.720703 a 2,2 0 0 0 2,-2.0000005 2,2 0 0 0 -2,-2 z m 9.541016,9.7089845 a 1.60016,1.60016 0 0 0 -0.107422,0.002 1.60016,1.60016 0 0 0 -1.232422,0.671875 L 17.84668,23.5645 a 1.60016,1.60016 0 0 0 0.966797,2.490234 c 1.68022,0.361847 3.466797,1.839893 3.466797,4.066406 v 2.857422 a 1.6,1.6 0 0 0 1.599609,1.601563 1.6,1.6 0 0 0 1.601563,-1.601563 V 30.12114 c 0,-2.943168 -1.714462,-5.170648 -3.845703,-6.365234 l 2.24414,-3.158203 2.439453,3.431641 c -0.399492,0.261887 -0.92828,0.422962 -1.242187,0.728515 a 1.6,1.6 0 0 0 -0.03125,2.263672 1.6,1.6 0 0 0 2.263672,0.03125 c 0.225953,-0.21994 1.208838,-0.852775 1.785156,-1.035156 A 1.60016,1.60016 0 0 0 29.91504,23.5645 l -4.730469,-6.654297 a 1.60016,1.60016 0 0 0 -1.267578,-0.673828 z" fill="#008055"/>
</svg>
