<svg xmlns="http://www.w3.org/2000/svg" width="48" height="48">
	<path d="M 24.410818,1.9924995 C 19.712829,1.9019195 14.962063,3.3051705 10.92449,6.2854685 9.7708988,7.1369825 8.7241788,8.0807305 7.7858178,9.1018755 1.2172968,16.249893 0.00394775,27.120937 5.3092558,35.640938 a 1.9000004,1.8999996 85.381803 0 0 2.615234,0.607422 1.9000004,1.8999996 85.381803 0 0 0.611328,-2.617188 C 3.5020508,25.54725 5.5185128,14.995673 13.18035,9.3401565 c 7.661836,-5.655517 18.338034,-4.473295 24.580078,2.7187505 6.242043,7.192044 5.90793,17.92709 -0.769531,24.716797 -6.677463,6.789705 -17.406089,7.302943 -24.701172,1.18164 A 1.9000004,1.8999996 85.381803 0 0 9.6139438,38.191719 1.9000004,1.8999996 85.381803 0 0 9.8463648,40.8675 C 18.633346,48.240655 31.65683,47.619969 39.699881,39.441719 47.742932,31.263469 48.150108,18.229588 40.631522,9.5667185 36.402317,4.6938545 30.451091,2.1089645 24.410818,1.9924995 Z m -7,12.4218765 a 3.4647925,3.4648135 0 0 0 -3.464843,3.464843 3.4647925,3.4648135 0 0 0 3.464843,3.464844 3.4647925,3.4648135 0 0 0 3.464844,-3.464844 3.4647925,3.4648135 0 0 0 -3.464844,-3.464843 z m 13.177735,0 a 3.4647925,3.4648135 0 0 0 -3.464844,3.464843 3.4647925,3.4648135 0 0 0 3.464844,3.464844 3.4647925,3.4648135 0 0 0 3.462891,-3.464844 3.4647925,3.4648135 0 0 0 -3.462891,-3.464843 z M 19.496756,26.392891 c -2.271053,-0.112483 -4.642812,0.890076 -6.349609,2.974609 a 1.9,1.9 0 0 0 0.267578,2.673829 1.9,1.9 0 0 0 2.673828,-0.267579 c 1.060693,-1.295438 2.069481,-1.642956 3.220703,-1.585937 1.151222,0.05702 2.507691,0.666498 3.720703,1.78125 1.617446,1.486423 3.422184,2.687811 5.585938,2.853516 2.163753,0.165704 4.369454,-0.912686 6.195312,-3 a 1.9,1.9 0 0 0 -0.179687,-2.681641 1.9,1.9 0 0 0 -2.679688,0.179688 c -1.327892,1.518042 -2.196413,1.77802 -3.046875,1.71289 -0.850462,-0.06513 -2.00175,-0.665732 -3.302734,-1.861328 -1.727118,-1.587213 -3.834416,-2.666814 -6.105469,-2.779297 z" fill="#008055"/>
</svg>
