<svg xmlns="http://www.w3.org/2000/svg" width="48" height="48">
	<path d="M 24.409694,2.0048549 C 19.714312,1.9141899 14.966374,3.3153731 10.931179,6.2939171 9.7782665,7.1449301 8.7322695,8.0897791 7.7944605,9.1103241 1.2298055,16.254139 0.01766747,27.118775 5.3198515,35.633761 a 1.9000005,1.8999995 84.833921 0 0 2.617187,0.607422 1.9000005,1.8999995 84.833921 0 0 0.609375,-2.617188 C 3.5162155,25.545804 5.5325885,15.004017 13.188991,9.3525111 c 7.656403,-5.651506 18.324883,-4.474055 24.5625,2.7128909 6.237617,7.186944 5.903196,17.916279 -0.769531,24.701172 -6.672727,6.784892 -17.393684,7.298604 -24.683594,1.18164 a 1.9000005,1.8999995 84.833921 0 0 -2.6777335,0.234375 1.9000005,1.8999995 84.833921 0 0 0.234375,2.677735 C 18.636814,48.229139 31.652629,47.604072 39.690944,39.430636 47.72926,31.2572 48.136745,18.232938 40.622585,9.5751671 36.39587,4.7051711 30.446615,2.1214241 24.409694,2.0048549 Z M 17.411647,15.774386 a 3.4647925,3.4648135 0 0 0 -3.464843,3.464844 3.4647925,3.4648135 0 0 0 3.464843,3.464844 3.4647925,3.4648135 0 0 0 3.464844,-3.464844 3.4647925,3.4648135 0 0 0 -3.464844,-3.464844 z m 10.423829,1.396484 a 2,2 0 0 0 -2,2 2,2 0 0 0 2,2 h 6.08789 a 2,2 0 0 0 2,-2 2,2 0 0 0 -2,-2 z M 17.769069,29.131808 a 2,2 0 0 0 -1.15039,0.404297 2,2 0 0 0 -0.384766,2.802734 c 2.020035,2.665929 4.881872,4.111462 7.767578,4.080078 2.885707,-0.03138 5.68892,-1.49828 7.728516,-4.035156 a 2,2 0 0 0 -0.304688,-2.810547 2,2 0 0 0 -2.8125,0.304688 c -1.406604,1.749553 -3.078203,2.523874 -4.654296,2.541015 -1.576094,0.01714 -3.162145,-0.681492 -4.53711,-2.496093 a 2,2 0 0 0 -1.652344,-0.791016 z" fill="#008055"/>
</svg>
