<svg xmlns="http://www.w3.org/2000/svg" width="48" height="48">
	<path d="m 24.058497,1.9802295 c -6.308418,-0.02146 -12.217486,2.658865 -16.3457035,7.183594 -1.376071,1.5082435 -2.555314,3.2229255 -3.484375,5.1093755 -0.462926,0.941173 -0.075638,2.079433 0.865235,2.542969 0.941173,0.462926 2.079432,0.07564 2.542968,-0.865235 C 10.714935,9.7004405 17.075514,5.7573125 24.042872,5.7810105 c 6.967358,0.0237 13.304125,4.009962 16.339844,10.2812505 0.457016,0.944168 1.592708,1.339343 2.53711,0.882813 0.946031,-0.456316 1.342345,-1.593643 0.884765,-2.539063 C 40.139769,6.8351035 32.469722,2.0088405 24.058497,1.9802295 Z m 8.535157,10.3359385 c -2.126231,-0.03398 -4.24885,0.900026 -5.720704,2.742187 -0.767446,0.960531 -1.269406,2.065278 -1.521484,3.216797 h -2.632812 c -0.354736,-1.514807 -1.12469,-2.933394 -2.306641,-4.03125 -3.053601,-2.836337 -7.708772,-2.500453 -10.367187,0.712891 -0.8094525,0.97842 -1.3434575,2.121651 -1.6171885,3.318359 H 3.9779417 c -1.0488836,-2.16e-4 -1.8995277,0.849555 -1.90039,1.898438 -2.155e-4,1.049646 0.8507444,1.900605 1.90039,1.90039 h 4.4516488 c 0.341656,1.480858 1.084092,2.871671 2.2207035,3.964844 0.03341,0.03199 0.06794,0.06261 0.103516,0.0918 0.02899,0.03039 0.05896,0.0597 0.08984,0.08789 3.099027,2.779495 7.747482,2.357676 10.353515,-0.904296 0.769816,-0.963579 1.276978,-2.077331 1.539063,-3.240235 h 2.677734 c 0.327863,1.323698 0.97223,2.574798 1.927734,3.603516 v 0.0039 c 0.09102,0.175386 0.207749,0.33432 0.345704,0.470703 0.0016,0.0014 3.81e-4,0.0044 0.002,0.0059 0.0026,0.002 0.0052,0.0039 0.0078,0.0059 0.0039,0.0039 0.0078,0.0078 0.01172,0.01172 0.01474,0.01459 0.02972,0.02892 0.04492,0.04297 0.0046,0.0042 0.01097,0.0037 0.01563,0.0078 0.144534,0.118837 0.305326,0.213071 0.476562,0.279297 3.096707,2.364037 7.414074,1.907196 9.888672,-1.226563 0.754989,-0.956095 1.250986,-2.056799 1.509766,-3.205078 h 4.327477 c 1.049646,2.16e-4 1.900606,-0.850744 1.900391,-1.90039 -8.63e-4,-1.048884 -0.851507,-1.898654 -1.900391,-1.898438 h -4.345055 c -0.361588,-1.543136 -1.152265,-2.987491 -2.369141,-4.091797 -1.354629,-1.229315 -3.010327,-1.840755 -4.664062,-1.867187 z m -17.25586,3.703125 c 0.985881,-0.06984 1.99448,0.26683 2.802735,1.017578 1.616509,1.501495 1.80434,4.0786 0.392578,5.845703 -1.411762,1.767103 -3.824299,1.971393 -5.464844,0.5 -0.01858,-0.01603 -0.03747,-0.03166 -0.05664,-0.04688 -0.01408,-0.01523 -0.02841,-0.03021 -0.04297,-0.04492 -1.592006,-1.531163 -1.738948,-4.114733 -0.298828,-5.855469 0.720059,-0.870368 1.682087,-1.346177 2.667968,-1.416015 z m 16.855469,0.0039 c 0.987938,-0.08556 2.004501,0.236581 2.824219,0.980469 1.639435,1.487775 1.849549,4.078097 0.441406,5.861328 -1.408143,1.783232 -3.831048,1.995179 -5.478516,0.517578 -0.0071,-0.0059 -0.01428,-0.01178 -0.02148,-0.01758 -0.0039,-0.0039 -0.0078,-0.0078 -0.01172,-0.01172 -1.63135,-1.4979 -1.827936,-4.088797 -0.410156,-5.863281 0.70889,-0.887242 1.668312,-1.381241 2.65625,-1.466797 z m 11.690759,6.927734 c -1.015395,0.003 -1.654946,0.803898 -1.698572,1.81836 -0.293301,6.939922 -4.49761,13.102335 -10.853515,15.904297 -6.355906,2.801961 -13.741467,1.748081 -19.0625,-2.716797 -0.804259,-0.673311 -2.001987,-0.567527 -2.6757815,0.236328 -0.6737804,0.803742 -0.5688748,2.001414 0.234375,2.675781 6.4238065,5.390216 15.3620025,6.663912 23.0351565,3.28125 7.673154,-3.382662 12.765054,-10.840542 13.119141,-19.21875 0.0443,-1.048504 -0.963858,-1.934358 -2.012367,-1.978515 -0.02863,-0.0013 -0.05728,-0.002 -0.08594,-0.002 z M 3.8924815,23.566168 c -0.038442,1.34e-4 -0.076872,0.0014 -0.115235,0.0039 -0.4970787,0.03621 -0.9600279,0.266279 -1.289062,0.640625 -0.335976,0.382855 -0.5041561,0.88458 -0.466797,1.392578 0.259725,3.56155 1.381943,7.005756 3.269531,10.03711 0.5543246,0.889863 1.7246661,1.162564 2.615235,0.609374 0.8910544,-0.554396 1.1638945,-1.726209 0.609375,-2.617187 -1.561914,-2.508337 -2.490164,-5.359584 -2.705079,-8.306641 -0.074022,-1.001172 -0.9141383,-1.771992 -1.917968,-1.759765 z m 13.8535155,6.417969 c -0.415526,0.01214 -0.816944,0.153453 -1.148437,0.404296 -0.881058,0.66698 -1.054236,1.922084 -0.386719,2.802735 2.021084,2.667377 4.886303,4.11343 7.773438,4.082031 2.887134,-0.0314 5.689727,-1.498867 7.730468,-4.037109 0.691401,-0.860416 0.555038,-2.118286 -0.304687,-2.810547 -0.860725,-0.692728 -2.120094,-0.556296 -2.8125,0.304687 -1.407758,1.750948 -3.080688,2.525813 -4.658203,2.542969 -1.577516,0.01716 -3.164999,-0.682014 -4.541016,-2.498047 -0.39055,-0.515247 -1.006084,-0.809918 -1.652344,-0.791015 z" fill="#008055"/>
</svg>
