<svg xmlns="http://www.w3.org/2000/svg" width="48" height="48">
	<path d="M 24.410737,1.9919915 C 19.712696,1.9008155 14.961981,3.3027085 10.924409,6.2830065 9.7708164,7.1345205 8.7221444,8.0821735 7.7837844,9.1033195 1.2152624,16.251337 0.00386742,27.120429 5.3091754,35.640429 a 1.9000004,1.8999996 85.381803 0 0 2.617187,0.607422 1.9000004,1.8999996 85.381803 0 0 0.607422,-2.615234 c -5.033767,-8.083924 -3.013399,-18.6355 4.6484366,-24.2910165 7.661836,-5.655516 18.338035,-4.475247 24.580078,2.7167975 6.242043,7.192044 5.907932,17.929044 -0.769531,24.71875 -6.677462,6.789706 -17.408042,7.302944 -24.703125,1.181641 a 1.9000004,1.8999996 85.381803 0 0 -2.6757806,0.232422 1.9000004,1.8999996 85.381803 0 0 0.234375,2.677734 C 18.635217,48.2421 31.658701,47.61946 39.701753,39.441211 47.744804,31.262961 48.150027,18.231034 40.63144,9.5681635 36.402236,4.6952985 30.451076,2.1092175 24.410737,1.9919915 Z M 18.703706,13.652148 c -0.202714,-0.0097 -0.405319,-0.0069 -0.605469,0.0078 -2.401795,0.176456 -4.556518,2.060162 -4.875,4.601562 a 2,2 0 0 0 1.736328,2.232422 2,2 0 0 0 2.232422,-1.736328 c 0.119157,-0.950839 0.825138,-1.408253 1.6875,-1.019532 a 2,2 0 0 0 2.644531,-1.001953 2,2 0 0 0 -1,-2.644531 c -0.597419,-0.269295 -1.212171,-0.41048 -1.820312,-0.439453 z m 10.630859,0.01953 c -0.607202,0.02212 -1.220519,0.151659 -1.810547,0.400391 a 2,2 0 0 0 -1.064453,2.619141 2,2 0 0 0 2.619141,1.066406 c 0.882986,-0.372231 1.631965,0.0097 1.726562,0.951172 a 2,2 0 0 0 2.191407,1.791015 2,2 0 0 0 1.789062,-2.189453 c -0.262052,-2.608134 -2.444874,-4.434725 -4.847656,-4.625 -0.200232,-0.01586 -0.401115,-0.02104 -0.603516,-0.01367 z m -5,7.966797 c -2.333864,-0.08346 -4.676904,0.934863 -6.388672,2.955078 a 1.8092755,1.5973273 85.038951 0 0 -0.367187,0.326172 c -0.0034,0.0044 -0.0084,0.0053 -0.01172,0.0098 a 1.8092755,1.5973273 85.038951 0 0 -0.03516,0.04688 1.8092755,1.5973273 85.038951 0 0 -0.01367,0.01758 c -0.0028,0.0038 -0.003,0.0079 -0.0059,0.01172 a 1.8092755,1.5973273 85.038951 0 0 -0.226562,0.476562 c -2.612761,3.998808 -2.151056,9.705656 1.285156,12.992188 3.56724,3.411852 8.907144,2.884594 11.884766,-1.107422 C 33.433238,33.375017 33.011795,27.310001 29.457569,23.880705 27.95871,22.43453 26.14975,21.703429 24.334522,21.638517 Z m -0.224609,3.554688 c 1.170808,0.02083 2.339053,0.488092 3.300781,1.416015 2.198234,2.120967 2.484649,5.844408 0.583984,8.392578 -1.900665,2.54817 -5.18239,2.842599 -7.388672,0.732422 -2.20628,-2.110175 -2.506189,-5.829259 -0.615234,-8.386718 a 1.8092755,1.5973273 85.038951 0 0 0.01367,-0.01953 1.8092755,1.5973273 85.038951 0 0 0.01758,-0.02148 c 1.074566,-1.428093 2.582566,-2.140058 4.087891,-2.113281 z" fill="#008055"/>
</svg>
