<svg xmlns="http://www.w3.org/2000/svg" width="48" height="48">
	<path d="M 24.410816,2.0049537 C 19.716026,1.9142367 14.967495,3.3154717 10.9323,6.2940157 9.7793866,7.1450287 8.7333886,8.0898777 7.7955806,9.1104227 1.2309253,16.254237 0.01683411,27.116922 5.3190185,35.631907 a 1.9000005,1.8999995 84.833921 0 0 2.6191411,0.609375 1.9000005,1.8999995 84.833921 0 0 0.607421,-2.617187 C 3.5153827,25.545903 5.5337091,15.002164 13.190113,9.3506567 c 7.656403,-5.651506 18.324883,-4.470148 24.5625,2.7167973 6.237617,7.186946 5.903196,17.914327 -0.769532,24.699219 -6.672727,6.784893 -17.393684,7.298604 -24.683593,1.18164 a 1.9000005,1.8999995 84.833921 0 0 -2.6777354,0.234375 1.9000005,1.8999995 84.833921 0 0 0.234375,2.675782 C 18.637935,48.227284 31.653749,47.606125 39.692066,39.432688 47.730381,31.259253 48.135913,18.233037 40.621753,9.5752657 36.395038,4.7052697 30.446974,2.1215897 24.410816,2.0049537 Z M 17.412769,15.579173 a 3.4647925,3.4648135 0 0 0 -3.464844,3.464843 3.4647925,3.4648135 0 0 0 3.464844,3.464844 3.4647925,3.4648135 0 0 0 3.464844,-3.464844 3.4647925,3.4648135 0 0 0 -3.464844,-3.464843 z m 13.175781,0 a 3.4647925,3.4648135 0 0 0 -3.464844,3.464843 3.4647925,3.4648135 0 0 0 3.464844,3.464844 3.4647925,3.4648135 0 0 0 3.464844,-3.464844 3.4647925,3.4648135 0 0 0 -3.464844,-3.464843 z M 17.828784,29.131907 a 2,2 0 0 0 -2,2 2,2 0 0 0 2,2 h 12.34375 a 2,2 0 0 0 2,-2 2,2 0 0 0 -2,-2 z" fill="#008055"/>
</svg>
