<svg xmlns="http://www.w3.org/2000/svg" width="48" height="48">
	<path d="M 24.410738,1.9919799 C 19.713019,1.9010699 14.961982,3.3026979 10.924409,6.2829959 9.7708179,7.1345099 8.7221449,8.0802099 7.7837849,9.1013549 1.2152628,16.249373 0.00386715,27.120417 5.3091749,35.640418 a 1.9000004,1.8999996 85.381803 0 0 2.617188,0.609375 1.9000004,1.8999996 85.381803 0 0 0.607422,-2.619141 C 3.5000174,25.54673 5.5203859,14.997106 13.182222,9.3415899 20.844058,3.6860729 31.520257,4.8663419 37.7623,12.058386 c 6.242044,7.192045 5.907931,17.929044 -0.769531,24.71875 -6.677463,6.789707 -17.408042,7.302945 -24.703125,1.181641 a 1.9000004,1.8999996 85.381803 0 0 -2.6777351,0.234375 1.9000004,1.8999996 85.381803 0 0 0.234376,2.675781 c 8.7869801,7.373155 21.8124171,6.750516 29.8554681,-1.427734 8.043052,-8.17825 8.448274,-21.21213 0.929688,-29.8750001 -4.229205,-4.872865 -10.180779,-7.45734 -16.220703,-7.574219 z M 17.412691,12.96659 a 3.4647925,4.2878065 0 0 0 -3.464844,4.287109 3.4647925,4.2878065 0 0 0 3.464844,4.287109 3.4647925,4.2878065 0 0 0 3.464844,-4.287109 3.4647925,4.2878065 0 0 0 -3.464844,-4.287109 z m 13.175781,0 a 3.4647925,4.2878065 0 0 0 -3.464844,4.287109 3.4647925,4.2878065 0 0 0 3.464844,4.287109 3.4647925,4.2878065 0 0 0 3.464844,-4.287109 3.4647925,4.2878065 0 0 0 -3.464844,-4.287109 z m -6.433594,10.943359 c -2.110307,-0.04294 -4.225124,0.826795 -5.705078,2.558594 -2.631027,3.078753 -2.327118,7.792742 0.683594,10.5 3.010713,2.707257 7.64905,2.438296 10.332031,-0.59375 a 1.7140664,1.6860482 85.000681 0 0 0.08203,-0.103516 1.7140664,1.6860482 85.000681 0 0 0.08594,-0.09375 c 2.578292,-3.124544 2.194964,-7.832398 -0.861328,-10.486328 -1.337128,-1.161094 -2.975837,-1.74785 -4.617188,-1.78125 z m -0.447265,3.417969 c 1.006448,-0.07655 2.040746,0.240677 2.876953,0.966796 1.672414,1.452241 1.879642,3.956502 0.460937,5.675782 a 1.7140664,1.6860482 85.000681 0 0 -0.05078,0.06445 1.7140664,1.6860482 85.000681 0 0 -0.03906,0.04297 c -1.476299,1.668371 -3.944319,1.807598 -5.591796,0.326172 -1.647479,-1.481427 -1.812955,-3.989513 -0.365235,-5.683594 0.72386,-0.84704 1.702537,-1.316025 2.708985,-1.392578 z" fill="#008055"/>
</svg>
