<svg xmlns="http://www.w3.org/2000/svg" width="48" height="48">
	<path d="M 24.411714,1.9929565 C 19.713995,1.9020508 14.962959,3.303674 10.925386,6.283972 9.7717939,7.135486 8.7231209,8.079233 7.784761,9.100378 1.2162396,16.248396 0.00484449,27.119441 5.3101517,35.639441 A 1.9000004,1.8999996 85.381803 0 0 7.925386,36.246863 1.9000004,1.8999996 85.381803 0 0 8.5347609,33.629675 C 3.500994,25.545753 5.51941,14.99613 13.181246,9.340613 20.843082,3.685096 31.51928,4.865366 37.761324,12.05741 c 6.242043,7.192045 5.907931,17.927091 -0.769532,24.716796 -6.677462,6.789707 -17.406089,7.306851 -24.701172,1.185547 a 1.9000004,1.8999996 85.381803 0 0 -2.6777341,0.232422 1.9000004,1.8999996 85.381803 0 0 0.234375,2.675781 C 18.634241,48.241111 31.657725,47.618472 39.700777,39.440222 47.743828,31.261972 48.14905,18.230045 40.630464,9.567175 36.401259,4.694311 30.451639,2.1098353 24.411714,1.9929565 Z M 19.497652,16.516394 a 2,2 0 0 0 -0.746094,0.132812 l -6.583984,2.529297 a 2,2 0 0 0 -1.150391,2.583985 2,2 0 0 0 0.464844,0.708984 l -1.6386721,3.427734 a 1.3001249,1.3001249 0 0 0 -0.00977,0.02148 c -0.730863,1.607941 -0.749231,3.132159 -0.111328,4.259765 0.6379031,1.127607 1.8164051,1.708208 2.9570311,1.732422 1.140626,0.02421 2.361007,-0.52503 3.007813,-1.660156 0.646806,-1.135126 0.616486,-2.657328 -0.107422,-4.314453 l -1.416016,-3.242187 6.021485,-2.3125 a 2,2 0 0 0 1.150394,-2.58398 2,2 0 0 0 -1.83789,-1.283203 z m 9.054687,0 a 2,2 0 0 0 -1.886719,1.283203 2,2 0 0 0 1.150391,2.583985 l 6.582031,2.529296 a 2,2 0 0 0 2.583985,-1.15039 2,2 0 0 0 -1.150391,-2.583985 l -6.582031,-2.529297 a 2,2 0 0 0 -0.697266,-0.132812 z m -15.826172,9.382812 0.470703,1.080079 c 0.513043,1.174425 0.370269,1.74441 0.232422,1.986328 -0.137847,0.241917 -0.376376,0.354427 -0.695312,0.347656 -0.318937,-0.0068 -0.600125,-0.149132 -0.75,-0.414063 -0.149875,-0.264929 -0.28304,-0.802675 0.216797,-1.902343 z m 11.275391,1.59961 c -2.887137,-0.0314 -5.750353,1.41271 -7.771484,4.080078 a 2,2 0 0 0 0.386718,2.802734 2,2 0 0 0 2.800782,-0.386718 c 1.376068,-1.816052 2.963502,-2.515203 4.541015,-2.498047 1.577513,0.01716 3.250496,0.792026 4.658203,2.542969 a 2,2 0 0 0 2.8125,0.30664 2,2 0 0 0 0.304688,-2.8125 c -2.040693,-2.538267 -4.845285,-4.003759 -7.732422,-4.035156 z" fill="#008055"/>
</svg>
