<svg xmlns="http://www.w3.org/2000/svg" width="48" height="48">
	<path d="m 22.919998,1.0224193 c -4.589251,0.0522 -9.148627,0.471692 -12.701172,1.292968 a 1.800185,1.800185 0 0 0 -0.002,0 c -1.7722669,0.41101 -3.0535709,0.852492 -4.0507809,1.445313 -0.99721,0.592821 -1.950837,1.589919 -1.88086,2.929687 0.069977,1.339768 0.964478,2.101768 1.767579,2.611329 0.803098,0.50956 1.732313,0.8624327 2.767578,1.1425777 A 1.800005,1.800005 0 0 0 11.02742,9.1767163 1.800005,1.800005 0 0 0 9.7598421,6.9696843 c -0.431077,-0.11665 -0.647318,-0.250628 -0.966797,-0.384765 0.548315,-0.240844 1.079364,-0.495359 2.2363279,-0.763672 v 0.002 c 6.265311,-1.448413 17.466834,-1.522582 24.140625,-0.347656 a 1.800185,1.800185 0 0 0 0.0059,0.002 c 1.85992,0.321884 2.925199,0.80017 3.824219,1.189453 -4.537101,1.677894 -15.944224,2.425781 -25.080078,1.199219 a 1.800005,1.800005 0 0 0 -2.023437,1.544921 1.800005,1.800005 0 0 0 1.544921,2.0234377 c 9.804421,1.316323 21.264016,0.830779 27.136719,-1.4804687 a 1.800185,1.800185 0 0 0 0.02539,-0.0098 c 1.307948,-0.53641 2.328588,-1.028849 2.90039,-2.298828 0.285902,-0.63499 0.283363,-1.48993 0.01953,-2.103516 C 43.25972,4.9284233 42.854868,4.5308313 42.445427,4.2119313 40.807662,2.9363293 38.50885,2.4013583 35.789177,1.9306813 32.12261,1.2856523 27.50711,0.9703053 22.920036,1.0224783 Z M 7.2364041,11.959919 a 1.9000005,1.8999995 84.833921 0 0 -1.427734,0.664062 1.9000005,1.8999995 84.833921 0 0 -0.140625,0.185547 C 0.9016309,19.987881 0.7657134,29.299683 5.3203891,36.614216 a 1.9000005,1.8999995 84.833921 0 0 2.617187,0.611328 1.9000005,1.8999995 84.833921 0 0 0.609375,-2.619141 C 4.7741931,28.547582 4.8859121,20.85711 8.8340611,14.91109 a 1.9000005,1.8999995 84.833921 0 0 -0.53125,-2.632812 1.9000005,1.8999995 84.833921 0 0 -1.066407,-0.318359 z m 33.5937499,0.04102 a 1.9000005,1.8999995 84.833921 0 0 -1.095703,0.314453 1.9000005,1.8999995 84.833921 0 0 -0.539062,2.634766 c 4.991329,7.557441 3.683833,17.59556 -3.076172,23.623047 -6.760005,6.027486 -16.882292,6.179116 -23.820313,0.357422 a 1.9000005,1.8999995 84.833921 0 0 -2.6777339,0.234375 1.9000005,1.8999995 84.833921 0 0 0.236328,2.675781 c 8.3623359,7.016837 20.6432419,6.833236 28.7910159,-0.431641 8.147775,-7.264876 9.732802,-19.44577 3.716797,-28.554687 a 1.9000005,1.8999995 84.833921 0 0 -1.535157,-0.853516 z m -23.416015,4.75586 a 3.4647925,3.4648135 0 0 0 -3.464844,3.464843 3.4647925,3.4648135 0 0 0 3.464844,3.464844 3.4647925,3.4648135 0 0 0 3.46289,-3.464844 3.4647925,3.4648135 0 0 0 -3.46289,-3.464843 z m 13.175781,0 a 3.4647925,3.4648135 0 0 0 -3.464844,3.464843 3.4647925,3.4648135 0 0 0 3.464844,3.464844 3.4647925,3.4648135 0 0 0 3.464844,-3.464844 3.4647925,3.4648135 0 0 0 -3.464844,-3.464843 z M 17.771561,30.114216 a 2,2 0 0 0 -1.150391,0.40625 2,2 0 0 0 -0.386719,2.800781 c 2.020012,2.665938 4.883829,4.111462 7.769531,4.080078 2.885703,-0.03138 5.688948,-1.496316 7.728516,-4.033203 a 2,2 0 0 0 -0.306641,-2.8125 2,2 0 0 0 -2.810546,0.304687 c -1.406572,1.749543 -3.078212,2.523875 -4.654297,2.541016 -1.576086,0.01714 -3.162172,-0.679549 -4.53711,-2.494141 a 2,2 0 0 0 -1.652343,-0.792968 z" fill="#008055"/>
</svg>
