<svg xmlns="http://www.w3.org/2000/svg" width="48" height="48">
	<path d="M 24.489258,1.9736595 C 17.034347,1.9557162 12.559378,6.0800772 9.7548821,10.831081 7.8846765,10.3545 5.8610129,10.807665 4.3974602,12.083035 2.44665,13.783009 1.3525384,16.621379 1.3525384,20.178738 c 0,4.798461 1.3937291,7.987287 3.2343749,9.644531 A 1.9,1.9 0 0 0 7.2705071,29.682644 1.9,1.9 0 0 0 7.1298821,26.99905 C 6.610308,26.531246 5.1513665,24.153437 5.1513665,20.178738 c 0,-2.762112 0.8882702,-4.486349 1.7421875,-5.230469 0.8539173,-0.74412 1.5341839,-0.827747 2.5664062,-0.150391 a 1.90019,1.90019 0 0 0 2.7421878,-0.738281 c 2.385181,-4.7590264 5.455277,-8.3030122 12.28125,-8.2851562 a 1.90019,1.90019 0 0 0 0.0059,0 c 5.860742,0 9.095248,3.0097573 11.251953,8.1679692 a 1.90019,1.90019 0 0 0 2.953125,0.738281 c 0.483073,-0.393977 0.796289,-0.448839 1.11914,-0.419922 0.322851,0.02892 0.731015,0.194417 1.189453,0.638672 0.916876,0.888509 1.84375,2.883677 1.84375,5.552734 -0.0038,1.987997 -0.70075,4.112776 -1.578125,5.175782 -0.43883,0.531674 -0.858457,0.7871 -1.255859,0.875 -0.397402,0.0879 -0.872825,0.06841 -1.660156,-0.378907 a 1.90019,1.90019 0 0 0 -0.07031,-0.03906 c -2.073878,-1.065175 -6.334497,-2.451522 -13.220703,-2.453125 -4.170598,0 -8.525483,0.66912 -12.078125,2.361328 -3.552642,1.692208 -6.4332181,4.719491 -6.5644534,8.894531 a 1.90019,1.90019 0 0 0 0,0.06055 c 0,4.019897 2.4175838,7.113882 5.7714844,8.791016 3.353901,1.677133 7.636787,2.287109 12.298829,2.287109 4.375951,0 8.991526,-0.985353 12.435546,-3.113281 1.722011,-1.063964 3.183709,-2.450296 3.990235,-4.259766 0.806525,-1.809469 0.83335,-4.001098 -0.04297,-6.138672 a 1.9,1.9 0 0 0 -2.478516,-1.037109 1.9,1.9 0 0 0 -1.039062,2.478515 c 0.553546,1.350246 0.485077,2.263669 0.08984,3.150391 -0.395234,0.886722 -1.241799,1.787171 -2.515625,2.574219 -2.547652,1.574096 -6.672706,2.546875 -10.439453,2.546875 -4.308129,0 -8.111223,-0.642389 -10.59961,-1.886719 -2.478178,-1.239224 -3.656351,-2.730275 -3.666016,-5.363281 0.09264,-2.558973 1.61957,-4.232907 4.394531,-5.554688 2.786015,-1.327045 6.697557,-1.990004 10.441407,-1.990234 6.365074,0.0015 10.144187,1.343859 11.486328,2.033203 l -0.07031,-0.03906 c 1.421794,0.807775 2.967029,1.094645 4.357422,0.787109 1.390391,-0.307536 2.526186,-1.149033 3.367187,-2.167969 1.682003,-2.037871 2.442615,-4.828562 2.447266,-7.589844 a 1.90019,1.90019 0 0 0 0,-0.0039 c 0,-3.498469 -1.094006,-6.434224 -3,-8.28125 -0.953037,-0.923525 -2.155737,-1.575443 -3.494181,-1.695325 -0.632141,-0.05662 -1.275056,0.03834 -1.898438,0.228515 C 35.538694,5.6222164 31.017159,1.9751675 24.493164,1.9736595 Z M 17.411132,13.829128 a 3.4647925,3.4648135 0 0 0 -3.464844,3.464844 3.4647925,3.4648135 0 0 0 3.464844,3.464844 3.4647925,3.4648135 0 0 0 3.464844,-3.464844 3.4647925,3.4648135 0 0 0 -3.464844,-3.464844 z m 13.175782,0 a 3.4647925,3.4648135 0 0 0 -3.464844,3.464844 3.4647925,3.4648135 0 0 0 3.464844,3.464844 3.4647925,3.4648135 0 0 0 3.464844,-3.464844 3.4647925,3.4648135 0 0 0 -3.464844,-3.464844 z M 16.686523,32.446316 a 2,2 0 0 0 -1.851563,1.15625 2,2 0 0 0 0.968751,2.65625 c 4.813475,2.241496 11.5498,2.124972 16.351562,0.01758 a 2,2 0 0 0 1.027344,-2.634766 2,2 0 0 0 -2.634766,-1.027343 c -3.407517,1.495488 -9.780843,1.544065 -13.054687,0.01953 a 2,2 0 0 0 -0.806641,-0.1875 z" fill="#008055"/>
</svg>
