<svg xmlns="http://www.w3.org/2000/svg" width="48" height="48">
	<path d="M 24.411191,2.0053802 C 19.716131,1.9149852 14.967871,3.3158986 10.932676,6.2944427 9.7797627,7.1454552 8.7318117,8.0903039 7.7940038,9.1108489 1.2293484,16.254664 0.01720944,27.119301 5.3193944,35.634286 a 1.9000005,1.8999995 84.833921 0 0 2.6171875,0.607422 1.9000005,1.8999995 84.833921 0 0 0.609375,-2.617187 C 3.5157598,25.546329 5.5321322,15.00259 13.188535,9.3510833 c 7.656403,-5.6515065 18.324882,-4.4721016 24.5625,2.7148437 6.237617,7.186945 5.905148,17.916279 -0.767578,24.701172 -6.672728,6.784891 -17.395638,7.298604 -24.685547,1.18164 a 1.9000005,1.8999995 84.833921 0 0 -2.6777344,0.234375 1.9000005,1.8999995 84.833921 0 0 0.234375,2.675781 C 18.636357,48.22771 31.654125,47.604597 39.692441,39.431161 47.730757,31.257725 48.136289,18.23151 40.622128,9.5737395 36.395414,4.7037437 30.447697,2.1216018 24.411191,2.0053802 Z m 3.146484,13.8710938 c -0.736905,0 -1.600725,0.172158 -2.302734,0.800781 -0.702009,0.628624 -1.023438,1.605231 -1.023438,2.519531 a 1.70017,1.70017 0 0 0 0,0.01367 c 0.01593,2.096487 0.05533,4.095205 1.375,5.746094 1.31967,1.650888 3.571347,2.287109 6.751954,2.287109 3.252235,0 5.500157,-0.651958 6.773437,-2.322266 1.269858,-1.665815 1.212824,-3.612195 1.193359,-5.568358 -5.31e-4,-1.072095 -0.453171,-2.225163 -1.308593,-2.828126 -0.855926,-0.603316 -1.727451,-0.648437 -2.47461,-0.648437 z m -16.249999,0.08203 c -0.747159,0 -1.6167308,0.04317 -2.4726566,0.646484 -0.8554228,0.602963 -1.3080619,1.757985 -1.3085938,2.830079 v 0.0019 c -0.019484,1.955494 -0.076068,3.901153 1.1933594,5.566406 1.2732804,1.670306 3.521202,2.322265 6.773438,2.322265 3.180606,0 5.432283,-0.63622 6.751953,-2.287109 1.319669,-1.650889 1.35907,-3.649607 1.374999,-5.746094 a 1.70017,1.70017 0 0 0 0,-0.01367 c 0,-0.9143 -0.321428,-1.890907 -1.023437,-2.519531 -0.702009,-0.62862 -1.565829,-0.800778 -2.302734,-0.800778 z m 16.339843,3.318359 h 8.894531 c 0.346987,0 0.369935,0.02441 0.388672,0.01953 -8.66e-4,0.03231 -0.0059,0.0021 -0.0059,0.05859 a 1.70017,1.70017 0 0 0 0,0.01563 c 0.01854,1.884595 -0.143202,3.027306 -0.496094,3.490235 -0.352892,0.462928 -1.255858,0.982422 -4.070312,0.982422 -2.744594,0 -3.691533,-0.502202 -4.095704,-1.007813 -0.394011,-0.492902 -0.59102,-1.676638 -0.615234,-3.558594 z m -16.339843,0.08203 h 8.896484 c -0.02422,1.88191 -0.221229,3.063745 -0.615234,3.556641 -0.404171,0.505612 -1.35111,1.009766 -4.095703,1.009766 -2.814454,0 -3.717421,-0.519494 -4.070313,-0.982422 -0.352892,-0.462929 -0.514635,-1.60564 -0.496094,-3.490235 a 1.70017,1.70017 0 0 0 0,-0.01563 c 0,-0.05654 -0.005,-0.02628 -0.0059,-0.05859 0.01912,0.0047 0.04016,-0.01953 0.386719,-0.01953 z m 18.910155,9.771485 a 2,2 0 0 0 -1.605468,0.748047 c -1.406572,1.749543 -3.078212,2.523874 -4.654297,2.541015 -1.576085,0.01714 -3.162171,-0.681501 -4.537109,-2.496093 a 2,2 0 0 0 -1.650391,-0.791016 2,2 0 0 0 -1.15039,0.404297 2,2 0 0 0 -0.386719,2.802734 c 2.020012,2.665938 4.883829,4.111462 7.769531,4.080078 2.885702,-0.03138 5.686994,-1.498269 7.726562,-4.035156 a 2,2 0 0 0 -0.304687,-2.8125 2,2 0 0 0 -1.207032,-0.441406 z" fill="#008055"/>
</svg>
