<svg xmlns="http://www.w3.org/2000/svg" width="48" height="48">
	<path d="m 24.411711,2.0053939 c -4.69479,-0.09072 -9.44332,1.310519 -13.478516,4.289063 C 9.7802832,7.1454699 8.7323312,8.0883649 7.7945232,9.1089099 1.2298682,16.252725 0.01773023,27.117362 5.3199142,35.632347 a 1.9000005,1.8999995 84.833921 0 0 2.617187,0.609375 1.9000005,1.8999995 84.833921 0 0 0.607422,-2.617187 C 3.5143252,25.546343 5.5306992,15.002604 13.187101,9.3510969 c 7.656402,-5.651507 18.326837,-4.474054 24.564454,2.7128911 6.237617,7.186945 5.903195,17.918233 -0.769532,24.703125 -6.672726,6.784892 -17.393683,7.298605 -24.683593,1.181641 a 1.9000005,1.8999995 84.833921 0 0 -2.6777348,0.232421 1.9000005,1.8999995 84.833921 0 0 0.234375,2.677735 C 18.636878,48.227725 31.654645,47.604611 39.692961,39.431175 47.731276,31.257739 48.134855,18.231524 40.620695,9.5737539 36.39398,4.7037569 30.447869,2.1220299 24.411711,2.0053939 Z m -7,13.5722661 a 3.4647925,3.4648135 0 0 0 -3.464844,3.464844 3.4647925,3.4648135 0 0 0 3.464844,3.464843 3.4647925,3.4648135 0 0 0 3.464844,-3.464843 3.4647925,3.4648135 0 0 0 -3.464844,-3.464844 z m 13.175781,0 a 3.4647925,3.4648135 0 0 0 -3.464844,3.464844 3.4647925,3.4648135 0 0 0 3.464844,3.464843 3.4647925,3.4648135 0 0 0 3.464844,-3.464843 3.4647925,3.4648135 0 0 0 -3.464844,-3.464844 z m 0.105469,11.082031 A 1.999995,1.999995 0 0 0 29.946867,26.79055 L 16.94882,31.749535 a 1.999995,1.999995 0 0 0 -1.154297,2.582031 1.999995,1.999995 0 0 0 2.580078,1.154297 L 31.372648,30.528832 A 1.999995,1.999995 0 0 0 32.526945,27.9468 1.999995,1.999995 0 0 0 30.692961,26.659691 Z" fill="#008055"/>
</svg>
