<svg xmlns="http://www.w3.org/2000/svg" width="48" height="48">
	<path d="M 24.410738,1.991977 C 19.713019,1.9010712 14.961983,3.3046472 10.92441,6.2849452 9.7708177,7.1364602 8.7221447,8.0821592 7.7837847,9.1033052 1.2152631,16.251323 0.00386735,27.120414 5.3091753,35.640414 a 1.9000004,1.8999996 85.381803 0 0 2.6171874,0.607422 1.9000004,1.8999996 85.381803 0 0 0.607422,-2.615234 C 3.5000177,25.548679 5.5203857,14.997103 13.182223,9.3415862 c 7.661835,-5.655517 18.338035,-4.475247 24.580078,2.7167968 6.242043,7.192045 5.90793,17.92709 -0.769532,24.716797 -6.677462,6.789706 -17.409995,7.304897 -24.705078,1.183594 a 1.9000004,1.8999996 85.381803 0 0 -2.6738283,0.232421 1.9000004,1.8999996 85.381803 0 0 0.232422,2.677735 C 18.633265,48.242085 31.658702,47.619446 39.701754,39.441195 47.744805,31.262945 48.150027,18.231018 40.631441,9.5681492 36.402236,4.6952842 30.450663,2.1088558 24.410738,1.991977 Z m -4.919922,13.550781 a 1.8,1.8 0 0 0 -0.667969,0.119141 l -6.583984,2.529296 a 1.8,1.8 0 0 0 -1.035156,2.324219 1.8,1.8 0 0 0 2.326172,1.035157 l 6.582031,-2.527344 a 1.8,1.8 0 0 0 1.035156,-2.326172 1.8,1.8 0 0 0 -1.65625,-1.154297 z m 9.023438,0 a 1.8,1.8 0 0 0 -1.66211,1.154297 1.8,1.8 0 0 0 1.035157,2.326172 l 6.582031,2.527344 a 1.8,1.8 0 0 0 2.326172,-1.035157 1.8,1.8 0 0 0 -1.035157,-2.324219 l -6.582031,-2.529296 a 1.8,1.8 0 0 0 -0.664062,-0.119141 z m -11.101563,4.882813 a 3.4647925,3.4648135 0 0 0 -3.464844,3.464843 3.4647925,3.4648135 0 0 0 3.464844,3.464844 3.4647925,3.4648135 0 0 0 3.464844,-3.464844 3.4647925,3.4648135 0 0 0 -3.464844,-3.464843 z m 13.175782,0 a 3.4647925,3.4648135 0 0 0 -3.464844,3.464843 3.4647925,3.4648135 0 0 0 3.464844,3.464844 3.4647925,3.4648135 0 0 0 3.464843,-3.464844 3.4647925,3.4648135 0 0 0 -3.464843,-3.464843 z M 17.816988,32.064242 a 2,2 0 0 0 -2,2 2,2 0 0 0 2,2 h 12.34375 a 2,2 0 0 0 2,-2 2,2 0 0 0 -2,-2 z" fill="#008055"/>
</svg>
