<svg xmlns="http://www.w3.org/2000/svg" width="48" height="48">
	<path d="m 34.705341,1.7077311 c -0.236543,0.0071 -0.467722,0.03322 -0.685547,0.07031 l 0.04492,-0.0078 c -5.762552,0.837883 -13.474194,1.292172 -19.568359,0.128906 l 0.08594,0.01953 c -0.89143,-0.216314 -1.934815,-0.177002 -2.812499,0.34375 -0.877684,0.520751 -1.427145,1.418545 -1.693359,2.353515 l 0.0078,-0.0332 -1.861328,6.1035159 a 1.80018,1.80018 0 0 0 -0.00195,0.0078 c -0.2609078,0.868417 -0.5037247,1.895733 0.087891,3.035157 0.5916153,1.139423 1.967896,1.644531 3.197265,1.644531 H 32.92799 a 1.8,1.8 0 0 0 1.800781,-1.800781 1.8,1.8 0 0 0 -1.800781,-1.800782 l -21.28125,0.002 c 0.01073,-0.05189 0.0024,0.01865 0.02148,-0.04492 l 1.859375,-6.0957039 a 1.80018,1.80018 0 0 0 0.0098,-0.03125 c 0.03698,-0.12989 0.06111,-0.170195 0.08008,-0.207031 0.02843,0.0037 0.03864,0.0024 0.117187,0.02148 a 1.80018,1.80018 0 0 0 0.08594,0.01953 c 6.794335,1.296915 14.742811,0.771641 20.761718,-0.103516 a 1.80018,1.80018 0 0 0 0.04297,-0.0059 c 0.04052,-0.0069 0.02377,-0.0037 0.05274,-0.0078 0.02328,0.06489 0.04143,0.09543 0.07226,0.244141 l 1.242188,6.0371089 c 0.291654,1.509707 0.992398,3.277594 2.722656,4.660157 l 3.123047,2.496093 H 5.9084669 L 7.176045,17.723356 A 1.8,1.8 0 0 0 7.4377637,15.192106 1.8,1.8 0 0 0 4.9045606,14.93234 l -1.9375,1.576172 c -0.5979481,0.486417 -1.0893844,0.918803 -1.4960937,1.355469 -0.4067094,0.436666 -0.79684971,0.817542 -0.98242191,1.667969 -0.0927861,0.425213 -0.0614469,1.042324 0.21875,1.544922 0.2801969,0.502597 0.70947791,0.798452 1.05859371,0.958984 0.6982318,0.321065 1.2369492,0.320313 1.8769532,0.320313 H 44.226826 c 0.621994,0 1.116802,-0.0064 1.726562,-0.201172 0.30488,-0.09737 0.677103,-0.248457 1.041016,-0.636719 0.363913,-0.388262 0.594834,-1.065165 0.560547,-1.574219 C 47.486381,18.925952 47.045186,18.574622 46.693623,18.1882 46.34206,17.801777 45.9359,17.443283 45.445576,17.03195 a 1.80018,1.80018 0 0 0 -0.0332,-0.02734 L 40.963157,13.44797 C 39.882875,12.584771 39.754996,12.093753 39.52761,10.91672 a 1.80018,1.80018 0 0 0 -0.0059,-0.02148 L 38.275616,4.8346931 a 1.80018,1.80018 0 0 0 -0.002,-0.0039 c -0.19435,-0.937389 -0.57536,-1.887117 -1.445313,-2.521484 -0.434976,-0.317184 -0.917838,-0.488453 -1.402344,-0.560547 -0.242252,-0.03605 -0.48416,-0.04808 -0.720703,-0.04102 z M 3.8342481,23.412809 a 1.9000005,1.8999995 84.833921 0 0 -0.1171875,0.002 1.9000005,1.8999995 84.833921 0 0 -1.3789062,0.701172 1.9000005,1.8999995 84.833921 0 0 -0.421875,1.292969 c 0.1901559,3.726534 1.324514,7.344227 3.296875,10.511719 A 1.9000005,1.8999995 84.833921 0 0 7.832295,36.529997 1.9000005,1.8999995 84.833921 0 0 8.4397169,33.912809 C 6.8078446,31.292123 5.8685309,28.298764 5.7112013,25.215544 A 1.9000005,1.8999995 84.833921 0 0 3.8342481,23.412809 Z m 40.1523429,0.0098 a 1.9000005,1.8999995 84.833921 0 0 -1.908203,1.800781 c -0.355152,6.901834 -4.577571,12.999021 -10.914062,15.757779 -6.336492,2.758757 -13.676573,1.698164 -18.970703,-2.744141 a 1.9000005,1.8999995 84.833921 0 0 -2.6777343,0.232422 1.9000005,1.8999995 84.833921 0 0 0.234375,2.677734 c 6.3922173,5.363711 15.2789043,6.649328 22.9296873,3.31836 7.650783,-3.33097 12.764543,-10.713448 13.193359,-19.046875 a 1.9000005,1.8999995 84.833921 0 0 -1.798828,-1.994141 1.9000005,1.8999995 84.833921 0 0 -0.08789,-0.002 z m -26.263671,5.99606 a 2,2 0 0 0 -2,2 2,2 0 0 0 2,2 h 12.34375 a 2,2 0 0 0 2,-2 2,2 0 0 0 -2,-2 z" fill="#008055"/>
</svg>
