<svg xmlns="http://www.w3.org/2000/svg" width="48" height="48">
	<path d="M 24.410362,1.992406 C 19.712372,1.9018224 14.961606,3.3031232 10.924034,6.2834214 9.7704411,7.1349354 8.7237216,8.0806354 7.7853616,9.1017814 1.216839,16.249798 0.00349121,27.120842 5.3087991,35.640843 a 1.9000004,1.8999996 85.381803 0 0 2.6171875,0.607422 1.9000004,1.8999996 85.381803 0 0 0.609375,-2.617188 C 3.5015946,25.547155 5.5180568,14.995578 13.179893,9.3400624 c 7.661836,-5.655516 18.339988,-4.475247 24.582031,2.7167966 6.242043,7.192044 5.905978,17.929044 -0.771484,24.71875 -6.677463,6.789706 -17.404136,7.302944 -24.699219,1.18164 a 1.9000004,1.8999996 85.381803 0 0 -2.6777344,0.234375 1.9000004,1.8999996 85.381803 0 0 0.234375,2.677735 C 18.634842,48.242514 31.658325,47.617921 39.701377,39.439671 47.744428,31.261421 48.149651,18.229494 40.631065,9.5666244 36.40186,4.6937614 30.450634,2.1088707 24.410362,1.992406 Z m -4.91211,16.023437 a 2,2 0 0 0 -0.748047,0.132813 l -6.582031,2.527343 a 2,2 0 0 0 -1.15039,2.583985 2,2 0 0 0 2.583984,1.15039 l 6.582031,-2.527343 a 2,2 0 0 0 1.150391,-2.583985 2,2 0 0 0 -1.835938,-1.283203 z m 9.052735,0 a 2,2 0 0 0 -1.886719,1.283203 2,2 0 0 0 1.150391,2.583985 l 6.583984,2.527343 a 2,2 0 0 0 2.583984,-1.15039 2,2 0 0 0 -1.15039,-2.583985 L 29.248252,18.148656 A 2,2 0 0 0 28.550987,18.015843 Z M 17.816612,30.244359 a 2,2 0 0 0 -2,2 2,2 0 0 0 2,2 h 12.34375 a 2,2 0 0 0 2,-2 2,2 0 0 0 -2,-2 z" fill="#008055"/>
</svg>
