<svg xmlns="http://www.w3.org/2000/svg" width="48" height="48">
	<path d="M 24.412314,1.9929565 C 19.714595,1.9020505 14.961606,3.3036735 10.924033,6.2839715 9.7704404,7.1354855 8.7237214,8.0792325 7.7853614,9.1003785 1.2168394,16.248395 0.00349145,27.119439 5.3087984,35.63944 a 1.9000004,1.8999996 85.381803 0 0 2.617188,0.607422 1.9000004,1.8999996 85.381803 0 0 0.609375,-2.617187 C 3.5015944,25.545752 5.5200094,14.996128 13.181845,9.3406125 20.843682,3.6850965 31.519881,4.8653645 37.761924,12.057409 44.003967,19.249454 43.669855,29.9845 36.992392,36.774206 30.31493,43.563912 19.58435,44.079103 12.289267,37.957799 a 1.9000004,1.8999996 85.381803 0 0 -2.6757806,0.234376 1.9000004,1.8999996 85.381803 0 0 0.234375,2.675781 C 18.634841,48.241111 31.658326,47.618471 39.701377,39.440221 47.744428,31.261972 48.14965,18.230044 40.631064,9.5671755 36.401859,4.6943105 30.452239,2.1098355 24.412314,1.9929565 Z M 18.033408,14.610143 c -2.089811,-0.02856 -4.163182,1.195627 -5.007813,3.271485 a 2,2 0 0 0 1.09961,2.605468 2,2 0 0 0 2.605469,-1.097656 c 0.361144,-0.887588 1.161949,-1.147633 1.894531,-0.548828 a 2,2 0 0 0 2.814453,-0.283203 2,2 0 0 0 -0.283203,-2.814453 c -0.676505,-0.552969 -1.441916,-0.892585 -2.230469,-1.042969 -0.295707,-0.05639 -0.594034,-0.08576 -0.892578,-0.08984 z m 11.972656,0.01758 c -0.299263,0.0044 -0.598257,0.03313 -0.894531,0.08789 -0.790066,0.146031 -1.556387,0.474102 -2.230469,0.998047 a 2,2 0 0 0 -0.351562,2.80664 2,2 0 0 0 2.80664,0.351563 c 0.756672,-0.58814 1.580982,-0.414174 1.916016,0.470703 a 2,2 0 0 0 2.578125,1.16211 2,2 0 0 0 1.162109,-2.578126 C 34.18024,15.78153 32.100905,14.596974 30.006064,14.627722 Z m -7.99414,10.820313 c -1.144282,0 -2.267779,0.372784 -3.085938,1.15625 -0.818159,0.783465 -1.253906,1.931486 -1.253906,3.121094 0,1.766204 0.763896,3.309217 1.810547,4.5 1.046651,1.190782 2.370267,2.101316 3.728515,2.871093 a 1.60016,1.60016 0 0 0 1.578125,0 c 1.358193,-0.769776 2.681882,-1.680314 3.728516,-2.871093 1.046633,-1.19078 1.810547,-2.733796 1.810547,-4.5 0,-1.18964 -0.435745,-2.337647 -1.253906,-3.121094 -0.818163,-0.783447 -1.941687,-1.15625 -3.085938,-1.15625 -0.574933,0 -1.137559,0.02587 -1.869141,0.597656 -0.644763,-0.405998 -1.403582,-0.597656 -2.107421,-0.597656 z m 4.066406,3.095701 c -0.347386,0.297007 -0.07958,0.103516 -0.08984,0.103516 0.483149,0 0.728758,0.131364 0.873047,0.269531 0.144288,0.138166 0.265625,0.329051 0.265625,0.808594 0,0.884601 -0.33073,1.611674 -1.013672,2.388671 -0.497298,0.565788 -1.321567,1.084437 -2.113281,1.601563 -0.791738,-0.517126 -1.615978,-1.035777 -2.113281,-1.601563 -0.68295,-0.776996 -1.013672,-1.50407 -1.013672,-2.388671 0,-0.479575 0.121359,-0.670446 0.265625,-0.808594 0.144265,-0.138148 0.389828,-0.269531 0.873047,-0.269531 0.235139,0 0.442657,0.146522 0.445312,0.15625 a 1.6,1.6 0 0 0 1.96484,1.123046 1.6,1.6 0 0 0 1.109375,-1.078124 1.6,1.6 0 0 0 0.546875,-0.304688 z" fill="#008055"/>
</svg>
