<svg xmlns="http://www.w3.org/2000/svg" width="48" height="48">
	<path d="M 24.410362,1.9919773 C 19.712643,1.9010713 14.961606,3.3046476 10.924034,6.2849463 9.7704405,7.1364593 8.7237215,8.0802063 7.7853615,9.1013523 1.2168395,16.249369 0.00349052,27.120414 5.3087985,35.640415 a 1.9000004,1.8999996 85.381803 0 0 2.617188,0.609374 1.9000004,1.8999996 85.381803 0 0 0.609375,-2.61914 C 3.5015945,25.546725 5.5200095,14.997103 13.181846,9.3415863 c 7.661836,-5.655516 18.338036,-4.475247 24.580078,2.7167967 6.242045,7.192045 5.907932,17.929044 -0.769531,24.71875 -6.677462,6.789707 -17.408042,7.302945 -24.703125,1.181641 a 1.9000004,1.8999996 85.381803 0 0 -2.6757815,0.234375 1.9000004,1.8999996 85.381803 0 0 0.234375,2.675781 C 18.634842,48.242085 31.658325,47.619445 39.701377,39.441196 47.744429,31.262945 48.149652,18.231019 40.631065,9.5681493 36.40186,4.6952853 30.450286,2.1088562 24.410362,1.9919773 Z M 17.412315,14.415805 a 3.4647925,3.4648135 0 0 0 -3.464844,3.464844 3.4647925,3.4648135 0 0 0 3.464844,3.464844 3.4647925,3.4648135 0 0 0 3.464844,-3.464844 3.4647925,3.4648135 0 0 0 -3.464844,-3.464844 z m 13.175781,0 a 3.4647925,3.4648135 0 0 0 -3.464843,3.464844 3.4647925,3.4648135 0 0 0 3.464843,3.464844 3.4647925,3.4648135 0 0 0 3.464844,-3.464844 3.4647925,3.4648135 0 0 0 -3.464844,-3.464844 z M 13.076377,24.574008 a 1.9,1.9 0 0 0 -0.429687,0.06445 1.9,1.9 0 0 0 -1.34375,2.326172 c 2.173932,8.132541 12.126151,11.986192 20.841797,7.421875 a 1.9,1.9 0 0 0 0.802734,-2.564453 1.9,1.9 0 0 0 -2.564453,-0.800781 C 23.439064,34.657769 16.47833,31.616023 14.972862,25.984165 a 1.9,1.9 0 0 0 -1.78125,-1.410157 1.9,1.9 0 0 0 -0.115235,0 z" fill="#008055"/>
</svg>
