<svg xmlns="http://www.w3.org/2000/svg" width="48" height="48">
	<path d="M 43.777344 0.953125 C 43.210549 0.95669376 42.885046 1.1396485 42.650391 1.2792969 C 42.220796 1.5349578 41.995947 1.7791938 41.738281 2.0683594 C 40.427786 3.3780886 38.211556 5.1647444 36.240234 6.015625 C 35.778455 6.2096334 35.438837 6.1547269 34.6875 5.7324219 L 34.712891 5.7480469 C 28.404961 2.071551 20.281374 2.0684569 13.558594 5.6777344 A 1.90019 1.90019 0 0 0 13.507812 5.7070312 C 12.526587 6.2729948 12.152454 6.2822595 11.404297 6.0019531 C 9.4441685 5.0927539 7.249662 3.3199745 5.9941406 2.0644531 A 1.90019 1.90019 0 0 0 5.9765625 2.046875 C 5.732136 1.8086967 5.5579116 1.6271339 5.2460938 1.4003906 C 5.0901848 1.287019 4.9225537 1.1290526 4.421875 1.0097656 C 3.9211963 0.89047871 2.7747464 1.1904386 2.3554688 1.7714844 C 1.9361909 2.3525302 1.9761838 2.6974659 1.9648438 2.9238281 C 1.9535037 3.1501904 1.9680193 3.298849 1.9824219 3.4472656 C 2.011227 3.7440989 2.055658 4.0243762 2.1074219 4.375 C 2.5780198 7.5625969 4.210925 10.266589 5.5351562 12.246094 L 5.5019531 12.197266 C 5.6605601 12.451034 5.695455 12.859478 5.4082031 13.320312 L 5.4121094 13.316406 C 0.9395393 20.4521 0.85502505 29.202011 5.3261719 36.648438 A 1.9 1.9 0 0 0 7.9335938 37.298828 A 1.9 1.9 0 0 0 8.5839844 34.691406 C 4.7844512 28.363512 4.8733094 21.32891 8.6308594 15.333984 A 1.90019 1.90019 0 0 0 8.6347656 15.330078 C 9.6052938 13.773072 9.7151024 11.768365 8.7246094 10.183594 A 1.90019 1.90019 0 0 0 8.6933594 10.134766 C 8.2706466 9.50288 7.8735372 8.7592035 7.4765625 8.0332031 C 8.2616498 8.5489016 9.0192493 9.099325 9.8847656 9.4941406 A 1.90019 1.90019 0 0 0 9.9921875 9.5390625 C 11.700866 10.196199 13.676115 9.9759058 15.355469 9.0253906 C 20.943949 6.0250881 27.73363 6.0759728 32.800781 9.0292969 A 1.90019 1.90019 0 0 0 32.826172 9.0449219 C 34.135805 9.7810286 35.963769 10.259411 37.720703 9.5175781 A 1.90019 1.90019 0 0 0 37.732422 9.5117188 C 38.539534 9.1644574 39.231622 8.6538709 39.966797 8.1933594 C 39.664603 8.7853981 39.498547 9.4825689 39.21875 9.90625 C 38.155212 11.507229 38.386521 13.586806 39.269531 15.044922 A 1.90019 1.90019 0 0 0 39.296875 15.087891 C 43.639882 21.851886 43.552974 31.361235 36.8125 38.005859 C 29.549816 45.140784 18.679638 44.483928 12.337891 39.021484 A 1.9 1.9 0 0 0 9.6582031 39.220703 A 1.9 1.9 0 0 0 9.8574219 41.900391 C 17.704586 48.65952 30.785431 49.255608 39.476562 40.714844 A 1.90019 1.90019 0 0 0 39.478516 40.712891 C 47.507322 32.798255 47.737513 21.199468 42.494141 13.033203 L 42.521484 13.076172 C 42.143751 12.45242 42.153272 12.353201 42.382812 12.009766 A 1.90019 1.90019 0 0 0 42.388672 12 C 43.777036 9.8976768 45.149329 6.8384054 45.6875 4.4101562 C 45.759693 4.0844195 45.81958 3.7817281 45.84375 3.4296875 C 45.86792 3.0776469 46.070043 2.6562749 45.423828 1.7792969 C 45.100721 1.3408079 44.344138 0.94955624 43.777344 0.953125 z M 17.40625 16.832031 A 3.4647925 3.4648135 0 0 0 13.941406 20.296875 A 3.4647925 3.4648135 0 0 0 17.40625 23.761719 A 3.4647925 3.4648135 0 0 0 20.871094 20.296875 A 3.4647925 3.4648135 0 0 0 17.40625 16.832031 z M 30.582031 16.832031 A 3.4647925 3.4648135 0 0 0 27.117188 20.296875 A 3.4647925 3.4648135 0 0 0 30.582031 23.761719 A 3.4647925 3.4648135 0 0 0 34.046875 20.296875 A 3.4647925 3.4648135 0 0 0 30.582031 16.832031 z M 17.763672 30.189453 A 2 2 0 0 0 16.613281 30.59375 A 2 2 0 0 0 16.226562 33.396484 C 18.246557 36.062436 21.11038 37.507946 23.996094 37.476562 C 26.881807 37.44518 29.685045 35.978303 31.724609 33.441406 A 2 2 0 0 0 31.417969 30.628906 A 2 2 0 0 0 28.607422 30.935547 C 27.200867 32.68508 25.529231 33.459421 23.953125 33.476562 C 22.377019 33.493704 20.790922 32.795047 19.416016 30.980469 A 2 2 0 0 0 17.763672 30.189453 z " fill="#008055"/>
</svg>
