<svg xmlns="http://www.w3.org/2000/svg" width="48" height="48">
	<path d="m 24.363651,1.3878882 a 2.0002,2.0002 0 0 0 -1.71289,0.9941406 L 5.0570103,32.581247 a 2,2 0 0 0 0.7226563,2.734375 2,2 0 0 0 2.734375,-0.720703 l 4.5078124,-7.738281 a 2,2 0 0 0 0.623047,0.09961 h 21.582031 l 4.240235,7.605469 a 2,2 0 0 0 2.720703,0.773437 2,2 0 0 0 0.773437,-2.720703 L 26.127323,2.4152319 A 2.0002,2.0002 0 0 0 24.363651,1.3878882 Z m -0.02148,6.0390624 8.65625,15.5292964 H 15.295292 Z m -2.94141,22.2617184 a 1.80018,1.80018 0 0 0 -1.029297,0.341797 l -9.179688,6.662109 a 1.80018,1.80018 0 0 0 0,2.914063 l 9.179688,6.662109 a 1.80018,1.80018 0 0 0 2.84375,-1.232422 c 0.145577,-1.157364 1.197287,-2.323516 1.68164,-2.710937 a 1.8,1.8 0 0 0 0.28125,-2.529297 1.8,1.8 0 0 0 -2.529297,-0.28125 c -0.586129,0.46883 -1.345806,1.373353 -2.001953,2.503906 l -5.332031,-3.869141 5.28125,-3.833984 c 1.511157,3.064029 4.494637,5.634766 8.599609,5.634766 h 7.949219 a 1.8,1.8 0 0 0 1.798828,-1.800782 1.8,1.8 0 0 0 -1.798828,-1.800781 h -7.949219 c -3.264639,0 -5.464387,-2.666307 -6.005859,-5.232422 a 1.80018,1.80018 0 0 0 -1.789062,-1.427734 z" fill="#008055"/>
</svg>
