<svg xmlns="http://www.w3.org/2000/svg" width="48" height="48">
	<path d="M 10.868974,2.9732549 A 2.000005,2.000005 0 0 0 9.8142867,3.3052862 2.000005,2.000005 0 0 0 9.2478804,6.0748174 L 34.380693,44.129505 a 2.000005,2.000005 0 0 0 2.771484,0.566406 2.000005,2.000005 0 0 0 0.566407,-2.771485 L 12.585771,3.8716924 A 2.000005,2.000005 0 0 0 10.868974,2.9732549 Z m 13.494141,2.0468745 a 2.0002,2.0002 0 0 0 -1.742188,1.046876 L 20.19124,10.555286 a 2,2 0 0 0 0.80664,2.710937 2,2 0 0 0 2.710938,-0.80664 l 0.697266,-1.28711 8.59375,15.414063 h -0.175782 a 2,2 0 0 0 -2,2 2,2 0 0 0 2,2 h 2.404297 l 4.240235,7.605469 a 2,2 0 0 0 2.720703,0.773437 2,2 0 0 0 0.771484,-2.720703 L 26.126787,6.0455204 A 2.0002,2.0002 0 0 0 24.363115,5.0201294 Z M 15.568193,20.119739 a 2,2 0 0 0 -1.712891,0.992187 l -8.7968747,15.09961 a 2,2 0 0 0 0.7207031,2.736328 2,2 0 0 0 2.7363281,-0.722656 l 4.5078125,-7.738282 a 2,2 0 0 0 0.621094,0.09961 h 6.542969 a 2,2 0 0 0 2,-2 2,2 0 0 0 -2,-2 h -4.890625 l 2.015625,-3.460938 a 2,2 0 0 0 -0.722657,-2.734375 2,2 0 0 0 -1.021484,-0.271484 z" fill="#008055"/>
</svg>
