<svg xmlns="http://www.w3.org/2000/svg" width="48" height="48">
	<path d="M 10.1875,8.5214842 A 1.7,1.7 0 0 0 8.4882813,10.222656 1.7,1.7 0 0 0 10.1875,11.921875 h 27.625 A 1.7,1.7 0 0 0 39.511719,10.222656 1.7,1.7 0 0 0 37.8125,8.5214842 Z m 7.347657,6.8906248 a 1.7,1.7 0 0 0 -1.699219,1.699219 1.7,1.7 0 0 0 1.699219,1.699219 h 12.929687 a 1.7,1.7 0 0 0 1.699219,-1.699219 1.7,1.7 0 0 0 -1.699219,-1.699219 z m 0,6.888672 A 1.7,1.7 0 0 0 15.835938,24 1.7,1.7 0 0 0 17.535157,25.701172 H 30.464844 A 1.7,1.7 0 0 0 32.164063,24 1.7,1.7 0 0 0 30.464844,22.300781 Z m 0,6.888672 a 1.7,1.7 0 0 0 -1.699219,1.699219 1.7,1.7 0 0 0 1.699219,1.701172 h 12.929687 a 1.7,1.7 0 0 0 1.699219,-1.701172 1.7,1.7 0 0 0 -1.699219,-1.699219 z M 10.1875,36.078125 A 1.7,1.7 0 0 0 8.4882813,37.779297 1.7,1.7 0 0 0 10.1875,39.478516 h 27.625 A 1.7,1.7 0 0 0 39.511719,37.779297 1.7,1.7 0 0 0 37.8125,36.078125 Z" fill="#008055"/>
</svg>
