<svg xmlns="http://www.w3.org/2000/svg" width="48" height="48">
	<path d="m 24.615234,6.9000212 a 2.0002,2.0002 0 0 0 -1.71289,0.99414 l -4.398438,7.5488278 a 2,2 0 0 0 0.722657,2.736328 2,2 0 0 0 2.734375,-0.722656 l 2.632812,-4.517578 2.5,4.484375 a 2,2 0 0 0 2.720703,0.773438 2,2 0 0 0 0.771485,-2.720703 L 26.378906,7.9273642 A 2.0002,2.0002 0 0 0 24.615234,6.9000212 Z M 5.2070315,19.474239 a 2,2 0 0 0 -2,2 2,2 0 0 0 2,2 H 42.792969 a 2,2 0 0 0 2,-2 2,2 0 0 0 -2,-2 z m 29.0820315,4.958985 a 2,2 0 0 0 -0.955079,0.257812 2,2 0 0 0 -0.759765,2.72461 l 0.59375,1.052734 H 15.517578 l 0.560547,-0.964844 A 2,2 0 0 0 15.351562,24.769161 2,2 0 0 0 14.328125,24.49963 2,2 0 0 0 12.617187,25.495724 L 5.3066405,38.095333 a 2,2 0 0 0 0.726563,2.734375 2,2 0 0 0 2.734375,-0.726562 l 4.4902335,-7.740235 a 2,2 0 0 0 0.638672,0.105469 h 21.529297 l 4.298828,7.615234 a 2,2 0 0 0 2.72461,0.757813 2,2 0 0 0 0.757812,-2.72461 L 36.058594,25.450802 a 2,2 0 0 0 -1.769531,-1.017578 z" fill="#008055"/>
</svg>
