<svg xmlns="http://www.w3.org/2000/svg" width="48" height="48">
	<path d="m 35.648526,6.9013757 a 2.0002,2.0002 0 0 0 -1.371093,0.615235 L 5.3418856,37.71583 a 2,2 0 0 0 0.060547,2.828125 2,2 0 0 0 2.828124,-0.06055 l 7.6835944,-8.019532 a 2,2 0 0 0 0.103516,0.0039 h 21.957031 l 1.271485,6.990234 a 2,2 0 0 0 2.326171,1.609375 2,2 0 0 0 1.609375,-2.326172 L 37.689542,8.5420017 a 2.0002,2.0002 0 0 0 -2.041016,-1.640626 z m -1.193359,6.2128913 2.792969,15.353516 H 19.744229 Z" fill="#008055"/>
</svg>
