<svg xmlns="http://www.w3.org/2000/svg" width="48" height="48">
	<path d="M 10.1875,8.5214845 A 1.7,1.7 0 0 0 8.4882812,10.222657 1.7,1.7 0 0 0 10.1875,11.921876 H 37.810547 A 1.7,1.7 0 0 0 39.511719,10.222657 1.7,1.7 0 0 0 37.810547,8.5214845 Z M 21.462891,15.41211 a 1.7,1.7 0 0 0 -1.701172,1.699219 1.7,1.7 0 0 0 1.701172,1.699219 h 16.347656 a 1.7,1.7 0 0 0 1.701172,-1.699219 1.7,1.7 0 0 0 -1.701172,-1.699219 z m 0,6.888672 a 1.7,1.7 0 0 0 -1.701172,1.699219 1.7,1.7 0 0 0 1.701172,1.701171 h 16.347656 a 1.7,1.7 0 0 0 1.701172,-1.701171 1.7,1.7 0 0 0 -1.701172,-1.699219 z m 0,6.888672 a 1.7,1.7 0 0 0 -1.701172,1.699218 1.7,1.7 0 0 0 1.701172,1.701172 h 16.347656 a 1.7,1.7 0 0 0 1.701172,-1.701172 1.7,1.7 0 0 0 -1.701172,-1.699218 z M 10.1875,36.078126 A 1.7,1.7 0 0 0 8.4882812,37.779298 1.7,1.7 0 0 0 10.1875,39.478516 h 27.623047 a 1.7,1.7 0 0 0 1.701172,-1.699218 1.7,1.7 0 0 0 -1.701172,-1.701172 z" fill="#008055"/>
</svg>
