<svg xmlns="http://www.w3.org/2000/svg" width="48" height="48">
	<path d="M 5.90332,10.374023 A 2.2,2.2 0 0 0 3.7021481,12.573242 V 35.426758 A 2.2,2.2 0 0 0 5.90332,37.625976 2.2,2.2 0 0 0 8.1025387,35.426758 V 12.573242 A 2.2,2.2 0 0 0 5.90332,10.374023 Z m 18.78125,1.082032 a 2.20022,2.20022 0 0 0 -1.349609,0.445312 L 9.6650387,22.245117 a 2.20022,2.20022 0 0 0 0,3.509766 l 13.6699223,10.34375 a 2.20022,2.20022 0 0 0 3.511719,-1.490235 c 0.250548,-2.077211 1.924161,-3.959307 2.71289,-4.617187 a 2.2,2.2 0 0 0 0.28125,-3.09961 2.2,2.2 0 0 0 -3.099609,-0.279296 c -0.91523,0.763393 -2.252903,2.176402 -3.208984,4.117187 l -8.892578,-6.730469 8.990234,-6.802734 c 2.063751,4.810135 6.4102,9.003906 12.595703,9.003906 h 5.873047 a 2.2,2.2 0 0 0 2.199219,-2.199219 2.2,2.2 0 0 0 -2.199219,-2.201171 h -5.873047 c -5.065898,0 -8.546701,-4.322576 -9.408203,-8.580079 A 2.20022,2.20022 0 0 0 24.68457,11.456055 Z" fill="#008055"/>
</svg>
