<svg xmlns="http://www.w3.org/2000/svg" width="48" height="48">
	<path d="m 42.09668,37.625977 a 2.2,2.2 0 0 0 2.201172,-2.199219 V 12.573242 a 2.2,2.2 0 0 0 -2.201172,-2.199218 2.2,2.2 0 0 0 -2.199219,2.199218 v 22.853516 a 2.2,2.2 0 0 0 2.199219,2.199219 z M 23.31543,36.543945 a 2.20022,2.20022 0 0 0 1.349609,-0.445312 l 13.669922,-10.34375 a 2.20022,2.20022 0 0 0 0,-3.509766 L 24.665039,11.901367 a 2.20022,2.20022 0 0 0 -3.511719,1.490235 c -0.250548,2.077211 -1.924161,3.959307 -2.71289,4.617187 a 2.2,2.2 0 0 0 -0.28125,3.09961 2.2,2.2 0 0 0 3.099609,0.279296 c 0.91523,-0.763393 2.252903,-2.176402 3.208984,-4.117187 l 8.892578,6.730469 -8.990234,6.802734 c -2.063751,-4.810135 -6.4102,-9.003906 -12.595703,-9.003906 H 5.901367 a 2.2,2.2 0 0 0 -2.199219,2.199219 2.2,2.2 0 0 0 2.199219,2.201171 h 5.873047 c 5.065898,0 8.546701,4.322576 9.408203,8.580079 a 2.20022,2.20022 0 0 0 2.132813,1.763671 z" fill="#008055"/>
</svg>
