<svg xmlns="http://www.w3.org/2000/svg" width="48" height="48">
	<path d="m 16.938139,11.457252 a 2.20022,2.20022 0 0 0 -2.113281,1.935546 c -0.250542,2.077157 -1.924046,3.959151 -2.712891,4.617188 a 2.2,2.2 0 0 0 -0.28125,3.097656 2.2,2.2 0 0 0 3.09961,0.279297 c 0.915021,-0.763291 2.252856,-2.176417 3.208984,-4.117187 l 8.892578,6.730468 -8.990234,6.804688 c -2.063524,-4.8107 -6.409618,-9.00586 -12.5957034,-9.00586 H 3.0748579 A 2.2,2.2 0 0 0 0.87563911,24.00022 2.2,2.2 0 0 0 3.0748579,26.199439 h 2.3710937 c 5.0660174,0 8.5466964,4.322466 9.4082034,8.580078 a 2.20022,2.20022 0 0 0 3.482422,1.318359 l 13.669921,-10.34375 a 2.20022,2.20022 0 0 0 0,-3.507812 L 18.336577,11.900611 a 2.20022,2.20022 0 0 0 -1.398438,-0.443359 z m 14.246094,0 a 2.2,2.2 0 0 0 -1.681641,0.871093 2.2,2.2 0 0 0 0.425781,3.082031 l 11.351563,8.589844 -11.351563,8.589844 a 2.2,2.2 0 0 0 -0.425781,3.082031 2.2,2.2 0 0 0 3.082031,0.425781 l 13.667969,-10.34375 a 2.20022,2.20022 0 0 0 0,-3.507812 L 32.584623,11.900611 a 2.2,2.2 0 0 0 -1.40039,-0.443359 z" fill="#008055"/>
</svg>
