<svg xmlns="http://www.w3.org/2000/svg" width="48" height="48">
	<path d="M 24.415558,1.8166695 C 19.679924,1.7249305 14.889106,3.1372084 10.819855,6.1408881 9.6572132,6.9990831 8.6015382,7.9534091 7.6557932,8.9826851 1.0355758,16.187615 -0.18723412,27.145842 5.1596992,35.732685 a 2.0999999,2.0999999 0 0 0 2.890625,0.671875 2.0999999,2.0999999 0 0 0 0.673828,-2.892578 C 3.751177,25.525689 5.7427375,15.108962 13.312043,9.5217481 c 7.569306,-5.5872144 18.11459,-4.4215916 24.28125,2.6835929 6.16666,7.105186 5.835102,17.706357 -0.761719,24.414063 -6.59682,6.707706 -17.191455,7.215345 -24.398438,1.167968 a 2.0999999,2.0999999 0 0 0 -2.9589838,0.257813 2.0999999,2.0999999 0 0 0 0.259766,2.958984 C 18.58984,48.43517 31.719559,47.807129 39.825715,39.564716 47.931871,31.322305 48.342743,18.182269 40.765168,9.4514351 36.502781,4.5403413 30.504231,1.9346191 24.415558,1.8166695 Z M 24.05423,9.9221381 c -1.835534,-0.0012 -3.727863,0.5807369 -5.347656,1.7421879 -1.624366,1.164729 -2.996094,3.106231 -2.996094,5.5 a 2.0999999,2.0999999 0 0 0 2.09961,2.099609 2.0999999,2.0999999 0 0 0 2.101562,-2.099609 c 0,-0.857932 0.411203,-1.492045 1.242188,-2.087891 0.830984,-0.595846 2.059639,-0.959111 2.90625,-0.957031 h 0.01367 0.01562 c 1.541327,-0.0178 3.627552,1.326572 3.714844,3.423828 0.02019,1.08345 -0.134868,1.543965 -0.421875,2 -0.289803,0.460478 -0.862839,1.004492 -1.830078,1.773437 -1.267333,0.961539 -2.207809,1.808475 -2.861328,2.902344 -0.660687,1.105867 -0.861328,2.356615 -0.861328,3.533203 a 2.0999999,2.0999999 0 0 0 2.099609,2.101563 2.0999999,2.0999999 0 0 0 2.09961,-2.101563 c 0,-0.801211 0.06311,-1.036673 0.267578,-1.378906 0.204463,-0.342233 0.718627,-0.897561 1.830078,-1.738281 l 0.01953,-0.01563 0.01953,-0.01563 c 1.044862,-0.830655 2.025263,-1.638523 2.771485,-2.824219 0.746221,-1.185696 1.106406,-2.675 1.070312,-4.345703 l -0.002,-0.01563 v -0.01563 C 31.836437,12.830829 27.872571,9.8852001 24.05423,9.9221381 Z M 24.02298,32.097919 a 3.074666,3.074666 0 0 0 -3.074218,3.074219 3.074666,3.074666 0 0 0 3.074218,3.074219 3.074666,3.074666 0 0 0 3.074219,-3.074219 3.074666,3.074666 0 0 0 -3.074219,-3.074219 z" fill="#008055"/>
</svg>
