<svg xmlns="http://www.w3.org/2000/svg" width="48" height="48">
	<path d="m 32.488273,1.4131164 c -0.674326,-0.0019 -1.313913,0.04385 -1.919922,0.13086 -2.42403,0.348042 -4.301435,1.356062 -5.632812,2.611328 -2.57273,2.425655 -3.192592,5.411848 -3.234375,5.61914 -0.307232,1.0069346 -0.230193,2.1394046 0.386719,3.0742186 0.630426,0.955293 1.831681,1.550781 3.060547,1.550781 h 8.447265 c 1.052686,0 1.820577,0.300091 2.285156,0.69336 0.46458,0.393269 0.716797,0.858885 0.716797,1.677734 v 17.554688 c 0,1.054306 -0.256099,1.457561 -0.666015,1.789062 -0.409916,0.331501 -1.184162,0.601563 -2.335938,0.601563 -1.36105,-0.0084 -2.286294,-0.214477 -3.552734,0.380859 -0.634924,0.298469 -1.235328,0.975651 -1.47461,1.623047 -0.23928,0.647396 -0.267578,1.230915 -0.267578,1.878906 0,1.023853 -0.241202,1.543405 -0.529296,1.839844 -0.288096,0.296439 -0.771389,0.548828 -1.839844,0.548828 H 21.36718 c -0.845554,0 -1.397553,-0.242827 -1.761719,-0.59375 -0.364167,-0.350923 -0.628906,-0.861658 -0.628906,-1.794922 0,-0.687456 -0.06763,-1.349412 -0.392578,-2.017578 -0.324952,-0.668166 -0.977091,-1.234787 -1.59961,-1.492187 -1.245038,-0.5148 -2.26424,-0.373047 -3.613281,-0.373047 -0.933236,0 -1.444015,-0.26476 -1.794922,-0.628907 -0.350907,-0.364145 -0.59375,-0.916156 -0.59375,-1.761718 V 16.770538 c 0,-1.068476 0.250435,-1.553701 0.546875,-1.841797 0.29644,-0.288095 0.817945,-0.529297 1.841797,-0.529297 h 4.84375 a 1.8,1.8 0 0 0 1.800781,-1.798828 1.8,1.8 0 0 0 -1.800781,-1.800781 h -4.84375 c -1.644139,0 -3.218593,0.449649 -4.3496097,1.548828 -1.131018,1.09918 -1.640626,2.699451 -1.640626,4.421875 v 17.554688 c 0,1.598337 0.52392,3.139437 1.603516,4.259765 1.0795967,1.120329 2.6641257,1.730469 4.3867197,1.730469 1.226261,0 1.840892,0.07762 1.992187,0.08984 0.01136,0.07594 0.01367,0.02532 0.01367,0.193359 0,1.722637 0.610123,3.307117 1.730469,4.386719 1.120346,1.079602 2.661429,1.601562 4.259766,1.601562 h 4.564453 c 1.722404,0 3.322695,-0.50766 4.421875,-1.638671 1.099179,-1.131012 1.548828,-2.705463 1.548828,-4.34961 0,-0.17919 0.007,-0.144489 0.01758,-0.25 0.104828,0.02284 0.498658,-0.03951 1.666016,-0.0332 a 1.80018,1.80018 0 0 0 0.0098,0 c 1.690464,0 3.319541,-0.367145 4.59961,-1.402344 1.280069,-1.035198 2.001953,-2.727196 2.001953,-4.58789 V 16.770538 c 0,-1.755651 -0.752077,-3.375722 -1.990235,-4.423828 C 36.9689,11.298604 35.334335,10.799835 33.59573,10.799835 h -8.447265 c -0.01335,0 -0.0063,0.0028 -0.0098,0.0039 a 1.80018,1.80018 0 0 0 0.04688,-0.1875 c 0,0 0.483084,-2.2053536 2.21875,-3.8417966 1.735666,-1.636442 4.584492,-2.962899 10.753906,-0.533203 a 1.8,1.8 0 0 0 2.335938,-1.015625 1.8,1.8 0 0 0 -1.015625,-2.333984 c -2.636425,-1.038301 -4.967256,-1.4729 -6.990235,-1.478516 z M 15.185539,17.44046 a 1.7,1.7 0 0 0 -1.699219,1.699219 1.7,1.7 0 0 0 1.699219,1.701172 h 1.361328 a 1.7,1.7 0 0 0 1.701172,-1.701172 1.7,1.7 0 0 0 -1.701172,-1.699219 z m 7.888672,0 a 1.7,1.7 0 0 0 -1.701172,1.699219 1.7,1.7 0 0 0 1.701172,1.701172 h 1.361328 a 1.7,1.7 0 0 0 1.701172,-1.701172 1.7,1.7 0 0 0 -1.701172,-1.699219 z m 7.886719,0 a 1.7,1.7 0 0 0 -1.699219,1.699219 1.7,1.7 0 0 0 1.699219,1.701172 h 1.363281 A 1.7,1.7 0 0 0 34.02343,19.139679 1.7,1.7 0 0 0 32.324211,17.44046 Z m -15.775391,6.587891 a 1.7,1.7 0 0 0 -1.699219,1.699219 1.7,1.7 0 0 0 1.699219,1.699218 h 1.361328 a 1.7,1.7 0 0 0 1.701172,-1.699218 1.7,1.7 0 0 0 -1.701172,-1.699219 z m 7.888672,0 a 1.7,1.7 0 0 0 -1.701172,1.699219 1.7,1.7 0 0 0 1.701172,1.699218 h 1.361328 a 1.7,1.7 0 0 0 1.701172,-1.699218 1.7,1.7 0 0 0 -1.701172,-1.699219 z m 7.886719,0 a 1.7,1.7 0 0 0 -1.699219,1.699219 1.7,1.7 0 0 0 1.699219,1.699218 h 1.363281 A 1.7,1.7 0 0 0 34.02343,25.72757 1.7,1.7 0 0 0 32.324211,24.028351 Z M 15.185539,30.66507 a 1.7,1.7 0 0 0 -1.699219,1.699218 1.7,1.7 0 0 0 1.699219,1.701172 h 1.361328 a 1.7,1.7 0 0 0 1.701172,-1.701172 1.7,1.7 0 0 0 -1.701172,-1.699218 z m 7.888672,0 a 1.7,1.7 0 0 0 -1.701172,1.699218 1.7,1.7 0 0 0 1.701172,1.701172 h 1.361328 a 1.7,1.7 0 0 0 1.701172,-1.701172 1.7,1.7 0 0 0 -1.701172,-1.699218 z m 7.886719,0 a 1.7,1.7 0 0 0 -1.699219,1.699218 1.7,1.7 0 0 0 1.699219,1.701172 h 1.363281 A 1.7,1.7 0 0 0 34.02343,32.364288 1.7,1.7 0 0 0 32.324211,30.66507 Z m -7.886719,6.769531 a 1.7,1.7 0 0 0 -1.701172,1.699219 1.7,1.7 0 0 0 1.701172,1.701171 h 1.361328 a 1.7,1.7 0 0 0 1.701172,-1.701171 1.7,1.7 0 0 0 -1.701172,-1.699219 z" fill="#008055"/>
</svg>
