<svg xmlns="http://www.w3.org/2000/svg" width="48" height="48">
	<path d="m 33.635742,7.9033376 c -0.679095,-0.0015 -1.324513,0.045 -1.935547,0.132813 -2.444135,0.351256 -4.343246,1.365406 -5.6875,2.6328124 -2.589112,2.441098 -3.213777,5.432662 -3.259766,5.660157 -0.316187,1.032869 -0.237603,2.198305 0.398438,3.162109 0.64921,0.983759 1.888635,1.597656 3.144531,1.597656 H 39.37207 c 1.033609,0 1.777598,0.294825 2.220703,0.669922 0.443105,0.375097 0.679687,0.806852 0.679687,1.599609 l 0.002,10.648438 c 0,1.031906 -0.245101,1.398962 -0.630859,1.710937 -0.385757,0.311976 -1.134694,0.580079 -2.271484,0.580079 H 8.0166014 c -0.9112857,0 -1.3919777,-0.25449 -1.7226562,-0.597657 C 5.9632666,35.357047 5.7275389,34.831506 5.7275389,34.006854 V 23.358416 c 0,-1.05031 0.2443205,-1.503965 0.5175781,-1.769531 0.2732577,-0.265565 0.7648632,-0.5 1.7714844,-0.5 H 19.40332 a 1.9,1.9 0 0 0 1.898437,-1.900391 1.9,1.9 0 0 0 -1.898437,-1.90039 H 8.0166014 c -1.6613688,0 -3.265722,0.454462 -4.4199219,1.576172 -1.1541998,1.121709 -1.6699219,2.753551 -1.6699219,4.49414 v 10.648438 c 0,1.619248 0.5310354,3.18872 1.6308594,4.330078 1.099824,1.141358 2.7144401,1.759766 4.4589844,1.759766 H 39.37207 c 1.705449,0 3.357882,-0.369054 4.662109,-1.423828 1.304228,-1.054775 2.039063,-2.782923 2.039063,-4.666016 V 23.358416 c 0,-1.781642 -0.765759,-3.433697 -2.025391,-4.5 C 42.788219,17.792113 41.12975,17.288104 39.37207,17.288104 H 26.415039 a 1.90019,1.90019 0 0 0 0.01562,-0.06445 c 0,0 0.479539,-2.1769 2.189454,-3.789063 1.709914,-1.612163 4.502936,-2.931995 10.648437,-0.511718 a 1.9,1.9 0 0 0 2.464844,-1.072266 1.9,1.9 0 0 0 -1.072266,-2.4648444 c -2.645395,-1.041833 -4.988106,-1.477812 -7.02539,-1.482422 z M 9.791992,23.551776 a 1.7,1.7 0 0 0 -1.6992187,1.701172 1.7,1.7 0 0 0 1.6992187,1.699218 h 1.505859 a 1.7,1.7 0 0 0 1.701172,-1.699218 1.7,1.7 0 0 0 -1.701172,-1.701172 z m 6.724609,0 a 1.7,1.7 0 0 0 -1.701172,1.701172 1.7,1.7 0 0 0 1.701172,1.699218 h 1.505859 a 1.7,1.7 0 0 0 1.701172,-1.699218 1.7,1.7 0 0 0 -1.701172,-1.701172 z m 6.724609,0 a 1.7,1.7 0 0 0 -1.701171,1.701172 1.7,1.7 0 0 0 1.701171,1.699218 h 1.50586 a 1.7,1.7 0 0 0 1.701172,-1.699218 1.7,1.7 0 0 0 -1.701172,-1.701172 z m 6.72461,0 a 1.7,1.7 0 0 0 -1.701172,1.701172 1.7,1.7 0 0 0 1.701172,1.699218 h 1.505859 a 1.7,1.7 0 0 0 1.699219,-1.699218 1.7,1.7 0 0 0 -1.699219,-1.701172 z m 6.722656,0 a 1.7,1.7 0 0 0 -1.699219,1.701172 1.7,1.7 0 0 0 1.699219,1.699218 h 1.507813 a 1.7,1.7 0 0 0 1.699218,-1.699218 1.7,1.7 0 0 0 -1.699218,-1.701172 z M 9.791992,30.397479 A 1.7,1.7 0 0 0 8.0927733,32.098651 1.7,1.7 0 0 0 9.791992,33.79787 h 1.505859 a 1.7,1.7 0 0 0 1.701172,-1.699219 1.7,1.7 0 0 0 -1.701172,-1.701172 z m 6.724609,0.01367 a 1.7,1.7 0 0 0 -1.701172,1.701172 1.7,1.7 0 0 0 1.701172,1.699218 h 14.955078 a 1.7,1.7 0 0 0 1.701172,-1.699218 1.7,1.7 0 0 0 -1.701172,-1.701172 z m 20.171875,0.01367 a 1.7,1.7 0 0 0 -1.699219,1.701171 1.7,1.7 0 0 0 1.699219,1.699219 h 1.507813 a 1.7,1.7 0 0 0 1.699218,-1.699219 1.7,1.7 0 0 0 -1.699218,-1.701171 z" fill="#008055"/>
</svg>
