<svg xmlns="http://www.w3.org/2000/svg" width="48" height="48">
	<path d="m 30.404358,1.6135815 c -0.633785,-0.00119 -1.237333,0.042436 -1.808594,0.125 -2.285043,0.3302568 -4.067874,1.2832777 -5.326172,2.4746094 -2.477863,2.3459926 -3.054533,5.2986026 -3.072266,5.3906246 -0.276916,1.1357485 -0.101577,2.5178025 0.759766,3.4003905 0.869784,0.891238 1.983228,1.09375 2.996094,1.09375 1.340199,0 3.008764,0.407832 4.146484,1.138672 1.13772,0.730839 1.761738,1.55518 1.75,3.005859 a 1.90019,1.90019 0 0 0 0,0.01367 v 20.63086 c -0.006,0.813392 -0.631986,1.655855 -2.18164,2.441406 -1.549655,0.78555 -3.806592,1.276468 -5.898438,1.259765 a 1.90019,1.90019 0 0 0 -0.04102,0 c -2.004837,0.02775 -4.273856,-0.464722 -5.849609,-1.259765 -1.575753,-0.795043 -2.21875,-1.660662 -2.21875,-2.427735 V 17.912409 c 0.03479,-1.190696 0.478341,-1.850565 1.253906,-2.488281 0.777656,-0.639434 1.92887,-1.12045 2.976563,-1.400391 a 1.9,1.9 0 0 0 1.345703,-2.326172 1.9,1.9 0 0 0 -2.326172,-1.34375 c -1.374115,0.36716 -2.996895,0.9727 -4.410156,2.134766 -1.413261,1.162066 -2.5776087,3.019212 -2.6406247,5.328125 a 1.90019,1.90019 0 0 0 0,0.05078 v 21.033203 c 0,2.718928 2.0426897,4.677056 4.3085937,5.820313 2.259729,1.140142 4.979967,1.696975 7.591796,1.664062 2.660523,0.01817 5.380945,-0.529422 7.626954,-1.667968 2.252081,-1.141625 4.243982,-3.111627 4.263671,-5.802735 a 1.90019,1.90019 0 0 0 0,-0.01367 V 18.271784 c 0.02257,-2.78922 -1.568028,-4.993886 -3.496093,-6.232422 -1.928066,-1.238535 -4.17634,-1.740234 -6.201172,-1.740234 -0.0179,0 0.0048,0.0024 -0.01172,0.002 0.0396,-0.167767 0.472135,-1.9390005 1.941406,-3.3300775 1.539704,-1.457762 4.029151,-2.6702425 9.660157,-0.44336 A 1.9,1.9 0 0 0 38.007873,5.4592845 1.9,1.9 0 0 0 36.939514,2.9944409 C 34.486204,2.0242346 32.305712,1.6171601 30.404358,1.6135815 Z M 21.753967,16.943659 A 1.9,1.9 0 0 0 19.85553,18.84405 v 7.046875 a 1.9,1.9 0 0 0 1.898437,1.90039 1.9,1.9 0 0 0 1.900391,-1.90039 V 18.84405 a 1.9,1.9 0 0 0 -1.900391,-1.900391 z" fill="#008055"/>
</svg>
