<svg xmlns="http://www.w3.org/2000/svg" width="48" height="48">
	<path d="m 24.571289,4.7313953 c -10.514955,0 -19.185547,7.9396367 -19.185547,18.9335937 0,5.169053 1.332729,10.04769 4.365235,13.697265 3.032506,3.649576 7.773793,5.90625 13.888672,5.90625 a 1.90019,1.90019 0 0 0 0.03906,0 c 3.26505,-0.06526 6.727056,-0.555364 10.201172,-2.335937 A 1.9,1.9 0 0 0 34.7041,38.375926 1.9,1.9 0 0 0 32.145506,37.551708 c -2.817612,1.444098 -5.583106,1.853805 -8.525391,1.914062 -5.20645,-0.0048 -8.63744,-1.755713 -10.945312,-4.533203 -2.311019,-2.781277 -3.488281,-6.755381 -3.488281,-11.267578 0,-9.048284 6.72276,-15.1328127 15.384765,-15.1328127 3.944536,0 7.496379,1.249697 10.046875,3.5937497 2.550496,2.344054 4.197266,5.792125 4.197266,10.646485 0,2.172017 -0.519169,4.337182 -1.316406,5.783203 -0.797236,1.446021 -1.63228,2.035156 -2.591795,2.035156 -0.580204,0 -0.809567,-0.154833 -1.001953,-0.365234 -0.192386,-0.210401 -0.341797,-0.556167 -0.341797,-1.017578 V 23.52827 c 0.02156,-2.645431 -0.590069,-5.196221 -2.091797,-7.191406 -1.501728,-1.995186 -3.974452,-3.291016 -6.921875,-3.291016 -5.423247,0 -9.640625,4.834356 -9.640625,10.802734 0,3.166626 0.689632,5.856939 2.240234,7.84375 1.550603,1.986812 3.986982,3.078126 6.675782,3.078126 2.092906,0 3.589352,-1.032992 3.927734,-1.275391 a 1.9,1.9 0 0 0 0.4375,-2.650391 1.9,1.9 0 0 0 -2.650391,-0.4375 c -0.462458,0.331281 -0.62887,0.5625 -1.714843,0.5625 -1.764461,0 -2.836176,-0.534428 -3.679688,-1.615234 -0.843512,-1.080806 -1.435547,-2.901475 -1.435547,-5.50586 0,-4.272341 2.638371,-7.001953 5.839844,-7.001953 1.936197,0 3.041108,0.654514 3.884765,1.775391 0.843658,1.120877 1.346555,2.853721 1.330079,4.875 a 1.90019,1.90019 0 0 0 0,0.01563 v 5.695313 c 0,1.294868 0.428733,2.589877 1.335937,3.582031 0.907204,0.992154 2.299724,1.601562 3.806641,1.601562 2.647675,0 4.714907,-1.816311 5.919922,-4.001953 1.205014,-2.185642 1.787109,-4.877575 1.787109,-7.617187 0,-5.74442 -2.076497,-10.366968 -5.423828,-13.4433597 -3.347332,-3.076391 -7.867447,-4.597656 -12.619141,-4.597656 z" fill="#008055"/>
</svg>
