<svg xmlns="http://www.w3.org/2000/svg" width="48" height="48">
	<path d="M 24.413416,1.9166803 C 19.699149,1.8256261 14.92947,3.2329572 10.878259,6.2233209 9.7207711,7.077711 8.6694111,8.0267924 7.7278691,9.0514464 1.1370791,16.224026 -0.0777819,27.133529 5.2454471,35.682305 a 2,2 0 0 0 2.753906,0.638672 2,2 0 0 0 0.640625,-2.75586 C 3.6399111,25.53532 5.6446721,15.059721 13.255213,9.4420704 c 7.61054,-5.6176498 18.211856,-4.4466248 24.412109,2.6972656 6.200253,7.143891 5.869085,17.806534 -0.763672,24.550781 -6.632757,6.744246 -17.288914,7.254148 -24.535156,1.173829 a 2,2 0 0 0 -2.8164069,0.246093 2,2 0 0 0 0.246094,2.816407 C 18.614843,48.324503 31.684993,47.700676 39.755213,39.494805 47.825432,31.288934 48.23279,18.21037 40.688806,9.5182424 36.445316,4.6289207 30.474616,2.03375 24.413416,1.9166803 Z M 31.1849,13.72918 A 3.840766,3.8502173 0 0 0 27.343103,17.578789 3.840766,3.8502173 0 0 0 31.1849,21.430352 3.840766,3.8502173 0 0 0 35.024744,17.578789 3.840766,3.8502173 0 0 0 31.1849,13.72918 Z m -14.753906,0.0059 a 3.840766,3.8502173 0 0 0 -3.839844,3.851563 3.840766,3.8502173 0 0 0 3.839844,3.849609 3.840766,3.8502173 0 0 0 3.841797,-3.849609 3.840766,3.8502173 0 0 0 -3.841797,-3.851563 z m -1.859375,14.175781 a 2,2 0 0 0 -1.355469,0.5 2,2 0 0 0 -0.177734,2.822266 c 5.818851,6.606561 16.000923,6.276627 21.425781,-0.01563 A 2,2 0 0 0 34.255213,28.397149 2,2 0 0 0 31.4349,28.606133 c -3.857382,4.474148 -11.145316,4.809081 -15.396484,-0.01758 a 2,2 0 0 0 -1.466797,-0.677735 z" fill="#008055"/>
</svg>
