<svg xmlns="http://www.w3.org/2000/svg" width="48" height="48">
	<path d="m 15.543946,10.276367 c -1.497444,7e-6 -2.980162,0.494963 -4.064453,1.539063 -1.084291,1.044099 -1.6659605,2.577099 -1.6660165,4.1875 v 15.464843 c -2.5e-5,1.54479 0.3331515,3.083209 1.3359385,4.322265 1.002786,1.239057 2.661739,1.933587 4.394531,1.933594 a 2.0999999,2.0999999 0 0 0 2.101562,-2.099609 2.0999999,2.0999999 0 0 0 -2.101562,-2.099609 c -0.792708,-4e-6 -0.947603,-0.152932 -1.128906,-0.376954 -0.181304,-0.224021 -0.400406,-0.763877 -0.400391,-1.679687 V 16.00293 c 2.4e-5,-0.68884 0.175134,-0.967772 0.376953,-1.16211 0.201819,-0.194338 0.532508,-0.365231 1.152344,-0.365234 h 16.929688 c 0.827681,7e-6 1.079345,0.181201 1.207031,0.3125 0.127686,0.131299 0.304646,0.422191 0.304687,1.214844 v 15.464843 c -3e-6,0.807834 -0.228505,1.341053 -0.470703,1.626953 -0.242198,0.2859 -0.471901,0.429688 -1.041015,0.429688 H 20.469727 a 2.0999999,2.0999999 0 0 0 -2.099609,2.099609 2.0999999,2.0999999 0 0 0 2.099609,2.099609 h 12.003907 c 1.661275,0 3.237553,-0.725849 4.24414,-1.914062 1.006587,-1.188213 1.468743,-2.733101 1.46875,-4.341797 V 16.00293 c -7.9e-5,-1.516838 -0.419964,-3.038005 -1.49414,-4.142579 -1.074177,-1.104573 -2.628522,-1.583971 -4.21875,-1.583984 z" fill="#008055"/>
</svg>
