<svg xmlns="http://www.w3.org/2000/svg" width="48" height="48">
	<path d="m 25.050427,8.3204398 a 2.20022,2.20022 0 0 0 -0.199219,0.01562 L 7.8414421,10.46106 a 2.20022,2.20022 0 0 0 -1.753906,3.03711 l 6.6640629,15.792973 a 2.20022,2.20022 0 0 0 3.787109,0.464843 c 1.255525,-1.673633 3.645928,-2.465134 4.658203,-2.640625 A 2.2,2.2 0 0 0 22.98988,24.57044 2.2,2.2 0 0 0 20.446911,22.779424 c -1.174072,0.203541 -3.039427,0.760096 -4.837891,1.96289 l -4.33789,-10.27539 11.1875,-1.396484 c -0.617422,5.197262 1.049894,11.001319 6.40625,14.09375 4.684872,2.704775 6.89379,5.894244 8.976562,11.130859 a 2.2,2.2 0 0 0 2.855469,1.230469 2.2,2.2 0 0 0 1.232422,-2.857422 C 39.654706,30.94911 36.597426,26.548267 31.064099,23.353643 26.676781,20.820675 25.825755,15.336883 27.20863,11.218877 A 2.20022,2.20022 0 0 0 25.050427,8.3204398 Z" fill="#008055"/>
</svg>
