<svg xmlns="http://www.w3.org/2000/svg" width="48" height="48">
	<path d="m 8.62793,9.514673 c -1.70545,0 -3.355929,0.371007 -4.6601565,1.425781 -1.3042274,1.054774 -2.0410156,2.782922 -2.0410156,4.666015 v 16.789063 c 0,1.883093 0.7367882,3.611241 2.0410156,4.666016 1.3042275,1.054774 2.9547065,1.423828 4.6601565,1.423828 h 31.357422 c 1.744544,0 3.357207,-0.618407 4.457031,-1.759766 1.099824,-1.141358 1.630859,-2.71083 1.630859,-4.330078 V 15.606469 a 1.9,1.9 0 0 0 -1.90039,-1.90039 1.9,1.9 0 0 0 -1.900391,1.90039 v 16.789063 c 0,0.824652 -0.235728,1.350193 -0.566406,1.693359 -0.330679,0.343167 -0.809418,0.597657 -1.720703,0.597657 H 8.62793 c -1.136791,0 -1.885727,-0.268102 -2.271485,-0.580079 C 5.970688,33.794494 5.727539,33.427439 5.727539,32.395532 V 15.606469 c 0,-1.031905 0.243149,-1.398961 0.628906,-1.710937 0.385758,-0.311976 1.134694,-0.580078 2.271485,-0.580078 H 37.004883 L 25.016602,25.907251 a 1.90019,1.90019 0 0 0 -0.002,0.002 c -0.581267,0.613762 -0.973487,0.602432 -1.474609,0.130859 L 12.387695,14.499048 a 1.9,1.9 0 0 0 -2.6875,-0.04688 1.9,1.9 0 0 0 -0.046875,2.6875 l 11.210938,11.599609 a 1.90019,1.90019 0 0 0 0.0625,0.06055 c 1.909577,1.804549 5.037264,1.632191 6.845703,-0.277344 l 12.634766,-13.271484 0.002,-0.002 c 0.589196,-0.589358 1.031468,-1.091427 1.361328,-1.748047 C 42.100823,12.843519 42.27291,11.645271 41.66118,10.786108 41.04945,9.926945 40.296698,9.763667 39.710008,9.649389 39.123318,9.535111 38.554299,9.514624 37.932664,9.514624 Z" fill="#008055"/>
</svg>
