<svg xmlns="http://www.w3.org/2000/svg" width="48" height="48">
	<path d="m 23.898498,3.3842992 c -2.059116,0.04548 -3.608245,1.540389 -4.59375,3.402343 L 2.2344359,36.46633 c -1.080186,1.785865 -1.30861117,3.942915 -0.328125,5.61914 0.9804862,1.676226 2.9255651,2.53125 4.9863285,2.53125 a 2.0999999,2.0999999 0 0 0 2.101562,-2.099609 2.0999999,2.0999999 0 0 0 -2.101562,-2.099609 c -0.9947382,0 -1.2756647,-0.306676 -1.3613285,-0.453125 -0.085664,-0.14645 -0.218239,-0.472584 0.296875,-1.324219 a 2.1002099,2.1002099 0 0 0 0.023437,-0.03906 L 22.982482,8.8159392 a 2.1002099,2.1002099 0 0 0 0.03516,-0.06445 c 0.585995,-1.107145 1.021422,-1.169046 0.972656,-1.167969 -0.04877,0.0011 0.339473,-0.004 0.970703,1.158203 a 2.1002099,2.1002099 0 0 0 0.02539,0.04492 L 42.115297,38.569847 a 2.1002099,2.1002099 0 0 0 0.02344,0.04102 c 0.525809,0.869371 0.403556,1.256147 0.330079,1.390625 -0.07348,0.134479 -0.28153,0.416016 -1.269532,0.416016 H 12.419982 a 2.0999999,2.0999999 0 0 0 -2.099609,2.099609 2.0999999,2.0999999 0 0 0 2.099609,2.099609 h 28.779297 c 2.067498,0 4.024631,-0.896712 4.955078,-2.599609 0.930447,-1.702896 0.647517,-3.811949 -0.421875,-5.580078 L 28.650451,6.7358612 c -1.04527,-1.924506 -2.692837,-3.397039 -4.751953,-3.351562 z m 0.101563,11.3359368 a 2.0999999,2.0999999 0 0 0 -2.09961,2.101563 v 12.191406 a 2.0999999,2.0999999 0 0 0 2.09961,2.099609 2.0999999,2.0999999 0 0 0 2.099609,-2.099609 V 16.821799 a 2.0999999,2.0999999 0 0 0 -2.099609,-2.101563 z m 0,18.962891 a 2.573617,2.573617 0 0 0 -2.574219,2.572265 2.573617,2.573617 0 0 0 2.574219,2.574219 2.573617,2.573617 0 0 0 2.574218,-2.574219 2.573617,2.573617 0 0 0 -2.574218,-2.572265 z" fill="#008055"/>
</svg>
