<svg xmlns="http://www.w3.org/2000/svg" width="48" height="48">
	<path d="m 43.058149,4.5485975 c -0.450594,-0.07767 -0.900037,-0.05178 -1.292969,0.02344 -0.785864,0.150435 -1.516058,0.4768 -2.31836,0.935547 a 1.80018,1.80018 0 0 0 -0.0059,0.0039 L 5.4096699,25.156016 l 0.0625,-0.0332 c -0.646974,0.340583 -1.193454,0.676753 -1.671875,1.09375 -0.478421,0.416998 -0.981768,0.937259 -1.125,1.845703 -0.143232,0.908444 0.40379,1.896457 0.970703,2.351563 0.566913,0.455106 1.154971,0.675648 1.84375,0.875 a 1.80018,1.80018 0 0 0 0.021484,0.0059 l 6.4316411,1.771485 c 0.488676,0.145743 0.733755,0.325567 0.859375,0.476562 0.12562,0.150995 0.21875,0.312834 0.21875,0.791016 a 1.80018,1.80018 0 0 0 0,0.0059 l 0.01563,5.865234 c 2.46e-4,0.48965 0.03007,0.939105 0.148438,1.41211 0.118852,0.474946 0.29104,1.090648 1.054687,1.583984 0.763647,0.493337 1.878714,0.295649 2.40625,-0.03516 0.524878,-0.329138 0.832688,-0.706968 1.158203,-1.15625 l 2.90625,-3.935547 a 1.8,1.8 0 0 0 -0.376953,-2.515625 1.8,1.8 0 0 0 -2.517578,0.376953 l -1.1875,1.607422 -0.0078,-3.208984 c 0,-1.146219 -0.359699,-2.26307 -1.050782,-3.09375 -0.691083,-0.830681 -1.628121,-1.333891 -2.597656,-1.623047 a 1.80018,1.80018 0 0 0 -0.03516,-0.0098 l -5.4394531,-1.5 33.7363281,-19.4746095 0.0059,-0.0039 c 0.134906,-0.0769 0.160673,-0.06046 0.279297,-0.119141 -0.04393,0.158811 -0.02433,0.194548 -0.0918,0.384766 a 1.80018,1.80018 0 0 0 0,0.002 L 31.544487,36.882679 c -0.119166,0.337512 -0.111136,0.296453 -0.15625,0.363281 l -8.695313,-5.759766 c 0.03867,-0.0598 -0.0229,0.04473 0.103516,-0.08398 l 8.429687,-8.427734 a 1.8,1.8 0 0 0 0,-2.546875 1.8,1.8 0 0 0 -2.544922,0 l -8.441406,8.439453 a 1.80018,1.80018 0 0 0 -0.01172,0.01172 c -0.6311,0.642551 -1.263497,1.447111 -1.300781,2.626953 -0.03728,1.179841 0.728095,2.241124 1.626953,2.882812 a 1.80018,1.80018 0 0 0 0.05274,0.03516 l 8.890625,5.888672 c 0.994846,0.659325 2.450865,0.906697 3.53125,0.310547 1.081117,-0.596554 1.564904,-1.565112 1.910156,-2.542969 l 9.880859,-27.982421 c 0.317947,-0.8964785 0.51424,-1.6881095 0.527344,-2.4941415 0.0131,-0.806032 -0.202127,-1.789854 -0.992188,-2.460938 -0.39503,-0.335541 -0.846281,-0.516076 -1.296874,-0.59375 z" fill="#008055"/>
</svg>
