<svg xmlns="http://www.w3.org/2000/svg" width="48" height="48">
	<path d="M 23.83401,1.8320522 C 15.005793,2.0315561 9.0605725,8.3922633 9.0605725,16.082052 a 1.80018,1.80018 0 0 0 0,0.02734 c 0.092096,6.260518 3.1783405,10.223177 6.1347655,14.046875 2.956425,3.823697 5.879805,7.630747 6.898438,14.478515 a 1.8,1.8 0 0 0 2.044922,1.515625 1.8,1.8 0 0 0 1.515624,-2.044922 c -1.141567,-7.674201 -4.642277,-12.310363 -7.611328,-16.15039 -2.965727,-3.83573 -5.300278,-6.755865 -5.380859,-11.884766 0.0057,-5.925623 4.023279,-10.4707063 11.246094,-10.6367183 6.707406,-0.1006956 11.43164,4.5299516 11.43164,10.6484373 0,4.921168 -2.241945,7.82341 -5.205078,11.697265 -1.479451,1.934289 -3.435422,4.462021 -4.90625,7.111329 a 1.8,1.8 0 0 0 0.701172,2.447265 1.8,1.8 0 0 0 2.447266,-0.699218 c 1.280572,-2.306613 3.132838,-4.731183 4.617187,-6.671876 2.964867,-3.876122 5.945313,-7.822293 5.945313,-13.884765 0,-8.0434997 -6.621436,-14.3810642 -15.09375,-14.2499998 a 1.80018,1.80018 0 0 0 -0.01172,0 z m -0.210938,6.7558591 c -1.160082,0.04547 -2.318161,0.380919 -3.361328,1.019532 -0.695445,0.4257407 -1.297541,0.9587397 -1.794922,1.5703117 -1.492141,1.834716 -2.038894,4.367066 -1.320312,6.742188 a 1.8175823,1.7825874 85.000953 0 0 2.228516,1.205078 1.8175823,1.7825874 85.000953 0 0 1.177734,-2.267578 c -0.478832,-1.582679 0.156074,-3.277797 1.552734,-4.132813 1.396661,-0.855016 3.154344,-0.63063 4.296875,0.542969 1.142532,1.173599 1.350495,2.97161 0.501953,4.390625 -0.848541,1.419014 -2.513424,2.053889 -4.060546,1.554687 a 1.8175823,1.7825874 85.000953 0 0 -2.234375,1.181641 1.8175823,1.7825874 85.000953 0 0 1.169921,2.28125 c 3.099243,1.000015 6.484838,-0.294646 8.173829,-3.119141 1.688989,-2.824495 1.267762,-6.490248 -1.023438,-8.84375 -1.431999,-1.4709377 -3.37317,-2.2007837 -5.306641,-2.1249997 z" fill="#008055"/>
</svg>
