<svg xmlns="http://www.w3.org/2000/svg" width="48" height="48">
	<path d="m 23.916992,5.4867432 c -1.683419,0.03689 -2.890686,1.243401 -3.617187,2.609375 L 8.692383,28.182056 c -0.813695,1.339028 -1.018105,3.057409 -0.226563,4.404297 0.791543,1.346887 2.339253,1.998046 3.884766,1.998046 a 2,2 0 0 0 2,-2 2,2 0 0 0 -2,-2 c -0.226295,0 -0.311207,-0.02703 -0.375,-0.04687 0.01805,-0.05193 0.03163,-0.104403 0.136719,-0.277344 a 2.0002,2.0002 0 0 0 0.02148,-0.03906 L 23.797852,10.035571 a 2.0002,2.0002 0 0 0 0.03516,-0.06055 c 0.06427,-0.120848 0.113563,-0.190374 0.162109,-0.261719 0.04794,0.07174 0.09364,0.13787 0.160157,0.259765 a 2.0002,2.0002 0 0 0 0.02344,0.04297 l 11.664056,20.18555 a 2.0002,2.0002 0 0 0 0.02148,0.03711 c 0.111334,0.183213 0.129381,0.252699 0.148437,0.316407 -0.05806,0.01259 -0.106698,0.0293 -0.302734,0.0293 h -17.87109 a 2,2 0 0 0 -2,2 2,2 0 0 0 2,2 h 17.871094 c 1.55189,0 3.120682,-0.688017 3.873047,-2.058593 0.752365,-1.370576 0.50263,-3.041176 -0.300781,-4.363281 l 0.02344,0.03711 L 27.665039,8.0570562 C 26.895902,6.6475692 25.600412,5.4498492 23.916992,5.4867432 Z M 6.043945,38.312915 a 2.0999999,2.0999999 0 0 0 -2.099609,2.101563 2.0999999,2.0999999 0 0 0 2.099609,2.099609 h 35.91211 a 2.0999999,2.0999999 0 0 0 2.099609,-2.099609 2.0999999,2.0999999 0 0 0 -2.099609,-2.101563 z" fill="#008055"/>
</svg>
