<svg xmlns="http://www.w3.org/2000/svg" width="48" height="48">
	<path d="m 14.126953,8.1738283 c -1.566595,0 -3.119428,0.516662 -4.2539065,1.609375 -1.134478,1.0927127 -1.740234,2.6980157 -1.740234,4.3828117 v 19.113282 c 0,1.615961 0.347321,3.224798 1.396484,4.521484 1.0491635,1.296686 2.7850105,2.02539 4.5976565,2.02539 A 2.2,2.2 0 0 0 16.328125,37.625 2.2,2.2 0 0 0 14.126953,35.425781 c -0.827554,0 -0.988997,-0.159314 -1.177734,-0.392578 C 12.760482,34.799938 12.53125,34.236535 12.53125,33.279297 V 14.166015 c 0,-0.719503 0.184435,-1.010528 0.394531,-1.21289 0.210096,-0.202363 0.554267,-0.378907 1.201172,-0.378907 h 19.763672 c 0.864451,0 1.125349,0.18603 1.257813,0.322266 0.132462,0.136236 0.318359,0.441067 0.318359,1.269531 v 19.113282 c 0,0.844133 -0.239759,1.401156 -0.492188,1.699218 -0.252429,0.298063 -0.490304,0.447266 -1.083984,0.447266 H 20.542969 A 2.2,2.2 0 0 0 18.34375,37.625 a 2.2,2.2 0 0 0 2.199219,2.201171 h 13.347656 c 1.738118,0 3.388336,-0.760468 4.441406,-2.003906 1.05307,-1.243437 1.535157,-2.860102 1.535157,-4.542968 V 14.166015 c 0,-1.586936 -0.440416,-3.179874 -1.564454,-4.3359367 -1.124037,-1.156064 -2.748761,-1.65625 -4.412109,-1.65625 z" fill="#008055"/>
</svg>
