<svg xmlns="http://www.w3.org/2000/svg" width="48" height="48">
	<path d="m 8.6279294,8.1503905 c -1.70545,0 -3.3578819,0.369054 -4.6621089,1.423828 C 2.6615923,10.628992 1.9267576,12.35714 1.9267576,14.240234 v 19.541015 c 0,1.781643 0.765758,3.433697 2.0253909,4.5 1.259632,1.066303 2.9181,1.56836 4.6757809,1.56836 A 1.9,1.9 0 0 0 10.52832,37.951171 1.9,1.9 0 0 0 8.6279294,36.050781 c -1.0336089,0 -1.775645,-0.294825 -2.2187499,-0.669922 -0.443105,-0.375097 -0.6816411,-0.806852 -0.6816411,-1.59961 V 14.240234 c 0,-1.031907 0.2431491,-1.398962 0.6289071,-1.710938 0.385757,-0.311976 1.134694,-0.580078 2.2714839,-0.580078 H 39.983398 c 0.911285,0 1.391977,0.25449 1.722656,0.597656 0.330679,0.343167 0.566406,0.868708 0.566406,1.69336 v 19.541015 c 0,1.050311 -0.24432,1.502013 -0.517578,1.767578 -0.273258,0.265566 -0.764863,0.501954 -1.771484,0.501954 H 14.204101 a 1.9,1.9 0 0 0 -1.900391,1.90039 1.9,1.9 0 0 0 1.900391,1.898438 h 25.779297 c 1.661369,0 3.265722,-0.45251 4.419922,-1.574219 1.154199,-1.12171 1.669922,-2.753551 1.669922,-4.494141 V 14.240234 c 0,-1.619249 -0.531036,-3.188719 -1.63086,-4.3300785 -1.099824,-1.141358 -2.71444,-1.759765 -4.458984,-1.759765 z M 15.30957,17.054687 c -3.813959,0.122817 -6.8436785,3.347114 -6.7246095,7.160156 0.1123769,3.598713 3.0189965,6.40521 6.5488275,6.625 a 1.700266,1.6997339 43.000387 0 1 0.002,0.002 1.700266,1.6997339 43.000387 0 0 0.55664,0.103516 v 0.002 h 0.05078 16.847657 c 0.0026,6.68e-4 0.005,0.002 0.0078,0.002 a 1.700266,1.6997339 43.000387 0 0 0.0332,-0.002 h 0.578125 v -0.121094 c 3.551042,-0.398803 6.314677,-3.414593 6.201172,-7.041016 -0.11914,-3.806439 -3.334647,-6.834133 -7.142578,-6.730468 -3.807931,0.103665 -6.850171,3.302152 -6.759766,7.109375 0.02954,1.244183 0.399049,2.39488 1.007813,3.382812 h -5.044922 c 0.680661,-1.095979 1.058635,-2.392952 1.011719,-3.78125 -0.128846,-3.812727 -3.35987,-6.833753 -7.173828,-6.710937 z m 0.111328,3.398437 c 1.980725,-0.06378 3.597284,1.451691 3.664062,3.427735 0.06678,1.976043 -1.445226,3.597163 -3.425781,3.666015 a 1.700266,1.6997339 43.000387 0 0 -0.01758,0 c -1.980884,0.05871 -3.596493,-1.461293 -3.658203,-3.4375 -0.06171,-1.976207 1.456774,-3.592467 3.4375,-3.65625 z m 16.941406,0.002 c 1.977413,-0.05383 3.588649,1.462946 3.650391,3.435547 0.06174,1.972603 -1.450788,3.587523 -3.427735,3.65625 h -0.08008 c -1.965714,0.02503 -3.551012,-1.49857 -3.597656,-3.46289 -0.04685,-1.973009 1.477666,-3.575075 3.455078,-3.628907 z" fill="#008055"/>
</svg>
