<svg xmlns="http://www.w3.org/2000/svg" width="48" height="48">
	<path d="m 13.651668,5.8120143 c -0.13538,-0.00868 -0.271675,-0.00737 -0.40625,0.00195 -0.5383,0.037298 -1.059073,0.2117566 -1.478515,0.4707032 L 2.4954183,11.72803 c -0.810456,0.43807 -1.68787088,1.268767 -1.71484375,2.525391 -0.0269729,1.256624 0.85708065,2.157745 1.68945315,2.61914 l -0.041016,-0.02148 9.3281253,5.476563 c 0,0 0.002,0 0.002,0 0.822719,0.507176 2.015433,0.720996 3.017578,0.162109 1.002756,-0.559228 1.449219,-1.68944 1.449219,-2.658203 v -6.677735 a 1.9,1.9 0 0 0 -1.900391,-1.90039 1.9,1.9 0 0 0 -1.90039,1.90039 v 5.158203 l -6.8203597,-4.00391 7.2675777,-4.265625 a 1.9,1.9 0 0 0 1.453125,0.677735 1.9,1.9 0 0 0 1.900391,-1.9003912 c 0,-0.9628088 -0.41469,-2.0642313 -1.396484,-2.6503906 C 14.461229,5.9496264 14.057808,5.8380543 13.651668,5.8120143 Z m 31.46875,5.5234377 c -2.807466,0 -5.211968,0.352095 -7.285156,1.003906 a 2.1002099,2.1002099 0 0 0 -0.01367,0.0059 c -3.347486,1.077447 -5.625576,3.090805 -7.453125,5.228515 a 2.0999999,2.0999999 0 0 0 0.23242,2.960898 2.0999999,2.0999999 0 0 0 2.960938,-0.230469 c 1.582323,-1.850867 3.075073,-3.163821 5.541015,-3.958984 1.598699,-0.501813 3.564418,-0.808594 6.017578,-0.808594 a 2.0999999,2.0999999 0 0 0 2.09961,-2.09961 2.0999999,2.0999999 0 0 0 -2.09961,-2.101562 z m -26.015625,0.0098 a 2.0999999,2.0999999 0 0 0 -2.099609,2.099609 2.0999999,2.0999999 0 0 0 2.099609,2.099609 c 2.495914,0 3.48166,0.787409 4.59961,2.398438 1.117949,1.611029 2.019358,4.158069 3.230468,6.908203 1.211111,2.750134 2.801308,5.747188 5.660157,8.048828 2.858848,2.30164 6.910474,3.763672 12.52539,3.763672 a 2.0999999,2.0999999 0 0 0 2.09961,-2.099609 2.0999999,2.0999999 0 0 0 -2.09961,-2.09961 c -4.912814,0 -7.831091,-1.177821 -9.890625,-2.835937 -2.059533,-1.658117 -3.337206,-3.941162 -4.451172,-6.470703 -1.113965,-2.529541 -1.993182,-5.260648 -3.623046,-7.609375 -1.629865,-2.348728 -4.3601,-4.203125 -8.050782,-4.203125 z m -5.453125,13.839843 c -0.13538,-0.0089 -0.271675,-0.0074 -0.40625,0.002 -0.5383,0.0373 -1.059073,0.21371 -1.478515,0.472657 l -9.2714847,5.443359 c -0.8105046,0.43801 -1.68787084,1.266812 -1.71484375,2.523438 -0.0269488,1.255504 0.85387215,2.157308 1.68554695,2.61914 0,0 0.00195,0.002 0.00195,0.002 l 9.2890625,5.453125 c 0,0 0.002,0 0.002,0 0.822742,0.507291 2.015422,0.721046 3.017578,0.16211 1.002767,-0.559277 1.449219,-1.68944 1.449219,-2.658203 v -6.677735 a 1.9,1.9 0 0 0 -1.900391,-1.90039 1.9,1.9 0 0 0 -1.90039,1.90039 v 5.158203 L 5.6047933,33.681155 12.870418,29.41553 a 1.9,1.9 0 0 0 1.455078,0.679688 1.9,1.9 0 0 0 1.900391,-1.900391 c 0,-0.962809 -0.41469,-2.064231 -1.396484,-2.650391 -0.368174,-0.219809 -0.771595,-0.332785 -1.177735,-0.359375 z m 12.574219,2.388672 a 2.0999999,2.0999999 0 0 0 -1.683594,0.857422 c -0.945312,1.287942 -1.537651,2.286924 -2.207031,2.884766 -0.66938,0.597841 -1.428357,1.022807 -3.359375,1.142578 a 2.0999999,2.0999999 0 0 0 -1.966797,2.226562 2.0999999,2.0999999 0 0 0 2.226563,1.964844 c 2.610711,-0.161929 4.563379,-1.012492 5.896484,-2.203125 1.333105,-1.190633 2.033797,-2.491592 2.796875,-3.53125 a 2.0999999,2.0999999 0 0 0 -0.451172,-2.935547 2.0999999,2.0999999 0 0 0 -1.251953,-0.40625 z" fill="#008055"/>
</svg>
