<svg xmlns="http://www.w3.org/2000/svg" width="48" height="48">
	<path d="m 14.576154,1.9267394 c -1.619247,0 -3.190681,0.5310366 -4.332031,1.6308591 -1.1413501,1.099823 -1.7597661,2.714455 -1.7597661,4.458985 V 39.372052 c 0,1.70543 0.371022,3.355923 1.425782,4.660157 1.0547601,1.304233 2.7829141,2.041015 4.6660151,2.041015 a 1.9,1.9 0 0 0 1.898438,-1.90039 1.9,1.9 0 0 0 -1.898438,-1.900391 c -1.031889,0 -1.400913,-0.24314 -1.71289,-0.628906 -0.311978,-0.385767 -0.578125,-1.134714 -0.578125,-2.271485 V 8.0165835 c 0,-0.911271 0.25254,-1.39198 0.595703,-1.722657 0.343162,-0.330677 0.87067,-0.566406 1.695312,-0.566406 h 14.72461 c 1.05029,0 1.503965,0.244322 1.769531,0.517578 0.265565,0.273257 0.501953,0.764862 0.501953,1.771485 v 7.8378905 a 1.90019,1.90019 0 0 0 0.224609,0.896485 l 3.28711,6.144531 c 0.658399,1.327829 0.614281,1.294868 0.632812,2.796875 -3.53e-4,0.03171 -0.0011,0.02308 -0.002,0.04688 -0.03386,0.0021 -0.02616,0.0059 -0.07422,0.0059 -1.010401,0 -2.11183,0.234133 -2.90625,1.054688 -0.794419,0.820555 -0.96875,1.877938 -0.96875,2.765625 v 3.914062 c 0,1.00605 0.20014,2.135675 1.076172,2.94336 0.876033,0.807684 1.914796,0.90039 2.798828,0.90039 0.05105,0 0.03112,0.0026 0.07031,0.0039 0.0015,0.03686 0.0059,0.02413 0.0059,0.07031 v 1.974609 c 0,1.033625 -0.294824,1.77563 -0.669922,2.21875 -0.375097,0.443121 -0.806855,0.681641 -1.599609,0.681641 h -13.1875 a 1.9,1.9 0 0 0 -1.900391,1.900391 1.9,1.9 0 0 0 1.900391,1.90039 h 13.1875 c 1.781666,0 3.433713,-0.767688 4.5,-2.027344 1.066287,-1.259654 1.568359,-2.916152 1.568359,-4.673828 V 37.39748 c 0,-0.873209 -0.09876,-1.91687 -0.904297,-2.789063 -0.805536,-0.872191 -1.942032,-1.085937 -2.970703,-1.085937 -0.07872,0 -0.07969,0.01037 -0.07031,0.01953 -0.0014,-0.01919 -0.0039,-0.01589 -0.0039,-0.0625 v -3.914062 c 0,-0.01253 -1.38e-4,-0.006 0,-0.01758 0.03863,-0.0016 0.02157,-0.0039 0.07422,-0.0039 0.86898,0 1.891311,-0.180893 2.716797,-0.927734 0.825487,-0.746841 1.158203,-1.881722 1.158203,-2.947266 a 1.90019,1.90019 0 0 0 0,-0.02344 c -0.02015,-1.633474 -0.239917,-2.851753 -1.03125,-4.447266 a 1.90019,1.90019 0 0 0 -0.02539,-0.05078 L 35.371076,15.377951 V 8.0166225 c 0,-1.661378 -0.454462,-3.265729 -1.576172,-4.419922 -1.121709,-1.1541942 -2.753571,-1.6699221 -4.49414,-1.6699221 z m 1.898438,5.4218751 a 1.6,1.6 0 0 0 -1.601563,1.599609 v 4.7675785 a 1.6,1.6 0 0 0 1.601563,1.59961 1.6,1.6 0 0 0 1.599609,-1.59961 V 8.9482235 a 1.6,1.6 0 0 0 -1.599609,-1.599609 z m 5.410156,0 a 1.6,1.6 0 0 0 -1.599609,1.599609 v 4.7675785 a 1.6,1.6 0 0 0 1.599609,1.59961 1.6,1.6 0 0 0 1.599609,-1.59961 V 8.9482235 a 1.6,1.6 0 0 0 -1.599609,-1.599609 z m 5.355469,0 a 1.6,1.6 0 0 0 -1.59961,1.599609 v 4.7675785 a 1.6,1.6 0 0 0 1.59961,1.59961 1.6,1.6 0 0 0 1.599609,-1.59961 V 8.9482235 a 1.6,1.6 0 0 0 -1.599609,-1.599609 z" fill="#008055"/>
</svg>
