<svg xmlns="http://www.w3.org/2000/svg" width="48" height="48">
	<path d="m 6.6881248,12.891661 c -0.464015,0.02035 -0.927747,0.138199 -1.359375,0.376953 -1.151008,0.636676 -1.691406,1.943483 -1.691406,3.126953 v 10.302734 c 0,1.104569 0.89543,2 2,2 1.104569,0 2,-0.895431 2,-2 V 17.393614 L 18.994765,24.004942 7.4498438,30.727598 c -0.326894,-0.706505 -1.034035,-1.159136 -1.8125,-1.160156 -1.10457,0 -2,0.895431 -2,2 0,1.177104 0.504339,2.458577 1.632812,3.126953 1.128474,0.668376 2.557868,0.471644 3.580078,-0.154297 l -0.03711,0.02344 12.9492182,-7.542969 c 1.009522,-0.540913 2.023396,-1.513139 2.054688,-2.949219 0.03129,-1.436079 -0.982774,-2.491386 -2.021484,-3.0625 l 0.04297,0.02344 -12.9746112,-7.552739 c -0.502562,-0.307696 -1.098583,-0.52095 -1.71289,-0.576172 -0.153577,-0.0138 -0.308219,-0.0185 -0.462891,-0.01172 z m 20.5449222,0 c -0.464016,0.02035 -0.927747,0.138201 -1.359376,0.376953 -1.151009,0.636671 -1.691406,1.943478 -1.691406,3.126953 v 10.302734 c 0,1.104569 0.89543,2 2,2 1.104569,0 2,-0.895431 2,-2 v -9.304687 l 11.357423,6.611328 -11.54297,6.720703 c -0.327762,-0.706383 -1.035733,-1.158295 -1.814453,-1.158203 -1.10457,0 -2,0.895431 -2,2 0,1.177099 0.504337,2.458574 1.632813,3.126953 1.128475,0.668379 2.557867,0.471639 3.580078,-0.154297 l -0.03711,0.02344 12.951172,-7.542969 c 1.009473,-0.540941 2.021497,-1.515162 2.052735,-2.951172 0.03124,-1.43601 -0.982804,-2.489425 -2.021485,-3.060547 l 0.04297,0.02344 -13.01172,-7.576172 0.03711,0.02344 c -0.502565,-0.307694 -1.098585,-0.520951 -1.712891,-0.576172 -0.153576,-0.0138 -0.308219,-0.0185 -0.46289,-0.01172 z" fill="#008055"/>
</svg>
