<svg xmlns="http://www.w3.org/2000/svg" width="48" height="48">
	<path d="m 11.702551,12.135936 c 0.733818,-0.761109 1.547225,-1.462085 2.438564,-2.091841 7.130713,-5.0380501 16.962939,-3.8707411 22.71554,2.697099 5.752601,6.56784 5.61401,16.46742 -0.31969,22.872119 -5.933699,6.404699 -15.795659,7.297704 -22.782956,2.062567 a 2.1999984,2.2000016 84.928618 0 1 -0.439933,-3.079395 2.1999984,2.2000016 84.928618 0 1 3.079158,-0.442684 c 5.214152,3.90663 12.488758,3.248083 16.916678,-1.531312 4.427919,-4.779395 4.530214,-12.081535 0.237435,-16.982672 -4.29278,-4.901137 -11.547004,-5.7621151 -16.868174,-2.00256 -5.321171,3.759557 -6.9308425,10.882467 -3.745304,16.5659 A 2.1999984,2.2000016 84.928618 0 1 12.089705,33.199422 2.1999984,2.2000016 84.928618 0 1 9.0946923,32.353765 C 5.3594681,25.689618 6.5658269,17.463696 11.702551,12.135936 Z" fill="#008055"/>
</svg>
