<svg xmlns="http://www.w3.org/2000/svg" width="48" height="48">
	<path d="M 24 5.625 C 17.577476 5.625 12.331917 7.3721418 7.8769531 10.146484 A 1.60016 1.60016 0 0 0 7.8066406 10.193359 C 5.1952502 12.019691 3.6016462 13.772662 3.0214844 15.794922 C 2.4413226 17.817182 3.0655945 19.8031 4.1074219 21.576172 C 4.5353365 22.304438 5.2910871 22.712053 5.9492188 22.863281 C 6.6073503 23.01451 7.2349439 22.990998 7.8730469 22.902344 C 9.1492529 22.725035 10.488964 22.255559 11.777344 21.658203 C 13.065723 21.060847 14.278668 20.339463 15.232422 19.552734 C 15.709299 19.15937 16.126565 18.756939 16.464844 18.251953 C 16.803122 17.746967 17.142515 17.023362 16.908203 16.134766 A 1.60016 1.60016 0 0 0 16.890625 16.074219 C 16.716331 15.505877 16.444268 15.033142 16.134766 14.574219 C 18.617279 13.328092 21.617601 12.507812 24 12.507812 C 26.382399 12.507812 29.382726 13.328094 31.865234 14.574219 C 31.555734 15.033141 31.283669 15.505877 31.109375 16.074219 A 1.60016 1.60016 0 0 0 31.091797 16.134766 C 30.857485 17.023362 31.196878 17.746967 31.535156 18.251953 C 31.873434 18.756939 32.290701 19.15937 32.767578 19.552734 C 33.721332 20.339463 34.934277 21.060847 36.222656 21.658203 C 37.511035 22.25556 38.850747 22.725035 40.126953 22.902344 C 40.765056 22.990998 41.39265 23.01451 42.050781 22.863281 C 42.708913 22.712053 43.464662 22.304436 43.892578 21.576172 C 44.934399 19.803101 45.558677 17.817182 44.978516 15.794922 C 44.398354 13.772662 42.804755 12.019691 40.193359 10.193359 A 1.60016 1.60016 0 0 0 40.123047 10.146484 C 35.668092 7.3721407 30.422534 5.625 24 5.625 z M 24 8.8242188 C 29.830147 8.8242188 34.375482 10.350848 38.384766 12.837891 C 40.670552 14.442642 41.629751 15.727563 41.902344 16.677734 C 42.160266 17.576768 41.936512 18.477541 41.228516 19.744141 C 41.106699 19.760342 40.901516 19.77898 40.566406 19.732422 C 39.789425 19.624473 38.647393 19.2542 37.568359 18.753906 C 36.489326 18.253613 35.448459 17.618581 34.802734 17.085938 C 34.593672 16.913487 34.517198 16.809141 34.408203 16.6875 C 34.600159 16.223366 34.751206 15.942938 35.560547 15.128906 A 1.60016 1.60016 0 0 0 35.34375 12.689453 C 31.98927 10.344765 27.566101 9.3085938 24 9.3085938 C 20.433899 9.3085938 16.010737 10.344768 12.65625 12.689453 A 1.60016 1.60016 0 0 0 12.439453 15.128906 C 13.248801 15.942937 13.399842 16.223367 13.591797 16.6875 C 13.482801 16.809141 13.406328 16.913487 13.197266 17.085938 C 12.55154 17.618581 11.510675 18.253613 10.431641 18.753906 C 9.3526059 19.2542 8.2105749 19.624473 7.4335938 19.732422 C 7.0984841 19.77898 6.8933002 19.760342 6.7714844 19.744141 C 6.0634849 18.477542 5.8397344 17.576768 6.0976562 16.677734 C 6.3702488 15.727563 7.329452 14.442642 9.6152344 12.837891 C 13.624529 10.350847 18.169864 8.8242188 24 8.8242188 z M 24.261719 19.087891 C 21.155005 19.004478 18.090164 20.571296 16.421875 23.429688 C 14.074566 27.451488 15.373979 32.567861 19.212891 35.111328 A 1.6999924 1.7000076 84.976779 0 0 19.529297 35.396484 C 19.537447 35.401316 19.54261 35.409254 19.550781 35.414062 A 1.6999924 1.7000076 84.976779 0 0 19.615234 35.451172 A 1.6999924 1.7000076 84.976779 0 0 19.658203 35.476562 C 19.663234 35.479426 19.668794 35.479569 19.673828 35.482422 A 1.6999924 1.7000076 84.976779 0 0 20.087891 35.619141 A 1.6999924 1.7000076 84.976779 0 0 20.095703 35.621094 C 24.211952 37.678132 29.292085 36.256821 31.609375 32.220703 C 34.006308 28.045869 32.562792 22.669572 28.396484 20.257812 C 27.094513 19.504138 25.673861 19.125805 24.261719 19.087891 z M 24.150391 22.470703 C 25.014157 22.497082 25.88719 22.734503 26.693359 23.201172 C 29.273103 24.694513 30.144314 27.942327 28.660156 30.527344 C 27.175999 33.11236 23.930156 33.99837 21.339844 32.523438 A 1.6999924 1.7000076 84.976779 0 0 21.306641 32.503906 A 1.6999924 1.7000076 84.976779 0 0 21.300781 32.501953 A 1.6999924 1.7000076 84.976779 0 0 21.273438 32.484375 C 18.704396 30.9727 17.854894 27.71696 19.357422 25.142578 C 20.39041 23.372691 22.250104 22.412671 24.150391 22.470703 z M 36.339844 23.730469 A 1.8 1.8 0 0 0 34.875 24.466797 A 1.8 1.8 0 0 0 35.261719 26.982422 C 36.165621 27.646188 37.716554 29.162877 38.929688 30.931641 C 40.14282 32.700404 41.005859 34.727809 41.005859 36.384766 C 41.005859 37.230321 40.761073 37.782318 40.410156 38.146484 C 40.059239 38.51065 39.550406 38.775391 38.617188 38.775391 L 9.9960938 38.775391 C 8.8443344 38.775391 8.0720351 38.505346 7.6621094 38.173828 C 7.2521837 37.84231 6.9941406 37.439065 6.9941406 36.384766 C 6.9941406 34.836691 7.8806463 32.852781 9.140625 31.078125 C 10.400604 29.303469 11.981404 27.741034 12.970703 26.910156 A 1.8 1.8 0 0 0 13.191406 24.375 A 1.8 1.8 0 0 0 11.804688 23.732422 A 1.8 1.8 0 0 0 10.65625 24.154297 C 9.4300494 25.18414 7.7007494 26.887516 6.2050781 28.994141 C 4.7094069 31.100765 3.3945312 33.613341 3.3945312 36.384766 C 3.3945312 38.245456 4.1164251 39.937437 5.3964844 40.972656 C 6.6765437 42.007876 8.3056129 42.375 9.9960938 42.375 L 38.617188 42.375 C 40.339799 42.375 41.924321 41.764878 43.003906 40.644531 C 44.083492 39.524185 44.605469 37.9831 44.605469 36.384766 C 44.605469 33.591292 43.358839 31.023813 41.898438 28.894531 C 40.438035 26.76525 38.752836 25.078962 37.392578 24.080078 A 1.8 1.8 0 0 0 36.339844 23.730469 z " fill="#008055"/>
</svg>
