<svg xmlns="http://www.w3.org/2000/svg" width="48" height="48">
	<path d="m 16.019531,2.0263669 c -1.598336,0 -3.13942,0.5239333 -4.259765,1.6035156 -1.120345,1.0795823 -1.730469,2.6641174 -1.730469,4.3867188 V 39.37207 c 0,1.690465 0.36713,3.317593 1.402344,4.597656 1.035213,1.280064 2.72719,2.003907 4.58789,2.003907 a 1.8,1.8 0 0 0 1.800781,-1.800782 1.8,1.8 0 0 0 -1.800781,-1.798828 c -1.054289,0 -1.457538,-0.258032 -1.789062,-0.667968 -0.331525,-0.409937 -0.601563,-1.182249 -0.601563,-2.333985 V 8.0166013 c 0,-0.9331986 0.264739,-1.4440042 0.628906,-1.7949219 0.364168,-0.3509177 0.916166,-0.59375 1.761719,-0.59375 h 15.982422 c 1.068456,0 1.551748,0.2504361 1.839844,0.546875 0.288095,0.2964389 0.529297,0.8179438 0.529297,1.8417969 V 39.37207 c 0,1.052679 -0.300085,1.820576 -0.69336,2.285156 -0.393275,0.464581 -0.856979,0.716797 -1.675781,0.716797 H 21.705078 a 1.8,1.8 0 0 0 -1.800781,1.798828 1.8,1.8 0 0 0 1.800781,1.800782 h 10.296875 c 1.755618,0 3.375718,-0.754043 4.423828,-1.992188 1.04811,-1.238145 1.544922,-2.870754 1.544922,-4.609375 V 8.0166013 c 0,-1.6441469 -0.447696,-3.2185983 -1.546875,-4.3496094 -1.099179,-1.1310111 -2.699471,-1.640625 -4.421875,-1.640625 z m 3.380859,6.3632812 c -0.729868,0 -1.569259,0.1783798 -2.261718,0.78125 -0.692459,0.6028705 -1.0625,1.5794039 -1.0625,2.5468749 v 9.125 c 0,0.852706 0.335102,1.715951 0.958984,2.316406 0.623882,0.600456 1.492586,0.908204 2.365234,0.908204 A 1.6,1.6 0 0 0 21,22.467773 1.6,1.6 0 0 0 19.40039,20.866211 c -0.150377,0 -0.138017,-0.01679 -0.125,-0.0098 -2.6e-5,-0.0072 0,-0.0012 0,-0.01367 v -9.125 c 0,-0.08687 0.0021,-0.08605 0.0039,-0.115234 0.03073,-0.0056 0.05339,-0.01367 0.121093,-0.01367 h 9.373047 c 0.0048,0.03957 0.0098,0.04777 0.0098,0.128906 v 9.125 c 0,0.01555 0.0045,0.01542 0.0059,0.02734 -0.0042,-2.92e-4 -0.0031,-0.0039 -0.0078,-0.0039 h -4.996094 a 1.6,1.6 0 0 0 -1.599609,1.601562 1.6,1.6 0 0 0 1.599609,1.59961 h 4.996094 c 1.665107,0 3.201172,-1.503834 3.201172,-3.22461 v -9.125 C 31.982436,10.866195 31.747981,9.9748632 31.11914,9.3154294 30.490301,8.6559956 29.587576,8.3896481 28.78125,8.3896481 Z m 4.798829,17.6484379 c -2.540215,-0.06299 -5.045052,1.224063 -6.402344,3.564453 -1.892949,3.264029 -0.838959,7.393386 2.242187,9.480469 a 1.4999918,1.5000082 85.009543 0 0 0.339844,0.302734 c 0.0035,0.0021 0.0043,0.0058 0.0078,0.0078 a 1.4999918,1.5000082 85.009543 0 0 0.04297,0.02344 1.4999918,1.5000082 85.009543 0 0 0.02344,0.01367 1.4999918,1.5000082 85.009543 0 0 0.0059,0.002 1.4999918,1.5000082 85.009543 0 0 0.4375,0.142578 c 3.350317,1.62001 7.45049,0.46339 9.326172,-2.810547 1.956254,-3.414573 0.766857,-7.812112 -2.642578,-9.777343 -1.065449,-0.614135 -2.226217,-0.920588 -3.380859,-0.949219 z m -0.492188,2.992187 c 0.798574,-0.05442 1.62426,0.122781 2.376953,0.556641 2.007183,1.156959 2.686828,3.675345 1.535156,5.685547 -1.151671,2.010201 -3.66838,2.697135 -5.68164,1.550781 a 1.4999918,1.5000082 85.009543 0 0 -0.02344,-0.01172 1.4999918,1.5000082 85.009543 0 0 -0.01563,-0.0098 c -2.001051,-1.167534 -2.66812,-3.691215 -1.505859,-5.695313 0.726414,-1.25256 1.983497,-1.98547 3.314453,-2.076172 z M 24,31.194336 A 2.0417969,2.0417969 0 0 0 21.958984,33.235351 2.0417969,2.0417969 0 0 0 24,35.27832 2.0417969,2.0417969 0 0 0 26.042969,33.235351 2.0417969,2.0417969 0 0 0 24,31.194336 Z" fill="#008055"/>
</svg>
