<svg xmlns="http://www.w3.org/2000/svg" width="48" height="48">
	<path d="M 7.6582031 1.9765625 C 6.1063763 1.9765625 4.5893977 2.4014541 3.4941406 3.4667969 C 2.3988836 4.5321396 1.9140625 6.0785994 1.9140625 7.7050781 L 1.9140625 25.652344 C 1.9140625 27.171595 2.4123717 28.655353 3.453125 29.736328 C 4.4938783 30.817303 6.0226341 31.400391 7.6582031 31.400391 L 13.101562 31.400391 A 1.9 1.9 0 0 0 15 29.501953 A 1.9 1.9 0 0 0 13.101562 27.601562 L 7.6582031 27.601562 C 6.8565922 27.601562 6.463373 27.38404 6.1914062 27.101562 C 5.9194395 26.819085 5.7148438 26.377682 5.7148438 25.652344 L 5.7148438 7.7050781 C 5.7148438 6.7682969 5.9279077 6.4002136 6.1425781 6.1914062 C 6.3572486 5.982599 6.7617 5.7753906 7.6582031 5.7753906 L 25.482422 5.7753906 C 26.400825 5.7753906 27.044874 6.0374169 27.417969 6.3535156 C 27.791064 6.6696143 27.988281 7.0168557 27.988281 7.7050781 L 27.988281 12.761719 A 1.9 1.9 0 0 0 29.888672 14.662109 A 1.9 1.9 0 0 0 31.789062 12.761719 L 31.789062 7.7050781 C 31.789062 6.0288206 31.064455 4.4628244 29.875 3.4550781 C 28.685545 2.4473318 27.125499 1.9765625 25.482422 1.9765625 L 7.6582031 1.9765625 z M 22.410156 16.150391 C 20.890899 16.150391 19.407148 16.648697 18.326172 17.689453 C 17.245196 18.730209 16.660156 20.258962 16.660156 21.894531 L 16.660156 39.71875 C 16.660156 41.307427 17.004608 42.859167 18.003906 44.09375 C 19.003204 45.328333 20.646283 46.023438 22.410156 46.023438 A 1.9 1.9 0 0 0 24.308594 44.125 A 1.9 1.9 0 0 0 22.410156 42.224609 C 21.496749 42.224609 21.213018 42.019384 20.957031 41.703125 C 20.701044 41.386866 20.460938 40.738283 20.460938 39.71875 L 20.460938 21.894531 C 20.460938 21.09292 20.678458 20.69775 20.960938 20.425781 C 21.243417 20.153812 21.684814 19.949219 22.410156 19.949219 L 40.355469 19.949219 C 41.292248 19.949219 41.660334 20.164235 41.869141 20.378906 C 42.077947 20.593577 42.285156 20.998032 42.285156 21.894531 L 42.285156 39.71875 C 42.285156 40.637153 42.023128 41.281204 41.707031 41.654297 C 41.390934 42.027389 41.043687 42.224609 40.355469 42.224609 L 28.011719 42.224609 A 1.9 1.9 0 0 0 26.113281 44.125 A 1.9 1.9 0 0 0 28.011719 46.023438 L 40.355469 46.023438 C 42.031721 46.023438 43.599676 45.298827 44.607422 44.109375 C 45.615167 42.919923 46.085938 41.361827 46.085938 39.71875 L 46.085938 21.894531 C 46.085938 20.342711 45.659089 18.823775 44.59375 17.728516 C 43.528411 16.633257 41.98195 16.150391 40.355469 16.150391 L 22.410156 16.150391 z " fill="#008055"/>
</svg>
