<svg xmlns="http://www.w3.org/2000/svg" width="48" height="48">
	<path d="M 36.542464,16.421875 A 2.20022,2.20022 0 0 0 36.099105,15.146484 L 25.755355,1.4765628 a 2.20022,2.20022 0 0 0 -3.509766,0 L 11.901839,15.146484 a 2.20022,2.20022 0 0 0 1.490235,3.511719 c 2.077163,0.250543 3.959201,1.924108 4.617187,2.712891 a 2.2,2.2 0 0 0 3.09961,0.28125 2.2,2.2 0 0 0 0.279296,-3.09961 c -0.763531,-0.91531 -2.177507,-2.252837 -4.11914,-3.208984 l 6.730469,-8.8925778 6.730468,8.8925778 c -1.940771,0.956128 -3.353896,2.293963 -4.117187,3.208984 a 2.2,2.2 0 0 0 0.279297,3.09961 2.2,2.2 0 0 0 3.099609,-0.28125 c 0.658037,-0.788845 2.538078,-2.462349 4.615234,-2.712891 a 2.20022,2.20022 0 0 0 1.935547,-2.236328 z m 0,15.033203 A 2.20022,2.20022 0 0 0 34.606917,29.34375 C 32.529761,29.093208 30.64972,27.417751 29.991683,26.628906 a 2.2,2.2 0 0 0 -3.099609,-0.279297 2.2,2.2 0 0 0 -0.279297,3.097657 c 0.763291,0.915021 2.176416,2.252856 4.117187,3.208984 l -6.730468,8.894531 -6.730469,-8.894531 c 1.941633,-0.956147 3.355609,-2.293674 4.11914,-3.208984 a 2.2,2.2 0 0 0 -0.279296,-3.097657 2.2,2.2 0 0 0 -3.09961,0.279297 c -0.657986,0.788783 -2.540024,2.464301 -4.617187,2.714844 a 2.20022,2.20022 0 0 0 -1.490235,3.511719 l 10.34375,13.667968 a 2.20022,2.20022 0 0 0 3.509766,0 l 10.34375,-13.667968 a 2.20022,2.20022 0 0 0 0.443359,-1.400391 z" fill="#008055"/>
</svg>
