<svg xmlns="http://www.w3.org/2000/svg" width="48" height="48">
	<path d="M 40.831975,19.163424 A 2.20022,2.20022 0 0 0 40.386663,17.813815 L 30.042912,4.1438923 a 2.20022,2.20022 0 0 0 -3.507813,0 L 16.191349,17.813815 a 2.20022,2.20022 0 0 0 1.490234,3.511719 c 2.077281,0.250548 3.959151,1.924046 4.617188,2.71289 a 2.2,2.2 0 0 0 3.097656,0.28125 2.2,2.2 0 0 0 0.28125,-3.099609 c -0.763426,-0.915183 -2.177786,-2.252835 -4.11914,-3.208984 l 6.730468,-8.8925787 6.804688,8.9902347 c -4.810645,2.063519 -9.00586,6.409684 -9.00586,12.595703 0,2.86628 -0.932844,4.959231 -3.417968,6.677734 -2.485124,1.718503 -6.776666,2.945313 -13.300782,2.945313 a 2.2,2.2 0 0 0 -2.201171,2.199219 2.2,2.2 0 0 0 2.201171,2.201171 c 7.058785,0 12.225237,-1.251315 15.804688,-3.726562 3.579451,-2.475247 5.314453,-6.291355 5.314453,-10.296875 0,-5.065898 4.322576,-8.546701 8.580079,-9.408203 a 2.20022,2.20022 0 0 0 1.763672,-2.132813 z" fill="#008055"/>
</svg>
