<svg xmlns="http://www.w3.org/2000/svg" width="48" height="48">
	<path d="M 24.416991,1.3079616 C 23.19982,1.288393 21.94333,1.6845652 20.961913,2.5774928 19.980496,3.4704204 19.36621,4.8664113 19.36621,6.4251491 V 18.046243 c 0,0.29377 0.03673,0.420053 -0.410156,0.53125 a 1.80018,1.80018 0 0 0 -0.04297,0.01172 l -6.910156,1.904297 a 1.80018,1.80018 0 0 0 -0.07227,0.02148 c -1.412491,0.453499 -2.5979784,1.060153 -3.4472606,2.070316 -0.8492822,1.010162 -1.1835938,2.324551 -1.1835938,3.615234 v 3.275391 c 0,1.097902 0.336308,2.269847 1.2148438,2.986328 0.8785357,0.71648 1.8487156,0.787109 2.6621096,0.787109 h 25.800781 c 0.881519,0 1.900261,-0.20003 2.679688,-0.953125 0.779426,-0.753095 1.042968,-1.820705 1.042968,-2.820312 a 1.80018,1.80018 0 0 0 0,-0.0059 l -0.01172,-3.269491 c 0,-1.160038 -0.197197,-2.354346 -0.871094,-3.410156 -0.673898,-1.055811 -1.789354,-1.830407 -3.125,-2.265625 a 1.80018,1.80018 0 0 0 -0.0293,-0.0098 l -7.072266,-2.173828 a 1.8,1.8 0 0 0 -2.25,1.193359 1.8,1.8 0 0 0 1.19336,2.248047 l 7.046875,2.166016 c 0.763632,0.249833 1.026418,0.500493 1.203125,0.777344 0.177242,0.277689 0.304687,0.722447 0.304687,1.474609 a 1.80018,1.80018 0 0 0 0,0.0059 l 0.0098,3.269532 c 0,0.110965 -0.0067,0.113783 -0.01172,0.166015 -0.04218,0.0033 -0.03619,0.0078 -0.109375,0.0078 H 11.176757 c -0.15176,0 -0.199976,-0.01457 -0.275391,-0.02539 -0.0023,-0.05359 -0.002,-0.03653 -0.002,-0.148437 V 26.20054 c 0,-0.762117 0.117983,-1.034941 0.339844,-1.298828 0.221095,-0.262977 0.728985,-0.614672 1.785156,-0.955078 l 6.800781,-1.875 c 1.99579,-0.496603 3.140625,-2.37016 3.140625,-4.025391 V 6.4251491 c 0,-0.7046123 0.191145,-0.9791745 0.417969,-1.1855469 0.226824,-0.2063724 0.580793,-0.3383627 0.974609,-0.3320313 0.393816,0.00633 0.778914,0.1559174 1.025391,0.3828126 0.246477,0.226895 0.425781,0.5024389 0.425781,1.1347656 v 9.5722659 a 1.8,1.8 0 0 0 1.800781,1.800781 1.8,1.8 0 0 0 1.798829,-1.800781 V 6.4251491 c 0,-1.5274233 -0.626127,-2.8978481 -1.587891,-3.7832032 C 26.859524,1.7565911 25.634163,1.3275302 24.416991,1.3079616 Z M 10.477538,34.628274 a 1.7,1.7 0 0 0 -1.7011719,1.699219 v 8.666016 a 1.7,1.7 0 0 0 1.7011719,1.699219 1.7,1.7 0 0 0 1.699219,-1.699219 v -8.666016 a 1.7,1.7 0 0 0 -1.699219,-1.699219 z m 6.763672,0 a 1.7,1.7 0 0 0 -1.701172,1.699219 v 8.666016 a 1.7,1.7 0 0 0 1.701172,1.699219 1.7,1.7 0 0 0 1.699219,-1.699219 V 36.327493 A 1.7,1.7 0 0 0 17.24121,34.628274 Z m 6.763672,0 a 1.7,1.7 0 0 0 -1.699219,1.699219 v 8.666016 a 1.7,1.7 0 0 0 1.699219,1.699219 1.7,1.7 0 0 0 1.699218,-1.699219 v -8.666016 a 1.7,1.7 0 0 0 -1.699218,-1.699219 z m 6.763672,0 a 1.7,1.7 0 0 0 -1.699219,1.699219 v 8.666016 a 1.7,1.7 0 0 0 1.699219,1.699219 1.7,1.7 0 0 0 1.701172,-1.699219 v -8.666016 a 1.7,1.7 0 0 0 -1.701172,-1.699219 z m 6.763672,0 a 1.7,1.7 0 0 0 -1.699219,1.699219 v 8.666016 a 1.7,1.7 0 0 0 1.699219,1.699219 1.7,1.7 0 0 0 1.701171,-1.699219 v -8.666016 a 1.7,1.7 0 0 0 -1.701171,-1.699219 z" fill="#008055"/>
</svg>
