<svg xmlns="http://www.w3.org/2000/svg" width="48" height="48">
	<path d="m 13.02832,10.846786 a 2.2,2.2 0 0 0 -1.537109,0.644532 2.2,2.2 0 0 0 0,3.111328 l 9.396484,9.398437 -9.396484,9.396485 a 2.2,2.2 0 0 0 0,3.111328 2.2,2.2 0 0 0 3.111328,0 l 9.398437,-9.398438 9.396485,9.398438 a 2.2,2.2 0 0 0 3.111328,0 2.2,2.2 0 0 0 0,-3.111328 l -9.398438,-9.396485 9.398438,-9.398437 a 2.2,2.2 0 0 0 0,-3.111328 2.2,2.2 0 0 0 -1.574219,-0.644532 2.2,2.2 0 0 0 -1.537109,0.644532 l -9.396485,9.396484 -9.398437,-9.396484 A 2.2,2.2 0 0 0 13.02832,10.846786 Z" fill="#008055"/>
</svg>
