<svg xmlns="http://www.w3.org/2000/svg" width="48" height="48">
	<path d="M 28.819336,0.90234314 A 1.9,1.9 0 0 0 26.920899,2.8027338 V 30.781249 a 1.9,1.9 0 0 0 1.898437,1.900391 1.9,1.9 0 0 0 1.900391,-1.900391 V 2.8027338 A 1.9,1.9 0 0 0 28.819336,0.90234314 Z M 12.711914,2.7480463 c -1.744539,0 -3.3591543,0.6203675 -4.4589843,1.7617187 -1.09983,1.1413512 -1.6308593,2.7108301 -1.6308593,4.3300781 V 40.990234 c 0,1.740576 0.5157232,3.372438 1.6699218,4.494141 1.1532809,1.120809 2.7560618,1.57545 4.4160158,1.576171 l 21.964844,0.03711 a 1.90019,1.90019 0 0 0 0.0039,0 c 1.646034,0 3.256235,-0.46873 4.527344,-1.5 1.271109,-1.031271 2.117262,-2.670392 2.171875,-4.513672 a 1.90019,1.90019 0 0 0 0.002,-0.05664 V 8.8398431 c 0,-1.8830898 -0.736786,-3.611249 -2.041016,-4.6660156 C 38.032727,3.119061 36.382245,2.7480463 34.676799,2.7480463 a 1.9,1.9 0 0 0 -1.90039,1.9003906 1.9,1.9 0 0 0 1.90039,1.9003906 c 1.136795,0 1.885729,0.2681072 2.271485,0.5800782 0.385755,0.3119709 0.628906,0.6790375 0.628906,1.7109374 V 40.972656 c -0.02515,0.84876 -0.298353,1.293138 -0.767578,1.673828 -0.468833,0.380371 -1.216796,0.651892 -2.13086,0.652344 l -21.96289,-0.03906 a 1.90019,1.90019 0 0 0 -0.0039,0 c -1.006611,0 -1.498222,-0.234432 -1.771484,-0.5 -0.273309,-0.265571 -0.517626,-0.719251 -0.517626,-1.769534 V 8.8398431 c 0,-0.8246517 0.235731,-1.3502005 0.566406,-1.6933593 0.330675,-0.3431588 0.811358,-0.5976563 1.722656,-0.5976563 H 22.776368 A 1.9,1.9 0 0 0 24.674805,4.6484369 1.9,1.9 0 0 0 22.776368,2.7480463 Z" fill="#008055"/>
</svg>
