<svg xmlns="http://www.w3.org/2000/svg" width="48" height="48">
	<path d="m 37.508449,1.2325393 c -1.089938,0.13527 -2.177221,0.485628 -3.201172,1.076172 a 1.90019,1.90019 0 0 0 -0.0625,0.03711 c -2.934347,1.844961 -4.480854,5.099067 -4.070313,8.4003907 a 1.90019,1.90019 0 0 0 0.002,0.0059 c 0.049,0.384036 0.13091,0.517841 -0.40625,0.785157 a 1.90019,1.90019 0 0 0 -0.03711,0.01953 L 16.490917,18.504064 C 15.96955,18.75681 16.025124,18.67361 15.713573,18.341955 l 0.03711,0.04102 C 13.60961,15.968374 10.264962,14.965783 7.0025888,15.830195 a 1.90019,1.90019 0 0 0 -0.068359,0.01953 c -4.5182366,1.3836 -6.91238216,6.11108 -5.7597657,10.371093 0.8424225,3.193837 3.9512031,6.485291 8.5722657,6.328125 a 1.90019,1.90019 0 0 0 0.085937,-0.0059 c 2.9575792,-0.234731 5.0988722,-1.667331 6.3164072,-3.261719 a 1.90019,1.90019 0 0 0 0.002,-0.002 c 0.106033,-0.139321 0.465704,-0.05151 0.357422,-0.123047 a 1.90019,1.90019 0 0 0 0.130859,0.08008 l 13.169922,7.244141 c 3.24e-4,1.86e-4 0.0016,-1.86e-4 0.002,0 0.163524,0.09394 0.420663,0.218281 0.318359,1.039063 a 1.90019,1.90019 0 0 0 -0.0079,0.0704 c -0.276423,3.186638 1.270582,6.28005 4.105469,8.0625 a 1.90019,1.90019 0 0 0 0.0625,0.03906 c 4.094056,2.361167 9.1847,0.886435 11.513672,-2.863281 1.760493,-2.794455 2.045185,-7.312095 -1.220704,-10.583984 a 1.90019,1.90019 0 0 0 -0.0625,-0.05859 c -3.251494,-2.975532 -7.042101,-2.751334 -9.230468,-1.693359 a 1.9,1.9 0 0 0 -0.882813,2.537109 1.9,1.9 0 0 0 2.537109,0.882813 c 0.931194,-0.45019 2.848132,-0.866419 4.970704,1.046875 1.923952,1.955073 1.563912,4.437862 0.671875,5.849609 a 1.90019,1.90019 0 0 0 -0.0098,0.01367 c -1.241637,2.002141 -4.044974,2.891593 -6.349609,1.589844 -1.732391,-1.102506 -2.479143,-2.663126 -2.320313,-4.494141 l -0.0078,0.07031 c 0.262193,-2.10359 -0.745606,-3.967001 -2.195313,-4.800782 a 1.90019,1.90019 0 0 0 -0.03125,-0.01758 l -13.201172,-7.263672 0.13086,0.08008 c -1.739623,-1.14934 -4.103996,-0.811291 -5.476563,0.992188 -0.628896,0.822709 -1.641488,1.600919 -3.5507815,1.765625 -2.7371518,0.06985 -4.3048116,-1.882452 -4.7285156,-3.496094 a 1.90019,1.90019 0 0 0 -0.00586,-0.01563 c -0.6175937,-2.273854 0.6453652,-4.933258 3.1699219,-5.730469 2.0035062,-0.519144 3.6633962,0.01172 4.8964842,1.402344 a 1.90019,1.90019 0 0 0 0.03711,0.03906 c 1.145729,1.219658 3.323843,1.893794 5.214844,0.974609 a 1.90019,1.90019 0 0 0 0.05078,-0.02539 L 31.463503,14.93956 c 1.951186,-0.971002 2.680371,-3.095205 2.482422,-4.664062 v -0.0059 c -0.236094,-1.9149267 0.508247,-3.5434317 2.300781,-4.6835937 2.30432,-1.30037 5.108283,-0.409855 6.349609,1.591797 a 1.90019,1.90019 0 0 0 0.0078,0.01367 c 0.891653,1.411128 1.251194,3.8910207 -0.669922,5.8457037 -2.123854,1.916602 -4.041013,1.499237 -4.972656,1.048828 a 1.9,1.9 0 0 0 -2.53711,0.884765 1.9,1.9 0 0 0 0.882813,2.53711 c 2.188364,1.05798 5.980918,1.28217 9.232422,-1.69336 a 1.90019,1.90019 0 0 0 0.0625,-0.05859 c 3.265878,-3.271892 2.979263,-7.7914777 1.21875,-10.5859377 -1.746473,-2.81189 -5.044549,-4.34307999 -8.3125,-3.9375 z" fill="#008055"/>
</svg>
