<svg xmlns="http://www.w3.org/2000/svg" width="48" height="48">
	<path d="m 8.6269499,6.0488288 c -1.72041,0 -3.39621,0.3729522 -4.72461,1.4472652 -1.3284,1.074314 -2.076172,2.836698 -2.076172,4.742188 v 19.541016 c 0,1.80767 0.781375,3.491686 2.0625,4.576171 1.281125,1.084486 2.961556,1.59375 4.738282,1.59375 H 21.255856 v 1.708985 c 0,1.03212 -0.238203,1.454227 -0.488282,1.697265 -0.250078,0.243039 -0.711785,0.472657 -1.701171,0.472657 H 10.9082 a 2,2 0 0 0 -2.0000001,2 2,2 0 0 0 2.0000001,2 h 8.158203 c 1.678604,0 3.310902,-0.461233 4.488281,-1.605469 1.177379,-1.144236 1.701172,-2.805713 1.701172,-4.564453 v -3.708985 a 2.0002,2.0002 0 0 0 -2,-2 H 8.6269499 c -1.014565,0 -1.732685,-0.289585 -2.154297,-0.646484 -0.421613,-0.356899 -0.646485,-0.75669 -0.646485,-1.523437 V 12.238282 c 0,-1.0095 0.230212,-1.340389 0.591797,-1.632813 0.361585,-0.292423 1.087153,-0.55664 2.208985,-0.55664 H 39.982418 c 0.889363,0 1.339956,0.24425 1.650391,0.566406 0.310435,0.322156 0.539062,0.819312 0.539062,1.623047 v 19.541016 c 0,1.032119 -0.238202,1.454226 -0.488281,1.697265 -0.250078,0.243039 -0.711786,0.472656 -1.701172,0.472656 H 28.71484 a 2,2 0 0 0 -2,2 2,2 0 0 0 2,2 h 11.267578 c 1.678604,0 3.312856,-0.461232 4.490235,-1.605468 1.177379,-1.144237 1.699218,-2.805715 1.699218,-4.564453 V 12.238282 c 0,-1.640155 -0.538135,-3.236081 -1.658203,-4.398438 C 43.393601,6.677488 41.748885,6.0488288 39.982418,6.0488288 Z M 23.824215,11.039063 c -1.375189,0.09818 -2.682074,0.886524 -3.421875,2.21875 -1.105961,1.991603 -0.531714,4.518904 1.199219,5.882813 a 1.4374439,1.3635414 85.007029 0 0 0.324219,0.310546 c 0.0028,0.0018 0.003,0.0041 0.0059,0.0059 a 1.4374439,1.3635414 85.007029 0 0 0.02734,0.01563 1.4374439,1.3635414 85.007029 0 0 0.03516,0.02344 c 0.0044,0.0026 0.0093,0.0013 0.01367,0.0039 a 1.4374439,1.3635414 85.007029 0 0 0.398437,0.138671 c 1.982149,0.918189 4.344884,0.190807 5.4375,-1.814453 1.167029,-2.141826 0.461814,-4.935255 -1.580078,-6.185547 -0.765709,-0.468859 -1.614339,-0.658519 -2.439453,-0.599609 z m 0.193359,2.855469 c 0.300216,-0.02018 0.609694,0.05139 0.892579,0.224609 0.754359,0.46191 1.008747,1.442409 0.564453,2.257813 -0.444294,0.815404 -1.388493,1.080369 -2.146485,0.625 a 1.4374439,1.3635414 85.007029 0 0 -0.0098,-0.0078 1.4374439,1.3635414 85.007029 0 0 -0.01172,-0.0059 c -0.750679,-0.468418 -0.997547,-1.452105 -0.546875,-2.263672 0.28167,-0.507229 0.757454,-0.796436 1.257812,-0.830078 z m -0.185546,6.728516 c -1.670694,0 -3.303447,0.384807 -4.587891,1.402343 -1.284444,1.017536 -2.07284,2.69398 -2.064453,4.646485 v 2.242187 c 0,0.974637 0.376926,1.962864 1.095703,2.576172 0.718777,0.613308 1.609887,0.810547 2.453125,0.810547 a 1.5,1.5 0 0 0 1.5,-1.5 1.5,1.5 0 0 0 -1.5,-1.5 c -0.369582,0 -0.503502,-0.09174 -0.505859,-0.09375 -0.0024,-0.002 -0.04297,0.04475 -0.04297,-0.292969 v -2.25 a 1.50015,1.50015 0 0 0 0,-0.0059 c -0.0053,-1.227616 0.349271,-1.822991 0.927734,-2.28125 0.578464,-0.458259 1.528914,-0.753906 2.72461,-0.753906 1.331522,0 2.377313,0.317372 3.005859,0.794921 0.628546,0.47755 0.980469,1.066465 0.980469,2.246094 v 2.25 c 0,0.252849 -0.06504,0.331559 -0.07617,0.34375 -0.01114,0.01219 0.0087,0.04297 -0.210938,0.04297 H 24.40234 a 1.5,1.5 0 0 0 -1.5,1.5 1.5,1.5 0 0 0 1.5,1.5 h 3.128906 c 0.913664,0 1.826501,-0.36338 2.425782,-1.019531 0.59928,-0.656151 0.861328,-1.519767 0.861328,-2.367188 v -2.25 c 0,-1.938431 -0.831714,-3.621005 -2.166016,-4.634765 -1.334302,-1.013761 -3.032425,-1.40625 -4.820312,-1.40625 z m 4.240234,21.205078 a 2,2 0 0 0 -2,2 2,2 0 0 0 2,2 h 7.140625 a 2,2 0 0 0 2,-2 2,2 0 0 0 -2,-2 z" fill="#008055"/>
</svg>
