<svg xmlns="http://www.w3.org/2000/svg" width="48" height="48">
	<path d="m 8.6279296,5.161619 c -1.7204098,0 -3.3942562,0.3729518 -4.7226563,1.4472656 -1.3284001,1.0743138 -2.078125,2.8366976 -2.078125,4.7421874 v 19.541015 c 0,1.807672 0.7813748,3.491687 2.0625,4.576172 1.2811253,1.084486 2.9615556,1.59375 4.7382813,1.59375 2.1777924,0 3.3671524,0.748203 4.0449224,1.798828 0.67777,1.050627 0.887736,2.627578 0.203125,4.580079 a 2.0002,2.0002 0 0 0 2.326172,2.613281 c 6.051857,-1.361189 10.6834,-5.874146 10.84375,-10.929688 a 2,2 0 0 0 -1.935547,-2.0625 2,2 0 0 0 -2.0625,1.935547 c -0.05771,1.819636 -1.942565,4.443724 -4.857422,6.033203 -0.02362,-1.565858 -0.335047,-3.064925 -1.15625,-4.33789 -1.461993,-2.266267 -4.184693,-3.63086 -7.4062504,-3.63086 -1.0145644,0 -1.7326846,-0.289585 -2.1542969,-0.646484 C 6.0520204,32.058626 5.8271483,31.658836 5.8271483,30.892087 V 11.351072 c 0,-1.0095 0.230212,-1.340389 0.5917969,-1.6328128 0.3615849,-0.292423 1.0871541,-0.55664 2.2089844,-0.55664 H 39.985352 c 0.889363,0 1.339955,0.24425 1.65039,0.566406 0.310436,0.3221558 0.53711,0.8193118 0.53711,1.6230468 v 19.541015 c 0,1.032121 -0.23625,1.454227 -0.486328,1.697266 -0.250079,0.243039 -0.711786,0.472656 -1.701172,0.472656 H 29.661133 a 2,2 0 0 0 -2,2 2,2 0 0 0 2,2 h 10.324219 c 1.678604,0 3.310902,-0.461232 4.488281,-1.605468 1.177379,-1.144237 1.699219,-2.805714 1.699219,-4.564454 V 11.351072 c 0,-1.6401548 -0.538136,-3.2360808 -1.658203,-4.3984374 C 43.394581,5.790278 41.751819,5.161619 39.985352,5.161619 Z m 15.6914064,6.914062 a 1.7,1.7 0 0 0 -1.705078,1.695313 l -0.0078,4.324219 -3.685546,-2.179688 a 1.7,1.7 0 0 0 -0.835938,-0.236328 1.7,1.7 0 0 0 -1.49414,0.833984 1.7,1.7 0 0 0 0.599609,2.328125 l 3.736328,2.210938 -3.734375,2.15039 a 1.7,1.7 0 0 0 -0.625,2.320313 1.7,1.7 0 0 0 2.320312,0.625 l 3.705079,-2.132813 -0.0078,4.34961 a 1.7,1.7 0 0 0 1.695313,1.703125 1.7,1.7 0 0 0 1.705078,-1.697266 l 0.0078,-4.322266 3.685547,2.179688 a 1.7,1.7 0 0 0 2.330078,-0.597656 1.7,1.7 0 0 0 -0.597656,-2.330078 l -3.736328,-2.208985 3.734375,-2.15039 a 1.7,1.7 0 0 0 0.625,-2.322266 1.7,1.7 0 0 0 -1.445313,-0.851563 1.7,1.7 0 0 0 -0.876953,0.226563 l -3.705078,2.134766 0.0078,-4.34961 a 1.7,1.7 0 0 0 -1.695313,-1.703125 z" fill="#008055"/>
</svg>
