<svg xmlns="http://www.w3.org/2000/svg" width="48" height="48">
	<path d="m 36.731449,1.6835167 c -2.742738,0.093808 -4.832889,1.3079455 -6.138671,2.78125 -1.989766,2.2450355 -2.501954,4.9277348 -2.501954,4.9277348 -0.20375,0.9927275 0.554938,1.9224275 1.56836,1.9218735 h 10.90039 c 0.695014,0 1.17161,0.197662 1.433594,0.416016 0.261984,0.218354 0.388672,0.431288 0.388672,0.912109 v 7.47461 c 0,0.659259 -0.132906,0.817284 -0.347656,0.988281 -0.214751,0.170997 -0.697004,0.355469 -1.47461,0.355469 H 18.200199 c -0.601451,0 -0.87713,-0.160249 -1.060547,-0.347656 -0.183416,-0.187408 -0.326171,-0.478011 -0.326171,-0.996094 V 12.6425 c 0,-0.684492 0.151673,-0.913374 0.287109,-1.042968 0.135436,-0.129595 0.419827,-0.285157 1.099609,-0.285157 h 7.507813 c 0.884113,8.63e-4 1.601346,-0.715496 1.601562,-1.5996085 -2.16e-4,-0.884113 -0.717449,-1.600472 -1.601562,-1.599609 h -7.507813 c -1.222658,0 -2.430071,0.327505 -3.3125,1.171875 -0.882428,0.8443695 -1.273437,2.0805805 -1.273437,3.3554675 v 7.47461 c 0,1.197696 0.401662,2.379552 1.238281,3.234375 0.836619,0.854822 2.055339,1.308593 3.347656,1.308593 h 22.359375 c 1.249085,0 2.478438,-0.262235 3.46875,-1.050781 0.990312,-0.788545 1.554688,-2.104916 1.554688,-3.492187 V 12.6425 c 0,-1.326598 -0.588844,-2.577492 -1.541016,-3.3710925 -0.952172,-0.793601 -2.187074,-1.15625 -3.482422,-1.15625 H 32.067387 C 32.32881,7.6022801 32.546014,7.0857223 32.987309,6.5878136 34.305804,5.1001665 36.157838,3.9201238 40.403324,5.5663292 41.22744,5.8857783 42.154463,5.4764893 42.473637,4.6522667 42.793086,3.8281505 42.383797,2.9011285 41.559574,2.5819542 40.267864,2.0810881 39.061176,1.807619 37.946293,1.7147667 37.528212,1.6799471 37.123269,1.6701155 36.731449,1.6835167 Z M 19.465824,12.671797 c -0.717818,6.47e-4 -1.29926,0.582963 -1.298828,1.300781 6.45e-4,0.717055 0.581772,1.298183 1.298828,1.298829 h 1.074219 c 0.717818,4.32e-4 1.300135,-0.581011 1.300781,-1.298829 4.32e-4,-0.71858 -0.582201,-1.301213 -1.300781,-1.300781 z m 4.794922,0 c -0.717817,6.47e-4 -1.29926,0.582963 -1.298828,1.300781 6.46e-4,0.717055 0.581773,1.298183 1.298828,1.298829 h 1.074219 c 0.717818,4.32e-4 1.300135,-0.581011 1.300781,-1.298829 4.32e-4,-0.71858 -0.582201,-1.301213 -1.300781,-1.300781 z m 4.794922,0 c -0.717817,6.47e-4 -1.29926,0.582963 -1.298828,1.300781 6.46e-4,0.717055 0.581773,1.298183 1.298828,1.298829 h 1.074219 c 0.717818,4.32e-4 1.300135,-0.581011 1.300781,-1.298829 4.32e-4,-0.71858 -0.582201,-1.301213 -1.300781,-1.300781 z m 4.794922,0 c -0.717817,6.47e-4 -1.29926,0.582963 -1.298828,1.300781 6.46e-4,0.717055 0.581773,1.298183 1.298828,1.298829 h 1.074219 c 0.717818,4.32e-4 1.300135,-0.581011 1.300781,-1.298829 4.32e-4,-0.71858 -0.582201,-1.301213 -1.300781,-1.300781 z m 4.794922,0 c -0.717817,6.47e-4 -1.29926,0.582963 -1.298828,1.300781 6.46e-4,0.717055 0.581773,1.298183 1.298828,1.298829 h 1.074219 c 0.717818,4.32e-4 1.300135,-0.581011 1.300781,-1.298829 4.32e-4,-0.71858 -0.582201,-1.301213 -1.300781,-1.300781 z m -19.179688,4.806641 c -0.717055,6.46e-4 -1.298182,0.581773 -1.298828,1.298828 -4.32e-4,0.717818 0.58101,1.300134 1.298828,1.300781 h 1.074219 c 0.71858,4.32e-4 1.301213,-0.582201 1.300781,-1.300781 -6.47e-4,-0.717817 -0.582963,-1.29926 -1.300781,-1.298828 z m 4.794922,0.0098 c -0.717055,6.46e-4 -1.298182,0.581773 -1.298828,1.298828 -4.32e-4,0.717818 0.581011,1.300134 1.298828,1.300781 h 10.666016 c 0.717817,-6.47e-4 1.29926,-0.582963 1.298828,-1.300781 -6.46e-4,-0.717055 -0.581773,-1.298182 -1.298828,-1.298828 z m 14.384766,0.0098 c -0.717055,6.46e-4 -1.298182,0.581773 -1.298828,1.298828 -4.32e-4,0.717818 0.581011,1.300134 1.298828,1.300781 h 1.074219 c 0.71858,4.32e-4 1.301213,-0.582201 1.300781,-1.300781 -6.47e-4,-0.717817 -0.582963,-1.29926 -1.300781,-1.298828 z M 4.7822308,24.193351 c -0.6428955,0.01846 -1.2122439,0.420086 -1.445313,1.019531 -1.998681,5.154506 -0.432791,8.931088 1.763672,10.900391 2.196463,1.969301 4.837891,2.449218 4.837891,2.449218 0.9885922,0.193939 1.9082982,-0.562945 1.9082032,-1.570381 0,-1.58668 0.388305,-3.317576 1.001953,-4.492188 0.613648,-1.174611 1.238408,-1.634765 1.916015,-1.634765 h 15.933594 c 0.522046,0.0039 1.118487,0.42722 1.703125,1.603515 0.584639,1.176296 0.957892,2.909407 0.945313,4.511719 -1.29e-4,0.01172 -1.29e-4,0.02344 0,0.03516 0.0207,1.53415 -0.351299,3.275754 -0.94336,4.472657 -0.59206,1.196901 -1.210156,1.632812 -1.693359,1.632812 H 14.799809 c -0.951207,-0.02873 -1.372189,-0.292896 -1.759766,-0.714844 -0.389309,-0.423833 -0.701803,-1.108859 -0.910156,-1.904297 -0.223813,-0.854865 -1.098268,-1.366421 -1.953125,-1.142578 -0.8548653,0.223813 -1.3664214,1.098268 -1.1425782,1.953125 0.282134,1.077113 0.732991,2.261184 1.6484372,3.257813 0.915447,0.996629 2.341654,1.702737 4.039063,1.75 0.01431,8.59e-4 0.02864,0.0015 0.04297,0.002 h 15.945313 c 2.159586,0 3.683274,-1.640581 4.560547,-3.414063 0.874755,-1.768391 1.298306,-3.882844 1.273437,-5.917968 0.01408,-2.072514 -0.401253,-4.186544 -1.27539,-5.945313 -0.876352,-1.763224 -2.412112,-3.36495 -4.546875,-3.380859 -0.0039,-1.4e-5 -0.0078,-1.4e-5 -0.01172,0 H 14.764652 c -2.191998,0 -3.824098,1.577467 -4.751953,3.353515 -0.5889072,1.127255 -0.9139452,2.406362 -1.1210932,3.712891 -0.543859,-0.260358 -1.1171,-0.51836 -1.654297,-1 -1.425513,-1.278085 -2.568958,-3.101551 -0.917969,-7.359375 0.3196548,-0.823569 -0.088657,-1.750357 -0.912109,-2.070312 -0.1990794,-0.07715 -0.4115861,-0.113674 -0.625,-0.107422 z M 15.504887,35.392569 c -0.883351,2.16e-4 -1.599394,0.716259 -1.599609,1.59961 -8.63e-4,0.884113 0.715496,1.601346 1.599609,1.601562 h 5.341797 c 0.884876,8.64e-4 1.602426,-0.716686 1.601562,-1.601562 -2.15e-4,-0.884114 -0.717449,-1.600473 -1.601562,-1.59961 z" fill="#008055"/>
</svg>
