<svg xmlns="http://www.w3.org/2000/svg" width="48" height="48">
	<path d="M 14.304097,1.610948 C 12.26528,1.6386288 10.186641,2.4456076 8.5658165,4.2457137 l -4.863281,5.4023442 a 1.80018,1.80018 0 0 0 -0.00781,0.0098 C 0.50735827,13.247346 1.285205,18.29066 4.2396475,20.950827 c 2.9985,2.699835 8.1487805,2.847896 11.2968745,-0.648438 L 16.2416,19.519186 a 1.8,1.8 0 0 0 -0.132812,-2.542969 1.8,1.8 0 0 0 -2.541016,0.134766 l -0.707031,0.783203 c -1.774026,1.970267 -4.7304705,1.715624 -6.2128905,0.38086 -1.526477,-1.374434 -2.156751,-4.092451 -0.261719,-6.226563 L 11.241597,6.6558699 c 1.958911,-2.1755878 4.551377,-1.7727921 6.160156,-0.3242188 0.901168,0.8113974 1.457204,1.9337168 1.605469,2.9414068 0.148266,1.0076891 -0.09737,1.7946951 -0.52539,2.2324211 l 0.01367,-0.01367 c -0.879735,0.88039 -1.348935,2.253316 -1.0625,3.330078 0.286436,1.076762 0.917084,1.660078 1.373047,2.117187 a 1.80018,1.80018 0 0 0 0.07031,0.06445 l 23.439453,21.128906 -0.01563,-0.01172 c 0.901036,0.829704 0.606884,1.151847 0.337891,1.449218 -0.268994,0.297372 -0.552333,0.618782 -1.451172,-0.1875 l 0.0625,0.05859 c -0.767801,-0.75637 -2.022709,-1.237773 -3.048828,-0.966797 -1.02612,0.270977 -1.543613,0.87357 -1.962891,1.324219 a 1.80018,1.80018 0 0 0 -0.01953,0.02148 l -2.421875,2.689454 c -0.135385,0.11759 -0.107024,0.113484 -0.154297,0.144531 l -3.927735,-3.650391 a 1.80018,1.80018 0 0 0 0.02734,-0.02734 l 2.378906,-2.644531 c 0.707336,-0.733662 1.21774,-1.848573 1.044922,-2.916015 -0.172817,-1.067443 -0.791554,-1.773517 -1.414062,-2.353516 a 1.80018,1.80018 0 0 0 -0.02344,-0.02148 L 19.93691,20.460558 a 1.8,1.8 0 0 0 -2.541016,0.136718 1.8,1.8 0 0 0 0.136719,2.541016 l 11.791015,10.582031 c 0.152906,0.154354 0.14404,0.124725 0.166016,0.154297 a 1.80018,1.80018 0 0 0 -0.0039,0.0039 l -2.392584,2.658209 c -0.528573,0.560501 -1.09812,1.247641 -1.169922,2.306641 -0.0718,1.059 0.505726,1.966831 1.125,2.59375 a 1.80018,1.80018 0 0 0 0.05469,0.05273 l 4.111328,3.820313 c 0.698742,0.703379 1.828755,1.221375 2.869141,1.044922 1.040386,-0.176453 1.692833,-0.74858 2.267578,-1.308594 a 1.80018,1.80018 0 0 0 0.08203,-0.08594 l 2.460938,-2.732422 -0.02148,0.02148 c 0.08866,-0.0953 0.01296,-0.0396 0.07422,-0.08984 2.060822,1.710681 4.903383,1.437924 6.361328,-0.173828 1.494334,-1.651979 1.483145,-4.624576 -0.568359,-6.513672 a 1.80018,1.80018 0 0 0 -0.01367,-0.01367 L 21.333394,14.372667 c -0.223645,-0.233055 -0.256421,-0.285793 -0.296875,-0.333985 0.0046,-0.0046 0.001,0.0029 0.0059,-0.002 a 1.80018,1.80018 0 0 0 0.01367,-0.01367 C 22.443025,12.604638 22.84167,10.610884 22.567808,8.7495739 22.293946,6.8882637 21.360558,5.0538797 19.809995,3.657777 18.341995,2.3359637 16.342954,1.5832213 14.304136,1.610902 Z" fill="#008055"/>
</svg>
