<svg xmlns="http://www.w3.org/2000/svg" width="48" height="48">
	<path d="m 24.413148,1.8166672 c -4.735634,-0.09174 -9.524499,1.322492 -13.59375,4.326172 C 9.6567554,7.0010332 8.6010812,7.953407 7.6553359,8.9826826 1.0351193,16.187612 -0.18769074,27.147792 5.1592422,35.734635 a 2.0999999,2.0999999 0 0 0 2.8945312,0.669922 2.0999999,2.0999999 0 0 0 0.671875,-2.890625 C 3.7526722,25.527641 5.746186,15.108959 13.315492,9.5217451 20.884798,3.9345312 31.426175,5.0982002 37.592836,12.203386 43.759495,19.308571 43.42989,29.911695 36.83307,36.619401 30.23625,43.327107 19.641615,43.834746 12.434633,37.78737 a 2.0999999,2.0999999 0 0 0 -2.9609377,0.257812 2.0999999,2.0999999 0 0 0 0.2617188,2.958985 c 8.8559209,7.431 21.9856399,6.802958 30.0917969,-1.439453 8.106155,-8.242413 8.515076,-21.382448 0.9375,-30.1132814 C 36.502324,4.5403382 30.501821,1.9346162 24.413148,1.8166672 Z m -8.02539,12.4062498 a 2.0999999,2.0999999 0 0 0 -1.427735,0.615234 2.0999999,2.0999999 0 0 0 0,2.96875 l 6.001953,6.001953 -6.001953,6.001953 a 2.0999999,2.0999999 0 0 0 0,2.970704 2.0999999,2.0999999 0 0 0 2.96875,0 l 6.001953,-6.001953 6.001953,6.001953 a 2.0999999,2.0999999 0 0 0 2.970704,0 2.0999999,2.0999999 0 0 0 0,-2.970704 l -6.001954,-6.001953 6.001954,-6.001953 a 2.0999999,2.0999999 0 0 0 0,-2.96875 2.0999999,2.0999999 0 0 0 -1.541016,-0.615234 2.0999999,2.0999999 0 0 0 -1.429688,0.615234 l -6.001953,6.001953 -6.001953,-6.001953 a 2.0999999,2.0999999 0 0 0 -1.541015,-0.615234 z" fill="#008055"/>
</svg>
