<svg xmlns="http://www.w3.org/2000/svg" width="48" height="48">
	<path d="m 24.10547,1.6606112 c -2.822901,-0.033737 -5.381384,0.8790386 -7.320313,2.2714844 -1.944169,1.3962093 -3.399112,3.2962962 -3.490234,5.5820312 a 1.90019,1.90019 0 0 0 0,0.076172 v 9.0371092 c -0.01877,0.334068 0.130532,0.28125 -0.292969,0.28125 a 1.90019,1.90019 0 0 0 -0.05664,0 c -1.843181,0.05478 -3.4804585,0.902766 -4.5117187,2.173828 -1.0312601,1.271062 -1.5,2.881324 -1.5,4.527344 a 1.90019,1.90019 0 0 0 0,0.0039 l 0.037109,14.642578 c 0.00108,1.659253 0.4558177,3.261243 1.5761719,4.414063 1.1216919,1.154196 2.7535938,1.669922 4.4941408,1.669922 H 34.97461 c 1.619251,0 3.188722,-0.531039 4.330078,-1.63086 1.141357,-1.09982 1.761719,-2.71445 1.761719,-4.458984 V 25.60983 c 0,-1.705474 -0.371001,-3.357882 -1.425781,-4.66211 -1.054781,-1.304227 -2.782933,-2.039062 -4.666016,-2.039062 H 20.841798 a 1.9,1.9 0 0 0 -1.900391,1.900391 1.9,1.9 0 0 0 1.900391,1.90039 H 34.97461 c 1.031918,0 1.400921,0.243159 1.712891,0.628906 0.311969,0.385748 0.578125,1.134658 0.578125,2.271485 v 14.640625 c 0,0.911266 -0.254488,1.391976 -0.597656,1.722656 -0.343169,0.33068 -0.868711,0.566406 -1.69336,0.566406 H 13.041016 c -1.050253,0 -1.503973,-0.244324 -1.769531,-0.517578 -0.265558,-0.273253 -0.5,-0.764857 -0.5,-1.771484 a 1.90019,1.90019 0 0 0 0,-0.0039 l -0.03906,-14.636719 c 0,-0.915081 0.2697,-1.665553 0.65039,-2.134766 0.38069,-0.469213 0.826962,-0.742353 1.675781,-0.767578 l -0.05664,0.002 c 2.177218,0 3.964499,-1.859392 4.08789,-3.847656 a 1.90019,1.90019 0 0 0 0.0039,-0.117188 V 9.6625643 c 0.02499,-0.5798053 0.626109,-1.7251956 1.90625,-2.6445312 1.282306,-0.9208907 3.11303,-1.5875677 5.076172,-1.5605469 a 1.90019,1.90019 0 0 0 0.04101,0 c 2.139239,-0.016996 3.918263,0.7167773 5.132813,1.6601562 1.21455,0.9433792 1.718103,2.1319574 1.720703,2.4863282 v 5.5781254 a 1.9,1.9 0 0 0 1.900391,1.90039 1.9,1.9 0 0 0 1.90039,-1.90039 V 9.5902987 a 1.90019,1.90019 0 0 0 0,-0.013672 C 34.755685,7.4226976 33.455304,5.5741884 31.580079,4.1176424 29.709264,2.6645218 27.117831,1.6415942 24.10547,1.6606112 Z M 24.000001,23.471158 c -3.177986,0 -5.634766,2.405569 -5.634766,5.203125 0,1.91181 1.080045,3.2756 2.353516,4.205078 v 5.904297 c 0,3.739078 6.492187,3.736901 6.492187,0 v -5.888672 c 1.288793,-0.913922 2.423828,-2.26093 2.423828,-4.220703 0,-2.815997 -2.483138,-5.172417 -5.621093,-5.203125 a 1.50015,1.50015 0 0 0 -0.01367,0 z m -0.0078,3.001953 c 1.69947,0.02097 2.642578,1.165354 2.642578,2.201172 0,1.15973 -0.640648,1.781537 -1.554687,2.205078 a 1.50015,1.50015 0 0 0 -0.869141,1.361328 v 6.542969 c 0,-0.0057 -0.492187,-0.127678 -0.492187,0 V 32.240689 A 1.50015,1.50015 0 0 0 22.84961,30.879361 c -0.764015,-0.35423 -1.484375,-1.151117 -1.484375,-2.205078 0,-1.045236 0.906784,-2.196756 2.626953,-2.201172 z" fill="#008055"/>
</svg>
