<svg xmlns="http://www.w3.org/2000/svg" width="48" height="48">
	<path d="m 24.107423,1.6606131 c -2.822901,-0.033737 -5.383338,0.8770854 -7.322266,2.2695312 -1.944169,1.3962093 -3.397158,3.2982493 -3.488281,5.5839844 a 1.9,1.9 0 0 0 1.822265,1.9746093 1.9,1.9 0 0 0 1.97461,-1.8222657 c 0.02308,-0.5788647 0.625897,-1.7275467 1.908203,-2.6484374 1.282306,-0.9208907 3.111077,-1.5895208 5.074219,-1.5625 a 1.90019,1.90019 0 0 0 0.04101,0 c 2.139239,-0.016995 3.918263,0.7187303 5.132813,1.6621094 1.21455,0.9433791 1.720056,2.1319573 1.722656,2.4863281 A 1.9,1.9 0 0 0 32.884761,11.490691 1.9,1.9 0 0 0 34.77148,9.5766287 C 34.755685,7.4226995 33.457257,5.5722371 31.582032,4.1156912 29.711219,2.6625723 27.119779,1.6415986 24.107423,1.6606131 Z M 12.947266,18.90866 c -1.843181,0.05477 -3.4824122,0.900812 -4.5136722,2.171875 -1.0312593,1.271062 -1.4999996,2.883277 -1.4999996,4.529296 a 1.90019,1.90019 0 0 0 0,0.0039 l 0.039062,14.642578 c 0.00108,1.659253 0.4538641,3.261242 1.5742191,4.414062 1.121692,1.154197 2.7535937,1.669922 4.4941407,1.669922 h 21.935547 c 1.619247,0 3.188727,-0.531036 4.330078,-1.630859 1.14135,-1.099823 1.759765,-2.714456 1.759765,-4.458984 V 25.609831 c 0,-1.705469 -0.369055,-3.357879 -1.423828,-4.662109 -1.054772,-1.30423 -2.782936,-2.039062 -4.666015,-2.039062 H 20.843751 a 1.9,1.9 0 0 0 -1.900391,1.90039 1.9,1.9 0 0 0 1.900391,1.898438 h 14.132812 c 1.031911,0 1.398973,0.245114 1.710938,0.630859 0.311964,0.385745 0.580078,1.134655 0.580078,2.271484 v 14.640626 c 0,0.91127 -0.254495,1.391979 -0.597656,1.722656 -0.343163,0.330677 -0.868717,0.566406 -1.69336,0.566406 H 13.041016 c -1.050253,0 -1.50202,-0.244325 -1.767578,-0.517578 -0.265558,-0.273254 -0.501953,-0.764857 -0.501953,-1.771484 a 1.90019,1.90019 0 0 0 0,-0.0039 l -0.03711,-14.636719 c 0,-0.915079 0.2697,-1.665552 0.65039,-2.134765 0.38069,-0.469213 0.826963,-0.742353 1.675781,-0.767578 h 2.134766 a 1.9,1.9 0 0 0 1.900391,-1.900391 1.9,1.9 0 0 0 -1.900391,-1.898437 h -2.191406 a 1.90019,1.90019 0 0 0 -0.05664,0 z m 11.052735,4.5625 c -3.177986,0 -5.634766,2.405569 -5.634766,5.203125 0,1.91181 1.081998,3.275599 2.355469,4.205078 v 5.904297 c 0,3.739077 6.490234,3.736901 6.490234,0 v -5.886719 c 1.289459,-0.913818 2.423828,-2.262134 2.423828,-4.222656 0,-2.815997 -2.481185,-5.172417 -5.61914,-5.203125 a 1.50015,1.50015 0 0 0 -0.01563,0 z m -0.0078,3.001953 c 1.700879,0.02 2.642578,1.164901 2.642578,2.201172 0,1.15973 -0.640648,1.781537 -1.554687,2.205078 a 1.50015,1.50015 0 0 0 -0.869141,1.361328 v 6.542969 c 0,-0.0057 -0.490234,-0.127678 -0.490234,0 v -6.542969 a 1.50015,1.50015 0 0 0 -0.869141,-1.361328 c -0.764015,-0.354231 -1.486328,-1.151118 -1.486328,-2.205078 0,-1.045236 0.906784,-2.196756 2.626953,-2.201172 z" fill="#008055"/>
</svg>
