<svg xmlns="http://www.w3.org/2000/svg" width="48" height="48">
	<path d="m 23.945312,3.8652344 c -1.636686,0.00629 -2.336579,1.2819318 -2.123046,2.390625 V 30.513139 c 0.0072,3.051034 3.800781,2.894768 3.800781,0 V 9.8398438 c 0.06349,0.1943652 0.127613,0.3465512 0.189453,0.5664062 0.578394,2.056232 1.08081,5.221819 3.832031,7.234375 2.751207,2.012552 5.921666,1.532287 8.056641,1.460937 1.067497,-0.03568 1.893549,0.03304 2.285156,0.177735 0.391594,0.144686 0.48215,0.145774 0.707031,0.845703 0.224881,0.69992 0.152014,0.751947 -0.08203,1.097656 -0.234045,0.34571 -0.869314,0.88184 -1.757812,1.47461 -1.776992,1.185554 -4.631202,2.642448 -5.695313,5.880859 -1.064115,3.238403 0.370137,6.103013 1.097656,8.111328 0.363751,1.004159 0.557596,1.813326 0.541016,2.230469 -0.01662,0.417133 0.01028,0.501464 -0.585937,0.93164 -0.596226,0.430194 -0.66919,0.377443 -1.070313,0.261719 -0.401113,-0.115733 -1.108941,-0.551132 -1.947266,-1.21289 -1.193781,-0.942362 -3.332375,-2.957557 -5.570312,-3.765625 -1.9724,-0.765601 -3.769531,-0.08272 -3.769531,1.53125 0.01461,0.670412 0.41993,1.341694 1.300781,1.675781 2.018021,0.615546 4.308545,2.709356 5.5625,3.699219 0.936258,0.73907 1.944865,1.520858 3.314453,1.916015 1.369577,0.395149 3.124588,0.145132 4.519531,-0.861328 1.394939,-1.006468 2.185438,-2.593313 2.242188,-4.017578 0.05674,-1.424263 -0.371086,-2.628527 -0.777344,-3.75 -0.812513,-2.242938 -1.525427,-4.075282 -1.056641,-5.501953 0.468798,-1.426676 2.132591,-2.476724 4.117188,-3.800781 0.992305,-0.662025 2.04853,-1.384072 2.847656,-2.564453 0.799113,-1.180389 1.102309,-2.922982 0.576172,-4.560547 -0.526134,-1.637555 -1.789861,-2.879027 -3.126953,-3.373047 -1.337087,-0.494028 -2.614442,-0.463678 -3.806641,-0.423828 -2.3844,0.07969 -4.350462,0.197167 -5.5625,-0.689454 -1.212037,-0.886629 -1.693884,-2.793389 -2.339844,-5.0898432 -0.322986,-1.14823 -0.680939,-2.3753382 -1.55664,-3.5 -0.875707,-1.1246725 -2.441996,-1.9533744 -4.16211,-1.9589844 z" fill="#008055"/>
</svg>
