<svg xmlns="http://www.w3.org/2000/svg" width="48" height="48">
	<path d="m 23.945312,3.8652344 c 1.636686,0.00629 2.336579,1.2819318 2.123046,2.390625 V 30.513139 c -0.0072,3.051033 -3.800781,2.894769 -3.800781,0 V 9.8398438 c -0.06349,0.1943652 -0.127613,0.3465512 -0.189453,0.5664062 -0.578394,2.056231 -1.08081,5.221819 -3.832031,7.234375 -2.751207,2.012552 -5.921666,1.532287 -8.056641,1.460938 -1.067497,-0.03568 -1.893549,0.03304 -2.285156,0.177734 -0.391594,0.144686 -0.48215,0.145774 -0.707031,0.845703 -0.224881,0.69992 -0.152014,0.751947 0.08203,1.097657 0.234045,0.34571 0.869314,0.88184 1.757812,1.474609 1.776992,1.185554 4.631202,2.642449 5.695313,5.880859 1.064115,3.238403 -0.370137,6.103014 -1.097656,8.111328 -0.363751,1.00416 -0.557596,1.813327 -0.541016,2.230469 0.01662,0.417133 -0.01028,0.501464 0.585937,0.931641 0.596226,0.430194 0.66919,0.377442 1.070313,0.261718 0.401113,-0.115732 1.108941,-0.551132 1.947266,-1.21289 1.193781,-0.942363 3.332375,-2.957557 5.570312,-3.765625 1.9724,-0.7656 3.769531,-0.08272 3.769531,1.53125 -0.01461,0.670412 -0.41993,1.341693 -1.300781,1.675781 -2.018021,0.615547 -4.308545,2.709356 -5.5625,3.699219 -0.936258,0.73907 -1.944865,1.520857 -3.314453,1.916015 -1.369577,0.39515 -3.124588,0.145132 -4.519531,-0.861328 -1.394939,-1.006467 -2.185438,-2.593313 -2.242188,-4.017578 -0.05674,-1.424264 0.371086,-2.628526 0.777344,-3.75 0.812513,-2.242939 1.525427,-4.075282 1.056641,-5.501953 C 10.462841,28.399496 8.799048,27.349448 6.814451,26.025391 5.822146,25.363366 4.765921,24.641319 3.966795,23.460938 3.167682,22.28055 2.864486,20.537956 3.390623,18.900391 c 0.526134,-1.637555 1.789861,-2.879027 3.126953,-3.373047 1.337087,-0.494028 2.614442,-0.463678 3.806641,-0.423828 2.3844,0.07969 4.350462,0.197167 5.5625,-0.689454 1.212037,-0.886629 1.693884,-2.793389 2.339844,-5.0898432 0.322986,-1.14823 0.680939,-2.3753382 1.55664,-3.5 0.875707,-1.1246725 2.441996,-1.9533744 4.162111,-1.9589844 z" fill="#008055"/>
</svg>
