<svg xmlns="http://www.w3.org/2000/svg" width="48" height="48">
	<path d="m 23.99956,4.8837696 a 2.2,2.2 0 0 0 -2.201171,2.199219 V 27.235333 a 2.2,2.2 0 0 0 2.201171,2.201172 2.2,2.2 0 0 0 2.199219,-2.201172 V 7.0829886 A 2.2,2.2 0 0 0 23.99956,4.8837696 Z m 8.703125,1.171875 a 2.1999723,2.2000277 51.997665 0 0 -1.93164,1.107422 2.1999723,2.2000277 51.997665 0 0 0.818359,3.0019534 c 6.019793,3.443185 8.96234,10.476527 7.1875,17.179688 -1.774841,6.70316 -7.81094,11.357329 -14.746094,11.371094 -6.935155,0.01376 -12.993452,-4.618354 -14.7949215,-11.314453 -1.80147,-6.6961 1.1131335,-13.740011 7.1191405,-17.207032 A 2.1999723,2.2000277 51.997665 0 0 17.16167,7.1884576 2.1999723,2.2000277 51.997665 0 0 14.157763,6.3857226 C 8.3725305,9.7252986 4.8060805,15.680514 4.360888,22.079083 4.2124902,24.211939 4.411354,26.393854 4.9897945,28.543927 7.3035535,37.144218 15.131905,43.133871 24.038623,43.116192 32.945341,43.098514 40.75123,37.079154 43.03081,28.469708 45.310391,19.860263 41.506168,10.768741 33.774951,6.3466606 a 2.1999723,2.2000277 51.997665 0 0 -1.072266,-0.291016 z" fill="#008055"/>
</svg>
