<svg xmlns="http://www.w3.org/2000/svg" width="48" height="48">
	<path d="m 23.409249,1.3766861 c -4.59478,0.140748 -9.114341,1.5059728 -12.775391,4.0117187 a 1.90019,1.90019 0 0 0 -0.02539,0.019531 C 5.6139931,8.9530568 2.9114781,13.504378 2.6397181,18.155983 c -0.271761,4.651604 1.881887,9.213459 5.826171,12.769531 a 1.90019,1.90019 0 0 0 0.00195,0.002 c 3.6795889,3.307097 8.3908669,4.99821 13.1718759,5.494141 0.844787,2.082106 0.820288,4.231765 -0.455079,7.65039 a 1.90019,1.90019 0 0 0 2.644532,2.355469 c 3.32791,-1.701569 5.271819,-3.80269 6.972656,-5.894531 1.700837,-2.091842 3.213359,-4.17449 6.0625,-6.498047 a 1.9,1.9 0 0 0 0.271484,-2.671875 1.9,1.9 0 0 0 -2.673828,-0.271484 c -3.206559,2.615042 -4.998262,5.061477 -6.609375,7.042968 -0.653812,0.804117 -1.297169,1.491178 -1.982422,2.166016 0.177765,-2.353419 -0.169815,-4.523559 -1.203125,-6.496094 A 1.90019,1.90019 0 0 0 23.094796,32.788795 C 18.602835,32.524539 14.237091,31.003672 11.008858,28.103248 l -0.002,-0.002 c -3.2684659,-2.947679 -4.7700429,-6.36997 -4.5741719,-9.722609 0.195767,-3.350846 2.084927,-6.820475 6.3671879,-9.8632811 6.774254,-4.6226775 18.052595,-4.4091047 24.505859,1.390625 3.228801,2.9120771 4.318147,6.1474311 4.277344,9.1855471 -0.04081,3.038807 -1.330348,5.883196 -2.943359,7.580078 a 1.9,1.9 0 0 0 0.06836,2.685546 1.9,1.9 0 0 0 2.685547,-0.06641 c 2.337688,-2.459238 3.934019,-6.1082 3.988281,-10.148437 0.05426,-4.040237 -1.551469,-8.4689 -5.535156,-12.0605468 a 1.90019,1.90019 0 0 0 -0.002,-0.00195 C 35.848847,3.4885402 30.637745,1.6329504 25.379952,1.3923111 24.722728,1.3622312 24.065646,1.3565792 23.409249,1.3766861 Z m 8.78125,8.6445309 a 2,2 0 0 0 -1.708985,1 l -6.710937,11.634766 -4.101563,-6.736329 a 2,2 0 0 0 -2.748046,-0.669921 2,2 0 0 0 -0.667969,2.75 l 5.855469,9.61914 a 2.0002,2.0002 0 0 0 3.441406,-0.04102 l 8.396484,-14.556636 a 2,2 0 0 0 -0.732422,-2.732422 2,2 0 0 0 -1.023437,-0.267578 z" fill="#008055"/>
</svg>
