<svg xmlns="http://www.w3.org/2000/svg" width="48" height="48">
	<path d="M 23.410225,1.3766874 C 18.815445,1.5174301 14.295886,2.88266 10.634835,5.3884058 a 1.90019,1.90019 0 0 0 -0.02734,0.01953 C 5.6130218,8.9530718 2.9105056,13.50437 2.6387452,18.155983 2.3669849,22.807594 4.5206288,27.36946 8.4649171,30.925514 a 1.90019,1.90019 0 0 0 0.00195,0.002 c 3.9354289,3.537049 7.7780999,4.422457 9.9296879,4.958984 2.098634,0.533215 2.857883,1.520094 3.261718,2.955078 0.404322,1.436712 0.200464,3.426156 -0.472656,5.230469 a 1.90019,1.90019 0 0 0 2.644531,2.355469 c 3.327909,-1.701579 5.27182,-3.804644 6.972657,-5.896484 1.700836,-2.091842 3.211406,-4.172537 6.060547,-6.496094 a 1.9,1.9 0 0 0 0.271484,-2.673828 1.9,1.9 0 0 0 -2.671875,-0.271485 c -3.206559,2.615043 -4.998262,5.06343 -6.609375,7.044922 -0.760007,0.934724 -1.478436,1.752179 -2.304688,2.517578 0.0079,-0.95135 0.02997,-1.907468 -0.232422,-2.839843 -0.711728,-2.529047 -2.786233,-4.799192 -5.99414,-5.611329 a 1.90019,1.90019 0 0 0 -0.0059,-0.002 c -2.246297,-0.560144 -5.017862,-1.14072 -8.30664,-4.095703 l -0.002,-0.002 C 7.7393729,25.153592 6.2377917,21.731291 6.4336631,18.378641 6.6292415,15.031005 8.5136344,11.561937 12.787179,8.5212188 c 6.7718,-4.630388 18.058003,-4.417583 24.515625,1.382812 3.23051,2.9125742 4.322062,6.1487042 4.28125,9.1875002 -0.04081,3.038797 -1.330351,5.883208 -2.94336,7.580078 a 1.9,1.9 0 0 0 0.06836,2.685547 1.9,1.9 0 0 0 2.685547,-0.06836 c 2.33769,-2.459229 3.934018,-6.106256 3.988281,-10.146484 0.05426,-4.040229 -1.551467,-8.468921 -5.535157,-12.0605472 a 1.90019,1.90019 0 0 0 -0.002,-0.002 C 35.849826,3.4885208 30.638723,1.6329627 25.380929,1.3923124 24.723704,1.3622311 24.066623,1.3565813 23.410225,1.3766874 Z m 1.253907,7.7656254 c -2.107267,-0.0837 -4.252307,0.491068 -6.09961,1.7656252 -1.055601,0.728318 -1.931144,1.629732 -2.613281,2.640625 -2.04641,3.032676 -2.346722,7.06191 -0.507812,10.441406 a 1.4999955,1.5000045 84.987597 0 0 2.035156,0.599609 1.4999955,1.5000045 84.987597 0 0 0.599609,-2.033203 c -1.73056,-3.180375 -0.788806,-7.123474 2.191407,-9.179687 2.980212,-2.056213 6.998448,-1.535861 9.357421,1.210937 2.358974,2.746798 2.264045,6.798187 -0.21875,9.433594 -2.482795,2.635407 -6.519842,2.970387 -9.402343,0.779297 a 1.4999955,1.5000045 84.987597 0 0 -2.101563,0.287109 1.4999955,1.5000045 84.987597 0 0 0.285156,2.101563 c 4.083963,3.104364 9.886639,2.624507 13.404297,-1.109375 C 35.111478,22.34593 35.244636,16.526197 31.902413,12.6345 30.022412,10.44542 27.373475,9.2499218 24.664132,9.1423128 Z m -0.433594,3.6875002 a 1.5,1.5 0 0 0 -1.5,1.5 v 4.755859 a 1.50015,1.50015 0 0 0 0.427734,1.048828 l 2.498047,2.558594 a 1.5,1.5 0 0 0 2.121094,0.02539 1.5,1.5 0 0 0 0.02539,-2.121094 l -2.072265,-2.121093 v -4.146484 a 1.5,1.5 0 0 0 -1.5,-1.5 z" fill="#008055"/>
</svg>
