<svg xmlns="http://www.w3.org/2000/svg" width="48" height="48">
	<path d="m 23.410226,1.3764791 c -4.595154,0.140743 -9.116293,1.505973 -12.777344,4.011719 a 1.90019,1.90019 0 0 0 -0.02539,0.01758 C 5.613019,8.9509151 2.9105028,13.504167 2.6387424,18.155778 2.366982,22.80739 4.5206261,27.367303 8.4649142,30.923356 a 1.90019,1.90019 0 0 0 0.00195,0.002 c 3.9354288,3.537051 7.7761468,4.422458 9.9277348,4.958985 h -0.0059 c 2.104393,0.532763 2.86521,1.520323 3.269532,2.957031 0.404321,1.436708 0.198509,3.42422 -0.47461,5.228516 a 1.90019,1.90019 0 0 0 2.644532,2.357422 c 3.32791,-1.701563 5.271819,-3.804647 6.972656,-5.896485 1.700837,-2.091838 3.213359,-4.174489 6.0625,-6.498047 a 1.9,1.9 0 0 0 0.271484,-2.671875 1.9,1.9 0 0 0 -2.673828,-0.271484 c -3.206559,2.615042 -4.996309,5.061482 -6.607422,7.042969 -0.760023,0.934742 -1.480366,1.752169 -2.30664,2.517578 0.0078,-0.950872 0.02984,-1.907938 -0.232422,-2.839844 C 24.602752,35.28108 22.5302,33.012884 19.322293,32.200747 a 1.90019,1.90019 0 0 0 -0.0078,-0.002 C 17.068225,31.638601 14.29666,31.056071 11.007882,28.101089 l -0.002,-0.002 c -3.2684614,-2.947658 -4.7700432,-6.36996 -4.5741719,-9.72261 0.1957667,-3.350857 2.0849247,-6.82046 6.3671879,-9.8632809 6.774252,-4.622676 18.052592,-4.409143 24.505859,1.390625 3.228799,2.9120569 4.318147,6.1474429 4.277344,9.1855469 -0.04081,3.038797 -1.33035,5.883207 -2.94336,7.580078 a 1.9,1.9 0 0 0 0.06836,2.6875 1.9,1.9 0 0 0 2.685547,-0.06836 c 2.337691,-2.45923 3.935972,-6.10821 3.990234,-10.148438 0.05426,-4.040228 -1.551467,-8.46892 -5.535156,-12.0605469 a 1.90019,1.90019 0 0 0 -0.0039,-0.002 c -3.995947,-3.591291 -9.205097,-5.444896 -14.462891,-5.685547 -0.657224,-0.03008 -1.314253,-0.03573 -1.970703,-0.01563 z m 1.367187,10.3593749 a 1.70017,1.70017 0 0 0 -1.634765,1.347657 C 22.66098,15.368304 20.707543,17.74562 17.80671,17.74562 h -3.556641 a 1.7,1.7 0 0 0 -1.699218,1.699219 1.7,1.7 0 0 0 1.699218,1.701172 h 3.556641 c 3.695455,0 6.398994,-2.289724 7.78711,-5.039063 l 4.595703,3.337891 -4.642578,3.371094 c -0.591064,-0.991667 -1.269163,-1.781387 -1.791016,-2.199219 a 1.7,1.7 0 0 0 -2.388672,0.265625 1.7,1.7 0 0 0 0.263672,2.388672 c 0.426275,0.341306 1.360964,1.3831 1.488281,2.396484 a 1.70017,1.70017 0 0 0 2.685547,1.164062 l 8.275391,-6.011718 a 1.70017,1.70017 0 0 0 0,-2.75 l -8.275391,-6.009766 a 1.70017,1.70017 0 0 0 -1.027344,-0.324219 z" fill="#008055"/>
</svg>
