<svg xmlns="http://www.w3.org/2000/svg" width="48" height="48">
	<path d="m 23.410226,1.3767364 c -4.595154,0.140743 -9.116293,1.505972 -12.777344,4.011719 a 1.90019,1.90019 0 0 0 -0.02539,0.01953 C 5.6130179,8.9531234 2.9105018,13.504421 2.6387414,18.156033 2.366981,22.807644 4.5206249,27.367557 8.4649129,30.923611 a 1.90019,1.90019 0 0 0 0.00195,0.0039 c 3.9354281,3.537017 7.7761471,4.422458 9.9277341,4.958984 2.098631,0.533215 2.859837,1.520099 3.263672,2.955079 0.404321,1.436707 0.198509,3.426173 -0.47461,5.230468 a 1.90019,1.90019 0 0 0 2.644532,2.355469 c 3.32791,-1.701563 5.271819,-3.804646 6.972656,-5.896484 1.700837,-2.091838 3.213359,-4.172536 6.0625,-6.496094 a 1.9,1.9 0 0 0 0.271484,-2.673828 1.9,1.9 0 0 0 -2.673828,-0.271484 c -3.206559,2.615042 -4.996309,5.063434 -6.607422,7.044921 -0.760023,0.934743 -1.480366,1.75217 -2.30664,2.517579 0.0079,-0.95135 0.02997,-1.907469 -0.232422,-2.839844 -0.711729,-2.529042 -2.784281,-4.799192 -5.992188,-5.611328 a 1.90019,1.90019 0 0 0 -0.0078,-0.002 C 17.068518,31.63893 14.298051,31.055299 11.009835,28.101345 7.7398229,25.153199 6.2357959,21.73208 6.4317099,18.378689 c 0.195636,-3.348612 2.083189,-6.818019 6.3593751,-9.8593746 6.773469,-4.627676 18.058149,-4.415077 24.513672,1.386719 3.227904,2.9117866 4.318142,6.1478046 4.277344,9.1855466 -0.04081,3.038796 -1.33035,5.883207 -2.94336,7.580078 a 1.9,1.9 0 0 0 0.06836,2.685547 1.9,1.9 0 0 0 2.685547,-0.06836 c 2.337691,-2.459229 3.935972,-6.106256 3.990234,-10.146484 0.05426,-4.040228 -1.551467,-8.470874 -5.535156,-12.0624996 a 1.90019,1.90019 0 0 0 -0.0039,-0.002 c -3.995947,-3.591292 -9.205097,-5.444897 -14.462891,-5.685547 -0.657224,-0.03008 -1.314253,-0.03573 -1.970703,-0.01563 z m 0.816406,6.570312 c -1.435442,0.102194 -2.799451,0.922204 -3.572265,2.3085936 -1.16055,2.081967 -0.554762,4.725788 1.271484,6.138672 a 1.4347458,1.366093 85.006065 0 0 0.304687,0.292969 c 0.0017,0.0011 0.0042,0.0028 0.0059,0.0039 0.0051,0.0032 0.0066,0.0085 0.01172,0.01172 a 1.4347458,1.366093 85.006065 0 0 0.04297,0.02344 1.4347458,1.366093 85.006065 0 0 0.02149,0.01367 c 0.0036,0.0022 0.0081,0.0037 0.01172,0.0059 a 1.4347458,1.366093 85.006065 0 0 0.410157,0.140624 c 2.070653,0.961422 4.542484,0.207061 5.685546,-1.882812 1.219105,-2.228901 0.484628,-5.1336286 -1.646484,-6.4335936 -0.799167,-0.487487 -1.68561,-0.684363 -2.546875,-0.623047 z m 0.191406,2.8496096 c 0.335594,-0.02236 0.682173,0.05732 0.998047,0.25 0.842333,0.513817 1.125184,1.609896 0.63086,2.513672 -0.494324,0.903776 -1.548153,1.197943 -2.394532,0.691406 a 1.4347458,1.366093 85.006065 0 0 -0.02148,-0.01172 1.4347458,1.366093 85.006065 0 0 -0.0039,-0.002 c -0.838231,-0.521063 -1.112744,-1.620018 -0.611328,-2.519531 0.313384,-0.562196 0.843021,-0.884609 1.402343,-0.921875 z m -0.189453,7.078125 c -1.776372,0 -3.511679,0.407335 -4.878906,1.486328 -1.367227,1.078993 -2.208139,2.859159 -2.199219,4.93164 v 2.376954 c 0,1.036082 0.402082,2.087253 1.167969,2.738281 0.765887,0.651028 1.712874,0.859375 2.609375,0.859375 a 1.6,1.6 0 0 0 1.599609,-1.59961 1.6,1.6 0 0 0 -1.599609,-1.599609 c -0.393199,0 -0.534219,-0.09686 -0.535156,-0.09766 -9.38e-4,-7.97e-4 -0.04297,0.05336 -0.04297,-0.300781 v -2.382813 a 1.60016,1.60016 0 0 0 0,-0.0078 c -0.0056,-1.296309 0.368674,-1.921891 0.982422,-2.40625 0.613748,-0.48436 1.624857,-0.796875 2.896484,-0.796875 1.41608,0 2.52824,0.3369 3.195313,0.841796 0.667072,0.504898 1.037109,1.123857 1.037109,2.369141 v 2.382813 c 0,0.264474 -0.06802,0.344446 -0.07813,0.355468 -0.0101,0.01102 0.01114,0.04297 -0.222656,0.04297 h -3.736328 a 1.6,1.6 0 0 0 -1.601563,1.599609 1.6,1.6 0 0 0 1.601563,1.59961 h 3.736328 c 0.971303,0 1.943061,-0.383106 2.582031,-1.080078 0.63897,-0.696973 0.919922,-1.616512 0.919922,-2.517578 v -2.382813 c 0,-2.057756 -0.886488,-3.845029 -2.306641,-4.919922 C 27.93538,18.292087 26.1296,17.874792 24.228579,17.874792 Z" fill="#008055"/>
</svg>
