<svg xmlns="http://www.w3.org/2000/svg" width="48" height="48">
	<path d="M 10.546875 4.1894531 A 1.7 1.7 0 0 0 8.8476562 5.8886719 A 1.7 1.7 0 0 0 10.546875 7.5878906 L 12.083984 7.5878906 L 12.083984 19.341797 L 10.884766 19.341797 A 1.7 1.7 0 0 0 9.1835938 21.041016 A 1.7 1.7 0 0 0 10.884766 22.742188 L 16.683594 22.742188 A 1.7 1.7 0 0 0 18.382812 21.041016 A 1.7 1.7 0 0 0 16.683594 19.341797 L 15.484375 19.341797 L 15.484375 5.9277344 A 1.7 1.7 0 0 0 15.484375 5.8886719 A 1.7 1.7 0 0 0 15.480469 5.7792969 A 1.7 1.7 0 0 0 13.783203 4.1894531 L 10.546875 4.1894531 z M 33.082031 8.6875 A 1.90019 1.90019 0 0 0 31.525391 9.4550781 L 24.056641 19.509766 A 1.90019 1.90019 0 0 0 25.349609 22.527344 C 26.71283 22.694845 28.031227 23.870614 28.474609 24.412109 A 1.9 1.9 0 0 0 31.148438 24.677734 A 1.9 1.9 0 0 0 31.414062 22.003906 C 30.881861 21.353937 29.928057 20.435838 28.632812 19.720703 L 33.050781 13.773438 L 37.494141 19.755859 C 34.062295 21.380093 31.150391 24.629679 31.150391 29.148438 L 31.150391 37.488281 A 1.9 1.9 0 0 0 33.050781 39.386719 A 1.9 1.9 0 0 0 34.951172 37.488281 L 34.951172 29.148438 C 34.951172 25.558706 37.962209 23.109998 40.902344 22.503906 A 1.90019 1.90019 0 0 0 42.044922 19.509766 L 34.576172 9.4550781 A 1.90019 1.90019 0 0 0 33.082031 8.6875 z M 12.681641 25.068359 C 11.20971 25.065963 9.7102105 25.539163 8.5292969 26.576172 C 7.3483833 27.613181 6.5722656 29.248503 6.5722656 31.125 A 1.8 1.8 0 0 0 8.3730469 32.923828 A 1.8 1.8 0 0 0 10.171875 31.125 C 10.171875 30.156712 10.472376 29.662253 10.90625 29.28125 C 11.340124 28.900247 11.994662 28.66686 12.675781 28.667969 C 13.3569 28.669078 14.015224 28.903813 14.451172 29.287109 C 14.887119 29.670406 15.183594 30.165971 15.183594 31.125 C 15.183594 32.026856 14.953513 32.471065 14.445312 33.033203 C 13.937114 33.595341 13.076812 34.183767 12.025391 34.837891 C 9.922547 36.146138 6.9819824 37.831865 5.6894531 41.398438 A 1.80018 1.80018 0 0 0 7.3808594 43.810547 L 17.832031 43.810547 A 1.8 1.8 0 0 0 19.632812 42.011719 A 1.8 1.8 0 0 0 17.832031 40.210938 L 10.785156 40.210938 C 11.674258 39.370976 12.723892 38.643481 13.927734 37.894531 C 15.012675 37.219554 16.155359 36.513131 17.117188 35.449219 C 18.079016 34.385306 18.785156 32.874169 18.785156 31.125 C 18.785156 29.253264 18.006965 27.620452 16.828125 26.583984 C 15.649285 25.547517 14.153572 25.070756 12.681641 25.068359 z " fill="#008055"/>
</svg>
