<svg xmlns="http://www.w3.org/2000/svg" width="48" height="48">
	<path d="m 10.548683,4.1884768 a 1.7,1.7 0 0 0 -1.7011726,1.7011715 1.7,1.7 0 0 0 1.7011726,1.699219 h 1.537109 V 19.34082 H 10.88462 a 1.7,1.7 0 0 0 -1.699219,1.701172 1.7,1.7 0 0 0 1.699219,1.699219 h 5.800781 A 1.7,1.7 0 0 0 18.38462,21.041992 1.7,1.7 0 0 0 16.685401,19.34082 H 15.484229 V 5.9267583 a 1.7,1.7 0 0 0 0,-0.03711 1.7,1.7 0 0 0 -0.0039,-0.109375 1.7,1.7 0 0 0 -1.695312,-1.5917965 z m 22.501953,4.5000005 a 1.9,1.9 0 0 0 -1.898438,1.9003897 v 8.337891 c 0,3.58973 -3.012983,6.040383 -5.953125,6.646484 a 1.90019,1.90019 0 0 0 -1.142578,2.992188 l 7.46875,10.05664 a 1.90019,1.90019 0 0 0 3.050781,0 l 7.46875,-10.05664 a 1.90019,1.90019 0 0 0 -1.292969,-3.017579 c -1.363232,-0.167509 -2.681629,-1.343278 -3.125,-1.884765 a 1.9,1.9 0 0 0 -2.673828,-0.265625 1.9,1.9 0 0 0 -0.265625,2.673828 c 0.53221,0.649987 1.486008,1.56807 2.78125,2.283203 l -4.417968,5.947266 -4.44336,-5.982422 c 3.432438,-1.624001 6.34375,-4.873223 6.34375,-9.392578 V 10.588867 A 1.9,1.9 0 0 0 33.050636,8.6884773 Z M 12.681495,25.067383 c -1.47193,-0.0024 -2.969477,0.470805 -4.1503908,1.507812 -1.1809138,1.037007 -1.9570313,2.672333 -1.9570313,4.548828 a 1.8,1.8 0 0 0 1.7988281,1.800782 1.8,1.8 0 0 0 1.800781,-1.800782 c 0,-0.968284 0.298549,-1.462748 0.732422,-1.84375 0.433874,-0.381001 1.088412,-0.612437 1.769532,-0.611328 0.681119,0.0011 1.339443,0.235845 1.77539,0.619141 0.435948,0.383296 0.734375,0.876912 0.734375,1.835937 0,0.901856 -0.230081,1.348019 -0.738281,1.910157 -0.5082,0.562137 -1.3685,1.150563 -2.419922,1.804687 -2.1028431,1.308248 -5.0453614,2.992022 -6.3378907,6.558594 a 1.80018,1.80018 0 0 0 1.6933594,2.414062 H 17.833839 a 1.8,1.8 0 0 0 1.798828,-1.800781 1.8,1.8 0 0 0 -1.798828,-1.798828 h -7.048828 c 0.889122,-0.840017 1.938679,-1.567421 3.142578,-2.316406 1.084941,-0.674978 2.227624,-1.383353 3.189453,-2.447266 0.961828,-1.063912 1.667969,-2.575049 1.667969,-4.324219 0,-1.871734 -0.778191,-3.502597 -1.957032,-4.539062 -1.17884,-1.036466 -2.674554,-1.515182 -4.146484,-1.517578 z" fill="#008055"/>
</svg>
