<svg xmlns="http://www.w3.org/2000/svg" width="48" height="48">
	<path d="M 29.473586,1.9202707 C 22.475281,1.8611955 16.681778,5.8829489 14.520462,11.859724 a 1.70017,1.70017 0 0 0 -0.01367,0.04492 c -1.600775,4.834419 -1.005354,8.708489 -0.570313,11.566406 0.217521,1.428959 0.37393,2.602619 0.296875,3.523438 -0.07667,0.916163 -0.30588,1.585981 -1.019531,2.402343 l -9.0820306,9.445313 c -1.777134,1.817352 -1.734284,4.510426 -0.341797,6.015625 1.392487,1.505199 4.097219,1.729983 5.988281,0.05664 a 1.70017,1.70017 0 0 0 0.074219,-0.07031 L 19.60054,35.117536 a 1.7,1.7 0 0 0 0.002,-2.404296 1.7,1.7 0 0 0 -2.404297,-0.0039 l -9.6816406,9.66211 c -0.786587,0.691682 -1.008697,0.419568 -1.232422,0.177734 -0.224762,-0.242956 -0.491769,-0.541561 0.279297,-1.330078 a 1.70017,1.70017 0 0 0 0.00977,-0.0098 l 9.1347656,-9.5 a 1.70017,1.70017 0 0 0 0.05273,-0.05664 c 1.179028,-1.341847 1.735496,-2.894628 1.859375,-4.375 0.123879,-1.480373 -0.103724,-2.88269 -0.322266,-4.31836 -0.43583,-2.863104 -0.91715,-5.865932 0.427735,-9.953125 2.049885,-5.6517741 8.019638,-9.1455309 15.617187,-7.1523441 0,0 0.002,0.002 0.002,0.002 6.902604,1.868968 9.889428,8.8687251 7.91211,15.6953121 -1.307737,3.651036 -3.71808,6.005201 -6.886719,7.269531 -3.184141,1.270516 -7.178991,1.386383 -11.431641,0.1875 a 1.7,1.7 0 0 0 -2.097656,1.175782 1.7,1.7 0 0 0 1.173828,2.095703 c 4.84075,1.364677 9.596125,1.302898 13.615234,-0.300782 4.01911,-1.603678 7.250698,-4.808207 8.855469,-9.341796 a 1.70017,1.70017 0 0 0 0.0293,-0.08984 C 46.966947,14.16657 43.015261,4.9470736 34.231399,2.5706613 a 1.70017,1.70017 0 0 0 -0.01172,-0.00195 C 33.090461,2.2716338 31.976913,2.0800405 30.887649,1.9866769 30.411096,1.9458303 29.94014,1.924209 29.473586,1.9202707 Z M 22.768508,15.762068 a 1.9,1.9 0 0 0 -1.90039,1.90039 1.9,1.9 0 0 0 1.90039,1.900391 h 13.273438 a 1.9,1.9 0 0 0 1.90039,-1.900391 1.9,1.9 0 0 0 -1.90039,-1.90039 z" fill="#008055"/>
</svg>
