<svg xmlns="http://www.w3.org/2000/svg" width="48" height="48">
	<path d="M 29.471952,1.9192511 C 22.473861,1.8603905 16.682097,5.8838814 14.52078,11.860658 a 1.70017,1.70017 0 0 0 -0.01563,0.04492 c -1.600774,4.834419 -1.0034,8.706536 -0.568359,11.564453 0.21752,1.428959 0.371977,2.60262 0.294922,3.523438 -0.07686,0.918491 -0.305485,1.590972 -1.023438,2.410156 -0.0018,0.0021 -0.0021,0.0038 -0.0039,0.0059 l -9.0722659,9.43164 c -0.00174,0.0018 -0.00217,0.0041 -0.00391,0.0059 -1.7718411,1.817287 -1.7309685,4.507992 -0.3398438,6.011718 1.3924873,1.5052 4.0991724,1.729984 5.9902344,0.05664 a 1.70017,1.70017 0 0 0 0.074219,-0.07031 l 9.7460933,-9.728515 a 1.7,1.7 0 0 0 0.0039,-2.402344 1.7,1.7 0 0 0 -2.404296,-0.0039 L 7.5168738,42.372376 C 6.7302866,43.064059 6.5081769,42.791945 6.2844519,42.550111 6.059689,42.307155 5.792682,42.00855 6.5637488,41.220032 a 1.70017,1.70017 0 0 0 0.00977,-0.01172 L 15.70828,31.710267 a 1.70017,1.70017 0 0 0 0.05078,-0.05664 c 1.179029,-1.341846 1.737449,-2.89658 1.861328,-4.376953 0.12388,-1.480373 -0.103723,-2.882689 -0.322265,-4.318359 -0.436057,-2.864591 -0.917796,-5.866588 0.429687,-9.957032 2.053145,-5.6503887 8.025498,-9.1428896 15.625,-7.1445309 0,0 0.002,0 0.002,0 6.896912,1.8733174 9.879034,8.8746489 7.90039,15.6992189 -1.308095,3.648569 -3.71933,6.001794 -6.886719,7.265625 -3.184141,1.270516 -7.17899,1.386383 -11.43164,0.1875 a 1.7,1.7 0 0 0 -2.097657,1.173828 1.7,1.7 0 0 0 1.175782,2.097656 c 4.84075,1.364677 9.594172,1.300945 13.613281,-0.302734 4.019109,-1.603679 7.252651,-4.806254 8.857422,-9.339844 a 1.70017,1.70017 0 0 0 0.0293,-0.08984 C 46.967265,14.167504 43.013626,4.9480072 34.229765,2.5715949 a 1.70017,1.70017 0 0 0 -0.01172,-0.00391 C 33.088826,2.2706142 31.975278,2.079021 30.886015,1.9856574 30.409462,1.9448108 29.938491,1.9231752 29.471952,1.9192511 Z m -2.386719,6.9238282 a 1.8,1.8 0 0 0 -1.800781,1.7988287 1.8,1.8 0 0 0 1.800781,1.800781 h 0.802735 v 9.746093 h -0.53125 a 1.8,1.8 0 0 0 -1.800782,1.800782 1.8,1.8 0 0 0 1.800782,1.800781 H 32.02078 A 1.8,1.8 0 0 0 33.821561,23.989564 1.8,1.8 0 0 0 32.02078,22.188782 H 31.48953 V 10.64972 a 1.8,1.8 0 0 0 0,-0.0078 1.8,1.8 0 0 0 -0.0039,-0.113282 1.8,1.8 0 0 0 -1.677735,-1.6816405 1.8,1.8 0 0 0 -0.113281,-0.00391 1.8,1.8 0 0 0 -0.0059,0 z" fill="#008055"/>
</svg>
