<svg xmlns="http://www.w3.org/2000/svg" width="48" height="48">
	<path d="M 29.47314,1.9197862 C 22.475103,1.8609281 16.68337,5.884403 14.521968,11.861192 a 1.70017,1.70017 0 0 0 -0.01563,0.04297 c -1.600776,4.834397 -1.005367,8.708475 -0.570313,11.566406 0.217527,1.428966 0.37392,2.602612 0.296875,3.523438 -0.07685,0.918501 -0.305506,1.590981 -1.023437,2.410156 -0.0018,0.0021 -0.0021,0.0038 -0.0039,0.0059 l -9.072266,9.431641 c -1.7771766,1.817347 -1.7362338,4.512363 -0.34375,6.017578 1.3924838,1.505215 4.0972229,1.728034 5.9882812,0.05469 a 1.70017,1.70017 0 0 0 0.074219,-0.07031 l 9.7480468,-9.726562 a 1.7,1.7 0 0 0 0.002,-2.404297 1.7,1.7 0 0 0 -2.404296,-0.002 L 7.5180616,42.370958 C 6.7314457,43.062681 6.5073929,42.792462 6.2836866,42.550645 6.0589454,42.30771 5.79186,42.007167 6.5629835,41.218614 a 1.70017,1.70017 0 0 0 0.00977,-0.0098 l 9.1347655,-9.5 a 1.70017,1.70017 0 0 0 0.05273,-0.05469 c 1.179005,-1.341849 1.735514,-2.896582 1.859374,-4.376953 0.123863,-1.480371 -0.103717,-2.882688 -0.322265,-4.31836 -0.435686,-2.86208 -0.917306,-5.864301 0.425781,-9.949218 0.574472,-1.584937 1.467031,-2.991766 2.607422,-4.1640627 -0.649887,0.737149 -1.003906,1.7791007 -1.003906,2.8906247 v 11.660156 c 0,1.0808 0.416394,2.141667 1.185547,2.882813 0.769153,0.741146 1.847144,1.130859 2.974609,1.130859 a 1.599995,1.599995 0 0 0 1.599609,-1.599609 1.599995,1.599995 0 0 0 -1.599609,-1.599609 c -0.430235,0 -0.632584,-0.119424 -0.753906,-0.236329 -0.121322,-0.116904 -0.207032,-0.263125 -0.207032,-0.578125 V 11.736192 c 0,-0.609316 0.123454,-0.707196 0.212891,-0.785156 0.08944,-0.07796 0.321799,-0.185547 0.748047,-0.185547 H 35.44775 c 0.449155,0 0.54112,0.08732 0.59375,0.142578 0.05263,0.05526 0.183593,0.23817 0.183593,0.828125 v 11.660156 c 0,0.719931 -0.153364,0.814454 -0.777343,0.814454 h -7.808594 a 1.599995,1.599995 0 0 0 -1.59961,1.599609 1.599995,1.599995 0 0 0 1.59961,1.599609 h 7.808594 c 2.113019,0 3.978515,-1.816002 3.978515,-4.013672 V 11.736192 c 0,-1.133345 -0.306789,-2.2355397 -1.068359,-3.0351557 C 37.596335,7.9014198 36.499594,7.5662705 35.44775,7.5662705 H 23.486812 c -0.955952,0 -2.004696,0.2361669 -2.849609,0.9726558 -0.08276,0.07214 -0.158974,0.152011 -0.234375,0.232422 2.932761,-2.9601327 7.521342,-4.3413826 12.949218,-2.9140621 0,0 0.002,0 0.002,0 6.895602,1.8729965 9.878716,8.8720418 7.902343,15.6953118 -1.307688,3.651023 -3.718077,6.003245 -6.886719,7.267578 -3.184143,1.27052 -7.179043,1.386354 -11.43164,0.1875 a 1.7,1.7 0 0 0 -2.097656,1.175782 1.7,1.7 0 0 0 1.173828,2.097656 c 4.840703,1.364647 9.596127,1.300947 13.615234,-0.302734 4.019107,-1.603682 7.252701,-4.808195 8.857422,-9.341797 a 1.70017,1.70017 0 0 0 0.02734,-0.08984 C 46.966505,14.166137 43.014813,4.9485864 34.230953,2.5721299 a 1.70017,1.70017 0 0 0 -0.01172,-0.00391 C 33.090026,2.2711501 31.976458,2.0795552 30.887203,1.9861924 30.410654,1.9453462 29.939676,1.92371 29.47314,1.9197862 Z" fill="#008055"/>
</svg>
