<svg xmlns="http://www.w3.org/2000/svg" width="48" height="48">
	<path d="M 29.472255,1.9198103 C 22.474164,1.8609496 16.6824,5.8844412 14.521083,11.861216 a 1.70017,1.70017 0 0 0 -0.01563,0.04297 c -1.600774,4.834419 -1.005353,8.708489 -0.570312,11.566406 0.21752,1.428959 0.37393,2.60262 0.296875,3.523438 -0.07705,0.920818 -0.305072,1.592049 -1.027344,2.414062 l -9.0722657,9.433594 c -1.7771333,1.817353 -1.7362372,4.512379 -0.34375,6.017578 1.3924871,1.505199 4.0972188,1.728031 5.9882816,0.05469 a 1.70017,1.70017 0 0 0 0.074218,-0.07031 l 9.7480471,-9.726562 a 1.7,1.7 0 0 0 0.002,-2.404297 1.7,1.7 0 0 0 -2.402343,-0.002 L 7.5171769,42.370982 C 6.7305806,43.062677 6.5084811,42.790551 6.284755,42.548716 6.0599922,42.305761 5.791032,42.007156 6.5620988,41.218638 a 1.70017,1.70017 0 0 0 0.00977,-0.0098 l 9.1347652,-9.5 a 1.70017,1.70017 0 0 0 0.05274,-0.05664 c 1.179028,-1.341846 1.737448,-2.894627 1.861328,-4.375 0.123879,-1.480373 -0.105677,-2.882689 -0.324219,-4.318359 -0.4359,-2.863563 -0.915998,-5.866884 0.429687,-9.955078 2.05132,-5.6493068 8.019567,-9.1430848 15.615235,-7.1503908 0,0 0.002,0.002 0.002,0.002 6.903917,1.869324 9.891695,8.8714008 7.912109,15.6992188 -1.30809,3.648599 -3.719313,6.001787 -6.886719,7.265625 -3.18414,1.270515 -7.17899,1.386383 -11.43164,0.1875 a 1.7,1.7 0 0 0 -2.097656,1.175781 1.7,1.7 0 0 0 1.173828,2.097656 c 4.84075,1.364677 9.596125,1.300945 13.615234,-0.302734 4.019109,-1.603679 7.252651,-4.808208 8.857422,-9.341797 a 1.70017,1.70017 0 0 0 0.0293,-0.08984 C 46.967568,14.166109 43.01393,4.9466132 34.230068,2.570201 a 1.70017,1.70017 0 0 0 -0.01172,-0.00195 C 33.08913,2.2711735 31.975581,2.0795802 30.886318,1.9862166 30.409765,1.94537 29.938795,1.9237344 29.472255,1.9198103 Z m -0.06836,7.2050779 a 1.9,1.9 0 0 0 -1.900391,1.9003908 v 4.738281 h -4.736328 a 1.9,1.9 0 0 0 -1.900391,1.898438 1.9,1.9 0 0 0 1.900391,1.90039 h 4.736328 v 4.738281 a 1.9,1.9 0 0 0 1.900391,1.898438 1.9,1.9 0 0 0 1.90039,-1.898438 v -4.738281 h 4.736329 a 1.9,1.9 0 0 0 1.90039,-1.90039 1.9,1.9 0 0 0 -1.90039,-1.898438 h -4.736329 v -4.738281 a 1.9,1.9 0 0 0 -1.90039,-1.9003908 z" fill="#008055"/>
</svg>
