<svg xmlns="http://www.w3.org/2000/svg" width="48" height="48">
	<path d="M 47.161866,29.031581 A 4.0004,4.0004 0 0 0 45.062257,25.609706 C 44.172123,25.12974 43.447626,24.690937 42.882569,24.340175 42.317512,23.989413 42.39387,23.889692 41.218507,23.373378 a 4,4 0 0 0 -5.271484,2.052735 4,4 0 0 0 1.326172,4.855468 l -3.820313,5.044922 -3.453125,-4.558594 c 4.143922,-2.523807 7.453125,-6.772418 7.453125,-12.486328 v -5.509765 a 4,4 0 0 0 -4,-3.9999996 4,4 0 0 0 -4,3.9999996 v 5.509765 c 0,3.67753 -3.261691,6.272157 -6.503906,6.927735 a 4.0004,4.0004 0 0 0 -2.396484,6.335937 l 9.710937,12.822266 a 4.0004,4.0004 0 0 0 6.378907,0 l 9.710936,-12.822266 a 4.0004,4.0004 0 0 0 0.808594,-2.513672 z M 28.25757,18.805019 a 4.0004,4.0004 0 0 0 -0.810547,-2.34961 L 17.736086,3.6311914 a 4.0004,4.0004 0 0 0 -6.376954,0 L 1.6481947,16.455409 a 4.0004,4.0004 0 0 0 1.289062,5.935547 c 0.890133,0.479967 1.614632,0.916817 2.179688,1.267579 0.565056,0.350761 0.490666,0.452438 1.666015,0.96875 A 4,4 0 0 0 12.052492,22.572597 4,4 0 0 0 10.72632,17.717128 l 3.822266,-5.044922 3.451171,4.558594 c -4.143921,2.523808 -7.453125,6.772419 -7.453125,12.486328 v 5.509766 a 4,4 0 0 0 4,4 4,4 0 0 0 4,-4 v -5.509766 c 0,-3.677528 3.261693,-6.270204 6.503907,-6.925781 a 4.0004,4.0004 0 0 0 3.207031,-3.986328 z" fill="#ffaa00"/>
</svg>
