<svg xmlns="http://www.w3.org/2000/svg" width="48" height="48">
	<path d="m 9.5654304,5.4843752 c -2.037059,0 -4.2536036,0.6388696 -5.8085937,2.2343746 C 2.2018465,9.3142558 1.6435554,11.469778 1.6435554,13.41211 l -0.035156,20.59375 a 4.0004,4.0004 0 0 0 0,0.0078 c 0,1.972642 0.557794,3.988679 1.9082031,5.648438 1.3504091,1.659759 3.5865432,2.783323 5.8964844,2.851562 A 4,4 0 0 0 13.528321,38.634766 4,4 0 0 0 9.7060554,34.519532 c -0.016777,-0.03593 -0.095529,-0.14532 -0.097656,-0.5 v -0.0059 L 9.6435554,13.484375 H 38.391603 v 20.529297 c 0,0.503399 -0.02267,0.458027 -0.0332,0.501953 H 18.293946 a 4,4 0 0 0 -4,4 4,4 0 0 0 4,4 h 20.15625 c 2.264327,0 4.679028,-0.973596 6.105469,-2.732421 1.426441,-1.758827 1.835938,-3.836378 1.835938,-5.769532 V 13.41211 c 0,-2.12505 -0.798496,-4.3040102 -2.337891,-5.7832032 C 42.514317,6.1497128 40.433569,5.4843752 38.450196,5.4843752 Z M 19.948243,13.808594 c -0.627746,0.02748 -1.26922,0.184749 -1.873047,0.521484 -1.610205,0.897962 -2.279297,2.694 -2.279297,4.076172 v 4.007813 a 3.5,3.5 0 0 0 3.5,3.5 3.5,3.5 0 0 0 3.488282,-3.240235 l 2.339843,1.373047 -4.238281,2.490235 a 3.5,3.5 0 0 0 -1.589844,-0.382813 3.5,3.5 0 0 0 -3.5,3.5 c 0,1.371146 0.612042,3.107468 2.185547,4.046875 1.573505,0.939408 3.543087,0.613011 4.748047,-0.130859 l 9.5,-5.576172 -0.109375,0.0625 c 1.110278,-0.599602 2.525656,-1.865258 2.570313,-3.916016 0.04466,-2.050757 -1.390436,-3.446911 -2.525391,-4.076171 l -9.492187,-5.574219 0.06641,0.04102 c -0.587664,-0.362784 -1.35239,-0.637041 -2.169922,-0.708984 -0.204383,-0.01799 -0.411845,-0.02283 -0.621094,-0.01367 z" fill="#ffaa00"/>
</svg>
