<svg xmlns="http://www.w3.org/2000/svg" width="48" height="48">
	<path d="m 11.751953,7.2850735 a 4.5,4.5 0 0 0 -3.1484371,1.318359 4.5,4.5 0 0 0 0,6.3632805 l 9.0332031,9.033203 -9.0332031,9.033204 a 4.5,4.5 0 0 0 0,6.363281 4.5,4.5 0 0 0 6.3652341,0 L 24,30.363198 l 9.033203,9.033203 a 4.5,4.5 0 0 0 6.363281,0 4.5,4.5 0 0 0 0,-6.363281 l -9.033203,-9.033204 9.033203,-9.033203 a 4.5,4.5 0 0 0 0,-6.3632805 4.5,4.5 0 0 0 -3.214843,-1.318359 4.5,4.5 0 0 0 -3.148438,1.318359 L 24,17.636635 14.96875,8.6034325 a 4.5,4.5 0 0 0 -3.216797,-1.318359 z" fill="#ffaa00"/>
</svg>
