<svg xmlns="http://www.w3.org/2000/svg" width="48" height="48">
	<path d="M 24.101612,1.7737933 C 21.077356,1.7423823 18.363257,2.70548 16.25005,4.2347308 c -2.124361,1.5373226 -3.919905,3.6934646 -4.041016,6.7539062 -0.0017,0.05272 -0.0023,0.105461 -0.002,0.158203 v 6.37265 c 0,0 -2.342198,0.695384 -3.794922,2.43399 -1.305404,1.621255 -1.835937,3.574858 -1.835937,5.480469 -4e-6,0.0033 -4e-6,0.0065 0,0.0098 l 0.0332,13.046875 c 0,1.873688 0.529675,3.970076 2.041015,5.537109 1.51134,1.567033 3.683181,2.199219 5.650391,2.199219 H 33.71289 c 1.924326,0 3.958877,-0.658451 5.453125,-2.109375 1.494249,-1.450924 2.257813,-3.572239 2.257813,-5.626953 V 25.433949 c 0,-1.861448 -0.385737,-3.873949 -1.767578,-5.595703 -1.381842,-1.721754 -3.75056,-2.6875 -5.94336,-2.6875 h -8.697265 c -2.209139,0 -4,1.790861 -4,4 0,2.209139 1.790861,4 4,4 h 8.404297 c 0.02378,0.09417 0.0039,-0.04121 0.0039,0.283203 V 38.226918 H 14.609425 l -0.0332,-12.792969 c 0,-0.231463 0.01798,-0.219716 0.04102,-0.283203 h 1.589844 c 2.209048,-2.21e-4 3.999779,-1.790952 4,-4 v -9.841797 c -0.01735,0.449774 0.01705,-0.07411 0.732422,-0.591797 0.731234,-0.529167 1.895302,-0.9678316 3.095703,-0.9511716 0.0293,3.22e-4 0.05859,3.22e-4 0.08789,0 1.34789,-0.01082 2.417291,0.4618706 3.089844,0.9882816 0.672554,0.52641 0.64422,1.183198 0.638672,0.421875 v 1.230468 c 0,2.209139 1.790861,4 4,4 2.209139,0 4,-1.790861 4,-4 V 11.14684 c 3.6e-5,-0.0098 3.6e-5,-0.01953 0,-0.0293 C 35.82977,8.1192174 34.204667,6.0674374 32.142636,4.4534774 30.090523,2.8472903 27.301667,1.7588465 24.101612,1.7737933 Z" fill="#ffaa00"/>
</svg>
