<svg xmlns="http://www.w3.org/2000/svg" width="48" height="48">
	<path d="M 29.031581,0.83813351 A 4.0004,4.0004 0 0 0 25.609706,2.9377429 c -0.479966,0.8901333 -0.918769,1.6146307 -1.269531,2.1796875 -0.350762,0.5650569 -0.450483,0.488699 -0.966797,1.6640625 a 4,4 0 0 0 2.052735,5.2714841 4,4 0 0 0 4.855468,-1.326172 l 5.044922,3.820313 -4.558594,3.453125 C 28.244102,13.856321 23.995491,10.547118 18.281581,10.547118 h -5.509765 a 4,4 0 0 0 -3.9999997,4 4,4 0 0 0 3.9999997,4 h 5.509765 c 3.67753,0 6.272157,3.261691 6.927735,6.503906 a 4.0004,4.0004 0 0 0 6.335937,2.396484 l 12.822266,-9.710937 a 4.0004,4.0004 0 0 0 0,-6.378907 L 31.545253,1.6467273 A 4.0004,4.0004 0 0 0 29.031581,0.83813351 Z M 18.805019,19.74243 a 4.0004,4.0004 0 0 0 -2.34961,0.810547 L 3.6311913,30.263914 a 4.0004,4.0004 0 0 0 0,6.376954 l 12.8242177,9.710937 a 4.0004,4.0004 0 0 0 5.935547,-1.289062 c 0.479967,-0.890133 0.916817,-1.614632 1.267579,-2.179688 0.350761,-0.565056 0.452438,-0.490666 0.96875,-1.666015 A 4,4 0 0 0 22.572597,35.947508 4,4 0 0 0 17.717128,37.27368 L 12.672206,33.451414 17.2308,30.000243 c 2.523808,4.143921 6.772419,7.453125 12.486328,7.453125 h 5.509766 a 4,4 0 0 0 4,-4 4,4 0 0 0 -4,-4 h -5.509766 c -3.677528,0 -6.270204,-3.261693 -6.925781,-6.503907 A 4.0004,4.0004 0 0 0 18.805019,19.74243 Z" fill="#ffaa00"/>
</svg>
