<svg xmlns="http://www.w3.org/2000/svg" width="48" height="48">
	<path d="m 39.469836,1.1121356 c -0.66714,-0.00813 -1.308245,0.081077 -1.882812,0.2148437 a 4.0004,4.0004 0 0 0 -0.148438,0.039063 l -16.636719,4.5546872 0.117188,-0.0293 c -2.022702,0.488526 -3.980837,1.485055 -5.414063,3.152344 -1.433225,1.6672895 -2.173828,3.9215575 -2.173828,6.1621095 a 4.0004,4.0004 0 0 0 0,0.002 l 0.0078,20.742187 c -0.01136,2.367107 -0.114657,2.06763 -0.822266,2.652344 -0.499311,0.40592 -1.191855,0.197468 -1.328125,0.08594 -0.600724,-0.491678 -0.412539,-1.000466 -0.271484,-1.242187 0.281381,-0.3575 0.623047,-0.697266 0.623047,-0.697266 A 4,4 0 0 0 12.02843,31.112135 4,4 0 0 0 6.393664,30.623854 c 0,0 -1.0953988,0.893999 -2.0820312,2.28125 A 4.0004,4.0004 0 0 0 4.206164,33.059401 c -2.2489903,3.497376 -1.8810394,8.710558 1.9160157,11.81836 3.199655,2.618769 8.0166843,2.787089 11.5234373,-0.132813 a 4.0004,4.0004 0 0 0 0.05664,-0.04688 c 1.730288,-1.496106 3.617275,-4.657462 3.636719,-8.708984 a 4.0004,4.0004 0 0 0 0,-0.02148 l -0.0078,-20.763672 c 4.42e-4,-0.677857 0.115093,-0.799734 0.240235,-0.945312 0.125384,-0.145861 0.429751,-0.399822 1.224609,-0.591797 a 4.0004,4.0004 0 0 0 0.117187,-0.0293 L 37.95227,9.5183821 a 4,4 0 0 0 3.232422,1.6464849 4,4 0 0 0 4,-3.9999999 c 0,-1.5909343 -0.601208,-3.7020997 -2.333985,-4.966797 C 41.984308,1.5657244 41.051311,1.2594372 40.143664,1.1551043 39.916753,1.1290211 39.692216,1.114847 39.469836,1.1121356 Z M 38.753039,11.516432 c -0.909437,-0.03345 -1.811988,0.08345 -2.623047,0.300782 a 4.0004,4.0004 0 0 0 -0.01758,0.0039 l -11.0625,3.019531 a 4,4 0 0 0 -2.804687,4.910156 4,4 0 0 0 4.910156,2.806641 l 10,-2.728516 0.0078,10.970703 c -0.01143,2.381879 -0.125886,2.109741 -0.738281,2.582032 -0.355465,0.272732 -0.987954,0.497526 -1.425781,0.142578 -0.610455,-0.494896 -0.388898,-1.040395 -0.246094,-1.269531 0.139703,-0.193207 0.353516,-0.404297 0.353516,-0.404297 a 4,4 0 0 0 0.71289,-5.611328 4,4 0 0 0 -5.611328,-0.712891 c 0,0 -1.169037,0.864686 -2.144531,2.332031 a 4.0004,4.0004 0 0 0 -0.0332,0.05078 c -2.248034,3.495888 -1.897861,8.727084 1.929688,11.830078 3.706538,3.004905 8.493107,2.225123 11.419921,-0.07227 a 4.0004,4.0004 0 0 0 0.06055,-0.04883 c 1.884748,-1.539601 3.703319,-4.751857 3.722656,-8.78125 a 4.0004,4.0004 0 0 0 0,-0.02148 l -0.0078,-11.798829 a 4.0004,4.0004 0 0 0 0,-0.04492 c -0.02286,-1.861208 -0.302686,-4.04908 -2.177734,-5.820313 -0.937524,-0.885616 -2.109445,-1.364251 -3.316407,-1.548828 -0.30174,-0.04614 -0.605057,-0.07479 -0.908203,-0.08594 z" fill="#ffaa00"/>
</svg>
