<svg xmlns="http://www.w3.org/2000/svg" width="48" height="48">
	<path d="M 12.1437,8.3122593 C 8.4588292,8.4110193 4.8749936,10.65625 2.9913561,14.282962 -0.43187296,20.756273 0.16039542,28.196954 2.7022936,33.486087 a 4.0572367,4.0572367 0 0 0 0.013672,0.02734 c 1.8977164,3.875618 5.7439326,6.249813 9.5917964,6.173828 3.847863,-0.07598 7.489289,-2.407989 9.529297,-6.109375 a 4.0572367,4.0572367 0 0 0 0.03906,-0.07422 c 2.848494,-5.43203 3.550883,-13.178607 -0.271485,-19.71289 a 4.0572367,4.0572367 0 0 0 -0.002,-0.0039 C 19.53618,10.265309 15.837382,8.2132613 12.1437,8.3122593 Z m 16.90039,0.04297 a 4,4 0 0 0 -4,3.9999997 v 23.335937 a 4,4 0 0 0 4,4 4,4 0 0 0 4,-4 v -6.214844 l 7.267578,8.767579 a 4,4 0 0 0 5.632813,0.52539 4,4 0 0 0 0.525391,-5.632812 l -7.550782,-9.107423 7.552735,-9.123047 a 4,4 0 0 0 -0.529297,-5.6328117 4,4 0 0 0 -2.476563,-0.917969 4,4 0 0 0 -3.15625,1.449219 L 33.04409,18.579837 v -6.224609 a 4,4 0 0 0 -4,-3.9999997 z M 12.360497,16.423588 c 0.731444,-0.0196 1.518311,0.233805 2.24414,1.470703 1.917873,3.283379 1.467933,9.139776 0.09961,11.794922 -0.824069,1.467508 -1.821853,1.872209 -2.556641,1.886719 -0.738726,0.01458 -1.417357,-0.164795 -2.134766,-1.619141 -1.2352003,-2.584176 -1.6593866,-8.465423 0.154297,-11.888672 a 4.0572367,4.0572367 0 0 0 0.01953,-0.03906 c 0.669481,-1.296955 1.442386,-1.585865 2.173829,-1.605469 z" fill="#ffaa00"/>
</svg>
