<svg xmlns="http://www.w3.org/2000/svg" width="48" height="48">
	<path d="m 26.126953,4.793946 c -2.781727,0 -4.614222,1.7278429 -5.675781,3.1523437 -1.06156,1.4245008 -1.658046,2.8573733 -2.029297,4.2128903 a 4,4 0 0 0 2.802734,4.914063 4,4 0 0 0 4.914063,-2.800782 c 0.111786,-0.408155 0.444902,-1.117872 0.695312,-1.478515 h 4.314453 c 0.228668,0.343409 0.539352,0.99094 0.666016,1.460937 a 4.0004,4.0004 0 0 0 3.861328,2.960938 H 38.84375 V 35.206055 H 9.6406251 c -0.48705,0 -0.431333,-0.01722 -0.484375,-0.03125 V 17.29004 c 0.041346,-0.01934 0.073287,-0.07422 0.484375,-0.07422 h 4.0839839 a 4,4 0 0 0 4,-4 4,4 0 0 0 -4,-4 H 9.6406251 c -2.063807,0 -4.1453954,0.5888661 -5.8007815,1.986328 -1.6553861,1.397462 -2.6835937,3.653573 -2.6835937,5.896484 v 18.203125 c 0,2.256214 0.9777361,4.667241 2.734375,6.083985 1.7566388,1.416744 3.8255452,1.820312 5.7500002,1.820312 H 38.93164 c 2.115149,0 4.284668,-0.787726 5.763672,-2.318359 1.479004,-1.530634 2.148438,-3.608889 2.148438,-5.585938 V 17.098633 c 0,-2.02854 -0.64313,-4.243046 -2.238281,-5.789062 C 43.010316,9.7635552 40.865136,9.215821 38.93164,9.215821 H 38.287109 C 38.045235,8.7808684 37.839509,8.3461421 37.517578,7.9130866 36.454927,6.4836271 34.587068,4.793946 31.86914,4.793946 Z m 3.03125,11.136719 c -3.369756,-0.0618 -6.691306,1.659444 -8.464844,4.755859 -2.341966,4.088832 -1.109153,9.157176 2.490234,12.003906 a 3.4952425,3.5047611 85.000078 0 0 1.039063,0.910157 3.4952425,3.5047611 85.000078 0 0 0.01367,0.0078 3.4952425,3.5047611 85.000078 0 0 0.0059,0.0039 3.4952425,3.5047611 85.000078 0 0 1.310547,0.425782 c 4.288847,1.641175 9.29274,0.121883 11.630859,-3.96875 2.575638,-4.506182 0.974257,-10.340861 -3.541015,-12.910157 -1.411023,-0.802905 -2.952668,-1.200423 -4.484375,-1.228515 z m -0.419922,6.96289 c 0.473054,-0.03191 0.967196,0.07583 1.427734,0.337891 1.228104,0.69882 1.626673,2.154132 0.927735,3.376953 -0.698635,1.222291 -2.156368,1.624203 -3.384766,0.927734 a 3.4952425,3.5047611 85.000078 0 1 -0.002,-0.002 3.4952425,3.5047611 85.000078 0 1 -0.002,-0.002 c -1.227475,-0.699918 -1.625819,-2.156712 -0.925781,-3.378906 0.437523,-0.763871 1.170561,-1.206578 1.958984,-1.259766 z" fill="#ffaa00"/>
</svg>
