<svg xmlns="http://www.w3.org/2000/svg" width="48" height="48">
	<path d="M 24 3.5273438 A 4 4 0 0 0 20 7.5273438 L 20 17.050781 L 11.830078 12.304688 A 4 4 0 0 0 9.7402344 11.763672 A 4 4 0 0 0 6.3632812 13.753906 A 4 4 0 0 0 7.8125 19.222656 L 16.037109 24 L 7.8125 28.777344 A 4 4 0 0 0 6.3632812 34.246094 A 4 4 0 0 0 11.830078 35.695312 L 20 30.949219 L 20 40.472656 A 4 4 0 0 0 24 44.472656 A 4 4 0 0 0 28 40.472656 L 28 30.949219 L 36.169922 35.695312 A 4 4 0 0 0 41.636719 34.246094 A 4 4 0 0 0 40.1875 28.777344 L 31.962891 24 L 40.1875 19.222656 A 4 4 0 0 0 41.636719 13.753906 A 4 4 0 0 0 38.152344 11.763672 A 4 4 0 0 0 36.169922 12.304688 L 28 17.050781 L 28 7.5273438 A 4 4 0 0 0 24 3.5273438 z " fill="#ffaa00"/>
</svg>
