<svg xmlns="http://www.w3.org/2000/svg" width="48" height="48">
	<path d="m 16.513672,3.582781 c -3.967271,0 -7.7435889,1.311355 -10.453125,3.953125 -2.7095363,2.64177 -4.154297,6.473739 -4.154297,10.609375 0,10.854841 7.63225,18.703778 16.068359,24.257812 a 4.3004302,4.3004302 0 0 0 0.0059,0.002 c 1.854457,1.217504 3.95843,2.033033 6.154296,2.011718 2.190037,-0.02126 4.14494,-0.867724 5.726563,-1.908203 l 0.0039,-0.002 C 38.370334,36.940984 46.09375,29.068165 46.09375,18.145281 46.09375,14.009647 44.647037,10.177677 41.9375,7.535906 39.227962,4.894135 35.453606,3.582781 31.486328,3.582781 a 4.3000002,4.3000002 0 0 0 -4.300781,4.298828 4.3000002,4.3000002 0 0 0 4.300781,4.300781 c 2.158272,0 3.536144,0.62148 4.449219,1.511719 0.913075,0.890239 1.558594,2.189806 1.558594,4.451172 0,6.852447 -4.901226,12.299647 -12.341797,17.167969 a 4.3004302,4.3004302 0 0 0 -0.01172,0.0078 c -0.738034,0.486612 -0.975655,0.494986 -1.089844,0.496094 -0.113653,0.0011 -0.437626,-0.0034 -1.345703,-0.597656 l -0.0059,-0.0039 C 15.335717,30.366472 10.505859,24.95217 10.505859,18.145281 c 0,-2.261364 0.645518,-3.560932 1.558594,-4.451172 0.913076,-0.89024 2.29096,-1.511719 4.449219,-1.511719 1.490781,0 3.045877,0.866261 3.332031,1.933594 a 4.3000002,4.3000002 0 0 0 5.267578,3.039063 4.3000002,4.3000002 0 0 0 3.039063,-5.267578 C 26.630098,6.209602 21.230431,3.582781 16.513672,3.582781 Z" fill="#ffaa00"/>
</svg>
