<svg xmlns="http://www.w3.org/2000/svg" width="48" height="48">
	<path d="m 14.375977,3.6093751 c -2.157783,0 -4.338057,0.6330439 -6.0253911,2.1132812 C 6.6632521,7.2028937 5.694336,9.5130241 5.694336,11.779297 v 24.419922 c 0,2.298805 0.9150057,4.753147 2.7050781,6.253906 1.7900719,1.500759 3.9568629,1.9375 5.9765629,1.9375 h 19.623046 c 2.20502,0 4.417901,-0.796931 5.972657,-2.345703 1.554755,-1.548772 2.333984,-3.722146 2.333984,-5.845703 v -17.09375 c 0,-2.179136 -0.754826,-4.499781 -2.423828,-6.056641 -1.669003,-1.556859 -3.8596,-2.113281 -5.882813,-2.113281 h -8.185546 a 4,4 0 0 0 -4,4 4,4 0 0 0 4,4 h 8.185546 c 0.644777,0 0.607582,0.132475 0.425782,-0.03711 -0.1818,-0.169585 -0.119141,-0.404693 -0.119141,0.207031 v 17.09375 c 0,0.320333 -0.04498,0.241994 0.01953,0.177734 0.06451,-0.06426 0.124639,0.01367 -0.326172,0.01367 H 14.375977 c -0.676854,0 -0.715538,-0.08295 -0.689454,-0.05664 9.36e-4,-0.05488 0.0078,-0.01325 0.0078,-0.134765 v -24.41992 c 0,-0.308147 -0.02404,-0.08185 -0.06836,-0.04297 -0.04432,0.03888 0.116492,-0.126953 0.75,-0.126953 h 7.720703 a 4,4 0 0 0 4,-4.0000001 4,4 0 0 0 -4,-4 z" fill="#ffaa00"/>
</svg>
