<svg xmlns="http://www.w3.org/2000/svg" width="48" height="48">
	<path d="M 24.101564,1.7737933 C 21.077308,1.742382 18.363208,2.70548 16.250001,4.2347307 14.12564,5.7720534 12.330097,7.9281954 12.208986,10.988638 a 4.0004,4.0004 0 0 0 -0.002,0.158203 v 6.498047 c -1.49128,0.452936 -2.8827575,1.175726 -3.7949205,2.308593 -1.305404,1.621255 -1.835938,3.574858 -1.835938,5.480469 a 4.0004,4.0004 0 0 0 0,0.0098 l 0.033203,13.046875 c 0,1.873688 0.529676,3.970076 2.041016,5.537109 1.5113395,1.567033 3.6831805,2.199219 5.6503895,2.199219 h 19.414063 c 1.924326,0 3.956923,-0.658452 5.451172,-2.109375 1.494248,-1.450924 2.257812,-3.572239 2.257812,-5.626953 V 25.43395 c 0,-1.861448 -0.385736,-3.873949 -1.767578,-5.595703 -1.381841,-1.721754 -3.748607,-2.6875 -5.941406,-2.6875 H 25.01558 a 4,4 0 0 0 -4,4 4,4 0 0 0 4,4 h 8.404297 c 0.02378,0.09417 0.0039,-0.0412 0.0039,0.283203 V 38.226919 H 14.609376 l -0.0332,-12.792969 c 0,-0.295363 0.04628,-0.339113 0.05273,-0.361328 1.426621,-0.09712 3.020993,-0.709175 4.0625,-1.929688 1.128112,-1.322003 1.52011,-2.965465 1.515624,-4.482422 V 11.30895 c -0.01735,0.449773 0.01705,-0.07411 0.732422,-0.591797 0.731234,-0.529168 1.895303,-0.9678321 3.095704,-0.9511723 a 4.0004,4.0004 0 0 0 0.08789,0 c 1.34789,-0.010819 2.41729,0.4599183 3.089844,0.9863283 0.672553,0.526411 0.644219,1.185152 0.638672,0.423829 v 1.230468 a 4,4 0 0 0 4,4 4,4 0 0 0 4,-4 v -1.259765 a 4.0004,4.0004 0 0 0 0,-0.0293 C 35.829716,8.11922 34.204611,6.0674405 32.142579,4.4534807 30.090474,2.8472903 27.301619,1.7588465 24.101564,1.7737933 Z M 14.437501,25.113638 c -0.0042,0.0071 -0.07773,0.03596 -0.05078,0.03516 l -0.119141,0.002 c 0.05445,0 0.114781,-0.03532 0.169922,-0.03711 z" fill="#ffaa00"/>
</svg>
