<svg xmlns="http://www.w3.org/2000/svg" width="48" height="48">
	<path d="M 26.054688 1.2148438 A 4 4 0 0 0 22.21875 4.4726562 A 4 4 0 0 0 25.40625 9.1445312 C 28.647734 9.7566921 30.073607 10.870447 30.988281 12.09375 C 31.902955 13.317053 32.342367 14.936392 32.451172 16.761719 C 32.66421 20.335906 31.375645 23.078428 28.953125 25.025391 C 25.846251 27.147523 21.78392 25.943279 19.332031 23.603516 A 4.0004 4.0004 0 0 0 12.761719 25.271484 L 7.7207031 40.953125 A 4.0004 4.0004 0 0 0 11.378906 46.173828 L 27.789062 46.783203 A 4.0004 4.0004 0 0 0 31.765625 41.625 C 31.174225 39.675044 31.30317 39.283617 31.023438 37.78125 A 4 4 0 0 0 26.359375 34.582031 A 4 4 0 0 0 23.09375 38.603516 L 16.953125 38.375 L 18.8125 32.591797 C 23.34279 34.606458 28.848461 34.896528 33.626953 31.539062 A 4.0004 4.0004 0 0 0 33.794922 31.414062 C 38.290989 27.891648 40.795508 22.291544 40.4375 16.285156 C 40.270165 13.477923 39.561413 10.198152 37.396484 7.3027344 C 35.231556 4.4073171 31.647724 2.1812222 26.892578 1.2832031 A 4 4 0 0 0 26.054688 1.2148438 z " fill="#ffaa00"/>
</svg>
