<svg xmlns="http://www.w3.org/2000/svg" width="48" height="48">
	<path d="m 24.014649,1.9628909 c -0.276729,0 -0.547861,0.018456 -0.8125,0.054687 C 11.448567,2.4411057 1.9794922,12.164433 1.9794922,24.017578 c 0,12.120517 9.8990848,22.019531 22.0195318,22.019531 12.120447,0 22.021484,-9.899014 22.021484,-22.019531 0,-11.842668 -9.454126,-21.5604127 -21.193359,-21.9999997 -0.264639,-0.036231 -0.535771,-0.054687 -0.8125,-0.054687 z m 0,7.2128902 c 0.02681,0.028731 0.01444,0.012099 0.04688,0.048828 0.402373,0.455709 1.008415,1.4561959 1.527344,2.8457039 0.763911,2.045484 1.370603,4.902214 1.638672,8.148437 h -6.425782 c 0.268069,-3.246223 0.874761,-6.102953 1.638672,-8.148437 0.518929,-1.389508 1.123018,-2.3899949 1.525391,-2.8457039 0.03298,-0.037349 0.02164,-0.019742 0.04883,-0.048828 z m -8.853516,2.6894539 c -0.705918,2.494715 -1.178054,5.311457 -1.384765,8.353515 H 9.4755854 c 0.8818416,-3.416655 2.9197966,-6.344461 5.6855476,-8.353515 z m 17.712891,0.02734 c 2.747258,2.008287 4.772287,4.924883 5.650391,8.326172 H 34.25293 C 34.046571,17.187802 33.575985,14.380571 32.874024,11.892578 Z M 9.3232424,27.21875 h 4.4394536 c 0.209447,3.315538 0.726547,6.376966 1.523437,9.042969 C 12.29365,34.135848 10.122939,30.945056 9.3232424,27.21875 Z m 11.4570316,0 h 6.46875 c -0.257181,3.347984 -0.877118,6.295878 -1.660156,8.392578 -0.518929,1.389507 -1.124971,2.389996 -1.527344,2.845703 -0.03243,0.03673 -0.02007,0.0201 -0.04688,0.04883 -0.02719,-0.02909 -0.01585,-0.01148 -0.04883,-0.04883 -0.402373,-0.455707 -1.006462,-1.456196 -1.525391,-2.845703 -0.783038,-2.0967 -1.402975,-5.044594 -1.660156,-8.392578 z m 13.486328,0 h 4.410156 c -0.796559,3.710695 -2.954227,6.889718 -5.927734,9.015625 0.792666,-2.659684 1.308419,-5.71124 1.517578,-9.015625 z" fill="#ffaa00"/>
</svg>
