<svg xmlns="http://www.w3.org/2000/svg" width="48" height="48">
	<path d="m 8.959961,4.0058595 c -1.778484,0 -3.451807,0.704462 -4.466797,1.958984 -1.014989,1.254523 -1.359375,2.825531 -1.359375,4.4218755 v 4.773437 c 0,2.698307 2.266622,4.8125 4.800782,4.8125 h 29.648437 a 2,2 0 0 0 2,-2 2,2 0 0 0 -2,-2 H 7.934571 c -0.47564,0 -0.800782,-0.210007 -0.800782,-0.8125 v -4.773437 c 0,-0.9975555 0.23594,-1.6184975 0.46875,-1.9062505 0.232811,-0.287752 0.474507,-0.474609 1.357422,-0.474609 h 30.080078 c 0.697628,0 1.103851,0.195352 1.361328,0.443359 0.257479,0.248008 0.464844,0.60578 0.464844,1.378907 V 37.613281 c 0,0.997555 -0.237892,1.616544 -0.470703,1.904297 -0.23281,0.287752 -0.472553,0.476563 -1.355469,0.476563 H 8.959961 c -0.697559,0 -1.105781,-0.195335 -1.363281,-0.44336 C 7.33918,39.302757 7.133789,38.944975 7.133789,38.171875 V 23.099609 a 2,2 0 0 0 -2,-2 2,2 0 0 0 -2,2 v 15.072266 c 0,1.6506 0.58965,3.202314 1.6875,4.259766 1.097851,1.057451 2.605031,1.5625 4.138672,1.5625 h 30.080078 c 1.778485,0 3.449855,-0.706415 4.464844,-1.960938 1.01499,-1.254522 1.361328,-2.823577 1.361328,-4.419922 V 9.8281255 c 0,-1.650574 -0.591606,-3.204252 -1.689453,-4.261719 -1.097847,-1.057467 -2.603046,-1.560547 -4.136719,-1.560547 z m 1.802735,6.0214845 a 2.0999999,2.0999999 0 0 0 -2.09961,2.099609 2.0999999,2.0999999 0 0 0 2.09961,2.101563 h 1.111328 a 2.0999999,2.0999999 0 0 0 2.099609,-2.101563 2.0999999,2.0999999 0 0 0 -2.099609,-2.099609 z m 14.130859,0 a 2.0999999,2.0999999 0 0 0 -2.099609,2.099609 2.0999999,2.0999999 0 0 0 2.099609,2.101563 h 1.111328 a 2.0999999,2.0999999 0 0 0 2.09961,-2.101563 2.0999999,2.0999999 0 0 0 -2.09961,-2.099609 z m 5.662109,0 a 2.0999999,2.0999999 0 0 0 -2.099609,2.099609 2.0999999,2.0999999 0 0 0 2.099609,2.101563 h 1.111329 a 2.0999999,2.0999999 0 0 0 2.099609,-2.101563 2.0999999,2.0999999 0 0 0 -2.099609,-2.099609 z m 5.570313,0 a 2.0999999,2.0999999 0 0 0 -2.09961,2.099609 2.0999999,2.0999999 0 0 0 2.09961,2.101563 h 1.111328 a 2.0999999,2.0999999 0 0 0 2.099609,-2.101563 2.0999999,2.0999999 0 0 0 -2.099609,-2.099609 z" fill="#008055"/>
</svg>
