<svg xmlns="http://www.w3.org/2000/svg" width="48" height="48">
	<path d="M 36.544009,22.139654 A 2.20022,2.20022 0 0 0 36.098696,20.790045 L 25.754946,7.1201232 a 2.20022,2.20022 0 0 0 -3.509765,0 L 11.901431,20.790045 a 2.20022,2.20022 0 0 0 1.490234,3.511719 c 2.077281,0.250548 3.95915,1.924046 4.617187,2.71289 a 2.2,2.2 0 0 0 3.09961,0.28125 2.2,2.2 0 0 0 0.279297,-3.099609 c -0.763498,-0.915269 -2.177494,-2.252824 -4.119141,-3.208984 l 6.730469,-8.892578 6.804687,8.990234 c -4.810135,2.063758 -9.003906,6.410134 -9.003906,12.595703 v 5.873047 a 2.2,2.2 0 0 0 2.199219,2.199219 2.2,2.2 0 0 0 2.201172,-2.199219 V 33.68067 c 0,-5.066017 4.322575,-8.546701 8.580078,-9.408203 a 2.20022,2.20022 0 0 0 1.763672,-2.132813 z" fill="#008055"/>
</svg>
