<svg xmlns="http://www.w3.org/2000/svg" width="48" height="48">
	<path d="M 24.323874,6.5872825 C 20.605648,6.5152655 16.8453,7.6247113 13.652,9.9818138 12.739628,10.655272 11.913737,11.402391 11.171531,12.210329 5.9760845,17.865896 5.0146455,26.473857 9.2105935,33.212282 a 1.9999988,2.0000012 84.963934 0 0 2.7558595,0.638672 1.9999988,2.0000012 84.963934 0 0 0.640625,-2.753906 C 8.8953335,25.136222 10.379351,17.37076 16.028953,13.200564 c 5.649601,-4.1701962 13.506684,-3.3012308 18.109375,2.001953 4.60269,5.303183 4.357348,13.206378 -0.566407,18.21289 -4.923754,5.006512 -12.820049,5.382794 -18.199218,0.869141 a 1.9999988,2.0000012 84.963934 0 0 -2.81836,0.246094 1.9999988,2.0000012 84.963934 0 0 0.248047,2.818359 c 6.949589,5.83139 17.259875,5.337276 23.621094,-1.130859 C 42.784702,29.750005 43.106232,19.430888 37.159812,12.57947 33.814951,8.7255467 29.104451,6.6798759 24.323874,6.5872825 Z M 23.999656,18.817751 a 5.1693387,5.1820593 0 0 0 -5.167969,5.183594 5.1693387,5.1820593 0 0 0 5.167969,5.18164 5.1693387,5.1820593 0 0 0 5.169922,-5.18164 5.1693387,5.1820593 0 0 0 -5.169922,-5.183594 z" fill="#008055"/>
</svg>
