<svg xmlns="http://www.w3.org/2000/svg" width="48" height="48">
	<path d="m 24.325227,6.5872826 c -3.718226,-0.072017 -7.478574,1.0374284 -10.671875,3.3945313 -0.912371,0.6734581 -1.742168,1.4205771 -2.484375,2.2285151 -5.1954469,5.655567 -6.1549309,14.261576 -1.9589839,21 a 1.9999988,2.0000012 84.963934 0 0 2.7539059,0.640625 1.9999988,2.0000012 84.963934 0 0 0.642578,-2.753906 C 8.8947321,25.136222 10.37875,17.368806 16.028352,13.198611 21.677954,9.0284144 29.53699,9.8973802 34.13968,15.200564 c 4.60269,5.303183 4.357348,13.206379 -0.566406,18.21289 -4.923754,5.006512 -12.822003,5.384747 -18.201172,0.871094 a 1.9999988,2.0000012 84.963934 0 0 -2.816406,0.246094 1.9999988,2.0000012 84.963934 0 0 0.246094,2.818359 c 6.949587,5.83139 17.261828,5.337276 23.623047,-1.130859 6.361218,-6.468137 6.682748,-16.789207 0.736328,-23.640625 C 33.816303,8.7235941 29.105804,6.6798761 24.325227,6.5872826 Z m -6.96289,15.3124994 a 2.0999999,2.0999999 0 0 0 -2.09961,2.09961 2.0999999,2.0999999 0 0 0 2.09961,2.101562 h 13.27539 a 2.0999999,2.0999999 0 0 0 2.09961,-2.101562 2.0999999,2.0999999 0 0 0 -2.09961,-2.09961 z" fill="#008055"/>
</svg>
