<svg xmlns="http://www.w3.org/2000/svg" width="48" height="48">
	<path d="M 24.323874,6.5872825 C 20.605648,6.5152655 16.8453,7.6247113 13.652,9.9818138 12.739628,10.655272 11.913737,11.402391 11.171531,12.210329 5.9760845,17.865896 5.0146455,26.473857 9.2105935,33.212282 c 0.5845294,0.937535 1.8185175,1.223512 2.7558595,0.638672 0.937035,-0.58381 1.22378,-1.816464 0.640625,-2.753906 -3.7117445,-5.960826 -2.227727,-13.726288 3.421875,-17.896484 5.649601,-4.1701962 13.506684,-3.3012308 18.109375,2.001953 4.60269,5.303183 4.357348,13.206378 -0.566407,18.21289 -4.923754,5.006512 -12.820049,5.382794 -18.199218,0.869141 -0.846142,-0.710575 -2.108176,-0.600376 -2.81836,0.246094 -0.710107,0.84666 -0.599029,2.108749 0.248047,2.818359 6.949589,5.83139 17.259875,5.337276 23.621094,-1.130859 C 42.784702,29.750005 43.106232,19.430888 37.159812,12.57947 33.814951,8.7255467 29.104451,6.6798759 24.323874,6.5872825 Z" fill="#008055"/>
</svg>
