<svg xmlns="http://www.w3.org/2000/svg" width="48" height="48">
	<path d="M 13.341797,2.6143901 C 12.339419,2.4749269 11.341469,2.6312511 10.509765,3.1007182 8.846358,4.0396528 7.949219,5.862249 7.949219,7.7901713 V 33.760874 a 2.0999999,2.0999999 0 0 0 2.099609,2.099609 2.0999999,2.0999999 0 0 0 2.101563,-2.099609 V 7.7901713 c 0,-0.6202777 0.29381,-0.9578596 0.423828,-1.03125 0.130017,-0.07339 0.196197,-0.2507383 0.914062,0.3554688 a 2.1002099,2.1002099 0 0 0 0.01563,0.013672 L 32.40625,22.786265 c 2.057648,1.742953 3.443359,3.521157 3.443359,5.396484 V 39.14564 c 0,0.86741 -0.233998,1.287926 -0.535156,1.578125 -0.301158,0.290198 -0.771859,0.511718 -1.554688,0.511718 H 14.21875 c -1.013985,0 -1.404498,-0.232096 -1.625,-0.458984 -0.220502,-0.226887 -0.443359,-0.658692 -0.443359,-1.630859 a 2.0999999,2.0999999 0 0 0 -2.101563,-2.09961 2.0999999,2.0999999 0 0 0 -2.099609,2.09961 c 0,1.695833 0.466039,3.358031 1.632812,4.558593 1.166773,1.200563 2.859804,1.730469 4.636719,1.730469 h 19.541015 c 1.661072,0 3.285384,-0.545245 4.46875,-1.685547 1.183367,-1.140301 1.822266,-2.815125 1.822266,-4.603515 V 28.182749 c 0,-3.807649 -2.533777,-6.572092 -4.935547,-8.605469 a 2.1002099,2.1002099 0 0 0 -0.01563,-0.01367 L 16.197265,3.9054057 C 15.349448,3.1894592 14.344174,2.7538532 13.341797,2.6143901 Z" fill="#008055"/>
</svg>
