<svg xmlns="http://www.w3.org/2000/svg" width="48" height="48">
	<path d="m 8.6542976,7.6025379 c -1.79507,0 -3.519688,0.5379746 -4.708984,1.7617187 -1.189296,1.2237444 -1.662109,2.9138884 -1.662109,4.6269534 l -0.03711,24.203125 a 2.2,2.2 0 0 0 2.197266,2.203125 2.2,2.2 0 0 0 2.203125,-2.197266 l 0.037109,-24.205078 a 2.20022,2.20022 0 0 0 0,-0.0039 c 0,-0.954925 0.218037,-1.356834 0.416016,-1.560547 0.197979,-0.203713 0.558898,-0.427734 1.554687,-0.427734 H 39.363283 c 0.761913,0 1.204229,0.212468 1.484375,0.482422 0.280146,0.269953 0.505859,0.660351 0.505859,1.505859 v 24.207035 a 2.2,2.2 0 0 0 2.201172,2.199219 2.2,2.2 0 0 0 2.199219,-2.199219 V 13.99121 c 0,-1.810323 -0.649149,-3.513279 -1.853516,-4.6738284 C 42.696025,8.1568326 41.045259,7.6025379 39.363283,7.6025379 Z M 24.000001,17.295897 a 2.2,2.2 0 0 0 -2.199218,2.199219 v 4.4375 h -4.4375 a 2.2,2.2 0 0 0 -2.201172,2.199219 2.2,2.2 0 0 0 2.201172,2.201172 h 4.4375 v 4.4375 a 2.2,2.2 0 0 0 2.199218,2.199219 2.2,2.2 0 0 0 2.199219,-2.199219 v -4.4375 h 4.4375 a 2.2,2.2 0 0 0 2.201172,-2.201172 2.2,2.2 0 0 0 -2.201172,-2.199219 h -4.4375 v -4.4375 a 2.2,2.2 0 0 0 -2.199219,-2.199219 z" fill="#008055"/>
</svg>
