<svg xmlns="http://www.w3.org/2000/svg" width="48" height="48">
	<path d="m 19.287109,15.649393 c -0.985274,0 -2.009232,0.329543 -2.767578,1.05664 -0.758346,0.727096 -1.154297,1.798833 -1.154297,2.855469 v 8.582031 c 0,0.968448 0.205356,1.998562 0.908204,2.863282 0.702846,0.864719 1.886521,1.34375 3.013671,1.34375 A 1.9,1.9 0 0 0 21.1875,30.450174 1.9,1.9 0 0 0 19.287109,28.549783 c -0.28022,0 -0.107427,0.0077 -0.06445,0.06055 0.04297,0.05287 -0.05859,-0.06987 -0.05859,-0.466797 v -8.582031 c 0,-0.219195 0.02599,-0.15318 -0.01563,-0.113281 -0.04161,0.0399 -0.05598,0.002 0.138671,0.002 h 9.433594 c 0.330303,0 0.248634,0.04971 0.154297,-0.04688 -0.09434,-0.09658 -0.04102,-0.153612 -0.04102,0.158203 v 8.582031 c 0,0.306599 -0.08488,0.422584 -0.08594,0.423828 -0.0011,0.0012 0.10216,-0.01758 -0.02734,-0.01758 h -5.185547 a 1.9,1.9 0 0 0 -1.898437,1.90039 1.9,1.9 0 0 0 1.898437,1.900391 h 5.185547 c 1.113436,0 2.225071,-0.503583 2.919922,-1.320312 0.694851,-0.81673 0.994141,-1.852417 0.994141,-2.886719 v -8.582031 c 0,-0.969865 -0.278849,-2.032136 -1.042969,-2.814454 -0.764121,-0.782318 -1.853958,-1.097656 -2.871094,-1.097656 z" fill="#008055"/>
</svg>
