<svg xmlns="http://www.w3.org/2000/svg" width="48" height="48">
	<path d="m 8.959961,4.0058596 c -1.7784842,0 -3.4518073,0.7064152 -4.4667968,1.9609376 -1.0149896,1.2545223 -1.359375,2.8235772 -1.359375,4.4199218 v 4.773437 c 0,2.698308 2.2685743,4.8125 4.8027344,4.8125 H 37.583008 a 2,2 0 0 0 2,-2 2,2 0 0 0 -2,-2 H 7.9365236 c -0.4756402,0 -0.8027344,-0.210007 -0.8027344,-0.8125 v -4.773437 c 0,-0.9975556 0.2378927,-1.6165446 0.4707031,-1.9042968 C 7.8373027,8.1946694 8.0770455,8.0058596 8.959961,8.0058596 h 30.080078 c 0.697628,0 1.10385,0.1953516 1.361329,0.4433594 0.257477,0.2480074 0.464843,0.6057794 0.464843,1.3789064 V 37.613281 c 0,0.997555 -0.237892,1.618497 -0.470703,1.90625 -0.23281,0.287753 -0.472553,0.474609 -1.355469,0.474609 H 8.959961 c -0.6975587,0 -1.1038285,-0.193382 -1.3613281,-0.441406 C 7.3411333,39.30471 7.1337892,38.944974 7.1337892,38.171875 V 23.101562 a 2,2 0 0 0 -2,-2 2,2 0 0 0 -2,2 v 15.070313 c 0,1.650601 0.5916027,3.204268 1.6894531,4.261719 1.0978504,1.057451 2.6030777,1.560546 4.1367187,1.560546 h 30.080078 c 1.778485,0 3.449855,-0.704462 4.464844,-1.958984 1.01499,-1.254522 1.361328,-2.82553 1.361328,-4.421875 V 9.8281254 c 0,-1.6505734 -0.591606,-3.2022985 -1.689453,-4.2597658 -1.097847,-1.0574672 -2.603046,-1.5625 -4.136719,-1.5625 z m 1.802735,6.0234374 a 2.0999999,2.0999999 0 0 0 -2.09961,2.099609 2.0999999,2.0999999 0 0 0 2.09961,2.09961 h 1.111328 a 2.0999999,2.0999999 0 0 0 2.099609,-2.09961 2.0999999,2.0999999 0 0 0 -2.099609,-2.099609 z m 14.132812,0 a 2.0999999,2.0999999 0 0 0 -2.101562,2.099609 2.0999999,2.0999999 0 0 0 2.101562,2.09961 h 1.109375 a 2.0999999,2.0999999 0 0 0 2.101563,-2.09961 2.0999999,2.0999999 0 0 0 -2.101563,-2.099609 z m 5.660156,0 a 2.0999999,2.0999999 0 0 0 -2.099609,2.099609 2.0999999,2.0999999 0 0 0 2.099609,2.09961 h 1.111328 a 2.0999999,2.0999999 0 0 0 2.09961,-2.09961 2.0999999,2.0999999 0 0 0 -2.09961,-2.099609 z m 5.570313,0 a 2.0999999,2.0999999 0 0 0 -2.099609,2.099609 2.0999999,2.0999999 0 0 0 2.099609,2.09961 h 1.111328 a 2.0999999,2.0999999 0 0 0 2.099609,-2.09961 2.0999999,2.0999999 0 0 0 -2.099609,-2.099609 z M 23.684571,21.261719 a 2,2 0 0 0 -2,2 v 4.636718 h -4.636719 a 2,2 0 0 0 -2,2 2,2 0 0 0 2,2 h 4.636719 v 4.636719 a 2,2 0 0 0 2,2 2,2 0 0 0 2,-2 v -4.636719 h 4.636718 a 2,2 0 0 0 2,-2 2,2 0 0 0 -2,-2 h -4.636718 v -4.636718 a 2,2 0 0 0 -2,-2 z" fill="#008055"/>
</svg>
