<?xml version="1.0" encoding="UTF-8" standalone="no"?>
<svg
   xmlns:dc="http://purl.org/dc/elements/1.1/"
   xmlns:cc="http://creativecommons.org/ns#"
   xmlns:rdf="http://www.w3.org/1999/02/22-rdf-syntax-ns#"
   xmlns:svg="http://www.w3.org/2000/svg"
   xmlns="http://www.w3.org/2000/svg"
   xmlns:xlink="http://www.w3.org/1999/xlink"
   xmlns:sodipodi="http://sodipodi.sourceforge.net/DTD/sodipodi-0.dtd"
   xmlns:inkscape="http://www.inkscape.org/namespaces/inkscape"
   id="svg15"
   version="1.1"
   viewBox="0 0 96 96"
   sodipodi:docname="folder_html.svg"
   inkscape:version="1.0.1 (3bc2e813f5, 2020-09-07)">
  <metadata
     id="metadata20">
    <rdf:RDF>
      <cc:Work
         rdf:about="">
        <dc:format>image/svg+xml</dc:format>
        <dc:type
           rdf:resource="http://purl.org/dc/dcmitype/StillImage" />
      </cc:Work>
    </rdf:RDF>
  </metadata>
  <sodipodi:namedview
     pagecolor="#ffffff"
     bordercolor="#666666"
     borderopacity="1"
     objecttolerance="10"
     gridtolerance="10"
     guidetolerance="10"
     inkscape:pageopacity="0"
     inkscape:pageshadow="2"
     inkscape:window-width="1920"
     inkscape:window-height="1016"
     id="namedview18"
     showgrid="false"
     inkscape:zoom="3.2708333"
     inkscape:cx="-62.593445"
     inkscape:cy="7.4796598"
     inkscape:window-x="0"
     inkscape:window-y="0"
     inkscape:window-maximized="1"
     inkscape:current-layer="svg15" />
  <defs
     id="defs5455">
    <linearGradient
       id="linearGradient4178"
       x2="0"
       y1="541.79797"
       y2="499.78421"
       gradientTransform="matrix(1.4999996,0,0,1.4995115,-576.85701,-725.43213)"
       gradientUnits="userSpaceOnUse">
      <stop
         id="stop4174-6-7"
         stop-color="#3daee9"
         offset="0" />
      <stop
         id="stop4176-6-5"
         stop-color="#6cc1ef"
         offset="1" />
    </linearGradient>
    <linearGradient
       inkscape:collect="always"
       xlink:href="#linearGradient842"
       id="linearGradient890"
       x1="406.05936"
       y1="519.07739"
       x2="425.9559"
       y2="519.07739"
       gradientUnits="userSpaceOnUse"
       gradientTransform="matrix(1.5006022,0,0,1.5006022,-577.33126,-726.25685)" />
    <linearGradient
       inkscape:collect="always"
       id="linearGradient842">
      <stop
         style="stop-color:#008080;stop-opacity:1"
         offset="0"
         id="stop838" />
      <stop
         style="stop-color:#00e5e5;stop-opacity:1"
         offset="1"
         id="stop840" />
    </linearGradient>
    <linearGradient
       inkscape:collect="always"
       xlink:href="#linearGradient842"
       id="linearGradient838"
       x1="6"
       y1="50.000134"
       x2="94.005508"
       y2="50.000134"
       gradientUnits="userSpaceOnUse"
       gradientTransform="matrix(0.9780981,0,0,1,126.99591,990.06777)" />
  </defs>
  <path
     d="m 61.264641,49.179249 v 0 0 c 0,0 0,0 0,0 0,0 0,0 0,0 z m -10.74241,18.072922 c -7.29673,1.790414 -15.03262,-2.195771 -17.63377,-9.526287 -0.94587,-2.668701 -1.14856,-5.404974 -0.5405,-8.17504 0.0338,-0.06753 0.0675,-0.168908 0.10129,-0.236465 0,0.06753 0,0.168907 0.0338,0.236465 0,0.03376 0.0338,0.10129 0.0675,0.135204 0,-0.06753 0.0338,-0.101291 0.0338,-0.168908 0,-0.202686 0,-0.405373 0.0338,-0.641838 0.20269,0.168908 0.0675,0.405373 0.13505,0.574281 0.10129,0.270258 0.10129,0.540502 0.10129,0.844524 -0.0338,0.439166 0.3716,0.743188 0.67562,0.776967 0.57428,0.06753 0.9121,0.506723 1.41882,0.675631 0.23646,0.06753 0.37159,0.304037 0.40537,0.405372 0.0675,0.439152 0.40538,0.574281 0.67562,0.743189 0.0675,0.03376 0.1352,0.10129 0.20269,0 0.23648,-0.472945 0.27025,-0.135205 0.37159,0.06753 0.23646,0.506723 0.0338,0.912096 -0.23647,1.317468 -0.20268,0.270244 -0.43915,0.540487 -0.20268,0.912081 0.0338,0.03376 0,0.135054 -0.0338,0.168908 -0.1689,0.270258 -0.0675,0.472945 0.1013,0.70941 0.23648,0.337815 0.43916,0.675616 0.60805,1.04721 0.23648,0.472945 0.43917,0.912096 0.97966,1.148561 0.33781,0.135054 0.5405,0.439151 0.57428,0.844523 0.10129,1.148561 0.27026,2.297122 0.43916,3.411905 0.10129,0.675631 0.64184,1.14856 0.87831,1.756619 0.10129,0.270244 0.27025,0.506724 0.47294,0.743189 0.3716,0.439151 0.91208,0.472929 1.38503,0.709409 0.0338,0 0.10129,0 0.1352,0 -0.0338,-0.03376 -0.10129,-0.06753 -0.1352,-0.10129 -0.30404,-0.270244 -0.94588,-0.337801 -0.5405,-0.979638 0,-0.03376 -0.0338,-0.101291 -0.0338,-0.101291 -0.47293,-0.101291 -0.23646,-0.439151 -0.20268,-0.675616 0,-0.135054 0.1352,-0.236465 -0.0675,-0.270244 -0.0338,0 -0.0675,-0.06753 -0.0675,-0.10129 0.3716,0.10129 0.23647,-0.439166 0.5405,-0.439166 0.43915,0 0.60806,-0.168908 0.3716,-0.608059 -0.0675,-0.101291 -0.16891,-0.236465 0.10129,-0.168908 0.27024,0.06753 0.40537,-0.03376 0.47293,-0.270244 0.0675,-0.236465 0.16891,-0.472944 0.37159,-0.675631 0.16891,-0.202686 0.27024,-0.439151 0.20269,-0.743173 -0.10129,-0.506723 0.40537,-0.608074 0.70941,-0.641853 0.64184,-0.06753 0.67561,-0.506708 0.81074,-0.945874 0.10129,-0.337801 0.10129,-0.675616 0.0675,-1.04721 -0.0338,-0.371594 0.27024,-0.608059 0.47293,-0.878303 0.27026,-0.337815 0.43917,-0.776967 0.16891,-1.081004 -0.27025,-0.304037 -0.60806,-0.641837 -1.08099,-0.675616 -0.67563,-0.03376 -1.18234,-0.472944 -1.75662,-0.709409 -0.20269,-0.06753 -0.20269,-0.405373 -0.27026,-0.608059 -0.16891,-0.472945 -0.47293,-0.675631 -0.94587,-0.743188 -0.57428,-0.06753 -0.81075,-0.506724 -1.04721,-0.912096 -0.16891,-0.304022 -0.40538,-0.168908 -0.54051,-0.135205 -0.33781,0.101291 -0.60806,0 -0.84452,-0.135204 -0.57428,-0.304022 -1.04723,-0.202686 -1.4526,0.405373 -0.0675,0.101291 -0.16889,0.270258 -0.3378,0.101291 -0.10129,-0.101291 -0.23648,-0.101291 -0.40537,-0.03376 -0.30404,0.135054 -0.57428,-0.101291 -0.5405,-0.439151 0,-0.135054 0.0338,-0.270244 0.0675,-0.405373 0.10129,-0.57428 0.0675,-0.641837 -0.5067,-0.57428 -0.23648,0.03376 -0.27026,-0.03376 -0.16891,-0.236465 0.10129,-0.202687 0.20268,-0.405373 0.23646,-0.641838 0.0338,-0.135204 0.23647,-0.304037 0,-0.405387 -0.16891,-0.06753 -0.47294,0 -0.50672,0.236479 -0.0675,0.405373 -0.30402,0.506709 -0.64184,0.439152 -0.37159,-0.101291 -0.33781,-0.472945 -0.27024,-0.743189 0.0675,-0.540501 0.10129,-1.14856 0.67561,-1.486376 0.13506,-0.101291 0.27025,-0.135054 0.43916,-0.101291 0.1689,0.03376 0.30403,0.03376 0.47294,-0.135204 0.23647,-0.236465 0.50671,-0.06753 0.77697,0 0.20268,0.06753 0.10129,0.270259 0.13505,0.405388 0.0338,0.202686 0.0338,0.506708 0.23648,0.47293 0.23647,0 0.27024,-0.304037 0.20269,-0.540502 -0.13521,-0.506709 0.0338,-0.945875 0.50671,-1.18234 0.50672,-0.270243 0.74318,-0.709409 1.04722,-1.148561 0.20269,-0.337815 0.57428,-0.506708 0.91208,-0.743188 0.33782,-0.202686 0.60808,-0.57428 1.04723,-0.743173 0.0675,-0.03376 0.1352,-0.03376 0.16891,-0.06753 -0.0338,0.06753 -0.0338,0.10129 -0.0675,0.168893 -0.0338,0.06753 -0.0675,0.10129 0,0.135204 0.0338,0 0.10129,0 0.1352,-0.03376 0.10129,-0.135204 0.27025,-0.168893 0.43915,-0.202686 0.10129,-0.03376 0.27025,-0.101291 0.30403,-0.168893 0,-0.135204 -0.1689,-0.06753 -0.23647,-0.135204 -0.1352,-0.101291 -0.1352,-0.202686 -0.0675,-0.304037 0.0675,-0.168908 0.30404,-0.337801 -0.10129,-0.337801 0,0 -0.0338,-0.03376 -0.0338,-0.06753 0.0338,0 0.0675,-0.03376 0.10129,-0.03376 0.47294,-0.101291 0.97965,0.06753 1.41882,-0.270244 0.0338,0 0.0675,0.03376 0.10129,0.03376 -0.0338,0.03376 -0.0338,0.06753 -0.0675,0.10129 -0.10129,0.23648 -0.5405,0.337816 -0.40538,0.608059 0.0675,0.135055 0.47294,-0.10129 0.74318,0.101291 0.10129,0.06753 0.27026,0 0.20269,-0.101291 -0.10129,-0.168892 0.23646,-0.439136 -0.0675,-0.439136 -0.30403,-0.03376 -0.20268,-0.135204 -0.13505,-0.270258 0.20268,-0.337801 0.27026,-0.608059 -0.16891,-0.776967 -0.23646,-0.101291 -0.10129,-0.337801 -0.16891,-0.506708 -0.0675,-0.270259 -0.10129,-0.472945 -0.43915,-0.202687 -0.13505,0.101291 -0.50671,0.439152 -0.40537,-0.168907 0.0338,-0.135055 -0.20269,-0.270259 -0.30402,-0.270259 -0.27026,0 -0.60808,-0.168893 -0.74319,0.168908 -0.13521,0.270258 -0.47295,0.439151 -0.47295,0.810745 0,0.101291 -0.1689,0.202687 -0.30402,0.270259 -0.27026,0.10129 -0.47294,0.236465 -0.50672,0.540502 -0.0338,0.168892 -0.16891,0.304022 -0.33782,0.236464 -0.20268,-0.10129 -0.0338,-0.270258 0.0338,-0.371594 0.13505,-0.168907 0.13505,-0.304037 -0.13521,-0.270258 -0.27024,0.03376 -0.43915,-0.236465 -0.74319,-0.270244 -0.10129,0 -0.10129,-0.270243 0.0338,-0.371594 0.43915,-0.439151 1.01343,-0.57428 1.52015,-0.912081 0.13506,-0.10129 0.1689,0.304022 0.27025,0.101291 0.10129,-0.202686 0.74318,0.135204 0.43915,-0.439151 0.16891,-0.06753 0.30403,-0.101291 0.47294,-0.168908 0.23647,-0.101291 0.30402,-0.405373 0.60806,-0.472945 0.27024,-0.03376 0.57428,-0.06753 0.60806,0.168908 0.0338,0.23648 -0.30404,0.304037 -0.50672,0.405373 -0.10129,0.03376 -0.20269,0 -0.30403,0.03376 -0.0675,0.03376 -0.1689,0.101291 -0.1689,0.135054 0,0.101291 0.13505,0.06753 0.20268,0.06753 0.20269,-0.03376 0.3716,-0.03376 0.50671,0.168907 0.10129,0.135054 0.47295,0.202687 0.47295,0.135054 0.0338,-0.304022 0.81074,-0.06753 0.40537,-0.608059 0,-0.03376 0,-0.10129 0,-0.10129 0.0675,-0.06753 0.1352,-0.03376 0.20269,0.03376 0.23646,0.270244 0.43915,0.03376 0.5405,-0.10129 0.1352,-0.202687 -0.23647,-0.202687 -0.23647,-0.270244 0,-0.439151 -0.40537,-0.371594 -0.60806,-0.506723 -0.20268,-0.135054 -0.37159,-0.135054 -0.57428,-0.101291 0.0675,0.03376 0.0675,0.135055 0,0.101291 -0.27024,-0.168908 -0.47293,-0.03376 -0.70941,0 -0.23646,0.06753 -0.43915,0.06753 -0.64183,-0.06753 -0.13506,-0.101291 -0.27025,-0.06753 -0.40538,0 -0.0338,0 -0.0675,0.03376 -0.0675,0.06753 0,0 0.0338,0.03376 0.0675,0.03376 0.10129,0 0.20269,-0.168893 0.30404,-0.03376 -0.1352,0.101291 -0.27026,0.168908 -0.43917,0.202686 v 0 c 0,0 0,0 0,0 -0.40537,-0.06753 -0.5405,0.06753 -0.5067,0.405373 0,0.06753 -0.0338,0.135054 -0.0675,0.202686 -0.16891,-0.135054 -0.50672,0.101291 -0.50672,-0.03376 0,-0.202687 -0.1013,-0.506709 0.1689,-0.675616 3.243,-1.925528 6.68867,-2.634938 10.40459,-1.9931 2.46603,0.439166 4.6618,1.418819 6.6549,2.938974 0.10129,0.06753 0.1689,0.168893 0.23647,0.236465 -0.13521,0.06753 -0.20269,-0.06753 -0.30404,-0.101291 -0.30402,-0.135054 -0.57428,-0.371594 -0.91209,-0.439151 -0.43916,-0.06753 -0.87831,-0.135054 -1.21612,0.236465 -0.23647,0.236465 -0.50671,0.405373 -0.84453,0.472945 -0.27024,0.06753 -0.33781,0.202686 -0.20268,0.47293 0.10129,0.270243 0.23646,0.439151 0.50671,0.304037 0.23648,-0.135205 0.33781,-0.03376 0.47294,0.135054 0.16891,0.202686 0.10129,0.270258 -0.0338,0.405373 -0.0338,0.03376 0.0338,0.168907 -0.10129,0.135204 -0.16891,0.03376 -0.13506,-0.03376 -0.13506,-0.135204 0,-0.101291 0.13506,-0.270244 -0.0675,-0.270244 -0.1689,0 -0.30403,0.168908 -0.23646,0.337816 0.1352,0.270243 -0.0338,0.337815 -0.23646,0.337815 -0.33782,0.03376 -0.47295,0.439151 -0.77697,0.47293 -0.16891,0.371594 -0.57428,0.168908 -0.84454,0.337816 -0.0675,0.03376 -0.20269,0 -0.23647,0.10129 0,0.03376 0.1013,0.101291 0.16891,0.135204 0.13506,0.06753 0.23647,0.168908 0.33782,0.270244 0.13505,0.168908 0.10129,0.337815 0.0338,0.506723 -0.0675,0.202687 -0.23648,0.101291 -0.37159,0.101291 -0.0338,0 -0.0675,0 -0.0675,0 -0.87832,-0.101291 -1.14856,0.168908 -1.01345,1.04721 0.0338,0.168908 0.0338,0.405373 0.33782,0.371594 0.23646,0 0.33781,0.168908 0.16891,0.371594 -0.33782,0.405373 -0.70941,0.810746 -0.87832,1.351247 -0.10129,0.236465 -0.47293,0.236465 -0.64184,0.540502 -0.23646,0.540502 -0.84452,0.912081 -0.60806,1.65527 0.10129,0.304037 0,0.608059 -0.10129,0.945874 -0.10129,0.304037 -0.10129,0.675631 0.20269,0.945875 0.50672,0.405372 0.67563,1.081003 1.24991,1.418804 0.23647,0.135054 0.40537,0.168908 0.67562,0.135054 0.64183,-0.06753 1.24989,-0.270243 1.85797,-0.304022 0.37158,-0.03376 0.77695,0.371594 1.18234,0.540502 0.23646,0.101291 0,0.540487 -0.0338,0.810745 -0.0338,0.236465 -0.0338,0.405373 0.13521,0.574281 0.50671,0.540487 0.57428,1.216118 0.70939,1.891734 0.0675,0.304037 -0.27024,0.506723 -0.3378,0.810745 -0.10129,0.405388 -0.16891,0.776982 0.0675,1.148561 0.23646,0.371594 0.3378,0.776967 0.27024,1.216133 -0.0338,0.439151 0.33782,0.675616 0.40537,1.04721 0.13521,0.743188 0.16891,0.70941 0.94588,0.574281 0.8783,-0.168908 1.28369,-0.878318 1.65527,-1.587712 0.10129,-0.168908 0.10129,-0.337816 0.30404,-0.405373 0.20268,-0.101291 0.30402,-0.371594 0.23646,-0.574281 -0.10129,-0.439151 0.1352,-0.743188 0.43915,-0.945874 0.64185,-0.405373 0.70941,-1.013432 0.5405,-1.587712 -0.30402,-1.114783 0.23647,-1.891749 0.87832,-2.634937 0.50671,-0.574281 0.67562,-1.216118 0.77697,-1.891749 0.0338,-0.168893 0,-0.304022 -0.23648,-0.168893 -0.10129,0.06753 -0.20269,0.10129 -0.3378,0.135054 -0.16891,0.03376 -0.3716,0.101291 -0.47295,-0.135054 -0.1352,-0.304037 0.16891,-0.23648 0.27026,-0.270259 0.60806,-0.337815 1.2499,-0.675616 1.35125,-1.486361 0.0338,-0.23648 0,-0.472945 -0.16891,-0.675631 -0.10129,-0.135204 -0.16891,-0.304022 -0.10129,-0.47293 0.74319,0.810745 0.64184,1.891734 0.67562,2.837609 0.37159,7.195387 -4.45912,13.4449 -11.31669,15.133962 z M 37.516491,50.125124 c -0.3716,-0.236465 -0.67564,-0.608059 -1.18234,-0.608059 -0.13521,0.03376 -0.30404,0.06753 -0.43916,0.202686 -0.0338,0.03376 -0.0675,0.168908 0.0338,0.135054 0.54049,-0.202686 0.84452,0.03376 1.18234,0.405373 0.0675,0.06753 0.27024,0.135204 0.43915,0.03376 0,-0.06753 -0.0338,-0.168893 -0.0338,-0.168893 z m 1.01343,0.371594 c -0.13521,-0.202686 -0.33782,-0.236465 -0.57428,-0.270243 -0.30403,-0.06753 -0.16891,0.371594 -0.40538,0.337815 0.10129,0.03376 0.20269,0.101291 0.33782,0.135204 0.20269,-0.10129 0.43915,-0.135204 0.64184,-0.202686 z m 11.68828,-9.762752 c 0,-0.135055 -0.13521,-0.168908 -0.23647,-0.168908 -0.27024,0 -0.5405,0 -0.81074,0 -0.10129,0 -0.23648,-0.101291 -0.30404,0.03376 0.1352,0.06753 0.0338,0.304037 0.23646,0.371594 0.1013,0.03376 0.23648,0.03376 0.3716,0.06753 0.16891,-0.03376 0.37159,-0.101291 0.5405,-0.135205 0.10129,-0.06753 0.20269,-0.06753 0.20269,-0.168908 z m 1.081,1.824177 c 0.20269,0.10129 0.54049,0.135204 0.16891,0.472944 -0.10129,0.101291 0,0.337816 -0.13506,0.47293 0.1689,0.101291 0.30403,-0.03376 0.43916,-0.03376 0.20268,0 0.43915,-0.03376 0.64183,-0.06753 0,-0.304037 -0.1689,-0.540501 -0.40537,-0.776966 -0.0675,-0.06753 -0.16891,-0.168908 -0.16891,-0.270259 0.0338,-0.3378 -0.1689,-0.506708 -0.43915,-0.439151 -0.27024,0.101291 -0.23646,0.371594 -0.10129,0.641838 z m -0.30404,-0.06753 c -0.1689,0.03376 -0.43915,0.101291 -0.43915,0.304037 0,0.135055 -0.20268,0.337801 0,0.405373 0.13521,0.03376 0.40538,-0.03376 0.50673,-0.135204 0.1352,-0.135054 0.16889,-0.337816 0.23646,-0.506723 -0.10129,-0.03376 -0.20269,-0.06753 -0.30404,-0.06753 z m -2.19577,-2.364678 c 0.13506,0 0.27025,-0.101291 0.40538,-0.168908 0.0675,-0.03376 0.1352,-0.06753 0.10129,-0.135054 -0.3716,-0.405373 0.13505,-0.168893 0.20268,-0.270244 0.0675,-0.06753 0.27025,-0.10129 0.30402,-0.168908 0.1013,-0.439151 0.43917,-0.506708 0.84454,-0.506708 -0.0338,0 0.0338,-0.03376 0.0675,-0.03376 -0.0338,-0.03376 -0.0675,-0.06753 -0.1352,-0.06753 -0.3716,-0.06753 -0.74319,-0.135054 -1.11479,-0.202686 -1.58771,-0.202686 -3.17542,0.135204 -4.79691,0.03376 -0.9121,-0.06753 -1.75662,0.337815 -2.66872,0.439151 -0.1352,0 -0.27024,0.10129 -0.40537,0.135204 -0.0338,0 -0.1352,0.101291 -0.0338,0.101291 0.30402,0.06753 0,0.135054 0,0.135054 -0.10129,0.135204 -0.27026,0.06753 -0.40538,0.101291 -0.0675,0.03376 -0.1689,0.10129 -0.1689,0.135204 0.0338,0.10129 0.13505,0.03376 0.20268,0.03376 0.23647,0 0.47293,0 0.70941,-0.03376 v 0 c 0.50671,-0.371594 1.08099,-0.506724 1.65527,-0.70941 0.0675,-0.03376 0.13506,0 0.20269,-0.03376 0,0.608059 0.43915,0.202686 0.64184,0.270243 0.27025,0.06753 0.67563,-0.101291 0.57428,0.439151 0,0.03376 0.0338,0.06753 0.0675,0.101291 0.20269,0.168908 0.13521,0.337815 -0.0675,0.405373 -0.40538,0.10129 -0.3378,0.439151 -0.3716,0.743188 0,0.47293 0.40539,0.506708 0.70941,0.641837 0.27025,0.101291 0.3716,-0.135204 0.50672,-0.270243 0.27025,-0.23648 0.43916,-0.574281 0.81075,-0.608059 0.74319,-0.101291 1.4188,-0.472945 2.16199,-0.506723 z m 11.75584,17.262176 c -0.0338,-0.10129 -0.0675,-0.168908 -0.0675,-0.270258 -0.0675,0.06753 -0.1352,0.135054 -0.1689,0.202686 -0.0675,0.101291 -0.1013,0.304037 -0.23647,0.371594 -0.64184,0.439151 -0.47293,1.148561 -0.70939,1.75662 -0.0338,0.101291 -0.0338,0.236465 0.10129,0.270258 0.10129,0.03376 0.2027,-0.03376 0.27025,-0.135204 0.33782,-0.709409 0.64184,-1.418819 0.81075,-2.195786 z m -2.39846,-9.695195 c -0.10129,0.236465 -0.33781,0 -0.47293,0.03376 -0.57428,0.135204 -1.01344,-0.135205 -1.48637,-0.371595 -0.16891,-0.06753 -0.3716,-0.03376 -0.40538,0.101291 -0.23648,0.776967 -0.5405,-0.06753 -0.77696,0.03376 -0.0338,0 -0.10129,-0.168908 -0.13521,-0.168908 -0.5405,-0.06753 -0.91209,-0.236465 -0.74319,-0.912096 0.0338,-0.101291 -0.1689,-0.168893 -0.27024,-0.135054 -0.67563,0.10129 -1.41882,-0.135205 -2.02688,0.337815 -0.0675,0.06753 -0.20268,0 -0.30402,0 -0.10129,0 -0.30404,0.03376 -0.30404,-0.10129 0,-0.168908 0.16891,-0.135055 0.30404,-0.168908 0.3378,-0.03376 0.50671,-0.236465 0.64184,-0.540502 0.16891,-0.439151 0.60806,-0.641838 0.91209,-0.844524 0.67562,-0.506708 0.91209,0.101291 1.28368,0.371594 0.13505,0.101291 0.27026,0.202686 0.43915,0.270244 0.10129,0.06753 0.2027,0.168907 0.16891,0.270258 -0.0338,0.168908 -0.16891,0.135054 -0.30402,0.135054 -0.0675,0.03376 -0.20269,-0.06753 -0.23647,0.06753 0,0.03376 0.0675,0.101291 0.13521,0.135205 0.10129,0.03376 0.23646,0.202686 0.30402,0.06753 0.0675,-0.168908 0.20268,-0.270259 0.30403,-0.439152 0.33781,-0.506723 -0.23648,-0.439166 -0.37159,-0.641852 -0.0338,-0.06753 -0.16891,-0.06753 -0.16891,-0.135204 -0.0675,-0.168908 -0.40537,-0.304022 -0.23646,-0.47293 0.16891,-0.168908 0.30402,0.168908 0.47293,0.236465 0.64184,0.236465 0.70941,0.912096 1.04722,1.351247 0.0675,0.101291 0.10129,0.304037 0.27025,0.236465 0.13505,-0.06753 0.20268,-0.236465 0.13505,-0.405373 -0.0338,-0.168908 -0.16891,-0.337815 0.0675,-0.405372 0.27024,-0.06753 0.30402,0.168907 0.33781,0.337815 0.0675,0.439151 0.3378,0.608059 0.77696,0.608059 0.23648,0 0.43916,0.202686 0.7094,0.101291 0.0338,0 0.1013,0.03376 0.1013,0.10129 0.0338,0.405373 -0.0675,0.675616 -0.16891,0.945875 z m -4.2902,-1.993085 c -0.0675,-0.168908 0.0338,-0.371594 -0.13521,-0.540502 -0.0338,0.168908 -0.10129,0.337816 -0.13505,0.506709 0.10129,0.06753 -0.0338,0.270258 0.16891,0.270258 0.10129,-0.03376 0.1352,-0.168908 0.10129,-0.236465 z m 3.98617,-0.641852 c -0.13521,0.03376 -0.23647,0.03376 -0.3378,-0.101291 -0.1013,-0.135204 -0.20269,-0.371594 -0.3716,-0.202686 -0.20269,0.168907 -0.30404,0.439151 -0.23648,0.709409 0.0675,0.202687 0.27026,0.304022 0.43917,0.236465 0.40537,-0.168908 0.74319,-0.06753 1.08099,0.135204 0.10129,0.06753 0.27025,0.168908 0.33781,0 0.0675,-0.168907 -0.0675,-0.236464 -0.16891,-0.304022 -0.1689,-0.135054 -0.37159,-0.270258 -0.5067,-0.439166 -0.0675,-0.10129 0.0675,-0.304022 -0.20269,-0.270243 -0.0338,0 -0.0675,0 -0.0675,0.03376 -0.0675,0.135205 0.10129,0.101291 0.13521,0.168908 0,0.03376 -0.0338,0.03376 -0.10129,0.03376 z m 1.04722,4.391557 c -0.10129,-0.304037 -0.30404,-0.540502 -0.47294,-0.810745 -0.0338,-0.06753 -0.10129,-0.135205 -0.20269,-0.101291 -0.13505,0.03376 -0.0675,0.135204 -0.0338,0.202686 0.40537,0.810746 0.74318,1.655269 1.081,2.466015 0.0675,0.168908 0.27024,0.304037 0.43915,0.472945 0.0338,0.03376 0.0675,0.03376 0.10129,0.06753 0,-0.03376 0.0338,-0.101291 0,-0.03376 0,-0.979653 -0.64184,-1.520155 -0.91209,-2.263343 z m -3.71593,-7.60076 c -0.13505,-0.236465 -0.0338,-0.337816 0.16891,-0.439151 0.0338,-0.03376 0.10129,-0.101291 0.0338,-0.101291 -0.0675,-0.03376 -0.20271,-0.03376 -0.20271,0 -0.10129,0.236465 -0.8783,0.202686 -0.27024,0.70941 0,0 0,0.10129 0,0.10129 -0.23646,0.168908 -0.16891,0.675631 -0.64184,0.608059 -0.0338,0 -0.13505,0 -0.0675,0.06753 0.27024,0.337801 0.64183,0 0.97965,0.101291 0.10129,0.03376 0.16891,-0.101291 0.20269,-0.236465 0.0338,-0.371594 0.13505,-0.675631 0.60806,-0.439151 0.0338,0.03376 0.1352,0.03376 0.1352,-0.03376 0,0 -0.0675,-0.06753 -0.1352,-0.06753 -0.0675,0 -0.16891,0 -0.23647,0 -0.23648,-0.03376 -0.43917,-0.03376 -0.57428,-0.270243 z m 6.08061,7.330501 c -0.33782,-0.168892 -0.64184,-0.371579 -0.74319,-0.743173 -0.0338,-0.06753 -0.10129,-0.202686 -0.20268,-0.135204 -0.1013,0.06753 -0.0675,0.168908 0,0.270243 0.1352,0.202687 0.30403,0.337816 0.37159,0.540502 0.16891,0.641838 0.33781,0.439152 0.57428,0.06753 0,0 0,0 0,0 z m -21.21457,-9.1209 c -0.23646,0.135055 0.13521,0.168893 0.0338,0.337801 -0.1013,0.168908 0.1689,0.270258 0.23646,0.23648 0.30404,-0.03376 0.30404,-0.304037 0.23647,-0.540502 -0.0338,-0.135204 -0.1689,-0.03376 -0.27025,0 -0.10129,0.06753 -0.16891,0.06753 -0.23646,-0.03376 -0.0338,0 0,0 0,0 z m -2.39846,4.323986 c 0.0338,-0.135205 -0.10129,-0.168908 -0.20268,-0.168908 -0.2027,0.03376 -0.40539,0.135204 -0.50673,0.270243 -0.0338,0.06753 0.20269,-0.03376 0.27025,0.06753 0.1352,-0.10129 0.40537,0.101291 0.43916,-0.168892 z m -0.0338,0.540501 c -0.0675,0.06753 0.0338,0.168893 0.0675,0.135205 0.13505,-0.101291 0.30402,-0.202687 0.40537,-0.337816 0.0338,-0.03376 -0.16891,-0.101291 -0.30404,-0.101291 -0.27024,-0.06753 -0.0675,0.202687 -0.1689,0.304022 z m 20.70786,9.695181 c -0.16891,0 -0.23646,0.101291 -0.27026,0.23648 0,0.10129 -0.0338,0.236465 0.13521,0.236465 0.1689,0 0.1689,-0.202687 0.23648,-0.304037 0.0675,-0.135205 -0.0338,-0.135205 -0.10129,-0.168908 z m -21.04569,-9.83034 c -0.16891,0.03376 -0.27026,0.168908 -0.33782,0.304022 -0.0675,0.101291 -0.13505,0.270259 -0.1689,0.371594 0.0338,0 0.0675,0.03376 0.10129,0 0.20268,-0.168907 0.20268,-0.472929 0.47293,-0.641837 -0.0675,0 -0.0675,-0.03376 -0.0675,-0.03376 z"
     id="path2-3"
     style="fill:url(#linearGradient890);fill-opacity:1;stroke-width:0.337811" />
  <g
     transform="matrix(1.1142797,0,0,1.1142797,-148.0482,-1110.9264)"
     id="g4">
    <path
       style="color:#000000;font-style:normal;font-variant:normal;font-weight:normal;font-stretch:normal;font-size:medium;line-height:normal;font-family:Sans;-inkscape-font-specification:Sans;text-indent:0;text-align:start;text-decoration:none;text-decoration-line:none;letter-spacing:normal;word-spacing:normal;text-transform:none;writing-mode:lr-tb;direction:ltr;baseline-shift:baseline;text-anchor:start;display:inline;overflow:visible;visibility:visible;opacity:1;fill:url(#linearGradient838);fill-opacity:1;fill-rule:nonzero;stroke:none;stroke-width:3.95596;marker:none;enable-background:accumulate"
       d="m 140.26136,1005.0678 c -3.98871,0 -7.39687,2.8599 -7.39687,6.6562 v 56.0165 c 0,2.3649 0.83647,3.8844 2.46043,5.2631 1.62397,1.3787 3.30936,2.0641 5.45993,2.0641 h 68.3709 c 1.64145,0.029 1.59477,-2.2249 3.9e-4,-2.2488 l -68.46587,-0.04 c -2.11598,0 -3.87416,-1.4929 -3.87416,-1.4929 0,0 -1.62016,-1.2165 -1.62016,-3.5457 v -56.0165 c 0,-2.6161 1.77916,-4.2946 4.88695,-4.2605 l 24.06655,-0.012 11.47627,10.2309 c 0.34679,0.3129 0.79077,0.759 1.25317,0.769 l 33.37023,-0.012 c 1.7015,-0.01 1.64773,-2.3444 -0.0538,-2.3717 h -32.61346 l -12.1651,-10.5312 c -0.35109,-0.3015 -0.79464,-0.4674 -1.25318,-0.4687 z m 38.81827,2.9062 c -1.55276,0 -1.55586,2.6709 0.0388,2.6937 l 29.7626,-0.041 c 3.0158,0 4.32232,0.9732 5.32647,1.91 1.00416,0.9367 2.53008,3.2301 2.53008,5.5933 v 54.9375 c 0.009,1.8591 2.19838,1.9203 2.20491,0.064 l -0.006,-55.0018 c -3.1e-4,-3.2104 -1.04994,-5.8983 -2.9343,-7.6562 -1.88434,-1.7579 -4.44981,-2.5 -7.12177,-2.5 h -29.61804 c -0.0611,0 -0.12228,0 -0.18339,0 z"
       id="path2-3-3"
       sodipodi:nodetypes="sssssccscsssccccccccsccsssccssscc" />
  </g>
</svg>
