<?xml version="1.0" encoding="UTF-8" standalone="no"?>
<svg
   xmlns:dc="http://purl.org/dc/elements/1.1/"
   xmlns:cc="http://creativecommons.org/ns#"
   xmlns:rdf="http://www.w3.org/1999/02/22-rdf-syntax-ns#"
   xmlns:svg="http://www.w3.org/2000/svg"
   xmlns="http://www.w3.org/2000/svg"
   xmlns:xlink="http://www.w3.org/1999/xlink"
   xmlns:sodipodi="http://sodipodi.sourceforge.net/DTD/sodipodi-0.dtd"
   xmlns:inkscape="http://www.inkscape.org/namespaces/inkscape"
   id="svg15"
   version="1.1"
   viewBox="0 0 96 96"
   sodipodi:docname="folder-Pop_OS.svg"
   inkscape:version="1.0.2 (e86c870879, 2021-01-15)">
  <metadata
     id="metadata18">
    <rdf:RDF>
      <cc:Work
         rdf:about="">
        <dc:format>image/svg+xml</dc:format>
        <dc:type
           rdf:resource="http://purl.org/dc/dcmitype/StillImage" />
      </cc:Work>
    </rdf:RDF>
  </metadata>
  <sodipodi:namedview
     pagecolor="#ffffff"
     bordercolor="#666666"
     borderopacity="1"
     objecttolerance="10"
     gridtolerance="10"
     guidetolerance="10"
     inkscape:pageopacity="0"
     inkscape:pageshadow="2"
     inkscape:window-width="1920"
     inkscape:window-height="1007"
     id="namedview16"
     showgrid="false"
     inkscape:zoom="3.2708333"
     inkscape:cx="-43.905818"
     inkscape:cy="10.701744"
     inkscape:window-x="0"
     inkscape:window-y="0"
     inkscape:window-maximized="1"
     inkscape:current-layer="svg15"
     inkscape:document-rotation="0" />
  <defs
     id="defs5455">
    <linearGradient
       id="linearGradient4178"
       x2="0"
       y1="541.79797"
       y2="499.78421"
       gradientTransform="matrix(1.4999996,0,0,1.4995115,-576.85701,-725.43213)"
       gradientUnits="userSpaceOnUse">
      <stop
         id="stop4174-6-7"
         stop-color="#3daee9"
         offset="0" />
      <stop
         id="stop4176-6-5"
         stop-color="#6cc1ef"
         offset="1" />
    </linearGradient>
    <linearGradient
       inkscape:collect="always"
       xlink:href="#linearGradient836"
       id="linearGradient838"
       x1="6"
       y1="50.000134"
       x2="94.005508"
       y2="50.000134"
       gradientUnits="userSpaceOnUse"
       gradientTransform="matrix(0.9780981,0,0,1,64.250683,974.47294)" />
    <linearGradient
       inkscape:collect="always"
       id="linearGradient836">
      <stop
         style="stop-color:#008080;stop-opacity:1"
         offset="0"
         id="stop832" />
      <stop
         style="stop-color:#00e5e5;stop-opacity:1"
         offset="1"
         id="stop834" />
    </linearGradient>
    <linearGradient
       inkscape:collect="always"
       xlink:href="#linearGradient836"
       id="linearGradient926"
       x1="423.31808"
       y1="517.20392"
       x2="426.5556"
       y2="517.20392"
       gradientUnits="userSpaceOnUse"
       gradientTransform="matrix(2.0285749,0,0,2.0285968,-795.84808,-999.58655)" />
    <linearGradient
       inkscape:collect="always"
       xlink:href="#linearGradient836"
       id="linearGradient928"
       x1="413.9173"
       y1="518.79504"
       x2="417.81851"
       y2="518.79504"
       gradientUnits="userSpaceOnUse"
       gradientTransform="matrix(2.0285749,0,0,2.0285968,-795.84808,-999.58655)" />
    <linearGradient
       inkscape:collect="always"
       xlink:href="#linearGradient836"
       id="linearGradient930"
       x1="418.5582"
       y1="518.65289"
       x2="422.60925"
       y2="518.65289"
       gradientUnits="userSpaceOnUse"
       gradientTransform="matrix(2.0285749,0,0,2.0285968,-795.84808,-999.58655)" />
    <linearGradient
       inkscape:collect="always"
       xlink:href="#linearGradient836"
       id="linearGradient932"
       x1="406.31744"
       y1="517.87299"
       x2="413.16266"
       y2="517.87299"
       gradientUnits="userSpaceOnUse"
       gradientTransform="matrix(2.0285749,0,0,2.0285968,-795.84808,-999.58655)" />
    <linearGradient
       inkscape:collect="always"
       xlink:href="#linearGradient836"
       id="linearGradient934"
       x1="420.06085"
       y1="524.62439"
       x2="426.59094"
       y2="524.62439"
       gradientUnits="userSpaceOnUse"
       gradientTransform="matrix(2.0285749,0,0,2.0285968,-795.84808,-999.58655)" />
    <linearGradient
       inkscape:collect="always"
       xlink:href="#linearGradient836"
       id="linearGradient936"
       x1="415.65665"
       y1="526.09137"
       x2="419.34311"
       y2="526.09137"
       gradientUnits="userSpaceOnUse"
       gradientTransform="matrix(2.0285749,0,0,2.0285968,-795.84808,-999.58655)" />
  </defs>
  <g
     transform="matrix(1.1142775,0,0,1.1142775,-78.132325,-1093.5471)"
     id="g4">
    <path
       style="color:#000000;font-style:normal;font-variant:normal;font-weight:normal;font-stretch:normal;font-size:medium;line-height:normal;font-family:Sans;-inkscape-font-specification:Sans;text-indent:0;text-align:start;text-decoration:none;text-decoration-line:none;letter-spacing:normal;word-spacing:normal;text-transform:none;writing-mode:lr-tb;direction:ltr;baseline-shift:baseline;text-anchor:start;display:inline;overflow:visible;visibility:visible;opacity:1;fill:url(#linearGradient838);fill-opacity:1;fill-rule:nonzero;stroke:none;stroke-width:3.95596;marker:none;enable-background:accumulate"
       d="m 77.516136,989.47294 c -3.988712,0 -7.396866,2.85993 -7.396866,6.65625 v 56.01651 c 0,2.3649 0.836461,3.8844 2.460429,5.2631 1.623967,1.3787 3.30936,2.0641 5.459931,2.0641 h 68.3709 c 1.64145,0.029 1.59477,-2.2249 3.9e-4,-2.2488 l -68.465873,-0.04 c -2.115981,0 -3.874159,-1.4929 -3.874159,-1.4929 0,0 -1.620163,-1.2165 -1.620163,-3.5457 v -56.01651 c 0,-2.61614 1.77916,-4.29462 4.886948,-4.26047 l 24.066557,-0.0121 11.47627,10.23088 c 0.34679,0.3129 0.79077,0.759 1.25317,0.769 l 33.37023,-0.012 c 1.7015,-0.01 1.64773,-2.3444 -0.0538,-2.3717 h -32.61346 l -12.1651,-10.53119 c -0.35109,-0.30157 -0.79464,-0.46748 -1.25318,-0.46875 z m 38.818274,2.90625 c -1.55276,-0.004 -1.55586,2.67092 0.0388,2.69371 l 29.7626,-0.0408 c 3.0158,-0.004 4.32232,0.97316 5.32647,1.90993 1.00416,0.93677 2.53008,3.23017 2.53008,5.59337 v 54.9375 c 0.009,1.8591 2.19838,1.9203 2.20491,0.064 l -0.006,-55.0018 c -3.1e-4,-3.21041 -1.04994,-5.89832 -2.9343,-7.65623 -1.88434,-1.75791 -4.44981,-2.5 -7.12177,-2.5 h -29.61804 c -0.0611,-0.003 -0.12228,-0.003 -0.18339,0 z"
       id="path2-3"
       sodipodi:nodetypes="sssssccscsssccccccccsccsssccssscc" />
  </g>
  <path
     style="fill:url(#linearGradient926);fill-opacity:1;stroke-width:0.0401006"
     id="path2-3-3"
     d="m 65.146021,55.944346 c -0.07566,0.320217 -0.23809,0.603949 -0.515811,0.782225 -0.436292,0.279722 -0.968044,0.198605 -1.344743,-0.141862 -0.353273,-0.316141 -0.472294,-0.851141 -0.361041,-1.313222 0.114825,-0.482377 0.48004,-0.907951 0.948004,-1.041746 1.043486,-0.295819 1.475848,0.863335 1.273591,1.714623 z m -0.63875,-3.291299 c -0.646713,-0.263455 -0.424585,-3.729012 0.166992,-7.936286 0.166957,-1.17548 0.452241,-1.730868 0.773549,-2.014598 0.460191,-0.401214 1.297334,-0.4175 1.864621,-0.332372 0.650689,0.0967 1.273466,0.405394 1.745567,0.871496 0.416597,0.413471 0.46425,0.834976 0.321335,1.382192 -0.234025,0.871496 -0.634706,1.706484 -1.019579,2.52117 -0.0908,0.198596 -0.88871,1.742848 -0.9957,1.933348 -1.92418,3.461562 -2.308947,3.798053 -2.856477,3.57505 z" />
  <path
     style="fill:url(#linearGradient928);fill-opacity:1;stroke-width:0.0401006"
     id="path4"
     d="m 51.455002,51.092578 c 0.380728,1.661821 0.341074,3.485805 0.0092,4.799032 -0.305507,1.240304 -1.134659,2.350901 -2.451831,2.723759 -1.154431,0.328377 -2.499363,0.08884 -3.324544,-0.721459 -1.356795,-1.329448 -2.150243,-4.450493 -1.797197,-6.716211 0.285652,-1.819962 1.245734,-4.15066 3.352369,-4.251988 0.135857,-0.0064 0.26979,-0.002 0.40467,0.0064 2.146254,0.19862 3.316661,2.046973 3.800623,4.15874 z m -3.879779,3.78164 c 0.11774,0.02082 0.237906,0.02082 0.357004,-0.0155 0.400612,-0.117065 0.630754,-0.543247 0.737707,-0.956603 0.163578,-0.628251 0.13988,-1.305203 -0.07202,-1.921333 -0.107035,-0.312122 -0.265571,-0.616113 -0.507747,-0.843112 -0.852876,-0.798463 -1.705842,0.03207 -1.852596,0.976845 -0.114386,0.737741 0.05236,1.592967 0.503687,2.188833 0.210311,0.275631 0.511965,0.514741 0.833309,0.571487 z" />
  <path
     style="fill:url(#linearGradient930);fill-opacity:1;stroke-width:0.0401006"
     id="path6"
     d="m 56.100802,54.614879 c -0.002,3.068275 0.297483,5.415201 -1.023728,5.694827 -1.07115,0.222954 -1.0353,-0.737688 -1.118803,-1.54431 -0.317241,-3.125051 -0.606808,-8.317319 -0.729973,-11.458571 0.08646,-1.349818 0.972139,-2.176742 1.892527,-2.379296 1.420323,-0.31212 2.935634,-0.222962 4.193302,0.571454 2.487418,1.572724 2.685801,4.458624 1.178203,6.813554 -0.82502,1.284966 -3.320489,2.217213 -4.391528,2.136122 z m 0.317329,-6.878442 c -0.154746,0.02472 -0.40864,0.0966 -0.480018,0.251258 -0.170539,0.360724 -0.159685,2.650882 0.139871,3.611494 0.04807,0.158657 0.153832,0.307996 0.309464,0.364776 0.563367,0.21075 1.071316,-0.494466 1.301401,-0.920112 0.321238,-0.591774 0.424241,-1.288848 0.221952,-1.937488 -0.190783,-0.603846 -0.781401,-1.479394 -1.4915,-1.369928 z" />
  <path
     style="fill:url(#linearGradient932);fill-opacity:1;stroke-width:0.0401006"
     id="path8"
     d="m 41.874053,49.260449 c -0.932305,2.014536 -2.47949,3.615601 -4.621838,4.405941 0.615152,1.641583 1.241876,3.262925 1.852708,4.900387 0.341384,0.883565 0.666433,1.852425 0.369018,2.723776 -0.30951,0.891746 -1.515452,1.138982 -2.392226,0.190914 -1.686054,-1.832183 -7.386911,-13.440738 -7.807333,-14.312262 -0.357336,-0.749826 -0.892706,-1.552416 -0.877046,-2.419784 0.0281,-1.305188 2.003681,-2.626586 2.951657,-3.303388 1.325091,-0.944488 2.856385,-1.58897 4.494834,-1.59296 1.277607,0 2.368379,0.35672 3.336608,0.988922 1.483638,0.972916 2.515282,2.525234 2.896084,4.280332 0.333116,1.54428 0.261915,3.125162 -0.202384,4.138495 m -4.343872,-2.205103 c -0.333267,-1.23615 -1.087367,-2.375122 -2.035464,-3.17366 -0.206132,-0.173869 -0.428467,-0.33648 -0.686112,-0.425576 -1.777367,-0.59586 -1.007717,2.440056 -0.718077,3.206138 0.400742,1.074122 1.007666,2.431938 1.820944,3.242569 0.177862,0.177979 0.388868,0.336449 0.630631,0.385071 0.369069,0.07702 0.71006,-0.187066 0.896775,-0.494456 0.153854,-0.255382 0.213937,-0.55937 0.249931,-0.855198 0.06667,-0.628292 0.004,-1.268743 -0.159604,-1.884888 z" />
  <path
     style="fill:url(#linearGradient934);fill-opacity:1;stroke-width:0.0401006"
     id="path10"
     d="m 63.127989,64.690111 c -0.0064,1.779447 -1.07113,3.558912 -3.415601,3.558912 -2.344706,0 -3.435674,-1.751081 -3.435674,-3.538551 0,-2.229325 1.519436,-3.607495 3.483057,-3.607495 2.277248,0.02041 3.388078,1.747053 3.368218,3.587134 z M 59.759771,62.22578 c -1.47175,0 -2.297051,1.045767 -2.304788,2.472467 0,1.24032 0.678441,2.403691 2.277055,2.403691 1.598791,0 2.209896,-1.260555 2.209896,-2.415828 0.02114,-1.199727 -0.603192,-2.431945 -2.182163,-2.46033 z m 4.352244,5.11114 c 0,0.263476 0.0064,-1.252458 0,-1.483453 h 1.079082 l 0.07583,0.928233 c 0.353186,0.206785 0.900614,0.360754 1.348865,0.360754 0.833234,0 1.702071,-0.214993 1.702071,-1.045765 -0.02789,-0.754005 -0.995862,-0.907971 -1.777358,-0.989083 -1.329026,-0.138333 -2.400158,-0.470107 -2.400158,-1.994171 0,-1.357878 1.503514,-2.034691 2.622261,-2.034691 0.900593,-0.02067 1.53928,0.125018 2.352555,0.790306 0,0.547287 -0.0064,0.871521 -0.0064,1.418719 h -1.04311 l -0.06716,-0.899811 c -0.420518,-0.206816 -0.853012,-0.263509 -1.186196,-0.255374 -0.71812,0.0066 -1.483753,0.352608 -1.483753,0.968702 0,0.603962 0.495876,0.770102 1.376567,0.899864 1.43623,0.194834 2.820768,0.526867 2.820768,2.091467 -0.0064,1.710526 -1.578968,2.160407 -2.927821,2.160407 -1.027527,0.0036 -1.670187,-0.190908 -2.483517,-0.916104 z"
     inkscape:connector-curvature="0" />
  <path
     style="fill:url(#linearGradient936);fill-opacity:1;stroke-width:0.0401006"
     id="path12"
     d="m 54.820548,67.66529 c 0,0.312124 -0.245941,0.563355 -0.551282,0.563355 h -6.37554 c -0.305259,0 -0.551201,-0.251231 -0.551201,-0.563355 v -0.04868 c 0,-0.312123 0.245942,-0.563482 0.551201,-0.563482 h 6.37554 c 0.305341,0 0.551282,0.251359 0.551282,0.563482 z"
     inkscape:connector-curvature="0" />
</svg>
