<?xml version="1.0" encoding="UTF-8" standalone="no"?>
<svg
   xmlns:dc="http://purl.org/dc/elements/1.1/"
   xmlns:cc="http://creativecommons.org/ns#"
   xmlns:rdf="http://www.w3.org/1999/02/22-rdf-syntax-ns#"
   xmlns:svg="http://www.w3.org/2000/svg"
   xmlns="http://www.w3.org/2000/svg"
   xmlns:xlink="http://www.w3.org/1999/xlink"
   xmlns:sodipodi="http://sodipodi.sourceforge.net/DTD/sodipodi-0.dtd"
   xmlns:inkscape="http://www.inkscape.org/namespaces/inkscape"
   id="svg15"
   version="1.1"
   viewBox="0 0 96 96"
   sodipodi:docname="folder-root.svg"
   inkscape:version="1.0.1 (3bc2e813f5, 2020-09-07)">
  <metadata
     id="metadata19">
    <rdf:RDF>
      <cc:Work
         rdf:about="">
        <dc:format>image/svg+xml</dc:format>
        <dc:type
           rdf:resource="http://purl.org/dc/dcmitype/StillImage" />
      </cc:Work>
    </rdf:RDF>
  </metadata>
  <sodipodi:namedview
     pagecolor="#ffffff"
     bordercolor="#666666"
     borderopacity="1"
     objecttolerance="10"
     gridtolerance="10"
     guidetolerance="10"
     inkscape:pageopacity="0"
     inkscape:pageshadow="2"
     inkscape:window-width="1920"
     inkscape:window-height="1016"
     id="namedview17"
     showgrid="false"
     inkscape:zoom="3.2708333"
     inkscape:cx="-62.035252"
     inkscape:cy="5.9305748"
     inkscape:window-x="0"
     inkscape:window-y="0"
     inkscape:window-maximized="1"
     inkscape:current-layer="svg15" />
  <defs
     id="defs5455">
    <linearGradient
       id="linearGradient4178"
       x2="0"
       y1="541.79797"
       y2="499.78421"
       gradientTransform="matrix(1.4999996,0,0,1.4995115,-576.85701,-725.43213)"
       gradientUnits="userSpaceOnUse">
      <stop
         id="stop4174-6-7"
         stop-color="#3daee9"
         offset="0" />
      <stop
         id="stop4176-6-5"
         stop-color="#6cc1ef"
         offset="1" />
    </linearGradient>
    <linearGradient
       inkscape:collect="always"
       xlink:href="#linearGradient934"
       id="linearGradient895"
       x1="1"
       y1="16"
       x2="31"
       y2="16"
       gradientUnits="userSpaceOnUse" />
    <linearGradient
       inkscape:collect="always"
       id="linearGradient934">
      <stop
         style="stop-color:#ffcc00;stop-opacity:1"
         offset="0"
         id="stop930" />
      <stop
         style="stop-color:#00ffff;stop-opacity:1"
         offset="1"
         id="stop932" />
    </linearGradient>
    <linearGradient
       inkscape:collect="always"
       xlink:href="#linearGradient853"
       id="linearGradient867"
       gradientUnits="userSpaceOnUse"
       x1="1"
       y1="16"
       x2="31"
       y2="16" />
    <linearGradient
       inkscape:collect="always"
       id="linearGradient853">
      <stop
         style="stop-color:#008080;stop-opacity:1"
         offset="0"
         id="stop849" />
      <stop
         style="stop-color:#00e5e5;stop-opacity:1"
         offset="1"
         id="stop851" />
    </linearGradient>
    <linearGradient
       inkscape:collect="always"
       xlink:href="#linearGradient853"
       id="linearGradient854"
       gradientUnits="userSpaceOnUse"
       gradientTransform="matrix(1.0898724,0,0,1.1142772,-6.53923,-7.713818)"
       x1="6"
       y1="50.000134"
       x2="94.005508"
       y2="50.000134" />
  </defs>
  <g
     id="g8"
     transform="matrix(1.0003992,0,0,1.0003992,31.5375,36.549308)"
     style="fill:url(#linearGradient895);fill-opacity:1">
    <path
       d="M 24,1 H 8 C 4.14,1 1,4.141 1,8 v 16 c 0,3.859 3.14,7 7,7 h 16 c 3.86,0 7,-3.141 7,-7 V 8 C 31,4.141 27.86,1 24,1 Z m 0,8 H 14 v 4 h -0.011 v 9.28 2.82 l -2,-2 L 8,19.111 9.41,17.701 11.989,20.28 V 12 H 12 V 9 8 7 h 12 z"
       id="path6"
       style="fill:url(#linearGradient867);fill-opacity:1" />
  </g>
  <path
     style="color:#000000;font-style:normal;font-variant:normal;font-weight:normal;font-stretch:normal;font-size:medium;line-height:normal;font-family:Sans;-inkscape-font-specification:Sans;text-indent:0;text-align:start;text-decoration:none;text-decoration-line:none;letter-spacing:normal;word-spacing:normal;text-transform:none;writing-mode:lr-tb;direction:ltr;baseline-shift:baseline;text-anchor:start;display:inline;overflow:visible;visibility:visible;opacity:1;fill:url(#linearGradient854);fill-opacity:1;fill-rule:nonzero;stroke:none;stroke-width:4.40804;marker:none;enable-background:accumulate"
     d="M 8.24216,9.000338 C 3.79763,9.000338 0,12.187094 0,16.417246 v 62.417923 c 0,2.635155 0.93205,4.328299 2.74159,5.864553 1.80956,1.536253 3.68755,2.29998 6.08388,2.29998 h 76.184143 c 1.829035,0.03231 1.777009,-2.479156 4.35e-4,-2.505787 L 8.72008,84.449345 c -2.35778,0 -4.31689,-1.663505 -4.31689,-1.663505 0,0 -1.80531,-1.355518 -1.80531,-3.950892 V 16.417022 c 0,-2.915106 1.98249,-4.785398 5.44542,-4.747346 l 26.81681,-0.01351 12.78776,11.400037 c 0.38642,0.348658 0.88114,0.845738 1.39637,0.85688 l 37.183694,-0.01336 c 1.895932,-0.0111 1.836028,-2.612311 -0.06002,-2.642731 H 49.82747 L 36.27217,9.522318 C 35.88097,9.186286 35.38673,9.001415 34.87579,9 Z m 43.25431,3.238369 c -1.73021,-0.0045 -1.73366,2.976145 0.0432,3.00154 l 33.163786,-0.04547 c 3.360441,-0.0045 4.816262,1.08437 5.935168,2.128191 1.118907,1.043822 2.819205,3.599306 2.819205,6.232566 V 84.77114 c 0.0105,2.071552 2.449608,2.139746 2.456886,0.07131 l -0.006,-61.287249 C 95.90837,19.977913 94.738788,16.982837 92.639091,15.024037 90.539423,13.065238 87.680767,12.238344 84.703474,12.238344 H 51.70085 c -0.0681,-0.0033 -0.13625,-0.0033 -0.20435,0 z"
     id="path2-3"
     sodipodi:nodetypes="sssssccscsssccccccccsccsssccssscc" />
</svg>
