<?xml version="1.0" encoding="UTF-8" standalone="no"?>
<svg
   xmlns:dc="http://purl.org/dc/elements/1.1/"
   xmlns:cc="http://creativecommons.org/ns#"
   xmlns:rdf="http://www.w3.org/1999/02/22-rdf-syntax-ns#"
   xmlns:svg="http://www.w3.org/2000/svg"
   xmlns="http://www.w3.org/2000/svg"
   xmlns:xlink="http://www.w3.org/1999/xlink"
   xmlns:sodipodi="http://sodipodi.sourceforge.net/DTD/sodipodi-0.dtd"
   xmlns:inkscape="http://www.inkscape.org/namespaces/inkscape"
   id="svg15"
   version="1.1"
   viewBox="0 0 96 96"
   sodipodi:docname="folder-image-people.svg"
   inkscape:version="1.0.1 (3bc2e813f5, 2020-09-07)">
  <metadata
     id="metadata19">
    <rdf:RDF>
      <cc:Work
         rdf:about="">
        <dc:format>image/svg+xml</dc:format>
        <dc:type
           rdf:resource="http://purl.org/dc/dcmitype/StillImage" />
      </cc:Work>
    </rdf:RDF>
  </metadata>
  <sodipodi:namedview
     pagecolor="#ffffff"
     bordercolor="#666666"
     borderopacity="1"
     objecttolerance="10"
     gridtolerance="10"
     guidetolerance="10"
     inkscape:pageopacity="0"
     inkscape:pageshadow="2"
     inkscape:window-width="1920"
     inkscape:window-height="1016"
     id="namedview17"
     showgrid="false"
     inkscape:zoom="3.2708333"
     inkscape:cx="-71.453534"
     inkscape:cy="4.4742942"
     inkscape:window-x="0"
     inkscape:window-y="0"
     inkscape:window-maximized="1"
     inkscape:current-layer="svg15" />
  <defs
     id="defs5455">
    <linearGradient
       id="linearGradient4178"
       x2="0"
       y1="541.79797"
       y2="499.78421"
       gradientTransform="matrix(1.4999996,0,0,1.4995115,-576.85701,-725.43213)"
       gradientUnits="userSpaceOnUse">
      <stop
         id="stop4174-6-7"
         stop-color="#3daee9"
         offset="0" />
      <stop
         id="stop4176-6-5"
         stop-color="#6cc1ef"
         offset="1" />
    </linearGradient>
    <linearGradient
       inkscape:collect="always"
       xlink:href="#linearGradient934"
       id="linearGradient902"
       x1="5"
       y1="49.9995"
       x2="94.999001"
       y2="49.9995"
       gradientUnits="userSpaceOnUse" />
    <linearGradient
       inkscape:collect="always"
       id="linearGradient934">
      <stop
         style="stop-color:#ffcc00;stop-opacity:1"
         offset="0"
         id="stop930" />
      <stop
         style="stop-color:#00ffff;stop-opacity:1"
         offset="1"
         id="stop932" />
    </linearGradient>
    <linearGradient
       inkscape:collect="always"
       xlink:href="#linearGradient853"
       id="linearGradient874"
       gradientUnits="userSpaceOnUse"
       x1="5"
       y1="49.9995"
       x2="94.999001"
       y2="49.9995" />
    <linearGradient
       inkscape:collect="always"
       id="linearGradient853">
      <stop
         style="stop-color:#008080;stop-opacity:1"
         offset="0"
         id="stop849" />
      <stop
         style="stop-color:#00e5e5;stop-opacity:1"
         offset="1"
         id="stop851" />
    </linearGradient>
    <linearGradient
       inkscape:collect="always"
       xlink:href="#linearGradient853"
       id="linearGradient854"
       gradientUnits="userSpaceOnUse"
       gradientTransform="matrix(1.0898705,0,0,1.1142752,-6.53924,-7.713645)"
       x1="6"
       y1="50.000134"
       x2="94.005508"
       y2="50.000134" />
    <linearGradient
       inkscape:collect="always"
       xlink:href="#linearGradient853"
       id="linearGradient893"
       gradientUnits="userSpaceOnUse"
       x1="5"
       y1="49.9995"
       x2="94.999001"
       y2="49.9995" />
    <linearGradient
       inkscape:collect="always"
       xlink:href="#linearGradient853"
       id="linearGradient895"
       gradientUnits="userSpaceOnUse"
       x1="5"
       y1="49.9995"
       x2="94.999001"
       y2="49.9995" />
    <linearGradient
       inkscape:collect="always"
       xlink:href="#linearGradient853"
       id="linearGradient897"
       gradientUnits="userSpaceOnUse"
       x1="5"
       y1="49.9995"
       x2="94.999001"
       y2="49.9995" />
  </defs>
  <g
     id="g10"
     transform="matrix(0.49145891,0,0,0.49145891,23.63583,26.85685)"
     style="fill:url(#linearGradient902);fill-opacity:1">
    <path
       d="m 82.221,52.379 c -0.059,2.565 -3.859,4.637 -8.545,4.637 -4.686,0 -8.487,-2.071 -8.543,-4.637 -2.431,0.222 -4.681,0.295 -6.595,0.839 3.706,3.392 5.365,8.91 5.365,17.861 0,0.939 -0.066,1.825 -0.186,2.668 0.154,0.001 0.309,0.001 0.464,0.001 0.729,0 1.481,-0.005 2.246,-0.005 h 14.498 c 0.762,0 1.514,0.005 2.245,0.005 6.707,0 11.829,-0.345 11.829,-7.353 C 95,52.379 89.386,53.032 82.221,52.379 Z"
       id="path2-3"
       style="fill:url(#linearGradient893);fill-opacity:1" />
    <path
       d="m 73.677,54.217 c 6.483,0 11.736,-9.748 11.736,-16.228 0,-6.482 -5.253,-11.737 -11.736,-11.737 -6.481,0 -11.736,5.255 -11.736,11.737 -0.001,6.481 5.255,16.228 11.736,16.228 z"
       id="path4"
       style="fill:url(#linearGradient895);fill-opacity:1" />
    <path
       d="m 59.832,71.079 c 0,-18.021 -7.22,-17.181 -16.432,-18.021 -0.075,3.299 -4.962,5.961 -10.986,5.961 -6.023,0 -10.912,-2.662 -10.983,-5.961 C 12.216,53.9 5,53.059 5,71.079 c 0,9.011 6.585,9.454 15.208,9.454 0.939,0 1.905,-0.006 2.889,-0.006 h 18.639 c 0.98,0 1.947,0.006 2.888,0.006 8.62,0 15.208,-0.442 15.208,-9.454 z"
       id="path6"
       style="fill:url(#linearGradient897);fill-opacity:1" />
    <path
       d="m 25.49,52.49 c 0.865,0.75 1.778,1.382 2.73,1.866 1.333,0.676 2.739,1.065 4.195,1.065 1.458,0 2.866,-0.391 4.2,-1.068 0.951,-0.482 1.862,-1.113 2.726,-1.862 1.167,-1.014 2.249,-2.236 3.213,-3.598 3.042,-4.29 4.951,-9.907 4.951,-14.336 0,-8.334 -6.754,-15.091 -15.09,-15.091 -8.334,0 -15.089,6.756 -15.089,15.091 0,4.43 1.91,10.046 4.951,14.336 0.965,1.361 2.045,2.584 3.213,3.597 z"
       id="path8"
       style="fill:url(#linearGradient874);fill-opacity:1" />
  </g>
  <path
     style="color:#000000;font-style:normal;font-variant:normal;font-weight:normal;font-stretch:normal;font-size:medium;line-height:normal;font-family:Sans;-inkscape-font-specification:Sans;text-indent:0;text-align:start;text-decoration:none;text-decoration-line:none;letter-spacing:normal;word-spacing:normal;text-transform:none;writing-mode:lr-tb;direction:ltr;baseline-shift:baseline;text-anchor:start;display:inline;overflow:visible;visibility:visible;opacity:1;fill:url(#linearGradient854);fill-opacity:1;fill-rule:nonzero;stroke:none;stroke-width:4.40803;marker:none;enable-background:accumulate"
     d="M 8.24214,9.000492 C 3.79762,9.000492 0,12.187233 0,16.417383 v 62.417803 c 0,2.635152 0.93205,4.328289 2.74159,5.864539 1.80955,1.53625 3.68755,2.299979 6.08387,2.299979 h 76.184 c 1.82903,0.03226 1.77702,-2.47915 4.3e-4,-2.505786 L 8.72007,84.449348 c -2.35778,0 -4.31689,-1.6635 -4.31689,-1.6635 0,0 -1.8053,-1.355504 -1.8053,-3.950875 V 16.417155 c 0,-2.915103 1.98248,-4.785386 5.4454,-4.747331 l 26.81677,-0.01351 12.78773,11.400013 c 0.38642,0.348664 0.88114,0.845736 1.39637,0.856871 l 37.18363,-0.01351 c 1.89592,-0.0105 1.83602,-2.612297 -0.0599,-2.642714 H 49.82751 L 36.27224,9.522312 C 35.88103,9.186284 35.3868,9.001411 34.87586,9 Z m 43.25425,3.238362 c -1.7302,-0.0045 -1.73367,2.976132 0.0432,3.001537 l 33.16371,-0.04547 c 3.36043,-0.0045 4.81627,1.084375 5.93516,2.12819 1.11892,1.043815 2.81921,3.5993 2.81921,6.232546 v 61.215495 c 0.0105,2.071557 2.44959,2.139745 2.45687,0.07128 l -0.006,-61.287133 C 95.90819,19.978013 94.73861,16.982943 92.63892,15.024155 90.53924,13.065352 87.6806,12.238463 84.7033,12.238463 H 51.70066 c -0.0681,-0.003 -0.13625,-0.003 -0.20435,0 z"
     id="path2-3-3"
     sodipodi:nodetypes="sssssccscsssccccccccsccsssccssscc" />
</svg>
