<?xml version="1.0" encoding="UTF-8" standalone="no"?>
<svg
   xmlns:dc="http://purl.org/dc/elements/1.1/"
   xmlns:cc="http://creativecommons.org/ns#"
   xmlns:rdf="http://www.w3.org/1999/02/22-rdf-syntax-ns#"
   xmlns:svg="http://www.w3.org/2000/svg"
   xmlns="http://www.w3.org/2000/svg"
   xmlns:xlink="http://www.w3.org/1999/xlink"
   xmlns:sodipodi="http://sodipodi.sourceforge.net/DTD/sodipodi-0.dtd"
   xmlns:inkscape="http://www.inkscape.org/namespaces/inkscape"
   id="svg15"
   version="1.1"
   viewBox="0 0 96 96"
   sodipodi:docname="folder-KDE.svg"
   inkscape:version="1.0.1 (3bc2e813f5, 2020-09-07)">
  <metadata
     id="metadata18">
    <rdf:RDF>
      <cc:Work
         rdf:about="">
        <dc:format>image/svg+xml</dc:format>
        <dc:type
           rdf:resource="http://purl.org/dc/dcmitype/StillImage" />
      </cc:Work>
    </rdf:RDF>
  </metadata>
  <sodipodi:namedview
     pagecolor="#ffffff"
     bordercolor="#666666"
     borderopacity="1"
     objecttolerance="10"
     gridtolerance="10"
     guidetolerance="10"
     inkscape:pageopacity="0"
     inkscape:pageshadow="2"
     inkscape:window-width="1920"
     inkscape:window-height="1016"
     id="namedview16"
     showgrid="false"
     inkscape:zoom="3.2708333"
     inkscape:cx="-43.905818"
     inkscape:cy="10.701744"
     inkscape:window-x="0"
     inkscape:window-y="0"
     inkscape:window-maximized="1"
     inkscape:current-layer="svg15"
     inkscape:document-rotation="0" />
  <defs
     id="defs5455">
    <linearGradient
       id="linearGradient4178"
       x2="0"
       y1="541.79797"
       y2="499.78421"
       gradientTransform="matrix(1.4999996,0,0,1.4995115,-576.85701,-725.43213)"
       gradientUnits="userSpaceOnUse">
      <stop
         id="stop4174-6-7"
         stop-color="#3daee9"
         offset="0" />
      <stop
         id="stop4176-6-5"
         stop-color="#6cc1ef"
         offset="1" />
    </linearGradient>
    <linearGradient
       inkscape:collect="always"
       xlink:href="#linearGradient836"
       id="linearGradient838"
       x1="6"
       y1="50.000134"
       x2="94.005508"
       y2="50.000134"
       gradientUnits="userSpaceOnUse"
       gradientTransform="matrix(0.9780981,0,0,1,64.250683,974.47294)" />
    <linearGradient
       inkscape:collect="always"
       id="linearGradient836">
      <stop
         style="stop-color:#008080;stop-opacity:1"
         offset="0"
         id="stop832" />
      <stop
         style="stop-color:#00e5e5;stop-opacity:1"
         offset="1"
         id="stop834" />
    </linearGradient>
    <linearGradient
       inkscape:collect="always"
       xlink:href="#linearGradient836"
       id="linearGradient890"
       x1="405.99969"
       y1="519.43079"
       x2="426.00165"
       y2="519.43079"
       gradientUnits="userSpaceOnUse"
       gradientTransform="matrix(1.4356943,0,0,1.4286288,-551.0916,-687.97717)" />
  </defs>
  <g
     transform="matrix(1.1142775,0,0,1.1142775,-78.132325,-1093.5471)"
     id="g4">
    <path
       style="color:#000000;font-style:normal;font-variant:normal;font-weight:normal;font-stretch:normal;font-size:medium;line-height:normal;font-family:Sans;-inkscape-font-specification:Sans;text-indent:0;text-align:start;text-decoration:none;text-decoration-line:none;letter-spacing:normal;word-spacing:normal;text-transform:none;writing-mode:lr-tb;direction:ltr;baseline-shift:baseline;text-anchor:start;display:inline;overflow:visible;visibility:visible;opacity:1;fill:url(#linearGradient838);fill-opacity:1;fill-rule:nonzero;stroke:none;stroke-width:3.95596;marker:none;enable-background:accumulate"
       d="m 77.516136,989.47294 c -3.988712,0 -7.396866,2.85993 -7.396866,6.65625 v 56.01651 c 0,2.3649 0.836461,3.8844 2.460429,5.2631 1.623967,1.3787 3.30936,2.0641 5.459931,2.0641 h 68.3709 c 1.64145,0.029 1.59477,-2.2249 3.9e-4,-2.2488 l -68.465873,-0.04 c -2.115981,0 -3.874159,-1.4929 -3.874159,-1.4929 0,0 -1.620163,-1.2165 -1.620163,-3.5457 v -56.01651 c 0,-2.61614 1.77916,-4.29462 4.886948,-4.26047 l 24.066557,-0.0121 11.47627,10.23088 c 0.34679,0.3129 0.79077,0.759 1.25317,0.769 l 33.37023,-0.012 c 1.7015,-0.01 1.64773,-2.3444 -0.0538,-2.3717 h -32.61346 l -12.1651,-10.53119 c -0.35109,-0.30157 -0.79464,-0.46748 -1.25318,-0.46875 z m 38.818274,2.90625 c -1.55276,-0.004 -1.55586,2.67092 0.0388,2.69371 l 29.7626,-0.0408 c 3.0158,-0.004 4.32232,0.97316 5.32647,1.90993 1.00416,0.93677 2.53008,3.23017 2.53008,5.59337 v 54.9375 c 0.009,1.8591 2.19838,1.9203 2.20491,0.064 l -0.006,-55.0018 c -3.1e-4,-3.21041 -1.04994,-5.89832 -2.9343,-7.65623 -1.88434,-1.75791 -4.44981,-2.5 -7.12177,-2.5 h -29.61804 c -0.0611,-0.003 -0.12228,-0.003 -0.18339,0 z"
       id="path2-3"
       sodipodi:nodetypes="sssssccscsssccccccccsccsssccssscc" />
  </g>
  <path
     style="color:#d3dae3;fill:url(#linearGradient890);fill-opacity:1;stroke-width:1.4322"
     d="m 49.02826,39.096 -5.7429,0.865032 v 20.670453 l 5.7429,-1.53468 V 51.110984 L 54.77095,60.525435 60.513768,58.38246 53.33528,49.810724 60.516471,40.52742 54.94484,39.096 49.02826,48.465797 Z m -11.69317,5.605669 c -0.13574,0 -0.27165,0.0522 -0.37571,0.156234 l -2.25734,2.246274 c -0.20817,0.207252 -0.15802,0.503294 0,0.750553 l 2.33589,3.649704 c -0.17308,0.357496 -0.32292,0.725596 -0.44869,1.102216 -0.004,0.0153 -0.0151,0.0312 -0.0194,0.04665 l -4.23708,0.937484 C 32.04532,53.654534 31.8,53.82786 31.8,54.12105 v 1.40349 1.403475 c 0,0.293085 0.24532,0.466545 0.53276,0.53013 l 4.23708,0.937605 c 0.006,0.0276 0.0239,0.05295 0.0327,0.0804 0.12198,0.365805 0.26755,0.72366 0.43469,1.07151 l -2.33576,3.64686 c -0.1581,0.24729 -0.20826,0.54336 0,0.7506 l 2.25736,2.246143 c 0.2082,0.207258 0.54315,0.207258 0.75145,0 l 3.66219,-2.321474 c 0.35994,0.174225 0.73086,0.325231 1.11029,0.451951 0.0251,0.009 0.0478,0.02175 0.0734,0.03075 l 0.9393,4.213377 c 0,0.293055 0.23823,0.530133 0.53276,0.530133 h 3.1882 c 0.29455,0 0.46895,-0.24408 0.53292,-0.530133 l 0.93927,-4.341703 c 0.43167,-0.161444 0.85045,-0.354525 1.25344,-0.577665 l 3.57518,2.544764 c 0.20828,0.207272 0.54325,0.207272 0.75153,0 l 2.25721,-2.246129 c 0.20839,-0.20724 0.15824,-0.50331 0,-0.7506 l -1.35988,-2.053635 -0.14291,0.05265 c -0.32338,0.1209 -0.68743,-0.0045 -0.86643,-0.298544 l -1.43006,-2.343826 c -1.19149,2.836066 -4.00548,4.829986 -7.28785,4.829986 -4.36102,0 -7.89629,-3.51795 -7.89629,-7.857466 0,-3.330014 2.08576,-6.169366 5.02489,-7.313343 v -1.565395 l -0.008,0.04981 c -0.0312,0.01018 -0.0606,0.02789 -0.0917,0.0394 -0.37452,0.123881 -0.74065,0.270899 -1.09641,0.44084 l -3.65667,-2.318752 c -0.105,-0.103973 -0.23994,-0.156248 -0.37572,-0.156248 z"
     class="ColorScheme-Text"
     id="path10-7" />
</svg>
