<?xml version="1.0" encoding="UTF-8" standalone="no"?>
<svg
   xmlns:dc="http://purl.org/dc/elements/1.1/"
   xmlns:cc="http://creativecommons.org/ns#"
   xmlns:rdf="http://www.w3.org/1999/02/22-rdf-syntax-ns#"
   xmlns:svg="http://www.w3.org/2000/svg"
   xmlns="http://www.w3.org/2000/svg"
   xmlns:xlink="http://www.w3.org/1999/xlink"
   xmlns:sodipodi="http://sodipodi.sourceforge.net/DTD/sodipodi-0.dtd"
   xmlns:inkscape="http://www.inkscape.org/namespaces/inkscape"
   id="svg15"
   version="1.1"
   viewBox="0 0 96 96"
   sodipodi:docname="folder-reddit.svg"
   inkscape:version="1.0.1 (3bc2e813f5, 2020-09-07)">
  <metadata
     id="metadata18">
    <rdf:RDF>
      <cc:Work
         rdf:about="">
        <dc:format>image/svg+xml</dc:format>
        <dc:type
           rdf:resource="http://purl.org/dc/dcmitype/StillImage" />
      </cc:Work>
    </rdf:RDF>
  </metadata>
  <sodipodi:namedview
     pagecolor="#ffffff"
     bordercolor="#666666"
     borderopacity="1"
     objecttolerance="10"
     gridtolerance="10"
     guidetolerance="10"
     inkscape:pageopacity="0"
     inkscape:pageshadow="2"
     inkscape:window-width="1920"
     inkscape:window-height="1016"
     id="namedview16"
     showgrid="false"
     inkscape:zoom="3.2708333"
     inkscape:cx="-43.905818"
     inkscape:cy="10.701744"
     inkscape:window-x="0"
     inkscape:window-y="0"
     inkscape:window-maximized="1"
     inkscape:current-layer="svg15"
     inkscape:document-rotation="0" />
  <defs
     id="defs5455">
    <linearGradient
       id="linearGradient4178"
       x2="0"
       y1="541.79797"
       y2="499.78421"
       gradientTransform="matrix(1.4999996,0,0,1.4995115,-576.85701,-725.43213)"
       gradientUnits="userSpaceOnUse">
      <stop
         id="stop4174-6-7"
         stop-color="#3daee9"
         offset="0" />
      <stop
         id="stop4176-6-5"
         stop-color="#6cc1ef"
         offset="1" />
    </linearGradient>
    <linearGradient
       inkscape:collect="always"
       xlink:href="#linearGradient836"
       id="linearGradient838"
       x1="6"
       y1="50.000134"
       x2="94.005508"
       y2="50.000134"
       gradientUnits="userSpaceOnUse"
       gradientTransform="matrix(0.9780981,0,0,1,64.250683,974.47294)" />
    <linearGradient
       inkscape:collect="always"
       id="linearGradient836">
      <stop
         style="stop-color:#008080;stop-opacity:1"
         offset="0"
         id="stop832" />
      <stop
         style="stop-color:#00e5e5;stop-opacity:1"
         offset="1"
         id="stop834" />
    </linearGradient>
    <linearGradient
       inkscape:collect="always"
       xlink:href="#linearGradient836"
       id="linearGradient867"
       x1="20.388903"
       y1="41.65657"
       x2="41.60445"
       y2="41.65657"
       gradientUnits="userSpaceOnUse"
       gradientTransform="matrix(1.6388888,0,0,1.6388888,-2.6151897,-14.495496)" />
  </defs>
  <g
     transform="matrix(1.1142775,0,0,1.1142775,-78.132325,-1093.5471)"
     id="g4">
    <path
       style="color:#000000;font-style:normal;font-variant:normal;font-weight:normal;font-stretch:normal;font-size:medium;line-height:normal;font-family:Sans;-inkscape-font-specification:Sans;text-indent:0;text-align:start;text-decoration:none;text-decoration-line:none;letter-spacing:normal;word-spacing:normal;text-transform:none;writing-mode:lr-tb;direction:ltr;baseline-shift:baseline;text-anchor:start;display:inline;overflow:visible;visibility:visible;opacity:1;fill:url(#linearGradient838);fill-opacity:1;fill-rule:nonzero;stroke:none;stroke-width:3.95596;marker:none;enable-background:accumulate"
       d="m 77.516136,989.47294 c -3.988712,0 -7.396866,2.85993 -7.396866,6.65625 v 56.01651 c 0,2.3649 0.836461,3.8844 2.460429,5.2631 1.623967,1.3787 3.30936,2.0641 5.459931,2.0641 h 68.3709 c 1.64145,0.029 1.59477,-2.2249 3.9e-4,-2.2488 l -68.465873,-0.04 c -2.115981,0 -3.874159,-1.4929 -3.874159,-1.4929 0,0 -1.620163,-1.2165 -1.620163,-3.5457 v -56.01651 c 0,-2.61614 1.77916,-4.29462 4.886948,-4.26047 l 24.066557,-0.0121 11.47627,10.23088 c 0.34679,0.3129 0.79077,0.759 1.25317,0.769 l 33.37023,-0.012 c 1.7015,-0.01 1.64773,-2.3444 -0.0538,-2.3717 h -32.61346 l -12.1651,-10.53119 c -0.35109,-0.30157 -0.79464,-0.46748 -1.25318,-0.46875 z m 38.818274,2.90625 c -1.55276,-0.004 -1.55586,2.67092 0.0388,2.69371 l 29.7626,-0.0408 c 3.0158,-0.004 4.32232,0.97316 5.32647,1.90993 1.00416,0.93677 2.53008,3.23017 2.53008,5.59337 v 54.9375 c 0.009,1.8591 2.19838,1.9203 2.20491,0.064 l -0.006,-55.0018 c -3.1e-4,-3.21041 -1.04994,-5.89832 -2.9343,-7.65623 -1.88434,-1.75791 -4.44981,-2.5 -7.12177,-2.5 h -29.61804 c -0.0611,-0.003 -0.12228,-0.003 -0.18339,0 z"
       id="path2-3"
       sodipodi:nodetypes="sssssccscsssccccccccsccsssccssscc" />
  </g>
  <path
     d="m 65.569929,53.123206 c 0,-2.696229 -2.193535,-4.882864 -4.882685,-4.882864 -1.059479,0 -2.071257,0.339544 -2.906544,0.957617 -2.37015,-1.195306 -5.188491,-1.914993 -8.1696,-2.08478 l 1.948892,-5.385307 4.713173,1.174887 c 0.10108,1.935446 1.711229,3.470035 3.667094,3.470035 2.023541,0 3.673793,-1.650246 3.673793,-3.67375 0,-2.023781 -1.650252,-3.674044 -3.673793,-3.674044 -1.378609,0 -2.58054,0.760542 -3.212264,1.887951 L 50.269852,39.29663 47.45848,47.072336 c -3.23933,0.09505 -6.30915,0.828461 -8.86925,2.112103 -0.83537,-0.618091 -1.84019,-0.950735 -2.89971,-0.950735 -2.69597,0.0082 -4.88952,2.200177 -4.88952,4.889502 0,1.317369 0.54328,2.58722 1.4736,3.497376 -0.0602,0.38704 -0.0949,0.780973 -0.0949,1.174629 0,2.954093 1.72473,5.697822 4.84854,7.721587 2.98816,1.942073 6.94725,3.008203 11.14427,3.008203 4.196818,0 8.149134,-1.06613 11.143805,-3.008203 3.123868,-2.030672 4.848934,-4.774127 4.848934,-7.721587 0,-0.387011 -0.03386,-0.774052 -0.0884,-1.161092 0.943855,-0.903257 1.494047,-2.180015 1.494047,-3.510913 z M 40.53809,55.975429 c 0,-1.56882 1.27698,-2.845579 2.84563,-2.845579 1.56864,0 2.8454,1.276759 2.8454,2.845579 0,1.568578 -1.27676,2.845337 -2.8454,2.845337 -1.56865,0 -2.84563,-1.276759 -2.84563,-2.845337 z m 7.83019,9.004715 c -2.20711,0 -4.35977,-0.624722 -6.22046,-1.806252 l 1.0933,-1.718155 c 1.53479,0.977799 3.31398,1.49401 5.13399,1.49401 1.820127,0 3.592361,-0.516211 5.133917,-1.49401 l 1.093481,1.718155 c -1.874502,1.18153 -4.027078,1.806252 -6.234228,1.806252 z m 5.045772,-6.159378 c -1.568821,0 -2.845415,-1.276759 -2.845415,-2.845337 0,-1.56882 1.276594,-2.845579 2.845415,-2.845579 1.568848,0 2.845319,1.276759 2.845319,2.845579 0,1.568578 -1.276471,2.845337 -2.845319,2.845337 z m 0,0"
     id="path2-3-3"
     style="fill:url(#linearGradient867);fill-opacity:1;stroke-width:0.0679097" />
</svg>
