<?xml version="1.0" encoding="UTF-8" standalone="no"?>
<svg
   xmlns:dc="http://purl.org/dc/elements/1.1/"
   xmlns:cc="http://creativecommons.org/ns#"
   xmlns:rdf="http://www.w3.org/1999/02/22-rdf-syntax-ns#"
   xmlns:svg="http://www.w3.org/2000/svg"
   xmlns="http://www.w3.org/2000/svg"
   xmlns:xlink="http://www.w3.org/1999/xlink"
   xmlns:sodipodi="http://sodipodi.sourceforge.net/DTD/sodipodi-0.dtd"
   xmlns:inkscape="http://www.inkscape.org/namespaces/inkscape"
   id="svg15"
   version="1.1"
   viewBox="0 0 96 96"
   sodipodi:docname="folder-text.svg"
   inkscape:version="1.0.1 (3bc2e813f5, 2020-09-07)">
  <metadata
     id="metadata19">
    <rdf:RDF>
      <cc:Work
         rdf:about="">
        <dc:format>image/svg+xml</dc:format>
        <dc:type
           rdf:resource="http://purl.org/dc/dcmitype/StillImage" />
      </cc:Work>
    </rdf:RDF>
  </metadata>
  <sodipodi:namedview
     pagecolor="#ffffff"
     bordercolor="#666666"
     borderopacity="1"
     objecttolerance="10"
     gridtolerance="10"
     guidetolerance="10"
     inkscape:pageopacity="0"
     inkscape:pageshadow="2"
     inkscape:window-width="1920"
     inkscape:window-height="1016"
     id="namedview17"
     showgrid="false"
     inkscape:zoom="3.2708333"
     inkscape:cx="-21.083911"
     inkscape:cy="5.050168"
     inkscape:window-x="0"
     inkscape:window-y="0"
     inkscape:window-maximized="1"
     inkscape:current-layer="svg15" />
  <defs
     id="defs5455">
    <linearGradient
       id="linearGradient4178"
       x2="0"
       y1="541.79797"
       y2="499.78421"
       gradientTransform="matrix(1.4999996,0,0,1.4995115,-576.85701,-725.43213)"
       gradientUnits="userSpaceOnUse">
      <stop
         id="stop4174-6-7"
         stop-color="#3daee9"
         offset="0" />
      <stop
         id="stop4176-6-5"
         stop-color="#6cc1ef"
         offset="1" />
    </linearGradient>
    <linearGradient
       inkscape:collect="always"
       xlink:href="#linearGradient853"
       id="linearGradient870"
       x1="407.04874"
       y1="518.87439"
       x2="427.04874"
       y2="518.87439"
       gradientUnits="userSpaceOnUse"
       gradientTransform="matrix(1.5005961,0,0,1.5005961,-577.08639,-725.98897)" />
    <linearGradient
       inkscape:collect="always"
       id="linearGradient853">
      <stop
         style="stop-color:#008080;stop-opacity:1"
         offset="0"
         id="stop849" />
      <stop
         style="stop-color:#00e5e5;stop-opacity:1"
         offset="1"
         id="stop851" />
    </linearGradient>
    <linearGradient
       inkscape:collect="always"
       xlink:href="#linearGradient853"
       id="linearGradient854"
       gradientUnits="userSpaceOnUse"
       gradientTransform="matrix(1.0898705,0,0,1.1142752,-6.53923,-7.7136555)"
       x1="6"
       y1="50.000134"
       x2="94.005508"
       y2="50.000134" />
  </defs>
  <path
     d="m 39.731762,67.637831 h 18.007157 a 6.0023842,6.0023842 0 0 0 6.002384,-6.002384 V 43.628295 A 6.0023842,6.0023842 0 0 0 57.738919,37.62591 H 39.731762 a 6.0023842,6.0023842 0 0 0 -6.002382,6.002385 v 18.007152 a 6.0023842,6.0023842 0 0 0 6.002382,6.002384 z m 15.005965,-7.50298 H 42.732954 a 1.5005961,1.5005961 0 0 1 0,-3.001192 h 12.004773 a 1.5005961,1.5005961 0 0 1 0,3.001192 z M 42.732954,45.128891 h 12.004773 a 1.5005961,1.5005961 0 0 1 0,3.001192 H 42.732954 a 1.5005961,1.5005961 0 0 1 0,-3.001192 z m -3.001192,6.002384 h 18.007157 a 1.5005961,1.5005961 0 0 1 0,3.001192 H 39.731762 a 1.5005961,1.5005961 0 0 1 0,-3.001192 z"
     id="path4"
     style="fill:url(#linearGradient870);fill-opacity:1;stroke-width:0.375149" />
  <path
     style="color:#000000;font-style:normal;font-variant:normal;font-weight:normal;font-stretch:normal;font-size:medium;line-height:normal;font-family:Sans;-inkscape-font-specification:Sans;text-indent:0;text-align:start;text-decoration:none;text-decoration-line:none;letter-spacing:normal;word-spacing:normal;text-transform:none;writing-mode:lr-tb;direction:ltr;baseline-shift:baseline;text-anchor:start;display:inline;overflow:visible;visibility:visible;opacity:1;fill:url(#linearGradient854);fill-opacity:1;fill-rule:nonzero;stroke:none;stroke-width:4.40803;marker:none;enable-background:accumulate"
     d="M 8.24214,9.00048 C 3.79762,9.00048 0,12.187221 0,16.417371 v 62.417803 c 0,2.635152 0.93205,4.328289 2.74159,5.86454 1.80955,1.53625 3.68755,2.299978 6.08387,2.299978 h 76.184001 c 1.829032,0.03226 1.777021,-2.47915 4.35e-4,-2.505785 L 8.72007,84.449337 c -2.35778,0 -4.31689,-1.663501 -4.31689,-1.663501 0,0 -1.8053,-1.355503 -1.8053,-3.950874 V 16.417146 c 0,-2.915103 1.98248,-4.785386 5.4454,-4.747331 l 26.81677,-0.01351 12.787731,11.400014 c 0.386419,0.348663 0.881135,0.845735 1.396365,0.85687 l 37.183634,-0.0135 c 1.895928,-0.0105 1.836024,-2.612298 -0.05987,-2.642715 H 49.827532 L 36.272258,9.522312 C 35.881052,9.186284 35.386816,9.00141 34.87588,9 Z m 43.25425,3.238361 c -1.730202,-0.0045 -1.733669,2.976132 0.04322,3.001538 l 33.163717,-0.04547 c 3.360435,-0.0045 4.816269,1.084375 5.935158,2.12819 1.118919,1.043814 2.819215,3.5993 2.819215,6.232545 V 84.77114 c 0.0105,2.071558 2.449588,2.139745 2.456866,0.07128 l -0.006,-61.287134 C 95.908221,19.978002 94.738642,16.982933 92.638948,15.024145 90.539269,13.065342 87.680633,12.238453 84.70333,12.238453 H 51.700687 c -0.06813,-0.003 -0.136254,-0.003 -0.204351,0 z"
     id="path2-3"
     sodipodi:nodetypes="sssssccscsssccccccccsccsssccssscc" />
</svg>
