<?xml version="1.0" encoding="UTF-8" standalone="no"?>
<svg
   xmlns:dc="http://purl.org/dc/elements/1.1/"
   xmlns:cc="http://creativecommons.org/ns#"
   xmlns:rdf="http://www.w3.org/1999/02/22-rdf-syntax-ns#"
   xmlns:svg="http://www.w3.org/2000/svg"
   xmlns="http://www.w3.org/2000/svg"
   xmlns:xlink="http://www.w3.org/1999/xlink"
   xmlns:sodipodi="http://sodipodi.sourceforge.net/DTD/sodipodi-0.dtd"
   xmlns:inkscape="http://www.inkscape.org/namespaces/inkscape"
   id="svg15"
   version="1.1"
   viewBox="0 0 96 96"
   sodipodi:docname="folder-print.svg"
   inkscape:version="1.0.1 (3bc2e813f5, 2020-09-07)">
  <metadata
     id="metadata19">
    <rdf:RDF>
      <cc:Work
         rdf:about="">
        <dc:format>image/svg+xml</dc:format>
        <dc:type
           rdf:resource="http://purl.org/dc/dcmitype/StillImage" />
      </cc:Work>
    </rdf:RDF>
  </metadata>
  <sodipodi:namedview
     pagecolor="#ffffff"
     bordercolor="#666666"
     borderopacity="1"
     objecttolerance="10"
     gridtolerance="10"
     guidetolerance="10"
     inkscape:pageopacity="0"
     inkscape:pageshadow="2"
     inkscape:window-width="1920"
     inkscape:window-height="1016"
     id="namedview17"
     showgrid="false"
     inkscape:zoom="3.2708333"
     inkscape:cx="-38.979565"
     inkscape:cy="8.4619109"
     inkscape:window-x="0"
     inkscape:window-y="0"
     inkscape:window-maximized="1"
     inkscape:current-layer="svg15" />
  <defs
     id="defs5455">
    <linearGradient
       id="linearGradient4178"
       x2="0"
       y1="541.79797"
       y2="499.78421"
       gradientTransform="matrix(1.4999996,0,0,1.4995115,-576.85701,-725.43213)"
       gradientUnits="userSpaceOnUse">
      <stop
         id="stop4174-6-7"
         stop-color="#3daee9"
         offset="0" />
      <stop
         id="stop4176-6-5"
         stop-color="#6cc1ef"
         offset="1" />
    </linearGradient>
    <linearGradient
       inkscape:collect="always"
       xlink:href="#linearGradient934"
       id="linearGradient898"
       x1="1"
       y1="8"
       x2="15"
       y2="8"
       gradientUnits="userSpaceOnUse" />
    <linearGradient
       inkscape:collect="always"
       id="linearGradient934">
      <stop
         style="stop-color:#ffcc00;stop-opacity:1"
         offset="0"
         id="stop930" />
      <stop
         style="stop-color:#00ffff;stop-opacity:1"
         offset="1"
         id="stop932" />
    </linearGradient>
    <linearGradient
       inkscape:collect="always"
       xlink:href="#linearGradient853"
       id="linearGradient870"
       gradientUnits="userSpaceOnUse"
       x1="1"
       y1="8"
       x2="15"
       y2="8" />
    <linearGradient
       inkscape:collect="always"
       id="linearGradient853">
      <stop
         style="stop-color:#008080;stop-opacity:1"
         offset="0"
         id="stop849" />
      <stop
         style="stop-color:#00e5e5;stop-opacity:1"
         offset="1"
         id="stop851" />
    </linearGradient>
    <linearGradient
       inkscape:collect="always"
       xlink:href="#linearGradient853"
       id="linearGradient854"
       gradientUnits="userSpaceOnUse"
       gradientTransform="matrix(1.0898704,0,0,1.1142751,-6.53922,-7.7136537)"
       x1="6"
       y1="50.000134"
       x2="94.005508"
       y2="50.000134" />
    <linearGradient
       inkscape:collect="always"
       xlink:href="#linearGradient853"
       id="linearGradient893"
       gradientUnits="userSpaceOnUse"
       x1="1"
       y1="8"
       x2="15"
       y2="8" />
    <linearGradient
       inkscape:collect="always"
       xlink:href="#linearGradient853"
       id="linearGradient895"
       gradientUnits="userSpaceOnUse"
       x1="1"
       y1="8"
       x2="15"
       y2="8" />
    <linearGradient
       inkscape:collect="always"
       xlink:href="#linearGradient853"
       id="linearGradient897"
       gradientUnits="userSpaceOnUse"
       x1="1"
       y1="8"
       x2="15"
       y2="8" />
  </defs>
  <g
     id="g10"
     transform="matrix(2.1437086,0,0,2.1437086,29.70295,35.756843)"
     style="fill:url(#linearGradient898);fill-opacity:1">
    <path
       d="M 13,2 C 13,1.448 12.552,1 12,1 H 4 C 3.448,1 3,1.448 3,2 v 1 h 10 z"
       id="path2-3"
       style="fill:url(#linearGradient893);fill-opacity:1" />
    <path
       d="M 14,4 H 2 C 1.448,4 1,4.448 1,5 v 6 c 0,0.552 0.448,1 1,1 h 1 v 2 c 0,0.552 0.448,1 1,1 h 8 c 0.552,0 1,-0.448 1,-1 v -2 h 1 c 0.552,0 1,-0.448 1,-1 V 5 C 15,4.448 14.552,4 14,4 Z M 12,14 H 4 V 9 h 8 z M 13,7 H 11 V 6 h 2 z"
       id="path4"
       style="fill:url(#linearGradient895);fill-opacity:1" />
    <rect
       x="5"
       y="12"
       width="3"
       height="1"
       id="rect6"
       style="fill:url(#linearGradient897);fill-opacity:1" />
    <rect
       x="5"
       y="10"
       width="6"
       height="1"
       id="rect8"
       style="fill:url(#linearGradient870);fill-opacity:1" />
  </g>
  <path
     style="color:#000000;font-style:normal;font-variant:normal;font-weight:normal;font-stretch:normal;font-size:medium;line-height:normal;font-family:Sans;-inkscape-font-specification:Sans;text-indent:0;text-align:start;text-decoration:none;text-decoration-line:none;letter-spacing:normal;word-spacing:normal;text-transform:none;writing-mode:lr-tb;direction:ltr;baseline-shift:baseline;text-anchor:start;display:inline;overflow:visible;visibility:visible;opacity:1;fill:url(#linearGradient854);fill-opacity:1;fill-rule:nonzero;stroke:none;stroke-width:4.40803;marker:none;enable-background:accumulate"
     d="M 8.24214,9.0004795 C 3.79762,9.0004795 0,12.187221 0,16.417371 v 62.417803 c 0,2.635152 0.93205,4.328289 2.74159,5.864539 1.80955,1.53625 3.68755,2.299979 6.08387,2.299979 h 76.183995 c 1.829031,0.03226 1.77702,-2.47915 4.35e-4,-2.505786 L 8.72007,84.449336 c -2.35778,0 -4.31689,-1.663501 -4.31689,-1.663501 0,0 -1.8053,-1.355503 -1.8053,-3.950874 V 16.417146 c 0,-2.915103 1.98248,-4.785386 5.4454,-4.747331 l 26.81677,-0.01351 12.78773,11.400013 c 0.38642,0.348664 0.88114,0.845736 1.39637,0.85687 l 37.183624,-0.0135 c 1.895928,-0.0105 1.836024,-2.612297 -0.05987,-2.642714 H 49.82753 L 36.27226,9.522313 C 35.88105,9.186284 35.38682,9.0014106 34.87588,9 Z m 43.25425,3.2383615 c -1.7302,-0.0045 -1.73367,2.976132 0.04322,3.001537 l 33.163711,-0.04547 c 3.360435,-0.0045 4.816268,1.084376 5.935157,2.128191 1.11892,1.043814 2.819215,3.599299 2.819215,6.232545 V 84.77114 c 0.0105,2.071557 2.449588,2.139745 2.456866,0.07128 l -0.006,-61.287134 C 95.908214,19.978 94.738634,16.98293 92.63894,15.024142 90.539261,13.065339 87.680626,12.238451 84.703323,12.238451 H 51.700686 c -0.06813,-0.003 -0.136254,-0.003 -0.204346,0 z"
     id="path2-3-3"
     sodipodi:nodetypes="sssssccscsssccccccccsccsssccssscc" />
</svg>
