<?xml version="1.0" encoding="UTF-8" standalone="no"?>
<svg
   xmlns:dc="http://purl.org/dc/elements/1.1/"
   xmlns:cc="http://creativecommons.org/ns#"
   xmlns:rdf="http://www.w3.org/1999/02/22-rdf-syntax-ns#"
   xmlns:svg="http://www.w3.org/2000/svg"
   xmlns="http://www.w3.org/2000/svg"
   xmlns:xlink="http://www.w3.org/1999/xlink"
   xmlns:sodipodi="http://sodipodi.sourceforge.net/DTD/sodipodi-0.dtd"
   xmlns:inkscape="http://www.inkscape.org/namespaces/inkscape"
   id="svg15"
   version="1.1"
   viewBox="0 0 96 96"
   sodipodi:docname="network-workgroup.svg"
   inkscape:version="1.0.1 (3bc2e813f5, 2020-09-07)">
  <metadata
     id="metadata19">
    <rdf:RDF>
      <cc:Work
         rdf:about="">
        <dc:format>image/svg+xml</dc:format>
        <dc:type
           rdf:resource="http://purl.org/dc/dcmitype/StillImage" />
      </cc:Work>
    </rdf:RDF>
  </metadata>
  <sodipodi:namedview
     pagecolor="#ffffff"
     bordercolor="#666666"
     borderopacity="1"
     objecttolerance="10"
     gridtolerance="10"
     guidetolerance="10"
     inkscape:pageopacity="0"
     inkscape:pageshadow="2"
     inkscape:window-width="1920"
     inkscape:window-height="1016"
     id="namedview17"
     showgrid="false"
     inkscape:zoom="3.2708333"
     inkscape:cx="-24.79036"
     inkscape:cy="14.196568"
     inkscape:window-x="0"
     inkscape:window-y="0"
     inkscape:window-maximized="1"
     inkscape:current-layer="svg15" />
  <defs
     id="defs5455">
    <linearGradient
       id="linearGradient4178"
       x2="0"
       y1="541.79797"
       y2="499.78421"
       gradientTransform="matrix(1.4999996,0,0,1.4995115,-576.85701,-725.43213)"
       gradientUnits="userSpaceOnUse">
      <stop
         id="stop4174-6-7"
         stop-color="#3daee9"
         offset="0" />
      <stop
         id="stop4176-6-5"
         stop-color="#6cc1ef"
         offset="1" />
    </linearGradient>
    <linearGradient
       inkscape:collect="always"
       xlink:href="#linearGradient934"
       id="linearGradient902"
       x1="2.9999995"
       y1="1035.3622"
       x2="29"
       y2="1035.3622"
       gradientUnits="userSpaceOnUse" />
    <linearGradient
       inkscape:collect="always"
       id="linearGradient934">
      <stop
         style="stop-color:#ffcc00;stop-opacity:1"
         offset="0"
         id="stop930" />
      <stop
         style="stop-color:#00ffff;stop-opacity:1"
         offset="1"
         id="stop932" />
    </linearGradient>
    <linearGradient
       inkscape:collect="always"
       xlink:href="#linearGradient853"
       id="linearGradient844"
       x1="3"
       y1="15"
       x2="29"
       y2="15"
       gradientUnits="userSpaceOnUse" />
    <linearGradient
       inkscape:collect="always"
       id="linearGradient853">
      <stop
         style="stop-color:#008080;stop-opacity:1"
         offset="0"
         id="stop849" />
      <stop
         style="stop-color:#00e5e5;stop-opacity:1"
         offset="1"
         id="stop851" />
    </linearGradient>
    <linearGradient
       inkscape:collect="always"
       xlink:href="#linearGradient853"
       id="linearGradient854"
       gradientUnits="userSpaceOnUse"
       gradientTransform="matrix(1.0898704,0,0,1.1142751,-6.53922,-7.7136494)"
       x1="6"
       y1="50.000134"
       x2="94.005508"
       y2="50.000134" />
  </defs>
  <g
     transform="matrix(1.0003974,0,0,1.0003974,32.10926,-984.04494)"
     id="g4"
     style="fill:url(#linearGradient902);fill-opacity:1">
    <path
       style="color:#000000;text-indent:0;text-transform:none;direction:ltr;baseline-shift:baseline;fill:url(#linearGradient844);fill-opacity:1;enable-background:accumulate"
       d="M 6,0 C 4.3466487,0 3,1.3466001 3,3 3,4.6533999 4.3466487,6 6,6 h 9.5 V 8 H 6 c -1.6533513,0 -3,1.3466001 -3,3 0,1.6534 1.3466487,3 3,3 h 9.5 v 2 H 6 c -1.6533513,0 -3,1.3466 -3,3 0,1.6534 1.3466487,3 3,3 h 9.5 v 3.0625 h 1 V 22 H 26 c 1.653351,0 3,-1.3466 3,-3 0,-1.6534 -1.346649,-3 -3,-3 H 16.5 V 14 H 26 c 1.653351,0 3,-1.3466 3,-3 C 29,9.3466001 27.653351,8 26,8 H 16.5 V 6 H 26 C 27.653351,6 29,4.6533999 29,3 29,1.3466001 27.653351,0 26,0 Z m 10,26 c 1.11049,0 2,0.8895 2,2 0,1.1105 -0.88951,2 -2,2 -1.11049,0 -2,-0.8895 -2,-2 0,-1.1105 0.88951,-2 2,-2 z m 0,0.5 c -0.82249,0 -1.5,0.6775 -1.5,1.5 0,0.8225 0.67751,1.5 1.5,1.5 0.82249,0 1.5,-0.6775 1.5,-1.5 0,-0.8225 -0.67751,-1.5 -1.5,-1.5 z M 8.3006405,27 H 13.1875 C 13.073609,27.316114 13,27.645744 13,28 c 0,0.343937 0.07986,0.69173 0.1875,1 H 8.3006405 Z M 18.8125,27 h 4.28714 v 2 H 18.8125 C 18.920138,28.69173 19,28.343937 19,28 19,27.645744 18.926391,27.316114 18.8125,27 Z M 16,27.5 c 0.28207,0 0.5,0.2179 0.5,0.5 0,0.2821 -0.21793,0.5 -0.5,0.5 -0.28207,0 -0.5,-0.2179 -0.5,-0.5 0,-0.2821 0.21793,-0.5 0.5,-0.5 z"
       transform="translate(-5e-7,1020.3622)"
       fill-opacity="1"
       stroke="none"
       marker="none"
       visibility="visible"
       display="inline"
       overflow="visible"
       id="path2-3"
       sodipodi:nodetypes="sssccsssccsssccccsssccsssccssssssssssssssccscccccccscsssss" />
  </g>
  <path
     style="color:#000000;font-style:normal;font-variant:normal;font-weight:normal;font-stretch:normal;font-size:medium;line-height:normal;font-family:Sans;-inkscape-font-specification:Sans;text-indent:0;text-align:start;text-decoration:none;text-decoration-line:none;letter-spacing:normal;word-spacing:normal;text-transform:none;writing-mode:lr-tb;direction:ltr;baseline-shift:baseline;text-anchor:start;display:inline;overflow:visible;visibility:visible;opacity:1;fill:url(#linearGradient854);fill-opacity:1;fill-rule:nonzero;stroke:none;stroke-width:4.40803;marker:none;enable-background:accumulate"
     d="M 8.24214,9.000482 C 3.79762,9.000482 0,12.187223 0,16.417373 v 62.417803 c 0,2.635152 0.93205,4.328289 2.74159,5.864539 1.80955,1.53625 3.68755,2.299979 6.08387,2.299979 h 76.183998 c 1.829031,0.03226 1.77702,-2.47915 4.35e-4,-2.505786 L 8.72007,84.449338 c -2.35778,0 -4.31689,-1.663501 -4.31689,-1.663501 0,0 -1.8053,-1.355503 -1.8053,-3.950874 V 16.417145 c 0,-2.915103 1.98248,-4.785386 5.4454,-4.747331 l 26.81677,-0.0135 12.787731,11.400013 c 0.386418,0.348664 0.881135,0.845736 1.396365,0.856871 l 37.183631,-0.01351 c 1.895928,-0.0105 1.836024,-2.612297 -0.05987,-2.642714 H 49.827536 L 36.27226,9.522312 C 35.88105,9.186284 35.38682,9.001411 34.87588,9 Z m 43.25425,3.238361 c -1.730203,-0.0045 -1.733669,2.976133 0.04322,3.001538 l 33.163714,-0.04547 c 3.360435,-0.0045 4.816268,1.084375 5.935157,2.12819 1.11892,1.043815 2.819215,3.5993 2.819215,6.232546 v 61.215495 c 0.0105,2.071557 2.449588,2.139745 2.456866,0.07128 l -0.006,-61.287134 c -3.45e-4,-3.577285 -1.169925,-6.572355 -3.269619,-8.531143 -2.099679,-1.958803 -4.958314,-2.785692 -7.935617,-2.785692 h -33.00264 c -0.06813,-0.003 -0.136254,-0.003 -0.204351,0 z"
     id="path2-3-3"
     sodipodi:nodetypes="sssssccscsssccccccccsccsssccssscc" />
</svg>
