<svg xmlns="http://www.w3.org/2000/svg" width="48" height="48">
	<path d="M 24.563562,2.156105 C 21.340288,2.065461 18.158508,3.6822586 16.422937,6.6385269 13.982508,10.795411 15.318313,16.094723 19.288171,18.738136 a 1.8980909,1.9019072 84.999998 0 0 0.326172,0.292969 c 0.01222,0.0073 0.01703,0.0201 0.0293,0.02734 a 1.8980909,1.9019072 84.999998 0 0 0.07422,0.04102 1.8980909,1.9019072 84.999998 0 0 0.05469,0.0332 c 0.01083,0.0062 0.02431,0.0056 0.03516,0.01172 a 1.8980909,1.9019072 84.999998 0 0 0.425782,0.138672 c 4.268498,2.125082 9.538202,0.65574 11.943359,-3.519531 C 34.665733,11.442898 33.170902,5.8739803 28.852624,3.3729019 27.503162,2.5913145 26.028686,2.1973068 24.563562,2.156105 Z m -0.636719,3.7851563 c 1.014779,-0.065747 2.062852,0.1618813 3.017578,0.7148437 2.545937,1.4745669 3.400164,4.670883 1.933594,7.216797 -1.466569,2.545915 -4.664639,3.414526 -7.222657,1.960938 a 1.8980909,1.9019072 84.999998 0 0 -0.0332,-0.01953 1.8980909,1.9019072 84.999998 0 0 -0.04101,-0.02539 c -2.533683,-1.495445 -3.36253,-4.696698 -1.875,-7.2304691 0.929706,-1.5836068 2.529405,-2.5076094 4.220703,-2.6171876 z M 23.557702,21.699074 c -4.083754,0 -7.902696,0.8173 -10.851563,2.859375 -2.9488663,2.042074 -4.8548574,5.450438 -4.8339839,9.695312 v 5.212891 c 0,2.009365 0.8701641,3.856833 2.3164059,4.935547 1.446242,1.078714 3.238187,1.445312 5.125001,1.445312 a 1.999995,1.999995 0 0 0 2,-2 1.999995,1.999995 0 0 0 -2,-2 c -1.334758,0 -2.265085,-0.300359 -2.734376,-0.65039 -0.46929,-0.350032 -0.707031,-0.692594 -0.707031,-1.730469 v -5.222656 a 2.000195,2.000195 0 0 0 0,-0.0098 c -0.01544,-3.139206 1.111825,-5.002073 3.111328,-6.386719 1.999504,-1.384645 5.044083,-2.148437 8.574219,-2.148437 3.877032,0 7.149171,0.806 9.285156,2.224609 2.135986,1.418609 3.285157,3.27904 3.285157,6.320313 v 5.222656 c 0,0.823934 -0.239549,1.330472 -0.628907,1.703125 -0.389356,0.372653 -1.018466,0.677734 -2.11914,0.677734 H 21.01864 a 1.999995,1.999995 0 0 0 -2,2 1.999995,1.999995 0 0 0 2,2 h 12.361328 c 1.909606,0 3.652702,-0.6079 4.884766,-1.787109 1.232063,-1.179209 1.863281,-2.862914 1.863281,-4.59375 v -5.222656 c 0,-4.198678 -1.994419,-7.608201 -5.072266,-9.652344 C 31.977902,22.547475 27.966641,21.69904 23.557702,21.69904 Z" fill="#008055"/>
</svg>
