<svg xmlns="http://www.w3.org/2000/svg" width="48" height="48">
	<path d="m 24.880229,0.91977389 c -1.944759,0.037533 -3.946179,0.58212171 -5.546875,1.90234381 -1.600697,1.320222 -2.681236,3.4264549 -2.81836,6.0605468 -0.163101,2.9342375 0.326548,4.8082175 -0.34375,7.5722655 a 1.70017,1.70017 0 0 0 -0.002,0.002 c -0.28254,1.172594 -1.358523,2.348215 -2.722656,3.945313 -1.364133,1.597097 -2.925162,3.694246 -3.25586,6.697265 a 1.7,1.7 0 0 0 1.503907,1.876953 1.7,1.7 0 0 0 1.875,-1.503906 c 0.225664,-2.049231 1.208748,-3.394959 2.46289,-4.863281 1.253655,-1.467752 2.868897,-2.981532 3.441407,-5.353516 0.837162,-3.452129 0.30082,-5.785417 0.435546,-8.1914058 a 1.70017,1.70017 0 0 0 0,-0.00586 c 0.09688,-1.860948 0.720383,-2.8977782 1.587891,-3.6132813 0.861303,-0.7103848 2.083592,-1.0921055 3.421875,-1.1230468 1.670752,0.00889 2.61626,0.5634939 3.308594,1.3652344 0.69433,0.8040527 1.086021,1.9567186 1.146484,3.0507812 a 1.70017,1.70017 0 0 0 0,0.00781 l 0.382813,6.3808593 a 1.70017,1.70017 0 0 0 0.0059,0.08203 c 0.298124,2.752297 1.967206,4.629175 3.441406,6.40625 1.468645,1.770378 2.855106,3.50497 3.552735,6.123047 0.277365,1.298444 0.278807,2.160509 0.140625,3.097656 -0.251241,0.08513 -0.585281,0.08433 -0.757813,0.19336 a 1.70017,1.70017 0 0 0 -0.476562,0.451171 c -0.579303,0.813764 -1.241842,1.271184 -1.644531,1.240235 -0.565565,-0.06008 -0.416543,-0.05762 -0.478516,-0.242188 -0.06257,-0.186334 -0.04949,-0.648249 -0.01758,-0.847656 0.02593,-0.137121 -0.0028,-0.0982 0.201172,-0.195312 0.210003,-0.09999 0.637978,-0.177899 0.941406,-0.179688 a 1.7,1.7 0 0 0 1.689453,-1.710937 1.7,1.7 0 0 0 -1.710937,-1.689454 c -0.668592,0.0039 -1.501843,0.09125 -2.38086,0.509766 -0.879017,0.418512 -1.829118,1.342266 -2.080078,2.613281 a 1.70017,1.70017 0 0 0 -0.0059,0.0293 c -0.08454,0.471231 -0.241785,1.413844 0.140625,2.552735 0.382409,1.138891 1.661962,2.37331 3.367187,2.550781 a 1.70017,1.70017 0 0 0 0.02539,0.002 c 1.828237,0.162863 3.054324,-0.85487 3.976562,-1.896484 a 1.70017,1.70017 0 0 0 2.257813,-1.138672 c 0.574536,-2.124462 0.613233,-3.872059 0.130859,-6.107422 a 1.70017,1.70017 0 0 0 -0.01758,-0.07422 C 39.166174,23.51553 37.314577,21.242878 35.821635,19.443211 34.332027,17.647563 33.317278,16.381722 33.147807,14.853367 L 32.768901,8.5506333 C 32.672901,6.8136259 32.092784,4.9616006 30.800151,3.4646958 29.507516,1.967791 27.452622,0.92843255 24.919291,0.91977389 a 1.70017,1.70017 0 0 0 -0.03906,0 z M 22.264994,7.4197739 a 1.8902112,1.8902112 0 0 0 -1.890625,1.890625 1.8902112,1.8902112 0 0 0 1.890625,1.8906251 1.8902112,1.8902112 0 0 0 1.890625,-1.8906251 1.8902112,1.8902112 0 0 0 -1.890625,-1.890625 z m 4.810547,0 a 1.8902112,1.8902112 0 0 0 -1.890625,1.890625 1.8902112,1.8902112 0 0 0 1.890625,1.8886711 1.8902112,1.8902112 0 0 0 1.888672,-1.8886711 1.8902112,1.8902112 0 0 0 -1.888672,-1.890625 z m -2.541016,3.5507811 c -0.75797,0 -1.636314,0.18725 -2.40625,0.755859 -0.501315,0.364164 -0.763784,0.784211 -0.949218,1.039063 -0.186525,0.256351 -0.299798,0.400076 -0.595703,0.59375 a 1.20012,1.20012 0 0 0 0.125,2.080078 c 0.450934,0.223231 0.782962,0.582157 1.214843,1.039062 0.431881,0.456906 1.078122,1.139065 2.115235,1.1875 a 1.20012,1.20012 0 0 0 0.07226,0 c 1.20155,-0.0166 2.142419,-0.543728 2.84961,-1.011718 0.707191,-0.467991 1.248915,-0.868217 1.646484,-1.001953 a 1.20012,1.20012 0 0 0 0.742188,-0.720704 c 0.192091,-0.520265 0.207938,-1.193708 -0.07421,-1.708984 -0.282152,-0.515276 -0.708858,-0.766797 -1.054688,-0.927734 -0.69166,-0.321875 -1.321794,-0.426936 -1.554687,-0.529297 a 1.20012,1.20012 0 0 0 -0.0039,-0.002 c -0.160691,-0.06971 -0.449091,-0.234716 -0.785163,-0.40425 -0.336071,-0.169534 -0.712847,-0.388672 -1.341797,-0.388672 z m 0,2.398437 c -0.159629,0 0.02267,0.01321 0.259766,0.132813 0.237099,0.119606 0.537981,0.301324 0.910156,0.462891 0.318842,0.13973 0.453659,0.162878 0.708985,0.238281 -0.234661,0.162201 -0.570993,0.312663 -0.777344,0.449219 -0.566252,0.374722 -1.001529,0.575358 -1.507813,0.595703 -0.01237,-0.0032 -0.08985,-0.02538 -0.460937,-0.417969 -0.135791,-0.143659 -0.473647,-0.352304 -0.662109,-0.539063 0.025,-0.03311 0.09295,-0.08266 0.115234,-0.113281 0.235408,-0.323534 0.320994,-0.443209 0.416016,-0.511719 a 1.20012,1.20012 0 0 0 0.01563,-0.0098 c 0.466093,-0.346559 0.368624,-0.28711 0.982421,-0.28711 z M 12.179057,30.32407 c -1.163484,0.06446 -2.1862913,0.767487 -2.6582033,1.353516 -0.53933,0.669748 -0.811869,1.090294 -0.783203,1.06836 a 1.70017,1.70017 0 0 0 -0.279297,0.267578 c 0.315471,-0.382003 0.213648,-0.197333 -0.404297,0.0098 -0.617946,0.207099 -1.590825,0.6398 -2.353516,1.560547 a 1.70017,1.70017 0 0 0 -0.234375,0.373047 c -0.4746564,1.028908 -0.4837081,2.07553 -0.3730468,2.783203 0.1094258,0.69977 0.2144038,1.080772 0.2148438,1.203125 0.0026,-0.14056 -0.099591,0.270879 -0.2871094,0.875 -0.1891536,0.60939 -0.4212251,1.577876 -0.013672,2.625 a 1.70017,1.70017 0 0 0 0.1074218,0.224609 c 0.4752834,0.835789 1.2777384,1.403626 2.0156254,1.677735 0.737887,0.274109 1.423043,0.343514 2.0625,0.40625 1.2789135,0.125471 2.3668485,0.209865 3.2265625,0.689453 3.120622,1.759613 5.933992,1.471242 7.59961,0.181641 a 1.70017,1.70017 0 0 0 0.07227,-0.06055 c 1.201516,-1.040249 1.700765,-2.524341 1.59375,-3.695313 -0.107015,-1.170971 -0.606525,-2.028356 -0.888672,-2.544922 a 1.70017,1.70017 0 0 0 -0.10352,-0.164094 c -0.963015,-1.363966 -2.031237,-2.555297 -3.138672,-3.710938 a 1.70017,1.70017 0 0 0 -0.01172,-0.01367 c -0.224844,-0.229849 -0.964993,-1.34706 -1.68164,-2.388673 -0.358323,-0.520807 -0.731219,-1.039909 -1.167968,-1.509766 -0.43675,-0.469857 -0.900528,-0.984629 -1.865235,-1.175781 a 1.70017,1.70017 0 0 0 -0.142578,-0.02148 c -0.170767,-0.01906 -0.339647,-0.02288 -0.505859,-0.01367 z m -0.01563,3.494141 c 0.01728,0.01631 0.02092,0.01173 0.03906,0.03125 0.2277,0.24496 0.538502,0.657558 0.857422,1.121094 0.637841,0.927072 1.22037,1.988961 2.052735,2.839844 l -0.01367,-0.01172 c 1.027372,1.072093 1.942965,2.112209 2.746093,3.236328 0.236075,0.445113 0.429506,0.882174 0.453125,1.140625 0.02381,0.260574 0.02099,0.381658 -0.40625,0.767578 -0.152109,0.09419 -1.713865,0.715474 -3.80664,-0.466797 a 1.70017,1.70017 0 0 0 -0.0098,-0.0039 c -1.703896,-0.950512 -3.409447,-0.991542 -4.5507813,-1.103516 -0.570667,-0.05599 -1.00105,-0.132968 -1.210938,-0.210937 -0.092572,-0.03439 -0.078708,-0.05881 -0.107421,-0.07617 0.00226,-0.03392 -0.014082,-0.01543 0.060546,-0.255859 0.112277,-0.361718 0.413491,-0.851062 0.441407,-1.789063 a 1.70017,1.70017 0 0 0 0,-0.02344 c 0.014827,-0.884118 -0.201154,-1.448988 -0.25586,-1.798828 -0.038568,-0.246644 0.020193,-0.403235 0.072266,-0.587891 0.172993,-0.153749 0.316962,-0.280907 0.609375,-0.378906 0.364845,-0.122275 1.0692573,-0.185949 1.7988283,-0.958985 0.704808,-0.617604 1.053039,-1.247352 1.230469,-1.470703 z m 27.886719,0.617188 a 1.7,1.7 0 0 0 -1.060547,0.347656 1.7,1.7 0 0 0 -0.320313,2.382812 c 0.247455,0.324748 0.554953,0.695513 0.808594,1.115235 0.175848,0.290992 0.193043,0.418837 0.234375,0.560547 -0.257476,0.173718 -0.680582,0.408031 -1.214844,0.675781 -1.156597,0.579637 -2.683991,1.161357 -3.757812,2.615234 a 1.70017,1.70017 0 0 0 -0.0078,0.01172 c -0.602771,0.830524 -1.462391,1.370624 -2.310547,1.507813 -1.017104,0.164511 -1.179733,-0.04764 -1.43164,-0.398438 -0.24817,-0.345591 -0.401575,-1.077515 -0.330079,-1.697266 0.162811,-0.888945 1.150845,-2.112918 1.085938,-4.248046 a 1.7,1.7 0 0 0 -1.751953,-1.646485 1.7,1.7 0 0 0 -1.646485,1.75 c 0.02132,0.701277 -0.733568,1.660805 -1.05664,3.628906 a 1.70017,1.70017 0 0 0 -0.0098,0.06055 c -0.172058,1.349638 0.02499,2.85239 0.947266,4.136719 0.92228,1.284329 2.746473,2.093333 4.736328,1.771484 1.834158,-0.29667 3.426859,-1.371533 4.509766,-2.857421 l 0.002,-0.002 c 0.227201,-0.304988 1.350552,-0.993231 2.544922,-1.591796 0.598128,-0.299757 1.204278,-0.599189 1.783203,-1.017579 0.578924,-0.418389 1.321955,-1.059762 1.404297,-2.207031 a 1.70017,1.70017 0 0 0 0,-0.002 c 0.08702,-1.217129 -0.397074,-2.110176 -0.820313,-2.810547 -0.423239,-0.70037 -0.90275,-1.267882 -1.015625,-1.416016 A 1.7,1.7 0 0 0 40.050172,34.43531 Z M 24.41538,40.927586 c -0.410911,0.0024 -0.815035,0.08071 -1.216797,0.230469 a 1.7,1.7 0 0 0 -1,2.185547 1.7,1.7 0 0 0 2.1875,1 c -0.03862,0.0144 0.129253,0.0095 0.103516,0 a 1.7,1.7 0 0 0 2.185547,-1.003906 1.7,1.7 0 0 0 -1.00586,-2.183594 C 25.243988,40.99872 24.82629,40.925192 24.41538,40.927586 Z" fill="#008055"/>
</svg>
