<svg xmlns="http://www.w3.org/2000/svg" width="48" height="48">
	<path d="M 23.820312 6.0546875 C 19.284336 6.0546875 15.175832 6.7100467 12.033203 7.8652344 C 10.461889 8.4428282 9.1236655 9.13755 8.0683594 10.054688 C 7.0130532 10.971825 6.1777344 12.244827 6.1777344 13.742188 C 6.1777344 15.239546 7.0130532 16.510597 8.0683594 17.427734 C 9.1236655 18.344871 10.461889 19.039594 12.033203 19.617188 C 15.175832 20.772375 19.284336 21.427734 23.820312 21.427734 C 28.356289 21.427734 32.464793 20.772375 35.607422 19.617188 C 37.178736 19.039594 38.516959 18.344871 39.572266 17.427734 C 40.627572 16.510597 41.462891 15.239546 41.462891 13.742188 C 41.462891 12.244827 40.627572 10.971825 39.572266 10.054688 C 38.516959 9.13755 37.178736 8.4428282 35.607422 7.8652344 C 32.464793 6.7100467 28.356289 6.0546875 23.820312 6.0546875 z M 23.820312 9.8554688 C 27.978838 9.8554688 31.741735 10.494359 34.296875 11.433594 C 35.574445 11.903211 36.542127 12.45631 37.080078 12.923828 C 37.618029 13.391346 37.662109 13.641555 37.662109 13.742188 C 37.662109 13.842818 37.618029 14.093029 37.080078 14.560547 C 36.542127 15.028065 35.574445 15.581164 34.296875 16.050781 C 31.741735 16.990016 27.978838 17.628906 23.820312 17.628906 C 19.661787 17.628906 15.89889 16.990016 13.34375 16.050781 C 12.06618 15.581164 11.098498 15.028065 10.560547 14.560547 C 10.022596 14.093029 9.9765625 13.842818 9.9765625 13.742188 C 9.9765625 13.641555 10.022596 13.391346 10.560547 12.923828 C 11.098498 12.45631 12.06618 11.903211 13.34375 11.433594 C 15.89889 10.494359 19.661787 9.8554688 23.820312 9.8554688 z M 40.080078 20.310547 A 1.9 -1.9 0 0 0 37.392578 20.365234 A 1.9 -1.9 0 0 0 37.447266 23.052734 C 37.841843 23.43163 37.895553 23.647192 37.904297 23.720703 C 37.91304 23.794214 37.931071 23.865445 37.714844 24.152344 C 37.282389 24.726141 35.747319 25.75803 33.246094 26.478516 C 28.243642 27.919488 20.815157 28.006044 15.550781 26.662109 C 12.918593 25.990142 11.17165 24.992956 10.552734 24.324219 C 10.243276 23.98985 10.219256 23.822546 10.216797 23.757812 C 10.214338 23.693079 10.204072 23.577737 10.496094 23.240234 A 1.9 -1.9 0 0 0 10.302734 20.558594 A 1.9 -1.9 0 0 0 7.6230469 20.753906 C 6.8682342 21.626277 6.3760125 22.746489 6.4199219 23.902344 C 6.4638312 25.058199 7.0150839 26.095449 7.7636719 26.904297 C 9.2608478 28.521993 11.569866 29.5673 14.611328 30.34375 C 17.65279 31.1202 21.105983 31.489139 24.533203 31.453125 C 27.960423 31.417111 31.360941 30.976564 34.296875 30.130859 C 37.232809 29.285154 39.428314 28.193114 40.75 26.439453 C 41.410843 25.562623 41.814046 24.417516 41.677734 23.271484 C 41.541423 22.125453 40.920262 21.117339 40.080078 20.310547 z M 40.199219 30.800781 A 1.9 -1.9 0 0 0 37.511719 30.853516 A 1.9 -1.9 0 0 0 37.566406 33.541016 C 37.960984 33.919912 38.014693 34.135473 38.023438 34.208984 C 38.032181 34.282495 38.050212 34.353727 37.833984 34.640625 C 37.40153 35.214422 35.86646 36.248264 33.365234 36.96875 C 28.362783 38.409722 20.934298 38.494325 15.669922 37.150391 C 13.037734 36.478423 11.290791 35.481238 10.671875 34.8125 C 10.362417 34.478131 10.338396 34.310828 10.335938 34.246094 C 10.333477 34.18136 10.323213 34.066018 10.615234 33.728516 A 1.9 -1.9 0 0 0 10.421875 31.048828 A 1.9 -1.9 0 0 0 7.7421875 31.242188 C 6.9873748 32.114558 6.4951531 33.23477 6.5390625 34.390625 C 6.5829719 35.54648 7.1342245 36.58373 7.8828125 37.392578 C 9.3799885 39.010274 11.689007 40.057534 14.730469 40.833984 C 17.771931 41.610435 21.225123 41.979373 24.652344 41.943359 C 28.079564 41.907346 31.480082 41.464846 34.416016 40.619141 C 37.351949 39.773436 39.547455 38.681395 40.869141 36.927734 C 41.529983 36.050904 41.933187 34.90775 41.796875 33.761719 C 41.660563 32.615687 41.039403 31.607574 40.199219 30.800781 z " fill="#008055"/>
</svg>
