<svg xmlns="http://www.w3.org/2000/svg" width="48" height="48">
	<path d="m 30.033124,1.7725564 a 1.9,1.9 0 0 0 -0.117187,0.00195 1.9,1.9 0 0 0 -1.580079,0.9785157 l -2.134765,3.8496094 a 1.9,1.9 0 0 0 0.740234,2.5820312 1.9,1.9 0 0 0 2.583985,-0.7402343 L 31.660077,4.594822 A 1.9,1.9 0 0 0 30.919843,2.0127907 1.9,1.9 0 0 0 30.033124,1.7725564 Z m -9.972656,0.00195 a 1.9,1.9 0 0 0 -0.96875,0.25 1.9,1.9 0 0 0 -0.703125,2.5937501 L 40.060468,42.426854 h -7.935547 c -1.089137,0 -1.416695,-0.135665 -1.839844,-0.84961 L 26.663984,30.165135 c -0.345096,-1.287667 -1.397783,-2.587667 -2.929688,-2.603516 -1.531905,-0.01585 -2.580993,1.199596 -2.980469,2.4375 a 1.90019,1.90019 0 0 0 -0.0039,0.01172 l -3.574219,11.326172 c -0.411582,0.63124 -1.11471,1.091797 -1.757812,1.091797 H 7.7440615 L 23.249921,17.139744 A 1.9,1.9 0 0 0 22.622968,14.526463 1.9,1.9 0 0 0 20.01164,15.153416 L 4.1503111,41.01865 c -0.5944109,0.889571 -1.2708628,1.76602 -0.8320312,3.263672 0.2194158,0.748826 0.8915597,1.384617 1.4902344,1.642578 0.5986744,0.257963 1.1387616,0.302735 1.703125,0.302735 H 15.41789 c 2.245753,0 4.095489,-1.32228 5.107422,-3.044922 a 1.90019,1.90019 0 0 0 0.173828,-0.390625 l 2.986328,-9.457031 3.068359,9.675781 a 1.90019,1.90019 0 0 0 0.152344,0.355469 c 1.098791,1.959904 3.253078,2.861328 5.21875,2.861328 h 9.273437 c 0.58347,0 1.059566,-0.0074 1.646485,-0.181641 0.586919,-0.174228 1.537351,-0.868617 1.720703,-1.796875 0.183352,-0.928257 -0.119886,-1.437006 -0.320312,-1.841797 -0.18725,-0.378176 -0.397513,-0.704648 -0.625,-1.0625 L 21.685468,2.7295877 a 1.9,1.9 0 0 0 -1.625,-0.9550783 z" fill="#008055"/>
</svg>
