<svg xmlns="http://www.w3.org/2000/svg" width="48" height="48">
	<path d="m 7.1249999,4.7988282 c -1.320286,0 -2.6611244,0.4169464 -3.6289063,1.375 C 2.5283117,7.1318819 2.064453,8.5167478 2.064453,9.9648438 v 5.2246092 a 1.9,1.9 0 0 0 1.9003906,1.900391 1.9,1.9 0 0 0 1.9003906,-1.900391 V 9.9648438 c 0,-0.707604 0.1672344,-0.9537722 0.3046875,-1.0898437 C 6.3073749,8.7389286 6.5447857,8.5996096 7.1249999,8.5996096 H 32.24414 c 5.724596,0 9.890625,4.4522344 9.890625,10.1953124 v 19.009766 c 0,0.735548 -0.178646,1.171882 -0.30664,1.333984 -0.127995,0.162103 -0.191992,0.263672 -0.798828,0.263672 H 20.982422 c -5.060536,0 -9.716797,-4.498073 -9.716797,-9.802734 V 15.101563 A 1.9,1.9 0 0 0 9.3652342,13.201172 1.9,1.9 0 0 0 7.4667967,15.101563 V 29.59961 c 0,7.470539 6.2676403,13.601562 13.5156253,13.601562 h 20.046875 c 1.489325,0 2.930686,-0.629809 3.78125,-1.707031 0.850563,-1.077222 1.125,-2.388501 1.125,-3.689453 V 18.794922 C 45.935547,11.141 39.997545,4.7988283 32.24414,4.7988283 Z M 16.345703,10.38086 a 1.8,1.8 0 0 0 -1.800781,1.798828 v 16.8125 c 0,1.956681 0.604471,3.78825 1.792968,5.164062 1.188497,1.375813 2.989925,2.230469 4.980469,2.230469 h 11.296875 c 3.466033,0 6.31836,-2.635604 6.31836,-5.904297 V 20.171875 c 0,-1.657315 -0.632774,-3.124502 -1.652344,-4.078125 -1.019571,-0.953623 -2.342183,-1.393763 -3.63086,-1.380859 -1.208808,0.0121 -2.427868,0.509295 -3.392578,1.355469 -1.017962,-0.893267 -2.306971,-1.297715 -3.560547,-1.28125 -1.282059,0.01684 -2.575677,0.467732 -3.58789,1.398437 -1.012213,0.930705 -1.669922,2.368838 -1.669922,3.986328 v 7.857422 a 1.8,1.8 0 0 0 1.800781,1.798828 1.8,1.8 0 0 0 1.800781,-1.798828 v -7.857422 c 0,-0.72621 0.212515,-1.068167 0.50586,-1.33789 0.293345,-0.269724 0.740534,-0.439289 1.199219,-0.445313 0.458684,-0.006 0.878961,0.147859 1.15625,0.400391 0.277288,0.252531 0.5,0.594141 0.5,1.382812 v 7.857422 a 1.8,1.8 0 0 0 1.800781,1.798828 1.8,1.8 0 0 0 1.800781,-1.798828 v -7.849609 a 1.8,1.8 0 0 0 0,-0.0078 c 0,-1.540321 0.795567,-1.850483 1.683594,-1.859375 0.444013,-0.0044 0.854819,0.148316 1.134765,0.410156 0.279947,0.261839 0.511719,0.632234 0.511719,1.449219 v 10.310544 c 0,1.262507 -0.934703,2.304688 -2.71875,2.304688 H 21.318359 c -1.028545,0 -1.713199,-0.356188 -2.255859,-0.984375 -0.542661,-0.628188 -0.916016,-1.591828 -0.916016,-2.810547 v -16.8125 A 1.8,1.8 0 0 0 16.345703,10.38086 Z" fill="#008055"/>
</svg>
