<svg xmlns="http://www.w3.org/2000/svg" width="48" height="48">
	<path d="m 20.133537,2.545627 c -1.369723,0.0117 -2.70483,0.521112 -3.734375,1.4316406 -0.549091,0.4856152 -1.012336,1.0860773 -1.345703,1.7851562 -1.252966,2.6275021 -0.213134,5.7189262 2.226563,7.2031252 a 1.5999768,1.6000232 84.998808 0 0 0.423828,0.322265 c 0.0024,0.0012 0.0034,0.0027 0.0059,0.0039 a 1.5999768,1.6000232 84.998808 0 0 0.0293,0.01367 1.5999768,1.6000232 84.998808 0 0 0.0293,0.01563 c 0,0 0.002,-0.002 0.002,-0.002 a 1.5999768,1.6000232 84.998808 0 0 0.0059,0.0039 1.5999768,1.6000232 84.998808 0 0 0.507813,0.123047 c 0.0014,4.94e-4 0.0045,-4.92e-4 0.0059,0 2.695258,0.947939 5.748016,-0.210024 6.986328,-2.845703 C 26.593656,7.7963872 25.377283,4.4081246 22.577072,3.082747 21.789513,2.7099845 20.955547,2.5386176 20.133713,2.5456377 Z m 0.125,3.1894531 c 0.318153,0.015194 0.639221,0.093508 0.949219,0.2402343 1.239991,0.5869048 1.755224,2.0239991 1.171875,3.265625 -0.583349,1.2416266 -2.014467,1.7574986 -3.257813,1.1777346 a 1.5999768,1.6000232 84.998808 0 0 -0.02148,-0.0078 1.5999768,1.6000232 84.998808 0 0 -0.0059,-0.0039 C 17.857879,9.8129296 17.351651,8.3776279 17.942131,7.139377 c 0.44286,-0.9286882 1.361946,-1.44988 2.316406,-1.4042969 z m -0.433594,9.0917969 a 1.90019,1.90019 0 0 0 -1.914062,2.056641 l 0.984375,11.957031 c 0,0 0,0.002 0,0.002 0.202191,2.822862 2.47996,4.822265 5.037109,4.822265 a 1.90019,1.90019 0 0 0 0.02344,0 l 5.117187,-0.0625 c 0.522331,0 0.690488,0.101317 0.904297,0.302735 0.212262,0.199961 0.466202,0.610873 0.648437,1.283203 l 1.304688,6.390625 -0.0078,-0.04688 c 0.166391,0.931037 0.382379,1.90157 1.216796,2.722656 0.834418,0.821086 1.989788,1.041016 3.044922,1.041016 h 2.857422 a 1.9,1.9 0 0 0 1.900391,-1.900391 1.9,1.9 0 0 0 -1.900391,-1.898437 h -2.857422 c -0.239159,0 -0.304055,-0.01125 -0.365234,-0.01758 -0.03729,-0.105662 -0.09821,-0.290465 -0.15625,-0.615234 a 1.90019,1.90019 0 0 0 -0.0078,-0.04688 l -1.328125,-6.490234 a 1.90019,1.90019 0 0 0 -0.02539,-0.111328 c -0.30581,-1.141276 -0.819726,-2.233044 -1.716797,-3.078125 -0.897071,-0.845082 -2.18139,-1.335938 -3.511719,-1.335938 a 1.90019,1.90019 0 0 0 -0.02344,0.002 l -5.117188,0.0625 c -0.348711,0 -1.191778,-0.532833 -1.246094,-1.294922 a 1.90019,1.90019 0 0 0 -0.002,-0.02148 L 22.14135,21.944064 c 1.776767,1.730035 3.890286,3.375988 7.08789,4.447266 a 1.9,1.9 0 0 0 2.40625,-1.197266 1.9,1.9 0 0 0 -1.199219,-2.40625 C 25.853067,21.252325 24.124163,18.475002 21.1726,15.408908 a 1.90019,1.90019 0 0 0 -1.347657,-0.582031 z m -4.853515,6.6875 a 1.9,1.9 0 0 0 -0.871094,0.191406 c -4.5986127,2.231273 -7.3787582,7.052385 -7.0097657,12.150391 0.092248,1.274502 0.3749017,2.503457 0.8261719,3.654296 1.3538121,3.45252 4.2073318,6.20003 7.8613278,7.359376 4.871996,1.545794 10.208593,-0.03749 13.449219,-3.990235 a 1.9,1.9 0 0 0 -0.263672,-2.673828 1.9,1.9 0 0 0 -2.673828,0.265625 c -2.2619,2.758943 -5.960762,3.854327 -9.361328,2.775391 -3.400566,-1.078937 -5.791278,-4.105745 -6.048828,-7.664063 -0.25755,-3.558317 1.671109,-6.901595 4.880859,-8.458984 a 1.9,1.9 0 0 0 0.88086,-2.539063 1.9,1.9 0 0 0 -1.669922,-1.070312 z" fill="#008055"/>
</svg>
