<svg xmlns="http://www.w3.org/2000/svg" width="48" height="48">
	<path d="M 29.474214,1.9198097 C 22.47593,1.8609497 16.682432,5.8844468 14.521089,11.861216 a 1.70017,1.70017 0 0 0 -0.01563,0.04297 c -1.60078,4.834418 -1.003403,8.708486 -0.568359,11.566406 0.217522,1.42896 0.371972,2.602617 0.294922,3.523438 -0.07666,0.916162 -0.303946,1.585989 -1.017578,2.402343 l -9.082032,9.445313 c -1.777149,1.817348 -1.736235,4.512376 -0.34375,6.017578 1.392486,1.505202 4.099177,1.728033 5.990235,0.05469 a 1.70017,1.70017 0 0 0 0.074218,-0.07031 l 9.748047,-9.726562 a 1.7,1.7 0 0 0 0.002,-2.404297 1.7,1.7 0 0 0 -2.404297,-0.002 L 7.517225,42.37094 C 6.730593,43.062674 6.508484,42.790548 6.284761,42.548716 6.060002,42.305763 5.792977,42.00716 6.564058,41.218638 a 1.70017,1.70017 0 0 0 0.00976,-0.0098 l 9.134766,-9.5 a 1.70017,1.70017 0 0 0 0.05078,-0.05664 c 1.179016,-1.341849 1.737457,-2.89463 1.861329,-4.375 0.123871,-1.48037 -0.103723,-2.882691 -0.322266,-4.31836 -0.435902,-2.86356 -0.917956,-5.866882 0.427734,-9.955078 2.051349,-5.6493141 8.021564,-9.1430833 15.617188,-7.1503905 0,0 0.002,0.00195 0.002,0.00195 6.903938,1.8693249 9.889725,8.8713965 7.910156,15.6992185 -1.308062,3.648582 -3.719311,6.001789 -6.886719,7.265626 -3.184149,1.270516 -7.179013,1.386382 -11.43164,0.1875 a 1.7,1.7 0 0 0 -2.097656,1.175781 1.7,1.7 0 0 0 1.175781,2.097656 c 4.840733,1.364678 9.594165,1.300945 13.613281,-0.302734 4.019116,-1.603679 7.252681,-4.808199 8.857422,-9.341797 a 1.70017,1.70017 0 0 0 0.0293,-0.08984 C 46.967551,14.166113 43.013955,4.9466113 34.230073,2.5702007 a 1.70017,1.70017 0 0 0 -0.01172,-0.002 C 33.08914,2.2711717 31.977537,2.0795797 30.888277,1.9862157 30.411725,1.9453697 29.940766,1.9237337 29.474214,1.9198097 Z m 0.0078,5.34375 C 27.032882,7.2090087 24.565052,8.0103281 22.565998,9.6756691 18.567888,13.006351 17.632136,18.808102 20.382404,23.22645 a 1.7003006,1.6996994 84.999971 0 0 2.341797,0.544922 1.7003006,1.6996994 84.999971 0 0 0.542969,-2.34375 c -1.866537,-2.99862 -1.238981,-6.88003 1.474609,-9.140625 2.71359,-2.260595 6.643697,-2.172042 9.253907,0.207032 2.610208,2.379074 3.060683,6.284608 1.0625,9.197265 -1.998182,2.912657 -5.803105,3.897249 -8.960938,2.316406 a 1.7003006,1.6996994 84.999971 0 0 -2.28125,0.759766 1.7003006,1.6996994 84.999971 0 0 0.757812,2.28125 c 4.652959,2.329317 10.345014,0.85976 13.289063,-3.431641 C 40.806934,19.325676 40.130829,13.485853 36.284761,9.9803566 34.361727,8.2276083 31.931158,7.3181109 29.482027,7.2635597 Z" fill="#008055"/>
</svg>
