<svg xmlns="http://www.w3.org/2000/svg" width="48" height="48">
	<path d="m 35.719722,46.417345 c 1.13796,0.04803 2.271206,-0.295789 3.154298,-0.984375 1.766183,-1.377173 2.422313,-4.198316 1.091797,-6.771485 L 32.594722,24.136094 a 1.9,1.9 0 0 0 -2.554687,-0.835938 1.9,1.9 0 0 0 -0.833984,2.554688 l 7.376953,14.539063 a 1.90019,1.90019 0 0 0 0.0078,0.01172 c 0.697827,1.349549 0.312633,1.74289 -0.05468,2.029297 -0.367308,0.286406 -0.832895,0.39575 -1.355469,-0.113282 -2.116961,-2.062102 -6.240244,-4.945313 -11.179688,-4.945313 -4.939443,0 -9.06468,2.883212 -11.18164,4.945313 -0.522574,0.509032 -0.988161,0.399688 -1.355469,0.113282 -0.367308,-0.286407 -0.752503,-0.679748 -0.05469,-2.029297 a 1.90019,1.90019 0 0 0 0.0078,-0.01172 l 7.376973,-14.539063 a 1.90019,1.90019 0 0 0 0.01758,-0.03711 c 0.728602,-1.514877 0.629058,-3.280406 -0.228515,-4.585937 -0.857574,-1.305531 -2.415983,-2.105469 -4.113282,-2.105469 h -3.626953 c -0.8882538,0 -1.2731568,-0.401925 -1.4179678,-0.84375 -0.144812,-0.441824 -0.156067,-1.113955 0.9882808,-2.046875 a 1.90019,1.90019 0 0 0 0.01172,-0.01172 L 22.891597,5.8763283 a 1.90019,1.90019 0 0 0 0.03516,-0.0293 c 0.440664,-0.383847 0.753047,-0.469569 1.046875,-0.46875 0.293827,8.19e-4 0.65609,0.103134 1.138672,0.501953 l 12.46289,10.3437497 a 1.90019,1.90019 0 0 0 0.01172,0.01172 c 1.144348,0.93292 1.133094,1.605051 0.988282,2.046875 -0.144812,0.441825 -0.529715,0.84375 -1.41797,0.84375 h -3.626953 a 1.9,1.9 0 0 0 -1.90039,1.900391 1.9,1.9 0 0 0 1.90039,1.900391 h 3.626953 c 2.326829,0 4.361696,-1.424071 5.029298,-3.460938 0.667601,-2.036867 -0.137749,-4.496778 -2.197266,-6.175781 L 27.536129,2.9525003 a 1.90019,1.90019 0 0 0 -0.0039,-0.002 c -1.018329,-0.841577 -2.257092,-1.369446 -3.548828,-1.373047 -1.291735,-0.0036 -2.549106,0.530071 -3.552734,1.404297 L 8.0107382,13.290391 c -2.059517,1.679003 -2.864867,4.138914 -2.197266,6.175781 0.667602,2.036867 2.702469,3.460938 5.0292968,3.460938 h 3.626953 c 0.582892,0 0.811931,0.202436 0.935547,0.390624 0.123617,0.188189 0.197798,0.405716 -0.01758,0.853516 L 8.0341752,38.661485 c -1.330515,2.57317 -0.672433,5.394312 1.09375,6.771485 1.7661838,1.377172 4.5260408,1.37998 6.3437498,-0.390625 1.517848,-1.478514 5.206077,-3.865235 8.529297,-3.865235 3.323221,0 7.009497,2.386721 8.527344,3.865235 0.908855,0.885303 2.053447,1.326966 3.191406,1.375 z" fill="#008055"/>
</svg>
