<svg xmlns="http://www.w3.org/2000/svg" width="48" height="48">
	<path d="m 27.181526,1.1573889 c -0.276299,0.00324 -0.551425,0.022832 -0.822265,0.058594 -0.72224,0.095365 -1.416917,0.304402 -2.042969,0.609375 a 1.90019,1.90019 0 0 0 -0.09375,0.048828 L 16.917854,5.9484047 A 1.9,1.9 0 0 0 16.183479,8.5343421 1.9,1.9 0 0 0 18.767464,9.266764 L 25.99012,5.2394202 c 1.200641,-0.5819902 2.375532,-0.6280886 3.376953,0.7734375 0.937007,1.3483942 0.598904,3.0774146 -0.5625,3.8613281 0,0 -0.002,0.00195 -0.002,0.00195 L 19.228401,15.669108 C 19.213014,14.40592 18.97001,13.073209 18.156136,11.827311 a 1.90019,1.90019 0 0 0 -0.03711,-0.05469 C 15.874302,8.5825832 11.668304,8.3323783 8.8924635,10.223795 6.0263844,12.16899 5.1043486,16.264072 7.1209791,19.553874 a 1.90019,1.90019 0 0 0 0.1015625,0.15039 L 21.023323,38.038248 c 0.902585,1.456165 0.759036,3.404488 -0.859375,4.445313 a 1.90019,1.90019 0 0 0 -0.01563,0.0098 c -0.862164,0.566007 -1.546324,0.640279 -2.1875,0.496093 -0.633077,-0.142364 -1.266007,-0.564979 -1.789062,-1.28125 -0.803228,-1.209854 -0.646093,-2.416127 0.361328,-3.402343 a 1.9,1.9 0 0 0 0.0293,-2.685547 1.9,1.9 0 0 0 -2.6875,-0.0293 c -2.202799,2.156435 -2.621708,5.646276 -0.841797,8.275391 a 1.90019,1.90019 0 0 0 0.0293,0.04297 c 0.994469,1.384315 2.410469,2.417121 4.064453,2.789063 1.650816,0.371229 3.492327,0.02713 5.097656,-1.023438 3.400965,-2.193152 3.924861,-6.61377 2.017578,-9.664062 a 1.90019,1.90019 0 0 0 -0.09375,-0.136752 L 10.349495,17.536295 C 9.3362993,15.849419 9.8926091,14.138389 11.027229,13.368327 a 1.90019,1.90019 0 0 0 0.0039,-0.0039 c 1.329591,-0.90673 2.859047,-0.945761 3.949218,0.564454 0.508643,0.789609 0.613288,1.47848 0.517579,2.287109 -0.0967,0.816957 -0.450845,1.72603 -0.896485,2.572265 a 1.90019,1.90019 0 0 0 2.664063,2.509766 l 13.582038,-8.22071 a 1.90019,1.90019 0 0 0 0.07813,-0.04883 c 2.990289,-2.01323 3.650023,-6.1986098 1.55664,-9.1972659 a 1.90019,1.90019 0 0 0 -0.0098,-0.011719 C 31.12937,1.9284242 29.115623,1.1346924 27.181526,1.1573889 Z m 5.205078,13.1230471 a 1.9,1.9 0 0 0 -1.058593,0.349609 1.9,1.9 0 0 0 -0.449219,2.650391 l 6.699219,9.443359 c 0.541679,0.88935 0.676046,1.606849 0.539062,2.28711 -0.137239,0.681529 -0.582783,1.46318 -1.707031,2.330078 l -8.722656,6.025391 a 1.9,1.9 0 0 0 -0.482422,2.642578 1.9,1.9 0 0 0 2.642578,0.484375 l 8.792969,-6.074219 a 1.90019,1.90019 0 0 0 0.07813,-0.05664 c 1.659802,-1.275743 2.771588,-2.854272 3.123047,-4.599609 0.351457,-1.745337 -0.09737,-3.520206 -1.025391,-5.035156 a 1.90019,1.90019 0 0 0 -0.07031,-0.107422 l -6.767586,-9.539064 a 1.9,1.9 0 0 0 -1.591797,-0.800781 z" fill="#008055"/>
</svg>
