<svg xmlns="http://www.w3.org/2000/svg" width="48" height="48">
	<path d="m 32.335776,5.4749265 c -0.679094,-0.0017 -1.324512,0.045 -1.935547,0.132813 -2.444135,0.351255 -4.341292,1.367359 -5.685546,2.634765 -2.589143,2.4411265 -3.215745,5.4307725 -3.261719,5.6582025 -0.316836,1.033309 -0.23797,2.19775 0.398437,3.16211 0.649209,0.983757 1.888636,1.597656 3.144532,1.597656 h 9.095703 c 1.046936,0 1.752713,0.202378 2.285156,0.554687 0.531838,0.35191 0.986881,0.896454 1.376953,1.957032 0,0 0.002,0.002 0.002,0.002 l 4.613281,13.908203 a 1.90019,1.90019 0 0 0 0.01172,0.03711 c 0.670253,1.892881 -0.06833,2.752656 -1.320312,3.308594 -1.251987,0.555938 -2.959242,0.432848 -4.205078,-1.078125 C 35.485657,35.553472 34.348,33.757439 32.804574,32.258177 31.244651,30.74289 29.100299,29.611693 26.419809,29.611693 h -4.648438 c -2.661191,0 -4.838251,1.207861 -6.472656,2.74414 -1.62083,1.52352 -2.849024,3.355338 -4.082031,5.035157 -0.856458,1.097668 -2.8910985,1.566223 -4.2421885,1.130859 -0.675544,-0.217682 -1.104338,-0.569592 -1.333984,-1.023438 -0.2296467,-0.453844 -0.3587798,-1.141159 0.074219,-2.390624 a 1.90019,1.90019 0 0 0 0.00391,-0.0098 l 4.5956515,-13.50978 c 0.464886,-1.240243 1.002442,-1.895866 1.605469,-2.302734 0.604195,-0.407657 1.371479,-0.625 2.5,-0.625 h 3.605468 a 1.9,1.9 0 0 0 1.900391,-1.900391 1.9,1.9 0 0 0 -1.900391,-1.898437 h -3.605468 c -1.649309,0 -3.262278,0.353994 -4.6250005,1.273437 -1.362723,0.919444 -2.377668,2.34768 -3.042969,4.126953 a 1.90019,1.90019 0 0 0 -0.019531,0.05273 l -4.6113284,13.55664 v 0.002 c -0.6768247,1.96006 -0.6261547,3.84959 0.1289063,5.341797 0.7563631,1.494781 2.1204442,2.458458 3.5585941,2.921875 2.876298,0.926836 6.3516615,0.220029 8.4023435,-2.408203 a 1.90019,1.90019 0 0 0 0.0332,-0.04297 c 1.296528,-1.763536 2.462123,-3.436275 3.658204,-4.560546 1.196081,-1.124271 2.278568,-1.714844 3.86914,-1.714844 h 4.648438 c 1.742938,0 2.639686,0.507002 3.736328,1.572266 1.096642,1.065262 2.22607,2.77219 3.724609,4.730468 a 1.90019,1.90019 0 0 0 0.04297,0.05469 c 2.313064,2.805327 5.952399,3.343849 8.679688,2.132812 2.727287,-1.211037 4.600082,-4.544909 3.359374,-8.048828 l -4.619138,-13.92973 a 1.90019,1.90019 0 0 0 -0.01953,-0.05664 C 40.725732,18.236312 39.763579,16.901482 38.472495,16.047192 37.181411,15.192901 35.65616,14.861645 34.091636,14.861645 h -8.97461 a 1.90019,1.90019 0 0 0 0.01367,-0.06445 c 0,0 0.479539,-2.178853 2.189453,-3.791016 1.709915,-1.6121625 4.502936,-2.9319955 10.648438,-0.511719 A 1.9,1.9 0 0 0 40.433433,9.4221925 1.9,1.9 0 0 0 39.361167,6.9593015 C 36.715771,5.9174675 34.37306,5.4800845 32.335776,5.4749265 Z M 31.984214,20.873363 a 3.523917,3.5250878 0 0 0 -3.513672,3.525391 3.523917,3.5250878 0 0 0 3.523437,3.525391 3.523917,3.5250878 0 0 0 3.525391,-3.525391 3.523917,3.5250878 0 0 0 -3.525391,-3.525391 3.523917,3.5250878 0 0 0 -0.0098,0 z m -17.552735,1.730469 a 1.8,1.8 0 0 0 -1.798828,1.800781 1.8,1.8 0 0 0 1.798828,1.798829 h 4.240235 a 1.8,1.8 0 0 0 1.798828,-1.798829 1.8,1.8 0 0 0 -1.798828,-1.800781 z" fill="#008055"/>
</svg>
