<svg xmlns="http://www.w3.org/2000/svg" width="48" height="48">
	<path d="m 8.6357424,6.623047 c -1.6192474,0 -3.1887282,0.5290833 -4.3300781,1.6289062 C 3.1643144,9.3517763 2.5458987,10.966408 2.5458987,12.710938 v 21.964843 c 0,1.70543 0.369068,3.355923 1.4238281,4.660157 1.0547601,1.304233 2.7829148,2.041015 4.6660156,2.041015 H 39.383789 c 1.781641,0 3.4337,-0.76771 4.5,-2.027344 1.0663,-1.259632 1.570312,-2.916152 1.570312,-4.673828 a 1.90019,1.90019 0 0 0 -0.002,-0.0078 c -0.01021,-2.391253 -0.518956,-4.333009 -1.761718,-6.333984 l 0.01953,0.0293 -3.798828,-6.375 a 1.90019,1.90019 0 0 0 -0.01758,-0.0293 c -0.717552,-1.154797 -1.933436,-1.952774 -3.244141,-2.050782 -1.310705,-0.09801 -2.614793,0.492391 -3.523437,1.498047 l -2.746094,2.914063 c -0.263647,0.248069 -0.354701,0.238587 -0.375,0.238281 -0.02082,-3.14e-4 -0.121048,0.0065 -0.375,-0.242188 l -1.785106,-1.787121 c -0.957087,-1.010073 -2.287217,-1.608624 -3.550782,-1.53125 -1.263564,0.07737 -2.287912,0.684872 -3.117187,1.396484 L 8.8798831,32.486328 a 1.9,1.9 0 0 0 -0.2617188,2.673828 1.9,1.9 0 0 0 2.6738277,0.263672 l 12.328125,-10.11914 a 1.90019,1.90019 0 0 0 0.03125,-0.02734 c 0.438505,-0.376287 0.767202,-0.479727 0.875,-0.486328 0.107798,-0.0066 0.168523,-0.06217 0.560547,0.351562 a 1.90019,1.90019 0 0 0 0.0332,0.03516 l 1.833984,1.83789 a 1.90019,1.90019 0 0 0 0.01563,0.01563 c 0.780188,0.764013 1.829644,1.308861 2.976562,1.326172 1.146918,0.01731 2.24882,-0.508412 3.076172,-1.302734 a 1.90019,1.90019 0 0 0 0.06641,-0.06641 l 2.830078,-3.003906 a 1.90019,1.90019 0 0 0 0.02734,-0.0293 c 0.246614,-0.272944 0.370876,-0.259526 0.419922,-0.255859 0.04904,0.0037 0.1259,-0.01463 0.298828,0.263672 l 3.779297,6.345703 a 1.90019,1.90019 0 0 0 0.01758,0.0293 c 0.977118,1.57326 1.182456,2.359959 1.191406,4.339844 -4.75e-4,1.032322 -0.295139,1.774061 -0.669922,2.216796 -0.375085,0.443093 -0.80683,0.681641 -1.599609,0.681641 H 8.6357424 c -1.0318892,0 -1.3989601,-0.24314 -1.7109375,-0.628906 C 6.6128275,36.561499 6.3447268,35.812552 6.3447268,34.675781 V 12.710938 c 0,-0.911271 0.2544935,-1.39198 0.5976563,-1.722657 0.3431625,-0.330677 0.8687167,-0.566406 1.6933593,-0.566406 H 39.344727 c 1.05029,0 1.503965,0.244322 1.769531,0.517578 0.265565,0.273257 0.5,0.764862 0.5,1.771485 v 8.693359 a 1.9,1.9 0 0 0 1.90039,1.900391 1.9,1.9 0 0 0 1.900391,-1.900391 v -8.693359 c 0,-1.661378 -0.454462,-3.2637754 -1.576172,-4.4179691 C 42.717158,7.1387752 41.085296,6.623047 39.344727,6.623047 Z m 4.9472656,7.238281 a 3.840766,3.8502173 0 0 0 -3.8417968,3.851563 3.840766,3.8502173 0 0 0 3.8417968,3.849609 3.840766,3.8502173 0 0 0 3.839843,-3.849609 3.840766,3.8502173 0 0 0 -3.839843,-3.851563 z" fill="#008055"/>
</svg>
