<svg xmlns="http://www.w3.org/2000/svg" width="48" height="48">
	<path d="m 14.808593,1.7353515 c -1.776725,0 -3.459108,0.507311 -4.740234,1.591797 -1.2811247,1.084486 -2.0605464,2.770453 -2.0605464,4.578125 V 40.073242 c 0,1.90549 0.7477717,3.669826 2.0761714,4.744141 1.328401,1.074314 3.0042,1.447265 4.724609,1.447265 h 18.994141 c 1.766467,0 3.411183,-0.628658 4.53125,-1.791015 1.120067,-1.162357 1.658203,-2.760236 1.658203,-4.400391 V 14.805664 c 0,-1.758739 -0.52184,-3.42217 -1.699219,-4.566406 -1.177379,-1.1442365 -2.81163,-1.6035165 -4.490234,-1.6035165 h -5.59375 a 2,2 0 0 0 -2,2.0000005 2,2 0 0 0 2,2 h 5.59375 c 0.989386,0 1.451093,0.229618 1.701172,0.472657 0.250078,0.243038 0.488281,0.665145 0.488281,1.697265 v 25.267578 c 0,0.803735 -0.228627,1.302844 -0.539062,1.625 -0.310436,0.322156 -0.761028,0.566406 -1.650391,0.566406 H 14.808593 c -1.12183,0 -1.847399,-0.264217 -2.208984,-0.55664 -0.361585,-0.292424 -0.591797,-0.625265 -0.591797,-1.634766 V 7.9052735 c 0,-0.766749 0.224872,-1.166539 0.646484,-1.523438 0.421613,-0.356899 1.139733,-0.646484 2.154297,-0.646484 h 18.751953 a 2,2 0 0 0 2,-2 2,2 0 0 0 -2,-2 z" fill="#008055"/>
</svg>
