<svg xmlns="http://www.w3.org/2000/svg" width="48" height="48">
	<path d="m 12.849612,2.4750631 c -0.973553,0.016127 -1.960922,0.1146069 -2.9648436,0.3125 a 1.9681277,1.9681277 0 0 0 -0.015625,0.00391 C 8.6037474,3.0516624 7.4122477,3.6652704 6.6250028,4.6762349 5.8377579,5.6871983 5.535159,6.9538825 5.535159,8.2231099 v 8.4023441 a 1.9679309,1.9679309 0 0 0 1.96875,1.96875 1.9679309,1.9679309 0 0 0 1.96875,-1.96875 V 8.2231099 c 0,-0.6758134 0.1348264,-0.9690173 0.2578126,-1.1269531 C 9.8532399,6.9384997 10.046752,6.7735082 10.660159,6.6469381 h 0.002 c 4.053219,-0.793219 8.130079,0.5651229 12.476563,2.3828125 4.349906,1.8191204 8.865667,4.1019974 13.835937,4.3085944 0.546009,0.02423 0.944674,0.197964 1.16211,0.390625 0.217436,0.192661 0.367481,0.387621 0.375,1.001953 l 0.01563,25.730469 c -5.88e-4,0.578395 -0.142795,0.781233 -0.265625,0.90039 -0.120064,0.116474 -0.33382,0.229757 -0.810547,0.22461 -4.129609,-0.194699 -8.17313,-2.062173 -12.525391,-3.830079 -4.360872,-1.771404 -9.125585,-3.425351 -14.496093,-2.388671 -0.6312234,0.116782 -0.7606243,-0.01119 -0.800782,-0.04492 -0.040466,-0.03395 -0.1541629,-0.146257 -0.15625,-0.59961 V 24.564907 c 0,-1.130093 0.2328119,-1.43355 1.47461,-1.894531 4.04487,-1.098455 7.655183,0.05622 11.265625,1.80664 V 34.59811 a 1.9679309,1.9679309 0 0 0 1.966797,1.96875 1.9679309,1.9679309 0 0 0 1.966796,-1.96875 v -8.042968 c 3.101214,1.70275 6.214512,3.295491 9.703125,2.96875 a 1.9679309,1.9679309 0 0 0 1.775391,-2.142579 1.9679309,1.9679309 0 0 0 -2.144531,-1.77539 c -2.261121,0.211776 -5.494126,-1.544233 -9.333985,-3.544922 v -9.566406 a 1.9679309,1.9679309 0 0 0 -1.966796,-1.966797 1.9679309,1.9679309 0 0 0 -1.966797,1.966797 V 20.16061 C 18.582586,18.61807 14.421748,17.606227 9.8145079,18.889126 a 1.9681277,1.9681277 0 0 0 -0.1445312,0.04492 C 7.2843851,19.798449 5.535159,22.018269 5.535159,24.564907 v 10.167969 a 1.9681277,1.9681277 0 0 0 0,0.0098 c 0.00608,1.318924 0.4845482,2.688124 1.5625,3.59375 1.0779517,0.905624 2.5966042,1.173739 4.070313,0.896484 a 1.9681277,1.9681277 0 0 0 0.0078,-0.002 c 4.177768,-0.806443 8.052507,0.456948 12.269531,2.169922 4.217027,1.712973 8.681783,3.887742 13.84961,4.123047 a 1.9681277,1.9681277 0 0 0 0.04492,0.002 c 1.340162,0.03141 2.69082,-0.399553 3.662109,-1.341797 0.971287,-0.942245 1.462891,-2.310388 1.462891,-3.72461 a 1.9681277,1.9681277 0 0 0 0,-0.002 l -0.01758,-25.751953 a 1.9681277,1.9681277 0 0 0 0,-0.02344 C 42.428205,13.126953 41.779071,11.695472 40.750003,10.783657 39.720937,9.8718423 38.425052,9.4632646 37.150394,9.4067037 a 1.9681277,1.9681277 0 0 0 -0.0078,0 C 33.330143,9.2499833 29.154772,7.2793455 24.658206,5.3988912 21.285781,3.9885518 17.674408,2.6300155 13.820315,2.4848287 13.499142,2.4727311 13.17413,2.4697186 12.849612,2.4750631 Z" fill="#008055"/>
</svg>
