<svg xmlns="http://www.w3.org/2000/svg" width="48" height="48">
	<path d="m 22.270934,9.9246007 c -4.643551,-0.032239 -7.987935,1.8447083 -9.943359,4.3300783 -1.539171,1.956307 -2.132845,4.110853 -2.3964845,6.08789 -1.3891348,0.237572 -2.9350951,0.650455 -4.5136719,1.570312 -2.1777279,1.268991 -4.2732402,3.591765 -4.3632812,6.863282 -0.0805529,2.927005 0.844919,5.393894 2.5898438,6.992187 1.7449246,1.598294 4.0986869,2.256047 6.5800778,2.306641 a 1.9,1.9 0 0 0 1.939453,-1.861328 1.9,1.9 0 0 0 -1.861328,-1.9375 C 8.4430655,34.238257 7.0704502,33.753405 6.2103874,32.965616 5.3503246,32.177827 4.7922652,31.014343 4.8510124,28.879678 c 0.049269,-1.790142 1.0104717,-2.827007 2.4804688,-3.683593 1.469997,-0.856587 3.4228338,-1.268297 4.3320308,-1.3125 a 1.90019,1.90019 0 0 0 1.808594,-1.865235 c 0.02836,-1.582061 0.551633,-3.774247 1.841797,-5.414062 1.290164,-1.639815 3.253909,-2.904426 6.929688,-2.878906 3.726665,0.02586 6.990009,2.138096 8.982421,5.324218 a 1.90019,1.90019 0 0 0 2.335938,0.748047 c 0.943512,-0.389225 1.741125,-0.493044 2.300781,-0.419922 0.559656,0.07312 0.901962,0.252136 1.261719,0.699219 0.714776,0.88828 0.732026,2.049846 -0.425782,3.666016 a 1.90019,1.90019 0 0 0 1.332032,2.996093 c 1.433339,0.160944 2.824561,0.687397 3.740234,1.404297 0.910707,0.713014 1.366252,1.482809 1.376953,2.578125 -0.01083,0.520315 -0.200657,1.398335 -0.908203,2.111328 -0.715292,0.720799 -2.055225,1.468837 -4.9375,1.441407 a 1.90019,1.90019 0 0 0 -0.01758,0 h -21.25 a 1.9,1.9 0 0 0 -1.90039,1.90039 1.9,1.9 0 0 0 1.90039,1.900391 h 21.232422 c 3.597835,0.03424 6.128161,-1.010824 7.669922,-2.564453 1.54176,-1.553629 1.995629,-3.41479 2.013671,-4.757813 a 1.90019,1.90019 0 0 0 0,-0.03711 c -0.01229,-2.326801 -1.220988,-4.298544 -2.83789,-5.564453 -0.941136,-0.736836 -2.028418,-1.229032 -3.16211,-1.59961 0.640837,-2.030076 0.47443,-4.190143 -0.867187,-5.857421 -0.945272,-1.174726 -2.31625,-1.899463 -3.728514,-2.083983 -0.94145,-0.123006 -1.888841,0.01843 -2.832031,0.259765 C 30.868553,12.38652 26.896288,9.956697 22.270934,9.9246007 Z" fill="#008055"/>
</svg>
