<svg xmlns="http://www.w3.org/2000/svg" width="48" height="48">
	<path d="M 34.396485,6.3730487 C 31.54995,6.338802 28.62859,6.8329473 25.767578,7.9335952 a 1.90019,1.90019 0 0 0 -0.02539,0.0098 c -1.178801,0.473284 -2.1791,1.22658 -2.794922,2.2265628 -0.615822,0.999981 -0.808594,2.124659 -0.808594,3.208984 V 36.820314 C 17.022077,34.717182 11.434965,34.356152 6.6660158,36.257814 a 1.90019,1.90019 0 0 0 -0.023438,0.0098 c -0.507713,0.210348 -0.607921,0.110025 -0.683593,0.05664 -0.075673,-0.05338 -0.222657,-0.202711 -0.222657,-0.652343 V 13.378908 c 0,-0.81955 0.126079,-1.208697 0.22461,-1.388672 0.098531,-0.179975 0.19028,-0.284624 0.595703,-0.496094 a 1.9,1.9 0 0 0 0.806641,-2.5624998 1.9,1.9 0 0 0 -2.564454,-0.80664 c -0.826934,0.43133 -1.6558875,1.102091 -2.1699214,2.0410148 -0.5140339,0.938925 -0.6914062,2.011641 -0.6914062,3.212891 v 22.292969 c 0,1.476068 0.6325159,2.912972 1.8300781,3.757812 1.1975625,0.844841 2.8638595,0.956261 4.3281255,0.349609 l -0.023438,0.0098 C 12.446684,38.044725 18.219474,38.593985 23.095704,41.378908 A 1.90019,1.90019 0 0 0 25.9375,39.728517 V 13.378908 c 0,-0.646675 0.10743,-0.994803 0.244141,-1.216797 0.135908,-0.220689 0.344292,-0.43638 0.970703,-0.689453 4.808489,-1.8441668 9.747965,-1.6421168 14.027344,0.03906 0.509537,0.203954 0.685024,0.390604 0.828125,0.634766 0.143476,0.244803 0.253906,0.629586 0.253906,1.232422 v 22.292969 c 0,0.316233 -0.109817,0.494481 -0.193359,0.55664 -0.08354,0.06216 -0.318993,0.242723 -1.275391,-0.0625 a 1.90019,1.90019 0 0 0 -0.01758,-0.0039 C 36.549031,34.854796 31.83247,35.265089 28.298826,37.101568 a 1.9,1.9 0 0 0 -0.810546,2.560547 1.9,1.9 0 0 0 2.5625,0.810547 c 2.431577,-1.263721 6.42018,-1.663769 9.601562,-0.679688 l -0.01563,-0.0059 c 1.747762,0.557777 3.485166,0.39355 4.699219,-0.509766 1.214053,-0.903315 1.726562,-2.311401 1.726562,-3.605468 V 13.378908 c 0,-1.067164 -0.195926,-2.1656 -0.77539,-3.154297 C 44.707639,9.2359142 43.740685,8.4412922 42.585931,7.9804702 a 1.90019,1.90019 0 0 0 -0.0078,-0.0039 C 40.015837,6.9687442 37.243019,6.4072954 34.396485,6.3730487 Z m -22.3125,0.7246094 C 11.302014,7.1202451 10.539538,7.2034756 9.8105468,7.3281268 A 1.50015,1.50015 0 0 0 8.5624998,8.8085952 V 24.652345 a 1.50015,1.50015 0 0 0 2.5781252,1.044922 l 3.083985,-3.18164 3.083984,3.18164 a 1.50015,1.50015 0 0 0 2.578125,-1.044922 V 10.320314 A 1.50015,1.50015 0 0 0 19.236328,9.0839862 C 17.709932,8.0335932 16.083129,7.4710142 14.472657,7.2324237 13.66742,7.1131282 12.865955,7.0750712 12.083985,7.0976581 Z m 1.308593,3.0390619 c 0.202659,0.0045 0.405815,0.01963 0.607422,0.04883 0.995108,0.144126 1.94986,0.590403 2.886719,1.119141 v 9.646485 L 15.302735,19.31641 a 1.50015,1.50015 0 0 0 -2.154297,0 L 11.5625,20.953127 V 10.251955 c 0.611119,-0.0507 1.222102,-0.128827 1.830078,-0.115235 z" fill="#008055"/>
</svg>
