<svg xmlns="http://www.w3.org/2000/svg" width="48" height="48">
	<path d="m 11.796875,3.090706 c -1.701935,0 -3.3528513,0.5586359 -4.5527343,1.7148438 C 6.0442577,5.9617579 5.3925782,7.6575279 5.3925782,9.4910969 V 37.866097 c 0,1.792243 0.3891981,3.527298 1.4980469,4.898437 1.1088487,1.37114 2.927046,2.144531 4.9062499,2.144531 h 23.529297 a 2.0002,2.0002 0 0 0 0.06055,0 c 1.937478,-0.05748 3.66006,-0.947008 4.744141,-2.283203 1.08408,-1.336195 1.576172,-3.029758 1.576172,-4.759765 a 2,2 0 0 0 -2,-2 2,2 0 0 0 -2,2 c 0,0.960592 -0.282367,1.746151 -0.681641,2.238281 -0.397445,0.489875 -0.86532,0.776013 -1.748047,0.804687 H 11.796875 c -1.083166,0 -1.467933,-0.253867 -1.794922,-0.658203 C 9.6749645,39.846527 9.3925782,39.059753 9.3925782,37.866097 V 9.4910969 c 0,-0.956432 0.2672687,-1.458096 0.6269528,-1.804688 0.359685,-0.346592 0.911829,-0.595703 1.777344,-0.595703 H 35.28711 c 1.102673,0 1.577365,0.256814 1.855468,0.542969 0.278105,0.286155 0.525391,0.800639 0.525391,1.857422 a 2,2 0 0 0 2,2.0000001 2,2 0 0 0 2,-2.0000001 c 0,-1.746018 -0.476944,-3.431086 -1.65625,-4.6445315 C 38.832413,3.6331202 37.116396,3.090706 35.28711,3.090706 Z m 26.072266,9.949219 a 1.9,1.9 0 0 0 -1.900391,1.90039 1.9,1.9 0 0 0 1.900391,1.898438 h 0.941406 c 0.0066,0.02184 -0.0039,-0.05019 -0.0039,0.138672 v 13.669922 c 0,0.06564 0.01001,0.0016 0.0059,0.03906 h -0.943359 a 1.9,1.9 0 0 0 -1.900391,1.900391 1.9,1.9 0 0 0 1.900391,1.900391 h 1.136719 c 0.949619,0 1.996085,-0.379973 2.673828,-1.146485 0.677743,-0.766512 0.927734,-1.750684 0.927734,-2.693359 v -13.66992 c 0,-0.990387 -0.265467,-2.008116 -0.964844,-2.78711 -0.699376,-0.778992 -1.76047,-1.15039 -2.716796,-1.15039 z m -10.662109,2.482422 c -2.056078,0.01935 -4.057879,0.787323 -5.59961,2.158203 -0.822257,0.731135 -1.514946,1.633473 -2.013672,2.685547 -1.90539,4.019471 -0.272153,8.759775 3.535157,10.929687 a 1.7999858,1.8000142 85.000639 0 0 0.0039,0.002 1.7999858,1.8000142 85.000639 0 0 0.470703,0.355469 c 0.0024,0.0012 0.0034,0.0027 0.0059,0.0039 a 1.7999858,1.8000142 85.000639 0 0 0.0078,0.0039 1.7999858,1.8000142 85.000639 0 0 0.01953,0.0078 1.7999858,1.8000142 85.000639 0 0 0.03906,0.02148 c 0.0041,0.0019 0.0076,4e-5 0.01172,0.002 a 1.7999858,1.8000142 85.000639 0 0 0.566407,0.136718 c 4.098062,1.560655 8.798107,-0.197019 10.6875,-4.226562 1.977133,-4.216671 0.148099,-9.289404 -4.064453,-11.275391 -1.184781,-0.558558 -2.436276,-0.8163 -3.669922,-0.804687 z m -13.189454,3.43164 a 2,2 0 0 0 -2,2 v 6.09375 a 2,2 0 0 0 2,2 2,2 0 0 0 2,-2 v -6.09375 a 2,2 0 0 0 -2,-2 z m 13.201172,0.154297 c 0.709868,-0.0036 1.434487,0.149071 2.125,0.47461 2.455159,1.157472 3.490198,4.032686 2.337891,6.490234 -1.152308,2.457548 -4.024356,3.500622 -6.484375,2.353516 a 1.7999858,1.8000142 85.000639 0 0 -0.0332,-0.01563 1.7999858,1.8000142 85.000639 0 0 -0.0059,-0.002 c -2.450256,-1.167816 -3.473209,-4.049287 -2.310547,-6.501953 0.290665,-0.613166 0.688511,-1.135189 1.160156,-1.558593 0.884334,-0.793885 2.027825,-1.234256 3.210937,-1.240235 z m 0.06055,2.548828 a 2.3439393,2.3439393 0 0 0 -2.34375,2.34375 2.3439393,2.3439393 0 0 0 2.34375,2.34375 2.3439393,2.3439393 0 0 0 2.34375,-2.34375 2.3439393,2.3439393 0 0 0 -2.34375,-2.34375 z" fill="#008055"/>
</svg>
