<svg xmlns="http://www.w3.org/2000/svg" width="48" height="48">
	<path d="m 31.845417,2.0356041 a 1.80018,1.80018 0 0 0 -0.44336,0.07422 c -2.465877,0.736879 -4.422669,1.670839 -5.855468,3.15039 -1.432799,1.479552 -2.17909,3.448358 -2.388672,5.6953129 a 1.8,1.8 0 0 0 1.625,1.958984 1.8,1.8 0 0 0 1.958984,-1.625 c 0.159438,-1.7093449 0.587072,-2.6936639 1.390625,-3.5234369 0.194472,-0.200818 0.533489,-0.378893 0.794922,-0.56836 -0.210677,0.372577 -0.395265,0.78681 -0.685547,1.0625 a 1.8,1.8 0 0 0 -0.06641,2.5449219 1.8,1.8 0 0 0 2.544922,0.06445 c 1.700744,-1.6152569 2.342546,-3.7262259 2.958984,-6.6640619 a 1.80018,1.80018 0 0 0 -1.720703,-2.169922 1.80018,1.80018 0 0 0 -0.113281,0 z m 0.08984,9.5039059 c -0.727055,0.02416 -1.42539,0.119009 -2.072266,0.257813 -2.587502,0.555214 -4.78395,1.46875 -5.626953,1.46875 -0.40753,0 -1.780393,-0.314772 -3.361328,-0.664063 -1.580936,-0.349291 -3.471624,-0.701032 -5.494141,-0.496094 -2.022516,0.204938 -4.209311,1.065162 -5.9121086,2.951172 -1.702798,1.88601 -2.9098978,4.651154 -3.5839846,8.574219 a 2.0002,2.0002 0 0 0 -0.011719,0.07617 c -0.7670333,5.793324 1.2321911,11.209062 3.7539064,15.207031 1.2608568,1.998985 2.6574098,3.652996 4.0097658,4.869141 1.352355,1.216144 2.462368,2.18164 4.304687,2.18164 1.955702,0 3.44175,-0.709538 4.441406,-1.234375 0.999656,-0.524837 1.471297,-0.777343 2.091797,-0.777343 0.35572,0 1.002792,0.267879 2.111328,0.77539 1.108536,0.507512 2.660522,1.138672 4.636719,1.138672 3.203069,0 5.729629,-2.152053 7.587891,-4.568359 1.858261,-2.416306 3.140639,-5.225374 3.466796,-7.767578 a 2,2 0 0 0 -1.730464,-2.23828 2,2 0 0 0 -2.238282,1.728516 c -0.189841,1.479696 -1.22859,3.965675 -2.669921,5.839844 -1.441331,1.874169 -3.191415,3.005859 -4.416016,3.005859 -1.162823,0 -1.989875,-0.325451 -2.972656,-0.775391 -0.982782,-0.449938 -2.138401,-1.138671 -3.775391,-1.138671 -1.75171,0 -3.03413,0.752912 -3.951172,1.234375 -0.917041,0.481463 -1.513713,0.777343 -2.582031,0.777343 0.420959,0 -0.60959,-0.2396 -1.628906,-1.15625 -1.019316,-0.916649 -2.224226,-2.322506 -3.300781,-4.029297 -2.147549,-3.40476 -3.7634036,-7.972049 -3.1738286,-12.511718 0.5924066,-3.410064 1.5871226,-5.409825 2.5996096,-6.53125 1.017522,-1.127003 2.062112,-1.522082 3.347656,-1.652344 1.285544,-0.130262 2.780847,0.103981 4.228516,0.423828 1.447668,0.319847 2.748236,0.757813 4.222656,0.757813 2.484617,0 4.505669,-1.135831 6.466797,-1.556641 1.869041,-0.401051 3.310094,-0.363124 5.015625,1.087891 -0.01464,0.01 -0.0164,0.01136 -0.03125,0.02148 a 2.0002,2.0002 0 0 0 -0.01953,0.01172 c -3.528941,2.464305 -4.588436,6.231975 -4.271485,9.296875 0.158476,1.53245 0.61092,2.92326 1.216797,4.083984 0.605877,1.160724 1.287621,2.117399 2.412109,2.755859 a 2,2 0 0 0 2.726563,-0.751953 2,2 0 0 0 -0.751953,-2.726562 c 0.02714,0.01541 -0.473155,-0.422671 -0.841797,-1.128906 -0.368642,-0.706236 -0.681079,-1.656994 -0.783203,-2.644532 -0.203991,-1.972579 0.231888,-3.958318 2.576172,-5.599609 0.003,-0.0021 0.0048,-0.0038 0.0078,-0.0059 0.40466,-0.275285 0.763289,-0.497759 1.138672,-0.783203 0.381422,-0.290037 0.907686,-0.664187 1.197266,-1.541016 0.289579,-0.876829 -0.03384,-1.855867 -0.376953,-2.386719 -0.343115,-0.530851 -0.72454,-0.909231 -1.210938,-1.378906 a 2.0002,2.0002 0 0 0 -0.03125,-0.03125 c -1.411757,-1.304264 -2.967613,-1.99001 -4.494141,-2.28125 -0.763264,-0.14562 -1.519038,-0.192134 -2.246093,-0.167969 z" fill="#008055"/>
</svg>
