<svg xmlns="http://www.w3.org/2000/svg" width="48" height="48">
	<path d="m 12.876076,1.9257845 c -1.690484,0 -3.2920981,0.3855681 -4.4707032,1.484375 C 7.2267677,4.5089665 6.7237321,6.14758 6.7237321,7.9160189 V 40.105472 a 1.8001749,1.8001749 0 0 0 0,0.05273 c 0.053864,1.817082 0.8847673,3.425314 2.1347657,4.439454 1.2499982,1.014139 2.8380502,1.476562 4.4648442,1.476562 a 1.8001749,1.8001749 0 0 0 0.0039,0 l 21.960937,-0.03711 c 1.644138,0 3.218594,-0.44967 4.34961,-1.548828 1.131015,-1.099158 1.638672,-2.69949 1.638672,-4.421875 V 7.9160189 c 0,-1.5983367 -0.521968,-3.141391 -1.601563,-4.2617188 C 38.595309,2.5339724 37.010778,1.9257845 35.288185,1.9257845 H 19.170998 a 1.7999949,1.7999949 0 0 0 -1.798828,1.7988282 1.7999949,1.7999949 0 0 0 1.798828,1.8007812 h 16.117187 c 0.933238,0 1.444015,0.2628058 1.794922,0.6269531 0.350908,0.3641469 0.59375,0.9181089 0.59375,1.7636719 V 40.06641 c 0,1.068415 -0.252386,1.553705 -0.548828,1.841796 -0.296442,0.288092 -0.815991,0.529297 -1.839844,0.529297 a 1.8001749,1.8001749 0 0 0 -0.0039,0 l -21.960937,0.03711 c -0.934336,0 -1.704984,-0.276018 -2.195313,-0.673828 -0.488067,-0.395975 -0.77646,-0.872999 -0.804687,-1.740235 V 7.9160189 c 0,-1.146461 0.249734,-1.6031756 0.537109,-1.8710938 0.265923,-0.2479183 0.87754,-0.4469961 1.865234,-0.4804687 0.01224,0.1192155 0.0293,0.1408044 0.0293,0.3183594 V 10.9668 c 2.4e-5,1.753832 0.494714,3.341533 1.525391,4.529297 l -0.04492,-0.05273 1.792969,2.230469 a 1.8001749,1.8001749 0 0 0 0.0059,0.0078 c 0.19724,0.242868 0.232275,0.04425 0.0078,0.333984 l -1.777344,2.105469 a 1.8001749,1.8001749 0 0 0 -0.07617,0.09766 c -0.725099,0.992259 -1.433594,2.39834 -1.433594,4.246094 v 4.802735 c 0,7.797195 5.23024,12.863281 11.273438,12.863281 3.066256,0 5.986438,-1.122924 8.070312,-3.357422 2.083874,-2.234499 3.273438,-5.493952 3.273438,-9.505859 V 8.1640659 a 1.7999949,1.7999949 0 0 0 -1.798828,-1.800781 1.7999949,1.7999949 0 0 0 -1.800781,1.800781 V 29.267582 c 0,3.313991 -0.939298,5.584604 -2.306641,7.050781 -1.367344,1.466176 -3.220326,2.21289 -5.4375,2.21289 -4.155302,0 -7.671875,-2.954668 -7.671875,-9.263671 v -4.802735 c 0,-1.133077 0.166792,-1.334791 0.720703,-2.091797 l 1.76949,-2.097656 a 1.8001749,1.8001749 0 0 0 0.05274,-0.06641 c 1.102565,-1.440454 0.944601,-3.547182 -0.07031,-4.796875 l -1.785156,-2.222657 a 1.8001749,1.8001749 0 0 0 -0.04492,-0.05273 C 16.4958,12.556686 16.354608,12.213168 16.354592,10.9668 V 5.8828158 c 0,-1.1048444 0.05471,-2.049706 -0.791016,-3.0136719 C 15.140711,2.3871609 14.52977,2.1192523 14.069435,2.0214877 13.6091,1.923723 13.243633,1.9257845 12.876076,1.9257845 Z M 24.096779,27.244144 a 3.840766,3.8502173 0 0 0 -3.839844,3.849609 3.840766,3.8502173 0 0 0 3.839844,3.84961 3.840766,3.8502173 0 0 0 3.841797,-3.84961 3.840766,3.8502173 0 0 0 -3.841797,-3.849609 z" fill="#008055"/>
</svg>
