<svg xmlns="http://www.w3.org/2000/svg" width="48" height="48">
	<path d="m 8.6279294,9.0791012 c -1.7054495,0 -3.3578818,0.3690537 -4.6621092,1.4238288 -1.3042275,1.054774 -2.0390626,2.782923 -2.0390626,4.666015 v 9.966797 c 0,1.294433 0.1419836,2.670125 0.9472657,3.929688 0.7499294,1.172984 2.2296126,1.931061 3.8535156,2.039062 v 3.507813 c 0,0.986616 0.2280189,2.038407 0.9433594,2.916016 0.7153405,0.877608 1.9240131,1.392578 3.1171867,1.392578 h 26.986328 c 1.219285,0 2.377292,-0.514017 3.09375,-1.320313 0.71646,-0.806295 1.015626,-1.795712 1.015626,-2.738281 a 1.9,1.9 0 0 0 -1.900391,-1.900391 1.9,1.9 0 0 0 -1.900391,1.900391 c 0,0.114431 -0.04615,0.203286 -0.05469,0.21289 -0.0085,0.0096 0.04466,0.04688 -0.253907,0.04688 H 10.788085 c -0.308725,0 -0.180667,-0.0073 -0.169922,0.0059 0.01075,0.01318 -0.08984,-0.141941 -0.08984,-0.515625 v -3.697266 c 0,-0.839009 -0.05687,-1.827706 -0.8867186,-2.658203 -0.829846,-0.830497 -1.8199322,-0.871094 -2.5761719,-0.871094 -0.8237251,0 -0.8238714,-0.106975 -0.9902343,-0.367187 -0.166363,-0.260213 -0.3476563,-0.958145 -0.3476563,-1.882813 l -0.00195,-9.966797 c 0,-1.031905 0.2451018,-1.398961 0.6308594,-1.710937 0.3857575,-0.311976 1.1346942,-0.580078 2.2714842,-0.580078 H 39.983398 c 0.911286,0 1.391978,0.25449 1.722656,0.597656 0.330679,0.343167 0.566406,0.868709 0.566406,1.693359 v 9.966797 c 0,1.050249 -0.244304,1.503946 -0.517578,1.769532 -0.273273,0.265585 -0.764887,0.5 -1.771484,0.5 H 14.204101 a 1.9,1.9 0 0 0 -1.900391,1.90039 1.9,1.9 0 0 0 1.900391,1.900391 h 25.779297 c 1.661392,0 3.265738,-0.454458 4.419922,-1.576172 1.154184,-1.121714 1.669922,-2.753589 1.669922,-4.494141 V 15.16899 c 0,-1.619247 -0.531036,-3.188719 -1.63086,-4.330078 C 43.342558,9.6975087 41.727942,9.0791012 39.983398,9.0791012 Z M 24.364257,16.53418 a 3.840766,3.8502173 0 0 0 -3.841797,3.849609 3.840766,3.8502173 0 0 0 3.841797,3.851563 3.840766,3.8502173 0 0 0 3.839844,-3.851563 3.840766,3.8502173 0 0 0 -3.839844,-3.849609 z" fill="#008055"/>
</svg>
