<svg xmlns="http://www.w3.org/2000/svg" width="48" height="48">
	<path d="M 11.818431,3.8551809 A 1.9,1.9 0 0 0 9.9199931,5.7555715 1.9,1.9 0 0 0 11.818431,7.654009 h 18.166015 c 0.715109,0 0.898911,0.170461 1.066407,0.365234 0.167495,0.194774 0.302734,0.555968 0.302734,0.972657 a 1.90019,1.90019 0 0 0 0,0.01953 c -6e-5,-0.0061 -0.07911,0.492419 -0.291016,0.804687 -0.211903,0.312269 -0.4381,0.555486 -1.15039,0.658203 a 1.90019,1.90019 0 0 0 -1.431641,2.722657 l 2.742188,5.554687 a 1.90019,1.90019 0 0 0 3.332031,0.138672 l 3.251953,-5.396484 a 1.9,1.9 0 0 0 -0.646484,-2.609375 1.9,1.9 0 0 0 -2.607422,0.646484 l -1.460938,2.423828 -0.310547,-0.628906 c 0.591889,-0.398268 1.084995,-0.874758 1.425782,-1.376953 0.71284,-1.050467 0.950694,-2.052384 0.943359,-2.964844 C 35.148967,7.819083 34.815813,6.5665376 33.933665,5.5407278 33.049546,4.5126258 31.598817,3.8551809 29.984446,3.8551809 Z M 33.044993,21.595415 a 3.840766,3.8502173 0 0 0 -3.839843,3.84961 3.840766,3.8502173 0 0 0 3.839843,3.851562 3.840766,3.8502173 0 0 0 3.841797,-3.851562 3.840766,3.8502173 0 0 0 -3.841797,-3.84961 z m -0.02539,9.085938 a 1.9,1.9 0 0 0 -1.900391,1.90039 v 3.404297 c 0,0.528721 -0.152106,0.872991 -0.339844,1.076172 -0.187738,0.203181 -0.446792,0.388672 -1.1875,0.388672 a 1.90019,1.90019 0 0 0 -0.002,0 l -8.583984,0.0098 a 1.90019,1.90019 0 0 0 -0.01758,0 c -0.01126,1.22e-4 -0.530479,-0.08195 -0.853516,-0.294922 -0.322988,-0.213006 -0.559044,-0.428741 -0.660107,-1.109409 a 1.90019,1.90019 0 0 0 -2.701172,-1.433594 l -5.634766,2.703125 A 1.90019,1.90019 0 0 0 11.000071,40.6794 l 5.476563,3.205078 a 1.9,1.9 0 0 0 2.599609,-0.679688 1.9,1.9 0 0 0 -0.679687,-2.599609 l -2.390625,-1.400391 0.621093,-0.296875 c 0.409603,0.599142 0.903886,1.092716 1.417969,1.431641 1.063401,0.701078 2.073432,0.9298 2.984375,0.919922 l 8.5625,-0.0098 c 1.581083,0 3.033067,-0.584203 3.978516,-1.607422 0.945449,-1.023219 1.347656,-2.360171 1.347656,-3.65625 v -3.404297 a 1.9,1.9 0 0 0 -1.898437,-1.90039 z" fill="#008055"/>
</svg>
