<svg xmlns="http://www.w3.org/2000/svg" width="48" height="48">
	<path d="m 24.163085,2.8486093 a 1.9,1.9 0 0 0 -1.902343,1.9003906 v 2.1542969 a 1.90019,1.90019 0 0 0 0,0.019531 c 1.8e-5,0.00185 -0.07836,0.5072115 -0.289063,0.8222656 -0.210702,0.3150541 -0.429196,0.5511146 -1.121094,0.6523438 a 1.90019,1.90019 0 0 0 -1.433593,2.7128898 l 2.71289,5.574219 a 1.90019,1.90019 0 0 0 3.341797,0.138672 l 3.216797,-5.417969 A 1.9,1.9 0 0 0 28.026367,8.8017343 1.9,1.9 0 0 0 25.422851,9.4657968 L 24.004882,11.850563 23.709961,11.245094 C 24.30084,10.842987 24.792206,10.361336 25.129882,9.8564218 25.836228,8.8002509 26.070505,7.79587 26.061523,6.8857187 V 4.7509531 A 1.9,1.9 0 0 0 24.163085,2.8486093 Z M 10.411132,19.043922 a 1.9,1.9 0 0 0 -1.609375,0.929688 1.9,1.9 0 0 0 0.6640625,2.605468 l 2.3847655,1.416016 -0.603516,0.294922 C 10.844858,23.698538 10.361736,23.208107 9.8564445,22.870094 8.800211,22.16353 7.7942349,21.930403 6.8818351,21.940407 l -2.1328125,-0.002 a 1.9,1.9 0 0 0 -1.9003906,1.900391 1.9,1.9 0 0 0 1.9003906,1.900391 h 2.1542969 a 1.90019,1.90019 0 0 0 0.021484,0 c -3.197e-4,3e-6 0.5033704,0.07835 0.8183594,0.289062 0.314989,0.210711 0.5530439,0.429129 0.6542969,1.121094 a 1.90019,1.90019 0 0 0 2.7128912,1.433594 l 5.574218,-2.712891 a 1.90019,1.90019 0 0 0 0.138673,-3.341797 l -5.417969,-3.216797 a 1.9,1.9 0 0 0 -0.994141,-0.267578 z m 27.238282,0.181641 a 1.90019,1.90019 0 0 0 -0.759766,0.191406 l -5.574219,2.712891 a 1.90019,1.90019 0 0 0 -0.138672,3.341797 l 5.417969,3.216796 a 1.9,1.9 0 0 0 2.603516,-0.662109 1.9,1.9 0 0 0 -0.664063,-2.603516 l -2.386718,-1.417968 0.607421,-0.294922 c 0.402048,0.590915 0.883735,1.082127 1.388672,1.419922 1.056219,0.706593 2.062141,0.941644 2.97461,0.93164 h 2.132812 a 1.9,1.9 0 0 0 1.900391,-1.898437 1.9,1.9 0 0 0 -1.900391,-1.902344 h -2.154297 a 1.90019,1.90019 0 0 0 -0.02148,0 c 3.79e-4,-4e-6 -0.503355,-0.07833 -0.81836,-0.289062 -0.315003,-0.210733 -0.553046,-0.429127 -0.654296,-1.121094 a 1.90019,1.90019 0 0 0 -1.837891,-1.625 1.90019,1.90019 0 0 0 -0.115234,0 z m -13.71875,0.919922 a 3.840766,3.8502173 0 0 0 -3.841797,3.849609 3.840766,3.8502173 0 0 0 3.841797,3.849609 3.840766,3.8502173 0 0 0 3.839843,-3.849609 3.840766,3.8502173 0 0 0 -3.839843,-3.849609 z m 0.267578,10.101562 a 1.90019,1.90019 0 0 0 -0.115235,0.002 1.90019,1.90019 0 0 0 -1.554687,0.927735 l -3.216797,5.417968 a 1.9,1.9 0 0 0 0.662109,2.603516 1.9,1.9 0 0 0 2.603516,-0.664062 l 1.417969,-2.384766 0.294922,0.605469 c -0.590883,0.402111 -1.082246,0.883747 -1.419922,1.388671 -0.706346,1.056194 -0.940622,2.062514 -0.931641,2.972657 V 43.251 a 1.9,1.9 0 0 0 1.898438,1.900391 1.9,1.9 0 0 0 1.902343,-1.900391 v -2.154296 a 1.90019,1.90019 0 0 0 0,-0.01758 c -1.9e-5,-0.002 0.07836,-0.507208 0.289063,-0.822265 0.210699,-0.315057 0.42919,-0.553067 1.121094,-0.654297 a 1.90019,1.90019 0 0 0 1.433593,-2.712891 l -2.71289,-5.574218 a 1.90019,1.90019 0 0 0 -1.671875,-1.06836 z" fill="#008055"/>
</svg>
