<svg xmlns="http://www.w3.org/2000/svg" width="48" height="48">
	<path d="m 17.425839,2.9814458 a 2,2 0 0 0 -2.001953,1.9980469 l -0.0098,11.7851563 h -1.625 c -1.186881,0 -2.471813,0.351838 -3.294922,1.3125 -0.8231091,0.960661 -0.9589841,2.087663 -0.9589841,3.095703 v 11.757812 c -0.016035,4.037948 1.6499571,7.299639 4.3046871,9.292969 2.656515,1.994671 6.110695,2.794922 9.769531,2.794922 3.943524,0 7.565887,-0.828041 10.337891,-2.824219 2.772004,-1.996178 4.517578,-5.267048 4.517578,-9.263672 V 21.172852 c 0,-1.333571 -0.534244,-2.638602 -1.464844,-3.414063 -0.930599,-0.775461 -2.026693,-0.99414 -2.982421,-0.99414 H 23.285214 a 2,2 0 0 0 -2,2 2,2 0 0 0 2,2 h 10.732422 c 0.32055,0 0.447839,0.08804 0.421874,0.06641 -0.02596,-0.02164 0.02539,-0.123933 0.02539,0.341797 v 11.757812 c 0,2.929177 -1.027551,4.70321 -2.855469,6.019532 -1.827918,1.316321 -4.633214,2.068359 -8,2.068359 -3.058564,0 -5.658007,-0.710786 -7.367187,-1.994141 -1.70918,-1.283354 -2.720722,-3.061992 -2.707031,-6.083984 a 2.0002,2.0002 0 0 0 0,-0.0098 V 21.172852 c 0,-0.220201 0.02156,-0.312827 0.03711,-0.400391 0.05826,-0.0043 0.06194,-0.0078 0.216797,-0.0078 h 1.8125 c 0.988082,0 2.078768,-0.347985 2.814453,-1.136719 0.735199,-0.788212 0.997702,-1.82152 0.998047,-2.767578 v -0.002 l 0.0098,-11.875 A 2,2 0 0 0 17.425839,2.9814458 Z m 13.152343,0 a 2,2 0 0 0 -2,2 v 8.2773432 a 2,2 0 0 0 2,2 2,2 0 0 0 2,-2 V 4.9814458 a 2,2 0 0 0 -2,-2 z M 23.88287,26.532227 a 3.840766,3.8502173 0 0 0 -3.839844,3.849609 3.840766,3.8502173 0 0 0 3.839844,3.84961 3.840766,3.8502173 0 0 0 3.839844,-3.84961 3.840766,3.8502173 0 0 0 -3.839844,-3.849609 z" fill="#008055"/>
</svg>
