<svg xmlns="http://www.w3.org/2000/svg" width="48" height="48">
	<path d="m 18.684044,3.6887852 a 3.840766,3.8502173 0 0 0 -3.841797,3.84961 3.840766,3.8502173 0 0 0 3.841797,3.8515618 3.840766,3.8502173 0 0 0 3.839844,-3.8515618 3.840766,3.8502173 0 0 0 -3.839844,-3.84961 z m 7.19336,3.982422 a 1.9,1.9 0 0 0 -1.875,1.544922 1.9,1.9 0 0 0 1.511719,2.2226558 c 3.11453,0.591404 4.777188,1.782833 5.820312,3.185547 1.043124,1.402714 1.481621,3.150707 1.587891,4.94336 0.214722,3.621874 -1.154481,6.596352 -3.681641,8.613281 -3.420322,2.390985 -7.788659,1.111972 -10.384766,-1.378907 a 1.90019,1.90019 0 0 0 -3.125,0.792969 l -4.382812,13.705078 a 1.90019,1.90019 0 0 0 1.738281,2.478516 l 14.265625,0.53125 a 1.90019,1.90019 0 0 0 1.75,-2.789063 C 28.289359,39.986809 28.528362,37.8905 28.750451,37.063785 a 1.9,1.9 0 0 0 -1.341797,-2.328125 1.9,1.9 0 0 0 -2.328125,1.341797 c -0.257825,0.959738 -0.491131,2.557457 -0.230469,4.335938 l -9.121094,-0.339844 2.837891,-8.871094 c 3.719979,2.285895 8.685344,3.046663 12.898437,0.07031 a 1.90019,1.90019 0 0 0 0.08008,-0.06055 c 3.512765,-2.767125 5.452822,-7.097269 5.169921,-11.869141 -0.13377,-2.256549 -0.696072,-4.789042 -2.330078,-6.986328 -1.634005,-2.197286 -4.32508,-3.9237478 -8.162109,-4.6523438 a 1.9,1.9 0 0 0 -0.345703,-0.0332 z" fill="#008055"/>
</svg>
