<svg xmlns="http://www.w3.org/2000/svg" width="48" height="48">
	<path d="M 19.033203 2.2421875 C 17.327758 2.2421875 15.675323 2.6132021 14.371094 3.6679688 C 13.066864 4.7227352 12.332031 6.4508944 12.332031 8.3339844 L 12.332031 32.359375 C 12.332031 34.141023 13.097784 35.793079 14.357422 36.859375 C 15.617059 37.925671 17.275531 38.429688 19.033203 38.429688 L 20.107422 38.429688 L 20.107422 40.238281 C 20.107422 41.288567 19.861152 41.742244 19.587891 42.007812 C 19.31463 42.273381 18.824976 42.507812 17.818359 42.507812 L 14.333984 42.507812 A 1.9 1.9 0 0 0 12.433594 44.408203 A 1.9 1.9 0 0 0 14.333984 46.308594 L 17.818359 46.308594 C 19.479733 46.308594 21.082132 45.854128 22.236328 44.732422 C 23.390525 43.610716 23.90625 41.978856 23.90625 40.238281 L 23.90625 36.529297 A 1.90019 1.90019 0 0 0 22.005859 34.628906 L 19.033203 34.628906 C 17.999585 34.628906 17.2556 34.334073 16.8125 33.958984 C 16.3694 33.583896 16.130859 33.152147 16.130859 32.359375 L 16.130859 8.3339844 C 16.130859 7.3020843 16.375963 6.9350178 16.761719 6.6230469 C 17.147474 6.3110759 17.896408 6.0429688 19.033203 6.0429688 L 27.167969 6.0429688 C 28.079259 6.0429688 28.559949 6.2974641 28.890625 6.640625 C 29.221301 6.9837859 29.457031 7.5093392 29.457031 8.3339844 L 29.457031 32.359375 C 29.457031 33.409661 29.212714 33.863338 28.939453 34.128906 C 28.666192 34.394475 28.174585 34.628906 27.167969 34.628906 A 1.9 1.9 0 0 0 25.267578 36.529297 A 1.9 1.9 0 0 0 27.167969 38.429688 C 28.829342 38.429688 30.433694 37.975222 31.587891 36.853516 C 32.742087 35.731809 33.257812 34.099949 33.257812 32.359375 L 33.257812 8.3339844 C 33.257812 6.7147396 32.72678 5.1452579 31.626953 4.0039062 C 30.527127 2.8625547 28.912508 2.2421875 27.167969 2.2421875 L 19.033203 2.2421875 z M 26.5 42.507812 A 1.9 1.9 0 0 0 24.599609 44.408203 A 1.9 1.9 0 0 0 26.5 46.308594 L 31.675781 46.308594 A 1.9 1.9 0 0 0 33.576172 44.408203 A 1.9 1.9 0 0 0 31.675781 42.507812 L 26.5 42.507812 z " fill="#008055"/>
</svg>
