<svg xmlns="http://www.w3.org/2000/svg" width="48" height="48">
	<path d="m 37.420184,8.079875 c 1.552564,1.5789682 2.795344,3.507456 3.585589,5.75729 2.364979,6.733125 -0.612575,14.889914 -7.858057,17.071233 -5.218704,1.571139 -11.628495,-0.934403 -13.258829,-6.678023 -0.559756,-1.972 -0.374484,-4.059259 0.492777,-5.860298 0.867259,-1.801037 2.52919,-3.34196 4.768956,-3.809744 1.448154,-0.302454 2.947115,-0.0835 4.268192,0.630442 1.321075,0.713939 2.491796,2.069189 2.751167,3.799048 0.155948,1.040088 -0.03683,2.037076 -0.596679,2.947946 -0.559853,0.91087 -1.705333,1.750927 -3.066937,1.747006 a 2.0207587,1.9794699 37.746148 0 1 -2.039575,-2.000061 2.0207587,1.9794699 37.746148 0 1 1.691225,-1.971142 c 0.02074,-0.08301 0.04782,-0.18667 0.04362,-0.214715 -0.05641,-0.376239 -0.226065,-0.58578 -0.641566,-0.810323 -0.4155,-0.224546 -1.052509,-0.316073 -1.511466,-0.220217 -0.96319,0.201167 -1.610939,0.785453 -2.042939,1.682591 -0.432004,0.897138 -0.534921,2.080874 -0.254781,3.067798 0.93598,3.297431 4.912044,4.850443 8.165052,3.871095 4.876127,-1.468003 6.980568,-7.236852 5.306428,-12.003146 C 34.875154,8.4041386 26.880051,5.4547094 20.3899,7.7435937 11.703475,10.807036 8.1151864,21.123705 11.433457,29.592513 c 2.470129,6.3042 8.27627,11.00979 14.912283,12.520173 a 2.0207587,1.9794699 37.746148 0 1 1.551705,2.393694 2.0207587,1.9794699 37.746148 0 1 -2.372,1.498673 C 17.611534,44.203815 10.702586,38.639462 7.6999378,30.976184 3.611271,20.541191 8.0258129,7.8428946 18.982084,3.9789437 c 6.33934,-2.2356972 13.78041,-0.6359733 18.4381,4.1009313 z" fill="#008055"/>
</svg>
