<svg xmlns="http://www.w3.org/2000/svg" width="48" height="48">
	<path d="m 14.21875,1.5414781 c -1.807664,0 -3.491682,0.779426 -4.5761719,2.060547 C 8.5580883,4.8831452 8.048828,6.5655298 8.048828,8.3422591 a 2,2 0 0 0 2,1.9999999 2,2 0 0 0 2,-1.9999999 c 0,-1.0145707 0.289589,-1.7346454 0.646484,-2.15625 0.356896,-0.4216046 0.756682,-0.6445312 1.523438,-0.6445312 h 19.541016 c 1.009489,0 1.340382,0.2302003 1.632812,0.5917968 0.292431,0.3615965 0.558594,1.0871784 0.558594,2.2089844 V 41.269993 c 0,1.033676 -0.245906,1.018942 -0.658203,1.107422 -0.412298,0.08848 -1.046651,-0.07948 -1.410156,-0.609375 a 2.0002,2.0002 0 0 0 -0.0059,-0.0098 L 27.25,32.227025 a 2.0002,2.0002 0 0 0 -0.02344,-0.0332 c -0.755701,-1.041805 -1.962875,-1.918643 -3.388672,-1.841796 -1.425798,0.07685 -2.493593,1.019146 -3.189454,2.089843 l -6.382812,9.400391 c -0.314938,0.452005 -1.024195,0.681637 -1.496094,0.585938 -0.471899,-0.0957 -0.720703,-0.06721 -0.720703,-1.158204 V 13.918431 a 2,2 0 0 0 -2,-2 2,2 0 0 0 -2,2 v 27.351562 c 0,2.615908 1.8734655,4.661925 3.925781,5.078125 2.052316,0.416201 4.271357,-0.348855 5.574219,-2.21875 a 2.0002,2.0002 0 0 0 0.01367,-0.01953 l 6.417969,-9.455078 a 2.0002,2.0002 0 0 0 0.02148,-0.0332 c 0.04634,-0.0713 -0.02588,-0.0016 0.0078,-0.04492 l 6.574218,9.455078 c 5.55e-4,8.09e-4 0.0014,0.0011 0.002,0.002 1.293687,1.88377 3.516222,2.689689 5.546876,2.253906 2.031525,-0.43597 3.818359,-2.471853 3.818359,-5.017578 V 8.3422591 c 0,-1.720394 -0.372959,-3.3962059 -1.447266,-4.724609 -1.074307,-1.328404 -2.838639,-2.076172 -4.74414,-2.076172 z" fill="#008055"/>
</svg>
