<svg xmlns="http://www.w3.org/2000/svg" width="48" height="48">
	<path d="m 15.833733,4.3836023 c -3.783896,0 -7.1830629,1.224702 -9.5976559,3.582031 -2.414593,2.3573297 -3.75,5.7771527 -3.75,9.7285157 a 2.1002099,2.1002099 0 0 0 0,0.0332 C 2.6589001,28.995758 10.687991,36.9106 19.05053,42.15313 c 3.098348,1.983432 6.830741,1.914497 9.884766,0.01172 a 2.1002099,2.1002099 0 0 0 0.04297,-0.02734 c 8.2243,-5.402245 16.615145,-13.360573 16.535157,-24.451172 -0.0018,-3.947959 -1.337048,-7.364974 -3.75,-9.7207037 -2.414592,-2.357329 -5.811803,-3.582031 -9.595703,-3.582031 -1.644877,0 -3.60858,0.227995 -5.285157,1.689453 a 2.0999999,2.0999999 0 0 0 -0.203125,2.962891 2.0999999,2.0999999 0 0 0 2.962891,0.203125 c 0.179584,-0.156542 1.709928,-0.65625 2.525391,-0.65625 2.899259,0 5.124321,0.885399 6.662109,2.3867187 1.537788,1.50132 2.484375,3.687371 2.484375,6.724609 a 2.1002099,2.1002099 0 0 0 0,0.01563 c 0.06762,8.920509 -6.89013,15.815502 -14.617188,20.896485 -1.995049,1.237515 -3.41568,1.272678 -5.386718,0.0078 a 2.1002099,2.1002099 0 0 0 -0.01953,-0.01172 C 13.508101,33.725573 6.8429721,26.979013 6.6872491,17.690243 6.6881611,14.655292 7.6326221,12.470136 9.1696711,10.96954 10.707461,9.4682193 12.93448,8.5828213 15.833733,8.5828213 c 2.597528,0 5.453278,1.4752907 6.138672,4.0351557 a 2.0999999,2.0999999 0 0 0 2.570313,1.486328 2.0999999,2.0999999 0 0 0 1.486328,-2.572265 C 24.741419,6.7229053 20.008825,4.3836023 15.833733,4.3836023 Z" fill="#008055"/>
</svg>
