<svg xmlns="http://www.w3.org/2000/svg" width="48" height="48">
	<path d="m 7.8456093,20.01586 c -0.05881,0.908692 0.355673,1.468018 0.677734,1.941406 0.336614,0.494778 0.760269,0.967468 1.244141,1.492188 l 6.2832027,8.189453 c 0.678173,0.889407 0.679687,1.057923 0.679687,2.089843 v 6.011718 0.002 c 9.97e-4,2.901862 2.473983,4.875001 5.003907,4.875001 h 4.86914 c 2.523372,0 4.765625,-1.994733 4.765625,-4.660157 v -6.322265 c 0,-0.884963 0.155917,-1.488388 0.642578,-2.058593 a 1.90019,1.90019 0 0 0 0.07813,-0.09766 l 4.486328,-6.009765 a 1.9,1.9 0 0 0 -0.386718,-2.660157 1.9,1.9 0 0 0 -2.658203,0.386719 l -4.486329,6.009766 0.07813,-0.0957 c -1.179348,1.381797 -1.554697,3.066156 -1.554697,4.525393 v 6.322265 c 0,0.432977 -0.488815,0.861328 -0.964844,0.861328 h -4.86914 c -0.503083,0 -1.203161,-0.453551 -1.203125,-1.076172 V 33.7288 c 0,-1.433089 -0.388385,-2.992417 -1.462891,-4.40039 a 1.90019,1.90019 0 0 0 -0.002,-0.0039 l -6.195313,-8.074219 h 25.390626 a 1.9,1.9 0 0 0 1.898438,-1.898438 1.9,1.9 0 0 0 -1.898438,-1.90039 H 12.17764 c -0.85814,0 -1.533348,0.02484 -2.2324217,0.203125 -0.349537,0.08914 -0.724212,0.215756 -1.125,0.515625 -0.400788,0.299868 -0.800654,0.854332 -0.917969,1.433593 -0.02933,0.144816 -0.04824,0.282297 -0.05664,0.41211 z M 11.140531,9.8732814 a 1.9,1.9 0 0 0 0.640625,1.4082036 1.9,1.9 0 0 0 2.68164,-0.164063 c 2.278901,-2.5753946 6.220105,-3.9607946 10.072266,-3.9335946 3.852161,0.0272 7.415113,1.482468 9.0625,3.7812506 a 1.9,1.9 0 0 0 2.650391,0.4375 1.9,1.9 0 0 0 0.4375,-2.6503906 c -2.637013,-3.679717 -7.372158,-5.335593 -12.123047,-5.369141 -4.750889,-0.03355 -9.718614,1.570293 -12.945313,5.216797 a 1.9,1.9 0 0 0 -0.476562,1.273438 z m 6.429687,3.5546876 a 1.9,1.9 0 0 0 0.527344,1.341797 1.9,1.9 0 0 0 2.6875,0.05664 c 0.551987,-0.52919 1.835271,-0.981911 3.228515,-0.96875 1.393246,0.01316 2.806082,0.490058 3.478516,1.052734 a 1.9,1.9 0 0 0 2.675781,-0.236328 1.9,1.9 0 0 0 -0.238281,-2.677735 c -1.632366,-1.365923 -3.765425,-1.917535 -5.878906,-1.9375 -2.113481,-0.01996 -4.298372,0.491328 -5.896484,2.023438 a 1.9,1.9 0 0 0 -0.583985,1.345704 z" fill="#008055"/>
</svg>
