<svg xmlns="http://www.w3.org/2000/svg" width="48" height="48">
	<path d="M 24.000976,4.927738 C 15.36138,4.7545402 9.2055025,10.346039 7.8818357,17.2168 l 0.00781,-0.04492 c -0.211693,0.975362 -0.5998066,1.238405 -1.8164037,1.761717 a 1.90019,1.90019 0 0 0 -0.039062,0.01563 c -3.1841656,1.454421 -4.4316406,4.862761 -4.4316406,8.035157 v 7.25 c 0,4.674727 3.3637119,8.841796 7.9003906,8.841796 1.887946,0 3.547481,-1.231524 4.195312,-2.642578 0.647831,-1.411054 0.703125,-2.871186 0.703125,-4.259765 V 23.84766 a 1.9,1.9 0 0 0 -1.90039,-1.900391 1.9,1.9 0 0 0 -1.898437,1.900391 v 12.326172 c 0,1.18572 -0.152374,2.227207 -0.357422,2.673828 -0.205049,0.446621 -0.04317,0.427734 -0.742188,0.427734 -2.1393614,0 -4.1015625,-2.148943 -4.1015625,-5.041015 v -7.25 c 0,-2.253405 0.7213831,-3.897747 2.2109375,-4.578126 l -0.039062,0.01758 c 1.6949828,-0.729088 3.527312,-2.132476 4.029297,-4.445313 a 1.90019,1.90019 0 0 0 0.0098,-0.04297 c 0.996586,-5.173164 5.299582,-9.3674866 12.345668,-9.210937 a 1.90019,1.90019 0 0 0 0.08398,0 c 7.046085,-0.1565496 11.349082,4.037773 12.345703,9.210937 a 1.90019,1.90019 0 0 0 0.0078,0.04297 c 0.501984,2.312837 2.334314,3.716225 4.029296,4.445313 l -0.03906,-0.01758 c 1.489554,0.680379 2.210937,2.324721 2.210937,4.578126 v 7.25 c 0,2.892072 -1.960248,5.041015 -4.099609,5.041015 -0.699014,0 -0.539092,0.01889 -0.744141,-0.427734 -0.205049,-0.446621 -0.355468,-1.488108 -0.355468,-2.673828 V 23.84766 a 1.9,1.9 0 0 0 -1.900391,-1.900391 1.9,1.9 0 0 0 -1.900391,1.900391 v 12.326172 c 0,1.388579 0.05529,2.848711 0.703125,4.259765 0.647831,1.411054 2.30932,2.642578 4.197266,2.642578 4.536679,0 7.900391,-4.167069 7.900391,-8.841796 v -7.25 c 0,-3.172396 -1.247475,-6.580736 -4.431641,-8.035157 a 1.90019,1.90019 0 0 0 -0.03906,-0.01563 c -1.216585,-0.523307 -1.604698,-0.78635 -1.816394,-1.761713 l 0.0078,0.04492 C 38.7946,10.346575 32.639513,4.7554522 24.000976,4.927738 Z" fill="#008055"/>
</svg>
