<svg xmlns="http://www.w3.org/2000/svg" width="48" height="48">
	<path d="m 10.678002,33.717758 c 0.600956,0.684127 1.289543,0.786546 1.852011,0.893551 0.587883,0.111838 1.221694,0.146511 1.934877,0.175395 l 10.233713,1.347923 c 1.108446,0.149365 1.228675,0.267453 1.958353,0.997131 l 4.250927,4.250927 0.0014,0.0014 c 2.052631,2.051221 5.196516,1.697776 6.985443,-0.09115 l 3.443002,-3.442993 c 1.784293,-1.784293 1.959316,-4.780295 0.07458,-6.665034 l -4.470517,-4.470517 c -0.625763,-0.625763 -0.942199,-1.162699 -1.001274,-1.910016 a 1.90019,1.90019 0 0 0 -0.01381,-0.124302 l -1.077233,-7.421859 a 1.9,1.9 0 0 0 -2.154466,-1.607564 1.9,1.9 0 0 0 -1.606182,2.153085 l 1.077233,7.42186 -0.01242,-0.122916 c 0.143153,1.811003 1.068763,3.267436 2.100599,4.299273 l 4.470517,4.470516 c 0.306161,0.306161 0.263406,0.954695 -0.0732,1.291299 l -3.443002,3.443003 c -0.355733,0.355733 -1.171472,0.530053 -1.611706,0.08977 l -4.252308,-4.252309 c -1.013347,-1.013347 -2.390588,-1.841328 -4.145966,-2.077125 a 1.90019,1.90019 0 0 0 -0.0042,-0.0013 L 15.10433,31.037178 33.058213,13.083294 a 1.9,1.9 0 0 0 0,-2.684796 1.9,1.9 0 0 0 -2.686177,-0.0014 L 11.927907,28.841247 c -0.606797,0.606796 -1.066676,1.101805 -1.434929,1.722191 -0.184129,0.310192 -0.359533,0.664658 -0.430893,1.160097 -0.07136,0.495439 0.03796,1.170252 0.364601,1.662806 0.08166,0.12314 0.165503,0.233725 0.251355,0.331456 z M 5.835977,24.21601 a 1.9,1.9 0 0 0 1.448741,0.54276 1.9,1.9 0 0 0 1.780195,-2.012216 c -0.209652,-3.432505 1.597574,-7.198983 4.340696,-9.903639 2.743123,-2.704656 6.29154,-4.195013 9.081903,-3.734407 a 1.9,1.9 0 0 0 2.183469,-1.56475 1.9,1.9 0 0 0 -1.56475,-2.183469 C 18.639628,4.622986 14.120494,6.800358 10.737387,10.136022 7.354277,13.471684 4.975654,18.118485 5.272501,22.978573 a 1.9,1.9 0 0 0 0.563476,1.237437 z m 7.060018,-2.032932 a 1.9,1.9 0 0 0 1.321683,0.575906 1.9,1.9 0 0 0 1.9404,-1.860299 c 0.01612,-0.764508 0.603416,-1.992049 1.597895,-2.967915 0.994479,-0.975868 2.330723,-1.637676 3.204078,-1.715287 a 1.9,1.9 0 0 0 1.724953,-2.059172 1.9,1.9 0 0 0 -2.061934,-1.724954 c -2.120111,0.188403 -4.01846,1.306655 -5.527034,2.786995 -1.508571,1.480343 -2.691987,3.386829 -2.738657,5.60023 a 1.9,1.9 0 0 0 0.538616,1.364496 z" fill="#008055"/>
</svg>
