<svg xmlns="http://www.w3.org/2000/svg" width="48" height="48">
	<path d="M 7.5361331,2.5273436 C 5.9168848,2.5273436 4.3474044,3.05838 3.2060546,4.158203 2.0647047,5.258026 1.446289,6.8726581 1.446289,8.6171874 V 38.771484 c 0,1.705469 0.3690552,3.35788 1.4238281,4.662109 1.0547728,1.30423 2.7829362,2.039063 4.666016,2.039063 a 1.9,1.9 0 0 0 1.90039,-1.900391 1.9,1.9 0 0 0 -1.90039,-1.90039 c -1.0319117,0 -1.3989731,-0.243161 -1.710938,-0.628907 -0.3119646,-0.385745 -0.580078,-1.134653 -0.580078,-2.271484 V 8.6171874 c 0,-0.9112707 0.2544936,-1.3919793 0.5976561,-1.7226562 C 6.185936,6.563854 6.7114896,6.3281249 7.5361331,6.3281249 H 40.483398 c 1.050291,0 1.502013,0.2443218 1.767578,0.5175781 0.265566,0.2732563 0.501953,0.7648617 0.501953,1.7714844 V 38.771484 c 0,1.033625 -0.294836,1.775657 -0.669921,2.21875 -0.375086,0.443092 -0.806831,0.681641 -1.59961,0.681641 H 13.219726 a 1.9,1.9 0 0 0 -1.898437,1.90039 1.9,1.9 0 0 0 1.898437,1.900391 h 27.263672 c 1.781641,0 3.4337,-0.765758 4.5,-2.025391 1.0663,-1.259632 1.570313,-2.918106 1.570313,-4.675781 V 8.6171874 c 0,-1.6613773 -0.454463,-3.2657282 -1.576172,-4.4199219 C 43.855829,3.0430718 42.223968,2.5273436 40.483398,2.5273436 Z M 23.280273,7.7636718 c -3.423078,0.1488162 -6.815683,1.3732796 -9.630859,3.6972652 -0.804336,0.663996 -1.529812,1.391857 -2.173828,2.169922 -4.5081127,5.446452 -5.042482,13.377378 -0.970703,19.4375 a 1.8999985,1.9000015 85.020775 0 0 2.634765,0.515625 1.8999985,1.9000015 85.020775 0 0 0.517578,-2.636719 c -3.581999,-5.331173 -2.542941,-12.465802 2.410157,-16.554687 4.953098,-4.088885 12.156743,-3.757462 16.71289,0.769531 4.556148,4.526994 4.935927,11.727802 0.878906,16.707031 -4.05702,4.979229 -11.186955,6.065286 -16.541015,2.517578 a 1.8999985,1.9000015 85.020775 0 0 -2.632813,0.533203 1.8999985,1.9000015 85.020775 0 0 0.533204,2.632813 C 21.97414,42.161644 31.33392,40.738166 36.604492,34.269531 41.875064,27.800895 41.37896,18.347921 35.459961,12.466796 32.130524,9.1586634 27.681374,7.5723366 23.280273,7.7636718 Z m 0.71875,12.4648432 a 3.7715855,3.7715855 0 0 0 -3.771484,3.771484 3.7715855,3.7715855 0 0 0 3.771484,3.771485 3.7715855,3.7715855 0 0 0 3.771485,-3.771485 3.7715855,3.7715855 0 0 0 -3.771485,-3.771484 z" fill="#008055"/>
</svg>
