<svg xmlns="http://www.w3.org/2000/svg" width="48" height="48">
	<path d="m 33.717758,37.321998 c 0.684127,-0.600956 0.786546,-1.289543 0.893551,-1.852011 0.111838,-0.587883 0.146511,-1.221694 0.175395,-1.934877 l 1.347923,-10.233713 c 0.149365,-1.108446 0.267453,-1.228675 0.997131,-1.958353 l 4.250927,-4.250927 0.0014,-0.0014 c 2.051221,-2.052631 1.697776,-5.196516 -0.09115,-6.985443 L 37.849942,6.6622719 c -1.784293,-1.784293 -4.780295,-1.959316 -6.665034,-0.07458 l -4.470517,4.4705171 c -0.625763,0.625763 -1.162699,0.942199 -1.910016,1.001274 a 1.90019,1.90019 0 0 0 -0.124302,0.01381 l -7.421859,1.077233 a 1.9,1.9 0 0 0 -1.607564,2.154466 1.9,1.9 0 0 0 2.153085,1.606182 l 7.42186,-1.077233 -0.122916,0.01242 c 1.811003,-0.143153 3.267436,-1.068763 4.299273,-2.100599 l 4.470516,-4.4705171 c 0.306161,-0.306161 0.954695,-0.263406 1.291299,0.0732 l 3.443003,3.4430021 c 0.355733,0.355733 0.530053,1.171472 0.08977,1.611706 l -4.252309,4.252308 c -1.013347,1.013347 -1.841328,2.390588 -2.077125,4.145966 a 1.90019,1.90019 0 0 0 -0.0013,0.0042 L 31.037178,32.89567 13.083294,14.941787 a 1.9,1.9 0 0 0 -2.684796,0 1.9,1.9 0 0 0 -0.0014,2.686177 l 18.444149,18.444129 c 0.606796,0.606797 1.101805,1.066676 1.722191,1.434929 0.310192,0.184129 0.664658,0.359533 1.160097,0.430893 0.495439,0.07136 1.170252,-0.03796 1.662806,-0.364601 0.12314,-0.08166 0.233725,-0.165503 0.331456,-0.251355 z m -9.501748,4.842025 a 1.9,1.9 0 0 0 0.54276,-1.448741 1.9,1.9 0 0 0 -2.012216,-1.780195 c -3.432505,0.209652 -7.198983,-1.597574 -9.903639,-4.340696 -2.704656,-2.743123 -4.195013,-6.29154 -3.734407,-9.081903 a 1.9,1.9 0 0 0 -1.56475,-2.183469 1.9,1.9 0 0 0 -2.183469,1.56475 c -0.737303,4.466603 1.440069,8.985737 4.775733,12.368844 3.335662,3.38311 7.982463,5.761733 12.842551,5.464886 a 1.9,1.9 0 0 0 1.237437,-0.563476 z m -2.032932,-7.060018 a 1.9,1.9 0 0 0 0.575906,-1.321683 1.9,1.9 0 0 0 -1.860299,-1.9404 c -0.764508,-0.01612 -1.992049,-0.603416 -2.967915,-1.597895 -0.975868,-0.994479 -1.637676,-2.330723 -1.715287,-3.204078 a 1.9,1.9 0 0 0 -2.059172,-1.724953 1.9,1.9 0 0 0 -1.724954,2.061934 c 0.188403,2.120111 1.306655,4.01846 2.786995,5.527034 1.480343,1.508571 3.386829,2.691987 5.60023,2.738657 a 1.9,1.9 0 0 0 1.364496,-0.538616 z" fill="#008055"/>
</svg>
