<svg xmlns="http://www.w3.org/2000/svg" width="48" height="48">
	<path d="M 37.321998,14.282247 C 36.721042,13.59812 36.032455,13.495701 35.469987,13.388696 34.882104,13.276858 34.248293,13.242185 33.53511,13.213301 L 23.301397,11.865378 c -1.108446,-0.149365 -1.228675,-0.267453 -1.958353,-0.997131 l -4.250927,-4.2509268 -0.0014,-0.00141 C 15.038086,4.5646889 11.894201,4.9181341 10.105274,6.7070602 L 6.6622719,10.150063 c -1.784293,1.784293 -1.959316,4.780295 -0.07458,6.665034 l 4.4705171,4.470517 c 0.625763,0.625763 0.942199,1.162699 1.001274,1.910016 a 1.90019,1.90019 0 0 0 0.01381,0.124302 l 1.077233,7.421859 a 1.9,1.9 0 0 0 2.154466,1.607564 1.9,1.9 0 0 0 1.606182,-2.153085 l -1.077233,-7.42186 0.01242,0.122916 C 15.703208,21.086323 14.777598,19.62989 13.745762,18.598053 L 9.2752449,14.127537 c -0.306161,-0.306161 -0.263406,-0.954695 0.0732,-1.291299 L 12.791447,9.3932354 c 0.355733,-0.355733 1.171472,-0.5300539 1.611706,-0.08977 l 4.252308,4.2523086 c 1.013347,1.013347 2.390588,1.841328 4.145966,2.077125 a 1.90019,1.90019 0 0 0 0.0042,0.0013 L 32.89567,16.962827 14.941787,34.916711 a 1.9,1.9 0 0 0 0,2.684796 1.9,1.9 0 0 0 2.686177,0.0014 L 36.072093,19.158758 c 0.606797,-0.606796 1.066676,-1.101805 1.434929,-1.722191 0.184129,-0.310192 0.359533,-0.664658 0.430893,-1.160097 0.07136,-0.495439 -0.03796,-1.170252 -0.364601,-1.662806 -0.08166,-0.12314 -0.165503,-0.233725 -0.251355,-0.331456 z m 4.842025,9.501748 a 1.9,1.9 0 0 0 -1.448741,-0.54276 1.9,1.9 0 0 0 -1.780195,2.012216 c 0.209652,3.432505 -1.597574,7.198983 -4.340696,9.903639 -2.743123,2.704656 -6.29154,4.195013 -9.081903,3.734407 a 1.9,1.9 0 0 0 -2.183469,1.56475 1.9,1.9 0 0 0 1.56475,2.183469 c 4.466603,0.737303 8.985737,-1.440069 12.368844,-4.775733 3.38311,-3.335662 5.761733,-7.982463 5.464886,-12.842551 a 1.9,1.9 0 0 0 -0.563476,-1.237437 z m -7.060018,2.032932 a 1.9,1.9 0 0 0 -1.321683,-0.575906 1.9,1.9 0 0 0 -1.9404,1.860299 c -0.01612,0.764508 -0.603416,1.992049 -1.597895,2.967915 -0.994479,0.975868 -2.330723,1.637676 -3.204078,1.715287 a 1.9,1.9 0 0 0 -1.724953,2.059172 1.9,1.9 0 0 0 2.061934,1.724954 c 2.120111,-0.188403 4.01846,-1.306655 5.527034,-2.786995 1.508571,-1.480343 2.691987,-3.386829 2.738657,-5.60023 a 1.9,1.9 0 0 0 -0.538616,-1.364496 z" fill="#008055"/>
</svg>
