<svg xmlns="http://www.w3.org/2000/svg" width="48" height="48">
	<path d="m 3.5224608,1.1552735 a 1.9,1.9 0 0 0 -1.9003907,1.900391 1.9,1.9 0 0 0 1.9003907,1.90039 h 2.3378906 c 0.3772103,0 0.2929852,0.03068 0.3046875,0.04492 0.011702,0.01424 0.1328125,0.216675 0.1328125,0.695312 V 44.944335 a 1.9,1.9 0 0 0 1.9003906,1.900391 1.9,1.9 0 0 0 1.900391,-1.900391 V 5.6962885 c 0,-1.072362 -0.2415764,-2.189311 -0.9960941,-3.107421 C 8.3480212,1.6707565 7.0940211,1.1552735 5.8603514,1.1552735 Z m 10.0585942,3.445312 a 1.9,1.9 0 0 0 -1.900391,1.900391 1.9,1.9 0 0 0 1.900391,1.898438 h 1.771484 c 1.07188,0 1.600298,0.229058 1.824219,0.427734 0.22392,0.198675 0.443359,0.52374 0.443359,1.5878895 v 13.736329 a 1.90019,1.90019 0 0 0 1.900391,1.90039 h 20.787109 c 1.05029,0 1.503966,0.244322 1.769531,0.517578 0.265566,0.273257 0.5,0.764862 0.5,1.771485 v 8.630859 c 0,1.033625 -0.294836,1.775658 -0.669922,2.21875 -0.375084,0.443093 -0.80683,0.681641 -1.599609,0.681641 H 13.581055 a 1.9,1.9 0 0 0 -1.900391,1.90039 1.9,1.9 0 0 0 1.900391,1.900391 l 26.726562,-0.002 c 1.781641,0 3.4337,-0.765758 4.5,-2.025391 1.0663,-1.259632 1.570313,-2.916153 1.570313,-4.673828 v -8.630859 c 0,-1.661378 -0.454463,-3.265728 -1.576172,-4.419922 -1.12171,-1.154194 -2.753571,-1.669922 -4.494141,-1.669922 H 21.420898 V 10.415038 c 0,-1.7403485 -0.528381,-3.3717875 -1.720703,-4.4296865 -1.192322,-1.057899 -2.748886,-1.384766 -4.347656,-1.384766 z m 14.8125,24.0800785 c -0.706524,0 -1.524334,0.08774 -2.19336,0.74414 -0.669025,0.656399 -0.753926,1.489982 -0.753906,2.107422 v 3.275391 c 0,0.661928 0.217683,1.559248 0.900391,2.117187 0.682707,0.557939 1.407376,0.609375 2.048828,0.609375 h 7.804687 c 0.686298,0 1.440037,-0.126004 2.072266,-0.673828 0.632228,-0.547824 0.869176,-1.396436 0.869141,-2.052734 v -2.417969 a 1.6,1.6 0 0 0 -1.59961,-1.59961 1.6,1.6 0 0 0 -1.599609,1.59961 v 1.945312 h -7.294922 v -2.455078 h 6.072265 a 1.6,1.6 0 0 0 1.59961,-1.599609 1.6,1.6 0 0 0 -1.59961,-1.599609 z" fill="#008055"/>
</svg>
