<svg xmlns="http://www.w3.org/2000/svg" width="48" height="48">
	<path d="m 40.154391,27.984115 c 0.05881,-0.908692 -0.355673,-1.468018 -0.677734,-1.941406 -0.336614,-0.494778 -0.760269,-0.967468 -1.244141,-1.492188 L 31.949313,16.361068 C 31.27114,15.471661 31.269626,15.303145 31.269626,14.271225 V 8.2595067 8.2575567 C 31.268629,5.3556954 28.795643,3.3825565 26.265719,3.3825565 h -4.86914 c -2.523372,0 -4.765625,1.9947328 -4.765625,4.6601562 v 6.3222653 c 0,0.884963 -0.155917,1.488388 -0.642578,2.058593 a 1.90019,1.90019 0 0 0 -0.07813,0.09766 l -4.486328,6.009765 a 1.9,1.9 0 0 0 0.386718,2.660157 1.9,1.9 0 0 0 2.658203,-0.386719 l 4.486329,-6.009766 -0.07813,0.0957 c 1.179348,-1.381797 1.554697,-3.066156 1.554697,-4.525393 V 8.0427097 c 0,-0.432977 0.488815,-0.861328 0.964844,-0.861328 h 4.86914 c 0.503083,0 1.203161,0.453551 1.203125,1.076172 v 6.0136713 c 0,1.433089 0.388385,2.992417 1.462891,4.40039 a 1.90019,1.90019 0 0 0 0.002,0.0039 l 6.195313,8.074219 H 9.738423 a 1.9,1.9 0 0 0 -1.898438,1.898438 1.9,1.9 0 0 0 1.898438,1.90039 H 35.82236 c 0.85814,0 1.533348,-0.02484 2.232422,-0.203125 0.349537,-0.08914 0.724212,-0.215756 1.125,-0.515625 0.400788,-0.299868 0.800654,-0.854332 0.917969,-1.433593 0.02933,-0.144816 0.04824,-0.282297 0.05664,-0.41211 z m -3.294922,10.142578 a 1.9,1.9 0 0 0 -0.640625,-1.408203 1.9,1.9 0 0 0 -2.68164,0.164063 c -2.278901,2.575394 -6.220105,3.960794 -10.072266,3.933594 -3.852161,-0.0272 -7.415113,-1.482468 -9.0625,-3.78125 a 1.9,1.9 0 0 0 -2.650391,-0.4375 1.9,1.9 0 0 0 -0.4375,2.65039 c 2.637013,3.679717 7.372158,5.335593 12.123047,5.369141 4.750889,0.03355 9.718614,-1.570293 12.945313,-5.216797 a 1.9,1.9 0 0 0 0.476562,-1.273438 z m -6.429687,-3.554687 a 1.9,1.9 0 0 0 -0.527344,-1.341797 1.9,1.9 0 0 0 -2.6875,-0.05664 c -0.551987,0.52919 -1.835271,0.981911 -3.228515,0.96875 -1.393246,-0.01316 -2.806082,-0.490058 -3.478516,-1.052734 a 1.9,1.9 0 0 0 -2.675781,0.236328 1.9,1.9 0 0 0 0.238281,2.677735 c 1.632366,1.365923 3.765425,1.917535 5.878906,1.9375 2.113481,0.01996 4.298372,-0.491328 5.896484,-2.023438 a 1.9,1.9 0 0 0 0.583985,-1.345704 z" fill="#008055"/>
</svg>
