<svg xmlns="http://www.w3.org/2000/svg" width="48" height="48">
	<path d="M 24 1.9492188 C 18.782678 1.9492188 14.099609 6.0031722 14.099609 11.691406 L 14.099609 20.941406 C 14.099609 26.727692 19.030372 30.783216 24 30.783203 C 28.908219 30.783178 33.858613 26.87344 33.900391 20.955078 L 33.900391 20.947266 L 33.900391 11.691406 C 33.900391 5.7138385 28.893905 1.9492187 24 1.9492188 z M 24 5.75 C 27.046073 5.75 30.099609 7.7782744 30.099609 11.691406 L 30.099609 20.927734 C 30.072627 24.750213 26.920239 26.982407 24 26.982422 C 21.141168 26.982429 17.900391 24.5163 17.900391 20.941406 L 17.900391 11.691406 C 17.900391 8.0137807 20.650642 5.75 24 5.75 z M 9.5097656 20.095703 A 1.9 1.9 0 0 0 7.609375 21.996094 C 7.609375 29.972848 13.924632 36.170961 22.09375 37.039062 L 22.09375 39.980469 C 22.09375 41.030754 21.849433 41.484431 21.576172 41.75 C 21.302911 42.015569 20.811304 42.25 19.804688 42.25 L 15.822266 42.25 A 1.9 1.9 0 0 0 13.921875 44.150391 A 1.9 1.9 0 0 0 15.822266 46.050781 L 19.804688 46.050781 C 21.466061 46.050781 23.070413 45.596316 24.224609 44.474609 C 25.378806 43.352903 25.894531 41.721043 25.894531 39.980469 L 25.894531 35.314453 A 1.90019 1.90019 0 0 0 23.996094 33.414062 C 16.694824 33.403056 11.410156 28.472502 11.410156 21.996094 A 1.9 1.9 0 0 0 9.5097656 20.095703 z M 38.490234 20.095703 A 1.9 1.9 0 0 0 36.589844 21.996094 C 36.589844 25.095283 35.446218 28.020226 33.302734 30.013672 C 31.183953 31.984156 30.028329 32.354114 28.601562 32.957031 A 1.9 1.9 0 0 0 27.591797 35.445312 A 1.9 1.9 0 0 0 30.080078 36.457031 C 31.371685 35.911229 33.386027 35.126171 35.890625 32.796875 C 38.892481 30.005141 40.390625 26.033365 40.390625 21.996094 A 1.9 1.9 0 0 0 38.490234 20.095703 z M 28.496094 42.234375 A 1.9 1.9 0 0 0 26.597656 44.134766 A 1.9 1.9 0 0 0 28.496094 46.035156 L 32.224609 46.035156 A 1.9 1.9 0 0 0 34.125 44.134766 A 1.9 1.9 0 0 0 32.224609 42.234375 L 28.496094 42.234375 z " fill="#008055"/>
</svg>
