<svg xmlns="http://www.w3.org/2000/svg" width="48" height="48">
	<path d="M 24.000976,1.6295952 C 15.36138,1.4563975 9.2055025,7.0478971 7.8818357,13.918658 l 0.00781,-0.04297 c -0.211693,0.975364 -0.5998066,1.236454 -1.8164037,1.759767 a 1.90019,1.90019 0 0 0 -0.039062,0.01758 c -3.1841656,1.454421 -4.4316406,4.862761 -4.4316406,8.035156 v 7.248047 c 0,4.674727 3.3637119,8.841797 7.9003906,8.841797 1.887945,0 3.549434,-1.231525 4.197265,-2.642578 0.647831,-1.411055 0.701172,-2.871186 0.701172,-4.259766 V 20.549517 a 1.9,1.9 0 0 0 -1.898438,-1.898438 1.9,1.9 0 0 0 -1.90039,1.898438 v 12.326172 c 0,1.18572 -0.152373,2.227207 -0.357422,2.673828 -0.205049,0.446621 -0.04317,0.429688 -0.742187,0.429688 -2.1393614,0 -4.0996094,-2.150896 -4.0996094,-5.042969 v -7.248047 c 0,-2.253405 0.71943,-3.899699 2.2089844,-4.580078 1.6845897,-0.733523 3.493843,-2.131674 3.992187,-4.427735 a 1.90019,1.90019 0 0 0 0.0078,-0.04297 C 12.608914,9.4642411 16.91191,5.2699186 23.957995,5.4264682 a 1.90019,1.90019 0 0 0 0.08399,0 c 7.046086,-0.1565496 11.349082,4.0377729 12.345703,9.2109378 a 1.90019,1.90019 0 0 0 0.0078,0.04297 c 0.498345,2.296061 2.3076,3.694212 3.992188,4.427735 1.489554,0.680379 2.208984,2.326673 2.208984,4.580078 v 7.248047 c 0,2.892073 -1.960248,5.042969 -4.099609,5.042969 -0.699014,0 -0.53714,0.01693 -0.742187,-0.429688 -0.205049,-0.446621 -0.357422,-1.488108 -0.357422,-2.673828 V 20.549517 a 1.9,1.9 0 0 0 -1.900372,-1.898438 1.9,1.9 0 0 0 -1.898437,1.898438 v 12.326172 c 0,1.38858 0.05334,2.848711 0.701171,4.259766 0.144384,0.314484 0.345662,0.61734 0.582032,0.902343 -0.900716,2.779919 -2.394087,4.129046 -4.029297,4.669922 -1.227821,0.406124 -2.631693,0.338217 -4.013672,-0.167969 a 3.4605861,3.4605861 0 0 0 0.302734,-1.412109 3.4605861,3.4605861 0 0 0 -3.460937,-3.460937 3.4605861,3.4605861 0 0 0 -3.460938,3.460937 3.4605861,3.4605861 0 0 0 3.148438,3.447266 c 2.592744,1.67641 5.701744,2.301745 8.550781,1.359375 2.553391,-0.844581 4.728333,-2.973263 5.96875,-6.205078 0.200334,0.02817 0.402572,0.04883 0.609375,0.04883 4.536679,0 7.900391,-4.16707 7.900391,-8.841797 v -7.248047 c 0,-3.172395 -1.247475,-6.580735 -4.431641,-8.035156 a 1.90019,1.90019 0 0 0 -0.03906,-0.01758 c -1.216597,-0.523313 -1.60471,-0.784403 -1.816406,-1.759766 l 0.0078,0.04297 C 38.7946,7.0484321 32.639513,1.4573094 24.000976,1.6295952 Z" fill="#008055"/>
</svg>
