<svg xmlns="http://www.w3.org/2000/svg" width="48" height="48">
	<path d="M 23.523278,1.9114425 C 19.083149,2.0023691 14.704241,3.2085979 10.447106,5.4075363 A 1.4,1.4 0 0 0 9.8455439,7.2923019 1.4,1.4 0 0 0 11.732262,7.8938644 c 7.884851,-4.0727632 15.68592,-4.446767 23.980469,-0.2910156 a 1.4,1.4 0 0 0 1.878906,-0.625 A 1.4,1.4 0 0 0 36.96859,5.0989426 C 32.466085,2.8430882 27.963407,1.8205159 23.523278,1.9114425 Z m 0.861328,5.3476563 c -0.463307,-0.006 -0.925262,0.00143 -1.386719,0.021484 C 15.61458,7.6014178 8.5553954,11.232301 4.6072626,17.407536 A 1.4,1.4 0 0 0 5.0330439,19.34113 1.4,1.4 0 0 0 6.9666376,18.915349 C 13.761392,8.28774 31.706543,6.0537565 41.091637,18.68488 a 1.4,1.4 0 0 0 1.957032,0.28711 1.4,1.4 0 0 0 0.289062,-1.957032 C 38.416359,10.391429 31.334213,7.3491158 24.384606,7.2590988 Z m -0.839844,5.2792972 c -0.94501,0.02464 -1.913676,0.115244 -2.904297,0.277344 a 1.40014,1.40014 0 0 0 -0.04492,0.0078 C 13.302357,14.260725 9.0219375,18.498002 7.2205439,23.468083 5.4191503,28.438165 5.9382185,34.029917 7.6170283,38.614568 a 1.4,1.4 0 0 0 1.796875,0.833984 1.4,1.4 0 0 0 0.8320307,-1.796875 C 8.7604944,33.595098 8.3462125,28.579449 9.8533564,24.421208 c 1.5050746,-4.152533 4.7713916,-7.55759 11.2597656,-8.84375 6.964312,-1.131913 12.221766,1.528377 15.816406,6.4375 1.79099,2.610853 2.61025,5.51799 2.457031,7.708985 -0.153409,2.19371 -1.005836,3.52801 -2.919922,3.990234 -2.286817,0.520503 -3.17085,0.14248 -3.853515,-0.525391 -0.683975,-0.669151 -1.188501,-1.986425 -1.679688,-3.539062 -0.491186,-1.552637 -0.965165,-3.321892 -2.232422,-4.736328 -1.267257,-1.414436 -3.409355,-2.15554 -6.162109,-1.654297 a 1.40014,1.40014 0 0 0 -0.04688,0.0098 c -2.360998,0.512827 -4.096293,2.107832 -4.898438,4.117187 -0.802144,2.009356 -0.779936,4.380071 -0.0957,6.759766 1.368467,4.75939 5.460025,9.678464 12.080078,11.876953 a 1.4,1.4 0 0 0 1.769532,-0.886719 1.4,1.4 0 0 0 -0.886719,-1.769531 c -5.757597,-1.912071 -9.173296,-6.176707 -10.271485,-9.996094 -0.549093,-1.909693 -0.500262,-3.677487 0.0059,-4.945312 0.503936,-1.26235 1.356002,-2.076718 2.875,-2.41211 2.110769,-0.377475 2.882451,0.02817 3.544922,0.767578 0.666642,0.744067 1.150226,2.138049 1.648437,3.712891 0.498211,1.574842 1.016098,3.350617 2.392578,4.697266 1.37648,1.346648 3.592905,1.90352 6.44336,1.251953 a 1.40014,1.40014 0 0 0 0.01563,-0.002 c 3.105374,-0.74477 4.853342,-3.502653 5.064453,-6.521485 0.211111,-3.018831 -0.839717,-6.440657 -2.955078,-9.513672 a 1.40014,1.40014 0 0 0 -0.02148,-0.03125 c -3.081275,-4.215218 -7.5244,-7.088461 -12.896532,-7.71483 -0.895356,-0.104395 -1.816709,-0.145731 -2.761719,-0.121094 z m 0.06055,5.070312 c -0.299634,0.0089 -0.59755,0.02834 -0.894531,0.05664 -3.56378,0.33966 -6.890896,2.064795 -8.808594,4.818359 -4.5890923,6.589327 -2.349415,15.853348 4.416016,22.732422 a 1.4,1.4 0 0 0 1.978515,0.01758 1.4,1.4 0 0 0 0.01758,-1.980468 c -6.112494,-6.215167 -7.747966,-13.95381 -4.115239,-19.169923 1.77333,-2.546271 5.90554,-4.169531 9.632813,-3.523438 3.727272,0.646094 7.080984,3.209843 7.830078,9.503906 a 1.4,1.4 0 0 0 1.55664,1.22461 1.4,1.4 0 0 0 1.22461,-1.556641 C 35.580514,22.483269 31.09827,18.630056 26.310387,17.800115 25.41266,17.6445 24.504211,17.58206 23.605309,17.608708 Z m 0.248047,10.267578 a 1.4,1.4 0 0 0 -0.109375,0.002 1.4,1.4 0 0 0 -1.300781,1.492187 c 0.26882,3.932091 1.757792,7.241148 4.36914,9.382813 2.611348,2.141664 6.246902,3.036457 10.498047,2.52539 a 1.4,1.4 0 0 0 1.222656,-1.55664 1.4,1.4 0 0 0 -1.55664,-1.222657 c -3.691055,0.443734 -6.45865,-0.327273 -8.388672,-1.910156 -1.930022,-1.582883 -3.122502,-4.059637 -3.351562,-7.410156 a 1.4,1.4 0 0 0 -1.382813,-1.302735 z" fill="#008055"/>
</svg>
