<svg xmlns="http://www.w3.org/2000/svg" width="48" height="48">
	<path d="m 14.241211,1.9267575 c -1.619247,0 -3.188728,0.529083 -4.3300782,1.628906 -1.1413499,1.099823 -1.7617187,2.714455 -1.7617187,4.458985 V 39.37207 c 0,1.705429 0.3710211,3.355923 1.4257812,4.660156 1.0547597,1.304233 2.7829147,2.041016 4.6660157,2.041016 a 1.9,1.9 0 0 0 1.900391,-1.900391 1.9,1.9 0 0 0 -1.900391,-1.900391 c -1.031889,0 -1.39896,-0.243139 -1.710938,-0.628906 C 12.218296,41.257787 11.950195,40.50884 11.950195,39.37207 V 8.0146485 c 0,-0.911271 0.254494,-1.39198 0.597657,-1.722656 0.343162,-0.330679 0.868716,-0.566407 1.693359,-0.566407 h 19.539063 c 1.05029,0 1.503965,0.246276 1.769531,0.519531 0.265565,0.273258 0.5,0.762909 0.5,1.769532 V 39.37207 c 0,1.033624 -0.294825,1.775629 -0.669922,2.21875 -0.375098,0.44312 -0.806855,0.68164 -1.599609,0.68164 H 19.924805 a 1.9,1.9 0 0 0 -1.900391,1.900391 1.9,1.9 0 0 0 1.900391,1.900391 h 13.855469 c 1.781665,0 3.433711,-0.767689 4.5,-2.027344 1.066287,-1.259655 1.570312,-2.916153 1.570312,-4.673828 V 8.0146485 c 0,-1.661378 -0.454462,-3.263775 -1.576172,-4.417969 -1.121709,-1.154194 -2.753571,-1.669922 -4.49414,-1.669922 z m 3.876953,6.240235 a 1.6,1.6 0 0 0 -1.599609,1.599609 v 8.0917965 c 0,0.777694 0.205533,1.673169 0.863281,2.333984 0.657748,0.660816 1.572144,0.888672 2.423828,0.888672 h 2.166016 c 0.78139,0 1.669069,-0.265217 2.25,-0.914062 0.58093,-0.648846 0.728515,-1.445876 0.728515,-2.132813 v -6.490234 a 1.60016,1.60016 0 0 0 0,-0.01953 c -0.0013,-0.101523 0.0052,-0.104259 0.0098,-0.15625 0.02059,-5.71e-4 0.0094,-0.002 0.03516,-0.002 h 2.103516 c 0.0024,0.03394 0.0078,0.03171 0.0078,0.07813 v 6.519531 c 0,0.857185 0.309688,1.741636 0.929688,2.324219 0.62,0.582584 1.417942,0.792969 2.119141,0.792969 h 1.898437 a 1.6,1.6 0 0 0 1.599609,-1.599609 1.6,1.6 0 0 0 -1.599609,-1.59961 h -1.746094 v -6.4375 c 0,-0.683867 -0.09525,-1.5073575 -0.697265,-2.2343745 -0.602013,-0.727016 -1.591633,-1.042968 -2.507813,-1.042968 h -2.107422 c -0.769476,0 -1.686149,0.17823 -2.371093,0.86914 -0.684947,0.69091 -0.884104,1.6356905 -0.873047,2.5292965 v 6.316406 H 19.80569 c -0.06032,0 -0.0515,-0.0034 -0.08789,-0.0059 -1.79e-4,-0.01149 0,-0.0045 0,-0.01758 V 9.7665185 a 1.6,1.6 0 0 0 -1.59961,-1.599609 z" fill="#008055"/>
</svg>
