<svg xmlns="http://www.w3.org/2000/svg" width="48" height="48">
	<path d="m 21.786132,1.9267577 c -1.747816,0 -3.631344,0.7674179 -4.71875,2.3632815 l 0.07422,-0.101563 -7.341797,9.3710938 a 1.90019,1.90019 0 0 0 -0.03125,0.03906 c -1.091992,1.471205 -1.61914,3.035693 -1.61914,4.783204 V 39.37207 c 0,1.705429 0.369068,3.357876 1.423828,4.662109 1.05476,1.304234 2.782915,2.039063 4.666015,2.039063 a 1.9,1.9 0 0 0 1.900391,-1.900391 1.9,1.9 0 0 0 -1.900391,-1.90039 c -1.031889,0 -1.39896,-0.24314 -1.710937,-0.628907 -0.311979,-0.385766 -0.580079,-1.134713 -0.580079,-2.271484 V 18.381836 c 0,-1.270911 0.0381,-1.394911 0.865234,-2.509766 0.0029,-0.0038 0.003,-0.0039 0.0059,-0.0078 l 7.314453,-9.3320318 a 1.90019,1.90019 0 0 0 0.07422,-0.101562 c 0.418195,-0.613737 0.638561,-0.703125 1.578125,-0.703125 h 11.994141 c 1.05029,0 1.502013,0.244322 1.767578,0.517578 0.265566,0.273256 0.501953,0.764862 0.501953,1.771484 V 39.37207 c 0,1.033625 -0.294836,1.775658 -0.669922,2.21875 -0.375085,0.443092 -0.80683,0.681641 -1.599609,0.681641 H 19.924804 a 1.9,1.9 0 0 0 -1.90039,1.90039 1.9,1.9 0 0 0 1.90039,1.900391 h 13.855469 c 1.781641,0 3.4337,-0.767711 4.5,-2.027344 1.0663,-1.259632 1.570313,-2.916153 1.570313,-4.673828 V 8.0166012 c 0,-1.661377 -0.454463,-3.265728 -1.576172,-4.419922 C 37.152704,2.4424863 35.520843,1.9267577 33.780273,1.9267577 Z M 17.631836,21.129882 a 1.85,1.85 0 0 0 -1.851563,1.84961 v 6.472656 a 1.85,1.85 0 0 0 1.851563,1.84961 1.85,1.85 0 0 0 1.849609,-1.84961 v -6.472656 a 1.85,1.85 0 0 0 -1.849609,-1.84961 z m 6.375,0 a 1.85,1.85 0 0 0 -1.84961,1.84961 v 1.277344 a 1.85,1.85 0 0 0 1.84961,1.849609 1.85,1.85 0 0 0 1.849609,-1.849609 v -1.277344 a 1.85,1.85 0 0 0 -1.849609,-1.84961 z m 6.361328,0.01172 a 1.85,1.85 0 0 0 -1.851563,1.84961 v 6.470703 a 1.85,1.85 0 0 0 1.851563,1.851562 1.85,1.85 0 0 0 1.849609,-1.851562 v -6.470703 a 1.85,1.85 0 0 0 -1.849609,-1.84961 z m -6.361328,6.513672 a 1.85,1.85 0 0 0 -1.84961,1.851563 v 6.52539 a 1.85,1.85 0 0 0 1.84961,1.851563 1.85,1.85 0 0 0 1.849609,-1.851563 v -6.52539 a 1.85,1.85 0 0 0 -1.849609,-1.851563 z m -6.375,5.197266 a 1.85,1.85 0 0 0 -1.851563,1.849609 v 1.330078 a 1.85,1.85 0 0 0 1.851563,1.851563 1.85,1.85 0 0 0 1.849609,-1.851563 V 34.702149 A 1.85,1.85 0 0 0 17.631836,32.85254 Z m 12.736328,0.0098 a 1.85,1.85 0 0 0 -1.851563,1.84961 v 1.332031 a 1.85,1.85 0 0 0 1.851563,1.849609 1.85,1.85 0 0 0 1.849609,-1.849609 V 34.71195 a 1.85,1.85 0 0 0 -1.849609,-1.84961 z" fill="#008055"/>
</svg>
