<svg xmlns="http://www.w3.org/2000/svg" width="48" height="48">
	<path d="m 20.96582,1.0888672 c -0.40532,0 -0.820887,0.00958 -1.330078,0.15625 -0.509191,0.1466738 -1.12995,0.5219372 -1.503906,1.0410156 -0.744085,1.032844 -0.666088,1.9243464 -0.65625,3.0019531 0,0.2546185 -0.05401,0.5303579 -0.09961,0.75 -1.384452,0.1219504 -2.707953,0.5127979 -3.685547,1.4628907 -1.154184,1.1217142 -1.669922,2.7535884 -1.669922,4.4941414 v 28.824218 c 0,1.619248 0.531035,3.18872 1.630859,4.330078 1.099824,1.141359 2.71444,1.761719 4.458985,1.761719 a 1.9,1.9 0 0 0 1.90039,-1.900391 1.9,1.9 0 0 0 -1.90039,-1.90039 c -0.911286,0 -1.391978,-0.25449 -1.722657,-0.597656 -0.330678,-0.343167 -0.566406,-0.868708 -0.566406,-1.69336 V 11.995118 c 0,-1.05025 0.244305,-1.503946 0.517578,-1.769532 0.273274,-0.2655863 0.764887,-0.5000003 1.771485,-0.5000003 0.738699,0 1.498227,-0.351558 1.957031,-0.7968748 0.458803,-0.4453166 0.68945,-0.9234364 0.847656,-1.3574218 0.316411,-0.8679708 0.359375,-1.6472436 0.359375,-2.2832032 a 1.90019,1.90019 0 0 0 0,-0.015625 c -0.0038,-0.4464672 -0.0496,-0.2553057 -0.0293,-0.3828124 h 5.492188 c 0.01121,0.083422 -0.01172,-0.036922 -0.01172,0.3984374 0,0.6332357 0.05286,1.4062929 0.367188,2.2675782 0.157163,0.4306426 0.382423,0.9019856 0.832031,1.3496094 0.449607,0.4476232 1.210772,0.8203122 1.966797,0.8203122 1.006597,0 1.496257,0.234414 1.769531,0.5000003 0.273273,0.265586 0.519531,0.719282 0.519531,1.769532 v 28.824218 c 0,0.824652 -0.237681,1.350193 -0.568359,1.69336 -0.330679,0.343166 -0.809418,0.597656 -1.720703,0.597656 h -5.890625 a 1.9,1.9 0 0 0 -1.900391,1.90039 1.9,1.9 0 0 0 1.900391,1.900391 h 5.890625 c 1.744544,0 3.357207,-0.62036 4.457031,-1.761719 1.099824,-1.141358 1.630859,-2.71083 1.630859,-4.330078 V 11.995118 c 0,-1.740553 -0.515738,-3.3724272 -1.669922,-4.4941414 -0.976076,-0.9486174 -2.295695,-1.3400463 -3.677734,-1.4628907 -0.04952,-0.227223 -0.105469,-0.5223046 -0.105469,-0.75 0,-0.9795484 0.01993,-1.9152891 -0.695312,-2.9082031 -0.715233,-0.992914 -1.988052,-1.2910156 -2.95898,-1.2910156 z m 3.035157,11.4921878 a 1.8,1.8 0 0 0 -1.800782,1.798828 v 2.351563 h -2.527343 a 1.8,1.8 0 0 0 -1.798828,1.798828 1.8,1.8 0 0 0 1.798828,1.800781 h 2.527343 v 2.703125 a 1.8,1.8 0 0 0 1.800782,1.800781 1.8,1.8 0 0 0 1.798828,-1.800781 v -2.703125 h 2.527343 a 1.8,1.8 0 0 0 1.800782,-1.800781 1.8,1.8 0 0 0 -1.800782,-1.798828 h -2.527343 v -2.351563 a 1.8,1.8 0 0 0 -1.798828,-1.798828 z m -4.328125,21.226563 a 1.8,1.8 0 0 0 -1.798828,1.798828 1.8,1.8 0 0 0 1.798828,1.800781 h 8.654296 a 1.8,1.8 0 0 0 1.800782,-1.800781 1.8,1.8 0 0 0 -1.800782,-1.798828 z" fill="#008055"/>
</svg>
