<svg xmlns="http://www.w3.org/2000/svg" width="48" height="48">
	<path d="m 9.4111326,5.7721557 c -3.530153,0.112037 -6.3555327,3.062417 -6.2441405,6.5781253 0.1050969,3.317014 2.7700525,6.08789 6.0800785,6.08789 l 16.7226434,-0.01368 c 3.259431,0 5.8699,-3.121868 5.763672,-6.466797 -0.111458,-3.5096223 -3.11019,-6.2801123 -6.634766,-6.1855463 -3.524576,0.09456 -6.363873,3.02091 -6.279297,6.5312503 0.02684,1.114151 0.352464,2.143029 0.890625,3.033203 h -4.521484 c 0.601726,-0.98889 0.93138,-2.150933 0.888672,-3.396485 C 15.956596,8.4246997 12.941274,5.6601127 9.4111196,5.7721487 Z m 0.105469,3.199218 c 1.8295764,-0.05806 3.3028804,1.3126743 3.3632814,3.0742193 0.0604,1.761546 -1.315113,3.228336 -3.1445314,3.291016 -0.00586,-3.2e-5 -0.011719,-3.2e-5 -0.017578,0 -1.829721,0.05345 -3.297698,-1.322292 -3.353516,-3.083985 -0.055818,-1.761691 1.322768,-3.2231843 3.152344,-3.2812503 z m 15.6718754,0 c 1.826514,-0.04901 3.289858,1.3235613 3.345703,3.0820323 0.05585,1.758471 -1.318447,3.220637 -3.144531,3.283203 h -0.04883 c -1.826834,0.03544 -3.279889,-1.346632 -3.322266,-3.105469 -0.04238,-1.758837 1.343409,-3.2107603 3.169922,-3.2597663 z M 7.3017576,20.608093 c -1.644138,0 -3.2185922,0.449649 -4.3496092,1.548828 -1.1310173,1.09918 -1.640625,2.699451 -1.640625,4.421875 v 9.66211 c 0,1.598337 0.5239197,3.139436 1.6035156,4.259765 C 3.9946349,41.621 5.5791636,42.23114 7.3017576,42.23114 H 26.987305 c 1.690464,0 3.317587,-0.367145 4.597656,-1.402344 1.280069,-1.035199 2.001953,-2.727197 2.001953,-4.58789 4.32e-4,-0.99396 -0.804868,-1.800135 -1.798828,-1.800782 -0.994723,-4.32e-4 -1.801213,0.806059 -1.800781,1.800782 0,1.054306 -0.2561,1.455608 -0.666016,1.787109 -0.409916,0.331501 -1.182208,0.603516 -2.333984,0.603516 H 7.3017576 c -0.933236,0 -1.444015,-0.26476 -1.794922,-0.628907 -0.350906,-0.364146 -0.595703,-0.916156 -0.595703,-1.761718 v -9.66211 c 0,-1.068476 0.252388,-1.551748 0.548828,-1.839844 0.296441,-0.288095 0.817946,-0.529296 1.841797,-0.529296 H 26.985352 c 1.052664,0 1.820564,0.300072 2.285156,0.693359 0.464593,0.393287 0.716797,0.857 0.716797,1.675781 v 2.462891 c 1.3e-5,1.995845 1.086597,3.6694 2.457031,4.746094 0.01289,0.0099 0.02591,0.01971 0.03906,0.0293 l 8.972656,6.660156 c 0.03984,0.02968 0.08089,0.0577 0.123047,0.08398 0.978562,0.607609 2.28433,0.971783 3.482422,0.314453 1.198092,-0.65733 1.599561,-2.004048 1.574219,-3.197265 l 0.05273,-12.789063 -0.002,0.03906 c 0.01481,-0.583079 -0.06857,-1.188659 -0.392578,-1.767578 -0.32401,-0.578921 -0.935522,-1.058328 -1.544922,-1.242188 -1.2188,-0.367721 -2.177832,0.04378 -3.039063,0.541016 -0.07646,0.04405 -0.14957,0.09366 -0.21875,0.148437 L 35.47168,27.38739 c -0.778334,0.618587 -0.907758,1.751049 -0.289063,2.529297 0.618446,0.777078 1.74941,0.906431 2.527344,0.289062 l 5.375,-4.267578 -0.04688,11.230469 -8.378906,-6.220703 c -0.888433,-0.699075 -1.072259,-0.939954 -1.072266,-1.90625 v -2.462891 c 0,-1.755619 -0.752089,-3.375714 -1.990234,-4.423828 -1.238145,-1.048113 -2.872702,-1.546875 -4.611328,-1.546875 z m 10.9218754,6.822266 c -0.99396,-4.31e-4 -1.800134,0.804868 -1.800781,1.798828 -4.32e-4,0.994723 0.806058,1.801213 1.800781,1.800781 h 5.798828 c 0.99396,-6.47e-4 1.799259,-0.806821 1.798828,-1.800781 -6.46e-4,-0.993197 -0.805631,-1.798182 -1.798828,-1.798828 z" fill="#008055"/>
</svg>
