<svg xmlns="http://www.w3.org/2000/svg" width="48" height="48">
	<path d="m 23.705113,2.7125638 c -5.058628,0.142113 -10.090382,2.428542 -13.33789,6.898437 a 1.80018,1.80018 0 0 0 -0.002,0.002 C 7.6007411,13.430586 6.9184189,17.834612 7.5214732,21.751673 c 0.6030541,3.917061 2.4249522,7.398763 4.8808598,9.701172 a 1.8,1.8 0 0 0 2.544921,-0.08203 1.8,1.8 0 0 0 -0.08398,-2.544922 c -1.753593,-1.643991 -3.301385,-4.493458 -3.783203,-7.623047 -0.481697,-3.128803 0.03582,-6.487712 2.199219,-9.476562 l 0.002,-0.002 c 4.326276,-5.9519332 12.94354,-6.9102862 18.503906,-3.1582032 3.911125,2.9374582 7.141795,9.2064782 4.099609,16.0683602 -0.888565,1.994632 -2.680354,4.387863 -5.230469,5.976562 -2.551039,1.589276 -5.826352,2.460241 -10.109375,1.519531 -0.705418,-0.168259 -1.582524,-0.330057 -2.580078,-0.111328 -1.012457,0.221998 -2.007357,0.879215 -2.785156,1.851563 l -4.910156,5.693359 a 1.80018,1.80018 0 0 0 -0.04688,0.05469 c -0.417559,0.525654 -0.7505884,1.050022 -0.9667968,1.662109 -0.2162085,0.612087 -0.3125283,1.393288 0,2.152344 0.3125281,0.759056 0.9927408,1.287368 1.6249998,1.539062 0.63226,0.251695 1.26351,0.322266 1.953125,0.322266 H 35.1973 c 1.38339,0 2.790831,-0.231544 3.595703,-1.591797 0.402436,-0.680126 0.441172,-1.532936 0.261719,-2.1875 -0.179453,-0.654564 -0.516369,-1.182997 -0.931641,-1.68164 l -3.216797,-4.097657 a 1.8,1.8 0 0 0 -2.527343,-0.304687 1.8,1.8 0 0 0 -0.302735,2.527344 l 2.931641,3.736328 H 13.185583 l 4.763671,-5.525391 a 1.80018,1.80018 0 0 0 0.04102,-0.05078 c 0.399761,-0.499752 0.574714,-0.544454 0.746093,-0.582032 0.171382,-0.03758 0.47989,-0.02396 1.001954,0.101563 a 1.80018,1.80018 0 0 0 0.0332,0.0078 c 5.143907,1.129789 9.523823,0.05253 12.787109,-1.980469 3.263286,-2.033 5.44479,-4.935026 6.617188,-7.56836 a 1.80018,1.80018 0 0 0 0,-0.0039 C 42.939149,17.604943 39.071159,9.5057378 33.914099,5.6559208 a 1.80018,1.80018 0 0 0 -0.06445,-0.04492 c -2.699546,-1.836279 -5.89801,-2.806505 -9.132813,-2.898437 -0.336958,-0.0096 -0.674477,-0.0095 -1.011719,0 z m 0.720704,7.5390622 c -3.12797,-0.111908 -6.229221,1.433726 -7.941407,4.292969 -2.490452,4.158899 -1.148424,9.598374 2.992188,12.119141 a 1.6999937,1.7000063 85.01631 0 0 0.117187,0.06445 1.6999937,1.7000063 85.01631 0 0 0.107422,0.06641 c 4.212539,2.398636 9.619443,0.935098 12.048828,-3.259766 2.429385,-4.194863 1.0071,-9.610348 -3.169922,-12.070312 -1.305319,-0.768739 -2.732492,-1.162024 -4.154296,-1.212892 z m -0.140625,3.38086 c 0.874626,0.03441 1.755461,0.281027 2.568359,0.759765 2.601272,1.531962 3.467993,4.827075 1.955078,7.439453 -1.512915,2.612379 -4.802391,3.501582 -7.425781,2.007813 a 1.6999937,1.7000063 85.01631 0 0 -0.07031,-0.03711 1.6999937,1.7000063 85.01631 0 0 -0.06641,-0.04297 c -2.578598,-1.569827 -3.394694,-4.878769 -1.84375,-7.46875 1.066275,-1.780613 2.958636,-2.733908 4.882813,-2.658203 z m -0.324219,1.933593 a 3.4605861,3.4605861 0 0 0 -3.460938,3.458985 3.4605861,3.4605861 0 0 0 3.460938,3.460937 3.4605861,3.4605861 0 0 0 3.460937,-3.460937 3.4605861,3.4605861 0 0 0 -3.460937,-3.458985 z" fill="#008055"/>
</svg>
