<svg xmlns="http://www.w3.org/2000/svg" width="48" height="48">
	<path d="m 32.247309,0.76857741 c -0.679094,-0.0017 -1.324513,0.045 -1.935546,0.132812 -2.444135,0.35125599 -4.343247,1.36735999 -5.6875,2.63476599 -2.589113,2.441098 -3.213778,5.432661 -3.259766,5.660156 -0.316194,1.0328736 -0.237605,2.1983056 0.398437,3.1621096 0.649212,0.983758 1.888636,1.595703 3.144532,1.595703 h 5.359375 c 1.033609,0 1.775645,0.294825 2.21875,0.669921 0.443105,0.375098 0.68164,0.808805 0.68164,1.601563 v 24.914063 c 0,1.031905 -0.243161,1.398983 -0.628906,1.710937 -0.385745,0.311954 -1.134672,0.580078 -2.271484,0.580078 h -16.65625 c -0.91131,0 -1.390038,-0.254515 -1.720704,-0.597656 -0.330664,-0.343141 -0.568359,-0.868708 -0.568359,-1.693359 V 16.225608 c 0,-1.050311 0.246274,-1.503966 0.519531,-1.769531 0.273258,-0.265566 0.76291,-0.501953 1.769532,-0.501953 H 17.8977 A 1.9,1.9 0 0 0 19.796137,12.055686 1.9,1.9 0 0 0 17.8977,10.155295 h -4.287109 c -1.661369,0 -3.263769,0.454463 -4.4179689,1.576172 -1.1542,1.12171 -1.669922,2.753552 -1.669922,4.494141 v 24.914063 c 0,1.619247 0.531022,3.188744 1.630859,4.330078 1.0998379,1.141333 2.7125109,1.761718 4.4570319,1.761718 h 16.65625 c 1.705427,0 3.355916,-0.371035 4.660156,-1.425781 1.30424,-1.054746 2.041016,-2.782922 2.041016,-4.666015 V 16.225608 c 0,-1.781642 -0.767712,-3.43565 -2.027344,-4.501953 -1.259633,-1.066303 -2.916148,-1.56836 -4.673828,-1.56836 h -5.240235 a 1.90019,1.90019 0 0 0 0.01563,-0.06445 c 0,0 0.479539,-2.1768986 2.189453,-3.7890616 1.709915,-1.612163 4.502937,-2.933949 10.648438,-0.513672 A 1.9,1.9 0 0 0 40.344966,4.7177954 1.9,1.9 0 0 0 39.2727,2.2529524 C 36.627305,1.2111184 34.284593,0.77373541 32.247309,0.76857741 Z M 22.458247,24.012717 c -2.945589,-0.06649 -5.845446,1.433998 -7.41211,4.152344 -2.179601,3.781867 -0.951717,8.549449 2.609376,10.962891 a 1.6999908,1.7000092 85.017552 0 0 0.421874,0.373047 c 0.0029,0.0017 0.0049,0.0042 0.0078,0.0059 a 1.6999908,1.7000092 85.017552 0 0 0.02344,0.01367 1.6999908,1.7000092 85.017552 0 0 0.0098,0.0059 1.6999908,1.7000092 85.017552 0 0 0.01563,0.0098 c 0.0045,0.0026 0.0092,0.0014 0.01367,0.0039 a 1.6999908,1.7000092 85.017552 0 0 0.535156,0.175781 c 3.879328,1.855025 8.611599,0.510812 10.777344,-3.277343 2.265046,-3.961845 0.881776,-9.058187 -3.076172,-11.330078 -1.236858,-0.709966 -2.586877,-1.06548 -3.925781,-1.095704 z m -0.56836,3.396485 c 0.940592,-0.06641 1.913481,0.13912 2.800782,0.648437 2.366135,1.358179 3.172442,4.324902 1.818359,6.69336 -1.354083,2.368459 -4.32057,3.180037 -6.691406,1.830078 a 1.6999908,1.7000092 85.017552 0 0 -0.0293,-0.01563 c -2.361407,-1.366384 -3.159171,-4.337428 -1.796875,-6.701172 0.851435,-1.47734 2.330785,-2.344396 3.898437,-2.455078 z" fill="#008055"/>
</svg>
