<svg xmlns="http://www.w3.org/2000/svg" width="48" height="48">
	<path d="m 16.733398,2.2949218 a 2,2 0 0 0 -2,2 v 2.1972654 a 2,2 0 0 0 2,2 2,2 0 0 0 2,-2 V 4.2949218 a 2,2 0 0 0 -2,-2 z m 7.191407,0 a 2,2 0 0 0 -2,2 v 2.1972654 a 2,2 0 0 0 2,2 2,2 0 0 0 2,-2 V 4.2949218 a 2,2 0 0 0 -2,-2 z m 7.189453,0 a 2,2 0 0 0 -2,2 v 2.1972654 a 2,2 0 0 0 2,2 2,2 0 0 0 2,-2 V 4.2949218 a 2,2 0 0 0 -2,-2 z M 13.631836,9.2109372 c -1.160449,0 -2.337359,0.386721 -3.201172,1.2167968 -0.8638135,0.830076 -1.3203125,2.050884 -1.3203125,3.296875 V 33.90039 c 0,1.171465 0.251159,2.373344 1.0507815,3.359375 0.799622,0.986032 2.134698,1.535157 3.470703,1.535157 a 1.9,1.9 0 0 0 1.900391,-1.900391 1.9,1.9 0 0 0 -1.900391,-1.900391 c -0.48713,0 -0.464351,-0.06086 -0.519531,-0.128906 -0.05518,-0.06804 -0.201172,-0.363608 -0.201172,-0.964844 V 13.724609 c 0,-0.410408 0.0877,-0.49647 0.152344,-0.558594 0.06465,-0.06212 0.200316,-0.154296 0.568359,-0.154296 h 20.556641 c 0.528562,0 0.592545,0.102177 0.597656,0.107421 0.0051,0.0052 0.111328,0.10176 0.111328,0.605469 V 33.90039 c 0,0.507485 -0.145581,0.796912 -0.25,0.919922 -0.104419,0.123011 -0.146975,0.173828 -0.458984,0.173828 H 18.819336 a 1.9,1.9 0 0 0 -1.898438,1.900391 1.9,1.9 0 0 0 1.898438,1.900391 h 15.369141 c 1.298119,0 2.560352,-0.576636 3.357421,-1.515625 0.79707,-0.93899 1.150391,-2.145391 1.150391,-3.378907 V 13.724609 c 0,-1.16029 -0.324967,-2.370804 -1.1875,-3.255859 C 36.646254,9.5836942 35.405414,9.2109372 34.188477,9.2109372 Z M 4.4970705,14.808593 a 2,2 0 0 0 -2,2 2,2 0 0 0 2,2 h 2.023437 a 2,2 0 0 0 2,-2 2,2 0 0 0 -2,-2 z m 36.8535155,0 a 2,2 0 0 0 -2,2 2,2 0 0 0 2,2 h 2.152344 a 2,2 0 0 0 2,-2 2,2 0 0 0 -2,-2 z M 4.4970705,21.998047 a 2,2 0 0 0 -2,2 2,2 0 0 0 2,2 h 2.023437 a 2,2 0 0 0 2,-2 2,2 0 0 0 -2,-2 z m 36.8535155,0 a 2,2 0 0 0 -2,2 2,2 0 0 0 2,2 h 2.152344 a 2,2 0 0 0 2,-2 2,2 0 0 0 -2,-2 z M 4.4970705,29.189453 a 2,2 0 0 0 -2,2 2,2 0 0 0 2,2 h 2.023437 a 2,2 0 0 0 2,-2 2,2 0 0 0 -2,-2 z m 36.8535155,0 a 2,2 0 0 0 -2,2 2,2 0 0 0 2,2 h 2.152344 a 2,2 0 0 0 2,-2 2,2 0 0 0 -2,-2 z M 16.733398,39.414062 a 2,2 0 0 0 -2,2 v 2.291016 a 2,2 0 0 0 2,2 2,2 0 0 0 2,-2 v -2.291016 a 2,2 0 0 0 -2,-2 z m 7.191407,0 a 2,2 0 0 0 -2,2 v 2.291016 a 2,2 0 0 0 2,2 2,2 0 0 0 2,-2 v -2.291016 a 2,2 0 0 0 -2,-2 z m 7.189453,0 a 2,2 0 0 0 -2,2 v 2.291016 a 2,2 0 0 0 2,2 2,2 0 0 0 2,-2 v -2.291016 a 2,2 0 0 0 -2,-2 z" fill="#008055"/>
</svg>
