<svg xmlns="http://www.w3.org/2000/svg" width="48" height="48">
	<path d="m 8.9609378,8.673828 c -1.733699,0 -3.3346535,0.67859 -4.3105469,1.884766 -0.9758934,1.206176 -1.3164063,2.728503 -1.3164063,4.294922 0,1.126557 0.4321361,2.324897 1.3164063,3 0.8842702,0.675103 1.8390095,0.757812 2.6621094,0.757812 H 37.583984 A 1.8,1.8 0 0 0 39.384765,16.8125 1.8,1.8 0 0 0 37.583984,15.011719 H 7.3125003 c -0.4609701,0 -0.5948983,-0.108385 -0.4785157,-0.01953 0.1163827,0.08885 0.099609,0.304771 0.099609,-0.138672 0,-1.027481 0.2436934,-1.695151 0.515625,-2.03125 0.2719316,-0.3361 0.5840377,-0.548828 1.5117188,-0.548828 H 39.041015 c 0.739404,0 1.200486,0.209555 1.5,0.498047 0.299515,0.288492 0.525391,0.706458 0.525391,1.523437 v 18.849609 c 0,1.027481 -0.24174,1.695151 -0.513672,2.03125 -0.271931,0.3361 -0.584037,0.548829 -1.511719,0.548829 H 8.9609378 c -0.7394031,0 -1.2024382,-0.209555 -1.5019532,-0.498047 C 7.1594697,34.938071 6.933594,34.520105 6.933594,33.703125 v -9.93164 c 0,-0.02712 -0.00184,-0.0061 -0.00195,-0.02734 0.025641,0.0015 0.00177,-0.0078 0.3515625,-0.0078 a 1.80018,1.80018 0 0 0 0.00195,0 l 30.5390625,-0.04689 a 1.8,1.8 0 0 0 1.796875,-1.802734 1.8,1.8 0 0 0 -1.802735,-1.796875 l -30.5390618,0.04688 c -0.8240707,1.8e-4 -1.7500914,0.06034 -2.6367188,0.714844 -0.8879549,0.655478 -1.3085938,1.847914 -1.3085938,2.919922 v 9.93164 c 0,1.606721 0.5730662,3.098252 1.6289063,4.115235 1.0558401,1.016983 2.50619,1.507812 3.9980469,1.507812 H 39.041015 c 1.733699,0 3.334654,-0.680543 4.310547,-1.886719 0.975894,-1.206175 1.314453,-2.728502 1.314453,-4.294922 V 14.294922 c 0,-1.606721 -0.571113,-3.098251 -1.626953,-4.115234 -1.05584,-1.016983 -2.50619,-1.50586 -3.998047,-1.50586 z" fill="#008055"/>
</svg>
