<svg xmlns="http://www.w3.org/2000/svg" width="48" height="48">
	<path d="m 8.626953,7.9963094 c -1.690485,0 -3.3175995,0.367117 -4.5976565,1.402344 -1.280057,1.0352266 -2.001953,2.7291496 -2.001953,4.5898436 v 16.773438 c 0,1.755619 0.752089,3.377667 1.990235,4.425781 1.238144,1.048113 2.8707483,1.544922 4.6093745,1.544922 a 1.8,1.8 0 0 0 1.800781,-1.800782 1.8,1.8 0 0 0 -1.800781,-1.798828 c -1.0526638,0 -1.8186105,-0.300073 -2.2832031,-0.693359 C 5.8791573,32.046382 5.626953,31.580715 5.626953,30.761935 V 13.988497 c 0,-1.054306 0.2560878,-1.457541 0.6660156,-1.789062 0.4099278,-0.331523 1.1822294,-0.603516 2.3339844,-0.603516 h 31.357422 c 0.933214,0 1.442049,0.264735 1.792969,0.628906 0.350919,0.364172 0.595703,0.91811 0.595703,1.763672 v 16.773438 c 0,1.068474 -0.252388,1.553701 -0.548828,1.841796 -0.296441,0.288096 -0.815993,0.529297 -1.839844,0.529297 H 14.205078 a 1.8,1.8 0 0 0 -1.800781,1.798828 1.8,1.8 0 0 0 1.800781,1.800782 h 25.779297 c 1.644138,0 3.218592,-0.447696 4.349609,-1.546875 1.131017,-1.09918 1.638672,-2.701404 1.638672,-4.423828 V 13.988497 c 0,-1.598338 -0.521979,-3.141365 -1.601562,-4.2617186 -1.079583,-1.120353 -2.664102,-1.730469 -4.386719,-1.730469 z m 22.283203,4.9726566 c -2.712941,0.127797 -5.354906,1.415615 -7.103515,3.746093 -2.978278,3.969333 -2.239679,9.513146 1.46289,12.710938 a 1.5999987,1.6000013 85.078 0 1 0.002,0.002 1.5999987,1.6000013 85.078 0 0 0.40625,0.457031 c 0.0033,0.0025 0.0045,0.0073 0.0078,0.0098 a 1.5999987,1.6000013 85.078 0 0 0.568359,0.271484 c 4.10709,2.661745 9.639878,1.817571 12.617188,-2.154296 3.106689,-4.144591 2.258998,-10.072094 -1.8848,-13.179769 -1.812911,-1.359608 -3.966107,-1.962679 -6.076172,-1.863281 z M 10.71875,13.9592 a 1.7,1.7 0 0 0 -1.6992189,1.699219 v 13.423828 a 1.7,1.7 0 0 0 1.6992189,1.699219 1.7,1.7 0 0 0 1.699219,-1.699219 V 15.658419 A 1.7,1.7 0 0 0 10.71875,13.9592 Z m 6.353516,0 a 1.7,1.7 0 0 0 -1.701172,1.699219 v 13.423828 a 1.7,1.7 0 0 0 1.701172,1.699219 1.7,1.7 0 0 0 1.699218,-1.699219 V 15.658419 A 1.7,1.7 0 0 0 17.072266,13.9592 Z m 13.978515,2.1875 c 1.388596,-0.06381 2.807927,0.340371 4.015625,1.246094 2.760453,2.070224 3.31373,5.938292 1.244141,8.699219 -2.069589,2.760926 -5.937808,3.315042 -8.699219,1.246093 a 1.5999987,1.6000013 85.078 0 0 -0.0098,-0.0059 c -2.755294,-2.072389 -3.304028,-5.936961 -1.234375,-8.695312 1.164861,-1.552483 2.898255,-2.408197 4.683593,-2.490235 z m 0.476563,2.517578 c -1.19239,-0.05694 -2.394869,0.455314 -3.158203,1.472657 -1.122428,1.495927 -0.875822,3.560882 0.425781,4.839843 a 1.1999987,1.2000013 85.050454 0 0 0.314453,0.357422 1.1999987,1.2000013 85.050454 0 1 0.002,0 1.1999987,1.2000013 85.050454 0 1 0.002,0.002 1.1999987,1.2000013 85.050454 0 0 0.423828,0.199219 c 1.592905,0.894674 3.648677,0.552563 4.771485,-0.945313 1.220583,-1.628312 0.883893,-3.972403 -0.744141,-5.193359 -0.610512,-0.457859 -1.321675,-0.69826 -2.037109,-0.732422 z m -0.376953,2.394531 c 0.329853,-0.04702 0.679347,0.03638 0.974609,0.257813 0.590525,0.442868 0.704452,1.245313 0.261719,1.835937 -0.442732,0.590626 -1.243255,0.704315 -1.833985,0.261719 a 1.1999987,1.2000013 85.050454 0 1 -0.002,0 C 29.960415,22.971136 29.846009,22.16876 30.289016,21.578341 30.510518,21.28313 30.82049,21.105828 31.150344,21.058809 Z M 11.132812,38.597872 A 1.9,1.9 0 0 0 9.2324217,40.498263 1.9,1.9 0 0 0 11.132812,42.3967 h 3.611329 a 1.9,1.9 0 0 0 1.90039,-1.898437 1.9,1.9 0 0 0 -1.90039,-1.900391 z m 22.123047,0 a 1.9,1.9 0 0 0 -1.90039,1.900391 1.9,1.9 0 0 0 1.90039,1.898437 h 3.609375 a 1.9,1.9 0 0 0 1.900391,-1.898437 1.9,1.9 0 0 0 -1.900391,-1.900391 z" fill="#008055"/>
</svg>
