<svg xmlns="http://www.w3.org/2000/svg" width="48" height="48">
	<path d="m 20.412284,2.1528812 c -1.077774,0 -2.250986,0.265189 -3.09375,1.128906 -0.842764,0.863717 -1.082031,2.01915 -1.082031,3.095703 v 9.7519528 a 1.90019,1.90019 0 0 0 0,0.01172 c 0.0024,0.394397 -0.02986,0.308938 -0.02148,0.298828 0.0084,-0.01011 -0.111143,0.09488 -0.484375,0.302734 -0.373233,0.207857 -0.999375,0.518879 -1.564453,1.199219 -0.565079,0.68034 -0.904297,1.692329 -0.904297,2.744141 v 17.230469 a 1.90019,1.90019 0 0 0 0,0.07422 c 0.09115,2.285713 1.546069,4.187775 3.490234,5.583985 1.938925,1.392446 4.4974,2.305221 7.320313,2.271484 3.012377,0.01908 5.60381,-1.003881 7.474609,-2.457031 1.875208,-1.456575 3.175605,-3.305078 3.191406,-5.458985 a 1.90019,1.90019 0 0 0 0,-0.01367 V 20.5396 c 0,-1.054818 -0.227271,-2.186398 -1.050781,-3.044922 -0.823511,-0.858525 -1.983597,-1.128907 -3.033203,-1.128907 h -6.957031 a 1.9,1.9 0 0 0 -1.900391,1.900391 1.9,1.9 0 0 0 1.900391,1.900391 h 6.957031 c 0.473554,0 0.403411,0.07616 0.291015,-0.04102 -0.112395,-0.117174 -0.0078,-0.11112 -0.0078,0.414063 v 17.363281 c -0.0026,0.354293 -0.506162,1.542928 -1.720703,2.486328 -1.214542,0.9434 -2.99363,1.677193 -5.132813,1.660156 a 1.90019,1.90019 0 0 0 -0.04101,0 c -1.96316,0.02702 -3.79387,-0.639657 -5.076172,-1.560547 -1.280137,-0.919335 -1.881248,-2.064703 -1.90625,-2.644531 V 20.686084 c 0,-0.398288 0.03379,-0.321822 0.0293,-0.316406 -0.0045,0.0054 0.117473,-0.09905 0.490234,-0.306641 0.372761,-0.207594 0.997889,-0.517434 1.5625,-1.199219 0.564611,-0.681785 0.89889,-1.696891 0.892578,-2.746094 V 6.3774902 c 0,-0.538347 0.104252,-0.546248 0.002,-0.441406 -0.102299,0.104842 -0.136746,0.01563 0.375,0.01563 h 7.164063 c 0.581818,0 0.618039,0.123953 0.472656,-0.0098 -0.145383,-0.133719 -0.08594,-0.262052 -0.08594,0.189453 v 6.7734378 a 1.9,1.9 0 0 0 1.898438,1.90039 1.9,1.9 0 0 0 1.900391,-1.90039 V 6.1313672 c 0,-1.010794 -0.262373,-2.178534 -1.140625,-2.986328 -0.878253,-0.807794 -1.9866,-0.992187 -3.044922,-0.992187 z" fill="#008055"/>
</svg>
