<svg xmlns="http://www.w3.org/2000/svg" width="48" height="48">
	<path d="M 24.412109 1.9160156 C 19.698113 1.8246392 14.930117 3.2322923 10.878906 6.2226562 C 9.721418 7.0770464 8.6700575 8.0261272 7.7285156 9.0507812 C 1.1377259 16.223362 -0.077134137 27.130911 5.2460938 35.679688 A 2 2 0 0 0 8 36.320312 A 2 2 0 0 0 8.6386719 33.566406 C 3.6386058 25.536609 5.6433658 15.059057 13.253906 9.4414062 C 20.864446 3.8237561 31.467716 4.9947802 37.667969 12.138672 C 43.868222 19.282563 43.537053 29.945207 36.904297 36.689453 C 30.27154 43.433699 19.615383 43.943601 12.369141 37.863281 A 2 2 0 0 0 9.5507812 38.109375 A 2 2 0 0 0 9.796875 40.927734 C 18.613536 48.325792 31.685639 47.698058 39.755859 39.492188 C 47.826079 31.286316 48.233437 18.209706 40.689453 9.5175781 C 36.445963 4.628256 30.472962 2.0334996 24.412109 1.9160156 z M 23.605469 14.78125 C 22.343382 14.810616 21.073328 15.108168 19.884766 15.693359 C 18.933916 16.161513 18.098858 16.78297 17.396484 17.515625 C 15.289362 19.713588 14.38501 22.91282 15.199219 25.986328 A 1.8999911 1.9000089 85.004805 0 0 17.523438 27.337891 A 1.8999911 1.9000089 85.004805 0 0 18.873047 25.015625 C 18.244934 22.6446 19.363888 20.186969 21.564453 19.103516 C 23.765018 18.020063 26.394382 18.630619 27.890625 20.574219 C 29.386868 22.517819 29.303653 25.216199 27.693359 27.066406 C 26.083066 28.916613 23.424478 29.369938 21.292969 28.15625 A 1.8999911 1.9000089 85.004805 0 0 18.699219 28.867188 A 1.8999911 1.9000089 85.004805 0 0 19.412109 31.458984 C 23.096145 33.556685 27.77931 32.76035 30.5625 29.5625 C 33.345691 26.36465 33.488405 21.617073 30.902344 18.257812 C 29.124427 15.948321 26.38206 14.716645 23.605469 14.78125 z " fill="#008055"/>
</svg>
