<svg xmlns="http://www.w3.org/2000/svg" width="48" height="48">
	<path d="m 13.324218,1.825196 c -1.64603,0 -3.256234,0.4687392 -4.5273437,1.5 C 7.5257666,4.356457 6.6796132,5.995598 6.6249998,7.838868 a 1.90019,1.90019 0 0 0 -0.00195,0.05664 v 32.1875 c 0,1.883059 0.7367907,3.611263 2.0410156,4.666016 1.304225,1.054753 2.9547066,1.425781 4.6601556,1.425781 a 1.9,1.9 0 0 0 1.900391,-1.90039 1.9,1.9 0 0 0 -1.900391,-1.900391 c -1.13679,0 -1.885724,-0.266153 -2.271484,-0.578125 -0.38576,-0.311972 -0.628906,-0.681049 -0.628906,-1.712891 V 7.948243 c 0.02626,-0.84482 0.29946,-1.292087 0.767578,-1.671875 0.468442,-0.380051 1.215893,-0.649487 2.128906,-0.650391 l 21.964844,0.03711 a 1.90019,1.90019 0 0 0 0.0039,0 c 1.006621,0 1.496273,0.234438 1.769531,0.5 0.273258,0.265561 0.519531,0.719283 0.519531,1.769531 v 32.15039 c 0,0.824653 -0.237694,1.350219 -0.568359,1.69336 -0.330665,0.343141 -0.809393,0.597656 -1.720703,0.597656 H 18.617187 a 1.9,1.9 0 0 0 -1.900391,1.900391 1.9,1.9 0 0 0 1.900391,1.90039 h 16.671875 c 1.74452,0 3.357194,-0.618431 4.457031,-1.759765 1.099838,-1.141334 1.63086,-2.712783 1.63086,-4.332032 V 7.932618 c 0,-1.740552 -0.515723,-3.372452 -1.669922,-4.494141 -1.15374,-1.1212421 -2.755354,-1.5758104 -4.416016,-1.5761716 h -0.002 L 13.328124,1.825196 a 1.90019,1.90019 0 0 0 -0.0039,0 z m 1.679688,4.679688 a 1.8,1.8 0 0 0 -1.800782,1.800781 v 2.625 c 1.2e-5,1.658943 0.474876,3.184553 1.457032,4.316406 l -0.04492,-0.05273 1.679687,2.089843 a 1.80018,1.80018 0 0 0 0.0059,0.0078 c 0.04813,0.05927 0.07954,0.07367 0.101562,0.07617 -0.02077,0.0124 -0.05253,0.0399 -0.09766,0.09766 0,0 0,0.002 0,0.002 l -1.660156,1.964844 a 1.80018,1.80018 0 0 0 -0.07617,0.09766 c -0.683999,0.935997 -1.365235,2.290097 -1.365235,4.042969 v 4.5 c 0,7.351098 4.953147,12.164062 10.673829,12.164062 2.899178,0 5.667847,-1.064168 7.642578,-3.18164 1.974731,-2.117473 3.097656,-5.202211 3.097656,-8.982422 V 8.305665 A 1.8,1.8 0 0 0 32.818399,6.504884 1.8,1.8 0 0 0 31.017618,8.305665 v 19.767578 c 0,3.082289 -0.872656,5.178191 -2.13086,6.527344 -1.258244,1.349152 -2.959724,2.037109 -5.009805,2.037109 -3.832779,0 -7.072266,-2.701551 -7.072266,-8.564453 v -4.5 c 0,-1.037989 0.140557,-1.189828 0.652344,-1.888672 l 1.652343,-1.960937 a 1.80018,1.80018 0 0 0 0.05469,-0.06641 c 1.060306,-1.38524 0.908122,-3.432382 -0.06836,-4.634765 L 17.423828,12.94043 a 1.80018,1.80018 0 0 0 -0.04492,-0.05273 C 16.924081,12.363549 16.804695,12.082121 16.804687,10.930665 V 8.303712 A 1.8,1.8 0 0 0 15.003906,6.504884 Z m 9.283203,0.386718 A 1.7,1.7 0 0 0 22.58789,8.590821 1.7,1.7 0 0 0 24.287109,10.29004 H 28.36914 A 1.7,1.7 0 0 0 30.070312,8.590821 1.7,1.7 0 0 0 28.36914,6.891602 Z m 0.02148,17.638672 c -2.099909,-0.088 -4.162996,1.054681 -5.125,3.054688 -1.222474,2.541524 -0.207252,5.558126 2.189453,6.96289 a 1.4996732,1.5003267 70.999917 0 0 0.298828,0.226563 c 0.0081,0.004 0.01141,0.01362 0.01953,0.01758 a 1.4996732,1.5003267 70.999917 0 0 0.05859,0.02539 1.4996732,1.5003267 70.999917 0 0 0.05273,0.02734 c 0.01194,0.0055 0.02515,0.0044 0.03711,0.0098 a 1.4996732,1.5003267 70.999917 0 0 0.341797,0.08008 1.4996732,1.5003267 70.999917 0 0 0.0039,0 c 2.60747,0.969199 5.588463,-0.157112 6.783204,-2.714844 1.252337,-2.681038 0.08897,-5.911089 -2.585938,-7.177734 -0.668726,-0.316661 -1.374249,-0.482384 -2.074219,-0.511719 z m -0.144531,2.986328 c 0.312349,0.01533 0.62755,0.09233 0.931641,0.236328 1.216361,0.575983 1.722376,1.983061 1.154297,3.199219 -0.56808,1.216158 -1.970552,1.730148 -3.19336,1.167969 a 1.4996732,1.5003267 70.999917 0 0 -0.02148,-0.0098 1.4996732,1.5003267 70.999917 0 0 -0.02734,-0.01563 c -1.209757,-0.589712 -1.702932,-1.999342 -1.121094,-3.208984 0.436379,-0.907232 1.340297,-1.415136 2.277344,-1.369141 z" fill="#008055"/>
</svg>
