<svg xmlns="http://www.w3.org/2000/svg" width="48" height="48">
	<path d="m 13.324218,1.8251954 c -1.646033,0 -3.256235,0.4687378 -4.527343,1.5000002 C 7.525766,4.3564576 6.679613,5.9955996 6.625,7.8388676 a 1.90019,1.90019 0 0 0 -0.00195,0.05664 V 40.083008 c 0,1.883058 0.734837,3.611263 2.039062,4.666016 1.304225,1.054753 2.95666,1.425781 4.662109,1.425781 a 1.9,1.9 0 0 0 1.900391,-1.900391 1.9,1.9 0 0 0 -1.900391,-1.90039 c -1.13679,0 -1.885724,-0.266153 -2.271484,-0.578125 -0.38576,-0.311972 -0.628906,-0.681049 -0.628906,-1.712891 V 7.9482426 c 0.02626,-0.844821 0.297509,-1.292089 0.765625,-1.671875 0.468441,-0.380051 1.217838,-0.649488 2.130859,-0.650391 l 21.964844,0.03711 a 1.90019,1.90019 0 0 0 0.0039,0 c 1.006615,0 1.496274,0.234439 1.769531,0.5 0.273258,0.265562 0.519532,0.719283 0.519532,1.769532 V 40.083009 c 0,0.824655 -0.237697,1.35022 -0.56836,1.69336 -0.330663,0.343139 -0.809387,0.597656 -1.720703,0.597656 H 18.617187 a 1.9,1.9 0 0 0 -1.90039,1.90039 1.9,1.9 0 0 0 1.90039,1.900391 h 16.671875 c 1.744524,0 3.357195,-0.618431 4.457031,-1.759765 1.099837,-1.141336 1.63086,-2.712786 1.63086,-4.332032 V 7.9326186 c 0,-1.740552 -0.515725,-3.372452 -1.669922,-4.494141 C 38.553293,2.317234 36.951673,1.862666 35.291015,1.8623047 h -0.002 l -21.96089,-0.037109 a 1.90019,1.90019 0 0 0 -0.0039,0 z m 5.09375,9.4082036 a 1.8,1.8 0 0 0 -1.390625,0.650391 l -4.146484,5.005859 a 1.8,1.8 0 0 0 0.236328,2.535156 1.8,1.8 0 0 0 2.535156,-0.238281 l 4.148438,-5.00586 A 1.8,1.8 0 0 0 19.5625,11.647461 1.8,1.8 0 0 0 18.417968,11.233399 Z m 11.169922,0 a 1.8,1.8 0 0 0 -1.15039,0.414062 1.8,1.8 0 0 0 -0.238282,2.533203 l 4.148438,5.00586 a 1.8,1.8 0 0 0 2.535156,0.238281 1.8,1.8 0 0 0 0.238281,-2.535156 L 30.972656,11.88379 A 1.8,1.8 0 0 0 29.58789,11.233399 Z m -5.908203,3.630859 c -2.408194,0.1208 -4.686542,1.516087 -5.804687,3.824219 -1.550504,3.200627 -0.278755,6.999363 2.74414,8.769531 a 1.5996974,1.6003025 70.9993 0 0 0.384766,0.294922 c 0.0056,0.0027 0.0081,0.009 0.01367,0.01172 a 1.5996974,1.6003025 70.9993 0 0 0.04883,0.02148 1.5996974,1.6003025 70.9993 0 0 0.02148,0.0098 c 0.0019,9.11e-4 0.0039,0.001 0.0059,0.002 a 1.5996974,1.6003025 70.9993 0 0 0.486328,0.121094 c 3.270001,1.250437 7.031093,-0.130139 8.5625,-3.337891 1.607196,-3.366505 0.168123,-7.442581 -3.195313,-9.058594 -1.051073,-0.505004 -2.172944,-0.713112 -3.267578,-0.658203 z m 0.488281,3.183594 c 0.467073,0.02452 0.940351,0.140142 1.392579,0.357422 1.80891,0.869118 2.556205,2.991474 1.693359,4.798828 -0.862845,1.807355 -2.981084,2.559969 -4.794922,1.701172 a 1.5996974,1.6003025 70.9993 0 0 -0.01367,-0.0059 1.5996974,1.6003025 70.9993 0 0 -0.02344,-0.01172 c -1.803924,-0.879411 -2.54112,-3.004238 -1.667969,-4.806641 0.654863,-1.351802 2.012845,-2.106757 3.414062,-2.033203 z m -3.990234,11.615234 a 1.8,1.8 0 0 0 -1.800781,1.800782 1.8,1.8 0 0 0 1.800781,1.800781 h 7.646484 a 1.8,1.8 0 0 0 1.798829,-1.800781 1.8,1.8 0 0 0 -1.798829,-1.800782 z m 0,5.548828 a 1.8,1.8 0 0 0 -1.800781,1.798829 1.8,1.8 0 0 0 1.800781,1.800781 h 7.646484 a 1.8,1.8 0 0 0 1.798829,-1.800781 1.8,1.8 0 0 0 -1.798829,-1.798829 z" fill="#008055"/>
</svg>
