<svg xmlns="http://www.w3.org/2000/svg" width="48" height="48">
	<path d="m 13.324219,1.8251962 c -1.646026,0 -3.256238,0.4687396 -4.5273435,1.4999996 -1.271107,1.031261 -2.117261,2.670403 -2.171876,4.513672 -9.315e-4,0.018869 -0.00158,0.037751 -0.00195,0.05664 V 40.083008 c 0,1.883093 0.736789,3.611241 2.041016,4.666016 1.304227,1.054774 2.9547065,1.425781 4.6601565,1.425781 1.049646,2.15e-4 1.900606,-0.850745 1.90039,-1.900391 2.15e-4,-1.049646 -0.850744,-1.900605 -1.90039,-1.90039 -1.136791,0 -1.885727,-0.268103 -2.271485,-0.580079 C 10.66698,41.48197 10.423831,41.114914 10.423831,40.083008 V 7.9462898 c 0.02626,-0.844816 0.299461,-1.290135 0.767578,-1.669922 0.468836,-0.38037 1.21681,-0.651892 2.13086,-0.652343 l 21.96289,0.03906 c 0.0013,1.3e-6 0.0026,1.3e-6 0.0039,0 1.006621,0 1.496273,0.234439 1.769531,0.5 0.273257,0.265561 0.519531,0.719283 0.519531,1.769531 V 40.083007 c 0,0.824649 -0.235726,1.350191 -0.566406,1.693359 -0.330681,0.343168 -0.811377,0.597657 -1.722656,0.597657 H 18.617188 c -1.049646,-2.16e-4 -1.900606,0.850744 -1.900391,1.90039 -2.16e-4,1.049646 0.850745,1.900607 1.900391,1.900391 h 16.671875 c 1.74454,0 3.35916,-0.620362 4.458984,-1.761719 1.099824,-1.141357 1.628906,-2.710827 1.628906,-4.330078 V 7.9326178 c 0,-1.740551 -0.515723,-3.372452 -1.669922,-4.49414 -1.153739,-1.121243 -2.755353,-1.5758111 -4.416015,-1.5761722 h -0.002 L 13.328125,1.8251962 c -0.0013,-1.3e-6 -0.0026,-1.3e-6 -0.0039,0 z m 10.615234,6.9648436 c -0.493013,1.804e-4 -0.954466,0.2425895 -1.234375,0.648438 l -2.875,4.1660152 c -0.471413,0.682144 -0.299942,1.617363 0.382813,2.087891 0.681775,0.470079 1.615507,0.298719 2.085937,-0.382813 l 0.240235,-0.347656 v 16.117188 c -0.01273,0.112271 -0.01273,0.225619 0,0.33789 v 0.666016 l -2.748047,-1.847656 -0.002,-0.002 c -0.666392,-0.481172 -1.0625,-1.543606 -1.0625,-2.169921 v -0.575165 c 0.870208,-0.356498 1.916015,-1.227116 1.916015,-3.030304 3.99e-4,-1.94042 -1.563219,-3.513658 -3.492187,-3.513672 -1.928968,1.3e-5 -3.492587,1.573252 -3.492188,3.513672 0,1.766637 1.109582,2.829042 2.068359,3.184601 v 0.420868 c 0,1.581221 0.656338,3.415117 2.310547,4.605468 0.01287,0.0093 0.0259,0.01843 0.03906,0.02734 l 4.462891,3.001953 v 2.267578 c 0,0.828427 0.671573,1.5 1.5,1.5 0.828427,0 1.5,-0.671573 1.5,-1.5 v -5.917968 l 4.36914,-2.894532 c 1.760738,-1.116648 2.560597,-2.961131 2.560597,-4.615184 v -0.78125 h 0.0918 c 0.368732,0 0.777257,-0.06642 1.1875,-0.351562 0.410241,-0.285147 0.753906,-0.888408 0.753906,-1.4375 v -2.916016 c 0,-0.422656 -0.179578,-0.994331 -0.597656,-1.367188 -0.418078,-0.372856 -0.929604,-0.478515 -1.34375,-0.478515 h -2.519531 c -0.428717,0 -0.90748,0.123853 -1.300782,0.458984 -0.393301,0.335131 -0.636718,0.887165 -0.636718,1.386719 v 2.916016 c 0,0.458456 0.261724,1.08745 0.699218,1.412109 0.225958,0.16768 0.450283,0.259808 0.666016,0.3125 v 0.845703 c 0,0.683147 -0.335316,1.55393 -1.167969,2.082031 -0.0079,0.0058 -0.01568,0.01164 -0.02344,0.01758 l -2.738281,1.8125 v -13.25 l 0.08008,0.115235 c 0.474343,0.680002 1.410385,0.846215 2.089843,0.371094 0.678778,-0.474241 0.844883,-1.408797 0.371094,-2.087891 L 25.169924,9.4326198 C 24.889499,9.0301291 24.430003,8.7901702 23.939455,8.7900418 Z" fill="#008055"/>
</svg>
