<svg xmlns="http://www.w3.org/2000/svg" width="48" height="48">
	<path d="M 33.635742,1.018001 C 32.956648,1.016281 32.311229,1.063 31.700196,1.1508135 c -2.444134,0.3512559 -4.343247,1.3673594 -5.6875,2.6347657 -2.589111,2.4410983 -3.213777,5.4307082 -3.259766,5.6582032 -0.316847,1.0333146 -0.237973,2.1977486 0.398438,3.1621086 0.649211,0.983759 1.888635,1.597657 3.144531,1.597657 h 13.076172 c 1.033609,0 1.777598,0.294824 2.220703,0.669921 0.443105,0.375097 0.68164,0.806852 0.68164,1.59961 v 21.078125 c 0,1.031906 -0.245114,1.400936 -0.630859,1.71289 -0.385745,0.311954 -1.134672,0.578125 -2.271484,0.578125 a 1.9,1.9 0 0 0 -1.900391,1.900391 1.9,1.9 0 0 0 1.900391,1.900391 c 1.705427,0 3.357869,-0.371036 4.662109,-1.425782 1.30424,-1.054746 2.039062,-2.782922 2.039062,-4.666015 V 16.473079 c 0,-1.781643 -0.765758,-3.433697 -2.02539,-4.5 -1.259633,-1.066303 -2.918101,-1.56836 -4.675781,-1.56836 H 26.415039 a 1.90019,1.90019 0 0 0 0.01563,-0.06445 c 0,0 0.47954,-2.1788526 2.189454,-3.7910146 C 30.330036,4.937091 33.123064,3.6172587 39.26856,6.0375353 A 1.9,1.9 0 0 0 41.733399,4.9652666 1.9,1.9 0 0 0 40.661133,2.502376 C 38.015739,1.4605423 35.673027,1.0231596 33.635742,1.018001 Z M 8.0166018,10.404719 c -1.6613688,0 -3.265722,0.45251 -4.4199219,1.574219 -1.1541998,1.12171 -1.6699218,2.753551 -1.6699218,4.494141 v 21.078125 c 0,1.619248 0.5310221,3.190697 1.6308593,4.332031 1.0998373,1.141334 2.7144639,1.759766 4.4589844,1.759766 H 26.979492 A 1.9,1.9 0 0 0 28.879883,41.74261 1.9,1.9 0 0 0 26.979492,39.842219 H 8.0166018 c -0.9113095,0 -1.391991,-0.254515 -1.7226563,-0.597656 C 5.9632803,38.901422 5.7275393,38.375856 5.7275393,37.551204 V 16.473079 c 0,-1.050311 0.2443205,-1.502013 0.5175781,-1.767578 0.2732576,-0.265566 0.7648632,-0.501953 1.7714844,-0.501953 H 18.545899 a 1.9,1.9 0 0 0 1.90039,-1.900391 1.9,1.9 0 0 0 -1.90039,-1.898438 z M 25.467774,22.018001 a 2,2 0 0 0 -0.740235,0.164062 2,2 0 0 0 -1.039062,2.628906 l 9.083984,20.966797 a 2,2 0 0 0 2.63086,1.039063 2,2 0 0 0 1.041015,-2.63086 L 27.358399,23.221126 a 2,2 0 0 0 -1.890625,-1.203125 z" fill="#008055"/>
</svg>
