<svg xmlns="http://www.w3.org/2000/svg" width="48" height="48">
	<path d="M 8.6542969 6.6230469 C 6.9137271 6.6230469 5.2818656 7.1387749 4.1601562 8.2929688 C 3.0384469 9.4471624 2.5839844 11.049559 2.5839844 12.710938 L 2.546875 34.671875 A 1.90019 1.90019 0 0 0 2.546875 34.675781 C 2.546875 36.321805 3.0156034 37.932028 4.046875 39.203125 C 5.0781466 40.474222 6.7172805 41.322313 8.5605469 41.376953 A 1.9 1.9 0 0 0 10.515625 39.533203 A 1.9 1.9 0 0 0 8.671875 37.578125 C 7.8231113 37.552965 7.3787428 37.279775 6.9980469 36.810547 C 6.617988 36.342104 6.3466057 35.592678 6.3457031 34.679688 L 6.3457031 34.675781 L 6.3847656 12.714844 A 1.90019 1.90019 0 0 0 6.3847656 12.710938 C 6.3847656 11.704314 6.6192 11.214663 6.8847656 10.941406 C 7.1503312 10.66815 7.6040066 10.423828 8.6542969 10.423828 L 39.363281 10.423828 C 40.187924 10.423828 40.713478 10.659557 41.056641 10.990234 C 41.399803 11.320911 41.654297 11.799666 41.654297 12.710938 L 41.654297 34.675781 C 41.654297 35.812552 41.386196 36.561499 41.074219 36.947266 C 40.762241 37.333032 40.39517 37.576172 39.363281 37.576172 L 14.195312 37.576172 A 1.9 1.9 0 0 0 12.294922 39.476562 A 1.9 1.9 0 0 0 14.195312 41.376953 L 39.363281 41.376953 C 41.246382 41.376953 42.974537 40.642124 44.029297 39.337891 C 45.084057 38.033657 45.453125 36.381211 45.453125 34.675781 L 45.453125 12.710938 C 45.453125 10.966407 44.834709 9.3537293 43.693359 8.2539062 C 42.55201 7.1540834 40.982529 6.6230469 39.363281 6.6230469 L 8.6542969 6.6230469 z M 9.2988281 25.833984 A 1.9 1.9 0 0 0 7.4003906 27.732422 A 1.9 1.9 0 0 0 9.2988281 29.632812 L 38.701172 29.632812 A 1.9 1.9 0 0 0 40.599609 27.732422 A 1.9 1.9 0 0 0 38.701172 25.833984 L 9.2988281 25.833984 z M 24 30.351562 A 1.9 1.9 0 0 0 22.099609 32.251953 L 22.099609 34.935547 A 1.9 1.9 0 0 0 24 36.835938 A 1.9 1.9 0 0 0 25.900391 34.935547 L 25.900391 32.251953 A 1.9 1.9 0 0 0 24 30.351562 z " fill="#008055"/>
</svg>
