<svg xmlns="http://www.w3.org/2000/svg" width="48" height="48">
	<path d="m 8.626953,9.2783205 c -1.67552,0 -3.2792693,0.36518 -4.5351562,1.3808595 -1.255887,1.01568 -1.9648438,2.671471 -1.9648438,4.509766 v 9.966796 c 0,1.274972 0.1443609,2.615302 0.9160156,3.822266 0.7490393,1.171592 2.2284353,1.947862 3.8847654,1.994141 v 3.660156 c 0,0.954356 0.221312,1.958338 0.898438,2.789062 0.677125,0.830726 1.816266,1.320313 2.96289,1.320313 h 26.986329 c 1.170825,0 2.26416,-0.491495 2.943359,-1.25586 0.679199,-0.764364 0.964844,-1.706485 0.964844,-2.605468 a 1.7,1.7 0 0 0 -1.699219,-1.699219 1.7,1.7 0 0 0 -1.701172,1.699219 c 0,0.158017 -0.05967,0.29612 -0.105469,0.347656 -0.04579,0.05154 -0.05532,0.113281 -0.402343,0.113281 H 10.789062 c -0.355275,0 -0.298703,-0.03466 -0.326171,-0.06836 -0.02747,-0.0337 -0.134766,-0.234682 -0.134766,-0.640625 v -3.697266 c 0,-0.820915 -0.06031,-1.749159 -0.828125,-2.517578 -0.767816,-0.76842 -1.69379,-0.8125 -2.433594,-0.8125 -0.873384,0 -0.960166,-0.146175 -1.1601561,-0.458984 C 5.7062596,26.813167 5.5273436,26.07987 5.5273436,25.135742 v -9.966797 c 0,-1.076706 0.2690266,-1.516117 0.7031254,-1.867187 0.434098,-0.35107 1.229764,-0.623047 2.396484,-0.623047 h 31.357422 c 0.955141,0 1.494074,0.273027 1.865234,0.658203 0.37116,0.385177 0.623047,0.965559 0.623047,1.832032 v 9.966796 c 0,1.086579 -0.258488,1.601464 -0.578125,1.91211 -0.319637,0.310645 -0.869096,0.558593 -1.910156,0.558593 H 14.205078 a 1.7,1.7 0 0 0 -1.701172,1.699219 1.7,1.7 0 0 0 1.701172,1.699219 h 25.779297 c 1.62693,0 3.171476,-0.442876 4.279297,-1.519531 1.10782,-1.076656 1.609375,-2.64539 1.609375,-4.34961 v -9.966797 c 0,-1.577428 -0.514876,-3.092058 -1.574219,-4.191406 C 43.239485,9.8781905 41.685063,9.2783195 39.984375,9.2783195 Z m 1.361328,6.0742185 c -0.776358,0 -1.664828,0.435447 -2.080078,1.105469 -0.41525,0.670023 -0.478516,1.362901 -0.478516,2.097656 v 3.341797 a 1.2999949,1.2999949 0 0 0 1.300782,1.298828 1.2999949,1.2999949 0 0 0 1.298828,-1.298828 v -3.341797 c 0,-0.411991 0.05872,-0.545582 0.07422,-0.603515 h 0.730469 c 0.01873,0.06656 0.07618,0.214323 0.07617,0.603515 v 3.806641 a 1.3001249,1.3001249 0 0 0 0,0.01953 c 0.0056,0.381152 -0.06363,0.534875 -0.08398,0.583984 h -0.363281 a 1.2999949,1.2999949 0 0 0 -1.300782,1.300782 1.2999949,1.2999949 0 0 0 1.300782,1.300781 h 0.488281 a 1.3001249,1.3001249 0 0 0 0.04297,-0.002 c 0.772261,-0.02518 1.585491,-0.468455 2.001953,-1.111328 0.416461,-0.642873 0.524606,-1.359465 0.513671,-2.109375 v -3.789063 c 1.2e-5,-0.697389 -0.05614,-1.378276 -0.455078,-2.050781 -0.398939,-0.672504 -1.291652,-1.152344 -2.103515,-1.152344 z m 7.730469,0 c -0.776359,0 -1.662875,0.435447 -2.078125,1.105469 -0.41525,0.670023 -0.480469,1.362901 -0.480469,2.097656 v 3.341797 a 1.2999949,1.2999949 0 0 0 1.300781,1.298828 1.2999949,1.2999949 0 0 0 1.300782,-1.298828 v -3.341797 c 0,-0.411963 0.05676,-0.545561 0.07227,-0.603515 h 0.730469 c 0.01872,0.06656 0.07618,0.214323 0.07617,0.603515 v 3.806641 a 1.3001249,1.3001249 0 0 0 0,0.01953 c 0.0056,0.381152 -0.06363,0.534875 -0.08398,0.583984 h -0.363282 a 1.2999949,1.2999949 0 0 0 -1.300781,1.300782 1.2999949,1.2999949 0 0 0 1.300781,1.300781 h 0.488282 a 1.3001249,1.3001249 0 0 0 0.04297,-0.002 c 0.772262,-0.02518 1.585492,-0.468455 2.001953,-1.111328 0.416462,-0.642873 0.524607,-1.359465 0.513672,-2.109375 v -3.789063 c 1.2e-5,-0.697389 -0.05614,-1.378276 -0.455078,-2.050781 -0.398939,-0.672504 -1.291652,-1.152344 -2.103515,-1.152344 z m 11.632812,0 c -0.776358,0 -1.664828,0.435447 -2.080078,1.105469 -0.41525,0.670023 -0.478515,1.362901 -0.478515,2.097656 v 3.341797 a 1.2999949,1.2999949 0 0 0 1.298828,1.298828 1.2999949,1.2999949 0 0 0 1.300781,-1.298828 v -3.341797 c 0,-0.411963 0.05676,-0.545561 0.07227,-0.603515 h 0.732421 c 0.01873,0.06658 0.07423,0.214348 0.07422,0.603515 v 3.806641 a 1.3001249,1.3001249 0 0 0 0,0.01953 c 0.0056,0.381312 -0.06367,0.534996 -0.08398,0.583984 h -0.363281 a 1.2999949,1.2999949 0 0 0 -1.298828,1.300782 1.2999949,1.2999949 0 0 0 1.298828,1.300781 h 0.490234 a 1.3001249,1.3001249 0 0 0 0.04102,-0.002 c 0.772262,-0.02518 1.587444,-0.468455 2.003906,-1.111328 0.416461,-0.642873 0.522653,-1.359465 0.511719,-2.109375 v -3.789063 c 1.2e-5,-0.697389 -0.05614,-1.378276 -0.455079,-2.050781 -0.398938,-0.672504 -1.289699,-1.152344 -2.101562,-1.152344 z m 7.730469,0 c -0.776358,0 -1.664828,0.435447 -2.080078,1.105469 -0.41525,0.670023 -0.478516,1.362901 -0.478516,2.097656 v 3.341797 a 1.2999949,1.2999949 0 0 0 1.300782,1.298828 1.2999949,1.2999949 0 0 0 1.298828,-1.298828 v -3.341797 c 0,-0.411991 0.05872,-0.545582 0.07422,-0.603515 h 0.730469 c 0.01872,0.06656 0.07618,0.214323 0.07617,0.603515 v 3.806641 a 1.3001249,1.3001249 0 0 0 0,0.01953 c 0.0056,0.381152 -0.06363,0.534875 -0.08398,0.583984 h -0.363281 a 1.2999949,1.2999949 0 0 0 -1.300782,1.300782 1.2999949,1.2999949 0 0 0 1.300782,1.300781 h 0.488281 a 1.3001249,1.3001249 0 0 0 0.04297,-0.002 c 0.772261,-0.02518 1.585491,-0.468455 2.001953,-1.111328 0.416461,-0.642873 0.524606,-1.359465 0.513671,-2.109375 v -3.789063 c 1.2e-5,-0.697389 -0.05614,-1.378276 -0.455078,-2.050781 -0.398939,-0.672504 -1.291652,-1.152344 -2.103515,-1.152344 z" fill="#008055"/>
</svg>
