<svg xmlns="http://www.w3.org/2000/svg" width="48" height="48">
	<path d="m 12.188476,1.9267576 c -2.3481598,0 -4.3830208,0.9665649 -5.6249993,2.6015628 L 3.5810548,8.1806644 C 2.1593763,9.9220414 1.6416017,11.673324 1.6416017,13.791992 V 39.37207 c 0,1.705429 0.369068,3.357876 1.4238281,4.662109 1.0547601,1.304233 2.7829151,2.039063 4.6660155,2.039063 A 1.9,1.9 0 0 0 9.6318362,44.172851 1.9,1.9 0 0 0 7.7314453,42.27246 c -1.0318888,0 -1.3989601,-0.243139 -1.7109372,-0.628906 C 5.7085307,41.257787 5.4404298,40.50884 5.4404298,39.37207 V 13.791992 c 0,-1.809733 -0.038597,-1.833963 1.0839844,-3.208985 L 9.5478523,6.8798824 a 1.90019,1.90019 0 0 0 0.041015,-0.05273 c 0.6734817,-0.886603 1.0120107,-1.09961 2.5996087,-1.09961 H 35.77832 c 1.558512,0 1.672136,0.05654 2.595703,1.166016 l 3.082032,3.7031246 a 1.90019,1.90019 0 0 0 0.002,0.0039 c 0.990886,1.186448 1.099609,1.415442 1.099609,3.191407 v 25.580078 c 0,1.033624 -0.294837,1.775657 -0.669922,2.21875 -0.375085,0.443092 -0.80683,0.68164 -1.599609,0.68164 H 13.415039 a 1.9,1.9 0 0 0 -1.898437,1.900391 1.9,1.9 0 0 0 1.898437,1.900391 h 26.873047 c 1.781641,0 3.4337,-0.767712 4.5,-2.027344 1.0663,-1.259633 1.570312,-2.916153 1.570312,-4.673828 V 13.791992 c 0,-2.266561 -0.67848,-4.0622596 -1.982422,-5.6249996 l -0.002,-0.0039 -3.080078,-3.699218 C 39.928973,2.8241392 37.979629,1.9267576 35.77832,1.9267576 Z m 3.28125,4.9960938 a 1.7,1.7 0 0 0 -1.699218,1.701172 v 4.1113276 c 0,1.124339 0.464536,2.267425 1.304687,2.951172 0.840151,0.683746 1.857201,0.892578 2.835938,0.892578 h 12.488281 c 1.050452,0 2.092182,-0.388996 2.798828,-1.126953 0.706647,-0.737957 1.03125,-1.738164 1.03125,-2.716797 V 8.6240234 a 1.7,1.7 0 0 0 -1.701172,-1.701172 1.7,1.7 0 0 0 -1.699218,1.701172 v 4.1113276 c 0,0.272167 -0.06507,0.343441 -0.08594,0.365234 -0.02087,0.02179 -0.04352,0.08008 -0.34375,0.08008 H 17.911133 c -0.466754,0 -0.670127,-0.117084 -0.689453,-0.132813 -0.01933,-0.01573 -0.05273,0.05506 -0.05273,-0.3125 V 8.6240244 a 1.7,1.7 0 0 0 -1.699219,-1.701172 z" fill="#008055"/>
</svg>
