<svg xmlns="http://www.w3.org/2000/svg" width="48" height="48">
	<path d="m 40.286133,1.926759 -24.78125,0.04883 c -1.988333,0.004 -3.832984,0.766136 -5.060547,2.193359 a 1.90019,1.90019 0 0 0 -0.07617,0.0957 L 3.4638691,13.43457 C 2.1557885,15.099761 1.6416035,16.794133 1.6416035,18.790039 V 39.37207 c 0,1.705429 0.3710211,3.355923 1.4257812,4.660156 1.0547601,1.304234 2.7829148,2.041016 4.6660156,2.041016 a 1.9,1.9 0 0 0 1.9003906,-1.900391 1.9,1.9 0 0 0 -1.9003906,-1.90039 c -1.0318892,0 -1.3989601,-0.243139 -1.7109375,-0.628907 C 5.7104836,41.257789 5.4423827,40.508842 5.4423827,39.372071 V 18.79004 c 0,-1.647294 -0.011134,-1.708204 1.0097656,-3.007813 a 1.90019,1.90019 0 0 0 0.023437,-0.03125 L 13.342773,6.629884 c 0.672796,-0.78034 0.81452,-0.852727 2.167968,-0.855469 l 24.779298,-0.04883 c 1.050291,0 1.502012,0.246275 1.767578,0.519531 0.265566,0.273256 0.501953,0.762909 0.501953,1.769531 v 31.357422 c 0,1.033625 -0.294837,1.775658 -0.669922,2.21875 -0.375084,0.443093 -0.806831,0.681641 -1.599609,0.681641 H 13.416992 a 1.9,1.9 0 0 0 -1.900391,1.90039 1.9,1.9 0 0 0 1.900391,1.900391 h 26.873047 c 1.781641,0 3.433701,-0.767711 4.5,-2.027344 1.0663,-1.259632 1.56836,-2.916153 1.56836,-4.673828 V 8.014649 c 0,-1.661377 -0.45251,-3.263776 -1.574219,-4.417968 C 43.662471,2.442486 42.030609,1.926759 40.290039,1.926759 a 1.90019,1.90019 0 0 0 -0.0039,0 z M 19.235352,6.922852 A 1.7,1.7 0 0 0 17.53418,8.622071 v 4.113281 c 0,1.12434 0.46649,2.265473 1.306641,2.949219 0.840151,0.683747 1.8572,0.894531 2.835937,0.894531 h 12.486328 c 1.050453,0 2.094135,-0.388996 2.800782,-1.126953 0.706645,-0.737957 1.03125,-1.738163 1.03125,-2.716797 V 8.622071 A 1.7,1.7 0 0 0 36.293946,6.922852 1.7,1.7 0 0 0 34.594727,8.622071 v 4.113281 c 0,0.272167 -0.06507,0.343442 -0.08594,0.365235 -0.02087,0.02179 -0.04548,0.07813 -0.345703,0.07813 H 21.676758 c -0.466753,0 -0.670127,-0.115131 -0.689453,-0.13086 -0.01933,-0.01573 -0.05273,0.05506 -0.05273,-0.3125 V 8.622076 A 1.7,1.7 0 0 0 19.235356,6.922857 Z m -2.875,16.267579 c -1.480576,0 -2.915876,0.451761 -3.832032,1.509765 -0.916155,1.058004 -1.160156,2.39635 -1.160156,3.744141 v 7.074218 a 1.8,1.8 0 0 0 1.800782,1.800782 1.8,1.8 0 0 0 1.800781,-1.800782 v -7.074218 c 0,-0.888509 0.183767,-1.276398 0.279297,-1.386719 0.09553,-0.110321 0.256984,-0.267578 1.111328,-0.267578 h 16.40039 c 0.869103,0 1.008128,0.15869 1.111329,0.283203 0.1032,0.124513 0.279308,0.536688 0.279297,1.371094 v 6.910156 a 1.80018,1.80018 0 0 0 0,0.03711 c 0.01553,0.760812 -0.156545,1.099796 -0.306641,1.265625 -0.150096,0.16583 -0.394308,0.334527 -1.126953,0.351563 H 16.276368 a 1.8,1.8 0 0 0 -1.800782,1.800781 1.8,1.8 0 0 0 1.800782,1.798828 h 16.484374 a 1.80018,1.80018 0 0 0 0.04102,0 c 1.421925,-0.03306 2.795284,-0.521361 3.712891,-1.535156 0.917606,-1.013795 1.264499,-2.375671 1.236328,-3.755859 v -6.873048 c 1.4e-5,-1.279494 -0.216921,-2.593557 -1.107426,-3.667969 -0.890505,-1.074412 -2.345144,-1.585937 -3.882813,-1.585937 z" fill="#008055"/>
</svg>
