<svg xmlns="http://www.w3.org/2000/svg" width="48" height="48">
	<path d="m 23.999832,5.5253672 c -6.44035,0 -11.707235,1.7543076 -16.1757807,4.5371098 a 1.70017,1.70017 0 0 0 -0.074219,0.04883 c -2.6207882,1.832904 -4.234488,3.600636 -4.8242187,5.65625 -0.5897308,2.055614 0.047012,4.074622 1.0957031,5.859375 0.4443968,0.756317 1.2302705,1.178654 1.90625,1.333984 0.6759795,0.15533 1.3150341,0.128801 1.9609375,0.03906 1.2918068,-0.179476 2.6367198,-0.651564 3.9316408,-1.251953 1.294921,-0.60039 2.513183,-1.322519 3.476563,-2.117188 0.48169,-0.397334 0.905183,-0.804605 1.251953,-1.322265 0.346769,-0.517662 0.702071,-1.269936 0.457031,-2.199219 a 1.70017,1.70017 0 0 0 -0.01758,-0.06445 c -0.164997,-0.538025 -0.43341,-0.982594 -0.71875,-1.421875 2.452302,-1.209322 5.392611,-2.013672 7.730468,-2.013672 2.337669,0 5.278266,0.804539 7.730469,2.013672 -0.2853,0.439243 -0.551816,0.883902 -0.716797,1.421875 a 1.70017,1.70017 0 0 0 -0.01953,0.06445 c -0.24504,0.929283 0.112215,1.681557 0.458984,2.199219 0.346769,0.51766 0.76831,0.92493 1.25,1.322265 0.963379,0.794669 2.183595,1.516798 3.478516,2.117188 1.294921,0.600389 2.639833,1.072477 3.93164,1.251953 0.645904,0.08974 1.283005,0.116267 1.958985,-0.03906 0.675979,-0.155329 1.463804,-0.57767 1.908203,-1.333984 1.048684,-1.784752 1.683481,-3.803761 1.09375,-5.859375 -0.589731,-2.055614 -2.201472,-3.823346 -4.822266,-5.65625 a 1.70017,1.70017 0 0 0 -0.07617,-0.04883 C 35.707076,7.2796738 30.440192,5.5253672 23.999832,5.5253672 Z m 0,3.3984376 c 5.809801,0 10.331785,1.5194232 14.326172,3.9960942 2.277261,1.598554 3.217348,2.868002 3.480469,3.785156 0.244905,0.853663 0.0303,1.719311 -0.642578,2.939453 -0.119988,0.01205 -0.280456,0.03045 -0.583985,-0.01172 -0.761381,-0.105781 -1.896258,-0.471489 -2.96875,-0.96875 -1.072491,-0.49726 -2.108042,-1.131547 -2.74414,-1.65625 -0.178738,-0.147437 -0.228337,-0.221144 -0.332032,-0.332031 0.184229,-0.424342 0.31487,-0.689239 1.097657,-1.476563 A 1.70017,1.70017 0 0 0 35.400223,12.607398 C 32.021808,10.245979 27.586879,9.2089598 23.999832,9.2089598 c -3.587046,0 -8.021969,1.0370232 -11.40039,3.3984382 a 1.70017,1.70017 0 0 0 -0.232422,2.591796 c 0.782793,0.787323 0.913429,1.052222 1.097656,1.476563 -0.103694,0.110887 -0.153293,0.184594 -0.332031,0.332031 -0.6361,0.524704 -1.669695,1.15899 -2.742187,1.65625 -1.0724929,0.497261 -2.2093232,0.862969 -2.9707036,0.96875 -0.3033225,0.04214 -0.4619623,0.02375 -0.5820312,0.01172 C 6.1647915,18.424302 5.9502315,17.558746 6.195145,16.705055 6.4580965,15.788489 7.3956859,14.518958 9.6697544,12.921852 13.665413,10.44329 18.187547,8.9238048 23.999832,8.9238048 Z m 0.265625,10.0644532 c -3.142333,-0.08434 -6.242713,1.500219 -7.929687,4.390625 -2.369032,4.059019 -1.06164,9.221477 2.802734,11.798828 a 1.799992,1.800008 84.976779 0 0 0.34375,0.308594 c 0.0064,0.0038 0.01116,0.0099 0.01758,0.01367 a 1.799992,1.800008 84.976779 0 0 0.05664,0.0332 1.799992,1.800008 84.976779 0 0 0.05273,0.03125 c 0.009,0.0051 0.01837,0.0027 0.02734,0.0078 a 1.799992,1.800008 84.976779 0 0 0.433594,0.144532 c 4.159391,2.066848 9.287044,0.630201 11.626953,-3.445313 2.423778,-4.221594 0.962971,-9.660838 -3.25,-12.099609 -1.316554,-0.762116 -2.753308,-1.145258 -4.181641,-1.183594 z m -0.623047,3.591797 c 1.009457,-0.06681 2.052048,0.159111 3.001953,0.708984 2.53308,1.466329 3.386999,4.65315 1.929688,7.191406 -1.457312,2.538258 -4.640137,3.403331 -7.183593,1.955079 a 1.799992,1.800008 84.976779 0 0 -0.03516,-0.01758 1.799992,1.800008 84.976779 0 0 -0.0293,-0.01953 c -2.522572,-1.484331 -3.356209,-4.677264 -1.880859,-7.205078 0.922094,-1.579884 2.514838,-2.501936 4.197265,-2.613281 z m -11.792968,1.050781 a 1.9,1.9 0 0 0 -0.117188,0.002 1.9,1.9 0 0 0 -1.140625,0.44336 c -1.2327811,1.035369 -2.9645781,2.743529 -4.4667965,4.859375 -1.5022183,2.115845 -2.8300781,4.643811 -2.8300781,7.449218 0,1.88309 0.7367859,3.611249 2.0410156,4.666016 1.3042297,1.054767 2.954711,1.423828 4.6601563,1.423828 H 38.61702 c 1.744539,0 3.359157,-0.618414 4.458984,-1.759765 1.099827,-1.141352 1.628906,-2.710834 1.628906,-4.330079 0,-2.825043 -1.255386,-5.407578 -2.722656,-7.546875 -1.46727,-2.139296 -3.158316,-3.829698 -4.53125,-4.83789 a 1.9,1.9 0 0 0 -2.65625,0.408203 1.9,1.9 0 0 0 0.40625,2.654297 c 0.891226,0.654457 2.440219,2.167032 3.646484,3.925781 1.206266,1.758749 2.058594,3.771098 2.058594,5.396484 0,0.824646 -0.23573,1.350199 -0.566406,1.69336 C 40.009,38.421263 39.52831,38.675758 38.61702,38.675758 H 9.9959263 c -1.1367948,0 -1.8857291,-0.268107 -2.2714844,-0.580078 -0.3857553,-0.311971 -0.6289063,-0.679038 -0.6289063,-1.710938 0,-1.514093 0.8735215,-3.482612 2.1269532,-5.248047 1.2534312,-1.765433 2.8317342,-3.32504 3.8144532,-4.15039 a 1.9,1.9 0 0 0 0.232422,-2.675781 1.9,1.9 0 0 0 -1.419922,-0.679688 z" fill="#008055"/>
</svg>
