<svg xmlns="http://www.w3.org/2000/svg" width="48" height="48">
	<path d="M 23.449219 8.0898438 C 15.955861 8.2773388 8.6463084 11.396332 3.1894531 16.888672 A 2.0999999 2.0999999 0 0 0 3.1992188 19.857422 A 2.0999999 2.0999999 0 0 0 6.1679688 19.847656 C 15.584398 10.369994 31.008097 8.9435344 41.832031 19.837891 A 2.0999999 2.0999999 0 0 0 44.800781 19.847656 A 2.0999999 2.0999999 0 0 0 44.810547 16.876953 C 38.619504 10.645631 30.942577 7.9023485 23.449219 8.0898438 z M 23.878906 16.763672 C 18.550226 16.686972 13.214623 18.676536 9.0917969 22.826172 A 2 2 0 0 0 9.0996094 25.65625 A 2 2 0 0 0 11.927734 25.646484 C 18.663802 18.866615 29.03656 19.131341 35.785156 25.923828 A 2 2 0 0 0 38.613281 25.933594 A 2 2 0 0 0 38.623047 23.105469 C 34.529225 18.985022 29.207586 16.840372 23.878906 16.763672 z M 24.066406 25.566406 C 20.994458 25.570304 17.904134 26.77431 15.435547 29.15625 A 1.9 1.9 0 0 0 15.388672 31.841797 A 1.9 1.9 0 0 0 18.074219 31.890625 C 21.738285 28.355166 26.406841 28.339201 29.896484 31.851562 A 1.9 1.9 0 0 0 32.583984 31.859375 A 1.9 1.9 0 0 0 32.591797 29.173828 C 30.192538 26.758949 27.138354 25.562508 24.066406 25.566406 z M 23.966797 32.777344 A 3.5475385 3.5706074 0 0 0 20.457031 36.347656 A 3.5475385 3.5706074 0 0 0 24.005859 39.919922 A 3.5475385 3.5706074 0 0 0 27.552734 36.347656 A 3.5475385 3.5706074 0 0 0 24.005859 32.777344 A 3.5475385 3.5706074 0 0 0 23.966797 32.777344 z " fill="#008055"/>
</svg>
