<svg xmlns="http://www.w3.org/2000/svg" width="48" height="48">
	<path d="m 12.151842,3.3906622 c -0.499397,0.00203 -0.977916,0.2005923 -1.332031,0.5527344 -8.2046835,8.1516674 -8.5386301,21.1807584 -0.277344,29.3886714 0.744205,0.740176 1.947604,0.736684 2.6875,-0.0078 0.739627,-0.744757 0.735239,-1.948157 -0.0098,-2.6875 -6.8178199,-6.773819 -6.5493657,-17.213487 0.279331,-23.9980589 0.744484,-0.7398963 0.747976,-1.9432947 0.0078,-2.6875 -0.358574,-0.360748 -0.84682,-0.5626616 -1.355456,-0.5605469 z m 23.667969,0 c -0.498476,0.00564 -0.974768,0.2069575 -1.326172,0.5605469 -0.740176,0.7442053 -0.736684,1.9476037 0.0078,2.6875 6.828697,6.7845719 7.095198,17.2242399 0.277344,23.9980469 -0.743183,0.739675 -0.746674,1.941568 -0.0078,2.685547 0.739343,0.745039 1.942743,0.749427 2.6875,0.0098 C 45.719769,25.124155 45.383869,12.093111 37.179186,3.9414434 36.818045,3.5833038 36.328391,3.3849096 35.819811,3.3906622 Z m -6.037109,6.058594 c -0.458476,0.01556 -0.893713,0.2055826 -1.216797,0.53125 -0.700353,0.7050188 -0.696861,1.8442088 0.0078,2.5449218 3.547031,3.524087 3.530677,8.265321 -0.03711,11.96289 -0.690252,0.715206 -0.670142,1.854521 0.04492,2.544922 0.715206,0.690252 1.854521,0.670142 2.544922,-0.04492 4.731553,-4.90367 4.779464,-12.251552 -0.01563,-17.0156248 -0.323835,-0.3223454 -0.758138,-0.5094727 -1.214844,-0.523437 -0.03775,-0.00119 -0.07553,-0.00119 -0.113281,0 z m -11.671876,0.002 c -0.459158,0.01147 -0.896563,0.1980313 -1.222656,0.521484 -4.795089,4.7640728 -4.747179,12.1119548 -0.01563,17.0156248 0.690401,0.715062 1.829716,0.735172 2.544922,0.04492 0.715617,-0.689854 0.736605,-1.82918 0.04688,-2.544922 -3.567786,-3.697569 -3.58414,-8.43685 -0.03711,-11.960937 0.705962,-0.700934 0.709456,-1.84163 0.0078,-2.5468748 C 19.085322,9.62933 18.606266,9.4378487 18.110813,9.4512542 Z m 5.882813,5.4902338 c -1.971616,1.61e-4 -3.569944,1.587997 -3.570313,3.546875 0,1.783351 0.960448,2.757185 1.714844,3.10927 v 16.941512 c 0,1.050285 -0.24627,1.503962 -0.519531,1.769531 -0.273261,0.265568 -0.762915,0.501953 -1.769531,0.501953 h -8.158204 c -1.048883,-2.16e-4 -1.8995275,0.849554 -1.9003903,1.898437 -2.16e-4,1.049646 0.8507443,1.900607 1.9003903,1.900391 h 8.158204 c 1.661373,0 3.263772,-0.454466 4.417969,-1.576172 1.154196,-1.121706 1.669922,-2.753566 1.669922,-4.49414 V 21.509698 c 0.707099,-0.345887 1.626953,-1.420469 1.626953,-3.02138 -3.69e-4,-1.958878 -1.598697,-3.546714 -3.570313,-3.546875 z m 4.861328,25.869141 c -1.049646,-2.15e-4 -1.900605,0.850744 -1.90039,1.90039 8.62e-4,1.048883 0.851506,1.898654 1.90039,1.898438 h 7.140625 c 1.048884,2.16e-4 1.899529,-0.849554 1.900391,-1.898438 2.15e-4,-1.049646 -0.850745,-1.900606 -1.900391,-1.90039 z" fill="#008055"/>
</svg>
