<svg xmlns="http://www.w3.org/2000/svg" width="48" height="48">
	<path d="M 21.262695,0.60351588 A 1.8,1.8 0 0 0 19.461914,2.4042972 v 4.8750001 c 0,2.144732 1.672318,4.0175777 3.867188,4.0175777 h 7.769531 c 0.669621,0 1.014052,0.194184 1.328125,0.568359 0.314073,0.374176 0.572265,1.019066 0.572265,1.927735 v 28.05664 c 0,0.88607 -0.206217,1.299789 -0.417968,1.519532 -0.211751,0.219742 -0.57416,0.427734 -1.482422,0.427734 H 16.920898 c -0.704506,0 -1.136075,-0.198701 -1.417968,-0.472656 -0.281895,-0.273955 -0.501953,-0.677829 -0.501953,-1.47461 v -28.05664 c 0,-1.00446 0.237265,-1.654277 0.49414,-1.97461 0.256876,-0.320332 0.539316,-0.521484 1.425781,-0.521484 a 1.8,1.8 0 0 0 1.798829,-1.7988277 1.8,1.8 0 0 0 -1.798829,-1.800781 c -1.699723,0 -3.278673,0.677348 -4.234375,1.86914 -0.955701,1.1917927 -1.285156,2.6879227 -1.285156,4.2265627 v 28.05664 c 0,1.57952 0.556624,3.048668 1.591797,4.054688 1.035173,1.00602 2.464011,1.492187 3.927734,1.492187 h 14.177735 c 1.567808,0 3.055171,-0.471789 4.074219,-1.529297 1.019047,-1.057507 1.425781,-2.516447 1.425781,-4.017578 v -28.05664 c 0,-1.588832 -0.449329,-3.092838 -1.414063,-4.2421877 -0.964733,-1.14935 -2.471518,-1.853515 -4.085937,-1.853515 h -7.769531 c -0.05525,0 -0.265625,-0.134101 -0.265625,-0.417969 V 2.4042972 A 1.8,1.8 0 0 0 21.262695,0.60351588 Z M 19.850586,13.425781 c -0.665008,0 -1.434048,0.163064 -2.070313,0.716797 -0.636265,0.553734 -0.974609,1.451233 -0.974609,2.332031 v 8.175782 c 0,0.780067 0.306287,1.572168 0.878906,2.123046 0.572619,0.55088 1.369662,0.832032 2.166016,0.832032 a 1.5,1.5 0 0 0 1.5,-1.5 1.5,1.5 0 0 0 -1.5,-1.5 c -0.07514,0 -0.03895,0.006 -0.04492,0.0039 v -8.134766 c 0,-0.03713 -3.46e-4,-0.02249 0,-0.04492 0.01898,-0.0016 0.01792,-0.0039 0.04492,-0.0039 h 8.357422 c 0.0043,0.02584 -0.01367,-0.051 -0.01367,0.04883 v 8.13086 h -4.414063 a 1.5,1.5 0 0 0 -1.5,1.5 1.5,1.5 0 0 0 1.5,1.5 h 4.478516 c 1.522855,0 2.935547,-1.382324 2.935547,-2.955078 v -8.175782 c 1.5e-5,-0.774411 -0.214622,-1.592992 -0.792969,-2.199218 -0.578345,-0.606226 -1.4076,-0.84961 -2.142578,-0.84961 z m -1.373047,18.00586 a 1.6,1.6 0 0 0 -1.599609,1.601562 1.6,1.6 0 0 0 1.599609,1.59961 h 11.044922 a 1.6,1.6 0 0 0 1.599609,-1.59961 1.6,1.6 0 0 0 -1.599609,-1.601562 z m 0,5.376953 a 1.6,1.6 0 0 0 -1.599609,1.599609 1.6,1.6 0 0 0 1.599609,1.59961 h 11.044922 a 1.6,1.6 0 0 0 1.599609,-1.59961 1.6,1.6 0 0 0 -1.599609,-1.599609 z" fill="#008055"/>
</svg>
