<svg xmlns="http://www.w3.org/2000/svg" width="48" height="48">
	<path d="m 15.759766,1.3419709 a 1.95,1.95 0 0 0 -1.107422,0.367187 1.95,1.95 0 0 0 -0.441406,2.722656 l 5.845703,8.1054691 a 1.950195,1.950195 0 0 0 0.01563,0.02344 c 0.946376,1.272329 2.757065,2.93468 5.408203,2.935547 l 12.841797,0.01563 a 1.950195,1.950195 0 0 0 0.0039,0 c 0.90032,0 1.364988,0.249367 1.685546,0.582031 0.320559,0.332664 0.552735,0.84596 0.552735,1.660156 v 14.90625 c 0,1.041228 -0.24224,1.478122 -0.503907,1.732422 -0.261665,0.2543 -0.736368,0.488281 -1.734374,0.488281 h -8.826172 a 1.95,1.95 0 0 0 -1.951172,1.949219 1.95,1.95 0 0 0 1.951172,1.949219 h 8.826172 c 1.669983,0 3.287334,-0.456869 4.453124,-1.589844 1.165792,-1.132975 1.685547,-2.779625 1.685547,-4.529297 v -14.90625 c 0,-1.629703 -0.534587,-3.213373 -1.644531,-4.365234 -1.109521,-1.151431 -2.73744,-1.776877 -4.492185,-1.777351 h -0.002 l -12.839844,-0.01563 a 1.950195,1.950195 0 0 0 -0.0039,0 c -1.037673,0 -1.732893,-0.627357 -2.279297,-1.361328 0,0 -0.002,-0.002 -0.002,-0.002 L 17.374913,2.1505119 a 1.95,1.95 0 0 0 -1.615235,-0.808593 z m 16.90625,0.01367 a 1.9,1.9 0 0 0 -1.478515,0.736328 l -4.1875,5.410156 a 1.9,1.9 0 0 0 0.339843,2.6660161 1.9,1.9 0 0 0 2.666016,-0.3398441 l 4.185547,-5.410156 A 1.9,1.9 0 0 0 33.851563,1.7521269 1.9,1.9 0 0 0 32.666016,1.3556429 Z M 10.28711,11.611502 c -1.7129325,0 -3.3770474,0.372952 -4.6933599,1.4375 -1.3163126,1.064548 -2.0585937,2.810785 -2.0585937,4.705078 v 14.90625 c 0,1.794654 0.7745455,3.463665 2.0449219,4.539063 1.2703762,1.075398 2.9398233,1.580078 4.7070317,1.580078 h 11.802734 v 1.759765 c 0,1.041228 -0.240286,1.478122 -0.501953,1.732422 -0.261666,0.254301 -0.738322,0.486328 -1.736328,0.486328 H 11.69336 a 1.95,1.95 0 0 0 -1.9492194,1.951172 1.95,1.95 0 0 0 1.9492194,1.949219 h 8.158203 c 1.669984,0 3.287334,-0.456869 4.453125,-1.589844 1.165791,-1.132974 1.685547,-2.779625 1.685547,-4.529297 V 36.830252 A 1.950195,1.950195 0 0 0 24.041016,34.87908 l -13.753906,0.002 c -1.0240824,0 -1.7551394,-0.292201 -2.1875004,-0.658203 -0.4323611,-0.366002 -0.6640631,-0.782754 -0.6640631,-1.5625 v -14.90625 c 0,-1.020707 0.2376561,-1.371626 0.611329,-1.673828 0.373672,-0.302202 1.110926,-0.568359 2.2402345,-0.568359 h 6.089844 a 1.95,1.95 0 0 0 1.951172,-1.949266 1.95,1.95 0 0 0 -1.951172,-1.951172 z M 29.271485,42.75994 a 1.95,1.95 0 0 0 -1.949219,1.949218 1.95,1.95 0 0 0 1.949219,1.949219 H 36.41211 A 1.95,1.95 0 0 0 38.363282,44.709158 1.95,1.95 0 0 0 36.41211,42.75994 Z" fill="#008055"/>
</svg>
