<svg xmlns="http://www.w3.org/2000/svg" width="48" height="48">
	<path d="m 8.6279294,5.2925479 c -1.7054452,0 -3.3578796,0.3710145 -4.6621093,1.4257813 C 2.6615904,7.7730956 1.9267576,9.5012543 1.9267576,11.384345 v 19.539063 c 0,1.781648 0.7657531,3.433704 2.0253907,4.5 1.2596373,1.066296 2.9181095,1.570312 4.6757811,1.570312 H 21.356445 v 1.808594 c 0,1.050286 -0.244318,1.503963 -0.517579,1.769531 -0.273259,0.265569 -0.764867,0.5 -1.771484,0.5 h -8.158203 a 1.9,1.9 0 0 0 -1.9003901,1.900391 1.9,1.9 0 0 0 1.9003901,1.900391 h 8.158203 c 1.661374,0 3.265725,-0.454466 4.419922,-1.576172 1.154197,-1.121707 1.669922,-2.753567 1.669922,-4.494141 V 35.09333 A 1.90019,1.90019 0 0 0 23.256835,33.192939 H 8.6279294 c -1.0336183,0 -1.7756498,-0.294833 -2.2187499,-0.669922 C 5.9660794,32.147928 5.7275388,31.716179 5.7275388,30.923408 V 11.384345 c 0,-1.031901 0.243151,-1.4009197 0.6289063,-1.7128907 0.3857553,-0.311971 1.1346897,-0.578125 2.2714843,-0.578125 H 39.983398 c 0.91129,0 1.39198,0.254495 1.722656,0.597656 0.330676,0.3431607 0.566406,0.8687137 0.566406,1.6933597 v 19.539063 c 0,1.050286 -0.244317,1.503962 -0.517578,1.769531 -0.273261,0.265569 -0.764868,0.5 -1.771484,0.5 H 28.71582 a 1.9,1.9 0 0 0 -1.900391,1.900391 1.9,1.9 0 0 0 1.900391,1.90039 h 11.267578 c 1.661373,0 3.265725,-0.454465 4.419922,-1.576171 1.154196,-1.121708 1.669922,-2.753567 1.669922,-4.494141 V 11.384345 c 0,-1.6192447 -0.531033,-3.1887267 -1.63086,-4.3300785 C 43.342556,5.9129151 41.727937,5.2925479 39.983398,5.2925479 Z M 21.473632,11.876533 a 1.7,1.7 0 0 0 -1.701172,1.699219 1.7,1.7 0 0 0 1.701172,1.699218 h 1.535156 V 27.028877 H 21.80957 a 1.7,1.7 0 0 0 -1.699219,1.699218 1.7,1.7 0 0 0 1.699219,1.699219 h 5.798828 A 1.7,1.7 0 0 0 29.30957,28.728095 1.7,1.7 0 0 0 27.608398,27.028877 H 26.409179 V 13.612861 a 1.7,1.7 0 0 0 0,-0.03711 1.7,1.7 0 0 0 -0.0039,-0.109375 1.7,1.7 0 0 0 -1.695313,-1.589844 z m 6.59961,29.095703 a 2,2 0 0 0 -2,2 2,2 0 0 0 2,2 h 7.140624 a 2,2 0 0 0 2,-2 2,2 0 0 0 -2,-2 z" fill="#008055"/>
</svg>
