<svg xmlns="http://www.w3.org/2000/svg" width="48" height="48">
	<path d="M 5.7402344 5.859375 C 4.5681762 5.859375 3.3899788 6.1081066 2.4316406 6.8769531 C 1.4733024 7.6457996 0.93164062 8.9304354 0.93164062 10.25 L 0.93164062 22.794922 C 0.93164063 24.067256 1.4990272 25.284645 2.4160156 26.054688 C 3.333004 26.824729 4.515695 27.171875 5.7402344 27.171875 L 13.505859 27.171875 L 13.505859 27.851562 C 13.505859 28.436118 13.384727 28.574688 13.318359 28.638672 C 13.251992 28.702656 13.068824 28.830078 12.496094 28.830078 L 7.2167969 28.830078 A 1.7 1.7 0 0 0 5.515625 30.529297 A 1.7 1.7 0 0 0 7.2167969 32.228516 L 12.496094 32.228516 C 13.649984 32.228516 14.820307 31.912576 15.677734 31.085938 C 16.535162 30.259298 16.90625 29.058718 16.90625 27.851562 L 16.90625 25.470703 A 1.70017 1.70017 0 0 0 15.207031 23.771484 L 5.7402344 23.771484 C 5.1583598 23.771484 4.7865201 23.60649 4.6015625 23.451172 C 4.4166049 23.295854 4.3320312 23.175348 4.3320312 22.794922 L 4.3320312 10.25 C 4.3320312 9.6981549 4.4251923 9.6378878 4.5605469 9.5292969 C 4.6959014 9.4207059 5.0729056 9.2597656 5.7402344 9.2597656 L 26.03125 9.2597656 C 26.520834 9.2597656 26.695231 9.3792755 26.8125 9.5 C 26.929769 9.6207245 27.042969 9.823853 27.042969 10.25 L 27.042969 14.861328 A 1.7 1.7 0 0 0 28.742188 16.560547 A 1.7 1.7 0 0 0 30.443359 14.861328 L 30.443359 10.25 C 30.443359 9.1071773 30.06045 7.9631823 29.251953 7.1308594 C 28.443456 6.2985364 27.260417 5.859375 26.03125 5.859375 L 5.7402344 5.859375 z M 22.365234 17.175781 C 21.193176 17.175781 20.014978 17.424515 19.056641 18.193359 C 18.098303 18.962203 17.556641 20.246845 17.556641 21.566406 L 17.556641 34.111328 C 17.556641 35.383662 18.124027 36.601052 19.041016 37.371094 C 19.958004 38.141135 21.140695 38.488281 22.365234 38.488281 L 30.130859 38.488281 L 30.130859 39.169922 C 30.130859 39.754477 30.009727 39.891094 29.943359 39.955078 C 29.876992 40.019062 29.693824 40.146484 29.121094 40.146484 L 23.841797 40.146484 A 1.7 1.7 0 0 0 22.140625 41.845703 A 1.7 1.7 0 0 0 23.841797 43.546875 L 29.121094 43.546875 C 30.274984 43.546875 31.445307 43.230935 32.302734 42.404297 C 33.160162 41.577659 33.53125 40.377077 33.53125 39.169922 L 33.53125 36.787109 A 1.70017 1.70017 0 0 0 31.832031 35.087891 L 22.365234 35.087891 C 21.78336 35.087891 21.41152 34.922896 21.226562 34.767578 C 21.041605 34.61226 20.957031 34.491754 20.957031 34.111328 L 20.957031 21.566406 C 20.957031 21.014568 21.050192 20.954294 21.185547 20.845703 C 21.320902 20.737112 21.697906 20.576172 22.365234 20.576172 L 42.65625 20.576172 C 43.145834 20.576172 43.320231 20.697635 43.4375 20.818359 C 43.554769 20.939084 43.667969 21.140266 43.667969 21.566406 L 43.667969 34.111328 C 43.667969 34.695883 43.546836 34.834453 43.480469 34.898438 C 43.414101 34.962421 43.228979 35.087891 42.65625 35.087891 L 36.191406 35.087891 A 1.7 1.7 0 0 0 34.490234 36.789062 A 1.7 1.7 0 0 0 36.191406 38.488281 L 42.65625 38.488281 C 43.810139 38.488281 44.982417 38.172341 45.839844 37.345703 C 46.697271 36.519065 47.068359 35.318483 47.068359 34.111328 L 47.068359 21.566406 C 47.068359 20.423586 46.68545 19.281539 45.876953 18.449219 C 45.068457 17.616898 43.885417 17.175781 42.65625 17.175781 L 22.365234 17.175781 z M 35.775391 40.146484 A 1.7 1.7 0 0 0 34.074219 41.845703 A 1.7 1.7 0 0 0 35.775391 43.546875 L 39.570312 43.546875 A 1.7 1.7 0 0 0 41.269531 41.845703 A 1.7 1.7 0 0 0 39.570312 40.146484 L 35.775391 40.146484 z " fill="#008055"/>
</svg>
