<svg xmlns="http://www.w3.org/2000/svg" width="48" height="48">
	<path d="m 8.6533207,4.9058725 c -1.7224044,0 -3.3226956,0.5076611 -4.421875,1.6386721 -1.0991792,1.131011 -1.5468752,2.705462 -1.5468752,4.3496084 l -0.039062,25.595704 a 1.80018,1.80018 0 0 0 0,0.0039 c 0,1.626789 0.464364,3.214848 1.4785154,4.464844 1.0141511,1.249995 2.6223579,2.080901 4.4394531,2.134765 A 1.8,1.8 0 0 0 10.41504,41.347278 1.8,1.8 0 0 0 8.6689457,39.495716 C 7.794011,39.46978 7.3167621,39.179405 6.9189457,38.689075 6.5214528,38.199144 6.2455651,37.429004 6.2451176,36.495716 v -0.002 l 0.039062,-25.595657 a 1.80018,1.80018 0 0 0 0,-0.0039 c 0,-1.0238524 0.2412012,-1.5434034 0.5292969,-1.8398424 0.2880957,-0.296435 0.7713882,-0.548825 1.8398437,-0.548825 H 28.881837 c 0.845553,0 1.397551,0.244786 1.761719,0.595703 0.364167,0.350918 0.628906,0.859771 0.628906,1.7929684 v 4.812501 c 0,1.095003 0.317814,2.20518 1.068359,3.09375 0.750546,0.888567 1.967957,1.458984 3.253907,1.458984 h 3.730468 c 0.783246,0 1.416586,0.213731 1.78711,0.521484 0.370523,0.307754 0.640625,0.698488 0.640625,1.732422 v 13.980469 c 0,1.151735 -0.270039,1.924047 -0.601563,2.333984 -0.331524,0.409937 -0.734773,0.666016 -1.789062,0.666016 h -25.16797 a 1.8,1.8 0 0 0 -1.798828,1.800781 1.8,1.8 0 0 0 1.798828,1.798828 h 25.16797 c 1.8607,0 3.552677,-0.72189 4.58789,-2.001953 1.035213,-1.280063 1.404297,-2.907192 1.404297,-4.597656 V 22.513294 c 0,-1.873765 -0.74786,-3.508982 -1.943359,-4.501953 -1.195499,-0.992971 -2.675054,-1.353516 -4.085938,-1.353516 h -3.730468 c -0.362251,0 -0.405497,-0.06318 -0.503907,-0.179687 -0.09841,-0.116507 -0.21875,-0.383589 -0.21875,-0.771484 v -4.812501 c 0,-1.7226004 -0.610123,-3.3071354 -1.730469,-4.3867184 C 32.021258,5.4278526 30.480174,4.9058725 28.881837,4.9058725 Z M 11.028321,11.343372 A 1.8,1.8 0 0 0 9.2275395,13.1422 1.8,1.8 0 0 0 11.028321,14.942982 H 23.413087 L 12.235352,34.327747 a 1.8,1.8 0 0 0 0.660156,2.458985 1.8,1.8 0 0 0 2.457032,-0.660157 L 26.887696,16.122669 c 0.47903,-0.815401 1.056949,-1.719364 0.542969,-3.072266 -0.25699,-0.676451 -0.883074,-1.208773 -1.441406,-1.435547 -0.558333,-0.226773 -1.074546,-0.271484 -1.623047,-0.271484 z m 17.75586,11.794922 a 1.7,1.7 0 0 0 -1.699219,1.699219 1.7,1.7 0 0 0 1.699219,1.699219 h 4.460937 l -4.945312,5.310546 c -0.306425,0.30369 -0.577956,0.599093 -0.816407,0.955079 -0.25327,0.37811 -0.568758,0.866015 -0.474609,1.691406 0.09415,0.825391 0.859205,1.530892 1.40625,1.740234 0.547045,0.209343 1.007858,0.230469 1.535156,0.230469 h 6.4375 a 1.7,1.7 0 0 0 1.701172,-1.701172 1.7,1.7 0 0 0 -1.701172,-1.699219 H 31.811524 L 36.860352,27.6422 a 1.70017,1.70017 0 0 0 0.0098,-0.01172 c 0.302768,-0.330867 0.564028,-0.625863 0.802734,-1.009766 0.238707,-0.383903 0.608522,-0.999794 0.31836,-1.919922 -0.290162,-0.920128 -1.12669,-1.298722 -1.625,-1.423828 -0.49831,-0.125106 -0.941957,-0.138672 -1.484375,-0.138672 z" fill="#008055"/>
</svg>
