<svg xmlns="http://www.w3.org/2000/svg" width="48" height="48">
	<path d="m 24.512911,4.1396485 c -4.106766,0 -7.090857,2.677967 -9.382812,5.28125 a 1.60016,1.60016 0 0 0 0,0.002 C 12.782327,12.089702 10.6983,15.405509 8.8605673,18.909227 5.2124194,25.864405 2.3273642,33.234637 2.3273642,38.952195 c 8.935e-4,2.68839 2.2099091,4.901653 4.8984375,4.908204 a 1.60016,1.60016 0 0 0 0.089844,-0.0039 c 2.2250854,-0.120214 6.1008743,-0.751341 10.2792973,-2.404297 4.178422,-1.652955 8.654724,-4.338867 11.753906,-8.662109 a 1.60016,1.60016 0 0 0 0.03711,-0.05469 c 0.179942,-0.27466 0.333976,-0.510746 0.441406,-0.929688 0.05372,-0.209471 0.09857,-0.485911 0.02539,-0.845703 -0.07317,-0.359792 -0.323966,-0.78107 -0.628906,-1.019531 -0.60988,-0.476922 -1.046345,-0.392168 -1.298828,-0.376953 -0.252484,0.01521 -0.411372,0.05206 -0.53711,0.07813 a 1.60016,1.60016 0 0 0 -0.103515,0.02539 c -6.030908,1.683115 -9.17225,3.008081 -13.550782,3.613282 a 1.60016,1.60016 0 0 0 -0.01367,0.002 c -0.05954,0.0088 -0.05696,0.0012 -0.111329,0.0078 0.03034,-0.122139 0.02214,-0.149023 0.06836,-0.300781 v -0.002 c 0.889602,-2.907127 2.194627,-6.302782 3.880859,-9.517578 1.582517,-3.017099 3.397903,-5.799966 4.933594,-7.546875 0.992586,-1.081972 1.606771,-1.41076 1.886719,-1.453125 0.280647,-0.04247 0.704291,0.05341 1.658203,0.734375 1.321177,0.978588 2.3669,1.691283 4.904297,5.078125 2.422337,3.354222 4.87564,8.385377 7.599609,14.396484 a 1.6,1.6 0 0 0 2.117188,0.796875 1.6,1.6 0 0 0 0.796875,-2.117188 C 38.711012,27.304621 36.238261,22.150606 33.534396,18.407228 a 1.60016,1.60016 0 0 0 -0.01758,-0.02148 c -2.703927,-3.613141 -4.281923,-4.796331 -5.589842,-5.76563 a 1.60016,1.60016 0 0 0 -0.02344,-0.01563 c -1.229623,-0.879606 -2.545475,-1.519537 -4.003906,-1.298828 -1.458431,0.22071 -2.58673,1.157649 -3.783203,2.466797 a 1.60016,1.60016 0 0 0 -0.01953,0.02148 c -1.81661,2.063483 -3.700343,5.000412 -5.373047,8.189453 -1.801213,3.434005 -3.166336,6.9946 -4.107422,10.070312 a 1.60016,1.60016 0 0 0 0,0.002 c -0.185438,0.608181 -0.31641,1.136761 -0.34961,1.701172 -0.0332,0.56441 0.0456,1.27112 0.525391,1.869141 0.479795,0.598019 1.195213,0.834513 1.751953,0.896484 0.554756,0.06175 1.063778,0.0097 1.634766,-0.07422 h 0.0059 c 3.379596,-0.468481 6.292419,-1.369326 9.621094,-2.396484 -2.235201,1.940065 -4.824724,3.409548 -7.388672,4.423828 -3.763506,1.488817 -7.3887789,2.070774 -9.2031251,2.175781 -0.9138977,-0.01471 -1.6852428,-0.784455 -1.6855468,-1.699219 0,-4.57244 2.6382103,-11.834618 6.1640629,-18.55664 1.759667,-3.354882 3.742262,-6.478979 5.837891,-8.859375 2.098645,-2.3837165 4.284188,-4.1972665 6.982421,-4.1972665 2.320686,0 4.277297,1.382853 6.082032,3.2011725 1.940809,1.955564 3.549706,4.150563 5.388671,7.152344 2.228215,3.631716 6.726191,12.790377 6.478516,22.529297 a 1.6,1.6 0 0 0 1.558594,1.640625 1.6,1.6 0 0 0 1.640625,-1.558594 C 45.934748,29.553251 41.173919,20.033257 38.71213,16.020509 v -0.002 C 36.801446,12.899806 35.029272,10.465374 32.866427,8.2860865 30.818362,6.2226055 28.087426,4.1396015 24.512911,4.1396015 Z" fill="#008055"/>
</svg>
