<svg xmlns="http://www.w3.org/2000/svg" width="48" height="48">
	<path d="m 7.0976565,1.618164 c -1.9139273,0 -3.6449617,0.7397519 -4.7050782,2.0507813 C 1.3324619,4.9799747 0.95312525,6.65299 0.95312525,8.3955078 V 24.428711 c 0,1.771251 0.62602055,3.394173 1.77343745,4.5 1.1474169,1.105827 2.7281336,1.642578 4.3710938,1.642578 H 13.964844 A 1.8,1.8 0 0 0 15.765625,28.770508 1.8,1.8 0 0 0 13.964844,26.97168 H 7.0976565 C 6.2075564,26.97168 5.6158777,26.714 5.2246096,26.336914 4.8333414,25.959828 4.5527346,25.41071 4.5527346,24.428711 V 8.3955078 c 0,-1.2038722 0.2821758,-2.0220175 0.6386719,-2.4628907 0.356496,-0.440873 0.7988271,-0.7148437 1.90625,-0.7148437 H 25.259766 c 0.865742,0 1.367509,0.2698591 1.787109,0.765625 0.419602,0.4957659 0.734376,1.3082006 0.734376,2.4121094 v 6.7988282 a 1.8,1.8 0 0 0 1.800781,1.798828 1.8,1.8 0 0 0 1.798828,-1.798828 V 8.3955078 c 0,-1.7897113 -0.511576,-3.466949 -1.585938,-4.7363281 C 28.72056,2.3898005 27.062454,1.618164 25.259766,1.618164 Z M 16.681641,6.1865234 A 1.50015,1.50015 0 0 0 15.376954,6.9248047 L 6.2011721,22.526367 a 1.5,1.5 0 0 0 0.5332031,2.054688 1.5,1.5 0 0 0 2.0527344,-0.533203 l 2.1894534,-3.722657 a 1.5,1.5 0 0 0 0.09375,0.002 h 4.730469 a 1.5,1.5 0 0 0 1.5,-1.5 1.5,1.5 0 0 0 -1.5,-1.5 h -3.060547 l 3.93164,-6.683594 3.34961,5.68164 a 1.5,1.5 0 0 0 2.052734,0.53125 1.5,1.5 0 0 0 0.53125,-2.054687 L 17.962891,6.9248047 a 1.50015,1.50015 0 0 0 -1.28125,-0.7382813 z m 6.640625,11.3222656 c -1.742381,0 -3.413738,0.379125 -4.724609,1.439453 -1.310871,1.060329 -2.050782,2.791024 -2.050782,4.705078 v 16.605469 c 0,1.802762 0.769861,3.462542 2.039063,4.53711 1.269202,1.074567 2.94675,1.585937 4.736328,1.585937 a 1.8,1.8 0 0 0 1.800781,-1.800781 1.8,1.8 0 0 0 -1.800781,-1.798828 c -1.103541,0 -1.914498,-0.314728 -2.410156,-0.734375 -0.495658,-0.419648 -0.765625,-0.922945 -0.765625,-1.789063 V 23.65332 c 0,-1.107805 0.274075,-1.549723 0.714844,-1.90625 0.440769,-0.356526 1.257378,-0.638671 2.460937,-0.638671 h 17.583985 c 0.98159,0 1.529201,0.278567 1.90625,0.669921 0.377047,0.391355 0.634765,0.984579 0.634765,1.875 v 16.605469 c 0,1.119686 -0.265377,1.641591 -0.587891,1.955078 -0.322512,0.313488 -0.880662,0.56836 -1.953124,0.56836 h -12.875 a 1.8,1.8 0 0 0 -1.798829,1.798828 1.8,1.8 0 0 0 1.798829,1.800781 h 12.875 c 1.692857,0 3.303914,-0.461292 4.460937,-1.585937 1.157023,-1.124646 1.679687,-2.763586 1.679687,-4.53711 V 23.65332 c 0,-1.643068 -0.536936,-3.2235 -1.642578,-4.371093 -1.105642,-1.147594 -2.726917,-1.773438 -4.498046,-1.773438 z m 8.470703,5.119141 c -4.944116,0 -8.486328,3.982344 -8.486328,8.451172 0,2.7388 0.979894,4.859233 2.279297,6.564453 h -1.451172 a 1.5,1.5 0 0 0 -1.5,1.5 1.5,1.5 0 0 0 1.5,1.5 h 5.001953 a 1.50015,1.50015 0 0 0 0.902344,-2.699219 c -2.075647,-1.561196 -3.732422,-3.483282 -3.732422,-6.865234 0,-2.947172 2.099364,-5.451172 5.486328,-5.451172 3.36348,0 5.339844,2.59156 5.339844,5.451172 0,3.250484 -1.728816,4.939753 -3.792969,7.003906 a 1.50015,1.50015 0 0 0 1.060547,2.560547 h 5.058594 a 1.5,1.5 0 0 0 1.5,-1.5 1.5,1.5 0 0 0 -1.5,-1.5 h -1.841797 c 1.347676,-1.71187 2.515625,-3.698964 2.515625,-6.564453 0,-4.343448 -3.368764,-8.451172 -8.339844,-8.451172 z" fill="#008055"/>
</svg>
