<svg xmlns="http://www.w3.org/2000/svg" width="48" height="48">
	<path d="m 24.409544,2.0161714 c -4.692629,-0.09069 -9.437533,1.310061 -13.470703,4.287109 -1.1523349,0.850585 -2.1993819,1.792466 -3.1367189,2.8125 C 1.2407591,16.256011 0.02994114,27.11679 5.3294661,35.627499 a 1.9,1.9 0 0 0 2.617187,0.609375 1.9,1.9 0 0 0 0.607422,-2.619141 C 3.5269181,25.54443 5.5409721,15.008008 13.192747,9.3599214 c 7.651775,-5.648088 18.316935,-4.467754 24.550781,2.7148426 6.233846,7.182598 5.899162,17.902807 -0.769531,24.683594 -6.668694,6.780787 -17.384419,7.294904 -24.669922,1.181641 a 1.9,1.9 0 0 0 -2.6777339,0.234375 1.9,1.9 0 0 0 0.236328,2.675781 C 18.64007,48.215269 31.650652,47.593704 39.684935,39.424374 47.719218,31.255044 48.123059,18.235999 40.612669,9.5825774 36.388075,4.7150274 30.442924,2.1327754 24.409544,2.0161714 Z m -3.244141,5.914062 c -0.181638,-0.01457 -0.364727,-0.0078 -0.546875,0.02148 -1.457695,0.234151 -2.531694,1.812353 -2.263672,3.3808596 a 1.60016,1.60016 0 0 0 0.0039,0.02148 c 0.384765,2.076713 1.311458,4.160271 2.548828,6.177734 -0.458542,3.786463 -1.77916,7.564587 -3.382813,10.736329 -1.771192,0.960588 -3.411965,2.030127 -4.751953,3.238281 a 1.60016,1.60016 0 0 0 -0.01367,0.01172 c -1.211698,1.116889 -1.194837,3.071134 -0.208984,4.103515 0.492926,0.516191 1.219813,0.865365 2.019531,0.851563 0.799718,-0.0138 1.590628,-0.412029 2.16211,-1.019531 a 1.60016,1.60016 0 0 0 0.05273,-0.05859 c 1.106422,-1.29857 2.197767,-2.908594 3.199219,-4.701172 3.313195,-1.590113 7.263253,-2.78293 11.128906,-3.226563 1.823532,1.060261 3.731661,1.921048 5.693359,2.410157 a 1.60016,1.60016 0 0 0 0.02734,0.0059 c 0.826136,0.1908 1.723373,0.0046 2.351563,-0.453125 0.628189,-0.457734 1.005965,-1.117805 1.130859,-1.826172 0.124894,-0.708367 -0.01709,-1.513542 -0.509766,-2.169922 -0.492672,-0.65638 -1.305426,-1.073417 -2.164062,-1.179687 -1.837658,-0.23547 -3.780693,-0.184546 -5.726563,-0.05273 -1.683986,-1.071388 -3.308079,-2.348969 -4.730468,-3.792968 -1.167446,-1.185183 -2.070646,-2.491287 -2.935547,-3.785157 0.124844,-2.02189 0.0668,-4.051848 -0.328125,-6.03125 v -0.002 C 23.635806,9.1575844 22.436858,8.0322454 21.16539,7.9302294 Z M 23.51306,20.871639 c 0.495807,0.583243 0.845951,1.230254 1.390625,1.783203 0.814267,0.82664 1.811106,1.449115 2.71875,2.185547 -1.987305,0.384721 -3.880894,0.897115 -5.744141,1.585938 0.712116,-1.780567 1.221623,-3.616239 1.634766,-5.554688 z" fill="#008055"/>
</svg>
