<svg xmlns="http://www.w3.org/2000/svg" width="48" height="48">
	<path d="m 24.318496,2.069345 c -0.272458,-0.011242 -0.544715,0.00435 -0.814453,0.044922 -1.078949,0.1622937 -2.105538,0.7275604 -2.83789,1.6054688 -0.808126,0.9688548 -1.010385,2.1994007 -0.832032,3.2792968 0.178059,1.0781085 0.712812,2.0883978 1.632813,2.7851563 0.0015,0.00116 0.0024,0.00275 0.0039,0.00391 0.476084,0.3901601 0.871089,0.6437731 0.957031,0.7246091 0.0047,0.0045 0.004,0.0011 0.0078,0.0039 -0.0023,0.01264 -0.0059,0.01409 -0.0059,0.03906 l -0.0078,6.441407 a 1.50015,1.50015 0 0 0 0,0.002 c 0,0.728703 0.112118,1.463415 0.496094,2.140625 0.383975,0.677209 1.060652,1.208735 1.796875,1.470703 1.82612,0.687825 2.910269,1.787379 3.248047,2.818359 0.33914,1.035143 0.157537,2.190464 -1.31836,3.666016 a 1.5,1.5 0 0 0 0,2.121094 1.5,1.5 0 0 0 2.121094,0 c 2.034924,-2.034449 2.7582,-4.557474 2.048828,-6.722657 -0.709372,-2.165182 -2.618807,-3.784533 -5.072265,-4.701172 a 1.50015,1.50015 0 0 0 -0.02149,-0.0078 c -0.192317,-0.06843 -0.161585,-0.06896 -0.193359,-0.125 -0.03168,-0.05588 -0.105051,-0.255853 -0.105469,-0.658203 v -0.002 l 0.0078,-6.441407 a 1.50015,1.50015 0 0 0 0,-0.002 c 0,-0.8867239 -0.463471,-1.7734664 -0.947266,-2.2285151 -0.48373,-0.455071 -0.858652,-0.6446661 -1.144466,-0.884788 a 1.50015,1.50015 0 0 0 -0.06055,-0.048828 C 23.08119,7.2453328 22.85481,6.8824021 22.793106,6.5087981 c -0.0617,-0.3736039 0.0171,-0.6769424 0.175781,-0.8671875 0.468975,-0.5621836 1.407606,-0.6848788 1.835938,-0.3496094 0.265174,0.2075633 0.343756,0.4010469 0.380859,0.6425782 0.0371,0.2415312 -0.0414,0.5319304 -0.05469,0.5585937 a 1.5,1.5 0 0 0 0.673831,2.0117188 1.5,1.5 0 0 0 2.011718,-0.6738281 C 28.159632,7.1428271 28.285657,6.35917 28.150528,5.4795012 28.015398,4.5998325 27.54379,3.6248568 26.654434,2.92872 25.949153,2.376671 25.135871,2.1030721 24.318496,2.069345 Z m 10.423829,2.1757813 c -2.286623,0.00545 -3.893554,1.3396825 -4.712891,2.65625 -0.818294,1.3148916 -1.237356,2.6154234 -1.556641,3.0527344 -4.07e-4,5.573e-4 -0.0015,0.00335 -0.002,0.00391 -0.237328,0.3018523 -0.523764,0.5743813 -0.853515,1.0175783 -0.339066,0.455714 -0.6875,1.185324 -0.6875,1.980469 v 2.005859 c 0,0.910736 0.447601,1.767828 1.074218,2.277344 0.626618,0.509516 1.389946,0.733183 2.15625,0.708984 3.933613,-0.122583 6.918752,-0.72096 9.542969,-2.171875 2.620348,-1.448775 4.780131,-3.666958 7.291016,-6.8183593 v -0.00195 C 47.2003,8.7029887 47.395522,8.4423242 47.511856,7.9970794 47.628373,7.551132 47.513089,6.7254508 47.029434,6.2763762 46.545779,5.8273017 46.073043,5.7937513 45.732559,5.7900481 45.392075,5.7863449 45.107871,5.8430351 44.816543,5.9228606 42.74884,6.4893289 41.868314,6.1812533 40.525528,5.6494231 39.182741,5.117593 37.4165,4.2451263 34.746231,4.2451263 a 1.50015,1.50015 0 0 0 -0.0039,0 z M 13.254043,4.3935638 c -2.670269,0 -4.4365099,0.8724667 -5.7792969,1.4042968 C 6.1319601,6.3296908 5.2494811,6.6377665 3.1817777,6.0712981 2.8904496,5.9914726 2.6062459,5.9347824 2.2657621,5.9384856 c -0.3404838,0.0037 -0.8132201,0.037254 -1.29687495,0.4863281 -0.4836549,0.4490746 -0.596986,1.2747558 -0.4804688,1.7207032 0.1157685,0.4430808 0.3068256,0.7031535 0.51171875,0.9550781 2.5133396,3.155231 4.672576,5.374338 7.294922,6.824219 2.6246979,1.451181 5.6102409,2.049443 9.5449219,2.171875 0.766304,0.0242 1.527679,-0.199467 2.154297,-0.708985 0.626617,-0.509515 1.074218,-1.366608 1.074218,-2.277343 v -2.00586 c 0,-0.795144 -0.346481,-1.524755 -0.685547,-1.980469 -0.332544,-0.44695 -0.620932,-0.722485 -0.859374,-1.027343 C 19.204502,9.6570802 18.787675,8.3623607 17.97084,7.0498138 17.151503,5.7332463 15.544572,4.3990112 13.257949,4.3935638 a 1.50015,1.50015 0 0 0 -0.0039,0 z m 21.492188,2.8515625 c 2.051521,0 3.148079,0.5890644 4.673828,1.1933594 0.939538,0.3721175 2.137451,0.5862422 3.480469,0.6171874 -1.611593,1.8064489 -3.106568,3.2432119 -4.648438,4.0957029 -2.096184,1.158969 -4.502351,1.682207 -8.1875,1.796875 -0.07113,0.0022 -0.111576,-0.01887 -0.134765,-0.0293 v -1.96289 c 0,-0.09806 -0.03542,-0.01584 0.09375,-0.189453 0.129172,-0.173612 0.457056,-0.50322 0.84375,-1.003907 a 1.50015,1.50015 0 0 0 0.02344,-0.03125 c 0.862673,-1.176541 1.170457,-2.4164576 1.685547,-3.2441402 0.514745,-0.8271286 0.848792,-1.238493 2.169922,-1.2421875 z M 13.250137,7.3935638 c 1.323337,0.00315 1.656785,0.4145049 2.171875,1.2421875 0.51509,0.8276826 0.824827,2.0675997 1.6875,3.2441407 a 1.50015,1.50015 0 0 0 0.02148,0.03125 c 0.386694,0.500687 0.714578,0.830295 0.84375,1.003906 0.129173,0.173611 0.09375,0.0914 0.09375,0.189453 v 1.962891 c -0.02319,0.01043 -0.06364,0.03154 -0.134765,0.0293 C 14.248582,14.982021 11.842415,14.458783 9.7462311,13.299814 8.2043611,12.447323 6.7093861,11.010559 5.0977931,9.2041107 6.4408111,9.1731652 7.6387241,8.9590408 8.5782621,8.5869231 10.10286,7.9830842 11.201601,7.3944509 13.250137,7.3935638 Z m 6.972656,12.3007812 a 1.5,1.5 0 0 0 -1.013672,0.414063 c -1.533239,1.461876 -2.525219,3.560803 -2.023437,5.753906 0.501782,2.193102 2.349881,4.123936 5.521484,5.654297 3.46577,1.676389 4.57752,3.282226 4.841797,4.441406 0.264359,1.159541 -0.236861,2.270204 -0.974609,3.158203 a 1.5,1.5 0 0 0 0.195312,2.111328 1.5,1.5 0 0 0 2.111328,-0.195312 c 1.116012,-1.343301 2.127906,-3.399253 1.59375,-5.742188 -0.534156,-2.342934 -2.534004,-4.574964 -6.46289,-6.474609 a 1.50015,1.50015 0 0 0 -0.002,-0.002 c -2.696347,-1.30104 -3.676511,-2.642597 -3.900391,-3.621094 -0.22388,-0.978497 0.160621,-1.949786 1.169922,-2.912109 a 1.5,1.5 0 0 0 0.05078,-2.121094 1.5,1.5 0 0 0 -1.107422,-0.464844 z m 3.697266,1.621094 a 1.5,1.5 0 0 0 -1.5,1.5 v 3.609375 a 1.5,1.5 0 0 0 1.5,1.5 1.5,1.5 0 0 0 1.5,-1.5 v -3.609375 a 1.5,1.5 0 0 0 -1.5,-1.5 z m -3.597656,10.091797 a 1.5,1.5 0 0 0 -1.070313,0.519531 c -1.119821,1.298841 -1.990299,2.691235 -2.119141,4.333984 -0.128841,1.642749 0.594395,3.308261 1.994141,4.820313 a 1.5,1.5 0 0 0 2.119141,0.08008 1.5,1.5 0 0 0 0.08203,-2.119141 c -1.044634,-1.128448 -1.258754,-1.860545 -1.205078,-2.544921 0.05368,-0.684377 0.484802,-1.549369 1.400391,-2.611329 a 1.5,1.5 0 0 0 -0.15625,-2.115234 1.5,1.5 0 0 0 -1.044922,-0.363281 z m 3.61914,1.783203 a 1.5,1.5 0 0 0 -1.521484,1.476562 c 0,0 -0.03353,2.381461 -0.05078,4.794922 -0.0086,1.206731 -0.01436,2.421019 -0.0078,3.359375 0.0033,0.469178 0.0093,0.868086 0.01953,1.175782 0.0051,0.153846 0.01163,0.281876 0.02149,0.40625 0.0049,0.06219 0.01063,0.120475 0.02344,0.205078 0.01281,0.0846 -0.08663,0.08876 0.197266,0.578125 a 1.5,1.5 0 0 0 2.050781,0.544921 1.5,1.5 0 0 0 0.71875,-1.582031 1.5,1.5 0 0 0 -0.002,-0.0059 c -0.0033,-0.04651 -0.0078,-0.130393 -0.01172,-0.248047 -0.0086,-0.257582 -0.0144,-0.640309 -0.01758,-1.095703 -0.0064,-0.910787 -7.62e-4,-2.116912 0.0078,-3.316406 0.01715,-2.398989 0.05078,-4.771485 0.05078,-4.771485 A 1.5,1.5 0 0 0 23.9415,33.190398 Z" fill="#008055"/>
</svg>
