<svg xmlns="http://www.w3.org/2000/svg" width="48" height="48">
	<path d="m 24.835414,6.8011984 c -0.646767,-0.190342 -1.603545,0.09342 -2.044922,0.537109 -0.439317,0.441614 -0.589993,0.871768 -0.71875,1.3125 -1.865391,6.0659456 -2.234002,11.7499296 -2.44336,17.4199216 -1.978736,-3.169272 -4.105387,-6.481484 -7.02539,-9.40625 -0.319058,-0.319603 -0.622361,-0.586686 -1.083985,-0.798828 -0.461623,-0.212142 -1.34188,-0.350705 -2.0429686,0.130859 -0.7010885,0.481565 -0.8399229,1.145975 -0.8828126,1.578126 -0.042454,0.427764 0.00722,0.778901 0.083984,1.136718 0.6626219,4.095412 1.6250482,7.643784 2.7480472,11.201172 C 9.4010245,28.862661 7.0858792,27.833162 4.4272102,27.328542 3.9067274,27.229771 3.3248444,27.070767 2.3549446,27.383229 1.8699947,27.53946 1.0354668,28.089628 0.87447584,29.016042 0.71348494,29.942455 1.116177,30.538221 1.4779915,31.00237 a 1.70017,1.70017 0 0 0 0.00391,0.0078 c 4.1280414,5.238728 8.2959838,8.14866 13.9941405,10.152344 a 1.7,1.7 0 0 0 2.167969,-1.039062 1.7,1.7 0 0 0 -1.039062,-2.167969 C 12.481045,36.505378 9.5162595,34.699318 6.5736946,31.650807 c 2.6659494,0.988358 5.1938274,2.301239 6.9238284,3.277344 a 1.70017,1.70017 0 0 0 2.435547,-2.054687 c -1.301181,-3.629473 -2.240272,-7.039338 -3.03711,-10.671875 2.485314,3.274779 4.536888,7.006567 6.789063,10.261718 a 1.70017,1.70017 0 0 0 3.097656,-0.914062 c 0.20206,-6.494214 0.334854,-12.548326 1.794922,-18.830078 1.590717,4.697213 1.908674,10.181626 2.642578,15.941406 a 1.70017,1.70017 0 0 0 2.929688,0.945313 c 2.451401,-2.630892 5.253384,-5.662131 8.669922,-7.582032 -3.370678,3.68769 -4.510954,6.566682 -6.388672,10.658203 a 1.70017,1.70017 0 0 0 2.33789,2.212891 c 2.087017,-1.100402 3.833079,-1.942214 5.44336,-2.644531 -2.098431,1.916258 -3.994221,3.34101 -6.765625,4.832031 -1.220775,0.630116 -2.029929,0.775391 -3.527344,0.775391 h -8.628906 a 1.7,1.7 0 0 0 -1.699219,1.701171 1.7,1.7 0 0 0 1.699219,1.699219 h 8.628906 c 1.800152,0 3.419817,-0.292327 5.091797,-1.15625 a 1.70017,1.70017 0 0 0 0.02539,-0.01367 C 39.401336,37.741408 41.731753,35.99886 46.269006,31.1137 a 1.70017,1.70017 0 0 0 0.08984,-0.105469 c 0.490233,-0.623155 1.047078,-1.257597 0.689453,-2.488281 -0.178812,-0.615342 -0.803208,-1.186687 -1.341797,-1.351562 -0.538588,-0.164876 -0.960473,-0.10088 -1.326171,-0.0078 -2.062605,0.52489 -4.29459,1.4357 -6.716797,2.552734 1.331315,-2.646527 2.889138,-5.052989 6.96289,-8.613281 a 1.70017,1.70017 0 0 0 0.04688,-0.04297 c 0.30805,-0.289889 0.577379,-0.587864 0.798829,-1.021484 0.221449,-0.43362 0.443865,-1.188306 0.04687,-1.964844 -0.39699,-0.776538 -1.165801,-1.051227 -1.673828,-1.121093 -0.508026,-0.06987 -0.944544,-0.01721 -1.43164,0.08008 -5.444314,1.087289 -9.143302,4.553815 -12.214844,7.757812 -0.565819,-5.530131 -1.02984,-11.13819 -3.548828,-16.1992186 -0.329795,-0.662596 -0.52092,-1.406425 -1.814453,-1.787109 z" fill="#008055"/>
</svg>
