<svg xmlns="http://www.w3.org/2000/svg" width="48" height="48">
	<path d="M 7.4355469 2.1914062 C 5.5524678 2.1914062 3.8243108 2.9282126 2.7695312 4.2324219 C 1.7147517 5.5366311 1.34375 7.1871444 1.34375 8.8925781 L 1.34375 39.71875 C 1.34375 41.463284 1.964114 43.077914 3.1054688 44.177734 C 4.2468235 45.277555 5.8162995 45.808594 7.4355469 45.808594 L 20.113281 45.808594 C 21.853866 45.808594 23.485709 45.292869 24.607422 44.138672 C 25.729134 42.984475 26.183594 41.380123 26.183594 39.71875 L 26.183594 21.5625 A 1.9 1.9 0 0 0 24.283203 19.662109 A 1.9 1.9 0 0 0 22.382812 21.5625 L 22.382812 39.71875 C 22.382812 40.725377 22.148375 41.216981 21.882812 41.490234 C 21.61725 41.763487 21.163596 42.007812 20.113281 42.007812 L 7.4355469 42.007812 C 6.6109043 42.007812 6.0853552 41.772086 5.7421875 41.441406 C 5.3990198 41.110727 5.1445312 40.630016 5.1445312 39.71875 L 5.1445312 8.8925781 C 5.1445312 7.7558119 5.4126415 7.0068345 5.7246094 6.6210938 C 6.0365773 6.235353 6.4036359 5.9921875 7.4355469 5.9921875 L 20.113281 5.9921875 C 20.906046 5.9921875 21.337797 6.2307307 21.712891 6.6738281 C 22.087984 7.1169255 22.382812 7.8589625 22.382812 8.8925781 L 22.365234 15.337891 A 1.90019 1.90019 0 0 0 24.265625 17.242188 L 40.564453 17.242188 C 41.596371 17.242188 41.963422 17.487306 42.275391 17.873047 C 42.587359 18.258787 42.855469 19.007765 42.855469 20.144531 L 42.855469 29.849609 C 42.855469 30.760875 42.600981 31.241586 42.257812 31.572266 C 41.914644 31.902945 41.389102 32.138672 40.564453 32.138672 L 33.234375 32.138672 C 32.18406 32.138672 31.730406 31.894347 31.464844 31.621094 C 31.199281 31.347841 30.964844 30.856237 30.964844 29.849609 L 30.964844 21.509766 A 1.9 1.9 0 0 0 29.064453 19.609375 A 1.9 1.9 0 0 0 27.164062 21.509766 L 27.164062 29.849609 C 27.164062 31.510982 27.618522 33.115334 28.740234 34.269531 C 29.861947 35.423728 31.49379 35.939453 33.234375 35.939453 L 40.564453 35.939453 C 42.183704 35.939453 43.753174 35.408414 44.894531 34.308594 C 46.035888 33.208773 46.65625 31.594143 46.65625 29.849609 L 46.65625 20.144531 C 46.65625 18.439098 46.28525 16.786631 45.230469 15.482422 C 44.175687 14.178212 42.447536 13.443359 40.564453 13.443359 L 26.171875 13.443359 L 26.183594 8.8984375 A 1.90019 1.90019 0 0 0 26.183594 8.8925781 C 26.183594 7.1348937 25.679588 5.4783776 24.613281 4.21875 C 23.546974 2.9591224 21.894916 2.1914062 20.113281 2.1914062 L 7.4355469 2.1914062 z " fill="#008055"/>
</svg>
