<svg xmlns="http://www.w3.org/2000/svg" width="48" height="48">
	<path d="m 12.794656,1.7997568 c -0.312134,-0.00976 -0.625371,4.239e-4 -0.939453,0.03125 -1.256329,0.1233048 -2.5107267,0.5743038 -3.6289057,1.3867188 -2.2479816,1.633267 -3.2319187,4.232516 -3.0097658,6.638672 a 2,2 0 0 0 2.1738278,1.8085944 2,2 0 0 0 1.808594,-2.1757824 c -0.110427,-1.196044 0.228628,-2.199423 1.3789057,-3.035156 1.218043,-0.884971 2.136798,-0.898643 3.291016,-0.384765 A 2,2 0 0 0 16.5095,5.0556166 2,2 0 0 0 15.495828,2.4149916 C 14.650405,2.0385946 13.731059,1.8290389 12.794656,1.7997568 Z m 22.203125,0.4277348 c -0.648996,-0.01773 -1.318652,0.05273 -1.996094,0.228515 a 2,2 0 0 0 -1.433593,2.439453 2,2 0 0 0 2.4375,1.433594 c 1.482442,-0.384664 2.111076,-0.07962 2.955078,0.806641 0.318341,0.380813 0.619743,1.379222 0.480469,2.279297 -0.157131,0.8440354 -0.490903,0.9499734 -1.083985,2.1464844 -0.29848,0.602168 -0.515234,1.531101 -0.380859,2.425781 0.134374,0.894681 0.504047,1.739169 1.08789,2.742188 1.228826,2.116072 1.659004,4.419131 1.839844,6.15039 0.343433,3.287999 -0.352713,6.826769 -2.820312,10.244141 -3.695403,4.895231 -11.269092,7.725277 -16.742188,5.419922 a 2.0002,2.0002 0 0 0 -0.01953,-0.0098 c -1.211799,-0.494103 -2.511524,-1.045425 -4.101563,-0.990234 -1.590037,0.05519 -3.272401,0.98713 -4.4375,2.591797 l -2.1210937,2.882846 a 2,2 0 0 0 0.427734,2.796875 2,2 0 0 0 2.7949217,-0.425781 l 2.126953,-2.894531 a 2.0002,2.0002 0 0 0 0.0078,-0.0098 c 0.666772,-0.918333 0.892304,-0.927825 1.339843,-0.943359 0.44754,-0.01553 1.315171,0.234068 2.451172,0.697265 l -0.02148,-0.0098 c 7.620202,3.20975 16.727809,-0.373651 21.5,-6.708985 a 2.0002,2.0002 0 0 0 0.02148,-0.03125 c 3.053149,-4.21621 4.008301,-8.85083 3.572266,-13.02539 -0.209153,-2.002307 -0.708728,-4.901805 -2.361328,-7.746094 a 2.0002,2.0002 0 0 0 0,-0.002 c -0.441868,-0.759016 -0.569206,-1.19783 -0.587878,-1.32215 -0.01867,-0.124319 -0.04405,0.04995 0.0078,-0.05469 0.103727,-0.209264 1.1006,-1.333494 1.443359,-3.22461 a 2.0002,2.0002 0 0 0 0.0059,-0.0332 c 0.325234,-1.9948524 -0.07368,-4.0557504 -1.43164,-5.6054684 a 2.0002,2.0002 0 0 0 -0.04883,-0.05274 c -1.206713,-1.282348 -2.965121,-2.142132 -4.91211,-2.195312 z m -10.6875,3.019531 c -5.706556,0.008 -11.775861,2.623937 -15.6562497,7.9648444 a 2.0002,2.0002 0 0 0 -0.00195,0.002 c -3.0649903,4.232555 -3.9228615,8.871437 -3.5546874,12.890625 0.3681741,4.019188 1.869238,7.433552 3.7500004,9.662109 a 2,2 0 0 0 2.8183587,0.238281 2,2 0 0 0 0.238281,-2.818359 C 10.690583,31.748633 9.3748273,28.938422 9.0817663,25.73921 8.7888113,22.541163 9.4253893,18.969355 11.890359,15.563429 l 0.002,-0.0039 c 4.878236,-6.7099864 14.676514,-7.6368104 19.4375,-4.269531 a 2,2 0 0 0 2.787109,-0.478516 2,2 0 0 0 -0.476563,-2.7890634 c -2.611046,-1.846701 -5.906144,-2.780161 -9.330078,-2.77539 z m -0.289062,6.6269534 a 2,2 0 0 0 -2,2 v 10.785156 a 2.0002,2.0002 0 0 0 0.589844,1.417969 L 28.322,31.754835 a 2,2 0 0 0 2.828125,-0.0078 2,2 0 0 0 -0.0078,-2.828125 l -5.121106,-5.091809 v -9.953125 a 2,2 0 0 0 -2,-2 z m 12.40625,28.488281 a 2,2 0 0 0 -1.158203,0.376953 2,2 0 0 0 -0.451172,2.792969 l 1.328125,1.841797 a 2,2 0 0 0 2.792968,0.451172 2,2 0 0 0 0.451172,-2.791016 l -1.328125,-1.84375 a 2,2 0 0 0 -1.634765,-0.828125 z" fill="#008055"/>
</svg>
