<svg xmlns="http://www.w3.org/2000/svg" width="48" height="48">
	<path d="m 40.397959,2.0268991 c -0.213562,-0.02784 -0.419485,-0.02315 -0.613281,0.0039 -0.387593,0.05411 -0.730631,0.195996 -1.007813,0.333984 -0.554363,0.275977 -1.037206,0.638456 -1.595703,1.095703 a 1.70017,1.70017 0 0 0 -0.01953,0.01563 C 32.40871,7.4831121 29.675928,13.200964 28.938975,19.386274 24.312553,13.486511 18.672739,8.1295191 10.675303,4.3354921 a 1.70017,1.70017 0 0 0 -0.002,0 C 9.4961986,3.7784631 8.3390063,3.2106381 6.8686619,3.9546331 6.1334897,4.3266301 5.610325,5.1863861 5.5014744,5.9272891 c -0.1088505,0.740904 0.015557,1.416901 0.2421875,2.167969 a 1.70017,1.70017 0 0 0 0.013672,0.04297 C 8.6361874,16.849293 16.214147,23.628005 25.255381,25.69682 a 1.7,1.7 0 0 0 2.035156,-1.277343 1.7,1.7 0 0 0 -1.277344,-2.03711 C 18.270256,20.610628 11.704884,14.739785 9.1381932,7.3843201 c 0.03491,0.01482 0.043851,0.0063 0.080078,0.02344 C 16.993098,11.096179 22.342716,16.273821 26.870615,22.208541 a 1.70017,1.70017 0 0 0 0.01953,0.02539 c 0.427406,0.539586 0.78635,0.965047 1.201171,1.333984 0.414822,0.368937 0.994957,0.931561 2.109375,0.710938 0.557209,-0.110312 1.024231,-0.49492 1.263672,-0.826172 0.239441,-0.331252 0.339961,-0.621001 0.417969,-0.894531 0.156016,-0.547061 0.205316,-1.075771 0.248047,-1.732422 v 0.01563 c 0.423688,-5.70759 2.823588,-10.8538939 6.947266,-14.4785159 -0.27061,5.9651489 -1.11509,12.1441469 -4.398438,16.3496099 l 0.03906,-0.04688 c -1.026818,1.22344 -1.492993,2.624875 -1.27539,3.84375 0.21031,1.178023 0.84224,1.938388 1.30664,2.519532 1.773808,2.488073 1.583149,6.052387 0.517579,9.910156 -0.209078,0.729612 -0.105848,0.719138 -1.339844,1.158203 l -5.46875,1.945313 a 1.70017,1.70017 0 0 0 -0.02539,0.0098 c -1.13374,0.424259 -1.666665,0.544198 -2.667968,0.539063 a 1.70017,1.70017 0 0 0 -0.002,0 l -2.93164,-0.01172 c 0.0014,-0.06986 -0.0074,-0.06348 0.002,-0.160156 a 1.70017,1.70017 0 0 0 0.0039,-0.04883 L 22.96631,40.509354 A 1.70017,1.70017 0 0 0 21.519053,38.710492 C 16.366279,37.950138 14.302118,35.583907 14.116709,33.57768 13.9313,31.571452 15.521233,29.009415 20.114756,27.583539 a 1.7,1.7 0 0 0 1.119141,-2.126953 1.7,1.7 0 0 0 -2.126954,-1.11914 c -5.547576,1.722023 -8.747344,5.54684 -8.376953,9.554687 0.335734,3.632832 3.623858,6.567215 8.748047,7.771484 l -0.0293,0.425782 c -0.09116,0.937449 -0.153483,1.933184 0.613281,2.859375 0.765214,0.924316 1.847281,1.030818 2.748047,1.03125 l 2.941407,0.01172 c 1.375705,0.0065 2.549572,-0.260599 3.873046,-0.755859 l 5.441407,-1.935547 c 1.820441,-0.647726 3.057982,-2.000963 3.470703,-3.429687 a 1.70017,1.70017 0 0 0 0.0059,-0.01758 c 1.179328,-4.265007 1.67179,-9.018304 -1.023437,-12.798828 a 1.70017,1.70017 0 0 0 -0.05469,-0.07031 c -0.440267,-0.553888 -0.647924,-0.927167 -0.673828,-1.072266 -0.0259,-0.145099 -0.09558,-0.313687 0.53125,-1.060547 a 1.70017,1.70017 0 0 0 0.03906,-0.04688 c 4.16257,-5.331611 4.907155,-12.431889 5.164062,-18.7128899 a 1.70017,1.70017 0 0 0 0,-0.0039 c 0.02818,-0.739146 0.02106,-1.34986 -0.105469,-1.96875 -0.126532,-0.618893 -0.449994,-1.477887 -1.359375,-1.898438 -0.227345,-0.105137 -0.448547,-0.165516 -0.662109,-0.193359 z M 24.274912,26.253461 a 2.7738576,2.7738576 0 0 0 -2.773437,2.775391 2.7738576,2.7738576 0 0 0 2.773437,2.773437 2.7738576,2.7738576 0 0 0 2.773438,-2.773437 2.7738576,2.7738576 0 0 0 -2.773438,-2.775391 z" fill="#008055"/>
</svg>
