<svg xmlns="http://www.w3.org/2000/svg" width="48" height="48">
	<path d="m 14.271369,2.4590105 c -1.834563,0.02827 -3.369401,0.465408 -4.5371087,1.273437 -1.167709,0.808029 -1.964061,2.053806 -2.025391,3.416016 -0.06133,1.362209 0.649354,2.692227 1.777344,3.5410145 1.1279897,0.848788 2.6335857,1.297547 4.4414057,1.337891 A 1.8,1.8 0 0 0 15.767463,10.269556 1.8,1.8 0 0 0 14.00965,8.4297135 c -1.243731,-0.02776 -2.002766,-0.346894 -2.359375,-0.615235 -0.356608,-0.26834 -0.350261,-0.402653 -0.345703,-0.503906 0.0046,-0.101253 0.04631,-0.318113 0.478516,-0.617188 0.432202,-0.299074 1.260067,-0.614992 2.542969,-0.634765 h 21.773437 c 0.460955,0 0.56013,0.101609 0.541016,0.08398 -0.01911,-0.01763 0.05469,-0.02939 0.05469,0.421875 V 38.546896 a 1.8,1.8 0 0 0 1.798828,1.798828 1.8,1.8 0 0 0 1.800782,-1.798828 V 6.5644785 c 0,-1.129236 -0.373855,-2.292909 -1.214844,-3.068359 -0.84099,-0.77545 -1.939816,-1.037109 -2.980469,-1.037109 H 14.298713 a 1.80018,1.80018 0 0 0 -0.02734,0 z m 5.53125,5.568359 c -0.372525,0 -0.689517,0.0032 -1.048828,0.06055 -0.359311,0.05731 -0.833293,0.190247 -1.236328,0.572265 -0.403035,0.382019 -0.570188,0.891556 -0.628906,1.246094 -0.05872,0.3545375 -0.05664,0.6358865 -0.05664,0.9492185 v 14.072266 a 1.50015,1.50015 0 0 0 1.5,1.5 c 1.085741,0 1.835158,-0.580715 2.417969,-1.140626 0.582811,-0.559909 1.055521,-1.202784 1.478515,-1.8125 0.238138,-0.343257 0.401629,-0.585936 0.597657,-0.878906 0.195735,0.293524 0.359316,0.53758 0.597656,0.88086 0.424158,0.610911 0.897855,1.254241 1.484375,1.814453 0.58652,0.560211 1.341522,1.136719 2.425781,1.136719 a 1.50015,1.50015 0 0 0 1.5,-1.5 V 10.994166 c 0,-0.729535 -0.0074,-1.5351895 -0.705078,-2.2460935 -0.697652,-0.710904 -1.524126,-0.720703 -2.185547,-0.720703 z m 13.13086,0.513672 a 1.8,1.8 0 0 0 -1.800782,1.8007805 v 31.529297 c -0.0413,0.01365 -0.130312,0.07031 -0.478515,0.07031 H 13.343635 c -0.917514,0 -1.990235,-0.830231 -1.990235,-2.40039 V 14.679713 a 1.8,1.8 0 0 0 -1.7988277,-1.800782 1.8,1.8 0 0 0 -1.800781,1.800782 v 24.861328 c 0,3.34184 2.5535977,6 5.5898437,6 h 17.310547 c 0.916562,0 1.859714,-0.161798 2.699218,-0.769531 0.839505,-0.607735 1.38086,-1.738669 1.38086,-2.810547 V 10.341822 A 1.8,1.8 0 0 0 32.933479,8.5410415 Z M 19.831916,11.027369 h 6.001953 V 21.685572 C 25.477878,21.16809 25.136387,20.62847 24.800666,20.160181 24.623971,19.913714 24.45386,19.687893 24.222541,19.455103 c -0.231319,-0.23279 -0.505012,-0.640625 -1.388672,-0.640625 -0.862367,0 -1.152642,0.39904 -1.388672,0.632813 -0.236029,0.233773 -0.406979,0.461327 -0.585937,0.708984 -0.335709,0.46458 -0.67563,0.997221 -1.027344,1.509766 z" fill="#008055"/>
</svg>
