<svg xmlns="http://www.w3.org/2000/svg" width="48" height="48">
	<path d="m 24.411497,2.0161713 c -4.692629,-0.09069 -9.439486,1.310061 -13.472656,4.287109 -1.1523349,0.850585 -2.1993819,1.79442 -3.1367189,2.814453 C 1.2407589,16.257964 0.02994156,27.116791 5.3294661,35.627499 a 1.9,1.9 0 0 0 2.617187,0.609375 1.9,1.9 0 0 0 0.607422,-2.617187 C 3.5269181,25.546383 5.5429251,15.008008 13.1947,9.3599213 c 7.651775,-5.648087 18.314982,-4.469707 24.548828,2.7128907 6.233847,7.182597 5.899162,17.906712 -0.769531,24.6875 -6.668694,6.780787 -17.382465,7.29295 -24.667969,1.179687 a 1.9,1.9 0 0 0 -2.6777339,0.234375 1.9,1.9 0 0 0 0.234375,2.675781 C 18.64007,48.215269 31.650652,47.593705 39.684935,39.424374 47.719218,31.255044 48.123059,18.236 40.612669,9.5825773 36.388075,4.7150283 30.444877,2.1327753 24.411497,2.0161713 Z m 6.832031,8.3046877 a 1.5,1.5 0 0 0 -1.5,1.5 v 24.359374 a 1.5,1.5 0 0 0 1.5,1.5 1.5,1.5 0 0 0 1.5,-1.5 V 11.820859 a 1.5,1.5 0 0 0 -1.5,-1.5 z m -14.458984,3.878906 a 1.5,1.5 0 0 0 -1.5,1.5 v 16.601562 a 1.5,1.5 0 0 0 1.5,1.5 1.5,1.5 0 0 0 1.5,-1.5 V 15.699765 a 1.5,1.5 0 0 0 -1.5,-1.5 z m 10.84375,1.013672 a 1.5,1.5 0 0 0 -1.5,1.5 v 14.574218 a 1.5,1.5 0 0 0 1.5,1.5 1.5,1.5 0 0 0 1.5,-1.5 V 16.713437 a 1.5,1.5 0 0 0 -1.5,-1.5 z m 7.228516,0.791015 a 1.5,1.5 0 0 0 -1.5,1.5 V 30.49664 a 1.5,1.5 0 0 0 1.5,1.5 1.5,1.5 0 0 0 1.5,-1.5 V 17.504452 a 1.5,1.5 0 0 0 -1.5,-1.5 z m -14.458985,0.765625 a 1.5,1.5 0 0 0 -1.5,1.5 v 11.460938 a 1.5,1.5 0 0 0 1.5,1.5 1.5,1.5 0 0 0 1.5,-1.5 V 18.270077 a 1.5,1.5 0 0 0 -1.5,-1.5 z m -7.228515,1.65625 a 1.5,1.5 0 0 0 -1.5,1.5 v 8.148438 a 1.5,1.5 0 0 0 1.5,1.5 1.5,1.5 0 0 0 1.5,-1.5 v -8.148438 a 1.5,1.5 0 0 0 -1.5,-1.5 z m 10.84375,2.082032 a 1.5,1.5 0 0 0 -1.5,1.5 v 3.984374 a 1.5,1.5 0 0 0 1.5,1.5 1.5,1.5 0 0 0 1.5,-1.5 v -3.984374 a 1.5,1.5 0 0 0 -1.5,-1.5 z M 9.6986071,21.193905 a 1.5,1.5 0 0 0 -1.5,1.5 v 2.611328 a 1.5,1.5 0 0 0 1.5,1.5 1.5,1.5 0 0 0 1.4999999,-1.5 v -2.611328 a 1.5,1.5 0 0 0 -1.4999999,-1.5 z m 28.6718739,0 a 1.5,1.5 0 0 0 -1.5,1.5 v 2.611328 a 1.5,1.5 0 0 0 1.5,1.5 1.5,1.5 0 0 0 1.5,-1.5 v -2.611328 a 1.5,1.5 0 0 0 -1.5,-1.5 z" fill="#008055"/>
</svg>
