<svg xmlns="http://www.w3.org/2000/svg" width="48" height="48">
	<path d="m 24.101744,2.1187982 c -3.57272,0.085296 -7.213501,1.0018829 -10.634766,2.7695313 a 1.90019,1.90019 0 0 0 -0.0059,0.00195 C 4.8322022,9.3889231 0.87272616,17.444813 1.910338,26.327783 a 1.90019,1.90019 0 0 0 0.00586,0.04492 c 0.1538376,1.090624 0.399497,1.984428 0.8398438,2.763672 0.4403468,0.779243 1.1659741,1.458792 2.0332031,1.732422 1.727784,0.545153 3.076256,-0.314821 4.070312,-1.080078 C 11.63647,27.71709 13.302646,25.003995 14.019714,23.607078 A 1.90019,1.90019 0 0 0 13.865417,21.62075 c -0.350956,-0.48216 -0.439077,-0.735379 -0.712891,-1.115235 0.459414,0.08482 0.877176,0.195832 1.445313,0.359375 a 1.90019,1.90019 0 0 0 1.652344,-0.296875 c 1.502121,-1.107576 2.701006,-1.578563 4.546874,-2.326172 l 2.445313,0.13086 a 1.90019,1.90019 0 0 0 1.078125,-0.267578 l 3.318359,-1.986328 c -0.08545,0.631718 -0.07153,1.361416 0.460938,2.046875 a 1.90019,1.90019 0 0 0 0.128906,0.15039 c 0.3047,0.317716 0.647384,0.389136 0.980469,0.539063 -3.734125,2.640156 -5.280001,5.943611 -6.816406,9.695312 a 1.90019,1.90019 0 0 0 -0.13086,0.515625 c -0.392049,3.596447 -1.013181,5.900465 -2.265625,8.783203 a 1.9,1.9 0 0 0 0.984375,2.498047 1.9,1.9 0 0 0 2.5,-0.984375 c 1.322319,-3.043568 2.059244,-5.845541 2.490235,-9.503906 1.532053,-3.738005 2.519619,-6.014796 5.685547,-8.125 0.711166,-0.396837 1.486775,-0.858921 2.203124,-1.537109 0.750687,-0.710696 1.444605,-1.73478 1.619141,-3 a 1.90019,1.90019 0 0 0 -2.265625,-2.121094 c -0.499619,0.103058 -0.851466,0.159899 -1.263672,0.238281 0.220277,-0.422336 0.463793,-0.870387 0.648438,-1.455078 0.217077,-0.687392 0.377511,-1.628564 -0.04688,-2.607422 a 1.90019,1.90019 0 0 0 -2.71875,-0.873047 l -6.96484,4.167971 -2.365234,-0.126953 a 1.90019,1.90019 0 0 0 -0.8125,0.136719 c -1.789314,0.724103 -3.284584,1.405453 -4.908203,2.476562 -1.253647,-0.320452 -2.873087,-0.620832 -5.3378908,-0.05664 a 1.90019,1.90019 0 0 0 -1.347656,2.541015 c 0.505857,1.299854 1.20239,2.28988 1.9374998,3.289063 -0.7148518,1.160117 -1.8357028,2.74169 -3.4531248,3.945312 a 1.90019,1.90019 0 0 0 -0.027344,0.02148 C 6.2019282,27.04378 6.0526232,27.100502 6.0236192,27.130513 5.9258502,26.928546 5.7849906,26.546024 5.6857286,25.864892 4.8074807,18.283876 7.7599632,12.150071 15.218932,8.2613764 24.151149,3.6494428 34.189679,5.7020942 39.584166,13.937158 c 3.582924,5.683209 4.801531,15.717143 -2.378906,22.941406 -3.999685,3.808745 -9.699855,5.61697 -15.003907,5.13086 C 16.891007,41.522736 12.073266,38.853683 9.4298692,33.673486 a 1.9,1.9 0 0 0 -2.554687,-0.830078 1.9,1.9 0 0 0 -0.830079,2.556641 c 3.264013,6.396402 9.4153608,9.806465 15.8105468,10.392578 6.395187,0.586112 13.130318,-1.537405 17.990235,-6.175782 a 1.90019,1.90019 0 0 0 0.0332,-0.0332 c 8.58886,-8.615722 7.376342,-20.616782 2.916018,-27.683596 a 1.90019,1.90019 0 0 0 -0.01758,-0.02344 C 38.753348,5.7179965 32.384609,2.4220444 25.627135,2.1324701 25.120324,2.110752 24.612133,2.1066131 24.101744,2.1187982 Z" fill="#008055"/>
</svg>
