<svg xmlns="http://www.w3.org/2000/svg" width="48" height="48">
	<path d="M 22.402344 5.421875 C 21.177148 5.421875 19.987225 5.8587216 19.169922 6.6953125 C 18.352619 7.5319034 17.966797 8.6819875 17.966797 9.8222656 L 17.966797 15.740234 A 1.8 1.8 0 0 0 19.765625 17.541016 A 1.8 1.8 0 0 0 21.566406 15.740234 L 21.566406 9.8222656 C 21.566406 9.4451738 21.660986 9.2960541 21.744141 9.2109375 C 21.827295 9.1258209 21.955769 9.0214844 22.402344 9.0214844 L 42.140625 9.0214844 C 42.769496 9.0214844 43.103444 9.1736009 43.199219 9.25 C 43.294994 9.3263991 43.363281 9.3261025 43.363281 9.8222656 L 43.363281 21.955078 C 43.363281 22.279395 43.304092 22.343354 43.15625 22.466797 C 43.008408 22.59024 42.680844 22.744141 42.140625 22.744141 C 39.977973 22.744141 38.061075 23.666575 37.029297 25.244141 C 36.641864 25.836517 36.510634 26.533008 36.378906 27.222656 C 35.446394 26.403348 34.954268 25.371997 34.925781 24.486328 A 1.8 1.8 0 0 0 33.070312 22.744141 A 1.8 1.8 0 0 0 31.328125 24.601562 C 31.430104 27.772189 33.828574 31.013314 37.888672 31.914062 A 1.80018 1.80018 0 0 0 39.974609 29.554688 C 39.590107 28.473049 39.727832 27.696681 40.042969 27.214844 C 40.358105 26.733007 40.904547 26.34375 42.140625 26.34375 C 43.357436 26.34375 44.540863 26.001961 45.464844 25.230469 C 46.388825 24.458976 46.962891 23.229181 46.962891 21.955078 L 46.962891 9.8222656 C 46.962891 8.5085587 46.413335 7.2077303 45.445312 6.4355469 C 44.477291 5.6633635 43.300864 5.421875 42.140625 5.421875 L 22.402344 5.421875 z M 5.859375 19.064453 C 4.6991361 19.064453 3.5227035 19.305939 2.5546875 20.078125 C 1.5866715 20.850311 1.0371094 22.153096 1.0371094 23.466797 L 1.0371094 35.597656 C 1.0371094 36.871759 1.6111717 38.101558 2.5351562 38.873047 C 3.459141 39.644536 4.6425645 39.986328 5.859375 39.986328 C 7.0954534 39.986328 7.6418941 40.375585 7.9570312 40.857422 C 8.2721684 41.339259 8.4098959 42.115629 8.0253906 43.197266 A 1.80018 1.80018 0 0 0 10.111328 45.556641 C 14.119836 44.667335 17.251665 41.77512 17.365234 38.244141 A 1.8 1.8 0 0 0 15.623047 36.388672 A 1.8 1.8 0 0 0 13.765625 38.128906 C 13.742816 38.838043 12.924642 40.030476 11.646484 40.947266 C 11.51994 40.226201 11.374198 39.503652 10.970703 38.886719 C 9.9389229 37.309153 8.0220266 36.386719 5.859375 36.386719 C 5.3191455 36.386719 4.9915904 36.232816 4.84375 36.109375 C 4.6959096 35.985934 4.6367188 35.921974 4.6367188 35.597656 L 4.6367188 23.466797 C 4.6367188 22.970638 4.7050073 22.968977 4.8007812 22.892578 C 4.8965552 22.816179 5.2305139 22.664062 5.859375 22.664062 L 25.597656 22.664062 C 26.044231 22.664062 26.172703 22.768397 26.255859 22.853516 C 26.339016 22.938634 26.433594 23.089709 26.433594 23.466797 L 26.433594 35.597656 C 26.433594 36.132553 26.330199 36.213988 26.300781 36.242188 C 26.271364 36.270387 26.13145 36.386719 25.597656 36.386719 L 20.578125 36.386719 A 1.8 1.8 0 0 0 18.779297 38.1875 A 1.8 1.8 0 0 0 20.578125 39.986328 L 25.597656 39.986328 C 26.743283 39.986328 27.921888 39.674933 28.791016 38.841797 C 29.660143 38.008661 30.033203 36.795559 30.033203 35.597656 L 30.033203 23.466797 C 30.033203 22.326515 29.647384 21.174479 28.830078 20.337891 C 28.012772 19.501302 26.822852 19.064453 25.597656 19.064453 L 5.859375 19.064453 z " fill="#008055"/>
</svg>
