<svg xmlns="http://www.w3.org/2000/svg" width="48" height="48">
	<path d="m 28.045967,0.85978916 c -0.277815,0.00391 -0.525772,0.060302 -0.697266,0.125 C 27.005714,1.1141845 26.812745,1.258402 26.626045,1.3988517 a 1.70017,1.70017 0 0 0 -0.01953,0.013672 c -2.37841,1.840861 -4.131985,3.8188202 -5.408204,5.9355467 -1.27617,2.116534 -2.070281,4.3559456 -2.607422,6.6953126 a 1.7,1.7 0 0 0 1.277344,2.037109 1.7,1.7 0 0 0 2.037109,-1.27539 c 0.480259,-2.091633 1.151295,-3.956706 2.203125,-5.7011721 0.629748,-1.044495 1.466353,-2.0459276 2.429688,-3.0332032 -0.173628,2.4166187 -0.668935,5.0209773 -1.580079,7.3066403 -4.92e-4,0.0012 4.92e-4,0.0027 0,0.0039 -5.08e-4,0.0013 -0.0014,0.0026 -0.002,0.0039 -0.505689,1.2524 -0.61459,2.589245 0.140625,3.902344 7.86e-4,0.0014 0.0012,0.0025 0.002,0.0039 0,0 0,0.002 0,0.002 0.942391,1.647453 1.144595,3.270552 1.164063,4.775391 a 1.70017,1.70017 0 0 0 0.002,0.05469 c 0.0371,0.810332 0.319002,1.572484 0.679688,2.109375 0.360685,0.536891 0.721999,0.863882 0.998046,1.160156 a 1.70017,1.70017 0 0 0 0.101563,0.09961 c 1.551113,1.407249 1.974559,3.386422 1.626953,4.351562 -0.170928,0.462986 -0.808967,1.855752 -5.53125,2.960938 -1.443329,0.272364 -2.724065,0.265336 -4.128906,-0.230469 -0.855767,-0.351704 -1.832112,-0.839776 -2.527344,-1.375 -0.694141,-0.534384 -0.992465,-1.027221 -1.039062,-1.363281 -0.01525,-0.329391 0.03163,-0.505944 0.203124,-0.820313 0.182073,-0.333753 0.53483,-0.781949 0.927735,-1.423828 a 1.70017,1.70017 0 0 0 0.0059,-0.0098 c 0.83579,-1.385904 0.658485,-2.917805 0.28711,-3.992187 l 0.01953,0.06445 c -0.452611,-1.498139 -0.6826,-2.836048 -0.578125,-4.816406 v -0.002 c 0.07975,-1.493159 -0.60758,-2.822197 -1.53711,-3.642578 -1.101658,-0.987016 -2.068599,-2.434563 -2.876953,-4.060547 1.253869,0.735259 2.479554,1.545807 2.94336,2 a 1.7,1.7 0 0 0 2.40421,-0.02536 1.7,1.7 0 0 0 -0.02539,-2.404297 C 16.7522,9.2682739 13.987761,7.3419621 11.395576,6.6547111 11.214416,6.606679 11.021957,6.5528759 10.747139,6.5160392 10.47232,6.4792025 10.06092,6.4088636 9.4756544,6.6957267 8.8903886,6.9825898 8.4682862,7.7385721 8.4033888,8.2113517 8.3384913,8.6841313 8.407739,8.992713 8.4815138,9.3129142 a 1.70017,1.70017 0 0 0 0.00586,0.025391 c 0.890466,3.6084988 2.8722162,6.4665628 5.0175782,8.3886718 a 1.70017,1.70017 0 0 0 0.01563,0.01367 c 0.289885,0.253377 0.419099,0.460017 0.394532,0.916016 a 1.70017,1.70017 0 0 0 0,0.002 c -0.124372,2.35241 0.18742,4.219819 0.71875,5.978516 a 1.70017,1.70017 0 0 0 0.02148,0.06445 c 0.183623,0.531218 0.186591,0.841504 0.01563,1.125 -0.245489,0.399109 -0.634085,0.871892 -1.009766,1.560547 -0.377981,0.692871 -0.694366,1.659049 -0.61914,2.736328 a 1.70017,1.70017 0 0 0 0.0059,0.07227 c 0.188774,1.664021 1.262758,2.853485 2.361328,3.699218 1.098571,0.845734 2.324755,1.428609 3.357422,1.84961 a 1.70017,1.70017 0 0 0 0.07031,0.02539 c 2.072065,0.740684 4.099064,0.730053 5.96875,0.373047 a 1.70017,1.70017 0 0 0 0.06641,-0.01367 c 5.398139,-1.254053 7.396008,-3.494791 7.992187,-5.113281 a 1.70017,1.70017 0 0 0 0.0039,-0.0078 C 33.846967,28.307929 32.74877,25.170209 30.32917,22.975024 l 0.101563,0.09961 C 30.074789,22.692609 29.847679,22.45889 29.76667,22.338306 29.68566,22.217722 29.67297,22.22428 29.661201,21.967212 l 0.002,0.05664 C 29.640021,20.232067 29.374474,17.91621 28.046013,15.59807 a 1.70017,1.70017 0 0 0 -0.002,-0.0059 c 0.04103,0.07109 -0.06508,-0.61495 0.06641,-0.939453 a 1.70017,1.70017 0 0 0 0.0039,-0.0078 C 29.544973,11.059415 30.53218,6.7147613 30.053776,2.8969005 30.025826,2.6738353 29.993576,2.4505209 29.877995,2.1449474 29.762417,1.8393739 29.511708,1.3505572 28.92487,1.0531505 28.631451,0.90444716 28.323779,0.85587946 28.045964,0.85979106 Z M 23.772529,17.588305 a 2.0453789,2.0453789 0 0 0 -2.046874,2.044922 2.0453789,2.0453789 0 0 0 2.046874,2.044921 2.0453789,2.0453789 0 0 0 2.044922,-2.044921 2.0453789,2.0453789 0 0 0 -2.044922,-2.044922 z m -4.179687,0.828125 a 2.0453789,2.0453789 0 0 0 -2.044922,2.044922 2.0453789,2.0453789 0 0 0 2.044922,2.044922 2.0453789,2.0453789 0 0 0 2.046875,-2.044922 2.0453789,2.0453789 0 0 0 -2.046875,-2.044922 z m 15.417969,11.005859 a 1.7,1.7 0 0 0 -1.679688,1.490235 1.7,1.7 0 0 0 1.476563,1.896484 l 2.537109,0.316406 a 1.70017,1.70017 0 0 0 0.144531,0.01367 c 0.517717,0.02012 0.740797,0.161767 0.794922,0.208984 0.05413,0.04722 0.02393,-0.02159 0.02148,0.04688 -0.0049,0.13694 -0.343832,1.028777 -1.960938,1.736329 a 1.70017,1.70017 0 0 0 -0.05078,0.02344 c -1.278948,0.610515 -2.884705,0.884331 -4.640625,0.345703 a 1.7,1.7 0 0 0 -2.125,1.126953 1.7,1.7 0 0 0 1.126953,2.125 c 2.623592,0.804787 5.132695,0.398275 7.074219,-0.521484 2.35987,-1.040075 3.902726,-2.700893 3.974609,-4.712891 0.03608,-1.009843 -0.408713,-2.056436 -1.183594,-2.732422 -0.77488,-0.675985 -1.795757,-1.001992 -2.90039,-1.044922 l 0.144531,0.01172 -2.535156,-0.316406 a 1.7,1.7 0 0 0 -0.21875,-0.01367 z m -24.722656,0.470703 c -0.4365641,-1.54e-4 -0.934946,0.05262 -1.458985,0.228516 -1.5622909,0.521696 -2.7357063,1.796499 -2.9179687,3.423828 -0.1823666,1.62826 1.0180873,3.366727 2.8867187,4.035156 a 1.70017,1.70017 0 0 0 0.00781,0.002 c 2.604791,0.917674 4.414405,0.969243 6.716796,0.779297 a 1.7,1.7 0 0 0 1.554688,-1.833984 1.7,1.7 0 0 0 -1.833984,-1.554688 c -2.171317,0.179132 -3.062498,0.191821 -5.3046876,-0.597656 -0.00346,-0.0012 -4.79e-4,0.0012 -0.00391,0 C 9.09298,34.071515 9.2806283,34.008878 9.2901075,33.924242 c 0.00958,-0.08556 0.2062166,-0.443108 0.6171874,-0.580078 a 1.70017,1.70017 0 0 0 0.00391,0 c 0.3073621,-0.103375 0.3941361,-0.07295 1.0234381,0.0098 a 1.7,1.7 0 0 0 1.908199,-1.462925 1.7,1.7 0 0 0 -1.464844,-1.908203 c -0.278536,-0.03661 -0.65328,-0.08969 -1.089843,-0.08984 z m 31.029296,7.566406 a 1.7,1.7 0 0 0 -0.679687,0.13086 1.7,1.7 0 0 0 -0.914063,2.222656 c 0.551345,1.322854 0.575672,2.577249 0.382813,3.09961 -0.09643,0.26118 -0.178738,0.339282 -0.306641,0.410156 -0.127903,0.07087 -0.38444,0.159127 -0.941406,0.08008 a 1.70017,1.70017 0 0 0 -0.0059,-0.002 C 29.090629,42.044068 20.698743,41.661118 9.2803419,43.69768 a 1.70017,1.70017 0 0 0 -0.00195,0 C 8.7112214,43.799473 8.428575,43.71592 8.26667,43.62932 8.1047651,43.54272 7.993355,43.428117 7.8877638,43.148852 7.6765814,42.59032 7.7225169,41.358046 8.4248731,40.117602 A 1.7,1.7 0 0 0 7.782295,37.799242 1.7,1.7 0 0 0 5.4658888,38.44182 c -1.1005237,1.943656 -1.4557314,4.064313 -0.7578125,5.910157 0.3489594,0.922921 1.019432,1.774931 1.9550781,2.27539 0.9351058,0.500171 2.0654766,0.623875 3.2148435,0.417969 11.0655511,-1.973628 18.9144731,-1.609526 28.5019531,-0.277344 1.101973,0.156401 2.175075,0.02233 3.06836,-0.472656 0.893284,-0.494989 1.523374,-1.326759 1.847656,-2.205078 0.648563,-1.756639 0.351896,-3.701292 -0.433594,-5.585938 a 1.7,1.7 0 0 0 -1.544922,-1.044922 z" fill="#008055"/>
</svg>
