<svg xmlns="http://www.w3.org/2000/svg" width="48" height="48">
	<path d="m 33.423895,1.2174822 a 1.90019,1.90019 0 0 0 -0.724609,0.1601563 c -1.34685,0.5925562 -2.784846,1.5872673 -3.865234,2.9375 l 0.02734,-0.033203 c -0.328777,0.392321 -0.554742,0.6083838 -0.671875,0.7207032 -0.04698,-0.00972 -0.06013,-0.013048 -0.230468,-0.042969 0,0 -0.002,0 -0.002,0 C 24.544807,4.3498575 17.338075,4.5219081 11.277411,9.463576 a 1.9,1.9 0 0 0 -0.271485,2.673828 1.9,1.9 0 0 0 2.671875,0.271484 C 18.569316,8.4205075 25.049946,8.299447 27.28913,8.6999041 a 1.90019,1.90019 0 0 0 0.0039,0 c 0.642532,0.1136697 1.554374,0.2517955 2.460938,-0.171875 0.906563,-0.4236705 1.359989,-1.0196264 2.019531,-1.8066406 a 1.90019,1.90019 0 0 0 0.02734,-0.033203 c 0.02118,-0.02647 0.133534,-0.09234 0.167969,-0.1269531 0.02591,0.059362 0.04064,0.1576139 0.06641,0.2128907 a 1.90019,1.90019 0 0 0 0.8125,0.8652343 c -0.195597,1.1954847 -0.195877,2.3215739 0.0332,3.4238276 a 1.90019,1.90019 0 0 0 0.417968,0.84961 c 2.441543,2.845761 3.835944,6.447797 4.742188,10.263671 a 1.90019,1.90019 0 0 0 0.226562,0.554688 c 0.691899,1.130555 1.299923,2.121427 1.486329,2.802734 0.183372,0.670228 0.216732,0.930003 -0.421876,1.691407 -0.344433,0.373961 -0.37313,0.316666 -0.839843,0.107421 -0.480995,-0.215645 -1.104897,-0.877245 -1.306641,-1.40625 A 1.90019,1.90019 0 0 0 35.88873,24.764357 c -0.576101,-0.149995 -1.936563,-0.842782 -3.121094,-1.664062 -1.18453,-0.82128 -2.311069,-1.833658 -2.660156,-2.271485 l 0.07031,0.0918 c -0.67877,-0.966673 -2.025647,-1.370168 -2.867188,-1.265625 -0.841541,0.104544 -1.380276,0.427898 -1.679687,0.59375 a 1.90019,1.90019 0 0 0 -0.109375,0.06641 c -1.201945,0.776013 -1.880785,2.084963 -2.056641,3.285157 -0.175856,1.200193 0.01469,2.338571 0.308594,3.40039 0.587808,2.123639 1.645113,3.977857 2.246093,4.929688 a 1.90019,1.90019 0 0 0 0.0039,0.0059 c 1.867929,2.941561 4.109684,6.826222 2.921875,10.201172 -0.205477,0.556012 -0.864478,0.915302 -1.728516,0.837891 -1.925092,-0.192795 -7.444556,-1.385377 -11.191406,-4.244141 -1.875632,-1.431066 -3.315728,-3.210721 -3.958985,-5.513672 -0.643257,-2.30295 -0.532971,-5.239434 1.126953,-9.15625 a 1.9,1.9 0 0 0 -1.007812,-2.490234 1.9,1.9 0 0 0 -2.4902345,1.007812 c -1.9089959,4.504534 -2.195715,8.416166 -1.2890626,11.66211 0.9066527,3.245943 2.9629311,5.717559 5.3144531,7.511718 4.703044,3.588319 10.537906,4.748023 13.132813,5.00586 a 1.90019,1.90019 0 0 0 0.01563,0 c 2.281729,0.208198 4.783096,-0.918235 5.65625,-3.337891 a 1.90019,1.90019 0 0 0 0.0039,-0.01172 c 1.933488,-5.475183 -1.412667,-10.53881 -3.296875,-13.505859 l -0.002,-0.002 c 0,0 0,-0.002 0,-0.002 -0.450371,-0.713764 -1.381726,-2.419312 -1.794922,-3.91211 -0.206807,-0.747155 -0.270186,-1.431574 -0.210937,-1.835937 0.05426,-0.370327 0.128211,-0.45166 0.328125,-0.589844 0.815366,0.91302 1.819788,1.80997 3.048828,2.66211 1.152361,0.798975 2.344597,1.458626 3.560547,1.90625 0.65148,1.138867 1.542087,2.118941 2.77539,2.671874 1.548681,0.694329 3.819364,0.515952 5.230469,-1.037109 a 1.90019,1.90019 0 0 0 0.04297,-0.04883 C 43.56681,28.119831 43.842488,26.083303 43.418036,24.531935 43.022534,23.08638 42.260548,21.998404 41.640692,21.004592 40.704052,17.168449 39.231209,13.296946 36.582098,9.9909197 36.349762,8.7126494 36.412425,7.9037276 37.361395,5.7897479 A 1.90019,1.90019 0 0 0 35.363348,3.1315447 1.90019,1.90019 0 0 0 33.423895,1.2174822 Z M 16.669989,12.145217 a 1.9,1.9 0 0 0 -0.761719,0.15039 c -0.466599,0.197213 -2.631394,0.827631 -4.869141,2.371094 -2.2377456,1.543463 -4.7016308,4.102928 -6.4863277,8.255859 a 1.9,1.9 0 0 0 0.9960938,2.496094 1.9,1.9 0 0 0 2.4960937,-0.996094 c 1.5141031,-3.523268 3.4346152,-5.442166 5.1523442,-6.626953 1.717729,-1.184787 3.079905,-1.530213 4.191406,-2 a 1.9,1.9 0 0 0 1.009766,-2.490234 1.9,1.9 0 0 0 -1.728516,-1.160156 z" fill="#008055"/>
</svg>
