<svg xmlns="http://www.w3.org/2000/svg" width="48" height="48">
	<path d="M 38.072896,1.1366964 C 34.607033,1.2388933 31.163672,3.0856187 27.895162,5.5448995 23.537148,8.8239409 19.218737,13.369428 14.983052,17.511697 a 1.8,1.8 0 0 0 -0.0293,2.544921 1.8,1.8 0 0 0 2.544922,0.0293 c 4.297715,-4.202931 8.575608,-8.665728 12.560547,-11.6640621 3.700693,-2.784463 6.89321,-4.066903 9.664063,-3.449219 1.135216,1.895969 1.603774,3.651059 0.304687,6.4179691 -1.392566,2.96601 -5.130818,7.084282 -12.503906,12.417968 -1.701685,-0.555555 -3.144481,-0.725229 -4.289063,-0.318359 a 1.8,1.8 0 0 0 -1.09375,2.298828 1.8,1.8 0 0 0 2.298829,1.09375 c -1.7e-5,6e-6 1.05409,-0.174826 2.767578,0.550781 a 1.80018,1.80018 0 0 0 1.746093,-0.191406 C 37.060387,21.479558 41.372303,16.995408 43.285787,12.9199 45.199271,8.8443919 44.306068,5.1345226 42.453755,2.3613058 a 1.80018,1.80018 0 0 0 -0.912109,-0.703125 c -1.154118,-0.3954384 -2.313462,-0.55555 -3.46875,-0.5214844 z m -0.763672,5.8496095 a 1.8,1.8 0 0 0 -0.873047,0.222656 C 24.439712,13.806417 10.067547,27.560084 3.7603961,44.437478 A 1.8,1.8 0 0 0 4.8170368,46.753884 1.8,1.8 0 0 0 7.133443,45.697243 C 13.030272,29.917837 26.980177,16.517404 38.170552,10.363259 A 1.8,1.8 0 0 0 38.88149,7.9198999 1.8,1.8 0 0 0 37.309224,6.9863059 Z M 11.389302,20.085915 A 1.8,1.8 0 0 0 9.7154742,21.38279 C 9.4360619,22.341787 9.110564,23.984472 8.8170368,25.699197 a 1.8,1.8 0 0 0 1.4687502,2.078124 1.8,1.8 0 0 0 2.078125,-1.470703 c 0.280132,-1.636476 0.647033,-3.370165 0.80664,-3.917968 a 1.8,1.8 0 0 0 -1.224609,-2.230469 1.8,1.8 0 0 0 -0.556641,-0.07227 z m 12.083985,8.28125 a 1.8,1.8 0 0 0 -0.664063,0.146485 c -1.91104,0.822425 -2.72566,0.884687 -4.9375,1.447265 a 1.8,1.8 0 0 0 -1.300781,2.189453 1.8,1.8 0 0 0 2.1875,1.300782 c 2.06104,-0.524222 3.267556,-0.681885 5.472656,-1.63086 a 1.8,1.8 0 0 0 0.94336,-2.365234 1.8,1.8 0 0 0 -1.701172,-1.087891 z" fill="#008055"/>
</svg>
