<svg xmlns="http://www.w3.org/2000/svg" width="48" height="48">
	<path d="m 26.276367,5.777344 c -1.276973,0 -2.470059,0.602578 -3.164062,1.33789 -0.694003,0.735312 -1.026796,1.479646 -1.326172,2.041016 -0.299376,0.56137 -0.545987,0.928803 -0.738281,1.097656 -0.192295,0.168853 -0.306301,0.269532 -0.917969,0.269532 a 1.9,1.9 0 0 0 -1.900391,1.898437 1.9,1.9 0 0 0 1.900391,1.900391 c 1.369992,0 2.604766,-0.491963 3.425781,-1.212891 0.821015,-0.720928 1.250673,-1.541011 1.583985,-2.166016 0.333311,-0.625005 0.590537,-1.066234 0.736328,-1.220703 0.145791,-0.154469 0.04273,-0.146484 0.40039,-0.146484 h 6.146485 c 0.506351,0 0.413235,0.0285 0.511718,0.134766 0.09848,0.10626 0.305319,0.488743 0.574219,1.101562 0.268901,0.612819 0.614332,1.463164 1.41211,2.234375 0.797778,0.771211 2.058101,1.275391 3.441406,1.275391 h 1.621094 c 1.006597,0 1.49821,0.236367 1.771484,0.501953 0.273274,0.265586 0.517578,0.71733 0.517578,1.767578 v 19.541015 c 0,0.824653 -0.235728,1.350193 -0.566406,1.69336 -0.330679,0.343166 -0.811371,0.597656 -1.722656,0.597656 H 8.62793 c -1.1367905,0 -1.8857269,-0.268102 -2.2714845,-0.580078 C 5.9706879,37.531774 5.7255861,37.164719 5.7255861,36.132812 V 16.591797 c 0,-0.792758 0.2385355,-1.224513 0.6816407,-1.599609 C 6.8503317,14.61709 7.5943205,14.322266 8.62793,14.322266 h 5.765625 a 1.9,1.9 0 0 0 1.900391,-1.900391 1.9,1.9 0 0 0 -1.900391,-1.898437 H 8.62793 c -1.7576809,0 -3.4161489,0.502056 -4.6757814,1.568359 -1.2596324,1.066303 -2.0253906,2.718358 -2.0253906,4.5 v 19.541015 c 0,1.883094 0.7348351,3.611242 2.0390625,4.666016 1.3042274,1.054774 2.9566595,1.423828 4.6621095,1.423828 h 31.355469 c 1.744544,0 3.35916,-0.618407 4.458984,-1.759765 1.099824,-1.141359 1.630859,-2.71083 1.630859,-4.330079 V 16.591797 c 0,-1.740552 -0.515737,-3.372427 -1.669922,-4.494141 -1.154183,-1.121714 -2.758529,-1.574218 -4.419921,-1.574218 h -1.621094 c -0.64093,0 -0.678126,-0.09041 -0.800781,-0.208985 C 37.438869,10.195883 37.24093,9.860666 36.989258,9.287109 36.737586,8.713553 36.447849,7.910473 35.72168,7.126953 34.99551,6.343433 33.749175,5.777344 32.422852,5.777344 Z m 3.03125,9.9375 c -3.558735,-0.06999 -7.054356,1.7554 -8.935547,5.048828 -2.617889,4.583181 -1.107288,10.334365 3.214844,13.228516 a 1.7999953,1.8000047 85.028494 0 0 0.517578,0.453124 1.7999953,1.8000047 85.028494 0 0 0.0039,0.0039 1.7999953,1.8000047 85.028494 0 0 0.0098,0.0059 1.7999953,1.8000047 85.028494 0 0 0.0059,0.002 1.7999953,1.8000047 85.028494 0 0 0.640625,0.208985 c 4.6919,2.253712 10.418081,0.628903 13.033203,-3.958985 2.731976,-4.792894 1.047551,-10.947529 -3.744141,-13.68164 -1.497404,-0.85441 -3.128486,-1.278732 -4.746094,-1.310547 z M 8.3525392,18.595703 a 1.8,1.8 0 0 0 -1.7636718,1.326172 1.8,1.8 0 0 0 1.2617187,2.210937 c 0.5735309,0.156647 0.6801989,0.286205 0.8437499,0.589844 0.163551,0.303639 0.302734,0.910286 0.302734,1.789063 v 4.089843 c 0,0.903265 -0.127304,1.500391 -0.269531,1.769532 -0.142227,0.269141 -0.218278,0.391508 -0.8691404,0.566406 a 1.8,1.8 0 0 0 -1.2714844,2.205078 1.8,1.8 0 0 0 2.2050778,1.271484 c 1.368738,-0.367802 2.52766,-1.245743 3.117188,-2.361328 0.589528,-1.115584 0.689453,-2.284835 0.689453,-3.451172 v -4.089843 c 0,-1.201724 -0.139621,-2.391908 -0.734375,-3.496094 -0.594754,-1.104186 -1.724584,-1.991468 -3.064453,-2.357422 a 1.8,1.8 0 0 0 -0.4472658,-0.0625 z m 20.8652348,0.703125 c 1.035615,0.024 2.083253,0.300335 3.052734,0.853516 3.102341,1.770178 4.167231,5.666416 2.398438,8.769531 -1.768794,3.103115 -5.663651,4.171689 -8.767579,2.404297 a 1.7999953,1.8000047 85.028494 0 1 -0.002,-0.002 1.7999953,1.8000047 85.028494 0 0 -0.0059,-0.002 1.7999953,1.8000047 85.028494 0 1 -0.002,-0.002 c -3.100751,-1.772959 -4.164155,-5.669957 -2.392578,-8.771484 1.217958,-2.1323 3.440395,-3.302791 5.71875,-3.25 z" fill="#008055"/>
</svg>
