<svg xmlns="http://www.w3.org/2000/svg" width="48" height="48">
	<path d="m 23.821662,4.880348 c -1.272616,0.024328 -2.361718,0.8299873 -2.953125,1.8457031 a 2.0002,2.0002 0 0 0 -0.0078,0.011719 L 1.7044745,40.124489 a 2,2 0 0 0 0.7382813,2.730468 2,2 0 0 0 2.7304687,-0.740234 L 23.884162,9.5073011 42.831427,42.124489 a 2,2 0 0 0 2.734375,0.724609 2,2 0 0 0 0.72461,-2.734375 L 26.89588,6.7280042 a 2.0002,2.0002 0 0 0 -0.0098,-0.015625 C 26.26433,5.6646115 25.094278,4.8560196 23.821662,4.880348 Z m -2.167969,20.166015 a 1.8,1.8 0 0 0 -1.798828,1.798829 v 14.357421 a 1.8,1.8 0 0 0 1.798828,1.798829 1.8,1.8 0 0 0 1.800781,-1.798829 V 26.845192 a 1.8,1.8 0 0 0 -1.800781,-1.798829 z m -5.087891,3.699219 a 1.8,1.8 0 0 0 -1.800781,1.798828 v 10.658203 a 1.8,1.8 0 0 0 1.800781,1.798829 1.8,1.8 0 0 0 1.800782,-1.798829 V 30.54441 a 1.8,1.8 0 0 0 -1.800782,-1.798828 z m 10.392578,0 a 1.8,1.8 0 0 0 -1.800781,1.798828 v 10.658203 a 1.8,1.8 0 0 0 1.800781,1.798829 1.8,1.8 0 0 0 1.798829,-1.798829 V 30.54441 A 1.8,1.8 0 0 0 26.95838,28.745582 Z m -15.373046,6.931641 a 1.8,1.8 0 0 0 -1.8007817,1.800781 v 3.724609 a 1.8,1.8 0 0 0 1.8007817,1.798829 1.8,1.8 0 0 0 1.798828,-1.798829 v -3.724609 a 1.8,1.8 0 0 0 -1.798828,-1.800781 z m 20.353515,0 a 1.8,1.8 0 0 0 -1.800781,1.800781 v 3.724609 a 1.8,1.8 0 0 0 1.800781,1.798829 1.8,1.8 0 0 0 1.800781,-1.798829 v -3.724609 a 1.8,1.8 0 0 0 -1.800781,-1.800781 z m 5.185547,3.24414 a 2.0358098,2.0358098 0 0 0 -2.035156,2.03711 2.0358098,2.0358098 0 0 0 2.035156,2.035156 2.0358098,2.0358098 0 0 0 2.03711,-2.035156 2.0358098,2.0358098 0 0 0 -2.03711,-2.03711 z" fill="#008055"/>
</svg>
