<svg xmlns="http://www.w3.org/2000/svg" width="48" height="48">
	<path d="m 12.544899,12.182119 c -3.36973,-0.02257 -6.7095112,1.388607 -8.947266,3.980469 a 1.80018,1.80018 0 0 0 -0.041016,0.04883 c -4.02539385,5.000411 -3.76579365,11.970003 1.1816406,16.521485 4.580866,4.221045 12.4419864,4.172656 17.6894534,-2.00586 A 1.8,1.8 0 0 0 22.22068,28.189932 1.8,1.8 0 0 0 19.68357,28.39501 c -4.162392,4.900919 -9.383744,4.56724 -12.5058589,1.689453 a 1.80018,1.80018 0 0 0 -0.00195,0 C 3.4572839,26.663586 3.3383658,22.260461 6.3417736,18.502432 7.825282,16.796179 10.204777,15.766226 12.519508,15.781729 c 2.322785,0.01556 4.494997,0.964513 5.943359,3.253906 a 1.80018,1.80018 0 0 0 0.0039,0.0059 c 3.129062,4.903169 4.905545,7.157907 7.970703,11.960938 a 1.80018,1.80018 0 0 0 0.03516,0.05273 c 4.451757,6.464054 13.51223,5.921897 17.802734,0.935547 3.889204,-4.480776 4.331842,-12.075868 -0.976562,-16.876953 a 1.80018,1.80018 0 0 0 -0.05273,-0.04492 c -2.493576,-2.088043 -5.668623,-2.966385 -8.785156,-2.427734 -3.116532,0.538651 -6.127157,2.452185 -8.513672,5.613281 a 1.8,1.8 0 0 0 0.351563,2.519531 1.8,1.8 0 0 0 2.521484,-0.351562 c 1.935506,-2.563705 4.157137,-3.870023 6.253907,-4.232422 2.084372,-0.360256 4.089362,0.178615 5.828124,1.621094 3.809748,3.472619 3.320072,8.754545 0.652344,11.824218 a 1.80018,1.80018 0 0 0 -0.0059,0.0078 C 38.842193,32.790385 32.519096,33.488816 29.437438,29.014177 26.335512,24.158157 24.552732,21.886901 21.503844,17.10988 19.394426,13.775572 15.91459,12.204714 12.54486,12.182145 Z m 23.078125,5.75586 a 1.7,1.7 0 0 0 -1.699219,1.701172 v 2.714843 h -3.210938 a 1.7,1.7 0 0 0 -1.699218,1.701172 1.7,1.7 0 0 0 1.699218,1.699219 h 3.210938 v 2.716797 a 1.7,1.7 0 0 0 1.699219,1.699219 1.7,1.7 0 0 0 1.701172,-1.699219 v -2.716797 h 3.210937 a 1.7,1.7 0 0 0 1.699219,-1.699219 1.7,1.7 0 0 0 -1.699219,-1.701172 h -3.210937 v -2.714843 a 1.7,1.7 0 0 0 -1.701172,-1.701172 z m -28.13086,4.416015 a 1.7,1.7 0 0 0 -1.6992185,1.701172 1.7,1.7 0 0 0 1.6992185,1.699219 h 9.820313 a 1.7,1.7 0 0 0 1.701172,-1.699219 1.7,1.7 0 0 0 -1.701172,-1.701172 z" fill="#008055"/>
</svg>
