<svg xmlns="http://www.w3.org/2000/svg" width="48" height="48">
	<path d="M 24.411462,1.9161577 C 19.697466,1.8247813 14.92947,3.2324346 10.878259,6.2227983 9.7207714,7.0771882 8.6694104,8.0262692 7.7278684,9.0509232 1.1370794,16.223503 -0.07778154,27.131053 5.2454474,35.679829 a 2,2 0 0 0 2.753906,0.640625 2,2 0 0 0 0.640625,-2.753906 C 3.6399124,25.53675 5.6427194,15.059199 13.253259,9.4415482 20.8638,3.8238978 31.467069,4.994923 37.667322,12.138814 c 6.200253,7.143891 5.869084,17.806534 -0.763672,24.550781 -6.632757,6.744246 -17.288914,7.254148 -24.535156,1.173828 a 2,2 0 0 0 -2.8164066,0.248047 2,2 0 0 0 0.246094,2.816406 C 18.614842,48.325934 31.684993,47.700154 39.755212,39.494282 47.825432,31.288411 48.232789,18.209849 40.688806,9.5177202 36.445316,4.6283985 30.472315,2.0336417 24.411462,1.9161577 Z M 32.8099,14.466939 c -0.215398,-0.0042 -0.434129,0.0026 -0.654297,0.01953 -1.858408,0.130289 -3.219405,1.426447 -3.800781,3.052734 -0.5822,1.628591 -0.178772,3.808002 1.435546,5.28125 0,0 0,0.002 0,0.002 2.283215,2.095127 2.545895,2.346151 4.792969,4.210937 0,0 0,0.002 0,0.002 0.667902,0.606434 0.446512,1.887299 -0.234375,2.365234 -0.67626,0.474677 -2.315655,0.201107 -2.824218,-0.626953 C 29.552363,24.95168 28.364075,23.10065 26.42904,19.339986 a 1.90019,1.90019 0 0 0 -0.03125,-0.05859 c -1.541614,-2.751881 -4.263097,-4.181628 -6.923828,-4.408203 -2.660731,-0.226575 -5.33861,0.614203 -7.279297,2.396484 a 1.90019,1.90019 0 0 0 -0.03711,0.0332 c -3.4284366,3.319248 -4.2428496,8.954632 -0.595703,12.986328 1.621283,1.795223 3.805432,2.953838 6.189453,3.119141 2.38454,0.165339 4.897128,-0.674943 7.138672,-2.492187 A 1.9,1.9 0 0 0 25.169275,28.244282 1.9,1.9 0 0 0 22.4974,27.964986 c -1.627156,1.319154 -3.141166,1.745479 -4.484375,1.652343 -1.34321,-0.09314 -2.585551,-0.717191 -3.63086,-1.875 a 1.90019,1.90019 0 0 0 -0.002,-0.002 c -2.352713,-2.600779 -1.803005,-5.529435 0.398438,-7.679687 1.053308,-0.9604 2.770363,-1.536868 4.373047,-1.400391 1.608244,0.13695 3.019401,0.853597 3.929687,2.478516 1.99399,3.86935 3.180244,5.706881 5.126953,9.490234 a 1.90019,1.90019 0 0 0 0.06641,0.119141 c 1.755085,2.880849 5.568211,3.651537 8.257812,1.763672 2.685622,-1.88512 3.178941,-5.961218 0.599609,-8.294922 a 1.90019,1.90019 0 0 0 -0.06055,-0.05469 C 34.7562,22.24164 34.680648,22.153876 32.354822,20.019673 a 1.90019,1.90019 0 0 0 -0.0039,-0.0039 c -0.628556,-0.573236 -0.542581,-0.848685 -0.417968,-1.197266 0.124613,-0.348581 0.493231,-0.545258 0.488281,-0.544922 a 1.90019,1.90019 0 0 0 0.01953,-0.002 c 0.648687,-0.05104 1.403919,0.288719 1.605469,0.488282 a 1.9,1.9 0 0 0 2.6875,-0.01367 1.9,1.9 0 0 0 -0.01367,-2.6875 C 35.692557,15.041372 34.317684,14.496432 32.8099,14.466939 Z" fill="#008055"/>
</svg>
