<svg xmlns="http://www.w3.org/2000/svg" width="48" height="48">
	<path d="m 22.990614,2.8995095 a 1.90019,1.90019 0 0 0 -0.117187,0.00195 1.90019,1.90019 0 0 0 -1.648438,1.0976562 C 16.105278,15.02532 10.251099,24.679862 3.2992084,32.227635 a 1.9,1.9 0 0 0 0.1113281,2.683594 1.9,1.9 0 0 0 2.6835937,-0.109375 C 11.897079,28.501504 16.862094,20.884272 21.283583,12.407322 c -0.009,0.714008 0.05216,1.345716 -0.01953,2.140625 a 1.9,1.9 0 0 0 1.722656,2.0625 1.9,1.9 0 0 0 2.0625,-1.720703 C 25.422601,10.749735 24.921691,7.8594847 24.848036,4.7549782 A 1.90019,1.90019 0 0 0 22.990614,2.8995095 Z M 42.514052,6.2002907 A 1.9,1.9 0 0 0 41.033583,6.9366188 C 36.324812,13.003055 27.685712,17.487488 19.62538,19.499119 a 1.9,1.9 0 0 0 -1.382812,2.302735 1.9,1.9 0 0 0 2.304687,1.382812 C 29.251643,21.012297 38.529507,16.360262 44.035536,9.266697 A 1.9,1.9 0 0 0 43.699599,6.6006814 1.9,1.9 0 0 0 42.514052,6.2002907 Z m 0.732422,13.0019533 a 1.9,1.9 0 0 0 -1.533203,0.857422 c -3.071532,4.683546 -6.832346,7.130276 -9.71875,7.681641 -1.443203,0.275682 -2.634979,0.102765 -3.550782,-0.378906 -0.915802,-0.481672 -1.633151,-1.269073 -2.09375,-2.623047 a 1.9,1.9 0 0 0 -2.410156,-1.1875 1.9,1.9 0 0 0 -1.1875,2.410156 c 0.727642,2.138976 2.127092,3.819696 3.921875,4.763672 1.794784,0.943975 3.908151,1.153977 6.033203,0.748047 4.250106,-0.811861 8.676006,-3.981624 12.183594,-9.330078 A 1.9,1.9 0 0 0 44.34413,19.512791 1.9,1.9 0 0 0 43.246474,19.202244 Z M 7.4281146,36.219822 a 1,1 0 0 0 -1,1 1,1 0 0 0 1,1 H 41.111708 a 1,1 0 0 0 1,-1 1,1 0 0 0 -1,-1 z m 0,3.423829 a 1,1 0 0 0 -1,1 1,1 0 0 0 1,1 H 41.111708 a 1,1 0 0 0 1,-1 1,1 0 0 0 -1,-1 z m 0,3.457031 a 1,1 0 0 0 -1,1 1,1 0 0 0 1,1 H 28.367568 a 1,1 0 0 0 1,-1 1,1 0 0 0 -1,-1 z" fill="#008055"/>
</svg>
