<svg xmlns="http://www.w3.org/2000/svg" width="48" height="48">
	<path d="M 24.411006,1.9166005 C 19.69701,1.825224 14.929014,3.2309241 10.877803,6.221288 9.7203138,7.0756775 8.6689532,8.0247584 7.7274122,9.049413 1.1366223,16.221993 -0.07823823,27.131496 5.2449903,35.680272 a 2,2 0 0 0 2.7539063,0.640625 2,2 0 0 0 0.640625,-2.753906 C 3.6394547,25.537193 5.6422624,15.057688 13.252803,9.440038 c 7.610541,-5.6176508 18.213809,-4.446626 24.414062,2.697266 6.200253,7.143891 5.869086,17.806535 -0.763671,24.550781 -6.632757,6.744247 -17.288914,7.256101 -24.535157,1.175781 a 2,2 0 0 0 -2.8164062,0.246094 2,2 0 0 0 0.246094,2.818359 C 18.614386,48.326377 31.686489,47.698643 39.756709,39.492772 47.826928,31.286901 48.232333,18.208337 40.68835,9.5162099 36.44486,4.6268878 30.471859,2.0340845 24.411006,1.9166005 Z m -0.105469,6.109375 a 1.80018,1.80018 0 0 0 -1.787109,1.8007813 l 0.01563,19.6386722 c -0.01216,2.467125 -0.672749,3.167827 -1.283203,3.605468 -1.318865,0.844838 -2.644777,0.803699 -3.710938,0.03516 -0.384847,-0.277409 -0.661953,-0.798516 -0.732421,-1.488282 -0.07031,-0.688244 0.125146,-1.46065 0.394531,-1.871093 l 0.002,-0.002 c 0.445891,-0.670235 0.858171,-0.877903 1.257812,-0.988282 0.400327,-0.110568 0.836737,-0.05621 0.980469,-0.01367 a 1.8,1.8 0 0 0 2.236328,-1.214843 1.8,1.8 0 0 0 -1.214843,-2.236329 c -0.789098,-0.233557 -1.805122,-0.32509 -2.960938,-0.0059 -1.155816,0.319232 -2.402874,1.11818 -3.300781,2.470703 a 1.80018,1.80018 0 0 0 -0.002,0.0039 c -0.824395,1.249659 -1.125991,2.740897 -0.97461,4.222657 0.151382,1.48176 0.815732,3.038677 2.208985,4.042969 2.284408,1.646715 5.388204,1.633635 7.818359,0.04687 a 1.80018,1.80018 0 0 0 0.05664,-0.03711 c 1.520116,-1.075919 2.807932,-3.249313 2.824218,-6.552734 a 1.80018,1.80018 0 0 0 0,-0.0098 l -0.0098,-13.761719 c 1.397224,1.091705 2.917517,1.86851 4.021484,2.400391 1.624589,0.782732 2.910431,4.045828 1.144531,7.828125 a 1.8,1.8 0 0 0 0.869141,2.392578 1.8,1.8 0 0 0 2.392578,-0.86914 C 36.9393,22.349244 35.705062,16.795466 31.70785,14.869598 29.268107,13.694151 26.702631,12.5469 26.08285,9.4692069 A 1.80018,1.80018 0 0 0 24.305537,8.0259755 Z" fill="#008055"/>
</svg>
