<svg xmlns="http://www.w3.org/2000/svg" width="48" height="48">
	<path d="M 24.411463,1.9161579 C 19.697466,1.8247815 14.92947,3.2324349 10.878259,6.2227986 9.7207712,7.0771877 8.6694101,8.0262687 7.7278691,9.0509237 1.1370795,16.223504 -0.07778138,27.131054 5.2454472,35.67983 a 2,2 0 0 0 2.7539062,0.640625 2,2 0 0 0 0.640625,-2.753906 C 3.6399116,25.536751 5.6427192,15.059199 13.253259,9.4415487 20.8638,3.8238981 31.469022,4.9949232 37.669275,12.138814 c 6.200253,7.143891 5.867132,17.806536 -0.765625,24.550782 -6.632756,6.744246 -17.288913,7.254148 -24.535156,1.173828 a 2,2 0 0 0 -2.8164058,0.248047 2,2 0 0 0 0.246093,2.816406 C 18.614843,48.325934 31.684993,47.700154 39.755213,39.494283 47.825432,31.288412 48.232789,18.209848 40.688806,9.5177207 36.445316,4.6283988 30.472315,2.033642 24.411463,1.9161579 Z M 23.438806,12.297018 c -1.744202,-0.0082 -3.487265,0.436762 -4.935547,1.449218 -1.448281,1.012456 -2.572265,2.762002 -2.572265,4.804688 a 2,2 0 0 0 2,2 2,2 0 0 0 2,-2 c 0,-0.712214 0.251775,-1.096537 0.865234,-1.525391 0.61346,-0.428853 1.620215,-0.733235 2.625,-0.728515 1.004785,0.0047 1.961715,0.309938 2.558594,0.77539 0.596879,0.465453 0.947266,0.993729 0.947266,2.117188 l -0.04883,11.736328 a 2.0002,2.0002 0 0 0 0,0.0078 c 0,2.448264 1.957937,4.435093 4.023438,4.404297 2.065501,-0.03079 3.966797,-1.976622 3.966797,-4.390625 a 2,2 0 0 0 -2,-2 2,2 0 0 0 -1.990235,1.789063 l 0.04883,-11.53711 a 2.0002,2.0002 0 0 0 0,-0.0098 c 0,-2.219792 -1.02342,-4.129172 -2.488282,-5.271485 -1.464861,-1.142313 -3.255797,-1.612901 -5,-1.621093 z m -1.537109,8.857422 c -0.920021,-0.04817 -1.859951,0.09211 -2.748047,0.408203 -2.368255,0.842906 -4.398437,3.299347 -4.398437,6.603515 0,3.242933 1.740493,5.79318 4.042968,6.871094 2.302476,1.077914 5.166652,0.776219 7.134766,-1.083984 a 2,2 0 0 0 0.07813,-2.826172 2,2 0 0 0 -2.826172,-0.08008 c -0.724416,0.684697 -1.763186,0.800823 -2.689453,0.367187 -0.926267,-0.433636 -1.740234,-1.324079 -1.740234,-3.248047 0,-1.862831 0.761166,-2.485516 1.740234,-2.833984 0.979068,-0.348469 2.152815,-0.05644 2.597656,0.421875 a 2,2 0 0 0 2.828125,0.103515 2,2 0 0 0 0.101563,-2.826171 c -0.886684,-0.953395 -2.011427,-1.531772 -3.210938,-1.765625 -0.299877,-0.05846 -0.603482,-0.09527 -0.910156,-0.111328 z" fill="#008055"/>
</svg>
