<svg xmlns="http://www.w3.org/2000/svg" width="48" height="48">
	<path d="M 23.999024,4.3507688 C 15.37947,4.1788625 9.2314849,9.7454078 7.8896479,16.59491 7.6779534,17.570273 7.2878863,17.833316 6.071289,18.356629 A 1.90019,1.90019 0 0 0 6.03418,18.372259 C 2.850014,19.826675 1.6025391,23.235015 1.6025391,26.40741 v 7.25 c 0,4.674727 3.3637117,8.841797 7.9003908,8.841797 1.8879461,0 3.5474811,-1.231524 4.1953121,-2.642578 0.647831,-1.411054 0.703125,-2.871186 0.703125,-4.259766 V 23.270691 a 1.9,1.9 0 0 0 -1.90039,-1.90039 1.9,1.9 0 0 0 -1.898438,1.90039 v 12.326172 c 0,1.18572 -0.152373,2.227207 -0.357422,2.673828 -0.205049,0.446622 -0.04317,0.427735 -0.7421871,0.427735 -2.1393618,0 -4.1015627,-2.148943 -4.1015627,-5.041016 v -7.25 c 0,-2.253405 0.7213831,-3.897746 2.2109376,-4.578125 1.6841392,-0.73371 3.4920482,-2.132395 3.9902342,-4.427734 a 1.90019,1.90019 0 0 0 0.0098,-0.04297 C 12.60896,12.185417 16.911962,7.9910928 23.958042,8.1476438 a 1.90019,1.90019 0 0 0 0.08398,0 c 7.046086,-0.156551 11.349082,4.0377732 12.345703,9.2109372 a 1.90019,1.90019 0 0 0 0.0078,0.04297 c 0.498186,2.295339 2.306093,3.694024 3.990234,4.427734 1.489555,0.680379 2.210938,2.32472 2.210938,4.578125 v 7.25 c 0,2.892073 -1.960246,5.041016 -4.09961,5.041016 -0.699014,0 -0.539093,0.01889 -0.74414,-0.427735 -0.205048,-0.44662 -0.355469,-1.488105 -0.355469,-2.673828 V 23.270691 a 1.9,1.9 0 0 0 -1.900391,-1.90039 1.9,1.9 0 0 0 -1.90039,1.90039 v 12.326172 c 0,1.388578 0.0553,2.848712 0.703125,4.259766 0.647827,1.411054 2.309319,2.642578 4.197265,2.642578 4.53668,0 7.900391,-4.16707 7.900391,-8.841797 v -7.25 c 0,-3.172395 -1.247475,-6.580735 -4.431641,-8.035156 a 1.90019,1.90019 0 0 0 -0.03906,-0.01563 C 40.710159,17.833316 40.320094,17.570273 40.108398,16.59491 38.766465,9.7448748 32.619638,4.1779525 23.999024,4.3507688 Z m 3.529296,9.5058602 a 1.0001,1.0001 0 0 0 -0.939453,0.742187 l -5.398437,20.375 V 19.169129 a 1.0001,1.0001 0 0 0 -1.919922,-0.388672 l -3.8125,9.011719 a 1,1 0 0 0 0.53125,1.310547 1,1 0 0 0 1.310547,-0.53125 l 1.890625,-4.46875 v 18.550781 a 1.0001,1.0001 0 0 0 1.966797,0.255859 l 5.398437,-20.375 v 15.326172 a 1.0001,1.0001 0 0 0 1.921875,0.388672 l 4.078125,-9.679688 a 1,1 0 0 0 -0.533203,-1.310546 1,1 0 0 0 -1.310547,0.533203 l -2.15625,5.11914 V 14.854676 A 1.0001,1.0001 0 0 0 27.52832,13.856629 Z" fill="#008055"/>
</svg>
