<svg xmlns="http://www.w3.org/2000/svg" width="48" height="48">
	<path d="m 31.785081,1.2876765 c -0.350897,0.017016 -0.705984,0.08688 -1.048828,0.2246094 a 1.70017,1.70017 0 0 0 -0.13086,0.060547 c -1.435238,0.7232031 -2.213363,2.201337 -2.265625,3.3261719 -0.03216,0.6922243 0.07509,0.9446154 0.160157,1.34375 -3.019291,2.3540622 -5.512219,5.2460642 -7.751954,7.6171872 -1.502619,1.203217 -4.668995,2.219616 -6.945312,3.621094 -3.596625,2.214116 -6.8892623,5.93789 -7.0156255,10.560547 a 1.70017,1.70017 0 0 0 0,0.05859 c 0.014139,1.790635 0.3457553,2.915992 0.7890625,3.869141 a 1.7,1.7 0 0 0 2.2578125,0.824219 1.7,1.7 0 0 0 0.8261725,-2.257813 c -0.359122,-0.772143 -0.453278,-0.975988 -0.466797,-2.435547 0.09856,-2.967996 2.494387,-5.941658 5.390625,-7.724609 1.539102,-0.947591 4.952813,-1.942176 7.359375,-3.90625 a 1.70017,1.70017 0 0 0 0.158203,-0.146484 c 2.619455,-2.758197 5.219207,-5.923639 8.175781,-8.0234376 A 1.70017,1.70017 0 0 0 31.9843,6.7427546 c -0.08759,-0.8722735 -0.26036,-1.4205318 -0.248047,-1.6855469 0.01016,-0.218627 0.05188,-0.2281306 0.328125,-0.3710937 -0.01965,-0.00297 -0.02295,-0.065774 0.07031,0.021484 0.173229,0.1620849 0.466917,0.6405041 0.667969,1.0742188 a 1.70017,1.70017 0 0 0 2.035156,0.9121094 c 0.587895,-0.1780805 1.979912,-0.4253103 3.248047,-0.4003906 1.249741,0.024558 2.290478,0.3782297 2.640625,0.7128906 0.304541,0.3728958 0.605279,2.1597578 -0.0625,4.5566408 -0.676458,2.428039 -2.09228,5.287024 -3.878906,7.601563 a 1.7,1.7 0 0 0 0.30664,2.384765 1.7,1.7 0 0 0 2.384766,-0.306641 c 2.073874,-2.686661 3.646021,-5.842566 4.460938,-8.767578 0.814916,-2.9250112 1.121244,-5.7866859 -0.701172,-7.7929686 a 1.70017,1.70017 0 0 0 -0.04688,-0.050781 C 41.773805,3.1936823 39.853508,2.9265756 38.152268,2.8931452 36.969404,2.8699012 36.081303,3.0920856 35.162034,3.2740046 34.936804,2.9080654 34.848919,2.5919251 34.456956,2.2251765 34.059533,1.8533189 33.471906,1.5371549 32.812425,1.3833796 32.482684,1.306492 32.135977,1.2706603 31.785081,1.2876765 Z m 5.21289,7.4960937 a 2.2816973,2.2816973 0 0 0 -2.28125,2.2812498 2.2816973,2.2816973 0 0 0 2.28125,2.283203 2.2816973,2.2816973 0 0 0 2.28125,-2.283203 2.2816973,2.2816973 0 0 0 -2.28125,-2.2812498 z M 11.314378,13.574786 c -2.0450515,0.04987 -3.8486687,1.110817 -4.9921883,2.59375 -1.5246926,1.977243 -2.287187,4.563219 -2.65625,7.080078 a 1.70017,1.70017 0 0 0 -0.00195,0.01953 C 3.484062,24.600972 3.4487425,24.92265 3.4198491,25.674394 a 1.7,1.7 0 0 0 1.6347656,1.765625 1.7,1.7 0 0 0 1.7636719,-1.634766 c 0.026852,-0.698641 0.038441,-0.770577 0.2128906,-2.0625 0.313837,-2.14024 1.0440847,-4.278665 1.9843754,-5.498046 0.94029,-1.219382 1.6793374,-1.6618 3.3750004,-1.121094 a 1.7,1.7 0 0 0 2.136718,-1.103516 1.7,1.7 0 0 0 -1.103515,-2.136718 c -0.719947,-0.229575 -1.427692,-0.325217 -2.109375,-0.308594 z m 22.671875,5.595703 a 1.7,1.7 0 0 0 -0.869141,0.253906 1.7,1.7 0 0 0 -0.550781,2.339844 c 1.42425,2.300221 1.682403,4.204034 1.980469,7.056641 a 1.70017,1.70017 0 0 0 1.654297,1.523437 c 0.929022,0.02053 2.095749,0.217576 2.873046,0.53125 0.732794,0.295714 0.825514,0.509777 0.839844,0.541016 -0.02155,0.155207 -0.04057,0.290447 -0.113281,0.365234 -0.09961,0.102451 -0.333289,0.250282 -0.746094,0.335937 -0.811067,0.168293 -2.188026,-9e-4 -3.335937,-0.5 -2.622403,-1.445635 -4.228993,-4.227422 -4.324219,-8.808593 a 1.7,1.7 0 0 0 -1.734375,-1.664063 1.7,1.7 0 0 0 -1.664063,1.736328 c 0.113117,5.441811 2.316629,9.687431 6.152344,11.763672 a 1.70017,1.70017 0 0 0 0.113281,0.05664 c 1.752431,0.786373 3.686533,1.116779 5.482422,0.744141 0.897945,-0.186321 1.792701,-0.571526 2.494141,-1.292969 0.70144,-0.721443 1.119141,-1.77967 1.119141,-2.871094 a 1.70017,1.70017 0 0 0 -0.0098,-0.169922 c -0.181688,-1.812389 -1.667923,-2.85112 -3,-3.388672 -0.856132,-0.345487 -1.73774,-0.385833 -2.617188,-0.5 -0.302344,-2.438014 -0.744514,-4.778775 -2.273437,-7.248047 a 1.7,1.7 0 0 0 -1.470669,-0.804686 z m -20.072266,8.919922 a 1.7,1.7 0 0 0 -1.716797,1.568359 1.7,1.7 0 0 0 1.5625,1.826172 c 4.969752,0.384693 9.350271,1.306264 12.392578,2.802734 3.042307,1.496471 4.658887,3.33341 4.927735,5.996094 a 1.70017,1.70017 0 0 0 0.002,0.01172 c 0.120429,1.12309 -0.272333,1.795501 -1.267578,2.375 -0.994194,0.578886 -2.679116,0.868379 -4.72461,0.408203 -3.360972,-0.805911 -6.486506,-2.148946 -8.4375,-3.798828 -1.95429,-1.652632 -2.767315,-3.302806 -2.193406,-5.63672 a 1.7,1.7 0 0 0 -1.246094,-2.056641 1.7,1.7 0 0 0 -2.05664,1.246094 c -0.884892,3.598586 0.710275,6.852275 3.300781,9.042969 2.590506,2.190694 6.140983,3.626676 9.857422,4.515625 a 1.70017,1.70017 0 0 0 0.02148,0.0059 c 2.718376,0.613443 5.24947,0.339389 7.1875,-0.789062 1.935299,-1.126861 3.188922,-3.300487 2.939453,-5.666016 v -0.002 C 34.061862,35.976899 31.334529,33.048151 27.652268,31.236895 23.9694,29.425341 19.24521,28.498524 14.023362,28.094317 a 1.7,1.7 0 0 0 -0.109375,-0.0039 z" fill="#008055"/>
</svg>
