<svg xmlns="http://www.w3.org/2000/svg" width="48" height="48">
	<path d="M 17.436808,0.54427959 C 14.720146,0.59765159 11.69301,1.6189812 8.4797768,4.4017018 7.2817645,5.3281978 5.3833285,6.0908078 3.8157143,7.8177168 2.2481002,9.5446268 1.4326935,12.296384 2.2493081,16.171233 a 1.70017,1.70017 0 0 0 0.017578,0.07813 c 0.5909837,2.266825 1.9763584,3.938367 3.7597656,4.636719 1.7834072,0.698351 3.710913,0.538373 5.6699223,0.09375 a 1.70017,1.70017 0 0 0 0.378906,-0.134771 c 4.951559,-2.456575 9.864827,-4.435119 14.972656,-4.962891 2.792118,2.606853 6.28056,5.226583 12.019532,5.302735 0.858691,0.235941 1.676667,0.430284 2.429687,0.396484 0.90496,-0.04062 1.825559,-0.353812 2.484375,-0.986328 1.180885,-1.133742 1.221289,-2.653116 1.048828,-4.144531 0.805458,-2.011044 1.31664,-3.946931 0.884766,-5.833985 -0.409935,-1.7911892 -1.959729,-3.1455982 -4,-3.8789062 -1.74946,-2.068943 -3.871028,-3.956735 -6.755859,-4.986328 C 32.293245,0.72836049 28.737497,0.64267279 24.380168,1.6595139 22.325731,1.2248979 20.083044,0.49229139 17.436808,0.54427959 Z m 0.06641,3.40039021 c 2.004996,-0.03939 4.048239,0.618487 6.43164,1.09961 a 1.70017,1.70017 0 0 0 0.751953,-0.01758 c 4.163474,-1.052194 7.07861,-0.875115 9.328125,-0.07227 2.249516,0.802849 3.932024,2.268688 5.496094,4.162109 a 1.70017,1.70017 0 0 0 0.900391,0.56836 c 1.6756,0.4183342 2.005393,0.8852112 2.189453,1.6894532 0.18406,0.804242 -0.05698,2.306489 -0.833985,4.160156 a 1.70017,1.70017 0 0 0 -0.113281,0.910156 c 0.185339,1.226363 -0.06578,1.734172 -0.02734,1.697266 0.01922,-0.01845 0.03447,0.0288 -0.28125,0.04297 -0.315723,0.01417 -0.910768,-0.05978 -1.740235,-0.322266 A 1.70017,1.70017 0 0 0 39.11259,17.784514 C 33.9707,17.716285 31.564024,15.555106 28.764933,12.860686 A 1.70017,1.70017 0 0 0 27.45634,12.389983 C 21.505457,12.847872 16.072544,15.101825 10.850871,17.677092 9.2806484,18.020825 8.0279608,18.018085 7.2668862,17.720061 6.4969267,17.418558 5.9726733,16.924571 5.5735268,15.425139 4.9147411,12.251674 5.4499509,11.075977 6.3332925,10.102873 7.2222958,9.1235328 8.8731874,8.3955578 10.559855,7.0911548 a 1.70017,1.70017 0 0 0 0.08008,-0.06641 c 2.786316,-2.435863 4.858285,-3.040688 6.863282,-3.080079 z m 6.109375,14.7265632 a 1.4,1.4 0 0 0 -0.09766,0.002 1.4,1.4 0 0 0 -0.304687,0.04883 1.4,1.4 0 0 0 -0.980469,1.720703 c 0.392741,1.434177 0.455175,2.464967 0.380859,2.941406 -0.01563,0.100201 -0.01848,0.07483 -0.03516,0.123047 -0.04729,-0.01924 -0.340896,-0.031 -0.947265,-0.458984 -0.691411,-0.488009 -1.583906,-1.340809 -2.542969,-2.537109 a 1.4,1.4 0 0 0 -1.96875,-0.216797 1.4,1.4 0 0 0 -0.216797,1.966797 c 1.077232,1.3437 2.112881,2.368693 3.115234,3.076172 1.002354,0.707478 1.999997,1.197717 3.171875,0.99414 0.58594,-0.101788 1.171066,-0.450721 1.542969,-0.923828 0.371904,-0.473107 0.557351,-1.022314 0.646485,-1.59375 0.178266,-1.142873 0.0061,-2.455904 -0.447266,-4.111328 a 1.4,1.4 0 0 0 -1.316406,-1.03125 z m 5.05664,1.693359 a 1.4,1.4 0 0 0 -1.246094,0.865235 c -0.561122,1.358988 -0.903287,2.286035 -0.998046,3.859375 a 1.4,1.4 0 0 0 1.3125,1.480468 1.4,1.4 0 0 0 1.482422,-1.3125 c 0.07824,-1.29906 0.232278,-1.605772 0.791015,-2.958984 A 1.4,1.4 0 0 0 29.251262,20.470061 1.4,1.4 0 0 0 28.66923,20.364592 Z m 7.603516,2.251953 a 1.7,1.7 0 0 0 -0.257813,0.01758 c -2.118982,0.301732 -4.315551,1.166891 -6.039062,3 -0.834685,0.873543 -1.335721,1.932383 -1.396485,2.964844 -0.06093,1.03537 0.268407,1.930641 0.644532,2.65625 a 1.70017,1.70017 0 0 0 0.0039,0.0078 c 2.191877,4.16987 3.068089,7.852658 2.955078,11.853515 -0.01988,0.516763 -0.07196,0.86228 -0.08789,0.951172 -0.04994,-0.0052 -0.102238,-0.0098 -0.214844,-0.0098 h -12.75 c -0.285719,0 -0.376367,-0.0096 -0.421875,-0.01367 0.0096,-0.01621 -0.08753,-0.256108 -0.138672,-0.873047 a 1.70017,1.70017 0 0 0 0,-0.0039 C 18.352194,40.61513 18.859066,36.05692 20.401649,32.415335 l -0.01953,0.03906 c 0.438084,-0.962892 0.820405,-2.063324 0.341797,-3.253906 -0.478609,-1.190583 -1.533422,-1.763375 -2.669922,-2.197266 l 0.0625,0.02539 c -1.215521,-0.519694 -2.200239,-1.493352 -2.681639,-3.16988 a 1.7,1.7 0 0 0 -2.103515,-1.166016 1.7,1.7 0 0 0 -1.164063,2.103516 c 0.743601,2.589672 2.509591,4.46071 4.611328,5.359375 a 1.70017,1.70017 0 0 0 0.0625,0.02539 c 0.360368,0.13758 0.544784,0.245737 0.648438,0.310546 -0.02535,0.09754 -0.06359,0.254239 -0.201172,0.556641 a 1.70017,1.70017 0 0 0 -0.01758,0.04102 c -1.817938,4.291615 -2.36812,9.100746 -2.089844,12.367187 0.07361,0.887968 0.15327,1.827458 0.859375,2.728516 0.707099,0.902327 1.924124,1.273437 3.089844,1.273437 h 12.75 c 1.434047,0 2.792156,-0.847759 3.27539,-1.865234 0.483235,-1.017475 0.40812,-1.882687 0.425782,-2.359375 a 1.70017,1.70017 0 0 0 0,-0.01367 c 0.130239,-4.571645 -0.931666,-8.948147 -3.337891,-13.529297 -0.217705,-0.419991 -0.280444,-0.705195 -0.269531,-0.890625 0.01091,-0.18543 0.04341,-0.384861 0.460937,-0.820312 a 1.70017,1.70017 0 0 0 0.01367,-0.01367 c 1.122281,-1.196291 2.461624,-1.741344 4.044922,-1.966797 a 1.7,1.7 0 0 0 1.443359,-1.921875 1.7,1.7 0 0 0 -1.664062,-1.460938 z" fill="#008055"/>
</svg>
