<svg xmlns="http://www.w3.org/2000/svg" width="48" height="48">
	<path d="M 24.410601,2.0161714 C 19.717972,1.9254792 14.973068,3.3262331 10.939898,6.3032808 9.7875633,7.1538654 8.7405173,8.0977014 7.8031793,9.1177334 1.2418168,16.257965 0.02904619,27.118743 5.3285699,35.629452 a 1.9,1.9 0 0 0 2.6191404,0.607422 1.9,1.9 0 0 0 0.607422,-2.617187 C 3.5279756,25.546383 5.5420295,15.009961 13.193804,9.3618744 20.845578,3.7137872 31.508785,4.8921681 37.742632,12.074765 c 6.233846,7.182598 5.901116,17.90476 -0.767578,24.685547 -6.668693,6.780787 -17.384419,7.29295 -24.669922,1.179687 a 1.9,1.9 0 0 0 -2.6757807,0.234375 1.9,1.9 0 0 0 0.234375,2.675781 C 18.641127,48.215269 31.649756,47.593705 39.684038,39.424374 47.718321,31.255043 48.124116,18.235999 40.613726,9.5825774 36.389131,4.7150278 30.443981,2.1327757 24.410601,2.0161714 Z m -3.570313,6.818359 c -0.600526,-0.01591 -1.213299,0.01766 -1.833984,0.101563 a 1.70017,1.70017 0 0 0 -0.04883,0.0078 c -5.103437,0.842683 -8.305536,5.4016706 -7.763672,10.3574216 a 1.70017,1.70017 0 0 0 0.01367,0.09375 c 0.450619,2.722809 1.98139,4.921185 4.099609,6.242188 2.118219,1.321003 4.760642,1.810259 7.541016,1.527344 a 1.7,1.7 0 0 0 1.519531,-1.863282 1.7,1.7 0 0 0 -1.863281,-1.519531 c -2.167816,0.220585 -4.044304,-0.186025 -5.396485,-1.029297 -1.339771,-0.835534 -2.219253,-2.061172 -2.53125,-3.871094 -0.346617,-3.37313 1.461186,-5.994517 4.91211,-6.576172 1.791007,-0.236114 3.238659,0.102915 4.308594,0.839844 1.070364,0.737225 1.843074,1.895941 2.158203,3.667969 0.295204,2.081918 -0.166302,2.93369 -0.597657,4.375 -0.433603,1.448825 -0.521986,3.575286 0.980469,5.96875 a 1.70017,1.70017 0 0 0 0.02734,0.04102 l 4.460937,6.673828 a 1.70017,1.70017 0 0 0 0.04102,0.05859 c 0.605508,0.828087 0.29638,0.859076 0.207031,0.925782 -0.08935,0.06671 -0.194794,0.34143 -0.759765,-0.417969 l -4.404297,-6.341797 a 1.7,1.7 0 0 0 -2.365235,-0.425781 1.7,1.7 0 0 0 -0.425781,2.365234 l 4.435547,6.386719 a 1.70017,1.70017 0 0 0 0.03125,0.04492 c 1.407969,1.892501 3.954921,2.28285 5.521484,1.113281 1.566564,-1.169569 1.915669,-3.72749 0.503907,-5.658203 l 0.04102,0.05859 -4.439453,-6.642578 c -1.125876,-1.796511 -0.931619,-2.057937 -0.597656,-3.173828 0.334826,-1.118775 1.115786,-3.025268 0.705078,-5.863282 a 1.70017,1.70017 0 0 0 -0.0078,-0.04883 C 28.870647,13.717453 27.590479,11.6291 25.725067,10.344277 24.326008,9.3806604 22.641879,8.8822434 20.840301,8.8345114 Z" fill="#008055"/>
</svg>
