<svg xmlns="http://www.w3.org/2000/svg" width="48" height="48">
	<path d="m 19.960703,5.1426301 a 1.7,1.7 0 0 0 -0.148437,0.0059 c -1.1845,0.112845 -2.397367,0.340756 -3.632813,0.691406 C 9.4486157,7.6710531 2.316836,14.403004 2.6501568,24.714936 a 1.70017,1.70017 0 0 0 0,0.0039 C 3.0015035,35.099305 11.448325,42.82392 22.216563,42.857473 a 1.70017,1.70017 0 0 0 0.0059,0 h 6.59375 a 1.7,1.7 0 0 0 1.699219,-1.701171 1.7,1.7 0 0 0 -1.699219,-1.699219 h -6.58789 -0.0059 C 13.031963,39.425749 6.3388306,33.236275 6.0466412,24.603567 l 0.00195,0.002 C 5.7672476,15.901509 11.786683,10.553712 17.077891,9.1172391 a 1.70017,1.70017 0 0 0 0.01953,-0.0059 c 1.045052,-0.297259 2.058967,-0.484753 3.039063,-0.578125 a 1.7,1.7 0 0 0 1.53125,-1.853516 1.7,1.7 0 0 0 -1.707032,-1.537109 z m 1.951172,6.9609369 c -1.108852,0.0037 -2.265932,0.157576 -3.447265,0.486328 -4.354421,1.164993 -8.9184639,5.442872 -8.7050782,11.917969 a 1.70017,1.70017 0 0 0 0.00195,0.0039 c 0.2260244,6.547881 5.7104362,11.436172 12.5390622,11.457032 a 1.70017,1.70017 0 0 0 0.0059,0 H 36.62285 a 1.7,1.7 0 0 0 1.701172,-1.699219 1.7,1.7 0 0 0 -1.701172,-1.701172 h -14.3125 -0.0039 c -5.280679,-0.01789 -8.981956,-3.407521 -9.148438,-8.171875 v -0.002 c 0,0 0,-0.002 0,-0.002 -0.15728,-4.834883 3.255883,-7.741361 6.19336,-8.523438 a 1.70017,1.70017 0 0 0 0.01953,-0.0059 c 1.194852,-0.33329 2.304461,-0.418577 3.333984,-0.328125 a 1.7,1.7 0 0 0 1.841797,-1.544922 1.7,1.7 0 0 0 -1.542969,-1.841797 c -0.358059,-0.03146 -0.722179,-0.04616 -1.091797,-0.04492 z m 1,6.701172 c -0.655241,-0.05322 -1.348569,-2.12e-4 -2.054687,0.181641 -2.058139,0.51296 -4.227138,2.445468 -4.125,5.332031 a 1.70017,1.70017 0 0 0 0,0.002 c 0.109911,2.963515 2.802476,5.108013 5.830078,5.117188 a 1.70017,1.70017 0 0 0 0.0059,0 h 21.091797 a 1.7,1.7 0 0 0 1.701172,-1.699219 1.7,1.7 0 0 0 -1.701172,-1.701172 h -21.08789 -0.0039 c -1.588898,-0.0064 -2.399698,-0.793285 -2.439453,-1.839844 v -0.002 c -0.03852,-1.121362 0.830356,-1.735308 1.552735,-1.914062 a 1.70017,1.70017 0 0 0 0.01953,-0.0039 c 0.696474,-0.180558 1.245623,-0.09513 1.705078,0.101563 0.459467,0.1967 0.811223,0.53952 0.958984,0.78125 a 1.7,1.7 0 0 0 2.335938,0.564453 1.7,1.7 0 0 0 0.564453,-2.337891 c -0.554839,-0.90769 -1.414751,-1.659013 -2.521484,-2.132812 -0.553373,-0.236902 -1.1737,-0.395752 -1.832032,-0.449219 z" fill="#008055"/>
</svg>
