<svg xmlns="http://www.w3.org/2000/svg" width="48" height="48">
	<path d="m 19.916968,3.2412111 c -2.205565,0 -4.099608,1.8983204 -4.099608,4.3417969 v 3.644531 c 0,2.502233 1.937126,4.38086 4.099608,4.38086 2.117823,0 4.083399,-1.830314 4.099609,-4.373047 v -0.0039 -3.6503911 c 0,-2.5629564 -2.013003,-4.3398438 -4.099609,-4.3398438 z m 16.449219,0 c -2.20557,0 -4.09961,1.8983204 -4.09961,4.3417969 v 3.644531 c 0,2.502237 1.937128,4.38086 4.09961,4.38086 2.117823,0 4.081433,-1.830321 4.097656,-4.373047 l 0.002,-0.0039 V 7.5810549 c 0,-2.5629607 -2.013008,-4.3398438 -4.099609,-4.3398438 z M 10.178688,3.3818361 A 1.2,1.2 0 0 0 8.9794691,4.5810549 1.2,1.2 0 0 0 10.178688,5.7822268 h 0.492187 v 7.1816402 h -0.316406 a 1.3,1.3 0 0 0 -1.2988279,1.300782 1.3,1.3 0 0 0 1.2988279,1.298828 h 3.03125 A 1.3,1.3 0 0 0 14.6865,14.264649 1.3,1.3 0 0 0 13.385719,12.963867 H 13.071266 V 4.6259768 a 1.2,1.2 0 0 0 0,-0.044922 1.2,1.2 0 0 0 -0.0039,-0.091797 1.2,1.2 0 0 0 -1.197276,-1.1074219 z m 16.449218,0 a 1.2,1.2 0 0 0 -1.199219,1.1992188 1.2,1.2 0 0 0 1.199219,1.2011719 h 0.492187 v 7.1816402 h -0.316406 a 1.3,1.3 0 0 0 -1.298828,1.300782 1.3,1.3 0 0 0 1.298828,1.298828 h 3.03125 a 1.3,1.3 0 0 0 1.300781,-1.298828 1.3,1.3 0 0 0 -1.300781,-1.300782 H 29.520484 V 4.6259768 a 1.2,1.2 0 0 0 0,-0.044922 1.2,1.2 0 0 0 -0.0039,-0.091797 1.2,1.2 0 0 0 -1.197265,-1.1074219 z m -6.710938,2.359375 c 0.740895,0 1.59961,0.5038002 1.59961,1.8398438 v 3.6386721 c -0.0083,1.297067 -0.929653,1.888672 -1.59961,1.888672 -0.625297,0 -1.599609,-0.692892 -1.599609,-1.88086 V 7.583008 c 0,-1.2485234 0.754514,-1.8417969 1.599609,-1.8417969 z m 16.449219,0 c 0.74088,0 1.599609,0.5038045 1.599609,1.8398438 v 3.6386721 c -0.0083,1.297074 -0.929652,1.888672 -1.599609,1.888672 -0.625298,0 -1.59961,-0.692897 -1.59961,-1.88086 V 7.583008 c 0,-1.2485234 0.754502,-1.8417969 1.59961,-1.8417969 z M 28.362281,17.889649 c -2.205517,0 -4.097656,1.896367 -4.097656,4.339844 v 3.646484 c 0,2.502237 1.935173,4.380859 4.097656,4.380859 2.117763,0 4.083398,-1.830318 4.099609,-4.373047 v -0.0039 -3.65039 c 0,-2.562888 -2.013009,-4.339844 -4.099609,-4.339844 z m -18.183593,0.140625 a 1.2,1.2 0 0 0 -1.1992189,1.199219 1.2,1.2 0 0 0 1.1992189,1.199218 h 0.492187 v 7.183594 h -0.316406 a 1.3,1.3 0 0 0 -1.2988279,1.298828 1.3,1.3 0 0 0 1.2988279,1.300781 h 3.03125 A 1.3,1.3 0 0 0 14.6865,28.911133 1.3,1.3 0 0 0 13.385719,27.612305 h -0.314453 v -8.339844 a 1.2,1.2 0 0 0 0,-0.04297 1.2,1.2 0 0 0 -0.0039,-0.0918 1.2,1.2 0 0 0 -1.197266,-1.107422 z m 8.447265,0 a 1.2,1.2 0 0 0 -1.201171,1.199219 1.2,1.2 0 0 0 1.201171,1.199218 h 0.490234 v 7.183594 h -0.314453 a 1.3,1.3 0 0 0 -1.30078,1.298828 1.3,1.3 0 0 0 1.30078,1.300781 h 3.03125 a 1.3,1.3 0 0 0 1.298828,-1.300781 1.3,1.3 0 0 0 -1.298828,-1.298828 h -0.316407 v -8.341797 a 1.2,1.2 0 0 0 0,-0.04102 1.2,1.2 0 0 0 -0.0039,-0.0918 1.2,1.2 0 0 0 -1.195312,-1.107422 z m 17.033203,0 a 1.2,1.2 0 0 0 -1.199219,1.199219 1.2,1.2 0 0 0 1.199219,1.199218 h 0.492187 v 7.183594 h -0.316406 a 1.3,1.3 0 0 0 -1.298828,1.298828 1.3,1.3 0 0 0 1.298828,1.300781 h 3.03125 a 1.3,1.3 0 0 0 1.300781,-1.300781 1.3,1.3 0 0 0 -1.300781,-1.298828 h -0.314453 v -8.339844 a 1.2,1.2 0 0 0 0,-0.04297 1.2,1.2 0 0 0 -0.0039,-0.0918 1.2,1.2 0 0 0 -1.197265,-1.107422 z m -7.296875,2.359375 c 0.740879,0 1.599609,0.503931 1.599609,1.839844 v 3.638671 c -0.0083,1.297071 -0.929593,1.888672 -1.599609,1.888672 -0.625298,0 -1.597657,-0.692896 -1.597657,-1.880859 v -3.646484 c 0,-1.248524 0.752493,-1.839844 1.597657,-1.839844 z m -16.730468,12 c -2.2055158,0 -4.0976562,1.89832 -4.0976562,4.341797 v 3.646484 c 0,2.502237 1.9351734,4.380859 4.0976562,4.380859 2.117763,0 4.083399,-1.830318 4.099609,-4.373046 v -0.0039 -3.65039 c 0,-2.562957 -2.013008,-4.341797 -4.099609,-4.341797 z m 16.730468,0 c -2.205517,0 -4.097656,1.89832 -4.097656,4.341797 v 3.646484 c 0,2.502237 1.935173,4.380859 4.097656,4.380859 2.117763,0 4.083398,-1.830318 4.099609,-4.373046 v -0.0039 -3.65039 c 0,-2.562957 -2.013009,-4.341797 -4.099609,-4.341797 z m -9.736328,0.140625 a 1.2,1.2 0 0 0 -1.201171,1.201172 1.2,1.2 0 0 0 1.201171,1.199218 h 0.490234 v 7.181641 h -0.314453 a 1.3,1.3 0 0 0 -1.30078,1.300781 1.3,1.3 0 0 0 1.30078,1.300781 h 3.03125 a 1.3,1.3 0 0 0 1.298828,-1.300781 1.3,1.3 0 0 0 -1.298828,-1.300781 h -0.316407 v -8.339844 a 1.2,1.2 0 0 0 0,-0.04102 1.2,1.2 0 0 0 -0.0039,-0.0918 1.2,1.2 0 0 0 -1.195312,-1.109375 z m 17.033203,0 a 1.2,1.2 0 0 0 -1.199219,1.201172 1.2,1.2 0 0 0 1.199219,1.199218 h 0.492187 v 7.181641 h -0.316406 a 1.3,1.3 0 0 0 -1.298828,1.300781 1.3,1.3 0 0 0 1.298828,1.300781 h 3.03125 a 1.3,1.3 0 0 0 1.300781,-1.300781 1.3,1.3 0 0 0 -1.300781,-1.300781 h -0.314453 v -8.337891 a 1.2,1.2 0 0 0 0,-0.04297 1.2,1.2 0 0 0 -0.0039,-0.0918 1.2,1.2 0 0 0 -1.197265,-1.109375 z m -24.027343,2.359375 c 0.740879,0 1.599609,0.505753 1.599609,1.841797 v 3.638671 c -0.0083,1.297073 -0.929593,1.888672 -1.599609,1.888672 -0.625298,0 -1.597656,-0.692896 -1.597656,-1.880859 v -3.646484 c 0,-1.248524 0.752492,-1.841797 1.597656,-1.841797 z m 16.730468,0 c 0.740879,0 1.599609,0.505753 1.599609,1.841797 v 3.638671 c -0.0083,1.297073 -0.929593,1.888672 -1.599609,1.888672 -0.625298,0 -1.597657,-0.692896 -1.597657,-1.880859 v -3.646484 c 0,-1.248524 0.752493,-1.841797 1.597657,-1.841797 z" fill="#008055"/>
</svg>
