<svg xmlns="http://www.w3.org/2000/svg" width="48" height="48">
	<path d="m 15.830135,3.5192614 a 2.0791248,2.079125 83.852734 0 0 -1.366045,1.2553061 2.0791248,2.079125 83.852734 0 0 1.194222,2.684205 l 18.482876,7.0916385 a 2.0793327,2.0793328 88.677779 0 0 0.05404,0.02126 c 7.054571,2.482227 10.473887,9.473818 8.129193,16.66686 -1.173472,3.579396 -3.39119,5.853257 -5.989107,7.29782 -2.598353,1.444805 -5.602718,1.984036 -7.995268,1.850106 a 2.0793327,2.0793328 88.677779 0 0 -0.0616,-0.0024 C 21.771863,40.211032 16.744197,34.476934 16.441762,27.607577 a 2.0793327,2.0793328 88.677779 0 0 -1.41e-4,-0.0084 c -0.04823,-0.989602 -0.18792,-1.842617 -0.570262,-2.653778 -0.38234,-0.811161 -1.167373,-1.627189 -2.156894,-1.892271 -0.98952,-0.265083 -1.88921,-0.01826 -2.597151,0.323796 -0.707941,0.342055 -1.3103815,0.811068 -1.9058708,1.366315 a 2.0793327,2.0793328 88.677779 0 0 -0.023774,0.02109 l -7.7277111,7.429437 a 2.0791248,2.079125 83.852734 0 0 -0.059184,2.940166 2.0791248,2.079125 83.852734 0 0 2.9384291,0.05568 l 7.7069488,-7.404927 0.0048,-0.0055 c 0.09275,-0.08621 0.125272,-0.08705 0.210085,-0.157203 0.0094,0.09289 0.02385,0.07106 0.02913,0.1793 0.392326,8.802869 6.996785,16.481531 15.846117,16.735059 3.168491,0.172323 6.849867,-0.492572 10.219341,-2.366156 3.379271,-1.879032 6.415439,-5.046943 7.919901,-9.637875 a 2.0793327,2.0793328 88.677779 0 0 0.0029,-0.005 C 49.256436,23.391409 44.63092,13.866519 35.631284,10.66762 L 35.598574,10.65536 17.148408,3.5759808 a 2.0791248,2.079125 83.852734 0 0 -0.83111,-0.136799 2.0791248,2.079125 83.852734 0 0 -0.487163,0.08008 z M 2.8659039,15.337068 A 2.0791248,2.079125 83.852734 0 0 1.34776,17.413084 2.0791248,2.079125 83.852734 0 0 3.4991728,19.418247 L 24.230772,18.704842 a 2.0791248,2.079125 83.852734 0 0 2.008845,-2.150737 2.0791248,2.079125 83.852734 0 0 -2.151939,-2.007124 L 3.3546429,15.262873 a 2.0791248,2.079125 83.852734 0 0 -0.488739,0.07419 z m 25.1948711,4.836965 c -1.768547,0.472606 -3.326316,1.575486 -4.355169,3.096881 -0.548722,0.811411 -0.948402,1.743105 -1.148106,2.758923 -0.770543,3.919444 1.7174,7.710282 5.533219,8.719869 a 1.9754176,1.9749191 75.397667 0 0 0.310492,0.131239 c 0.02884,0.0062 0.04939,0.02776 0.07838,0.03366 a 1.9754176,1.9749191 75.397667 0 0 0.08842,0.01625 1.9754176,1.9749191 75.397667 0 0 0.0089,0.0018 1.9754176,1.9749191 75.397667 0 0 0.09784,0.02003 c 0.02726,0.0048 0.05199,-0.0068 0.07925,-0.0023 a 1.9754176,1.9749191 75.397667 0 0 0.340132,-0.0091 c 3.921403,0.462212 7.625569,-2.152804 8.344835,-6.083211 0.745433,-4.073412 -1.967872,-8.033205 -6.0355,-8.806026 -1.14402,-0.217356 -2.281559,-0.161542 -3.342688,0.122022 z m 0.991115,3.808701 c 0.508003,-0.132413 1.056717,-0.155467 1.613424,-0.0497 1.979407,0.376074 3.250722,2.230635 2.887978,4.212839 -0.362742,1.982205 -2.20711,3.266376 -4.191277,2.916316 a 1.9754176,1.9749191 75.397667 0 0 -0.0548,-0.0084 1.9754176,1.9749191 75.397667 0 0 -0.04055,-0.01016 c -1.974305,-0.402024 -3.219729,-2.27396 -2.831009,-4.251229 0.09718,-0.494317 0.284059,-0.943384 0.544295,-1.333646 0.48794,-0.731742 1.225271,-1.255299 2.071946,-1.475986 z" fill="#008055"/>
</svg>
