<svg xmlns="http://www.w3.org/2000/svg" width="48" height="48">
	<path d="M 44.114699,3.9428634 C 43.532274,3.9776841 43.117155,4.2116417 42.685011,4.4350509 42.108819,4.7329298 41.53632,5.1251973 40.94673,5.5854415 a 1.60016,1.60016 0 0 0 -0.02539,0.021484 c -2.712897,2.2116881 -4.284398,6.0372075 -4.90039,8.1875005 -0.100281,0.329106 -0.142549,0.35608 -0.21875,0.503906 -0.116127,-0.0903 -0.116658,-0.09228 -0.462891,-0.441406 a 1.60016,1.60016 0 0 0 -0.01172,-0.01172 C 32.741049,11.291093 28.418188,6.4174728 22.19087,6.4174728 c -6.061931,0 -10.98758,2.8452222 -13.9277339,7.1796872 -2.7446034,4.046178 -3.7272664,9.347773 -2.7949219,14.83789 -0.6012254,0.482738 -1.0705366,1.097285 -1.125,1.890626 -0.091817,1.337455 0.8952448,2.534461 2.1796876,3.046874 4.7584712,1.93545 9.3720462,2.021564 14.9433592,-0.146484 a 1.6,1.6 0 0 0 -0.4375,0.316406 c -2.105569,2.149428 -8.22969,3.321815 -13.1718749,0.90625 a 1.60016,1.60016 0 0 0 -1.984375,2.394532 c 1.3020163,1.741619 3.1873136,3.128108 6.6894529,4.068359 2.581747,2.333755 6.227332,3.460147 10.839844,3.076172 2.798964,-0.184857 5.556529,-1.692093 8.099609,-3.691406 2.536329,-1.994005 4.839137,-4.523489 6.5,-7.056641 0.157881,-0.221122 0.243235,-0.306242 0.314453,-0.382812 0.134381,0.08652 0.351244,0.234749 0.681641,0.550781 1.038262,1.016386 2.375809,1.888729 3.523438,2.347656 0.649385,0.274627 1.297175,0.448878 2.052734,0.302734 0.761995,-0.147388 1.576404,-0.873945 1.779297,-1.648437 0.405785,-1.548983 -0.363446,-2.653609 -1.429688,-3.867188 l 0.05859,0.06836 C 42.222991,27.088925 44.060342,21.67504 44.831492,18.84716 a 1.60016,1.60016 0 0 0 0.05469,-0.519531 c -0.189334,-3.058981 0.119327,-7.685134 0.925782,-9.7089844 l -0.02539,0.060547 C 46.199784,7.7536828 46.454188,7.0559092 46.479933,6.2534103 46.492806,5.8521608 46.444861,5.3729158 46.138136,4.890129 45.831411,4.4073422 45.236013,4.0630116 44.75923,3.9819259 44.520838,3.941383 44.30884,3.9312565 44.114699,3.9428634 Z m -34.7343754,3.90625 a 1.6,1.6 0 0 0 -0.484375,0.076172 C 3.8191469,9.542591 0.78496,14.818445 1.6713392,21.583488 a 1.6,1.6 0 0 0 1.7949219,1.378906 1.6,1.6 0 0 0 1.3769531,-1.794922 C 4.0952334,15.458715 6.2696335,12.120008 9.8666518,10.974113 A 1.6,1.6 0 0 0 10.905714,8.9643478 1.6,1.6 0 0 0 9.3803236,7.8491134 Z M 42.612746,8.5385665 c -0.884993,2.9369885 -1.084453,6.6465015 -0.919922,9.6503905 -0.663126,2.340894 -2.833962,8.349905 0.113281,13.314453 -0.209221,-0.156463 -0.441431,-0.258558 -0.568359,-0.382813 a 1.60016,1.60016 0 0 0 -0.0078,-0.0078 c -1.01641,-0.981823 -2.012906,-1.724596 -3.337891,-1.5625 -1.324984,0.162096 -1.986838,1.103574 -2.523437,1.873047 a 1.60016,1.60016 0 0 0 -0.02734,0.03906 c -1.44784,2.214067 -3.572696,4.554405 -5.816406,6.31836 -2.24371,1.763954 -4.622777,2.903515 -6.337891,3.015625 a 1.60016,1.60016 0 0 0 -0.03125,0.002 c -3.600955,0.303681 -6.016344,-0.406615 -7.830078,-1.771485 3.201431,-0.222839 6.098548,-1.316996 7.988281,-3.246093 a 1.6,1.6 0 0 0 -0.02344,-2.261719 1.6,1.6 0 0 0 -1.5625,-0.394531 c 0.951596,-0.380343 1.927867,-0.818586 2.941406,-1.332032 a 1.6,1.6 0 0 0 0.705078,-2.15039 1.6,1.6 0 0 0 -2.15039,-0.705078 C 16.817448,32.18258 12.905031,32.371836 8.1401032,30.532764 A 1.60016,1.60016 0 0 0 8.7396986,28.90966 C 7.6042083,23.773424 8.5214728,18.917595 10.911574,15.394035 c 2.390101,-3.52356 6.192799,-5.7753904 11.279296,-5.7753904 4.494805,0 8.186712,3.8358204 10.888672,6.5039054 0.653864,0.661565 1.346643,1.560272 2.851563,1.626954 0.756575,0.03352 1.60303,-0.373722 2.101562,-0.941407 0.498533,-0.567684 0.792033,-1.239269 1.048829,-2.082031 a 1.60016,1.60016 0 0 0 0.0098,-0.02734 c 0.401543,-1.41016 2.008797,-4.64269 3.521485,-6.1601555 z m -20.66211,1.4335938 a 1.6,1.6 0 0 0 -0.861328,0.2792967 c -2.557274,1.744088 -3.982422,4.520593 -3.982422,7.601562 a 1.60016,1.60016 0 0 0 0,0.0332 c 0.05475,2.661977 0.706864,5.207064 2.107422,7.199219 1.400558,1.992155 3.678701,3.369141 6.421875,3.369141 2.130789,0 3.985318,-1.116411 5.265625,-2.642578 1.280307,-1.526168 2.066406,-3.501488 2.066406,-5.570313 0,-2.453855 -0.8193,-4.04653 -1.396484,-4.816406 a 1.6,1.6 0 0 0 -2.240234,-0.322266 1.6,1.6 0 0 0 -0.320313,2.240235 c 0.07072,0.09432 0.755859,1.221492 0.755859,2.898437 0,1.227675 -0.513988,2.557165 -1.316406,3.513672 -0.802417,0.956507 -1.813442,1.5 -2.814453,1.5 -1.753106,0 -2.889707,-0.710249 -3.804687,-2.011719 -0.912057,-1.297308 -1.473763,-3.244883 -1.521485,-5.402344 0.0033,-2.165189 0.815417,-3.742416 2.582031,-4.947265 a 1.6,1.6 0 0 0 0.419922,-2.222653 1.6,1.6 0 0 0 -1.361328,-0.6992187 z m 3.976563,7.3085937 a 2.5404632,2.5404632 0 0 0 -2.541016,2.541015 2.5404632,2.5404632 0 0 0 2.541016,2.541016 2.5404632,2.5404632 0 0 0 2.541015,-2.541016 2.5404632,2.5404632 0 0 0 -2.541015,-2.541015 z" fill="#008055"/>
</svg>
