<svg xmlns="http://www.w3.org/2000/svg" width="48" height="48">
	<path d="m 23.453844,2.0748093 c -0.443373,0.010644 -0.888265,0.033402 -1.332032,0.070313 -3.550135,0.2952816 -7.091338,1.4327378 -10.267578,3.4570313 a 1.90019,1.90019 0 0 0 -0.01172,0.00781 C 6.1659383,9.2824544 3.6781711,14.764555 2.8542342,17.654887 a 1.90019,1.90019 0 0 0 -0.013672,0.04883 c -0.3648772,1.422101 -0.220863,2.950791 0.6113281,4.15625 0.8321911,1.205459 2.2904465,1.912536 3.8515625,1.996093 l 13.3652342,0.771485 a 1.90019,1.90019 0 0 0 1.683594,-2.960938 l -7.08789,-10.478516 a 1.9,1.9 0 0 0 -2.638672,-0.507813 1.9,1.9 0 0 0 -0.509766,2.636719 L 17.0515,20.613872 7.5143905,20.063091 a 1.90019,1.90019 0 0 0 -0.00781,-0.002 C 6.848144,20.025895 6.683305,19.853079 6.5788436,19.701763 6.4765143,19.553535 6.3818465,19.244117 6.522203,18.668559 c 0.6079486,-2.115619 2.7781964,-6.88569 7.380859,-9.865234 0.0013,-8.094e-4 0.0027,-0.00114 0.0039,-0.00195 C 19.178621,5.4462807 25.731341,5.0507264 30.973375,7.2486375 A 1.9,1.9 0 0 0 33.461656,6.2310594 1.9,1.9 0 0 0 32.444078,3.7447312 C 29.633327,2.5662229 26.557451,2.0003032 23.453844,2.0748093 Z m 13.105468,5.1894532 c -0.179981,-0.00821 -0.362414,-0.00498 -0.544921,0.00977 -1.457842,0.1177886 -2.795362,1.0250429 -3.648438,2.3320313 L 25.010484,20.801372 a 1.90019,1.90019 0 0 0 1.722657,2.939453 l 12.617187,-0.900391 a 1.9,1.9 0 0 0 1.761719,-2.03125 1.9,1.9 0 0 0 -2.03125,-1.759765 l -8.785156,0.626953 5.246093,-7.984375 a 1.90019,1.90019 0 0 0 0.0039,-0.0078 c 0.359718,-0.552597 0.592128,-0.606286 0.77539,-0.621093 0.180228,-0.01456 0.494813,0.05497 0.925781,0.46875 1.528135,1.585318 4.568144,5.846862 4.84961,11.316406 0.273167,6.246425 -2.660762,12.123918 -7.1875,15.566406 a 1.9,1.9 0 0 0 -0.363281,2.664063 1.9,1.9 0 0 0 2.662109,0.361328 c 5.545123,-4.216948 9.015471,-11.234131 8.685547,-18.759766 a 1.90019,1.90019 0 0 0 0,-0.01367 C 45.551113,15.91424 42.048749,11.01864 39.95775,8.8599656 A 1.90019,1.90019 0 0 0 39.92064,8.8228566 C 39.00262,7.9242056 37.819183,7.3217299 36.559312,7.2642625 Z M 3.9460311,24.5377 a 1.9,1.9 0 0 0 -0.2011719,0.01563 1.9,1.9 0 0 0 -1.6445312,2.125 c 0.879469,6.910672 5.219939,13.423241 11.902344,16.900391 a 1.90019,1.90019 0 0 0 0.01172,0.0059 c 6.018769,3.079783 12.010881,2.495141 14.925781,1.763672 a 1.90019,1.90019 0 0 0 0.04883,-0.01172 c 1.414042,-0.395095 2.667062,-1.285931 3.294922,-2.609375 0.627859,-1.323444 0.510965,-2.938331 -0.197266,-4.332031 L 26.071031,26.434184 a 1.90019,1.90019 0 0 0 -3.40625,0.02344 l -5.529297,11.376951 a 1.9,1.9 0 0 0 0.878907,2.539062 1.9,1.9 0 0 0 2.539062,-0.878906 l 3.849609,-7.921875 4.292969,8.535157 a 1.90019,1.90019 0 0 0 0.0039,0.0078 c 0.2987,0.587799 0.229194,0.816316 0.150391,0.982422 -0.07723,0.162781 -0.296004,0.400134 -0.865234,0.566406 -2.135952,0.531084 -7.35013,1.033077 -12.230463,-1.460925 -5.544421,-2.88713 -9.1669468,-8.365398 -9.8847658,-14.00586 A 1.9,1.9 0 0 0 3.9460311,24.5377 Z" fill="#008055"/>
</svg>
