<svg xmlns="http://www.w3.org/2000/svg" width="48" height="48">
	<path d="m 12.021485,2.1738693 a 1.8,1.8 0 0 0 -1.75,1.3457031 1.8,1.8 0 0 0 1.287109,2.1972656 c 1.726159,0.4500567 3.287345,1.4287429 4.71875,2.9082029 -0.02543,0.05014 -0.01666,0.05914 -0.06055,0.115235 a 1.80018,1.80018 0 0 0 -0.01758,0.02344 c -1.134962,1.4999821 -1.603457,3.1172251 -1.566407,4.5410161 a 1.8,1.8 0 0 0 1.847657,1.751953 1.8,1.8 0 0 0 1.751953,-1.845703 c -0.01575,-0.60521 0.146752,-1.361973 0.83789,-2.275391 C 19.5364,10.333027 19.856258,9.6517389 19.955073,8.8769969 20.054293,8.0990839 19.873983,7.1238734 19.183589,6.4082473 17.284361,4.3385544 15.001995,2.893458 12.466797,2.232463 a 1.8,1.8 0 0 0 -0.445312,-0.058594 z m 24.371093,0 a 1.8,1.8 0 0 0 -0.453125,0.058594 c -2.535198,0.660995 -4.819517,2.1060914 -6.71875,4.1757813 -0.690398,0.7156261 -0.868751,1.6908366 -0.769531,2.4687496 0.09882,0.774742 0.418674,1.4560298 0.884765,2.0585938 0.691138,0.913418 0.85364,1.670181 0.837891,2.275391 a 1.8,1.8 0 0 0 1.751953,1.845703 1.8,1.8 0 0 0 1.845703,-1.751953 c 0.03705,-1.423791 -0.429491,-3.041034 -1.564453,-4.5410158 a 1.80018,1.80018 0 0 0 -0.01953,-0.02344 c -0.044,-0.05624 -0.03509,-0.065 -0.06055,-0.115235 1.431661,-1.4800383 2.994156,-2.4580452 4.720703,-2.9082029 A 1.8,1.8 0 0 0 38.134765,3.5195724 1.8,1.8 0 0 0 36.392578,2.1738693 Z M 24.378906,3.6797287 C 23.374437,3.6798964 22.521983,4.0060346 21.53125,4.435588 a 1.8,1.8 0 0 0 -0.935547,2.3671875 1.8,1.8 0 0 0 2.367188,0.9355464 c 0.875856,-0.3797455 1.224787,-0.4589516 1.417968,-0.4589839 0.193181,-3.22e-5 0.532385,0.07756 1.400391,0.4570309 A 1.8,1.8 0 0 0 28.152344,6.8086349 1.8,1.8 0 0 0 27.222656,4.4375411 C 26.237632,4.0069124 25.383375,3.6795609 24.378906,3.6797287 Z M 5.1972658,13.175822 a 1.8,1.8 0 0 0 -0.453125,0.06641 1.8,1.8 0 0 0 -1.25,2.216797 c 0.4644653,1.666402 0.6315978,3.193373 1.3886719,4.74414 0.7570741,1.550768 2.3349637,2.865875 4.6171875,3.435547 a 1.8,1.8 0 0 0 2.1816408,-1.310547 1.8,1.8 0 0 0 -1.310547,-2.18164 C 8.7684977,19.746497 8.4930511,19.394949 8.1171877,18.625041 7.7413243,17.855134 7.4970355,16.408626 6.9628908,14.492229 a 1.8,1.8 0 0 0 -1.765625,-1.316407 z m 37.6132812,0 a 1.8,1.8 0 0 0 -1.771485,1.316407 c -0.534144,1.916397 -0.780386,3.362905 -1.15625,4.132812 -0.375863,0.769908 -0.65131,1.121456 -2.253906,1.521485 A 1.8,1.8 0 0 0 36.318359,22.328166 1.8,1.8 0 0 0 38.5,23.638713 c 2.282224,-0.569672 3.860113,-1.884779 4.617187,-3.435547 0.757074,-1.550767 0.924207,-3.077738 1.388672,-4.74414 a 1.8,1.8 0 0 0 -1.25,-2.216797 1.8,1.8 0 0 0 -0.445312,-0.06641 z m -24.007813,2.453126 c -1.097382,0 -2.183349,0.397562 -2.941406,1.044921 -0.758057,0.64736 -1.216369,1.421792 -1.638672,2.216797 a 1.80018,1.80018 0 0 0 0,0.002 c -1.854822,3.497762 -3.009765,6.981014 -3.009765,12.03125 0,4.151533 1.56306,7.525494 3.677734,9.957032 2.111907,2.428356 4.726566,3.962915 7.060547,4.71875 0,0 0.002,0 0.002,0 0.514104,0.169336 1.049677,0.276132 1.654297,0.203125 0.605322,-0.07309 1.266729,-0.399539 1.685547,-0.863282 0.837634,-0.927484 0.857422,-1.897917 0.857422,-2.810546 V 21.437541 a 1.8,1.8 0 0 0 -1.798829,-1.798828 1.8,1.8 0 0 0 -1.800781,1.798828 V 41.927776 C 20.94292,41.312957 19.081963,40.213106 17.607422,38.517619 15.980229,36.646607 14.8125,34.191536 14.8125,30.923869 c 0,-4.537553 0.890099,-7.1381 2.589844,-10.34375 v -0.002 c 0.34088,-0.64136 0.626027,-1.020116 0.796875,-1.166015 0.171043,-0.146019 0.200218,-0.181594 0.603515,-0.181594 H 29.5 c 0.389672,0 0.462099,0.04625 0.619141,0.167969 0.155438,0.120479 0.406848,0.423664 0.699218,0.988281 1.419164,2.813023 2.620998,6.415583 2.634766,10.542969 -0.0028,6.741821 -4.293775,9.251079 -5.875,10.367187 a 1.8,1.8 0 0 0 -0.431641,2.507813 1.8,1.8 0 0 0 2.507813,0.433593 c 1.18541,-0.836722 7.398437,-4.904116 7.398437,-13.314453 a 1.80018,1.80018 0 0 0 0,-0.0078 c -0.01607,-4.81748 -1.410965,-8.966339 -3.019531,-12.154297 a 1.80018,1.80018 0 0 0 -0.0059,-0.01172 C 33.602882,17.92471 33.097645,17.152254 32.324219,16.552776 31.550792,15.953297 30.520727,15.628948 29.5,15.628948 Z M 9.8105471,35.294963 a 1.8,1.8 0 0 0 -0.453125,0.05469 C 7.0751273,35.91921 5.4973041,37.23441 4.7402346,38.7852 3.983165,40.335989 3.8160186,41.862955 3.3515627,43.52934 a 1.8,1.8 0 0 0 1.25,2.216797 1.8,1.8 0 0 0 2.21875,-1.25 C 7.3544568,42.57972 7.5987641,41.133208 7.9746095,40.363322 8.350455,39.593437 8.6258905,39.241781 10.228516,38.841838 a 1.8,1.8 0 0 0 1.310547,-2.18164 1.8,1.8 0 0 0 -1.7285159,-1.365235 z m 28.3847649,0 a 1.8,1.8 0 0 0 -1.734375,1.365235 1.8,1.8 0 0 0 1.310547,2.18164 c 1.60262,0.399942 1.878059,0.751599 2.253907,1.521484 0.375846,0.769887 0.620153,2.2164 1.154296,4.132813 a 1.8,1.8 0 0 0 2.21875,1.25 1.8,1.8 0 0 0 1.25,-2.216797 c -0.464456,-1.666387 -0.631601,-3.193352 -1.388672,-4.74414 -0.757069,-1.55079 -2.334897,-2.86599 -4.617187,-3.435547 a 1.8,1.8 0 0 0 -0.447266,-0.05469 z" fill="#008055"/>
</svg>
