<svg xmlns="http://www.w3.org/2000/svg" width="48" height="48">
	<path d="M 24.585796,2.2384854 C 22.944248,2.2151238 21.399728,3.0222283 20.156109,4.2658292 L 4.1814986,20.240438 c -1.159498,1.159814 -1.907689,2.671312 -1.9375,4.285156 -0.02981,1.613844 0.688414,3.219684 1.9375,4.46875 l -0.00586,-0.0039 14.6210944,14.708984 a 2.0002,2.0002 0 0 0 0.0039,0.0039 c 1.21684,1.216833 2.400705,2.0458 3.978516,2.058593 0.788905,0.0064 1.730794,-0.339577 2.316406,-1.017578 0.585612,-0.678 0.775391,-1.506999 0.775391,-2.251953 l 0.01953,-12.205078 1.125,2.066406 a 2,2 0 0 0 2.71289,0.798829 2,2 0 0 0 0.800782,-2.712891 l -4.871094,-8.9375 a 2.0002,2.0002 0 0 0 -3.755859,0.955078 l -0.0293,18.601563 c -0.14184,-0.107632 -0.07961,-0.01988 -0.240235,-0.179688 l -0.0039,-0.0039 L 7.0135306,26.170126 a 2.0002,2.0002 0 0 0 -0.00391,-0.0039 c -0.628843,-0.628833 -0.775842,-1.120953 -0.767578,-1.568359 0.00826,-0.447406 0.199447,-0.961011 0.767578,-1.529297 L 22.984234,7.0939544 c 0.72981,-0.7298 1.196157,-0.860432 1.544922,-0.855469 0.348764,0.005 0.837525,0.169727 1.537109,0.869141 L 40.681499,21.810751 a 2.0002,2.0002 0 0 0 0.0039,0.0039 c 0.717428,0.71745 1.02065,1.43 1.066406,1.980469 0.04571,0.549866 -0.08041,0.991822 -0.621094,1.533203 0,0 0,0.002 0,0.002 L 28.230327,37.783407 a 2,2 0 0 0 -0.04883,2.828125 2,2 0 0 0 2.828125,0.04883 L 43.935406,28.183798 a 2.0002,2.0002 0 0 0 0.02539,-0.02539 c 1.2782,-1.278207 1.916385,-3.020628 1.777344,-4.693359 -0.138895,-1.670966 -0.966619,-3.21897 -2.220703,-4.47461 l -0.0039,-0.0039 L 28.898296,4.2834073 a 2.0002,2.0002 0 0 0 -0.0039,-0.00586 C 27.707414,3.0908611 26.227344,2.261847 24.585796,2.2384854 Z M 23.92564,12.345907 a 2.0002,2.0002 0 0 0 -1.4375,0.585937 l -6.443359,6.44336 a 2,2 0 0 0 0,2.828125 2,2 0 0 0 2.828125,0 l 5.029297,-5.029297 5.029296,5.029297 a 2,2 0 0 0 2.828125,0 2,2 0 0 0 0,-2.828125 l -6.443359,-6.44336 A 2.0002,2.0002 0 0 0 23.92564,12.345907 Z" fill="#008055"/>
</svg>
