<svg xmlns="http://www.w3.org/2000/svg" width="48" height="48">
	<path d="M 26.431366,1.1592448 A 1.9,1.9 0 0 0 25.189178,1.6397135 C 10.49283,14.748413 7.1606043,31.780567 6.3512883,36.754948 a 1.90019,1.90019 0 0 0 -0.00391,0.02148 c -0.433665,2.868364 -0.069244,5.375177 1.267579,7.242188 1.336822,1.86701 3.5964467,2.822265 6.0156237,2.822265 3.118916,0 5.082568,-2.100624 6.421876,-3.605469 0.669653,-0.752422 1.251877,-1.396941 1.767578,-1.785156 0.515701,-0.388214 0.884836,-0.546875 1.464843,-0.546875 1.520127,0 2.970409,1.056577 4.732422,2.523438 1.762014,1.46686 3.805418,3.402343 6.783203,3.402343 2.261897,0 4.412982,-1.102055 5.759766,-2.976562 1.346784,-1.874507 1.744677,-4.603337 0.574219,-7.292969 a 1.90019,1.90019 0 0 0 -0.01172,-0.02734 C 37.290847,28.073125 31.036313,22.341892 29.816131,9.7217448 A 1.9,1.9 0 0 0 27.741913,8.0127604 1.9,1.9 0 0 0 26.032928,10.086979 c 1.328297,13.738367 8.19013,20.438794 11.619141,27.994141 0.708169,1.632277 0.431919,2.706149 -0.177735,3.554687 -0.610536,0.849768 -1.696885,1.392578 -2.673828,1.392578 -1.167515,0 -2.555399,-1.026194 -4.351562,-2.521484 -1.796164,-1.49529 -4.031189,-3.402344 -7.164063,-3.402344 -1.488692,0 -2.787151,0.583771 -3.75,1.308594 -0.962849,0.724823 -1.671119,1.565247 -2.322265,2.296875 -1.302293,1.463255 -2.095947,2.330078 -3.582032,2.330078 -1.527122,0 -2.356481,-0.434608 -2.927734,-1.232422 -0.57085,-0.797252 -0.9339627,-2.229149 -0.597656,-4.458984 2.37e-4,-0.0016 -2.38e-4,-0.0023 0,-0.0039 0.767084,-4.707877 3.940351,-20.6733 17.613281,-32.86914 A 1.9,1.9 0 0 0 27.870819,1.7940104 1.9,1.9 0 0 0 26.431366,1.1592448 Z M 22.499725,18.422916 c -1.736047,-0.06807 -3.427436,0.633975 -4.605469,1.890625 -0.52357,0.558511 -0.945535,1.228215 -1.226562,1.986329 -1.124108,3.032452 0.41095,6.446495 3.425781,7.617187 a 1.5499805,1.5500195 84.995972 0 0 0.169922,0.05273 1.5499805,1.5500195 84.995972 0 0 0.177734,0.07031 c 3.081252,0.982673 6.421088,-0.709726 7.451172,-3.775391 1.030085,-3.065664 -0.608712,-6.432571 -3.658203,-7.509765 -0.571779,-0.201974 -1.155692,-0.309342 -1.734375,-0.332032 z m -0.416015,3.09375 c 0.366712,-0.01916 0.743805,0.03286 1.115234,0.164063 1.485714,0.52481 2.25576,2.104075 1.753906,3.597656 -0.501853,1.493582 -2.069126,2.285399 -3.570312,1.806641 a 1.5499805,1.5500195 84.995972 0 0 -0.07031,-0.01758 1.5499805,1.5500195 84.995972 0 0 -0.0059,-0.0039 1.5499805,1.5500195 84.995972 0 0 -0.08984,-0.03711 c -1.468827,-0.570362 -2.19024,-2.171037 -1.642578,-3.648438 0.410746,-1.10805 1.409629,-1.80385 2.509766,-1.861328 z" fill="#008055"/>
</svg>
