<svg xmlns="http://www.w3.org/2000/svg" width="48" height="48">
	<path d="M 9.1972656,3.7124018 C 7.732938,3.7124628 6.3064635,4.0068034 5.2773438,5.0463862 4.248224,6.0859691 4,7.4806878 4,8.7963862 V 36.390136 c 1.257e-4,4.419302 3.4252343,7.894531 7.697266,7.894531 h 13.835937 c 4.251943,0.119573 7.396484,-3.436893 7.396484,-7.439453 V 18.54248 a 2,2 0 0 0 -2,-2 2,2 0 0 0 -2,2 v 18.302734 c 0,2.159841 -1.115039,3.502434 -3.285156,3.441406 a 2.0002,2.0002 0 0 0 -0.05469,-0.002 H 11.697266 C 9.3385969,40.284667 8.0000743,39.003635 8,36.390136 V 8.7963862 C 8,7.9786847 8.1496879,7.8299815 8.1191406,7.8608393 8.0885934,7.8916972 8.2609432,7.7124409 9.1972656,7.7124019 H 28.314453 c 0.81821,0 0.82896,0.1556361 0.658203,-0.021484 -0.170757,-0.1771206 -0.04297,-0.1665036 -0.04297,0.5078125 v 2.3730466 c 0,0.917338 0.160328,1.929918 0.835938,2.851562 0.67561,0.921645 1.941323,1.521485 3.171875,1.521485 h 2.833984 c 0.976067,0 1.948018,0.171325 2.685547,0.839843 C 39.19456,16.453185 40,17.83181 40,21.134277 c 0,3.324833 -0.769404,4.567481 -1.351563,5.083984 -0.582158,0.516503 -1.334665,0.606085 -2.220703,0.609375 a 2,2 0 0 0 -1.992187,2.007813 2,2 0 0 0 2.007812,1.992187 c 1.133683,-0.0042 3.164364,-0.11334 4.859375,-1.617187 C 42.997745,27.706602 44,25.106743 44,21.134277 c 0,-3.994833 -1.090426,-6.710843 -2.857422,-8.3125 -1.766996,-1.601657 -3.90766,-1.876953 -5.371094,-1.876953 h -2.792968 c -0.01,-0.03798 -0.04883,-0.09155 -0.04883,-0.373047 V 8.19873 c 0,-1.0620839 -0.125334,-2.2969326 -1.076171,-3.2832031 C 30.902678,3.9292563 29.606583,3.7124018 28.314453,3.7124018 Z" fill="#008055"/>
</svg>
