<svg xmlns="http://www.w3.org/2000/svg" width="48" height="48">
	<path d="M 16.806641 2.8554688 A 1.9 1.9 0 0 0 14.90625 4.7558594 L 14.90625 11.169922 A 1.9 1.9 0 0 0 16.806641 13.070312 A 1.9 1.9 0 0 0 18.707031 11.169922 L 18.707031 4.7558594 A 1.9 1.9 0 0 0 16.806641 2.8554688 z M 23.996094 2.8554688 A 1.9 1.9 0 0 0 22.097656 4.7558594 L 22.097656 11.169922 A 1.9 1.9 0 0 0 23.996094 13.070312 A 1.9 1.9 0 0 0 25.896484 11.169922 L 25.896484 4.7558594 A 1.9 1.9 0 0 0 23.996094 2.8554688 z M 31.1875 2.8554688 A 1.9 1.9 0 0 0 29.287109 4.7558594 L 29.287109 11.169922 A 1.9 1.9 0 0 0 31.1875 13.070312 A 1.9 1.9 0 0 0 33.085938 11.169922 L 33.085938 4.7558594 A 1.9 1.9 0 0 0 31.1875 2.8554688 z M 9.6757812 6.0292969 C 8.2261101 6.0292969 6.7116891 6.4467238 5.4863281 7.4765625 C 4.2609672 8.5064012 3.4511719 10.190109 3.4511719 12.121094 L 3.4511719 39.074219 A 1.90019 1.90019 0 0 0 3.4511719 39.130859 C 3.5057849 40.974139 4.3519384 42.613261 5.6230469 43.644531 C 6.8941554 44.675801 8.5063111 45.144531 10.152344 45.144531 A 1.90019 1.90019 0 0 0 10.154297 45.144531 L 38.460938 45.105469 C 40.122309 45.105469 41.724708 44.651001 42.878906 43.529297 C 44.033104 42.407593 44.548828 40.775731 44.548828 39.035156 L 44.548828 12.121094 C 44.548828 10.501846 44.01975 8.9304136 42.919922 7.7890625 C 41.820094 6.6477114 40.205475 6.0292969 38.460938 6.0292969 L 36.765625 6.0292969 A 1.9 1.9 0 0 0 34.865234 7.9296875 A 1.9 1.9 0 0 0 36.765625 9.8300781 L 38.460938 9.8300781 C 39.37223 9.8300781 39.852919 10.082622 40.183594 10.425781 C 40.514268 10.76894 40.75 11.296442 40.75 12.121094 L 40.75 39.035156 C 40.75 40.085442 40.505681 40.539121 40.232422 40.804688 C 39.959163 41.070253 39.467556 41.306641 38.460938 41.306641 A 1.90019 1.90019 0 0 0 38.458984 41.306641 L 10.152344 41.34375 C 9.237246 41.34375 8.4868071 41.074052 8.0175781 40.693359 C 7.5483491 40.312667 7.275147 39.866329 7.25 39.017578 L 7.25 12.121094 C 7.25 11.137088 7.5307791 10.723618 7.9316406 10.386719 C 8.3325022 10.04982 8.9791426 9.8300781 9.6757812 9.8300781 L 11.466797 9.8300781 A 1.9 1.9 0 0 0 13.365234 7.9296875 A 1.9 1.9 0 0 0 11.466797 6.0292969 L 9.6757812 6.0292969 z M 29.904297 17.929688 A 1.7 1.7 0 0 0 28.359375 18.863281 L 23.269531 28.951172 A 1.7 1.7 0 0 0 23.269531 28.953125 A 1.7 1.7 0 0 0 23.269531 28.955078 L 23.263672 28.964844 A 1.7 1.7 0 0 0 23.222656 29.052734 A 1.7 1.7 0 0 0 23.193359 29.123047 A 1.7 1.7 0 0 0 23.177734 29.164062 A 1.7 1.7 0 0 0 23.177734 29.166016 A 1.7 1.7 0 0 0 23.169922 29.191406 A 1.7 1.7 0 0 0 23.146484 29.263672 A 1.7 1.7 0 0 0 23.136719 29.302734 A 1.7 1.7 0 0 0 23.121094 29.365234 A 1.7 1.7 0 0 0 23.119141 29.376953 A 1.7 1.7 0 0 0 23.101562 29.476562 A 1.7 1.7 0 0 0 23.097656 29.511719 A 1.7 1.7 0 0 0 23.082031 29.691406 A 1.7 1.7 0 0 0 23.082031 29.703125 A 1.7 1.7 0 0 0 23.082031 29.730469 A 1.7 1.7 0 0 0 23.082031 29.757812 A 1.7 1.7 0 0 0 23.083984 29.8125 A 1.7 1.7 0 0 0 23.085938 29.839844 A 1.7 1.7 0 0 0 23.246094 30.460938 A 1.7 1.7 0 0 0 23.261719 30.492188 A 1.7 1.7 0 0 0 23.492188 30.837891 A 1.7 1.7 0 0 0 23.494141 30.839844 A 1.7 1.7 0 0 0 23.546875 30.898438 A 1.7 1.7 0 0 0 23.566406 30.917969 A 1.7 1.7 0 0 0 23.816406 31.128906 A 1.7 1.7 0 0 0 23.818359 31.130859 A 1.7 1.7 0 0 0 23.826172 31.136719 A 1.7 1.7 0 0 0 23.886719 31.175781 A 1.7 1.7 0 0 0 23.910156 31.189453 A 1.7 1.7 0 0 0 24.015625 31.248047 A 1.7 1.7 0 0 0 24.105469 31.289062 A 1.7 1.7 0 0 0 24.216797 31.333984 A 1.7 1.7 0 0 0 24.310547 31.363281 A 1.7 1.7 0 0 0 24.388672 31.382812 A 1.7 1.7 0 0 0 24.525391 31.410156 A 1.7 1.7 0 0 0 24.535156 31.412109 A 1.7 1.7 0 0 0 24.634766 31.423828 A 1.7 1.7 0 0 0 24.863281 31.429688 L 31.205078 31.429688 L 31.205078 33.509766 L 30.005859 33.509766 A 1.7 1.7 0 0 0 28.304688 35.208984 A 1.7 1.7 0 0 0 30.005859 36.908203 L 35.804688 36.908203 A 1.7 1.7 0 0 0 37.503906 35.208984 A 1.7 1.7 0 0 0 35.804688 33.509766 L 34.605469 33.509766 L 34.605469 24.90625 A 1.7 1.7 0 0 0 32.904297 23.207031 A 1.7 1.7 0 0 0 31.205078 24.90625 L 31.205078 28.029297 L 27.544922 28.029297 L 31.394531 20.394531 A 1.7 1.7 0 0 0 30.642578 18.111328 A 1.7 1.7 0 0 0 29.904297 17.929688 z M 13.480469 18.357422 A 1.7 1.7 0 0 0 11.779297 20.056641 A 1.7 1.7 0 0 0 13.480469 21.755859 L 15.015625 21.755859 L 15.015625 33.509766 L 13.816406 33.509766 A 1.7 1.7 0 0 0 12.117188 35.208984 A 1.7 1.7 0 0 0 13.816406 36.908203 L 19.615234 36.908203 A 1.7 1.7 0 0 0 21.316406 35.208984 A 1.7 1.7 0 0 0 19.615234 33.509766 L 18.416016 33.509766 L 18.416016 20.09375 A 1.7 1.7 0 0 0 18.416016 20.056641 A 1.7 1.7 0 0 0 18.412109 19.947266 A 1.7 1.7 0 0 0 16.716797 18.357422 L 13.480469 18.357422 z " fill="#008055"/>
</svg>
