<svg xmlns="http://www.w3.org/2000/svg" width="48" height="48">
	<path d="m 19.08998,3.6563759 c -1.798984,0.057805 -3.619804,0.5251768 -5.333984,1.375 a 2.1002099,2.1002099 0 0 0 -0.0293,0.015625 C 5.4135866,9.3276737 2.8583863,19.15787 4.4766985,27.701297 c 0.8091561,4.271714 2.6479628,8.324935 5.4941404,11.410157 2.8461781,3.085221 6.7867051,5.171903 11.4121101,5.238281 a 2.1002099,2.1002099 0 0 0 0.01367,0 c 3.346353,0.02582 5.624071,-2.493471 6.050782,-4.933594 0.213355,-1.220061 0.09098,-2.479959 -0.566406,-3.615234 -0.657385,-1.135275 -2.080878,-2.051541 -3.587891,-2.021484 a 2.0999999,2.0999999 0 0 0 -2.058594,2.142578 2.0999999,2.0999999 0 0 0 2.017578,2.05664 c 0.03986,0.09918 0.119787,0.364916 0.05859,0.714844 -0.134565,0.769499 -0.42333,1.464311 -1.878906,1.455078 -3.425163,-0.05199 -6.17353,-1.498399 -8.375,-3.884766 -2.20369,-2.38877 -3.7721611,-5.748788 -4.4531253,-9.34375 -1.3605352,-7.182565 0.773164,-14.893905 7.0292973,-18.1289055 2.809986,-1.3891279 5.460203,-1.286254 7.644531,0.2050782 2.187377,1.4934143 4.086018,4.6119183 4.521484,9.9589843 a 2.1002099,2.1002099 0 0 0 4.125,0.349609 h 7.962891 a 2.0999999,2.0999999 0 0 0 1.97852,1.451172 2.0999999,2.0999999 0 0 0 2.117188,-2.082031 C 44.022713,13.99319 41.220893,10.005379 37.27748,9.1739541 35.305773,8.7582416 33.055994,9.3497515 31.375136,10.949344 31.034058,11.273933 30.804161,11.790695 30.504042,12.185673 29.386266,9.2780991 27.763888,6.9743506 25.644667,5.5274697 23.896928,4.3342145 21.905267,3.7248333 19.859511,3.6563759 c -0.255719,-0.00856 -0.512533,-0.00826 -0.769531,0 z m 16.794922,9.5644531 c 0.17107,9.8e-4 0.344447,0.02435 0.52539,0.0625 0.847741,0.178736 1.859773,0.998957 2.554688,2.222656 h -5.777344 c 0.359242,-0.677525 0.73354,-1.18017 1.083984,-1.513672 0.608231,-0.578824 1.100071,-0.774425 1.613282,-0.771484 z" fill="#008055"/>
</svg>
