<svg xmlns="http://www.w3.org/2000/svg" width="48" height="48">
	<path d="m 39.300409,1.6837779 c -0.567038,-0.00968 -1.150521,0.01626 -1.746094,0.070313 -2.390328,0.2169404 -5.025985,0.9452474 -7.660156,2.140625 a 1.9,1.9 0 0 0 -0.943359,2.515625 1.9,1.9 0 0 0 2.513672,0.9453125 c 2.287857,-1.0382224 4.565849,-1.6470716 6.43164,-1.8164063 1.865791,-0.1693346 3.27242,0.1665137 3.833984,0.5507813 a 1.90019,1.90019 0 0 0 0.0332,0.023437 c 0.889722,0.5823029 1.611134,2.0223432 0.939453,5.1621096 -0.671677,3.139766 -2.848478,7.650756 -7.291012,13.156249 -4.947805,6.039989 -10.803367,11.074658 -16.1875,14.263672 -5.353033,3.170594 -10.2147174,4.314594 -12.8574224,3.511719 -0.782218,-0.308512 -1.112022,-0.755155 -1.261719,-2.044922 -0.152858,-1.317021 0.153846,-3.360003 1.009766,-5.71875 0.42797,-1.179395 0.987068,-2.439975 1.664063,-3.746094 a 1.9,1.9 0 0 0 -0.8125,-2.560547 1.9,1.9 0 0 0 -2.5625,0.8125 c -0.744565,1.436481 -1.367246,2.843014 -1.859375,4.199219 -0.98427,2.712453 -1.472945,5.210569 -1.212891,7.451172 0.260054,2.240604 1.553785,4.368018 3.730469,5.189453 a 1.90019,1.90019 0 0 0 0.097656,0.0332 c 4.556415,1.443212 10.1504174,-0.391565 16.0019534,-3.857421 5.851537,-3.465857 11.976868,-8.75888 17.199219,-15.136719 a 1.90019,1.90019 0 0 0 0.0078,-0.0098 C 43.060882,21.003701 45.559731,16.089618 46.419538,12.07046 47.277486,8.0599886 46.390988,4.6181983 43.857038,2.9474128 42.556112,2.0636094 41.001512,1.71278 39.300397,1.6837409 Z m -13.689453,7.40625 c -4.353188,0.097767 -8.561245,1.6754051 -11.955078,4.8554691 a 1.90019,1.90019 0 0 0 -0.01367,0.01172 c -5.4573844,5.211035 -5.1907504,13.11275 -2.593752,19.048827 a 1.9,1.9 0 0 0 2.501953,0.978516 1.9,1.9 0 0 0 0.978516,-2.501953 C 12.381603,26.574375 12.259229,20.536738 16.2633,16.709168 c 4.466791,-4.178536 10.421254,-4.901397 16.28125,-2.5 a 1.90019,1.90019 0 0 0 0.01758,0.0078 c 0.259136,0.103146 0.22809,0.131989 0.263672,0.259766 0.03472,0.12469 -0.04006,0.345797 0.02344,0.234375 -3.307903,5.71294 -9.995099,12.449401 -16.45313,17.300783 a 1.9,1.9 0 0 0 -0.378906,2.660157 1.9,1.9 0 0 0 2.662109,0.376953 C 25.477457,29.942133 32.408818,23.078298 36.159784,16.582215 a 1.90019,1.90019 0 0 0 0.01953,-0.03711 c 0.52714,-0.959942 0.61222,-1.990543 0.306642,-3.087891 -0.30484,-1.094696 -1.18741,-2.23468 -2.511719,-2.765625 C 32.228348,9.9770483 30.435639,9.4947867 28.640253,9.2579966 27.628531,9.1245626 26.615538,9.0674662 25.610956,9.0900279 Z M 42.218378,24.500184 a 1.9,1.9 0 0 0 -0.203125,0.01172 1.9,1.9 0 0 0 -1.673828,2.101563 c 0.372366,3.295463 -0.586423,6.279469 -2.660157,8.484375 -2.073733,2.204906 -5.314935,3.68948 -9.824218,3.662109 a 1.9,1.9 0 0 0 -1.910157,1.888672 1.9,1.9 0 0 0 1.888672,1.910157 c 5.375497,0.03263 9.754283,-1.815503 12.615235,-4.857422 2.860951,-3.04192 4.151508,-7.218989 3.666015,-11.515625 a 1.9,1.9 0 0 0 -1.898437,-1.685547 z" fill="#008055"/>
</svg>
