<svg xmlns="http://www.w3.org/2000/svg" width="48" height="48">
	<path d="m 14.241211,1.9267579 c -1.619248,0 -3.188728,0.5310364 -4.3300783,1.6308593 C 8.7697829,4.6574403 8.149414,6.2720724 8.149414,8.0166016 V 39.37207 c 0,1.70543 0.3710211,3.357876 1.4257812,4.66211 1.0547598,1.304233 2.7829148,2.039062 4.6660158,2.039062 a 1.9,1.9 0 0 0 1.90039,-1.90039 1.9,1.9 0 0 0 -1.90039,-1.898438 c -1.031889,0 -1.39896,-0.245093 -1.710938,-0.630859 -0.311977,-0.385767 -0.580078,-1.134714 -0.580078,-2.271485 V 8.0166016 c 0,-0.9112707 0.254494,-1.3919792 0.597656,-1.7226562 0.343163,-0.330677 0.868717,-0.5664063 1.69336,-0.5664063 h 19.539062 c 1.050291,0 1.503966,0.2443219 1.769531,0.5175781 0.265566,0.2732563 0.501954,0.7648617 0.501954,1.7714844 V 39.37207 c 0,1.033625 -0.294837,1.777611 -0.669922,2.220703 -0.375085,0.443093 -0.808784,0.681641 -1.601563,0.681641 H 19.924805 a 1.9,1.9 0 0 0 -1.900391,1.898438 1.9,1.9 0 0 0 1.900391,1.90039 h 13.855468 c 1.781641,0 3.435654,-0.765758 4.501953,-2.02539 1.0663,-1.259633 1.56836,-2.918106 1.56836,-4.675782 V 8.0166016 c 0,-1.6613773 -0.454463,-3.2657282 -1.576172,-4.4199218 C 37.152704,2.442486 35.520843,1.9267579 33.780273,1.9267579 Z M 17.90918,12.913086 c -1.383783,-0.0081 -2.779796,0.377407 -3.986329,1.183594 a 1.7,1.7 0 0 0 -0.46875,2.359375 1.7,1.7 0 0 0 2.359375,0.46875 c 1.038675,-0.694027 3.150753,-0.649507 4.144532,0.0059 a 1.7,1.7 0 0 0 2.355468,-0.484375 1.7,1.7 0 0 0 -0.484375,-2.353516 c -1.1646,-0.768016 -2.536139,-1.171567 -3.919921,-1.179687 z m 12.451171,0 c -1.383782,-0.0081 -2.777842,0.377407 -3.984375,1.183594 a 1.7,1.7 0 0 0 -0.46875,2.359375 1.7,1.7 0 0 0 2.359375,0.46875 c 1.038675,-0.694027 3.150753,-0.649507 4.144532,0.0059 a 1.7,1.7 0 0 0 2.355468,-0.484375 1.7,1.7 0 0 0 -0.484375,-2.353516 c -1.1646,-0.768016 -2.538093,-1.171567 -3.921875,-1.179687 z M 15.749023,27.47168 a 1.7,1.7 0 0 0 -1.417968,0.77539 1.7,1.7 0 0 0 0.5,2.351563 c 2.433352,1.578675 5.657085,2.288471 8.970703,2.310547 3.313617,0.02208 6.729096,-0.662443 9.505859,-2.265625 a 1.7,1.7 0 0 0 0.623047,-2.322266 1.7,1.7 0 0 0 -2.322266,-0.621094 c -2.068077,1.194018 -4.972576,1.827319 -7.783203,1.808594 -2.810627,-0.01872 -5.515911,-0.708347 -7.142578,-1.763672 A 1.7,1.7 0 0 0 15.749023,27.47168 Z" fill="#008055"/>
</svg>
