<svg xmlns="http://www.w3.org/2000/svg" width="48" height="48">
	<path d="m 24.077323,1.9474537 c -5.162438,0.00315 -10.322464,1.770677 -14.4042972,5.296875 a 1.90019,1.90019 0 0 0 -0.027344,0.025391 C 8.783786,8.0439891 7.9972257,8.9943326 7.6241977,10.240422 7.2511695,11.486512 7.426398,12.978474 8.1574008,14.269719 l 4.1171872,7.375 a 1.9,1.9 0 0 0 2.583985,0.732422 1.9,1.9 0 0 0 0.734375,-2.585937 l -4.123047,-7.384766 a 1.90019,1.90019 0 0 0 -0.0059,-0.0098 c -0.316097,-0.558355 -0.289695,-0.764171 -0.199218,-1.066406 0.08949,-0.298937 0.383016,-0.743113 0.910156,-1.220703 7.674268,-6.6132748 20.077401,-5.7346681 26.496094,2.857422 a 1.9,1.9 0 0 0 2.660156,0.384765 1.9,1.9 0 0 0 0.384766,-2.660156 C 37.840671,5.5040695 32.162132,2.6272476 26.286307,2.0548756 25.551829,1.9833291 24.814814,1.9470043 24.077323,1.9474537 Z M 5.2589633,14.347844 a 1.9,1.9 0 0 0 -1.7050784,1.150391 c -5.10973,11.899813 1.3921007,25.422634 13.0371101,29.472656 a 1.90019,1.90019 0 0 0 0.03516,0.01367 c 1.101494,0.359286 2.318333,0.561726 3.583984,0.261718 1.265652,-0.300007 2.46795,-1.195936 3.220703,-2.474609 l 4.330079,-7.251953 a 1.9,1.9 0 0 0 -0.658204,-2.605469 1.9,1.9 0 0 0 -2.605468,0.658203 l -4.333985,7.261719 a 1.90019,1.90019 0 0 0 -0.0059,0.0098 c -0.325507,0.552926 -0.51723,0.63231 -0.824219,0.705078 -0.304236,0.07212 -0.836534,0.04312 -1.515625,-0.175781 C 8.2546254,38.032711 2.8147979,26.850301 7.0460727,16.996282 A 1.9,1.9 0 0 0 6.0499789,14.502141 1.9,1.9 0 0 0 5.2589633,14.347844 Z m 26.7968747,0.716797 a 1.9,1.9 0 0 0 -1.925781,1.873047 1.9,1.9 0 0 0 1.871094,1.927734 l 8.457031,0.123047 a 1.90019,1.90019 0 0 0 0.01172,0 c 0.641623,0.0054 0.806955,0.129923 1.023437,0.359375 0.214392,0.227236 0.45352,0.703612 0.603516,1.400391 1.888601,9.952037 -5.075195,20.254941 -15.72461,21.517578 a 1.9,1.9 0 0 0 -1.66211,2.109375 1.9,1.9 0 0 0 2.111328,1.664062 C 39.681791,44.514479 48.142476,32.12181 45.827323,20.011907 a 1.90019,1.90019 0 0 0 -0.0078,-0.03711 c -0.239581,-1.133535 -0.66988,-2.288277 -1.5625,-3.234375 -0.892619,-0.946097 -2.272116,-1.540168 -3.755859,-1.552734 z m -7.757812,0.876953 c -2.938092,-0.09229 -5.844379,1.373056 -7.4375,4.066407 -2.264793,3.828887 -1.036305,8.752021 2.664062,11.158202 a 1.6999908,1.7000092 85.017552 0 0 0.16211,0.148438 c 0.02309,0.01414 0.03531,0.03879 0.05859,0.05273 a 1.6999908,1.7000092 85.017552 0 0 0.0625,0.03516 1.6999908,1.7000092 85.017552 0 0 0.0078,0.0039 1.6999908,1.7000092 85.017552 0 0 0.08594,0.05273 c 0.0235,0.01338 0.05064,0.01227 0.07422,0.02539 a 1.6999908,1.7000092 85.017552 0 0 0.0098,0.0039 1.6999908,1.7000092 85.017552 0 0 0.197265,0.06445 c 0.0021,0.0011 0.0038,8.59e-4 0.0059,0.002 3.912759,2.036861 8.800032,0.687744 11.021484,-3.164062 2.273917,-3.94291 0.92442,-9.030568 -3.005921,-11.326198 -1.228232,-0.717384 -2.570754,-1.081096 -3.90625,-1.123047 z m -0.595703,3.388672 c 0.938801,-0.05788 1.906091,0.155338 2.787109,0.669922 2.349382,1.372225 3.136623,4.334533 1.777344,6.691406 -1.359279,2.356872 -4.317288,3.16072 -6.681641,1.814453 a 1.6999908,1.7000092 85.017552 0 0 -0.05273,-0.0293 1.6999908,1.7000092 85.017552 0 0 -0.04297,-0.02539 c -2.334129,-1.398014 -3.086329,-4.369176 -1.701175,-6.710935 0.865721,-1.463599 2.349394,-2.313697 3.914063,-2.410156 z" fill="#008055"/>
</svg>
