<svg xmlns="http://www.w3.org/2000/svg" width="48" height="48">
	<path d="m 24.396581,2.0241346 c -2.843297,-0.049719 -5.75767,0.4564532 -8.601563,1.6054687 a 2.0002,2.0002 0 0 0 -0.002,0.00195 C 4.6583983,8.1504748 0.1293295,18.504405 2.4629865,29.385463 a 2,2 0 0 0 2.375,1.537109 2,2 0 0 0 1.5371094,-2.375 C 4.3519718,19.114424 7.7007749,11.233472 17.293065,7.3385878 l 0.0039,-0.002 c 9.362414,-3.7800975 19.58549,0.975858 23.291016,9.3867192 a 2.0002,2.0002 0 0 0 0.0059,0.01562 c 2.742856,6.086402 2.433593,15.688905 -5.673828,21.845704 -8.27173,5.655146 -18.662627,3.934384 -24.648438,-2.669922 -0.230229,-0.286782 -0.250132,-0.4245 -0.21289,-0.705078 0.03818,-0.287634 0.225229,-0.715389 0.542968,-1.097657 L 22.252049,20.213588 a 2.0002,2.0002 0 0 0 0.0332,-0.04102 c 0.450781,-0.567228 0.471046,-0.547691 0.486328,-0.599609 0.0922,0.09658 0.117395,0.09627 0.261718,0.298828 a 2.0002,2.0002 0 0 0 0.01758,0.02344 l 3.375,4.587891 a 2.0002,2.0002 0 0 0 0.01953,0.02734 c 0.449325,0.58938 0.842242,1.056733 1.40039,1.466797 0.55815,0.410063 1.566079,0.784665 2.496094,0.496094 0.930016,-0.288573 1.362756,-0.891253 1.667969,-1.353516 0.284509,-0.430907 0.483839,-0.857675 0.699219,-1.314453 l 4.84375,5.613281 a 2,2 0 0 0 2.820312,0.207031 2,2 0 0 0 0.208985,-2.820312 l -5.167969,-5.990235 a 2.0002,2.0002 0 0 0 -0.06445,-0.07031 c -0.448564,-0.471932 -0.83996,-0.862544 -1.382813,-1.205078 -0.542852,-0.342534 -1.47639,-0.660466 -2.376953,-0.378906 -0.900563,0.281559 -1.356705,0.880895 -1.669922,1.357421 -0.237962,0.362034 -0.412799,0.750618 -0.599609,1.148438 l -3.029297,-4.117188 -0.002,-0.002 c -0.457603,-0.641948 -0.928639,-1.180762 -1.566406,-1.603515 -0.638553,-0.423274 -1.533618,-0.679199 -2.34961,-0.558594 -1.631984,0.24121 -2.419046,1.292543 -3.21875,2.298828 L 7.5313459,31.547572 a 2.0002,2.0002 0 0 0 -0.00586,0.0078 c -0.7069596,0.850532 -1.2679748,1.89584 -1.4316406,3.128906 -0.1636659,1.233066 0.1732314,2.667031 1.0898437,3.785156 a 2.0002,2.0002 0 0 0 0.058594,0.06836 c 7.310713,8.133467 20.070807,10.134776 29.986329,3.320325 a 2.0002,2.0002 0 0 0 0.07227,-0.05273 C 47.002556,34.470817 47.689259,22.755468 44.242284,15.100307 40.80912,7.3191628 32.922623,2.173223 24.396581,2.0241346 Z" fill="#008055"/>
</svg>
