<svg xmlns="http://www.w3.org/2000/svg" width="48" height="48">
	<path d="m 23.953137,2.9582082 c -1.647637,0.02157 -3.054734,0.997366 -4.132813,2.328126 -0.872676,1.071082 -1.637971,2.170433 -2.304687,3.296874 -1.334866,2.2553078 -2.2739,4.6159308 -2.927735,7.0703128 -1.21753,4.570595 -1.430557,9.49351 -1.466797,14.822266 l -1.855468,0.892578 c -0.0018,8.41e-4 -0.0021,0.0031 -0.0039,0.0039 -1.8637718,0.873152 -3.0101488,2.392087 -3.4765618,3.875 -0.466863,1.484344 -0.41211,2.883412 -0.41211,3.994141 v 2.433593 c 0,0.652386 -0.00211,1.151815 0.234375,1.802735 0.11824,0.325459 0.328182,0.734754 0.759766,1.066406 0.431584,0.331652 1.039665,0.46437 1.464844,0.433594 0.8503568,-0.06155 1.1883568,-0.366752 1.5585938,-0.605469 0.370235,-0.238717 0.718353,-0.496522 1.109374,-0.769531 a 1.80018,1.80018 0 0 0 0.02734,-0.01953 c 0.693289,-0.503086 1.383839,-0.910389 2.066406,-1.228515 1.364855,-0.63612 2.686686,-0.914537 3.97461,-0.871094 a 1.8,1.8 0 0 0 1.861328,-1.738281 1.8,1.8 0 0 0 -1.738281,-1.859375 c -1.896096,-0.06396 -3.800559,0.358398 -5.617188,1.205078 -0.716984,0.334166 -1.411432,0.783994 -2.101562,1.246094 v -1.095703 c 0,-1.148071 0.0184,-2.183932 0.248047,-2.914063 0.229644,-0.730131 0.510662,-1.201912 1.570312,-1.697265 a 1.80018,1.80018 0 0 0 0.01758,-0.0078 l 2.857422,-1.375 a 1.80018,1.80018 0 0 0 1.019531,-1.619141 c 0.01025,-5.717834 0.218196,-10.682246 1.38086,-15.046875 0.581331,-2.182218 1.394906,-4.219721 2.546875,-6.166015 0.575985,-0.9731478 1.237605,-1.9239478 2,-2.8593748 a 1.80018,1.80018 0 0 0 0.0039,-0.0039 c 0.675354,-0.833641 1.141464,-0.990981 1.382812,-0.99414 0.241349,-0.0032 0.679941,0.118454 1.38086,0.990234 a 1.80018,1.80018 0 0 0 0.0059,0.0078 c 0.762397,0.935427 1.424015,1.886228 2,2.8593748 1.151972,1.946294 1.967495,3.983797 2.548828,6.166015 1.162668,4.364628 1.37063,9.329044 1.38086,15.046875 a 1.80018,1.80018 0 0 0 1.019531,1.619141 l 2.855469,1.375 c 0.966112,0.465165 1.270982,0.918572 1.521484,1.642578 0.250502,0.724006 0.316406,1.769157 0.316406,2.976563 v 1.154296 c -0.761032,-0.489764 -1.527309,-0.945734 -2.296875,-1.287109 -1.833606,-0.813489 -3.65658,-1.222183 -5.335937,-1.291015 a 1.8,1.8 0 0 0 -1.871094,1.724609 1.8,1.8 0 0 0 1.724609,1.873047 c 1.199533,0.04917 2.590843,0.349663 4.021485,0.984375 a 1.80018,1.80018 0 0 0 0.002,0 c 0.715341,0.317321 1.438951,0.717381 2.158203,1.210937 0.384662,0.279729 0.736614,0.546206 1.107422,0.789063 0.383376,0.251088 0.738107,0.563175 1.589844,0.626953 0.425868,0.03189 1.027392,-0.09484 1.46289,-0.419922 0.435499,-0.325082 0.657759,-0.735979 0.783203,-1.068359 0.250893,-0.664762 0.253907,-1.18683 0.253907,-1.863282 v -2.433593 c 0,-1.280695 -0.0121,-2.704654 -0.513672,-4.154297 -0.501568,-1.449644 -1.62308,-2.87205 -3.361328,-3.708985 l -1.875,-0.902343 C 34.842694,25.147031 34.631608,20.224115 33.414074,15.653521 32.760237,13.199139 31.819257,10.838516 30.484387,8.5832082 29.81902,7.4590512 29.056028,6.3612182 28.185558,5.2921932 l -0.002,-0.002 c -1.118567,-1.390309 -2.58372,-2.353586 -4.230468,-2.332032 z m 0.128906,12.7890628 c -1.127435,-0.01447 -2.236105,0.378096 -3.101563,1.105469 -0.461576,0.387932 -0.854857,0.870792 -1.144531,1.4375 -1.158698,2.26683 -0.266437,5.083628 1.986328,6.269531 a 1.3999737,1.4000263 85.002501 0 0 0.107422,0.05078 1.3999737,1.4000263 85.002501 0 0 0.0078,0.0039 1.3999737,1.4000263 85.002501 0 0 0.08594,0.04492 c 2.307336,1.075888 5.091629,0.08318 6.195312,-2.210937 1.103684,-2.294117 0.143996,-5.089479 -2.136718,-6.220703 -0.641451,-0.318157 -1.323539,-0.47179 -2,-0.480469 z m 0.03516,2.792969 c 0.241693,0.01693 0.484808,0.08123 0.71875,0.197265 0.935768,0.464137 1.310251,1.554844 0.857422,2.496094 -0.452829,0.94125 -1.537684,1.328152 -2.484375,0.886719 a 1.3999737,1.4000263 85.002501 0 0 -0.03711,-0.01367 1.3999737,1.4000263 85.002501 0 0 -0.04492,-0.02539 c -0.924302,-0.486571 -1.272276,-1.587523 -0.796875,-2.517578 0.35655,-0.697541 1.062031,-1.07424 1.787109,-1.023437 z m -0.117192,11.285156 a 1.8,1.8 0 0 0 -1.798828,1.798828 v 11.617188 a 1.8,1.8 0 0 0 1.798828,1.800781 1.8,1.8 0 0 0 1.800782,-1.800781 V 31.624224 a 1.8,1.8 0 0 0 -1.800782,-1.798828 z" fill="#008055"/>
</svg>
