<svg xmlns="http://www.w3.org/2000/svg" width="48" height="48">
	<path d="m 38.878906,1.3989218 c -0.559886,0.017351 -1.016104,0.2662691 -1.259766,0.453125 -0.649765,0.4982829 -0.797404,0.8798624 -1.087891,1.4101563 a 1.90019,1.90019 0 0 0 -0.01172,0.021484 c -1.003393,1.8890127 -2.226583,3.4055272 -4.029297,4.3515625 a 1.9,1.9 0 0 0 -0.798828,2.5644534 1.9,1.9 0 0 0 2.564453,0.800781 c 0.883851,-0.463831 1.527054,-1.1248758 2.220703,-1.7441408 -0.122624,0.344831 -0.21366,0.689995 -0.353516,1.0351558 -0.837119,1.990341 -0.766645,4.154156 0.384766,5.673828 a 1.90019,1.90019 0 0 0 0.0078,0.0078 c 2.330072,3.03635 3.841796,6.747184 3.841796,11.507813 0,8.215409 -7.890267,15.320312 -16.628906,15.320312 -8.533309,0 -16.0859371,-7.102185 -16.0859371,-15.458984 0,-4.756481 1.1964399,-7.95221 3.6445311,-10.886719 a 1.90019,1.90019 0 0 0 0.0059,-0.0078 c 0.711962,-0.863023 1.123729,-1.992118 1.132812,-3.072265 0.0091,-1.080147 -0.284927,-2.075963 -0.695312,-3.121094 -0.188934,-0.5210428 -0.166467,-1.0648008 -0.298829,-1.5996088 0.509578,0.495969 0.951526,1.138963 1.476563,1.5820308 1.847782,1.603894 4.231759,1.292625 5.746093,0.765625 l -0.03906,0.01367 c 2.702943,-0.876166 7.161325,-0.935217 9.222656,-0.0918 A 1.9,1.9 0 0 0 30.316406,9.8852496 1.9,1.9 0 0 0 29.277343,7.4067344 C 25.752634,5.9645543 21.057816,6.2292404 17.443359,7.400875 a 1.90019,1.90019 0 0 0 -0.03906,0.013672 c -0.992873,0.3455264 -1.476722,0.4158726 -2.007815,-0.046875 a 1.90019,1.90019 0 0 0 -0.02344,-0.019531 C 14.023244,6.210517 12.80444,4.9919561 11.804687,3.5434531 11.425272,2.9813244 11.142403,2.5750914 10.783203,2.1938437 10.60153,2.0010203 10.425903,1.7912734 9.9648435,1.5707968 9.7343139,1.4605587 9.3263874,1.40015 8.9003904,1.4340781 8.4743935,1.4680062 8.0296298,1.5961498 7.7246092,1.8637656 7.114568,2.3989971 7.0795027,2.8419646 7.0214842,3.1293906 c -0.058019,0.287426 -0.067955,0.5041576 -0.074219,0.7285156 -0.012245,0.4386176 0.00965,0.8990433 0.033203,1.4414063 0.05311,2.044291 0.4088836,4.2093071 1.203125,6.3183595 a 1.90019,1.90019 0 0 0 0.00977,0.02539 c 0.3218148,0.819569 0.4361981,1.391469 0.4335937,1.701172 -0.0026,0.309703 -0.024837,0.39367 -0.265625,0.685547 l 0.00781,-0.0078 c -2.9668086,3.556291 -4.5273437,7.879194 -4.5273437,13.320313 0,10.6046 9.2692068,19.259765 19.8867178,19.259765 10.770322,0 20.429688,-8.540704 20.429688,-19.121093 0,-5.58038 -1.852713,-10.199407 -4.621094,-13.810547 v -0.002 c -0.261688,-0.345886 -0.409995,-0.731312 0.0957,-1.919922 a 1.90019,1.90019 0 0 0 0.01172,-0.0293 c 0.716551,-1.7684404 1.393125,-3.8041153 1.46289,-6.1113288 v -0.00391 c 0.02009,-0.5259868 0.03135,-1.0082535 0.01172,-1.4589426 -0.01968,-0.4518957 0.0191,-0.8069527 -0.294922,-1.4941406 -0.157009,-0.343594 -0.531801,-0.9546388 -1.355469,-1.1816406 -0.205916,-0.05675 -0.403215,-0.076096 -0.589843,-0.070313 z m 0.998047,3.6679688 -0.01172,0.021484 c 0.0067,-0.012312 -0.0049,0.00398 0.002,-0.00781 0.0026,-0.00481 0.0072,-0.00887 0.0098,-0.013672 z M 12.046875,22.758297 c -0.188643,0.01294 -0.374066,0.04277 -0.552735,0.08789 -0.714675,0.180493 -1.435909,0.610081 -1.8359371,1.457031 a 1.70017,1.70017 0 0 0 -0.00586,0.0098 c -1.8172009,3.919868 -0.4081722,8.138748 2.5917961,10.169922 2.999969,2.031173 7.616906,1.574062 11.050781,-2.515625 a 1.70017,1.70017 0 0 0 0.04688,-0.05859 c 0.590049,-0.769637 0.581233,-1.671177 0.345703,-2.369141 -0.235528,-0.697964 -0.726932,-1.311393 -1.445312,-1.693359 l -8.46875,-4.66211 c -0.372726,-0.232325 -0.764915,-0.360889 -1.152344,-0.410156 -0.193714,-0.02463 -0.385576,-0.02857 -0.574218,-0.01563 z m 24.027343,0 c -0.189131,-0.01294 -0.382457,-0.009 -0.576172,0.01563 -0.387428,0.04927 -0.777665,0.177831 -1.15039,0.410156 l 0.07813,-0.04492 -8.548828,4.707031 c -0.71838,0.381966 -1.20783,0.995395 -1.44336,1.693359 -0.23553,0.697964 -0.246298,1.597551 0.34375,2.367188 a 1.70017,1.70017 0 0 0 0.04883,0.06055 c 3.433876,4.089687 8.050812,4.546798 11.050782,2.515625 2.999969,-2.031174 4.407044,-6.250054 2.589843,-10.169922 a 1.70017,1.70017 0 0 0 -0.0039,-0.0098 c -0.400028,-0.84695 -1.121262,-1.276538 -1.835937,-1.457031 -0.178669,-0.04512 -0.363604,-0.07495 -0.552735,-0.08789 z m -23.513672,3.636719 7.392579,4.072266 c -2.32544,2.291289 -4.337405,2.191342 -5.802735,1.199218 -1.477247,-1.000191 -2.312785,-3.031646 -1.589844,-5.271484 z m 23,0 c 0.722238,2.239367 -0.112856,4.271468 -1.589843,5.271484 -1.46533,0.992124 -3.477295,1.092071 -5.802735,-1.199218 z" fill="#008055"/>
</svg>
