<svg xmlns="http://www.w3.org/2000/svg" width="48" height="48">
	<path d="m 32.426155,3.1236878 a 1.8,1.8 0 0 0 -0.111328,0.00195 1.8,1.8 0 0 0 -1.484375,0.9042969 1.8,1.8 0 0 0 0.667969,2.4570313 c 2.394708,1.3723478 5.363255,5.043581 5.005859,9 a 1.80018,1.80018 0 0 0 -0.002,0.0098 c -0.02349,0.277643 -0.06142,0.389766 -0.08398,0.443359 -0.0244,-0.0017 -0.0333,-0.0029 -0.144532,-0.01172 a 1.80018,1.80018 0 0 0 -0.103515,-0.0059 L 26.390999,15.707673 30.539436,8.4850159 A 1.8,1.8 0 0 0 29.875374,6.0279847 1.8,1.8 0 0 0 27.41639,6.6920472 l -5.658204,9.8535158 a 1.80018,1.80018 0 0 0 1.521485,2.695313 l 12.810547,0.28125 -0.103516,-0.0059 c 1.037869,0.08264 2.189436,-0.217379 2.958984,-0.982422 0.766951,-0.76246 1.059398,-1.755877 1.142578,-2.722656 C 40.610189,10.033408 36.851155,5.4061743 33.287483,3.3639222 A 1.8,1.8 0 0 0 32.426155,3.1236878 Z M 17.092171,17.098297 a 3.074666,3.074666 0 0 0 -3.076172,3.074219 3.074666,3.074666 0 0 0 3.076172,3.076172 3.074666,3.074666 0 0 0 3.074219,-3.076172 3.074666,3.074666 0 0 0 -3.074219,-3.074219 z m 17.095703,5.03125 -11.363281,0.02539 a 1.80018,1.80018 0 0 0 -1.574219,2.666016 l 6.164062,11.234375 -0.04883,-0.0918 c 0.44736,0.940155 1.28471,1.786384 2.332032,2.070312 1.045791,0.283513 2.053559,0.03973 2.933593,-0.373047 5.261639,-2.437902 7.388179,-8.005059 7.375,-12.111328 a 1.8,1.8 0 0 0 -1.80664,-1.794922 1.8,1.8 0 0 0 -1.792969,1.806641 c 0.0089,2.760052 -1.687902,7.165281 -5.292969,8.833985 a 1.80018,1.80018 0 0 0 -0.0078,0.0059 c -0.247762,0.1164 -0.365843,0.139516 -0.425782,0.146484 -0.01073,-0.02193 -0.01462,-0.03023 -0.0625,-0.130859 a 1.80018,1.80018 0 0 0 -0.04688,-0.0918 l -4.705078,-8.576172 8.330078,-0.01953 a 1.8,1.8 0 0 0 1.794922,-1.802734 1.8,1.8 0 0 0 -1.802734,-1.796876 z m -17.501953,3.410157 a 1.80018,1.80018 0 0 0 -1.501953,0.865234 l -6.6464847,10.953125 0.054688,-0.08594 c -0.5905394,0.857512 -0.9047257,2.005712 -0.6269536,3.05469 0.2775126,1.047998 0.9949872,1.797685 1.7929688,2.353516 0,0 0.00195,0.002 0.00195,0.002 4.7410735,3.332676 10.6238395,2.391797 14.1718745,0.328125 a 1.8,1.8 0 0 0 0.650391,-2.460938 1.8,1.8 0 0 0 -2.460937,-0.65039 C 19.735608,41.28683 15.072283,42.020834 11.82459,39.73311 a 1.80018,1.80018 0 0 0 -0.0078,-0.0059 c -0.224924,-0.156536 -0.303734,-0.245478 -0.339853,-0.292975 0.01345,-0.02063 0.01699,-0.02949 0.08008,-0.121094 a 1.80018,1.80018 0 0 0 0.05664,-0.08594 l 5.074219,-8.361328 4.18164,7.203125 a 1.8,1.8 0 0 0 2.460938,0.652343 1.8,1.8 0 0 0 0.654297,-2.458984 l -5.705078,-9.826172 a 1.80018,1.80018 0 0 0 -1.59375,-0.896484 z" fill="#008055"/>
</svg>
