<svg xmlns="http://www.w3.org/2000/svg" width="48" height="48">
	<path d="m 22.822536,4.5998512 c -1.532096,0.100545 -2.588448,1.147969 -3.248047,2.322265 a 1.90019,1.90019 0 0 0 -0.01367,0.02344 L 7.2092542,29.672116 a 1.9,1.9 0 0 0 0.7636719,2.576172 1.9,1.9 0 0 0 2.5761719,-0.761719 L 22.90066,8.7600072 l -0.01367,0.02148 c 0.124325,-0.221338 0.03722,-0.13811 0.08789,-0.183593 0.02957,0.0539 0.01359,0.02539 0.06055,0.117187 a 1.90019,1.90019 0 0 0 0.02539,0.04492 L 38.703395,37.367429 21.918239,30.926022 a 1.9,1.9 0 0 0 -2.453125,1.09375 1.9,1.9 0 0 0 1.091796,2.455079 l 18.78711,7.207031 c 0.578933,0.242147 1.188228,0.388489 1.873047,0.314453 0.684819,-0.07404 1.477742,-0.462091 1.93164,-1.125 0.907797,-1.325817 0.419667,-2.72674 -0.277343,-3.792969 l 0.07617,0.128906 -16.552735,-30.2695308 0.02344,0.04688 c -0.705035,-1.378368 -2.063608,-2.485311 -3.595703,-2.384765 z m 1.554687,17.7578118 c -1.190975,-0.08509 -2.135293,0.537296 -2.888672,1.205078 a 1.90019,1.90019 0 0 0 -0.0078,0.0059 L 5.6291761,37.773679 a 1.90019,1.90019 0 0 0 -0.046875,0.04297 c -0.8794077,0.843349 -1.4795733,2.060837 -1.1210937,3.40039 0.3584796,1.339553 1.8416833,2.189453 3.1445312,2.189453 H 30.715114 a 1.9,1.9 0 0 0 1.90039,-1.90039 1.9,1.9 0 0 0 -1.90039,-1.900391 H 9.2776136 l 14.4179684,-12.919922 0.34961,2.285156 a 1.9,1.9 0 0 0 2.164062,1.591797 1.9,1.9 0 0 0 1.591797,-2.166015 l -0.4375,-2.859375 a 1.90019,1.90019 0 0 0 -0.0078,-0.04883 c -0.116193,-0.650269 -0.310012,-1.257245 -0.697266,-1.818359 -0.387254,-0.561114 -1.034324,-1.058681 -1.755859,-1.230469 -0.180384,-0.04295 -0.355252,-0.06987 -0.525391,-0.08203 z" fill="#008055"/>
</svg>
