<svg xmlns="http://www.w3.org/2000/svg" width="48" height="48">
	<path d="M 9.0986327,3.0224611 C 7.5002925,3.0224611 5.95922,3.546377 4.8388671,4.6259768 3.7185141,5.7055766 3.1083983,7.2900545 3.1083983,9.0126955 V 15.69043 c 0,1.690469 0.3671228,3.319548 1.4023438,4.599609 1.0352208,1.280061 2.7271865,2.001954 4.5878906,2.001954 h 7.0390623 c 0.994723,4.32e-4 1.801213,-0.806059 1.800781,-1.800782 -6.47e-4,-0.99396 -0.806821,-1.799259 -1.800781,-1.798828 H 9.0986327 c -1.0542959,0 -1.4575335,-0.256076 -1.7890625,-0.666016 C 6.9780411,17.616428 6.7080077,16.842161 6.7080077,15.69043 V 9.0126955 c 0,-0.9332589 0.2647342,-1.4439966 0.6289062,-1.7949218 0.3641721,-0.3509254 0.916159,-0.59375 1.7617188,-0.59375 h 8.1542963 c 1.068397,0 1.551717,0.2503986 1.839844,0.546875 0.288127,0.2964762 0.529297,0.8179617 0.529297,1.8417968 V 20.489258 c 6.47e-4,0.99396 0.806821,1.799259 1.800781,1.798828 0.993197,-6.46e-4 1.798182,-0.805631 1.798828,-1.798828 V 9.0126955 c 0,-1.6441649 -0.447702,-3.2185856 -1.546875,-4.3496094 -1.099173,-1.1310237 -2.699472,-1.640625 -4.421875,-1.640625 z M 8.8994139,24.862305 c -1.6441649,0 -3.2185855,0.449655 -4.3496094,1.548828 -1.1310237,1.099173 -1.6386718,2.699472 -1.6386718,4.421875 v 8.152344 c 0,1.59834 0.5219627,3.141366 1.6015625,4.261719 1.0795997,1.120353 2.6640777,1.730468 4.3867187,1.730468 h 6.6796871 c 1.690469,0 3.317595,-0.369076 4.597656,-1.404296 1.280061,-1.035221 2.001954,-2.727187 2.001954,-4.587891 v -7.039063 c -6.46e-4,-0.993198 -0.805631,-1.798182 -1.798829,-1.798828 -0.99396,-4.31e-4 -1.800134,0.804868 -1.800781,1.798828 v 7.039063 c 0,1.054296 -0.256075,1.457533 -0.666016,1.789062 -0.409938,0.331529 -1.182253,0.601563 -2.333984,0.601563 H 8.8994139 c -0.9332589,0 -1.4439966,-0.262781 -1.7949218,-0.626953 -0.3509253,-0.364172 -0.59375,-0.918112 -0.59375,-1.763672 v -8.152344 c 0,-1.068397 0.2523518,-1.55367 0.5488281,-1.841797 0.2964762,-0.288127 0.8160086,-0.529297 1.8398437,-0.529297 H 20.375976 c 0.99396,4.31e-4 1.800134,-0.804868 1.800781,-1.798828 4.32e-4,-0.994723 -0.806058,-1.801213 -1.800781,-1.800781 z M 32.05957,25.575196 c -0.994723,-4.32e-4 -1.801213,0.806058 -1.800781,1.800781 6.47e-4,0.99396 0.806821,1.799259 1.800781,1.798828 h 7.039062 c 1.054296,0 1.457534,0.256077 1.789063,0.666016 0.331529,0.409939 0.601562,1.184206 0.601562,2.335937 v 6.677735 c 0,0.933258 -0.264734,1.443996 -0.628906,1.794921 -0.364172,0.350926 -0.916159,0.59375 -1.761719,0.59375 h -8.154297 c -1.068395,0 -1.551716,-0.250398 -1.839843,-0.546875 -0.288127,-0.296476 -0.529297,-0.817962 -0.529297,-1.841796 V 27.37793 c -6.47e-4,-0.99396 -0.806821,-1.799259 -1.800781,-1.798828 -0.993198,6.46e-4 -1.798183,0.80563 -1.798829,1.798828 v 11.476563 c 0,1.644164 0.447702,3.218585 1.546876,4.349609 1.099172,1.131024 2.699472,1.640625 4.421874,1.640625 h 8.154297 c 1.598341,0 3.139413,-0.523916 4.259766,-1.603516 1.120353,-1.0796 1.730469,-2.664077 1.730469,-4.386718 v -6.677735 c 0,-1.690469 -0.367123,-3.319548 -1.402344,-4.599609 -1.035221,-1.280061 -2.727187,-2.001953 -4.587891,-2.001953 z"  fill="#008055"/>
</svg>
