<svg xmlns="http://www.w3.org/2000/svg" width="48" height="48">
	<path d="M 37.596845,3.964017 C 35.97577,3.908637 34.358222,4.467783 33.13786,5.688627 a 1.80018,1.80018 0 0 0 -0.0098,0.0098 L 29.229622,9.659365 28.249153,8.680849 a 1.8,1.8 0 0 0 -2.544921,0 1.8,1.8 0 0 0 0,2.544922 l 1.064453,1.0625 c 0.635418,0.68435 1.597855,1.244782 2.652343,1.175781 1.054489,-0.069 1.85385,-0.674998 2.419922,-1.330078 l -0.08008,0.08594 3.923828,-3.986329 c 0.959151,-0.959529 2.654322,-0.954068 3.845703,0.236329 1.190022,1.191225 1.193673,2.884796 0.234375,3.84375 a 1.80018,1.80018 0 0 0 -0.0098,0.01172 l -3.933594,3.994141 0.05469,-0.05273 c -0.618852,0.578071 -1.148715,1.382913 -1.21289,2.345704 -0.06418,0.962791 0.365458,1.837947 0.902344,2.466796 a 1.80018,1.80018 0 0 0 0.09766,0.105469 l 1.109375,1.109375 a 1.8,1.8 0 0 0 2.546875,0 1.8,1.8 0 0 0 0,-2.544922 l -0.917969,-0.917968 3.919922,-3.980469 -0.01172,0.0098 C 44.749791,12.421334 44.544525,8.394808 42.077247,5.925034 40.842545,4.689946 39.217853,4.019472 37.596779,3.964096 Z m -12.125,10.560547 c -1.10128,0.02704 -1.999316,0.664943 -2.652344,1.402344 l 0.07031,-0.07617 -12.701172,12.787109 0.0059,-0.0039 c -2.4416294,2.440768 -2.2358014,6.47002 0.234375,8.939453 a 1.80018,1.80018 0 0 0 0.002,0 c 2.468859,2.465474 6.492129,2.671121 8.931641,0.234375 l 0.0039,-0.002 11.048828,-10.996094 a 1.8,1.8 0 0 0 0.0078,-2.546875 1.8,1.8 0 0 0 -2.546876,-0.0059 l -11.052734,11 a 1.80018,1.80018 0 0 0 -0.0039,0.0039 c -0.958889,0.959262 -2.654026,0.955669 -3.845703,-0.234375 -1.191925,-1.191566 -1.194346,-2.888024 -0.234375,-3.847656 a 1.80018,1.80018 0 0 0 0.0039,-0.0039 l 12.701172,-12.78711 a 1.80018,1.80018 0 0 0 0.07031,-0.07422 c 0.03486,-0.03936 0.0266,-0.02569 0.05273,-0.05273 0.0096,0.0089 0.0052,0.0036 0.01563,0.01367 0,0 0,0.002 0,0.002 l 4.634765,4.748047 a 1.8,1.8 0 0 0 2.544922,0.03125 1.8,1.8 0 0 0 0.03125,-2.546875 l -4.669922,-4.783203 a 1.80018,1.80018 0 0 0 -0.03516,-0.03516 C 27.45325,15.074509 26.573124,14.497522 25.471845,14.524564 Z M 7.9308286,38.219877 a 1.8,1.8 0 0 0 -1.220703,0.527343 l -2.220703,2.220703 a 1.8,1.8 0 0 0 0,2.544922 1.8,1.8 0 0 0 2.544922,0 l 2.220703,-2.220703 a 1.8,1.8 0 0 0 0,-2.544922 1.8,1.8 0 0 0 -1.324219,-0.527343 z" fill="#008055"/>
</svg>
