<svg xmlns="http://www.w3.org/2000/svg" width="48" height="48">
	<path d="m 8.9248044,4.0839843 c -1.5370829,0 -3.0465532,0.5049995 -4.1464842,1.5644534 -1.0999311,1.059453 -1.6933594,2.615233 -1.6933594,4.269531 V 37.521485 c 0,1.600315 0.3463709,3.174769 1.3632813,4.43164 1.0169101,1.256872 2.6940034,1.962891 4.4765623,1.962891 a 2,2 0 0 0 1.9999996,-2 2,2 0 0 0 -1.9999996,-2 c -0.8869706,0 -1.1324501,-0.19034 -1.3671873,-0.480469 C 7.3228798,39.145419 7.0849608,38.522969 7.0849608,37.521485 V 9.9179687 c 0,-0.776802 0.2091761,-1.13865 0.46875,-1.388672 0.2595739,-0.250021 0.6700769,-0.445312 1.3710936,-0.445312 H 39.094726 c 0.914784,0 1.251031,0.204755 1.435547,0.394531 0.184516,0.189776 0.384766,0.563057 0.384766,1.439453 V 37.521485 c 0,0.896364 -0.256654,1.513673 -0.552735,1.863281 -0.29608,0.349608 -0.608967,0.53125 -1.267578,0.53125 H 14.129882 a 2,2 0 0 0 -2,2 2,2 0 0 0 2,2 h 24.964844 c 1.69903,0 3.296383,-0.738224 4.320313,-1.947266 1.023929,-1.209042 1.5,-2.78843 1.5,-4.447265 V 9.9179687 c 0,-1.565904 -0.431637,-3.111617 -1.517579,-4.228516 -1.08594,-1.116898 -2.661668,-1.6054684 -4.302734,-1.6054684 z m 9.5761716,7.8320317 c -2.266948,0.0038 -4.212684,0.844711 -5.492187,2.1875 -1.279503,1.342789 -1.889267,3.102463 -1.878907,4.830078 0.02072,3.45523 2.879713,6.984594 7.369141,6.996094 a 2.0002,2.0002 0 0 0 0.0059,0 h 11.076172 c 1.258359,0 1.969425,0.396846 2.480469,0.947265 0.511044,0.55042 0.802529,1.33837 0.808594,2.144532 0.0061,0.806162 -0.270568,1.578813 -0.769531,2.11914 -0.498964,0.540327 -1.212586,0.94336 -2.519532,0.94336 H 14.506836 a 2,2 0 0 0 -2,2 2,2 0 0 0 2,2 h 15.074218 c 2.256629,0 4.198075,-0.867146 5.457032,-2.230469 1.258955,-1.363323 1.84506,-3.12929 1.832031,-4.861328 -0.01303,-1.732038 -0.62053,-3.482707 -1.876953,-4.835938 -1.256424,-1.35323 -3.183268,-2.226562 -5.41211,-2.226562 h -11.072265 -0.0039 c -2.612226,-0.0084 -3.365743,-1.477918 -3.375,-3.021485 -0.0046,-0.772235 0.267311,-1.511711 0.775391,-2.044921 0.507782,-0.532898 1.255404,-0.944552 2.599609,-0.947266 h 15.40625 a 2,2 0 0 0 2,-2 2,2 0 0 0 -2,-2 h -15.40625 a 2.0002,2.0002 0 0 0 -0.0039,0 z" fill="#008055"/>
</svg>
