<svg xmlns="http://www.w3.org/2000/svg" width="48" height="48">
	<path d="m 28.090146,3.3017253 c -0.612769,-0.00455 -1.250212,0.043992 -1.910156,0.1542969 a 1.70017,1.70017 0 0 0 -0.136719,0.029297 C 21.960999,4.5154345 19.631638,8.387179 16.810849,12.920866 a 1.7,1.7 0 0 0 0.544922,2.341797 1.7,1.7 0 0 0 2.341797,-0.546875 c 2.772441,-4.455981 4.894993,-7.3063994 7.123047,-7.9062501 3.715871,-0.5821043 6.263988,1.5226359 8.046875,3.3261721 a 1.7,1.7 0 0 0 2.404296,0.01367 1.7,1.7 0 0 0 0.01367,-2.4042971 C 35.500231,5.9391826 32.379524,3.3335936 28.090144,3.3017255 Z m -9.958984,0.9082031 c -1.814616,-0.00387 -3.846003,0.5117824 -5.66211,2.3300782 -0.903057,0.9041393 -1.369966,2.0880341 -1.445312,3.1757812 -0.07535,1.0877472 0.144936,2.0774632 0.392578,3.0292972 0.495284,1.903668 1.121884,3.705245 0.998047,5.523437 a 1.7,1.7 0 0 0 1.582031,1.8125 1.7,1.7 0 0 0 1.810547,-1.580078 C 15.990466,15.806437 15.137062,13.54687 14.70538,11.887663 14.48954,11.05806 14.385877,10.391578 14.416318,9.952116 c 0.03044,-0.4394622 0.0998,-0.652105 0.457031,-1.0097656 1.47457,-1.4763477 2.120095,-1.4405221 3.757813,-1.3125 a 1.7,1.7 0 0 0 1.826171,-1.5625001 1.7,1.7 0 0 0 -1.5625,-1.8261719 c -0.249097,-0.019472 -0.504441,-0.030697 -0.763671,-0.03125 z m 10.320312,5.2304688 c -1.528011,0.054947 -2.877375,0.4625573 -4.025391,1.1738278 -2.296032,1.422542 -3.639426,3.757901 -4.74414,6.142578 a 1.70017,1.70017 0 0 0 0.328125,1.904297 c 1.269319,1.29305 2.530547,2.075285 3.835937,2.332031 1.30539,0.256746 2.575667,-0.113182 3.466797,-0.746093 0.891131,-0.632912 1.472933,-1.463824 1.869141,-2.269531 0.396207,-0.805708 0.624241,-1.556916 0.638672,-2.371094 a 1.7,1.7 0 0 0 -1.669922,-1.728516 1.7,1.7 0 0 0 -1.728516,1.669922 c -6.45e-4,0.03637 -0.08605,0.512889 -0.291015,0.929688 -0.204962,0.416799 -0.51359,0.803783 -0.78711,0.998046 -0.273519,0.194264 -0.441668,0.260339 -0.841797,0.181641 -0.202815,-0.03989 -0.69332,-0.478202 -1.046875,-0.697266 0.827737,-1.523704 1.713325,-2.807482 2.761719,-3.457031 1.15981,-0.718578 2.768032,-0.837336 5.152344,-0.146484 0.309695,3.051516 -1.082258,4.965672 -2.347657,6.455078 a 1.7,1.7 0 0 0 0.195313,2.396484 1.7,1.7 0 0 0 2.394531,-0.195312 c 1.540672,-1.81341 4.121994,-5.368713 2.998047,-10.41211 A 1.70017,1.70017 0 0 0 33.545224,10.377897 C 31.686012,9.6824719 29.979485,9.3854507 28.451474,9.4403972 Z M 39.381162,10.50485 a 1.7,1.7 0 0 0 -1.498047,1.00586 1.7,1.7 0 0 0 0.857421,2.246093 c 1.934422,0.864607 2.855844,1.655306 3.166016,3.486329 0.310172,1.831022 -0.250657,5.069962 -2.52539,10.183593 a 1.70017,1.70017 0 0 0 0.189453,1.705078 c 1.320531,1.777626 1.505826,2.824673 1.455078,3.183594 -0.05075,0.358921 -0.233341,0.584777 -1.017578,0.960937 -0.784238,0.376162 -2.003148,0.681681 -3.22461,0.955079 -1.221462,0.273397 -2.4088,0.464492 -3.52539,1.068359 a 1.70017,1.70017 0 0 0 -0.04102,0.02344 c -1.212658,0.699875 -2.226875,1.758808 -3.355469,2.818359 -1.128593,1.059551 -2.313723,2.106021 -3.310547,2.671875 -0.996823,0.565854 -1.524942,0.636638 -2.05664,0.363281 -0.531698,-0.273357 -1.475665,-1.303806 -2.314453,-3.951172 a 1.7,1.7 0 0 0 -2.134766,-1.107422 1.7,1.7 0 0 0 -1.107422,2.132813 c 0.971756,3.067034 2.194599,5.021973 4.001953,5.951172 1.807354,0.929199 3.789986,0.42043 5.291016,-0.431641 1.50103,-0.852071 2.800628,-2.062897 3.958984,-3.150391 1.149429,-1.079111 2.206334,-2.04066 2.705078,-2.333984 0.314017,-0.165449 1.400725,-0.460989 2.63086,-0.736328 1.239314,-0.277393 2.650406,-0.58218 3.953125,-1.207031 1.302718,-0.624852 2.665172,-1.790487 2.914062,-3.550781 0.213411,-1.509364 -0.447909,-3.088825 -1.599609,-4.837891 2.074838,-4.868311 2.943371,-8.452479 2.464844,-11.277344 -0.509869,-3.009904 -2.672984,-4.925745 -5.128903,-6.023439 A 1.7,1.7 0 0 0 39.381162,10.50485 Z M 9.0647555,12.645475 a 1.7,1.7 0 0 0 -0.039062,0.002 c -1.4391705,0.07727 -2.7496279,0.883596 -3.4316411,1.933597 -0.6820131,1.050002 -0.9247851,2.193088 -1.1328125,3.376953 -0.4160547,2.367731 -0.62023,5.012504 -1.6894531,7.316406 a 1.70017,1.70017 0 0 0 0.1113281,1.634766 c 1.8227807,2.836962 3.3844991,4.723308 5.3398438,6.023437 1.9553443,1.30013 4.1503683,1.91198 7.0351563,2.472657 a 1.7,1.7 0 0 0 1.992187,-1.345703 1.7,1.7 0 0 0 -1.34375,-1.992188 C 13.16199,31.533927 11.491103,31.024927 10.103818,30.102506 8.8469353,29.266792 7.6570024,27.881641 6.1760837,25.66696 7.1800072,23.002168 7.487791,20.373247 7.8088962,18.545866 7.9907425,17.510994 8.2366947,16.75423 8.4456149,16.432585 8.6545352,16.110939 8.6385237,16.072497 9.2073337,16.04196 A 1.7,1.7 0 0 0 10.814755,14.252897 1.7,1.7 0 0 0 9.0647555,12.645475 Z m 28.0957025,4.082032 a 1.7,1.7 0 0 0 -1.707031,1.693359 c -0.01784,4.000481 -0.962867,6.867142 -2.714844,9.017578 -1.749164,2.146985 -4.403896,3.671019 -8.166015,4.638672 -1.185018,0.28799 -1.744153,0.172921 -2.234375,-0.07617 -0.491078,-0.249528 -1.012467,-0.776347 -1.636719,-1.628906 -1.033404,-1.411352 -2.509771,-3.551219 -4.771484,-5.46875 0.469882,-0.568212 0.862934,-0.831349 1.214844,-0.837891 0.522699,-0.0097 1.573271,0.439213 2.867187,1.210937 1.293916,0.771726 2.805698,1.77761 4.650391,2.302735 1.844692,0.525125 4.115125,0.423571 6.224609,-0.939453 a 1.7,1.7 0 0 0 0.505859,-2.351563 1.7,1.7 0 0 0 -2.351562,-0.503906 c -1.338447,0.864825 -2.278097,0.858216 -3.447266,0.525391 -1.169169,-0.332825 -2.474924,-1.139051 -3.839844,-1.953125 -1.364919,-0.814075 -2.813676,-1.725989 -4.673828,-1.691407 -1.860151,0.03458 -3.632817,1.353683 -4.878906,3.652344 a 1.70017,1.70017 0 0 0 0.572266,2.240234 c 2.539901,1.639492 3.710989,3.811085 5.183594,5.822266 0.736302,1.005591 1.577678,2.011009 2.839843,2.652344 1.262166,0.641335 2.849096,0.772998 4.585938,0.349609 a 1.70017,1.70017 0 0 0 0.01953,-0.0059 c 4.240269,-1.087587 7.65022,-2.938424 9.972656,-5.789063 2.322436,-2.850638 3.458253,-6.607725 3.478516,-11.152343 a 1.7,1.7 0 0 0 -1.69336,-1.707031 z" fill="#008055"/>
</svg>
