<svg xmlns="http://www.w3.org/2000/svg" width="48" height="48">
	<path d="m 8.9238276,4.0839844 c -1.537083,0 -3.046553,0.5049997 -4.146484,1.5644531 -1.0999311,1.059453 -1.6914062,2.615233 -1.6914062,4.269531 V 37.521485 c 0,1.600316 0.346371,3.174769 1.3632812,4.43164 1.0169102,1.256873 2.69205,1.962891 4.474609,1.962891 a 2,2 0 0 0 2.0000004,-2 2,2 0 0 0 -2.0000004,-2 c -0.88697,0 -1.130497,-0.19034 -1.365234,-0.480469 -0.234737,-0.290128 -0.472656,-0.912578 -0.472656,-1.914062 V 9.9179685 c 0,-0.776802 0.207223,-1.13865 0.466797,-1.388672 0.259574,-0.250021 0.670077,-0.445312 1.371093,-0.445312 H 39.095703 c 0.914785,0 1.249078,0.204755 1.433594,0.394531 0.184516,0.189776 0.384766,0.563058 0.384766,1.439453 V 37.521485 c 0,0.896364 -0.2547,1.513673 -0.550782,1.863281 -0.29608,0.349608 -0.608967,0.53125 -1.267578,0.53125 H 14.128907 a 2,2 0 0 0 -2,2 2,2 0 0 0 2,2 h 24.966796 c 1.69903,0 3.296384,-0.738225 4.320313,-1.947265 1.023929,-1.209042 1.498047,-2.78843 1.498047,-4.447266 V 9.9179685 c 0,-1.565904 -0.431637,-3.109664 -1.517578,-4.2265622 C 42.310543,4.5745074 40.736769,4.0839844 39.095703,4.0839844 Z M 22.626953,12.337891 c -0.91134,0 -1.954479,0.124017 -2.86914,0.882813 -0.914661,0.758795 -1.28711,1.990608 -1.28711,3.09375 v 3.730468 a 2,2 0 0 0 2,2 2,2 0 0 0 2,-2 V 16.31836 c 0.04452,-0.0089 -0.07141,0.01953 0.15625,0.01953 h 8.173828 c 1.267298,0 1.948978,0.391274 2.433594,0.921875 0.484617,0.530601 0.757909,1.295185 0.751953,2.095703 -0.006,0.800519 -0.294495,1.582348 -0.791015,2.123047 -0.496521,0.540699 -1.175195,0.925781 -2.394532,0.925781 H 16.78125 a 2.0002,2.0002 0 0 0 -0.0059,0 c -4.431248,0.01145 -7.2433674,3.531404 -7.2636724,6.955078 -0.010153,1.711839 0.5858984,3.456229 1.8457034,4.792969 1.259805,1.336741 3.18273,2.177947 5.419922,2.181641 a 2.0002,2.0002 0 0 0 0.0039,0 h 1.5625 c 1.139518,0 2.359331,-0.437714 3.089844,-1.322266 0.730513,-0.884552 0.892578,-1.910601 0.892578,-2.798828 v -3.441406 a 2,2 0 0 0 -2,-2 2,2 0 0 0 -2,2 v 3.441406 c 0,0.1685 0.02041,0.08275 0.01172,0.121094 h -1.552734 -0.0039 c -1.302714,-0.0031 -2.020994,-0.403017 -2.513672,-0.925781 -0.493276,-0.5234 -0.760408,-1.256513 -0.755859,-2.023438 0.0091,-1.532466 0.738109,-2.971339 3.269531,-2.980469 h 14.019531 c 2.200564,0 4.10301,-0.871867 5.339844,-2.21875 1.236834,-1.346882 1.832935,-3.082571 1.845703,-4.798828 0.01277,-1.716256 -0.559451,-3.467239 -1.798828,-4.824218 -1.239376,-1.356981 -3.159221,-2.22461 -5.386719,-2.22461 z" fill="#008055"/>
</svg>
