<svg xmlns="http://www.w3.org/2000/svg" width="48" height="48">
	<path d="m 16.021268,6.8241184 c -2.965965,-0.131422 -6.0880985,0.283771 -9.3750005,1.728515 a 1.90019,1.90019 0 0 0 -0.027344,0.01367 c -2.138362,0.982077 -3.595703,3.1065236 -3.595703,5.4726556 v 4.736329 a 1.9,1.9 0 0 0 1.90039,1.90039 1.9,1.9 0 0 0 1.900391,-1.90039 v -4.736329 c 0,-1.242073 0.144514,-1.446556 1.367188,-2.009765 5.4668985,-2.3971536 10.0829365,-1.435004 15.2480465,0.01172 5.17012,1.448126 10.787305,3.463439 17.332032,2.210937 a 1.90019,1.90019 0 0 0 0.01172,-0.002 c 0.240147,-0.04731 0.246334,-0.02953 0.376954,-0.03711 -0.01849,0.07362 0.0078,0.120959 0.0078,0.847656 v 20.492187 c 0,0.597568 -0.116015,0.899379 -0.216797,1.044922 -0.09981,0.144133 -0.229158,0.28167 -0.787109,0.419922 C 35.029341,38.187591 30.226037,36.343764 24.843523,34.6561 19.490304,32.977621 13.439359,31.596236 6.8239915,34.74594 v -7.507813 c 0,-0.79815 0.097262,-1.168475 0.154297,-1.28125 0.055998,-0.110725 0.10326,-0.202617 0.613281,-0.449219 6.5376715,-2.987563 11.1471015,-1.853149 15.8574225,-0.318359 4.714393,1.536117 9.645336,3.726195 15.244141,1.480469 a 1.9,1.9 0 0 0 1.05664,-2.470703 1.9,1.9 0 0 0 -2.470703,-1.056641 c -4.089846,1.640527 -7.712166,0.04333 -12.652334,-1.566353 -4.940167,-1.609683 -11.082672,-2.974292 -18.6328125,0.482422 a 1.90019,1.90019 0 0 0 -0.029297,0.01367 c -0.984944,0.471306 -1.884348,1.195896 -2.376953,2.169922 -0.492605,0.974025 -0.564453,1.964044 -0.564453,2.996093 v 7.515625 c 0,0.728358 0.039788,1.348234 0.228515,1.988282 0.188728,0.640047 0.630761,1.40725 1.396485,1.816406 0.765723,0.409155 1.542705,0.355845 2.113281,0.230468 0.570576,-0.125376 1.049674,-0.331121 1.558594,-0.566406 a 1.90019,1.90019 0 0 0 0.03125,-0.01563 c 5.4949595,-2.663576 10.1437655,-1.557935 15.3554685,0.07617 5.211704,1.634108 10.862593,3.918689 17.324219,2.4375 a 1.90019,1.90019 0 0 0 0.02539,-0.0059 c 1.23284,-0.300813 2.340938,-0.975097 3.019531,-1.955078 0.678593,-0.979982 0.890625,-2.1169 0.890625,-3.207032 V 15.060446 c 0,-1.09528 0.157981,-2.211659 -0.769531,-3.447266 -0.463756,-0.617803 -1.262346,-1.054586 -1.988281,-1.18164 -0.725936,-0.127055 -1.404463,-0.05903 -2.160157,0.08984 l 0.0098,-0.002 C 34.659097,11.552678 29.798376,9.8746574 24.46466,8.3807084 21.797802,7.6337344 18.987265,6.9554894 16.021301,6.8240684 Z" fill="#008055"/>
</svg>
