<svg xmlns="http://www.w3.org/2000/svg" width="48" height="48">
	<path d="m 23.953196,1.7763884 a 2,2 0 0 0 -2,2.0000002 v 2.433594 c 0,0.341718 -0.09099,0.572539 -0.144531,0.65039 -0.05354,0.07785 -0.02107,0.1035 -0.322266,0.152344 a 2.0002,2.0002 0 0 0 -0.02148,0.0039 C 14.785856,8.1795166 9.4553629,13.984335 9.4883521,21.258811 v 7.958984 c 0,0.130588 -0.086637,0.409808 -0.2148438,0.556641 -0.1282071,0.146832 -0.2208704,0.251953 -0.6816406,0.251953 -1.6859495,0 -3.2057955,0.670772 -4.1660155,1.746094 -0.96022,1.075321 -1.365369,2.441823 -1.330078,3.753906 0.03529,1.312083 0.501565,2.62583 1.447265,3.664062 0.945701,1.038232 2.41635,1.728516 4.0488285,1.728516 H 39.375071 c 1.667592,0 3.171137,-0.673619 4.132812,-1.730469 0.961675,-1.05685 1.401703,-2.403709 1.398438,-3.720703 -0.0033,-1.316994 -0.447867,-2.657471 -1.408203,-3.710938 -0.960337,-1.053465 -2.460458,-1.730468 -4.123047,-1.730468 -0.461119,0 -0.646747,-0.122178 -0.757813,-0.230469 -0.111066,-0.108291 -0.199219,-0.246695 -0.199219,-0.591797 v -7.953125 c 0,-6.593229 -4.342566,-11.2886404 -8.796875,-13.1425784 a 2,2 0 0 0 -2.615234,1.078125 2,2 0 0 0 1.078125,2.6152344 c 3.099531,1.290063 6.333984,4.625848 6.333984,9.449219 v 7.953125 c 0,1.288799 0.488589,2.560344 1.40625,3.455078 0.917662,0.894735 2.20985,1.367188 3.550782,1.367188 0.68306,0 0.948186,0.186828 1.166015,0.425781 0.217829,0.238953 0.364227,0.619159 0.365235,1.025391 0.001,0.406231 -0.143068,0.783962 -0.357422,1.019531 -0.214355,0.235569 -0.478681,0.421875 -1.173828,0.421875 H 8.5918677 c -0.6060965,0 -0.8602645,-0.169642 -1.0917965,-0.423828 -0.231533,-0.254187 -0.395192,-0.66503 -0.40625,-1.076172 -0.011059,-0.411142 0.120593,-0.765325 0.314453,-0.982422 0.193859,-0.217097 0.445493,-0.410156 1.1835935,-0.410156 1.5150503,0 2.8694893,-0.675301 3.6953123,-1.621094 0.825823,-0.945793 1.201172,-2.072188 1.201172,-3.1875 v -7.966797 a 2.0002,2.0002 0 0 0 0,-0.0098 c -0.02413,-5.321125 3.827788,-9.443451 8.662109,-10.285157 l -0.02344,0.0039 c 1.238573,-0.200856 2.344307,-0.911786 2.978516,-1.8339854 0.634208,-0.922199 0.847656,-1.954635 0.847656,-2.916015 v -2.433594 a 2,2 0 0 0 -2,-2.0000002 z m 4.30664,40.4472656 a 2,2 0 0 0 -2,2 2,2 0 0 0 2,2 h 3.650391 a 2,2 0 0 0 2,-2 2,2 0 0 0 -2,-2 z" fill="#008055"/>
</svg>
