<svg xmlns="http://www.w3.org/2000/svg" width="48" height="48">
	<path d="m 13.451399,1.9659358 c -0.298888,0.00993 -0.679425,0.084847 -1.048828,0.3359376 -0.369402,0.2510905 -0.664169,0.6909948 -0.767578,1.0878905 -0.206818,0.7937916 0.04829,1.2758805 0.257813,1.6523438 0.209518,0.3764633 0.469352,0.6803882 0.789062,0.9863281 2.992483,2.8634038 5.242351,4.7191112 7.882813,7.4921872 a 1.7,1.7 0 0 0 2.404297,0.05859 1.7,1.7 0 0 0 0.451171,-1.732422 c 1.093225,0.872449 2.158793,1.55107 3.320313,2.679688 a 1.7,1.7 0 0 0 2.404297,-0.03516 1.7,1.7 0 0 0 -0.03516,-2.404297 C 24.282357,7.3965245 20.101983,5.0508281 14.78929,2.3057796 c 0,0 -0.002,0 -0.002,0 -0.36385,-0.1899634 -0.738979,-0.359685 -1.335938,-0.3398438 z m 9.425782,12.9785162 c -4.359002,-0.101596 -7.789219,0.728026 -10.365235,2.308594 -2.9440175,1.806362 -4.5997531,4.726948 -4.8085935,7.910156 -0.2088403,3.183208 0.8940504,6.595205 3.0312505,9.892578 a 1.7,1.7 0 0 0 2.351562,0.501953 1.7,1.7 0 0 0 0.501953,-2.351562 c -1.840445,-2.839527 -2.638051,-5.597015 -2.492187,-7.820313 0.145863,-2.223298 1.099119,-3.948212 3.195312,-5.234375 3.639248,-2.232935 11.50986,-2.465743 23.419922,1.488281 -3.758417,0.131531 -7.677274,0.404935 -11.224609,1.427735 -2.662561,0.767694 -5.093256,1.935537 -6.814453,3.888672 -1.721198,1.953135 -2.563429,4.70058 -2.128907,7.925781 a 1.7,1.7 0 0 0 1.91211,1.457031 1.7,1.7 0 0 0 1.458984,-1.910156 c -0.332123,-2.46515 0.212723,-3.981066 1.308594,-5.224609 1.095871,-1.243544 2.912193,-2.207472 5.207031,-2.869141 4.589677,-1.323338 10.870703,-1.386892 15.794922,-1.460938 1.027338,-0.01518 2.165598,-0.189912 2.738281,-1.515625 0.286342,-0.662856 0.135156,-1.553465 -0.232422,-2.070312 -0.366957,-0.515975 -0.828954,-0.778021 -1.298828,-0.960938 -7.840747,-3.183819 -14.348123,-4.857517 -19.628906,-5.28125 -0.660814,-0.05302 -1.303067,-0.08705 -1.925781,-0.101562 z m 15.402344,10.453125 a 1.7,1.7 0 0 0 -0.777344,0.191406 1.7,1.7 0 0 0 -0.72461,2.292969 c 2.453585,4.725635 2.453018,7.875505 1.328125,10.003906 -1.124892,2.128401 -3.655249,3.620855 -7.267578,4.310547 -5.453351,1.041193 -13.014783,0.05074 -19.699219,-2.537109 3.952588,0.550451 8.146946,0.971986 12.03711,0.570312 3.173931,-0.32772 6.130062,-1.18222 8.128906,-3.314453 1.998844,-2.132233 2.6342,-5.417943 1.597656,-9.453125 a 1.7,1.7 0 0 0 -2.070312,-1.222656 1.7,1.7 0 0 0 -1.222656,2.068359 c 0.861016,3.351868 0.334441,5.086939 -0.785157,6.28125 -1.119597,1.194311 -3.239246,1.973158 -5.996093,2.257813 C 17.317129,37.41585 9.7529353,36.05175 4.75804,35.266718 4.2731177,35.188065 3.7541509,35.188681 3.2072588,35.422968 2.6603666,35.657254 2.1207644,36.22507 1.961165,36.866327 c -0.3191987,1.282513 0.4535075,2.182574 1.25,2.675781 8.476654,5.248823 19.834203,7.603556 28.263672,5.994141 4.214735,-0.804708 7.852372,-2.686351 9.636719,-6.0625 1.784346,-3.37615 1.434024,-7.862792 -1.316407,-13.160157 a 1.7,1.7 0 0 0 -1.515624,-0.916015 z" fill="#008055"/>
</svg>
