<svg xmlns="http://www.w3.org/2000/svg" width="48" height="48">
	<path d="M 8.6289062 6.0488281 C 6.9084966 6.0488281 5.232697 6.42178 3.9042969 7.4960938 C 2.5758968 8.5704075 1.8261719 10.334745 1.8261719 12.240234 L 1.8261719 31.779297 C 1.8261719 33.586968 2.6075466 35.270983 3.8886719 36.355469 C 5.1697971 37.439955 6.8521807 37.949219 8.6289062 37.949219 L 21.255859 37.949219 L 21.255859 39.658203 C 21.255859 40.690323 21.01961 41.11243 20.769531 41.355469 C 20.519453 41.598507 20.057745 41.828125 19.068359 41.828125 L 10.910156 41.828125 A 2 2 0 0 0 8.9101562 43.828125 A 2 2 0 0 0 10.910156 45.828125 L 19.068359 45.828125 C 20.746963 45.828125 22.379262 45.368846 23.556641 44.224609 C 24.73402 43.080373 25.255859 41.416943 25.255859 39.658203 L 25.255859 35.949219 A 2.0002 2.0002 0 0 0 23.255859 33.949219 L 8.6289062 33.949219 C 7.614342 33.949219 6.8942685 33.659634 6.4726562 33.302734 C 6.051044 32.945835 5.8261719 32.546045 5.8261719 31.779297 L 5.8261719 12.240234 C 5.8261719 11.230734 6.058337 10.897892 6.4199219 10.605469 C 6.7815068 10.313045 7.5070761 10.048828 8.6289062 10.048828 L 39.984375 10.048828 C 40.873738 10.048828 41.32433 10.293078 41.634766 10.615234 C 41.945201 10.93739 42.173828 11.4365 42.173828 12.240234 L 42.173828 31.779297 C 42.173828 32.811417 41.935625 33.233525 41.685547 33.476562 C 41.435468 33.719601 40.973761 33.949219 39.984375 33.949219 L 28.714844 33.949219 A 2 2 0 0 0 26.714844 35.949219 A 2 2 0 0 0 28.714844 37.949219 L 39.984375 37.949219 C 41.662979 37.949219 43.295277 37.489939 44.472656 36.345703 C 45.650035 35.201467 46.173828 33.538037 46.173828 31.779297 L 46.173828 12.240234 C 46.173828 10.600079 45.635692 9.0022003 44.515625 7.8398438 C 43.395558 6.6774872 41.750842 6.0488281 39.984375 6.0488281 L 8.6289062 6.0488281 z M 24.34375 12.953125 C 23.615962 12.965745 22.881891 13.068494 22.15625 13.267578 A 1.6 1.6 0 0 0 21.035156 15.234375 A 1.6 1.6 0 0 0 23.001953 16.353516 C 25.489584 15.671019 28.104474 16.737853 29.40625 18.964844 C 30.708026 21.191834 30.356278 23.995387 28.541016 25.828125 A 1.6 1.6 0 0 0 28.550781 28.089844 A 1.6 1.6 0 0 0 28.628906 28.162109 A 1.6 1.6 0 0 0 30.8125 28.078125 C 33.636564 25.226876 34.19709 20.81421 32.171875 17.349609 C 30.526388 14.534621 27.4975 12.898437 24.34375 12.953125 z M 18.294922 15.867188 A 1.6 1.6 0 0 0 17.1875 16.341797 C 14.363436 19.193046 13.804863 23.605711 15.830078 27.070312 C 17.855293 30.534913 21.973663 32.214127 25.84375 31.152344 A 1.6 1.6 0 0 0 26.964844 29.185547 A 1.6 1.6 0 0 0 24.998047 28.066406 C 22.510416 28.748903 19.895526 27.682069 18.59375 25.455078 C 17.291974 23.228088 17.645675 20.426488 19.460938 18.59375 A 1.6 1.6 0 0 0 19.449219 16.330078 A 1.6 1.6 0 0 0 19.371094 16.257812 A 1.6 1.6 0 0 0 18.294922 15.867188 z M 28.074219 41.828125 A 2 2 0 0 0 26.074219 43.828125 A 2 2 0 0 0 28.074219 45.828125 L 35.214844 45.828125 A 2 2 0 0 0 37.214844 43.828125 A 2 2 0 0 0 35.214844 41.828125 L 28.074219 41.828125 z " fill="#008055"/>
</svg>
