<svg xmlns="http://www.w3.org/2000/svg" width="48" height="48">
	<path d="m 23.953527,4.0238883 c -1.747683,0.03978 -3.088091,1.3508632 -3.980469,3.0976562 L 19.998448,7.0727164 9.3910263,26.13717 A 1.5,1.5 0 0 0 9.9711044,28.178185 1.5,1.5 0 0 0 12.01212,27.596154 L 22.619542,8.5317008 a 1.50015,1.50015 0 0 0 0.02539,-0.046875 c 0.620451,-1.214507 1.189361,-1.4586208 1.376953,-1.4628907 0.187592,-0.00427 0.726615,0.1784787 1.392578,1.4492188 a 1.50015,1.50015 0 0 0 0.01758,0.03125 l 4.123047,7.4277341 4.121094,7.427735 4.123047,7.427734 4.123047,7.427735 a 1.50015,1.50015 0 0 0 0.01562,0.02734 c 0.5596,0.958714 0.47836,1.62317 0.263672,2.056641 -0.214687,0.433471 -0.580604,0.667969 -1.05664,0.667969 -1.05792,0 -1.061792,-0.128491 -1.646485,-0.914063 L 36.885164,35.879354 A 1.50015,1.50015 0 0 0 35.61368,35.176229 l -23.730469,0.01172 a 1.50015,1.50015 0 0 0 -1.296875,0.748047 l -1.0097658,1.742187 a 1.5,1.5 0 0 0 0.5468748,2.050781 1.5,1.5 0 0 0 2.048829,-0.544921 l 0.578124,-0.996094 22.035157,-0.01172 2.222656,3.548828 a 1.50015,1.50015 0 0 0 0.06836,0.101563 c 0.806072,1.078095 2.192615,2.138672 4.06836,2.138672 1.605213,0 3.053041,-0.938562 3.746094,-2.337891 0.693052,-1.399329 0.614782,-3.226151 -0.361329,-4.898438 L 40.422277,29.328576 36.29923,21.900842 32.178136,14.473107 28.072667,7.0785758 C 27.124742,5.2698159 25.701209,3.9841082 23.953527,4.0238883 Z m 0.02148,10.5214847 c -1.325491,0.03018 -2.25513,0.997926 -2.822266,2.101562 l 0.0293,-0.05469 -5.507812,9.675781 a 1.5,1.5 0 0 0 0.560547,2.046875 1.5,1.5 0 0 0 2.046874,-0.5625 l 5.507813,-9.677734 a 1.50015,1.50015 0 0 0 0.03125,-0.05469 c 0.292995,-0.570163 0.447823,-0.479735 0.222656,-0.474609 -0.225166,0.0051 -0.111541,-0.129693 0.205078,0.470703 a 1.50015,1.50015 0 0 0 0.01563,0.0293 l 6.035157,10.861328 a 1.50015,1.50015 0 0 0 0.01758,0.03125 c 0.221647,0.37742 0.21284,0.495097 0.246093,0.652344 H 8.4437607 A 1.50015,1.50015 0 0 0 7.1390732,30.352011 L 3.51212,36.77584 3.523839,36.75826 c -0.9563545,1.63844 -1.1433455,3.421662 -0.4707031,4.859375 0.6726424,1.437714 2.2178773,2.359375 3.9023437,2.359375 1.2323449,0 2.1634281,-0.610678 2.5527344,-0.908203 A 1.5,1.5 0 0 0 9.789464,40.965292 1.5,1.5 0 0 0 7.6879015,40.685995 C 7.3986278,40.90707 7.3507947,40.97701 6.9554796,40.97701 6.244616,40.97701 5.9525185,40.732237 5.7718859,40.346151 5.5912533,39.960065 5.5343273,39.262539 6.1136828,38.269979 a 1.50015,1.50015 0 0 0 0.011719,-0.01953 l 3.195312,-5.660154 H 30.777745 c 0.63113,0 1.269579,-0.133903 1.816406,-0.515625 0.546828,-0.381723 0.909548,-1.009754 1.025391,-1.589844 0.231686,-1.160181 -0.170012,-2.135342 -0.716797,-3.066406 l -6,-10.800782 c -0.600971,-1.139604 -1.602243,-2.102441 -2.927734,-2.072265 z" fill="#008055"/>
</svg>
