<svg xmlns="http://www.w3.org/2000/svg" width="48" height="48">
	<path d="m 26.476524,2.7861326 c -2.871876,0 -5.217323,2.3878534 -5.216797,5.2558594 v 8.457031 h -8.949219 c -2.8493966,0 -4.9609366,2.335023 -4.9609366,4.972656 a 1.9,1.9 0 0 0 1.90039,1.900391 1.9,1.9 0 0 0 1.9003906,-1.900391 c 0,-0.445966 0.555973,-1.171874 1.160156,-1.171874 h 10.84961 a 1.90019,1.90019 0 0 0 1.90039,-1.900391 V 8.041992 c -1.53e-4,-0.836394 0.622011,-1.455078 1.416016,-1.455078 a 1.90019,1.90019 0 0 0 0.002,0 c 0.796181,-1.74e-4 1.420075,0.618084 1.419922,1.455078 v 10.357422 a 1.90019,1.90019 0 0 0 1.900391,1.900391 h 10.083984 c 0.867964,5.93e-4 1.285386,0.221603 1.519531,0.447265 0.234422,0.225929 0.40625,0.549068 0.40625,1.224609 v 15.794922 c 3e-6,0.250009 -0.280313,1.17212 -0.927734,1.960938 -0.617136,0.751917 -1.505638,1.384959 -2.490235,1.6875 H 9.7441024 C 10.53664,40.318285 11.150352,39.157001 11.150352,37.768555 v -9.451172 c 0,-0.429366 0.07183,-0.426123 0.04492,-0.400391 -0.02691,0.02573 0.04808,-0.07813 0.544922,-0.07813 h 26.36914 a 1.9,1.9 0 0 0 1.900391,-1.900391 1.9,1.9 0 0 0 -1.900391,-1.90039 h -26.36914 c -1.134925,0 -2.3061746,0.306905 -3.1699216,1.132812 -0.863747,0.825908 -1.220703,2.01915 -1.220703,3.146485 v 9.451172 c 0,0.126049 -0.333863,1.158078 -1.042969,1.99414 -0.709106,0.836063 -1.703432,1.517387 -2.4726562,1.707031 a 1.90019,1.90019 0 0 0 0.4550801,3.744146 H 38.748008 a 1.90019,1.90019 0 0 0 0.492188,-0.06445 c 1.94641,-0.522944 3.493006,-1.689612 4.578125,-3.011719 1.085118,-1.322107 1.78908,-2.771702 1.789062,-4.371094 V 21.971679 c 0,-1.474558 -0.507271,-2.938291 -1.568359,-3.960937 -1.061088,-1.022646 -2.556853,-1.511589 -4.15625,-1.511719 H 31.697227 V 8.041992 C 31.697753,5.172186 29.348582,2.7855063 26.476524,2.7861326 Z" fill="#008055"/>
</svg>
