<svg xmlns="http://www.w3.org/2000/svg" width="48" height="48">
	<path d="M 10.226404,4.3003936 A 1.9,1.9 0 0 0 8.3260131,6.2007842 1.9,1.9 0 0 0 10.226404,8.1011748 H 40.07406 L 37.072107,34.921487 c -0.0827,0.585647 -0.247487,0.820066 -0.785157,1.054688 l -11.529296,3.769531 c -0.647723,0.202386 -1.080038,0.221075 -1.546875,0.05273 a 1.90019,1.90019 0 0 0 -0.04492,-0.01758 L 11.527185,35.917581 c -0.498166,-0.225583 -0.604569,-0.260609 -0.679688,-0.939453 a 1.90019,1.90019 0 0 0 -0.002,-0.01758 L 7.8904662,10.42344 A 1.9,1.9 0 0 0 5.7752319,8.7652373 1.9,1.9 0 0 0 4.1170287,10.878519 l 2.9550782,24.523437 c 0.2150677,1.918922 1.5712084,3.379549 2.9277343,4 a 1.90019,1.90019 0 0 0 0.1914058,0.07617 l 11.730469,3.894531 c 1.401723,0.505459 2.815273,0.360414 3.96875,0 a 1.90019,1.90019 0 0 0 0.02344,-0.0078 l 11.707031,-3.826171 a 1.90019,1.90019 0 0 0 0.162109,-0.0625 c 1.678524,-0.722583 2.812584,-2.322852 3.052735,-4.023438 a 1.90019,1.90019 0 0 0 0.0059,-0.05469 L 43.870978,8.3433703 a 1.90019,1.90019 0 0 0 0,-0.00586 C 43.970168,7.4206099 43.794598,6.3850164 43.117072,5.5562603 42.439548,4.727504 41.327987,4.3004009 40.273322,4.3004009 Z m 4.080078,7.2324214 a 1.9,1.9 0 0 0 -1.900391,1.900391 1.9,1.9 0 0 0 1.900391,1.900391 h 9.787109 l -9.6875,4.029297 a 1.90019,1.90019 0 0 0 0.728516,3.654296 h 15.480469 l -0.773438,6.830078 a 1.90019,1.90019 0 0 0 -0.002,0.0078 c -0.07824,0.717942 -0.142553,0.940803 -0.853516,1.197265 l -3.759765,1.265626 c -0.874038,0.262579 -1.869233,0.284452 -2.658204,0.04687 l -3.638671,-1.18164 c -0.355012,-0.116886 -0.754469,-0.72644 -0.8105,-1.197249 a 1.90019,1.90019 0 0 0 0,-0.0039 l -0.261719,-2.179688 a 1.9,1.9 0 0 0 -2.113281,-1.658203 1.9,1.9 0 0 0 -1.660156,2.113282 l 0.261718,2.175781 c 0.209409,1.759591 1.268324,3.658678 3.396485,4.359375 a 1.90019,1.90019 0 0 0 0.0059,0.002 l 3.681641,1.197266 a 1.90019,1.90019 0 0 0 0.03906,0.01172 c 1.629688,0.491717 3.326498,0.413108 4.859375,-0.04883 a 1.90019,1.90019 0 0 0 0.05664,-0.01758 l 3.841797,-1.291016 a 1.90019,1.90019 0 0 0 0.03516,-0.01367 c 2.041809,-0.731478 3.170033,-2.663571 3.355469,-4.365235 l 0.785156,-6.923828 C 34.530916,22.294247 34.227318,21.170366 33.5057,20.386331 32.784083,19.602296 31.731186,19.216409 30.701013,19.216409 h -6.050781 l 9.6875,-4.029297 a 1.90019,1.90019 0 0 0 -0.730469,-3.654297 z" fill="#008055"/>
</svg>
