<svg xmlns="http://www.w3.org/2000/svg" width="48" height="48">
	<path d="M 24.41,2.0166252 C 19.717049,1.9256627 14.970515,3.3247344 10.937344,6.3017824 9.7850103,7.1523674 8.739917,8.0981554 7.8025791,9.1181884 1.2412168,16.258419 0.03039911,27.115292 5.3299228,35.626001 5.8835991,36.516556 7.0540795,36.790163 7.9451572,36.237329 8.8374066,35.682863 9.1103866,34.509573 8.5545322,33.618188 3.527376,25.544884 5.5433826,15.008463 13.195157,9.3603764 20.846931,3.7122884 31.510138,4.8906694 37.743985,12.073266 43.977831,19.255864 43.6451,29.978026 36.976407,36.758813 30.307713,43.5396 19.590035,44.051764 12.304532,37.938501 11.50079,37.26472 10.303118,37.369626 9.6287513,38.172876 8.9536468,38.97691 9.0586073,40.176084 9.8631263,40.85061 18.640526,48.215724 31.649155,47.592206 39.683438,39.422876 47.717721,31.253545 48.123515,18.236455 40.613125,9.5830324 36.388531,4.7154824 30.443795,2.133577 24.41,2.0166252 Z m -7.28125,8.5000008 c -2.561578,-0.05451 -5.083381,1.252994 -6.441406,3.617187 -1.8672954,3.250786 -0.8248457,7.325616 2.189453,9.441406 0.12832,0.164755 0.285899,0.304457 0.464844,0.41211 0.0012,6.77e-4 0.0027,0.0013 0.0039,0.002 0.0026,0.002 0.0052,0.0039 0.0078,0.0059 0.0078,0.0046 0.01559,0.0092 0.02344,0.01367 h 0.002 c 0.002,6.7e-4 0.0039,0.0013 0.0059,0.002 0.179148,0.09718 0.374311,0.16135 0.576172,0.189453 3.352051,1.536319 7.402728,0.37193 9.263672,-2.886718 1.966665,-3.443777 0.757741,-7.878642 -2.683594,-9.84961 -1.075417,-0.615927 -2.247756,-0.922489 -3.41211,-0.947265 z m -0.460937,3.392578 c 0.732042,-0.05236 1.490538,0.10697 2.183594,0.503906 1.848148,1.058496 2.476104,3.36539 1.419921,5.214844 -1.056182,1.849453 -3.362089,2.479632 -5.21289,1.425781 -0.0045,-0.0026 -0.0091,-0.0052 -0.01367,-0.0078 -0.0013,-6.68e-4 -0.0026,-0.0013 -0.0039,-0.002 -1.845483,-1.063134 -2.465121,-3.370001 -1.404297,-5.216796 0.663015,-1.154247 1.81118,-1.8307 3.03125,-1.917969 z m 16.724609,0.04883 c -2.561578,-0.05451 -5.083381,1.252994 -6.441406,3.617187 -1.868645,3.253135 -0.826077,7.332883 2.193359,9.447266 0.127117,0.162108 0.282639,0.299761 0.458985,0.40625 0.0012,6.77e-4 0.0027,0.0013 0.0039,0.002 0.0026,0.002 0.0052,0.0039 0.0078,0.0059 0.0078,0.0046 0.01559,0.0092 0.02344,0.01367 7.66e-4,4.36e-4 0.0031,-4.35e-4 0.0039,0 0.002,0.0013 0.0039,0.0026 0.0059,0.0039 0.178077,0.09606 0.371872,0.159553 0.572265,0.1875 3.352399,1.537618 7.404344,0.372523 9.265625,-2.886719 1.966666,-3.443777 0.759694,-7.878642 -2.68164,-9.84961 -1.075417,-0.615927 -2.247756,-0.922488 -3.41211,-0.947265 z m -0.460937,3.392578 c 0.731821,-0.0521 1.488585,0.108923 2.18164,0.505859 1.848148,1.058496 2.478058,3.363438 1.421875,5.212891 -1.056182,1.849453 -3.36209,2.479632 -5.21289,1.425781 -0.0052,-0.0026 -0.01041,-0.0052 -0.01563,-0.0078 l -0.002,-0.002 c -1.845484,-1.063135 -2.467074,-3.370002 -1.40625,-5.216797 0.663015,-1.154247 1.813501,-1.831138 3.033203,-1.917969 z m -10.904297,8.683594 c -2.561949,-0.05407 -5.085335,1.254947 -6.44336,3.61914 -1.868645,3.253135 -0.824124,7.330929 2.195313,9.445313 0.127116,0.162107 0.282638,0.299761 0.458984,0.40625 0.0012,6.77e-4 0.0027,0.0032 0.0039,0.0039 0.0026,0.0013 0.0052,0.0026 0.0078,0.0039 0.0078,0.0053 0.01558,0.01048 0.02344,0.01563 7.66e-4,4.36e-4 0.0031,-4.35e-4 0.0039,0 0.002,6.7e-4 0.0039,0.0013 0.0059,0.002 0.178077,0.09606 0.371872,0.159553 0.572266,0.1875 3.352399,1.537618 7.404342,0.372524 9.265625,-2.886718 1.966665,-3.443777 0.759694,-7.878642 -2.681641,-9.84961 C 24.36388,26.365542 23.19171,26.05878 22.027188,26.034204 Z m -0.460938,3.392578 c 0.732042,-0.05236 1.488586,0.108923 2.181641,0.505859 1.848148,1.058497 2.478057,3.363438 1.421875,5.212891 -1.056182,1.849454 -3.36209,2.479632 -5.212891,1.425781 -0.0052,-0.002 -0.01041,-0.004 -0.01563,-0.0059 -6.65e-4,-0.0013 -0.0013,-0.0026 -0.002,-0.0039 -1.845483,-1.063134 -2.467074,-3.368049 -1.40625,-5.214843 0.663016,-1.154247 1.813134,-1.832652 3.033203,-1.919922 z" fill="#008055"/>
</svg>
