<svg xmlns="http://www.w3.org/2000/svg" width="48" height="48">
	<path d="m 8.6552738,6.6230466 c -1.740574,0 -3.372434,0.5157253 -4.49414,1.6699219 -1.121707,1.1541966 -1.576172,2.7585485 -1.576172,4.4199215 l -0.037109,21.960938 a 1.90019,1.90019 0 0 0 0,0.002 c 0,1.646035 0.468726,3.258189 1.5,4.529297 1.031271,1.271107 2.670392,2.117262 4.513671,2.171875 a 1.9,1.9 0 0 0 1.9550792,-1.84375 1.9,1.9 0 0 0 -1.8437502,-1.955078 c -0.848752,-0.02515 -1.293134,-0.298348 -1.673829,-0.767579 -0.380057,-0.468444 -0.651441,-1.217848 -0.652343,-2.130859 v -0.0039 l 0.039062,-21.958984 a 1.90019,1.90019 0 0 0 0,-0.0039 c 0,-1.006616 0.234431,-1.498223 0.5,-1.771484 0.265569,-0.273261 0.719246,-0.517578 1.769531,-0.517578 H 39.364259 c 0.824645,0 1.350198,0.23573 1.693359,0.566406 0.343161,0.330676 0.597656,0.811366 0.597656,1.722656 v 21.962891 c 0,1.136795 -0.268107,1.887682 -0.580078,2.273437 -0.311971,0.385756 -0.679037,0.628907 -1.710937,0.628907 H 14.19629 a 1.9,1.9 0 0 0 -1.900391,1.90039 1.9,1.9 0 0 0 1.900391,1.898438 h 25.167969 c 1.88309,0 3.611249,-0.734833 4.666015,-2.039063 1.054767,-1.304229 1.423829,-2.956664 1.423829,-4.662109 V 12.71289 c 0,-1.744539 -0.618415,-3.3591575 -1.759766,-4.458984 C 42.552985,7.1540794 40.983504,6.6230466 39.364259,6.6230466 Z m 5.1503912,7.6679684 a 1.55,1.55 0 0 0 -1.548828,1.548829 v 11.36914 h -0.38086 a 1.7,1.7 0 0 0 -1.699218,1.701172 1.7,1.7 0 0 0 1.699218,1.699219 h 0.38086 v 1.925781 a 1.55,1.55 0 0 0 1.548828,1.550781 1.55,1.55 0 0 0 1.550781,-1.550781 v -1.925781 h 0.294922 a 1.7,1.7 0 0 0 1.701172,-1.699219 1.7,1.7 0 0 0 -1.701172,-1.701172 h -0.294922 v -11.36914 a 1.55,1.55 0 0 0 -1.550781,-1.548829 z m 9.996094,0 a 1.55,1.55 0 0 0 -1.550782,1.548829 v 1.054687 h -0.378906 a 1.7,1.7 0 0 0 -1.699218,1.701172 1.7,1.7 0 0 0 1.699218,1.699219 h 0.378906 v 12.240234 a 1.55,1.55 0 0 0 1.550782,1.550781 1.55,1.55 0 0 0 1.550781,-1.550781 V 20.294922 h 0.294922 a 1.7,1.7 0 0 0 1.699219,-1.699219 1.7,1.7 0 0 0 -1.699219,-1.701172 H 25.35254 v -1.054687 a 1.55,1.55 0 0 0 -1.550781,-1.548829 z m 9.996094,0 a 1.55,1.55 0 0 0 -1.550782,1.548829 v 6.509765 H 31.868165 A 1.7,1.7 0 0 0 30.166993,24.050781 1.7,1.7 0 0 0 31.868165,25.75 h 0.378906 v 6.785156 a 1.55,1.55 0 0 0 1.550782,1.550781 1.55,1.55 0 0 0 1.548828,-1.550781 V 25.75 h 0.296875 a 1.7,1.7 0 0 0 1.699218,-1.699219 1.7,1.7 0 0 0 -1.699218,-1.701172 h -0.296875 v -6.509765 a 1.55,1.55 0 0 0 -1.548828,-1.548829 z" fill="#008055"/>
</svg>
