<svg xmlns="http://www.w3.org/2000/svg" width="48" height="48">
	<path d="M 10.105679,1.0811554 C 9.5863782,0.89477894 8.8634785,0.77035604 8.1173981,1.0889654 7.3713177,1.4075773 6.9082601,2.1028911 6.7131012,2.6709967 6.5179422,3.2391022 6.4767731,3.7700027 6.4767731,4.3604498 V 19.350686 c -0.00477,0.991058 -0.094461,2.02874 1.0800781,2.957031 0.5887906,0.465348 1.4721091,0.568594 2.0605469,0.427735 0.5884379,-0.140859 1.0066719,-0.404868 1.4179689,-0.710938 l 4.779297,-3.482421 a 1.80018,1.80018 0 0 0 0.05664,-0.04297 c 0.246245,-0.194663 0.374557,-0.216315 0.41211,-0.21875 0.03755,-0.0024 0.07594,-0.02947 0.324218,0.154297 a 1.80018,1.80018 0 0 0 0.04883,0.0332 l 8.009765,5.535156 -11.46289,8.232422 a 1.8,1.8 0 0 0 -0.41211,2.511719 1.8,1.8 0 0 0 2.511719,0.412109 l 11.816406,-8.486328 a 1.80018,1.80018 0 0 0 0.02344,-0.01563 c 0.78852,-0.585457 1.565133,-1.401324 1.595703,-2.63086 0.03057,-1.229535 -0.781454,-2.120902 -1.548828,-2.65625 a 1.80018,1.80018 0 0 0 -0.0059,-0.0039 l -8.433594,-5.826171 -0.0039,-0.0019 c -0.783556,-0.578817 -1.755501,-0.910558 -2.695281,-0.84961 -0.941195,0.06104 -1.759584,0.470491 -2.41211,0.986328 l 0.05664,-0.04297 -3.619141,2.636718 V 5.2374054 L 37.674038,23.881936 a 1.80018,1.80018 0 0 0 0.01758,0.01172 c 0.322887,0.212601 0.243199,0.275822 0.234374,0.121094 -0.0088,-0.154729 0.137125,-0.184673 -0.201171,0.0625 L 37.767791,24.046 10.076385,43.034281 V 32.438577 c 0,-0.834585 0.103489,-1.123401 1.054688,-1.898438 0.002,-0.0017 0.0019,-0.0022 0.0039,-0.0039 l 4.335938,-3.238281 a 1.8,1.8 0 0 0 0.363281,-2.519531 1.8,1.8 0 0 0 -2.517578,-0.365235 l -4.3945314,3.285157 a 1.80018,1.80018 0 0 0 -0.060547,0.04492 C 7.3531931,28.970863 6.47677,30.692763 6.47677,32.438582 v 11.054687 c 0,1.158476 0.2555679,2.41914 1.4335937,3.189453 1.1780258,0.770314 2.6528443,0.383108 3.6542973,-0.302734 L 39.804898,27.016702 a 1.80018,1.80018 0 0 0 0.04297,-0.03125 c 1.004364,-0.733828 1.746067,-1.909178 1.673828,-3.175781 -0.07224,-1.266604 -0.875637,-2.28253 -1.84961,-2.923828 L 11.480679,1.8428742 C 11.046776,1.530862 10.62498,1.2675319 10.105679,1.0811554 Z" fill="#008055"/>
</svg>
