<svg xmlns="http://www.w3.org/2000/svg" width="48" height="48">
	<path d="m 25.039815,2.0931489 a 1.9,1.9 0 0 0 -1.33789,0.5371094 L 11.143331,14.835336 c -4.1289133,3.9814 -5.9378983,8.843349 -5.7031253,13.527344 0.234891,4.686346 2.444656,9.148366 5.9960943,12.59961 7.30037,7.094454 19.111757,6.210374 25.970703,-0.455078 6.877663,-6.683665 7.079518,-18.075467 -0.492188,-25.433594 a 1.9,1.9 0 0 0 -2.685547,0.03906 1.9,1.9 0 0 0 0.03711,2.685547 c 6.167935,5.993953 5.870365,14.7579 0.492187,19.984375 -5.396934,5.244686 -14.986258,5.982223 -20.673828,0.455078 C 11.142175,35.378134 9.4181847,31.786476 9.2370807,28.173227 9.0559767,24.559978 10.347045,20.879203 13.785909,17.565805 a 1.90019,1.90019 0 0 0 0.0059,-0.0059 L 26.350362,5.3548677 a 1.9,1.9 0 0 0 0.03906,-2.6875 1.9,1.9 0 0 0 -1.34961,-0.5742188 z m 6.240235,7.570313 A 1.9,1.9 0 0 0 29.948018,10.216196 L 18.662862,21.409555 c -1.657113,1.643007 -2.437459,3.7498 -2.339844,5.753907 0.09762,2.004106 1.007931,3.873164 2.435547,5.300781 3.050062,3.050076 7.936544,2.68455 10.785157,-0.164063 2.867086,-2.867099 2.905584,-7.721356 -0.171875,-10.798828 a 1.9,1.9 0 0 0 -2.685547,0 1.9,1.9 0 0 0 0,2.6875 c 1.692781,1.692788 1.557915,4.037781 0.169922,5.425781 -1.406488,1.406488 -3.95096,1.621313 -5.410157,0.16211 -0.827023,-0.827024 -1.281313,-1.83581 -1.328125,-2.796875 -0.04681,-0.961066 0.248847,-1.907511 1.220704,-2.871094 L 32.6238,12.913462 a 1.9,1.9 0 0 0 0.01172,-2.6875 1.9,1.9 0 0 0 -1.355468,-0.5625001 z" fill="#008055"/>
</svg>
