<svg xmlns="http://www.w3.org/2000/svg" width="48" height="48">
	<path d="m 38.539297,0.78614868 c -0.269793,0.00888 -0.533707,0.031747 -0.791016,0.0625 -4.976551,0.20504572 -8.511392,4.71784062 -8.83789,9.36328132 -0.106968,1.026954 0.04622,1.954028 0.361328,2.623047 a 1.7,1.7 0 0 0 2.261719,0.814453 1.7,1.7 0 0 0 0.8125,-2.263672 c -0.08003,-0.169913 -0.126321,-0.216727 -0.05859,-0.833984 a 1.70017,1.70017 0 0 0 0.0059,-0.07227 c 0.200518,-3.0424259 2.73502,-6.1424842 5.619141,-6.2460937 a 1.70017,1.70017 0 0 0 0.162109,-0.013672 c 0.585598,-0.077978 1.368467,-8.1e-4 1.78125,0.1777344 0.383106,0.1657078 0.410857,0.1976224 0.433594,0.5507812 -0.24447,2.3688019 -1.975977,4.6223539 -4.005859,6.4960941 -1.251785,1.034182 -1.344471,1.227906 -3.042969,1.884766 a 1.7,1.7 0 0 0 -0.972657,2.199218 1.7,1.7 0 0 0 2.197266,0.972656 c 1.994515,-0.771336 2.768653,-1.435591 4.042969,-2.482421 a 1.70017,1.70017 0 0 0 0.07422,-0.06445 c 2.339631,-2.157411 4.851887,-5.0795555 5.134765,-8.9160163 a 1.70017,1.70017 0 0 0 0.002,-0.203125 C 43.640796,3.1395796 42.432733,1.8072887 41.205312,1.276383 40.591603,1.0109302 39.969595,0.86814548 39.365469,0.80958608 39.08476,0.78237638 38.809089,0.77726868 38.539297,0.78614868 Z M 24.500234,3.1552893 C 23.0487,3.1371918 21.738328,3.8493199 20.890859,4.8154455 19.922323,5.9195892 19.398445,7.35284 19.463125,8.8525549 a 1.70017,1.70017 0 0 0 0,0.00977 c 0.09322,1.9351451 0.251792,2.9430571 0.455078,3.9687501 a 1.7,1.7 0 0 0 1.998047,1.335937 1.7,1.7 0 0 0 1.287109,-1.15039 1.7,1.7 0 0 0 0.742188,1.630859 1.7,1.7 0 0 0 2.357422,-0.470703 c 0.88687,-1.329794 1.418257,-2.398046 1.884765,-4.2226557 a 1.70017,1.70017 0 0 0 0.01172,-0.04688 C 28.425786,8.9071104 28.568725,7.6606796 28.273672,6.3525549 27.978619,5.0444302 26.877088,3.4884462 25.131094,3.2099768 a 1.70017,1.70017 0 0 0 -0.002,0 c -0.21223,-0.033737 -0.421545,-0.052102 -0.628907,-0.054688 z m -9.298828,3.0664062 c -0.442987,-0.013248 -0.878394,0.058721 -1.259765,0.203125 -0.762742,0.2888075 -1.331819,0.7934871 -1.767579,1.3535156 -0.871516,1.1200575 -1.338399,2.5125669 -1.085937,4.0136719 a 1.70017,1.70017 0 0 0 0.0039,0.02344 c 0.364233,1.995242 1.227856,3.790748 2.964843,5.03125 a 1.7,1.7 0 0 0 2.371094,-0.394532 1.7,1.7 0 0 0 0.04688,-1.90625 1.7,1.7 0 0 0 1.027344,0.548828 1.7,1.7 0 0 0 1.919921,-1.447265 C 19.581975,12.508846 19.619641,11.227784 19.252188,9.9384919 18.884734,8.6492012 18.014797,7.334778 16.593984,6.5693518 a 1.70017,1.70017 0 0 0 -0.08594,-0.042969 C 16.095256,6.3334439 15.644394,6.234944 15.201406,6.2216955 Z m 9.070313,0.3320313 c 0.100974,-0.0101 0.208308,-0.00475 0.324219,0.013672 0.323095,0.051531 0.242635,0.00698 0.361328,0.5332031 0.117566,0.5212344 0.06306,1.4177253 -0.07422,2.0371093 -0.403532,1.5715438 -0.602678,1.9445198 -1.408203,3.1523438 a 1.7,1.7 0 0 0 -0.203125,0.416016 1.7,1.7 0 0 0 -0.01953,-0.53711 C 23.062995,11.21438 22.947204,10.5169 22.859609,8.7060705 v -0.00195 C 22.836482,8.1544296 23.084043,7.4719784 23.4475,7.057633 23.720379,6.7465471 23.968796,6.5840263 24.271719,6.5537268 Z m -9.205078,3.1210941 c 0.480296,0.296846 0.754116,0.6272541 0.916015,1.1953121 0.177019,0.621108 0.18909,1.472618 0.07227,2.304688 a 1.7,1.7 0 0 0 0.25,1.148437 1.7,1.7 0 0 0 -0.271484,-0.24414 c -1.063361,-0.75942 -1.302187,-1.288428 -1.589844,-2.855469 -0.04335,-0.268597 0.13317,-0.996425 0.414062,-1.3574221 0.102761,-0.132066 0.157798,-0.158088 0.208985,-0.191406 z M 8.3498442,11.772477 c -0.1620465,-0.0107 -0.3231625,-0.0089 -0.4824219,0.0039 -0.6370377,0.05122 -1.2378604,0.278907 -1.6953125,0.582031 -0.9149044,0.60625 -1.5858151,1.472202 -1.8085938,2.634766 a 1.70017,1.70017 0 0 0 -0.011719,0.08008 c -0.3649914,2.556457 0.6372991,5.298268 3.0722656,6.546875 A 1.7,1.7 0 0 0 9.7111723,20.883805 1.7,1.7 0 0 0 8.9748442,18.594742 C 7.9451761,18.066747 7.5299184,17.061045 7.7209379,15.608414 c 0.017691,-0.03752 0.1541516,-0.237752 0.2871094,-0.361328 0.7133283,0.617059 0.9379595,1.282421 0.9765625,2.384766 a 1.7,1.7 0 0 0 1.7578122,1.640625 1.7,1.7 0 0 0 1.638672,-1.759766 c -0.06095,-1.740471 -0.660745,-3.85305 -2.5449217,-5.222656 a 1.70017,1.70017 0 0 0 -0.058594,-0.04102 C 9.3274172,11.94942 8.8359836,11.804577 8.3498442,11.772477 Z m 18.1191398,4.298828 c -2.909351,0.02083 -5.787157,0.59131 -8.486328,1.611328 a 1.70017,1.70017 0 0 0 -0.0293,0.01172 c -3.719931,1.486297 -7.637915,4.143014 -9.1386711,8.52539 a 1.70017,1.70017 0 0 0 0,0.0039 c -1.2538369,3.685583 -0.3242836,7.55185 1.3339871,10.628912 a 1.70017,1.70017 0 0 0 0.0078,0.01563 c 2.801753,5.081135 7.685014,9.546432 13.824218,10.275391 5.044503,0.614508 9.541876,-2.667254 11.785156,-6.765625 a 1.70017,1.70017 0 0 0 0.08008,-0.167969 c 0.227083,-0.549995 0.73456,-1.457514 1.02539,-2.574219 0.29083,-1.116705 0.232386,-2.813395 -0.949219,-3.93164 a 1.70017,1.70017 0 0 0 -0.308593,-0.232422 c -2.620497,-1.536006 -5.589403,-0.77688 -7.726563,0.269531 a 1.7,1.7 0 0 0 -0.779297,2.273437 1.7,1.7 0 0 0 2.275391,0.779297 c 1.437128,-0.703656 3.073379,-0.916698 4.201172,-0.4375 0.03761,0.06095 0.09526,0.04859 -0.002,0.421875 -0.131104,0.503399 -0.50078,1.235381 -0.826172,2.003906 -1.685837,3.046082 -5.091617,5.384874 -8.363282,4.986329 a 1.70017,1.70017 0 0 0 -0.0059,0 c -4.699202,-0.555326 -8.853174,-4.192885 -11.25,-8.535157 -1.335212,-2.481355 -1.946285,-5.438753 -1.103515,-7.916015 1.035929,-3.019086 4.003973,-5.189353 7.169921,-6.457031 2.670706,-1.006798 5.51925,-1.499467 8.341797,-1.367188 1.902041,0.137682 3.666448,0.514142 4.769532,1.519531 0.459528,0.470095 0.622849,1.055781 0.53125,1.822266 -0.09279,0.776454 -0.512602,1.644056 -1.033204,2.185547 a 1.70017,1.70017 0 0 0 -0.05859,0.0625 c -2.646607,3.048403 -7.091932,4.558653 -10.765625,8.058594 -1.33895,1.161452 -2.023768,3.085863 -1.416016,4.90039 a 1.70017,1.70017 0 0 0 0.04883,0.126953 c 0.594395,1.392997 1.652228,2.652014 3.189453,3.283203 1.537225,0.631189 3.560648,0.381805 5.181641,-0.929687 a 1.7,1.7 0 0 0 0.251953,-2.390625 1.7,1.7 0 0 0 -2.390625,-0.251953 c -0.856058,0.692608 -1.259845,0.629795 -1.751953,0.427734 -0.467962,-0.192146 -0.986915,-0.765557 -1.287109,-1.400391 -0.124676,-0.43869 -0.02306,-0.836377 0.402343,-1.203124 a 1.70017,1.70017 0 0 0 0.06641,-0.06055 c 2.938786,-2.823099 7.557278,-4.357988 10.996093,-8.289063 1.058355,-1.109112 1.756427,-2.552983 1.94336,-4.117187 0.188016,-1.573272 -0.213502,-3.355607 -1.511719,-4.652344 a 1.70017,1.70017 0 0 0 -0.04297,-0.04297 c -2.067229,-1.92469 -4.74991,-2.289822 -6.912016,-2.44336 a 1.70017,1.70017 0 0 0 -0.03906,-0.002 c -0.416496,-0.01973 -0.832425,-0.02837 -1.248047,-0.02539 z" fill="#008055"/>
</svg>
