<svg xmlns="http://www.w3.org/2000/svg" width="48" height="48">
	<path d="M 7.3818363,0.90624995 A 2.0999999,2.0999999 0 0 0 5.2822269,3.0058593 v 3.0585938 c 0,2.7419064 2.2834695,5.1562499 5.0976561,5.1562499 H 25.35254 c 7.993172,0 13.164062,5.757068 13.164062,12.798828 0,4.549336 -1.555181,7.836819 -3.93164,10.085938 -2.37646,2.249118 -5.654595,3.466797 -9.232422,3.466797 H 10.379883 c -1.2449054,0 -2.5171739,0.298914 -3.5332029,1.158203 -1.0160291,0.859288 -1.5644532,2.243899 -1.5644532,3.601562 v 2.660156 a 2.0999999,2.0999999 0 0 0 2.0996094,2.101563 2.0999999,2.0999999 0 0 0 2.0996094,-2.101563 v -2.660156 c 0,-0.422736 0.045593,-0.36867 0.076172,-0.394531 0.030578,-0.02586 0.2586612,-0.166016 0.8222653,-0.166016 H 25.35254 c 4.537222,0 8.892142,-1.563106 12.11914,-4.617187 3.226998,-3.054082 5.246094,-7.593502 5.246094,-13.134766 0,-9.18824 -7.271446,-16.9980468 -17.365234,-16.9980468 H 10.379883 c -0.673593,0 -0.8984373,-0.2513377 -0.8984373,-0.9570312 V 3.0058593 A 2.0999999,2.0999999 0 0 0 7.3818363,0.90624995 Z m 0,11.55078105 A 2.0999999,2.0999999 0 0 0 5.2822269,14.55664 v 19.855469 a 2.0999999,2.0999999 0 0 0 2.0996094,2.09961 2.0999999,2.0999999 0 0 0 2.0996094,-2.09961 V 14.55664 A 2.0999999,2.0999999 0 0 0 7.3818363,12.457031 Z m 15.2109377,2.84375 c -1.266445,0.0275 -2.118989,0.918186 -2.587891,1.791016 l -6.363281,10.90039 c -0.545106,0.88804 -0.721018,2.146494 -0.130859,3.140625 0.590158,0.994131 1.714084,1.433594 2.736328,1.433594 a 1.8,1.8 0 0 0 1.800781,-1.800781 1.8,1.8 0 0 0 -0.9375,-1.578125 l 5.541016,-9.488281 5.40625,9.265625 h -7.558594 a 1.8,1.8 0 0 0 -1.800781,1.800781 1.8,1.8 0 0 0 1.800781,1.798828 h 8.59375 c 1.02789,0 2.177831,-0.468245 2.740235,-1.482422 0.561633,-1.012788 0.356428,-2.225138 -0.177735,-3.097656 l -6.375,-10.919922 c -0.494867,-0.897581 -1.421055,-1.791176 -2.6875,-1.763672 z" fill="#008055"/>
</svg>
