<svg xmlns="http://www.w3.org/2000/svg" width="48" height="48">
	<path d="M 23.271484 1.7773438 C 21.464746 1.8510294 19.644329 2.1865736 17.914062 2.8730469 A 1.40014 1.40014 0 0 0 17.880859 2.8867188 C 16.075747 3.6561848 14.808945 5.062527 14.160156 6.6992188 A 1.40014 1.40014 0 0 0 14.154297 6.7148438 C 12.546837 10.903301 12.656445 16.362435 14.783203 21.314453 A 1.4 1.4 0 0 0 16.623047 22.048828 A 1.4 1.4 0 0 0 17.355469 20.208984 C 15.518501 15.931724 15.480442 11.088972 16.767578 7.7265625 C 17.176916 6.6979483 17.826156 5.9626648 18.964844 5.4726562 C 21.297913 4.5515155 23.93635 4.5812833 26.480469 4.9335938 C 22.350394 7.1119594 18.822767 10.476655 17.035156 14.460938 A 1.4 1.4 0 0 0 17.740234 16.3125 A 1.4 1.4 0 0 0 19.589844 15.607422 C 21.530568 11.281876 26.454762 7.3803559 31.59375 5.8457031 A 1.40014 1.40014 0 0 0 31.695312 3.1972656 C 29.742969 2.4480353 27.450764 1.9095012 25.070312 1.7871094 C 24.4752 1.7565114 23.87373 1.7527819 23.271484 1.7773438 z M 10.65625 6.6191406 A 1.40014 1.40014 0 0 0 9.8378906 6.9296875 C 6.5877238 9.5617346 3.3875636 13.79217 2.6660156 18.703125 A 1.40014 1.40014 0 0 0 2.6621094 18.738281 C 2.4259732 20.686222 3.0103643 22.48703 4.1035156 23.867188 A 1.40014 1.40014 0 0 0 4.1132812 23.878906 C 6.937206 27.365061 11.720029 30.000423 17.072266 30.634766 A 1.4 1.4 0 0 0 18.626953 29.408203 A 1.4 1.4 0 0 0 17.402344 27.853516 C 12.779699 27.305644 8.5657477 24.9205 6.296875 22.125 C 5.6095917 21.255791 5.2985678 20.323347 5.4433594 19.091797 C 5.8120782 16.611785 7.1559301 14.342856 8.7324219 12.316406 C 8.5545054 16.981389 9.7069999 21.71829 12.263672 25.257812 A 1.4 1.4 0 0 0 14.21875 25.572266 A 1.4 1.4 0 0 0 14.533203 23.617188 C 11.757171 19.773976 10.839849 13.559036 12.080078 8.3417969 A 1.40014 1.40014 0 0 0 10.755859 6.6191406 A 1.40014 1.40014 0 0 0 10.65625 6.6191406 z M 35.283203 6.7324219 C 34.840186 6.7130954 34.398353 6.7366538 33.962891 6.8007812 A 1.40014 1.40014 0 0 0 33.947266 6.8046875 C 29.515996 7.506923 24.840781 10.330787 21.615234 14.648438 A 1.4 1.4 0 0 0 21.900391 16.607422 A 1.4 1.4 0 0 0 23.859375 16.324219 C 26.643932 12.596868 30.814533 10.140622 34.369141 9.5722656 L 34.371094 9.5722656 C 35.47014 9.4108327 36.435097 9.6053181 37.431641 10.349609 C 39.393454 11.908585 40.683974 14.207263 41.650391 16.583984 C 37.699085 14.097523 33.021521 12.727792 28.677734 13.171875 A 1.4 1.4 0 0 0 27.427734 14.707031 A 1.4 1.4 0 0 0 28.962891 15.957031 C 33.679734 15.474809 39.521278 17.787954 43.419922 21.470703 A 1.40014 1.40014 0 0 0 45.763672 20.234375 C 45.10914 16.10381 43.044851 11.21894 39.152344 8.1386719 A 1.40014 1.40014 0 0 0 39.125 8.1171875 C 37.948236 7.2333854 36.612255 6.7904013 35.283203 6.7324219 z M 30.837891 17.292969 A 1.4 1.4 0 0 0 29.482422 18.527344 A 1.4 1.4 0 0 0 30.707031 20.083984 C 35.329666 20.631856 39.543682 23.017025 41.8125 25.8125 C 42.500997 26.683284 42.81465 27.614755 42.667969 28.849609 C 42.29819 31.327738 40.952277 33.596142 39.376953 35.621094 C 39.554881 30.956087 38.402346 26.21927 35.845703 22.679688 A 1.4 1.4 0 0 0 33.892578 22.365234 A 1.4 1.4 0 0 0 33.576172 24.318359 C 36.352221 28.161702 37.269578 34.376402 36.029297 39.59375 A 1.40014 1.40014 0 0 0 38.273438 41.005859 C 41.523635 38.373807 44.721767 34.145312 45.443359 29.234375 A 1.40014 1.40014 0 0 0 45.447266 29.199219 C 45.683364 27.251279 45.098948 25.450456 44.005859 24.070312 A 1.40014 1.40014 0 0 0 43.996094 24.058594 C 41.172197 20.572417 36.389335 17.937077 31.037109 17.302734 A 1.4 1.4 0 0 0 30.837891 17.292969 z M 31.923828 25.837891 A 1.4 1.4 0 0 0 31.431641 25.951172 A 1.4 1.4 0 0 0 30.697266 27.791016 C 32.534205 32.068279 32.574192 36.911017 31.287109 40.273438 C 30.877374 41.302945 30.226305 42.039297 29.085938 42.529297 C 26.75395 43.448931 24.11664 43.420312 21.574219 43.068359 C 25.704688 40.890011 29.229914 37.523678 31.017578 33.539062 A 1.4 1.4 0 0 0 30.314453 31.6875 A 1.4 1.4 0 0 0 28.462891 32.392578 C 26.522289 36.718083 21.5979 40.619644 16.458984 42.154297 A 1.40014 1.40014 0 0 0 16.359375 44.802734 C 20.264073 46.301189 25.526524 46.957539 30.140625 45.126953 A 1.40014 1.40014 0 0 0 30.171875 45.113281 C 31.976928 44.343807 33.245696 42.937424 33.894531 41.300781 A 1.40014 1.40014 0 0 0 33.898438 41.285156 C 35.505822 37.09671 35.398207 31.637563 33.271484 26.685547 A 1.4 1.4 0 0 0 32.023438 25.837891 A 1.4 1.4 0 0 0 31.923828 25.837891 z M 3.5839844 25.982422 A 1.40014 1.40014 0 0 0 2.2363281 27.601562 C 2.8908803 31.73211 4.9550986 36.616997 8.8476562 39.697266 A 1.40014 1.40014 0 0 0 8.875 39.71875 C 10.443986 40.897169 12.295232 41.291664 14.037109 41.035156 A 1.40014 1.40014 0 0 0 14.052734 41.03125 C 18.4839 40.328905 23.159192 37.505156 26.384766 33.1875 A 1.4 1.4 0 0 0 26.099609 31.228516 A 1.4 1.4 0 0 0 24.140625 31.511719 C 21.35409 35.241691 17.179288 37.697477 13.623047 38.263672 C 12.526499 38.423487 11.562993 38.229219 10.568359 37.486328 C 8.6066552 35.927459 7.3160267 33.628507 6.3496094 31.251953 C 10.300903 33.738395 14.9785 35.108238 19.322266 34.664062 A 1.4 1.4 0 0 0 20.572266 33.128906 A 1.4 1.4 0 0 0 19.037109 31.878906 C 14.320388 32.361219 8.4786706 30.047883 4.5800781 26.365234 A 1.40014 1.40014 0 0 0 3.5839844 25.982422 z " fill="#008055"/>
</svg>
