<svg xmlns="http://www.w3.org/2000/svg" width="48" height="48">
	<path d="M 16.660156 1.8769531 C 16.188832 1.8885005 15.728687 1.9881631 15.3125 2.1757812 C 13.647751 2.9262544 12.578418 5.1597903 13.505859 7.265625 A 1.50015 1.50015 0 0 0 13.517578 7.2949219 L 22.042969 25.578125 A 1.5 1.5 0 0 0 24.037109 26.304688 A 1.5 1.5 0 0 0 24.763672 24.310547 L 16.25 6.0566406 C 15.874092 5.2031105 16.182153 5.0756465 16.544922 4.9121094 C 16.907691 4.7485722 17.21225 4.62345 17.566406 5.3964844 A 1.50015 1.50015 0 0 0 17.570312 5.40625 L 26.673828 24.949219 A 1.5 1.5 0 0 0 28.667969 25.675781 A 1.5 1.5 0 0 0 29.394531 23.683594 L 20.294922 4.1464844 L 20.294922 4.1445312 C 19.58592 2.5986322 18.073662 1.8423223 16.660156 1.8769531 z M 25.630859 5.8417969 A 1.9 1.9 0 0 0 23.761719 7.6542969 A 1.9 1.9 0 0 0 25.574219 9.6386719 C 30.016896 9.8425723 33.994422 10.897252 36.873047 12.410156 C 39.751671 13.92306 41.410755 15.837126 41.791016 17.595703 C 42.171276 19.35428 41.480197 21.047717 39.445312 22.779297 C 37.410429 24.510877 34.058271 26.030499 29.847656 26.783203 C 21.426426 28.288611 12.038958 26.123931 8.1210938 22.402344 C 6.1621613 20.54155 5.7757512 18.910918 6.2910156 17.236328 C 6.80628 15.561738 8.5372534 13.622035 11.755859 12.087891 A 1.9 1.9 0 0 0 12.654297 9.5566406 A 1.9 1.9 0 0 0 10.121094 8.6582031 C 6.2720311 10.492853 3.607256 13.041102 2.6601562 16.119141 C 1.7130567 19.197179 2.7958152 22.583829 5.5039062 25.15625 C 10.920088 30.301092 21.072775 32.211823 30.517578 30.523438 C 35.23998 29.679245 39.169507 28.004315 41.908203 25.673828 C 44.646899 23.343341 46.22026 20.105865 45.503906 16.792969 C 44.787553 13.480072 42.138589 10.883329 38.640625 9.0449219 C 35.142661 7.2065148 30.676689 6.0699542 25.748047 5.84375 A 1.9 1.9 0 0 0 25.630859 5.8417969 z M 31.873047 31.371094 A 1.5 1.5 0 0 0 31.289062 31.517578 A 1.5 1.5 0 0 0 30.583984 33.517578 L 34.628906 41.984375 A 1.50015 1.50015 0 0 0 34.642578 42.011719 C 34.833547 42.391473 34.792609 42.549425 34.744141 42.679688 C 34.695672 42.80995 34.578674 42.942136 34.400391 43.027344 C 34.044961 43.197215 33.684389 43.318352 33.253906 42.521484 L 28.654297 32.939453 A 1.5 1.5 0 0 0 26.652344 32.234375 A 1.5 1.5 0 0 0 25.949219 34.236328 L 30.576172 43.876953 A 1.50015 1.50015 0 0 0 30.607422 43.9375 C 31.687746 45.94998 34.052302 46.518688 35.693359 45.734375 C 36.513888 45.342218 37.212523 44.649454 37.556641 43.724609 C 37.900759 42.799764 37.829918 41.673564 37.322266 40.664062 L 33.289062 32.222656 A 1.5 1.5 0 0 0 31.873047 31.371094 z " fill="#008055"/>
</svg>
