<svg xmlns="http://www.w3.org/2000/svg" width="48" height="48">
	<path d="m 19.914636,2.3156106 a 2.0002,2.0002 0 0 0 -0.02148,0.00195 C 12.514441,2.5268141 6.8162261,7.2817151 4.9829954,12.774595 c -0.9166154,2.74644 -0.8313093,5.793853 0.7089844,8.351562 1.5402934,2.55771 4.4334572,4.442589 8.4765622,5.253907 a 2,2 0 0 0 2.355469,-1.566407 2,2 0 0 0 -1.568359,-2.355468 C 11.695112,21.803906 9.9781359,20.490386 9.117761,19.061704 8.2573861,17.633023 8.1529182,15.907042 8.7759641,14.04022 10.02129,10.308871 14.315821,6.4832221 19.996667,6.3175641 c 2.807062,-0.0451 8.273413,2.035997 12.789063,5.1269529 4.510095,3.087153 8.028761,7.238291 8.429687,9.910156 0.129949,1.078288 -0.874727,3.519799 -3.183594,6.146484 -2.315235,2.633933 -5.702199,5.455525 -9.384765,7.853516 -3.682566,2.397991 -7.673052,4.379931 -11.130859,5.4375 -3.45781,1.057569 -6.287437,1.04422 -7.6289068,0.294922 a 2.0002,2.0002 0 0 0 -0.080078,-0.04297 C 8.1442048,40.21249 7.3546784,39.385061 7.0142454,38.723814 6.6738124,38.062566 6.6414011,37.460628 6.914636,36.559751 7.4611058,34.757998 9.6069213,32.180054 12.19198,29.862486 A 2,2 0 0 0 12.346277,27.038267 2,2 0 0 0 9.5220579,26.88397 c -2.7943818,2.505232 -5.4426111,5.246325 -6.4335937,8.513672 -0.4954914,1.633673 -0.4827449,3.503525 0.3691406,5.158203 0.8449905,1.641285 2.3854505,2.962893 4.515625,4.037109 3.0088612,1.661065 6.7676732,1.232034 10.7128902,0.02539 3.960553,-1.211334 8.203812,-3.347288 12.142579,-5.912109 3.938766,-2.564822 7.559144,-5.549858 10.208984,-8.564454 2.64984,-3.014595 4.56224,-6.052327 4.148437,-9.304687 a 2.0002,2.0002 0 0 0 -0.0039,-0.03516 C 44.464719,15.848578 40.039768,11.562307 35.045495,8.1437361 30.051223,4.7251621 24.45142,2.2345892 19.914636,2.3156106 Z m 2.216797,7.7695314 a 5.6517772,4.4135172 32.124816 0 0 -3.931641,2.607422 5.6517772,4.4135172 32.124816 0 0 3.828125,6.457031 5.6517772,4.4135172 32.124816 0 0 6.494141,-2.078125 5.6517772,4.4135172 32.124816 0 0 -3.828125,-6.457031 5.6517772,4.4135172 32.124816 0 0 -2.5625,-0.529297 z" fill="#008055"/>
</svg>
