<svg xmlns="http://www.w3.org/2000/svg" width="48" height="48">
	<path d="m 23.978989,5.6853324 c -0.906153,0.00317 -1.697266,0.4348861 -2.244141,0.9277344 -0.546875,0.4928482 -0.944726,1.0672428 -1.320313,1.7285156 a 2.0002,2.0002 0 0 0 -0.002,0.00391 L 3.1860199,38.824004 a 2,2 0 0 0 0.7578125,2.72461 2,2 0 0 0 2.7246094,-0.757813 l 17.2246092,-30.474609 0.002,-0.0039 c 0.04888,-0.08581 0.05999,-0.0754 0.105469,-0.146485 0.05659,0.08488 0.0706,0.0766 0.132812,0.183594 a 2.0002,2.0002 0 0 0 0.0059,0.0098 l 16.21875,27.535157 -7.855469,-2.154297 c -0.156868,-0.05957 -0.384765,-0.217418 -0.384765,-0.47461 0,-6.113422 -3.64701,-10.077044 -7.767579,-10.050781 -4.120568,0.02626 -7.740234,4.000939 -7.740234,10.050781 0,0.264878 -0.04333,0.302991 -0.15625,0.425782 -0.112923,0.122791 -0.350784,0.265105 -0.523437,0.326172 a 2.0002,2.0002 0 0 0 -0.03516,0.01367 l -6.2285154,2.333984 a 2,2 0 0 0 -1.171875,2.576172 2,2 0 0 0 2.5742184,1.169922 l 6.195313,-2.322266 0.002,-0.002 c 0.685443,-0.242731 1.453385,-0.651996 2.130859,-1.388672 0.678195,-0.737459 1.212891,-1.86499 1.212891,-3.132813 0,-4.610457 2.132094,-6.040369 3.765625,-6.050781 1.633531,-0.01041 3.742188,1.357204 3.742188,6.050781 0,2.151901 1.475367,3.679098 3.023437,4.242188 a 2.0002,2.0002 0 0 0 0.154297,0.04883 l 8.964844,2.458984 c 0.736842,0.226873 1.433075,0.367448 2.232422,0.265626 0.799346,-0.101823 1.817707,-0.655154 2.259765,-1.541016 0.442058,-0.885862 0.35269,-1.727393 0.167969,-2.44336 -0.184721,-0.715966 -0.503865,-1.393718 -0.935547,-2.126953 L 27.59227,8.3376761 27.58637,8.3318161 C 27.19688,7.6628675 26.789615,7.0886267 26.236801,6.5993949 25.681917,6.108331 24.885141,5.6821621 23.978989,5.6853324 Z" fill="#008055"/>
</svg>
