<svg xmlns="http://www.w3.org/2000/svg" width="48" height="48">
	<path d="m 23.143221,3.1757791 c -11.907642,0 -20.0277371,9.7645909 -20.0644531,21.5683589 a 2.0002,2.0002 0 0 0 0,0.0059 v 12.435547 a 2,2 0 0 0 2,2 2,2 0 0 0 2,-2 v -12.429688 -0.0059 C 7.1125289,14.695787 13.363017,7.1757791 23.143221,7.1757791 c 2.904928,0 3.687027,0.131955 5.796875,0.697266 5.73431,1.559438 12.276559,7.3587149 11.970703,16.8222649 -0.319566,9.383049 -7.579889,16.097793 -17.582031,16.128907 H 5.0787679 a 2,2 0 0 0 -2,2 2,2 0 0 0 2,2 H 23.334627 a 2.0002,2.0002 0 0 0 0.0078,0 C 35.198666,44.787337 44.519722,36.265233 44.90688,24.82617 a 2.0002,2.0002 0 0 0 0.002,-0.002 C 45.276091,13.461225 37.413271,6.0295141 29.981111,4.0117171 a 2.0002,2.0002 0 0 0 -0.0059,-0.002 C 27.7259,3.4070741 26.209893,3.1757791 23.143221,3.1757791 Z m 4.738281,6.552734 c -1.234114,0.04427 -2.472952,0.3779419 -3.603515,1.0585939 -2.261131,1.361304 -3.806641,4.146059 -3.806641,7.890625 v 3.882813 h -5.638672 a 1.9,1.9 0 0 0 -1.900391,1.898437 1.9,1.9 0 0 0 1.900391,1.900391 h 5.638672 v 5.023437 c 0,3.006696 -0.917874,3.590338 -2.054688,3.9375 -1.136813,0.347163 -2.927166,-0.12056 -3.388671,-0.433593 a 1.9,1.9 0 0 0 -2.638672,0.505859 1.9,1.9 0 0 0 0.505859,2.638672 c 1.684195,1.142367 4.098993,1.697015 6.630859,0.923828 2.531867,-0.773187 4.746094,-3.452161 4.746094,-7.572266 v -5.023437 h 5.904297 a 1.9,1.9 0 0 0 1.900391,-1.900391 1.9,1.9 0 0 0 -1.900391,-1.898437 h -5.904297 v -3.882813 c 0,-2.791634 0.912564,-4.001245 1.964844,-4.634765 1.05228,-0.633521 2.527109,-0.656969 3.724609,-0.144532 a 1.9,1.9 0 0 0 2.494141,-1 1.9,1.9 0 0 0 -1,-2.49414 C 30.344931,9.9289631 29.115617,9.6842481 27.881502,9.7285131 Z" fill="#008055"/>
</svg>
