<svg xmlns="http://www.w3.org/2000/svg" width="48" height="48">
	<path d="M 39.460938 1.4296875 A -3.7226369 3.7317977 0 0 0 35.738281 5.1621094 A -3.7226369 3.7317977 0 0 0 39.460938 8.8925781 A -3.7226369 3.7317977 0 0 0 43.183594 5.1621094 A -3.7226369 3.7317977 0 0 0 39.460938 1.4296875 z M 27.447266 6.0078125 C 26.88444 6.0015243 26.316856 6.0219846 25.744141 6.0722656 C 24.435076 6.1871937 23.103499 6.4536458 21.765625 6.8867188 A 2.0999999 2.0999999 0 0 0 20.414062 9.53125 A 2.0999999 2.0999999 0 0 0 23.058594 10.880859 C 31.402499 8.1799183 39.050435 13.790732 40.369141 21.236328 A 2.0999999 2.0999999 0 0 0 42.802734 22.9375 A 2.0999999 2.0999999 0 0 0 44.503906 20.503906 C 43.070694 12.411792 35.889644 6.1021351 27.447266 6.0078125 z M 17.222656 9.6230469 A 2.0999999 2.0999999 0 0 0 15.867188 10.115234 C 8.1976454 16.560634 7.0915076 29.08035 15.443359 36.617188 A 2.0999999 2.0999999 0 0 0 18.410156 36.464844 A 2.0999999 2.0999999 0 0 0 18.257812 33.5 C 11.746801 27.624365 12.781544 18.194896 18.570312 13.330078 A 2.0999999 2.0999999 0 0 0 18.826172 10.371094 A 2.0999999 2.0999999 0 0 0 17.222656 9.6230469 z M 5.2324219 19.548828 A -3.7226369 3.7317977 0 0 0 1.5097656 23.28125 A -3.7226369 3.7317977 0 0 0 5.2324219 27.013672 A -3.7226369 3.7317977 0 0 0 8.9550781 23.28125 A -3.7226369 3.7317977 0 0 0 5.2324219 19.548828 z M 42.349609 24.679688 A 2.0999999 2.0999999 0 0 0 40.341797 26.339844 C 38.50888 34.916325 29.82623 38.735078 22.71875 36.154297 A 2.0999999 2.0999999 0 0 0 20.027344 37.412109 A 2.0999999 2.0999999 0 0 0 21.285156 40.101562 C 30.701846 43.520837 42.098082 38.220057 44.449219 27.21875 A 2.0999999 2.0999999 0 0 0 42.833984 24.726562 A 2.0999999 2.0999999 0 0 0 42.349609 24.679688 z M 38.207031 39.107422 A -3.7226369 3.7317977 0 0 0 34.484375 42.837891 A -3.7226369 3.7317977 0 0 0 38.207031 46.570312 A -3.7226369 3.7317977 0 0 0 41.929688 42.837891 A -3.7226369 3.7317977 0 0 0 38.207031 39.107422 z " fill="#008055"/>
</svg>
