<svg xmlns="http://www.w3.org/2000/svg" width="48" height="48">
	<path d="m 23.678504,2.7945508 c -3.209065,0.048424 -6.576723,0.8601682 -9.910157,2.7011719 a 1.90019,1.90019 0 0 0 -0.04101,0.023437 C 2.8685081,11.873842 0.59791675,23.736778 5.0456911,32.360957 a 1.90019,1.90019 0 0 0 0.042969,0.08008 c 1.294336,2.235716 3.947705,3.725216 6.8437499,3.210937 1.092425,-0.193997 2.018792,-0.491543 3.021484,-0.742187 2.450479,2.438212 5.692495,3.546168 8.927735,3.527343 6.512183,-0.03789 13.238826,-4.346801 15.652343,-11.345703 a 1.9,1.9 0 0 0 -1.177734,-2.416015 1.9,1.9 0 0 0 -2.414063,1.177734 c -1.845801,5.352599 -7.280854,8.755268 -12.082031,8.783203 -1.573346,0.0092 -2.983461,-0.459756 -4.289062,-1.162109 4.279567,-1.659054 7.600184,-3.82258 9.839843,-6.283203 3.425571,-3.763535 4.605321,-8.115213 3.566407,-11.669922 -0.77502,-2.851484 -2.80404,-4.85309 -5.195313,-5.6835955 -2.400113,-0.8335753 -5.086149,-0.6433317 -7.607422,0.2656255 -5.042544,1.817913 -9.675839,6.760884 -9.529296,13.599609 a 1.90019,1.90019 0 0 0 0.002,0.05078 c 0.148708,3.102429 0.878011,5.679537 1.978515,7.822265 -0.473833,0.100647 -0.860291,0.245702 -1.357422,0.333985 C 9.9085541,32.151264 9.0043041,31.587957 8.3973011,30.556268 4.8598411,23.626407 6.3558561,14.249047 15.629722,8.8101748 24.152096,4.1197659 32.655182,7.5823815 36.901207,12.341425 a 1.90019,1.90019 0 0 0 0.01172,0.01172 c 5.897919,6.499293 6.074736,17.264405 -0.859375,23.962891 0,0 -0.002,0 -0.002,0 0,0 0,0.002 0,0.002 -7.121947,6.854771 -15.298451,6.714883 -22.740235,1.287109 a 1.9,1.9 0 0 0 -2.654297,0.416016 1.9,1.9 0 0 0 0.416016,2.654297 c 8.57801,6.256497 19.357963,6.328149 27.617187,-1.623047 a 1.90019,1.90019 0 0 0 0.002,-0.002 C 47.10737,30.923812 47.000167,17.828024 39.737145,9.8121282 l -0.002,-0.00195 C 36.40233,6.075743 31.061258,3.1326015 25.043738,2.8199414 24.592345,2.7964874 24.136941,2.7876334 23.678504,2.7945508 Z m 1.140625,10.3281252 c 0.624066,0.02423 1.205812,0.127219 1.716796,0.304687 1.362629,0.47325 2.303966,1.324162 2.78125,3.105469 a 1.90019,1.90019 0 0 0 0.01367,0.04492 c 0.576554,1.959756 0.0084,5.045581 -2.730468,8.054687 -2.045054,2.246818 -5.294212,4.429741 -10.013672,5.962891 -1.103585,-1.677058 -1.981023,-3.801571 -2.138672,-6.996094 -0.09807,-5.077329 3.318317,-8.586986 7.015625,-9.919922 0.925749,-0.333746 1.852452,-0.515912 2.71875,-0.554687 0.216574,-0.0097 0.428696,-0.01003 0.636719,-0.002 z" fill="#008055"/>
</svg>
