<svg xmlns="http://www.w3.org/2000/svg" width="48" height="48">
	<path d="m 7.5737802,3.7445062 c -0.490058,0.025694 -1.020562,0.162431 -1.589843,0.5292969 -0.5692818,0.3668658 -1.0442126,1.0407664 -1.212891,1.6992187 -0.1674369,0.6536059 -0.1156188,1.2566442 0.011719,1.84375 0.2164506,1.1302137 0.9185602,4.2406732 2.3203122,6.9257812 0.398957,0.764235 0.634656,1.318113 0.703125,1.613281 0.06847,0.295168 0.067686,0.282072 -0.03125,0.496094 -2.9071191,5.381406 -3.1682553,12.624213 0.746094,18.941406 a 2.0002,2.0002 0 0 0 0.013672,0.02148 c 4.9517356,7.763438 16.3365056,11.758644 26.3808586,5.001953 a 2.0002,2.0002 0 0 0 0.06445,-0.04492 c 7.697843,-5.627771 8.591842,-14.192945 6.986328,-20.171875 a 2,2 0 0 0 -2.449218,-1.41211 2,2 0 0 0 -1.414063,2.449219 c 1.277281,4.756594 0.793546,11.292935 -5.46289,15.884766 -8.28987,5.544671 -16.909171,2.121863 -20.72461,-3.845703 C 8.7450772,28.551789 9.0551412,22.812006 11.343312,18.656615 a 2.0002,2.0002 0 0 0 0.0625,-0.126953 C 11.861596,17.543684 11.923098,16.395248 11.70464,15.45349 11.486182,14.511733 11.087346,13.728855 10.649952,12.89099 9.8142212,11.290116 9.2469792,9.215043 8.9487802,7.9827874 10.221472,8.2220454 12.731199,8.7994036 14.616749,9.89685 c 0.83865,0.488151 1.667442,1.016965 2.666016,1.410156 0.998574,0.393192 2.279107,0.613542 3.548828,0.230469 a 2.0002,2.0002 0 0 0 0.01563,-0.0039 c 1.38379,-0.430035 3.057162,-0.50054 4.59375,-0.320312 A 2,2 0 0 0 27.661676,9.4593463 2,2 0 0 0 25.90777,7.2405963 C 23.943653,7.0102276 21.761508,7.0600912 19.659718,7.7132562 l 0.01563,-0.00586 c -0.257634,0.077727 -0.426199,0.07639 -0.92774,-0.1210931 C 18.246068,7.3888198 17.523701,6.9597677 16.630421,6.4398187 13.604863,4.6788535 10.145523,4.0661318 8.8804212,3.8773187 8.4842282,3.8014454 8.0496162,3.7195582 7.5737802,3.7445062 Z m 32.7148438,0.076172 c -0.248736,-0.00681 -0.49135,0.00839 -0.740234,0.03125 h -0.0039 C 35.879753,4.1706807 31.532786,6.12618 29.304249,7.8304437 a 2,2 0 0 0 -0.373047,2.8046873 2,2 0 0 0 2.804688,0.373047 c 0.891774,-0.68198 4.958879,-2.4315062 7.326172,-2.9160156 -0.484004,2.5761156 -2.138112,6.1008836 -2.333985,6.4296876 a 2.0002,2.0002 0 0 0 -0.01953,0.0332 c -0.02396,-0.0038 -0.09875,-0.01736 -0.302734,-0.07031 -0.543029,-0.224339 -1.932575,-1.190113 -2.53125,-2.189453 a 2,2 0 0 0 -2.744141,-0.689453 2,2 0 0 0 -0.6875,2.744141 c 1.224905,2.044672 3.000262,3.279933 4.542969,3.882812 a 2.0002,2.0002 0 0 0 0.105468,0.03906 c 0.773478,0.252948 1.662301,0.443321 2.671876,0.199219 1.000146,-0.241824 1.934659,-1.0356 2.435546,-1.97461 0.667755,-1.127597 2.728016,-4.900329 3.074219,-8.8398434 a 2.0002,2.0002 0 0 0 0,-0.00391 C 43.334964,6.9307987 43.521728,5.9934789 42.685108,4.9202874 42.266799,4.3836918 41.609006,4.0426976 41.064015,3.9183343 40.792218,3.8563122 40.53736,3.8274886 40.288624,3.8206782 Z" fill="#008055"/>
</svg>
