<svg xmlns="http://www.w3.org/2000/svg" width="48" height="48">
	<path d="m 25.540042,3.2913281 a 2.808924,2.8158362 0 0 0 -2.808594,2.8164062 2.808924,2.8158362 0 0 0 2.808594,2.8144531 2.808924,2.8158362 0 0 0 2.810547,-2.8144531 2.808924,2.8158362 0 0 0 -2.810547,-2.8164062 z m -8.148437,6.21875 a 3.3687544,3.4452806 0 0 0 -3.369141,3.4453129 3.3687544,3.4452806 0 0 0 3.369141,3.445312 3.3687544,3.4452806 0 0 0 3.367187,-3.445312 3.3687544,3.4452806 0 0 0 -3.367187,-3.4453129 z m 11.091796,1.8417969 a 3.840766,3.8502173 0 0 0 -3.841796,3.851562 3.840766,3.8502173 0 0 0 3.841796,3.84961 3.840766,3.8502173 0 0 0 3.839844,-3.84961 3.840766,3.8502173 0 0 0 -3.839844,-3.851562 z m -17.427734,6.751953 c -0.427211,-0.002 -0.858177,0.0762 -1.2109375,0.246094 -1.4110407,0.679585 -1.7347998,1.665272 -2.3417969,2.708984 a 1.90019,1.90019 0 0 0 -0.025391,0.04688 c -3.7783524,6.933927 -2.6427871,17.750462 5.8554694,23.517578 8.347911,5.793196 17.856407,3.33282 23.074218,-1.386719 7.049445,-6.280798 8.300109,-17.055609 2.50586,-24.335937 a 1.9,1.9 0 0 0 -2.669922,-0.304692 1.9,1.9 0 0 0 -0.304688,2.669921 c 4.485301,5.635666 3.546128,14.147678 -2.066406,19.140625 a 1.90019,1.90019 0 0 0 -0.01172,0.0098 c -4.01508,3.632783 -11.544499,5.824137 -18.371092,1.080044 a 1.90019,1.90019 0 0 0 -0.01758,-0.01172 c -6.774412,-4.592823 -7.4693532,-13.3966 -4.660155,-18.556639 6.52e-4,-0.0012 0.0013,-0.0027 0.002,-0.0039 0.310416,-0.512832 0.257848,-0.48175 0.382813,-0.648437 3.569798,3.75632 8.296236,5.154366 12.572266,5.146484 4.313255,-0.008 8.213464,-1.286209 10.685547,-3.339843 a 1.9,1.9 0 0 0 0.246046,-2.673836 1.9,1.9 0 0 0 -2.673828,-0.248047 c -1.453859,1.207767 -4.766302,2.454488 -8.265625,2.460938 -3.499323,0.0065 -7.135349,-1.081569 -9.886719,-4.025391 -0.482649,-0.516417 -0.947239,-0.95013 -1.626953,-1.255859 -0.339857,-0.152864 -0.764195,-0.234297 -1.191406,-0.236328 z" fill="#008055"/>
</svg>
