<svg xmlns="http://www.w3.org/2000/svg" width="48" height="48">
	<path d="M 29.455078 1.90625 A 1.9000858 1.8999142 35.001889 0 0 27.59375 3.4667969 A 1.9000858 1.8999142 35.001889 0 0 29.125 5.6738281 C 33.360812 6.4404156 37.203884 8.6381318 40.015625 11.896484 A 1.9000858 1.8999142 35.001889 0 0 41.791016 12.523438 A 1.9000858 1.8999142 35.001889 0 0 42.697266 12.091797 A 1.9000858 1.8999142 35.001889 0 0 42.892578 9.4140625 C 39.513103 5.4977977 34.891437 2.856841 29.800781 1.9355469 A 1.9000858 1.8999142 35.001889 0 0 29.455078 1.90625 z M 25.099609 8.9316406 C 20.848503 9.0778696 16.742938 10.989491 13.890625 14.371094 A 1.8997376 1.9002623 84.999751 0 0 14.119141 17.046875 A 1.8997376 1.9002623 84.999751 0 0 16.794922 16.820312 C 19.922971 13.111806 25.020685 11.75616 29.578125 13.421875 C 34.135565 15.08759 37.154494 19.408715 37.152344 24.259766 C 37.150192 29.110815 34.127206 33.428194 29.568359 35.089844 C 25.009513 36.751493 19.913893 35.393004 16.789062 31.681641 A 1.8997376 1.9002623 84.999751 0 0 14.111328 31.453125 A 1.8997376 1.9002623 84.999751 0 0 13.882812 34.128906 C 18.027194 39.051192 24.824632 40.864025 30.871094 38.660156 C 36.917555 36.456288 40.950271 30.69569 40.953125 24.261719 C 40.955979 17.827747 36.927248 12.062718 30.882812 9.8535156 C 28.993926 9.16314 27.03193 8.8651729 25.099609 8.9316406 z M 6.0625 15.402344 A 1.9002471 1.8997528 4.9995074 0 0 4.3261719 16.675781 C 2.623458 21.559765 2.6491815 26.881743 4.3964844 31.75 A 1.9002471 1.8997528 4.9995074 0 0 6.8261719 32.896484 A 1.9002471 1.8997528 4.9995074 0 0 7.9746094 30.466797 C 6.5208112 26.416288 6.499294 21.991392 7.9160156 17.927734 A 1.9002471 1.8997528 4.9995074 0 0 7.5742188 16.076172 A 1.9002471 1.8997528 4.9995074 0 0 6.7460938 15.507812 A 1.9002471 1.8997528 4.9995074 0 0 6.0625 15.402344 z M 25.458984 16.388672 C 23.732922 16.396494 22.001618 16.981603 20.582031 18.171875 C 17.503179 20.753382 17.033866 25.266734 19.289062 28.523438 A 1.8062684 1.7937498 85.000133 0 0 19.578125 29.066406 C 19.580442 29.069227 19.581663 29.073353 19.583984 29.076172 A 1.8062684 1.7937498 85.000133 0 0 19.589844 29.080078 A 1.8062684 1.7937498 85.000133 0 0 19.59375 29.083984 A 1.8062684 1.7937498 85.000133 0 0 19.619141 29.119141 C 19.622185 29.122783 19.625857 29.123318 19.628906 29.126953 A 1.8062684 1.7937498 85.000133 0 0 20.105469 29.507812 A 1.8062684 1.7937498 85.000133 0 1 20.107422 29.507812 C 22.889267 32.321126 27.385619 32.658892 30.455078 30.066406 C 33.690121 27.334067 34.121551 22.425612 31.412109 19.160156 C 29.888048 17.323337 27.678207 16.378615 25.458984 16.388672 z M 12.625 18.648438 A 1.9002623 1.8997376 5.0009153 0 0 10.851562 20.03125 C 10.029461 22.933194 10.081802 26.012359 11.001953 28.884766 A 1.9002623 1.8997376 5.0009153 0 0 13.392578 30.115234 A 1.9002623 1.8997376 5.0009153 0 0 14.621094 27.726562 C 13.92887 25.56567 13.889337 23.251521 14.507812 21.068359 A 1.9002623 1.8997376 5.0009153 0 0 14.134766 19.324219 A 1.9002623 1.8997376 5.0009153 0 0 13.197266 18.720703 A 1.9002623 1.8997376 5.0009153 0 0 12.625 18.648438 z M 25.880859 19.996094 C 26.922915 20.090949 27.927347 20.589464 28.660156 21.472656 C 30.125776 23.239041 29.900366 25.817488 28.146484 27.298828 C 26.392603 28.780169 23.835188 28.55599 22.363281 26.794922 A 1.8062684 1.7937498 85.000133 0 0 22.353516 26.779297 A 1.8062684 1.7937498 85.000133 0 0 22.345703 26.771484 C 20.88639 24.999806 21.12171 22.42225 22.880859 20.947266 C 23.760435 20.209774 24.838804 19.901239 25.880859 19.996094 z M 41.578125 35.337891 A 1.8998387 1.9001613 64.999193 0 0 40.181641 36.007812 C 37.399819 39.291702 33.576225 41.524833 29.347656 42.330078 A 1.8998387 1.9001613 64.999193 0 0 27.916016 43.550781 A 1.8998387 1.9001613 64.999193 0 0 27.837891 44.550781 A 1.8998387 1.9001613 64.999193 0 0 30.058594 46.060547 C 35.140674 45.092768 39.738484 42.41184 43.082031 38.464844 A 1.8998387 1.9001613 64.999193 0 0 42.861328 35.787109 A 1.8998387 1.9001613 64.999193 0 0 41.578125 35.337891 z " fill="#008055"/>
</svg>
