<svg xmlns="http://www.w3.org/2000/svg" width="48" height="48">
	<path d="m 10.943896,4.8162907 a 1.90019,1.90019 0 0 0 -1.8945317,2.037109 c 0.053684,0.744795 -0.00871,0.690012 -0.00586,1.152344 L 6.5571768,7.2616027 a 1.9,1.9 0 0 0 -2.3652344,1.273438 1.9,1.9 0 0 0 1.2753907,2.3652343 l 4.8632809,1.458985 a 1.90019,1.90019 0 0 0 2.390625,-1.365235 c 0.116249,-0.470854 0.03476,-1.4804373 0.05664,-2.1601563 5.049734,0.435542 9.761927,1.2370593 13.546875,2.3222663 4.279265,1.226936 7.500188,2.820447 8.804687,3.982422 2.619697,2.422853 4.377487,6.980298 4.876953,10.792968 -3.986638,3.103922 -7.549578,3.270451 -11.564453,2.117188 -4.289804,-1.232236 -8.88733,-4.10799 -13.685546,-6.44336 a 1.9,1.9 0 0 0 -2.539063,0.876954 1.9,1.9 0 0 0 0.876953,2.539062 c 4.527553,2.203632 9.233287,5.224623 14.298828,6.679688 5.065541,1.455064 10.717484,1.070012 15.919922,-3.464844 A 1.90019,1.90019 0 0 0 43.95952,26.6659 C 43.606972,21.818717 41.657396,15.980848 37.695849,12.329963 a 1.90019,1.90019 0 0 0 -0.02149,-0.01953 C 35.497107,10.363716 31.964595,8.8201097 27.373583,7.5037907 22.782571,6.1874717 17.16569,5.1940507 11.061083,4.8201967 a 1.90019,1.90019 0 0 0 -0.117187,-0.00391 z m 18.519531,8.7402343 c -1.503435,0.01165 -2.968336,0.570805 -4.097657,1.570313 -0.602304,0.533071 -1.10852,1.193193 -1.474609,1.960937 -1.391961,2.919158 -0.220382,6.363963 2.527344,7.96875 a 1.5000235,1.4999765 84.999999 0 0 0.380859,0.289063 c 0.0024,0.0012 0.0034,0.0027 0.0059,0.0039 a 1.5000235,1.4999765 84.999999 0 0 0.03711,0.01563 1.5000235,1.4999765 84.999999 0 0 0.02539,0.01563 1.5000235,1.4999765 84.999999 0 0 0.0059,0 1.5000235,1.4999765 84.999999 0 0 0.466797,0.111328 c 2.983014,1.10795 6.39239,-0.168512 7.767578,-3.095703 1.446671,-3.079348 0.114151,-6.792476 -2.960938,-8.248047 -0.864868,-0.409379 -1.781532,-0.598789 -2.683593,-0.591797 z m 0.0059,2.990235 c 0.465756,-0.0011 0.941042,0.0998 1.394531,0.314453 1.612408,0.763221 2.285906,2.643156 1.527344,4.257812 -0.758562,1.614657 -2.637137,2.296905 -4.253906,1.542969 a 1.5000235,1.4999765 84.999999 0 0 -0.0039,-0.002 1.5000235,1.4999765 84.999999 0 0 -0.0293,-0.01367 c -1.607992,-0.772481 -2.273694,-2.65731 -1.50586,-4.267578 0.191959,-0.402567 0.453928,-0.746083 0.763672,-1.023438 0.580771,-0.520038 1.331162,-0.806697 2.107422,-0.808593 z m -0.667969,0.591797 a 1.7,1.7 0 0 0 -1.541015,1.105468 1.7,1.7 0 0 0 0.998047,2.185547 c 0.809022,0.301648 1.633969,0.320632 2.490234,0.0039 a 1.7,1.7 0 0 0 1.003906,-2.185547 1.7,1.7 0 0 0 -2.183594,-1.003907 c 0.0198,-0.0073 -0.15643,-0.01245 -0.123046,0 A 1.7,1.7 0 0 0 28.801317,17.138557 Z M 41.49077,30.896369 a 1.9,1.9 0 0 0 -1.929687,1.869141 c -0.01251,0.783612 -0.20391,1.179109 -0.527344,1.914062 -5.541673,3.984168 -11.014473,4.650613 -16.589844,4.533203 -5.730298,-0.120672 -11.47884,-1.170399 -16.9765619,0.228516 a 1.9,1.9 0 0 0 -1.3730469,2.310547 1.9,1.9 0 0 0 2.3105469,1.373047 C 10.786711,42.0099 16.272404,42.883326 22.363817,43.011603 c 6.091414,0.128279 12.880277,-0.654965 19.416016,-5.574218 a 1.90019,1.90019 0 0 0 0.583984,-0.726563 c 0.642148,-1.400682 0.974325,-2.519115 0.996094,-3.882812 A 1.9,1.9 0 0 0 41.49077,30.896369 Z" fill="#008055"/>
</svg>
