<svg xmlns="http://www.w3.org/2000/svg" width="48" height="48">
	<path d="m 9.0908204,4.3808595 c -1.5038697,0 -2.975404,0.4953603 -4.0468751,1.5273438 -1.071471,1.0319834 -1.6503906,2.5470373 -1.6503906,4.1660157 v 27.298828 c 0,1.571048 0.3415291,3.107851 1.3320313,4.332031 0.9905023,1.22418 2.6197469,1.914062 4.3652344,1.914062 A 1.9,1.9 0 0 0 10.989258,41.71875 1.9,1.9 0 0 0 9.0908204,39.818359 c -0.8947326,0 -1.1647067,-0.196183 -1.4121094,-0.501953 C 7.4313082,39.010636 7.1943361,38.375198 7.1943361,37.373047 V 10.074219 c 0,-0.7853218 0.2132215,-1.166646 0.4863281,-1.4296876 C 7.9537707,8.3814898 8.3811601,8.1816408 9.0908204,8.1816408 H 38.930664 c 0.918915,0 1.274535,0.2082929 1.474609,0.4140625 0.200075,0.2057696 0.402344,0.5984064 0.402344,1.4785157 v 27.298828 c 0,0.901304 -0.257423,1.530049 -0.564453,1.892578 -0.307031,0.362528 -0.640825,0.552734 -1.3125,0.552734 H 14.237305 a 1.9,1.9 0 0 0 -1.898438,1.900391 1.9,1.9 0 0 0 1.898438,1.90039 h 24.693359 c 1.660075,0 3.214403,-0.719466 4.21289,-1.898437 0.998489,-1.178972 1.462891,-2.721961 1.462891,-4.347656 V 10.074219 c 0,-1.5351909 -0.420129,-3.0404478 -1.476562,-4.1269532 C 42.073449,4.8607604 40.539539,4.3808595 38.930664,4.3808595 Z M 23.801758,10.359375 c -1.040481,0.08492 -2.079764,0.562684 -2.88086,1.478516 -1.462629,1.672055 -1.056273,4.167431 0.611328,5.521484 h -1.765625 a 1.7,1.7 0 0 0 -1.701171,1.699219 1.7,1.7 0 0 0 1.701171,1.699219 h 2.4375 c 0.842735,0 1.618253,-0.05172 2.400391,-0.582032 0.781553,-0.529909 1.15374,-1.587287 1.154297,-2.326171 7.44e-4,-0.903975 -0.480906,-1.617316 -0.884766,-2.042969 -0.40386,-0.425653 -0.787155,-0.698668 -1.099609,-0.949219 a 1.70017,1.70017 0 0 0 -0.101563,-0.07422 c -0.30252,-0.207517 -0.315239,-0.5677 -0.193359,-0.707031 0.393568,-0.449936 1.000468,-0.257351 1.072266,-0.199219 0.355643,0.28798 0.280742,0.235136 0.373046,0.679688 A 1.7,1.7 0 0 0 26.93457,15.875 1.7,1.7 0 0 0 28.25293,13.865235 c -0.143655,-0.691849 -0.575745,-1.83184 -1.5625,-2.63086 -0.806792,-0.653234 -1.848191,-0.959917 -2.888672,-0.875 z m 3.658203,7.199219 a 1.5,1.5 0 0 0 -1.5,1.5 1.5,1.5 0 0 0 1.5,1.5 h 1.521484 a 1.5,1.5 0 0 0 1.5,-1.5 1.5,1.5 0 0 0 -1.5,-1.5 z M 24.057617,21.25 a 1.7,1.7 0 0 0 -1.701172,1.697265 l -0.0059,6.710938 c -0.02647,2.391556 0.864663,4.399496 2.273437,5.701172 1.408774,1.301676 3.249505,1.903935 5.056641,1.884765 1.807135,-0.01917 3.627861,-0.656897 5.03125,-1.953125 1.403389,-1.296227 2.31852,-3.274807 2.3125,-5.61914 a 1.7,1.7 0 0 0 -1.705078,-1.695313 1.7,1.7 0 0 0 -1.695313,1.705078 c 0.0039,1.507067 -0.496586,2.446262 -1.21875,3.113282 -0.722163,0.667019 -1.737164,1.03796 -2.761719,1.048828 -1.024554,0.01087 -2.011188,-0.33587 -2.710937,-0.982422 -0.699749,-0.646552 -1.199125,-1.586022 -1.181641,-3.166016 a 1.70017,1.70017 0 0 0 0,-0.01758 l 0.0059,-6.726562 A 1.7,1.7 0 0 0 24.057617,21.25 Z m -11.265625,6.726562 a 1.7,1.7 0 0 0 -1.705078,1.695313 c -0.006,2.344332 0.909111,4.322909 2.3125,5.61914 1.403389,1.296231 3.226055,1.93398 5.033203,1.953125 1.749673,0.01854 3.055378,-0.642008 4.060547,-1.308593 a 1.7,1.7 0 0 0 0.476562,-2.355469 1.7,1.7 0 0 0 -2.355468,-0.476563 c -0.894531,0.593215 -1.064478,0.751698 -2.146485,0.740235 -1.024541,-0.01085 -2.039558,-0.381809 -2.761718,-1.048828 -0.722161,-0.667019 -1.22262,-1.606214 -1.21875,-3.113282 a 1.7,1.7 0 0 0 -1.695313,-1.705078 z" fill="#008055"/>
</svg>
