<svg xmlns="http://www.w3.org/2000/svg" width="48" height="48">
	<path d="M 18.083423,2.009832 C 14.543295,2.012432 11.750061,3.7127304 9.7240484,5.8086602 7.8744602,7.722077 6.5796426,9.9362329 5.4896734,11.820379 4.9798595,11.953572 4.432626,12.047444 3.6498297,12.490301 c -0.5321934,0.301082 -1.1091198,0.747257 -1.5175784,1.4375 -0.408458,0.690243 -0.572397,1.591814 -0.449218,2.455078 a 1.80018,1.80018 0 0 0 0.011718,0.07031 c 0.295812,1.613904 1.6982325,2.808796 2.9628909,3.138672 1.2646584,0.329875 2.4515148,0.220712 3.5234375,0.138671 a 1.80018,1.80018 0 0 0 0.052734,-0.0059 C 14.750254,19.032162 19.22708,18.508971 24.33147,20.97077 c 5.326783,2.931137 6.793939,7.68496 7.337891,12.560547 a 1.80018,1.80018 0 0 0 0.002,0.002 c 0.119159,1.056889 -0.456513,1.646965 -0.923828,1.886718 a 1.80018,1.80018 0 0 0 -0.0098,0.0059 c -2.743839,1.429473 -4.314262,3.703574 -4.90625,4.708984 a 1.80018,1.80018 0 0 0 -0.002,0.0039 c -0.645337,1.101806 -0.877992,2.354051 -0.496094,3.5625 0.381898,1.208451 1.716313,2.289063 3.148438,2.289063 h 3.472656 c 1.027091,0 2.033918,-0.3456 2.771484,-0.962891 0.737567,-0.61729 1.187908,-1.435876 1.44336,-2.263672 l 0.654296,-1.902343 a 1.8,1.8 0 0 0 -1.117187,-2.28711 1.8,1.8 0 0 0 -2.287109,1.117188 l -0.671875,1.957031 a 1.80018,1.80018 0 0 0 -0.01758,0.05273 c -0.102608,0.332505 -0.229637,0.493469 -0.314453,0.564454 -0.08482,0.07098 -0.145919,0.123046 -0.460937,0.123046 h -3.128906 c 0.0073,-0.121465 -0.01921,-0.210157 0.109375,-0.429687 0.276089,-0.468203 1.717596,-2.42957 3.464843,-3.339844 l -0.0098,0.0039 c 1.717222,-0.88101 3.144702,-2.934281 2.857422,-5.490235 -0.602304,-5.399313 -2.614319,-11.730271 -9.214774,-15.341867 a 1.80018,1.80018 0 0 0 -0.07813,-0.04102 c -6.05096,-2.939804 -11.556374,-2.299676 -18.0488279,-1.609375 -1.0133774,0.07756 -1.9298272,0.0757 -2.3398438,-0.03125 -0.4100166,-0.10695 -0.2544903,0.105754 -0.3300781,-0.306641 6.74e-4,0.0035 -0.00171,-0.04998 -0.00586,-0.04297 -0.010977,0.01855 0.023328,-0.04053 0.1933594,-0.136718 0.3400687,-0.192382 1.0629676,-0.369375 1.8320368,-0.617182 A 1.80018,1.80018 0 0 0 8.2611578,14.195379 C 9.4181834,12.197538 10.717328,9.9602538 12.311939,8.3106133 13.90655,6.6609728 15.651218,5.6094414 18.091236,5.6094414 a 1.80018,1.80018 0 0 0 0.0078,0 c 4.078009,-0.017623 7.934627,1.0364815 11.537109,3.1054688 a 1.80018,1.80018 0 0 0 0.0098,0.00586 c 0.945947,0.5359887 1.719194,0.935919 2.644531,1.1074218 0.925338,0.1715028 1.85791,0.010838 2.705079,-0.2714844 2.20826,-0.7153011 3.377415,-1.2248877 5.49414,-0.8945312 -1.021103,0.8333886 -2.343784,1.9171476 -3.115234,2.7988276 -1.099571,1.257509 -1.468561,3.145444 -0.664063,5.050781 a 1.80018,1.80018 0 0 0 0.0039,0.0078 c 2.559188,5.993136 2.085842,10.327454 1.050781,16.699219 -0.134916,0.817656 -0.253414,1.836563 0.05469,2.960937 0.308101,1.124374 1.183521,2.29121 2.492188,2.933594 l -0.08008,-0.04102 c 0.799637,0.443336 2.240156,2.523466 2.386718,2.810547 0.154904,0.314929 0.110572,0.426969 0.09375,0.505859 h -4.458984 a 1.8,1.8 0 0 0 -1.798828,1.800782 1.8,1.8 0 0 0 1.798828,1.800781 h 4.736328 c 1.344206,0 2.550123,-0.900465 3.044922,-2.03125 0.494799,-1.130785 0.411716,-2.47056 -0.191406,-3.683594 a 1.80018,1.80018 0 0 0 -0.0059,-0.0078 c -0.448481,-0.889154 -1.574679,-3.077074 -3.859351,-4.343745 a 1.80018,1.80018 0 0 0 -0.08008,-0.04102 c -0.502203,-0.246516 -0.52566,-0.363046 -0.605469,-0.654297 -0.07981,-0.291251 -0.07416,-0.820484 0.02539,-1.423828 a 1.80018,1.80018 0 0 0 0,-0.0039 c 1.052149,-6.476297 1.59069,-11.936979 -1.291015,-18.689453 -0.261228,-0.61868 0.03607,-1.257757 0.05664,-1.28125 a 1.80018,1.80018 0 0 0 0.002,0 c -0.01626,0.01859 3.223022,-2.904451 3.398438,-3.03711 a 1.80018,1.80018 0 0 0 0.0059,-0.0059 C 44.092413,10.327479 44.582429,9.9083441 44.929126,9.1719414 45.275823,8.4355388 45.118134,7.1635153 44.587329,6.5508477 43.52572,5.3255125 42.522159,5.3643634 41.413501,5.1289727 a 1.80018,1.80018 0 0 0 -0.04883,-0.00781 c -3.17442,-0.5827338 -5.374289,0.3306613 -7.492187,1.015625 a 1.80018,1.80018 0 0 0 -0.01563,0.00586 c -0.569765,0.189875 -0.690165,0.1872534 -0.91015,0.1464812 -0.219985,-0.040772 -0.683707,-0.2242606 -1.52539,-0.7011719 l 0.0078,0.00586 C 27.319418,3.2335183 22.803583,1.9908727 18.091236,2.009832 Z M 16.013111,7.931707 A 1.8540324,1.8540324 0 0 0 14.157642,9.7871758 1.8540324,1.8540324 0 0 0 16.013111,11.640692 1.8540324,1.8540324 0 0 0 17.866626,9.7871758 1.8540324,1.8540324 0 0 0 16.013111,7.931707 Z" fill="#008055"/>
</svg>
