<svg xmlns="http://www.w3.org/2000/svg" width="48" height="48">
	<path d="M 23.425096,1.7791979 C 15.704756,1.8679487 6.998417,6.2013477 3.2649396,16.458886 a 2.0002,2.0002 0 0 0 -0.03125,0.0918 C 1.1925018,23.135128 1.5653413,29.864 5.4856427,36.195214 a 2,2 0 0 0 2.7539062,0.646484 2,2 0 0 0 0.6484376,-2.753906 C 5.5598391,28.712896 5.2757993,23.53099 7.0461896,17.785058 10.933529,7.1773427 20.684503,4.5931426 27.354784,6.203026 a 2.0002,2.0002 0 0 0 0.03516,0.00781 c 4.901607,1.0937077 6.747176,4.449502 6.310547,7.822266 -0.436629,3.372764 -3.350372,7.019035 -10.011719,7.984375 -7.966706,1.154507 -12.84953,5.974833 -13.642578,11.294922 -0.7927974,5.318401 2.809183,10.781278 9.621094,12.36914 8.704684,2.095018 20.505793,-1.750247 25.017578,-14.146484 a 2.0002,2.0002 0 0 0 0.01172,-0.03711 c 2.62517,-7.664218 1.01322,-15.490996 -2.777344,-20.566406 a 2,2 0 0 0 -2.798828,-0.404297 2,2 0 0 0 -0.40625,2.798828 c 2.908997,3.895028 4.375551,10.488706 2.203125,16.855469 C 37.0672,40.733731 27.450886,43.445533 20.595018,41.790917 a 2.0002,2.0002 0 0 0 -0.01563,-0.0039 C 15.302,40.559118 13.507091,37.217382 14.001268,33.902245 14.495445,30.587108 17.58414,26.944056 24.261034,25.976464 32.243286,24.819703 36.979591,19.87399 37.669237,14.546776 38.358429,9.2230725 34.812588,3.775828 28.272752,2.3104479 27.211904,2.0557314 26.099305,1.8893612 24.954393,1.8182604 24.450235,1.7869514 23.939785,1.7732812 23.425096,1.7791979 Z m 1.082031,8.5390631 a 3.6062164,3.6062164 0 0 0 -3.605468,3.605469 3.6062164,3.6062164 0 0 0 3.605468,3.605468 3.6062164,3.6062164 0 0 0 3.605469,-3.605468 3.6062164,3.6062164 0 0 0 -3.605469,-3.605469 z m 0,20.380859 a 3.6062164,3.6062164 0 0 0 -3.605468,3.605469 3.6062164,3.6062164 0 0 0 3.605468,3.607422 3.6062164,3.6062164 0 0 0 3.605469,-3.607422 3.6062164,3.6062164 0 0 0 -3.605469,-3.605469 z" fill="#008055"/>
</svg>
