<svg xmlns="http://www.w3.org/2000/svg" width="48" height="48">
	<path d="m 40.093761,1.6374015 c -0.197675,-4.7e-5 -0.396572,0.00894 -0.595703,0.027344 -3.387501,0.3130467 -6.034649,3.5342693 -5.332031,7.078125 a 1.90019,1.90019 0 0 0 0,0.00586 c 0.124083,0.6138837 0.236654,1.1419556 0.234374,1.5039065 -0.0023,0.359708 -0.02504,0.457925 -0.216796,0.658203 l -5.929688,5.888672 a 1.9,1.9 0 0 0 -0.0078,2.6875 1.9,1.9 0 0 0 2.6875,0.0078 l 5.955078,-5.916016 a 1.90019,1.90019 0 0 0 0.03125,-0.03125 c 0.948069,-0.985779 1.274971,-2.272429 1.28125,-3.269532 0.0063,-0.9939332 -0.211702,-1.7978097 -0.308594,-2.2753903 -0.272962,-1.3767642 0.689518,-2.435781 1.955078,-2.5527343 1.466899,-0.1355613 2.516237,0.5757141 2.773438,1.9746093 0.110942,0.6034123 -0.05485,1.0143482 -0.339844,1.4003907 -0.28499,0.3860425 -0.87513,0.6214728 -0.589844,0.5566406 a 1.9,1.9 0 0 0 -1.43164,2.273438 1.9,1.9 0 0 0 2.273437,1.431641 c 1.213326,-0.275733 2.026028,-0.951102 2.804687,-2.00586 0.778649,-1.054745 1.337097,-2.6144973 1.01952,-4.341785 C 45.795045,3.6801782 43.058877,1.6381067 40.093761,1.6374015 Z M 27.134777,7.1725577 c -0.213789,-0.0051 -0.428255,0.00293 -0.640626,0.025391 -1.698966,0.1796674 -3.146777,1.0999262 -4.363281,2.3164059 L 3.4902457,28.15498 a 2.0002,2.0002 0 0 0 0,0.002 c -1.2490502,1.249097 -1.9673107,2.854911 -1.9375,4.46875 0.029811,1.613839 0.7780153,3.123403 1.9375,4.283203 a 2.0002,2.0002 0 0 0 0,0.002 l 7.4257813,7.423828 c 1.24362,1.243601 2.78814,2.050706 4.429687,2.027344 1.641548,-0.02336 3.121618,-0.852375 4.308594,-2.039062 L 38.294933,25.680371 c 1.256345,-1.256321 2.085569,-2.803823 2.224609,-4.476563 0.139041,-1.672739 -0.499131,-3.417092 -1.777344,-4.695312 a 2,2 0 0 0 -2.830078,0 2,2 0 0 0 0,2.830078 c 0.542177,0.54218 0.666851,0.982717 0.621094,1.533203 -0.04576,0.550485 -0.349012,1.263089 -1.066406,1.980469 L 16.826183,41.492871 c -0.699584,0.699413 -1.188345,0.864177 -1.53711,0.86914 -0.348764,0.005 -0.815111,-0.12567 -1.544921,-0.855468 L 6.3183707,34.080761 C 5.7502256,33.512461 5.5590568,32.99885 5.5507926,32.551464 5.5425285,32.104078 5.6894911,31.613961 6.3183707,30.985058 L 24.958995,12.344433 c 0.793236,-0.79322 1.492604,-1.119061 1.955078,-1.167969 0.462474,-0.04891 0.86041,0.02252 1.574219,0.736329 a 2,2 0 0 0 2.828125,0 2,2 0 0 0 0,-2.8281259 C 30.137451,7.9057005 28.631293,7.208236 27.134777,7.1725577 Z" fill="#008055"/>
</svg>
