<svg xmlns="http://www.w3.org/2000/svg" width="48" height="48">
	<path d="m 22.604846,3.1073026 c -0.318267,0.011141 -0.636559,0.033826 -0.953125,0.068359 -2.532529,0.2762657 -5.044514,1.3422408 -6.773438,3.4238281 -1.728924,2.081587 -2.503796,5.1055093 -1.90039,8.6660163 a 2.0002,2.0002 0 0 0 0.0098,0.05859 c 1.197956,5.979705 2.738191,9.586992 5.347656,14.636719 a 2,2 0 0 0 2.695313,0.859375 2,2 0 0 0 0.859375,-2.695312 c -2.546071,-4.927048 -3.838724,-7.923355 -4.96875,-13.542969 -0.450493,-2.681375 0.104192,-4.306874 1.035156,-5.4277343 0.933167,-1.123514 2.411613,-1.814619 4.128906,-2.001954 1.717294,-0.187334 3.61134,0.16666 5.074219,0.945313 1.458398,0.776268 2.447559,1.885179 2.804688,3.2988283 0.654254,2.949653 0.247779,4.114439 -0.07031,5.888672 a 2,2 0 0 0 1.617188,2.322265 2,2 0 0 0 2.320312,-1.615234 c 0.2691,-1.500968 0.849221,-3.85658 0.03125,-7.505859 a 2.0002,2.0002 0 0 0 -0.0098,-0.04688 C 33.184244,7.7597651 31.280959,5.7588837 29.040393,4.566287 27.079896,3.5227649 24.832713,3.029314 22.604846,3.1073026 Z m 1.197265,17.5917964 a 2,2 0 0 0 -1.972656,1.908203 2,2 0 0 0 1.904297,2.089844 c 5.540927,0.258629 8.781556,0.638794 14.214844,2.470703 2.545112,0.950436 3.676638,2.243279 4.18164,3.609375 0.506411,1.369906 0.366328,2.995281 -0.330078,4.576172 -0.696406,1.580891 -1.951653,3.044307 -3.357422,3.921875 -1.400638,0.874366 -2.853809,1.175772 -4.255859,0.779297 -2.884785,-0.908647 -3.690233,-1.840857 -5.06836,-3.003906 a 2,2 0 0 0 -2.818359,0.238281 2,2 0 0 0 0.238281,2.818359 c 1.165306,0.983442 2.915028,2.66301 6.484375,3.779297 a 2.0002,2.0002 0 0 0 0.04688,0.01367 c 2.654898,0.760709 5.337139,0.111675 7.490235,-1.232422 2.153095,-1.344097 3.873387,-3.3698 4.90039,-5.701171 1.027004,-2.331373 1.360126,-5.04004 0.421875,-7.578126 -0.93825,-2.538085 -3.171447,-4.722782 -6.55664,-5.980468 a 2.0002,2.0002 0 0 0 -0.05469,-0.01953 C 33.493355,21.436199 29.599195,20.96803 23.921252,20.703006 a 2,2 0 0 0 -0.119141,-0.0039 z m -12.36914,1.853516 a 2,2 0 0 0 -0.63086,0.119141 c -1.4342787,0.517465 -3.7642215,1.191503 -6.5156248,3.724609 a 2.0002,2.0002 0 0 0 -0.035156,0.0332 c -1.9862454,1.918859 -2.7671581,4.566832 -2.6796875,7.103516 0.087471,2.536684 0.9847087,5.04061 2.4902344,7.095703 1.5055257,2.055093 3.682438,3.695856 6.3496089,4.152344 2.667172,0.456487 5.675249,-0.384681 8.457031,-2.6875 a 2.0002,2.0002 0 0 0 0.04688,-0.03711 c 4.579558,-4.027256 6.931513,-7.166474 10,-11.951172 a 2,2 0 0 0 -0.603516,-2.761718 2,2 0 0 0 -2.763672,0.603515 c -2.995149,4.670344 -4.942749,7.287281 -9.248047,11.078125 -2.093728,1.725922 -3.778263,2.058037 -5.21289,1.8125 -1.4395796,-0.246384 -2.7779416,-1.180674 -3.7988284,-2.574219 -1.0208869,-1.393543 -1.66164,-3.210974 -1.71875,-4.867187 -0.056864,-1.649076 0.4082401,-3.058384 1.4511719,-4.074219 2.2301639,-2.04523 3.4419015,-2.276504 5.1386715,-2.888672 a 2,2 0 0 0 1.203125,-2.560546 2,2 0 0 0 -1.929687,-1.320313 z" fill="#008055"/>
</svg>
