<svg xmlns="http://www.w3.org/2000/svg" width="48" height="48">
	<path d="M 24.071559,2.1123008 C 14.12667,2.1873508 8.0595568,7.9410898 4.8742943,13.543942 a 1.80018,1.80018 0 0 0 -0.029297,0.05078 c -0.6620401,1.257227 -0.6180435,2.728126 0.035156,3.896484 0.6531998,1.168358 1.9990186,2.020094 3.5136719,2.03125 a 1.80018,1.80018 0 0 0 0.013672,0 H 36.509059 a 1.8,1.8 0 0 0 1.800782,-1.800781 1.8,1.8 0 0 0 -1.800782,-1.798828 H 8.4211693 c -0.3181569,-0.0023 -0.3356298,-0.07516 -0.3984376,-0.1875 -0.061218,-0.109499 -0.080504,-0.273018 0.00781,-0.451172 2.7720373,-4.855991 7.4843273,-9.5040262 16.0644523,-9.5703132 8.992963,0.0041 16.067556,5.5767092 17.927734,14.4902352 0.142958,0.759808 0.0318,1.375029 -0.107422,1.623047 -0.139887,0.249206 -0.160955,0.356421 -0.851562,0.367187 l -34.0351555,0.02344 c -1.2695898,0 -2.5558584,0.399098 -3.515625,1.353515 -0.9597665,0.954418 -1.4157073,2.48542 -1.1347656,3.996094 a 1.80018,1.80018 0 0 0 0,0.002 C 4.249082,37.541294 12.484446,45.902803 24.087184,45.887692 a 1.80018,1.80018 0 0 0 0.002,0 c 8.493057,-0.01554 15.403842,-4.240552 18.55664,-11.408204 a 1.80018,1.80018 0 0 0 0.01758,-0.03906 c 0.520672,-1.266981 0.540288,-2.751933 -0.203125,-4.019531 -0.743413,-1.267599 -2.286503,-2.088576 -4.011719,-2.09961 a 1.80018,1.80018 0 0 0 -0.01172,0 H 11.022731 a 1.8,1.8 0 0 0 -1.8007805,1.800781 1.8,1.8 0 0 0 1.8007805,1.798829 h 27.402344 c 0.776464,0.005 0.849517,0.183611 0.929687,0.320312 0.07885,0.134452 0.121112,0.455136 -0.02148,0.816406 -2.606288,5.894587 -7.911331,9.216416 -15.25,9.230469 -9.895144,0.01289 -16.5735545,-6.897064 -18.166015,-15.380859 0,0 0,-0.002 0,-0.002 -0.1034889,-0.562565 -0.00109,-0.646149 0.1347656,-0.78125 0.1365185,-0.135758 0.4827424,-0.306641 0.9765625,-0.306641 a 1.80018,1.80018 0 0 0 0.00195,0 l 34.0624999,-0.02344 a 1.80018,1.80018 0 0 0 0.02734,0 c 1.682833,-0.02623 3.21613,-0.92498 3.933593,-2.203126 0.717463,-1.278144 0.765371,-2.711979 0.50586,-4.070312 a 1.80018,1.80018 0 0 0 -0.0059,-0.02734 C 43.380945,9.0246788 34.624651,2.1123008 24.085231,2.1123008 a 1.80018,1.80018 0 0 0 -0.01367,0 z" fill="#008055"/>
</svg>
