<svg xmlns="http://www.w3.org/2000/svg" width="48" height="48">
	<path d="M 34.047745,0.79740922 C 31.74519,0.71825922 28.879827,1.0684202 26.078995,2.066941 a 1.7,1.7 0 0 0 -1.029297,2.171875 1.7,1.7 0 0 0 2.171875,1.03125 C 29.56557,4.4344107 32.117799,4.127225 33.959854,4.1938941 a 1.70017,1.70017 0 0 0 0.05273,0.00195 c 3.698398,0.017437 5.622346,0.7789057 6.544922,1.5214844 0.922575,0.7425786 1.099226,1.5069852 1.115234,2.3808594 a 1.70017,1.70017 0 0 0 0,0.00195 c 0.03446,1.7805259 -1.2858,3.2291731 -3.164063,3.2539061 -1.080322,0.01434 -1.502103,-0.262492 -3.072265,-0.6875 -1.569,-0.424693 -3.939635,-0.8505696 -8.361328,-0.8886718 h -0.0078 c -2.323756,-0.028933 -3.847078,0.181531 -5.044922,1.0781248 -0.599713,0.448889 -1.055498,1.164889 -1.177734,1.875 -0.122237,0.710112 0.02587,1.333539 0.228515,1.84375 0.405298,1.020423 1.050491,1.744015 1.585938,2.302735 0.535447,0.558719 1.015625,0.945312 1.015625,0.945312 a 1.70017,1.70017 0 0 0 0.03515,0.0293 c 0,0 4.035978,3.087988 7.730469,5.927734 -3.294617,0.08326 -7.223023,0.262694 -10.662109,0.931641 -1.942953,0.377929 -3.701547,0.880988 -5.132813,1.746094 -1.431266,0.865106 -2.649078,2.424658 -2.498047,4.261719 a 1.70017,1.70017 0 0 0 0,0.002 c 0.162916,1.968432 1.498084,3.489093 3.095703,4.466797 1.59762,0.977703 3.551995,1.618432 5.710938,2.195312 4.317886,1.15376 9.491504,2.008505 13.648437,3.521484 a 1.70017,1.70017 0 0 0 0.0039,0 c 1.360672,0.493151 1.585559,0.7242 2.078125,1.027344 -0.512668,0.196616 -0.858345,0.379573 -1.658203,0.570313 -1.317308,0.314133 -2.905061,0.592314 -4.484376,0.839843 -8.855963,1.159706 -13.611122,0.171848 -19.621093,-1.9375 a 1.7,1.7 0 0 0 -2.1660164,1.041016 1.7,1.7 0 0 0 1.0410154,2.167969 c 6.25501,2.19535 11.914547,3.317827 21.208985,2.097656 a 1.70017,1.70017 0 0 0 0.04297,-0.0059 c 1.626193,-0.254583 3.288488,-0.541819 4.767578,-0.894532 1.47909,-0.352713 2.74505,-0.711651 3.804688,-1.398437 0.529817,-0.343393 1.09943,-0.812764 1.359374,-1.664063 0.259946,-0.851299 -0.07285,-1.845014 -0.554687,-2.427734 -0.963269,-1.164954 -2.353187,-1.775827 -4.658203,-2.611328 -4.607367,-1.676921 -9.883259,-2.528538 -13.935547,-3.611328 -2.026144,-0.541395 -3.736572,-1.152106 -4.8125,-1.810547 -1.075928,-0.658441 -1.425338,-1.157938 -1.482422,-1.847656 -0.03224,-0.39219 0.04328,-0.573088 0.869141,-1.072266 0.82586,-0.499178 2.289834,-0.983104 4.023437,-1.320313 3.467206,-0.674416 7.996463,-0.858116 11.419922,-0.921874 a 1.70017,1.70017 0 0 0 0.0059,0 c 0.852561,-0.01851 1.505531,-0.03607 2.109376,-0.126954 0.301921,-0.04544 0.592869,-0.0907 0.988281,-0.287109 0.395412,-0.196405 1.033714,-0.782827 1.115234,-1.552734 0.08152,-0.769907 -0.23811,-1.21892 -0.453125,-1.507813 -0.215015,-0.288893 -0.428037,-0.488484 -0.669922,-0.701172 -0.473322,-0.41619 -1.077552,-0.860869 -1.853515,-1.421875 l -0.04102,-0.03125 C 30.144635,18.492761 25.852397,15.210073 25.81337,15.180222 l -0.0039,-0.0039 c -0.0036,-0.0029 -0.313903,-0.254345 -0.695319,-0.65234 -0.316387,-0.330139 -0.566187,-0.710134 -0.726562,-0.992187 0.215662,-0.09185 0.866976,-0.376109 2.644531,-0.353516 a 1.70017,1.70017 0 0 0 0.0078,0 c 4.226384,0.03585 6.201228,0.415339 7.509766,0.769531 1.308538,0.354192 2.297229,0.829299 4.003906,0.806641 3.695055,-0.04866 6.586011,-3.124777 6.517578,-6.7167969 C 45.04308,6.5040182 44.468457,4.5016904 42.688358,3.0688941 40.911584,1.6387739 38.183896,0.81992422 34.047733,0.79740922 Z M 18.016495,4.8657691 c -0.703714,0.010801 -1.4397,0.062157 -2.171875,0.2070312 -0.732175,0.144874 -1.48265,0.3865253 -2.171875,0.8808594 -0.689226,0.4943341 -1.274597,1.2929815 -1.503906,2.21875 -0.509556,2.0571523 0.200785,4.0803803 1.273437,5.8964843 0.915912,1.550728 2.175979,2.971989 3.513672,4.253906 -2.974422,0.08008 -5.999022,0.583625 -8.5449224,1.833985 -2.8100267,1.380079 -5.1287419,3.78591 -5.4550781,7.103515 -0.2327163,2.365844 0.9972566,4.448153 2.6445312,6.123047 1.6472749,1.674894 3.801634,3.082572 6.0429693,4.289062 4.48267,2.412982 9.108292,3.951552 11.095703,4.330079 a 1.7,1.7 0 0 0 1.988281,-1.351563 1.7,1.7 0 0 0 -1.353515,-1.988281 C 22.280928,38.454471 17.371404,36.894213 13.254776,34.678269 11.196462,33.570297 9.2854956,32.282869 8.0243069,31.000535 6.7631182,29.7182 6.2414813,28.58324 6.33876,27.594285 6.5328238,25.62139 7.7695824,24.261239 9.9110256,23.209519 12.05002,22.159001 15.004062,21.62008 17.842667,21.639206 c 1.064576,0.01405 1.809291,0.02605 2.423828,-0.01563 0.307268,-0.02084 0.571299,-0.03214 0.970703,-0.169922 0.199702,-0.06888 0.455139,-0.171193 0.744141,-0.445307 0.289001,-0.274113 0.55644,-0.798741 0.574218,-1.261719 0.03556,-0.925954 -0.363632,-1.226414 -0.566406,-1.457031 C 21.786377,18.05898 21.601082,17.899014 21.393448,17.721238 20.983977,17.370649 20.484304,16.975854 19.889542,16.463425 18.497454,15.220716 17.192184,13.7324 16.370011,12.340378 15.547836,10.948357 15.283912,9.7306634 15.467667,8.988816 c 0.04273,-0.1725316 0.05613,-0.1792122 0.1875,-0.2734376 0.131373,-0.094225 0.421983,-0.2239802 0.849609,-0.3085937 0.853279,-0.1688365 2.156037,-0.1423188 3.375,-0.1054687 0.358559,0.017567 1.803427,0.2116863 3.513672,0.4570312 1.71878,0.2465693 3.796904,0.5420756 5.818359,0.7617188 2.021456,0.2196431 3.967422,0.3687281 5.550782,0.2949218 0.79168,-0.036903 1.483909,-0.1051128 2.193359,-0.3730468 0.354725,-0.1339672 0.73759,-0.3218432 1.097656,-0.7089844 0.360067,-0.3871412 0.626413,-1.0423396 0.59961,-1.6230469 A 1.7,1.7 0 0 0 36.87587,5.4907691 1.7,1.7 0 0 0 35.510635,6.2935034 c -0.182819,0.042191 -0.426261,0.102626 -0.90625,0.125 -1.218524,0.0568 -3.081808,-0.068115 -5.02539,-0.2792968 C 27.635413,5.9280248 25.591549,5.6372841 23.87587,5.3911597 22.160191,5.1450353 20.877334,4.9420028 20.016495,4.9028784 a 1.70017,1.70017 0 0 0 -0.02539,0 c -0.599453,-0.018155 -1.270895,-0.04791 -1.974609,-0.037109 z" fill="#008055"/>
</svg>
