<svg xmlns="http://www.w3.org/2000/svg" width="48" height="48">
	<path d="m 38.539297,0.63591009 c -0.270465,0.00885 -0.535118,0.031569 -0.792969,0.0625 -4.975508,0.2061681 -8.509485,4.71845701 -8.835938,9.36328091 -0.106967,1.026954 0.04622,1.954028 0.361328,2.623047 a 1.7,1.7 0 0 0 2.261719,0.814453 1.7,1.7 0 0 0 0.814453,-2.261718 c -0.08003,-0.169914 -0.128274,-0.216727 -0.06055,-0.833985 a 1.70017,1.70017 0 0 0 0.0059,-0.07422 c 0.200518,-3.0424259 2.735019,-6.1424839 5.619141,-6.2460929 a 1.70017,1.70017 0 0 0 0.162109,-0.01367 c 0.585598,-0.07798 1.368467,-8.1e-4 1.78125,0.177734 0.381657,0.165081 0.410675,0.199766 0.433594,0.548828 -0.243282,2.365048 -1.968575,4.616137 -3.994141,6.4882809 -1.267549,1.046182 -1.348838,1.236784 -3.054688,1.896485 a 1.7,1.7 0 0 0 -0.972656,2.197265 1.7,1.7 0 0 0 2.199219,0.972657 c 1.994515,-0.771337 2.7667,-1.435592 4.041016,-2.482422 a 1.70017,1.70017 0 0 0 0.07422,-0.06445 c 2.339632,-2.157409 4.851888,-5.0795549 5.134766,-8.9160159 a 1.70017,1.70017 0 0 0 0.002,-0.203125 C 43.640795,2.9893411 42.432732,1.6570501 41.205312,1.1261445 40.591602,0.86069159 39.971547,0.71790689 39.367422,0.65934759 39.086035,0.63207209 38.809761,0.62705819 38.539297,0.63591009 Z M 24.500234,3.0050511 c -1.451908,-0.0181 -2.761906,0.69403 -3.609375,1.660156 -0.968536,1.104144 -1.492414,2.537394 -1.427734,4.037109 a 1.70017,1.70017 0 0 0 0,0.0098 c 0.09322,1.9351449 0.251792,2.9430569 0.455078,3.9687499 a 1.7,1.7 0 0 0 1.998047,1.337891 1.7,1.7 0 0 0 1.287109,-1.148438 1.7,1.7 0 0 0 0.742188,1.626953 1.7,1.7 0 0 0 2.357421,-0.470703 c 0.886871,-1.329794 1.420211,-2.398045 1.886719,-4.2226559 a 1.70017,1.70017 0 0 0 0.0098,-0.04688 c 0.226332,-1.000133 0.369271,-2.246563 0.07422,-3.554688 -0.295053,-1.308124 -1.396584,-2.864108 -3.142578,-3.142578 -0.21223,-0.03374 -0.423444,-0.0521 -0.63086,-0.05469 z m -9.298828,3.068359 c -0.442987,-0.01325 -0.878395,0.05677 -1.259766,0.201172 -0.762742,0.288807 -1.331819,0.793488 -1.767578,1.353515 -0.871518,1.120059 -1.3384,2.5125669 -1.085937,4.0136719 a 1.70017,1.70017 0 0 0 0.0039,0.02344 c 0.364233,1.995243 1.227856,3.790748 2.964844,5.03125 a 1.7,1.7 0 0 0 2.371093,-0.394531 1.7,1.7 0 0 0 0.04688,-1.90625 1.7,1.7 0 0 0 1.029296,0.548828 1.7,1.7 0 0 0 1.917969,-1.447266 c 0.159866,-1.138631 0.197532,-2.419693 -0.169922,-3.7089839 -0.367454,-1.289292 -1.237391,-2.603715 -2.658203,-3.369141 a 1.70017,1.70017 0 0 0 -0.08594,-0.04297 c -0.412786,-0.19294 -0.863649,-0.289487 -1.306636,-0.302735 z m 9.070312,0.330078 c 0.100975,-0.0101 0.208309,-0.0048 0.324219,0.01367 0.323096,0.05153 0.242636,0.007 0.361328,0.533203 0.117567,0.521235 0.06307,1.417725 -0.07422,2.03711 -0.403532,1.5715429 -0.602678,1.9445189 -1.408203,3.1523429 a 1.7,1.7 0 0 0 -0.205079,0.425781 1.7,1.7 0 0 0 -0.01563,-0.544921 C 23.064941,11.066091 22.947196,10.366665 22.859602,8.5558301 v -0.002 c -0.02313,-0.549688 0.224434,-1.232139 0.587891,-1.646485 0.272879,-0.311085 0.521296,-0.473606 0.824218,-0.503906 z m -9.203124,3.121094 c 0.480229,0.296835 0.752174,0.6272919 0.914062,1.1953119 0.177019,0.621109 0.191043,1.472619 0.07422,2.304688 a 1.7,1.7 0 0 0 0.248047,1.148437 1.7,1.7 0 0 0 -0.271485,-0.242187 c -1.063361,-0.75942 -1.302186,-1.290375 -1.589843,-2.857422 -0.04335,-0.268597 0.13317,-0.996425 0.414062,-1.3574219 0.102901,-0.132246 0.159813,-0.158159 0.210938,-0.191406 z M 8.3498445,11.624191 c -0.162047,-0.0107 -0.323163,-0.0089 -0.482422,0.0039 -0.637038,0.05122 -1.237861,0.276954 -1.695313,0.580079 -0.914904,0.606249 -1.583861,1.472201 -1.806641,2.634765 a 1.70017,1.70017 0 0 0 -0.013671,0.08008 c -0.364992,2.556457 0.637299,5.298268 3.072265,6.546875 A 1.7,1.7 0 0 0 9.7131255,20.733562 1.7,1.7 0 0 0 8.9748445,18.4445 c -1.029129,-0.527719 -1.444177,-1.532984 -1.253907,-2.984375 0.017662,-0.03748 0.154076,-0.239719 0.28711,-0.363282 0.713328,0.61706 0.937959,1.282421 0.976562,2.384766 a 1.7,1.7 0 0 0 1.7578125,1.640625 1.7,1.7 0 0 0 1.638672,-1.757812 c -0.06095,-1.740472 -0.660745,-3.855004 -2.5449215,-5.22461 a 1.70017,1.70017 0 0 0 -0.058594,-0.03906 c -0.450161,-0.29962 -0.941595,-0.444462 -1.427734,-0.476563 z m 18.1152335,3.996094 c -2.946911,0.02154 -5.857366,0.600946 -8.587891,1.632812 a 2.0002,2.0002 0 0 0 -0.03516,0.01367 c -3.76825,1.505603 -7.768789,4.202971 -9.3105465,8.705078 a 2.0002,2.0002 0 0 0 -0.00195,0.0039 c -1.290034,3.791967 -0.333007,7.739655 1.353516,10.86914 a 2.0002,2.0002 0 0 0 0.00976,0.01758 c 2.8386075,5.14797 7.7892875,9.688007 14.0585935,10.429687 0,0 0.002,0 0.002,0 5.196344,0.628946 9.784201,-2.734548 12.076172,-6.921875 0.950895,-1.728131 1.55506,-4.078338 0.558594,-6.376953 a 2,2 0 0 0 -2.628907,-1.039063 2,2 0 0 0 -1.041015,2.628907 c 0.331774,0.765324 0.152418,1.870684 -0.394531,2.863281 a 2.0002,2.0002 0 0 0 -0.002,0.0039 c -1.628121,2.974504 -4.960962,5.252484 -8.091796,4.871094 a 2.0002,2.0002 0 0 0 -0.0078,-0.002 C 19.849534,42.779142 15.761433,39.214465 13.400625,34.936691 12.095618,32.509735 11.51224,29.637874 12.31664,27.268723 c 0.993492,-2.901107 3.877751,-5.032231 6.996094,-6.28125 2.628732,-0.990355 5.431225,-1.471326 8.203125,-1.34375 1.880666,0.135576 3.568263,0.509274 4.589844,1.435546 0.439497,0.450332 0.579647,0.899984 0.517578,1.525391 -0.06314,0.636196 -0.410678,1.413761 -1.027344,2.056641 0,0 0,0.002 0,0.002 -3.015069,3.11119 -5.386144,4.53235 -8.703125,6.230469 -1.794415,0.852809 -3.125516,1.087003 -4.017578,1.009765 -0.896465,-0.07762 -1.423466,-0.376252 -1.96875,-0.996094 a 2,2 0 0 0 -2.822266,-0.18164 2,2 0 0 0 -0.179687,2.824219 c 1.126526,1.280557 2.763728,2.176734 4.625,2.33789 1.861272,0.161156 3.876449,-0.325494 6.111328,-1.392578 a 2.0002,2.0002 0 0 0 0.04883,-0.02344 c 3.469831,-1.775109 6.435403,-3.574983 9.785157,-7.033203 a 2.0002,2.0002 0 0 0 0.0059,-0.0059 c 1.184404,-1.233537 1.958582,-2.776448 2.123047,-4.433594 0.164465,-1.657145 -0.36876,-3.465959 -1.681641,-4.777344 a 2.0002,2.0002 0 0 0 -0.05078,-0.04883 c -2.152067,-2.003587 -4.911171,-2.368445 -7.09375,-2.523437 a 2.0002,2.0002 0 0 0 -0.04688,-0.0039 c -0.422014,-0.01999 -0.844638,-0.02847 -1.265625,-0.02539 z" fill="#008055"/>
</svg>
