<svg xmlns="http://www.w3.org/2000/svg" width="48" height="48">
	<path d="M 24.41364,1.9171206 C 19.699373,1.8260663 14.929694,3.2333971 10.878483,6.2237612 9.7209951,7.0781507 8.6715872,8.0252781 7.7300461,9.0499331 1.1392562,16.222514 -0.07951059,27.130063 5.243718,35.678839 a 2,2 0 0 0 2.7558593,0.640625 2,2 0 0 0 0.640625,-2.753906 C 3.6401355,25.53576 5.6448963,15.058208 13.255437,9.4405581 c 7.61054,-5.6176504 18.211855,-4.4446728 24.412109,2.6992189 6.200252,7.143891 5.869085,17.804582 -0.763672,24.548828 -6.632757,6.744247 -17.288913,7.254148 -24.535156,1.173828 a 2,2 0 0 0 -2.8164059,0.246094 2,2 0 0 0 0.246093,2.818359 C 18.615066,48.324943 31.685217,47.699164 39.755437,39.493292 47.825657,31.287422 48.233013,18.208858 40.68903,9.5167301 36.44554,4.6274083 30.47484,2.0341904 24.41364,1.9171206 Z M 18.431218,12.42298 c -0.475928,0.02072 -0.951211,0.14088 -1.392578,0.384766 -1.17698,0.650361 -1.734375,1.987582 -1.734375,3.214843 v 10.802735 a 2,2 0 0 0 2,2 2,2 0 0 0 2,-2 V 16.86048 l 12.484375,7.259766 -12.615235,7.33789 a 2,2 0 0 0 -1.86914,-1.291016 2,2 0 0 0 -2,2 c 0,1.220955 0.52128,2.533836 1.675781,3.216797 1.154501,0.682962 2.618266,0.485967 3.677734,-0.162109 l 13.822266,-8.039062 -0.06055,0.0332 c 1.05157,-0.562981 2.087208,-1.563834 2.119141,-3.029297 0.03193,-1.465463 -1.0035,-2.547906 -2.085938,-3.142578 l -13.818359,-8.039063 0.03711,0.02344 c -0.52128,-0.31887 -1.134805,-0.536931 -1.765625,-0.59375 -0.157705,-0.01421 -0.315966,-0.01862 -0.474609,-0.01172 z" fill="#008055"/>
</svg>
