<svg xmlns="http://www.w3.org/2000/svg" width="48" height="48">
	<path d="M 5.6308596,3.139649 C 5.2699626,3.133739 4.6655137,3.227817 4.1777346,3.6884772 3.6899555,4.1491375 3.5603234,4.7645425 3.5507814,5.1318366 c -0.00954,0.3672938 0.049407,0.60538 0.109375,0.828125 0.1161659,0.4314861 0.2772994,0.8089043 0.4765626,1.2656249 1.5198746,3.7223385 1.8560971,7.3491975 3.4785152,10.5703125 0.81121,1.610558 2.031232,3.105435 3.8281248,4.146485 1.796894,1.04105 4.088923,1.634112 7.082032,1.818359 a 1.8,1.8 0 0 0 1.908203,-1.685547 1.8,1.8 0 0 0 -1.685547,-1.90625 c -2.629312,-0.161853 -4.344902,-0.672578 -5.5,-1.341797 -1.155098,-0.669219 -1.83311,-1.491177 -2.417969,-2.652344 -0.9833638,-1.95235 -1.5987198,-5.020681 -2.7578118,-8.4374997 3.2269918,1.2052773 6.1682048,1.8198139 8.0761718,2.8027347 1.140417,0.587504 1.972978,1.27745 2.669921,2.482422 0.696944,1.204971 1.246349,2.999697 1.458985,5.74414 a 1.8,1.8 0 0 0 1.933594,1.654297 1.8,1.8 0 0 0 1.654296,-1.933594 C 23.625356,15.391249 22.990056,13.046284 21.933594,11.219727 20.877131,9.3931705 19.387941,8.1594786 17.798828,7.3408209 14.620603,5.7035056 11.148313,5.3851019 7.7460942,3.8193366 7.2706732,3.5924755 6.8852323,3.4160179 6.449219,3.2822272 6.227305,3.2141329 5.9917566,3.1455588 5.6308596,3.139649 Z M 42.859375,3.5400397 c -0.367292,-0.00953 -0.607336,0.049403 -0.830078,0.109375 -0.432256,0.1163827 -0.807827,0.2766917 -1.265625,0.4765625 -3.722337,1.5198879 -7.347245,1.8580582 -10.56836,3.4804687 -1.610556,0.8112053 -3.105433,2.0292845 -4.146484,3.8261721 -1.041051,1.796887 -1.636065,4.090886 -1.820312,7.083984 a 1.8,1.8 0 0 0 1.685546,1.90625 1.8,1.8 0 0 0 1.908204,-1.685547 c 0.161852,-2.6293 0.67258,-4.344909 1.341796,-5.5 0.669219,-1.15509 1.489223,-1.831158 2.650391,-2.416015 1.953087,-0.9837313 5.022951,-1.5997147 8.441406,-2.759766 -1.205952,3.228008 -1.823475,6.169686 -2.80664,8.078125 -0.587504,1.140414 -1.275499,1.971031 -2.480469,2.667969 -1.20497,0.696938 -2.999696,1.246355 -5.744141,1.458984 a 1.8,1.8 0 0 0 -1.65625,1.933594 1.8,1.8 0 0 0 1.933594,1.65625 c 3.096056,-0.239871 5.442974,-0.875184 7.269531,-1.931641 1.826558,-1.056454 3.060248,-2.547607 3.878907,-4.136718 1.637316,-3.178223 1.953763,-6.650488 3.519531,-10.0527348 0.226824,-0.4752763 0.405297,-0.8589866 0.539062,-1.2949219 0.06809,-0.2219133 0.134716,-0.457462 0.140625,-0.8183594 0.0059,-0.3608973 -0.0862,-0.9653413 -0.546875,-1.453125 C 43.842056,3.6811623 43.226667,3.5495722 42.859375,3.5400397 Z M 18.617188,24.235352 a 1.8,1.8 0 0 0 -0.119141,0.0059 c -3.096058,0.239871 -5.442973,0.875175 -7.269531,1.93164 -1.8265578,1.056466 -3.0602498,2.547603 -3.8789068,4.136719 -1.6373132,3.178232 -1.9537683,6.648591 -3.5195309,10.050781 -0.2269326,0.475439 -0.4052706,0.860856 -0.5390625,1.296875 -0.068094,0.221914 -0.1347153,0.457462 -0.140625,0.81836 -0.00591,0.360897 0.086197,0.965341 0.546875,1.453125 0.4606785,0.487783 1.0760674,0.619373 1.4433594,0.628906 0.367292,0.0095 0.6073365,-0.05136 0.8300781,-0.111328 0.4322433,-0.116379 0.8078469,-0.274856 1.2656249,-0.474609 3.7223438,-1.519845 7.3472428,-1.858043 10.5683598,-3.480469 1.610558,-0.811213 3.105435,-2.031232 4.146484,-3.828125 1.041049,-1.796894 1.636065,-4.088933 1.820312,-7.082032 a 1.8,1.8 0 0 0 -1.685546,-1.908203 1.8,1.8 0 0 0 -1.908204,1.6875 c -0.161852,2.629302 -0.670624,4.342947 -1.339843,5.498047 -0.66922,1.155101 -1.491177,1.833107 -2.652344,2.417969 -1.952812,0.983601 -5.021612,1.6001 -8.4394528,2.759766 1.205835,-3.227808 1.821563,-6.169757 2.8046868,-8.078125 0.587506,-1.140422 1.275499,-1.972978 2.480469,-2.669922 1.20497,-0.696944 2.999699,-1.246356 5.744141,-1.458985 a 1.8,1.8 0 0 0 1.65625,-1.933593 1.8,1.8 0 0 0 -1.814453,-1.660157 z m 10.841796,0 a 1.8,1.8 0 0 0 -1.794922,1.689453 1.8,1.8 0 0 0 1.685547,1.90625 c 2.629301,0.161853 4.34491,0.67258 5.5,1.341797 1.155091,0.669218 1.831159,1.491176 2.416016,2.652344 0.983555,1.952738 1.600165,5.021775 2.759766,8.439453 -3.228009,-1.205952 -6.169687,-1.821522 -8.078125,-2.804687 -1.140414,-0.587504 -1.971031,-1.277452 -2.667969,-2.482422 -0.696938,-1.20497 -1.246355,-2.997743 -1.458985,-5.742188 a 1.8,1.8 0 0 0 -1.933593,-1.65625 1.8,1.8 0 0 0 -1.65625,1.933594 c 0.239871,3.096056 0.875185,5.44102 1.93164,7.267578 1.056456,1.826558 2.547608,3.060248 4.136719,3.878907 3.178223,1.637315 6.650487,1.955716 10.052734,3.521484 0.475361,0.22686 0.858911,0.40332 1.294922,0.537109 0.221914,0.06809 0.457462,0.136669 0.81836,0.142578 0.360897,0.0059 0.965341,-0.08815 1.453125,-0.548828 0.487783,-0.460678 0.619373,-1.076067 0.628906,-1.443359 0.0095,-0.367292 -0.0494,-0.605383 -0.109375,-0.828125 -0.116242,-0.431735 -0.277029,-0.808472 -0.476562,-1.265625 -1.519889,-3.722337 -1.858059,-7.347245 -3.480469,-10.56836 -0.811206,-1.610556 -2.029285,-3.107386 -3.826172,-4.148437 -1.796888,-1.041051 -4.090885,-1.634112 -7.083985,-1.818359 a 1.8,1.8 0 0 0 -0.111328,-0.0039 z" fill="#008055"/>
</svg>
