<svg xmlns="http://www.w3.org/2000/svg" width="48" height="48">
	<path d="m 8.7255859,4.1445312 c -1.4891993,0 -2.9287434,0.4886012 -3.9746094,1.4960937 C 3.7051105,6.6481174 3.1357421,8.125825 3.1357421,9.7304686 V 37.701172 c 0,1.572723 0.3421112,3.090469 1.3085938,4.285157 0.9664826,1.194687 2.5481846,1.86914 4.28125,1.86914 A 1.7,1.7 0 0 0 10.424805,42.154297 1.7,1.7 0 0 0 8.7255859,40.455079 c -0.9717246,0 -1.3350188,-0.234485 -1.6367188,-0.607422 C 6.7871672,39.474719 6.5361328,38.76495 6.5361328,37.701172 V 9.7304686 c 0,-0.8588564 0.2426197,-1.3231457 0.5742187,-1.6425781 C 7.4419505,7.7684581 7.9471252,7.5449217 8.7255859,7.5449217 H 39.295899 c 0.986095,0 1.425002,0.2319948 1.685546,0.5 0.260545,0.2680053 0.482422,0.741159 0.482422,1.6855469 V 37.701172 c 0,0.970579 -0.275339,1.675149 -0.634765,2.09961 -0.359426,0.424461 -0.781063,0.654297 -1.533203,0.654297 h -5.742188 v -10.75586 h 2.0625 c 0.631857,0 1.426819,-0.194176 1.986328,-0.785156 0.559509,-0.59098 0.691406,-1.330271 0.691406,-1.894531 v -3.453125 c 0,-0.652821 -0.190042,-1.475143 -0.800781,-2.06836 -0.610739,-0.593216 -1.413238,-0.761718 -2.083984,-0.761718 h -1.855469 v -1.867188 c 0,-0.595114 0.128171,-0.849269 0.173828,-0.916016 0.04566,-0.06675 0.0032,-0.04245 0.111328,-0.06445 0.216205,-0.04401 1.069347,0.125954 1.746094,0.625 a 1.70017,1.70017 0 0 0 2.708984,-1.36914 v -4.283207 a 1.70017,1.70017 0 0 0 -0.9375,-1.517578 c -1.829747,-0.918234 -4.293076,-1.982422 -7.3125,-1.982422 -1.682657,0 -3.731613,0.3498416 -5.425781,1.759766 -1.694168,1.409924 -2.792969,3.823778 -2.792969,7.158203 v 2.457032 h -1.347656 c -0.714188,0 -1.519096,0.29632 -2.029297,0.865234 -0.5102,0.568913 -0.6875,1.274994 -0.6875,1.892578 v 3.427734 c 0,0.637843 0.189594,1.364341 0.708985,1.931641 0.519391,0.5673 1.312588,0.845703 2.007812,0.845703 h 1.347656 v 10.75586 h -8.324218 a 1.7,1.7 0 0 0 -1.699219,1.701171 1.7,1.7 0 0 0 1.699219,1.699219 h 8.396484 c 0.751073,0 1.63145,-0.18071 2.330078,-0.822266 0.698628,-0.641555 0.998047,-1.613346 0.998047,-2.517578 V 29.056641 c 0,-0.646134 -0.202153,-1.383019 -0.730469,-1.941406 -0.528315,-0.558387 -1.307711,-0.816406 -1.986328,-0.816406 h -1.347656 v -2.164063 h 1.347656 c 0.738507,0 1.528551,-0.321244 2.023438,-0.871094 0.494887,-0.54985 0.693359,-1.234944 0.693359,-1.867187 v -3.117188 c 0,-2.644175 0.72252,-3.840996 1.568359,-4.544922 0.84584,-0.703926 2.055088,-0.972656 3.25,-0.972656 1.83422,0 3.404936,0.568984 4.851563,1.226562 v 0.667969 c -0.562984,-0.102065 -1.125098,-0.223637 -1.734375,-0.09961 -0.8357,0.170119 -1.698689,0.684878 -2.240234,1.476562 -0.541546,0.791685 -0.765626,1.763402 -0.765626,2.835938 v 2.566406 c 0,1.383113 1.283113,2.699219 2.751954,2.699219 h 1.988281 v 2.164063 h -1.974609 c -0.62397,0 -1.355631,0.18393 -1.927735,0.716796 -0.572104,0.532867 -0.837891,1.337134 -0.837891,2.041016 v 11.458984 c 0,0.953463 0.390772,1.909075 1.058594,2.507813 0.667823,0.598737 1.497098,0.832031 2.263672,0.832031 a 1.70017,1.70017 0 0 0 0.002,0 h 5.816407 c 1.636639,0 3.148929,-0.702433 4.126953,-1.857422 0.978024,-1.154989 1.441406,-2.678254 1.441406,-4.296875 V 9.7304686 c 0,-1.5304121 -0.416664,-2.9985927 -1.443359,-4.0546874 -1.026696,-1.0560948 -2.521476,-1.53125 -4.125,-1.53125 z" fill="#008055"/>
</svg>
