<svg xmlns="http://www.w3.org/2000/svg" width="48" height="48">
	<path d="m 25.251933,2.1008907 c -0.411031,0.00239 -0.804781,0.065084 -1.1875,0.1367188 C 14.22336,3.9031061 6.4137215,10.012797 3.5058389,16.380188 a 1.60016,1.60016 0 0 0 -0.00391,0.0078 C -0.4956636,25.26404 2.2731603,35.82548 11.761694,43.548145 a 1.60016,1.60016 0 0 0 2.386719,-2.056641 c -1.914153,-3.234515 -3.220018,-7.370725 -3.320312,-10.375 -0.05015,-1.502138 0.219704,-2.679584 0.611328,-3.302734 0.391624,-0.62315 0.741664,-0.88072 1.80664,-0.847657 a 1.6,1.6 0 0 0 1.648438,-1.548828 1.6,1.6 0 0 0 -1.550781,-1.648437 c -1.959524,-0.06084 -3.6996558,0.88804 -4.6132815,2.341797 -0.9136257,1.453756 -1.1646863,3.222444 -1.1015625,5.113281 0.043037,1.289158 0.4295304,2.695638 0.7578125,4.080078 C 4.4343744,29.566643 3.9053426,23.29569 6.4179483,17.710266 8.720691,12.66795 15.794969,6.8744638 24.617167,5.3880001 a 1.60016,1.60016 0 0 0 0.0293,-0.00586 c 0.427436,-0.08016 0.581335,-0.049743 0.642578,-0.048828 l 0.589844,2.9140625 c -0.05873,0.024036 -0.06772,0.039326 -0.341797,0.1035156 a 1.60016,1.60016 0 0 0 -0.02539,0.00586 c -2.584059,0.6527676 -5.807754,1.4881262 -8.695313,2.8808599 -2.887559,1.392733 -5.571269,3.41362 -6.5625,6.572265 a 1.60016,1.60016 0 0 0 -0.03711,0.132813 c -0.2855624,1.289371 0.163726,2.642334 0.947266,3.460937 0.78354,0.818604 1.746637,1.253336 2.712891,1.591797 1.932507,0.676923 4.118919,0.981001 4.912109,1.251953 a 1.6,1.6 0 0 0 2.03125,-0.996093 1.6,1.6 0 0 0 -0.998046,-2.03125 C 18.332925,20.711284 16.38258,20.482768 14.935527,19.975891 14.212,19.722452 13.675471,19.400606 13.474589,19.190735 13.294827,19.002929 13.29754,18.972262 13.355448,18.692688 c 0.629898,-1.888945 2.395939,-3.39076 4.84961,-4.574219 2.489036,-1.200517 5.530072,-2.011571 8.089844,-2.658203 0.61033,-0.143378 1.323311,-0.329869 1.982422,-0.970703 0.668537,-0.6500003 0.951613,-1.8034251 0.759765,-2.7753911 a 1.60016,1.60016 0 0 0 -0.002,-0.00781 L 28.414042,4.6458126 C 28.213389,3.6466853 27.455004,2.6647696 26.544902,2.3255001 26.091278,2.1563973 25.662964,2.0984964 25.251933,2.1008907 Z m 10.005859,1.9941406 a 1.60016,1.60016 0 0 0 -1.40625,2.4140625 c 1.914177,3.2345156 3.220004,7.3687722 3.320313,10.3730472 0.05015,1.502137 -0.219709,2.681539 -0.611328,3.304688 -0.39162,0.623146 -0.739712,0.878766 -1.804688,0.845703 a 1.6,1.6 0 0 0 -1.65039,1.550781 1.6,1.6 0 0 0 1.550781,1.648437 c 1.959524,0.06084 3.69966,-0.888038 4.613281,-2.341797 0.913621,-1.453758 1.164695,-3.222443 1.101563,-5.113281 -0.04308,-1.290351 -0.428978,-2.698226 -0.757813,-4.083984 3.956333,5.740873 4.48375,12.01703 1.966797,17.605469 -2.306102,5.04065 -9.379178,10.828685 -18.197266,12.314453 a 1.60016,1.60016 0 0 0 -0.0293,0.0039 c -0.427348,0.08014 -0.581256,0.04975 -0.642579,0.04883 L 22.12107,39.753231 c 0.05814,-0.0237 0.06677,-0.0391 0.341796,-0.103516 a 1.60016,1.60016 0 0 0 0.02734,-0.0078 c 2.584098,-0.652769 5.807762,-1.486172 8.695313,-2.878907 2.88755,-1.392734 5.571265,-3.413628 6.5625,-6.572265 a 1.60016,1.60016 0 0 0 0.03516,-0.132813 c 0.285589,-1.289367 -0.161777,-2.644279 -0.945313,-3.46289 -0.783535,-0.818612 -1.748591,-1.251382 -2.714843,-1.589844 -1.932504,-0.676924 -4.118929,-0.982956 -4.91211,-1.253906 a 1.6,1.6 0 0 0 -2.03125,0.998047 1.6,1.6 0 0 0 0.998047,2.03125 c 1.489319,0.50875 3.439673,0.737264 4.886719,1.24414 0.723523,0.253438 1.260067,0.57334 1.460937,0.783203 0.179822,0.187872 0.177151,0.220084 0.119141,0.5 -0.629904,1.888953 -2.39595,3.388808 -4.849609,4.572266 -2.480647,1.196475 -5.508104,2.006775 -8.0625,2.652344 0,0 -0.002,0 -0.002,0 -0.615669,0.144218 -1.337866,0.327079 -2.00586,0.976562 -0.668519,0.649994 -0.95355,1.805377 -0.761719,2.777344 a 1.60016,1.60016 0 0 0 0.002,0.0078 l 0.621093,3.0625 c 0.201172,0.99855 0.959555,1.979286 1.869141,2.31836 0.905107,0.337404 1.710773,0.230647 2.474609,0.08789 9.844054,-1.663957 17.655983,-7.773825 20.564453,-14.142578 a 1.60016,1.60016 0 0 0 0.0039,-0.0078 C 48.495673,22.736559 45.726888,12.175117 36.238261,4.4524532 A 1.60016,1.60016 0 0 0 35.257792,4.0950313 Z" fill="#008055"/>
</svg>
