<svg xmlns="http://www.w3.org/2000/svg" width="48" height="48">
	<path d="m 6.28711,1.3115028 c -0.9142017,0 -1.8749024,0.2804437 -2.546875,0.96875 C 3.0682623,2.9685591 2.8203131,3.9066994 2.8203131,4.7782997 L 2.802735,12.332987 a 1.60016,1.60016 0 0 0 0,0.0039 c 0,0.880008 0.2507308,1.770865 0.8417968,2.496094 0.5910661,0.725229 1.5585271,1.214064 2.578125,1.244141 a 1.60016,1.60016 0 0 0 0.046875,0 H 20.181641 c 1.009434,0 2.05,-0.422479 2.669922,-1.185547 0.619922,-0.763069 0.806641,-1.68067 0.806641,-2.554688 V 4.7783035 c 0,-0.9443877 -0.352351,-1.8913349 -1.021485,-2.5332031 -0.669134,-0.6418683 -1.57484,-0.9335938 -2.455078,-0.9335938 z m 21.539062,0 c -0.914201,0 -1.874902,0.2804437 -2.546875,0.96875 -0.671972,0.6883063 -0.919922,1.6264466 -0.919922,2.4980469 l -0.01758,7.5546873 a 1.60016,1.60016 0 0 0 0,0.0039 c 0,0.880003 0.250731,1.770862 0.841797,2.496094 0.591066,0.725232 1.558525,1.214064 2.578125,1.244141 a 1.60016,1.60016 0 0 0 0.04883,0 h 13.910157 c 1.009433,0 2.05,-0.422479 2.669921,-1.185547 0.619922,-0.763069 0.806641,-1.68067 0.806641,-2.554688 V 4.7783035 c 0,-0.9443832 -0.350397,-1.8913322 -1.019531,-2.5332031 C 43.508603,1.6032295 42.600945,1.3115066 41.720706,1.3115066 Z M 6.28711,4.5107216 h 13.894531 c 0.214122,0 0.244603,0.049113 0.240234,0.044922 -0.0044,-0.00419 0.03516,-0.016846 0.03516,0.2226563 v 7.5585941 c 0,0.392982 -0.09774,0.546832 -0.08984,0.537109 0.0079,-0.0097 0.110349,0.0039 -0.185547,0.0039 H 6.3164068 C 6.1305347,12.872426 6.166212,12.862069 6.1250006,12.811503 6.084107,12.761327 6.0031809,12.598925 6.0019537,12.3408 v -0.0039 l 0.017578,-7.5546877 a 1.60016,1.60016 0 0 0 0,-0.00391 c 0,-0.1461928 0.012594,-0.21142 0.021484,-0.2480469 0.035039,-0.00815 0.095092,-0.019531 0.2460938,-0.019531 z m 21.539062,0 h 13.894532 c 0.21413,0 0.244605,0.049115 0.240234,0.044922 -0.0044,-0.00419 0.03711,-0.016851 0.03711,0.2226563 v 7.5585941 c 0,0.392982 -0.0997,0.546832 -0.0918,0.537109 0.0079,-0.0097 0.110349,0.0039 -0.185546,0.0039 h -13.86328 c -0.18588,-0.0055 -0.15215,-0.01584 -0.193359,-0.06641 -0.04089,-0.05017 -0.119864,-0.21258 -0.121094,-0.470703 v -0.0039 l 0.01563,-7.5546875 a 1.60016,1.60016 0 0 0 0,-0.00391 c 0,-0.1461928 0.01259,-0.21142 0.02148,-0.2480469 0.03504,-0.00815 0.09509,-0.019531 0.246094,-0.019531 z M 4.6484381,16.676737 a 1.6,1.6 0 0 0 -1.5996094,1.59961 1.6,1.6 0 0 0 1.5996094,1.599609 h 5.3867189 c 0.21413,0 0.246559,0.04912 0.242187,0.04492 -0.0044,-0.0042 0.03516,-0.01686 0.03516,0.222656 v 7.560547 c 0,0.392975 -0.09969,0.544877 -0.0918,0.535156 0.0079,-0.0097 0.110344,0.0039 -0.185547,0.0039 H 4.6640631 a 1.6,1.6 0 0 0 -1.5996094,1.59961 1.6,1.6 0 0 0 1.5996094,1.601562 h 5.3710939 c 1.009438,0 2.050003,-0.424432 2.669921,-1.1875 0.619921,-0.763068 0.806641,-1.67872 0.806641,-2.552734 v -7.560547 c 0,-0.944385 -0.350397,-1.889376 -1.019531,-2.53125 -0.669134,-0.641866 -1.576791,-0.935539 -2.457031,-0.935539 z m 12.9316399,0 c -0.914205,0 -1.874906,0.282395 -2.546874,0.970703 -0.67197,0.688309 -0.919922,1.624494 -0.919922,2.496094 l -0.01758,7.556641 a 1.60016,1.60016 0 0 0 0,0.0039 c 0,0.88001 0.250728,1.768911 0.841796,2.49414 0.591069,0.72523 1.558532,1.214064 2.578125,1.244141 a 1.60016,1.60016 0 0 0 0.04688,0.002 h 13.91211 c 1.00944,0 2.050002,-0.424429 2.669922,-1.1875 0.619919,-0.763071 0.80664,-1.678724 0.80664,-2.552734 v -7.560547 c 0,-0.944385 -0.35235,-1.889376 -1.021484,-2.53125 C 33.260554,16.97041 32.35485,16.676737 31.47461,16.676737 Z m 21.414063,0 c -0.914206,0 -1.874905,0.282395 -2.546875,0.970703 -0.67197,0.688309 -0.919922,1.624494 -0.919922,2.496094 l -0.01758,7.556641 a 1.60016,1.60016 0 0 0 0,0.0039 c 0,0.88001 0.250729,1.768911 0.841797,2.49414 0.591068,0.72523 1.558531,1.214064 2.578125,1.244141 a 1.60016,1.60016 0 0 0 0.04688,0.002 H 43.5 A 1.6,1.6 0 0 0 45.09961,29.842753 1.6,1.6 0 0 0 43.5,28.243143 h -4.482422 c -0.167512,-0.0057 -0.145589,-0.01738 -0.185546,-0.06641 -0.04105,-0.05037 -0.122427,-0.210806 -0.123047,-0.470703 v -0.002 l 0.01758,-7.556641 a 1.60016,1.60016 0 0 0 0,-0.0039 c 0,-0.146193 0.01259,-0.21142 0.02148,-0.248047 0.03504,-0.0081 0.09509,-0.01953 0.246094,-0.01953 H 43.5 A 1.6,1.6 0 0 0 45.09961,18.276347 1.6,1.6 0 0 0 43.5,16.676737 Z M 17.580078,19.875956 H 31.47461 c 0.21413,0 0.244606,0.04912 0.240234,0.04492 -0.0044,-0.0042 0.03516,-0.01686 0.03516,0.222656 v 7.560547 c 0,0.392979 -0.09774,0.544879 -0.08984,0.535156 0.0079,-0.0097 0.110352,0.0039 -0.185547,0.0039 H 17.603516 c -0.167512,-0.0057 -0.14559,-0.01738 -0.185547,-0.06641 -0.04105,-0.05037 -0.122427,-0.210806 -0.123047,-0.470703 v -0.002 l 0.01758,-7.556641 a 1.60016,1.60016 0 0 0 0,-0.0039 c 0,-0.146193 0.0126,-0.21142 0.02148,-0.248047 0.03504,-0.0081 0.09509,-0.01953 0.246093,-0.01953 z M 6.28711,31.920878 c -0.9142061,0 -1.8749053,0.282394 -2.546875,0.970703 -0.6719698,0.688309 -0.9199219,1.624493 -0.9199219,2.496094 l -0.017578,7.55664 a 1.60016,1.60016 0 0 0 0,0.0039 c 0,0.88001 0.2507286,1.770862 0.8417968,2.496094 0.5910682,0.725232 1.5585244,1.212119 2.578125,1.242188 a 1.60016,1.60016 0 0 0 0.046875,0.002 H 20.181641 c 1.009438,0 2.050002,-0.424432 2.669922,-1.1875 0.619919,-0.763068 0.806641,-1.67872 0.806641,-2.552735 v -7.560546 c 0,-0.944386 -0.352351,-1.889377 -1.021485,-2.53125 -0.669134,-0.641874 -1.574838,-0.935547 -2.455078,-0.935547 z m 21.539062,0 c -0.914206,0 -1.874905,0.282394 -2.546875,0.970703 -0.67197,0.688309 -0.919922,1.624493 -0.919922,2.496094 l -0.01758,7.55664 a 1.60016,1.60016 0 0 0 0,0.0039 c 0,0.880006 0.250729,1.77086 0.841797,2.496094 0.591068,0.725235 1.558523,1.212119 2.578125,1.242188 a 1.60016,1.60016 0 0 0 0.04883,0.002 h 13.910157 c 1.009438,0 2.050002,-0.424432 2.669921,-1.1875 0.61992,-0.763068 0.806641,-1.67872 0.806641,-2.552735 v -7.560546 c 0,-0.944386 -0.350397,-1.889377 -1.019531,-2.53125 -0.669134,-0.641874 -1.576792,-0.935547 -2.457031,-0.935547 z M 6.28711,35.122049 h 13.894531 c 0.21413,0 0.244606,0.04716 0.240234,0.04297 -0.0044,-0.0042 0.03516,-0.01686 0.03516,0.222657 v 7.560546 c 0,0.392976 -0.09774,0.544877 -0.08984,0.535157 0.0079,-0.0097 0.110345,0.0039 -0.185547,0.0039 H 6.3105474 c -0.1675051,-0.0057 -0.1455895,-0.01738 -0.1855468,-0.06641 -0.04089,-0.05017 -0.1218153,-0.21063 -0.1230469,-0.46875 v -0.0039 l 0.017578,-7.55664 a 1.60016,1.60016 0 0 0 0,-0.0039 c 0,-0.145051 0.012604,-0.20911 0.021484,-0.246094 0.035039,-0.0077 0.095094,-0.01953 0.2460938,-0.01953 z m 21.539062,0 h 13.894532 c 0.21413,0 0.244606,0.04716 0.240234,0.04297 -0.0044,-0.0042 0.03711,-0.01686 0.03711,0.222657 v 7.560546 c 0,0.392976 -0.09969,0.544877 -0.0918,0.535157 0.0079,-0.0097 0.110345,0.0039 -0.185546,0.0039 H 27.851563 c -0.16767,-0.0057 -0.147534,-0.01737 -0.1875,-0.06641 -0.04089,-0.05017 -0.11986,-0.210633 -0.121094,-0.46875 v -0.0039 l 0.01563,-7.55664 a 1.60016,1.60016 0 0 0 0,-0.0039 c 0,-0.145051 0.0126,-0.20911 0.02148,-0.246094 0.03504,-0.0077 0.0951,-0.01953 0.246094,-0.01953 z" fill="#008055"/>
</svg>
