<svg xmlns="http://www.w3.org/2000/svg" width="48" height="48">
	<path d="m 24.884608,2.1079683 c -0.347657,0.016764 -0.741884,0.1044917 -1.179688,0.3515624 -0.875607,0.4941416 -1.25454,1.5242266 -1.318359,2.2402344 -0.06382,0.7160078 0.0183,1.4010086 0.166016,2.3007813 l -0.0059,-0.025391 c 1.415672,9.4455586 1.970491,18.5087536 -0.476522,29.2929686 a 1.9,1.9 0 0 0 1.43164,2.273437 1.9,1.9 0 0 0 2.273438,-1.433593 C 28.352439,25.749983 27.75393,16.068543 26.306483,6.4107026 a 1.90019,1.90019 0 0 0 -0.0059,-0.025391 c -0.01942,-0.1182714 -0.0051,-0.1061763 -0.01953,-0.2109375 0.04496,0.00963 0.05489,0.013662 0.101563,0.023437 1.554151,0.345061 3.483896,1.8372575 5.521484,3.4726563 2.040067,1.6373887 4.25093,3.5273437 7.224609,3.5273437 0.280083,0 0.25517,0.01657 0.394532,0.03711 -0.03383,0.155285 -0.06593,0.225792 -0.07813,0.955078 -0.144277,7.25764 -1.167723,12.666725 -3.248047,16.896484 -2.080955,4.231041 -5.211079,7.385871 -9.980469,10.195313 -1.058746,0.621304 -1.717683,0.815401 -2.255859,0.8125 -0.538738,-0.0029 -1.163873,-0.189242 -2.208985,-0.875 a 1.90019,1.90019 0 0 0 -0.07422,-0.04688 C 15.953273,37.788153 12.855921,33.815307 11.009608,29.27789 9.1632951,24.740473 8.6258981,19.571554 8.4060922,14.008359 a 1.90019,1.90019 0 0 0 0,-0.0059 c -0.022454,-0.535333 0.079223,-0.608174 0.140625,-0.673828 0.061402,-0.06565 0.2120459,-0.15242 0.4433594,-0.185547 2.4146184,-0.346348 4.4174064,-1.702584 6.2128904,-3.03125 1.795485,-1.3286646 3.430803,-2.6986269 4.53711,-3.2949214 A 1.9,1.9 0 0 0 20.511561,4.2427339 1.9,1.9 0 0 0 17.937342,3.4712495 C 16.194089,4.410855 14.58618,5.841377 12.943202,7.057187 11.300223,8.2729969 9.6686252,9.206754 8.4510141,9.3814057 7.5490476,9.5105787 6.5528595,9.8973218 5.7713266,10.732968 c -0.7803538,0.834386 -1.2166837,2.087533 -1.1621094,3.423828 5.17e-5,0.0013 -5.17e-5,0.0026 0,0.0039 2.8e-5,6.73e-4 -2.82e-5,0.0013 0,0.002 0.2255952,5.704385 0.7540973,11.326991 2.8789063,16.548828 2.1204242,5.211062 5.8942285,9.954214 12.2148435,13.703125 1.377132,0.897988 2.76711,1.472539 4.238281,1.480469 1.48349,0.008 2.843631,-0.540734 4.201172,-1.33789 a 1.90019,1.90019 0 0 0 0.002,-0.002 c 5.230325,-3.080958 9.035556,-6.855706 11.462891,-11.791015 2.427335,-4.935309 3.48666,-10.928219 3.636719,-18.505859 a 1.90019,1.90019 0 0 0 0,-0.0059 c 0.0084,-0.503264 0.395228,-1.299376 -0.10161,-2.708939 -0.248418,-0.704781 -0.928067,-1.428103 -1.660156,-1.7480467 -0.732089,-0.3199437 -1.470238,-0.3964844 -2.353516,-0.3964844 -1.129189,0 -2.857189,-1.0973482 -4.845703,-2.6933594 C 32.294531,5.1096133 30.10825,3.1248868 27.195155,2.4829683 a 1.90019,1.90019 0 0 0 -0.02148,-0.00391 C 26.715946,2.3834973 26.28851,2.267588 25.785003,2.1860896 25.53325,2.1453406 25.232269,2.0912006 24.884613,2.1079646 Z" fill="#008055"/>
</svg>
