<svg xmlns="http://www.w3.org/2000/svg" width="48" height="48">
	<path d="m 33.603277,2.7588223 c -0.383836,0.010198 -0.822126,0.1407395 -1.314453,0.5527344 -0.492326,0.4119949 -0.736954,1.1257618 -0.736328,1.609375 6.26e-4,0.4836131 0.124592,0.8131216 0.25586,1.1074218 0.262534,0.5886009 0.623694,1.0719509 1.126953,1.6582032 1.803484,2.100917 2.719152,7.6390313 2.5625,10.5332023 a 1.8,1.8 0 0 0 1.701171,1.896485 1.8,1.8 0 0 0 1.894532,-1.701172 C 39.225691,15.973043 38.9604,12.581934 37.884527,9.5029629 41.855474,13.412735 43.718448,18.91774 43.224371,24.627963 42.354028,34.501535 34.029799,41.581934 25.259527,41.641635 15.109445,41.710295 6.090105,35.349912 4.8435119,24.118197 4.286624,17.520862 5.4057454,11.870638 8.2380431,8.1631192 8.3060846,8.579318 8.3519744,9.0298215 8.4138243,9.4424161 A 1.8,1.8 0 0 0 10.460699,10.956088 1.8,1.8 0 0 0 11.974371,8.9092129 C 11.800109,7.7467252 11.612733,6.821362 11.564215,5.9951504 11.534178,5.4837014 11.516406,5.0402635 11.310309,4.4580411 11.20726,4.1669298 11.048534,3.8035172 10.656012,3.4521817 10.263489,3.1008462 9.596384,2.883517 9.0915587,2.9189785 8.0819081,2.9899017 7.6997058,3.4271375 7.2497619,3.8252286 6.7998178,4.2233196 6.3419517,4.7190908 5.7810119,5.3701504 a 1.80018,1.80018 0 0 0 -0.017578,0.021484 C 1.7884845,10.153133 0.62478199,17.019603 1.2575743,24.452181 a 1.80018,1.80018 0 0 0 0.00391,0.04492 C 2.697249,37.519206 13.55933,45.320549 25.282965,45.241244 35.962212,45.168549 45.778662,36.657666 46.810309,24.940463 a 1.80018,1.80018 0 0 0 0.002,-0.002 C 47.537158,16.560631 43.982514,8.0911392 36.273199,3.6435879 a 1.80018,1.80018 0 0 0 -0.04102,-0.023437 C 35.660425,3.310038 35.14559,3.0762816 34.593512,2.9306973 34.317473,2.8579051 33.987113,2.7486243 33.603277,2.7588223 Z m -13.40625,0.4550781 c -0.18847,0.01335 -0.365582,0.039938 -0.529297,0.064453 -0.654854,0.098059 -1.294,0.3011356 -2.029296,0.5742188 a 1.80018,1.80018 0 0 0 -0.002,0 c -1.534208,0.5704223 -2.988072,1.392881 -4.259766,2.4804688 a 1.8,1.8 0 0 0 -0.197266,2.5390624 1.8,1.8 0 0 0 2.53711,0.1972657 c 0.669681,-0.57273 1.496567,-0.9495292 2.308593,-1.3378907 -0.551733,0.9709743 -1.124046,1.9402098 -1.392578,3.0917965 a 1.80018,1.80018 0 0 0 -0.04688,0.371094 c -0.01872,0.911183 0.494161,1.966374 1.207032,2.466797 0.71287,0.500423 1.401301,0.600095 2.013671,0.65625 1.185588,0.108719 2.285118,-0.02015 2.957032,-0.002 -0.0068,0.05435 0.0045,-3.62e-4 -0.02734,0.08594 -0.206923,0.561516 -0.900093,1.323981 -1.97461,1.347656 h 0.03906 c -1.999,0 -3.732161,0.420072 -4.851562,1.703125 -1.119402,1.283054 -1.296458,2.891756 -1.314454,4.625 a 1.80018,1.80018 0 0 0 0,0.04102 c 0.03193,2.523431 0.759463,5.085536 2.314454,7.162109 1.55499,2.076573 4.010142,3.611835 7.083984,3.878907 4.183885,0.363455 8.621048,-1.128275 11.066406,-5.220704 a 1.80018,1.80018 0 0 0 0.02344,-0.04102 c 2.23165,-3.961844 1.248008,-9.527542 -2.888672,-12.492188 a 1.8,1.8 0 0 0 -2.509766,0.416016 1.8,1.8 0 0 0 0.414063,2.511719 c 2.547704,1.82587 3.093738,5.553489 1.853515,7.779297 -1.691794,2.80903 -4.453967,3.738442 -7.648437,3.460937 -2.104258,-0.182829 -3.500023,-1.09752 -4.513672,-2.451172 -1.009615,-1.348264 -1.564267,-3.18772 -1.591797,-5.027344 0.01855,-1.408447 0.251802,-2.080167 0.423828,-2.277343 0.173506,-0.198872 0.609122,-0.46875 2.138672,-0.46875 a 1.80018,1.80018 0 0 0 0.03906,0 c 2.642564,-0.05823 4.5659,-1.783116 5.273437,-3.703125 0.353769,-0.960005 0.464336,-2.070733 -0.07031,-3.136719 -0.534648,-1.065985 -1.817935,-1.76838 -3.068359,-1.791015 -0.961999,-0.03824 -1.791302,0.02354 -2.419922,0.01367 0.25888,-0.686031 0.48821,-1.3765172 0.929688,-2.0371096 0.518016,-0.7741263 0.886068,-1.4035535 1.117187,-2.0976563 0.11556,-0.3470514 0.206465,-0.72146 0.175782,-1.2011718 C 22.746367,4.9157843 22.516419,4.2895714 22.077838,3.875965 21.639256,3.4623586 21.20163,3.2876537 20.790728,3.2294806 20.585277,3.200394 20.385449,3.2005056 20.196978,3.2138556 Z" fill="#008055"/>
</svg>
