<svg xmlns="http://www.w3.org/2000/svg" width="48" height="48">
	<path d="m 37.933594,1.1210756 c -4.65548,0 -8.229286,2.4446567 -10.828125,5.7636719 -2.598839,3.3190155 -4.427134,7.5282505 -6.132812,11.6406245 -1.705678,4.112375 -3.291667,8.138799 -5.117188,10.976563 -1.82552,2.837764 -3.615996,4.330078 -6.1308592,4.330078 a 1.70017,1.70017 0 0 0 -0.046875,0.002 c -2.0524693,0.05685 -3.7207031,1.933975 -3.7207031,4.111328 v 7.232422 a 1.7,1.7 0 0 0 1.7011719,1.701172 1.7,1.7 0 0 0 1.6992187,-1.701172 v -7.232422 c 0,-0.690846 0.2135918,-0.707338 0.4140625,-0.71289 h -0.046875 c 3.9487822,0 6.8701262,-2.594926 8.9902342,-5.890625 2.120109,-3.295699 3.712171,-7.448097 5.398438,-11.513672 1.686267,-4.065576 3.464214,-8.033209 5.667969,-10.8476563 2.203754,-2.8144474 4.630249,-4.4589845 8.152343,-4.4589845 0.638562,0 0.728437,0.072817 0.714844,0.046875 -5.35e-4,0.033718 -0.0059,0.00437 -0.0059,0.0625 V 9.70506 c 0,0.676557 -0.142241,0.922555 -0.03711,0.775391 0.105131,-0.147165 0.344422,-0.121094 -0.220703,-0.121094 -2.31862,0 -4.243818,1.186586 -5.611328,2.570312 -1.36751,1.383727 -2.278639,2.920818 -2.52539,4.507813 a 1.70017,1.70017 0 0 0 -0.0098,0.06445 c -0.09997,0.851498 -0.338086,1.636549 0.06445,2.769531 0.201269,0.566491 0.706489,1.176573 1.298828,1.476563 0.59234,0.299989 1.179371,0.367187 1.787109,0.367187 h 2.376954 c 0.593127,0 0.613078,0.12498 0.443359,-0.03516 -0.169719,-0.160136 -0.101538,-0.275516 -0.101563,0.171875 v 4.996094 c 0,0.439435 -0.03637,0.269955 0.08398,0.169922 0.119419,-0.09926 0.0045,0.0139 -0.498047,0.02734 l -4.832031,-0.02539 a 1.70017,1.70017 0 0 0 -0.0078,0 c -2.650818,0 -4.16726,1.846594 -4.701172,2.978515 l 0.01367,-0.0293 c -2.848698,5.758092 -7.248732,10.351021 -12.886719,12.248047 a 1.7,1.7 0 0 0 -1.068359,2.152344 1.7,1.7 0 0 0 2.152344,1.068359 c 6.697653,-2.253574 11.701987,-7.598628 14.849609,-13.960937 a 1.70017,1.70017 0 0 0 0.01367,-0.0293 c 0.130788,-0.277278 0.558891,-1.027344 1.626953,-1.027344 l 4.867188,0.02344 a 1.70017,1.70017 0 0 0 0.04688,0 c 0.851016,-0.01985 1.77928,-0.132291 2.597656,-0.8125 0.818376,-0.680209 1.140625,-1.781939 1.140625,-2.783203 v -4.996094 c 4.6e-5,-0.856409 -0.16717,-1.891895 -0.964844,-2.644531 -0.797673,-0.752636 -1.797648,-0.892578 -2.77539,-0.892578 h -2.220704 c 0.0086,-0.163401 0.01127,-0.242882 0.06445,-0.757813 0.06767,-0.428016 0.661147,-1.706867 1.582031,-2.638672 0.922188,-0.933123 2.06851,-1.558594 3.193359,-1.558594 1.102905,0 2.321258,-0.370972 2.988282,-1.304687 0.667023,-0.933715 0.669921,-1.863357 0.669921,-2.7500001 V 4.6308301 C 42.04282,3.7235617 41.747708,2.5704714 40.861256,1.8866895 39.974803,1.2029077 39.001683,1.1210645 37.933521,1.1210645 Z" fill="#008055"/>
</svg>
