<svg xmlns="http://www.w3.org/2000/svg" width="48" height="48">
	<path d="M 12.490234 12.169922 C 8.3593938 12.036597 4.2755871 14.127149 2.0351562 17.966797 C -1.2236526 23.551737 0.59421114 30.820286 6.0917969 34.158203 A 2.0134485 1.9866415 85.00045 0 0 6.2011719 34.220703 A 2.0134485 1.9866415 85.00045 0 0 6.3144531 34.291016 C 11.883183 37.505348 19.018851 35.540932 22.216797 29.919922 C 25.414744 24.298913 23.517869 17.049761 17.984375 13.773438 C 16.255158 12.749586 14.367889 12.230524 12.490234 12.169922 z M 36.302734 12.169922 C 32.171894 12.036597 28.088087 14.12715 25.847656 17.966797 C 22.588847 23.551738 24.406711 30.82224 29.904297 34.160156 A 2.0134485 1.9866415 85.00045 0 0 30.015625 34.222656 A 2.0134485 1.9866415 85.00045 0 0 30.126953 34.292969 C 35.695683 37.507301 42.83135 35.540931 46.029297 29.919922 C 49.227243 24.298912 47.330369 17.051715 41.796875 13.775391 C 40.067658 12.75154 38.180389 12.230524 36.302734 12.169922 z M 12.351562 16.175781 C 13.589194 16.218965 14.836335 16.567148 15.986328 17.248047 C 19.666305 19.426922 20.904174 24.15373 18.771484 27.902344 C 16.638795 31.650958 11.978841 32.930642 8.2753906 30.792969 A 2.0134485 1.9866415 85.00045 0 0 8.1972656 30.75 A 2.0134485 1.9866415 85.00045 0 0 8.1289062 30.707031 C 4.4728486 28.487217 3.2837305 23.748038 5.4570312 20.023438 C 6.9511761 17.462775 9.628773 16.080777 12.351562 16.175781 z M 36.164062 16.175781 C 37.401694 16.218965 38.648835 16.567148 39.798828 17.248047 C 43.478805 19.426923 44.718627 24.153731 42.585938 27.902344 C 40.453249 31.650958 35.791342 32.930642 32.087891 30.792969 A 2.0134485 1.9866415 85.00045 0 0 32.011719 30.751953 A 2.0134485 1.9866415 85.00045 0 0 31.941406 30.707031 C 28.285348 28.487218 27.096231 23.748038 29.269531 20.023438 C 30.763676 17.462775 33.441273 16.080777 36.164062 16.175781 z " fill="#008055"/>
</svg>
