<svg xmlns="http://www.w3.org/2000/svg" width="48" height="48">
	<path d="M 32.97773,2.1093743 A 1.7,1.7 0 0 0 31.278511,3.808593 1.7,1.7 0 0 0 32.97773,5.5097649 c 2.696501,0 4.727372,0.2717737 6.142578,0.7382813 1.415206,0.4665076 2.186456,1.0661939 2.69336,1.8320312 1.012216,1.5292736 1.028641,4.4558626 -0.002,8.9355466 -1.323524,5.101892 -2.951637,7.992886 -4.986328,9.707032 -2.014707,1.697311 -4.640479,2.421131 -8.40625,2.757812 l 0.935547,-3.488281 a 1.70017,1.70017 0 0 0 0.02148,-0.09375 c 0.07879,-0.378893 0.130033,-0.416335 0.210937,-0.484375 0.0809,-0.06804 0.335695,-0.214689 0.962891,-0.314453 a 1.70017,1.70017 0 0 0 0.0078,-0.002 c 1.733519,-0.282167 3.071429,-1.327061 3.949219,-2.509766 0.87779,-1.182705 1.374128,-2.514723 1.617187,-3.740234 l -0.01758,0.08008 1.181641,-4.738281 a 1.70017,1.70017 0 0 0 0.0059,-0.02539 c 0.202548,-0.871507 0.270509,-1.871165 -0.359351,-2.781206 -0.629859,-0.910042 -1.725759,-1.203125 -2.617187,-1.203125 h -3.453125 a 1.7,1.7 0 0 0 -1.699219,1.701172 1.7,1.7 0 0 0 1.699219,1.699219 h 3.072265 l -1.128906,4.52539 a 1.70017,1.70017 0 0 0 -0.01953,0.08008 c -0.156741,0.79029 -0.517889,1.70963 -1.011719,2.375 -0.49383,0.66537 -1.039864,1.063508 -1.765625,1.181641 h 0.0059 c -0.977184,0.155435 -1.878026,0.448677 -2.617187,1.070313 -0.739161,0.621635 -1.170528,1.523924 -1.351563,2.394531 l 0.02149,-0.09375 -1.015625,3.789062 c -0.09785,0.349403 -0.197059,0.711308 -0.230469,1.167969 -0.03341,0.456661 0.01183,1.094741 0.410156,1.683594 0.398322,0.588852 1.052531,0.919436 1.609375,1.048828 0.556845,0.129392 1.094161,0.133066 1.722657,0.08984 a 1.70017,1.70017 0 0 0 0.0293,-0.002 c 4.137695,-0.356865 7.631323,-1.21743 10.421874,-3.568359 2.790552,-2.350929 4.678962,-6.004072 6.095704,-11.480469 a 1.70017,1.70017 0 0 0 0.01172,-0.04492 C 46.22243,13.033288 46.607337,9.1608996 44.649605,6.2031243 43.670739,4.7242367 42.121988,3.6581167 40.184761,3.0195305 38.247535,2.3809444 35.893889,2.1093743 32.97773,2.1093743 Z m -6.513672,0.2734375 c -0.348982,-0.00368 -0.643994,0.015625 -0.984375,0.015625 a 1.70017,1.70017 0 0 0 -0.05664,0 C 16.711883,2.6892232 11.014201,7.7204479 9.6144488,13.253906 l 0.00391,-0.01953 -7.5195312,28.34961 a 1.70017,1.70017 0 0 0 -0.013672,0.05664 c -0.1796944,0.787076 -0.1851195,1.624328 0.1992187,2.5 0.3843383,0.875674 1.4829717,1.75 2.6660156,1.75 h 4.6406248 c 1.9839813,0 3.5760593,-1.50237 3.9296883,-3.332031 l -0.0293,0.125 2.492187,-9.162109 a 1.70017,1.70017 0 0 0 0.002,-0.0039 c 0.109901,-0.407774 0.205566,-0.4855 0.208985,-0.488282 0.0034,-0.0028 0.03587,-0.06445 0.441406,-0.06445 h 3.792969 a 1.7,1.7 0 0 0 1.699219,-1.699219 1.7,1.7 0 0 0 -1.699219,-1.699218 h -3.792969 c -0.909274,0 -1.855922,0.230628 -2.587891,0.826172 -0.732016,0.595532 -1.125631,1.423497 -1.345751,2.240223 l -2.492187,9.158203 a 1.70017,1.70017 0 0 0 -0.02734,0.123047 c -0.07289,0.377139 -0.3047572,0.576172 -0.5917972,0.576172 h -4.191406 c 0.00107,-0.04055 -0.00737,-0.0506 0,-0.08594 L 12.905464,14.105468 a 1.70017,1.70017 0 0 0 0.0039,-0.01758 c 0.96042,-3.796675 5.030215,-7.8191511 12.212897,-8.2207012 L 24.04023,9.6777337 a 1.70017,1.70017 0 0 0 -0.01758,0.068359 c -0.04113,0.1719025 -0.448836,0.6269533 -0.857422,0.6269533 a 1.70017,1.70017 0 0 0 -0.01953,0 c -1.664591,0.01956 -2.958542,1.006235 -3.908203,2.169922 -0.949662,1.163686 -1.62546,2.605292 -1.927735,4.138671 l 0.0293,-0.11914 -1.277344,4.667968 c 0,0 0,0.002 0,0.002 -0.237545,0.809652 -0.402386,1.792711 0.199219,2.777344 0.602037,0.985341 1.776601,1.337891 2.783203,1.337891 h 3.441406 a 1.7,1.7 0 0 0 1.701172,-1.699219 1.7,1.7 0 0 0 -1.701172,-1.701172 h -3.09375 l 1.226563,-4.488281 a 1.70017,1.70017 0 0 0 0.02734,-0.119141 c 0.188085,-0.954121 0.671193,-1.970299 1.224609,-2.648437 0.55222,-0.676674 1.104137,-0.916469 1.3125,-0.919922 h 0.002 c 2.080882,-0.009 3.707227,-1.406562 4.144531,-3.234375 l -0.01758,0.07031 1.257813,-4.427734 -0.0039,0.00586 C 28.716382,5.6631573 28.830407,5.2607919 28.856636,4.7441399 28.882866,4.227488 28.655886,3.2786255 27.979683,2.8027336 27.30348,2.3268418 26.81304,2.386494 26.464058,2.3828118 Z" fill="#008055"/>
</svg>
