<svg xmlns="http://www.w3.org/2000/svg" width="48" height="48">
	<path d="M 4.1113279,4.4222425 A 1.7,1.7 0 0 0 2.503906,5.5902113 1.7,1.7 0 0 0 3.5859374,7.7366957 L 19.679687,13.035524 a 1.70017,1.70017 0 0 0 0.07617,0.02344 c 2.798992,0.777515 4.874716,1.876895 6.234375,3.251953 1.357458,1.372831 2.092994,3.012317 2.201172,5.3125 v 7.748046 l -2.914061,-1.011717 c -0.591791,-0.21912 -0.626953,-0.441904 -0.626953,-0.94336 v -3.816406 a 1.70017,1.70017 0 0 0 -0.0059,-0.150391 c -0.172424,-1.936788 -1.072888,-3.544171 -2.343709,-4.591797 -1.270821,-1.047623 -2.792399,-1.6208 -4.408203,-2.128906 A 1.70017,1.70017 0 0 0 15.68164,18.35193 v 14.259766 c 0,0.05344 0.01446,-0.01391 0.01172,0.02734 -0.0074,-0.002 -0.002,-0.0018 -0.0098,-0.0039 h -0.0039 l -3.271484,-0.921875 a 1.70017,1.70017 0 0 0 -0.02734,-0.0059 c -0.248855,-0.06578 -0.289081,-0.117859 -0.373047,-0.251953 -0.08396,-0.134095 -0.171875,-0.40419 -0.171875,-0.78711 V 18.381227 c 0,-1.619203 -0.995348,-3.431002 -2.7636716,-3.982422 a 1.70017,1.70017 0 0 0 -0.019531,-0.0059 l -2.8320085,-0.841796 0.011719,0.002 C 5.8117311,13.424775 5.8183592,13.288573 5.8183592,12.910524 V 10.375368 A 1.7,1.7 0 0 0 4.1191404,8.6761488 1.7,1.7 0 0 0 2.4179685,10.375368 v 2.535156 c 0,1.520551 0.9645562,3.327858 2.8222657,3.894531 a 1.70017,1.70017 0 0 0 0.00977,0.0039 l 2.8105467,0.837891 c 0.3721352,0.116099 0.375,0.128257 0.375,0.734375 V 30.66834 c 0,0.87688 0.1851491,1.781339 0.6914063,2.589844 0.5055371,0.807355 1.3688478,1.465632 2.3808588,1.734375 0.0014,3.83e-4 0.0025,0.0016 0.0039,0.002 l 3.251953,0.914063 a 1.70017,1.70017 0 0 0 0.002,0.002 c 1.076148,0.300324 2.339864,0.304645 3.257812,-0.498047 0.917949,-0.802692 1.058594,-1.878222 1.058594,-2.800781 V 20.994508 c 0.308293,0.167466 0.836916,0.308758 1.054688,0.488281 0.668019,0.550696 1.007019,1.085065 1.115234,2.244141 v 3.689453 c 0,1.584745 0.962719,3.436333 2.84375,4.132813 a 1.70017,1.70017 0 0 0 0.0332,0.01172 l 3.238281,1.123046 c 0.967552,0.368695 2.214454,0.521329 3.173828,-0.261718 0.959374,-0.783047 1.050781,-1.827142 1.050781,-2.697266 v -8.169922 a 1.70017,1.70017 0 0 0 -0.002,-0.07813 C 31.451033,18.465895 30.334306,15.868207 28.408203,13.920289 26.498248,11.988705 23.880597,10.687815 20.74414,9.8070081 L 4.6503904,4.5062269 A 1.7,1.7 0 0 0 4.1113279,4.4222425 Z M 32.955077,13.465211 a 1.7,1.7 0 0 0 -1.675781,1.363282 1.7,1.7 0 0 0 1.328125,2.001953 c 3.174616,0.641004 5.561953,1.81013 7.132813,3.451172 1.57086,1.641041 2.441406,3.782538 2.441406,6.845703 v 12.86914 l -3.246094,-1.240234 a 1.70017,1.70017 0 0 0 -0.06055,-0.02344 C 38.269659,38.52732 38.177731,38.275448 38.177731,37.498413 v -9.078126 c 0.04668,-2.777909 -1.303903,-4.839223 -2.923828,-5.861328 a 1.7,1.7 0 0 0 -2.34375,0.53125 1.7,1.7 0 0 0 0.529297,2.34375 c 0.757094,0.477695 1.367808,1.149397 1.33789,2.929688 a 1.70017,1.70017 0 0 0 0,0.0293 v 9.105469 c 0,1.752364 0.997377,3.773345 3.00586,4.455078 l -0.06055,-0.02148 3.59375,1.373047 c 1.025563,0.392698 2.37036,0.436333 3.269531,-0.375 0.899171,-0.811333 0.996094,-1.821322 0.996094,-2.685547 V 27.127321 c 0,-3.749736 -1.191391,-6.903857 -3.386719,-9.197266 -2.195322,-2.293408 -5.278403,-3.697545 -8.914057,-4.431641 a 1.7,1.7 0 0 0 -0.326172,-0.0332 z" fill="#008055"/>
</svg>
