<svg xmlns="http://www.w3.org/2000/svg" width="48" height="48">
	<path d="M 23.261655,2.0004618 C 19.289564,2.1308593 15.070766,3.3548381 11.099546,6.2113993 a 1.90019,1.90019 0 0 0 -0.0098,0.00781 C 6.1649294,9.8090875 3.5047757,14.759731 2.5097018,19.582493 1.527804,24.341394 2.0917298,28.976684 3.7108737,32.451633 a 1.9,1.9 0 0 0 0.056641,0.134766 c 0.00148,0.0031 0.00242,0.0067 0.00391,0.0098 a 1.9,1.9 0 0 0 0.015625,0.0293 1.9,1.9 0 0 0 0.00977,0.02148 c 0.00135,0.0026 0.00255,0.0052 0.00391,0.0078 a 1.9,1.9 0 0 0 0.060547,0.105469 c 1.7371538,3.251961 5.1116339,4.731445 8.1933593,4.119141 3.11379,-0.618675 5.882396,-3.136365 7.095703,-6.908203 l 0.0039,-0.0098 1.339844,-4.064453 h 5.21875 l -1.787109,5.072266 c -0.923172,2.478656 -3.034001,2.703925 -3.158203,2.666015 a 1.9,1.9 0 0 0 -2.371094,1.261719 1.9,1.9 0 0 0 1.261718,2.371094 c 2.88984,0.882065 6.338514,-0.95724 7.832032,-4.978516 a 1.90019,1.90019 0 0 0 0.0098,-0.03125 l 2.242188,-6.361328 h 5.642578 a 1.9,1.9 0 0 0 1.900391,-1.900391 1.9,1.9 0 0 0 -1.900391,-1.898437 h -4.304687 l 1.082031,-3.070313 a 1.90019,1.90019 0 0 0 0.02148,-0.06641 c 1.004928,-3.225219 2.905807,-4.738935 4.439453,-5.023437 1.531919,-0.284184 3.015673,0.305033 4.128906,2.851562 0.0013,0.0029 0.0027,0.0049 0.0039,0.0078 2.64963,6.173791 2.151983,15.952675 -6.119141,21.986329 -8.09804,5.754053 -17.499381,3.208646 -21.878906,-0.484375 a 1.9,1.9 0 0 0 -2.677735,0.226562 1.9,1.9 0 0 0 0.228516,2.677734 c 5.737295,4.837959 16.908588,7.525888 26.544922,0.667969 a 1.90019,1.90019 0 0 0 0.01758,-0.01367 c 9.752849,-7.10926 10.663147,-18.775675 7.416016,-26.458984 a 1.9,1.9 0 0 0 -0.03516,-0.08984 1.9,1.9 0 0 0 -0.0078,-0.02148 1.9,1.9 0 0 0 -0.0039,-0.0078 1.9,1.9 0 0 0 -0.0625,-0.130859 c -1.650228,-3.644895 -5.021877,-5.5457481 -8.248094,-4.947259 -3.265476,0.605771 -6.059195,3.414178 -7.373047,7.630859 l 0.02148,-0.06641 -1.527343,4.332032 h -5.306641 l 1.988281,-6.033203 c 0.654226,-1.906894 1.648109,-2.3551 2.056641,-2.417969 a 1.9,1.9 0 0 0 1.539062,2.037109 1.9,1.9 0 0 0 2.21875,-1.515625 C 29.77318,12.968018 29.40989,11.643693 28.556577,10.826634 27.703264,10.009575 26.539274,9.721965 25.441343,9.8383524 23.245479,10.071127 21.165148,11.838454 20.138608,14.83054 a 1.90019,1.90019 0 0 0 -0.0078,0.02148 l -2.386719,7.246094 h -5.128906 a 1.9,1.9 0 0 0 -1.900391,1.898437 1.9,1.9 0 0 0 1.900391,1.900391 h 3.876953 l -0.951172,2.884766 a 1.90019,1.90019 0 0 0 -0.0039,0.01562 c -0.85253,2.66286 -2.621313,4.0373 -4.222657,4.355469 C 9.7196993,33.469652 8.2488614,32.969929 7.1874362,30.930149 5.9690278,28.364755 5.4040765,24.364451 6.232358,20.350071 7.0627062,16.325676 9.2104784,12.295863 13.318296,9.2973368 l 0.0039,-0.00195 C 20.972065,3.7953379 29.640966,5.6989399 34.107358,8.8715555 A 1.9,1.9 0 0 0 36.755796,8.4223368 1.9,1.9 0 0 0 36.306577,5.7738993 C 33.427303,3.7286626 29.394741,2.205611 24.947202,2.0102274 24.39126,1.9858045 23.829097,1.9818336 23.261655,2.0004618 Z" fill="#008055"/>
</svg>
