<svg xmlns="http://www.w3.org/2000/svg" width="48" height="48">
	<path d="m 13.952149,5.6539323 a 1.6,1.6 0 0 0 -0.107422,0.00195 1.6,1.6 0 0 0 -0.480469,0.095703 1.6,1.6 0 0 0 -0.953125,2.0527343 l 3.730469,10.1953133 a 1.6,1.6 0 0 0 2.052734,0.953125 1.6,1.6 0 0 0 0.953125,-2.052735 L 15.416992,6.7047135 A 1.6,1.6 0 0 0 13.952149,5.6539323 Z m 20.492187,0.083984 a 1.6,1.6 0 0 0 -1.513672,1.0761718 l -8.75,25.1816405 a 1.6,1.6 0 0 0 0.986328,2.03711 1.6,1.6 0 0 0 2.03711,-0.986328 l 8.75,-25.1835943 A 1.6,1.6 0 0 0 34.967773,5.8277604 1.6,1.6 0 0 0 34.444336,5.7379167 Z M 22.594727,13.964479 a 1.6,1.6 0 0 0 -1.513672,1.074219 l -8.75,25.181641 a 1.6,1.6 0 0 0 0.986328,2.037109 1.6,1.6 0 0 0 2.037109,-0.986328 l 8.748047,-25.181641 a 1.6,1.6 0 0 0 -0.986328,-2.037109 1.6,1.6 0 0 0 -0.521484,-0.08789 z m 4.498046,0.121094 a 1.6,1.6 0 0 0 -1.519531,1.064453 l -5.90039,16.650391 a 1.6,1.6 0 0 0 0.972656,2.042969 1.6,1.6 0 0 0 2.042969,-0.97461 l 5.90039,-16.648437 a 1.6,1.6 0 0 0 -0.974609,-2.042969 1.6,1.6 0 0 0 -0.521485,-0.0918 z m 18.105469,3.017578 c -3.017922,0.01614 -5.227248,1.271055 -6.755859,2.769531 a 1.6,1.6 0 0 0 -0.02148,2.263672 1.6,1.6 0 0 0 2.261718,0.02148 c 1.139589,-1.117124 2.315365,-1.843608 4.533203,-1.855469 a 1.6,1.6 0 0 0 1.591797,-1.607422 1.6,1.6 0 0 0 -1.609375,-1.591797 z M 2.7138672,17.441042 a 1.6,1.6 0 0 0 -1.5195312,1.677734 1.6,1.6 0 0 0 1.6757812,1.517578 c 2.636389,-0.129993 4.0252257,0.78807 5.5214848,2.173828 1.496258,1.38576 2.883391,3.340466 5.160156,4.609376 a 1.6,1.6 0 0 0 2.177734,-0.619141 1.6,1.6 0 0 0 -0.61914,-2.175781 C 13.652526,23.812146 12.36147,22.124118 10.567383,20.462526 8.773296,18.800935 6.2591284,17.266235 2.7138672,17.441042 Z m 12.5761718,1.658203 a 1.6,1.6 0 0 0 -0.585937,0.109375 c 0,0 -0.482155,0.140245 -1.035157,0.582031 a 1.6,1.6 0 0 0 -0.25,2.25 1.6,1.6 0 0 0 2.248047,0.25 c -0.0493,0.03939 0.19336,-0.09961 0.19336,-0.09961 a 1.6,1.6 0 0 0 0.914062,-2.070313 1.6,1.6 0 0 0 -1.484375,-1.021483 z m 18.339844,0.46875 a 1.6,1.6 0 0 0 -1.359375,0.820313 1.6,1.6 0 0 0 0.619141,2.177734 c 1.457767,0.812447 2.748878,2.500533 4.542968,4.162109 1.79409,1.661576 4.308277,3.196004 7.853516,3.021485 A 1.6,1.6 0 0 0 46.805664,28.071901 1.6,1.6 0 0 0 45.12793,26.55237 c -2.636412,0.129781 -4.025192,-0.786101 -5.521485,-2.171875 -1.496292,-1.385774 -2.883463,-3.342475 -5.160156,-4.611328 a 1.6,1.6 0 0 0 -0.816406,-0.201172 z m -0.355469,4.980469 a 1.6,1.6 0 0 0 -0.943359,0.349609 c 0.05025,-0.04021 -0.191406,0.09961 -0.191406,0.09961 a 1.6,1.6 0 0 0 -0.916016,2.06836 1.6,1.6 0 0 0 2.070312,0.916016 c 0,0 0.483157,-0.140779 1.03711,-0.583985 a 1.6,1.6 0 0 0 0.248047,-2.25 1.6,1.6 0 0 0 -1.304688,-0.59961 z m -24.841797,0.02539 a 1.6,1.6 0 0 0 -1.1152341,0.457032 c -1.1399,1.117334 -2.3162399,1.844459 -4.5332031,1.855468 a 1.6,1.6 0 0 0 -1.5917969,1.607422 1.6,1.6 0 0 0 1.6074219,1.59375 C 5.8183215,30.072536 8.0273442,28.814107 9.555664,27.316042 A 1.6,1.6 0 0 0 9.579102,25.054323 1.6,1.6 0 0 0 8.432617,24.573854 Z m 22.117188,4.777344 a 1.6,1.6 0 0 0 -0.587891,0.103516 1.6,1.6 0 0 0 -0.927734,2.064453 l 3.595703,9.478515 a 1.6,1.6 0 0 0 2.064453,0.929688 1.6,1.6 0 0 0 0.927734,-2.064453 l -3.595703,-9.478516 a 1.6,1.6 0 0 0 -1.476562,-1.033203 z" fill="#008055"/>
</svg>
