<svg xmlns="http://www.w3.org/2000/svg" width="48" height="48">
	<path d="m 20.175336,2.1160022 c -0.275238,-0.00959 -0.551322,0.00455 -0.822265,0.044922 -0.543175,0.080927 -1.068671,0.264465 -1.544922,0.5585937 -0.952503,0.5882576 -1.634766,1.6109463 -1.88086,2.7753907 a 1.70017,1.70017 0 0 0 -0.002,0.00977 l -1.84375,8.9726565 a 1.70017,1.70017 0 0 0 -0.0078,0.04297 c -0.177658,0.995756 -0.05674,2.059692 0.474609,2.980469 0.531348,0.920777 1.485658,1.627347 2.603516,1.914063 a 1.70017,1.70017 0 0 0 0.08203,0.01953 l 4.421875,0.90625 a 1.7,1.7 0 0 0 2.00586,-1.324219 1.7,1.7 0 0 0 -1.324219,-2.007812 l -4.345703,-0.890625 c -0.343779,-0.09009 -0.427275,-0.192333 -0.5,-0.31836 -0.07317,-0.1268 -0.128152,-0.347429 -0.07031,-0.677734 3.3e-4,-0.0019 -3.37e-4,-0.002 0,-0.0039 l 1.832031,-8.9199221 c 0.08248,-0.3902557 0.208145,-0.5033952 0.341797,-0.5859376 0.133652,-0.082542 0.344823,-0.1441046 0.705078,-0.068359 a 1.70017,1.70017 0 0 0 0.002,0 l 6.621094,1.3808593 A 1.7,1.7 0 0 0 28.935102,5.6062366 1.7,1.7 0 0 0 27.616743,3.5964709 L 20.999555,2.2156116 h -0.0039 c -0.270687,-0.056684 -0.54508,-0.090017 -0.820319,-0.099609 z m 13.660157,2.3574219 c -0.282038,-0.00389 -0.566534,0.021598 -0.847656,0.076172 -0.562246,0.1091482 -1.112624,0.3335181 -1.611329,0.6582032 a 1.70017,1.70017 0 0 0 -0.0078,0.00391 l -7.646485,5.0410157 a 1.70017,1.70017 0 0 0 -0.03711,0.02539 c -0.829732,0.57848 -1.498078,1.414594 -1.773437,2.441406 -0.27536,1.026812 -0.09943,2.204098 0.488281,3.197266 a 1.70017,1.70017 0 0 0 0.04492,0.07031 l 2.484375,3.767578 a 1.7,1.7 0 0 0 2.355468,0.482422 1.7,1.7 0 0 0 0.482422,-2.355468 l -2.443359,-3.705079 c -0.178391,-0.305638 -0.16457,-0.435899 -0.126953,-0.576171 0.03783,-0.14105 0.154656,-0.337065 0.427734,-0.529297 l 7.607422,-5.0156254 h 0.0039 c 0.330562,-0.2139094 0.498377,-0.2078157 0.650391,-0.171875 0.152868,0.036143 0.347617,0.1408926 0.548828,0.4492188 a 1.70017,1.70017 0 0 0 0,0.00195 l 3.707031,5.6582036 a 1.7,1.7 0 0 0 2.353513,0.490235 1.7,1.7 0 0 0 0.490234,-2.353516 l -3.703125,-5.6542968 -0.002,-0.00391 C 36.674806,5.5446199 35.757559,4.832242 34.669477,4.5749866 34.397111,4.5105909 34.117531,4.4773163 33.835493,4.4734241 Z M 12.991743,6.7370959 A 1.7,1.7 0 0 0 12.130414,7.0144397 L 6.4722113,10.719518 c -0.9274837,0.606012 -1.641094,1.522766 -1.8984375,2.611328 -0.2575595,1.089476 -0.016577,2.29559 0.6328125,3.292969 a 1.70017,1.70017 0 0 0 0.00586,0.0078 l 5.0410157,7.646484 a 1.70017,1.70017 0 0 0 0.02344,0.03711 c 0.578479,0.829749 1.416545,1.496119 2.443359,1.771485 1.026814,0.275365 2.202133,0.101374 3.195313,-0.486328 a 1.70017,1.70017 0 0 0 0.07031,-0.04492 l 3.767578,-2.486328 a 1.7,1.7 0 0 0 0.482422,-2.355469 1.7,1.7 0 0 0 -2.355469,-0.482422 l -3.695312,2.441406 c -0.002,0.0012 -0.0019,-0.0012 -0.0039,0 -0.310455,0.182528 -0.438783,0.168751 -0.580078,0.130859 -0.141634,-0.03798 -0.340232,-0.156176 -0.533204,-0.43164 0,0 -0.002,-0.002 -0.002,-0.002 L 8.0561957,14.768346 C 7.8385853,14.434125 7.846227,14.266924 7.8823676,14.114049 7.918508,13.961175 8.0232682,13.766423 8.3315863,13.565221 a 1.70017,1.70017 0 0 0 0.00391,-0.002 L 13.993696,9.8581897 A 1.7,1.7 0 0 0 14.48393,7.5046741 1.7,1.7 0 0 0 12.991743,6.7370959 Z m 19.732422,7.2617191 c -0.253981,-0.0055 -0.508994,0.0097 -0.761719,0.04688 -0.505451,0.07425 -1.002507,0.236281 -1.462891,0.501953 -0.920768,0.531344 -1.627362,1.487614 -1.914062,2.605469 a 1.70017,1.70017 0 0 0 -0.01953,0.08203 l -0.90625,4.419922 a 1.7,1.7 0 0 0 1.324219,2.007813 1.7,1.7 0 0 0 2.007813,-1.324219 l 0.886718,-4.339844 c 0,0 0.002,-0.002 0.002,-0.002 0.09058,-0.350267 0.191424,-0.430656 0.318359,-0.503906 0.127509,-0.07358 0.350105,-0.129799 0.683594,-0.07031 l 8.919922,1.832031 c 0.390268,0.08249 0.503401,0.206196 0.585937,0.339844 0.08254,0.133648 0.144103,0.344771 0.06836,0.705078 a 1.70017,1.70017 0 0 0 0,0.0039 l -1.38086,6.621094 a 1.7,1.7 0 0 0 1.316406,2.011719 1.7,1.7 0 0 0 2.011719,-1.318359 l 1.380859,-6.617188 v -0.0039 c 0.226957,-1.08397 0.08363,-2.236127 -0.503906,-3.1875 -0.588231,-0.952502 -1.610959,-1.634745 -2.77539,-1.88086 a 1.70017,1.70017 0 0 0 -0.0098,-0.002 l -8.972656,-1.84375 a 1.70017,1.70017 0 0 0 -0.04297,-0.0078 c -0.248931,-0.0444 -0.501879,-0.07067 -0.755859,-0.07617 z m -27.44336,5.03125 a 1.7,1.7 0 0 0 -1.6855468,1.351563 l -1.3808594,6.621093 0.00195,-0.002 c -0.228121,1.085089 -0.086286,2.238891 0.5019531,3.191406 0.5882394,0.952515 1.610939,1.634752 2.7753907,1.88086 a 1.70017,1.70017 0 0 0 0.00977,0.002 l 8.9726564,1.841797 a 1.70017,1.70017 0 0 0 0.04297,0.0098 c 0.99579,0.177701 2.059687,0.05675 2.980469,-0.474609 0.920782,-0.531363 1.627349,-1.487619 1.914063,-2.605469 a 1.70017,1.70017 0 0 0 0.01953,-0.08008 l 0.90625,-4.421875 a 1.7,1.7 0 0 0 -1.324219,-2.005859 1.7,1.7 0 0 0 -2.005859,1.324219 l -0.888672,4.339843 -0.002,0.002 c -0.09058,0.35026 -0.19142,0.428699 -0.31836,0.501954 -0.126795,0.07317 -0.349396,0.130117 -0.679687,0.07227 L 6.1968207,28.746862 C 5.8065124,28.66437 5.6953644,28.5387 5.6128363,28.405065 5.5303082,28.27143 5.4667748,28.060298 5.5425238,27.699987 a 1.70017,1.70017 0 0 0 0,-0.002 L 6.9233832,21.07694 A 1.7,1.7 0 0 0 5.6069769,19.065221 1.7,1.7 0 0 0 5.280805,19.030065 Z m 29.205078,2.759766 c -0.269855,-0.01317 -0.543151,0.0015 -0.816406,0.04297 -0.54651,0.08287 -1.089356,0.274509 -1.585937,0.56836 a 1.70017,1.70017 0 0 0 -0.07031,0.04297 l -3.767578,2.486328 a 1.7,1.7 0 0 0 -0.482422,2.355468 1.7,1.7 0 0 0 2.355469,0.482422 l 3.701172,-2.443359 c 0.307793,-0.180243 0.437386,-0.164694 0.578125,-0.126953 0.141631,0.03798 0.340202,0.154226 0.533203,0.429687 0,0 0.002,0.002 0.002,0.002 l 5.009716,7.603466 c 0.21578,0.332445 0.209868,0.50186 0.173828,0.654297 -0.03614,0.152862 -0.140881,0.345655 -0.449219,0.546875 a 1.70017,1.70017 0 0 0 -0.0039,0.002 l -5.65625,3.707031 a 1.7,1.7 0 0 0 -0.492188,2.353516 1.7,1.7 0 0 0 2.353516,0.490234 l 5.65625,-3.705078 0.002,-0.002 c 0.927434,-0.605994 1.641075,-1.522779 1.898438,-2.611328 0.257576,-1.089463 0.01653,-2.293612 -0.632813,-3.291016 a 1.70017,1.70017 0 0 0 -0.0059,-0.0078 l -5.041016,-7.648438 a 1.70017,1.70017 0 0 0 -0.02344,-0.03516 C 37.143714,22.856667 36.30564,22.18822 35.278852,21.912878 35.022155,21.844042 34.755739,21.803 34.485883,21.789831 Z m -12.800781,5.691406 a 1.7,1.7 0 0 0 -0.111328,0.002 1.7,1.7 0 0 0 -0.859375,0.279297 1.7,1.7 0 0 0 -0.482422,2.355469 l 2.44336,3.705078 c 0.178387,0.305643 0.16457,0.435899 0.126953,0.576172 -0.03813,0.142186 -0.153774,0.339482 -0.431641,0.533203 l -7.603516,5.011719 c -0.33419,0.21759 -0.501397,0.209977 -0.654297,0.173828 -0.152899,-0.03615 -0.347636,-0.142876 -0.548828,-0.451172 a 1.70017,1.70017 0 0 0 0,-0.002 L 9.8569769,34.006628 A 1.7,1.7 0 0 0 7.5034613,33.516393 1.7,1.7 0 0 0 7.0132269,35.869909 l 3.7050781,5.658203 c 0.606012,0.927466 1.522776,1.641077 2.611328,1.898437 1.089466,0.257576 2.295569,0.0166 3.292969,-0.632812 a 1.70017,1.70017 0 0 0 0.0078,-0.0059 l 7.646485,-5.041016 a 1.70017,1.70017 0 0 0 0.03711,-0.02539 c 0.829754,-0.578479 1.498076,-1.414592 1.773438,-2.441406 0.275362,-1.026814 0.09941,-2.202148 -0.488281,-3.195313 a 1.70017,1.70017 0 0 0 -0.04492,-0.07227 l -2.484375,-3.765625 a 1.7,1.7 0 0 0 -1.384766,-0.765625 z m 4.332031,0.144531 a 1.7,1.7 0 0 0 -1.679687,1.359375 1.7,1.7 0 0 0 1.324219,2.005859 l 4.339843,0.888672 0.002,0.002 c 0.350222,0.09055 0.430653,0.191419 0.503907,0.318359 0.07317,0.126792 0.12814,0.349335 0.07031,0.679687 -3.29e-4,0.0019 3.37e-4,0.002 0,0.0039 l -1.832031,8.917968 c -0.08249,0.390278 -0.208142,0.503396 -0.341797,0.585938 -0.133655,0.08254 -0.344749,0.146047 -0.705078,0.07031 a 1.70017,1.70017 0 0 0 -0.002,-0.002 L 21.075727,41.07694 a 1.7,1.7 0 0 0 -2.011719,1.316406 1.7,1.7 0 0 0 1.31836,2.011719 l 6.617187,1.378906 c 1.085082,0.228065 2.238916,0.08433 3.191406,-0.503906 0.952491,-0.588233 1.634741,-1.610969 1.88086,-2.775391 a 1.70017,1.70017 0 0 0 0.002,-0.0098 l 1.84375,-8.970703 a 1.70017,1.70017 0 0 0 0.0078,-0.04297 c 0.177583,-0.995716 0.05674,-2.059707 -0.47461,-2.980469 -0.531352,-0.920761 -1.485624,-1.629365 -2.603516,-1.916016 a 1.70017,1.70017 0 0 0 -0.08203,-0.01758 l -4.421875,-0.90625 a 1.7,1.7 0 0 0 -0.326172,-0.03516 z" fill="#008055"/>
</svg>
