<svg xmlns="http://www.w3.org/2000/svg" width="48" height="48">
	<path d="m 11.016603,3.4325975 c -0.737659,-0.01161 -1.4524747,0.0354 -2.1386717,0.144531 -1.372394,0.218267 -2.670227,0.69778 -3.697265,1.634766 -1.027038,0.936986 -1.6581,2.379425 -1.648438,3.873047 V 37.829082 c -0.07435,2.192048 0.740738,4.153439 2.191407,5.302735 1.450667,1.149295 3.256867,1.48293 5.0371087,1.43164 3.560483,-0.10258 7.360093,-1.672858 10.103515,-4.001953 a 2,2 0 0 0 0.230469,-2.818359 2,2 0 0 0 -2.818359,-0.230469 c -1.948477,1.654206 -5.286442,2.98519 -7.63086,3.052734 -1.1722077,0.03377 -2.0112287,-0.230645 -2.4374997,-0.568359 -0.42627,-0.337714 -0.721134,-0.751698 -0.677734,-2.03125 a 2.0002,2.0002 0 0 0 0.00195,-0.06836 V 9.0712695 a 2.0002,2.0002 0 0 0 0,-0.01367 c -0.00334,-0.515929 0.091287,-0.658517 0.345703,-0.890625 0.254416,-0.232109 0.792819,-0.506011 1.626954,-0.638672 1.6682677,-0.265323 4.3487707,0.0911 7.0253897,1.197266 5.353239,2.2123245 10.564453,7.0361845 10.564453,14.2539065 0,2.969941 -0.352293,5.350605 -1.855469,7.625 a 2,2 0 0 0 0.564454,2.769531 2,2 0 0 0 2.771484,-0.564453 c 2.072624,-3.136005 2.519531,-6.521219 2.519531,-9.830078 0,-9.142278 -6.596197,-15.2893475 -13.037109,-17.9511725 -2.415342,-0.998185 -4.828037,-1.560881 -7.041016,-1.595703 z m 26.222656,0.0039 c -3.560482,0.102581 -7.360056,1.672878 -10.103515,4.001953 a 2,2 0 0 0 -0.228516,2.8183605 2,2 0 0 0 2.81836,0.230468 c 1.948541,-1.6542255 5.28449,-2.9851895 7.628906,-3.0527345 1.172208,-0.03377 2.01122,0.23064 2.4375,0.568359 0.42628,0.33772 0.721116,0.753648 0.677734,2.0332035 a 2.0002,2.0002 0 0 0 0,0.06641 v 28.826172 a 2.0002,2.0002 0 0 0 0,0.01367 c 0.0033,0.515929 -0.09129,0.658516 -0.345703,0.890626 -0.254416,0.232108 -0.794772,0.50601 -1.628906,0.638671 -1.668268,0.265323 -4.346819,-0.08915 -7.023438,-1.195312 -5.353237,-2.212325 -10.564453,-7.038137 -10.564453,-14.255859 0,-2.969941 0.352293,-5.348652 1.855469,-7.623047 a 2,2 0 0 0 -0.566406,-2.771485 2,2 0 0 0 -2.771485,0.564453 c -2.072624,3.136005 -2.517578,6.521219 -2.517578,9.830079 0,9.142276 6.596199,15.289346 13.03711,17.951171 3.220455,1.330913 6.4349,1.887706 9.179687,1.451172 1.372394,-0.218266 2.668275,-0.697779 3.695313,-1.634765 1.027037,-0.936986 1.660053,-2.377473 1.65039,-3.871094 V 10.10252 l -0.002,0.06836 c 0.07432,-2.1920455 -0.740737,-4.1534445 -2.191406,-5.3027345 -1.450669,-1.14929 -3.256867,-1.482931 -5.03711,-1.431641 z" fill="#008055"/>
</svg>
