<svg xmlns="http://www.w3.org/2000/svg" width="48" height="48">
	<path d="M 19.696071,1.4741339 C 16.742813,1.4765439 13.836732,2.899244 12.059352,5.5307745 9.2155451,9.7412231 10.284384,15.532091 14.444118,18.429212 a 1.7071968,1.6928329 85.000167 0 0 0.0957,0.05859 1.7071968,1.6928329 85.000167 0 0 0.09961,0.07226 c 4.230903,2.790269 9.947391,1.6018 12.738281,-2.644531 2.79089,-4.24633 1.648778,-10.0213129 -2.546875,-12.8652343 -1.57337,-1.0664705 -3.362811,-1.5776205 -5.134766,-1.5761718 z m -0.0059,3.3964843 c 1.118567,0.00136 2.250841,0.3285391 3.255859,1.0097657 2.680047,1.8166037 3.39375,5.4266391 1.607422,8.1445311 -1.786328,2.717892 -5.361874,3.46203 -8.064453,1.679688 a 1.7071968,1.6928329 85.000167 0 0 -0.06445,-0.04297 1.7071968,1.6928329 85.000167 0 0 -0.05859,-0.04102 c -2.657055,-1.850576 -3.32408,-5.469122 -1.503872,-8.1640623 1.13763,-1.6843376 2.963845,-2.5881972 4.828125,-2.5859375 z m 7.339843,15.7187498 c -0.504825,0.02397 -1.005002,0.117368 -1.476562,0.271485 -3.254397,1.038523 -7.439745,1.32999 -10.101562,0.640624 l 0.02734,0.0078 c -1.224922,-0.339478 -2.611468,0.165592 -3.265625,0.923828 -0.654156,0.758236 -0.838325,1.529152 -0.93164,2.132813 a 1.70017,1.70017 0 0 0 -0.0039,0.03125 c -0.676977,4.970577 -0.07542,12.632032 1.953124,18.667968 a 1.70017,1.70017 0 0 0 0.0039,0.01563 c 0.312085,0.899454 0.598955,1.573899 1.070312,2.177735 0.471358,0.603836 1.456214,1.178835 2.363281,1.048828 0.907068,-0.130008 1.386125,-0.59499 1.796875,-0.992188 0.410752,-0.397197 0.762106,-0.824832 1.138672,-1.267578 a 1.70017,1.70017 0 0 0 0.01563,-0.01563 c 0.287986,-0.347676 1.080905,-1.079718 1.882813,-1.677734 0.801908,-0.598016 1.729419,-1.108451 1.953125,-1.181641 1.009331,-0.330186 1.784717,-0.202555 2.646484,0.208985 0.861767,0.41154 1.743272,1.164602 2.513672,1.996093 0.289564,0.31449 0.558845,0.603557 0.822266,0.855469 0.132322,0.126543 0.259964,0.243677 0.421874,0.367188 0.161911,0.12351 0.279961,0.292243 0.863282,0.417968 0.29166,0.06286 0.835864,0.08743 1.34375,-0.24414 0.507885,-0.331573 0.718716,-0.868228 0.773437,-1.177735 0.109442,-0.619012 -0.01445,-0.801914 -0.08008,-1.02539 -0.129825,-0.44205 -0.317997,-0.851244 -0.609375,-1.449219 -1.243446,-2.615862 -1.818093,-5.846156 -1.820312,-7.804687 a 1.7,1.7 0 0 0 -1.701172,-1.697266 1.7,1.7 0 0 0 -1.699219,1.701172 c 0.0016,1.452725 0.277184,3.219537 0.730469,5.052734 -0.03369,-0.01663 -0.05777,-0.04234 -0.0918,-0.05859 -1.46059,-0.69751 -3.301533,-0.984261 -5.169922,-0.373046 -1.045045,0.341909 -1.967637,0.971515 -2.927734,1.6875 -0.960097,0.715983 -1.840499,1.471597 -2.470703,2.232421 -0.167089,0.196395 -0.259981,0.289217 -0.398438,0.447266 -0.06291,-0.148949 -0.07956,-0.131499 -0.148437,-0.328125 l -0.002,-0.0059 c -1.800678,-5.36192 -2.371908,-12.91141 -1.804688,-17.101563 0.02067,-0.114976 0.05435,-0.183993 0.08984,-0.269531 3.610899,0.89908 8.073439,0.502213 11.861328,-0.708985 a 1.70017,1.70017 0 0 0 0.0098,-0.002 c 0.922638,-0.301537 1.298789,-0.170802 1.548829,0.208985 0.566079,0.875203 1.478366,1.852458 2.386718,2.80664 -0.217467,-0.08886 -0.294267,-0.07971 -0.55664,-0.195312 a 1.7,1.7 0 0 0 -2.242188,0.871094 1.7,1.7 0 0 0 0.871094,2.240234 c 2.629151,1.158382 3.716179,1.179006 5.914062,1.501953 0.325434,0.06028 0.621974,0.109409 1.001954,0.105469 0.189989,-0.002 0.402257,-0.0057 0.730468,-0.115234 0.328211,-0.109492 0.909087,-0.435133 1.15625,-1.101563 0.247163,-0.66643 0.03862,-1.240115 -0.11914,-1.535156 C 37.14183,28.585342 36.990235,28.423821 36.838649,28.271009 36.535477,27.965385 36.203221,27.71635 35.752712,27.405774 35.536477,27.256654 34.400427,26.256768 33.393337,25.224134 32.386246,24.1915 31.356,22.989955 31.006618,22.44679 a 1.70017,1.70017 0 0 0 -0.0098,-0.01367 C 30.396778,21.521713 29.50728,20.974123 28.531975,20.731948 28.044321,20.610861 27.534847,20.565401 27.030021,20.58937 Z" fill="#008055"/>
</svg>
