<svg xmlns="http://www.w3.org/2000/svg" width="48" height="48">
	<path d="M 34.252024,2.2811737 C 33.717043,2.2735748 33.1849,2.2744132 32.656321,2.28508 26.313367,2.4130815 20.393629,3.8806165 14.052805,7.2714081 a 1.7,1.7 0 0 0 -0.697265,2.3007813 1.7,1.7 0 0 0 2.300781,0.6972656 c 7.907515,-4.2285888 14.645433,-5.1895218 23.134766,-4.3085938 0.42427,0.056691 0.612671,0.1512756 0.689453,0.1914063 -0.01749,0.067371 -0.06108,0.2099281 -0.203125,0.4785156 C 36.938296,10.828475 34.072304,14.13902 29.211009,16.925705 l 0.01562,-0.0078 c -0.901473,0.504584 -1.760709,1.240459 -2.097656,2.386719 -0.336947,1.146259 0.05754,2.412916 0.802735,3.386718 a 1.70017,1.70017 0 0 0 0.06641,0.08008 c 1.558017,1.79511 3.915857,2.791903 6.019531,3.097657 a 1.7,1.7 0 0 0 1.925781,-1.4375 1.7,1.7 0 0 0 -1.4375,-1.925781 c -1.183239,-0.171976 -3.236865,-1.177176 -3.919921,-1.947266 -0.153782,-0.229671 -0.181214,-0.342886 -0.195313,-0.294922 -0.01729,0.05883 0.04746,-0.12779 0.496094,-0.378906 a 1.70017,1.70017 0 0 0 0.01563,-0.0078 C 36.288504,16.78939 39.693901,12.870768 42.248123,8.2870601 a 1.70017,1.70017 0 0 0 0.0078,-0.015625 C 42.906648,7.0754955 43.151062,5.615002 42.453196,4.425705 41.75533,3.2364079 40.488572,2.7474766 39.209055,2.5858612 a 1.70017,1.70017 0 0 0 -0.03711,-0.00391 C 37.492255,2.4069172 35.856966,2.3039704 34.252024,2.2811737 Z m -4.189453,3.984375 A 2.1851745,2.1813571 0 0 0 27.877024,8.4471894 2.1851745,2.1813571 0 0 0 30.062571,10.62883 2.1851745,2.1813571 0 0 0 32.246165,8.4471894 2.1851745,2.1813571 0 0 0 30.062571,6.2655487 Z M 11.107493,10.271408 c -0.214345,-0.0192 -0.438253,-0.0071 -0.654297,0.0293 -0.432088,0.07275 -0.8348103,0.239722 -1.0820309,0.441406 -0.4944414,0.403368 -0.7721915,0.837718 -1.1015626,1.408204 a 1.70017,1.70017 0 0 0 -0.021484,0.03906 C 6.6399347,15.147982 5.2373344,18.722457 5.1270244,22.919846 a 1.7,1.7 0 0 0 1.65625,1.744141 1.7,1.7 0 0 0 1.7441407,-1.654297 c 0.081319,-3.094264 1.0585684,-5.771071 2.2792969,-8.214844 1.625497,2.769746 3.630119,4.878331 5.90625,6.199219 a 1.7,1.7 0 0 0 2.322265,-0.617188 1.7,1.7 0 0 0 -0.617187,-2.324219 c -1.988558,-1.154003 -3.774421,-2.915406 -5.203125,-5.693359 -0.109105,-0.222196 -0.226134,-0.489863 -0.404297,-0.802734 -0.18128,-0.318346 -0.381595,-0.763321 -1.103516,-1.125001 -0.18048,-0.09042 -0.385263,-0.140952 -0.599609,-0.160156 z m 11.445312,10.587891 c -0.277435,-0.01891 -0.558889,-0.0058 -0.839843,0.03516 -0.56191,0.08186 -1.12097,0.27797 -1.638672,0.5625 a 1.70017,1.70017 0 0 0 -0.03125,0.01758 c -3.066812,1.773234 -5.566706,4.624736 -5.59961,8.666015 a 1.70017,1.70017 0 0 0 0,0.01367 c 0,2.776529 0.77286,5.340564 2.417969,7.242187 1.645109,1.901625 4.157883,3.023438 7.109375,3.023438 3.791425,0 6.931784,-2.032916 9.214844,-3.507812 0.857294,-0.553828 1.415629,-0.867324 1.939453,-1.152344 -0.248014,0.488625 -0.742626,1.174882 -1.265625,2.0625 0,0 0,0.002 0,0.002 -0.526653,0.877159 -0.276606,1.828717 -0.06836,2.316406 0.208394,0.488035 0.424298,0.810289 0.560546,1.072266 0.111223,0.213858 0.129941,0.300949 0.142579,0.345703 -0.03957,0.0306 -0.358724,0.26309 -1.029297,0.427734 -0.703745,0.172789 -1.68622,0.285716 -2.796875,0.322266 -2.209567,0.07271 -4.928815,-0.142658 -7.34375,-0.458984 -2.971177,-0.499415 -7.272029,-1.904025 -9.726563,-4.394532 0.188405,-0.176779 0.376015,-0.354418 0.564453,-0.53125 a 1.7,1.7 0 0 0 0.07617,-2.402344 1.7,1.7 0 0 0 -2.402343,-0.07617 c -0.449923,0.422208 -0.901445,0.843233 -1.351563,1.265625 a 1.70017,1.70017 0 0 0 -0.0098,0.0098 c -0.32947,0.314166 -0.6207523,0.845225 -0.6718753,1.361328 -0.051123,0.516104 0.083415,0.93789 0.2324213,1.257813 0.298014,0.639845 0.681159,1.033311 1.136719,1.496094 3.336541,3.389509 8.199082,4.802549 11.611328,5.373046 a 1.70017,1.70017 0 0 0 0.05859,0.0098 c 2.55124,0.335791 5.413028,0.571357 7.9375,0.488281 1.262236,-0.04154 2.438495,-0.158298 3.496094,-0.417968 1.057598,-0.259671 2.051232,-0.62837 2.824218,-1.507813 a 1.70017,1.70017 0 0 0 0.02344,-0.02734 c 0.576372,-0.684559 0.8491,-1.613165 0.792969,-2.36914 -0.05613,-0.755975 -0.328525,-1.316636 -0.548828,-1.740235 -0.146533,-0.281751 -0.214403,-0.403923 -0.298829,-0.558593 0.379786,-0.587565 0.809102,-1.170682 1.183594,-1.957032 0.465045,-0.976488 0.723653,-2.437566 0.07617,-3.730468 a 1.70017,1.70017 0 0 0 -0.0078,-0.01367 c -0.341822,-0.665866 -1.110373,-1.296731 -1.884765,-1.433594 -0.774392,-0.136863 -1.387702,0.05221 -1.927735,0.267578 -1.080063,0.430744 -2.051686,1.116752 -3.167968,1.837891 -2.232565,1.442277 -4.855526,2.96289 -7.369141,2.96289 -2.140748,0 -3.541673,-0.697005 -4.537109,-1.847656 -0.994398,-1.14945 -1.586652,-2.867879 -1.587891,-5.011719 0.02528,-2.748343 1.400789,-4.290636 3.884766,-5.730468 0.436836,-0.233797 0.544761,-0.195305 0.599609,-0.177735 0.05664,0.01814 0.254324,0.126646 0.525391,0.535157 l -0.0098,-0.01563 c 2.153628,3.320936 5.695158,5.10724 9.28125,5.8125 a 1.7,1.7 0 0 0 1.996094,-1.339843 1.7,1.7 0 0 0 -1.339844,-1.996094 c -2.940728,-0.57834 -5.559326,-1.972108 -7.085937,-4.326172 a 1.70017,1.70017 0 0 0 -0.0098,-0.01563 c -0.530103,-0.79889 -1.265914,-1.554797 -2.320312,-1.892578 -0.2636,-0.08445 -0.537018,-0.135391 -0.814454,-0.154297 z m -10.195312,4.283203 a 1.7,1.7 0 0 0 -0.576172,0.09766 c -1.001047,0.353677 -2.1575194,0.510297 -3.3242185,0.392579 -0.7346995,-0.0766 -1.6779422,0.0904 -2.3300781,0.810547 -0.6547815,0.723069 -0.7407137,1.710387 -0.5800781,2.503906 a 1.70017,1.70017 0 0 0 0.00781,0.0332 c 0.355356,1.591713 0.7728689,3.524989 1.8164063,5.464844 a 1.7,1.7 0 0 0 2.3007812,0.691406 1.7,1.7 0 0 0 0.6933592,-2.302735 C 9.7226719,31.639302 9.4292203,30.322097 9.1211651,29.00383 10.445795,29.01598 11.741599,28.8595 12.914134,28.445237 a 1.7,1.7 0 0 0 1.037109,-2.169922 1.7,1.7 0 0 0 -1.59375,-1.132813 z" fill="#008055"/>
</svg>
