<svg xmlns="http://www.w3.org/2000/svg" width="48" height="48">
	<path d="M 24.412063,1.9161439 C 19.697796,1.8250897 14.93007,3.2324205 10.87886,6.2227845 9.7213711,7.077174 8.6700101,8.0262549 7.7284691,9.0509095 1.1376794,16.223489 -0.0791344,27.132992 5.2440941,35.681768 a 2,2 0 0 0 2.753906,0.640626 2,2 0 0 0 0.642578,-2.75586 C 3.6405123,25.536735 5.6452724,15.059185 13.255813,9.4415345 20.866352,3.8238833 31.467669,4.9949091 37.667922,12.1388 c 6.200254,7.143891 5.869085,17.806535 -0.763672,24.550781 -6.632756,6.744247 -17.286959,7.254148 -24.533203,1.173828 a 2,2 0 0 0 -2.8183589,0.246094 2,2 0 0 0 0.246093,2.818359 C 18.615443,48.32592 31.685594,47.70014 39.755813,39.494268 47.826033,31.288397 48.233389,18.209834 40.689407,9.5177064 36.445916,4.6283843 30.473263,2.0332136 24.412063,1.9161439 Z m 7.085937,6.09375 c -0.183676,-0.00781 -0.368443,-0.00308 -0.552734,0.013672 -0.737164,0.067007 -1.470071,0.3251853 -2.121094,0.7207031 l -20.1796869,11.656249 0.041015,-0.02148 c -1.3927,0.760002 -2.5573874,2.025531 -2.5214841,3.660156 0.035903,1.634625 1.2089661,2.815764 2.5585941,3.533204 l 20.1210929,11.625 c 1.31809,0.800847 2.995184,0.999706 4.306641,0.228515 1.311457,-0.771191 1.950015,-2.284308 1.949219,-3.806641 a 1.9,1.9 0 0 0 -1.900391,-1.898437 1.9,1.9 0 0 0 -1.900391,1.900391 c 2.65e-4,0.50363 -0.100693,0.544007 -0.07227,0.519531 -0.05187,-0.0085 -0.172143,-0.04798 -0.408203,-0.191406 a 1.90019,1.90019 0 0 0 -0.03711,-0.01953 L 10.56636,24.250128 a 1.90019,1.90019 0 0 0 -0.05859,-0.0332 c -0.199702,-0.106159 -0.315224,-0.187353 -0.398438,-0.253907 0.08334,-0.06304 0.202918,-0.143482 0.394532,-0.248046 a 1.90019,1.90019 0 0 0 0.04101,-0.02344 L 30.761672,12.011847 a 1.90019,1.90019 0 0 0 0.03516,-0.01953 c 0.258133,-0.156824 0.391899,-0.193407 0.453125,-0.201172 0.02062,0.05333 0.05078,0.172835 0.05078,0.443359 v 18.40625 a 1.9,1.9 0 0 0 1.898437,1.900391 1.9,1.9 0 0 0 1.900391,-1.900391 V 12.234503 C 35.09957,10.706738 34.42579,9.1776565 33.09175,8.4454408 32.591486,8.1708599 32.04903,8.0333168 31.498,8.0098939 Z" fill="#008055"/>
</svg>
