<svg xmlns="http://www.w3.org/2000/svg" width="48" height="48">
	<path d="m 14.375976,6.52832 c -1.776713,0 -3.452612,0.514776 -4.7070308,1.615234 -1.2544191,1.10046 -1.9746093,2.777949 -1.9746093,4.554688 v 22.583984 c 0,1.878149 0.6876464,3.628638 1.9902343,4.720704 1.3025878,1.092064 2.9709968,1.46875 4.6914058,1.46875 H 33.99707 c 1.766467,0 3.41256,-0.616205 4.5625,-1.761719 1.14994,-1.145514 1.746094,-2.754983 1.746094,-4.427735 V 15.274414 c 0,-1.787283 -0.582761,-3.470455 -1.789063,-4.595703 C 37.3103,9.553462 35.675674,9.104492 33.99707,9.104492 h -8.183594 a 2,2 0 0 0 -2,2 2,2 0 0 0 2,2 h 8.183594 c 0.989386,0 1.510115,0.237974 1.791016,0.5 0.2809,0.262026 0.517578,0.666345 0.517578,1.669922 v 20.007812 c 0,0.77114 -0.228052,1.254752 -0.568359,1.59375 -0.340309,0.338999 -0.850872,0.595704 -1.740235,0.595704 H 14.375976 c -1.12183,0 -1.795423,-0.258531 -2.123047,-0.533204 -0.327621,-0.274672 -0.558593,-0.619407 -0.558593,-1.65625 V 12.698242 c 0,-0.797681 0.224688,-1.205975 0.613281,-1.546875 0.388593,-0.3409 1.053783,-0.623047 2.068359,-0.623047 h 7.720703 a 2,2 0 0 0 2,-2 2,2 0 0 0 -2,-2 z m 9.41211,9.361328 c -0.753487,0.04168 -1.502034,0.189341 -2.220703,0.449219 -4.92383,1.780505 -6.895336,7.591348 -5.070313,12.367187 1.334864,3.493161 4.386948,6.005969 7.884766,6.822266 a 1.5212822,1.4790154 67.413027 0 0 1.757812,-1.136719 1.5212822,1.4790154 67.413027 0 0 -1.15039,-1.816406 c -2.551319,-0.595409 -4.788071,-2.458904 -5.728516,-4.919922 -1.254414,-3.282634 0.103077,-7.284466 3.345703,-8.457031 2.379489,-0.860446 5.312605,0.248188 6.15625,2.710938 0.58379,1.704188 -0.150641,3.766466 -1.792969,4.273437 -0.582832,0.179915 -1.183694,0.04834 -1.693359,-0.236328 a 1.5212822,1.4790154 67.413027 0 0 0.488281,0.08594 c 0.806785,0.0024 1.500804,-0.521675 1.820313,-1.054687 0.319508,-0.533011 0.42512,-1.087394 0.335937,-1.697266 -0.140806,-0.9629 -0.789971,-1.731322 -1.486328,-2.117187 -0.696356,-0.385866 -1.457927,-0.499285 -2.220703,-0.335938 -1.138575,0.243825 -1.996459,1.058232 -2.427734,1.976563 -0.431275,0.918331 -0.518379,1.960112 -0.240235,2.964843 0.790617,2.85592 3.848867,4.084745 6.337891,3.316407 3.397235,-1.048694 4.777114,-4.925165 3.68164,-8.123047 -0.361595,-1.055562 -0.928944,-1.959749 -1.634765,-2.699219 -1.588098,-1.663806 -3.882119,-2.498091 -6.142578,-2.373047 z" fill="#008055"/>
</svg>
