<svg xmlns="http://www.w3.org/2000/svg" width="48" height="48">
	<path d="m 24.761812,4.8076169 c -2.589641,0 -4.5926,1.7388424 -4.919921,3.7089844 -0.135753,0.8170921 0.05518,1.6123857 0.314453,2.3749997 -2.163864,0.528635 -4.088043,1.338511 -5.257813,3.087891 a 1.8,1.8 0 0 0 0.496094,2.498047 1.8,1.8 0 0 0 2.498047,-0.496094 c 0.815617,-1.219747 2.337512,-1.848612 5.402344,-2.125 a 1.80018,1.80018 0 0 0 1.607422,-1.460937 1.80018,1.80018 0 0 0 1.488281,1.447265 c 2.614764,0.411073 3.888203,1.239628 4.804687,3.277344 h -13.65625 c -1.383505,0 -2.73393,0.297923 -3.933594,1.052734 a 1.80018,1.80018 0 0 0 -0.03906,0.02539 c -1.053191,0.701161 -1.849639,1.393293 -2.496094,2.115234 l 0.05664,-0.0625 c -0.523324,0.532205 -0.81619,0.637379 -0.921875,0.628907 C 9.72807,20.776957 9.5966286,20.690003 9.4649371,19.916992 A 1.80018,1.80018 0 0 0 7.6895465,18.418945 H 2.7110308 a 1.80018,1.80018 0 0 0 -1.2382812,3.107422 c 2.0067412,1.89785 2.0197885,3.000373 2.3359375,4.681641 0.1580745,0.840633 0.3688779,1.868977 1.03125,2.882812 0.6623721,1.013835 1.7260641,1.88359 3.2207031,2.585938 0.4988784,0.234495 0.644707,0.358816 0.9238282,0.93164 0.9509183,2.008265 2.4122456,3.829962 4.2988276,5.064453 a 1.80018,1.80018 0 0 0 0.0039,0 c 1.416112,0.92352 2.970481,1.19336 4.560547,1.19336 h 13.525391 c 1.660237,0 3.045673,-0.658115 4.101562,-1.458985 a 1.80018,1.80018 0 0 0 0.04102,-0.0332 c 2.512479,-2.026446 4.153723,-4.412486 4.769531,-7.021484 0.615808,-2.608998 0.178324,-5.34894 -1.078125,-7.960938 a 1.80018,1.80018 0 0 0 -0.0078,-0.01172 c -0.224761,-0.457789 -0.188285,-0.622296 -0.201171,-0.56836 -0.01289,0.05394 -0.08121,-0.0056 0.416015,-0.28125 a 1.80018,1.80018 0 0 0 0.0078,-0.0059 c 0.893744,-0.501603 1.550688,-0.510069 2.128906,-0.328125 0.578218,0.181944 1.114615,0.619481 1.486328,1.271484 0.743426,1.304007 0.835955,3.331252 -1.091797,5.292969 a 1.8,1.8 0 0 0 0.02344,2.544922 1.8,1.8 0 0 0 2.544922,-0.02148 c 2.911878,-2.963181 3.194869,-6.890516 1.65039,-9.599609 -0.772239,-1.354547 -2.001148,-2.439794 -3.533203,-2.921875 -1.530277,-0.481522 -3.327232,-0.296081 -4.964844,0.621094 -1.033649,0.573628 -1.89969,1.466962 -2.167968,2.589844 -0.26714,1.118114 0.05148,2.132953 0.464843,2.978515 0.981351,2.040102 1.221734,3.863289 0.81836,5.572266 -0.401194,1.699738 -1.476268,3.378483 -3.5,5.019531 -0.750889,0.568737 -1.005535,0.720703 -1.908203,0.720703 H 17.84775 c -1.280934,0 -1.818041,-0.101542 -2.59375,-0.607422 -1.222496,-0.800677 -2.334082,-2.141362 -3.023438,-3.603515 a 1.80018,1.80018 0 0 0 -0.01172,-0.02148 C 11.649624,29.864051 10.687752,28.932097 9.5918902,28.416992 8.5056143,27.906539 8.0941962,27.490316 7.853609,27.12207 7.6130217,26.753824 7.4911676,26.304683 7.3477496,25.541992 7.1814255,24.657487 6.8977328,23.397713 6.2207965,22.018555 h 0.4355469 c 0.6615696,1.172047 1.6100949,2.157493 2.9101562,2.419921 a 1.80018,1.80018 0 0 0 0.095703,0.01758 c 1.8508724,0.270765 3.2087504,-0.843231 4.0312504,-1.679688 a 1.80018,1.80018 0 0 0 0.05859,-0.0625 c 0.431127,-0.481469 0.952986,-0.940008 1.783203,-1.496094 0.650654,-0.407694 1.017415,-0.498047 2.003906,-0.498047 h 14.31836 c 0.474749,0 0.912101,-0.0098 1.429687,-0.142578 0.517586,-0.132792 1.238572,-0.50118 1.626953,-1.193359 0.388381,-0.692179 0.349792,-1.373005 0.25586,-1.890625 -0.09393,-0.517621 -0.260887,-0.979746 -0.476563,-1.511719 a 1.80018,1.80018 0 0 0 -0.002,-0.0039 c -0.994098,-2.436675 -2.830484,-4.040807 -5.091746,-4.951179 0.27549,-0.807617 0.435725,-1.6666004 0.261719,-2.5253907 -0.40105,-1.9793491 -2.434577,-3.6933594 -5.09961,-3.6933594 z m 0,3.5996094 c 1.441859,0 1.482863,0.3769928 1.570313,0.8085937 0.08745,0.431601 -0.169863,1.068263 -0.548828,1.283203 a 1.80018,1.80018 0 0 0 -0.880859,1.238281 1.80018,1.80018 0 0 0 -0.824219,-1.205078 c -0.479074,-0.295331 -0.753438,-1.017148 -0.685547,-1.425781 0.06789,-0.408633 0.01369,-0.6992187 1.36914,-0.6992187 z M 14.482516,39.592773 a 1.8,1.8 0 0 0 -1.798829,1.798828 1.8,1.8 0 0 0 1.798829,1.800782 h 19.310546 a 1.8,1.8 0 0 0 1.800782,-1.800782 1.8,1.8 0 0 0 -1.800782,-1.798828 z" fill="#008055"/>
</svg>
