<svg xmlns="http://www.w3.org/2000/svg" width="48" height="48">
	<path d="m 23.846196,1.3560928 c -3.534632,-0.089729 -6.64241,1.1771664 -8.898438,3.6933593 -2.110702,2.3541092 -3.554667,5.7131529 -4.849609,9.9648439 -4.396544,2.141888 -7.6760085,5.518292 -8.3671877,10.984375 a 2,2 0 0 0 1.7324218,2.234375 2,2 0 0 0 2.234375,-1.732422 c 0.5774207,-4.566441 2.6506979,-6.45722 6.8222659,-8.273437 a 2.0002,2.0002 0 0 0 1.123047,-1.277344 c 1.285211,-4.435775 2.708558,-7.4742359 4.283203,-9.230469 1.574645,-1.756233 3.182741,-2.4382938 5.832032,-2.3671875 a 2.0002,2.0002 0 0 0 0.04883,0 c 2.699164,0.00707 4.534661,0.9888054 6.199216,2.9746094 1.664556,1.9858041 3.014201,5.0707291 4.007813,8.9394531 a 2.0002,2.0002 0 0 0 1.302734,1.400391 c 5.483518,1.830437 6.521231,4.423747 6.890625,6.789062 -2.235201,0.236986 -4.047723,1.36161 -5.15625,2.816406 -1.13156,1.485026 -1.679624,3.183702 -2.076172,4.751954 -0.561557,2.072869 -1.123071,2.356696 -2.193359,2.916015 -1.070288,0.559319 -2.976915,1.125193 -4.433594,3.0625 a 2.0002,2.0002 0 0 0 -0.04101,0.05664 c -1.686448,2.415331 -3.236777,3.497454 -4.359375,3.583984 -1.122598,0.08653 -2.708533,-0.611813 -4.90625,-3.61914 l 0.02539,0.03516 C 17.364894,36.61721 15.066309,35.735701 13.699716,35.123674 13.01642,34.81766 12.580391,34.566837 12.348154,34.344377 12.117513,34.123446 11.970403,33.937719 11.857919,33.276018 l -0.002,-0.01172 C 11.572145,31.519393 10.872947,30.239351 10.197758,29.41664 9.5209754,28.591986 8.7153363,28.121718 8.7153363,28.121718 a 2,2 0 0 0 -2.7128907,0.798828 2,2 0 0 0 0.7988281,2.712891 c 0,0 0.031648,-0.01238 0.3046876,0.320312 0.2730397,0.332697 0.6328622,0.906009 0.8027343,1.958985 a 2.0002,2.0002 0 0 0 0.00195,0.01172 c 0.2276625,1.358385 0.8521367,2.525235 1.6699218,3.308594 0.8177856,0.783359 1.7095346,1.194004 2.4843756,1.541016 1.549681,0.694023 2.682713,1.082976 3.720703,2.572265 a 2.0002,2.0002 0 0 0 0.02734,0.03711 c 2.588283,3.541772 5.422232,5.478963 8.443359,5.246093 3.000284,-0.231262 5.304133,-2.397305 7.289063,-5.224609 l 0.0078,-0.0098 c 0.659532,-0.869748 1.548759,-1.109908 3.080079,-1.910156 1.537361,-0.803406 3.397082,-2.440686 4.203124,-5.416015 a 2.0002,2.0002 0 0 0 0.0078,-0.03516 c 0.340375,-1.351623 0.799878,-2.563222 1.388672,-3.335937 0.588794,-0.772715 1.175156,-1.20057 2.46875,-1.306641 a 2.0002,2.0002 0 0 0 0.01758,-0.002 c 0.919269,-0.08346 1.947668,-0.267531 2.765625,-1.175781 0.816382,-0.906502 0.875862,-2.100259 0.748047,-3.023438 -0.444317,-3.24085 -2.696472,-7.449095 -8.65625,-9.83789 C 36.523409,11.571352 35.15582,8.2438917 33.070806,5.7564834 30.812955,3.062883 27.624929,1.37503 23.846196,1.3560928 Z m -4.480469,8.7441402 a 3.500468,3.500468 0 0 0 -3.5,3.5 3.500468,3.500468 0 0 0 3.5,3.500001 3.500468,3.500468 0 0 0 3.5,-3.500001 3.500468,3.500468 0 0 0 -3.5,-3.5 z m 8.607422,0 a 3.500468,3.500468 0 0 0 -3.5,3.5 3.500468,3.500468 0 0 0 3.5,3.500001 3.500468,3.500468 0 0 0 3.5,-3.500001 3.500468,3.500468 0 0 0 -3.5,-3.5 z" fill="#008055"/>
</svg>
