<svg xmlns="http://www.w3.org/2000/svg" width="48" height="48">
	<path d="m 44.654277,2.5067438 c -0.457806,0.00132 -0.895638,0.1605246 -1.16211,0.3378906 -0.710592,0.472976 -0.83689,0.8937065 -1.046875,1.3574219 l 0.02539,-0.054688 c -1.687428,3.4094178 -4.41064,6.0980247 -7.496093,7.4980477 -1.944894,0.882482 -4.61504,1.464575 -7.101562,1.607422 -2.486523,0.142847 -4.824995,-0.20891 -5.925782,-0.748047 C 21.509053,12.290155 20.054498,11.276241 18.490214,9.9911188 16.926579,8.7065292 15.134966,7.114811 13.519511,5.5751032 l -0.002,-0.00195 C 13.25245,5.3201344 12.980107,5.0955184 12.640605,4.8954157 12.300264,4.6948183 11.917277,4.3798672 10.990214,4.5399469 10.526683,4.619987 9.9418286,4.9759843 9.6542769,5.4266657 9.3667252,5.8773471 9.3257487,6.2897843 9.3261519,6.5985407 9.3269583,7.2160535 9.480131,7.6099417 9.6777144,8.0946345 a 1.80018,1.80018 0 0 0 0.00781,0.019531 c 0.1420044,0.33724 0.7568456,1.9086795 1.3691406,3.4179685 0.306147,0.754644 0.618223,1.507198 0.892578,2.136719 0.262213,0.601661 0.41223,0.982424 0.728515,1.470703 -1.043931,0.83698 -1.953729,1.76951 -2.7480461,2.787109 -1.8143929,-0.927391 -4.120743,-1.0726 -6.0742162,0.179689 a 1.80018,1.80018 0 0 0 -0.1347656,0.0957 c -2.0760208,1.614712 -2.89590976,4.34639 -2.4843748,7.160156 0.238231,1.628859 0.8416014,3.084876 1.9140622,4.152344 1.0724611,1.067468 2.5472509,1.640539 4.1308594,1.763671 l -0.041016,-0.0039 c 0.4609635,0.04686 0.7700433,0.275877 1.4492188,0.751953 a 1.80018,1.80018 0 0 0 0.041016,0.02734 c 2.0295013,1.343726 5.1482463,1.980784 8.9296873,2.287109 3.009485,0.243871 6.253542,0.04128 8.27539,-0.376953 a 1.8,1.8 0 0 0 1.398438,-2.126953 1.8,1.8 0 0 0 -2.128906,-1.398437 c -1.430812,0.29597 -4.648431,0.525584 -7.253906,0.314453 C 14.51156,30.474363 11.497903,29.57014 10.714824,29.051666 10.154021,28.654907 9.1253359,27.847198 7.6015425,27.692291 a 1.80018,1.80018 0 0 0 -0.042969,-0.0039 C 6.6098423,27.614617 6.0842341,27.356729 5.6874801,26.961822 5.290726,26.566915 4.9563833,25.93147 4.7968551,24.840728 4.526445,22.991869 4.9817675,21.852634 5.8769332,21.116119 c 0.74258,-0.430013 1.8182696,-0.385728 2.5292969,0.01367 a 1.80018,1.80018 0 0 0 0.00586,0.0039 c 0.5379846,0.299641 1.2785329,0.719063 2.3085939,0.511719 1.005912,-0.202483 1.568216,-0.862247 2.027344,-1.488281 l 0.002,-0.002 c 0.654462,-0.840944 1.371082,-1.579951 2.208984,-2.246094 l 0.01758,-0.01367 c 0.587986,-0.457581 1.199243,-1.138246 1.371093,-2.087891 0.17349,-0.958701 -0.167815,-1.858855 -0.628906,-2.574218 a 1.80018,1.80018 0 0 0 -0.01567,-0.02534 c 0.09597,0.143646 -0.204844,-0.397907 -0.457031,-0.976563 -0.06047,-0.138741 -0.139452,-0.33765 -0.205078,-0.492187 0.386417,0.329647 0.793232,0.728551 1.164062,1.033203 1.647792,1.353728 2.983356,2.38938 4.158203,2.964844 2.119474,1.038063 4.838077,1.276706 7.716797,1.111328 2.87872,-0.165378 5.880917,-0.790564 8.382812,-1.925781 2.541751,-1.153318 4.764308,-2.985354 6.59961,-5.2148443 -0.182365,1.9182563 -0.486413,3.5803673 -1.091797,4.8007813 -0.660986,1.332539 -2.388793,3.179534 -3.794922,4.183594 -1.034463,0.738642 -1.718648,1.847673 -2.205078,3.164063 -0.966898,2.61659 -1.726746,3.782125 -3.009766,5.130859 a 1.8,1.8 0 0 0 0.06445,2.544922 1.8,1.8 0 0 0 2.544922,-0.06445 c 1.555021,-1.634667 2.701989,-3.458473 3.775391,-6.363282 0.38615,-1.04501 0.480778,-1.167463 0.921875,-1.482422 1.87203,-1.33674 3.834313,-3.305411 4.929687,-5.513671 1.369712,-2.761247 1.696965,-6.005972 1.669922,-10.1054694 v -0.00195 c -0.0017,-0.4502555 -0.02792,-0.8696556 -0.0957,-1.2753907 -0.06789,-0.4063529 -0.109335,-0.782313 -0.5,-1.3398437 -0.195332,-0.2787715 -0.552722,-0.6632928 -1.158203,-0.8222718 -0.15137,-0.039745 -0.306382,-0.05708 -0.458984,-0.056641 z M 12.693339,15.184478 c 0.0062,0.0097 -0.0017,-0.0089 0.0039,0 0.0052,0.0079 0.0064,0.01547 0.01172,0.02344 z m 5.386719,1.689454 a 2.497762,2.497762 0 0 0 -2.496094,2.498046 2.497762,2.497762 0 0 0 2.496094,2.496094 2.497762,2.497762 0 0 0 2.498047,-2.496094 2.497762,2.497762 0 0 0 -2.498047,-2.498046 z m 5.697265,0.982422 a 3.1602268,3.1602268 0 0 0 -3.160155,3.160156 3.1602268,3.1602268 0 0 0 3.160155,3.160156 3.1602268,3.1602268 0 0 0 3.160157,-3.160156 3.1602268,3.1602268 0 0 0 -3.160157,-3.160156 z m 3.253907,7.574218 a 1.8,1.8 0 0 0 -1.222657,0.517578 1.8,1.8 0 0 0 -0.01953,2.544922 l 7.714844,7.835938 a 1.8,1.8 0 0 0 2.544922,0.01953 1.8,1.8 0 0 0 0.01953,-2.544922 L 28.353495,25.967681 A 1.8,1.8 0 0 0 27.03123,25.430572 Z m 11.074219,10.644532 a 1.20012,1.20012 0 0 0 -0.910157,0.384765 l -0.964843,1.042969 a 1.20012,1.20012 0 0 0 -0.234376,1.257812 c 0.891473,2.246353 2.092615,3.316618 3.34961,3.955078 1.256995,0.638462 2.460739,0.996636 4.333984,2.511719 A 1.20012,1.20012 0 0 0 45.28123,43.444244 C 43.571114,41.742242 43.218165,40.560035 42.582011,39.289947 41.945857,38.01986 40.793576,36.745509 38.378886,36.114166 a 1.20012,1.20012 0 0 0 -0.273437,-0.03906 z m 0.642578,2.761718 c 0.8788,0.370967 1.306574,0.768775 1.6875,1.529297 0.03551,0.0709 0.103608,0.201623 0.140625,0.279297 -0.03839,-0.01881 -0.10789,-0.04975 -0.144532,-0.06836 -0.736778,-0.37423 -1.195287,-0.851098 -1.683593,-1.740234 z" fill="#008055"/>
</svg>
