<svg xmlns="http://www.w3.org/2000/svg" width="48" height="48">
	<path d="M 32.373616,2.4462897 10.408772,2.4853522 C 8.7315588,2.4860735 7.1008525,2.9455439 5.9243972,4.0888678 4.7470179,5.2330896 4.2232253,6.8965613 4.2232253,8.6552741 V 39.364258 c 0,1.640161 0.5381282,3.236101 1.6582032,4.398438 1.1200749,1.162337 2.7648128,1.791015 4.5312505,1.791015 h 21.964843 c 1.720415,0 3.394246,-0.372966 4.722657,-1.447265 1.328411,-1.0743 2.078125,-2.836706 2.078125,-4.742188 V 25.139649 a 2,2 0 0 0 -2,-2 2,2 0 0 0 -2,2 v 14.224609 c 0,1.009518 -0.230233,1.340412 -0.591797,1.632813 -0.361564,0.2924 -1.087099,0.55664 -2.208985,0.55664 H 10.412679 c -0.8893636,0 -1.3399661,-0.244268 -1.6503912,-0.566406 C 8.4518628,40.665167 8.2232253,40.167997 8.2232253,39.364258 V 8.6552741 c 0,-1.0320873 0.2382105,-1.4542374 0.4882813,-1.6972657 C 8.9615773,6.7149802 9.423281,6.4853522 10.412679,6.4853522 a 2.0002,2.0002 0 0 0 0.0039,0 l 21.960937,-0.039062 c 0.895846,0 1.622188,0.2653363 2.070313,0.6289062 0.448125,0.36357 0.706085,0.7789908 0.730469,1.6015625 a 2,2 0 0 0 2.058594,1.9394531 2,2 0 0 0 1.939453,-2.0585937 C 39.120934,6.6881895 38.259566,5.0181072 36.967366,3.9697272 35.675166,2.9213471 34.042777,2.4462897 32.377522,2.4462897 a 2.0002,2.0002 0 0 0 -0.0039,0 z M 17.750569,12.688477 c -1.217807,0 -2.454759,0.295665 -3.384765,1.164062 -0.930006,0.868398 -1.310547,2.145483 -1.310547,3.373047 v 13.373047 c 0,0.758821 0.05766,1.4401 0.375,2.15625 0.317341,0.716151 1.11603,1.465086 1.972656,1.648438 1.713252,0.366704 2.714848,-0.438887 3.931641,-1.246094 a 1.90019,1.90019 0 0 0 0.01172,-0.0078 L 41.33846,18.305664 a 1.90019,1.90019 0 0 0 0.0078,-0.0039 c 0.576822,-0.392908 1.055847,-0.753276 1.478516,-1.179687 0.422669,-0.426412 1.040422,-0.930984 0.941406,-2.179688 -0.04951,-0.624352 -0.453472,-1.263942 -0.855468,-1.582031 -0.401984,-0.318095 -0.765596,-0.43588 -1.097645,-0.519537 -0.664096,-0.167316 -1.28814,-0.178597 -2.082031,-0.152344 z m 0,3.798828 H 37.240804 L 17.232991,29.991211 c -0.165467,0.10977 -0.234083,0.112969 -0.376953,0.185547 V 17.225586 c 0,-0.548435 0.0946,-0.5892 0.101563,-0.595703 0.007,-0.0065 0.167316,-0.142578 0.792968,-0.142578 z" fill="#008055"/>
</svg>
