<svg xmlns="http://www.w3.org/2000/svg" width="48" height="48">
	<path d="M 13.272461,9.0117189 A 1.8,1.8 0 0 0 11.473633,10.8125 1.8,1.8 0 0 0 13.272461,12.613281 H 35.450196 A 1.8,1.8 0 0 0 37.250977,10.8125 1.8,1.8 0 0 0 35.450196,9.0117189 Z M 4.1787111,11.550781 c -0.5091786,0.03986 -1.0243214,0.196292 -1.4433593,0.513672 -0.8380761,0.634761 -1.0775798,1.437053 -1.21875,2.101563 -0.1411705,0.664509 -0.1679688,1.313115 -0.1679688,2.003906 v 19.810547 a 2,2 0 0 0 2,2 2,2 0 0 0 2,-2 V 16.316406 l 14.6875,12.486328 a 2.0002,2.0002 0 0 0 0.15625,0.121094 c 1.147704,0.793898 2.483101,1.279895 3.859375,1.228516 1.376274,-0.05138 2.683095,-0.630338 3.814453,-1.521485 a 2.0002,2.0002 0 0 0 0.04883,-0.04102 l 14.736326,-12.39062 v 19.78125 a 2,2 0 0 0 2,2 2,2 0 0 0 2,-2 V 16.169922 c 0,-0.709956 -0.04422,-1.381707 -0.21875,-2.064453 -0.174533,-0.682746 -0.488926,-1.481283 -1.320312,-2.064453 -0.831386,-0.583171 -1.999685,-0.592955 -2.810547,-0.308594 -0.810862,0.284361 -1.475284,0.756477 -2.210938,1.394531 L 25.389649,25.488281 c -0.645763,0.508654 -1.102664,0.65162 -1.488282,0.666016 -0.378275,0.01412 -0.803436,-0.09984 -1.40625,-0.509766 L 7.7626955,13.121094 l -0.00195,-0.002 C 7.0205646,12.489006 6.3777089,12.02634 5.5869142,11.734375 5.1911033,11.58824 4.6878898,11.510917 4.1787111,11.550781 Z M 11.682617,35.388672 A 1.8,1.8 0 0 0 9.8837892,37.1875 1.8,1.8 0 0 0 11.682617,38.988281 H 36.979492 A 1.8,1.8 0 0 0 38.780274,37.1875 1.8,1.8 0 0 0 36.979492,35.388672 Z" fill="#008055"/>
</svg>
