<svg xmlns="http://www.w3.org/2000/svg" width="48" height="48">
	<path d="m 24.124023,0.8593764 c -4.280252,0 -8.044921,3.4200802 -8.044921,8.2246092 0,3.9252544 2.294667,6.4693594 4.789062,7.7851564 l -0.05859,-0.0332 c 0.657793,0.37978 1.019181,0.678755 1.16211,0.861328 0.142928,0.182574 0.197265,0.256721 0.197265,0.730469 v 1.699219 a 1.8,1.8 0 0 0 1.798828,1.800781 1.8,1.8 0 0 0 1.800782,-1.800781 v -1.699219 c 0,-1.082952 -0.343439,-2.159896 -0.962891,-2.951172 -0.619452,-0.791276 -1.386118,-1.289492 -2.197266,-1.757812 a 1.80018,1.80018 0 0 0 -0.06055,-0.0332 c -1.847205,-0.974403 -2.869141,-1.873416 -2.869141,-4.6015634 0,-3.073471 1.917245,-4.623047 4.445312,-4.623047 1.52552,0 2.665212,0.467763 3.445313,1.21875 0.780101,0.750988 1.27539,1.825457 1.27539,3.404297 0,1.5126834 -0.496221,2.2776324 -0.960937,2.7812504 -0.464716,0.503618 -0.791016,0.621094 -0.791016,0.621094 a 1.8,1.8 0 0 0 -0.99414,2.34375 1.8,1.8 0 0 0 2.34375,0.99414 c 0,0 1.112633,-0.462796 2.085937,-1.517578 0.973304,-1.054781 1.916016,-2.826939 1.916016,-5.2226564 0,-2.39416 -0.854087,-4.530134 -2.378906,-5.998047 C 28.540611,1.6180266 26.419404,0.8593764 24.124023,0.8593764 Z M 9.2763671,15.443361 c -2.3941577,0 -4.5301342,0.854086 -5.9980469,2.378906 -1.4679122,1.524821 -2.2246092,3.646025 -2.2246092,5.941407 0,4.280211 3.4181346,8.044922 8.2226561,8.044922 3.9252469,0 6.4693569,-2.294664 7.7851559,-4.789063 l -0.0332,0.05859 c 0.379772,-0.657805 0.678774,-1.019202 0.861328,-1.16211 0.182555,-0.142907 0.256687,-0.195312 0.730469,-0.195312 h 1.699219 A 1.8,1.8 0 0 0 22.12012,23.91992 1.8,1.8 0 0 0 20.319339,22.119138 H 18.62012 c -1.082917,0 -2.157923,0.343448 -2.949219,0.962891 -0.791295,0.619443 -1.291437,1.38607 -1.759765,2.197266 a 1.80018,1.80018 0 0 0 -0.0332,0.06055 c -0.974401,1.8472 -1.87339,2.86914 -4.6015629,2.86914 -3.0734585,0 -4.6230469,-1.917324 -4.6230469,-4.445312 0,-1.525519 0.4677601,-2.665209 1.21875,-3.445313 0.75099,-0.780104 1.8254647,-1.275391 3.4042969,-1.275391 1.5126899,0 2.2776329,0.49623 2.7812499,0.960938 0.503617,0.464708 0.621094,0.791016 0.621094,0.791016 a 1.8,1.8 0 0 0 2.34375,0.99414 1.8,1.8 0 0 0 0.994141,-2.34375 c 0,0 -0.462795,-1.112645 -1.517579,-2.085937 C 13.44424,16.386085 11.672078,15.443361 9.2763671,15.443361 Z M 38.72168,15.919924 c -3.925239,0 -6.469349,2.296621 -7.785157,4.791015 l 0.0332,-0.06055 c -0.379765,0.657803 -0.676823,1.021157 -0.859374,1.164063 -0.182552,0.142906 -0.256687,0.195312 -0.730469,0.195312 h -1.701172 a 1.8,1.8 0 0 0 -1.798828,1.800782 1.8,1.8 0 0 0 1.798828,1.798828 h 1.701172 c 1.082917,0 2.157923,-0.341494 2.949219,-0.960938 0.791295,-0.619444 1.289488,-1.386068 1.757812,-2.197265 a 1.80018,1.80018 0 0 0 0.0332,-0.06055 c 0.974412,-1.847206 1.873402,-2.871094 4.601563,-2.871094 3.07347,0 4.625,1.917321 4.625,4.445313 0,1.525519 -0.467762,2.665209 -1.21875,3.445312 -0.750989,0.780103 -1.827412,1.275391 -3.40625,1.275391 -1.512684,0 -2.275678,-0.496229 -2.779297,-0.960938 -0.503619,-0.464709 -0.623047,-0.789062 -0.623047,-0.789062 a 1.8,1.8 0 0 0 -2.34375,-0.994141 1.8,1.8 0 0 0 -0.994141,2.34375 c 0,0 0.464748,1.112647 1.519531,2.085938 1.054784,0.973289 2.824997,1.914062 5.220704,1.914062 2.394161,0 4.532088,-0.854085 6,-2.378906 1.467911,-1.524822 2.224609,-3.646026 2.224609,-5.941406 0,-4.280209 -3.42008,-8.044922 -8.224609,-8.044922 z M 23.981445,26.07422 a 1.8,1.8 0 0 0 -1.800781,1.798829 v 1.701171 c 0,1.082918 0.341494,2.157924 0.960938,2.949219 0.619441,0.791296 1.388023,1.291437 2.199218,1.759766 a 1.80018,1.80018 0 0 0 0.05859,0.0332 c 1.847197,0.974399 2.871094,1.871448 2.871094,4.599609 0,3.073471 -1.917321,4.625 -4.445313,4.625 -1.525519,0 -2.665209,-0.467761 -3.445312,-1.21875 -0.780104,-0.750988 -1.275391,-1.827411 -1.275391,-3.40625 0,-1.512688 0.496228,-2.275679 0.960938,-2.779297 0.46471,-0.503616 0.789062,-0.623046 0.789062,-0.623046 a 1.8,1.8 0 0 0 0.994141,-2.341797 1.8,1.8 0 0 0 -2.341797,-0.994141 c 0,0 -1.114596,0.462795 -2.087891,1.517578 -0.973295,1.054783 -1.914062,2.824991 -1.914062,5.220703 0,2.394162 0.854084,4.532089 2.378906,6 1.524822,1.467912 3.646026,2.22461 5.941406,2.22461 4.280208,0 8.044922,-3.42008 8.044922,-8.22461 0,-3.925239 -2.296613,-6.469355 -4.791015,-7.785156 l 0.06055,0.0332 c -0.657804,-0.379771 -1.019202,-0.67682 -1.162109,-0.859375 -0.142907,-0.182554 -0.197266,-0.256686 -0.197266,-0.730469 v -1.701171 a 1.8,1.8 0 0 0 -1.798828,-1.798829 z" fill="#008055"/>
</svg>
