<svg xmlns="http://www.w3.org/2000/svg" width="48" height="48">
	<path d="m 13.324217,1.8251959 c -1.64603,0 -3.256235,0.4687392 -4.5273436,1.5 C 7.5257648,4.3564567 6.6796118,5.995598 6.6249984,7.838868 a 1.90019,1.90019 0 0 0 -0.00195,0.05664 v 32.189453 c 0,1.883094 0.7367757,3.61127 2.0410157,4.666016 1.3042399,1.054746 2.9547289,1.423828 4.6601559,1.423828 a 1.9,1.9 0 0 0 1.900391,-1.898437 1.9,1.9 0 0 0 -1.900391,-1.900391 c -1.136812,0 -1.885739,-0.268124 -2.271484,-0.580078 C 10.666991,41.483945 10.42383,41.116868 10.42383,40.084961 V 7.952149 c 0.02515,-0.84873 0.298349,-1.295092 0.767578,-1.675781 0.468836,-0.38037 1.216803,-0.6499385 2.130859,-0.6503909 l 21.962891,0.037109 a 1.90019,1.90019 0 0 0 0.0039,0 c 1.006621,0 1.498227,0.2363879 1.771484,0.5019539 0.273258,0.265565 0.517579,0.71922 0.517579,1.769531 v 32.15039 c 0,0.824653 -0.235728,1.350193 -0.566407,1.69336 -0.330678,0.343166 -0.81137,0.597656 -1.722656,0.597656 H 18.617186 a 1.9,1.9 0 0 0 -1.900391,1.900391 1.9,1.9 0 0 0 1.900391,1.898437 h 16.671875 c 1.744544,0 3.359161,-0.618407 4.458984,-1.759765 1.099824,-1.141359 1.628907,-2.71083 1.628907,-4.330079 V 7.934571 c 0,-1.740589 -0.513769,-3.3724316 -1.667969,-4.4941412 C 38.555701,2.3196122 36.952923,1.8649797 35.292967,1.864258 h -0.0039 L 13.328124,1.8251959 a 1.90019,1.90019 0 0 0 -0.0039,0 z M 24.316405,8.07129 C 23.26304,8.05252 22.19767,8.18977 21.152342,8.497071 c -4.181311,1.229205 -7.187176,4.912708 -7.550781,9.253906 -0.363606,4.341198 1.986701,8.474763 5.904297,10.384766 a 1.7997266,1.8002734 70.999525 0 0 2.40625,-0.830078 1.7997266,1.8002734 70.999525 0 0 -0.828125,-2.408204 c -2.593394,-1.264395 -4.136964,-3.974546 -3.896484,-6.845703 0.240478,-2.871157 2.211882,-5.286286 4.978515,-6.099609 2.766633,-0.813324 5.737106,0.149602 7.498047,2.433594 1.760941,2.283992 1.935944,5.39704 0.44336,7.861328 a 1.7997266,1.8002734 70.999525 0 0 0.607421,2.472656 1.7997266,1.8002734 70.999525 0 0 2.472657,-0.609375 C 35.444584,20.383853 35.174316,15.639413 32.513671,12.188477 30.518187,9.600276 27.476499,8.127592 24.316405,8.07129 Z m 0.90625,12.220703 c -0.177645,0.0162 -0.355421,0.0595 -0.521484,0.138672 -0.664254,0.316676 -0.844925,0.777697 -0.962891,1.078125 -0.117967,0.300427 -0.165182,0.55231 -0.205078,0.822265 -0.07979,0.53991 -0.103516,1.146219 -0.103516,1.892578 l -0.01172,9.960938 a 1.6,1.6 0 0 0 1.597657,1.601562 1.6,1.6 0 0 0 1.601562,-1.597656 l 0.0078,-6.316406 3.705078,8.6875 h -4.400391 a 1.6,1.6 0 0 0 -1.599609,1.599609 1.6,1.6 0 0 0 1.599609,1.601563 h 5.035156 c 0.938028,0 2.020968,-0.385843 2.546875,-1.326172 0.525908,-0.94033 0.319299,-1.967145 -0.07813,-2.746094 l 0.04688,0.09961 -5.402343,-12.66211 c -0.301886,-0.743506 -0.553519,-1.291785 -0.867188,-1.769531 -0.156834,-0.238873 -0.310969,-0.47089 -0.658203,-0.726563 -0.173617,-0.127836 -0.470083,-0.256971 -0.806641,-0.314453 -0.168279,-0.02874 -0.345792,-0.03964 -0.523437,-0.02344 z" fill="#008055"/>
</svg>
