<svg xmlns="http://www.w3.org/2000/svg" width="48" height="48">
	<path d="M 9.886718,4.5351561 C 8.142153,4.5350905 6.529529,5.1535677 5.429687,6.2949218 4.329845,7.4362759 3.798828,9.0077049 3.798828,10.626953 v 18.111328 a 1.9,1.9 0 0 0 1.90039,1.900391 1.9,1.9 0 0 0 1.898438,-1.900391 V 10.626953 c 0,-0.8246521 0.237694,-1.3521661 0.568359,-1.6953121 0.330666,-0.343146 0.809418,-0.595738 1.720703,-0.595703 h 27.615235 c 1.13679,0 1.885729,0.26615 2.271484,0.578124 0.385755,0.311975 0.628906,0.680982 0.628906,1.7128911 l 0.02148,23.552735 a 1.90019,1.90019 0 0 0 1.90039,1.898437 c 0.08775,0 0.165053,0.0054 0.363282,0.279297 0.198229,0.27385 0.386718,0.79247 0.386718,1.353516 0,0.826808 -0.62051,1.955078 -2.90039,1.955078 H 7.214843 c -1.023937,3.8e-5 -1.577407,-0.243897 -1.841797,-0.47461 -0.264389,-0.230713 -0.447265,-0.519098 -0.447265,-1.34375 0,-0.827719 0.170457,-1.040071 0.478515,-1.279297 0.308059,-0.239225 0.977872,-0.482119 2.013672,-0.490234 h 28.986328 a 1.9,1.9 0 0 0 1.900391,-1.900391 1.9,1.9 0 0 0 -1.900391,-1.898437 H 7.402343 a 1.90019,1.90019 0 0 0 -0.013671,0 c -1.56804,0.01228 -3.08675,0.33221 -4.316407,1.287109 -1.229656,0.9549 -1.947265,2.569069 -1.947265,4.28125 0,1.619248 0.583881,3.189445 1.75,4.207032 1.166118,1.017586 2.70793,1.410217 4.339843,1.410156 h 32.958985 c 3.85092,0 6.701172,-2.675315 6.701172,-5.753906 0,-1.311555 -0.367637,-2.557332 -1.109375,-3.582032 -0.38758,-0.535435 -0.922096,-0.996631 -1.542969,-1.333984 l -0.02148,-22.167969 c 0,-1.8830911 -0.734838,-3.6112399 -2.039063,-4.6660156 -1.304229,-1.0547757 -2.954711,-1.4257813 -4.66016,-1.4257813 z" fill="#008055"/>
</svg>
