<svg xmlns="http://www.w3.org/2000/svg" width="48" height="48">
	<path d="m 8.628905,6.0488279 c -1.720409,0 -3.396209,0.3729518 -4.7246089,1.4472656 -1.3284001,1.0743138 -2.078125,2.8386505 -2.078125,4.7441405 l 0.00195,19.539063 c 0,1.807671 0.7794217,3.493639 2.0605469,4.578125 1.2811249,1.084485 2.9635099,1.591797 4.7402339,1.591797 h 12.626954 v 1.708984 c 0,1.03212 -0.23625,1.454227 -0.486328,1.697266 -0.250079,0.243037 -0.711786,0.472656 -1.701172,0.472656 h -8.158204 a 2,2 0 0 0 -2,2 2,2 0 0 0 2,2 h 8.158204 c 1.678604,0 3.310902,-0.45928 4.488281,-1.603516 1.177379,-1.144236 1.699219,-2.807666 1.699219,-4.566406 v -3.708984 a 2.0002,2.0002 0 0 0 -2,-2 H 8.628905 c -1.014564,0 -1.734636,-0.287633 -2.15625,-0.644532 C 6.051044,32.947788 5.828124,32.546045 5.828124,31.779297 L 5.826171,12.240234 c 0,-1.0095 0.232165,-1.340389 0.59375,-1.632812 0.361585,-0.292424 1.087155,-0.558594 2.208984,-0.558594 h 31.355469 c 0.889363,0 1.339956,0.246203 1.650391,0.568359 0.310435,0.322156 0.539062,0.819312 0.539062,1.623047 v 19.539063 c 0,1.03212 -0.238202,1.454227 -0.488281,1.697265 -0.250078,0.243039 -0.711786,0.472657 -1.701172,0.472657 H 28.714843 a 2,2 0 0 0 -2,2 2,2 0 0 0 2,2 h 11.269531 c 1.678604,0 3.310902,-0.45928 4.488281,-1.603516 1.17738,-1.144236 1.701172,-2.807667 1.701172,-4.566406 V 12.240234 c 0,-1.640155 -0.538135,-3.2380339 -1.658203,-4.4003905 C 43.395557,6.6774869 41.750841,6.0488279 39.984374,6.0488279 Z M 23.68164,13.626953 c -4.410318,0.106 -8.714303,1.902801 -11.927735,5.072266 a 1.7,1.7 0 0 0 -0.01562,2.402343 1.7,1.7 0 0 0 2.404296,0.01758 c 5.202576,-5.131391 13.716559,-5.924175 19.716797,-0.0059 a 1.7,1.7 0 0 0 2.402344,-0.01758 1.7,1.7 0 0 0 -0.01563,-2.402344 C 32.608952,15.105877 28.091958,13.520953 23.68164,13.626953 Z m 0.251953,4.904297 c -3.160646,-0.04402 -6.325986,1.113373 -8.773438,3.527343 a 1.6,1.6 0 0 0 -0.01562,2.263672 1.6,1.6 0 0 0 2.261718,0.01563 c 3.675076,-3.624799 9.332873,-3.483828 13.023438,0.15625 a 1.6,1.6 0 0 0 2.261718,-0.01563 1.6,1.6 0 0 0 -0.01562,-2.263672 C 30.249082,19.821344 27.094239,18.57527 23.933593,18.53125 Z m 0.105469,4.988281 c -1.860512,0.0019 -3.729374,0.710541 -5.212891,2.113281 a 1.5,1.5 0 0 0 -0.06055,2.121094 1.5,1.5 0 0 0 2.121094,0.05859 c 1.953127,-1.84678 4.354453,-1.85078 6.203125,-0.02734 a 1.5,1.5 0 0 0 2.123047,-0.01563 1.5,1.5 0 0 0 -0.01563,-2.121094 c -1.446194,-1.426452 -3.297691,-2.130836 -5.158203,-2.128906 z m -0.09766,4.466797 a 2.0292954,2.0015316 0 0 0 -1.966796,2.001953 2.0292954,2.0015316 0 0 0 2.029296,2.001953 2.0292954,2.0015316 0 0 0 2.029297,-2.001953 2.0292954,2.0015316 0 0 0 -2.029297,-2.001953 2.0292954,2.0015316 0 0 0 -0.0625,0 z m 4.132813,13.841797 a 2,2 0 0 0 -2,2 2,2 0 0 0 2,2 h 7.140625 a 2,2 0 0 0 2,-2 2,2 0 0 0 -2,-2 z" fill="#008055"/>
</svg>
