<svg xmlns="http://www.w3.org/2000/svg" width="48" height="48">
	<path d="m 25.506673,4.3514857 c -2.022352,0.035804 -4.061298,0.3837964 -6.044922,1.0625 C 11.527258,8.1288003 6.1737115,15.575957 6.1472982,23.941329 6.1208842,32.3067 11.426852,39.782839 19.342611,42.546798 c 7.915758,2.763958 16.740187,0.226675 21.960937,-6.322266 a 2.1989691,2.2010304 52.000073 0 0 -0.345703,-3.09375 2.1989691,2.2010304 52.000073 0 0 -3.09375,0.353516 C 33.804003,38.577303 26.965611,40.546165 20.797689,38.392501 14.629765,36.238837 10.52521,30.449933 10.545736,23.949142 10.566266,17.44835 14.703663,11.692544 20.883626,9.5780483 27.063591,7.463552 33.893353,9.4754033 37.922689,14.595626 a 2.1989691,2.2010304 52.000073 0 0 3.089843,0.365234 2.1989691,2.2010304 52.000073 0 0 0.369141,-3.089843 C 37.49832,6.9362988 31.57373,4.2440729 25.506673,4.3514857 Z m 0.6875,11.6015623 a 1.90019,1.90019 0 0 0 -1.046875,0.365234 l -8.408203,6.148438 a 1.90019,1.90019 0 0 0 0,3.066406 l 8.408203,6.148437 a 1.90019,1.90019 0 0 0 2.919922,-0.923828 c 0.310794,-0.918704 0.80543,-1.552324 1.470703,-2.246093 a 1.9,1.9 0 0 0 -0.05469,-2.685547 1.9,1.9 0 0 0 -2.6875,0.05469 c -0.386766,0.403332 -0.796476,0.888515 -1.181641,1.4375 l -4.535156,-3.318359 4.308593,-3.148438 c 1.46478,2.774673 4.244946,5.048828 7.992188,5.048828 h 4.607422 a 1.9,1.9 0 0 0 1.90039,-1.90039 1.9,1.9 0 0 0 -1.90039,-1.900391 H 33.37972 c -2.84839,0 -4.77529,-2.360438 -5.251953,-4.636719 a 1.90019,1.90019 0 0 0 -1.933594,-1.509765 z" fill="#008055"/>
</svg>
