<svg xmlns="http://www.w3.org/2000/svg" width="48" height="48">
	<path d="M 14.709961,3.7299054 A 1.80018,1.80018 0 0 0 13.06543,6.1244366 c 0.700551,1.9979628 0.492369,3.6425087 -0.22461,4.7539064 -0.716978,1.111397 -1.982905,1.892578 -4.2128902,1.892578 -1.7386262,0 -3.3712301,0.496808 -4.609375,1.544922 -1.2381449,1.048112 -1.9921875,2.668209 -1.9921875,4.423828 v 19.539062 c 0,1.860694 0.7238491,3.554617 2.0039063,4.589844 1.2800572,1.035227 2.9071712,1.402344 4.5976562,1.402344 H 39.983399 c 1.722616,0 3.307135,-0.610116 4.386719,-1.730469 1.079583,-1.120354 1.603515,-2.663381 1.603515,-4.261719 V 18.739671 c 0,-1.722386 -0.509623,-3.322691 -1.640625,-4.421875 -1.131002,-1.099185 -2.705448,-1.546875 -4.349609,-1.546875 H 29.65918 a 1.8,1.8 0 0 0 -1.798828,1.798828 1.8,1.8 0 0 0 1.798828,1.800781 h 10.324219 c 1.023829,0 1.545341,0.241181 1.841797,0.529297 0.296455,0.288115 0.546875,0.771429 0.546875,1.839844 v 19.539062 c 0,0.845562 -0.242831,1.3995 -0.59375,1.763672 -0.350919,0.364172 -0.861709,0.628906 -1.794922,0.628906 H 8.6279298 c -1.151755,0 -1.9240566,-0.271992 -2.3339843,-0.603515 C 5.8840175,39.736273 5.6259767,39.333039 5.6259767,38.278733 V 18.739671 c 0,-0.818781 0.2522043,-1.282495 0.7167969,-1.675782 0.4645926,-0.393286 1.2324924,-0.693359 2.2851562,-0.693359 3.1693652,0 5.8154972,-1.333584 7.2382812,-3.539063 0.851083,-1.319274 1.109802,-2.8983806 1.082032,-4.5410147 3.148692,1.588795 5.235717,4.3461867 5.298828,6.3359367 a 1.8,1.8 0 0 0 1.857422,1.742188 1.8,1.8 0 0 0 1.742187,-1.855469 C 25.690595,9.5921121 21.134482,5.1168552 15.15918,3.7728742 A 1.80018,1.80018 0 0 0 14.709961,3.7299054 Z M 10.395508,20.354905 a 1.7,1.7 0 0 0 -1.6992188,1.699219 1.7,1.7 0 0 0 1.6992188,1.701172 h 27.492188 a 1.7,1.7 0 0 0 1.699218,-1.701172 1.7,1.7 0 0 0 -1.699218,-1.699219 z m 0,6.304688 a 1.7,1.7 0 0 0 -1.6992188,1.699218 1.7,1.7 0 0 0 1.6992188,1.701172 h 27.492188 a 1.7,1.7 0 0 0 1.699218,-1.701172 1.7,1.7 0 0 0 -1.699218,-1.699218 z m 0,6.304687 a 1.7,1.7 0 0 0 -1.6992188,1.701172 1.7,1.7 0 0 0 1.6992188,1.699219 h 27.492188 a 1.7,1.7 0 0 0 1.699218,-1.699219 1.7,1.7 0 0 0 -1.699218,-1.701172 z" fill="#008055"/>
</svg>
