<svg xmlns="http://www.w3.org/2000/svg" width="48" height="48">
	<path d="M 32.6875 5.4375 A 2.2010304 2.1989691 52.000073 0 0 30.757812 6.5410156 A 2.2010304 2.1989691 52.000073 0 0 31.570312 9.5449219 C 37.574681 12.992971 40.516855 20.043812 38.744141 26.765625 C 36.971426 33.487438 30.945138 38.150281 24.029297 38.164062 C 17.113455 38.177844 11.07239 33.539563 9.2734375 26.826172 C 7.4744844 20.112782 10.386184 13.049309 16.378906 9.5761719 A 2.2010304 2.1989691 52.000073 0 0 17.177734 6.5683594 A 2.2010304 2.1989691 52.000073 0 0 14.169922 5.7675781 C 8.3951686 9.1143899 4.8400608 15.080534 4.3964844 21.488281 C 4.2486256 23.624197 4.4464122 25.809528 5.0234375 27.962891 C 7.331539 36.57634 15.146458 42.582178 24.041016 42.564453 C 32.935573 42.546729 40.724396 36.511899 42.998047 27.890625 C 45.271698 19.269351 41.479087 10.163341 33.759766 5.7304688 A 2.2010304 2.1989691 52.000073 0 0 32.6875 5.4375 z M 16.896484 21.169922 A 2.2 2.2 0 0 0 14.695312 23.369141 A 2.2 2.2 0 0 0 16.896484 25.570312 L 31.103516 25.570312 A 2.2 2.2 0 0 0 33.304688 23.369141 A 2.2 2.2 0 0 0 31.103516 21.169922 L 16.896484 21.169922 z " fill="#008055"/>
</svg>
