<svg xmlns="http://www.w3.org/2000/svg" width="48" height="48">
	<path d="M 14.240234 1.9277344 C 12.620987 1.9277344 11.051506 2.4568176 9.9101562 3.5566406 C 8.7688065 4.6564636 8.1503906 6.2710957 8.1503906 8.015625 L 8.1503906 39.371094 C 8.1503906 41.076523 8.5194448 42.728991 9.5742188 44.033203 C 10.628993 45.337415 12.357155 46.072266 14.240234 46.072266 A 1.9 1.9 0 0 0 16.140625 44.173828 A 1.9 1.9 0 0 0 14.240234 42.273438 C 13.208323 42.273438 12.84126 42.030269 12.529297 41.644531 C 12.217333 41.258793 11.949219 40.507864 11.949219 39.371094 L 11.949219 8.015625 C 11.949219 7.1043543 12.203712 6.6236458 12.546875 6.2929688 C 12.890038 5.9622917 13.415592 5.7265625 14.240234 5.7265625 L 33.78125 5.7265625 C 34.83154 5.7265625 35.283263 5.9708843 35.548828 6.2441406 C 35.814394 6.5173969 36.050781 7.0090023 36.050781 8.015625 L 36.050781 39.371094 C 36.050781 40.404718 35.755945 41.148704 35.380859 41.591797 C 35.005774 42.034889 34.574029 42.273438 33.78125 42.273438 L 19.923828 42.273438 A 1.9 1.9 0 0 0 18.025391 44.173828 A 1.9 1.9 0 0 0 19.923828 46.072266 L 33.78125 46.072266 C 35.562891 46.072266 37.21495 45.306508 38.28125 44.046875 C 39.34755 42.787242 39.849609 41.128769 39.849609 39.371094 L 39.849609 8.015625 C 39.849609 6.3542477 39.3971 4.75185 38.275391 3.5976562 C 37.153681 2.4434626 35.52182 1.9277344 33.78125 1.9277344 L 14.240234 1.9277344 z M 24 35.029297 A 2.7037551 -2.7037551 0 0 0 21.296875 37.732422 A 2.7037551 -2.7037551 0 0 0 24 40.435547 A 2.7037551 -2.7037551 0 0 0 26.703125 37.732422 A 2.7037551 -2.7037551 0 0 0 24 35.029297 z M 29.125 36.208984 A 1.7000051 1.7000051 0 0 0 27.425781 37.908203 A 1.7000051 1.7000051 0 0 0 29.125 39.609375 L 33.152344 39.609375 A 1.7000051 1.7000051 0 0 0 34.853516 37.908203 A 1.7000051 1.7000051 0 0 0 33.152344 36.208984 L 29.125 36.208984 z M 14.847656 36.345703 A 1.7000051 1.7000051 0 0 0 13.146484 38.044922 A 1.7000051 1.7000051 0 0 0 14.847656 39.744141 L 18.875 39.744141 A 1.7000051 1.7000051 0 0 0 20.574219 38.044922 A 1.7000051 1.7000051 0 0 0 18.875 36.345703 L 14.847656 36.345703 z " fill="#008055"/>
</svg>
