<svg xmlns="http://www.w3.org/2000/svg" width="48" height="48">
	<path d="m 16.806746,2.8564456 a 1.9,1.9 0 0 0 -1.90039,1.9003906 v 6.4140618 a 1.9,1.9 0 0 0 1.90039,1.900391 1.9,1.9 0 0 0 1.900391,-1.900391 V 4.7568362 A 1.9,1.9 0 0 0 16.806746,2.8564456 Z m 7.189453,0 a 1.9,1.9 0 0 0 -1.90039,1.9003906 v 6.4140618 a 1.9,1.9 0 0 0 1.90039,1.900391 1.9,1.9 0 0 0 1.900391,-1.900391 V 4.7568362 A 1.9,1.9 0 0 0 23.996199,2.8564456 Z m 7.189453,0 a 1.9,1.9 0 0 0 -1.898437,1.9003906 v 6.4140618 a 1.9,1.9 0 0 0 1.898437,1.900391 1.9,1.9 0 0 0 1.900391,-1.900391 V 4.7568362 A 1.9,1.9 0 0 0 31.185652,2.8564456 Z M 9.6758865,6.0283206 c -1.449677,0 -2.964095,0.4193726 -4.189453,1.4492186 -1.225359,1.029846 -2.035156,2.7115898 -2.035156,4.6425778 v 26.953125 a 1.90019,1.90019 0 0 0 0,0.05664 c 0.054612,1.84327 0.900767,3.482411 2.171874,4.513672 1.27111,1.031261 2.883267,1.5 4.5292975,1.5 a 1.90019,1.90019 0 0 0 0.002,0 l 28.306641,-0.03711 c 1.661369,0 3.263769,-0.454484 4.417969,-1.576171 1.154199,-1.121689 1.669922,-2.753589 1.669922,-4.494141 V 12.120117 c 0,-1.619248 -0.529083,-3.1887188 -1.628906,-4.3300778 C 41.820251,6.6486812 40.205634,6.0283206 38.46109,6.0283206 h -1.695312 a 1.9,1.9 0 0 0 -1.900391,1.9003906 1.9,1.9 0 0 0 1.900391,1.900391 h 1.695312 c 0.911286,0 1.391978,0.2544888 1.722656,0.5976558 0.330679,0.343166 0.566407,0.868707 0.566407,1.693359 v 26.916016 c 0,1.050248 -0.246274,1.502017 -0.519532,1.767578 -0.273258,0.265561 -0.76291,0.501953 -1.769531,0.501953 a 1.90019,1.90019 0 0 0 -0.0039,0 l -28.304688,0.03711 c -0.9151005,0 -1.6655365,-0.269702 -2.1347655,-0.650391 -0.469229,-0.380689 -0.742432,-0.827051 -0.767578,-1.675781 V 12.120117 c 0,-0.984012 0.278823,-1.397471 0.679687,-1.734375 0.400864,-0.336904 1.049461,-0.5566398 1.746094,-0.5566398 H 11.466902 A 1.9,1.9 0 0 0 13.36534,7.9287112 1.9,1.9 0 0 0 11.466902,6.0283206 Z M 13.181746,18.696289 a 1.8,1.8 0 0 0 -1.800781,1.798828 1.8,1.8 0 0 0 1.800781,1.800781 h 21.669922 a 1.8,1.8 0 0 0 1.798828,-1.800781 1.8,1.8 0 0 0 -1.798828,-1.798828 z m 0,6.810547 a 1.8,1.8 0 0 0 -1.800781,1.800781 1.8,1.8 0 0 0 1.800781,1.798828 h 21.669922 a 1.8,1.8 0 0 0 1.798828,-1.798828 1.8,1.8 0 0 0 -1.798828,-1.800781 z m 0,6.810547 a 1.8,1.8 0 0 0 -1.800781,1.800781 1.8,1.8 0 0 0 1.800781,1.798828 h 21.669922 a 1.8,1.8 0 0 0 1.798828,-1.798828 1.8,1.8 0 0 0 -1.798828,-1.800781 z" fill="#008055"/>
</svg>
