<svg xmlns="http://www.w3.org/2000/svg" width="48" height="48">
	<path d="m 19.378807,2.5790413 a 1.7,1.7 0 0 0 -0.25586,0.025391 L 6.0624008,4.8661508 a 1.70017,1.70017 0 0 0 -0.00586,0 c -1.406866,0.247921 -2.691467,0.92492 -3.535156,2.035156 -0.843689,1.110237 -1.159078,2.606075 -0.894531,4.1054692 l 4.652343,26.375 c 0.256955,1.456344 0.845697,2.824832 1.978516,3.771484 1.13282,0.946653 2.7397582,1.288478 4.3769532,1 a 1.7,1.7 0 0 0 1.378907,-1.970703 1.7,1.7 0 0 0 -1.96875,-1.378906 c -0.917256,0.161622 -1.291747,0.004 -1.607422,-0.259766 -0.315676,-0.263797 -0.6437382,-0.817597 -0.8085942,-1.751953 l -4.654297,-26.375 c -0.129593,-0.7345062 0.00899,-1.1347432 0.253906,-1.4570312 0.244913,-0.322289 0.683225,-0.614662 1.417969,-0.744141 L 19.703026,5.9540418 a 1.7,1.7 0 0 0 1.384765,-1.964844 1.7,1.7 0 0 0 -1.708984,-1.4101565 z m 4.386719,2.3535155 c -0.351238,-0.0044 -0.700027,0.01989 -1.041016,0.07617 -0.681978,0.112562 -1.333669,0.349198 -1.919922,0.726563 -1.172505,0.754726 -1.981548,2.053346 -2.246094,3.552734 L 13.904197,35.663024 c -0.256954,1.456348 -0.172332,2.941687 0.56836,4.21875 0.740692,1.277063 2.134296,2.147005 3.771484,2.435547 a 1.7,1.7 0 0 0 1.96875,-1.378907 1.7,1.7 0 0 0 -1.378906,-1.96875 C 17.916634,38.808006 17.620159,38.530255 17.413963,38.174743 17.207767,37.819231 17.088952,37.18722 17.253807,36.252868 L 21.906151,9.8778678 c 0.129594,-0.734513 0.397591,-1.063905 0.738281,-1.283204 0.34069,-0.219296 0.853137,-0.34237 1.587891,-0.21289 l 17.123046,3.0156252 c 0.930903,0.164053 1.306471,0.455828 1.490235,0.714844 0.183763,0.259015 0.30706,0.662848 0.162109,1.484375 l -4.652344,26.375 c -0.148488,0.84163 -0.497238,1.388779 -0.878906,1.693359 -0.381668,0.30458 -0.809721,0.447332 -1.519531,0.322266 L 23.816307,39.84662 a 1.7,1.7 0 0 0 -1.970703,1.378906 1.7,1.7 0 0 0 1.378906,1.970703 l 12.142578,2.138672 c 1.54619,0.272434 3.096332,-0.108602 4.230469,-1.013672 1.134137,-0.90507 1.839717,-2.253496 2.105469,-3.759766 l 4.654297,-26.375 c 0.250999,-1.422573 0.0818,-2.887059 -0.738282,-4.042968 C 44.79896,8.9875848 43.45998,8.3166918 41.945213,8.0497448 L 24.822166,5.0321658 c -0.351716,-0.06198 -0.705403,-0.09517 -1.05664,-0.09961 z M 8.2694318,8.5770878 a 0.70006999,0.70006999 0 0 0 -0.615235,0.449219 c -0.250823,0.657364 -0.645709,1.2793622 -1.328124,1.8925782 a 0.70006999,0.70006999 0 0 0 0.240234,1.183594 c 0.897664,0.30865 1.390644,0.747359 1.851562,1.298828 a 0.70006999,0.70006999 0 0 0 1.179688,-0.169922 c 0.317554,-0.733283 0.7262712,-1.374047 1.3378902,-1.917969 A 0.70006999,0.70006999 0 0 0 10.763573,10.15326 C 10.069412,9.8326478 9.5884128,9.6682178 8.8338848,8.8134158 a 0.70006999,0.70006999 0 0 0 -0.564453,-0.236328 z m 16.6679692,0.738282 a 0.70006999,0.70006999 0 0 0 -0.449219,0.144531 c -0.306929,0.23622 -0.682783,0.504631 -1.021485,0.8085942 -0.338701,0.303962 -0.690844,0.631493 -0.791015,1.199218 -0.06766,0.38341 -0.01886,0.787109 0.191406,1.119141 0.178799,0.282336 0.469518,0.477425 0.783203,0.572266 l -0.103515,0.585937 a 0.69999999,0.69999999 0 0 0 0.568359,0.8125 0.69999999,0.69999999 0 0 0 0.810547,-0.568359 l 0.103515,-0.585938 c 0.326998,0.01751 0.667633,-0.06776 0.931641,-0.271484 0.311113,-0.240071 0.496804,-0.60294 0.564453,-0.986328 C 26.627727,11.56501 26.39349,11.117907 26.173729,10.72162 25.953968,10.325332 25.695525,9.9601208 25.517479,9.6591198 a 0.70006999,0.70006999 0 0 0 -0.580078,-0.34375 z M 8.4745098,10.225526 c 0.373934,0.302057 0.719628,0.570383 1.042969,0.734375 -0.252767,0.301217 -0.47127,0.612949 -0.660156,0.939453 -0.294198,-0.267146 -0.653987,-0.494982 -1.054688,-0.712891 0.259271,-0.314596 0.49216,-0.631344 0.671875,-0.960937 z m 16.2597662,0.824219 c 0.07144,0.113225 0.160653,0.248367 0.216797,0.349609 0.14197,0.256013 0.157777,0.390721 0.167968,0.431641 a 0.69999999,0.69999999 0 0 0 -0.01172,-0.01563 0.69999999,0.69999999 0 0 0 -0.02539,-0.03516 0.69999999,0.69999999 0 0 0 -0.0293,-0.03516 0.69999999,0.69999999 0 0 0 -0.03516,-0.03711 0.69999999,0.69999999 0 0 0 -0.05274,-0.04688 0.69999999,0.69999999 0 0 0 -0.05664,-0.04102 0.69999999,0.69999999 0 0 0 -0.002,0 0.69999999,0.69999999 0 0 0 -0.05469,-0.0332 0.69999999,0.69999999 0 0 0 -0.04492,-0.02148 0.69999999,0.69999999 0 0 0 -0.06445,-0.02344 0.69999999,0.69999999 0 0 0 -0.002,0 0.69999999,0.69999999 0 0 0 -0.06641,-0.01953 0.69999999,0.69999999 0 0 0 -0.140625,-0.01367 0.69999999,0.69999999 0 0 0 -0.04297,0 0.69999999,0.69999999 0 0 0 -0.01367,0.002 0.69999999,0.69999999 0 0 0 -0.01367,0 0.69999999,0.69999999 0 0 0 -0.08984,0.01563 0.69999999,0.69999999 0 0 0 -0.04297,0.01172 0.69999999,0.69999999 0 0 0 -0.0039,0 0.69999999,0.69999999 0 0 0 -0.0039,0.002 0.69999999,0.69999999 0 0 0 -0.05469,0.01758 0.69999999,0.69999999 0 0 0 -0.03711,0.01758 0.69999999,0.69999999 0 0 0 -0.01758,0.0098 0.69999999,0.69999999 0 0 0 -0.05273,0.02734 0.69999999,0.69999999 0 0 0 -0.002,0.002 0.69999999,0.69999999 0 0 0 -0.05469,0.03906 c 0.02141,-0.02316 0.08184,-0.147062 0.298828,-0.341797 0.08946,-0.08029 0.22294,-0.175576 0.332032,-0.261718 z m 6.253906,7.589843 a 1.50015,1.50015 0 0 0 -0.847656,0.253907 c -1.134745,0.758686 -2.48625,1.593118 -3.658203,2.513671 -1.171955,0.920554 -2.311392,1.878156 -2.59375,3.478516 -0.200829,1.138284 0.0204,2.30208 0.666015,3.185547 0.645619,0.883467 1.651139,1.430114 2.746094,1.623047 0.148754,0.02622 0.301798,0.04148 0.457031,0.04883 l -0.466797,2.642578 a 1.5,1.5 0 0 0 1.216797,1.738281 1.5,1.5 0 0 0 1.738281,-1.216797 l 0.466797,-2.642578 c 0.144485,0.04497 0.292203,0.08239 0.445313,0.109375 1.094978,0.193006 2.227919,0.02341 3.136719,-0.585937 0.908799,-0.609351 1.514008,-1.627376 1.714843,-2.765625 0.290559,-1.646881 -0.495452,-2.984139 -1.300781,-4.234375 -0.805329,-1.250237 -1.783401,-2.4556 -2.496094,-3.496094 A 1.50015,1.50015 0 0 0 30.988182,18.63959 Z m -16.519531,0.802735 a 1.499995,1.499995 0 0 0 -1.324219,0.814453 c -0.517864,1.006709 -0.891632,1.770909 -2.617188,3.261719 a 1.500145,1.500145 0 0 0 0.523438,2.5625 c 0.950018,0.303376 0.709826,0.365864 1.585937,1.044921 a 1.499995,1.499995 0 0 0 2.105469,-0.265624 1.499995,1.499995 0 0 0 -0.267578,-2.105469 c -0.167557,-0.12987 -0.377235,-0.302426 -0.570313,-0.462891 0.896564,-1.023931 1.540399,-1.950907 1.90625,-2.662109 a 1.499995,1.499995 0 0 0 -0.646484,-2.019531 1.499995,1.499995 0 0 0 -0.695312,-0.167969 z m 16.142578,2.765625 c 0.556453,0.753937 1.143739,1.531792 1.576172,2.203125 0.672008,1.043263 0.900589,1.900525 0.867187,2.089843 -0.0855,0.484553 -0.247324,0.672648 -0.429687,0.794922 -0.182363,0.122275 -0.464504,0.208141 -0.947266,0.123047 8.64e-4,1.52e-4 -0.232304,-0.08793 -0.353516,-0.191406 -0.121211,-0.103476 -0.116129,-0.154486 -0.111328,-0.09961 a 1.5,1.5 0 0 0 -0.0098,-0.08203 1.5,1.5 0 0 0 -0.002,-0.01953 1.5,1.5 0 0 0 -0.0059,-0.0332 1.5,1.5 0 0 0 -0.01367,-0.06836 1.5,1.5 0 0 0 -0.0078,-0.03125 1.5,1.5 0 0 0 -0.01953,-0.06836 1.5,1.5 0 0 0 -0.0098,-0.03125 1.5,1.5 0 0 0 -0.02344,-0.06641 1.5,1.5 0 0 0 -0.01172,-0.0293 1.5,1.5 0 0 0 -0.02734,-0.06641 1.5,1.5 0 0 0 -0.01367,-0.0293 1.5,1.5 0 0 0 -0.0332,-0.0625 1.5,1.5 0 0 0 -0.01563,-0.02734 1.5,1.5 0 0 0 -0.03516,-0.06055 1.5,1.5 0 0 0 -0.01758,-0.02734 1.5,1.5 0 0 0 -0.05273,-0.07227 1.5,1.5 0 0 0 -0.0078,-0.01172 1.5,1.5 0 0 0 -0.04492,-0.05469 1.5,1.5 0 0 0 -0.02149,-0.02344 1.5,1.5 0 0 0 -0.04688,-0.05273 1.5,1.5 0 0 0 -0.09961,-0.0918 1.5,1.5 0 0 0 -0.05469,-0.04492 1.5,1.5 0 0 0 -0.02539,-0.01953 1.5,1.5 0 0 0 -0.07617,-0.05273 1.5,1.5 0 0 0 -0.0098,-0.0059 1.5,1.5 0 0 0 -0.07031,-0.04297 1.5,1.5 0 0 0 -0.08008,-0.04102 1.5,1.5 0 0 0 -0.01758,-0.0098 1.5,1.5 0 0 0 -0.05664,-0.02539 1.5,1.5 0 0 0 -0.02734,-0.01172 1.5,1.5 0 0 0 -0.01172,-0.0039 1.5,1.5 0 0 0 -0.09766,-0.0332 1.5,1.5 0 0 0 -0.09766,-0.02734 1.5,1.5 0 0 0 -0.08203,-0.01758 1.5,1.5 0 0 0 -0.0039,0 1.5,1.5 0 0 0 -0.08203,-0.01172 1.5,1.5 0 0 0 -0.01563,-0.002 1.5,1.5 0 0 0 -0.01953,-0.002 1.5,1.5 0 0 0 -0.08398,-0.0059 1.5,1.5 0 0 0 -0.06055,-0.002 1.5,1.5 0 0 0 -0.0625,0.002 1.5,1.5 0 0 0 -0.07031,0.0039 1.5,1.5 0 0 0 -0.002,0 1.5,1.5 0 0 0 -0.07226,0.0078 1.5,1.5 0 0 0 -0.05859,0.0098 1.5,1.5 0 0 0 -0.0078,0.002 1.5,1.5 0 0 0 -0.08203,0.01758 1.5,1.5 0 0 0 -0.05078,0.01367 1.5,1.5 0 0 0 -0.0293,0.0078 1.5,1.5 0 0 0 -0.0625,0.02148 1.5,1.5 0 0 0 -0.05469,0.01953 1.5,1.5 0 0 0 -0.0332,0.01367 1.5,1.5 0 0 0 -0.05273,0.02344 1.5,1.5 0 0 0 -0.07813,0.03906 1.5,1.5 0 0 0 -0.002,0.002 1.5,1.5 0 0 0 -0.04492,0.02539 1.5,1.5 0 0 0 -0.07227,0.04492 1.5,1.5 0 0 0 -0.0625,0.04297 1.5,1.5 0 0 0 -0.05273,0.04102 1.5,1.5 0 0 0 -0.04492,0.03906 1.5,1.5 0 0 0 -0.0078,0.0078 1.5,1.5 0 0 0 -0.05664,0.05469 1.5,1.5 0 0 0 -0.05469,0.05664 1.5,1.5 0 0 0 -0.0059,0.0059 1.5,1.5 0 0 0 -0.04102,0.04688 1.5,1.5 0 0 0 -0.04492,0.05859 1.5,1.5 0 0 0 -0.04102,0.05664 1.5,1.5 0 0 0 -0.01758,0.02734 1.5,1.5 0 0 0 -0.03516,0.06055 1.5,1.5 0 0 0 -0.04883,0.08984 1.5,1.5 0 0 0 -0.0098,0.01953 c -0.02434,0.05166 -0.285468,0.165789 -0.539063,0.121094 -0.482785,-0.08507 -0.716349,-0.262445 -0.845703,-0.439453 -0.129354,-0.177008 -0.218314,-0.409914 -0.132812,-0.894532 0.01945,-0.11024 0.518082,-0.875478 1.492187,-1.640624 0.638246,-0.501333 1.477462,-1.033074 2.275391,-1.558594 z m 5.443359,13.726562 a 0.69999999,0.69999999 0 0 0 -0.669922,0.578125 l -0.103515,0.587891 c -0.32717,-0.01841 -0.667106,0.0654 -0.931641,0.269531 -0.311112,0.240071 -0.496804,0.60294 -0.564453,0.986328 -0.102438,0.580445 0.129846,1.027523 0.349609,1.423828 0.219764,0.396306 0.478191,0.761522 0.65625,1.0625 a 0.70006999,0.70006999 0 0 0 1.029297,0.199219 c 0.306949,-0.236188 0.68472,-0.504616 1.023438,-0.808594 0.338717,-0.303977 0.690862,-0.629535 0.791015,-1.197265 0.06766,-0.38341 0.01886,-0.787109 -0.191406,-1.119141 -0.178456,-0.281794 -0.469787,-0.478724 -0.783203,-0.574219 l 0.103516,-0.585937 a 0.69999999,0.69999999 0 0 0 -0.56836,-0.810547 0.69999999,0.69999999 0 0 0 -0.140625,-0.01172 z m -0.863281,2.738282 a 0.69999999,0.69999999 0 0 0 0.03516,0.04687 0.69999999,0.69999999 0 0 0 0.0059,0.0078 0.69999999,0.69999999 0 0 0 0.02344,0.0293 0.69999999,0.69999999 0 0 0 0.03125,0.03125 0.69999999,0.69999999 0 0 0 0.01563,0.01758 0.69999999,0.69999999 0 0 0 0.0332,0.0293 0.69999999,0.69999999 0 0 0 0.0098,0.0078 0.69999999,0.69999999 0 0 0 0.03516,0.02539 0.69999999,0.69999999 0 0 0 0.05859,0.03711 0.69999999,0.69999999 0 0 0 0.05078,0.02539 0.69999999,0.69999999 0 0 0 0.01172,0.0059 0.69999999,0.69999999 0 0 0 0.002,0 0.69999999,0.69999999 0 0 0 0.201172,0.05469 0.69999999,0.69999999 0 0 0 0.07031,0.0039 0.69999999,0.69999999 0 0 0 0.002,0 0.69999999,0.69999999 0 0 0 0.04297,-0.002 0.69999999,0.69999999 0 0 0 0.06055,-0.0078 0.69999999,0.69999999 0 0 0 0.0098,0 0.69999999,0.69999999 0 0 0 0.02539,-0.0039 0.69999999,0.69999999 0 0 0 0.01953,-0.0059 0.69999999,0.69999999 0 0 0 0.04297,-0.0098 0.69999999,0.69999999 0 0 0 0.0059,-0.002 0.69999999,0.69999999 0 0 0 0.04102,-0.01367 0.69999999,0.69999999 0 0 0 0.02539,-0.0098 0.69999999,0.69999999 0 0 0 0.03906,-0.01758 0.69999999,0.69999999 0 0 0 0.02539,-0.01367 0.69999999,0.69999999 0 0 0 0.03711,-0.02148 0.69999999,0.69999999 0 0 0 0.02148,-0.01367 0.69999999,0.69999999 0 0 0 0.0293,-0.02148 c -0.02277,0.02594 -0.07995,0.146921 -0.294922,0.339844 -0.08918,0.08003 -0.223332,0.173918 -0.332031,0.259765 -0.07151,-0.113325 -0.160607,-0.248278 -0.216797,-0.349609 C 35.218117,38.84731 35.20195,38.714626 35.19156,38.672635 Z" fill="#008055"/>
</svg>
