<svg xmlns="http://www.w3.org/2000/svg" width="48" height="48">
	<path d="m 24.446515,2.4973322 c -8.17943,0 -15.3728074,5.4157015 -17.4960938,13.3300778 -1.3717636,5.113029 -0.94501,10.608177 1.9648437,14.576172 a 2.2,2.2 0 0 0 3.0761721,0.47461 2.2,2.2 0 0 0 0.472656,-3.076172 C 10.635147,25.307994 10.103985,21.054826 11.200421,16.968035 12.812894,10.957672 18.192864,6.8977229 24.446515,6.8977229 c 5.817361,0 10.48947,3.0286402 12.357422,8.7187501 1.63122,6.158994 0.04214,9.617922 -2.576172,12.203125 -1.512914,1.493794 -3.284077,1.767883 -5.376954,1.345703 -2.092876,-0.42218 -4.325784,-1.697147 -5.771484,-3.070313 a 2.20022,2.20022 0 0 0 -3.609375,0.917969 l -4.855469,15.029297 a 2.20022,2.20022 0 0 0 2.011719,2.875 l 15.802735,0.583984 A 2.20022,2.20022 0 0 0 34.448468,42.26491 C 33.57147,40.6261 33.831651,38.357675 34.071515,37.473895 a 2.2,2.2 0 0 0 -1.546875,-2.699219 2.2,2.2 0 0 0 -2.699219,1.546875 c -0.282538,1.041015 -0.532055,2.755673 -0.275391,4.669922 l -9.853515,-0.363281 3.035156,-9.396485 c 1.587076,1.003794 3.31583,1.855929 5.25,2.246094 3.098948,0.625127 6.686924,0.09012 9.33789,-2.527344 3.549008,-3.504136 5.70885,-9.128868 3.72461,-16.535156 a 2.20022,2.20022 0 0 0 -0.03125,-0.109375 C 38.599043,6.8618726 31.914615,2.4973322 24.446515,2.4973322 Z" fill="#008055"/>
</svg>
