<svg xmlns="http://www.w3.org/2000/svg" width="48" height="48">
	<path d="m 24,1.4089299 a 2,2 0 0 0 -2,2.0000002 v 4.115234 a 2,2 0 0 0 2,2 2,2 0 0 0 2,-2 V 3.4089301 A 2,2 0 0 0 24,1.4089299 Z M 9.095703,7.5905701 a 2,2 0 0 0 -1.4375,0.585938 2,2 0 0 0 0,2.8281249 l 2.910157,2.912109 a 2,2 0 0 0 2.828125,0 2,2 0 0 0 0,-2.830078 L 10.486328,8.1765081 A 2,2 0 0 0 9.095703,7.5905701 Z m 29.855469,0 a 2,2 0 0 0 -1.4375,0.585938 l -2.910156,2.9101559 a 2,2 0 0 0 0,2.830078 2,2 0 0 0 2.828125,0 l 2.910156,-2.912109 a 2,2 0 0 0 0,-2.8281249 2,2 0 0 0 -1.390625,-0.585938 z M 23.751953,10.59643 c -4.807163,0.09199 -9.386057,2.678318 -11.867187,7.054687 -3.308173,5.835159 -1.969589,13.233075 3.171875,17.541016 A 1.9999976,2.0000024 65.042186 0 0 17.873047,34.944086 1.9999976,2.0000024 65.042186 0 0 17.625,32.125727 c -3.68165,-3.08479 -4.62865,-8.325523 -2.259765,-12.503907 2.368884,-4.178383 7.353013,-6.055464 11.890625,-4.480468 4.53761,1.574995 7.283976,6.137282 6.554687,10.884765 a 1.9999976,2.0000024 65.042186 0 0 1.671875,2.279297 1.9999976,2.0000024 65.042186 0 0 2.283203,-1.671875 C 38.784087,20.003626 34.903227,13.561552 28.566407,11.362055 26.982201,10.81218 25.354341,10.565765 23.751953,10.59643 Z M 2.888672,22.518305 a 2,2 0 0 0 -2,2 2,2 0 0 0 2,2 h 4.115235 a 2,2 0 0 0 2,-2 2,2 0 0 0 -2,-2 z m 38.105469,0 a 2,2 0 0 0 -2,2 2,2 0 0 0 2,2 h 4.117187 a 2,2 0 0 0 2,-2 2,2 0 0 0 -2,-2 z m -10.667969,6.142578 c -2.98451,-0.01995 -5.24706,1.169492 -6.564453,2.78125 -0.902509,1.10417 -1.296123,2.29066 -1.523438,3.429687 -0.794743,0.171399 -1.639358,0.430372 -2.515624,0.921875 -1.447038,0.811654 -2.948272,2.402727 -3.011719,4.621094 -0.05373,1.879333 0.597385,3.585597 1.818359,4.662109 1.220974,1.076514 2.805374,1.482052 4.416016,1.513672 a 1.8,1.8 0 0 0 1.835937,-1.763672 1.8,1.8 0 0 0 -1.765625,-1.835937 c -1.043168,-0.02048 -1.733737,-0.287485 -2.105468,-0.615234 -0.371733,-0.32775 -0.631048,-0.757845 -0.59961,-1.857422 0.02175,-0.760544 0.390633,-1.146638 1.173828,-1.585938 0.783195,-0.439299 1.9286,-0.674149 2.38086,-0.695312 a 1.80018,1.80018 0 0 0 1.714843,-1.763672 c 0.01472,-0.790059 0.301771,-1.935941 0.96875,-2.751953 0.666979,-0.816012 1.651927,-1.474988 3.753907,-1.460938 2.06456,0.01377 3.865648,1.138856 4.970703,2.839844 a 1.80018,1.80018 0 0 0 2.173828,0.691406 c 0.505292,-0.200645 0.897976,-0.235816 1.111328,-0.208984 0.213352,0.02683 0.256066,0.05224 0.369141,0.1875 0.221525,0.264991 0.299424,0.498401 -0.283204,1.28125 a 1.80018,1.80018 0 0 0 1.25,2.863281 c 0.785418,0.08489 1.541805,0.374973 1.982422,0.707031 0.433432,0.326643 0.558082,0.560763 0.564454,0.957032 -0.0047,0.147675 -0.05427,0.46513 -0.337891,0.740234 -0.291222,0.282482 -0.929262,0.687036 -2.583985,0.671875 a 1.80018,1.80018 0 0 0 -0.01758,0 H 28.066407 a 1.8,1.8 0 0 0 -1.800782,1.800781 1.8,1.8 0 0 0 1.800782,1.798828 h 11.419921 c 2.307258,0.02114 4.0343,-0.629474 5.123047,-1.685546 1.088748,-1.056073 1.428085,-2.341322 1.441406,-3.294922 a 1.80018,1.80018 0 0 0 0,-0.03516 c -0.0088,-1.611119 -0.899997,-2.993253 -2.007812,-3.828125 -0.508782,-0.383428 -1.069375,-0.662397 -1.648438,-0.886718 0.208374,-1.205372 0.111089,-2.422129 -0.705078,-3.398438 -0.684825,-0.819207 -1.689347,-1.326376 -2.68164,-1.451172 -0.503839,-0.06336 -0.977019,0.138939 -1.466797,0.220703 -1.739245,-2.098448 -4.276486,-3.550714 -7.214844,-3.570312 z m -18.318359,5.875 A 2,2 0 0 0 10.56836,35.12182 l -2.910157,2.910157 a 2,2 0 0 0 0,2.828125 2,2 0 0 0 2.828125,0 l 2.910157,-2.910157 a 2,2 0 0 0 0,-2.828125 2,2 0 0 0 -1.388672,-0.585937 z" fill="#008055"/>
</svg>
