<svg xmlns="http://www.w3.org/2000/svg" width="48" height="48">
	<path d="m 19.461576,2.6380593 a 1.8,1.8 0 0 0 -0.34375,0.029297 L 6.4361854,4.9544655 C 4.9351134,5.2191442 3.5836245,5.904979 2.6588417,7.024778 1.7340588,8.1445771 1.3273847,9.7012839 1.5982948,11.237669 l 4.7519531,26.949219 c 0.2848185,1.61522 1.1834269,3.012775 2.4765625,3.734374 1.2931356,0.721601 2.7714196,0.786814 4.2207036,0.53125 a 1.8,1.8 0 0 0 1.460937,-2.083984 1.8,1.8 0 0 0 -2.085937,-1.460937 c -0.914927,0.161336 -1.527293,0.04464 -1.841797,-0.13086 C 10.266212,38.60123 10.040941,38.388566 9.8951698,37.561888 L 5.1432167,10.612669 C 5.0338367,9.9923529 5.1555697,9.6551729 5.4342323,9.3177469 5.7128945,8.9803209 6.2404274,8.6441087 7.0611854,8.4993874 a 1.80018,1.80018 0 0 0 0.00781,0 L 19.756498,6.2103249 A 1.8,1.8 0 0 0 21.20767,4.118528 1.8,1.8 0 0 0 19.461576,2.6380593 Z M 25.606107,4.915403 C 25.234695,4.906413 24.866487,4.92623 24.506498,4.977903 23.78652,5.0812491 23.09742,5.308122 22.471342,5.6751687 21.219185,6.409262 20.305093,7.7334556 20.035795,9.2689189 l -4.71875,26.9003901 c -0.283063,1.613944 0.08612,3.234749 1.054687,4.353516 0.968567,1.118767 2.33459,1.686552 3.783204,1.943359 l 15.798828,2.800782 c 1.495112,0.265041 2.992949,-0.02565 4.121093,-0.851563 1.128145,-0.825909 1.820552,-2.107329 2.064453,-3.498047 a 1.80018,1.80018 0 0 0 0.0059,-0.03125 L 46.375639,13.989622 C 46.636488,12.502278 46.444599,11.006169 45.61392,9.8489969 44.783241,8.6918245 43.460101,8.0532309 42.043607,7.8021218 a 1.8,1.8 0 0 0 -2.085937,1.4589841 1.8,1.8 0 0 0 1.458984,2.0859381 c 0.802656,0.142291 1.120264,0.388184 1.273438,0.601562 0.153174,0.213378 0.287122,0.573466 0.138672,1.419922 a 1.80018,1.80018 0 0 0 -0.0039,0.03125 l -4.230468,26.896484 -0.002,0.002 c -0.114825,0.650597 -0.365643,1.008717 -0.644532,1.21289 -0.279425,0.204566 -0.651307,0.337497 -1.365234,0.210938 L 20.781889,38.921262 C 19.866422,38.75897 19.329094,38.438761 19.092436,38.165403 18.855777,37.892045 18.717509,37.616012 18.861967,36.792356 l 4.71875,-26.9023441 c 0.108272,-0.617335 0.335412,-0.889218 0.710937,-1.1093745 0.375526,-0.2201567 0.985203,-0.3526589 1.806641,-0.2070313 a 1.80018,1.80018 0 0 0 0.01172,0.00195 L 37.018217,10.436888 A 1.8,1.8 0 0 0 39.096342,8.9642309 1.8,1.8 0 0 0 37.623686,6.8880593 L 26.727201,5.0286843 C 26.352136,4.9621912 25.977519,4.9243933 25.606107,4.915403 Z M 15.89517,15.249388 a 1.6,1.6 0 0 0 -0.277344,0.02539 l -6.2265625,1.144531 a 1.6,1.6 0 0 0 -1.2851562,1.863282 1.6,1.6 0 0 0 1.8632812,1.285156 l 6.2265625,-1.144531 a 1.6,1.6 0 0 0 1.283203,-1.863282 1.6,1.6 0 0 0 -1.583984,-1.310546 z m 9.558594,1.58789 a 1.6,1.6 0 0 0 -1.53711,1.320313 1.6,1.6 0 0 0 1.294922,1.853515 l 12.859375,2.28125 A 1.6,1.6 0 0 0 39.92642,20.995481 1.6,1.6 0 0 0 38.629545,19.140012 L 25.77017,16.860716 a 1.6,1.6 0 0 0 -0.316406,-0.02344 z M 14.67056,22.813841 a 1.6,1.6 0 0 0 -0.277343,0.03125 l -3.761719,0.78125 a 1.6,1.6 0 0 0 -1.2421876,1.890625 1.6,1.6 0 0 0 1.8906256,1.242187 l 3.761718,-0.779297 a 1.6,1.6 0 0 0 1.242188,-1.892578 1.6,1.6 0 0 0 -1.613282,-1.273437 z m 9.519532,1.224609 a 1.6,1.6 0 0 0 -1.53711,1.320312 1.6,1.6 0 0 0 1.296875,1.853516 l 12.859375,2.28125 a 1.6,1.6 0 0 0 1.853516,-1.296875 1.6,1.6 0 0 0 -1.294922,-1.855469 L 24.508451,24.061888 a 1.6,1.6 0 0 0 -0.318359,-0.02344 z m -10.628906,6.417969 a 1.6,1.6 0 0 0 -0.382813,0.04688 l -1.335937,0.335937 a 1.6,1.6 0 0 0 -1.16211,1.941407 1.6,1.6 0 0 0 1.941406,1.162109 l 1.335938,-0.335938 a 1.6,1.6 0 0 0 1.162109,-1.941406 1.6,1.6 0 0 0 -1.558593,-1.208984 z m 9.365234,0.783203 a 1.6,1.6 0 0 0 -1.53711,1.320312 1.6,1.6 0 0 0 1.296876,1.853516 l 12.859374,2.279297 a 1.6,1.6 0 0 0 1.855469,-1.294922 1.6,1.6 0 0 0 -1.296875,-1.855469 L 23.244779,31.263059 a 1.6,1.6 0 0 0 -0.318359,-0.02344 z" fill="#008055"/>
</svg>
