<svg xmlns="http://www.w3.org/2000/svg" width="48" height="48">
	<path d="M 31.121738,2.4810144 A 2.20022,2.20022 0 0 0 29.01041,4.4165612 c -0.250527,2.0771525 -1.926005,3.9591673 -2.714844,4.6171876 a 2.2,2.2 0 0 0 -0.279297,3.0976562 2.2,2.2 0 0 0 3.097657,0.28125 C 30.028977,11.649353 31.36679,10.23429 32.32291,8.2935144 l 8.894531,6.7304686 -8.990234,6.802735 C 30.1634,17.016663 25.816901,12.822811 19.631504,12.822811 h -5.873047 a 2.2,2.2 0 0 0 -2.201171,2.201172 2.2,2.2 0 0 0 2.201171,2.199219 h 5.873047 c 5.065957,0 8.544751,4.322467 9.40625,8.580078 a 2.20022,2.20022 0 0 0 3.484375,1.318359 l 13.667969,-10.34375 a 2.20022,2.20022 0 0 0 0,-3.507812 L 32.522129,2.9263269 A 2.20022,2.20022 0 0 0 31.121738,2.4810144 Z M 16.830723,20.432186 a 2.20022,2.20022 0 0 0 -1.34961,0.445313 L 1.8111918,31.221249 a 2.20022,2.20022 0 0 0 0,3.509765 l 13.6699212,10.34375 a 2.20022,2.20022 0 0 0 3.511719,-1.492187 c 0.250527,-2.077153 1.924052,-3.957214 2.712891,-4.615235 a 2.2,2.2 0 0 0 0.28125,-3.099609 2.2,2.2 0 0 0 -3.09961,-0.279297 c -0.915051,0.763302 -2.252864,2.176412 -3.208984,4.117188 L 6.7858012,32.975155 15.776035,26.172421 c 2.063747,4.810192 6.410174,9.003906 12.595703,9.003906 h 5.873047 a 2.2,2.2 0 0 0 2.199219,-2.199219 2.2,2.2 0 0 0 -2.199219,-2.201172 h -5.873047 c -5.065945,0 -8.546705,-4.32247 -9.408203,-8.580078 a 2.20022,2.20022 0 0 0 -2.132812,-1.763672 z" fill="#008055"/>
</svg>
