<svg xmlns="http://www.w3.org/2000/svg" width="48" height="48">
	<path d="M 22.271484 9.8242188 C 17.602465 9.7918024 14.220977 11.685738 12.248047 14.193359 C 10.713964 16.143199 10.119312 18.282217 9.8457031 20.255859 C 8.4614681 20.499713 6.9328213 20.913856 5.3671875 21.826172 C 3.1708351 23.106015 1.0442386 25.462937 0.953125 28.773438 C 0.87199834 31.721294 1.8079615 34.222174 3.5761719 35.841797 C 5.3443823 37.461419 7.7248896 38.1229 10.222656 38.173828 A 2 2 0 0 0 12.263672 36.216797 A 2 2 0 0 0 10.304688 34.175781 C 8.4619445 34.138209 7.1160738 33.657085 6.2792969 32.890625 C 5.44252 32.124165 4.8929985 30.996626 4.9511719 28.882812 C 4.9993683 27.131653 5.929487 26.126984 7.3808594 25.28125 C 8.8322318 24.435516 10.776906 24.025744 11.667969 23.982422 A 2.0002 2.0002 0 0 0 13.570312 22.021484 C 13.598336 20.458184 14.119921 18.28358 15.392578 16.666016 C 16.665235 15.048452 18.591877 13.798875 22.242188 13.824219 C 25.931386 13.849819 29.163972 15.940641 31.140625 19.101562 A 2.0002 2.0002 0 0 0 33.599609 19.890625 C 34.531175 19.506328 35.31239 19.406372 35.849609 19.476562 C 36.386828 19.546753 36.700574 19.710738 37.044922 20.138672 C 37.728633 20.988345 37.757234 22.09417 36.617188 23.685547 A 2.0002 2.0002 0 0 0 38.019531 26.837891 C 39.43701 26.997053 40.811765 27.520203 41.708984 28.222656 C 42.601173 28.921171 43.036396 29.65768 43.046875 30.720703 C 43.036344 31.219548 42.855679 32.072635 42.169922 32.763672 C 41.476379 33.462554 40.168132 34.203032 37.304688 34.175781 A 2.0002 2.0002 0 0 0 37.285156 34.173828 L 16.035156 34.173828 A 2 2 0 0 0 14.035156 36.173828 A 2 2 0 0 0 16.035156 38.173828 L 37.265625 38.173828 C 40.882291 38.208247 43.444303 37.155624 45.007812 35.580078 C 46.571322 34.004533 47.032447 32.118642 47.050781 30.753906 A 2.0002 2.0002 0 0 0 47.050781 30.714844 C 47.038326 28.355888 45.809184 26.352623 44.173828 25.072266 C 43.244742 24.344864 42.179433 23.849442 41.066406 23.476562 C 41.675423 21.448308 41.502972 19.2972 40.162109 17.630859 C 39.201427 16.436983 37.801889 15.697217 36.367188 15.509766 C 35.430157 15.387337 34.491045 15.523087 33.556641 15.755859 C 30.884816 12.281287 26.905648 9.8563762 22.271484 9.8242188 z " fill="#008055"/>
</svg>
