<svg xmlns="http://www.w3.org/2000/svg" width="48" height="48">
	<path d="m 8.9238275,4.083008 c -1.537083,0 -3.046553,0.506953 -4.146484,1.566406 -1.099931,1.059453 -1.691406,2.615233 -1.691406,4.269531 v 27.603516 c 0,1.600316 0.344418,3.172816 1.361328,4.429687 1.01691,1.256872 2.694003,1.964844 4.476562,1.964844 a 2,2 0 0 0 2.0000005,-2 2,2 0 0 0 -2.0000005,-2 c -0.88697,0 -1.130497,-0.19034 -1.365234,-0.480469 -0.234737,-0.290128 -0.472656,-0.912578 -0.472656,-1.914062 V 9.918945 c 0,-0.776802 0.207223,-1.13865 0.466797,-1.388672 0.259574,-0.250021 0.670077,-0.447265 1.371093,-0.447265 H 39.095703 c 0.914785,0 1.249077,0.206708 1.433594,0.396484 0.184516,0.189776 0.384766,0.563058 0.384766,1.439453 v 27.603516 c 0,0.896364 -0.256654,1.51172 -0.552735,1.861328 -0.296081,0.349608 -0.607014,0.533203 -1.265625,0.533203 H 14.128906 a 2,2 0 0 0 -2,2 2,2 0 0 0 2,2 h 24.966797 c 1.69903,0 3.294429,-0.738225 4.31836,-1.947265 1.023929,-1.209042 1.5,-2.78843 1.5,-4.447266 V 9.918945 c 0,-1.565904 -0.431638,-3.111617 -1.517579,-4.228515 C 42.310543,4.573531 40.736769,4.083008 39.095703,4.083008 Z m 15.5898445,6.152343 c -0.458904,-0.0072 -0.925509,0.0081 -1.400391,0.04883 a 2.0002,2.0002 0 0 0 -0.0039,0 c -7.61156,0.665716 -12.958454,7.35066 -12.5625,14.433593 0.257206,5.267695 3.999856,11.548074 11.416016,12.867188 a 2.0002,2.0002 0 0 0 0.04883,0.0078 c 8.125225,1.237642 15.179572,-4.386327 16.021484,-12.185546 a 2.0002,2.0002 0 0 0 -1.980469,-2.214844 l -11.779296,-0.05078 a 2,2 0 0 0 -2.009766,1.990235 2,2 0 0 0 1.992187,2.009765 l 9.125,0.03906 c -1.482307,4.397257 -5.537132,7.239807 -10.740234,6.458984 -5.475938,-0.987451 -7.929368,-5.570191 -8.099609,-9.125 a 2.0002,2.0002 0 0 0 0,-0.01563 c -0.277982,-4.932911 3.46383,-9.749353 8.914062,-10.228515 2.736406,-0.234975 5.005268,0.647047 6.771485,2.007812 a 2,2 0 0 0 2.804679,-0.363264 2,2 0 0 0 -0.365234,-2.804688 c -2.13677,-1.646254 -4.940016,-2.824552 -8.152344,-2.875 z" fill="#008055"/>
</svg>
