<svg xmlns="http://www.w3.org/2000/svg" width="48" height="48">
	<path d="M 23.590484,2.1156601 C 17.584162,2.2317322 11.667276,4.8011323 7.4615777,9.6469101 -0.01521866,18.261627 0.38901234,31.221151 8.387359,39.353942 c 7.998346,8.132789 20.949361,8.752092 29.687501,1.419922 a 1.8,1.8 0 0 0 0.220703,-2.53711 1.8,1.8 0 0 0 -2.535157,-0.220703 C 28.435643,44.162258 17.658396,43.647831 10.953765,36.830504 4.2491358,30.013176 3.9148412,19.229542 10.182281,12.008238 16.449721,4.786935 27.170913,3.6011985 34.863922,9.2797226 42.556931,14.958246 44.584185,25.555492 39.529938,33.672301 a 1.8,1.8 0 0 0 0.578125,2.478516 1.8,1.8 0 0 0 2.478515,-0.576172 C 47.862399,27.102004 46.655623,16.291902 40.123688,9.1840195 39.190554,8.1686081 38.149774,7.2300181 37.002594,6.3832382 32.987463,3.4195063 28.262069,2.0253818 23.590484,2.1156601 Z m 5.060547,6.1621094 a 1.7,1.7 0 0 0 -1.126953,0.4589843 1.7,1.7 0 0 0 -0.07813,2.4023442 c 2.177664,2.325622 4.009858,4.765522 5.681641,6.675781 0.835891,0.95513 1.624078,1.784363 2.498047,2.421875 0.873968,0.637512 1.956693,1.150868 3.189453,0.957031 a 1.7,1.7 0 0 0 1.416021,-1.943359 1.7,1.7 0 0 0 -1.94336,-1.414062 c 0.02758,-0.0043 -0.1614,0.01473 -0.658203,-0.347657 -0.496803,-0.362391 -1.178134,-1.037727 -1.943359,-1.912109 -1.53045,-1.748766 -3.4253,-4.268642 -5.759766,-6.7617192 A 1.7,1.7 0 0 0 28.651031,8.2777695 Z m -11.693359,0.96875 a 1.7,1.7 0 0 0 -1.679688,1.3574215 1.7,1.7 0 0 0 1.322266,2.007813 c 5.184616,1.065959 7.900994,4.809353 10.830078,8.533203 1.464542,1.861925 2.949067,3.708819 4.9375,5.007813 1.988434,1.298993 4.544795,1.916125 7.482422,1.27539 a 1.7,1.7 0 0 0 1.298828,-2.023437 1.7,1.7 0 0 0 -2.023437,-1.298828 c -2.173253,0.474015 -3.528163,0.09438 -4.898438,-0.800781 -1.370275,-0.895166 -2.692403,-2.440407 -4.125,-4.261719 C 27.23701,15.40077 23.792791,10.619516 17.285797,9.2816757 a 1.7,1.7 0 0 0 -0.328125,-0.035156 z m -4.960938,6.1757815 c -0.809897,0.03357 -1.643407,0.165915 -2.4960937,0.416015 a 1.7,1.7 0 0 0 -1.1542969,2.111329 1.7,1.7 0 0 0 2.1113286,1.152343 c 2.447929,-0.717997 4.226319,-0.200976 6.134765,1.087891 1.908446,1.288867 3.782735,3.438173 5.689454,5.722656 1.906719,2.284484 3.84289,4.698857 6.189453,6.46875 2.346563,1.769893 5.296257,2.85744 8.576172,2.083985 a 1.7,1.7 0 0 0 1.263672,-2.044922 1.7,1.7 0 0 0 -2.042969,-1.265625 c -2.220565,0.523644 -3.891771,-0.08819 -5.748047,-1.488281 -1.856276,-1.400095 -3.705634,-3.627325 -5.628906,-5.931641 -1.923272,-2.304316 -3.922994,-4.690858 -6.396485,-6.361328 -1.855118,-1.252853 -4.068356,-2.051876 -6.498047,-1.951172 z m -1.441406,9.814453 c -1.0245472,0.03703 -2.1050231,0.28966 -3.1972659,0.785156 a 1.7,1.7 0 0 0 -0.8457031,2.25 1.7,1.7 0 0 0 2.25,0.845704 c 1.5349,-0.696308 2.407684,-0.631483 3.337891,-0.240235 0.930207,0.391249 1.954853,1.295903 3.083984,2.544922 2.258263,2.498037 4.870613,6.279904 9.416016,8.175781 A 1.7,1.7 0 0 0 26.822906,38.68402 1.7,1.7 0 0 0 25.908844,36.461364 C 22.450607,35.018941 20.183658,31.884042 17.705718,29.143004 16.466749,27.772485 15.15902,26.47659 13.418609,25.744567 12.548404,25.378555 11.579875,25.19972 10.555328,25.236754 Z" fill="#008055"/>
</svg>
