<svg xmlns="http://www.w3.org/2000/svg" width="48" height="48">
	<path d="m 22.387207,3.8253022 c -1.127442,0.02813 -2.355445,0.207343 -3.18164,1.36914 -0.413098,0.580899 -0.558486,1.363627 -0.464844,2.023438 0.09364,0.65981 0.360207,1.234911 0.722656,1.808593 l -0.03711,-0.06055 8.966797,15.5800778 a 1.7,1.7 0 0 0 2.322265,0.626953 1.7,1.7 0 0 0 0.625,-2.322266 L 22.373535,7.2706142 a 1.70017,1.70017 0 0 0 -0.01758,-0.02734 c 0.05211,-0.0053 0.05065,-0.01789 0.113281,-0.01953 l 5.929688,0.03516 c 1.512154,0.06792 2.257053,0.258459 2.884765,1.345704 l 9.679688,16.7695308 c -0.252368,0.04646 -0.144666,0.01986 -0.585938,0.02734 l -7.689453,0.02344 a 1.7,1.7 0 0 0 -1.695312,1.705078 1.7,1.7 0 0 0 1.705078,1.695313 l 7.714844,-0.02539 a 1.70017,1.70017 0 0 0 0.02344,0 c 1.105428,-0.01875 2.125072,0.154024 3.320313,-0.755859 0.59762,-0.454942 1.015952,-1.410498 0.96875,-2.167969 -0.04715,-0.756581 -0.321743,-1.350045 -0.697266,-1.998047 l -0.002,-0.002 L 34.227005,6.9053422 C 32.934983,4.6674242 30.556976,3.9505412 28.55127,3.8604582 a 1.70017,1.70017 0 0 0 -0.06641,0 l -6.044922,-0.03516 a 1.70017,1.70017 0 0 0 -0.05273,0 z m -7.160156,4.878906 c -0.424798,0.0445 -0.842019,0.176905 -1.158203,0.386719 C 13.43648,9.5105542 13.05988,10.04811 12.686035,10.698349 L 2.8872065,27.669052 c -1.292051,2.237927 -0.721909,4.657396 0.203125,6.439453 a 1.70017,1.70017 0 0 0 0.03125,0.05664 l 2.994141,5.253907 a 1.70017,1.70017 0 0 0 0.02539,0.04492 c 0.588071,0.962219 1.358144,1.935799 2.777344,2.070313 0.7096,0.06726 1.4597985,-0.200339 1.9843755,-0.611328 0.524577,-0.410989 0.889462,-0.926617 1.205078,-1.527344 l -0.0332,0.06055 9.007813,-15.554688 a 1.7,1.7 0 0 0 -0.619141,-2.324218 1.7,1.7 0 0 0 -2.322266,0.61914 L 9.1313475,37.753036 a 1.70017,1.70017 0 0 0 -0.015625,0.02734 c -0.028493,-0.03947 -0.038052,-0.03315 -0.06836,-0.08203 l -2.943359,-5.167969 c -0.691549,-1.33463 -0.89706,-2.076613 -0.271484,-3.160157 L 15.512207,12.600692 c 0.166448,0.195322 0.09055,0.114595 0.31836,0.494141 l 3.865234,6.648437 a 1.7,1.7 0 0 0 2.324219,0.615235 1.7,1.7 0 0 0 0.615234,-2.324219 l -3.876953,-6.667969 a 1.70017,1.70017 0 0 0 -0.01367,-0.02148 C 18.17567,10.396892 17.815795,9.4289072 16.430176,8.8487392 16.083771,8.7036972 15.651849,8.6597112 15.227051,8.7042082 Z m 9.007812,21.5976558 a 1.7,1.7 0 0 0 -1.701172,1.697266 1.7,1.7 0 0 0 1.697266,1.703125 l 17.976563,0.02344 a 1.70017,1.70017 0 0 0 0.03125,0 c -0.02175,0.04845 -0.01057,0.05347 -0.04102,0.109375 l -2.992187,5.115235 c -0.814727,1.275596 -1.35391,1.824218 -2.609376,1.824218 H 17.234863 c 0.08591,-0.241519 0.05531,-0.133519 0.269532,-0.519531 l 3.824218,-6.673831 a 1.7,1.7 0 0 0 -0.628906,-2.320312 1.7,1.7 0 0 0 -2.320312,0.630859 l -3.835938,6.691406 a 1.70017,1.70017 0 0 0 -0.01172,0.02148 c -0.536199,0.966196 -1.196429,1.76159 -1.005859,3.251953 0.09529,0.745181 0.712056,1.58404 1.390625,1.921875 0.678569,0.337834 1.332406,0.396484 2.082031,0.396484 H 36.59619 c 2.584096,0 4.393796,-1.702327 5.47461,-3.394531 a 1.70017,1.70017 0 0 0 0.03516,-0.05664 l 3.052734,-5.216797 a 1.70017,1.70017 0 0 0 0.02539,-0.04688 c 0.539425,-0.990483 0.997328,-2.142996 0.404297,-3.439453 -0.296516,-0.648228 -0.901223,-1.165263 -1.519531,-1.414062 -0.618309,-0.2488 -1.249633,-0.306449 -1.927735,-0.279297 z" fill="#008055"/>
</svg>
