<svg xmlns="http://www.w3.org/2000/svg" width="48" height="48">
	<path d="M 24.039685,2.7234472 C 11.859132,2.5802656 2.1666379,11.665721 2.1666379,23.903134 c 0,12.25156 9.7855591,21.645574 22.2871091,21.369141 a 2,2 0 0 0 1.955078,-2.042969 2,2 0 0 0 -2.044922,-1.955078 C 13.855171,41.506596 6.1666381,34.076975 6.1666381,23.903134 c 0,-10.184117 7.6028199,-17.3070699 17.8359369,-17.1816399 a 2.0002,2.0002 0 0 0 0.02539,0 c 8.59934,0 14.85631,5.7727779 16.259766,13.5703119 a 2.0002,2.0002 0 0 0 0.0059,0.03125 c 0.132929,0.676249 0.09579,0.872542 0.07813,0.917969 0.0491,-0.05241 -0.194084,0.103884 -0.859375,0.08789 l -11.037109,-0.267578 0.07031,0.0039 c -1.199355,-0.07125 -2.545542,0.212761 -3.482422,1.191406 -0.934532,0.976192 -1.188803,2.31867 -1.101562,3.615234 l 0.707031,12.984376 a 2,2 0 0 0 2.105469,1.888671 2,2 0 0 0 1.888672,-2.105468 L 27.9557,25.63751 a 2.0002,2.0002 0 0 0 -0.002,-0.0293 c -0.02096,-0.305435 9.56e-4,-0.462021 0.01758,-0.544922 0.05258,-0.0072 0.128063,-0.01832 0.337891,-0.0059 a 2.0002,2.0002 0 0 0 0.07031,0.0039 l 11.03711,0.267578 c 1.204961,0.02897 2.616579,-0.122404 3.746094,-1.214844 1.126888,-1.089902 1.393174,-2.824372 1.05664,-4.550781 C 42.492939,10.029207 34.458574,2.7291274 24.039685,2.7234472 Z M 34.543591,27.201963 c -1.2639,-0.0462 -2.583333,0.321793 -3.302735,1.326171 -0.7194,1.00438 -0.682258,2.02752 -0.634765,2.945313 l 0.369141,7.197266 a 1.70017,1.70017 0 0 0 0,0.02148 c 0.0438,0.687696 0.231695,1.377877 0.671874,1.951172 0.44018,0.573295 1.100995,0.922728 1.675782,1.056641 1.149573,0.267824 2.056151,0.01072 2.882812,-0.173829 a 1.70017,1.70017 0 0 0 0.01758,-0.0039 c 4.485108,-1.050828 8.746301,-4.359686 9.595704,-10.830078 a 1.7,1.7 0 0 0 -1.464844,-1.90625 1.7,1.7 0 0 0 -1.90625,1.462891 c -0.692813,5.27756 -3.422262,7.120646 -6.990235,7.958984 -0.592327,0.131436 -0.912178,0.138039 -1.095703,0.146484 l -0.359375,-7.05664 c -0.01747,-0.337563 0.0092,-0.568501 0.02734,-0.699219 0.06285,-0.0021 0.120236,-0.0079 0.390625,0.002 l 5.748047,0.208984 a 1.7,1.7 0 0 0 1.759765,-1.636718 1.7,1.7 0 0 0 -1.636718,-1.761719 z" fill="#008055"/>
</svg>
