<svg xmlns="http://www.w3.org/2000/svg" width="48" height="48">
	<path d="M 24.730227,7.7868361 C 24.03116,7.7681982 23.330664,7.7719307 22.630618,7.7985549 17.030245,8.0115482 11.474674,9.6812147 7.1618681,12.929414 a 1.90019,1.90019 0 0 0 -0.00391,0.002 c -4.3002013,3.248965 -6.133371,7.383527 -6.0722618,11.195316 0.061109,3.811789 1.8678517,7.210729 4.4003906,9.443359 A 1.9,1.9 0 0 0 8.1677275,33.400117 1.9,1.9 0 0 0 7.9978056,30.718477 C 6.2490445,29.176807 4.9284308,26.681091 4.8864775,24.06418 4.8445338,21.447873 5.9312727,18.621773 9.4470244,15.964571 l 0.00195,-0.002 C 16.483547,10.666355 29.048114,10.441563 36.474368,14.700899 a 1.9,1.9 0 0 0 2.59375,-0.703125 1.9,1.9 0 0 0 -0.703125,-2.59375 C 34.436126,9.1506185 29.623699,7.9173018 24.730227,7.7868361 Z m 16.414062,6.0761719 a 1.9,1.9 0 0 0 -1.316406,0.582031 1.9,1.9 0 0 0 0.05469,2.6875 c 1.966618,1.886459 3.236796,4.398021 3.234375,6.9375 -0.0024,2.53948 -1.157041,5.269024 -4.707031,7.951172 -7.050153,5.308137 -19.416923,5.596798 -27.03125,1.259766 a 1.9,1.9 0 0 0 -2.5898437,0.710937 1.9,1.9 0 0 0 0.7089843,2.589844 c 9.1282304,5.199335 22.5912054,4.957389 31.2011694,-1.527344 a 1.90019,1.90019 0 0 0 0.002,-0.002 c 4.267898,-3.224552 6.21124,-7.199095 6.214844,-10.978516 0.0036,-3.77942 -1.814212,-7.200952 -4.402344,-9.683593 a 1.9,1.9 0 0 0 -1.369188,-0.527297 z m -16.958984,0.21875 a 1.4,1.4 0 0 0 -1.316406,1.042969 l -3.210938,12.18164 a 1.4,1.4 0 0 0 0.998047,1.710938 1.4,1.4 0 0 0 1.710938,-0.996094 l 1.664062,-6.316406 h 1.626953 c 0.201081,0 0.197005,0.01204 0.277344,0.02734 -0.01266,0.100312 -0.003,0.633989 -0.291016,1.697265 l -0.945312,3.488281 a 1.4,1.4 0 0 0 0.984375,1.716797 1.4,1.4 0 0 0 1.71875,-0.984375 l 0.943359,-3.49023 c 0.352937,-1.302897 0.664087,-2.289912 0.294922,-3.462891 -0.184582,-0.586489 -0.675742,-1.171336 -1.242187,-1.451171 -0.566445,-0.279837 -1.136149,-0.339844 -1.740235,-0.339844 h -0.890625 l 0.808594,-3.06836 a 1.4,1.4 0 0 0 -0.996094,-1.710937 1.4,1.4 0 0 0 -0.394531,-0.04492 z m -9.794921,4.824219 a 1.40014,1.40014 0 0 0 -1.34961,1.033203 l -2.919922,10.775391 a 1.4,1.4 0 0 0 0.984375,1.71875 1.4,1.4 0 0 0 1.71875,-0.986329 l 0.748047,-2.763671 h 2.185547 c 1.32565,0 2.442195,-0.730164 3.142578,-1.619141 0.700382,-0.888978 1.09945,-1.94561 1.300781,-2.996094 0.201332,-1.050484 0.215944,-2.091943 -0.07031,-3.058594 -0.14313,-0.483325 -0.366636,-0.964389 -0.775393,-1.378906 -0.408757,-0.414517 -1.050177,-0.717284 -1.691406,-0.724609 a 1.40014,1.40014 0 0 0 -0.01758,0 z m 17.097655,0 a 1.40014,1.40014 0 0 0 -1.351562,1.033203 l -2.917969,10.775391 a 1.4,1.4 0 0 0 0.984375,1.71875 1.4,1.4 0 0 0 1.71875,-0.986329 l 0.748047,-2.763671 h 2.185547 c 1.325651,0 2.442195,-0.730163 3.142578,-1.619141 0.700384,-0.888978 1.09945,-1.94561 1.300781,-2.996094 0.201332,-1.050484 0.215943,-2.091944 -0.07031,-3.058594 -0.143128,-0.483324 -0.366635,-0.964389 -0.775391,-1.378906 -0.408755,-0.414517 -1.050176,-0.717284 -1.691406,-0.724609 a 1.40014,1.40014 0 0 0 -0.01758,0 z m -16.02539,2.798828 h 1.943359 c 0.01836,0.03496 0.01486,0.01787 0.03906,0.09961 0.101906,0.344125 0.138239,1.045613 0.0059,1.736328 -0.13238,0.690716 -0.422807,1.373765 -0.75,1.789063 -0.327192,0.415297 -0.575579,0.552734 -0.943359,0.552734 H 14.33179 Z m 17.097656,0 h 1.94336 c 0.01836,0.03496 0.01486,0.01787 0.03906,0.09961 0.101906,0.344126 0.138239,1.045613 0.0059,1.736328 -0.132379,0.690716 -0.422806,1.373766 -0.75,1.789063 -0.327193,0.415297 -0.575575,0.552734 -0.943359,0.552734 h -1.425781 z" fill="#008055"/>
</svg>
