<svg xmlns="http://www.w3.org/2000/svg" width="48" height="48">
	<path d="M 24.411687,1.916144 C 19.69742,1.8250898 14.929694,3.2324208 10.878484,6.2227846 9.720995,7.0771743 8.6715875,8.0243022 7.7300462,9.0489565 1.1392567,16.221537 -0.07951051,27.13104 5.2437181,35.679816 a 2,2 0 0 0 2.7558593,0.640625 2,2 0 0 0 0.640625,-2.753906 C 3.6401363,25.536736 5.6448965,15.059186 13.255437,9.4415346 c 7.61054,-5.6176505 18.211856,-4.4485784 24.412109,2.6953124 6.200253,7.143892 5.869085,17.808489 -0.763672,24.552735 -6.632756,6.744246 -17.28696,7.254148 -24.533203,1.173828 a 2,2 0 0 0 -2.8183592,0.246094 2,2 0 0 0 0.2460938,2.818359 C 18.615067,48.325921 31.685217,47.70014 39.755437,39.494269 47.825656,31.288398 48.233013,18.207882 40.68903,9.5157534 36.44554,4.6264317 30.472887,2.0332138 24.411687,1.916144 Z m -8.423828,11.285157 c -0.559456,0.01018 -1.308189,0.132819 -1.949219,0.695312 -0.641031,0.562493 -0.879881,1.378865 -0.921875,1.960938 -0.04199,0.582073 0.03383,1.065397 0.134766,1.591797 a 2.0002,2.0002 0 0 0 0.01563,0.07813 l 2.316406,9.919922 a 2.0002,2.0002 0 0 0 0.0293,0.115234 c 0.596783,2.011418 2.135343,3.87633 4.384765,4.46289 a 2.0002,2.0002 0 0 0 0.01758,0.0039 l 10.167969,2.554687 c 0.637821,0.170055 1.236059,0.276428 1.929688,0.19336 0.693628,-0.08307 1.554955,-0.491198 2.033203,-1.167969 0.956494,-1.353543 0.576428,-2.498443 0.310547,-3.556641 L 31.927312,19.884895 a 2.0002,2.0002 0 0 0 0,-0.002 C 31.414551,17.830713 29.829209,16.057929 27.749577,15.52938 a 2.0002,2.0002 0 0 0 -0.08203,-0.01953 L 17.591374,13.388801 a 2.0002,2.0002 0 0 0 -0.0078,-0.002 c -0.546298,-0.112511 -1.036261,-0.195684 -1.595715,-0.1855 z m 1.361328,4.224609 9.417968,1.982422 c 0.902559,0.22972 1.000134,0.326088 1.279297,1.443359 l 2.40625,9.677735 -9.445312,-2.375 c -0.967127,-0.252189 -1.207011,-0.558499 -1.552735,-1.71875 z" fill="#008055"/>
</svg>
