<svg xmlns="http://www.w3.org/2000/svg" width="48" height="48">
	<path d="M 24.349554,1.8857768 C 12.093167,1.6910518 1.8708946,11.285538 1.9393976,22.252964 a 2,2 0 0 0 2.011719,1.986329 2,2 0 0 0 1.988281,-2.011719 C 5.8869046,13.823352 14.170839,5.7261968 24.283148,5.8857768 34.380483,6.0620388 41.931981,14.434504 42.056586,23.626011 a 2.0002,2.0002 0 0 0 0.002,0.01563 C 42.205375,30.32041 38.16459,39.049386 28.281242,41.542032 17.807302,43.947048 10.571832,39.222868 7.1738196,30.751016 c -0.369272,-0.988087 -0.224861,-0.870014 -0.097656,-0.992187 0.128197,-0.123126 0.792037,-0.417011 1.595703,-0.472656 4.6478304,-0.320481 7.9031634,-1.946883 9.7167974,-4.59961 1.813633,-2.652727 2.141767,-5.89076 2.179687,-9.287109 a 2.0002,2.0002 0 0 0 0,-0.04883 c -0.0026,-0.192944 0.0052,-0.162004 0.01758,-0.208985 0.126998,-0.01254 0.718659,-0.02798 1.603516,0.300782 3.613579,1.560872 4.812144,4.344932 6.50586,7.453125 0.850096,1.56004 1.806324,3.19738 3.390624,4.482421 1.584301,1.285042 3.777596,2.0591 6.496094,2.00586 A 2,2 0 0 0 40.542963,27.344764 2,2 0 0 0 38.5039,25.38578 c -1.99447,0.03906 -3.025282,-0.405019 -3.898486,-1.113284 -0.873205,-0.708265 -1.607305,-1.839182 -2.398438,-3.291016 -1.582266,-2.903669 -3.476257,-7.099891 -8.482422,-9.238281 a 2.0002,2.0002 0 0 0 -0.06836,-0.0293 c -1.455576,-0.558301 -2.915028,-0.905389 -4.458984,-0.392578 -0.771979,0.256405 -1.542355,0.81676 -2.007813,1.576172 -0.465458,0.759412 -0.632919,1.631164 -0.621094,2.507812 v -0.04883 c -0.03486,3.122151 -0.438605,5.545518 -1.482422,7.072266 -1.043816,1.526748 -2.769083,2.596867 -6.6894534,2.867187 -1.351164,0.09356 -2.863009,0.397951 -4.091797,1.578125 -1.228787,1.180175 -1.614129,3.326919 -0.876953,5.291016 a 2.0002,2.0002 0 0 0 0.015625,0.03906 c 3.97679,9.95584 13.6500204,16.020809 25.7519544,13.234375 a 2.0002,2.0002 0 0 0 0.03711,-0.0098 C 41.023495,42.469362 46.233643,31.962901 46.056586,23.571324 v -0.0059 C 45.899659,12.223156 36.61645,2.0998778 24.351508,1.8857768 a 2.0002,2.0002 0 0 0 -0.002,0 z" fill="#008055"/>
</svg>
