<svg xmlns="http://www.w3.org/2000/svg" width="48" height="48">
	<path d="m 8.6289039,5.3222181 c -1.7204098,0 -3.3962093,0.3729518 -4.7246094,1.4472656 C 2.5758944,7.8437975 1.8281226,9.6061813 1.8281226,11.511671 v 19.541016 c 0,1.807671 0.7813748,3.491686 2.0625,4.576172 1.2811252,1.084485 2.9615556,1.59375 4.7382813,1.59375 l 12.6289061,-0.002 v 1.710938 c 0,1.032114 -0.238201,1.454225 -0.488281,1.697266 -0.25008,0.24304 -0.711789,0.472656 -1.701172,0.472656 h -8.158203 a 2,2 0 0 0 -2.0000001,2 2,2 0 0 0 2.0000001,2 h 8.158203 c 1.678606,0 3.312857,-0.461232 4.490234,-1.605469 1.177378,-1.144237 1.699219,-2.805717 1.699219,-4.564453 v -3.710938 a 2.0002,2.0002 0 0 0 -2,-2 l -14.6289061,0.002 c -1.0145644,0 -1.7326847,-0.289586 -2.1542969,-0.646485 C 6.0529947,32.219225 5.8281226,31.819435 5.8281226,31.052687 V 11.511671 c 0,-1.0095 0.230212,-1.340389 0.5917969,-1.6328127 0.3615849,-0.292423 1.0871541,-0.55664 2.2089844,-0.55664 H 39.986326 c 0.889362,0 1.338002,0.24425 1.648437,0.566406 0.310435,0.3221557 0.539063,0.8193117 0.539063,1.6230467 v 19.541016 c 0,1.032126 -0.238205,1.454229 -0.488282,1.697265 -0.250076,0.243037 -0.70983,0.472657 -1.699218,0.472657 H 28.716794 a 2,2 0 0 0 -2,2 2,2 0 0 0 2,2 h 11.269532 c 1.678601,0 3.3109,-0.461233 4.488281,-1.605469 1.177381,-1.144236 1.699219,-2.80571 1.699219,-4.564453 V 11.511671 c 0,-1.6401547 -0.538137,-3.2360807 -1.658203,-4.3984373 C 43.395555,5.9508771 41.752793,5.3222181 39.986326,5.3222181 Z M 24.025388,10.066358 a 1.8,1.8 0 0 0 -1.800781,1.800782 v 18.683593 a 1.8,1.8 0 0 0 1.800781,1.800782 1.8,1.8 0 0 0 1.798828,-1.800782 V 11.86714 a 1.8,1.8 0 0 0 -1.798828,-1.800782 z m 4.048828,31.035157 a 2,2 0 0 0 -2,2 2,2 0 0 0 2,2 h 7.140625 a 2,2 0 0 0 2,-2 2,2 0 0 0 -2,-2 z" fill="#008055"/>
</svg>
