<svg xmlns="http://www.w3.org/2000/svg" width="48" height="48">
	<path d="m 24.103614,3.3178537 a 1.8,1.8 0 0 0 -1.800782,1.800782 v 5.8710933 a 1.8,1.8 0 0 0 1.800782,1.798828 1.8,1.8 0 0 0 1.798828,-1.798828 V 5.1186357 A 1.8,1.8 0 0 0 24.103614,3.3178537 Z M 9.7305673,5.2358227 A 1.8,1.8 0 0 0 9.1719735,5.3432447 1.8,1.8 0 0 0 8.0958016,7.6498852 l 2.0078124,5.5175778 a 1.8,1.8 0 0 0 2.30664,1.076172 1.8,1.8 0 0 0 1.076172,-2.306641 L 11.478614,6.4194165 A 1.8,1.8 0 0 0 9.7305673,5.2358227 Z m 28.6386717,0 A 1.8,1.8 0 0 0 36.72666,6.4194165 l -2.007812,5.5175775 a 1.8,1.8 0 0 0 1.076172,2.306641 1.8,1.8 0 0 0 2.30664,-1.076172 L 40.109473,7.6498852 A 1.8,1.8 0 0 0 39.033301,5.3432447 1.8,1.8 0 0 0 38.369239,5.2358227 Z m -13.63086,8.7695313 c -0.662703,-0.01536 -1.326558,-0.01323 -1.990234,0.0078 -5.311612,0.168372 -10.585109,1.5086 -14.7226559,4.128908 a 1.90019,1.90019 0 0 0 -0.00195,0 c -4.1255226,2.620954 -6.027644,6.100896 -5.9648468,9.394531 0.062797,3.293636 1.9067325,6.142299 4.3574218,7.958985 A 1.9,1.9 0 0 0 9.0743173,35.101056 1.9,1.9 0 0 0 8.679786,32.442853 C 7.0385854,31.226238 5.8932283,29.337177 5.8575204,27.464338 5.8218178,25.591776 6.7134069,23.476785 10.058692,21.351057 16.750597,17.113074 28.935424,16.908581 36.04502,20.337385 a 1.90019,1.90019 0 0 0 0.0098,0.0059 c 2.610212,1.237488 4.775569,3.135392 5.65039,5.001953 0.87279,1.862226 0.85877,3.625213 -1.277344,6.033203 -4.923118,5.28721 -17.299164,7.382542 -27.308593,3.701172 a 1.9,1.9 0 0 0 -2.4375,1.126953 1.9,1.9 0 0 0 1.126953,2.439453 c 11.332726,4.168067 24.839118,2.397658 31.419922,-4.697265 a 1.90019,1.90019 0 0 0 0.02734,-0.0293 c 2.911797,-3.271379 3.315156,-7.146031 1.890594,-10.185545 -1.423602,-3.037467 -4.271216,-5.308694 -7.457031,-6.820312 -3.74938,-1.807103 -8.31225,-2.800652 -12.951172,-2.908203 z m -0.261719,5.197265 c -2.928633,-0.122314 -5.842737,1.307346 -7.466796,3.970703 -2.362269,3.873974 -1.152969,8.974201 2.697265,11.375 a 1.6999908,1.7000092 85.017552 0 0 0.146485,0.08203 1.6999908,1.7000092 85.017552 0 0 0.138672,0.08789 c 3.943019,2.245163 9.00657,0.885212 11.291015,-3.035156 2.284445,-3.920367 0.973576,-8.998819 -2.923828,-11.322264 -1.217939,-0.726076 -2.551615,-1.102605 -3.882813,-1.158203 z m -0.630859,3.382813 c 0.9368,-0.04802 1.899912,0.174558 2.773438,0.695312 2.329401,1.388676 3.091926,4.346334 1.726562,6.689453 -1.365363,2.34312 -4.313257,3.136812 -6.669922,1.794922 a 1.6999908,1.7000092 85.017552 0 0 -0.07813,-0.04102 1.6999908,1.7000092 85.017552 0 0 -0.0039,-0.0039 1.6999908,1.7000092 85.017552 0 0 -0.08789,-0.05664 c -2.301209,-1.43491 -3.005626,-4.405312 -1.59375,-6.720702 0.882424,-1.447119 2.372261,-2.277395 3.933594,-2.357422 z" fill="#008055"/>
</svg>
