<svg xmlns="http://www.w3.org/2000/svg" width="48" height="48">
	<path d="m 7.5380859,2.4930403 c -2.9285533,0 -5.3397709,2.4113508 -5.3398439,5.3398438 -5.8e-5,2.2712499 1.4334444,4.2354709 3.4589845,4.9980469 a 1.7001751,1.7001751 0 0 0 0.044922,0.01563 c 0.6315417,0.217656 0.8408511,0.382925 0.7324217,0.273437 -0.1084293,-0.109488 -0.095703,-0.32096 -0.095703,0.152344 v 26.904297 c 0.00212,2.441643 1.6284166,4.36289 3.59375,5.042969 1.9653339,0.680079 4.4290749,0.174187 5.9394529,-1.744141 a 1.7001751,1.7001751 0 0 0 0.002,0 L 39.09082,13.946165 c 0.351511,-0.403465 0.549628,-0.596805 0.644531,-0.654297 0.09747,-0.05905 0.191829,-0.11914 0.726563,-0.11914 2.928553,0 5.339844,-2.411294 5.339844,-5.3398439 0,-2.9285497 -2.411291,-5.3398438 -5.339844,-5.3398438 h -8.634766 c -2.928547,0 -5.33789,2.4112941 -5.33789,5.3398438 3.51e-4,1.181893 0.391741,2.3113379 1.083984,3.2246089 a 1.7001751,1.7001751 0 0 0 0.04492,0.05469 c 0.213238,0.258321 0.142987,0.26749 0.138672,0.09766 -0.0043,-0.169832 0.09538,-0.227108 -0.109375,0.01563 a 1.7001751,1.7001751 0 0 0 -0.03711,0.04492 l -8.941406,11.386719 a 1.7000051,1.7000051 0 0 0 0.285157,2.386718 1.7000051,1.7000051 0 0 0 2.388671,-0.287109 L 30.24707,13.416868 c 0.50448,-0.598066 0.931093,-1.393989 0.908203,-2.294921 -0.02289,-0.900933 -0.456323,-1.6169487 -0.916015,-2.1738285 l 0.04492,0.054688 c -0.251597,-0.331929 -0.394403,-0.740168 -0.394532,-1.171875 0.001,-1.0904911 0.847611,-1.9375 1.9375,-1.9375 h 8.634766 c 1.090567,0 1.939453,0.8480028 1.939453,1.9394531 0,1.0914503 -0.848886,1.9394531 -1.939453,1.9394531 -0.934956,0 -1.802888,0.1980784 -2.488281,0.6132813 -0.685394,0.415203 -1.09426,0.917692 -1.46875,1.349609 a 1.7001751,1.7001751 0 0 0 -0.05273,0.06445 L 13.200195,41.3739 c -0.625105,0.792007 -1.408164,0.889725 -2.15625,0.630859 -0.748339,-0.258954 -1.3029857,-0.81819 -1.3046872,-1.828125 V 13.272337 c 0,-0.866096 -0.2182301,-1.867934 -0.8886719,-2.544922 C 8.1801441,10.050427 7.4976584,9.8688564 6.8095702,9.6317122 l 0.044922,0.017578 C 6.1255722,9.3748664 5.598611,8.6794344 5.5986328,7.8328841 5.5986599,6.7413771 6.4475192,5.893431 7.5380859,5.893431 h 8.1308591 c 1.090552,0 1.939453,0.8480028 1.939453,1.9394531 0,0.8686599 -0.555709,1.5777857 -1.314453,1.8359375 l 0.02539,-0.00781 c -0.657269,0.2127893 -1.377465,0.4225959 -1.992188,1.1562499 -0.614723,0.733654 -0.710937,1.62127 -0.710937,2.423828 v 16.417969 a 1.7000051,1.7000051 0 0 0 1.701172,1.701172 1.7000051,1.7000051 0 0 0 1.699219,-1.701172 V 13.241087 c 0,-0.521342 0.06726,-0.420738 -0.08398,-0.240234 -0.151243,0.180504 -0.106057,0.06924 0.433594,-0.105469 a 1.7001751,1.7001751 0 0 0 0.02344,-0.0078 c 2.109856,-0.717848 3.619141,-2.723947 3.619141,-5.0546874 0,-2.9285497 -2.411296,-5.3398438 -5.339844,-5.3398438 z" fill="#008055"/>
</svg>
