<svg xmlns="http://www.w3.org/2000/svg" width="48" height="48">
	<path d="M 29.160583,5.6642891 C 18.007059,5.7707503 7.1482905,12.690419 2.7191766,24.000227 a 1.90019,1.90019 0 0 0 -0.013672,0.03516 c -0.8890401,2.414548 -0.7951225,4.929519 0.3496094,6.88086 a 1.90019,1.90019 0 0 0 0.019531,0.0332 c 6.934263,11.277376 21.052032,13.707271 32.789063,9.359374 a 1.9,1.9 0 0 0 1.121093,-2.44336 1.9,1.9 0 0 0 -2.441406,-1.121093 C 24.155943,40.592323 12.189182,38.483633 6.3285516,28.980696 5.9935939,28.398076 5.7670001,26.734954 6.2680047,25.361555 11.757906,11.386435 28.457096,5.2009751 41.053161,12.629133 c 0.65013,0.385787 0.865283,0.698706 0.966797,0.96875 0.100742,0.267993 0.122428,0.61782 -0.05664,1.207032 -3.728582,11.31283 -15.269451,17.193035 -28.306641,15.277343 a 1.9,1.9 0 0 0 -2.15625,1.603516 1.9,1.9 0 0 0 1.603516,2.15625 c 14.506615,2.13161 28.148194,-4.680562 32.480469,-17.871094 a 1.90019,1.90019 0 0 0 0.0098,-0.0332 c 0.362409,-1.175691 0.435206,-2.473248 -0.01758,-3.677734 -0.452784,-1.204487 -1.393976,-2.194104 -2.589844,-2.9023445 a 1.90019,1.90019 0 0 0 -0.002,-0.00195 C 39.319584,7.1942416 35.363001,6.023572 31.393004,5.7346016 30.64863,5.6804196 29.904151,5.6571917 29.160583,5.6642891 Z m -4.740235,6.0234379 c -2.982987,-0.06047 -5.915859,1.46572 -7.49414,4.222656 -2.179821,3.807699 -0.942281,8.581644 2.611328,11.029297 a 1.7999902,1.8000098 85.017552 0 0 0.501953,0.443359 c 0,0 0.002,0 0.002,0 a 1.7999902,1.8000098 85.017552 0 1 0.002,0.002 1.7999902,1.8000098 85.017552 0 0 0.0039,0.002 1.7999902,1.8000098 85.017552 0 0 0.01563,0.0098 c 0.0037,0.0021 0.008,0.0037 0.01172,0.0059 a 1.7999902,1.8000098 85.017552 0 0 0.628906,0.205078 c 3.912656,1.818245 8.652414,0.457191 10.826172,-3.353516 2.289506,-4.013618 0.879082,-9.174229 -3.132812,-11.466797 -1.253811,-0.716595 -2.620753,-1.072289 -3.976657,-1.099777 z m -0.554687,3.595703 c 0.92159,-0.06677 1.874775,0.132951 2.746093,0.630859 2.323515,1.327756 3.116995,4.234089 1.791016,6.558594 -1.325978,2.324506 -4.231084,3.119099 -6.55664,1.794922 a 1.7999902,1.8000098 85.017552 0 0 -0.0078,-0.0039 1.7999902,1.8000098 85.017552 0 0 -0.0059,-0.002 c -0.0012,-6.78e-4 -0.0027,-0.0013 -0.0039,-0.002 -2.318727,-1.332258 -3.106222,-4.241221 -1.777343,-6.5625 0.830972,-1.451539 2.278468,-2.302784 3.814453,-2.414063 z" fill="#008055"/>
</svg>
