<svg xmlns="http://www.w3.org/2000/svg" width="48" height="48">
	<path d="M 5.1019546,4.9416815 A 2,2 0 0 0 4.0472671,5.2678533 2,2 0 0 0 3.4691421,8.0373846 L 12.933986,22.488557 a 2.0002,2.0002 0 0 0 0.05273,0.07617 c 0.728882,1.007317 0.715683,1.795123 0.04102,2.830078 L 3.4710952,39.961213 A 2,2 0 0 0 4.045314,42.730744 2,2 0 0 0 6.8148452,42.156525 L 16.375392,27.58426 a 2.0002,2.0002 0 0 0 0.0039,-0.0039 c 1.435993,-2.202846 1.446555,-5.151645 -0.152343,-7.361329 l 0.05273,0.07617 L 6.8148452,5.8459783 A 2,2 0 0 0 5.1019546,4.9416815 Z m 8.5917974,0 A 2,2 0 0 0 12.639064,5.2717596 2,2 0 0 0 12.070705,8.0412908 L 34.566798,42.158479 a 2,2 0 0 0 2.769532,0.570312 2,2 0 0 0 0.568359,-2.771484 L 15.410548,5.8401189 A 2,2 0 0 0 13.693752,4.9416815 Z M 30.846095,18.568635 a 2,2 0 0 0 -2,2 2,2 0 0 0 2,2 h 12.011719 a 2,2 0 0 0 2,-2 2,2 0 0 0 -2,-2 z m 4.181641,6.861328 a 2,2 0 0 0 -2,2 2,2 0 0 0 2,2 h 7.830078 a 2,2 0 0 0 2,-2 2,2 0 0 0 -2,-2 z m -14.085938,2.794922 a 2,2 0 0 0 -1.65039,0.890625 l -7.214844,10.833984 a 2,2 0 0 0 0.554688,2.773438 2,2 0 0 0 2.773437,-0.556641 L 22.621486,31.33426 a 2,2 0 0 0 -0.556641,-2.773438 2,2 0 0 0 -1.123047,-0.335937 z" fill="#008055"/>
</svg>
