<svg xmlns="http://www.w3.org/2000/svg" width="48" height="48">
	<path d="m 24.332978,1.9836636 c -1.131334,-0.025484 -2.262717,0.03727 -3.38086,0.1894531 a 1.9,1.9 0 0 0 -1.625,2.1386719 1.9,1.9 0 0 0 2.138672,1.626953 c 6.972282,-0.948952 14.663779,2.45937 18.302734,9.2519534 -1.307828,1.457388 -3.316582,2.011324 -4.919922,1.921875 C 32.26371,13.305639 28.40367,10.989386 23.489228,11.028586 a 1.9,1.9 0 0 0 -1.884766,1.914062 1.9,1.9 0 0 0 1.914062,1.884766 c 4.215128,-0.03362 6.720028,1.585901 8.771485,5.173828 a 1.90019,1.90019 0 0 0 1.328125,0.929688 c 3.411489,0.583232 7.850368,-0.671852 10.089844,-4.585938 a 1.90019,1.90019 0 0 0 0.08203,-1.726562 C 40.184652,6.6375656 32.252314,2.1620499 24.332978,1.9836636 Z m -9.048829,2.087891 a 1.90019,1.90019 0 0 0 -0.726562,0.167968 C 5.4365945,8.3598886 0.89480771,18.132277 2.1122739,27.077414 a 1.9,1.9 0 0 0 2.1386718,1.626953 1.9,1.9 0 0 0 1.6269528,-2.140625 C 4.9289465,19.59147 8.3372725,11.899928 15.129852,8.2610076 c 1.457921,1.308289 2.011891,3.3183264 1.921876,4.9218754 -3.806942,2.584911 -6.125169,6.442907 -6.085938,11.357422 a 1.9,1.9 0 0 0 1.916016,1.884765 1.9,1.9 0 0 0 1.884765,-1.914062 c -0.03365,-4.215123 1.585937,-6.718028 5.173828,-8.769532 a 1.90019,1.90019 0 0 0 0.929688,-1.330078 c 0.58323,-3.41149 -0.673788,-7.8504094 -4.587891,-10.0898434 a 1.90019,1.90019 0 0 0 -0.998047,-0.25 z M 43.952118,19.239523 a 1.9,1.9 0 0 0 -0.203125,0.01563 1.9,1.9 0 0 0 -1.625,2.138672 c 0.948952,6.972272 -2.459359,14.665682 -9.251953,18.304688 -1.458325,-1.30831 -2.011901,-3.318129 -1.921875,-4.921875 3.806707,-2.584864 6.123214,-6.445049 6.083984,-11.359375 a 1.9,1.9 0 0 0 -1.916015,-1.884766 1.9,1.9 0 0 0 -1.884766,1.916016 c 0.03365,4.215122 -1.584029,6.718144 -5.171875,8.769531 a 1.90019,1.90019 0 0 0 -0.929687,1.330078 c -0.583231,3.41149 0.671879,7.850308 4.585937,10.089844 a 1.90019,1.90019 0 0 0 1.726563,0.08203 C 42.56528,39.599524 47.105131,29.827237 45.887665,20.882102 a 1.9,1.9 0 0 0 -1.935547,-1.642579 z m -30.724609,7.699219 c -0.452327,-0.0139 -0.913476,0.0024 -1.378907,0.05078 -2.7925815,0.290476 -5.7090655,1.730451 -7.3886715,4.666016 a 1.90019,1.90019 0 0 0 -0.082032,1.726563 C 8.4983065,42.503088 18.268691,47.04488 27.213837,45.827414 a 1.9,1.9 0 0 0 1.626953,-2.138672 1.9,1.9 0 0 0 -2.138672,-1.626953 c -6.972282,0.948952 -14.663779,-2.45937 -18.3027345,-9.251953 1.307864,-1.457058 3.3167515,-2.011315 4.9199225,-1.921875 2.584885,3.807124 6.444702,6.123289 11.359375,6.083984 a 1.9,1.9 0 0 0 1.884765,-1.914062 1.9,1.9 0 0 0 -1.914062,-1.884766 c -4.215083,0.03371 -6.720026,-1.585986 -8.771485,-5.173828 a 1.90019,1.90019 0 0 0 -1.328125,-0.929687 c -0.426436,-0.0729 -0.869939,-0.116963 -1.322265,-0.13086 z" fill="#008055"/>
</svg>
