<svg xmlns="http://www.w3.org/2000/svg" width="48" height="48">
	<path d="m 18.413762,3.7511866 a 2,2 0 0 0 -2,2 2,2 0 0 0 2,2 h 13.351562 a 2.0002,2.0002 0 0 0 0.07617,-0.002 c 1.048923,-0.03923 1.622715,0.225348 2.265625,1.316406 l 8.039063,13.7460944 c 0.375235,0.67946 0.496962,1.329808 -0.164063,2.533203 0,0 0,0.002 0,0.002 L 34.86884,37.766812 28.52509,27.606656 a 2,2 0 0 0 -2.75586,-0.636719 2,2 0 0 0 -0.636718,2.755859 l 6.460937,10.347657 a 2.0002,2.0002 0 0 0 0.01758,0.0293 c 0.644983,0.993439 1.461292,1.916145 2.853516,2.154297 1.392224,0.238152 2.7852,-0.700096 3.451172,-1.763672 a 2.0002,2.0002 0 0 0 0.04101,-0.06836 l 7.513672,-13.121094 a 2.0002,2.0002 0 0 0 0.01758,-0.0293 c 1.206885,-2.19521 1.142895,-4.619256 0.158204,-6.40039 a 2.0002,2.0002 0 0 0 -0.02344,-0.04297 L 37.55634,7.0402486 a 2.0002,2.0002 0 0 0 -0.0039,-0.0059 c -1.259235,-2.136998 -3.545436,-3.367862 -5.861328,-3.28125 l 0.07422,-0.002 z m -5.400391,2.208984 c -1.251332,0.05454 -2.470824,0.909513 -3.0937502,1.982422 a 2.0002,2.0002 0 0 0 -0.00391,0.0078 L 2.439152,20.962124 a 2.0002,2.0002 0 0 0 -0.00977,0.01563 c -0.9638278,1.715255 -1.1797026,4.015702 -0.085937,6.039063 a 2.0002,2.0002 0 0 0 0.033203,0.05859 l 6.8300782,11.65625 a 2,2 0 0 0 2.7363278,0.71289 2,2 0 0 0 0.714844,-2.736328 L 5.8629802,25.114468 c -0.4162333,-0.769991 -0.333436,-1.484114 0.054688,-2.175781 0,0 0,-0.002 0,-0.002 L 13.167668,10.31564 a 2.0002,2.0002 0 0 0 0.01563,0.02539 l 9.414063,14.86914 a 2.0002,2.0002 0 0 0 3.404296,-0.04102 L 33.605173,12.501181 A 2,2 0 0 0 32.919626,9.7570396 2,2 0 0 0 30.175485,10.442587 l -5.933593,9.886719 -7.677735,-12.1289064 0.01758,0.03125 c -0.657508,-1.080425 -1.604144,-2.03152 -3.031257,-2.244135 -0.178388,-0.02658 -0.358347,-0.03513 -0.537109,-0.02734 z m 8.519531,20.8105474 a 2,2 0 0 0 -1.689453,1.033203 L 13.376652,39.53439 c -0.562992,0.934754 -0.647621,2.233103 -0.07422,3.207031 0.573401,0.973929 1.681217,1.509766 2.746093,1.509766 H 29.43134 a 2,2 0 0 0 2,-2 2,2 0 0 0 -2,-2 H 17.548527 l 5.798829,-10.515625 a 2,2 0 0 0 -0.785157,-2.716797 2,2 0 0 0 -1.029297,-0.248047 z" fill="#008055"/>
</svg>
