<svg xmlns="http://www.w3.org/2000/svg" width="48" height="48">
	<path d="m 23.671875,4.7984085 c -1.353368,0.03898 -2.664861,0.448565 -3.779296,1.115234 a 2.0002,2.0002 0 0 0 -0.01758,0.0098 L 5.7304678,14.573833 a 2,2 0 0 0 -0.6621093,2.75 2,2 0 0 0 2.7480472,0.66211 l 14.1289063,-8.6406255 0.0039,-0.002 c 1.285143,-0.767741 2.283021,-0.903465 3.609375,-0.0625 a 2.0002,2.0002 0 0 0 0.03711,0.02148 l 9.994141,6.0351565 -20.638672,0.01953 a 2,2 0 0 0 -1.998047,2.001953 2,2 0 0 0 2.001954,1.998047 l 24.0625,-0.02344 c 0.864159,0 1.515939,-0.0269 2.197265,-0.201172 0.340663,-0.08714 0.71283,-0.194806 1.158203,-0.55664 0.445373,-0.361835 0.89787,-1.202278 0.84961,-1.921876 -0.09652,-1.439195 -0.809854,-1.722342 -1.289063,-2.097656 -0.479209,-0.375313 -1.017754,-0.702829 -1.660156,-1.0625 L 27.699219,5.9019235 C 26.418803,5.0900865 25.025244,4.7594265 23.671875,4.7984085 Z M 11.341797,20.620674 a 2.0999999,2.0999999 0 0 0 -2.0996093,2.09961 v 13.037109 a 2.0999999,2.0999999 0 0 0 2.0996093,2.09961 2.0999999,2.0999999 0 0 0 2.101563,-2.09961 V 22.720284 a 2.0999999,2.0999999 0 0 0 -2.101563,-2.09961 z m 12.658203,0 a 2.0999999,2.0999999 0 0 0 -2.099609,2.09961 V 35.757393 A 2.0999999,2.0999999 0 0 0 24,37.857003 2.0999999,2.0999999 0 0 0 26.09961,35.757393 V 22.720284 A 2.0999999,2.0999999 0 0 0 24,20.620674 Z m 12.658203,0 a 2.0999999,2.0999999 0 0 0 -2.099609,2.09961 v 13.037109 a 2.0999999,2.0999999 0 0 0 2.099609,2.09961 2.0999999,2.0999999 0 0 0 2.09961,-2.09961 V 22.720284 a 2.0999999,2.0999999 0 0 0 -2.09961,-2.09961 z M 3.2441407,39.003487 a 2.0999999,2.0999999 0 0 0 -2.0996094,2.099609 2.0999999,2.0999999 0 0 0 2.0996094,2.101563 H 44.75586 a 2.0999999,2.0999999 0 0 0 2.099609,-2.101563 2.0999999,2.0999999 0 0 0 -2.099609,-2.099609 z" fill="#008055"/>
</svg>
