<svg xmlns="http://www.w3.org/2000/svg" width="48" height="48">
	<path d="m 10.226404,4.3003934 a 1.9,1.9 0 0 0 -1.9003908,1.900391 1.9,1.9 0 0 0 1.9003908,1.900391 H 40.07406 L 37.072107,34.921487 c -0.0827,0.585654 -0.247472,0.822016 -0.785156,1.056641 l -11.529297,3.767578 c -0.647723,0.202386 -1.080038,0.221075 -1.546875,0.05273 a 1.90019,1.90019 0 0 0 -0.04492,-0.01563 L 11.534998,35.921487 c -0.507884,-0.230135 -0.611838,-0.259601 -0.6875,-0.943359 a 1.90019,1.90019 0 0 0 -0.002,-0.01758 L 7.8904663,10.425393 A 1.9,1.9 0 0 0 5.7752319,8.7652374 1.9,1.9 0 0 0 4.1170288,10.878518 l 2.9550781,24.517579 c 0.2127003,1.922164 1.5696574,3.384699 2.9277344,4.005859 a 1.90019,1.90019 0 0 0 0.1914067,0.07617 l 11.730469,3.894531 c 1.401722,0.505459 2.815272,0.360414 3.96875,0 a 1.90019,1.90019 0 0 0 0.02344,-0.0078 l 11.707031,-3.826172 a 1.90019,1.90019 0 0 0 0.16211,-0.06055 c 1.678524,-0.722583 2.812583,-2.324805 3.052734,-4.025391 a 1.90019,1.90019 0 0 0 0.0059,-0.05273 L 43.870979,8.3453264 a 1.90019,1.90019 0 0 0 0,-0.0078 c 0.09919,-0.9169 -0.07638,-1.952494 -0.753906,-2.78125 -0.677524,-0.828757 -1.789085,-1.25586 -2.84375,-1.25586 z m 4.080078,7.2324216 a 1.90019,1.90019 0 0 0 -1.888672,2.103516 l 0.828125,7.683594 a 1.90019,1.90019 0 0 0 1.888672,1.697265 h 15.480469 l -0.773438,6.830078 a 1.90019,1.90019 0 0 0 -0.002,0.0098 c -0.07859,0.721143 -0.139426,0.941297 -0.859375,1.199219 l -3.753906,1.261718 c -0.874611,0.262823 -1.871006,0.285049 -2.660156,0.04688 l -3.636719,-1.181641 c -0.35508,-0.116908 -0.754516,-0.726446 -0.810547,-1.197266 a 1.90019,1.90019 0 0 0 0,-0.002 l -0.261719,-2.179687 a 1.9,1.9 0 0 0 -2.113281,-1.660157 1.9,1.9 0 0 0 -1.660156,2.113282 l 0.261719,2.179687 c 0.209894,1.759089 1.269011,3.655009 3.396484,4.355469 a 1.90019,1.90019 0 0 0 0.0059,0.002 l 3.681641,1.197266 a 1.90019,1.90019 0 0 0 0.03906,0.01172 c 1.629757,0.491877 3.326414,0.41521 4.859376,-0.04688 a 1.90019,1.90019 0 0 0 0.05664,-0.01953 l 3.841797,-1.291015 a 1.90019,1.90019 0 0 0 0.03516,-0.01172 c 2.04181,-0.731479 3.17003,-2.665531 3.355469,-4.367188 v 0.0098 l 0.785156,-6.933594 c 0.128739,-1.049189 -0.174892,-2.17304 -0.89648,-2.9571 -0.721588,-0.78406 -1.77446,-1.169922 -2.804688,-1.169922 H 16.841638 l -0.419921,-3.882812 h 17.185546 a 1.9,1.9 0 0 0 1.900391,-1.900391 1.9,1.9 0 0 0 -1.900391,-1.900391 z" fill="#008055"/>
</svg>
