<svg xmlns="http://www.w3.org/2000/svg" width="48" height="48">
	<path d="m 43.464069,4.7504757 c -0.283409,0.0063 -0.564498,0.03694 -0.835938,0.078125 C 30.24701,6.6137668 17.324654,6.4319995 5.7199285,4.8500851 4.5954579,4.6879985 3.3340756,4.7413728 2.3957098,5.6801632 1.457344,6.6189536 1.3993474,7.9304636 1.6164129,9.1196163 a 1.70017,1.70017 0 0 0 0.00195,0.00977 C 2.634299,14.542001 2.3204214,20.11248 1.4777411,25.55321 a 1.70017,1.70017 0 0 0 0,0.0059 c -0.1851668,1.22971 -0.321645,2.412235 0.6289062,3.480469 0.4752756,0.534117 1.1774578,0.808966 1.7597656,0.875 0.5823078,0.06603 1.1023722,-0.0049 1.6464844,-0.119141 a 1.70017,1.70017 0 0 0 0.00781,-0.002 C 9.703476,28.897196 13.298737,28.54125 17.454303,28.7661 a 1.7,1.7 0 0 0 1.789063,-1.605468 1.7,1.7 0 0 0 -1.605469,-1.789063 c -4.455066,-0.241056 -8.4238383,0.156022 -12.8144528,1.095703 6.636e-4,-0.132854 -0.01615,-0.180393 0.015625,-0.394531 v -0.0059 C 5.7147999,20.410339 6.0758067,14.453629 4.9601629,8.5063351 4.9268303,8.3192789 4.9362146,8.2880175 4.9328192,8.2016475 c 0.087383,-6.34e-4 0.1223203,-0.012334 0.3027343,0.013672 a 1.70017,1.70017 0 0 0 0.011719,0 C 17.15906,9.8403387 30.373746,10.03213 43.126178,8.1918819 a 1.70017,1.70017 0 0 0 0.01367,-0.00195 c 0.02747,-0.00417 0.0182,0.00113 0.04297,-0.00195 -0.0017,0.0067 -1.45e-4,0.00287 -0.002,0.00977 a 1.70017,1.70017 0 0 0 -0.02344,0.09375 C 42.007774,13.984202 41.631036,19.976475 42.95816,25.963377 l -0.0039,-0.01172 c 0.06397,0.2987 0.04716,0.408673 0.05664,0.597657 -4.592922,-0.837674 -8.59359,-1.399279 -13.501953,-1.179688 a 1.7,1.7 0 0 0 -1.623047,1.775391 1.7,1.7 0 0 0 1.77539,1.621093 c 4.564998,-0.204229 8.213167,0.301794 12.71875,1.123047 0.597885,0.117069 1.146672,0.19224 1.767579,0.111328 0.620906,-0.08091 1.40058,-0.43259 1.847656,-1.060547 0.894151,-1.255912 0.56699,-2.385126 0.285156,-3.701171 a 1.70017,1.70017 0 0 0 -0.0039,-0.01172 C 45.082892,19.84214 45.404936,14.345419 46.491413,8.9653194 l -0.02344,0.09375 C 46.763259,7.9331623 46.8041,6.6137938 45.878131,5.6489132 45.415147,5.1664729 44.874621,4.9203442 44.313678,4.8149288 44.033207,4.7622211 43.747478,4.7441771 43.464069,4.7504757 Z M 23.700397,11.580554 a 3.074666,3.074666 0 0 0 -3.074219,3.074218 3.074666,3.074666 0 0 0 3.074219,3.074219 3.074666,3.074666 0 0 0 3.076172,-3.074219 3.074666,3.074666 0 0 0 -3.076172,-3.074218 z M 8.5753973,18.936022 a 1.7,1.7 0 0 0 -1.5976562,1.326172 1.7,1.7 0 0 0 1.2851562,2.03125 c 4.3420227,0.977963 8.9559447,0.900139 13.3183587,0.359375 0.377101,-0.04706 0.3786,-0.03015 0.458985,-0.02539 v 5.578126 c 0,0.364254 -0.406249,1.672836 -0.759766,2.634765 a 1.70017,1.70017 0 0 0 -0.02148,0.06055 L 17.99337,40.936026 a 1.7,1.7 0 0 0 1.089844,2.142578 1.7,1.7 0 0 0 2.142578,-1.089843 l 3.246093,-9.97461 c 0.324463,-0.882871 0.96875,-2.222649 0.96875,-3.808593 v -5.685547 c 0,-1.096544 -0.553557,-2.348764 -1.529297,-2.884766 -0.975739,-0.536002 -1.887684,-0.463077 -2.75,-0.355469 -4.105865,0.50881 -8.35651,0.551769 -12.1503898,-0.302734 a 1.7,1.7 0 0 0 -0.4355469,-0.04102 z m 19.7929687,0 a 1.7,1.7 0 0 0 -1.699219,1.464844 1.7,1.7 0 0 0 1.451172,1.917969 c 4.019004,0.55839 8.024918,0.865293 11.738281,-0.03125 a 1.7,1.7 0 0 0 1.253906,-2.050781 1.7,1.7 0 0 0 -2.052734,-1.253907 c -2.978237,0.719057 -6.60466,0.50616 -10.472656,-0.03125 a 1.7,1.7 0 0 0 -0.21875,-0.01563 z m -1.931641,13.789063 a 1.7,1.7 0 0 0 -0.78125,0.169922 1.7,1.7 0 0 0 -0.789062,2.269531 l 3.449218,7.126953 a 1.7,1.7 0 0 0 2.271485,0.789063 1.7,1.7 0 0 0 0.789062,-2.271485 l -3.449218,-7.125 a 1.7,1.7 0 0 0 -1.490235,-0.958984 z" fill="#008055"/>
</svg>
