<svg xmlns="http://www.w3.org/2000/svg" width="48" height="48">
	<path d="m 9.0888673,4.381836 c -1.50387,0 -2.9754041,0.493407 -4.0468751,1.525391 -1.071471,1.031983 -1.6484375,2.547037 -1.6484375,4.166016 v 27.298828 c 0,1.571048 0.3395759,3.109804 1.3300781,4.333984 0.9905022,1.22418 2.6197468,1.912109 4.3652345,1.912109 A 1.9,1.9 0 0 0 10.989257,41.717774 1.9,1.9 0 0 0 9.0888673,39.817383 C 8.1941345,39.817383 7.9261137,39.6212 7.6787109,39.31543 7.4313082,39.00966 7.1923828,38.374222 7.1923828,37.372071 V 10.073243 c 0,-0.785322 0.2132216,-1.166646 0.4863281,-1.429688 C 7.9518174,8.380513 8.3792068,8.180664 9.0888673,8.180664 H 38.928711 c 0.918915,0 1.274535,0.210246 1.474609,0.416016 0.200074,0.20577 0.402344,0.596453 0.402344,1.476563 v 27.298828 c 0,0.901304 -0.25547,1.530049 -0.5625,1.892578 -0.307031,0.362528 -0.642778,0.552734 -1.314453,0.552734 H 14.237304 a 1.9,1.9 0 0 0 -1.90039,1.900391 1.9,1.9 0 0 0 1.90039,1.90039 h 24.691407 c 1.660074,0 3.214403,-0.719466 4.21289,-1.898437 0.998487,-1.178972 1.464844,-2.721961 1.464844,-4.347656 V 10.073243 c 0,-1.535191 -0.422082,-3.040448 -1.478516,-4.126954 C 42.071496,4.859784 40.537585,4.381836 38.928711,4.381836 Z m 26.1074217,5.851563 a 3.1343811,3.1328628 0 0 0 -3.125,3.132812 3.1343811,3.1328628 0 0 0 3.134765,3.132813 3.1343811,3.1328628 0 0 0 3.134766,-3.132813 3.1343811,3.1328628 0 0 0 -3.134766,-3.132812 3.1343811,3.1328628 0 0 0 -0.0098,0 z M 23.819336,13.81543 c -3.253258,0.0472 -6.433576,1.648863 -8.34375,4.556641 -2.922589,4.448932 -1.764814,10.333047 2.402343,13.519531 a 1.8995436,1.9004563 84.999678 0 0 0.490235,0.488281 c 0.0028,0.0019 0.005,0.004 0.0078,0.0059 a 1.8995436,1.9004563 84.999678 0 0 0.01953,0.01172 1.8995436,1.9004563 84.999678 0 0 0.0039,0.0039 1.8995436,1.9004563 84.999678 0 1 0.002,0 1.8995436,1.9004563 84.999678 0 0 0.662109,0.263672 c 4.583479,2.540986 10.437015,1.25765 13.351563,-3.191406 3.050337,-4.656338 1.736529,-10.958084 -2.919922,-14.009766 -1.746169,-1.14438 -3.723827,-1.676756 -5.675781,-1.648437 z m 0.03711,3.779297 c 1.215624,-0.01467 2.452356,0.322491 3.554688,1.044922 2.939549,1.926481 3.749624,5.812822 1.824218,8.751953 -1.925405,2.939131 -5.8119,3.752809 -8.753906,1.830078 a 1.8995436,1.9004563 84.999678 0 0 -0.0098,-0.0059 1.8995436,1.9004563 84.999678 0 0 -0.0059,-0.0039 c -2.937088,-1.930229 -3.739703,-5.817232 -1.810547,-8.753906 1.205723,-1.835421 3.175132,-2.838838 5.201172,-2.863281 z" fill="#008055"/>
</svg>
