<svg xmlns="http://www.w3.org/2000/svg" width="48" height="48">
	<path d="m 10.56839,4.3759765 c -1.758735,0 -3.4221668,0.5218425 -4.5664062,1.6992187 C 4.8577442,7.2525715 4.3984681,8.8848686 4.3984681,10.563477 l -0.039062,4.982422 a 2,2 0 0 0 1.984375,2.015625 2,2 0 0 0 2.015625,-1.984375 l 0.039062,-4.998047 a 2.0002,2.0002 0 0 0 0,-0.01563 c 0,-0.9893924 0.2296208,-1.4510984 0.4726563,-1.7011725 C 9.1141599,8.6122305 9.536265,8.3759764 10.56839,8.3759764 h 26.880859 c 0.803732,0 1.30089,0.2266731 1.623047,0.5371092 0.322158,0.310437 0.56836,0.761048 0.56836,1.6503914 v 26.259766 c 0,1.121805 -0.266164,1.847387 -0.558594,2.208984 -0.292431,0.361596 -0.623324,0.591797 -1.632813,0.591797 h -5.373046 a 2,2 0 0 0 -2,2 2,2 0 0 0 2,2 h 5.373046 c 1.905501,0 3.669834,-0.747769 4.744141,-2.076172 1.074307,-1.328404 1.447266,-3.004216 1.447266,-4.724609 V 10.563477 c 0,-1.7664574 -0.630614,-3.4092338 -1.792969,-4.5292974 -1.162355,-1.1200638 -2.75828,-1.6582031 -4.398438,-1.6582031 z m -3.5,14.9804695 a 2,2 0 0 0 -2,2 2,2 0 0 0 2,2 c 9.798291,0 17.166016,7.748396 17.166016,17.558593 a 2,2 0 0 0 2,2 2,2 0 0 0 2,-2 c 0,-11.852802 -9.226699,-21.558593 -21.166016,-21.558593 z m -0.076172,9.058593 a 2,2 0 0 0 -1.923828,1.957032 2,2 0 0 0 1.9589844,2.042968 c 5.1806936,0.109277 8.5605716,3.465351 8.5605466,8.498047 a 2,2 0 0 0 2,2.001953 2,2 0 0 0 2,-2 c 3.5e-5,-6.988303 -5.435274,-12.351477 -12.4765622,-12.5 a 2,2 0 0 0 -0.1191408,0 z m 1.1660157,7.816407 a 3.6396722,3.638214 0 0 0 -2.6035157,1.066406 3.6396722,3.638214 0 0 0 0,5.144531 3.6396722,3.638214 0 0 0 5.148438,0 3.6396722,3.638214 0 0 0 0,-5.144531 3.6396722,3.638214 0 0 0 -2.5449223,-1.066406 z" fill="#008055"/>
</svg>
