<svg xmlns="http://www.w3.org/2000/svg" width="48" height="48">
	<path d="M 23.960071,1.619804 C 22.818943,1.605797 21.655032,1.8908795 20.596789,2.5494915 L 6.9932735,10.461601 a 2.0002,2.0002 0 0 0 -0.00391,0.002 c -1.7431128,1.019561 -3.2773058,2.881838 -3.2558557,5.281253 l 0.064453,15.482422 a 2,2 0 0 0 2.0078126,1.992188 2,2 0 0 0 1.9921874,-2.007813 L 7.7335078,15.719413 a 2.0002,2.0002 0 0 0 0,-0.0098 c -0.00574,-0.642111 0.438064,-1.302213 1.2714844,-1.791011 l 0.00391,-0.002 13.6503908,-7.9414062 a 2.0002,2.0002 0 0 0 0.05273,-0.029297 c 0.756224,-0.4706462 1.702476,-0.4251565 2.527343,0.033203 0,0 0.002,0 0.002,0 l 13.685546,7.8417972 a 2.0002,2.0002 0 0 0 0.02148,0.01367 c 0.791551,0.439877 1.2628,1.225734 1.265625,2.199219 l 0.05273,15.796875 c -0.0012,1.096229 -0.278232,1.64754 -1.267578,2.21875 a 2.0002,2.0002 0 0 0 -0.0059,0.0039 l -13.654297,7.941407 a 2.0002,2.0002 0 0 0 -0.0039,0.0039 c -1.114296,0.651396 -1.304176,0.69587 -2.283204,0.160156 h -0.002 L 9.2256953,34.225273 a 2,2 0 0 0 -2.7304687,0.740235 2,2 0 0 0 0.7402343,2.730468 l 13.8574221,7.951172 a 2.0002,2.0002 0 0 0 0.03516,0.01953 c 2.007494,1.098974 4.398776,0.851762 6.222657,-0.21289 l 0.0039,-0.002 13.644531,-7.939453 c 2.082163,-1.20216 3.267578,-3.428052 3.267578,-5.6875 a 2.0002,2.0002 0 0 0 0,-0.0078 l -0.05273,-15.794887 c -0.0068,-2.355716 -1.270997,-4.543672 -3.322266,-5.683594 l 0.02344,0.01172 -13.707032,-7.8535156 a 2.0002,2.0002 0 0 0 -0.02148,-0.011719 C 26.219925,1.947068 25.101204,1.6338113 23.960077,1.619804 Z m 0.214843,13.701172 a 1.8,1.8 0 0 0 -1.625,1.041016 l -6.30664,13.583984 a 1.8,1.8 0 0 0 0.875,2.390625 1.8,1.8 0 0 0 2.390625,-0.875 l 6.30664,-13.583984 a 1.8,1.8 0 0 0 -0.875,-2.390625 1.8,1.8 0 0 0 -0.765625,-0.166016 z m 6.144532,0 a 1.8,1.8 0 0 0 -1.628907,1.035156 l -3.064453,6.53711 a 1.8,1.8 0 0 0 0.867188,2.394531 1.8,1.8 0 0 0 2.392578,-0.867187 l 3.064453,-6.535157 a 1.8,1.8 0 0 0 -0.865234,-2.394531 1.8,1.8 0 0 0 -0.765625,-0.169922 z m 6.132812,0 a 1.8,1.8 0 0 0 -1.625,1.041016 l -6.306641,13.583984 a 1.8,1.8 0 0 0 0.875,2.390625 1.8,1.8 0 0 0 2.390626,-0.875 l 6.30664,-13.583984 a 1.8,1.8 0 0 0 -0.875,-2.390625 1.8,1.8 0 0 0 -0.765625,-0.166016 z m -21.652344,7.044922 a 1.8,1.8 0 0 0 -1.628906,1.03711 l -3.064453,6.537109 a 1.8,1.8 0 0 0 0.867187,2.392578 1.8,1.8 0 0 0 2.392578,-0.865234 l 3.064454,-6.53711 a 1.8,1.8 0 0 0 -0.865235,-2.392578 1.8,1.8 0 0 0 -0.765625,-0.171875 z" fill="#008055"/>
</svg>
