<svg xmlns="http://www.w3.org/2000/svg" width="48" height="48">
	<path d="m 10.226315,4.3004141 a 1.9,1.9 0 0 0 -1.9003905,1.900391 1.9,1.9 0 0 0 1.9003905,1.90039 H 40.073971 L 37.072018,34.923461 c -0.08274,0.582293 -0.248195,0.816918 -0.783203,1.050781 l -11.53125,3.771485 c -0.647723,0.202386 -1.078085,0.221075 -1.544922,0.05273 a 1.90019,1.90019 0 0 0 -0.04688,-0.01757 L 11.527096,35.917602 C 11.02893,35.692019 10.92448,35.656993 10.849362,34.978149 a 1.90019,1.90019 0 0 0 -0.0039,-0.01758 L 7.8903785,10.423461 A 1.9,1.9 0 0 0 5.7770965,8.7652581 1.9,1.9 0 0 0 4.1169405,10.878539 l 2.955078,24.517578 c 0.2127,1.922166 1.569657,3.3847 2.927734,4.00586 a 1.90019,1.90019 0 0 0 0.1914065,0.07617 l 11.732422,3.894531 c 1.401722,0.505459 2.813319,0.360413 3.966797,0 a 1.90019,1.90019 0 0 0 0.02539,-0.0078 l 11.707031,-3.826172 a 1.90019,1.90019 0 0 0 0.160157,-0.0625 c 1.678524,-0.722582 2.812583,-2.322851 3.052734,-4.023437 a 1.90019,1.90019 0 0 0 0.0078,-0.05469 L 43.870846,8.3433831 a 1.90019,1.90019 0 0 0 0,-0.0059 c 0.09919,-0.916901 -0.07443,-1.952494 -0.751953,-2.78125 -0.677524,-0.828757 -1.791038,-1.25586 -2.845703,-1.25586 z m 21.371094,7.1855469 -17.275391,0.04688 a 1.9,1.9 0 0 0 -1.894531,1.904297 1.9,1.9 0 0 0 1.90625,1.896484 l 17.181641,-0.04688 -1.673829,14.558594 a 1.90019,1.90019 0 0 0 -0.002,0.0098 c -0.07823,0.717823 -0.142469,0.940722 -0.853515,1.197265 l -3.759766,1.265625 c -0.873508,0.262086 -1.869905,0.284318 -2.658203,0.04688 l -3.638672,-1.18164 C 18.574313,31.066357 18.174877,30.45682 18.118846,29.986 a 1.90019,1.90019 0 0 0 0,-0.0039 L 17.857127,27.802412 A 1.9,1.9 0 0 0 15.743846,26.144209 1.9,1.9 0 0 0 14.08369,28.25749 l 0.261719,2.179688 c 0.209894,1.759089 1.269011,3.655009 3.396484,4.355469 a 1.90019,1.90019 0 0 0 0.0059,0.002 l 3.683594,1.197266 a 1.90019,1.90019 0 0 0 0.03711,0.01172 c 1.629757,0.491877 3.326414,0.413257 4.859376,-0.04883 a 1.90019,1.90019 0 0 0 0.05664,-0.01758 l 3.84375,-1.291016 a 1.90019,1.90019 0 0 0 0.03516,-0.01367 c 2.04105,-0.731352 3.169455,-2.662109 3.355469,-4.363281 l 1.683594,-14.65625 c 0.128736,-1.049212 -0.174896,-2.173063 -0.896484,-2.957123 -0.721586,-0.78406 -1.772506,-1.169922 -2.802734,-1.169922 a 1.90019,1.90019 0 0 0 -0.0059,0 z" fill="#008055"/>
</svg>
