<svg xmlns="http://www.w3.org/2000/svg" width="48" height="48">
	<path d="m 12.237175,7.2791065 c -1.242489,0 -2.5169616,0.245481 -3.5468746,1.113281 -1.029913,0.867801 -1.527344,2.2652215 -1.527344,3.6738275 v 11.791016 c -0.015803,4.011697 1.718102,7.078815 4.3984376,8.751953 2.682167,1.674282 6.034638,2.13086 9.574219,2.13086 3.833325,0 7.355507,-0.489645 10.146484,-2.164063 2.790977,-1.674418 4.609375,-4.748857 4.609375,-8.71875 v -9.380859 a 1.9,1.9 0 0 0 -1.900391,-1.900391 1.9,1.9 0 0 0 -1.90039,1.900391 v 9.380859 c 0,2.955807 -0.954729,4.373728 -2.763672,5.458984 -1.808943,1.085257 -4.714412,1.623047 -8.191406,1.623047 -3.1778,0 -5.876997,-0.501816 -7.560547,-1.552734 -1.683551,-1.050918 -2.627102,-2.471661 -2.613282,-5.519531 a 1.90019,1.90019 0 0 0 0,-0.0098 V 12.066215 c 0,-0.667894 0.110236,-0.712656 0.177735,-0.769531 0.0675,-0.05687 0.379055,-0.216797 1.097656,-0.216797 h 26.595703 c 0.907497,0 2.126366,0.264238 2.939453,0.833985 0.813088,0.569746 1.388672,1.294859 1.388672,3.082031 0,1.808678 -0.548248,2.487245 -1.30664,3.015625 -0.758394,0.52838 -1.925537,0.774438 -2.871094,0.777344 a 1.9,1.9 0 0 0 -1.894532,1.90625 1.9,1.9 0 0 0 1.90625,1.892578 c 1.494994,-0.0046 3.363417,-0.296989 5.03125,-1.458985 1.667835,-1.161995 2.935547,-3.32709 2.935547,-6.132812 0,-2.827329 -1.318323,-5.0081305 -3.009765,-6.1933585 -1.691443,-1.185229 -3.587158,-1.523438 -5.119141,-1.523438 z m 27.5,25.6894525 a 1.9,1.9 0 0 0 -1.326172,0.5625 c -1.499057,1.510725 -3.93521,3.277847 -6.951172,3.388672 H 11.664909 a 1.90019,1.90019 0 0 0 -0.01367,0 C 8.4961584,36.942976 5.8996054,35.472996 4.3895194,33.687309 A 1.9,1.9 0 0 0 1.7117844,33.4627 1.9,1.9 0 0 0 1.4871754,36.140434 c 2.224354,2.630313 5.854006,4.612034 10.1914056,4.580078 h 19.835938 a 1.90019,1.90019 0 0 0 0.06641,-0.002 c 4.392907,-0.154753 7.633864,-2.603502 9.527344,-4.511719 a 1.9,1.9 0 0 0 -0.0098,-2.6875 1.9,1.9 0 0 0 -1.361328,-0.550781 z" fill="#008055"/>
</svg>
