<svg xmlns="http://www.w3.org/2000/svg" width="48" height="48">
	<path d="M 39.748134,1.9862367 C 38.261414,2.043689 37.411565,2.7538175 36.128993,3.3592836 25.846907,7.7969659 19.476661,5.9928906 11.462978,2.2831117 A 2.0999999,2.0999999 0 0 0 8.6758682,3.3065492 2.0999999,2.0999999 0 0 0 9.6993057,6.0956117 C 18.086904,9.9784876 26.481889,12.101909 37.804774,7.2108461 a 2.1002099,2.1002099 0 0 0 0.05469,-0.023437 C 38.758306,6.7685454 38.747085,6.7549107 39.142665,6.6073305 V 26.95694 c 0,5.361678 -1.681681,8.903128 -4.382812,11.267578 -2.701132,2.364451 -6.612735,3.59375 -11.300782,3.59375 -4.262874,0 -7.892444,-1.157394 -10.435547,-3.478515 -2.543102,-2.321121 -4.1865225,-5.876773 -4.1660151,-11.375 a 2.1002099,2.1002099 0 0 0 0,-0.0098 V 8.1014711 A 2.0999999,2.0999999 0 0 0 6.7578995,6.0018617 2.0999999,2.0999999 0 0 0 4.6582901,8.1014711 V 26.95694 c -0.021987,6.375073 2.0388609,11.295046 5.5332029,14.484375 3.495848,3.190704 8.238553,4.576172 13.267578,4.576172 5.424154,0 10.404638,-1.427463 14.066406,-4.632812 3.661769,-3.20535 5.816407,-8.144012 5.816407,-14.427735 V 6.4823305 c 0,-0.9647093 -0.0348,-1.7500386 -0.408203,-2.6230469 C 42.560273,2.9862753 41.404218,2.0872649 40.427821,2.0038148 40.18634,1.9831761 39.960522,1.9780293 39.748134,1.9862367 Z M 31.109462,13.185456 a 2.0999999,2.0999999 0 0 0 -2.099609,2.099609 v 15.183594 c 0,2.579246 -1.266318,3.171259 -2.441407,3.179687 -1.175089,0.0084 -2.412109,-0.518881 -2.412109,-3.179687 a 2.0999999,2.0999999 0 0 0 -2.101563,-2.099609 2.0999999,2.0999999 0 0 0 -2.099609,2.099609 c 0,4.444794 3.290417,7.404905 6.642578,7.380859 3.352161,-0.02405 6.611328,-2.984405 6.611328,-7.380859 V 15.285065 a 2.0999999,2.0999999 0 0 0 -2.099609,-2.099609 z" fill="#008055"/>
</svg>
