<svg xmlns="http://www.w3.org/2000/svg" width="48" height="48">
	<path d="m 6.2246095,2.9670028 a 3.2733059,3.2733059 0 0 0 -2.300781,0.9589843 3.2733059,3.2733059 0 0 0 0,4.6289059 3.2733059,3.2733059 0 0 0 4.630859,0 3.2733059,3.2733059 0 0 0 0,-4.6289059 3.2733059,3.2733059 0 0 0 -2.330078,-0.9589843 z M 41.746093,3.1037215 a 3.2733059,3.2733059 0 0 0 -2.300781,0.9589844 3.2733059,3.2733059 0 0 0 0,4.6289061 3.2733059,3.2733059 0 0 0 4.630859,0 3.2733059,3.2733059 0 0 0 0,-4.6289061 3.2733059,3.2733059 0 0 0 -2.330078,-0.9589844 z M 15.734375,6.4689559 C 13.49359,6.5254999 11.217219,7.415863 9.4785155,9.154503 6.0305735,12.602572 6.0431325,18.11424 9.2226565,21.326378 a 1.90019,1.90019 0 0 0 0.00586,0.0059 l 9.6249995,9.625 a 1.9,1.9 0 0 0 2.6875,0 1.9,1.9 0 0 0 0,-2.6875 l -9.61914,-9.617187 -0.0039,-0.0059 -0.002,-0.002 c -1.59114,-1.616085 -1.73222,-4.824348 0.248047,-6.804687 1.953793,-1.953721 5.495259,-1.79771 6.925781,-0.367188 a 1.9,1.9 0 0 0 2.685547,0 1.9,1.9 0 0 0 0,-2.6875 C 20.178951,7.188923 17.975159,6.4124122 15.734375,6.4689559 Z m 16.710937,0.035156 c -2.210475,-0.030356 -4.391979,0.7677279 -5.998047,2.3574219 a 1.90019,1.90019 0 0 0 -0.0078,0.0059 l -9.625,9.6250002 a 1.9,1.9 0 0 0 0,2.6875 1.9,1.9 0 0 0 2.6875,0 l 9.61914,-9.61914 c 1.613865,-1.5974122 4.827419,-1.7409412 6.810547,0.242187 1.953679,1.953679 1.799663,5.49526 0.369141,6.925781 a 1.9,1.9 0 0 0 0,2.685547 1.9,1.9 0 0 0 2.6875,0 C 42.181159,18.22139 42.096461,12.594715 38.61914,9.117393 36.895104,7.393357 34.655787,6.534468 32.445312,6.5041119 Z M 28.082031,16.46505 a 1.9,1.9 0 0 0 -1.328125,0.55664 1.9,1.9 0 0 0 0,2.6875 l 9.625,9.625 c 1.591058,1.61607 1.73222,4.824348 -0.248047,6.804688 -1.953793,1.95372 -5.495379,1.799605 -6.925781,0.36914 a 1.9,1.9 0 0 0 -2.685547,0 1.9,1.9 0 0 0 0,2.685547 c 3.192797,3.192936 8.819467,3.110092 12.296875,-0.367187 3.447942,-3.44807 3.435266,-8.959722 0.255859,-12.171875 a 1.90019,1.90019 0 0 0 -0.0059,-0.0078 l -9.626953,-9.625 a 1.9,1.9 0 0 0 -1.357422,-0.55664 z m -17.740235,9.566406 a 1.9,1.9 0 0 0 -1.3281245,0.554687 c -3.192796,3.192797 -3.110222,8.821419 0.367188,12.298828 3.4479845,3.448113 8.9596575,3.435197 12.1718745,0.25586 a 1.90019,1.90019 0 0 0 0.0078,-0.0059 l 9.625,-9.626953 a 1.9,1.9 0 0 0 0,-2.6875 1.9,1.9 0 0 0 -2.6875,0.002 l -9.617175,9.617181 c -1.613983,1.597463 -4.829485,1.740901 -6.8125,-0.242188 -1.95379,-1.953789 -1.799544,-5.493424 -0.369141,-6.923828 a 1.9,1.9 0 0 0 0,-2.6875 1.9,1.9 0 0 0 -1.357422,-0.554687 z m 31.384766,12.4375 a 3.2733059,3.2733059 0 0 0 -2.298828,0.958984 3.2733059,3.2733059 0 0 0 0,4.628907 3.2733059,3.2733059 0 0 0 4.628906,0 3.2733059,3.2733059 0 0 0 0,-4.628907 3.2733059,3.2733059 0 0 0 -2.330078,-0.958984 z m -35.3652335,0.01758 a 3.2733059,3.2733059 0 0 0 -2.298829,0.958984 3.2733059,3.2733059 0 0 0 0,4.628907 3.2733059,3.2733059 0 0 0 4.628907,0 3.2733059,3.2733059 0 0 0 0,-4.628907 3.2733059,3.2733059 0 0 0 -2.330078,-0.958984 z" fill="#008055"/>
</svg>
