<svg xmlns="http://www.w3.org/2000/svg" width="48" height="48">
	<path d="m 38.688971,2.9242045 c -0.327308,-0.014885 -0.659419,-0.00395 -0.992188,0.029297 a 1.90019,1.90019 0 0 0 -0.02734,0.00195 c -3.395103,0.3910458 -6.215215,1.9736087 -8.865235,3.3789062 -2.650019,1.405297 -5.123254,2.644253 -7.779297,2.898438 l 0.03906,-0.0039 c -1.470304,0.1112 -2.879262,0.555233 -3.96875,1.5332033 -1.089488,0.977971 -1.705078,2.481326 -1.705078,4.064454 a 1.90019,1.90019 0 0 0 0,0.002 l 0.0098,21.447265 c -0.0137,2.837747 -0.78258,3.677426 -1.480468,4.181641 a 1.90019,1.90019 0 0 0 -0.02344,0.01563 c -1.635982,1.218747 -3.077215,1.068664 -4.1093752,0.189453 -1.4881537,-1.26731 -1.4260779,-3.014593 -0.7285156,-4.09375 a 1.90019,1.90019 0 0 0 0.00195,-0.002 c 0.3024436,-0.469642 0.7457184,-0.73723 1.3339848,-0.878906 0.588266,-0.141677 1.292051,-0.07901 1.640625,0.03711 a 1.9,1.9 0 0 0 2.404297,-1.203125 1.9,1.9 0 0 0 -1.203125,-2.402344 c -1.125387,-0.374884 -2.40313,-0.444673 -3.7304693,-0.125 -1.3273388,0.319674 -2.7336606,1.105314 -3.640625,2.513672 -1.7080849,2.644829 -1.4339567,6.58325 1.4589844,9.046875 2.3904269,2.035068 6.0297939,2.047332 8.8281259,-0.0293 1.646774,-1.195381 3.031133,-3.568656 3.048828,-7.232422 a 1.90019,1.90019 0 0 0 0,-0.0098 L 19.189,14.826521 c 0,-0.727274 0.165212,-0.984899 0.445312,-1.236329 0.280101,-0.251429 0.828951,-0.505265 1.714844,-0.572265 a 1.90019,1.90019 0 0 0 0.03906,-0.002 c 3.572787,-0.341917 6.521994,-1.906567 9.195312,-3.3242193 2.666841,-1.414218 5.066167,-2.669775 7.501953,-2.9550782 0.635633,-0.060409 0.987805,0.076977 1.109375,0.1640622 0.122649,0.08786 0.165284,0.09396 0.175782,0.445313 a 1.90019,1.90019 0 0 0 0,0.002 c 0.01753,0.566113 0.0039,0.979802 0.0039,1.875 a 1.9,1.9 0 0 0 1.90039,1.9003903 1.9,1.9 0 0 0 1.900391,-1.9003903 c 0,-0.850768 0.01517,-1.309452 -0.0059,-1.990234 v -0.002 C 43.128757,5.8889572 42.469442,4.5734318 41.407721,3.8128763 40.611051,3.2421887 39.670896,2.9688602 38.688971,2.9242045 Z m 0.8125,9.1210945 c -0.276085,-0.01738 -0.547928,-0.0093 -0.808594,0.02148 a 1.90019,1.90019 0 0 0 -0.002,0 c -3.252527,0.387152 -5.93393,1.81833 -8.445312,2.96289 -2.511383,1.144562 -4.802952,2.019247 -7.402344,1.873047 a 1.9,1.9 0 0 0 -2.003906,1.791016 1.9,1.9 0 0 0 1.791015,2.003906 c 3.573736,0.201001 6.560404,-1.012749 9.189453,-2.210937 2.62838,-1.197883 4.949462,-2.364058 7.31836,-2.646485 0.111506,-0.01315 0.151573,-0.0094 0.173828,-0.0078 0.0069,0.0058 0.07527,0.0959 0.07031,0.595703 a 1.90019,1.90019 0 0 0 0,0.01953 l 0.01172,14.666016 c -0.01369,2.83775 -0.784293,3.677306 -1.482422,4.181641 a 1.90019,1.90019 0 0 0 -0.02148,0.01758 c -1.635826,1.218762 -3.079207,1.068632 -4.111328,0.189453 -1.488261,-1.267679 -1.424063,-3.014804 -0.726563,-4.09375 a 1.90019,1.90019 0 0 0 0.002,-0.0039 c 0.302482,-0.469726 0.745747,-0.735258 1.333985,-0.876953 0.588237,-0.141694 1.29198,-0.08097 1.640625,0.03516 a 1.9,1.9 0 0 0 2.402343,-1.201172 1.9,1.9 0 0 0 -1.201172,-2.404297 c -1.125421,-0.374869 -2.405081,-0.44473 -3.732421,-0.125 -1.327341,0.31973 -2.731747,1.107252 -3.638672,2.515625 -1.708144,2.644639 -1.435547,6.583019 1.457031,9.046875 2.388773,2.034798 6.026207,2.047437 8.824219,-0.02539 1.649015,-1.194067 3.035046,-3.568824 3.052734,-7.236328 a 1.90019,1.90019 0 0 0 0,-0.01172 l -0.0098,-14.65625 c 0.01321,-1.33193 -0.390319,-2.606318 -1.304688,-3.449218 -0.685777,-0.632176 -1.548699,-0.91858 -2.376953,-0.970703 z" fill="#008055"/>
</svg>
