<svg xmlns="http://www.w3.org/2000/svg" width="48" height="48">
	<path d="m 31.297852,1.9228514 a 1.9,1.9 0 0 0 -1.898438,1.9003906 1.9,1.9 0 0 0 1.898438,1.9003905 h 4.144531 c 1.050297,0 1.503965,0.244322 1.769531,0.517578 0.265566,0.273257 0.5,0.764862 0.5,1.771485 v 5.2187505 a 1.9,1.9 0 0 0 1.900391,1.90039 1.9,1.9 0 0 0 1.900391,-1.90039 V 8.0126955 c 0,-1.661378 -0.454461,-3.265729 -1.576172,-4.4199222 C 38.814812,2.4385795 37.182956,1.9228514 35.442383,1.9228514 Z m -18.744141,0.00781 c -1.619247,0 -3.1887282,0.5310363 -4.3300781,1.6308594 C 7.082283,4.6613465 6.4619141,6.2759785 6.4619141,8.0205075 V 39.375977 c 0,1.705469 0.3710085,3.35788 1.4257813,4.662109 1.0547728,1.30423 2.7829366,2.039063 4.6660156,2.039063 a 1.9,1.9 0 0 0 1.900391,-1.900391 1.9,1.9 0 0 0 -1.900391,-1.90039 c -1.031911,0 -1.398973,-0.243161 -1.710938,-0.628907 -0.311964,-0.385745 -0.580078,-1.134653 -0.580078,-2.271484 V 8.0205075 c 0,-0.911271 0.254494,-1.391979 0.597657,-1.722656 0.343162,-0.330677 0.868717,-0.566406 1.693359,-0.566406 h 8.785156 c 1.147003,0.04916 1.727099,0.366517 2.546875,1.128906 L 36.754883,20.543946 a 1.90019,1.90019 0 0 0 0.05859,0.0625 c 0.672081,0.652678 0.925781,1.41355 0.925781,2.363281 v 16.40625 c 0,1.033625 -0.294837,1.777611 -0.669922,2.220703 -0.375085,0.443092 -0.80683,0.679688 -1.599609,0.679688 H 18.237305 a 1.9,1.9 0 0 0 -1.900391,1.90039 1.9,1.9 0 0 0 1.900391,1.900391 h 17.232422 c 1.781641,0 3.4337,-0.765758 4.5,-2.025391 1.0663,-1.259632 1.568359,-2.918106 1.568359,-4.675781 v -16.40625 c 0,-1.752869 -0.603533,-3.659722 -2.076172,-5.089844 l 0.06055,0.06055 L 26.581058,4.1826205 a 1.90019,1.90019 0 0 0 -0.08594,-0.087891 C 25.235219,2.9184357 23.534225,2.0168225 21.485352,1.932617 a 1.90019,1.90019 0 0 0 -0.07813,-0.00195 z M 16.84082,22.004883 c -0.78087,0 -1.567664,0.235655 -2.205078,0.773438 -0.637413,0.537782 -1.064453,1.417409 -1.064453,2.345703 v 10.308594 c 0,0.989929 0.508148,1.86781 1.148438,2.376953 0.640289,0.509142 1.374496,0.740234 2.121093,0.740234 a 1.4,1.4 0 0 0 1.400391,-1.400391 1.4,1.4 0 0 0 -1.400391,-1.40039 c -0.09536,0 -0.29433,-0.06361 -0.378906,-0.13086 -0.08458,-0.06725 -0.0918,-0.04486 -0.0918,-0.185546 v -3.861329 h 6.296875 v 4.177735 h -2.28125 a 1.4,1.4 0 0 0 -1.40039,1.40039 1.4,1.4 0 0 0 1.40039,1.400391 h 10.882813 c 1.727299,0 3.130859,-1.513115 3.130859,-3.117187 V 25.124024 c 0,-0.94874 -0.400012,-1.856388 -1.041015,-2.396485 -0.641004,-0.540096 -1.402556,-0.722656 -2.089844,-0.722656 z m 0,2.800781 h 5.826172 v 3.964844 h -6.296875 v -3.646484 c 0,-0.179876 0.01789,-0.160853 0.07031,-0.205078 0.05242,-0.04423 0.199166,-0.113282 0.40039,-0.113282 z m 8.625,0 h 5.802735 c 0.172482,0 0.277631,0.05451 0.287109,0.0625 0.0095,0.008 0.04492,-0.03927 0.04492,0.25586 v 3.646484 H 25.46582 Z m 0,6.765625 h 6.134766 v 3.861329 c 0,0.324967 0.08052,0.316406 -0.332031,0.316406 H 25.46582 Z" fill="#008055"/>
</svg>
