<svg xmlns="http://www.w3.org/2000/svg" width="48" height="48">
	<path d="m 31.297852,1.9228505 a 1.9,1.9 0 0 0 -1.900391,1.898437 1.9,1.9 0 0 0 1.900391,1.900391 h 4.144531 c 1.050297,0 1.503965,0.246275 1.769531,0.519531 0.265566,0.273256 0.5,0.762908 0.5,1.769531 v 5.2187505 a 1.9,1.9 0 0 0 1.900391,1.900391 1.9,1.9 0 0 0 1.90039,-1.900391 V 8.0107405 c 0,-1.661377 -0.45446,-3.263775 -1.576171,-4.417969 -1.121712,-1.154193 -2.753568,-1.669921 -4.494141,-1.669921 z m -18.744141,0.0078 c -1.619247,0 -3.1887282,0.529083 -4.3300781,1.628906 -1.1413499,1.099823 -1.7617188,2.714455 -1.7617188,4.458985 V 39.375963 c 0,1.70547 0.3710085,3.355927 1.4257813,4.660157 1.0547728,1.304229 2.7829366,2.041015 4.6660156,2.041015 a 1.9,1.9 0 0 0 1.900391,-1.90039 1.9,1.9 0 0 0 -1.900391,-1.900391 c -1.031911,0 -1.398973,-0.243161 -1.710938,-0.628906 -0.311964,-0.385745 -0.580078,-1.134653 -0.580078,-2.271485 V 8.0185535 c 0,-0.911271 0.254494,-1.39198 0.597657,-1.722657 0.343162,-0.330677 0.868717,-0.566406 1.693359,-0.566406 h 8.785156 c 1.144164,0.04903 1.724471,0.366708 2.541016,1.125 L 36.75293,20.543944 a 1.90019,1.90019 0 0 0 0.06055,0.06055 c 0.672081,0.652678 0.925781,1.41355 0.925781,2.363281 v 16.408203 c 0,1.033626 -0.294837,1.775658 -0.669922,2.21875 -0.375085,0.443093 -0.808783,0.681641 -1.601562,0.681641 H 18.237305 a 1.9,1.9 0 0 0 -1.900391,1.900391 1.9,1.9 0 0 0 1.900391,1.90039 h 17.230469 c 1.781641,0 3.435653,-0.767711 4.501953,-2.027343 1.0663,-1.259633 1.568359,-2.916153 1.568359,-4.673829 V 22.967772 c 0,-1.752868 -0.603533,-3.659721 -2.076172,-5.089843 L 26.581055,4.1806625 a 1.90019,1.90019 0 0 0 -0.08594,-0.08789 c -1.259898,-1.17629 -2.960892,-2.07595 -5.009765,-2.160156 a 1.90019,1.90019 0 0 0 -0.07813,-0.002 z m 4.296875,19.9472665 c -0.801573,0 -1.611225,0.241465 -2.269531,0.796875 -0.658306,0.555409 -1.09961,1.466852 -1.09961,2.421875 V 35.40526 c 0,1.020259 0.525411,1.932107 1.185547,2.457032 0.660137,0.524924 1.413737,0.759765 2.183594,0.759765 a 1.5,1.5 0 0 0 1.5,-1.5 1.5,1.5 0 0 0 -1.5,-1.5 c -0.07211,0 -0.251677,-0.05595 -0.316406,-0.107422 -0.06473,-0.05147 -0.05273,9.86e-4 -0.05273,-0.109375 V 25.096679 c 0,-0.153147 0.0017,-0.102308 0.0332,-0.128907 0.03153,-0.0266 0.155413,-0.08984 0.335937,-0.08984 h 14.427735 c 0.154096,0 0.235732,0.05008 0.222656,0.03906 -0.01308,-0.01102 0.0098,-0.0921 0.0098,0.179688 v 10.308593 c 0,0.279286 0.133175,0.216797 -0.232421,0.216797 H 20.395508 a 1.5,1.5 0 0 0 -1.5,1.5 1.5,1.5 0 0 0 1.5,1.5 h 10.882813 c 1.774255,0 3.232421,-1.567043 3.232421,-3.216797 V 25.096679 c 0,-0.972084 -0.412614,-1.913556 -1.076171,-2.472657 -0.663558,-0.5591 -1.450577,-0.746093 -2.15625,-0.746093 z" fill="#008055"/>
</svg>
