<svg xmlns="http://www.w3.org/2000/svg" width="48" height="48">
	<path d="m 31.297852,1.92285 a 1.9,1.9 0 0 0 -1.898438,1.900391 1.9,1.9 0 0 0 1.898438,1.898437 h 4.144531 c 1.050296,0 1.503965,0.246275 1.769531,0.519531 0.265566,0.273257 0.5,0.762909 0.5,1.769532 v 5.21875 a 1.9,1.9 0 0 0 1.900391,1.90039 1.9,1.9 0 0 0 1.90039,-1.90039 v -5.21875 c 0,-1.661378 -0.45446,-3.263776 -1.576172,-4.417969 C 38.814812,2.438578 37.182956,1.92285 35.442383,1.92285 Z m -18.744141,0.0078 c -1.619247,0 -3.1887283,0.531037 -4.3300781,1.63086 C 7.082283,4.661345 6.461914,6.274024 6.461914,8.018553 v 31.357422 c 0,1.705469 0.3710086,3.355926 1.4257814,4.660156 1.0547727,1.30423 2.7829366,2.041016 4.6660156,2.041016 a 1.9,1.9 0 0 0 1.900391,-1.900391 1.9,1.9 0 0 0 -1.900391,-1.900391 c -1.031911,0 -1.398973,-0.24316 -1.710938,-0.628906 -0.311964,-0.385745 -0.580078,-1.134653 -0.580078,-2.271484 V 8.018553 c 0,-0.911271 0.254494,-1.390026 0.597657,-1.720703 0.343162,-0.330677 0.868716,-0.568359 1.693359,-0.568359 h 8.777344 c 1.155026,0.04747 1.732043,0.3658 2.554687,1.130859 l 12.869141,13.683594 a 1.90019,1.90019 0 0 0 0.06055,0.06055 c 0.672081,0.652678 0.923828,1.415503 0.923828,2.365234 v 16.40625 c 0,1.033625 -0.294837,1.775657 -0.669922,2.21875 -0.375085,0.443092 -0.80683,0.68164 -1.599609,0.68164 H 18.237305 a 1.9,1.9 0 0 0 -1.900391,1.900391 1.9,1.9 0 0 0 1.900391,1.900391 h 17.232422 c 1.781641,0 3.4337,-0.767711 4.5,-2.027344 1.066299,-1.259633 1.568359,-2.916153 1.568359,-4.673828 v -16.40625 c 0,-1.752869 -0.603533,-3.659722 -2.076172,-5.089844 l 0.06055,0.06055 L 26.581058,4.180668 a 1.90019,1.90019 0 0 0 -0.08594,-0.08594 C 25.23522,2.918437 23.534226,2.016825 21.485353,1.932618 a 1.90019,1.90019 0 0 0 -0.07617,-0.002 z m 8.511719,14.38086 c -0.636457,0 -1.369865,0.122602 -1.898438,0.699219 -0.528572,0.576616 -0.570312,1.240115 -0.570312,1.759765 v 4.59375 a 1.3,1.3 0 0 0 1.300781,1.300781 1.3,1.3 0 0 0 1.298828,-1.300781 v -4.453125 h 5.507813 v 4.453125 a 1.3,1.3 0 0 0 1.298828,1.300781 1.3,1.3 0 0 0 1.300781,-1.300781 v -4.59375 c 0,-0.538533 -0.01135,-1.18265 -0.546875,-1.777344 -0.535529,-0.594693 -1.264677,-0.68164 -1.847656,-0.68164 z m -3.041016,9.146484 c -0.94862,0 -1.917117,0.205158 -2.708984,0.849609 -0.791868,0.644453 -1.232422,1.715099 -1.232422,2.794922 v 5.814454 a 1.5,1.5 0 0 0 1.5,1.498046 1.5,1.5 0 0 0 1.5,-1.5 v -5.8125 c 0,-0.412077 0.05739,-0.413726 0.125,-0.46875 0.06761,-0.05502 0.319536,-0.175781 0.816406,-0.175781 h 12.488281 c 0.344359,0 0.427073,0.0767 0.488282,0.140625 0.06121,0.06392 0.142578,0.190183 0.142578,0.503906 v 5.8125 a 1.5,1.5 0 0 0 1.5,1.5 1.5,1.5 0 0 0 1.5,-1.5 v -5.8125 c 0,-0.937076 -0.310256,-1.882295 -0.976563,-2.578125 -0.666306,-0.695829 -1.647975,-1.066406 -2.654297,-1.066406 z m 2.855469,7.056641 c -0.579383,0 -1.280478,0.09851 -1.806641,0.65625 -0.526163,0.557735 -0.572278,1.210694 -0.572265,1.726562 v 2.837891 c 0,0.545575 0.144615,1.253285 0.689453,1.734375 0.544837,0.481089 1.163308,0.541016 1.689453,0.541016 h 6.255859 c 0.566307,0 1.208478,-0.125313 1.710938,-0.595704 0.502459,-0.47039 0.664087,-1.143585 0.664062,-1.679687 v -2.078125 a 1.3,1.3 0 0 0 -1.300781,-1.298828 1.3,1.3 0 0 0 -1.298828,1.298828 v 1.751953 h -5.810547 v -2.294922 h 4.613281 a 1.3,1.3 0 0 0 1.298828,-1.298828 1.3,1.3 0 0 0 -1.298828,-1.300781 z" fill="#008055"/>
</svg>
