<svg xmlns="http://www.w3.org/2000/svg" width="48" height="48">
	<path d="m 31.297852,1.9228505 a 1.9,1.9 0 0 0 -1.90039,1.90039 1.9,1.9 0 0 0 1.90039,1.898438 h 4.144531 c 1.050297,0 1.503966,0.246273 1.769532,0.519531 0.265566,0.273258 0.5,0.762884 0.5,1.769531 V 13.22949 a 1.9,1.9 0 0 0 1.90039,1.900391 1.9,1.9 0 0 0 1.900391,-1.900391 V 8.0107405 c 0,-1.661392 -0.454461,-3.263767 -1.576172,-4.417969 -1.121711,-1.154201 -2.753567,-1.669921 -4.494141,-1.669921 z m -18.74414,0.0078 c -1.619249,0 -3.1887291,0.531036 -4.3300789,1.630859 -1.1413499,1.099823 -1.7617188,2.712502 -1.7617188,4.457032 V 39.375962 c 0,1.70547 0.3710085,3.355928 1.4257813,4.660157 1.0547727,1.304229 2.7829364,2.041015 4.6660164,2.041015 a 1.9,1.9 0 0 0 1.90039,-1.90039 1.9,1.9 0 0 0 -1.90039,-1.900391 c -1.031912,0 -1.398974,-0.243161 -1.710938,-0.628906 -0.311965,-0.385745 -0.580078,-1.134653 -0.580078,-2.271485 V 8.0185535 c 0,-0.911271 0.254493,-1.390027 0.597656,-1.720703 0.343163,-0.330679 0.868716,-0.56836 1.69336,-0.56836 h 8.77539 c 1.155026,0.04747 1.733996,0.3658 2.556641,1.13086 L 36.75293,20.543943 a 1.90019,1.90019 0 0 0 0.06055,0.06055 c 0.672082,0.652678 0.925781,1.415504 0.925781,2.365234 v 16.40625 c 0,1.033626 -0.294836,1.775658 -0.669922,2.21875 -0.375084,0.443093 -0.808783,0.681641 -1.601562,0.681641 H 18.237305 a 1.9,1.9 0 0 0 -1.90039,1.900391 1.9,1.9 0 0 0 1.90039,1.90039 h 17.230469 c 1.781641,0 3.435653,-0.767711 4.501953,-2.027343 1.0663,-1.259633 1.568359,-2.916153 1.568359,-4.673829 v -16.40625 c 0,-1.752868 -0.603533,-3.65972 -2.076171,-5.089843 l 0.06055,0.06055 -12.94141,-13.7597715 a 1.90019,1.90019 0 0 0 -0.08594,-0.08594 c -1.259899,-1.176289 -2.960893,-2.077903 -5.009766,-2.162109 a 1.90019,1.90019 0 0 0 -0.07813,-0.002 z M 16.25293,21.86815 a 1.5,1.5 0 0 0 -1.5,1.5 1.5,1.5 0 0 0 1.5,1.5 h 15.439453 a 1.5,1.5 0 0 0 1.5,-1.5 1.5,1.5 0 0 0 -1.5,-1.5 z m 0,6.888672 a 1.5,1.5 0 0 0 -1.5,1.5 1.5,1.5 0 0 0 1.5,1.5 h 15.439453 a 1.5,1.5 0 0 0 1.5,-1.5 1.5,1.5 0 0 0 -1.5,-1.5 z m 0,6.888672 a 1.5,1.5 0 0 0 -1.5,1.5 1.5,1.5 0 0 0 1.5,1.5 h 15.439453 a 1.5,1.5 0 0 0 1.5,-1.5 1.5,1.5 0 0 0 -1.5,-1.5 z" fill="#008055"/>
</svg>
