<svg xmlns="http://www.w3.org/2000/svg" width="48" height="48">
	<path d="m 31.297851,1.923826 a 1.9,1.9 0 0 0 -1.90039,1.898437 1.9,1.9 0 0 0 1.90039,1.900391 h 4.144532 c 1.050296,0 1.503965,0.244322 1.769531,0.517578 0.265566,0.273256 0.5,0.764862 0.5,1.771484 v 5.21875 a 1.9,1.9 0 0 0 1.900391,1.900391 1.9,1.9 0 0 0 1.90039,-1.900391 v -5.21875 c 0,-1.661377 -0.45446,-3.265728 -1.576172,-4.419921 -1.121711,-1.154194 -2.753567,-1.667969 -4.49414,-1.667969 z m -18.74414,0.0078 c -1.619248,0 -3.1906815,0.529084 -4.3320314,1.628907 C 7.0803298,4.660356 6.461914,6.274988 6.461914,8.019517 v 31.355469 c 0,1.705469 0.3710086,3.357879 1.4257812,4.662109 1.0547729,1.30423 2.7829368,2.039063 4.6660158,2.039063 a 1.9,1.9 0 0 0 1.898437,-1.898438 1.9,1.9 0 0 0 -1.898437,-1.90039 c -1.031911,0 -1.400926,-0.245115 -1.712891,-0.63086 -0.311964,-0.385745 -0.578125,-1.134654 -0.578125,-2.271484 V 8.019529 c 0,-0.911271 0.252541,-1.391979 0.595703,-1.722656 0.343163,-0.330677 0.87067,-0.566407 1.695313,-0.566407 h 8.785156 c 1.146994,0.04916 1.725156,0.366531 2.544922,1.128907 L 36.75293,20.54492 a 1.90019,1.90019 0 0 0 0.06055,0.06055 c 0.67208,0.652679 0.923828,1.413551 0.923828,2.363282 v 16.40625 c 0,1.033624 -0.294837,1.77761 -0.669922,2.220703 -0.375085,0.443092 -0.806831,0.681641 -1.59961,0.681641 H 18.237305 a 1.9,1.9 0 0 0 -1.900391,1.90039 1.9,1.9 0 0 0 1.900391,1.898438 h 17.230468 c 1.781641,0 3.433701,-0.765758 4.5,-2.025391 1.0663,-1.259633 1.570313,-2.918106 1.570313,-4.675781 v -16.40625 c 0,-1.752869 -0.603534,-3.659722 -2.076172,-5.089844 L 26.581055,4.181638 a 1.90019,1.90019 0 0 0 -0.08789,-0.08789 C 25.233267,2.917457 23.534226,2.015844 21.485352,1.931638 a 1.90019,1.90019 0 0 0 -0.07812,0 z m 4.005859,19.865235 a 1.5,1.5 0 0 0 -1.5,1.5 v 13.978515 a 1.5,1.5 0 0 0 1.5,1.5 1.5,1.5 0 0 0 1.5,-1.5 V 23.296873 a 1.5,1.5 0 0 0 -1.5,-1.5 z m 14.824219,3.914062 a 1.5,1.5 0 0 0 -1.5,1.5 v 10.064453 a 1.5,1.5 0 0 0 1.5,1.5 1.5,1.5 0 0 0 1.5,-1.5 V 27.210935 a 1.5,1.5 0 0 0 -1.5,-1.5 z m -9.882812,2.275391 a 1.5,1.5 0 0 0 -1.5,1.5 v 7.789062 a 1.5,1.5 0 0 0 1.5,1.5 1.5,1.5 0 0 0 1.5,-1.5 v -7.789062 a 1.5,1.5 0 0 0 -1.5,-1.5 z m 4.941406,4.185547 a 1.5,1.5 0 0 0 -1.5,1.5 v 3.603515 a 1.5,1.5 0 0 0 1.5,1.5 1.5,1.5 0 0 0 1.5,-1.5 v -3.603515 a 1.5,1.5 0 0 0 -1.5,-1.5 z" fill="#008055"/>
</svg>
