<svg xmlns="http://www.w3.org/2000/svg" width="48" height="48">
	<path d="m 31.297852,1.9228499 c -1.049646,-2.16e-4 -1.900607,0.8507443 -1.900391,1.9003906 -2.16e-4,1.0496463 0.850745,1.9006066 1.900391,1.9003906 h 4.142578 c 1.050297,0 1.503965,0.244322 1.769531,0.517578 0.265566,0.273256 0.501953,0.764861 0.501953,1.771485 v 5.2187499 c -2.15e-4,1.049646 0.850745,1.900606 1.900391,1.90039 1.048883,-8.63e-4 1.898653,-0.851507 1.898437,-1.90039 V 8.0126941 c 0,-1.661379 -0.45446,-3.2657286 -1.576171,-4.4199224 C 38.812859,2.438578 37.181003,1.9228499 35.44043,1.9228499 Z m -18.746094,0.00781 c -1.61925,0 -3.1887297,0.5310339 -4.3300782,1.6308594 C 7.0803313,4.6613472 6.4619142,6.2759771 6.4619142,8.0205061 V 39.375975 c 0,1.705469 0.369054,3.357882 1.4238281,4.662109 1.0547741,1.304228 2.7829387,2.039063 4.6660157,2.039063 1.049646,2.16e-4 1.900607,-0.850745 1.900391,-1.900391 -8.62e-4,-1.048884 -0.851507,-1.898654 -1.900391,-1.898438 -1.031913,0 -1.398974,-0.245116 -1.710938,-0.630859 -0.311963,-0.385742 -0.580078,-1.134654 -0.580078,-2.271484 V 8.0205061 c 0,-0.911271 0.254492,-1.391977 0.597657,-1.722656 0.343164,-0.33068 0.868719,-0.566406 1.693359,-0.566406 h 8.78711 c 1.144151,0.04903 1.722531,0.366723 2.539062,1.125 l 12.875,13.6894529 c 0.01973,0.02064 0.03991,0.04082 0.06055,0.06055 0.672074,0.652664 0.923828,1.413537 0.923828,2.363281 v 16.40625 c 0,1.033618 -0.294837,1.777611 -0.669922,2.220703 -0.375085,0.443092 -0.80683,0.68164 -1.599609,0.68164 H 18.235352 c -1.048121,8.61e-4 -1.897577,0.850317 -1.898438,1.898438 -2.16e-4,1.048884 0.849554,1.899529 1.898438,1.900391 h 17.232422 c 1.781641,0 3.4337,-0.76576 4.5,-2.025391 1.0663,-1.259631 1.570312,-2.91811 1.570312,-4.675781 v -16.40625 c 0,-1.752876 -0.605479,-3.659729 -2.078125,-5.089844 L 26.581055,4.1826155 c -0.02833,-0.030248 -0.05764,-0.05956 -0.08789,-0.087891 -1.259899,-1.1762905 -2.95894,-2.0779035 -5.007813,-2.162109 -0.02603,-0.00119 -0.05208,-0.00184 -0.07813,-0.00195 z" fill="#008055"/>
</svg>
