<svg xmlns="http://www.w3.org/2000/svg" width="48" height="48">
	<path d="m 31.297851,1.9228345 a 1.9,1.9 0 0 0 -1.90039,1.900391 1.9,1.9 0 0 0 1.90039,1.900391 h 4.144532 c 1.050296,0 1.502012,0.24432 1.767578,0.517578 0.265566,0.273258 0.501953,0.764837 0.501953,1.771484 v 5.2187495 a 1.9,1.9 0 0 0 1.900391,1.900391 1.9,1.9 0 0 0 1.90039,-1.900391 V 8.0126785 c 0,-1.661392 -0.45446,-3.26572 -1.576172,-4.419922 -1.121711,-1.154201 -2.753567,-1.669922 -4.49414,-1.669922 z m -18.746093,0.0098 c -1.619248,0 -3.188729,0.529083 -4.330078,1.628906 -1.14135,1.099823 -1.759766,2.714455 -1.759766,4.458985 V 39.375994 c 0,1.705469 0.369055,3.357879 1.423828,4.662109 1.054773,1.30423 2.782937,2.039062 4.666016,2.039062 a 1.9,1.9 0 0 0 1.90039,-1.898437 1.9,1.9 0 0 0 -1.90039,-1.900391 c -1.031911,0 -1.398973,-0.245114 -1.710938,-0.630859 -0.311964,-0.385745 -0.580078,-1.134654 -0.580078,-2.271484 V 8.0204915 c 0,-0.911271 0.254494,-1.391979 0.597656,-1.722657 0.343163,-0.330677 0.868717,-0.566406 1.69336,-0.566406 h 8.787109 c 1.146994,0.04916 1.725156,0.366531 2.544922,1.128906 L 36.75293,20.545881 a 1.90019,1.90019 0 0 0 0.06055,0.06055 c 0.67208,0.652678 0.923828,1.41355 0.923828,2.363282 v 16.40625 c 0,1.033624 -0.294837,1.77761 -0.669922,2.220703 -0.375085,0.443092 -0.806831,0.68164 -1.59961,0.68164 H 18.237305 a 1.9,1.9 0 0 0 -1.900391,1.900391 1.9,1.9 0 0 0 1.900391,1.898437 h 17.230468 c 1.781641,0 3.433701,-0.765758 4.5,-2.02539 1.0663,-1.259633 1.570313,-2.918107 1.570313,-4.675781 v -16.40625 c 0,-1.752869 -0.605487,-3.659722 -2.078125,-5.089844 L 26.581055,4.1826005 a 1.90019,1.90019 0 0 0 -0.08789,-0.08789 c -1.259898,-1.176292 -2.958939,-2.077904 -5.007813,-2.16211 a 1.90019,1.90019 0 0 0 -0.07812,0 z m 6.835937,20.0214835 c -0.838087,0 -1.933336,0.429346 -2.277344,1.470704 -0.344007,1.041357 0.175003,1.936195 0.777344,2.535156 l 4.105469,4.15625 a 1.50015,1.50015 0 0 0 0.08398,0.07813 c 0.06162,0.05354 0.07199,0.06963 0.0918,0.09375 -0.01597,0.01862 -0.01456,0.02067 -0.05859,0.06445 a 1.50015,1.50015 0 0 0 -0.0098,0.01172 l -3.931641,3.990234 c -0.0044,0.0043 -0.0073,0.0094 -0.01172,0.01367 l -0.01563,0.01563 c -0.658833,0.633368 -1.301103,1.240462 -1.154296,2.46875 0.0745,0.623319 0.566868,1.244509 1.048828,1.498047 0.48196,0.253537 0.922069,0.296875 1.359375,0.296875 h 9.982422 a 1.5,1.5 0 0 0 1.5,-1.5 1.5,1.5 0 0 0 -1.5,-1.5 H 21.10836 l 3.117188,-3.166016 c 0.603736,-0.600396 1.024901,-1.449587 0.978515,-2.339844 -0.04639,-0.890256 -0.532694,-1.66572 -1.160156,-2.210937 l 0.08398,0.07813 -3.017579,-3.054688 h 8.267579 a 1.5,1.5 0 0 0 1.5,-1.5 1.5,1.5 0 0 0 -1.5,-1.5 z" fill="#008055"/>
</svg>
