<svg xmlns="http://www.w3.org/2000/svg" width="48" height="48">
	<path d="m 31.297852,1.9228505 a 1.9,1.9 0 0 0 -1.900391,1.90039 1.9,1.9 0 0 0 1.900391,1.900391 h 4.144531 c 1.050297,0 1.503965,0.244322 1.769531,0.517578 0.265566,0.273256 0.5,0.764862 0.5,1.771484 v 5.2187505 a 1.9,1.9 0 0 0 1.900391,1.900391 1.9,1.9 0 0 0 1.900391,-1.900391 V 8.0126935 c 0,-1.661377 -0.454461,-3.265728 -1.576172,-4.419922 -1.121712,-1.154193 -2.753567,-1.669921 -4.494141,-1.669921 z m -18.744141,0.0078 c -1.619247,0 -3.1906813,0.531036 -4.3320312,1.630859 C 7.08033,4.6613325 6.4619142,6.2759645 6.4619142,8.0204945 V 39.375962 c 0,1.705471 0.3710085,3.357881 1.4257812,4.66211 1.0547728,1.304231 2.7829366,2.039062 4.6660156,2.039062 a 1.9,1.9 0 0 0 1.898438,-1.90039 1.9,1.9 0 0 0 -1.898438,-1.898438 c -1.031911,0 -1.400926,-0.245114 -1.712891,-0.630859 -0.311964,-0.385745 -0.578125,-1.134653 -0.578125,-2.271485 V 8.0205065 c 0,-0.911271 0.252541,-1.391979 0.595704,-1.722656 0.343162,-0.330678 0.870669,-0.566407 1.695312,-0.566407 h 8.785156 c 1.144164,0.04903 1.724471,0.366708 2.541016,1.125 L 36.75293,20.545897 a 1.90019,1.90019 0 0 0 0.06055,0.06055 c 0.672081,0.652678 0.923828,1.41355 0.923828,2.363281 v 16.40625 c 0,1.033626 -0.292884,1.77761 -0.667969,2.220704 -0.375085,0.443091 -0.808783,0.68164 -1.601562,0.68164 H 18.237305 a 1.9,1.9 0 0 0 -1.900391,1.898438 1.9,1.9 0 0 0 1.900391,1.90039 h 17.230469 c 1.781641,0 3.435653,-0.765759 4.501953,-2.02539 1.0663,-1.259634 1.568359,-2.918107 1.568359,-4.675782 v -16.40625 c 0,-1.752868 -0.603533,-3.659721 -2.076172,-5.089844 L 26.581055,4.1826155 a 1.90019,1.90019 0 0 0 -0.08789,-0.08789 c -1.259898,-1.176289 -2.958939,-2.077903 -5.007812,-2.162109 a 1.90019,1.90019 0 0 0 -0.07813,-0.002 z M 24.024414,15.870104 c -1.933298,0.02353 -3.329694,1.458712 -3.662109,2.964844 -0.268121,1.214825 0.126749,2.469963 0.949219,3.46875 v 0.271484 h -2.509766 c -0.709841,0 -1.444243,0.27337 -1.927734,0.796875 -0.483492,0.523506 -0.681694,1.210938 -0.681641,1.861328 v 3.931641 a 1.30013,1.30013 0 0 0 1.300781,1.298828 l 1.820313,0.002 a 1.30013,1.30013 0 0 0 1.074219,-0.568359 c 0.278094,-0.407419 0.89469,-0.602386 1.412109,-0.480469 0.517419,0.121917 0.87047,0.321585 0.880859,1.238281 0.01022,0.901711 -0.349254,1.11772 -0.875,1.246094 -0.525746,0.128374 -1.121106,-0.05561 -1.394531,-0.484375 a 1.30013,1.30013 0 0 0 -1.097656,-0.599609 h -1.820313 a 1.30013,1.30013 0 0 0 -1.300781,1.298828 v 2.785156 a 1.3,1.3 0 0 0 1.300781,1.298828 1.3,1.3 0 0 0 1.298829,-1.298828 v -1.484375 h 0.183593 c 0.977544,0.869746 2.238307,1.304964 3.447266,1.009766 1.512922,-0.36942 2.879632,-1.841164 2.857422,-3.800782 -0.02204,-1.944653 -1.383582,-3.386978 -2.882813,-3.740234 -1.201693,-0.283148 -2.438228,0.140651 -3.412109,0.978516 h -0.193359 v -2.63086 c -4e-6,-0.03587 0.0035,-0.0392 0.0059,-0.05859 0.0032,-6e-6 4.14e-4,0 0.0039,0 H 22.61234 A 1.30013,1.30013 0 0 0 23.913121,23.87406 V 21.993163 A 1.30013,1.30013 0 0 0 23.37793,20.942381 c -0.37821,-0.275604 -0.604024,-0.969362 -0.476563,-1.546875 0.127463,-0.577512 0.320314,-0.915609 1.15625,-0.925782 0.819922,-0.0099 1.024164,0.33386 1.158204,0.919922 0.13404,0.586063 -0.08345,1.26033 -0.478516,1.529298 a 1.30013,1.30013 0 0 0 -0.568359,1.074219 v 1.880859 a 1.30013,1.30013 0 0 0 1.300781,1.300781 h 3.80664 c 0.0066,0.02453 0.0059,0.0067 0.0059,0.05859 v 10.865235 h -10.0625 a 1.3,1.3 0 0 0 -1.300781,1.300781 1.3,1.3 0 0 0 1.300781,1.298828 h 10.113281 c 0.677729,0 1.397334,-0.235971 1.882813,-0.746094 0.485478,-0.510124 0.666015,-1.18316 0.666015,-1.791015 V 25.233397 c 0,-0.585262 -0.147525,-1.210943 -0.578125,-1.751953 -0.430599,-0.54101 -1.18705,-0.90607 -1.945312,-0.90625 h -2.589844 v -0.265625 c 0.85347,-1.002333 1.26183,-2.278346 0.982422,-3.5 -0.347732,-1.520385 -1.777239,-2.963069 -3.726563,-2.939453 z" fill="#008055"/>
</svg>
