<svg xmlns="http://www.w3.org/2000/svg" width="48" height="48">
	<path d="m 31.297852,1.9228499 a 1.9,1.9 0 0 0 -1.900391,1.9003906 1.9,1.9 0 0 0 1.900391,1.9003906 h 4.142578 c 1.050297,0 1.503965,0.244322 1.769531,0.517578 0.265566,0.273256 0.501953,0.764861 0.501953,1.771485 v 5.2187499 a 1.9,1.9 0 0 0 1.900391,1.90039 1.9,1.9 0 0 0 1.898437,-1.90039 V 8.0126941 c 0,-1.661379 -0.45446,-3.2657286 -1.576171,-4.4199224 C 38.812859,2.438578 37.181003,1.9228499 35.44043,1.9228499 Z m -18.746094,0.00781 c -1.61925,0 -3.1887297,0.5310339 -4.3300782,1.6308594 C 7.0803313,4.6613472 6.4619142,6.2759771 6.4619142,8.0205061 V 39.375975 c 0,1.705469 0.369054,3.357882 1.4238281,4.662109 1.0547741,1.304228 2.7829387,2.039063 4.6660157,2.039063 a 1.9,1.9 0 0 0 1.900391,-1.900391 1.9,1.9 0 0 0 -1.900391,-1.898438 c -1.031913,0 -1.398974,-0.245116 -1.710938,-0.630859 -0.311963,-0.385742 -0.580078,-1.134654 -0.580078,-2.271484 V 8.0205061 c 0,-0.911271 0.254492,-1.391977 0.597657,-1.722656 0.343164,-0.33068 0.868719,-0.566406 1.693359,-0.566406 h 8.78711 c 1.144151,0.04903 1.722531,0.366723 2.539062,1.125 l 12.875,13.6894529 a 1.90019,1.90019 0 0 0 0.06055,0.06055 c 0.672074,0.652664 0.923828,1.413537 0.923828,2.363281 v 16.40625 c 0,1.033618 -0.294837,1.777611 -0.669922,2.220703 -0.375085,0.443092 -0.80683,0.68164 -1.599609,0.68164 H 18.235352 a 1.9,1.9 0 0 0 -1.898438,1.898438 1.9,1.9 0 0 0 1.898438,1.900391 h 17.232422 c 1.781641,0 3.4337,-0.76576 4.5,-2.025391 1.0663,-1.259631 1.570312,-2.91811 1.570312,-4.675781 v -16.40625 c 0,-1.752876 -0.605479,-3.659729 -2.078125,-5.089844 L 26.581055,4.1826155 a 1.90019,1.90019 0 0 0 -0.08789,-0.087891 C 25.233266,2.918434 23.534225,2.016821 21.485352,1.9326155 a 1.90019,1.90019 0 0 0 -0.07813,-0.00195 z M 24.073242,23.3916 c -2.417054,0 -4.60458,0.329157 -6.320312,0.93164 -0.857866,0.301242 -1.603086,0.662066 -2.226562,1.179688 -0.623479,0.517622 -1.189454,1.30472 -1.189454,2.28125 0,0.976529 0.565975,1.761674 1.189454,2.279297 0.623476,0.517622 1.368696,0.880398 2.226562,1.18164 1.715732,0.602484 3.903258,0.931641 6.320312,0.931641 2.417055,0 4.606534,-0.329157 6.322266,-0.931641 0.857866,-0.301242 1.603085,-0.664018 2.226563,-1.18164 0.623477,-0.517623 1.189453,-1.302768 1.189453,-2.279297 0,-0.97653 -0.565976,-1.763628 -1.189453,-2.28125 C 31.998593,24.985306 31.253374,24.624482 30.395508,24.32324 28.679776,23.720757 26.490297,23.3916 24.073242,23.3916 Z m 0,3 c 2.132389,0 4.062471,0.317281 5.328126,0.761718 0.605213,0.212523 1.026215,0.454975 1.248046,0.628907 -0.221685,0.173947 -0.642453,0.418203 -1.248046,0.630859 -1.265655,0.444438 -3.195737,0.763672 -5.328126,0.763672 -2.132388,0 -4.060517,-0.319234 -5.326171,-0.763672 -0.605595,-0.212656 -1.026362,-0.456912 -1.248047,-0.630859 0.221831,-0.173932 0.642833,-0.416384 1.248047,-0.628907 1.265654,-0.444437 3.193783,-0.761718 5.326171,-0.761718 z m 8.708985,5.923828 a 1.5,1.5 0 0 0 -2.119141,0.0918 1.5,1.5 0 0 0 -0.03516,1.988281 c -0.196834,0.173994 -0.7392,0.579156 -1.871094,0.890625 -2.513852,0.69175 -6.367783,0.736015 -9.02539,0.08789 -1.257913,-0.306774 -1.997386,-0.754603 -2.25,-0.976563 a 1.5,1.5 0 0 0 -0.25,-1.929687 1.5,1.5 0 0 0 -2.119141,0.103515 c -0.462349,0.510467 -0.803495,1.228543 -0.773438,1.984375 0.03006,0.755832 0.404548,1.40553 0.859375,1.875 0.909659,0.938942 2.182304,1.457476 3.822266,1.857422 1.639963,0.399946 3.4784,0.590521 5.304688,0.572266 1.826287,-0.01825 3.64042,-0.244637 5.228515,-0.681641 1.588095,-0.437004 2.812338,-0.976567 3.636719,-2.021484 0.412191,-0.522459 0.696535,-1.266581 0.603516,-2.013672 -0.09302,-0.747091 -0.509486,-1.367413 -1.011719,-1.828125 z" fill="#008055"/>
</svg>
