<svg xmlns="http://www.w3.org/2000/svg" width="48" height="48">
	<path d="m 31.297851,1.92285 a 1.9,1.9 0 0 0 -1.900391,1.900391 1.9,1.9 0 0 0 1.900391,1.898437 h 4.144531 c 1.050297,0 1.502013,0.246273 1.767578,0.519532 0.265567,0.273258 0.501954,0.762883 0.501954,1.769531 v 5.220703 a 1.9,1.9 0 0 0 1.90039,1.898438 1.9,1.9 0 0 0 1.898438,-1.898438 V 8.010741 c 0,-1.661393 -0.452508,-3.263767 -1.574219,-4.417969 C 38.814812,2.43857 37.182956,1.92285 35.442382,1.92285 Z m -18.746093,0.0078 c -1.619248,0 -3.1887287,0.531036 -4.3300786,1.630859 C 7.0803297,4.661332 6.4619138,6.274011 6.4619138,8.01854 v 31.357422 c 0,1.70547 0.3690553,3.355927 1.4238282,4.660157 1.0547727,1.304228 2.782937,2.041015 4.666016,2.041015 a 1.9,1.9 0 0 0 1.90039,-1.900391 1.9,1.9 0 0 0 -1.90039,-1.90039 c -1.031911,0 -1.398973,-0.243161 -1.710938,-0.628906 -0.311965,-0.385746 -0.580078,-1.134654 -0.580078,-2.271485 V 8.018553 c 0,-0.91127 0.254494,-1.390026 0.597656,-1.720703 0.343163,-0.330677 0.868717,-0.566406 1.69336,-0.566406 h 8.787109 c 1.149837,0.04928 1.72776,0.366319 2.550781,1.132812 l 12.863281,13.679688 a 1.90019,1.90019 0 0 0 0.06055,0.06055 c 0.672082,0.652678 0.923828,1.415503 0.923828,2.365234 v 16.40625 c 0,1.033625 -0.294836,1.775658 -0.669922,2.21875 -0.375085,0.443093 -0.80683,0.681641 -1.599609,0.681641 H 18.237304 a 1.9,1.9 0 0 0 -1.90039,1.90039 1.9,1.9 0 0 0 1.90039,1.900391 h 17.230469 c 1.781641,0 3.4337,-0.767711 4.5,-2.027344 1.0663,-1.259632 1.570313,-2.916152 1.570313,-4.673828 v -16.40625 c 0,-1.752869 -0.605486,-3.659723 -2.078126,-5.089843 l 0.06055,0.06055 L 26.581057,4.18067 A 1.90019,1.90019 0 0 0 26.493167,4.09473 C 25.233268,2.91844 23.534227,2.016826 21.485354,1.932621 a 1.90019,1.90019 0 0 0 -0.07813,-0.002 z m 8.564452,19.794922 c -1.855793,0.09471 -3.777879,1.106538 -4.867187,3.236328 a 1.5,1.5 0 0 0 0.652344,2.017578 1.5,1.5 0 0 0 2.017578,-0.652344 c 0.961811,-1.880508 2.633661,-1.842247 3.533203,-1.369141 0.449771,0.236554 0.576586,0.466816 0.580078,0.703126 0.0035,0.236308 -0.153444,0.839972 -1.292969,1.699218 a 1.50015,1.50015 0 0 0 -0.02539,0.01953 c -2.518549,1.984908 -3.91057,3.945496 -4.158203,5.96289 -0.247634,2.017394 0.976857,3.845158 2.693359,4.695313 3.433005,1.700309 8.767822,0.832602 13.517578,-3.220703 a 1.5,1.5 0 0 0 0.167969,-2.115235 1.5,1.5 0 0 0 -2.115234,-0.167969 c -4.028135,3.437495 -8.449072,3.702572 -10.238282,2.816407 -0.894605,-0.443083 -1.147609,-0.837838 -1.048828,-1.642579 0.09838,-0.801441 0.869413,-2.256272 3.013672,-3.953124 l 0.02539,-0.01953 c 1.582345,-1.201284 2.482955,-2.627387 2.460937,-4.117187 -0.02214,-1.497997 -1.011654,-2.700035 -2.183594,-3.316407 -0.58597,-0.308185 -1.250649,-0.498454 -1.943359,-0.560546 -0.259766,-0.02328 -0.523949,-0.02916 -0.789063,-0.01563 z" fill="#008055"/>
</svg>
