<svg xmlns="http://www.w3.org/2000/svg" width="48" height="48">
	<path d="M 23.999982,1.993166 C 22.104978,1.971287 20.146492,2.5833721 18.812481,4.0869159 17.749446,5.2624083 17.415762,7.0339308 18.226545,8.637697 l -0.05664,-0.1269509 4.345703,10.8359379 a 1.6000011,1.6000011 0 0 0 2.080078,0.888671 1.6000011,1.6000011 0 0 0 0.888672,-2.080078 L 21.138652,7.3193394 A 1.6001612,1.6001612 0 0 0 21.082012,7.1943386 C 20.910691,6.855457 21.059694,6.3657263 21.183575,6.2294942 a 1.6001612,1.6001612 0 0 0 0.01561,-0.017594 c 0.538743,-0.610333 1.612117,-1.032826 2.763672,-1.0195305 1.145492,0.013225 2.245845,0.4619685 2.824219,1.1054686 0.283201,0.3330809 0.293105,0.4017032 0.07031,1.0488283 l -2.386719,6.0292964 a 1.6000011,1.6000011 0 0 0 0.898438,2.076172 1.6000011,1.6000011 0 0 0 2.076172,-0.898438 L 29.85348,8.4716662 a 1.6001612,1.6001612 0 0 0 0.02344,-0.068361 C 30.331132,7.0866849 30.230931,5.3954608 29.212858,4.2040868 a 1.6001612,1.6001612 0 0 0 -0.0195,-0.023465 c -1.339514,-1.5097287 -3.293802,-2.1655688 -5.19336,-2.1875 z m 10.412109,4.2578129 c -1.582879,0.079519 -3.072089,1.0953899 -3.632812,2.8027336 l 0.05078,-0.1289034 -4.589844,10.7343749 a 1.6000011,1.6000011 0 0 0 0.84375,2.09961 1.6000011,1.6000011 0 0 0 2.09961,-0.841798 l 4.58789,-10.734375 a 1.6001612,1.6001612 0 0 0 0.04883,-0.128906 c 0.118484,-0.3607682 0.569982,-0.602593 0.753907,-0.6113284 a 1.6001612,1.6001612 0 0 0 0.02344,0 c 0.81252,-0.050619 1.87091,0.408748 2.675783,1.2324214 0.800633,0.819336 1.260893,1.91335 1.214842,2.777345 -0.03527,0.435776 -0.07823,0.49292 -0.693359,0.792967 l -5.949219,2.574219 a 1.6000011,1.6000011 0 0 0 -0.833984,2.105469 1.6000011,1.6000011 0 0 0 2.105469,0.832031 l 6.001952,-2.599609 a 1.6001612,1.6001612 0 0 0 0.06445,-0.0293 c 1.252166,-0.609815 2.377458,-1.877137 2.5,-3.439452 a 1.6001612,1.6001612 0 0 0 0.002,-0.03125 c 0.120361,-2.014719 -0.797317,-3.8600516 -2.125,-5.2187499 -1.324498,-1.3554429 -3.141984,-2.3073788 -5.148437,-2.1875 z m -20.753906,0.0625 C 11.643466,6.1931178 9.7981325,7.1107959 8.4394349,8.4384789 7.083992,9.7629771 6.130103,11.580463 6.2499824,13.586916 c 0.079519,1.582879 1.0953894,3.072089 2.8027336,3.632813 l -0.1289063,-0.04883 10.7363283,4.58789 a 1.6000011,1.6000011 0 0 0 2.09961,-0.841797 1.6000011,1.6000011 0 0 0 -0.84375,-2.099609 L 10.181623,14.227541 a 1.6001612,1.6001612 0 0 0 -0.128907,-0.04883 C 9.691948,14.06023 9.4520739,13.608735 9.443342,13.424807 a 1.6001612,1.6001612 0 0 0 -0.00195,-0.02344 c -0.05062,-0.812519 0.4107015,-1.868957 1.234374,-2.673828 0.819337,-0.800635 1.91335,-1.2628484 2.777345,-1.2167974 0.435776,0.035275 0.490967,0.078235 0.791018,0.6933574 l 2.576172,5.951171 a 1.6000011,1.6000011 0 0 0 2.103516,0.833985 1.6000011,1.6000011 0 0 0 0.832031,-2.105469 L 17.158189,8.879878 A 1.6001612,1.6001612 0 0 0 17.126939,8.815423 C 16.517124,7.5632566 15.249803,6.4379654 13.687487,6.3154236 a 1.6001612,1.6001612 0 0 0 -0.02929,-0.00195 z M 41.197247,17.774416 c -0.608291,0.004 -1.232571,0.147127 -1.833984,0.451172 l 0.125001,-0.05664 -10.835937,4.345704 a 1.6000011,1.6000011 0 0 0 -0.888672,2.082031 1.6000011,1.6000011 0 0 0 2.082031,0.888672 l 10.833985,-4.347657 a 1.6001612,1.6001612 0 0 0 0.126953,-0.05469 c 0.338881,-0.171322 0.826658,-0.02427 0.96289,0.09961 a 1.6001612,1.6001612 0 0 0 0.01955,0.01757 c 0.610334,0.538743 1.030874,1.612117 1.017579,2.763672 -0.01322,1.145493 -0.460017,2.245845 -1.103516,2.824219 -0.333081,0.283201 -0.403656,0.291152 -1.050782,0.06836 l -6.027346,-2.386722 a 1.6000011,1.6000011 0 0 0 -2.078125,0.898438 1.6000011,1.6000011 0 0 0 0.900391,2.078125 l 6.08203,2.40625 a 1.6001612,1.6001612 0 0 0 0.06641,0.02539 c 1.316621,0.45421 3.009798,0.352057 4.201172,-0.666016 a 1.6001612,1.6001612 0 0 0 0.0215,-0.01952 c 1.50973,-1.339513 2.167521,-3.293801 2.189453,-5.19336 0.02188,-1.895003 -0.590205,-3.853489 -2.09375,-5.187499 -0.734682,-0.664398 -1.702977,-1.043804 -2.716797,-1.037109 z m -34.3867178,0.08984 c -0.9217403,0.0082 -1.8628135,0.287532 -2.607422,0.923828 a 1.6001612,1.6001612 0 0 0 -0.0215,0.01952 c -1.5097136,1.339527 -2.1675061,3.291861 -2.1894375,5.191419 -0.021879,1.895005 0.5902062,3.855444 2.0937503,5.189454 1.1754924,1.063035 2.9470156,1.39672 4.5507815,0.585937 l -0.1250013,0.05664 10.8359368,-4.345703 a 1.6000011,1.6000011 0 0 0 0.888672,-2.082032 1.6000011,1.6000011 0 0 0 -2.080078,-0.888671 L 7.3202948,26.862307 a 1.6001612,1.6001612 0 0 0 -0.1269533,0.05469 c -0.3388816,0.171319 -0.8266593,0.02232 -0.9628902,-0.101565 a 1.6001612,1.6001612 0 0 0 -0.019501,-0.01565 C 5.600617,26.261035 5.180077,25.187662 5.1933719,24.036107 c 0.013225,-1.145492 0.4600167,-2.245845 1.1035156,-2.824219 0.3330809,-0.283201 0.4036562,-0.291152 1.0507812,-0.06836 l 6.0292963,2.386718 a 1.6000011,1.6000011 0 0 0 2.076172,-0.898437 1.6000011,1.6000011 0 0 0 -0.900391,-2.078125 l -6.0820306,-2.40625 a 1.6001612,1.6001612 0 0 0 -0.066408,-0.02539 C 7.9105749,17.951717 7.3636016,17.859294 6.8105578,17.864234 Z m 13.4863278,8.248047 a 1.6000011,1.6000011 0 0 0 -1.48047,0.970703 l -4.58789,10.734375 a 1.6001612,1.6001612 0 0 0 -0.04883,0.128906 c -0.118483,0.360768 -0.56998,0.602595 -0.753907,0.611328 a 1.6001612,1.6001612 0 0 0 -0.02344,0 c -0.81252,0.05062 -1.87091,-0.408748 -2.675781,-1.232422 -0.8006336,-0.819337 -1.2608948,-1.915302 -1.2148436,-2.779296 0.035273,-0.435776 0.078235,-0.490968 0.6933566,-0.791018 l 5.949221,-2.574217 a 1.6000011,1.6000011 0 0 0 0.833984,-2.105469 1.6000011,1.6000011 0 0 0 -2.105468,-0.832031 l -6.0019471,2.59766 a 1.6001612,1.6001612 0 0 0 -0.064455,0.03125 c -1.252166,0.609817 -2.3774573,1.877138 -2.4999994,3.439453 a 1.6001612,1.6001612 0 0 0 -0.00195,0.0293 c -0.120361,2.014719 0.7973174,3.862004 2.1249997,5.220702 1.3244999,1.355443 3.1419838,2.307379 5.1484378,2.1875 1.582878,-0.07952 3.072088,-1.09539 3.632811,-2.802734 l -0.04883,0.128907 4.58789,-10.734376 a 1.6000011,1.6000011 0 0 0 -0.841797,-2.099613 1.6000011,1.6000011 0 0 0 -0.621095,-0.128907 z m 7.421875,0 a 1.6000011,1.6000011 0 0 0 -1.478516,0.970703 1.6000011,1.6000011 0 0 0 0.84375,2.099608 l 10.734376,4.587892 a 1.6001612,1.6001612 0 0 0 0.128906,0.04883 c 0.360768,0.118484 0.600643,0.569979 0.609375,0.753906 a 1.6001612,1.6001612 0 0 0 0.002,0.02539 c 0.05062,0.812521 -0.410703,1.868958 -1.234376,2.673829 -0.819337,0.800635 -1.913349,1.262849 -2.777344,1.216798 -0.435777,-0.03527 -0.490967,-0.07823 -0.791018,-0.693357 L 31.179713,31.84473 a 1.6000011,1.6000011 0 0 0 -2.103514,-0.833984 1.6000011,1.6000011 0 0 0 -0.832032,2.105469 l 2.597659,6.003904 a 1.6001612,1.6001612 0 0 0 0.03125,0.06446 c 0.609819,1.252165 1.877141,2.375503 3.439456,2.498045 a 1.6001612,1.6001612 0 0 0 0.0293,0.0039 c 2.014718,0.120361 3.860052,-0.797317 5.21875,-2.125 1.355441,-1.3245 2.309331,-3.141983 2.189452,-5.148437 -0.07952,-1.582879 -1.09539,-3.072089 -2.802733,-3.632812 l 0.12695,0.04883 -10.734375,-4.589844 a 1.6000011,1.6000011 0 0 0 -0.621093,-0.126949 z m -4.314453,1.652344 a 1.6000011,1.6000011 0 0 0 -0.888672,2.080078 l 4.345702,10.835937 a 1.6001612,1.6001612 0 0 0 0.05664,0.125 c 0.171322,0.338882 0.02232,0.828612 -0.101563,0.964844 a 1.6001612,1.6001612 0 0 0 -0.01561,0.01759 c -0.538742,0.610333 -1.612115,1.032826 -2.763671,1.019531 -1.145493,-0.01323 -2.245846,-0.461969 -2.824218,-1.105468 -0.283202,-0.333081 -0.293107,-0.401704 -0.07031,-1.048829 l 2.386719,-6.029297 a 1.6000011,1.6000011 0 0 0 -0.898436,-2.078124 1.6000011,1.6000011 0 0 0 -2.076172,0.90039 l -2.408217,6.082015 a 1.6001612,1.6001612 0 0 0 -0.02344,0.06836 c -0.454211,1.31662 -0.354012,3.007844 0.664062,4.199219 a 1.6001612,1.6001612 0 0 0 0.01953,0.02344 c 1.339515,1.50973 3.293802,2.16557 5.19336,2.187501 1.895005,0.02188 3.85349,-0.590207 5.1875,-2.09375 1.063035,-1.175493 1.398674,-2.947015 0.587891,-4.550781 l 0.05469,0.126953 -4.345708,-10.835938 a 1.6000011,1.6000011 0 0 0 -2.080077,-0.888671 z" fill="#008055"/>
</svg>
