<svg xmlns="http://www.w3.org/2000/svg" width="48" height="48">
	<path d="m 31.773813,1.0989816 c -0.180787,-0.00336 -0.362479,0.00266 -0.542969,0.015625 -0.72196,0.051868 -1.439865,0.2275178 -2.134766,0.4804687 L 5.2796721,10.264997 C 3.839093,10.789342 2.6663652,11.802073 2.090219,13.100935 1.5140728,14.399796 1.5541709,15.87922 2.0413909,17.218122 L 11.516,43.255232 c 0.519302,1.42698 1.447979,2.6493 2.771484,3.24414 1.323506,0.59484 2.810408,0.479993 4.171876,-0.01563 L 42.275766,37.81382 c 1.442723,-0.525212 2.67188,-1.439901 3.402344,-2.71875 0.730463,-1.278848 0.865384,-2.910916 0.326171,-4.392578 l -3.871093,-10.69726 a 1.9,1.9 0 0 0 -2.433594,-1.138672 1.9,1.9 0 0 0 -1.140625,2.433593 l 3.873047,10.699219 a 1.90019,1.90019 0 0 0 0.002,0.002 c 0.201227,0.552938 0.143219,0.859083 -0.05664,1.208985 -0.199859,0.349901 -0.638424,0.753862 -1.40039,1.03125 l -23.816407,8.671875 c -0.745762,0.271481 -1.111513,0.212303 -1.314453,0.121093 -0.20294,-0.09121 -0.474424,-0.299406 -0.757812,-1.078125 L 5.6117031,15.917341 c -0.21568,-0.592698 -0.173611,-0.989677 -0.046875,-1.275391 0.126737,-0.285713 0.356621,-0.565532 1.013672,-0.804687 L 30.39686,5.167341 c 0.855189,-0.311298 1.452505,-0.2983588 1.757812,-0.1933594 0.305307,0.1049994 0.528994,0.236073 0.802734,0.9882813 l 1.705078,4.8261721 a 1.9,1.9 0 0 0 2.423829,1.160156 1.9,1.9 0 0 0 1.158203,-2.4257813 L 36.535531,4.6810129 a 1.90019,1.90019 0 0 0 -0.0059,-0.017578 C 35.965023,3.111843 34.813594,1.8694822 33.391,1.3802316 32.857527,1.1967627 32.316172,1.1090608 31.773813,1.0989816 Z M 31.168344,12.708356 A 1.7,1.7 0 0 0 30.391,12.889997 1.7,1.7 0 0 0 29.639047,15.1732 l 3.019531,5.978516 -3.044922,4.777344 a 1.7,1.7 0 0 0 0.521485,2.347656 1.7,1.7 0 0 0 2.345703,-0.521484 l 1.958984,-3.074219 1.925782,3.8125 a 1.7,1.7 0 0 0 2.283203,0.75 1.7,1.7 0 0 0 0.751953,-2.283203 l -2.835938,-5.613282 3.25586,-5.107422 A 1.7,1.7 0 0 0 39.301156,13.89195 1.7,1.7 0 0 0 38.36561,13.624372 1.7,1.7 0 0 0 36.9535,14.411482 l -2.169922,3.40625 -2.109375,-4.175782 a 1.7,1.7 0 0 0 -1.505859,-0.933594 z m -21.078125,5.097657 a 1.7,1.7 0 0 0 -0.5722659,0.113281 1.7,1.7 0 0 0 -0.976562,2.195312 L 12.963266,31.61656 a 1.70017,1.70017 0 0 0 2.314453,0.925781 l 5.935547,-2.810547 a 1.7,1.7 0 0 0 0.808594,-2.263672 1.7,1.7 0 0 0 -2.263672,-0.808594 l -4.279297,2.025391 -3.763672,-9.789063 a 1.7,1.7 0 0 0 -1.625,-1.089843 z m 10.878906,1.373047 a 1.7,1.7 0 0 0 -0.867187,0.253906 1.7,1.7 0 0 0 -0.552735,2.339844 l 3.853516,6.228515 v 6.59375 a 1.7,1.7 0 0 0 1.699219,1.699219 1.7,1.7 0 0 0 1.701172,-1.699219 v -6.580078 l 3.982421,-6.21875 A 1.7,1.7 0 0 0 30.27186,19.446638 1.7,1.7 0 0 0 29.336313,19.17906 1.7,1.7 0 0 0 27.92225,19.962263 l -2.794922,4.363281 -2.685547,-4.341797 A 1.7,1.7 0 0 0 20.969125,19.17906 Z" fill="#008055"/>
</svg>
