<svg xmlns="http://www.w3.org/2000/svg" width="48" height="48">
	<path d="M 24.413496,1.9171204 C 19.69923,1.8260662 14.931504,3.2333972 10.880293,6.2237612 9.7228042,7.0781502 8.6694912,8.0252782 7.7279502,9.0499332 1.1371598,16.222513 -0.0796538,27.132016 5.2435742,35.680792 a 2,2 0 0 0 2.75586,0.640625 2,2 0 0 0 0.640625,-2.755859 C 3.6399922,25.53576 5.6447532,15.058208 13.255293,9.4405582 c 7.610541,-5.617651 18.213809,-4.444673 24.414063,2.6992178 6.200253,7.143891 5.869085,17.804583 -0.763672,24.548829 -6.632757,6.744247 -17.288914,7.254147 -24.535156,1.173828 a 2,2 0 0 0 -2.8183598,0.246093 2,2 0 0 0 0.246094,2.81836 C 18.614923,48.324943 31.685074,47.699164 39.755293,39.493292 47.825513,31.287421 48.234822,18.208858 40.69084,9.5167302 36.44735,4.6274082 30.474697,2.0341902 24.413496,1.9171204 Z m -0.414062,7.7070318 a 2.0999999,2.0999999 0 0 0 -2.09961,2.1015618 V 33.57337 a 2.0999999,2.0999999 0 0 0 2.09961,2.09961 2.0999999,2.0999999 0 0 0 2.101562,-2.09961 V 11.725714 A 2.0999999,2.0999999 0 0 0 23.999434,9.6241522 Z m -8.855469,8.9394528 a 2.0999999,2.0999999 0 0 0 -2.099609,2.099609 V 33.57337 a 2.0999999,2.0999999 0 0 0 2.099609,2.09961 2.0999999,2.0999999 0 0 0 2.099609,-2.09961 V 20.663214 a 2.0999999,2.0999999 0 0 0 -2.099609,-2.099609 z m 17.712891,0 a 2.0999999,2.0999999 0 0 0 -2.09961,2.099609 V 33.57337 a 2.0999999,2.0999999 0 0 0 2.09961,2.09961 2.0999999,2.0999999 0 0 0 2.099609,-2.09961 V 20.663214 a 2.0999999,2.0999999 0 0 0 -2.099609,-2.099609 z" fill="#008055"/>
</svg>
