<svg xmlns="http://www.w3.org/2000/svg" width="48" height="48">
	<path d="m 23.641315,1.9153639 c -4.714573,0.07353 -9.43062,1.647417 -13.375,4.777344 C 9.1393491,7.5869729 8.1207417,8.5694119 7.215534,9.6263019 0.8790784,17.024528 0.0444659,27.969683 5.6627996,36.327474 a 2,2 0 0 0 2.7773438,0.542969 2,2 0 0 0 0.5429687,-2.775391 C 3.7058553,26.244645 5.3427925,15.703401 12.752643,9.8235679 c 7.409851,-5.879832 18.048346,-5.077451 24.494141,1.8457031 6.445795,6.923154 6.485142,17.588928 0.0918,24.560547 -6.393346,6.971617 -17.024487,7.853023 -24.478516,2.029296 a 2,2 0 0 0 -2.80664,0.345704 2,2 0 0 0 0.34375,2.80664 c 9.069478,7.085854 22.109749,6.005957 29.888671,-2.476562 7.778923,-8.48252 7.73141,-21.568636 -0.111328,-29.9921881 -4.411541,-4.738248 -10.47161,-7.121878 -16.533203,-7.027344 z m 11.039062,9.4433601 a 1.80018,1.80018 0 0 0 -0.933593,0.267578 L 22.87569,18.33138 a 1.8,1.8 0 0 0 -0.585938,2.476563 1.8,1.8 0 0 0 2.476563,0.585937 l 4.390625,-2.707031 -1.767578,2.859375 h -0.002 c -0.352774,0.53607 -0.562067,0.618524 -1.070313,0.708984 -0.50889,0.09057 -1.310896,0.03505 -2.255859,-0.06836 -0.944964,-0.103406 -2.029698,-0.256932 -3.244141,-0.03906 -1.214443,0.217869 -2.565144,0.987151 -3.373046,2.3125 l -5.871094,9.195313 a 1.80018,1.80018 0 0 0 2.429687,2.519531 L 24.901034,29.76107 a 1.8,1.8 0 0 0 0.638671,-2.462891 1.8,1.8 0 0 0 -2.46289,-0.638672 l -4.429688,2.605469 1.851563,-2.898438 a 1.80018,1.80018 0 0 0 0.01953,-0.03125 c 0.313323,-0.514 0.459615,-0.5595 0.933594,-0.644531 0.473978,-0.08503 1.270238,-0.02958 2.21875,0.07422 0.948511,0.103794 2.049848,0.253631 3.277343,0.03516 1.227496,-0.218475 2.585651,-0.96165 3.449219,-2.27539 a 1.80018,1.80018 0 0 0 0.02734,-0.04297 l 5.798828,-9.376953 A 1.80018,1.80018 0 0 0 34.680325,11.35873 Z" fill="#008055"/>
</svg>
