<svg xmlns="http://www.w3.org/2000/svg" width="48" height="48">
	<path d="m 11.923345,0.6019093 a 1.60016,1.60016 0 0 0 -1.216797,2.6367188 l 5.523437,6.4765625 c 0.410053,0.4808654 0.505645,0.8196784 0.611329,1.3476564 0.183096,1.608097 0.599992,2.996373 1.314453,4.189453 a 1.60016,1.60016 0 0 0 0.0098,0.01563 c -1.447896,1.143725 -2.480097,2.49592 -3.144531,3.99414 a 1.60016,1.60016 0 0 0 2.13086,2.103516 c 2.415419,-1.110589 4.134723,-1.374347 5.636718,-1.511719 a 1.6,1.6 0 0 0 1.447231,-1.740234 1.6,1.6 0 0 0 -1.738281,-1.447266 c -0.442347,0.04046 -1.025831,0.167754 -1.544922,0.25 0.330656,-0.411044 0.608971,-0.89744 0.611328,-1.460937 0.0034,-0.801792 -0.317582,-1.347582 -0.662109,-1.847656 l -0.0039,-0.0059 C 20.439985,12.83504 20.144598,11.928241 20.005376,10.598003 a 1.60016,1.60016 0 0 0 -0.02148,-0.146484 C 19.832524,9.6913777 19.501633,8.6217941 18.663583,7.6390187 L 18.253427,7.15855 19.177255,7.6194874 c 1.08184,0.6803695 2.333903,0.6172667 3.072266,0.5019532 l 0.03125,-0.00391 c 2.744107,-0.3794432 4.235226,-0.039064 5.332031,0.8164062 a 1.60016,1.60016 0 0 0 0.01953,0.013672 c 0.455421,0.3445562 0.954932,0.7197606 1.673828,0.9257813 0.718896,0.206021 1.522903,0.147572 2.292969,-0.078125 L 31.526869,9.8148 c 1.19688,-0.2902191 2.251324,-0.2374771 3.289062,-0.054688 -1.374466,3.514093 -0.885738,6.943898 -1.041016,9.046875 -0.713419,8.128668 -5.355458,13.300954 -9.386718,15.9375 -0.548362,0.348885 -1.098969,0.776631 -1.419922,1.550781 -0.324641,0.783045 -0.13792,1.794882 0.277344,2.44336 a 1.60016,1.60016 0 0 0 0.002,0 c 0.527722,0.822471 0.666025,1.586515 0.861328,2.357422 -0.145258,-0.140872 -0.298028,-0.330292 -0.435547,-0.462891 -1.170711,-1.128831 -2.024428,-1.992268 -2.345703,-3.525391 a 1.60016,1.60016 0 0 0 -1.757813,-1.259765 c -1.357606,0.164906 -1.975843,-0.234666 -3.15625,-1.017578 -0.04971,-0.03297 -0.128481,-0.07705 -0.179687,-0.111328 1.419169,-0.01909 2.561379,0.195147 3.40039,0.529297 1.471318,0.596111 3.137395,0.224676 4.189453,-0.589844 a 1.60016,1.60016 0 0 0 0.0957,-0.08008 c 3.147483,-2.857069 5.087343,-7.566455 2.947265,-12.363282 a 1.60016,1.60016 0 0 0 -0.04688,-0.09375 c -0.327408,-0.62123 -0.92704,-1.229319 -1.583984,-1.480468 -0.656944,-0.25115 -1.164734,-0.23447 -1.65625,-0.253907 a 1.60016,1.60016 0 0 0 -0.13086,0 c -2.103804,0.08834 -4.18546,0.634811 -6.300781,1.761719 a 1.6,1.6 0 0 0 -0.658203,2.164063 1.6,1.6 0 0 0 2.164063,0.660156 c 1.725985,-0.919496 3.245735,-1.308351 4.888671,-1.382813 0.274085,0.01725 0.400309,0.03109 0.429688,0.03125 1.468958,3.41366 0.182728,6.393827 -2.169922,8.548828 -0.387675,0.307567 -0.389357,0.349006 -0.96875,0.111329 a 1.60016,1.60016 0 0 0 -0.01563,-0.0059 c -2.415802,-0.962128 -5.889774,-1.212169 -10.359375,0.259766 a 1.60016,1.60016 0 0 0 0.242187,3.099609 c 1.676599,0.273905 2.660542,1.010491 3.94336,1.861328 1.016606,0.674271 2.412952,1.247345 4.050781,1.386719 0.690367,1.761604 1.773672,3.103799 2.757813,4.052735 1.202614,1.159593 2.026467,1.946063 2.298828,3.201171 a 1.60016,1.60016 0 0 0 2.974609,0.416016 C 28.171169,43.854898 27.937992,40.472334 26.142136,37.420226 30.847423,34.342079 36.158307,28.3014 36.964402,19.07843 a 1.60016,1.60016 0 0 0 0.002,-0.01953 c 0.247483,-3.300038 -0.474365,-6.5576 1.427646,-9.5605063 A 1.60016,1.60016 0 0 0 37.579595,7.1351124 C 35.547641,6.4115534 33.26539,6.0991071 30.772954,6.7034718 a 1.60016,1.60016 0 0 0 -0.07226,0.019531 C 30.284769,6.8449054 30.236063,6.8112758 30.187022,6.7972218 30.139552,6.7836188 29.94807,6.6849184 29.581553,6.4105031 27.63134,4.8894059 25.022177,4.5016942 21.806162,4.9515187 a 1.60016,1.60016 0 0 0 -0.03125,0.00586 c -0.758625,0.1215288 -0.5702,0.2076907 -0.904296,-0.041016 A 1.60016,1.60016 0 0 0 20.630381,4.7698784 l -7.990234,-4 A 1.60016,1.60016 0 0 0 11.92335,0.6019096 Z m 13.36914,8.5234375 a 1.7945098,1.791375 0 0 0 -1.792968,1.7910152 1.7945098,1.791375 0 0 0 1.792968,1.791016 1.7945098,1.791375 0 0 0 1.794922,-1.791016 1.7945098,1.791375 0 0 0 -1.794922,-1.7910152 z M 18.581548,14.8773 c -0.0064,0.0045 -0.0092,0.0111 -0.01563,0.01563 -9.84e-4,6.62e-4 0.0031,-0.0086 0.002,-0.0078 z" fill="#008055"/>
</svg>
