<svg xmlns="http://www.w3.org/2000/svg" width="48" height="48">
	<path d="M 23.633791,2.0163174 C 18.104989,1.9489949 12.550652,3.9472421 8.2412115,8.0280362 a 1.9,1.9 0 0 0 -0.072265,2.6855468 1.9,1.9 0 0 0 2.6855475,0.07422 c 7.157063,-6.7773315 18.352171,-6.6412908 25.341797,0.308594 6.989626,6.949886 7.189538,18.144253 0.453124,25.339844 -6.736413,7.19559 -17.919414,7.729731 -25.314453,1.21289 a 1.9,1.9 0 0 0 -2.6816405,0.169922 1.9,1.9 0 0 0 0.169922,2.683594 C 17.728702,48.350536 31.312494,47.697217 39.424806,39.031942 47.537118,30.366668 47.29322,16.770468 38.875978,8.401083 34.667356,4.2163902 29.162592,2.0836399 23.633791,2.0163174 Z m -0.06055,7.712891 C 20.609779,9.6290764 17.59848,10.451686 14.995116,12.254598 a 1.7918126,1.80822 13.999788 0 0 -0.46875,2.511719 1.7918126,1.80822 13.999788 0 0 2.490234,0.464844 c 4.476254,-3.099948 10.497073,-2.359127 14.083984,1.738281 3.586912,4.097408 3.572972,10.219195 -0.02734,14.320313 -3.600315,4.101117 -9.620726,4.855532 -14.087891,1.761718 a 1.7918126,1.80822 13.999788 0 0 -2.494141,0.470703 1.7918126,1.80822 13.999788 0 0 0.455079,2.511719 c 5.931669,4.108082 14.021108,3.097683 18.80664,-2.353516 4.785533,-5.451198 4.800983,-13.669729 0.03906,-19.109374 -2.67858,-3.059801 -6.408586,-4.7130566 -10.21875,-4.8417966 z M 5.5869145,12.940145 c -0.448401,0.0194 -0.895331,0.132973 -1.308593,0.361328 -1.102032,0.608948 -1.6308596,1.864581 -1.6308596,3.041016 v 10.802734 a 1.8,1.8 0 0 0 1.8007816,1.798828 1.8,1.8 0 0 0 1.800781,-1.798828 v -10.3125 L 19.329103,24.440145 6.2001965,32.076864 A 1.8,1.8 0 0 0 4.4482435,30.688192 1.8,1.8 0 0 0 2.6474619,32.48702 c 0,1.170769 0.4966646,2.405169 1.5781246,3.044922 1.08146,0.639753 2.457765,0.458699 3.472657,-0.162109 l 13.8261715,-8.041016 -0.05664,0.03125 c 1.015487,-0.543663 1.983901,-1.491197 2.013672,-2.857422 0.02977,-1.366225 -0.936411,-2.390183 -1.982422,-2.964844 L 7.7119145,13.51827 l -0.00391,-0.002 c -0.499018,-0.304521 -1.080006,-0.510773 -1.673828,-0.564453 -0.148819,-0.01345 -0.297798,-0.01818 -0.447266,-0.01172 z" fill="#008055"/>
</svg>
