<svg xmlns="http://www.w3.org/2000/svg" width="48" height="48">
	<path d="M 24.512871,1.4010678 C 23.102627,1.3847862 22.38264,2.2941028 21.79998,3.0944272 a 1.80018,1.80018 0 0 0 -0.01172,0.015625 L 19.321464,6.574896 c -0.391148,0.5252716 -0.532876,0.6121164 -1,0.3984375 a 1.80018,1.80018 0 0 0 -0.07227,-0.03125 L 14.378105,5.3737241 C 13.914844,5.1786851 13.467729,5.0234501 12.936699,4.965521 12.405669,4.9075919 11.70409,4.9739754 11.100761,5.3893491 10.497433,5.8047228 10.177545,6.4556346 10.04998,6.9870054 9.9224149,7.518376 9.9206634,8.0009083 9.9562298,8.5143491 l -0.00391,-0.1074219 0.041016,4.2929688 a 1.80018,1.80018 0 0 0 0,0.0039 c 0.00545,0.43092 -0.087116,0.621548 -0.1289063,0.679687 -0.04179,0.05814 -0.050368,0.115423 -0.4082031,0.179688 a 1.80018,1.80018 0 0 0 -0.1152343,0.02344 l -4.037106,1.001957 c -0.4790219,0.107258 -0.9267145,0.240783 -1.390625,0.511719 -0.4639105,0.270936 -0.9814711,0.761592 -1.2070313,1.429688 -0.4511203,1.33619 0.192718,2.300121 0.7734375,3.101562 a 1.80018,1.80018 0 0 0 0.00977,0.01563 l 2.5566407,3.449219 a 1.80018,1.80018 0 0 0 0.072266,0.0918 c 0.2045142,0.241626 0.2438636,0.403958 0.2460937,0.472656 0.00223,0.0687 0.028815,0.153789 -0.265625,0.470703 a 1.80018,1.80018 0 0 0 -0.058594,0.06641 l -2.6875,3.197266 c -0.3286438,0.380313 -0.6147918,0.757009 -0.8339844,1.24414 -0.2191926,0.487132 -0.3726625,1.174788 -0.1640625,1.876954 0.2086001,0.702165 0.7293659,1.208616 1.1953125,1.49414 0.4659467,0.285525 0.9245218,0.433757 1.4238281,0.558594 l -0.1113326,-0.03126 3.4550781,1.105469 A 1.8,1.8 0 0 0 10.579277,32.475287 1.8,1.8 0 0 0 9.4132611,30.213568 l -2.9375,-0.939453 2.3203125,-2.759766 -0.060547,0.06836 c 0.79807,-0.858986 1.261235,-1.970986 1.2265626,-3.039063 -0.034672,-1.068077 -0.5039174,-1.982467 -1.0957031,-2.68164 l 0.072266,0.0918 -2.2285156,-3.00586 3.4980465,-0.867187 -0.115234,0.02539 c 1.071505,-0.192435 2.080773,-0.766133 2.695312,-1.621093 0.613319,-0.853262 0.816001,-1.858276 0.804688,-2.820313 v -0.0059 l -0.03516,-3.7343756 3.33789,1.3535156 -0.07226,-0.03125 c 2.000115,0.914921 4.251153,8.44e-4 5.384765,-1.5214844 a 1.80018,1.80018 0 0 0 0.02344,-0.03125 l 2.167968,-3.0449219 1.90625,3.0566407 -0.05859,-0.1015626 c 0.514126,0.9595833 1.370025,1.7422362 2.373047,2.0625002 1.000922,0.319594 2.020213,0.202534 2.93164,-0.105468 l 0.0059,-0.002 3.539062,-1.1875 -0.251953,3.566407 c -0.178922,2.081887 1.259556,4.073651 3.199219,4.625 a 1.80018,1.80018 0 0 0 0.445312,0.06836 h -0.230468 l 3.304687,1.039062 -2.318359,2.757813 0.07813,-0.08789 c -0.753725,0.785488 -1.233879,1.841631 -1.228516,2.894532 0.0053,1.050375 0.431548,1.982412 1.005859,2.753906 l 0.002,0.0039 c 0,0 0.002,0.002 0.002,0.002 l 2.224609,3 -3.498047,0.867188 0.0957,-0.02148 c -1.035068,0.19755 -2.045192,0.714324 -2.68164,1.578125 -0.636036,0.863242 -0.823727,1.89759 -0.798828,2.886719 0,0 0,0.002 0,0.002 l 0.03516,3.710938 -3.337891,-1.353516 0.107422,0.04688 c -0.979988,-0.474172 -2.133108,-0.603912 -3.132813,-0.273437 -0.999704,0.330475 -1.755866,1.027584 -2.3125,1.814453 l -2.166015,3.041015 -1.876953,-3.007812 c -0.540144,-0.930763 -1.329515,-1.750614 -2.371094,-2.074219 -1.041579,-0.323604 -2.024649,-0.122169 -2.900391,0.169922 a 1.80018,1.80018 0 0 0 -0.0039,0 l -3.544922,1.189453 0.207031,-2.882812 A 1.8,1.8 0 0 0 11.481772,33.764365 1.8,1.8 0 0 0 9.5579437,35.432334 L 9.31185,38.871787 c -3.032e-4,0.0032 3.002e-4,0.0065 0,0.0098 -0.045285,0.48524 -0.05693,0.949211 0.056641,1.470703 0.1143234,0.52495 0.4206332,1.168881 0.986328,1.589844 1.13139,0.841925 2.247769,0.529255 3.189454,0.224609 a 1.80018,1.80018 0 0 0 0.01953,-0.0059 l 4.066406,-1.365235 c 0.543599,-0.181308 0.722181,-0.137529 0.69336,-0.146484 -0.02882,-0.009 0.04492,-0.04128 0.326171,0.44336 a 1.80018,1.80018 0 0 0 0.0293,0.04883 l 2.208985,3.544922 c 0.0022,0.0036 0.0056,0.0062 0.0078,0.0098 l 0.0059,0.0098 c 0.256372,0.421904 0.524797,0.802965 0.914062,1.15625 0.395552,0.35899 1.000149,0.717742 1.732422,0.736328 0.732273,0.01859 1.375492,-0.318911 1.791016,-0.673828 0.415523,-0.354917 0.699646,-0.745352 0.972656,-1.181641 l -0.06055,0.08984 2.490234,-3.496094 a 1.80018,1.80018 0 0 0 0.0039,-0.0059 c 0.248886,-0.351831 0.433965,-0.450181 0.501953,-0.472657 0.06799,-0.02247 0.108324,-0.06262 0.435547,0.0957 a 1.80018,1.80018 0 0 0 0.107422,0.04688 l 3.855468,1.5625 c 0,0 0.002,0 0.002,0 0.449996,0.194465 0.889924,0.350872 1.423829,0.404297 0.534581,0.05349 1.241229,-0.03936 1.816406,-0.447266 1.150352,-0.815822 1.197967,-1.97509 1.199218,-2.964844 a 1.80018,1.80018 0 0 0 0,-0.01953 l -0.04102,-4.291016 a 1.80018,1.80018 0 0 0 0,-0.0293 c -0.01241,-0.487689 0.08038,-0.638661 0.09766,-0.662109 0.01728,-0.02345 0.03327,-0.09453 0.458985,-0.175781 a 1.80018,1.80018 0 0 0 0.0957,-0.02148 l 4.054472,-1.005898 c 0.489527,-0.114459 0.940573,-0.252403 1.404297,-0.517578 0.463724,-0.265175 0.99222,-0.731142 1.236328,-1.421875 0.244108,-0.690734 0.121246,-1.40526 -0.08789,-1.910156 -0.209136,-0.504897 -0.491705,-0.894597 -0.822265,-1.289063 l 0.06641,0.08398 -2.556641,-3.449218 a 1.80018,1.80018 0 0 0 -0.002,-0.0039 c -0.257716,-0.345426 -0.29651,-0.553401 -0.296875,-0.625 -3.64e-4,-0.0716 -0.02514,-0.122453 0.226563,-0.384766 a 1.80018,1.80018 0 0 0 0.07813,-0.08789 l 2.677734,-3.183593 c 0.324565,-0.368359 0.608135,-0.740529 0.824219,-1.232422 0.216084,-0.491894 0.346869,-1.192112 0.136719,-1.865235 -0.420301,-1.346246 -1.508015,-1.747844 -2.449219,-2.054687 a 1.80018,1.80018 0 0 0 -0.01758,-0.0059 l -4.095703,-1.289062 a 1.80018,1.80018 0 0 0 -0.04688,-0.01367 C 38.397135,13.9208 38.372759,13.922049 38.430795,13.246736 a 1.80018,1.80018 0 0 0 0.002,-0.02734 L 38.72967,9.0533796 C 38.7721,8.5524405 38.77997,8.0802612 38.67108,7.5572858 38.562185,7.0343425 38.283818,6.3876996 37.702324,5.9420835 37.12083,5.4964674 36.401434,5.3933401 35.856621,5.4362241 35.311807,5.4791081 34.853452,5.6265439 34.376152,5.8190366 l 0.101563,-0.037109 -4.070313,1.3652344 a 1.80018,1.80018 0 0 0 -0.0059,0.00195 C 29.99336,7.2874632 29.784186,7.2587887 29.715955,7.237003 29.647725,7.215217 29.592706,7.223436 29.421033,6.9030186 A 1.80018,1.80018 0 0 0 29.360527,6.8014585 L 27.161308,3.2721616 C 26.911271,2.8496553 26.646336,2.4636546 26.245293,2.106146 25.844249,1.7486374 25.217993,1.4092087 24.512871,1.4010678 Z m -6.5625,11.6484382 c -0.376316,0.02496 -0.765696,0.134674 -1.154297,0.371093 -1.036271,0.630455 -1.30186,1.890832 -1.193359,2.890626 l -0.0078,-0.09766 0.191406,3.769531 c 0.03868,0.828577 -0.182497,1.600868 -0.595703,1.984376 a 1.70017,1.70017 0 0 0 -0.130859,0.136718 l -2.408203,2.796875 c -0.607752,0.637713 -1.249574,1.60468 -0.898438,2.806641 0.351137,1.201961 1.368346,1.66782 2.25,1.921875 a 1.70017,1.70017 0 0 0 0.01563,0.0039 l 3.269531,0.912109 a 1.7,1.7 0 0 0 2.09375,-1.18164 1.7,1.7 0 0 0 -1.18164,-2.09375 l -2.501953,-0.697266 1.935547,-2.25 -0.13086,0.136719 c 1.434068,-1.331 1.748326,-3.165855 1.677734,-4.642578 a 1.70017,1.70017 0 0 0 0,-0.0059 l -0.15039,-2.958985 2.740234,1.144531 -0.128906,-0.06055 c 1.683119,0.874761 3.426983,0.718498 4.917969,0.126953 h 0.002 l 2.753906,-1.048829 -0.242187,2.935547 c -0.159191,1.727981 0.409426,3.344396 1.402343,4.574219 l 1.861328,2.304688 -2.886718,0.679687 0.07031,-0.01367 c -1.743088,0.33446 -3.062879,1.441049 -3.947265,2.714844 a 1.70017,1.70017 0 0 0 -0.02734,0.04102 l -1.621094,2.484375 -1.390625,-2.289063 a 1.7,1.7 0 0 0 -2.335937,-0.570312 1.7,1.7 0 0 0 -0.570313,2.335937 l 1.8125,2.980469 a 1.70017,1.70017 0 0 0 0.01367,0.02344 c 0.482821,0.766448 1.316469,1.420486 2.359375,1.462891 1.040963,0.04233 1.998978,-0.6077 2.519531,-1.414063 l 2.033203,-3.115234 h 0.002 c 0.42233,-0.607379 1.291232,-1.220134 1.792969,-1.316406 a 1.70017,1.70017 0 0 0 0.07031,-0.01367 l 3.609375,-0.853516 c 0.955256,-0.183861 2.028354,-0.813893 2.345703,-1.917968 0.317348,-1.104075 -0.148566,-2.040327 -0.6875,-2.714844 a 1.70017,1.70017 0 0 0 -0.0059,-0.0078 l -2.373046,-2.9375 c -0.390263,-0.483376 -0.722859,-1.46558 -0.66211,-2.125 a 1.70017,1.70017 0 0 0 0.002,-0.01758 l 0.310547,-3.761719 -0.0098,0.07813 c 0.112035,-0.871276 -0.05031,-1.951389 -0.917969,-2.675782 -0.867655,-0.724392 -2.066901,-0.687867 -2.984375,-0.33789 l -3.529297,1.347656 a 1.70017,1.70017 0 0 0 -0.02148,0.0078 c -0.464648,0.18448 -1.826177,0.158675 -2.097657,0.01758 a 1.70017,1.70017 0 0 0 -0.128906,-0.06055 l -3.417969,-1.427735 c -0.394357,-0.185499 -0.852999,-0.345471 -1.341796,-0.380859 -0.1222,-0.0088 -0.245656,-0.01027 -0.371094,-0.002 z" fill="#008055"/>
</svg>
