<svg xmlns="http://www.w3.org/2000/svg" width="48" height="48">
	<path d="m 18.427017,3.2326585 c -1.142567,0 -2.430564,0.3501022 -3.445313,1.2988281 -1.014749,0.9487262 -1.596672,2.4247488 -1.617187,4.0917968 a 2.0002,2.0002 0 0 0 0,0.02539 v 4.9843746 c 0,0.63435 -0.175003,0.808586 -0.550781,1.103515 -0.375781,0.29493 -0.980493,0.52187 -1.316407,0.609375 a 2.0002,2.0002 0 0 0 -0.0078,3.869141 c 0.468439,0.12416 1.057644,0.328125 1.404297,0.582031 0.346652,0.253907 0.477892,0.323134 0.470703,0.964844 a 2.0002,2.0002 0 0 0 0,0.02148 v 4.97461 c 0,1.568522 0.516794,3.011329 1.503906,3.982422 0.987112,0.971093 2.312994,1.379134 3.554687,1.375 a 2,2 0 0 0 1.994141,-2.00586 2,2 0 0 0 -2.005859,-1.99414 c -0.410207,0.0014 -0.611568,-0.101906 -0.738282,-0.226563 -0.126713,-0.124657 -0.308593,-0.361881 -0.308593,-1.130859 v -4.953125 c 0.0171,-1.525942 -0.706304,-2.709962 -1.53711,-3.574219 0.819688,-0.877971 1.53711,-2.061866 1.53711,-3.597656 V 8.6721064 c 0.01058,-0.860052 0.213558,-1.091551 0.349609,-1.21875 0.136051,-0.127199 0.364957,-0.220703 0.712891,-0.220703 a 2,2 0 0 0 2,-1.9999999 2,2 0 0 0 -2,-2 z m 11.146484,0 a 2,2 0 0 0 -2,2 2,2 0 0 0 2,1.9999999 c 0.34801,0 0.576862,0.09352 0.712891,0.220703 0.136028,0.127181 0.339024,0.358672 0.349609,1.21875 v 4.9609376 c 0,1.536139 0.717157,2.719678 1.537109,3.597656 -0.83122,0.864257 -1.55421,2.047742 -1.537109,3.574219 v 4.953125 c 0,0.768978 -0.183835,1.006201 -0.310547,1.130859 -0.126712,0.124659 -0.326197,0.227928 -0.736328,0.226563 a 2,2 0 0 0 -2.007812,1.99414 2,2 0 0 0 1.99414,2.00586 c 1.241669,0.0041 2.5676,-0.403909 3.554688,-1.375 0.987088,-0.971092 1.505859,-2.4139 1.505859,-3.982422 v -4.97461 a 2.0002,2.0002 0 0 0 0,-0.02148 c -0.0072,-0.64171 0.124046,-0.710938 0.470703,-0.964844 0.346658,-0.253905 0.933888,-0.457879 1.402344,-0.582031 a 2.0002,2.0002 0 0 0 -0.0078,-3.869141 C 36.165316,15.258433 35.5626,15.031508 35.186794,14.736568 34.810988,14.441629 34.636013,14.267377 34.636013,13.633053 V 8.6486784 a 2.0002,2.0002 0 0 0 0,-0.02539 C 34.615486,6.9562614 34.031607,5.4802312 33.01686,4.5314866 32.002114,3.5827423 30.716091,3.2326585 29.573501,3.2326585 Z M 10.075454,22.010002 a 2,2 0 0 0 -0.9570315,0.25 c -4.2345033,2.343993 -6.7911389,5.726789 -6.8203125,9.427734 -0.029174,3.700946 2.4826094,7.112878 6.6855469,9.480469 8.4058751,4.735183 21.1501071,4.80102 29.7070321,0.179687 4.278462,-2.310666 6.896495,-5.653848 7.007812,-9.353515 0.111318,-3.699667 -2.336154,-7.152 -6.494141,-9.552735 a 2,2 0 0 0 -2.730468,0.732422 2,2 0 0 0 0.730468,2.732422 c 3.349953,1.934193 4.55252,4.091469 4.496094,5.966797 -0.05643,1.875328 -1.424075,4.072353 -4.910156,5.955078 C 29.818136,41.593812 17.747904,41.515158 10.946548,37.68383 7.5458696,35.768166 6.2833316,33.59376 6.29811,31.718986 6.312888,29.844213 7.617622,27.662179 11.05397,25.760002 a 2,2 0 0 0 0.78125,-2.71875 2,2 0 0 0 -1.759766,-1.03125 z" fill="#008055"/>
</svg>
