<svg xmlns="http://www.w3.org/2000/svg" width="48" height="48">
	<path d="M 15.282007,0.6571265 A 2.0002,2.0002 0 0 0 14.229272,0.9989234 L 5.7136472,6.7645484 A 2,2 0 0 0 5.1784909,9.5418916 2,2 0 0 0 7.9558347,10.077049 L 13.348413,6.4266577 13.332788,29.303611 a 2.0002,2.0002 0 0 0 0,0.0078 c 0.0198,6.394101 4.636829,11.60706 10.798828,11.820312 a 2.0002,2.0002 0 0 0 0.0039,0 c 6.078051,0.201017 10.129932,-4.094238 11.232421,-8.230468 1.638571,-5.918586 -1.42425,-10.94172 -5.121093,-13.048829 a 2.0002,2.0002 0 0 0 -0.01563,-0.0098 C 27.22107,18.161533 23.359145,17.885215 19.811304,19.563377 a 2,2 0 0 0 -0.953125,2.662109 2,2 0 0 0 2.664062,0.953125 c 2.39274,-1.131788 4.834073,-0.913831 6.753906,0.15625 2.154865,1.234031 4.382037,4.387609 3.236329,8.507813 a 2.0002,2.0002 0 0 0 -0.0059,0.02344 c -0.656257,2.47233 -3.095735,5.402454 -7.236328,5.267578 -4.0612,-0.140548 -6.923305,-3.252838 -6.9375,-7.835937 l 0.01758,-26.6406255 a 2.0002,2.0002 0 0 0 -2.068359,-2 z m 8.933594,5.7441406 c -1.205654,-0.012957 -2.424991,0.080868 -3.648438,0.2890625 a 1.9992767,2.000723 5.0001821 0 0 -1.634766,2.308594 1.9992767,2.000723 5.0001821 0 0 2.304688,1.6386724 C 29.135298,9.2935526 36.827077,13.806903 39.508569,21.362205 42.190062,28.917507 39.06837,37.272997 32.092554,41.215721 25.116737,45.158444 16.351371,43.520296 11.270288,37.321189 6.1892047,31.122082 6.2960406,22.200809 11.524194,16.125877 A 1.9992767,2.000723 5.0001821 0 0 11.31521,13.303611 1.9992767,2.000723 5.0001821 0 0 8.4948972,13.514549 c -6.47892,7.528279 -6.6125648,18.662206 -0.3164062,26.34375 6.296158,7.681542 17.236176,9.729715 25.88086,4.84375 C 42.704034,39.816084 46.598918,29.38451 43.276147,20.022361 40.368723,11.83048 32.655173,6.4919649 24.215601,6.4012671 Z" fill="#008055"/>
</svg>
