<svg xmlns="http://www.w3.org/2000/svg" width="48" height="48">
	<path d="m 8.4697264,4.1240215 c -1.6229088,0 -3.1670657,0.4824495 -4.2304688,1.5761719 C 3.1758545,6.7939157 2.7509764,8.3097325 2.7509764,9.8583965 V 37.581053 c 0,1.639774 0.4708317,3.195257 1.4765624,4.382813 1.0057309,1.187555 2.5691715,1.912109 4.2421876,1.912109 H 20.508789 a 1.9,1.9 0 0 0 1.900391,-1.90039 1.9,1.9 0 0 0 -1.900391,-1.900391 H 8.4697264 c -0.684614,0 -1.0294734,-0.195312 -1.34375,-0.566406 C 6.8116997,39.137693 6.5517576,38.496479 6.5517576,37.581053 V 9.8583965 c 0,-0.893636 0.20506,-1.2948599 0.4121094,-1.5078125 C 7.1709163,8.1376314 7.5367851,7.9248027 8.4697264,7.9248027 h 6.0937506 c -1.138182,0.8368239 -2.268654,1.6741228 -3.041016,2.6464853 -2.0507835,2.581825 -2.745646,5.574835 -2.7578128,8.53125 -0.033004,8.001147 5.4863428,13.773437 12.2343758,13.773437 3.447839,0 6.086009,-1.77531 7.246093,-4.095703 1.160085,-2.320393 0.947204,-5.217185 -0.923828,-7.146484 a 1.9,1.9 0 0 0 -2.6875,-0.04102 1.9,1.9 0 0 0 -0.04102,2.685547 c 0.625618,0.645101 0.775006,1.756527 0.251953,2.802734 -0.523053,1.046207 -1.612023,1.996094 -3.845703,1.996094 -4.666348,0 -8.459791,-3.608131 -8.433594,-9.958984 0.0099,-2.413686 0.486025,-4.363644 1.931641,-6.183594 1.445613,-1.81995 4.003209,-3.5886032 8.451171,-5.1132819 A 1.90019,1.90019 0 0 0 22.331055,4.1240215 Z m 19.0214846,0 a 1.9,1.9 0 0 0 -1.90039,1.9003906 1.9,1.9 0 0 0 1.90039,1.9003906 h 12.039063 c 0.684592,0 1.029474,0.1953111 1.34375,0.5664063 0.314275,0.3710952 0.574218,1.0123081 0.574218,1.927735 V 38.1416 c 0,0.893657 -0.205078,1.294874 -0.412109,1.507813 -0.207031,0.212938 -0.572886,0.425781 -1.505859,0.425781 h -6.09375 c 1.138187,-0.836823 2.268648,-1.674123 3.041015,-2.646485 2.0508,-2.581825 2.745701,-5.574812 2.757813,-8.53125 0.033,-8.001155 -5.486334,-13.773437 -12.234375,-13.773437 -3.447832,0 -6.084066,1.773359 -7.244141,4.09375 -1.160075,2.320391 -0.949125,5.219133 0.921875,7.148437 a 1.9,1.9 0 0 0 2.6875,0.04102 1.9,1.9 0 0 0 0.04102,-2.685547 c -0.625601,-0.645095 -0.775004,-1.758478 -0.251953,-2.804687 0.52305,-1.04621 1.612034,-1.994141 3.845703,-1.994141 4.666359,0 8.459789,3.60814 8.433594,9.958985 -0.0099,2.413662 -0.486016,4.363643 -1.931641,6.183593 -1.445626,1.81995 -4.00126,3.588603 -8.449219,5.113281 a 1.90019,1.90019 0 0 0 0.615234,3.697266 h 13.861329 c 1.622927,0 3.167075,-0.482436 4.230468,-1.576172 1.063394,-1.093736 1.488282,-2.60956 1.488282,-4.158203 v -27.72266 c 0,-1.6397746 -0.468885,-3.1952583 -1.47461,-4.3828131 C 42.76869,4.8485761 41.203281,4.1240215 39.530274,4.1240215 Z" fill="#008055"/>
</svg>
