<svg xmlns="http://www.w3.org/2000/svg" width="48" height="48">
	<path d="m 28.841628,2.7074409 c -0.22474,-0.023357 -0.405976,0.00875 -0.580078,0.021484 -0.348204,0.02546 -0.680296,0.08872 -1.076172,0.1796875 C 26.393626,3.0905475 25.364,3.3964953 23.958815,3.8539252 a 1.70017,1.70017 0 0 0 -0.01563,0.00391 C 17.778643,5.9266652 11.785486,10.500949 7.8709242,16.160566 3.9563624,21.820182 2.1164586,28.775963 4.9861586,35.154706 a 1.70017,1.70017 0 0 0 0.021484,0.04297 c 0.2092505,0.432247 0.5157911,0.974741 0.9121094,1.529297 0.3963182,0.554556 0.7995107,1.125629 1.6210937,1.576172 0.4107915,0.225271 1.0424516,0.4336 1.75,0.251953 0.7075485,-0.181647 1.2295433,-0.730716 1.4980473,-1.226563 0.537009,-0.991692 0.609375,-2.019021 0.609375,-3.628906 a 1.70017,1.70017 0 0 0 0,-0.01367 c -0.02126,-2.921182 1.03916,-5.993363 2.34375,-7.71875 A 1.7,1.7 0 0 0 13.409987,23.58635 1.7,1.7 0 0 0 11.029128,23.916428 C 9.1769021,26.366087 8.0390723,29.892957 8.0252211,33.527753 5.8980282,28.54385 7.2521263,23.034442 10.6678,18.096113 13.874855,13.459399 18.864,9.5987227 23.820143,7.6136909 c -3.06968,3.2482361 -5.065294,5.9887621 -5.382812,8.3417971 -0.202057,1.497387 0.334712,3.032646 1.392578,3.927734 1.057866,0.895088 2.386841,1.222999 3.794922,1.3125 2.816161,0.179002 6.197885,-0.633242 9.5,-2.099609 2.919556,-1.296485 5.643274,-3.201047 7.753906,-5.523438 -0.437562,7.165775 -1.196434,14.569172 -2.826172,19.988281 -0.866531,2.881341 -1.979625,5.179518 -3.224609,6.56836 -1.242315,1.385864 -2.436647,1.936346 -4.197266,1.738281 -1.339196,-0.178654 -2.023184,-0.60982 -2.488281,-1.171875 -0.467728,-0.565235 -0.752388,-1.382905 -0.824219,-2.472656 -0.143661,-2.179502 0.681729,-5.233417 1.679688,-7.673828 a 1.7,1.7 0 0 0 -0.929688,-2.216797 1.7,1.7 0 0 0 -2.216797,0.929687 c -1.106521,2.705889 -2.132867,6.041871 -1.925781,9.183594 0.103543,1.570862 0.54446,3.145213 1.597656,4.417969 1.053197,1.272755 2.685546,2.119821 4.685547,2.380859 a 1.70017,1.70017 0 0 0 0.02734,0.0039 c 2.815567,0.321469 5.341051,-0.861704 7.123047,-2.849609 1.781996,-1.987905 3.002657,-4.705428 3.951172,-7.859375 1.89703,-6.307894 2.655682,-14.456072 3.080078,-22.132812 a 1.70017,1.70017 0 0 0 0,-0.01172 c 0.03671,-0.771809 0.03616,-1.383395 -0.09375,-2.00586 -0.06495,-0.311225 -0.156608,-0.6389097 -0.406246,-1.0097581 -0.249639,-0.3708487 -0.758453,-0.7818341 -1.326172,-0.890625 -1.135438,-0.217582 -1.70402,0.3340845 -2.152344,0.71875 -0.448324,0.3846652 -0.846322,0.8418821 -1.298828,1.4082031 a 1.70017,1.70017 0 0 0 -0.01367,0.01758 c -1.66107,2.135466 -4.445003,4.063021 -7.355469,5.355469 -2.910465,1.292448 -5.973364,1.937188 -7.904296,1.814453 -0.965467,-0.06137 -1.586539,-0.324433 -1.8125,-0.515625 -0.225962,-0.191192 -0.30677,-0.239136 -0.220704,-0.876953 0.172134,-1.275634 1.982029,-4.471387 6.746094,-8.9375001 0.520482,-0.4684988 0.959347,-0.8643563 1.332032,-1.2988282 0.189802,-0.2212692 0.384147,-0.4165945 0.560546,-0.9042968 0.0882,-0.2438512 0.182206,-0.6098733 0.07422,-1.0859376 C 30.411375,3.7079393 30.028333,3.2341654 29.681471,3.021894 29.33461,2.8096225 29.066367,2.7307977 28.841628,2.7074409 Z M 16.851393,24.834394 a 1.7,1.7 0 0 0 -1.466796,0.880859 c -2.821355,5.140769 -3.49742,9.768516 -2.63086,13.300781 0.866561,3.532267 3.606939,6.062556 6.875,5.888672 a 1.70017,1.70017 0 0 0 0.01563,-0.002 c 0.444786,-0.02794 1.192052,0.245796 2.371094,-0.427734 0.589521,-0.336765 1.116019,-1.135793 1.207031,-1.841797 0.09101,-0.706004 -0.0475,-1.315277 -0.27539,-2.011719 a 1.70017,1.70017 0 0 0 -0.0059,-0.02148 C 21.40393,36.116341 22.024376,33.200784 24.368936,29.336304 a 1.7,1.7 0 0 0 -0.570312,-2.335937 1.7,1.7 0 0 0 -2.335938,0.572265 c -2.621415,4.320814 -3.503734,8.746068 -1.78125,13.941406 -0.162639,0.02106 -0.03268,-0.01756 -0.25,-0.0039 l 0.01563,-0.002 c -1.533929,0.08162 -2.792473,-0.864551 -3.390626,-3.302734 -0.598152,-2.438183 -0.204412,-6.274585 2.308594,-10.853516 a 1.7,1.7 0 0 0 -0.671844,-2.30851 1.7,1.7 0 0 0 -0.841797,-0.208984 z" fill="#008055"/>
</svg>
