<svg xmlns="http://www.w3.org/2000/svg" width="48" height="48">
	<path d="M 8.6542969 6.6230469 C 6.9137158 6.6230469 5.281858 7.1387626 4.1601562 8.2929688 C 3.0384545 9.4471748 2.5839844 11.049559 2.5839844 12.710938 L 2.546875 34.671875 A 1.90019 1.90019 0 0 0 2.546875 34.675781 C 2.546875 36.321805 3.0156034 37.932028 4.046875 39.203125 C 5.0781466 40.474222 6.7172805 41.322313 8.5605469 41.376953 A 1.9 1.9 0 0 0 10.515625 39.533203 A 1.9 1.9 0 0 0 8.671875 37.578125 C 7.8231113 37.552965 7.3787428 37.279775 6.9980469 36.810547 C 6.617988 36.342104 6.3466057 35.592678 6.3457031 34.679688 L 6.3457031 34.675781 L 6.3847656 12.714844 A 1.90019 1.90019 0 0 0 6.3847656 12.710938 C 6.3847656 11.704314 6.6191923 11.214675 6.8847656 10.941406 C 7.1503389 10.668137 7.6040179 10.423828 8.6542969 10.423828 L 39.363281 10.423828 C 40.187911 10.423828 40.713471 10.659545 41.056641 10.990234 C 41.39981 11.320924 41.654297 11.799666 41.654297 12.710938 L 41.654297 34.675781 C 41.654297 35.812612 41.386183 36.56152 41.074219 36.947266 C 40.762254 37.333011 40.395192 37.576172 39.363281 37.576172 L 14.195312 37.576172 A 1.9 1.9 0 0 0 12.294922 39.476562 A 1.9 1.9 0 0 0 14.195312 41.376953 L 39.363281 41.376953 C 41.24636 41.376953 42.974524 40.64212 44.029297 39.337891 C 45.08407 38.033661 45.453125 36.381251 45.453125 34.675781 L 45.453125 12.710938 C 45.453125 10.966407 44.834702 9.3537419 43.693359 8.2539062 C 42.552016 7.1540707 40.982542 6.6230469 39.363281 6.6230469 L 8.6542969 6.6230469 z M 11.248047 18.431641 A 1.9 1.9 0 0 0 9.9921875 18.876953 A 1.9 1.9 0 0 0 9.7578125 21.552734 L 13.914062 26.505859 L 9.7578125 31.458984 A 1.9 1.9 0 0 0 9.9921875 34.136719 A 1.9 1.9 0 0 0 12.667969 33.902344 L 16.394531 29.460938 L 20.119141 33.902344 A 1.9 1.9 0 0 0 22.794922 34.136719 A 1.9 1.9 0 0 0 23.029297 31.458984 L 18.873047 26.505859 L 23.029297 21.552734 A 1.9 1.9 0 0 0 22.794922 18.876953 A 1.9 1.9 0 0 0 21.625 18.431641 A 1.9 1.9 0 0 0 20.119141 19.111328 L 16.394531 23.550781 L 12.667969 19.111328 A 1.9 1.9 0 0 0 11.248047 18.431641 z M 28.708984 27.912109 A 3.074666 -3.074666 0 0 0 25.632812 30.988281 A 3.074666 -3.074666 0 0 0 28.708984 34.0625 A 3.074666 -3.074666 0 0 0 31.783203 30.988281 A 3.074666 -3.074666 0 0 0 28.708984 27.912109 z M 37.005859 27.912109 A 3.074666 -3.074666 0 0 0 33.931641 30.988281 A 3.074666 -3.074666 0 0 0 37.005859 34.0625 A 3.074666 -3.074666 0 0 0 40.082031 30.988281 A 3.074666 -3.074666 0 0 0 37.005859 27.912109 z " fill="#008055"/>
</svg>
