<svg xmlns="http://www.w3.org/2000/svg" width="48" height="48">
	<path d="m 28.386425,5.6528572 c -1.67275,-0.033115 -3.381146,0.097225 -5.105469,0.3925781 a 2.0002,2.0002 0 0 0 -0.05469,0.00977 C 16.557438,7.3859743 11.626847,11.505351 8.116894,16.271998 4.6069405,21.038645 2.4252637,26.487321 1.0446282,30.891139 a 2,2 0 0 0 1.3105469,2.505859 2,2 0 0 0 2.5058594,-1.308594 C 6.1608992,27.942221 8.228513,22.867995 11.33955,18.643092 14.445128,14.425601 18.499331,11.089806 23.982128,9.9868418 31.752291,8.6638678 38.475566,11.081579 42.911816,17.055201 43.841594,27.04118 36.47472,36.874673 27.792675,38.113795 19.050051,39.236629 14.31055,36.53217 8.448925,32.922389 a 2,2 0 0 0 -2.751953,0.654297 2,2 0 0 0 0.6542969,2.751953 C 12.311691,39.999263 18.516714,43.34259 28.31416,42.080592 a 2.0002,2.0002 0 0 0 0.02539,-0.002 C 39.738237,40.464218 48.402506,28.386291 46.8708,16.018092 a 2.0002,2.0002 0 0 0 -0.349609,-0.90625 C 42.545231,9.4711448 36.633662,6.3063076 30.046581,5.7407478 29.497658,5.6936178 28.944009,5.6638956 28.386425,5.6528572 Z M 17.90205,15.72317 a 1.90019,1.90019 0 0 0 -1.898437,1.90039 v 12.833985 a 1.9,1.9 0 0 0 1.898437,1.900391 1.9,1.9 0 0 0 1.900391,-1.900391 V 19.523951 h 3.779297 v 10.933594 a 1.9,1.9 0 0 0 1.90039,1.900391 1.9,1.9 0 0 0 1.900391,-1.900391 V 19.523951 h 2.908203 c 0.330838,0 0.784643,0.151856 1.074219,0.40625 0.289576,0.254394 0.480469,0.537444 0.480469,1.166016 v 9.361328 a 1.9,1.9 0 0 0 1.90039,1.900391 1.9,1.9 0 0 0 1.900391,-1.900391 v -9.361328 c 0,-1.655628 -0.736555,-3.108625 -1.773438,-4.019531 -1.036882,-0.910907 -2.311249,-1.353516 -3.582031,-1.353516 z" fill="#008055"/>
</svg>
