<svg xmlns="http://www.w3.org/2000/svg" width="48" height="48">
	<path d="m 28.428455,2.9913873 c -2.047003,0.01081 -4.174538,0.262555 -6.417969,0.675781 a 1.8,1.8 0 0 0 -1.445312,2.095703 1.8,1.8 0 0 0 2.097656,1.445313 c 5.61897,-1.034981 9.630872,-0.962108 13.75586,1.267578 1.04601,0.667798 1.672632,0.907825 2.154296,1.7148427 0.06618,0.110878 0.463436,1.176683 0.720704,2.248047 0.243876,1.0156 0.433401,2.095998 0.533203,2.845703 l -7.84961,-1.492187 a 1.8,1.8 0 0 0 -2.105469,1.431641 1.8,1.8 0 0 0 1.431641,2.103515 l 8.214844,1.5625 c 0.595174,0.12736 1.199259,0.164122 1.822265,-0.0039 0.623008,-0.168028 1.227124,-0.599083 1.576172,-1.107422 0.698098,-1.016678 0.611565,-1.977254 0.511719,-2.783203 C 43.311803,14.059312 43.084677,12.8106 42.79369,11.598815 42.502702,10.387029 42.243916,9.3185313 41.66283,8.3449083 40.575848,6.5236913 38.956716,5.8361833 38.278064,5.3937373 a 1.80018,1.80018 0 0 0 -0.125,-0.07617 c -2.499428,-1.354663 -5.040165,-2.042003 -7.703124,-2.253907 -0.66574,-0.05297 -1.339151,-0.07587 -2.021485,-0.07226 z m -13.470703,2.484375 c -0.138333,0.0095 -0.272691,0.02787 -0.404297,0.05469 -0.526425,0.107272 -0.992781,0.338427 -1.357422,0.580078 -0.729281,0.483303 -1.257126,1.076137 -1.646484,1.765625 -0.408333,0.723065 -0.602095,1.505324 -0.607422,2.3359377 -0.0053,0.830614 0.184462,1.76027 0.857422,2.558594 1.135701,1.347333 3.064045,2.747628 4.857422,4.041015 1.793376,1.293387 3.375,2.339844 3.375,2.339844 a 1.8,1.8 0 0 0 2.49414,-0.509766 1.8,1.8 0 0 0 -0.509765,-2.49414 c 0,0 -1.529268,-1.012047 -3.253906,-2.25586 -1.708868,-1.232438 -3.674556,-2.827239 -4.185547,-3.419922 0.0012,-0.0085 -0.03611,-0.08819 -0.03516,-0.236328 0.0013,-0.206061 0.0836,-0.4854077 0.142578,-0.5898427 0.06934,-0.122789 0.309667,-0.383775 0.472657,-0.503907 2.480928,1.0907957 5.218858,2.7299577 9.478515,2.8320317 a 1.8,1.8 0 0 0 1.841797,-1.75586 1.8,1.8 0 0 0 -1.755859,-1.8417967 c -3.504508,-0.08398 -5.534482,-1.43893 -8.453125,-2.679687 -0.452254,-0.192236 -0.895548,-0.24917 -1.310547,-0.220703 z m -3.384766,8.9257807 a 1.8,1.8 0 0 0 -0.230468,0.02344 c -2.0749644,0.349787 -3.758715,0.989751 -4.9941406,2.134765 -1.2354256,1.145014 -1.84375,2.794542 -1.84375,4.451172 v 19.943359 c 0,0.679406 0.0057,1.560103 0.5839844,2.496094 0.578281,0.935991 1.8508836,1.558594 3.0859375,1.558594 1.9719887,0 3.5133557,-1.048492 4.4882807,-2.103516 a 1.80018,1.80018 0 0 0 0.04492,-0.05078 l 6.662109,-7.777344 a 1.80018,1.80018 0 0 0 0.002,-0.0039 c 0.461156,-0.54104 1.25514,-0.808431 1.642579,-0.650391 a 1.80018,1.80018 0 0 0 0.0078,0.0039 l 13.746094,5.53125 a 1.80018,1.80018 0 0 0 0.03125,0.01172 c 1.662671,0.63394 3.436658,0.08881 4.494141,-0.828125 1.057481,-0.916932 1.655073,-2.074956 1.978515,-3.18164 a 1.8,1.8 0 0 0 -1.222656,-2.232422 1.8,1.8 0 0 0 -2.232422,1.222656 c -0.148708,0.508816 -0.538508,1.172161 -0.882813,1.470703 -0.344303,0.298543 -0.385603,0.363207 -0.851562,0.185547 l -13.709017,-5.517582 -0.0078,-0.002 c -2.228947,-0.904596 -4.440505,0.137215 -5.730469,1.648437 l -6.617187,7.726563 -0.0059,0.0039 c -0.6158511,0.665585 -0.9972591,0.941406 -1.8378907,0.941406 -0.03878,0 -0.00858,0.0068 -0.035156,0.0078 -0.00329,-0.04644 -0.035156,-0.11897 -0.035156,-0.460938 V 21.010918 c 0,-0.90647 0.1921318,-1.347811 0.6914062,-1.810547 0.4992744,-0.462736 1.4852545,-0.944897 3.1445305,-1.224609 a 1.8,1.8 0 0 0 1.476562,-2.074219 1.8,1.8 0 0 0 -1.84375,-1.5 z m 28.113282,5.382812 a 1.8,1.8 0 0 0 -0.765625,0.199219 1.8,1.8 0 0 0 -0.773438,2.425781 c 0.149487,0.289806 0.600932,1.686069 0.890625,3.173829 0.200635,1.030386 0.257979,2.053569 0.333984,3.0625 -2.365355,-1.467038 -5.137417,-3.583671 -6.580078,-5.488282 a 1.8,1.8 0 0 0 -2.521484,-0.349609 1.8,1.8 0 0 0 -0.347656,2.521484 c 2.129102,2.810856 5.547963,5.289214 8.34375,6.914063 0.863508,0.501187 1.706957,1.00379 2.996094,0.636719 0.644567,-0.183536 1.26015,-0.735284 1.535156,-1.292969 0.27396,-0.555565 0.324142,-1.071473 0.322265,-1.574219 0.0074,-1.618401 -0.224471,-3.45141 -0.548828,-5.117187 -0.325104,-1.669616 -0.668146,-3.057923 -1.224609,-4.136719 a 1.8,1.8 0 0 0 -1.660156,-0.97461 z" fill="#008055"/>
</svg>
