<svg xmlns="http://www.w3.org/2000/svg" width="48" height="48">
	<path d="m 28.65537,0.6337217 c -1.02436,0.0336023 -1.837497,0.8735269 -1.837891,1.8984375 l 0.01758,23.4863278 c -0.01492,3.009548 -0.511987,3.469185 -1.730468,4.5 -1.480295,1.115908 -3.341753,0.958569 -4.451172,0.03711 -1.16767,-0.96984 -1.428312,-3.206696 -0.646485,-4.210937 0.680172,-0.872972 1.247117,-1.141251 1.832031,-1.269531 0.584915,-0.12828 1.245743,-0.05987 1.900391,0.103515 1.018921,0.254743 2.051238,-0.365522 2.304688,-1.384765 0.253622,-1.017675 -0.365322,-2.048374 -1.382813,-2.302735 -0.974102,-0.243114 -2.241823,-0.432873 -3.636719,-0.126953 -1.394895,0.30592 -2.858414,1.161804 -4.013671,2.644531 l -0.002,0.002 c -2.257692,2.899961 -1.601193,7.126238 1.216797,9.466797 2.525272,2.097436 6.367371,2.235624 9.220703,0.04688 0.02388,-0.01832 0.04733,-0.03721 0.07031,-0.05664 1.665043,-1.407398 3.098503,-3.661904 3.117187,-7.429688 1.2e-5,-0.0039 1.2e-5,-0.0078 0,-0.01172 L 30.622167,8.5380185 c 0.100329,0.070443 0.18022,0.1981843 0.28125,0.2636719 1.77658,1.1515789 3.614295,1.7275966 4.861328,2.3242186 2.179715,1.042823 3.305593,2.133475 3.808594,3.298828 0.503,1.165353 0.515712,2.667181 -0.273438,4.916016 -0.347376,0.990231 0.173806,2.07457 1.164062,2.421875 0.990232,0.347377 2.074571,-0.173806 2.421876,-1.164063 0.978619,-2.788766 1.157573,-5.405066 0.175781,-7.679687 C 42.079827,10.644256 40.068454,8.972252 37.40537,7.6981748 35.802682,6.9313961 34.180411,6.3976272 32.971776,5.6141904 31.763141,4.8307537 30.950465,3.9840074 30.579198,2.1532529 30.394098,1.2454817 29.581328,0.60351745 28.65537,0.6337217 Z m -6.638672,9.5078123 c -1.325898,0.06317 -2.518025,0.444045 -3.263672,1.33789 -0.745646,0.893849 -0.794874,1.84058 -0.853516,2.441407 -0.05864,0.600827 -0.109829,0.966088 -0.210937,1.185547 -0.101108,0.219457 -0.199437,0.414935 -0.869141,0.730468 -0.669704,0.315534 -0.883584,0.26879 -1.117187,0.207032 -0.233603,-0.06176 -0.552085,-0.254483 -1.052735,-0.591797 -0.500649,-0.337315 -1.259819,-0.904331 -2.423828,-0.898438 -1.164009,0.0059 -2.214538,0.681844 -3.1074219,1.664063 -0.8928848,0.982217 -1.4680749,2.092656 -1.3632813,3.251953 0.1047937,1.159297 0.7416172,1.865717 1.125,2.332031 0.3833829,0.466315 0.6057668,0.761608 0.6894531,0.988281 0.083685,0.226674 0.1508267,0.434192 -0.099609,1.13086 -0.2504364,0.696668 -0.433727,0.815987 -0.6425781,0.9375 -0.2088523,0.121513 -0.5715321,0.206769 -1.1640626,0.322265 -0.5925304,0.115496 -1.5287445,0.254786 -2.3476562,1.082032 -0.8189117,0.827245 -1.0846527,2.04715 -1.0214844,3.373046 0.063168,1.325898 0.4420903,2.516073 1.3359375,3.261719 0.8938473,0.745647 1.8405795,0.796827 2.4414063,0.855469 0.6008268,0.05864 0.969995,0.107877 1.1894531,0.208984 0.2194572,0.101108 0.4129825,0.20139 0.7285155,0.871094 0.315533,0.669704 0.270742,0.883584 0.208985,1.117188 -0.06176,0.233602 -0.2583885,0.552085 -0.5957036,1.052734 -0.3373143,0.50065 -0.9004242,1.261772 -0.8945313,2.425781 0.00589,1.164009 0.6818437,2.212584 1.6640629,3.105469 0.982217,0.892884 2.092656,1.466122 3.251953,1.361328 1.159297,-0.104793 1.86181,-0.737711 2.328125,-1.121094 0.466314,-0.383382 0.76356,-0.607719 0.990234,-0.691406 0.226674,-0.08369 0.434192,-0.150827 1.13086,0.09961 0.696667,0.250436 0.814033,0.43568 0.935546,0.644531 0.121513,0.208852 0.208723,0.569579 0.324219,1.162109 0.115495,0.592531 0.254786,1.530698 1.082031,2.34961 0.827246,0.81891 2.047149,1.082699 3.373047,1.019531 1.325898,-0.06317 2.518026,-0.442091 3.263672,-1.335938 0.745647,-0.893847 0.79292,-1.84058 0.851563,-2.441406 0.05864,-0.600826 0.111783,-0.969995 0.21289,-1.189453 0.101108,-0.219457 0.20139,-0.412983 0.871094,-0.728516 0.669704,-0.315533 0.883584,-0.268789 1.117188,-0.207031 0.233602,0.06176 0.548178,0.256436 1.048828,0.59375 0.50065,0.337315 1.261772,0.902378 2.425781,0.896484 1.164009,-0.0059 2.21649,-0.681843 3.109375,-1.664062 0.892884,-0.982218 1.466122,-2.092656 1.361328,-3.251953 -0.104793,-1.159297 -0.741617,-1.863764 -1.125,-2.330078 -0.383383,-0.466315 -0.605767,-0.763561 -0.689453,-0.990235 -0.08369,-0.226674 -0.148874,-0.434191 0.101562,-1.130859 0.250437,-0.696667 0.433726,-0.814034 0.642579,-0.935547 0.208852,-0.121513 0.569578,-0.208723 1.162109,-0.324219 0.592531,-0.115495 1.528744,-0.254785 2.347656,-1.082031 0.818912,-0.827246 1.086606,-2.049102 1.023438,-3.375 -0.06317,-1.325898 -0.445997,-2.514119 -1.339844,-3.259766 -0.893848,-0.745646 -1.838627,-0.794873 -2.439453,-0.853515 -0.600828,-0.05864 -0.968042,-0.111783 -1.1875,-0.212891 -0.219457,-0.101108 -0.414936,-0.20139 -0.730469,-0.871094 -0.315533,-0.669704 -0.268789,-0.883584 -0.207031,-1.117187 0.06176,-0.233603 0.256436,-0.548178 0.59375,-1.048828 0.337315,-0.50065 0.900423,-1.261773 0.894531,-2.425782 -0.0059,-1.164007 -0.679891,-2.216492 -1.662109,-3.109374 -2.121484,-1.154091 -3.51719,1.983227 -2.421875,2.666015 0.28092,0.25537 0.385009,0.389094 0.4375,0.462891 -0.03578,0.06973 -0.09665,0.190112 -0.234375,0.394531 -0.295964,0.439277 -0.816907,1.124946 -1.085938,2.142578 -0.269031,1.017633 -0.167327,2.305132 0.429688,3.572266 0.597014,1.267134 1.522504,2.163066 2.478515,2.603515 0.956012,0.440451 1.81853,0.473938 2.345703,0.525391 0.245536,0.02397 0.377033,0.05398 0.453125,0.07031 0.02361,0.08776 0.06005,0.253406 0.07813,0.632812 0.01809,0.379646 -0.0025,0.548847 -0.01758,0.638672 -0.07427,0.02369 -0.202395,0.06593 -0.445312,0.113281 -0.519893,0.101337 -1.373394,0.216752 -2.283203,0.746094 -0.909808,0.52934 -1.746859,1.509973 -2.220703,2.828125 -0.473847,1.318151 -0.454405,2.610209 -0.08984,3.597656 0.364557,0.987446 0.950724,1.620147 1.287109,2.029297 0.156702,0.190599 0.229073,0.303731 0.271485,0.369141 -0.04567,0.07867 -0.136763,0.222496 -0.392579,0.503906 -0.255408,0.280962 -0.390647,0.384531 -0.464843,0.4375 -0.06929,-0.03582 -0.190143,-0.09471 -0.394532,-0.232422 -0.439276,-0.295964 -1.124946,-0.820812 -2.142578,-1.089844 -1.017633,-0.269031 -2.303179,-0.167327 -3.570312,0.429688 -1.267135,0.597014 -2.166973,1.524459 -2.607422,2.480468 -0.44045,0.956013 -0.471985,1.81853 -0.523438,2.345704 -0.02396,0.245535 -0.05398,0.377032 -0.07031,0.453125 -0.08775,0.02361 -0.253397,0.062 -0.632813,0.08008 -0.379647,0.01809 -0.548847,-0.0045 -0.638671,-0.01953 -0.02377,-0.07453 -0.06611,-0.203327 -0.113282,-0.445313 -0.101337,-0.519893 -0.214799,-1.373394 -0.74414,-2.283203 -0.529341,-0.909808 -1.511926,-1.746857 -2.830078,-2.220703 -1.318153,-0.473847 -2.610209,-0.454405 -3.597657,-0.08984 -0.987446,0.364557 -1.618193,0.948771 -2.027343,1.285156 -0.190645,0.156739 -0.305698,0.229082 -0.371094,0.271485 -0.07902,-0.04558 -0.221751,-0.135908 -0.501953,-0.390625 -0.28096,-0.255407 -0.386484,-0.388694 -0.439453,-0.462891 0.0357,-0.06907 0.09618,-0.189415 0.234374,-0.394531 0.295964,-0.439277 0.81886,-1.124946 1.087891,-2.142578 0.269031,-1.017633 0.165375,-2.305132 -0.431641,-3.572266 -0.597013,-1.267135 -1.522505,-2.16502 -2.478515,-2.605469 -0.9560119,-0.44045 -1.81853,-0.473937 -2.3457032,-0.52539 -0.245536,-0.02397 -0.3769932,-0.05353 -0.453125,-0.07031 -0.023611,-0.08776 -0.060049,-0.253406 -0.078125,-0.632812 -0.018087,-0.379647 0.00253,-0.548847 0.017578,-0.638672 0.074311,-0.02324 0.2024114,-0.06398 0.4453125,-0.111328 0.5198932,-0.101338 1.3733936,-0.218706 2.2832037,-0.748047 0.909807,-0.529341 1.746856,-1.509973 2.220703,-2.828125 0.473846,-1.318152 0.454403,-2.608257 0.08984,-3.595703 -0.364557,-0.987448 -0.950724,-1.6221 -1.287109,-2.03125 -0.156307,-0.190119 -0.227473,-0.303545 -0.269531,-0.369141 0.04523,-0.07864 0.134841,-0.222531 0.390625,-0.503906 0.255408,-0.280962 0.390647,-0.384531 0.464843,-0.4375 0.06932,0.03627 0.190113,0.09665 0.394532,0.234375 0.439276,0.295964 1.122993,0.818859 2.140625,1.08789 1.017633,0.269032 2.305132,0.167327 3.572265,-0.429687 1.267135,-0.597015 2.166973,-1.526411 2.607422,-2.482422 0.44045,-0.956012 0.471984,-1.814623 0.523438,-2.341797 0.02397,-0.245606 0.05358,-0.378515 0.07031,-0.455078 0.08742,-0.02314 0.254207,-0.05998 0.634766,-0.07813 0.37957,-0.01808 0.547321,0.0025 0.636719,0.01758 1.854036,0.325437 3.276419,-1.386925 2.001813,-2.853732 C 23.999863,10.082175 23.3426,10.07837 22.016702,10.141538 Z" fill="#008055"/>
</svg>
