<svg xmlns="http://www.w3.org/2000/svg" width="48" height="48">
	<path d="M 20.926758,1.469675 A 1.70017,1.70017 0 0 0 19.258789,2.8368625 L 18.96582,4.3075656 a 1.7,1.7 0 0 0 1.335938,2 1.7,1.7 0 0 0 2,-1.3359375 l 0.01953,-0.1015625 h 3.359375 l 0.02734,0.1289063 a 1.7,1.7 0 0 0 2.021484,1.3027343 1.7,1.7 0 0 0 1.302735,-2.0214843 L 28.713867,2.8095187 A 1.70017,1.70017 0 0 0 27.051758,1.469675 Z M 10.34082,7.3466281 c -1.7054336,0 -3.3559251,0.3710133 -4.6601561,1.4257812 -1.3042314,1.054768 -2.0410154,2.7829117 -2.0410154,4.6660157 v 15.091797 c 0,1.781635 0.767716,3.433693 2.0273435,4.5 1.2596276,1.066307 2.9161437,1.570312 4.673828,1.570312 a 1.9,1.9 0 0 0 1.900391,-1.90039 1.9,1.9 0 0 0 -1.900391,-1.900391 c -1.0336155,0 -1.7756525,-0.294829 -2.2187499,-0.669922 C 7.6789727,29.754738 7.4404295,29.322987 7.4404295,28.530222 V 13.438425 c 0,-1.031896 0.2431373,-1.398955 0.6289062,-1.710937 0.385769,-0.311983 1.1347182,-0.580079 2.2714843,-0.580079 h 27.931641 c 0.911285,0 1.390025,0.25449 1.720703,0.597657 0.330678,0.343166 0.566406,0.868707 0.566406,1.693359 v 15.091797 c 0,1.05031 -0.24432,1.503965 -0.517578,1.769531 -0.273257,0.265566 -0.76291,0.5 -1.769531,0.5 H 15.918945 a 1.9,1.9 0 0 0 -1.90039,1.900391 1.9,1.9 0 0 0 1.90039,1.90039 h 22.353516 c 1.661369,0 3.263769,-0.454462 4.417969,-1.576172 1.154199,-1.121709 1.669922,-2.753551 1.669922,-4.49414 V 13.438425 c 0,-1.619248 -0.531037,-3.18872 -1.63086,-4.3300781 C 41.629669,7.9669884 40.017005,7.3466281 38.272461,7.3466281 Z M 36.116211,35.457956 a 1.9,1.9 0 0 0 -0.431641,0.04688 1.9,1.9 0 0 0 -1.433593,2.273438 l 1.644531,7.269531 a 1.9,1.9 0 0 0 2.273437,1.435547 1.9,1.9 0 0 0 1.433594,-2.273438 l -1.644531,-7.269536 a 1.9,1.9 0 0 0 -1.841797,-1.482422 z m -24.445313,0.197266 a 1.9,1.9 0 0 0 -1.7910154,1.509765 l -1.484375,7.074219 a 1.9,1.9 0 0 0 1.46875,2.25 1.9,1.9 0 0 0 2.2500004,-1.46875 l 1.484375,-7.074219 a 1.9,1.9 0 0 0 -1.46875,-2.25 1.9,1.9 0 0 0 -0.34375,-0.04102 1.9,1.9 0 0 0 -0.115235,0 z m 12.332032,0.175781 a 1.9,1.9 0 0 0 -1.900391,1.900391 v 2.115234 a 1.9,1.9 0 0 0 1.900391,1.900391 1.9,1.9 0 0 0 1.898437,-1.900391 V 37.731394 A 1.9,1.9 0 0 0 24.00293,35.831003 Z" fill="#008055"/>
</svg>
