<svg xmlns="http://www.w3.org/2000/svg" width="48" height="48">
	<path d="M 4.9929687,2.8838785 C 4.1813749,2.8992625 3.3027368,3.1239995 2.5847656,3.7549722 A 1.80018,1.80018 0 0 0 2.4636718,3.8702066 C 1.7137604,4.663439 1.3898029,5.8722321 1.5437499,6.8194253 1.697697,7.7666186 2.127014,8.4802029 2.5710937,9.1241128 3.4592531,10.411933 4.5522427,11.540893 5.0105468,12.305754 a 1.80018,1.80018 0 0 0 0.1308594,0.189453 c 1.1300816,1.432508 1.7754787,4.179647 3.2148437,6.597656 a 1.80018,1.80018 0 0 0 0.070313,0.111328 c 0.4762619,0.680533 0.6007441,1.170443 0.578125,1.375 0,0 0,0.002 0,0.002 -0.5363463,2.677025 -0.841233,5.224335 -0.6386719,7.525391 0.2066072,2.34702 0.9850084,4.566068 2.785156,6.015625 A 1.80018,1.80018 0 0 0 13.2,34.268644 c 0.876455,-0.520478 1.171594,-1.104142 1.521484,-1.623046 0.274611,-0.407262 0.493937,-0.724471 0.699219,-1.003907 1.032677,1.60176 1.917543,2.782589 3.015625,3.998047 a 1.8,1.8 0 0 0 2.542969,0.128906 1.8,1.8 0 0 0 0.128906,-2.542968 C 20.03147,32.033849 19.304807,31.100404 18.260547,29.448332 a 1.80018,1.80018 0 0 0 -0.04688,-0.07031 c -0.673956,-0.962573 -1.70071,-1.787891 -2.941406,-1.716797 -1.240697,0.07109 -1.94029,0.820606 -2.419922,1.392579 -0.202258,0.241197 -0.310166,0.434427 -0.470703,0.666015 -0.198769,-0.540582 -0.360748,-1.146541 -0.429688,-1.929687 -0.156585,-1.77878 0.08762,-4.103658 0.605469,-6.648438 a 1.80018,1.80018 0 0 0 0.02344,-0.15625 c 0.172002,-1.526489 -0.477775,-2.806457 -1.205078,-3.845703 l 0.07227,0.111328 C 10.49736,15.653994 9.8689115,12.728311 8.0027343,10.327238 7.1835429,9.013926 6.1126719,7.9154486 5.5359375,7.0791909 5.3253,6.7737694 5.2870701,6.6394447 5.2273437,6.4913003 c 0.043794,0.00351 -0.011459,-0.00303 0.052734,0.00586 0.3877805,0.053729 1.018416,0.2650353 1.6679687,0.5722656 1.2991054,0.6144609 2.4736441,1.4686552 3.4707036,1.9648438 a 1.80018,1.80018 0 0 0 0.0332,0.015625 c 1.443705,0.6832125 2.604607,0.4603547 3.576172,0.5488281 0.970989,0.088421 1.940053,0.2840026 3.480469,1.4238282 0,0 0.002,0.0019 0.002,0.0019 2.531592,1.986695 4.768372,3.329198 7.1875,6.515625 2.06233,2.8702 3.522019,5.649682 6.857422,11.566406 a 1.80018,1.80018 0 0 0 0.06836,0.111328 c 0.742034,1.116319 1.874309,2.037483 3.285157,2.554688 1.365439,0.500587 2.888152,1.488872 4.474609,2.964843 -0.06278,-0.002 -0.09768,0.0021 -0.160156,0 a 1.80018,1.80018 0 0 0 -0.0332,0 c -0.736329,-0.01073 -1.341668,0.02196 -1.970704,0.208985 -0.629035,0.187027 -1.530541,0.713241 -1.785156,1.714843 -0.254615,1.001603 0.170491,1.714987 0.513672,2.191407 0.338291,0.469631 0.734369,0.842117 1.199219,1.232422 2.245396,1.954311 4.659355,3.484619 6.554687,4.734375 a 1.8,1.8 0 0 0 2.494141,-0.511719 1.8,1.8 0 0 0 -0.511719,-2.494141 c -1.517845,-1.000845 -3.218569,-2.22321 -4.84375,-3.484375 0.482025,0.0018 0.971071,0.04136 1.425782,-0.0059 0.504229,-0.05236 0.971316,-0.02004 1.714843,-0.5625 0.371764,-0.271229 0.832881,-0.896349 0.865235,-1.580078 0.03231,-0.682906 -0.24834,-1.153663 -0.480469,-1.460938 -2.820818,-3.840204 -5.890885,-5.475416 -8.216797,-6.328125 a 1.80018,1.80018 0 0 0 -0.002,0 C 35.414499,28.123066 34.973408,27.738711 34.635547,27.235441 31.360809,21.423288 29.8332,18.508445 27.608203,15.415129 a 1.80018,1.80018 0 0 0 -0.02734,-0.03516 C 24.781361,11.685514 22.029865,10.000548 19.694141,8.1631753 a 1.80018,1.80018 0 0 0 -0.04102,-0.03125 C 17.616003,6.6237471 15.748713,6.1395863 14.35625,6.0127847 12.966068,5.8861908 12.239724,5.91063 11.994922,5.7959878 11.753728,5.671704 10.142738,4.598611 8.4871093,3.8155191 7.6528233,3.420912 6.7621379,3.0676341 5.7742187,2.9307535 5.5272389,2.8965333 5.2635,2.8787506 4.9929687,2.8838785 Z m 8.5917973,8.2578125 a 1.8,1.8 0 0 0 -1.689453,1.115234 1.8,1.8 0 0 0 0.980468,2.34961 c 0.720774,0.296094 0.752946,0.235335 0.869141,0.80664 a 1.8,1.8 0 0 0 2.121094,1.404297 1.8,1.8 0 0 0 1.40625,-2.123047 C 16.904281,12.88513 15.412168,11.755962 14.244922,11.276457 a 1.8,1.8 0 0 0 -0.660156,-0.134766 z" fill="#008055"/>
</svg>
