<svg xmlns="http://www.w3.org/2000/svg" width="48" height="48">
	<path d="M 24.78914,2.0180754 C 15.892446,1.7033112 7.3750783,6.8499027 3.7442188,15.422373 -0.72453202,25.973104 3.6841688,38.23131 13.849687,43.518076 c 10.16552,5.286764 22.730876,1.85763 28.802735,-7.859375 a 1.9,1.9 0 0 0 0.05664,-1.917969 1.9,1.9 0 0 0 -0.820312,-0.845703 c -3.058248,-1.611891 -6.556784,-2.389804 -10.173828,-2.523438 -3.617044,-0.133633 -7.352248,0.376658 -10.878906,1.341797 a 1.9,1.9 0 0 0 -1.330079,2.333985 1.9,1.9 0 0 0 2.333985,1.332031 c 5.55963,-1.521502 11.645618,-1.66662 16.328125,0.02148 C 32.801444,42.091226 23.392522,44.1958 15.603594,40.145025 7.1659106,35.756857 3.5350228,25.662215 7.2442188,16.904794 10.953414,8.1473735 20.731359,3.7316564 29.753984,6.7387785 38.77661,9.7459003 43.94851,19.145806 41.662187,28.377451 a 1.9,1.9 0 0 0 1.388672,2.298828 1.9,1.9 0 0 0 2.298828,-1.386719 C 47.759881,19.557752 43.253398,9.6054843 34.806719,4.8422941 33.60005,4.1618375 32.311983,3.5881261 30.953203,3.1352628 28.915032,2.4559673 26.842224,2.0907132 24.78914,2.0180754 Z M 13.058672,12.916513 a 1.8,1.8 0 0 0 -1.800782,1.798828 1.8,1.8 0 0 0 1.800782,1.800782 h 1.929687 v 17.691406 a 1.8,1.8 0 0 0 1.798828,1.800781 1.8,1.8 0 0 0 1.800782,-1.800781 V 19.588388 l 8.117187,9.490235 a 1.8,1.8 0 0 0 2.53711,0.197265 1.8,1.8 0 0 0 0.197265,-2.537109 L 18.156328,13.545419 a 1.80018,1.80018 0 0 0 -0.21875,-0.214843 1.8,1.8 0 0 0 -0.002,-0.002 1.8,1.8 0 0 0 -0.02149,-0.01758 1.80018,1.80018 0 0 0 -0.158203,-0.113281 1.8,1.8 0 0 0 -0.0078,-0.0039 1.80018,1.80018 0 0 0 -0.292969,-0.150391 1.8,1.8 0 0 0 -0.0059,-0.002 1.80018,1.80018 0 0 0 -0.101563,-0.03516 1.8,1.8 0 0 0 -0.0293,-0.0098 1.80018,1.80018 0 0 0 -0.1875,-0.04688 1.8,1.8 0 0 0 -0.0078,-0.002 1.80018,1.80018 0 0 0 -0.103516,-0.01563 1.8,1.8 0 0 0 -0.01367,-0.002 1.80018,1.80018 0 0 0 -0.09961,-0.0098 1.8,1.8 0 0 0 -0.03125,-0.002 1.80018,1.80018 0 0 0 -0.08789,-0.002 z m 18.693359,0 a 1.8,1.8 0 0 0 -1.800781,1.800781 v 13.132813 a 1.8,1.8 0 0 0 1.800781,1.800781 1.8,1.8 0 0 0 1.798828,-1.800781 V 14.717294 a 1.8,1.8 0 0 0 -1.798828,-1.800781 z" fill="#008055"/>
</svg>
