<svg xmlns="http://www.w3.org/2000/svg" width="48" height="48">
	<path d="m 33.196228,2.2265623 c -0.762267,0 -1.57103,0.160132 -2.253906,0.710938 -0.682877,0.550805 -1.064453,1.483488 -1.064453,2.371094 v 2.134765 a 1.5,1.5 0 0 0 1.5,1.5 1.5,1.5 0 0 0 1.5,-1.5 v -2.134765 c 0,-0.04501 -0.0028,-0.02909 -0.0039,-0.04688 0,0 0.002,0 0.002,0 0.05878,-0.01553 0.163031,-0.03516 0.320313,-0.03516 h 2.505859 c 0.05837,0 0.06475,0.0021 0.08203,0.0039 0.0031,0.01786 0.0059,0.02822 0.0059,0.07813 v 2.777343 c 0,0.04944 -0.0022,0.04131 -0.0039,0.06836 -0.02941,0.0026 -0.0279,0.0059 -0.08398,0.0059 h -1.517578 a 1.5,1.5 0 0 0 -1.5,1.5 1.5,1.5 0 0 0 1.5,1.4999997 h 1.517578 c 0.763119,0 1.598197,-0.214907 2.216797,-0.814453 0.6186,-0.5995467 0.871094,-1.4592767 0.871094,-2.2597657 v -2.777343 c 0,-0.776245 -0.262808,-1.584514 -0.837891,-2.179688 -0.575082,-0.595174 -1.418937,-0.902344 -2.25,-0.902344 z m -8.294922,1.589844 c -5.86937,0.11511 -11.391289,2.919505 -14.121094,7.5156247 a 1.9,1.9 0 0 0 0.66211,2.603516 1.9,1.9 0 0 0 2.603515,-0.66211 C 16.2001,9.6463463 21.641231,7.1003973 27.002869,7.7089843 a 1.9,1.9 0 0 0 2.101562,-1.673828 1.9,1.9 0 0 0 -1.673828,-2.101562 c -0.845551,-0.095977 -1.690816,-0.133632 -2.529297,-0.117188 z m 15.242187,6.078125 a 1.9,1.9 0 0 0 -1.255859,0.4453127 1.9,1.9 0 0 0 -0.230469,2.677734 c 3.46792,4.120434 4.112269,11.483624 1.048828,17.466797 a 1.9,1.9 0 0 0 0.826172,2.55664 1.9,1.9 0 0 0 2.556641,-0.824218 C 46.806725,24.955369 46.256468,16.144078 41.565369,10.570312 A 1.9,1.9 0 0 0 40.143493,9.8945313 Z M 8.3759148,14.902344 c -1.468929,0 -2.919479,0.315518 -4.083984,1.253906 -1.164505,0.938388 -1.820312,2.490185 -1.820312,4.128906 v 7.169922 a 1.9,1.9 0 0 0 1.90039,1.90039 1.9,1.9 0 0 0 1.898438,-1.90039 v -7.169922 c 0,-0.784479 0.160834,-0.974113 0.40625,-1.171875 0.245415,-0.197762 0.796888,-0.412109 1.699218,-0.412109 h 5.5175782 c 0.692747,0 1.001514,0.181822 1.212891,0.40039 0.211377,0.218569 0.382813,0.56652 0.382813,1.183594 v 6.107422 c 0,0.81361 -0.181663,1.088885 -0.335938,1.238281 -0.154275,0.149396 -0.473041,0.328125 -1.259766,0.328125 H 7.9520868 a 1.9,1.9 0 0 0 -1.90039,1.900391 1.9,1.9 0 0 0 1.90039,1.90039 h 5.9414062 c 1.439156,0 2.867662,-0.394583 3.904297,-1.398437 1.036636,-1.003854 1.490235,-2.46236 1.490235,-3.96875 v -6.107422 c 0,-1.414526 -0.469102,-2.808737 -1.451172,-3.824219 -0.982071,-1.015481 -2.420376,-1.558593 -3.94336,-1.558593 z M 12.125915,32.65039 a 1.9,1.9 0 0 0 -0.966796,0.265625 1.9,1.9 0 0 0 -0.664063,2.605469 c 3.119774,5.252704 9.887924,8.166135 16.652344,7.398438 a 1.9,1.9 0 0 0 1.673828,-2.101563 1.9,1.9 0 0 0 -2.101563,-1.673828 C 21.357965,39.753033 15.9169,37.207174 13.762634,33.580078 A 1.9,1.9 0 0 0 12.125915,32.65039 Z m 22.052735,0.494141 c -1.091279,0 -2.200131,0.231915 -3.109375,0.964844 -0.909245,0.732929 -1.419922,1.958874 -1.419922,3.197265 v 4.498047 a 1.699995,1.699995 0 0 0 1.699219,1.699219 1.699995,1.699995 0 0 0 1.701171,-1.699219 V 37.30664 c 0,-0.474308 0.06539,-0.478732 0.152344,-0.548828 0.08696,-0.0701 0.392412,-0.21289 0.976563,-0.21289 h 3.898437 c 0.411232,0 0.522706,0.09428 0.59961,0.173828 0.0769,0.07955 0.169922,0.226577 0.169922,0.58789 v 4.316407 c 0,0.51009 -0.100923,0.593925 -0.126954,0.61914 -0.02603,0.02522 -0.148162,0.13086 -0.642578,0.13086 h -3.550781 a 1.699995,1.699995 0 0 0 -1.701172,1.701171 1.699995,1.699995 0 0 0 1.701172,1.699219 h 3.550781 c 1.078325,0 2.192398,-0.298006 3.007813,-1.08789 0.815415,-0.789885 1.162109,-1.93279 1.162109,-3.0625 V 37.30664 c 0,-1.074587 -0.358663,-2.158493 -1.125,-2.951172 -0.766337,-0.792678 -1.890593,-1.210937 -3.044922,-1.210937 z" fill="#008055"/>
</svg>
