<svg xmlns="http://www.w3.org/2000/svg" width="48" height="48">
	<path d="m 17.894745,4.9939981 c -0.209803,-0.015937 -0.421233,-0.00828 -0.630859,0.025391 -1.677523,0.2694599 -2.936087,2.0619625 -2.613281,3.9511719 a 1.60016,1.60016 0 0 0 0.0039,0.021484 c 0.52561,2.836777 1.806511,5.727671 3.550781,8.521484 -0.618468,5.370676 -2.498169,10.71839 -4.78125,15.191407 -2.505442,1.329797 -4.7683603,2.848076 -6.6308597,4.527343 a 1.60016,1.60016 0 0 0 -0.013672,0.01172 c -1.455833,1.341732 -1.4044254,3.584534 -0.2597657,4.783203 0.5723299,0.599335 1.4100901,1.002238 2.3320309,0.986328 0.921942,-0.01591 1.8469685,-0.470957 2.5449225,-1.21289 a 1.60016,1.60016 0 0 0 0.05274,-0.05859 c 1.536545,-1.803334 3.062411,-4.039576 4.451172,-6.568359 4.684609,-2.277574 10.287289,-3.969472 15.765624,-4.570313 2.528915,1.494964 5.180703,2.69007 7.888672,3.365235 a 1.60016,1.60016 0 0 0 0.02734,0.0059 c 0.984672,0.227408 2.014385,0.0088 2.742188,-0.521484 0.727802,-0.530304 1.170508,-1.303376 1.316406,-2.13086 0.145898,-0.827483 -0.01789,-1.760192 -0.587891,-2.519531 -0.569999,-0.759339 -1.512496,-1.254367 -2.566406,-1.384766 -2.596492,-0.333035 -5.336457,-0.333777 -8.103516,-0.11914 -2.365497,-1.501896 -4.624316,-3.314768 -6.617187,-5.337891 -1.631467,-1.656232 -3.013797,-3.450348 -4.226563,-5.263672 0.212785,-2.864082 0.138028,-5.739092 -0.417968,-8.5253905 v -0.00195 C 20.76592,6.3849626 19.363367,5.1055602 17.894745,4.9939981 Z M 9.6740417,5.5291544 c -1.415525,0 -2.800924,0.4654063 -3.8105469,1.4375 C 4.8538719,7.9387481 4.3088073,9.3668075 4.3088073,10.890482 v 22.794923 a 1.8,1.8 0 0 0 1.8007813,1.800781 1.8,1.8 0 0 0 1.7988281,-1.800781 V 10.890482 c 0,-0.733625 0.199953,-1.0863163 0.453125,-1.3300776 0.253172,-0.2437613 0.649145,-0.4296875 1.3125,-0.4296875 H 11.459198 A 1.8,1.8 0 0 0 13.259979,7.3299357 1.8,1.8 0 0 0 11.459198,5.5291544 Z m 14.6972663,0 a 1.8,1.8 0 0 0 -1.798829,1.8007813 1.8,1.8 0 0 0 1.798829,1.8007812 h 13.328125 c 0.860313,0 1.188729,0.195265 1.373046,0.3847656 0.184318,0.1895007 0.375,0.5515645 0.375,1.3749995 v 13.259766 a 1.8,1.8 0 0 0 1.798829,1.800781 1.8,1.8 0 0 0 1.800781,-1.800781 V 10.890482 c 0,-1.4442341 -0.396816,-2.8610032 -1.392578,-3.8847651 C 40.658749,5.981955 39.213159,5.5291544 37.699433,5.5291544 Z M 17.78537,8.1463419 c 0.03767,0.037903 0.106143,0.1897708 0.197266,0.6484375 a 1.60016,1.60016 0 0 0 0,0.00195 c 0.02264,0.1133954 0.01814,0.2355992 0.03906,0.3496094 -0.0568,-0.239019 -0.175206,-0.4960066 -0.21875,-0.7304688 -3.52e-4,-0.0019 -0.0016,-0.00396 -0.002,-0.00586 -0.04589,-0.3281472 0.02712,-0.2395305 -0.0293,-0.2304688 -0.03085,0.00496 -0.024,-0.071106 0.01367,-0.033203 z m 3.134766,13.1445311 c 0.812805,0.994568 1.645565,1.981226 2.564453,2.914063 1.360619,1.381273 2.854544,2.643268 4.402344,3.830078 -3.531554,0.614861 -6.90685,1.585543 -10.140625,2.892578 1.325532,-3.054435 2.511431,-6.21763 3.173828,-9.636719 z m 18.511719,9.261719 c 0.213053,0.02245 0.444036,0.01206 0.654296,0.03906 a 1.60016,1.60016 0 0 0 0.0059,0.002 c 0.381375,0.04719 0.404218,0.133356 0.402344,0.130859 -0.0019,-0.0025 0.0046,-0.005 -0.0039,0.04297 -0.0085,0.04799 -0.04446,0.09643 -0.04883,0.09961 -0.0042,0.0031 0.02086,0.02285 -0.134765,-0.01172 -0.290375,-0.07273 -0.583613,-0.216455 -0.875,-0.302734 z m 1.685546,4.992187 a 1.8,1.8 0 0 0 -1.732422,1.751954 c -0.001,0.03995 -0.155358,0.58515 -0.472656,0.9375 -0.317297,0.352349 -0.669312,0.566406 -1.21289,0.566406 H 16.328339 a 1.8,1.8 0 0 0 -1.798828,1.800781 1.8,1.8 0 0 0 1.798828,1.798828 h 21.371094 c 1.646341,0 3.019624,-0.790806 3.888672,-1.755859 0.869047,-0.965053 1.363267,-2.049184 1.394531,-3.253906 a 1.8,1.8 0 0 0 -1.751953,-1.845704 1.8,1.8 0 0 0 -0.113282,0 z M 9.1447447,39.470561 c -0.035049,0.04187 -0.068485,0.11303 -0.103516,0.154297 -0.13473,0.132349 -0.162071,0.136668 -0.177734,0.136718 -0.0481,0.0071 -0.140211,0.04767 0.080078,-0.158203 0.05399,-0.04863 0.146237,-0.0844 0.201172,-0.132812 z" fill="#008055"/>
</svg>
