<svg xmlns="http://www.w3.org/2000/svg" width="48" height="48">
	<path d="m 17.230017,0.96597743 c -0.406701,-0.013495 -0.818813,0.014279 -1.234375,0.091797 -1.639598,0.3058473 -3.120857,1.446928 -4.201172,3.1835937 -0.01674,0.018752 0.0022,0.011244 -0.0098,0.023438 a 1.70017,1.70017 0 0 0 -0.0039,-0.00195 c -0.0019,-0.00108 -0.004,-8.753e-4 -0.0059,-0.00195 -0.0097,0.015655 -0.0236,0.02331 -0.0332,0.039062 l 0.02734,-0.041016 C 9.8878146,3.1963854 7.7819681,3.047614 6.0796267,3.8644149 4.3738379,4.68287 3.1774941,6.3070548 2.5425173,8.2804308 A 1.7,1.7 0 0 0 3.6401735,10.421056 1.7,1.7 0 0 0 5.7788454,9.3233998 c 0.4223332,-1.312524 1.1070656,-2.075737 1.7714844,-2.394532 0.6644188,-0.318795 1.4137524,-0.354855 2.5527342,0.291016 l -0.0625,-0.03711 c 0.713896,0.446559 1.679807,0.755633 2.611328,0.492188 0.931521,-0.263445 1.492272,-0.897284 1.923828,-1.498047 a 1.70017,1.70017 0 0 0 0.07031,-0.107422 c 0.735845,-1.206993 1.35119,-1.552041 1.972659,-1.6679685 0.621469,-0.1159275 1.461652,0.050077 2.490234,0.5957031 A 1.7,1.7 0 0 0 21.407751,4.2921493 1.7,1.7 0 0 0 20.702673,1.9933212 C 19.622667,1.4204159 18.450121,1.0064631 17.230017,0.96597743 Z M 37.526892,6.0401958 c -1.99342,-0.0077 -3.950043,0.649587 -5.751953,1.789063 a 1.80018,1.80018 0 0 0 -0.02539,0.01758 c -0.308077,0.202482 -0.446854,0.200688 -0.927734,-0.15625 a 1.80018,1.80018 0 0 0 -0.05078,-0.03516 c -1.751427,-1.208824 -3.862339,-1.738438 -6.058594,-1.519531 -2.196255,0.218904 -4.473843,1.116486 -6.912109,2.597656 a 1.8,1.8 0 0 0 -0.603516,2.4726562 1.8,1.8 0 0 0 2.472656,0.603516 c 2.132343,-1.295331 3.942916,-1.9465282 5.400391,-2.0917972 1.457475,-0.14527 2.565287,0.147415 3.65625,0.9003902 l -0.04883,-0.03711 c 1.377499,1.022462 3.451065,1.323555 5.048828,0.273438 l -0.02539,0.01758 c 1.548684,-0.9793432 2.937286,-1.3443602 4.322266,-1.2050782 1.38498,0.139279 2.865764,0.8041582 4.511718,2.2871092 a 1.8,1.8 0 0 0 2.542969,-0.132813 1.8,1.8 0 0 0 -0.132812,-2.5410152 c -2.059396,-1.855449 -4.274735,-2.965243 -6.5625,-3.195313 -0.285971,-0.02876 -0.570695,-0.04382 -0.855469,-0.04492 z M 10.437048,12.641759 A 1.8997613,1.9002387 38.000278 0 0 9.0093142,13.303868 C 2.1287586,21.325155 2.5109521,33.320648 9.8882204,40.8859 17.265489,48.45115 29.240476,49.123286 37.417517,42.430821 42.528168,38.24803 45.117892,32.04103 44.890173,25.839024 44.753542,22.117821 43.602273,18.399913 41.374548,15.122228 a 1.8997613,1.9002387 38.000278 0 0 -2.638672,-0.503907 1.8997613,1.9002387 38.000278 0 0 -0.505859,2.638672 c 4.853422,7.140912 3.459757,16.768378 -3.21875,22.234375 -6.678506,5.465996 -16.37576,4.922337 -22.402344,-1.257812 C 6.5823392,32.053405 6.2719286,22.33045 11.892126,15.778478 a 1.8997613,1.9002387 38.000278 0 0 -0.205078,-2.679688 1.8997613,1.9002387 38.000278 0 0 -1.25,-0.457031 z m 7.070313,6.996094 c -0.780858,0 -1.567656,0.235656 -2.205078,0.773437 -0.637423,0.537781 -1.064453,1.415449 -1.064453,2.34375 v 10.308594 c 0,0.989927 0.508151,1.869763 1.148437,2.378906 0.640286,0.509143 1.374484,0.740234 2.121094,0.740234 a 1.4,1.4 0 0 0 1.40039,-1.40039 1.4,1.4 0 0 0 -1.40039,-1.400391 c -0.09536,0 -0.294325,-0.0636 -0.378907,-0.130859 -0.08458,-0.06726 -0.0918,-0.04683 -0.0918,-0.1875 v -3.830078 h 6.318359 v 4.148437 h -2.302734 a 1.4,1.4 0 0 0 -1.400391,1.400391 1.4,1.4 0 0 0 1.400391,1.40039 h 10.882812 c 1.727319,0 3.130859,-1.515077 3.130859,-3.11914 V 22.75504 c 0,-0.948748 -0.400003,-1.856389 -1.041015,-2.396484 -0.641012,-0.540096 -1.402572,-0.720703 -2.089844,-0.720703 z m 0,2.798828 h 5.847656 v 3.996093 H 17.036658 V 22.75504 c 0,-0.179899 0.0179,-0.160859 0.07031,-0.205078 0.05241,-0.04422 0.199148,-0.113281 0.400391,-0.113281 z m 8.646484,0 h 5.78125 c 0.172498,0 0.277639,0.05647 0.287109,0.06445 0.0095,0.008 0.04492,-0.04125 0.04492,0.253906 v 3.677734 h -6.113281 z m 0,6.796875 h 6.113281 v 3.830078 c 0,0.324937 0.08051,0.318359 -0.332031,0.318359 h -5.78125 z" fill="#008055"/>
</svg>
