<svg xmlns="http://www.w3.org/2000/svg" width="48" height="48">
	<path d="m 17.22827,0.96594625 c -0.406701,-0.013312 -0.818813,0.014279 -1.234375,0.0917969 -1.640369,0.3059909 -3.120732,1.4455369 -4.201172,3.1835939 -0.01562,0.01746 0.0016,0.0098 -0.0098,0.02148 a 1.70017,1.70017 0 0 0 -0.0039,-0.002 c -0.0013,-7.54e-4 -0.0026,-0.0012 -0.0039,-0.002 -0.0097,0.01567 -0.02359,0.02329 -0.0332,0.03906 l 0.02734,-0.04101 C 9.8875848,3.193519 7.7807398,3.045381 6.0778793,3.862431 4.3720906,4.680886 3.1776999,6.307023 2.542723,8.280399 A 1.7,1.7 0 0 0 3.6403793,10.419071 1.7,1.7 0 0 0 5.7790512,9.321415 C 6.2013844,8.008891 6.8841638,7.247632 7.5485828,6.928837 8.2130008,6.610042 8.9642878,6.573982 10.10327,7.219853 l -0.06445,-0.03906 c 0.713896,0.446557 1.679807,0.755633 2.611328,0.492187 0.931521,-0.263445 1.492272,-0.897284 1.923828,-1.498046 a 1.70017,1.70017 0 0 0 0.07031,-0.105469 c 0.735842,-1.206994 1.351187,-1.553994 1.972656,-1.669922 0.621469,-0.115928 1.463606,0.05008 2.492187,0.595703 A 1.7,1.7 0 0 0 21.406005,4.290165 1.7,1.7 0 0 0 20.700926,1.991337 C 19.62092,1.418431 18.448374,1.0058826 17.22827,0.96594625 Z M 37.527098,6.038212 c -1.99342,-0.0077 -3.950043,0.649587 -5.751953,1.789062 a 1.80018,1.80018 0 0 0 -0.02734,0.01758 c -0.308077,0.202481 -0.444901,0.200687 -0.925781,-0.15625 a 1.80018,1.80018 0 0 0 -0.05078,-0.03516 C 29.019817,6.44462 26.906952,5.915008 24.710697,6.133913 22.514442,6.352818 20.238808,7.2504 17.800541,8.731569 a 1.8,1.8 0 0 0 -0.603516,2.472656 1.8,1.8 0 0 0 2.472656,0.605469 c 2.132343,-1.29533 3.940963,-1.946527 5.398438,-2.091797 1.457475,-0.145269 2.56724,0.145462 3.658203,0.898438 l -0.05078,-0.03516 c 1.377499,1.022462 3.453019,1.321602 5.050781,0.271484 l -0.02734,0.01758 c 1.548684,-0.979342 2.937286,-1.344359 4.322266,-1.205078 1.38498,0.139281 2.867717,0.804158 4.513672,2.287109 A 1.8,1.8 0 0 0 45.075926,11.821415 1.8,1.8 0 0 0 44.943114,9.278446 C 42.883718,7.422998 40.670332,6.313203 38.382567,6.083134 38.096596,6.054374 37.811873,6.039314 37.527098,6.038214 Z m -27.091797,6.601562 a 1.8997613,1.9002387 38.000278 0 0 -1.4277342,0.664063 c -6.8805556,8.021286 -6.4964089,20.016779 0.880859,27.582031 7.3772692,7.565251 19.3522562,8.237387 27.5292972,1.544922 5.11065,-4.182791 7.698422,-10.391745 7.470703,-16.59375 -0.136632,-3.721203 -1.287899,-7.439112 -3.515625,-10.716797 a 1.8997613,1.9002387 38.000278 0 0 -2.638672,-0.503906 1.8997613,1.9002387 38.000278 0 0 -0.503906,2.640625 c 4.853423,7.14091 3.457804,16.768379 -3.220703,22.234375 C 28.331013,44.957334 18.635714,44.411722 12.609129,38.231571 6.582545,32.051422 6.2701811,22.328467 11.890379,15.776493 a 1.8997613,1.9002387 38.000278 0 0 -0.205078,-2.677734 1.8997613,1.9002387 38.000278 0 0 -1.25,-0.458985 z m 9.466797,6.976563 c -0.838071,0 -1.933319,0.427381 -2.277343,1.46875 -0.344025,1.041369 0.175002,1.936211 0.777343,2.535156 l 4.105469,4.15625 a 1.50015,1.50015 0 0 0 0.08398,0.07813 c 0.06292,0.05467 0.0742,0.07168 0.09375,0.0957 -0.01576,0.01884 -0.01457,0.02067 -0.05859,0.06445 a 1.50015,1.50015 0 0 0 -0.01172,0.0098 l -3.929688,3.990234 c -0.66905,0.643793 -1.332596,1.251402 -1.183593,2.498047 0.0745,0.623323 0.568821,1.244515 1.050781,1.498047 0.481959,0.253533 0.920121,0.296875 1.357422,0.296875 h 9.982422 a 1.5,1.5 0 0 0 1.5,-1.5 1.5,1.5 0 0 0 -1.5,-1.5 h -8.269532 l 3.119141,-3.166016 0.0039,-0.0059 c 0.601093,-0.6001 1.018916,-1.446157 0.972657,-2.333984 -0.04639,-0.890256 -0.532707,-1.665715 -1.160157,-2.210938 l 0.08399,0.07813 -3.015625,-3.052734 h 8.265625 a 1.5,1.5 0 0 0 1.5,-1.5 1.5,1.5 0 0 0 -1.5,-1.5 z" fill="#008055"/>
</svg>
