<svg xmlns="http://www.w3.org/2000/svg" width="48" height="48">
	<path d="m 17.229732,0.96500063 c -0.406702,-0.013495 -0.818813,0.014279 -1.234375,0.091797 -1.641174,0.3061411 -3.122556,1.4479929 -4.203125,3.1875 -0.01321,0.014545 0.0021,0.00943 -0.0078,0.019531 a 1.70017,1.70017 0 0 0 -0.0039,-0.00195 c -0.0013,-7.535e-4 -0.0026,-0.0012 -0.0039,-0.00195 -0.0097,0.015662 -0.02359,0.023303 -0.0332,0.039062 l 0.02734,-0.041016 C 9.8890453,3.1945224 7.7822039,3.0463871 6.0793414,3.8634381 4.3735527,4.6818931 3.1772088,6.3060777 2.542232,8.2794537 a 1.7,1.7 0 0 0 1.0976563,2.1386723 1.7,1.7 0 0 0 2.140625,-1.0957033 c 0.4223332,-1.312524 1.1051125,-2.075737 1.7695312,-2.394532 0.6644188,-0.318793 1.4137524,-0.354854 2.5527345,0.291016 l -0.0625,-0.03711 c 0.713896,0.446557 1.679807,0.755632 2.611328,0.492187 0.93152,-0.263445 1.492272,-0.897284 1.923828,-1.498047 a 1.70017,1.70017 0 0 0 0.07031,-0.107421 c 0.735843,-1.206994 1.351188,-1.5520418 1.972656,-1.6679692 0.62147,-0.1159277 1.461653,0.050077 2.490235,0.5957032 A 1.7,1.7 0 0 0 21.407466,4.2911725 1.7,1.7 0 0 0 20.702388,1.9923443 C 19.622382,1.4194391 18.449836,1.0054863 17.229732,0.96500063 Z M 37.526607,6.0392197 c -1.993047,-0.0077 -3.94809,0.649586 -5.75,1.789062 a 1.80018,1.80018 0 0 0 -0.02734,0.01563 c -0.30808,0.202483 -0.446851,0.202643 -0.927734,-0.154297 A 1.80018,1.80018 0 0 0 30.7727,7.6544537 c -1.751427,-1.208824 -3.864292,-1.738437 -6.060547,-1.519531 -2.196253,0.218905 -4.471889,1.116486 -6.910156,2.597656 a 1.8,1.8 0 0 0 -0.605468,2.4726563 1.8,1.8 0 0 0 2.472656,0.603516 c 2.132343,-1.29533 3.942915,-1.9465273 5.40039,-2.0917973 1.457475,-0.14527 2.567241,0.147415 3.658204,0.9003913 l -0.05078,-0.03711 c 1.377498,1.02246 3.451068,1.323555 5.048828,0.273438 l -0.02539,0.01563 c 1.548684,-0.9793433 2.937286,-1.3424063 4.322265,-1.2031253 1.38498,0.13928 2.865765,0.8041583 4.511719,2.2871093 A 1.8,1.8 0 0 0 45.07739,11.820475 1.8,1.8 0 0 0 44.944577,9.2794587 c -2.059395,-1.855449 -4.274734,-2.965242 -6.5625,-3.195313 -0.28597,-0.02876 -0.570747,-0.04382 -0.855468,-0.04492 z M 10.43481,12.640782 a 1.8997613,1.9002387 38.000278 0 0 -1.4257811,0.662109 c -6.8805556,8.021287 -6.4983621,20.018733 0.8789063,27.583985 7.3772678,7.565251 19.3522558,8.237387 27.5292968,1.544922 5.110651,-4.182791 7.698422,-10.391745 7.470703,-16.59375 -0.136631,-3.721203 -1.285946,-7.441065 -3.513672,-10.71875 a 1.8997613,1.9002387 38.000278 0 0 -2.638672,-0.501953 1.8997613,1.9002387 38.000278 0 0 -0.505859,2.638672 c 4.853422,7.14091 3.459757,16.768379 -3.21875,22.234374 C 28.332475,44.956388 18.635222,44.41273 12.608638,38.232579 6.582054,32.052429 6.2716434,22.329475 11.891841,15.777501 A 1.8997613,1.9002387 38.000278 0 0 11.686763,13.097813 1.8997613,1.9002387 38.000278 0 0 10.43481,12.640782 Z m 10.126953,4.417969 c -0.94079,0 -1.869909,0.286167 -2.580078,0.914062 -0.71017,0.627895 -1.128906,1.597385 -1.128906,2.589844 v 15.462891 c 0,1.022281 0.398467,2.047846 1.146484,2.679687 0.748016,0.631841 1.674055,0.835938 2.5625,0.835938 h 8.742187 c 0.954668,0 1.900292,-0.373222 2.525391,-1.050782 0.625099,-0.677558 0.902344,-1.577187 0.902344,-2.464843 V 23.879063 c 0,-0.931629 -0.266705,-1.879621 -0.935547,-2.558593 -0.668842,-0.678973 -1.608287,-0.945313 -2.492188,-0.945313 h -2.574218 a 1.5,1.5 0 0 0 -1.5,1.5 1.5,1.5 0 0 0 1.5,1.5 h 2.574218 c 0.34392,0 0.367386,0.06288 0.355469,0.05078 -0.01192,-0.0121 0.07227,0.04325 0.07227,0.453125 v 12.146485 c 0,0.287043 -0.07419,0.395623 -0.107422,0.43164 -0.03323,0.03602 -0.05275,0.08398 -0.320313,0.08398 h -8.742187 c -0.419565,0 -0.597227,-0.103797 -0.626953,-0.128906 -0.02973,-0.02511 -0.08203,-0.0078 -0.08203,-0.386719 V 20.562657 c 0,-0.245041 0.04375,-0.276867 0.117187,-0.341797 0.07344,-0.06493 0.248016,-0.162109 0.591797,-0.162109 h 8.630859 a 1.5,1.5 0 0 0 1.5,-1.5 1.5,1.5 0 0 0 -1.5,-1.5 z" fill="#008055"/>
</svg>
