<svg xmlns="http://www.w3.org/2000/svg" width="48" height="48">
	<path d="m 17.227832,0.96597706 c -0.406701,-0.013495 -0.818812,0.014279 -1.234375,0.091797 -1.640761,0.3060642 -3.122622,1.4467838 -4.203125,3.1855466 -0.0147,0.01627 0.0029,0.01058 -0.0078,0.02149 a 1.70017,1.70017 0 0 0 -0.002,-0.002 c -0.0019,-0.0011 -0.004,-8.76e-4 -0.0059,-0.002 -0.0097,0.01566 -0.0236,0.02331 -0.0332,0.03906 l 0.02734,-0.04102 C 9.887583,3.1963843 7.7797836,3.0456601 6.0774416,3.8624616 4.3716529,4.6809166 3.1772622,6.3070536 2.5422854,8.2804306 A 1.7,1.7 0 0 0 3.6399416,10.419103 1.7,1.7 0 0 0 5.7786135,9.3214456 C 6.2009467,8.0089216 6.883726,7.2476626 7.5481448,6.9288676 8.212564,6.6100726 8.96385,6.5740126 10.102832,7.2198836 l -0.0625,-0.03711 c 0.713896,0.446557 1.679808,0.75368 2.611328,0.490235 0.931521,-0.263445 1.490319,-0.895331 1.921875,-1.496094 a 1.70017,1.70017 0 0 0 0.07031,-0.107422 c 0.735842,-1.206993 1.351187,-1.553994 1.972656,-1.669922 0.621469,-0.115927 1.463606,0.05203 2.492188,0.597656 A 1.7,1.7 0 0 0 21.40752,4.2921486 1.7,1.7 0 0 0 20.700488,1.9933208 C 19.620482,1.4204157 18.447937,1.0064628 17.227832,0.96597706 Z M 37.52666,6.0401956 c -1.99342,-0.0081 -3.950043,0.647634 -5.751953,1.78711 a 1.80018,1.80018 0 0 0 -0.02734,0.01758 c -0.30808,0.202483 -0.444898,0.202643 -0.925782,-0.154297 a 1.80018,1.80018 0 0 0 -0.05078,-0.03711 c -1.751427,-1.208823 -3.864292,-1.736483 -6.060547,-1.517578 -2.196255,0.218906 -4.471889,1.116487 -6.910156,2.597657 a 1.8,1.8 0 0 0 -0.603516,2.4726564 1.8,1.8 0 0 0 2.472656,0.603515 c 2.132343,-1.295329 3.940963,-1.9465274 5.398438,-2.0917964 1.457475,-0.14527 2.56724,0.145461 3.658203,0.8984374 l -0.05078,-0.03516 c 1.369782,1.016733 3.429341,1.318265 5.023437,0.289062 l 0.02734,-0.01563 c 1.537329,-0.9659324 2.91837,-1.3259324 4.294922,-1.1875004 1.38498,0.139281 2.867718,0.8041584 4.513672,2.2871104 A 1.8,1.8 0 0 0 45.075489,11.821439 1.8,1.8 0 0 0 44.94463,9.2784696 c -2.059396,-1.855447 -4.274735,-2.96329 -6.5625,-3.193359 -0.28597,-0.02876 -0.570694,-0.04377 -0.855469,-0.04492 z M 10.436817,12.641759 a 1.8997613,1.9002387 38.000278 0 0 -1.427735,0.662109 c -6.8805553,8.021286 -6.5003148,20.016781 0.876953,27.582031 7.377268,7.565252 19.352256,8.237388 27.529297,1.544922 5.110651,-4.18279 7.700376,-10.389791 7.472656,-16.591797 -0.136631,-3.721203 -1.287899,-7.439111 -3.515624,-10.716797 a 1.8997613,1.9002387 38.000278 0 0 -2.638672,-0.503906 1.8997613,1.9002387 38.000278 0 0 -0.503907,2.638672 c 4.853423,7.140911 3.459757,16.768378 -3.21875,22.234375 C 28.332528,44.957364 18.633323,44.413705 12.606738,38.233556 6.5801542,32.053406 6.2716971,22.330451 11.891895,15.778477 a 1.8997613,1.9002387 38.000278 0 0 -0.205078,-2.679687 1.8997613,1.9002387 38.000278 0 0 -1.25,-0.457031 z m 12.953125,4.654297 a 1.2,1.2 0 0 0 -0.853516,0.388671 c -0.999339,1.090628 -1.959299,2.909835 -2.519531,5.441407 -0.865137,-0.211192 -1.595961,-0.47614 -2.199219,-0.769531 0.869756,-1.032282 1.888173,-1.803276 2.822266,-2.275391 a 1.2,1.2 0 0 0 0.529296,-1.613281 1.2,1.2 0 0 0 -1.037109,-0.658204 1.2,1.2 0 0 0 -0.576172,0.128907 c -2.856237,1.443619 -6.1875,4.843937 -6.1875,10.015625 0,2.867014 1.035451,5.174182 2.34375,6.84375 1.3083,1.669568 2.857511,2.72677 4.064453,3.277344 a 1.2,1.2 0 0 0 1.589844,-0.59375 1.2,1.2 0 0 0 0.05273,-0.853516 c 0.413296,0.734613 0.844462,1.31524 1.246094,1.710937 a 1.2,1.2 0 0 0 1.697266,-0.01172 1.2,1.2 0 0 0 0.230469,-0.332032 1.2,1.2 0 0 0 0.230468,0.332032 1.2,1.2 0 0 0 1.697266,0.01172 c 0.933951,-0.920151 2.030448,-2.75077 2.652344,-5.585937 0.891959,0.21163 1.639514,0.483888 2.253906,0.792969 -0.99507,1.174728 -2.173404,1.974399 -2.953125,2.330078 a 1.2,1.2 0 0 0 -0.59375,1.589843 1.2,1.2 0 0 0 1.589844,0.59375 c 1.206974,-0.550574 2.756158,-1.609726 4.064453,-3.279296 1.308294,-1.669571 2.34375,-3.974786 2.34375,-6.841797 0,-5.171777 -3.331297,-8.572108 -6.1875,-10.015625 a 1.2,1.2 0 0 0 -0.533203,-0.128906 1.2,1.2 0 0 0 -1.080078,0.658203 1.2,1.2 0 0 0 0.529296,1.613281 c 0.938838,0.474486 1.963362,1.250601 2.835938,2.291016 -0.616332,0.311693 -1.367763,0.585882 -2.265625,0.798828 -0.559269,-2.546393 -1.522327,-4.376017 -2.525387,-5.470704 a 1.2,1.2 0 0 0 -0.904296,-0.388671 1.2,1.2 0 0 0 -0.792969,0.314453 1.2,1.2 0 0 0 -0.361328,0.628906 1.2,1.2 0 0 0 -0.361329,-0.628906 1.2,1.2 0 0 0 -0.841796,-0.314453 z m 1.205078,1.453125 a 1.2,1.2 0 0 0 0.287109,0.55664 c 0.58163,0.634761 1.385433,2.069885 1.896485,4.226563 -0.67686,0.06258 -1.392153,0.103515 -2.167969,0.103515 -0.781586,0 -1.509146,-0.04412 -2.199219,-0.113281 0.511165,-2.151506 1.313735,-3.582945 1.894531,-4.216797 a 1.2,1.2 0 0 0 0.289063,-0.55664 z m 8.142578,5.646484 c 0.455595,1.023451 0.740234,2.203417 0.740234,3.542969 0,1.383394 -0.292875,2.562525 -0.748047,3.572265 -0.904525,-0.492525 -1.968604,-0.873245 -3.183593,-1.144531 0.07377,-0.758372 0.125,-1.552121 0.125,-2.419922 0,-0.854024 -0.0526,-1.641858 -0.126954,-2.40039 1.219295,-0.272066 2.286636,-0.655587 3.19336,-1.150391 z m -16.220703,0.002 c 0.889828,0.47267 1.938134,0.849445 3.130859,1.123047 -0.07598,0.766078 -0.130859,1.562023 -0.130859,2.425781 0,0.877008 0.05176,1.678097 0.126953,2.44336 -1.192895,0.273911 -2.241125,0.651853 -3.13086,1.125 -0.452289,-1.007304 -0.74414,-2.182218 -0.74414,-3.560547 0,-1.345838 0.288666,-2.529874 0.748047,-3.556641 z m 5.507812,1.507813 c 0.816046,0.08269 1.674372,0.130859 2.585938,0.130859 0.902806,0 1.749298,-0.0448 2.552734,-0.121094 0.06292,0.640313 0.107422,1.308082 0.107422,2.03125 0,0.73316 -0.0435,1.407721 -0.107422,2.048828 -0.803439,-0.07629 -1.649923,-0.121093 -2.552734,-0.121093 -0.910801,0 -1.768543,0.04636 -2.583985,0.128906 -0.06444,-0.643483 -0.109375,-1.320307 -0.109375,-2.056641 0,-0.726897 0.04389,-1.397835 0.107422,-2.041015 z m 2.585938,6.367187 c 0.769914,0 1.479879,0.03976 2.152343,0.101563 -0.58486,2.422832 -1.517225,3.85334 -1.925781,4.255859 a 1.2,1.2 0 0 0 -0.242187,0.34375 1.2,1.2 0 0 0 -0.244141,-0.34375 c -0.408025,-0.401996 -1.338808,-1.829042 -1.923828,-4.246094 0.685645,-0.06832 1.407822,-0.111328 2.183594,-0.111328 z m -4.589844,0.509766 c 0.306626,1.388306 0.721848,2.534011 1.183594,3.443359 a 1.2,1.2 0 0 0 -0.431641,-0.333984 c -0.780899,-0.356225 -1.961014,-1.158207 -2.957031,-2.335938 0.604508,-0.294448 1.337289,-0.561512 2.205078,-0.773437 z" fill="#008055"/>
</svg>
