<svg xmlns="http://www.w3.org/2000/svg" width="48" height="48">
	<path d="m 17.228064,0.96554564 c -0.406884,-0.013495 -0.818812,0.014279 -1.234375,0.091797 -1.639598,0.3058473 -3.118903,1.4469279 -4.199218,3.1835937 -0.01674,0.018752 0.0022,0.011244 -0.0098,0.023437 a 1.70017,1.70017 0 0 0 -0.0039,-0.00195 c -0.0019,-0.00108 -0.004,-8.754e-4 -0.0059,-0.00195 -0.0097,0.015655 -0.0236,0.02331 -0.0332,0.039062 l 0.02734,-0.041016 C 9.8878147,3.1959537 7.781968,3.0471822 6.0796266,3.8639831 4.3738378,4.6824381 3.177494,6.3066221 2.5425172,8.2799991 A 1.7,1.7 0 0 0 3.6401735,10.420624 1.7,1.7 0 0 0 5.7788453,9.3229671 c 0.4223332,-1.312523 1.1070656,-2.075736 1.7714844,-2.394531 0.6644188,-0.318795 1.4137528,-0.354855 2.5527343,0.291016 l -0.0625,-0.03711 c 0.713896,0.446557 1.679809,0.755633 2.611328,0.492188 0.931522,-0.263445 1.490319,-0.897284 1.921876,-1.498047 a 1.70017,1.70017 0 0 0 0.07226,-0.107422 C 15.381871,4.8620679 15.997216,4.51702 16.618684,4.4010925 17.240153,4.285165 18.080337,4.4511695 19.108919,4.9967956 A 1.7,1.7 0 0 0 21.407752,4.2917175 1.7,1.7 0 0 0 20.702674,1.9928893 C 19.622668,1.4199841 18.448718,1.0060313 17.228064,0.96554564 Z M 37.526892,6.0397641 c -1.993419,-0.0077 -3.950042,0.649587 -5.751953,1.789063 a 1.80018,1.80018 0 0 0 -0.02539,0.01758 c -0.308078,0.202482 -0.446854,0.200688 -0.927735,-0.15625 a 1.80018,1.80018 0 0 0 -0.05078,-0.03516 c -1.751427,-1.208825 -3.862339,-1.738437 -6.058594,-1.519532 -2.196255,0.218906 -4.473842,1.116487 -6.912109,2.597657 a 1.8,1.8 0 0 0 -0.603516,2.4726559 1.8,1.8 0 0 0 2.472657,0.603515 c 2.132342,-1.29533 3.942915,-1.9465269 5.40039,-2.0917959 1.457475,-0.14527 2.565287,0.147414 3.65625,0.9003899 l -0.04883,-0.03711 c 1.3775,1.022462 3.451066,1.323556 5.048828,0.273437 l -0.02734,0.01758 c 1.548683,-0.9793409 2.937285,-1.3443579 4.322265,-1.2050779 1.38498,0.139281 2.867718,0.8041579 4.513672,2.2871099 a 1.8,1.8 0 0 0 2.542969,-0.132813 1.8,1.8 0 0 0 -0.132813,-2.5410149 c -2.059395,-1.855449 -4.274735,-2.965244 -6.5625,-3.195313 -0.28597,-0.02876 -0.570694,-0.04382 -0.855469,-0.04492 z M 10.435096,12.641327 A 1.8997613,1.9002387 38.000278 0 0 9.0073609,13.303436 C 2.1268054,21.324722 2.510952,33.322169 9.8882207,40.887421 17.265488,48.452671 29.240477,49.122855 37.417518,42.430389 42.528169,38.247599 45.11594,32.040598 44.888221,25.838592 44.75159,22.117389 43.602275,18.399481 41.374549,15.121795 a 1.8997613,1.9002387 38.000278 0 0 -2.640625,-0.503906 1.8997613,1.9002387 38.000278 0 0 -0.501953,2.638672 c 4.853422,7.140911 3.45585,16.768378 -3.222657,22.234375 -6.678507,5.465997 -16.373806,4.922338 -22.40039,-1.257812 C 6.5823392,32.052974 6.2719285,22.330019 11.892127,15.778045 a 1.8997613,1.9002387 38.000278 0 0 -0.205078,-2.679687 1.8997613,1.9002387 38.000278 0 0 -1.251953,-0.457031 z m 14.466796,7.898437 c -2.417054,0 -4.606533,0.33111 -6.322265,0.933594 -0.857866,0.301242 -1.603085,0.662065 -2.226563,1.179687 -0.623477,0.517624 -1.189453,1.302768 -1.189453,2.279297 0,0.97653 0.565976,1.763628 1.189453,2.28125 0.623478,0.517623 1.368697,0.878446 2.226563,1.179688 1.715732,0.602484 3.905211,0.933594 6.322265,0.933594 2.417055,0 4.604581,-0.33111 6.320313,-0.933594 0.857866,-0.301242 1.603085,-0.662065 2.226563,-1.179688 0.623477,-0.517622 1.189453,-1.30472 1.189453,-2.28125 0,-0.976529 -0.565976,-1.761673 -1.189453,-2.279297 C 32.82529,22.135423 32.080071,21.7746 31.222205,21.473358 29.506473,20.870874 27.318947,20.539764 24.901892,20.539764 Z m 0,3 c 2.132389,0 4.062471,0.319234 5.328126,0.763672 0.605562,0.212645 1.024395,0.456913 1.246093,0.630859 -0.221844,0.173931 -0.640913,0.416396 -1.246093,0.628907 -1.265655,0.444438 -3.195737,0.763672 -5.328126,0.763672 -2.132388,0 -4.06247,-0.319234 -5.328124,-0.763672 -0.605215,-0.212523 -1.026216,-0.454974 -1.248047,-0.628907 0.221685,-0.173947 0.642452,-0.418203 1.248047,-0.630859 1.265654,-0.444438 3.195736,-0.763672 5.328124,-0.763672 z m 8.707032,5.925781 a 1.5,1.5 0 0 0 -2.119141,0.0918 1.5,1.5 0 0 0 -0.0332,1.988282 c -0.196834,0.173993 -0.7392,0.579156 -1.871094,0.890625 -2.513852,0.691749 -6.369736,0.736015 -9.027344,0.08789 -1.257912,-0.306773 -1.997385,-0.754602 -2.25,-0.976562 a 1.5,1.5 0 0 0 -0.25,-1.931641 1.5,1.5 0 0 0 -2.117187,0.105469 c -0.462349,0.510467 -0.805447,1.22659 -0.775391,1.982422 0.03006,0.755832 0.4065,1.407482 0.861328,1.876953 0.909659,0.938941 2.18035,1.457475 3.820313,1.857422 1.639963,0.399946 3.480353,0.59052 5.306641,0.572265 1.826287,-0.01825 3.638467,-0.244636 5.226562,-0.68164 1.588095,-0.437005 2.814291,-0.978521 3.638672,-2.023438 0.412191,-0.522458 0.694582,-1.264627 0.601562,-2.011718 -0.09302,-0.747093 -0.509485,-1.367413 -1.011718,-1.828126 z" fill="#008055"/>
</svg>
