<svg xmlns="http://www.w3.org/2000/svg" width="48" height="48">
	<path d="m 17.230017,0.96597769 c -0.406702,-0.0135 -0.818813,0.01428 -1.234375,0.0918 -1.639598,0.305847 -3.120857,1.4469279 -4.201172,3.1835939 -0.01674,0.01875 0.0022,0.01124 -0.0098,0.02344 a 1.70017,1.70017 0 0 0 -0.0039,-0.002 c -0.0019,-0.0011 -0.004,-8.75e-4 -0.0059,-0.002 -0.0097,0.01565 -0.0236,0.02331 -0.0332,0.03906 l 0.02734,-0.04101 C 9.8878147,3.1963856 7.7819678,3.0476146 6.0796263,3.8644156 4.3738377,4.6828706 3.1774938,6.3070546 2.542517,8.2804306 A 1.7,1.7 0 0 0 3.6401732,10.421056 1.7,1.7 0 0 0 5.7788451,9.3233996 c 0.4223332,-1.312524 1.1070656,-2.075736 1.7714844,-2.394531 0.6644187,-0.318795 1.4137522,-0.354855 2.5527345,0.291015 l -0.0625,-0.03711 c 0.713896,0.446557 1.679807,0.755632 2.611328,0.492187 0.931521,-0.263445 1.492272,-0.897285 1.923828,-1.498046 a 1.70017,1.70017 0 0 0 0.07031,-0.107422 c 0.735842,-1.206994 1.351187,-1.552042 1.972656,-1.667969 0.621468,-0.115928 1.461652,0.05008 2.490234,0.595703 A 1.7,1.7 0 0 0 21.407748,4.2921486 1.7,1.7 0 0 0 20.70267,1.9933206 C 19.622667,1.4204157 18.450121,1.0064637 17.230017,0.96597769 Z M 37.526892,6.0401966 c -1.993421,-0.0077 -3.950043,0.649587 -5.751953,1.789062 a 1.80018,1.80018 0 0 0 -0.02539,0.01758 c -0.308077,0.202482 -0.446854,0.200688 -0.927734,-0.15625 a 1.80018,1.80018 0 0 0 -0.04883,-0.03516 c -1.751427,-1.208824 -3.864292,-1.738437 -6.060547,-1.519531 -2.196255,0.218905 -4.473842,1.116486 -6.91211,2.597656 a 1.8,1.8 0 0 0 -0.603515,2.4726564 1.8,1.8 0 0 0 2.472656,0.603516 c 2.132343,-1.29533 3.942916,-1.9465274 5.400391,-2.0917974 1.457475,-0.145269 2.56724,0.147415 3.658203,0.9003914 l -0.05078,-0.03711 c 1.3775,1.022462 3.451066,1.323556 5.048829,0.273438 l -0.02539,0.01758 c 1.548684,-0.9793424 2.937286,-1.3443594 4.322266,-1.2050784 1.384979,0.139281 2.865764,0.8041584 4.511718,2.2871094 a 1.8,1.8 0 0 0 2.542969,-0.132812 1.8,1.8 0 0 0 -0.132812,-2.5410164 c -2.059396,-1.855449 -4.274735,-2.965243 -6.5625,-3.195312 -0.285971,-0.02876 -0.570695,-0.04382 -0.855469,-0.04492 z M 10.435095,12.641759 A 1.8997613,1.9002387 38.000278 0 0 9.0073607,13.305822 C 2.1268053,21.327108 2.5109517,33.320649 9.8882201,40.8859 17.265488,48.451152 29.240476,49.123288 37.417517,42.430822 42.528168,38.248032 45.115939,32.04103 44.88822,25.839025 44.751589,22.117821 43.602274,18.399914 41.374548,15.122228 a 1.8997613,1.9002387 38.000278 0 0 -2.640625,-0.503906 1.8997613,1.9002387 38.000278 0 0 -0.501953,2.638672 c 4.853422,7.140911 3.457804,16.768378 -3.220703,22.234375 C 28.33276,44.957364 18.635507,44.413706 12.608923,38.233556 6.5823388,32.053405 6.2719284,22.330452 11.892126,15.778478 A 1.8997613,1.9002387 38.000278 0 0 11.687048,13.09879 1.8997613,1.9002387 38.000278 0 0 10.435095,12.641759 Z m 6.519531,6.890625 a 1.5,1.5 0 0 0 -1.5,1.5 1.5,1.5 0 0 0 1.5,1.5 h 15.439453 a 1.5,1.5 0 0 0 1.5,-1.5 1.5,1.5 0 0 0 -1.5,-1.5 z m 0,6.888672 a 1.5,1.5 0 0 0 -1.5,1.5 1.5,1.5 0 0 0 1.5,1.5 h 15.439453 a 1.5,1.5 0 0 0 1.5,-1.5 1.5,1.5 0 0 0 -1.5,-1.5 z m 0,6.888672 a 1.5,1.5 0 0 0 -1.5,1.5 1.5,1.5 0 0 0 1.5,1.5 h 15.439453 a 1.5,1.5 0 0 0 1.5,-1.5 1.5,1.5 0 0 0 -1.5,-1.5 z" fill="#008055"/>
</svg>
