<svg xmlns="http://www.w3.org/2000/svg" width="48" height="48">
	<path d="m 17.229246,0.96594577 c -0.406701,-0.01331 -0.818812,0.01428 -1.234375,0.0918 -1.64074,0.30606 -3.122625,1.444868 -4.203125,3.183593 -0.01498,0.0167 0.0032,0.01017 -0.0078,0.02149 a 1.70017,1.70017 0 0 0 -0.0039,-0.002 c -0.0013,-7.54e-4 -0.0026,-0.0012 -0.0039,-0.002 -0.0097,0.01567 -0.02359,0.02329 -0.0332,0.03906 l 0.02734,-0.04101 C 9.8885596,3.1935138 7.7817178,3.0453788 6.0788557,3.8624298 4.373067,4.6808848 3.1767232,6.3070228 2.5417463,8.2803988 a 1.7,1.7 0 0 0 1.0976563,2.1386722 1.7,1.7 0 0 0 2.140625,-1.0976562 c 0.4223332,-1.312524 1.1051125,-2.073784 1.7695313,-2.392579 0.6644187,-0.318794 1.4137523,-0.354854 2.5527341,0.291016 l -0.0625,-0.03906 c 0.713896,0.446557 1.679807,0.755632 2.611328,0.492187 0.931521,-0.263445 1.492272,-0.897284 1.923828,-1.498047 a 1.70017,1.70017 0 0 0 0.07031,-0.107422 c 0.735842,-1.206993 1.351187,-1.552041 1.972656,-1.667968 0.621469,-0.115928 1.461652,0.05008 2.490235,0.595703 A 1.7,1.7 0 0 0 21.406978,4.2901668 1.7,1.7 0 0 0 20.7019,1.9913378 C 19.621893,1.4184338 18.449348,1.0058838 17.229243,0.96594777 Z M 37.526121,6.0382118 c -1.993046,-0.0077 -3.94809,0.649586 -5.75,1.789062 a 1.80018,1.80018 0 0 0 -0.02734,0.01758 c -0.308077,0.202482 -0.446854,0.200688 -0.927734,-0.15625 a 1.80018,1.80018 0 0 0 -0.04883,-0.03516 c -1.751427,-1.208824 -3.864292,-1.738437 -6.060547,-1.519531 -2.196255,0.218905 -4.471889,1.116486 -6.910156,2.597656 a 1.8,1.8 0 0 0 -0.605469,2.4726562 1.8,1.8 0 0 0 2.472656,0.605469 c 2.132343,-1.29533 3.942916,-1.9484812 5.400391,-2.0937502 1.457475,-0.14527 2.56724,0.147415 3.658203,0.9003902 l -0.05078,-0.03711 c 1.3775,1.022462 3.451066,1.323556 5.048828,0.273438 l -0.02539,0.01758 c 1.548684,-0.9793432 2.937286,-1.3443592 4.322266,-1.2050782 1.38498,0.13928 2.865764,0.8041582 4.511719,2.2871092 a 1.8,1.8 0 0 0 2.542969,-0.130859 1.8,1.8 0 0 0 -0.132813,-2.5429692 c -2.059396,-1.855449 -4.274735,-2.965243 -6.5625,-3.195313 -0.285971,-0.02876 -0.570748,-0.04382 -0.855469,-0.04492 z M 10.436278,12.639774 A 1.8997613,1.9002387 38.000278 0 0 9.0085432,13.303836 C 2.1279876,21.325123 2.5101813,33.320617 9.8874495,40.885868 17.264718,48.451119 29.241659,49.123255 37.418699,42.43079 42.529351,38.247999 45.117122,32.039045 44.889403,25.83704 44.752771,22.115837 43.601502,18.397929 41.373777,15.120243 a 1.8997613,1.9002387 38.000278 0 0 -2.638671,-0.503907 1.8997613,1.9002387 38.000278 0 0 -0.50586,2.638672 c 4.853423,7.140911 3.459757,16.770332 -3.21875,22.236328 C 28.33199,44.957332 18.634737,44.411721 12.608153,38.231571 6.5815684,32.051421 6.2711577,22.328466 11.891356,15.776493 a 1.8997613,1.9002387 38.000278 0 0 -0.205079,-2.679688 1.8997613,1.9002387 38.000278 0 0 -1.249999,-0.457031 z m 7.091796,6.904297 c -0.801558,0 -1.613168,0.241467 -2.271484,0.796875 -0.658316,0.555408 -1.099609,1.466845 -1.099609,2.421875 v 10.308594 c 0,1.020257 0.527367,1.932106 1.1875,2.457031 0.660133,0.524924 1.413724,0.759766 2.183593,0.759766 a 1.5,1.5 0 0 0 1.5,-1.5 1.5,1.5 0 0 0 -1.5,-1.5 c -0.0721,0 -0.251671,-0.0579 -0.316406,-0.109376 -0.06473,-0.05148 -0.05469,0.0029 -0.05469,-0.107421 V 22.762821 c 0,-0.153171 0.0036,-0.102314 0.03516,-0.128906 0.03152,-0.02659 0.155395,-0.08984 0.335937,-0.08984 H 31.95581 c 0.154113,0 0.235741,0.05009 0.222656,0.03906 -0.01309,-0.01102 0.0078,-0.09212 0.0078,0.179688 v 10.308594 c 0,0.279253 0.135117,0.216797 -0.230468,0.216797 H 21.072996 a 1.5,1.5 0 0 0 -1.5,1.5 1.5,1.5 0 0 0 1.5,1.5 h 10.882813 c 1.774275,0 3.230468,-1.567051 3.230468,-3.216797 V 22.762821 c 0,-0.972091 -0.412604,-1.913557 -1.076171,-2.472656 -0.663568,-0.5591 -1.448641,-0.746094 -2.154297,-0.746094 z" fill="#008055"/>
</svg>
