<svg xmlns="http://www.w3.org/2000/svg" width="48" height="48">
	<path d="m 17.230017,0.96500058 c -0.406701,-0.013495 -0.818813,0.014279 -1.234375,0.091797 -1.641173,0.3061411 -3.122556,1.4479931 -4.203125,3.1875 -0.01321,0.014545 0.0021,0.00943 -0.0078,0.019531 a 1.70017,1.70017 0 0 0 -0.0039,-0.00195 c -0.0013,-7.537e-4 -0.0026,-0.0012 -0.0039,-0.00195 -0.0097,0.015662 -0.0236,0.023303 -0.0332,0.039062 l 0.02734,-0.041016 C 9.8893305,3.1945231 7.7824885,3.0463874 6.0796265,3.863438 4.373838,4.6818932 3.177494,6.3060778 2.542517,8.2794538 A 1.7,1.7 0 0 0 3.640173,10.420079 1.7,1.7 0 0 0 5.7807984,9.3224228 c 0.4223332,-1.312524 1.1051125,-2.075737 1.7695312,-2.394532 0.6644188,-0.318795 1.4137524,-0.354854 2.5527344,0.291016 l -0.0625,-0.03711 c 0.713896,0.446557 1.679807,0.755632 2.611328,0.492187 0.931521,-0.263445 1.492272,-0.897284 1.923828,-1.498047 a 1.70017,1.70017 0 0 0 0.07031,-0.107422 c 0.735842,-1.2069926 1.351187,-1.5520409 1.972656,-1.6679684 0.621469,-0.1159275 1.461653,0.050077 2.490234,0.5957032 A 1.7,1.7 0 0 0 21.407752,4.2911724 1.7,1.7 0 0 0 20.702673,1.9923443 C 19.622667,1.4194391 18.450122,1.0054863 17.230017,0.96500058 Z M 37.526892,6.0392198 c -1.993046,-0.0077 -3.94809,0.649586 -5.75,1.789062 a 1.80018,1.80018 0 0 0 -0.02734,0.01758 c -0.308077,0.202482 -0.446854,0.200688 -0.927734,-0.15625 a 1.80018,1.80018 0 0 0 -0.04883,-0.03516 c -1.751427,-1.208824 -3.864292,-1.738437 -6.060547,-1.519531 -2.196255,0.218905 -4.471889,1.116486 -6.910156,2.597656 a 1.8,1.8 0 0 0 -0.605469,2.4726562 1.8,1.8 0 0 0 2.472656,0.603516 c 2.132343,-1.295331 3.942916,-1.9465282 5.400391,-2.0917972 1.457475,-0.14527 2.56724,0.147416 3.658203,0.9003902 l -0.05078,-0.03711 c 1.377499,1.022462 3.451065,1.323556 5.048828,0.273438 l -0.02539,0.01758 c 1.548684,-0.9793432 2.937286,-1.3443592 4.322266,-1.2050782 1.38498,0.13928 2.865764,0.8041582 4.511719,2.2871092 a 1.8,1.8 0 0 0 2.542968,-0.132812 1.8,1.8 0 0 0 -0.132812,-2.5410162 c -2.059396,-1.855449 -4.274735,-2.965243 -6.5625,-3.195313 -0.285971,-0.02876 -0.570748,-0.04382 -0.855469,-0.04492 z M 10.437048,12.640782 a 1.8997613,1.9002387 38.000278 0 0 -1.427734,0.662109 c -6.880556,8.021287 -6.500315,20.018734 0.8769531,27.583985 7.3772689,7.565251 19.3542089,8.237387 27.5312499,1.544922 5.110651,-4.182791 7.700376,-10.391745 7.472656,-16.59375 -0.136631,-3.721203 -1.289852,-7.439111 -3.517578,-10.716797 A 1.8997613,1.9002387 38.000278 0 0 38.735876,14.617344 1.8997613,1.9002387 38.000278 0 0 38.23197,17.25797 c 4.853423,7.14091 3.457804,16.766425 -3.220703,22.232421 C 28.33276,44.956387 18.633555,44.412729 12.60697,38.232579 6.580386,32.052429 6.2719282,22.327521 11.892127,15.775548 a 1.8997613,1.9002387 38.000278 0 0 -0.205079,-2.677735 1.8997613,1.9002387 38.000278 0 0 -1.25,-0.457031 z m 11.316407,3.085938 c -0.636457,0 -1.369865,0.122602 -1.898438,0.699218 -0.528572,0.576616 -0.570312,1.240116 -0.570312,1.759766 v 4.59375 a 1.3,1.3 0 0 0 1.300781,1.298828 1.3,1.3 0 0 0 1.298828,-1.298828 v -4.453125 h 5.507812 v 4.453125 a 1.3,1.3 0 0 0 1.298829,1.300781 1.3,1.3 0 0 0 1.300781,-1.300781 v -4.59375 c 0,-0.538534 -0.01135,-1.182651 -0.546875,-1.777344 -0.53553,-0.594693 -1.264677,-0.68164 -1.847656,-0.68164 z m -3.041016,9.146484 c -0.94862,0 -1.917117,0.205158 -2.708984,0.849609 -0.791868,0.644452 -1.232422,1.715099 -1.232422,2.794922 v 5.8125 a 1.5,1.5 0 0 0 1.5,1.5 1.5,1.5 0 0 0 1.5,-1.5 v -5.8125 c 0,-0.412077 0.05739,-0.413726 0.125,-0.46875 0.06761,-0.05502 0.319536,-0.175781 0.816406,-0.175781 H 31.20072 c 0.344359,0 0.427073,0.0767 0.488282,0.140625 0.06121,0.06392 0.142578,0.190183 0.142578,0.503906 v 5.8125 a 1.5,1.5 0 0 0 1.5,1.5 1.5,1.5 0 0 0 1.5,-1.5 v -5.8125 c 0,-0.937076 -0.310256,-1.882295 -0.976563,-2.578125 -0.666307,-0.69583 -1.647975,-1.066406 -2.654297,-1.066406 z m 2.855469,7.05664 c -0.579384,0 -1.280478,0.09851 -1.806641,0.65625 -0.526163,0.557736 -0.572279,1.210695 -0.572265,1.726563 v 2.837891 c 0,0.545575 0.144615,1.253285 0.689453,1.734375 0.544837,0.481089 1.163308,0.539062 1.689453,0.539062 h 6.255859 c 0.566307,0 1.208478,-0.125313 1.710938,-0.595703 0.502459,-0.47039 0.664087,-1.141633 0.664062,-1.677734 v -2.078125 a 1.3,1.3 0 0 0 -1.300781,-1.298829 1.3,1.3 0 0 0 -1.298828,1.298829 v 1.751953 h -5.810547 v -2.294922 h 4.613281 a 1.3,1.3 0 0 0 1.298828,-1.298828 1.3,1.3 0 0 0 -1.298828,-1.300782 z" fill="#008055"/>
</svg>
