<svg xmlns="http://www.w3.org/2000/svg" width="48" height="48">
	<path d="m 17.229247,0.9659462 c -0.406702,-0.013312 -0.818813,0.014279 -1.234375,0.091797 -1.640741,0.3060604 -3.122626,1.4448675 -4.203126,3.1835937 -0.01498,0.016702 0.0032,0.010171 -0.0078,0.021484 a 1.70017,1.70017 0 0 0 -0.0039,-0.00195 c -0.0013,-7.535e-4 -0.0026,-0.0012 -0.0039,-0.00195 -0.0097,0.015669 -0.02359,0.023295 -0.0332,0.039062 l 0.02734,-0.041016 C 9.8885605,3.1935157 7.7817185,3.0453798 6.0788565,3.8624306 c -1.705789,0.818455 -2.902133,2.4445926 -3.53711,4.4179687 a 1.7,1.7 0 0 0 1.097656,2.1386717 1.7,1.7 0 0 0 2.140626,-1.097656 C 6.2023615,8.0088911 6.8851405,7.2476317 7.5495595,6.9288369 8.2139785,6.6100418 8.9633115,6.573982 10.102293,7.2198525 l -0.0625,-0.039062 C 10.753689,7.6273475 11.7196,7.936423 12.651122,7.672978 13.582643,7.4095329 14.143394,6.7756939 14.57495,6.1749311 a 1.70017,1.70017 0 0 0 0.07031,-0.1074219 c 0.735843,-1.2069934 1.351188,-1.5520412 1.972657,-1.6679687 0.621468,-0.1159275 1.461652,0.050077 2.490234,0.5957031 A 1.7,1.7 0 0 0 21.406979,4.2901655 1.7,1.7 0 0 0 20.701901,1.9913374 C 19.621895,1.4184321 18.449349,1.0058831 17.229245,0.9659467 Z m 20.296874,5.0722657 c -1.993046,-0.00771 -3.94809,0.6495871 -5.749999,1.7890624 a 1.80018,1.80018 0 0 0 -0.02734,0.017578 C 31.4407,8.0473372 31.301933,8.0455439 30.821048,7.6886023 a 1.80018,1.80018 0 0 0 -0.04883,-0.035156 C 29.020788,6.4446221 26.907924,5.9150096 24.711669,6.133915 22.515414,6.3528204 20.23978,7.2504015 17.801512,8.7315712 a 1.8,1.8 0 0 0 -0.605468,2.4726558 1.8,1.8 0 0 0 2.472656,0.605469 c 2.132343,-1.29533 3.942915,-1.9484802 5.40039,-2.0937498 1.457475,-0.1452696 2.567241,0.1474147 3.658204,0.9003908 l -0.05078,-0.03711 c 1.377495,1.022458 3.45107,1.323552 5.048828,0.273437 l -0.02539,0.01758 c 1.548684,-0.9793419 2.937286,-1.3443584 4.322266,-1.2050777 1.38498,0.1392806 2.865764,0.8041577 4.511719,2.2871097 A 1.8,1.8 0 0 0 45.076902,11.821415 1.8,1.8 0 0 0 44.94409,9.2784462 C 42.884694,7.4229976 40.669355,6.3132031 38.38159,6.0831337 38.095619,6.0543751 37.810842,6.039313 37.526121,6.0382119 Z M 10.436278,12.641727 a 1.8997613,1.9002387 38.000278 0 0 -1.4277345,0.66211 c -6.880555,8.021286 -6.498362,20.016779 0.878906,27.582031 7.3772685,7.565251 19.3522565,8.237387 27.5292965,1.544922 5.11065,-4.182791 7.700376,-10.389792 7.472656,-16.591797 C 44.752771,22.11779 43.59955,18.395975 41.371824,15.11829 a 1.8997613,1.9002387 38.000278 0 0 -2.638672,-0.501953 1.8997613,1.9002387 38.000278 0 0 -0.501953,2.640625 c 4.853422,7.140911 3.457804,16.768379 -3.220703,22.234375 C 28.33199,44.957334 18.634737,44.411721 12.608153,38.231571 6.5815685,32.05142 6.2711585,22.328466 11.891356,15.776493 a 1.8997613,1.9002387 38.000278 0 0 -0.205078,-2.677734 1.8997613,1.9002387 38.000278 0 0 -1.25,-0.457032 z m 11.228516,6.925782 c -1.856167,0.09434 -3.779832,1.104585 -4.869141,3.234375 a 1.5,1.5 0 0 0 0.652344,2.017578 1.5,1.5 0 0 0 2.019531,-0.652344 c 0.961811,-1.880508 2.631708,-1.842247 3.53125,-1.369141 0.449771,0.236554 0.576586,0.468769 0.580078,0.705079 0.0035,0.236309 -0.15149,0.838018 -1.291016,1.697265 a 1.50015,1.50015 0 0 0 -0.02539,0.01953 c -2.518549,1.984909 -3.912523,3.945497 -4.160156,5.962891 -0.247634,2.017394 0.976856,3.845158 2.693359,4.695313 3.433005,1.700309 8.769775,0.832602 13.519531,-3.220704 a 1.5,1.5 0 0 0 0.166015,-2.115234 1.5,1.5 0 0 0 -2.113281,-0.166016 c -4.028134,3.437495 -8.451024,3.700619 -10.240234,2.814454 -0.894605,-0.443083 -1.145656,-0.837838 -1.046875,-1.642579 0.09838,-0.801441 0.869414,-2.254335 3.013672,-3.951171 l 0.02539,-0.01953 c 1.582324,-1.201305 2.481002,-2.62934 2.458984,-4.11914 -0.02214,-1.497997 -1.011654,-2.698082 -2.183594,-3.314454 -0.58597,-0.308184 -1.248696,-0.498454 -1.941406,-0.560546 -0.259766,-0.02329 -0.523896,-0.0291 -0.789062,-0.01563 z" fill="#008055"/>
</svg>
