<svg xmlns="http://www.w3.org/2000/svg" width="48" height="48">
	<path d="m 17.228064,0.96554564 c -0.406884,-0.013495 -0.818812,0.014279 -1.234375,0.091797 -1.639598,0.3058473 -3.118903,1.4469279 -4.199218,3.1835937 -0.01674,0.018752 0.0022,0.011244 -0.0098,0.023437 -0.0013,-6.516e-4 -0.0026,-0.0013 -0.0039,-0.00195 -0.0019,-0.00108 -0.004,-8.754e-4 -0.0059,-0.00195 -0.0097,0.015655 -0.0236,0.02331 -0.0332,0.039062 l 0.02734,-0.041016 C 9.8878147,3.1959537 7.781968,3.0471822 6.0796266,3.8639831 4.3738378,4.6824381 3.177494,6.3066221 2.5425172,8.2799991 2.2538846,9.1742765 2.7455411,10.133094 3.6401735,10.420624 c 0.8936787,0.28736 1.8511209,-0.20404 2.1386718,-1.0976569 0.4223332,-1.312523 1.1070656,-2.075736 1.7714844,-2.394531 0.6644188,-0.318795 1.4137528,-0.354855 2.5527343,0.291016 l -0.0625,-0.03711 c 0.713896,0.446557 1.679809,0.755633 2.611328,0.492188 0.931522,-0.263445 1.490319,-0.897284 1.921876,-1.498047 0.02544,-0.034877 0.04955,-0.07071 0.07226,-0.107422 0.735843,-1.2069932 1.351188,-1.5520411 1.972656,-1.6679686 0.621469,-0.1159275 1.461653,0.050077 2.490235,0.5957031 0.829492,0.440258 1.858829,0.1245489 2.298833,-0.7050781 0.440255,-0.8294912 0.124546,-1.858824 -0.705078,-2.2988282 -1.080006,-0.5729052 -2.253956,-0.986858 -3.47461,-1.02734366 z M 37.526892,6.0397641 c -1.993419,-0.0077 -3.950042,0.649587 -5.751953,1.789063 -0.0085,0.00579 -0.01698,0.011648 -0.02539,0.01758 -0.308078,0.202482 -0.446854,0.200688 -0.927735,-0.15625 -0.01672,-0.01201 -0.03365,-0.023731 -0.05078,-0.03516 -1.751427,-1.208825 -3.862339,-1.738437 -6.058594,-1.519532 -2.196255,0.218906 -4.473842,1.116487 -6.912109,2.597657 -0.849345,0.5162341 -1.119522,1.6231729 -0.603516,2.4726559 0.516235,0.849345 1.623174,1.119522 2.472657,0.603515 2.132342,-1.29533 3.942915,-1.9465269 5.40039,-2.0917959 1.457475,-0.14527 2.565287,0.147414 3.65625,0.9003899 l -0.04883,-0.03711 c 1.3775,1.022462 3.451066,1.323556 5.048828,0.273437 l -0.02734,0.01758 c 1.548683,-0.9793409 2.937285,-1.3443579 4.322265,-1.2050779 1.38498,0.139281 2.867718,0.8041579 4.513672,2.2871099 0.738777,0.665885 1.877578,0.606408 2.542969,-0.132813 0.664568,-0.738512 0.605124,-1.8758082 -0.132813,-2.5410149 -2.059395,-1.855449 -4.274735,-2.965244 -6.5625,-3.195313 -0.28597,-0.02876 -0.570694,-0.04382 -0.855469,-0.04492 z M 10.435096,12.641327 c -0.5491822,0.004 -1.0698294,0.24544 -1.4277351,0.662109 -6.8805555,8.021286 -6.4964089,20.018733 0.8808598,27.583985 7.3772673,7.56525 19.3522563,8.235434 27.5292973,1.542968 5.110651,-4.18279 7.698422,-10.389791 7.470703,-16.591797 -0.136631,-3.721203 -1.285946,-7.439111 -3.513672,-10.716797 -0.589529,-0.868935 -1.772243,-1.09463 -2.640625,-0.503906 -0.866754,0.590488 -1.091413,1.771478 -0.501953,2.638672 4.853422,7.140911 3.45585,16.768378 -3.222657,22.234375 -6.678507,5.465997 -16.373806,4.922338 -22.40039,-1.257812 -6.0265848,-6.18015 -6.3369955,-15.903105 -0.716797,-22.455079 0.683509,-0.796726 0.59168,-1.996619 -0.205078,-2.679687 -0.348402,-0.29855 -0.793104,-0.460891 -1.251953,-0.457031 z" fill="#008055"/>
</svg>
