<svg xmlns="http://www.w3.org/2000/svg" width="48" height="48">
	<path d="m 11.963871,7.046875 c -1.705449,0 -3.3578817,0.3690524 -4.6621089,1.4238281 -1.304227,1.0547756 -2.039069,2.7829209 -2.0390624,4.6660159 l -0.023438,3.089843 a 1.90019,1.90019 0 0 0 0,0.01172 v 18.623047 c 0,1.883093 0.7367882,3.611241 2.0410157,4.666016 1.3042274,1.054774 2.9547066,1.425781 4.6601566,1.425781 h 24.708985 c 1.744544,0 3.35916,-0.62036 4.458984,-1.761719 1.099824,-1.141358 1.630859,-2.71083 1.630859,-4.330078 V 21.134766 c 0,-1.14964 -0.417049,-2.33166 -1.269531,-3.138672 -0.852482,-0.807013 -2.016255,-1.160157 -3.173828,-1.160157 h -25.40625 a 1.9,1.9 0 0 0 -1.900391,1.898438 1.9,1.9 0 0 0 1.900391,1.900391 h 25.40625 c 0.432646,0 0.541122,0.100856 0.5625,0.121093 0.02138,0.02024 0.08008,0.03974 0.08008,0.378907 v 13.726562 c 0,0.824652 -0.235728,1.350193 -0.566406,1.693359 -0.330679,0.343167 -0.811371,0.597657 -1.722656,0.597657 H 11.940434 c -1.13679,0 -1.885727,-0.268103 -2.2714843,-0.580078 C 9.283192,36.26029 9.0400434,35.893235 9.0400434,34.861328 V 16.246094 l 0.021484,-3.095703 a 1.90019,1.90019 0 0 0 0,-0.01367 c -3.2e-6,-1.031906 0.2431512,-1.398963 0.6289066,-1.710938 0.385755,-0.311974 1.136647,-0.580078 2.273437,-0.580078 h 24.708985 c 0.911278,-3.4e-5 1.391991,0.25451 1.722656,0.597656 0.330666,0.343146 0.566409,0.868712 0.566407,1.69336 v 0.941406 a 1.9,1.9 0 0 0 1.898437,1.900391 1.9,1.9 0 0 0 1.900391,-1.900391 V 13.136719 C 42.760753,11.517466 42.231682,9.9479947 41.13184,8.8066406 40.031998,7.6652865 38.417418,7.0468093 36.672856,7.046875 Z m 9.894532,15.148437 c -0.415633,-0.03734 -0.849052,0.03044 -1.244141,0.251954 -0.790177,0.443027 -1.136719,1.33296 -1.136719,2.09375 v 4.730468 a 1.5,1.5 0 0 0 1.5,1.5 1.5,1.5 0 0 0 1.5,-1.5 v -3.517578 l 5.294922,3.125 -5.654296,3.337891 a 1.5,1.5 0 0 0 -1.140626,-0.527344 1.5,1.5 0 0 0 -1.5,1.5 c 0,0.756121 0.322152,1.621702 1.095704,2.085937 0.773552,0.464236 1.756992,0.319255 2.416015,-0.08984 l 7.28711,-4.300781 -0.04688,0.02539 c 0.636448,-0.345831 1.32465,-0.999541 1.345703,-1.986328 0.02105,-0.986787 -0.67074,-1.70014 -1.324219,-2.064453 l 0.0332,0.01758 -7.289062,-4.300781 c -0.3232,-0.200578 -0.721086,-0.343519 -1.136719,-0.38086 z" fill="#008055"/>
</svg>
