<svg xmlns="http://www.w3.org/2000/svg" width="48" height="48">
	<path d="M 23.282551,2.1340754 C 18.484377,2.305321 13.768325,4.0224031 10.014973,7.194622 c -0.0018,0.0015 -0.004,0.0024 -0.0059,0.0039 C 3.6245896,12.515081 -0.85736937,23.239256 4.6009106,33.99345 a 1.80018,1.80018 0 0 0 0.019531,0.03906 c 6.2000264,11.497274 19.7817524,15.020263 30.5000004,8.830081 0.01218,-0.0048 0.02494,-0.005 0.03711,-0.0098 l -0.002,-0.0059 c 0.08643,-0.05011 0.179579,-0.07362 0.265625,-0.125 a 1.80018,1.80018 0 0 0 -1.582031,-3.220703 c -6.811841,2.678083 -14.723351,-1.037209 -17.65625,-9.759766 -1.456155,-4.353657 -1.152062,-8.67966 0.642578,-12.189453 1.79515,-3.510792 5.062162,-6.256566 9.890625,-7.435547 A 1.8,1.8 0 0 0 28.036412,7.940641 1.8,1.8 0 0 0 25.862583,6.618375 c -5.739037,1.401319 -9.975013,4.86099 -12.242187,9.294922 -2.267175,4.433933 -2.58659,9.790722 -0.851563,14.97461 a 1.80018,1.80018 0 0 0 0.002,0.002 c 1.832466,5.449824 5.529791,9.380823 9.886719,11.427734 C 16.71528,41.901542 11.125227,38.495249 7.7981758,32.335247 3.1575566,23.15632 7.1225161,14.280623 12.323567,9.956341 a 1.80018,1.80018 0 0 0 0.01172,-0.0098 c 7.100809,-6.0055337 18.498058,-5.7885285 25.328126,1.796875 a 1.80018,1.80018 0 0 0 0.0098,0.0098 c 3.605561,3.936113 4.830503,8.878325 4.533203,13.492187 -0.297299,4.613864 -2.215348,8.829636 -4.472656,10.955079 a 1.8,1.8 0 0 0 -0.07617,2.542968 1.8,1.8 0 0 0 2.542969,0.07813 c 3.175352,-2.989857 5.250186,-7.920962 5.599609,-13.34375 0.349138,-5.418355 -1.123348,-11.399999 -5.46289,-16.144531 l -0.0039,-0.0039 C 36.26528,4.813742 30.831754,2.4667762 25.341145,2.1555598 24.654895,2.116662 23.968004,2.1096117 23.282551,2.1340754 Z m 5.650391,8.6484376 a 1.8,1.8 0 0 0 -1.634766,1.027344 1.8,1.8 0 0 0 0.851563,2.398437 c 4.151255,1.974382 5.896633,5.832065 5.785156,9.966797 -0.111477,4.134732 -2.234053,8.351641 -5.810547,10.533203 a 1.8,1.8 0 0 0 -0.597656,2.474609 1.8,1.8 0 0 0 2.472656,0.59961 c 4.765686,-2.906938 7.392841,-8.231223 7.535156,-13.509766 0.142316,-5.278543 -2.353115,-10.707788 -7.83789,-13.316406 a 1.8,1.8 0 0 0 -0.763672,-0.173828 z" fill="#008055"/>
</svg>
