<svg xmlns="http://www.w3.org/2000/svg" width="48" height="48">
	<path d="m 38.207542,1.4465058 c -0.577161,-0.029359 -1.153837,0.022296 -1.863281,0.097656 a 1.70017,1.70017 0 0 0 -0.01563,0.00195 c -2.544875,0.2933122 -4.78683,1.1091828 -7.042969,2.6367188 a 1.70017,1.70017 0 0 0 -0.0039,0.00195 C 28.14941,4.9572674 27.680283,4.9886912 26.982934,4.7277523 a 1.70017,1.70017 0 0 0 -0.002,0 C 23.937834,3.5925232 18.113206,2.3079691 12.76223,3.5675996 7.4706587,4.7571895 4.3936367,7.6600844 2.9516831,10.65549 c -1.4427241,2.997006 -1.400986,5.877142 -0.90625,7.691407 a 1.70017,1.70017 0 0 0 0.019531,0.07031 c 0.3779465,1.185709 1.3658145,1.968874 2.3105469,2.363282 0.9447325,0.394407 1.9287073,0.528215 2.9042969,0.58789 1.9387075,0.118587 3.9220581,-0.107837 4.8535161,-0.144531 0.454121,-0.0035 0.579552,0.04209 0.611328,0.05273 0.0046,0.02092 0.01369,0.06795 0.02539,0.150391 0.0303,0.363246 0.02438,2.679088 -0.15625,3.617187 -0.113455,0.589153 -0.172883,1.113232 -0.09766,1.69336 0.07523,0.580128 0.373055,1.379849 1.125,1.820312 0.751945,0.440464 1.532068,0.322252 2.066407,0.140625 0.534338,-0.181626 0.975935,-0.452123 1.447265,-0.791015 a 1.70017,1.70017 0 0 0 0.01172,-0.0078 c 2.192802,-1.605799 3.514836,-3.31054 4.488281,-4.677734 0.965255,-1.35569 1.598622,-2.27393 2.306641,-2.757813 1.559841,-0.953352 3.910452,-1.279977 6,-0.978515 2.101977,0.303255 3.799493,1.326303 4.189453,1.976562 l -0.02344,-0.04102 c 0.11015,0.195962 0.05599,0.03224 0.04492,0.06641 -0.01107,0.03417 -0.13837,0.261994 -0.402344,0.578125 -0.263974,0.31613 -0.65049,0.690857 -0.984375,1.351562 -0.333884,0.660706 -0.43931,1.853593 0.06055,2.708985 1.285973,2.280905 1.860836,3.96431 2.181641,6.560547 a 1.7,1.7 0 0 0 1.896484,1.478515 1.7,1.7 0 0 0 1.478516,-1.894531 c -0.348023,-2.816514 -1.123928,-5.060467 -2.449219,-7.488281 0.08093,-0.10878 0.177988,-0.24231 0.425781,-0.539063 0.325036,-0.389257 0.767372,-0.904588 1.027344,-1.707031 0.259972,-0.802443 0.180514,-1.89721 -0.316406,-2.78125 a 1.70017,1.70017 0 0 0 -0.02344,-0.04102 c -1.309229,-2.183141 -3.872615,-3.197505 -6.61914,-3.59375 -2.746525,-0.396245 -5.813299,-0.08295 -8.310547,1.464844 a 1.70017,1.70017 0 0 0 -0.05078,0.0332 c -1.491223,1.001434 -2.290553,2.351904 -3.201172,3.63086 -0.73418,1.031147 -1.64651,2.082317 -2.875,3.142578 0.104488,-1.237138 0.209681,-2.594579 0.146484,-3.291016 a 1.70017,1.70017 0 0 0 -0.0059,-0.05469 c -0.08939,-0.725605 -0.369592,-1.663135 -1.148438,-2.335937 -0.778845,-0.672802 -1.810172,-0.900029 -2.923828,-0.884766 a 1.70017,1.70017 0 0 0 -0.04101,0 C 10.813536,17.871065 9.0092753,18.068928 7.4868393,17.975803 6.7256215,17.929241 6.0579076,17.797058 5.6860581,17.641819 5.3299815,17.493164 5.3360559,17.447417 5.3208237,17.395725 5.1008957,16.538422 5.0029256,14.234867 6.0161362,12.1301 7.0427422,9.9975058 9.0535114,7.8848116 13.514183,6.8840058 a 1.70017,1.70017 0 0 0 0.01758,-0.00586 c 4.239105,-1.000953 9.845203,0.1344139 12.259766,1.0351562 v -0.00195 c 1.740471,0.6512611 3.720342,0.2321474 5.40625,-0.9179688 1.822149,-1.2326096 3.344551,-1.7756766 5.33789,-2.0292968 -0.947344,1.7596037 -1.485374,3.8038833 -1.765625,5.7363286 -0.247208,1.549104 0.157586,3.26803 1.298829,4.613281 2.249507,2.725375 3.763159,7.156574 3.894531,11.822265 0.0272,3.269776 -0.554037,7.239339 -1.728516,10.748047 l 0.01758,-0.05273 c -0.145075,0.391247 -0.25787,0.82964 -0.21875,1.349609 0.03912,0.519969 0.293151,1.085467 0.623047,1.453125 0.646063,0.720015 1.279945,0.882188 1.923828,1.101563 0.933609,0.356655 1.402418,0.865834 1.730469,1.394531 l -3.027344,-0.04102 a 1.70017,1.70017 0 0 0 -0.02344,0 c -0.508687,0 -0.876096,-0.02637 -1.13086,-0.771484 a 1.70017,1.70017 0 0 0 -3.189453,-0.07227 c -0.302502,0.769414 -0.800212,0.899527 -1.408203,0.91211 h -2.662109 c 0.455342,-0.468727 0.892736,-0.961554 1.798828,-1.351563 a 1.70017,1.70017 0 0 0 0,-0.002 c 0.747234,-0.321707 1.405422,-0.782479 1.859375,-1.445313 0.453953,-0.662832 0.631001,-1.517611 0.523437,-2.267578 -0.78525,-5.600904 -2.79249,-11.36823 -8.115234,-15.921875 a 1.7,1.7 0 0 0 -2.396484,0.1875 1.7,1.7 0 0 0 0.1875,2.396485 c 4.555295,3.897086 6.210299,8.601846 6.939453,13.71875 -0.01733,0.01885 -0.06391,0.0913 -0.341797,0.210937 -3.386516,1.457657 -5.083304,3.886996 -5.048828,6.199219 a 1.70017,1.70017 0 0 0 1.699219,1.673828 h 5.591796 a 1.70017,1.70017 0 0 0 0.03516,0 c 0.932926,-0.01931 1.988643,-0.375341 2.894531,-1.044922 0.868844,0.641998 1.884729,0.978516 2.763672,0.978516 l 5.277344,0.07227 a 1.70017,1.70017 0 0 0 1.720703,-1.607422 c 0.04674,-0.855861 -0.118318,-1.946458 -0.765625,-3.177735 -0.647308,-1.231277 -1.853535,-2.518495 -3.712891,-3.224609 a 1.70017,1.70017 0 0 0 -0.05078,-0.01758 c -0.155373,-0.05356 -0.05618,-0.0023 -0.154297,-0.04883 1.20751,-3.787778 1.820775,-7.853765 1.789062,-11.398438 a 1.70017,1.70017 0 0 0 0,-0.03125 C 43.216808,21.722826 41.583187,16.642618 38.674339,13.1301 a 1.70017,1.70017 0 0 0 -0.01172,-0.01563 c -0.57921,-0.682751 -0.660534,-1.116288 -0.537108,-1.882813 a 1.70017,1.70017 0 0 0 0.0059,-0.02734 C 38.38527,9.4448555 38.910834,7.571133 39.607933,6.3625215 l -0.02539,0.039062 c 0.376146,-0.6125391 0.666973,-1.1072292 0.875,-1.6679687 C 40.665571,4.1728754 40.87749,3.2233405 40.234887,2.3742398 39.592284,1.5251391 38.784704,1.4758649 38.207543,1.4465054 Z M 12.266136,10.901584 c -0.85085,-0.01429 -1.73062,0.147645 -2.5839841,0.535156 a 1.7,1.7 0 0 0 -0.8457032,2.25 1.7,1.7 0 0 0 2.2519533,0.845703 c 0.633731,-0.287776 1.65783,-0.238166 2.251953,0.01563 a 1.7,1.7 0 0 0 2.230469,-0.896484 1.7,1.7 0 0 0 -0.894531,-2.230469 c -0.737189,-0.314904 -1.559307,-0.505243 -2.410157,-0.519531 z" fill="#008055"/>
</svg>
