<svg xmlns="http://www.w3.org/2000/svg" width="48" height="48">
	<path d="M 7.4687935,2.2348667 C 6.5020802,2.2715963 5.5371494,2.5659698 4.6836371,3.1333042 4.114629,3.5115271 3.637024,3.9843049 3.2617621,4.5161167 2.1359771,6.1115533 1.9201475,8.2537803 2.8418403,10.084476 a 1.0999505,1.1000495 84.998082 0 0 1.359375,0.537109 1.0999505,1.1000495 84.998082 0 0 0.3203124,1.425781 C 6.7408012,13.642299 9.8220025,13.326577 11.671919,11.314945 13.521835,9.3033123 13.57997,6.2052303 11.804731,4.1274448 10.695207,2.8288288 9.0799825,2.1736506 7.4687935,2.2348667 Z m 10.8789065,0 c -0.966934,0.036993 -1.931644,0.3330562 -2.785156,0.9003906 -0.569008,0.3782229 -1.044661,0.8490469 -1.419922,1.3808594 -1.125785,1.5954366 -1.339662,3.7376636 -0.417969,5.5683593 a 1.0999505,1.1000495 84.998082 0 0 1.357422,0.537109 1.0999505,1.1000495 84.998082 0 0 0.31836,1.427734 c 2.219273,1.594933 5.30438,1.277258 7.154296,-0.734374 C 24.404647,9.3033123 24.46083,6.2032773 22.685591,4.1254917 21.576066,2.8268757 19.959257,2.1732123 18.3477,2.2348667 Z m 21.755859,0 c -0.96645,0.03695 -1.92969,0.3330563 -2.783203,0.9003906 -0.569008,0.3782235 -1.048566,0.8490473 -1.423828,1.3808594 -1.125785,1.5954366 -1.339661,3.7376626 -0.417969,5.5683593 a 1.0999505,1.1000495 84.998082 0 0 1.357422,0.539062 1.0999505,1.1000495 84.998082 0 0 0.320313,1.425781 c 2.219273,1.594934 5.302428,1.279212 7.152344,-0.732421 C 46.158553,9.3052653 46.214736,6.2032773 44.439497,4.1254917 43.329973,2.8268756 41.71431,2.1732829 40.103559,2.2348667 Z M 7.5586375,4.4262729 c 0.954996,-0.038083 1.909356,0.3507336 2.5742185,1.1289064 1.06378,1.245076 1.028424,3.066079 -0.08008,4.271484 C 8.9442735,11.032068 7.1345895,11.217946 5.8047289,10.26221 A 1.0999505,1.1000495 84.998082 0 0 4.7871527,10.123538 1.0999505,1.1000495 84.998082 0 0 4.806684,9.0961953 C 4.0702756,7.6335163 4.5365929,5.8718883 5.900434,4.9653353 6.4118744,4.625378 6.9856395,4.449123 7.5586375,4.4262729 Z m 10.8808595,0 c 0.954996,-0.038083 1.909356,0.3526871 2.574219,1.1308594 1.06378,1.245076 1.030376,3.064126 -0.07813,4.269531 -1.108502,1.2054057 -2.920139,1.3912827 -4.25,0.4355467 a 1.0999505,1.1000495 84.998082 0 0 -1.017578,-0.140625 1.0999505,1.1000495 84.998082 0 0 0.01953,-1.0253897 c -0.736408,-1.462679 -0.270091,-3.224307 1.09375,-4.13086 0.511441,-0.339957 1.085205,-0.5162123 1.658203,-0.5390624 z m 21.753906,0 c 0.954996,-0.038083 1.909356,0.352687 2.574219,1.1308594 1.063779,1.245076 1.030377,3.064125 -0.07813,4.269531 -1.108502,1.2054047 -2.920139,1.3912817 -4.25,0.4355467 a 1.0999505,1.1000495 84.998082 0 0 -1.019531,-0.138672 1.0999505,1.1000495 84.998082 0 0 0.02148,-1.0273427 c -0.736408,-1.462679 -0.268138,-3.224306 1.095703,-4.13086 0.511441,-0.3399572 1.083253,-0.5162123 1.65625,-0.5390624 z M 18.564497,5.8715853 a 1.7760766,1.7759224 0 0 0 -1.777344,1.775391 1.7760766,1.7759224 0 0 0 1.777344,1.777343 1.7760766,1.7759224 0 0 0 1.775391,-1.777343 1.7760766,1.7759224 0 0 0 -1.775391,-1.775391 z m 21.753906,0 a 1.7760766,1.7759224 0 0 0 -1.77539,1.775391 1.7760766,1.7759224 0 0 0 1.77539,1.777343 1.7760766,1.7759224 0 0 0 1.775391,-1.777343 1.7760766,1.7759224 0 0 0 -1.775391,-1.775391 z m -21.96875,7.2441407 c -0.96645,0.03695 -1.931644,0.333056 -2.785156,0.90039 -0.569008,0.378223 -1.046613,0.849048 -1.421875,1.38086 -1.125785,1.595436 -1.341615,3.737663 -0.419922,5.568359 a 1.0999505,1.1000495 84.998082 0 0 1.357422,0.539063 1.0999505,1.1000495 84.998082 0 0 0.322266,1.425781 c 2.219273,1.594933 5.302428,1.279211 7.152343,-0.732422 1.849916,-2.011633 1.906099,-5.113621 0.13086,-7.191406 -1.109525,-1.298616 -2.725187,-1.952209 -4.335938,-1.890625 z m 10.873047,0 c -0.966713,0.03673 -1.931644,0.331103 -2.785156,0.898437 -0.569008,0.378223 -1.046613,0.849048 -1.421875,1.38086 -1.125785,1.595436 -1.339662,3.739616 -0.417969,5.570312 a 1.0999505,1.1000495 84.998082 0 0 1.355469,0.53711 1.0999505,1.1000495 84.998082 0 0 0.320312,1.425781 c 2.219274,1.594933 5.304381,1.281164 7.154297,-0.730469 1.849917,-2.011632 1.906098,-5.111668 0.13086,-7.189453 C 32.449113,13.709688 30.833889,13.05451 29.2227,13.115726 Z m -10.783203,2.191406 c 0.954996,-0.03808 1.909356,0.352687 2.574219,1.130859 1.06378,1.245076 1.030376,3.064126 -0.07813,4.269532 -1.108503,1.205405 -2.920139,1.391282 -4.25,0.435546 a 1.0999505,1.1000495 84.998082 0 0 -1.019532,-0.138671 1.0999505,1.1000495 84.998082 0 0 0.02149,-1.027344 c -0.736408,-1.462678 -0.270091,-3.224306 1.09375,-4.130859 0.51144,-0.339958 1.085205,-0.516213 1.658203,-0.539063 z m 10.873047,0 c 0.954558,-0.03845 1.907403,0.350734 2.572265,1.128906 1.06378,1.245076 1.030377,3.066079 -0.07812,4.271485 -1.108503,1.205405 -2.918187,1.391282 -4.248047,0.435546 a 1.0999505,1.1000495 84.998082 0 0 -1.017579,-0.138671 1.0999505,1.1000495 84.998082 0 0 0.02148,-1.027344 c -0.736408,-1.462678 -0.272044,-3.222353 1.091797,-4.128906 0.51144,-0.339958 1.085468,-0.517945 1.658204,-0.541016 z m 0.125,1.445313 a 1.7760766,1.7759224 0 0 0 -1.777344,1.77539 1.7760766,1.7759224 0 0 0 1.777344,1.777344 1.7760766,1.7759224 0 0 0 1.775391,-1.777344 1.7760766,1.7759224 0 0 0 -1.775391,-1.77539 z m -11.087891,7.30664 c -0.966934,0.03699 -1.933597,0.333056 -2.787109,0.900391 -0.569008,0.378222 -1.04466,0.849047 -1.419922,1.380859 -1.125785,1.595436 -1.339661,3.737663 -0.417969,5.56836 a 1.0999505,1.1000495 84.998082 0 0 1.355469,0.537109 1.0999505,1.1000495 84.998082 0 0 0.320313,1.427734 c 2.219273,1.594933 5.30438,1.277258 7.154296,-0.734375 1.849916,-2.011633 1.906099,-5.111667 0.13086,-7.189453 -1.109525,-1.298616 -2.724381,-1.952279 -4.335938,-1.890625 z m 21.753906,0 c -0.966713,0.03673 -1.931644,0.331103 -2.785156,0.898438 -0.569008,0.378223 -1.04466,0.851 -1.419922,1.382812 -1.125785,1.595436 -1.341614,3.737663 -0.419922,5.56836 a 1.0999505,1.1000495 84.998082 0 0 1.355469,0.537109 1.0999505,1.1000495 84.998082 0 0 0.322266,1.425781 c 2.219274,1.594934 5.302428,1.281164 7.152344,-0.730469 1.849915,-2.011633 1.906098,-5.11362 0.130859,-7.191406 -1.109524,-1.298616 -2.724749,-1.951841 -4.335938,-1.890625 z m -21.664062,2.191406 c 0.954558,-0.03845 1.907403,0.350734 2.572266,1.128907 1.063779,1.245075 1.030377,3.066078 -0.07813,4.271484 -1.108503,1.205405 -2.918186,1.391282 -4.248047,0.435547 a 1.0999505,1.1000495 84.998082 0 0 -1.019532,-0.138672 1.0999505,1.1000495 84.998082 0 0 0.02149,-1.027344 c -0.736408,-1.462678 -0.268138,-3.224306 1.095703,-4.130859 0.511441,-0.339957 1.083515,-0.515992 1.65625,-0.539063 z m 21.753906,0 c 0.954558,-0.03845 1.909357,0.350734 2.574219,1.128907 1.063781,1.245076 1.028424,3.066079 -0.08008,4.271484 -1.108502,1.205406 -2.918186,1.391283 -4.248047,0.435547 a 1.0999505,1.1000495 84.998082 0 0 -1.017578,-0.140625 1.0999505,1.1000495 84.998082 0 0 0.01953,-1.025391 c -0.736408,-1.462678 -0.268139,-3.224307 1.095703,-4.130859 0.511441,-0.339958 1.083516,-0.515992 1.65625,-0.539063 z m -21.628906,1.445313 a 1.7760766,1.7759224 0 0 0 -1.777344,1.775391 1.7760766,1.7759224 0 0 0 1.777344,1.77539 1.7760766,1.7759224 0 0 0 1.775391,-1.77539 1.7760766,1.7759224 0 0 0 -1.775391,-1.775391 z m 21.753906,0 a 1.7760766,1.7759224 0 0 0 -1.77539,1.775391 1.7760766,1.7759224 0 0 0 1.77539,1.77539 1.7760766,1.7759224 0 0 0 1.775391,-1.77539 1.7760766,1.7759224 0 0 0 -1.775391,-1.775391 z M 7.4687935,34.939945 c -0.9667133,0.03673 -1.9316442,0.331103 -2.7851564,0.898437 -0.5690086,0.378223 -1.0466136,0.851 -1.421875,1.382813 -1.1257849,1.595436 -1.3416145,3.737662 -0.4199218,5.568359 a 1.0999505,1.1000495 84.998082 0 0 1.3574218,0.537109 1.0999505,1.1000495 84.998082 0 0 0.3203125,1.425782 c 2.2192733,1.594933 5.3024269,1.27921 7.1523444,-0.732422 1.849915,-2.011633 1.908051,-5.109715 0.132812,-7.1875 -1.109524,-1.298616 -2.7247485,-1.953794 -4.3359375,-1.892578 z m 21.7539065,0 c -0.966713,0.03673 -1.931644,0.331103 -2.785156,0.898437 -0.569008,0.378223 -1.046613,0.849047 -1.421875,1.380859 -1.125785,1.595437 -1.339661,3.739616 -0.417969,5.570313 a 1.0999505,1.1000495 84.998082 0 0 1.357422,0.537109 1.0999505,1.1000495 84.998082 0 0 0.320313,1.425782 c 2.219273,1.594933 5.300474,1.279211 7.15039,-0.732422 1.849916,-2.011633 1.908051,-5.109715 0.132813,-7.1875 -1.109525,-1.298616 -2.724749,-1.953795 -4.335938,-1.892578 z m 10.880859,0 c -0.966713,0.03673 -1.931644,0.331103 -2.785156,0.898437 -0.569008,0.378223 -1.04466,0.849047 -1.419922,1.380859 -1.125785,1.595437 -1.341615,3.739617 -0.419922,5.570313 a 1.0999505,1.1000495 84.998082 0 0 1.355469,0.539062 1.0999505,1.1000495 84.998082 0 0 0.322266,1.425782 c 2.219274,1.594932 5.302427,1.27921 7.152344,-0.732422 1.849915,-2.011633 1.906098,-5.111668 0.130859,-7.189453 -1.109524,-1.298616 -2.724749,-1.953795 -4.335938,-1.892578 z M 7.5586375,37.131351 c 0.954996,-0.03808 1.907403,0.350734 2.5722655,1.128906 1.063781,1.245077 1.030377,3.066078 -0.07813,4.271484 -1.1085015,1.205406 -2.9201385,1.391283 -4.2500003,0.435547 a 1.0999505,1.1000495 84.998082 0 0 -1.01562,-0.138672 1.0999505,1.1000495 84.998082 0 0 0.019531,-1.027343 c -0.7364083,-1.462678 -0.2700915,-3.224306 1.09375,-4.13086 0.5114406,-0.339957 1.0852055,-0.516212 1.6582035,-0.539062 z m 21.7539065,0 c 0.954558,-0.03845 1.907402,0.350734 2.572265,1.128906 1.06378,1.245076 1.030377,3.066079 -0.07812,4.271484 -1.108503,1.205405 -2.918186,1.391283 -4.248047,0.435547 a 1.0999505,1.1000495 84.998082 0 0 -1.017579,-0.138672 1.0999505,1.1000495 84.998082 0 0 0.02148,-1.027343 c -0.736408,-1.462678 -0.270092,-3.222353 1.09375,-4.128907 0.51144,-0.339957 1.083515,-0.517945 1.65625,-0.541015 z m 10.880859,0 c 0.954996,-0.03808 1.909357,0.352687 2.574219,1.130859 1.063781,1.245076 1.030377,3.064126 -0.07813,4.269531 -1.108502,1.205406 -2.920139,1.391284 -4.25,0.435547 a 1.0999505,1.1000495 84.998082 0 0 -1.017578,-0.140625 1.0999505,1.1000495 84.998082 0 0 0.02148,-1.027344 c -0.736408,-1.462678 -0.272044,-3.222353 1.091797,-4.128906 0.511441,-0.339957 1.085206,-0.516212 1.658203,-0.539062 z M 7.6816845,38.576663 a 1.7760766,1.7759224 0 0 0 -1.7753911,1.775391 1.7760766,1.7759224 0 0 0 1.7753911,1.775391 1.7760766,1.7759224 0 0 0 1.777343,-1.775391 1.7760766,1.7759224 0 0 0 -1.777343,-1.775391 z m 21.7558595,0 a 1.7760766,1.7759224 0 0 0 -1.777344,1.775391 1.7760766,1.7759224 0 0 0 1.777344,1.775391 1.7760766,1.7759224 0 0 0 1.775391,-1.775391 1.7760766,1.7759224 0 0 0 -1.775391,-1.775391 z" fill="#008055"/>
</svg>
