<svg xmlns="http://www.w3.org/2000/svg" width="48" height="48">
	<path d="m 16.545899,1.0723938 c -1.32409,-0.012841 -2.623457,0.4561001 -3.634766,1.3164063 -0.539365,0.4588298 -0.997079,1.0286751 -1.332031,1.6972656 -1.266456,2.5279415 -0.306588,5.5578255 2.052734,7.0273443 a 1.5491016,1.5508979 84.999958 0 0 0.365235,0.287109 c 0.0024,0.0012 0.0034,0.0046 0.0059,0.0059 a 1.5491016,1.5508979 84.999958 0 0 0.04492,0.02148 1.5491016,1.5508979 84.999958 0 0 0.03711,0.01758 c 0.0055,0.0026 0.01212,0.0013 0.01758,0.0039 a 1.5491016,1.5508979 84.999958 0 0 0.441406,0.113281 c 2.600188,0.98353 5.592464,-0.09066 6.83789,-2.6289062 C 22.699478,6.2483792 21.58208,2.9618497 18.899455,1.6348976 18.144967,1.2616919 17.340394,1.0801025 16.54594,1.0723976 Z m 0.06445,3.0898438 c 0.306233,0.020214 0.613938,0.1015237 0.910156,0.2480469 1.184872,0.5860939 1.657847,1.9766236 1.076172,3.1621093 -0.581675,1.1854858 -1.97047,1.662214 -3.160156,1.0859376 a 1.5491016,1.5508979 84.999958 0 0 -0.0332,-0.017578 C 14.223344,8.0448829 13.763015,6.6514651 14.354493,5.4708314 14.798101,4.5853552 15.691654,4.1015943 16.610352,4.1622376 Z M 12.60449,13.185676 c -1.287092,0 -2.52173,0.445527 -3.3613295,1.318359 -0.839597,0.872832 -1.21289,2.063958 -1.21289,3.251953 V 31.20716 a 1.7,1.7 0 0 0 1.701172,1.701172 1.7,1.7 0 0 0 1.6992185,-1.701172 V 17.755988 c 0,-0.515705 0.131896,-0.757539 0.263672,-0.894531 0.131777,-0.136993 0.33301,-0.275391 0.910157,-0.275391 h 8.095703 c 0.73025,0 0.875937,0.151831 0.984375,0.277344 0.108437,0.125512 0.234375,0.423251 0.234375,0.939453 v 4.916016 c 0,4.966712 3.61219,8.921875 7.796875,8.921875 h 5.177734 c 0.800465,0 1.09223,0.184374 1.287109,0.396484 0.19488,0.21211 0.388672,0.628525 0.388672,1.441406 v 2.353516 a 1.7,1.7 0 0 0 1.701172,1.701172 1.7,1.7 0 0 0 1.699219,-1.701172 v -2.353516 c 0,-1.383619 -0.359351,-2.734523 -1.285156,-3.742187 -0.925806,-1.007665 -2.321021,-1.494141 -3.791016,-1.494141 h -5.177734 c -1.857076,0 -4.396485,-2.247749 -4.396485,-5.523437 v -4.916016 c 0,-1.060698 -0.251449,-2.223347 -1.0625,-3.162109 -0.81105,-0.938763 -2.124144,-1.455078 -3.55664,-1.455078 z m 20.419921,5.417968 c -1.248419,0.04945 -2.422099,0.651889 -3.193359,1.621094 -0.342781,0.430758 -0.606085,0.934714 -0.761719,1.494141 -0.594509,2.136977 0.610619,4.339809 2.664063,5.095703 a 1.3991815,1.4008181 85.00015 0 0 0.220703,0.115234 c 0.01788,0.0054 0.02887,0.01828 0.04688,0.02344 a 1.3991815,1.4008181 85.00015 0 0 0.07227,0.01758 1.3991815,1.4008181 85.00015 0 0 0.07031,0.01953 c 0.01734,0.0043 0.03343,-2.03e-4 0.05078,0.0039 a 1.3991815,1.4008181 85.00015 0 0 0.01172,0.002 1.3991815,1.4008181 85.00015 0 0 0.242188,0.0078 c 2.155153,0.371894 4.301779,-0.928513 4.859375,-3.074219 0.584177,-2.247995 -0.776176,-4.581009 -3.021485,-5.183594 -0.420995,-0.112984 -0.845579,-0.159061 -1.261719,-0.142578 z m 0.238282,2.794922 c 0.09758,0.0067 0.197937,0.02228 0.296875,0.04883 0.791503,0.212419 1.240986,0.985282 1.035156,1.777344 -0.205831,0.792062 -0.974518,1.251619 -1.769531,1.052734 a 1.3991815,1.4008181 85.00015 0 0 -0.03125,-0.0078 1.3991815,1.4008181 85.00015 0 0 -0.01953,-0.0059 c -0.787761,-0.225891 -1.225201,-1.008445 -1.005859,-1.796874 0.109671,-0.394216 0.358702,-0.701788 0.679688,-0.884766 0.240738,-0.137234 0.521721,-0.20357 0.814453,-0.183594 z m -11.794922,6.84375 a 1.7,1.7 0 0 0 -1.699216,1.701172 v 3.310547 c 0,0.09706 -0.0026,0.08786 -0.0059,0.136719 -0.05539,0.0064 -0.06907,0.01367 -0.175782,0.01367 h -7.175781 a 1.7,1.7 0 0 0 -1.701172,1.701171 1.7,1.7 0 0 0 1.701172,1.699219 h 7.175781 c 0.815487,0 1.761554,-0.132103 2.539063,-0.833984 0.777509,-0.701881 1.041016,-1.747623 1.041016,-2.716797 v -3.310545 a 1.7,1.7 0 0 0 -1.699219,-1.701172 z m 7.839844,4.363281 a 1.7,1.7 0 0 0 -1.699219,1.701172 v 3.396485 c 0,0.753183 0.119113,1.680269 0.865234,2.375 0.746122,0.694731 1.598693,0.742187 2.291016,0.742187 h 2.671875 v 4.40625 a 1.7,1.7 0 0 0 1.701172,1.701172 1.7,1.7 0 0 0 1.699218,-1.701172 V 40.5138 c 0,-0.806538 -0.129134,-1.776097 -0.933593,-2.457031 C 35.098859,37.375835 34.310181,37.42005 33.717771,37.42005 H 31.00879 v -3.113281 a 1.7,1.7 0 0 0 -1.701172,-1.701172 z m -15.085938,4.96875 a 1.7,1.7 0 0 0 -1.699219,1.699219 v 5.953125 a 1.7,1.7 0 0 0 1.699219,1.701172 1.7,1.7 0 0 0 1.701172,-1.701172 V 39.273566 A 1.7,1.7 0 0 0 14.22168,37.574347 Z m 4.695313,0 a 1.7,1.7 0 0 0 -1.699219,1.699219 v 5.953125 a 1.7,1.7 0 0 0 1.699219,1.701172 1.7,1.7 0 0 0 1.699218,-1.701172 V 39.273566 A 1.7,1.7 0 0 0 18.91699,37.574347 Z m 11.667968,3.847657 a 1.7,1.7 0 0 0 -1.699218,1.699218 v 2.105469 a 1.7,1.7 0 0 0 1.699218,1.701172 1.7,1.7 0 0 0 1.699219,-1.701172 v -2.105469 a 1.7,1.7 0 0 0 -1.699219,-1.699218 z" fill="#008055"/>
</svg>
