<svg xmlns="http://www.w3.org/2000/svg" width="48" height="48">
	<path d="m 13.989258,3.9736326 c -0.824676,0 -1.638101,0.27119 -2.230469,0.841796 -0.592368,0.570606 -0.910156,1.409488 -0.910156,2.296875 v 4.4218754 c 0,0.856115 0.184733,1.701911 0.732422,2.378907 0.547688,0.676995 1.45249,1.058593 2.408203,1.058593 a 1.1,1.1 0 0 0 1.021484,-0.695312 1.1,1.1 0 0 0 1.021485,0.695312 h 2.667968 c 0.912644,0 1.773289,-0.398268 2.324219,-1.048828 0.55093,-0.650559 0.804688,-1.499951 0.804688,-2.388672 V 7.1123036 c 0,-0.838654 -0.230919,-1.671209 -0.816407,-2.273437 -0.585487,-0.602228 -1.433562,-0.865234 -2.3125,-0.865234 z m 11.201172,0 c -0.824675,0 -1.638101,0.27119 -2.230469,0.841796 -0.592368,0.570606 -0.910156,1.409488 -0.910156,2.296875 v 4.4218754 c 0,0.856118 0.184733,1.701913 0.732422,2.378907 0.547688,0.676993 1.452492,1.058593 2.408203,1.058593 a 1.1,1.1 0 0 0 1.021484,-0.695312 1.1,1.1 0 0 0 1.021484,0.695312 h 2.667969 c 0.912644,0 1.773289,-0.398268 2.324219,-1.048828 0.55093,-0.650559 0.804687,-1.499951 0.804687,-2.388672 V 7.1123036 c 0,-0.838654 -0.230918,-1.671209 -0.816406,-2.273437 -0.585487,-0.602228 -1.433563,-0.865234 -2.3125,-0.865234 z m 11.173828,0 c -0.824672,0 -1.638101,0.271192 -2.230469,0.841796 -0.592368,0.570605 -0.910156,1.409485 -0.910156,2.296875 v 4.4218754 c 0,0.856118 0.184733,1.701913 0.732422,2.378907 0.54769,0.676993 1.452492,1.058593 2.408203,1.058593 a 1.1,1.1 0 0 0 1.021484,-0.695312 1.1,1.1 0 0 0 1.021485,0.695312 h 2.667968 c 0.912644,0 1.773291,-0.398267 2.324219,-1.048828 0.550928,-0.65056 0.804688,-1.499954 0.804688,-2.388672 V 7.1123036 c 0,-0.838654 -0.23092,-1.671209 -0.816407,-2.273437 -0.585486,-0.602228 -1.433565,-0.865234 -2.3125,-0.865234 z m -22.375,2.201171 h 4.710937 c 0.479442,0 0.644644,0.106922 0.734375,0.199219 0.08973,0.0923 0.195313,0.278835 0.195313,0.738281 v 4.4218754 c 0,0.46938 -0.134529,0.788932 -0.285156,0.966797 -0.150627,0.177866 -0.304145,0.269531 -0.644532,0.269531 h -2.667968 a 1.1,1.1 0 0 0 -1.023438,0.69336 1.1,1.1 0 0 0 -1.019531,-0.69336 c -0.463086,0 -0.579735,-0.09495 -0.697266,-0.240234 -0.117532,-0.14528 -0.24414,-0.469308 -0.24414,-0.996094 V 7.1123036 c 0,-0.404812 0.108104,-0.585543 0.238281,-0.710937 0.130177,-0.125394 0.3383,-0.226563 0.703125,-0.226563 z m 11.201172,0 h 4.710937 c 0.479442,0 0.646597,0.106922 0.736328,0.199219 0.08973,0.0923 0.19336,0.278835 0.19336,0.738281 v 4.4218754 c 0,0.46938 -0.13453,0.788932 -0.285157,0.966797 -0.150627,0.177866 -0.304144,0.269531 -0.644531,0.269531 h -2.667969 a 1.1,1.1 0 0 0 -1.023437,0.69336 1.1,1.1 0 0 0 -1.019531,-0.69336 c -0.463079,0 -0.579732,-0.09495 -0.697266,-0.240234 -0.117534,-0.145281 -0.242187,-0.469311 -0.242187,-0.996094 V 7.1123036 c 0,-0.404812 0.106152,-0.585543 0.236328,-0.710937 0.130176,-0.125394 0.338301,-0.226563 0.703125,-0.226563 z m 11.173828,0 h 4.710937 c 0.479436,0 0.644644,0.106922 0.734375,0.199219 0.08973,0.0923 0.195313,0.278835 0.195313,0.738281 v 4.4218754 c 0,0.469383 -0.134532,0.788933 -0.285156,0.966797 -0.150625,0.177865 -0.304145,0.269531 -0.644532,0.269531 h -2.667968 a 1.1,1.1 0 0 0 -1.023438,0.69336 1.1,1.1 0 0 0 -1.019531,-0.69336 c -0.463079,0 -0.579732,-0.09495 -0.697266,-0.240234 -0.117533,-0.145281 -0.24414,-0.469311 -0.24414,-0.996094 V 7.1123036 c 0,-0.40481 0.108102,-0.585541 0.238281,-0.710937 0.130178,-0.125396 0.338307,-0.226563 0.703125,-0.226563 z m 0,8.8867194 c -0.824672,0 -1.638101,0.271193 -2.230469,0.841797 -0.592368,0.570604 -0.910156,1.409485 -0.910156,2.296875 v 4.421875 c 0,0.856117 0.184716,1.701934 0.732422,2.378906 0.547705,0.676973 1.452519,1.056641 2.408203,1.056641 a 1.1,1.1 0 0 0 1.021484,-0.69336 1.1,1.1 0 0 0 1.021485,0.69336 h 2.667968 c 0.912673,0 1.773306,-0.396293 2.324219,-1.046875 0.550914,-0.650583 0.804688,-1.499954 0.804688,-2.388672 v -4.423828 c 0,-0.838619 -0.23092,-1.669279 -0.816407,-2.271485 -0.585486,-0.602205 -1.433565,-0.865234 -2.3125,-0.865234 z m 0,2.199219 h 4.710937 c 0.479436,0 0.644644,0.106925 0.734375,0.199219 0.08973,0.09229 0.195313,0.2789 0.195313,0.738281 v 4.423828 c 0,0.469382 -0.134516,0.788904 -0.285156,0.966797 -0.150639,0.177892 -0.304173,0.269531 -0.644532,0.269531 h -2.667968 a 1.1,1.1 0 0 0 -1.023438,0.693359 1.1,1.1 0 0 0 -1.019531,-0.693359 c -0.463105,0 -0.579749,-0.09694 -0.697266,-0.242187 -0.117517,-0.145253 -0.24414,-0.467358 -0.24414,-0.994141 v -4.421875 c 0,-0.40481 0.108102,-0.587495 0.238281,-0.712891 0.130178,-0.125395 0.338307,-0.226562 0.703125,-0.226562 z m -18.228516,4.681641 c -0.824676,0 -1.636147,0.27119 -2.228515,0.841796 -0.592369,0.570606 -0.910157,1.409488 -0.910157,2.296875 v 4.421875 c 0,0.856115 0.184734,1.701911 0.732422,2.378907 0.547689,0.676995 1.450536,1.05664 2.40625,1.05664 a 1.1,1.1 0 0 0 1.023438,-0.693359 1.1,1.1 0 0 0 1.021484,0.693359 h 2.667969 c 0.912672,0 1.773302,-0.396313 2.324219,-1.046875 0.550916,-0.650562 0.804687,-1.499986 0.804687,-2.388672 v -4.421875 c 0,-0.838654 -0.230917,-1.671209 -0.816406,-2.273437 -0.585488,-0.602228 -1.433563,-0.865234 -2.3125,-0.865234 z m 0,2.201171 h 4.712891 c 0.479442,0 0.644644,0.104969 0.734375,0.197266 0.08973,0.0923 0.195312,0.280788 0.195312,0.740234 v 4.421875 c 0,0.469315 -0.134515,0.788909 -0.285156,0.966797 -0.150641,0.177888 -0.304173,0.269531 -0.644531,0.269531 h -2.667969 a 1.1,1.1 0 0 0 -1.023437,0.69336 1.1,1.1 0 0 0 -1.021485,-0.69336 c -0.463085,0 -0.57778,-0.09495 -0.695312,-0.240234 -0.117531,-0.14528 -0.244141,-0.469308 -0.244141,-0.996094 v -4.421875 c 0,-0.404812 0.108104,-0.585543 0.238281,-0.710937 0.130176,-0.125394 0.336348,-0.226563 0.701172,-0.226563 z M 6.9345705,33.030273 c -0.824676,0 -1.636146,0.271169 -2.228516,0.841797 -0.59237,0.570628 -0.910156,1.407503 -0.910156,2.294922 v 4.423828 c 0,0.856117 0.184716,1.701934 0.732422,2.378906 0.547706,0.676973 1.450565,1.056641 2.40625,1.056641 a 1.1,1.1 0 0 0 1.021484,-0.69336 1.1,1.1 0 0 0 1.021485,0.69336 h 2.6679685 c 0.912672,0 1.773302,-0.398247 2.324219,-1.048828 0.550916,-0.650581 0.80664,-1.497999 0.80664,-2.386719 v -4.423828 c 0,-0.838619 -0.230937,-1.669254 -0.816406,-2.271485 -0.585469,-0.602229 -1.435489,-0.865234 -2.314453,-0.865234 z m 11.2011715,0 c -0.824676,0 -1.636146,0.271169 -2.228515,0.841797 -0.59237,0.570628 -0.910157,1.407503 -0.910157,2.294922 v 4.423828 c 0,0.856115 0.184717,1.701932 0.732422,2.378906 0.547705,0.676975 1.450563,1.056641 2.40625,1.056641 a 1.1,1.1 0 0 0 1.021485,-0.69336 1.1,1.1 0 0 0 1.023437,0.69336 h 2.667969 c 0.912672,0 1.773302,-0.398247 2.324219,-1.048828 0.550916,-0.650581 0.804687,-1.497999 0.804687,-2.386719 v -4.423828 c 0,-0.838619 -0.230936,-1.669254 -0.816406,-2.271485 -0.58547,-0.602229 -1.433535,-0.865234 -2.3125,-0.865234 z m 11.173828,0 c -0.824675,0 -1.636142,0.271171 -2.228515,0.841797 -0.592372,0.570626 -0.910157,1.4075 -0.910157,2.294922 v 4.423828 c 0,0.856117 0.184714,1.701933 0.732422,2.378906 0.547708,0.676973 1.450562,1.056641 2.40625,1.056641 a 1.1,1.1 0 0 0 1.021485,-0.69336 1.1,1.1 0 0 0 1.021484,0.69336 h 2.669922 c 0.912672,0 1.771352,-0.398246 2.322266,-1.048828 0.550913,-0.650583 0.80664,-1.498001 0.80664,-2.386719 v -4.423828 c 0,-0.838619 -0.230939,-1.669254 -0.816406,-2.271485 -0.585468,-0.602229 -1.433538,-0.865234 -2.3125,-0.865234 z M 6.9345705,35.229492 h 4.7109375 c 0.479416,0 0.646577,0.106899 0.736328,0.199219 0.08975,0.09232 0.193359,0.2789 0.193359,0.738281 v 4.423828 c 0,0.46938 -0.132562,0.788903 -0.283203,0.966797 -0.150641,0.177894 -0.306127,0.269531 -0.646484,0.269531 H 8.9775395 a 1.1,1.1 0 0 0 -1.021485,0.693359 1.1,1.1 0 0 0 -1.021484,-0.693359 c -0.463105,0 -0.579749,-0.09694 -0.697266,-0.242187 -0.117516,-0.145253 -0.242187,-0.467358 -0.242187,-0.994141 v -4.423828 c 0,-0.404882 0.106153,-0.58554 0.236328,-0.710938 0.130175,-0.125397 0.338301,-0.226562 0.703125,-0.226562 z m 11.2011715,0 h 4.712891 c 0.479416,0 0.644624,0.106899 0.734375,0.199219 0.08975,0.09232 0.195312,0.2789 0.195312,0.738281 v 4.423828 c 0,0.46938 -0.134515,0.788903 -0.285156,0.966797 -0.150641,0.177894 -0.304173,0.269531 -0.644531,0.269531 h -2.667969 a 1.1,1.1 0 0 0 -1.023437,0.693359 1.1,1.1 0 0 0 -1.021485,-0.693359 c -0.463112,0 -0.577797,-0.09694 -0.695312,-0.242187 -0.117516,-0.145251 -0.244141,-0.467356 -0.244141,-0.994141 v -4.423828 c 0,-0.404882 0.108106,-0.58554 0.238281,-0.710938 0.130176,-0.125397 0.336348,-0.226562 0.701172,-0.226562 z m 11.173828,0 h 4.712891 c 0.479408,0 0.644625,0.106899 0.734375,0.199219 0.08975,0.09232 0.193359,0.2789 0.193359,0.738281 v 4.423828 c 0,0.469382 -0.132564,0.788904 -0.283203,0.966797 -0.15064,0.177892 -0.304173,0.269531 -0.644531,0.269531 h -2.669922 a 1.1,1.1 0 0 0 -1.021484,0.693359 1.1,1.1 0 0 0 -1.021485,-0.693359 c -0.463112,0 -0.577795,-0.09694 -0.695312,-0.242187 -0.117517,-0.145253 -0.244141,-0.467358 -0.244141,-0.994141 v -4.423828 c 0,-0.404879 0.10615,-0.585539 0.236328,-0.710938 0.130178,-0.125398 0.338302,-0.226562 0.703125,-0.226562 z" fill="#008055"/>
</svg>
