<svg xmlns="http://www.w3.org/2000/svg" width="48" height="48">
	<path d="m 8.3994135,2.8876951 c -1.501444,0 -2.941444,0.491164 -3.986328,1.498047 -1.044884,1.006882 -1.615234,2.484583 -1.615234,4.103515 v 8.6796879 c 0,1.596485 0.347165,3.122792 1.3125,4.316406 0.965335,1.193614 2.53887,1.867187 4.289062,1.867187 a 1.6,1.6 0 0 0 1.599609,-1.599609 1.6,1.6 0 0 0 -1.599609,-1.599609 c -1.033428,0 -1.460976,-0.26148 -1.800781,-0.681641 -0.339805,-0.420161 -0.601563,-1.185119 -0.601563,-2.302734 V 8.4892571 c 0,-0.917267 0.263996,-1.43966 0.636719,-1.798828 0.372723,-0.359167 0.933319,-0.601562 1.765625,-0.601562 h 9.2441415 c 1.041867,0 1.539884,0.247923 1.841797,0.558593 0.301913,0.310671 0.539062,0.843639 0.539062,1.841797 v 8.6796879 c 0,1.027825 -0.292282,1.788639 -0.689453,2.257812 -0.397171,0.469173 -0.87857,0.726563 -1.691406,0.726563 h -5.236328 a 1.6,1.6 0 0 0 -1.59961,1.599609 1.6,1.6 0 0 0 1.59961,1.599609 h 5.236328 c 1.645554,0 3.153561,-0.702598 4.132812,-1.859374 0.979252,-1.156777 1.449219,-2.686644 1.449219,-4.324219 V 8.4892571 c 0,-1.549541 -0.422476,-3.019761 -1.445313,-4.072265 -1.022836,-1.052505 -2.513505,-1.529297 -4.136718,-1.529297 z m 21.9765635,0 c -1.501444,0 -2.941444,0.491164 -3.986329,1.498047 -1.044885,1.006882 -1.615234,2.484583 -1.615234,4.103515 v 8.6796879 c 0,1.596485 0.347164,3.122792 1.3125,4.316406 0.965335,1.193614 2.53887,1.867187 4.289063,1.867187 a 1.6,1.6 0 0 0 1.599609,-1.599609 1.6,1.6 0 0 0 -1.599609,-1.599609 c -1.033429,0 -1.460977,-0.26148 -1.800782,-0.681641 C 28.23539,19.051518 27.973633,18.28656 27.973633,17.168945 V 8.4892571 c 0,-0.917267 0.263995,-1.43966 0.636719,-1.798828 0.372723,-0.359167 0.933318,-0.601562 1.765625,-0.601562 h 9.24414 c 1.041866,0 1.541837,0.247923 1.84375,0.558593 0.301913,0.310671 0.539063,0.843639 0.539063,1.841797 v 8.6796879 c 0,1.027825 -0.294235,1.788639 -0.691407,2.257812 -0.397171,0.469173 -0.878571,0.726563 -1.691406,0.726563 h -5.234375 a 1.6,1.6 0 0 0 -1.601562,1.599609 1.6,1.6 0 0 0 1.601562,1.599609 h 5.234375 c 1.645553,0 3.155515,-0.702598 4.134766,-1.859374 0.97925,-1.156777 1.447265,-2.686644 1.447265,-4.324219 V 8.4892571 c 0,-1.549541 -0.422475,-3.019761 -1.445312,-4.072265 -1.022838,-1.052505 -2.513506,-1.529297 -4.136719,-1.529297 z m -17.259766,5.167969 c -0.770947,-0.0013 -1.55783,0.267265 -2.167969,0.839843 -0.610139,0.572579 -0.9902345,1.4536299 -0.9902345,2.4277349 a 1.2,1.2 0 0 0 1.1992195,1.199218 1.2,1.2 0 0 0 1.201171,-1.199218 c 0,-0.407546 0.1087,-0.561629 0.232422,-0.677735 0.123723,-0.116105 0.313948,-0.189816 0.521485,-0.189453 0.207536,3.63e-4 0.40028,0.0758 0.52539,0.19336 0.12511,0.117554 0.234375,0.271119 0.234375,0.673828 0,0.379454 -0.07398,0.514052 -0.263672,0.738281 -0.189692,0.224229 -0.549253,0.49334 -1.023437,0.808594 -0.948369,0.630507 -2.392901,1.525001 -3.0136725,3.355468 a 1.20012,1.20012 0 0 0 1.1367195,1.583985 h 4.75 a 1.2,1.2 0 0 0 1.199219,-1.199219 1.2,1.2 0 0 0 -1.199219,-1.201172 h -2.285156 c 0.241278,-0.176022 0.454415,-0.349695 0.742187,-0.541015 0.496717,-0.330234 1.047007,-0.69038 1.525391,-1.25586 0.478383,-0.56548 0.832031,-1.381017 0.832031,-2.289062 0,-0.972091 -0.381483,-1.8518419 -0.990234,-2.4238279 -0.608752,-0.571988 -1.395069,-0.842401 -2.166016,-0.84375 z m 21.833984,0.09766 c -1.846793,0 -3.427734,1.602513 -3.427734,3.6210939 v 2.855468 c 0,2.075035 1.598588,3.654297 3.427734,3.654297 1.78613,0 3.412428,-1.545704 3.425782,-3.646484 v -0.0039 -2.859374 c 0,-2.1148659 -1.673213,-3.6210939 -3.425782,-3.6210939 z m 0,2.3984369 c 0.457971,0 1.027344,0.283322 1.027344,1.222657 v 2.847656 c -0.0058,0.90742 -0.633975,1.261718 -1.027344,1.261718 -0.350335,0 -1.027343,-0.43794 -1.027343,-1.253906 v -2.855468 c 0,-0.87382 0.489117,-1.222657 1.027343,-1.222657 z M 8.3994135,24.64746 c -1.501444,0 -2.941445,0.491184 -3.986328,1.498047 -1.044883,1.006863 -1.615234,2.48462 -1.615234,4.103516 v 8.679687 c 0,1.596568 0.347155,3.12278 1.3125,4.316407 0.965345,1.193626 2.538889,1.867187 4.289062,1.867187 a 1.6,1.6 0 0 0 1.599609,-1.599609 1.6,1.6 0 0 0 -1.599609,-1.59961 c -1.033447,0 -1.460986,-0.261492 -1.800781,-0.68164 -0.339795,-0.420149 -0.601563,-1.185002 -0.601563,-2.302735 v -8.679687 c 0,-0.917204 0.263995,-1.439666 0.636719,-1.798828 0.372724,-0.359162 0.933319,-0.601563 1.765625,-0.601563 h 9.2441415 c 1.041886,0 1.539897,0.247955 1.841797,0.558594 0.301899,0.310639 0.539062,0.843699 0.539062,1.841797 v 8.679687 c 0,1.027887 -0.292292,1.78866 -0.689453,2.257813 -0.397161,0.469153 -0.878549,0.726562 -1.691406,0.726562 h -5.236328 a 1.6,1.6 0 0 0 -1.59961,1.59961 1.6,1.6 0 0 0 1.59961,1.599609 h 5.236328 c 1.645531,0 3.153549,-0.702603 4.132812,-1.859375 0.979262,-1.156772 1.449219,-2.686605 1.449219,-4.324219 v -8.679687 c 0,-1.549502 -0.422462,-3.019805 -1.445313,-4.072266 -1.02285,-1.052461 -2.513525,-1.529297 -4.136718,-1.529297 z m 21.9765635,0 c -1.501444,0 -2.941446,0.491184 -3.986329,1.498047 -1.044883,1.006863 -1.615234,2.48462 -1.615234,4.103516 v 8.679687 c 0,1.596568 0.347155,3.12278 1.3125,4.316407 0.965345,1.193626 2.53889,1.867187 4.289063,1.867187 a 1.6,1.6 0 0 0 1.599609,-1.599609 1.6,1.6 0 0 0 -1.599609,-1.59961 c -1.033448,0 -1.460987,-0.261492 -1.800782,-0.68164 -0.339796,-0.420149 -0.601562,-1.185002 -0.601562,-2.302735 v -8.679687 c 0,-0.917204 0.263994,-1.439666 0.636719,-1.798828 0.372723,-0.359162 0.933318,-0.601563 1.765625,-0.601563 h 9.24414 c 1.041887,0 1.541851,0.247955 1.84375,0.558594 0.301899,0.310639 0.539063,0.843699 0.539063,1.841797 v 8.679687 c 0,1.027887 -0.294247,1.78866 -0.691407,2.257813 -0.397159,0.469153 -0.878548,0.726562 -1.691406,0.726562 h -5.234375 a 1.6,1.6 0 0 0 -1.601562,1.59961 1.6,1.6 0 0 0 1.601562,1.599609 h 5.234375 c 1.645533,0 3.155504,-0.702603 4.134766,-1.859375 0.979261,-1.156772 1.447265,-2.686605 1.447265,-4.324219 v -8.679687 c 0,-1.549502 -0.422463,-3.019805 -1.445312,-4.072266 -1.02285,-1.052461 -2.513526,-1.529297 -4.136719,-1.529297 z m -17.394532,5.236328 a 1.2,1.2 0 0 0 -1.068359,0.677735 l -2.5273445,5.212891 a 1.2,1.2 0 0 0 -0.00586,0.0098 l -0.023438,0.05078 a 1.2,1.2 0 0 0 -0.121093,0.523438 1.2,1.2 0 0 0 0.404297,0.896484 1.2,1.2 0 0 0 0.00976,0.0078 1.2,1.2 0 0 0 0.228516,0.15625 1.2,1.2 0 0 0 0.035156,0.01758 1.2,1.2 0 0 0 0.078125,0.03516 1.2,1.2 0 0 0 0.00977,0.0039 1.2,1.2 0 0 0 0.167968,0.05078 1.2,1.2 0 0 0 0.0039,0.002 1.2,1.2 0 0 0 0.263671,0.0293 1.2,1.2 0 0 0 0.01172,0 h 2.863281 v 1.353515 a 1.2,1.2 0 0 0 1.199219,1.199219 1.2,1.2 0 0 0 1.199219,-1.199219 v -5.072265 a 1.2,1.2 0 0 0 -1.199219,-1.199219 1.2,1.2 0 0 0 -1.199219,1.199219 v 1.31829 h -0.960937 l 1.720703,-3.548828 a 1.2,1.2 0 0 0 -0.556641,-1.603516 1.2,1.2 0 0 0 -0.533203,-0.121094 z m 21.964844,0.01367 c -0.65381,-0.0024 -1.321548,0.163348 -1.894531,0.589844 -0.572984,0.426496 -1.00586,1.184728 -1.00586,2.015625 0,0.864601 0.460088,1.6083 1.085938,2.210938 -0.136778,0.121412 -0.277013,0.178634 -0.40625,0.324218 -0.484868,0.546198 -0.869141,1.338603 -0.869141,2.246094 0,0.875725 0.47345,1.660587 1.082032,2.095703 0.60858,0.435117 1.315514,0.605748 2.009765,0.605469 0.694251,-2.79e-4 1.399603,-0.172408 2.007813,-0.607422 0.608209,-0.435014 1.082031,-1.218312 1.082031,-2.09375 0,-1.05712 -0.60884,-1.884899 -1.375,-2.511719 0.08687,-0.07443 0.17317,-0.107656 0.257812,-0.191406 0.48449,-0.479381 0.916016,-1.218384 0.916016,-2.078125 0,-0.828653 -0.432204,-1.580401 -1.001953,-2.005859 -0.56975,-0.425458 -1.234863,-0.597251 -1.888672,-0.59961 z m -0.0078,2.199219 c 0.243768,8.79e-4 0.476644,0.08487 0.580078,0.162109 0.103433,0.07724 0.11914,0.07549 0.11914,0.244141 0,0.214759 -0.04133,0.293697 -0.265625,0.515625 -0.104397,0.103297 -0.347035,0.251169 -0.521484,0.375 a 1.1,1.1 0 0 0 -0.0332,-0.02539 c -0.413638,-0.272099 -0.570313,-0.623897 -0.570313,-0.865235 0,-0.179352 0.01699,-0.175418 0.117188,-0.25 0.100199,-0.07458 0.330449,-0.157129 0.574219,-0.15625 z m -0.04688,4.001953 a 1.1,1.1 0 0 0 0.136718,0.08789 c 0.571042,0.306641 0.808594,0.6789 0.808594,1.097656 0,0.191263 -0.02197,0.205851 -0.160156,0.304688 -0.138188,0.09884 -0.429525,0.195191 -0.730469,0.195312 -0.300944,1.21e-4 -0.588747,-0.09483 -0.726562,-0.193359 -0.137817,-0.09853 -0.16211,-0.114066 -0.16211,-0.306641 0,-0.361258 0.08859,-0.532919 0.3125,-0.785156 0.108756,-0.122513 0.345804,-0.266758 0.521485,-0.40039 z" fill="#008055"/>
</svg>
