<svg xmlns="http://www.w3.org/2000/svg" width="48" height="48">
	<path d="m 5.9296875,3.024414 c -0.791438,0 -1.574294,0.261346 -2.146484,0.8125 -0.572191,0.551154 -0.878907,1.359647 -0.878907,2.210937 v 4.175782 c 0,0.817509 0.175962,1.629177 0.705079,2.283203 0.48964,0.605231 1.278641,0.951632 2.11914,1.001953 -0.721011,0.04109 -1.42209,0.290935 -1.945312,0.794922 -0.572191,0.551154 -0.878907,1.359647 -0.878907,2.210937 v 4.175782 c 0,0.817471 0.175943,1.63117 0.705079,2.285156 0.529133,0.653985 1.404274,1.021484 2.320312,1.021484 a 1.1,1.1 0 0 0 0.964844,-0.574219 1.1,1.1 0 0 0 0.964844,0.574219 h 2.5175775 c 0.877651,0 1.710856,-0.3843 2.242188,-1.011719 0.531331,-0.627417 0.77539,-1.444145 0.77539,-2.294921 v -4.175782 c 0,-0.802332 -0.222442,-1.604702 -0.789062,-2.1875 -0.521327,-0.536209 -1.259853,-0.782627 -2.029297,-0.820312 0.802291,-0.05362 1.552553,-0.409196 2.042969,-0.988281 0.531348,-0.627417 0.77539,-1.444112 0.77539,-2.294922 V 6.047851 c 0,-0.8024 -0.222421,-1.604682 -0.789062,-2.1875 -0.56664,-0.582817 -1.387537,-0.835937 -2.228516,-0.835937 z m 10.5761715,0 c -0.79144,0 -1.576247,0.261344 -2.148437,0.8125 -0.572191,0.551156 -0.876953,1.35965 -0.876953,2.210937 v 4.175782 c 0,0.817509 0.175963,1.629177 0.705078,2.283203 0.489642,0.605231 1.278641,0.951632 2.119141,1.001953 -0.721527,0.04097 -1.423882,0.290778 -1.947266,0.794922 -0.572191,0.551156 -0.876953,1.35965 -0.876953,2.210937 v 4.175782 c 0,0.817471 0.175943,1.63117 0.705078,2.285156 0.529135,0.653985 1.404274,1.021484 2.320312,1.021484 a 1.1,1.1 0 0 0 0.962891,-0.574219 1.1,1.1 0 0 0 0.964844,0.574219 h 2.519531 c 0.877651,0 1.710856,-0.3843 2.242188,-1.011719 0.531331,-0.627417 0.77539,-1.444145 0.77539,-2.294921 v -4.175782 c 0,-0.802335 -0.222442,-1.604704 -0.789062,-2.1875 -0.521327,-0.536207 -1.259856,-0.782626 -2.029297,-0.820312 0.80229,-0.05362 1.552552,-0.409196 2.042969,-0.988281 0.531346,-0.627417 0.77539,-1.444112 0.77539,-2.294922 V 6.047851 c 0,-0.802404 -0.222422,-1.604684 -0.789062,-2.1875 C 22.615,3.277536 21.7941,3.024414 20.953125,3.024414 Z m 21.125,0 c -0.791437,0 -1.574294,0.261346 -2.146484,0.8125 -0.57219,0.551154 -0.878906,1.359647 -0.878906,2.210937 v 4.175782 c 0,0.817509 0.175962,1.629177 0.705078,2.283203 0.489641,0.605231 1.278641,0.951632 2.119141,1.001953 -0.721011,0.04109 -1.42209,0.290935 -1.945313,0.794922 -0.57219,0.551154 -0.878906,1.359647 -0.878906,2.210937 v 4.175782 c 0,0.817471 0.175944,1.63117 0.705078,2.285156 0.529134,0.653985 1.404274,1.021484 2.320312,1.021484 a 1.1,1.1 0 0 0 0.962891,-0.574219 1.1,1.1 0 0 0 0.966797,0.574219 h 2.517578 c 0.877651,0 1.710859,-0.384298 2.242188,-1.011719 0.531328,-0.627419 0.77539,-1.444148 0.77539,-2.294921 v -4.175782 c 0,-0.802335 -0.222443,-1.604704 -0.789062,-2.1875 -0.521325,-0.536207 -1.259859,-0.782626 -2.029297,-0.820312 0.802292,-0.05362 1.552554,-0.409195 2.042969,-0.988281 0.531345,-0.627418 0.77539,-1.444115 0.77539,-2.294922 V 6.047851 c 0,-0.802404 -0.222423,-1.604684 -0.789062,-2.1875 C 43.740003,3.277536 42.919097,3.024414 42.078125,3.024414 Z M 5.9296875,5.223633 h 4.4472655 c 0.44152,0 0.579531,0.09704 0.650391,0.169922 0.07086,0.07288 0.166015,0.231098 0.166015,0.654296 v 4.175782 c 0,0.431489 -0.122886,0.718338 -0.253906,0.873047 -0.13102,0.154708 -0.257089,0.232421 -0.5625,0.232421 H 7.8593755 a 1.1,1.1 0 0 0 -0.964844,0.572266 1.1,1.1 0 0 0 -0.964844,-0.572266 c -0.423465,0 -0.510433,-0.08278 -0.609375,-0.205078 -0.098942,-0.122299 -0.216797,-0.412199 -0.216797,-0.90039 V 6.047851 c 0,-0.368709 0.095088,-0.521007 0.205078,-0.626953 0.10999,-0.105946 0.289492,-0.197265 0.621094,-0.197265 z m 10.5761715,0 h 4.447266 c 0.441513,0 0.579529,0.09704 0.650391,0.169922 0.07086,0.07288 0.166015,0.231102 0.166015,0.654296 v 4.175782 c 0,0.431489 -0.122886,0.718338 -0.253906,0.873047 -0.13102,0.154708 -0.257089,0.232421 -0.5625,0.232421 h -2.519531 a 1.1,1.1 0 0 0 -0.962891,0.572266 1.1,1.1 0 0 0 -0.964844,-0.572266 c -0.423465,0 -0.512385,-0.08278 -0.611328,-0.205078 -0.09894,-0.122299 -0.214844,-0.412199 -0.214844,-0.90039 V 6.047851 c 0,-0.368712 0.09509,-0.521008 0.205079,-0.626953 0.109988,-0.105944 0.289483,-0.197265 0.621093,-0.197265 z m 21.125,0 h 4.447266 c 0.441508,0 0.579529,0.09704 0.650391,0.169922 0.07086,0.07288 0.166015,0.231102 0.166015,0.654296 v 4.175782 c 0,0.431492 -0.122889,0.718339 -0.253906,0.873047 -0.131017,0.154707 -0.257089,0.232421 -0.5625,0.232421 h -2.517578 a 1.1,1.1 0 0 0 -0.964844,0.572266 1.1,1.1 0 0 0 -0.964844,-0.572266 c -0.423465,0 -0.510432,-0.08278 -0.609375,-0.205078 -0.09894,-0.122299 -0.216796,-0.412199 -0.216796,-0.90039 V 6.047851 c 0,-0.368709 0.09509,-0.521007 0.205078,-0.626953 0.109989,-0.105946 0.28949,-0.197265 0.621093,-0.197265 z M 6.8945315,12.956055 a 1.1,1.1 0 0 0 0.68164,0.535156 h -1.365234 a 1.1,1.1 0 0 0 0.683594,-0.535156 z m 10.5742185,0 a 1.1,1.1 0 0 0 0.681641,0.535156 h -1.363282 a 1.1,1.1 0 0 0 0.681641,-0.535156 z m 21.125,0 a 1.1,1.1 0 0 0 0.681641,0.535156 H 37.912109 A 1.1,1.1 0 0 0 38.59375,12.956055 Z M 5.9296875,15.69043 h 4.4472655 c 0.441491,0 0.579511,0.09702 0.650391,0.169921 0.07088,0.0729 0.166015,0.231229 0.166015,0.654297 v 4.175782 c 0,0.431423 -0.122871,0.718315 -0.253906,0.873047 -0.131035,0.15473 -0.25712,0.232421 -0.5625,0.232421 H 7.8593755 a 1.1,1.1 0 0 0 -0.964844,0.572266 1.1,1.1 0 0 0 -0.964844,-0.572266 c -0.423492,0 -0.510452,-0.08281 -0.609375,-0.205078 -0.098923,-0.122264 -0.216797,-0.412262 -0.216797,-0.90039 v -4.175782 c 0,-0.368709 0.095088,-0.521007 0.205078,-0.626953 0.10999,-0.105946 0.289492,-0.197265 0.621094,-0.197265 z m 10.5761715,0 h 4.447266 c 0.441485,0 0.57951,0.09702 0.650391,0.169921 0.07088,0.0729 0.166015,0.231232 0.166015,0.654297 v 4.175782 c 0,0.431423 -0.12287,0.718315 -0.253906,0.873047 -0.131037,0.15473 -0.25712,0.232421 -0.5625,0.232421 h -2.519531 a 1.1,1.1 0 0 0 -0.962891,0.572266 1.1,1.1 0 0 0 -0.964844,-0.572266 c -0.423491,0 -0.512405,-0.08281 -0.611328,-0.205078 -0.09892,-0.122264 -0.214844,-0.412262 -0.214844,-0.90039 v -4.175782 c 0,-0.368712 0.09509,-0.521008 0.205079,-0.626953 0.109988,-0.105944 0.289483,-0.197265 0.621093,-0.197265 z m 21.125,0 h 4.447266 c 0.441479,0 0.57951,0.09702 0.650391,0.169921 0.07088,0.0729 0.166015,0.231232 0.166015,0.654297 v 4.175782 c 0,0.431426 -0.122872,0.718316 -0.253906,0.873047 -0.131034,0.15473 -0.25712,0.232421 -0.5625,0.232421 h -2.517578 a 1.1,1.1 0 0 0 -0.964844,0.572266 1.1,1.1 0 0 0 -0.964844,-0.572266 c -0.423492,0 -0.510452,-0.08281 -0.609375,-0.205078 -0.09892,-0.122264 -0.216796,-0.412262 -0.216796,-0.90039 v -4.175782 c 0,-0.368709 0.09509,-0.521007 0.205078,-0.626953 0.109989,-0.105946 0.28949,-0.197265 0.621093,-0.197265 z m -31.7011715,8.3125 c -0.791438,0 -1.574294,0.261346 -2.146484,0.8125 -0.572191,0.551154 -0.878907,1.3616 -0.878907,2.21289 v 4.173828 c 0,0.817472 0.175979,1.63113 0.705079,2.285157 0.487689,0.602839 1.272612,0.94744 2.109374,1 -0.717561,0.04289 -1.414683,0.293187 -1.935546,0.794922 -0.572192,0.551175 -0.878907,1.361569 -0.878907,2.21289 v 4.175781 c 0,0.817509 0.175946,1.629199 0.705079,2.283203 0.529131,0.654005 1.404274,1.021485 2.320312,1.021485 a 1.1,1.1 0 0 0 0.964844,-0.572266 1.1,1.1 0 0 0 0.964844,0.572266 h 2.5175775 c 0.877682,0 1.710871,-0.384279 2.242188,-1.011719 0.531317,-0.62744 0.77539,-1.442192 0.77539,-2.292969 v -4.175781 c 0,-0.802366 -0.222442,-1.606633 -0.789062,-2.189453 -0.519121,-0.533961 -1.253625,-0.780938 -2.019532,-0.820313 0.798567,-0.05627 1.544842,-0.411585 2.033204,-0.988281 0.531317,-0.62742 0.77539,-1.444179 0.77539,-2.294922 V 27.02832 c 0,-0.802401 -0.222421,-1.606635 -0.789062,-2.189453 -0.56664,-0.582817 -1.387537,-0.835937 -2.228516,-0.835937 z m 10.5761715,0 c -0.79144,0 -1.576247,0.261344 -2.148437,0.8125 -0.572191,0.551155 -0.876953,1.361603 -0.876953,2.21289 v 4.173828 c 0,0.817472 0.175978,1.63113 0.705078,2.285157 0.48731,0.60237 1.271397,0.947004 2.107422,1 -0.717415,0.04311 -1.414984,0.293475 -1.935547,0.794922 -0.572191,0.551178 -0.876953,1.361572 -0.876953,2.21289 v 4.175781 c 0,0.817509 0.175946,1.629199 0.705078,2.283203 0.529132,0.654005 1.404274,1.021485 2.320312,1.021485 a 1.1,1.1 0 0 0 0.964844,-0.572266 1.1,1.1 0 0 0 0.962891,0.572266 h 2.519531 c 0.877682,0 1.710872,-0.384279 2.242188,-1.011719 0.531315,-0.62744 0.77539,-1.442192 0.77539,-2.292969 v -4.175781 c 0,-0.802369 -0.222442,-1.606635 -0.789062,-2.189453 -0.519121,-0.533959 -1.253628,-0.780938 -2.019532,-0.820313 0.798567,-0.05627 1.544841,-0.411585 2.033204,-0.988281 0.531317,-0.62742 0.77539,-1.444179 0.77539,-2.294922 V 27.02832 c 0,-0.802404 -0.222422,-1.606637 -0.789062,-2.189453 C 22.615,24.256052 21.7941,24.00293 20.953125,24.00293 Z m 10.548829,0 c -0.791441,0 -1.574295,0.261344 -2.146485,0.8125 -0.57219,0.551155 -0.878906,1.361603 -0.878906,2.21289 v 4.173828 c 0,0.817469 0.175978,1.631128 0.705078,2.285157 0.487688,0.602841 1.27261,0.947441 2.109375,1 -0.717563,0.04289 -1.414684,0.293185 -1.935547,0.794922 -0.572192,0.551178 -0.878906,1.361572 -0.878906,2.21289 v 4.175781 c 0,0.817506 0.175944,1.629197 0.705078,2.283203 0.529133,0.654008 1.404272,1.021485 2.320313,1.021485 a 1.1,1.1 0 0 0 0.964843,-0.572266 1.1,1.1 0 0 0 0.964844,0.572266 h 2.519531 c 0.877682,0 1.70892,-0.384278 2.240235,-1.011719 0.531314,-0.627441 0.77539,-1.442195 0.77539,-2.292969 v -4.175781 c 0,-0.802366 -0.222443,-1.606633 -0.789062,-2.189453 -0.519118,-0.533961 -1.251948,-0.780938 -2.017578,-0.820313 0.798299,-0.05627 1.54289,-0.411583 2.03125,-0.988281 0.531314,-0.627421 0.77539,-1.444182 0.77539,-2.294922 V 27.02832 c 0,-0.802401 -0.222425,-1.606635 -0.789062,-2.189453 C 33.163831,24.25605 32.344882,24.00293 31.503906,24.00293 Z M 5.9296875,26.204101 h 4.4472655 c 0.44152,0 0.579531,0.09509 0.650391,0.167969 0.07086,0.07288 0.166015,0.233051 0.166015,0.65625 v 4.173828 c 0,0.431357 -0.122855,0.718292 -0.253906,0.873047 -0.131051,0.154755 -0.257151,0.232422 -0.5625,0.232422 H 7.8593755 a 1.1,1.1 0 0 0 -0.964844,0.574219 1.1,1.1 0 0 0 -0.964844,-0.574219 c -0.423437,0 -0.510417,-0.08275 -0.609375,-0.205078 -0.098958,-0.122323 -0.216797,-0.412262 -0.216797,-0.900391 V 27.02832 c 0,-0.368709 0.095088,-0.52296 0.205078,-0.628906 0.10999,-0.105946 0.289492,-0.195313 0.621094,-0.195313 z m 10.5761715,0 h 4.447266 c 0.441513,0 0.579529,0.09508 0.650391,0.167969 0.07086,0.07288 0.166015,0.233054 0.166015,0.65625 v 4.173828 c 0,0.431357 -0.122855,0.718292 -0.253906,0.873047 -0.131051,0.154755 -0.257151,0.232422 -0.5625,0.232422 h -2.519531 a 1.1,1.1 0 0 0 -0.962891,0.574219 1.1,1.1 0 0 0 -0.964844,-0.574219 c -0.423437,0 -0.51237,-0.08275 -0.611328,-0.205078 -0.09896,-0.122323 -0.214844,-0.412262 -0.214844,-0.900391 V 27.02832 c 0,-0.368712 0.09509,-0.522962 0.205079,-0.628906 0.109988,-0.105944 0.289483,-0.195313 0.621093,-0.195313 z m 10.548829,0 h 4.449218 c 0.441513,0 0.579532,0.09509 0.650391,0.167969 0.07086,0.07288 0.164062,0.233051 0.164062,0.65625 v 4.173828 c 0,0.43136 -0.122858,0.718294 -0.253906,0.873047 -0.131048,0.154754 -0.255198,0.232422 -0.560547,0.232422 h -2.519531 a 1.1,1.1 0 0 0 -0.964844,0.574219 1.1,1.1 0 0 0 -0.964843,-0.574219 c -0.423445,0 -0.510419,-0.08276 -0.609375,-0.205078 -0.09896,-0.122321 -0.216797,-0.412259 -0.216797,-0.900391 V 27.02832 c 0,-0.368712 0.09509,-0.522962 0.205078,-0.628906 0.109988,-0.105944 0.289484,-0.195313 0.621094,-0.195313 z M 6.8945315,33.936523 a 1.1,1.1 0 0 0 0.673828,0.533204 h -1.34961 a 1.1,1.1 0 0 0 0.675782,-0.533204 z m 10.5761715,0 a 1.1,1.1 0 0 0 0.673828,0.533204 h -1.349609 a 1.1,1.1 0 0 0 0.675781,-0.533204 z m 10.548828,0 a 1.1,1.1 0 0 0 0.673828,0.533204 H 27.34375 a 1.1,1.1 0 0 0 0.675781,-0.533204 z m 9.611328,0.533204 c -0.791437,0 -1.574292,0.261323 -2.146484,0.8125 -0.572192,0.551175 -0.878906,1.361569 -0.878906,2.21289 v 4.175781 c 0,0.817509 0.175945,1.629199 0.705078,2.283203 0.529133,0.654005 1.404274,1.021485 2.320312,1.021485 a 1.1,1.1 0 0 0 0.964844,-0.572266 1.1,1.1 0 0 0 0.964844,0.572266 h 2.517578 c 0.877682,0 1.710873,-0.384278 2.242188,-1.011719 0.531314,-0.627441 0.77539,-1.442195 0.77539,-2.292969 v -4.175781 c 0,-0.802369 -0.222443,-1.606635 -0.789062,-2.189453 -0.56662,-0.582818 -1.387516,-0.835937 -2.228516,-0.835937 z M 5.9296875,36.670898 h 4.4472655 c 0.441491,0 0.579511,0.09506 0.650391,0.167969 0.07088,0.0729 0.166015,0.233117 0.166015,0.65625 v 4.175781 c 0,0.431424 -0.122855,0.716334 -0.253906,0.871094 -0.131051,0.15476 -0.257151,0.234375 -0.5625,0.234375 H 7.8593755 a 1.1,1.1 0 0 0 -0.964844,0.572266 1.1,1.1 0 0 0 -0.964844,-0.572266 c -0.423492,0 -0.51045,-0.08281 -0.609375,-0.205078 -0.098925,-0.12227 -0.216797,-0.412199 -0.216797,-0.900391 v -4.175781 c 0,-0.368779 0.09509,-0.521004 0.205078,-0.626953 0.109989,-0.105949 0.289492,-0.197266 0.621094,-0.197266 z m 10.5761715,0 h 4.447266 c 0.441485,0 0.57951,0.09506 0.650391,0.167969 0.07088,0.07291 0.166015,0.23312 0.166015,0.65625 v 4.175781 c 0,0.431424 -0.122855,0.716334 -0.253906,0.871094 -0.131051,0.15476 -0.257151,0.234375 -0.5625,0.234375 h -2.519531 a 1.1,1.1 0 0 0 -0.962891,0.572266 1.1,1.1 0 0 0 -0.964844,-0.572266 c -0.423491,0 -0.512404,-0.08281 -0.611328,-0.205078 -0.09892,-0.12227 -0.214844,-0.412199 -0.214844,-0.900391 v -4.175781 c 0,-0.368782 0.09509,-0.521006 0.205079,-0.626953 0.109985,-0.105947 0.289483,-0.197266 0.621093,-0.197266 z m 10.548829,0 h 4.449218 c 0.441485,0 0.579513,0.09506 0.650391,0.167969 0.07088,0.07291 0.164062,0.233117 0.164062,0.65625 v 4.175781 c 0,0.431427 -0.122858,0.716335 -0.253906,0.871094 -0.131048,0.154759 -0.255198,0.234375 -0.560547,0.234375 h -2.519531 a 1.1,1.1 0 0 0 -0.964844,0.572266 1.1,1.1 0 0 0 -0.964843,-0.572266 c -0.423499,0 -0.510453,-0.08281 -0.609375,-0.205078 -0.09892,-0.122268 -0.216797,-0.412197 -0.216797,-0.900391 v -4.175781 c 0,-0.368782 0.09509,-0.521006 0.205078,-0.626953 0.109985,-0.105947 0.289484,-0.197266 0.621094,-0.197266 z m 10.576171,0 h 4.447266 c 0.441479,0 0.57951,0.09506 0.650391,0.167969 0.07088,0.07291 0.166015,0.23312 0.166015,0.65625 v 4.175781 c 0,0.431427 -0.122858,0.716335 -0.253906,0.871094 -0.131048,0.154759 -0.257151,0.234375 -0.5625,0.234375 h -2.517578 a 1.1,1.1 0 0 0 -0.964844,0.572266 1.1,1.1 0 0 0 -0.964844,-0.572266 c -0.423492,0 -0.510449,-0.08281 -0.609375,-0.205078 -0.09893,-0.12227 -0.216796,-0.412199 -0.216796,-0.900391 v -4.175781 c 0,-0.368779 0.09509,-0.521004 0.205078,-0.626953 0.109988,-0.105949 0.28949,-0.197266 0.621093,-0.197266 z" fill="#008055"/>
</svg>
