<svg xmlns="http://www.w3.org/2000/svg" width="48" height="48">
	<path d="m 14.240234,2.126953 c -1.577425,0 -3.092065,0.5148576 -4.191406,1.5742187 C 8.9494875,4.7605326 8.3496095,6.3149156 8.3496095,8.0156246 V 39.371094 c 0,1.675541 0.365182,3.279268 1.38086,4.535156 1.0156765,1.255889 2.6714835,1.966797 4.5097645,1.966797 a 1.7,1.7 0 0 0 1.701172,-1.701172 1.7,1.7 0 0 0 -1.701172,-1.699218 c -1.076709,0 -1.516127,-0.269039 -1.867187,-0.703126 C 12.021987,41.335445 11.75,40.537853 11.75,39.371094 V 8.0156246 c 0,-0.95519 0.273032,-1.496023 0.658203,-1.867187 0.385171,-0.371164 0.965567,-0.623047 1.832031,-0.623047 H 33.78125 c 1.086621,0 1.601484,0.260457 1.912109,0.580078 C 36.003985,6.4250896 36.25,6.9745416 36.25,8.0156246 V 39.371094 c 0,1.071733 -0.305332,1.863541 -0.716797,2.349609 -0.411465,0.486069 -0.907128,0.751954 -1.751953,0.751954 H 19.923828 a 1.7,1.7 0 0 0 -1.699219,1.699218 1.7,1.7 0 0 0 1.699219,1.701172 H 33.78125 c 1.729596,0 3.317737,-0.740374 4.347656,-1.957031 1.02992,-1.216657 1.521485,-2.825355 1.521485,-4.544922 V 8.0156246 c 0,-1.626916 -0.442883,-3.173421 -1.519532,-4.2812498 C 37.05421,2.6265463 35.485489,2.126953 33.78125,2.126953 Z m 3.789063,6.8027346 c -0.713338,0 -1.526471,0.175504 -2.195313,0.757812 -0.668841,0.5823084 -1.027343,1.5240814 -1.027343,2.4707034 v 4.699219 c 0,0.828746 0.324107,1.663181 0.927734,2.244141 0.603627,0.58096 1.444035,0.878906 2.294922,0.878906 a 1.5,1.5 0 0 0 1.5,-1.5 1.5,1.5 0 0 0 -1.5,-1.5 c -0.198013,0 -0.218881,-0.04295 -0.214844,-0.03906 0.004,0.0039 -0.0078,0.02597 -0.0078,-0.08398 V 12.15821 c 0,-0.142145 0.0069,-0.186719 0.01172,-0.210937 -0.02702,0.02276 0.0069,-0.01758 0.210938,-0.01758 h 12.125 c 0.05866,0 0.0565,0.0024 0.08008,0.0039 0.009,0.04254 0.02149,0.09319 0.02148,0.224609 v 4.699219 c 0,0.287654 0.122884,0.123047 -0.101562,0.123047 h -8.082031 a 1.5,1.5 0 0 0 -1.5,1.5 1.5,1.5 0 0 0 1.5,1.5 h 8.082031 c 1.618634,0 3.101562,-1.448501 3.101562,-3.123047 v -4.699219 c 1.5e-5,-0.834573 -0.229267,-1.697798 -0.835937,-2.3339844 -0.606671,-0.636186 -1.478111,-0.894531 -2.265625,-0.894531 z M 16.572266,23.042969 a 1.9,1.9 0 0 0 -1.900391,1.900391 1.9,1.9 0 0 0 1.900391,1.90039 h 1.505859 a 1.9,1.9 0 0 0 1.900391,-1.90039 1.9,1.9 0 0 0 -1.900391,-1.900391 z m 6.724609,0 a 1.9,1.9 0 0 0 -1.900391,1.900391 1.9,1.9 0 0 0 1.900391,1.90039 h 1.505859 a 1.9,1.9 0 0 0 1.900391,-1.90039 1.9,1.9 0 0 0 -1.900391,-1.900391 z m 6.724609,0 a 1.9,1.9 0 0 0 -1.90039,1.900391 1.9,1.9 0 0 0 1.90039,1.90039 h 1.50586 a 1.9,1.9 0 0 0 1.90039,-1.90039 1.9,1.9 0 0 0 -1.90039,-1.900391 z m 0.796875,6.375 a 1.9,1.9 0 0 0 -1.90039,1.900391 v 6.816406 a 1.9,1.9 0 0 0 1.90039,1.900391 1.9,1.9 0 0 0 1.900391,-1.900391 V 31.31836 a 1.9,1.9 0 0 0 -1.900391,-1.900391 z m -14.246093,0.228516 a 1.9,1.9 0 0 0 -1.900391,1.90039 1.9,1.9 0 0 0 1.900391,1.900391 h 1.505859 a 1.9,1.9 0 0 0 1.900391,-1.900391 1.9,1.9 0 0 0 -1.900391,-1.90039 z m 6.724609,0 a 1.9,1.9 0 0 0 -1.900391,1.90039 1.9,1.9 0 0 0 1.900391,1.900391 h 1.505859 a 1.9,1.9 0 0 0 1.900391,-1.900391 1.9,1.9 0 0 0 -1.900391,-1.90039 z m -6.724609,6.271484 a 1.9,1.9 0 0 0 -1.900391,1.900391 1.9,1.9 0 0 0 1.900391,1.90039 h 1.505859 a 1.9,1.9 0 0 0 1.900391,-1.90039 1.9,1.9 0 0 0 -1.900391,-1.900391 z m 6.724609,0 a 1.9,1.9 0 0 0 -1.900391,1.900391 1.9,1.9 0 0 0 1.900391,1.90039 h 1.505859 a 1.9,1.9 0 0 0 1.900391,-1.90039 1.9,1.9 0 0 0 -1.900391,-1.900391 z" fill="#008055"/>
</svg>
