<svg xmlns="http://www.w3.org/2000/svg" width="48" height="48">
	<path d="m 30.176538,2.913555 c -5.364184,0.1250544 -9.072265,4.1960708 -9.072265,9.005859 a 1.60016,1.60016 0 0 0 0.002,0.02344 c 0.05524,3.874592 1.93881,6.383577 3.642578,8.65625 1.703769,2.272673 3.30921,4.417442 3.88086,8.380859 a 1.6,1.6 0 0 0 1.8125,1.355469 1.6,1.6 0 0 0 1.355468,-1.8125 c -0.674628,-4.677082 -2.773649,-7.556522 -4.488328,-9.843749 -1.712826,-2.284756 -2.957932,-3.870923 -3.001953,-6.773438 0.0061,-3.2867688 2.04666,-5.6975423 5.9375,-5.7910151 3.568753,-0.053865 6.021484,2.4235978 6.021484,5.8066401 0,2.775777 -1.191196,4.35167 -2.90039,6.656251 -0.853805,1.151255 -1.540472,2.077245 -2.378907,3.634765 a 1.6,1.6 0 0 0 0.650391,2.166016 1.6,1.6 0 0 0 2.167969,-0.650391 c 0.748945,-1.39128 1.27281,-2.089796 2.128906,-3.24414 1.710706,-2.306619 3.533203,-4.803077 3.533203,-8.562501 0,-5.0424773 -4.092216,-9.0905978 -9.279297,-9.007812 a 1.60016,1.60016 0 0 0 -0.01172,0 z m 0.261719,3.9921875 c -0.719155,-0.037147 -1.450178,0.1012205 -2.130859,0.4277344 -0.907575,0.435352 -1.630706,1.1578136 -2.097656,2.03125 -0.46695,0.8734371 -0.676639,1.8982331 -0.558594,2.9433591 a 1.6403827,1.5606133 85.006268 0 0 1.732422,1.451172 1.6403827,1.5606133 85.006268 0 0 1.367187,-1.808594 c -0.07735,-0.684867 0.270965,-1.342048 0.873047,-1.630859 0.602082,-0.288811 1.283337,-0.138985 1.71875,0.365234 0.435413,0.50422 0.513964,1.23853 0.181641,1.84375 -0.332324,0.605221 -0.984837,0.903415 -1.621094,0.757813 a 1.6403827,1.5606133 85.006268 0 0 -1.847656,1.253906 1.6403827,1.5606133 85.006268 0 0 1.208984,1.951172 c 1.959723,0.448464 3.972285,-0.491901 4.96875,-2.306641 C 35.229644,12.3703 34.998147,10.058015 33.647242,8.4936331 32.802926,7.5158944 31.636849,6.9676546 30.438257,6.9057425 Z M 6.1999762,8.3022269 c -0.4617,0.00628 -0.943067,0.095948 -1.441406,0.3125 -0.664453,0.2887355 -1.280858,0.8749687 -1.613282,1.5625001 -0.332421,0.687531 -0.426304,1.425587 -0.392578,2.189453 l -0.00195,-0.08398 v 22.914062 l 0.00195,-0.0332 c -0.02593,1.45374 0.208289,2.766135 0.927735,3.845703 0.719445,1.079569 1.782701,1.728701 2.8906248,2.212891 a 1.90019,1.90019 0 0 0 0.027344,0.0098 l 7.951172,3.330078 a 1.90019,1.90019 0 0 0 0.107421,0.04102 c 1.944814,0.68086 3.882014,0.647785 5.550782,-0.121093 l 8.457031,-3.64848 a 1.90019,1.90019 0 0 0 0.134765,-0.0625 c 0.692667,-0.365654 1.41021,-0.383426 2.107422,-0.01563 a 1.90019,1.90019 0 0 0 0.173828,0.08008 l 7.832032,3.173828 c 1.565115,0.652415 3.233754,0.834479 4.599609,-0.05273 1.365855,-0.887213 1.819671,-2.534989 1.730469,-4.046875 l 0.0039,0.111328 V 14.993633 a 1.9,1.9 0 0 0 -1.900385,-1.900391 1.9,1.9 0 0 0 -1.90039,1.900391 v 25.027344 a 1.90019,1.90019 0 0 0 0.0039,0.113281 c 0.02264,0.383702 -0.0091,0.550559 -0.0293,0.619141 -0.09382,0.0074 -0.396378,0.02034 -1.044922,-0.25 a 1.90019,1.90019 0 0 0 -0.01758,-0.0078 l -7.851562,-3.18164 0.173828,0.08008 c -1.798948,-0.948999 -3.926457,-0.897521 -5.65625,0.01563 l 0.134765,-0.06445 -8.499999,3.667969 a 1.90019,1.90019 0 0 0 -0.04297,0.01758 c -0.935475,0.431016 -1.323766,0.46502 -2.685547,-0.0098 L 8.0906012,37.739727 C 7.300089,37.393986 6.999065,37.13669 6.8425543,36.901836 6.6858747,36.66673 6.5332794,36.253622 6.5515387,35.229961 a 1.90019,1.90019 0 0 0 0,-0.0332 V 12.282696 a 1.90019,1.90019 0 0 0 -0.00195,-0.08398 c -4.545e-4,-0.01029 3.107e-4,-0.0019 0,-0.01172 0.1087528,0.01054 0.065228,-0.0058 0.3535156,0.111328 a 1.90019,1.90019 0 0 0 0.033203,0.01367 l 9.6289037,3.708984 a 1.9,1.9 0 0 0 2.457031,-1.089844 1.9,1.9 0 0 0 -1.089844,-2.455078 L 8.3347418,8.7787894 C 7.8140583,8.5671686 7.2527035,8.3818104 6.6550543,8.3217581 6.5056421,8.3067451 6.3538761,8.3001335 6.1999762,8.3022269 Z M 10.864039,21.058086 a 2.155549,2.155549 0 0 0 -2.1542972,2.15625 2.155549,2.155549 0 0 0 2.1542972,2.15625 2.155549,2.155549 0 0 0 2.15625,-2.15625 2.155549,2.155549 0 0 0 -2.15625,-2.15625 z m 4.412109,6.552735 a 2.155549,2.155549 0 0 0 -2.103516,2.15625 2.155549,2.155549 0 0 0 2.15625,2.154297 2.155549,2.155549 0 0 0 2.15625,-2.154297 2.155549,2.155549 0 0 0 -2.15625,-2.15625 2.155549,2.155549 0 0 0 -0.05273,0 z m 8.048828,0.853515 a 2.155549,2.155549 0 0 0 -2.101562,2.15625 2.155549,2.155549 0 0 0 2.154297,2.154297 2.155549,2.155549 0 0 0 2.15625,-2.154297 2.155549,2.155549 0 0 0 -2.15625,-2.15625 2.155549,2.155549 0 0 0 -0.05274,0 z" fill="#008055"/>
</svg>
