<svg xmlns="http://www.w3.org/2000/svg" width="48" height="48">
	<path d="m 8.7558595,3.3320306 c -1.4749,0 -2.893115,0.4813118 -3.921875,1.4726562 -1.02876,0.9913446 -1.589844,2.4470253 -1.589844,4.0371098 v 8.4824224 c 0,1.565589 0.340532,3.064974 1.291016,4.240234 0.950484,1.17526 2.502161,1.839844 4.220703,1.839844 a 1.6,1.6 0 0 0 1.5996095,-1.59961 1.6,1.6 0 0 0 -1.5996095,-1.601562 c -1.001758,0 -1.407456,-0.248576 -1.732422,-0.650391 -0.324965,-0.401815 -0.580078,-1.141805 -0.580078,-2.228515 V 8.8417966 c 0,-0.888417 0.254728,-1.3887918 0.611328,-1.7324222 0.3566,-0.3436307 0.895412,-0.578125 1.701172,-0.578125 h 9.0332035 c 1.011563,0 1.486598,0.2419545 1.773437,0.5371093 0.286839,0.2951548 0.517578,0.8042249 0.517578,1.7734379 v 8.4824224 c 0,0.997528 -0.284503,1.73097 -0.666015,2.18164 -0.381511,0.450671 -0.840114,0.697266 -1.625,0.697266 h -5.117188 a 1.6,1.6 0 0 0 -1.599609,1.601562 1.6,1.6 0 0 0 1.599609,1.59961 h 5.117188 c 1.617584,0 3.102805,-0.691799 4.066406,-1.830078 0.963601,-1.13828 1.423828,-2.642729 1.423828,-4.25 V 8.8417966 c 0,-1.5205877 -0.414096,-2.9669114 -1.421875,-4.0039066 C 20.849643,3.8008948 19.381949,3.3320306 17.789063,3.3320306 Z m 21.4765625,0 c -1.474899,0 -2.893115,0.4813118 -3.921875,1.4726562 -1.028759,0.9913446 -1.589844,2.4470253 -1.589844,4.0371098 v 8.4824224 c 0,1.565591 0.340531,3.064975 1.291016,4.240234 0.950485,1.175258 2.502165,1.839844 4.220703,1.839844 a 1.6,1.6 0 0 0 1.599609,-1.59961 1.6,1.6 0 0 0 -1.599609,-1.601562 c -1.001751,0 -1.407455,-0.248574 -1.732422,-0.650391 -0.324967,-0.401816 -0.578125,-1.141807 -0.578125,-2.228515 V 8.8417966 c 0,-0.888417 0.252775,-1.3887918 0.609375,-1.7324222 0.3566,-0.3436307 0.895412,-0.578125 1.701172,-0.578125 h 9.033203 c 1.01157,0 1.488554,0.241956 1.775391,0.5371093 0.286836,0.2951534 0.515625,0.8042219 0.515625,1.7734379 v 8.4824224 c 0,0.997528 -0.284504,1.73097 -0.666016,2.18164 -0.38151,0.450671 -0.840114,0.697266 -1.625,0.697266 h -5.117187 a 1.6,1.6 0 0 0 -1.59961,1.601562 1.6,1.6 0 0 0 1.601563,1.59961 h 5.115234 c 1.617584,0 3.104758,-0.691799 4.068359,-1.830078 0.963601,-1.13828 1.421875,-2.642729 1.421875,-4.25 V 8.8417966 c 0,-1.5205856 -0.412143,-2.96691 -1.419921,-4.0039066 C 42.328159,3.8008933 40.858515,3.3320306 39.265625,3.3320306 Z m -18.773438,5.259766 c -0.749041,0 -1.5246375,0.252143 -2.0957025,0.802734 -0.571065,0.550591 -0.869141,1.3593334 -0.869141,2.1621094 v 3.394532 c 0,0.740115 0.156756,1.521427 0.6875,2.175781 0.530746,0.654354 1.4257645,1.017578 2.2851565,1.017578 h 3.605469 c 0.844991,0 1.683453,-0.383142 2.207031,-1.001953 0.523578,-0.618811 0.75,-1.40357 0.75,-2.191406 V 11.55664 c 0,-0.739308 -0.208977,-1.539657 -0.783203,-2.1308594 -0.574225,-0.591202 -1.398463,-0.833984 -2.173828,-0.833984 z m 0,2.8007814 h 3.613282 c 0.0935,0 0.11298,0.0058 0.142578,0.0098 0.0055,0.03185 0.01367,0.05935 0.01367,0.154297 v 3.394532 c 0,0.254563 -0.07148,0.365723 -0.08594,0.382812 -0.01446,0.01709 0.04567,0.0098 -0.07031,0.0098 h -3.605469 c -0.09037,0 -0.101411,0.0013 -0.115235,0.002 -0.0018,-0.0085 -0.05664,-0.110586 -0.05664,-0.394531 v -3.394532 c 0,-0.189123 0.02864,-0.1628 0.01172,-0.146484 -0.01692,0.01632 -0.01087,-0.01758 0.152343,-0.01758 z M 8.7558595,24.595703 c -1.474923,0 -2.893128,0.483259 -3.921875,1.474609 -1.028746,0.99135 -1.589844,2.445109 -1.589844,4.035157 v 8.482421 c 0,1.56559 0.340532,3.064975 1.291016,4.240235 0.950484,1.17526 2.502161,1.839844 4.220703,1.839844 A 1.6,1.6 0 0 0 10.355469,43.068359 1.6,1.6 0 0 0 8.7558595,41.46875 c -1.001758,0 -1.407456,-0.250529 -1.732422,-0.652344 C 6.6984725,40.414591 6.4433595,39.6746 6.4433595,38.58789 v -8.482421 c 0,-0.888353 0.254715,-1.388773 0.611328,-1.732422 0.356614,-0.34365 0.895435,-0.576172 1.701172,-0.576172 h 9.0332035 c 1.011563,0 1.486598,0.240007 1.773437,0.535156 0.286839,0.295149 0.517578,0.804286 0.517578,1.773438 v 8.482421 c 0,0.997529 -0.284503,1.732924 -0.666015,2.183594 -0.381511,0.450671 -0.840114,0.697266 -1.625,0.697266 h -5.117188 a 1.6,1.6 0 0 0 -1.599609,1.599609 1.6,1.6 0 0 0 1.599609,1.59961 h 5.117188 c 1.617584,0 3.102805,-0.691799 4.066406,-1.830079 0.963601,-1.138279 1.423828,-2.642729 1.423828,-4.25 v -8.482421 c 0,-1.520549 -0.414096,-2.966931 -1.421875,-4.003907 -1.007779,-1.036975 -2.475473,-1.505859 -4.068359,-1.505859 z m 21.4765625,0 c -1.474922,0 -2.893129,0.483259 -3.921875,1.474609 -1.028747,0.99135 -1.589844,2.445109 -1.589844,4.035157 v 8.482421 c 0,1.565592 0.340531,3.064976 1.291016,4.240235 0.950485,1.175258 2.502165,1.839844 4.220703,1.839844 a 1.6,1.6 0 0 0 1.599609,-1.59961 1.6,1.6 0 0 0 -1.599609,-1.599609 c -1.001751,0 -1.407455,-0.250527 -1.732422,-0.652344 -0.324967,-0.401817 -0.578125,-1.141808 -0.578125,-2.228516 v -8.482421 c 0,-0.888353 0.252762,-1.388773 0.609375,-1.732422 0.356614,-0.34365 0.895435,-0.576172 1.701172,-0.576172 h 9.033203 c 1.01157,0 1.488554,0.240008 1.775391,0.535156 0.286836,0.295148 0.515625,0.804283 0.515625,1.773438 v 8.482421 c 0,0.997529 -0.284504,1.732924 -0.666016,2.183594 -0.38151,0.450671 -0.840114,0.697266 -1.625,0.697266 h -5.117187 a 1.6,1.6 0 0 0 -1.59961,1.599609 1.6,1.6 0 0 0 1.601563,1.59961 h 5.115234 c 1.617584,0 3.104758,-0.691799 4.068359,-1.830079 0.963601,-1.138279 1.421875,-2.642729 1.421875,-4.25 v -8.482421 c 0,-1.520546 -0.412143,-2.96693 -1.419921,-4.003907 -1.007779,-1.036977 -2.477423,-1.505859 -4.070313,-1.505859 z m 2.703125,5.259766 c -0.74904,0 -1.524644,0.252141 -2.095703,0.802734 -0.571059,0.550593 -0.867188,1.359337 -0.867188,2.162109 v 3.394531 c 0,0.740117 0.156734,1.523376 0.6875,2.177735 0.530767,0.654358 1.423795,1.015703 2.283203,1.015625 h 3.605469 c 0.844992,0 1.685403,-0.381191 2.208985,-1 0.523581,-0.618809 0.748046,-1.405518 0.748046,-2.19336 v -3.394531 c 0,-0.739308 -0.208975,-1.539657 -0.783203,-2.130859 -0.574227,-0.591202 -1.398459,-0.833984 -2.173828,-0.833984 z m 0,2.800781 h 3.613281 c 0.09478,0 0.114911,0.0055 0.144531,0.0098 0.0052,0.03152 0.01172,0.05938 0.01172,0.154297 v 3.394531 c 0,0.25456 -0.07148,0.367675 -0.08594,0.384766 -0.01446,0.01709 0.04566,0.0098 -0.07031,0.0098 H 32.94336 c -0.09036,8e-6 -0.101405,0.0013 -0.115234,0.002 -0.0014,-0.0082 -0.05664,-0.111676 -0.05664,-0.396485 v -3.394531 c 0,-0.189128 0.02864,-0.162802 0.01172,-0.146484 -0.01693,0.01632 -0.01085,-0.01758 0.152344,-0.01758 z" fill="#008055"/>
</svg>
