<svg xmlns="http://www.w3.org/2000/svg" width="48" height="48">
	<path d="m 39.822865,2.633519 c -0.953409,0.03618 -1.906396,0.325317 -2.748047,0.884766 -0.5611,0.372965 -1.028383,0.838832 -1.398437,1.363281 -1.110163,1.573347 -1.324899,3.686939 -0.416016,5.492188 a 1.0999487,1.1000513 85.001573 0 0 1.3125,0.554687 1.0999487,1.1000513 85.001573 0 0 0.341797,1.380859 c 2.188432,1.572763 5.23048,1.261014 7.054688,-0.722656 1.824207,-1.983672 1.879474,-5.038988 0.128906,-7.08789 C 43.004151,3.218188 41.41188,2.573218 39.822865,2.633519 Z m 0.08984,2.191406 c 0.932383,-0.03754 1.864229,0.34144 2.513672,1.101563 1.039109,1.216196 1.00662,2.99443 -0.07617,4.171875 -1.082793,1.177444 -2.851372,1.359348 -4.150391,0.425781 a 1.0999487,1.1000513 85.001573 0 0 -0.974609,-0.15625 1.0999487,1.1000513 85.001573 0 0 0,-0.984375 c -0.719329,-1.428751 -0.26385,-3.145725 1.068359,-4.03125 0.499579,-0.332071 1.059711,-0.504822 1.619141,-0.527344 z m 0.121094,1.400391 A 1.7452079,1.7450508 0 0 0 38.289658,7.969457 1.7452079,1.7450508 0 0 0 40.033799,9.71555 1.7452079,1.7450508 0 0 0 41.779892,7.969457 1.7452079,1.7450508 0 0 0 40.033799,6.225316 Z m -10.904297,7.099609 c -0.953367,0.03666 -1.904443,0.327271 -2.746094,0.886719 -0.561101,0.372965 -1.032289,0.836879 -1.402344,1.361328 -1.110163,1.573347 -1.320994,3.686938 -0.412109,5.492188 a 1.0999487,1.1000513 85.001573 0 0 1.3125,0.554687 1.0999487,1.1000513 85.001573 0 0 0.341797,1.38086 c 2.188431,1.572762 5.228527,1.262968 7.052734,-0.720703 1.824208,-1.983671 1.881427,-5.040941 0.13086,-7.089844 -1.094105,-1.280565 -2.6884,-1.926342 -4.277344,-1.865235 z m 10.693359,0 c -0.953409,0.03618 -1.906396,0.327271 -2.748047,0.886719 -0.561101,0.372965 -1.030336,0.836879 -1.40039,1.361328 -1.110164,1.573347 -1.322947,3.686938 -0.414063,5.492188 a 1.0999487,1.1000513 85.001573 0 0 1.310547,0.554687 1.0999487,1.1000513 85.001573 0 0 0.34375,1.382813 c 2.188433,1.572763 5.230479,1.261014 7.054688,-0.722656 1.824207,-1.983672 1.879474,-5.04094 0.128906,-7.089844 -1.094105,-1.280565 -2.686376,-1.925536 -4.275391,-1.865235 z m -10.601562,2.189453 c 0.932821,-0.03717 1.864229,0.345347 2.513671,1.105469 1.039109,1.216196 1.004668,2.994431 -0.07812,4.171875 -1.082793,1.177444 -2.84942,1.357395 -4.148438,0.423828 a 1.0999487,1.1000513 85.001573 0 0 -0.972656,-0.15625 1.0999487,1.1000513 85.001573 0 0 -0.002,-0.982422 c -0.719329,-1.428749 -0.26385,-3.149632 1.068359,-4.035156 0.499578,-0.332071 1.059448,-0.505042 1.619141,-0.527344 z m 10.691406,0.002 c 0.932383,-0.03754 1.864229,0.343393 2.513672,1.103515 1.039108,1.216196 1.00662,2.994431 -0.07617,4.171875 -1.082792,1.177444 -2.851373,1.357395 -4.150391,0.423828 a 1.0999487,1.1000513 85.001573 0 0 -0.972656,-0.15625 1.0999487,1.1000513 85.001573 0 0 -0.002,-0.982422 c -0.719329,-1.428749 -0.26385,-3.147678 1.068359,-4.033203 0.499579,-0.332071 1.059711,-0.504822 1.619141,-0.527343 z m -10.570313,1.40039 a 1.7452079,1.7450508 0 0 0 -1.746093,1.746094 1.7452079,1.7450508 0 0 0 1.746093,1.744141 1.7452079,1.7450508 0 0 0 1.744141,-1.744141 1.7452079,1.7450508 0 0 0 -1.744141,-1.746094 z m -10.896484,7.083985 c -0.953409,0.03618 -1.904443,0.32727 -2.746094,0.886718 -0.5611,0.372966 -1.030336,0.83688 -1.40039,1.361329 -1.110163,1.573347 -1.3249,3.686938 -0.416016,5.492187 a 1.0999487,1.1000513 85.001573 0 0 1.3125,0.554687 1.0999487,1.1000513 85.001573 0 0 0.341797,1.382813 c 2.188431,1.572763 5.230479,1.261015 7.054687,-0.722656 1.824208,-1.98367 1.881428,-5.038988 0.13086,-7.087891 -1.094105,-1.280565 -2.688329,-1.927488 -4.277344,-1.867187 z m 10.683594,0 c -0.953409,0.03618 -1.904443,0.32727 -2.746094,0.886718 -0.561101,0.372965 -1.030336,0.83688 -1.400391,1.361329 -1.110163,1.573347 -1.3249,3.686938 -0.416015,5.492187 a 1.0999487,1.1000513 85.001573 0 0 1.314453,0.554687 1.0999487,1.1000513 85.001573 0 0 0.341797,1.382813 c 2.188432,1.572762 5.230479,1.261015 7.054687,-0.722656 1.824208,-1.983672 1.879475,-5.04094 0.128907,-7.089844 -1.094105,-1.280565 -2.688329,-1.925535 -4.277344,-1.865234 z m 10.693359,0 c -0.953409,0.03618 -1.904443,0.32727 -2.746094,0.886718 -0.5611,0.372966 -1.032289,0.838833 -1.402343,1.363282 -1.110163,1.573347 -1.322947,3.684985 -0.414063,5.490234 a 1.0999487,1.1000513 85.001573 0 0 1.310547,0.556641 1.0999487,1.1000513 85.001573 0 0 0.34375,1.380859 c 2.188432,1.572763 5.230479,1.261015 7.054688,-0.722656 1.824208,-1.983671 1.881426,-5.040941 0.130859,-7.089844 -1.094101,-1.280611 -2.688325,-1.925581 -4.27734,-1.86528 z m -32.0683592,0.002 c -0.953146,0.0364 -1.904443,0.325317 -2.746094,0.884765 -0.561101,0.372966 -1.032289,0.83688 -1.402344,1.361329 -1.1101628,1.573346 -1.3229467,3.686938 -0.414062,5.492187 a 1.0999487,1.1000513 85.001573 0 0 1.3125,0.554687 1.0999487,1.1000513 85.001573 0 0 0.341797,1.382813 c 2.188431,1.572763 5.2304792,1.261015 7.0546872,-0.722656 1.824207,-1.983671 1.879475,-5.04094 0.128906,-7.089844 -1.094104,-1.280565 -2.6868132,-1.92395 -4.2753902,-1.863281 z m 0.089844,2.189453 c 0.932453,-0.03673 1.864228,0.345347 2.5136712,1.105469 1.039109,1.216196 1.004668,2.990524 -0.07813,4.167968 -1.0827922,1.177445 -2.8494182,1.359349 -4.1484372,0.425782 a 1.0999487,1.1000513 85.001573 0 0 -0.970703,-0.15625 1.0999487,1.1000513 85.001573 0 0 -0.00391,-0.982422 c -0.719329,-1.42875 -0.26385,-3.149633 1.068359,-4.035156 0.499578,-0.332072 1.059668,-0.503353 1.619141,-0.525391 z m 10.6914062,0 c 0.932383,-0.03754 1.864229,0.343393 2.513672,1.103515 1.039108,1.216197 1.00662,2.994431 -0.07617,4.171876 -1.082792,1.177445 -2.851372,1.357395 -4.150391,0.423828 a 1.0999487,1.1000513 85.001573 0 0 -0.972656,-0.15625 1.0999487,1.1000513 85.001573 0 0 -0.002,-0.982422 c -0.71933,-1.428751 -0.263851,-3.147679 1.068359,-4.033203 0.499578,-0.332072 1.059711,-0.504822 1.619141,-0.527344 z m 10.683594,0 c 0.932383,-0.03754 1.864229,0.343393 2.513671,1.103515 1.039109,1.216196 1.006621,2.992478 -0.07617,4.169922 -1.082793,1.177444 -2.851373,1.359348 -4.150391,0.425782 a 1.0999487,1.1000513 85.001573 0 0 -0.96875,-0.158204 1.0999487,1.1000513 85.001573 0 0 -0.0039,-0.982421 c -0.71933,-1.42875 -0.265803,-3.145726 1.066406,-4.03125 0.499578,-0.332072 1.059711,-0.504822 1.619141,-0.527344 z m 10.693359,0 c 0.932821,-0.03717 1.864229,0.343393 2.513672,1.103515 1.039109,1.216197 1.00662,2.992478 -0.07617,4.169922 -1.082792,1.177445 -2.851372,1.359349 -4.150391,0.425782 a 1.0999487,1.1000513 85.001573 0 0 -0.972656,-0.15625 1.0999487,1.1000513 85.001573 0 0 0,-0.982422 c -0.719329,-1.428751 -0.265803,-3.147679 1.066406,-4.033203 0.499579,-0.332072 1.059448,-0.505043 1.619141,-0.527344 z M 18.65685,27.592504 a 1.7452079,1.7450508 0 0 0 -1.744141,1.746093 1.7452079,1.7450508 0 0 0 1.744141,1.744141 1.7452079,1.7450508 0 0 0 1.746093,-1.744141 1.7452079,1.7450508 0 0 0 -1.746093,-1.746093 z m 10.685546,0 a 1.7452079,1.7450508 0 0 0 -1.746093,1.746093 1.7452079,1.7450508 0 0 0 1.746093,1.744141 1.7452079,1.7450508 0 0 0 1.744141,-1.744141 1.7452079,1.7450508 0 0 0 -1.744141,-1.746093 z M 7.7545058,34.692113 c -0.953146,0.0364 -1.904443,0.32727 -2.746094,0.886719 -0.561101,0.372965 -1.032289,0.838832 -1.402344,1.363281 -1.1101628,1.573347 -1.3229467,3.684985 -0.414062,5.490234 a 1.0999487,1.1000513 85.001573 0 0 1.3125,0.556641 1.0999487,1.1000513 85.001573 0 0 0.341797,1.380859 c 2.188431,1.572763 5.2304792,1.261015 7.0546872,-0.722656 1.824207,-1.983671 1.879475,-5.04094 0.128906,-7.089844 -1.094104,-1.280565 -2.6868132,-1.925903 -4.2753902,-1.865234 z m 10.6914062,0.002 c -0.953409,0.03618 -1.904443,0.325317 -2.746094,0.884766 -0.5611,0.372965 -1.030336,0.838832 -1.40039,1.363281 -1.110163,1.573347 -1.322947,3.684986 -0.414063,5.490234 a 1.0999487,1.1000513 85.001573 0 0 1.310547,0.556641 1.0999487,1.1000513 85.001573 0 0 0.341797,1.380859 c 2.188431,1.572763 5.23048,1.261014 7.054687,-0.722656 1.824208,-1.983672 1.881428,-5.038986 0.13086,-7.087891 -1.094105,-1.280611 -2.688329,-1.925582 -4.277344,-1.865281 z m 10.683594,0 c -0.953409,0.03618 -1.904443,0.325317 -2.746094,0.884766 -0.561101,0.372965 -1.030336,0.836879 -1.400391,1.361328 -1.110163,1.573346 -1.322947,3.686938 -0.414062,5.492187 a 1.0999487,1.1000513 85.001573 0 0 1.3125,0.556641 1.0999487,1.1000513 85.001573 0 0 0.341797,1.380859 c 2.188432,1.572763 5.228526,1.261015 7.052734,-0.722656 1.824207,-1.983671 1.881428,-5.038986 0.13086,-7.087891 -1.094106,-1.280611 -2.688329,-1.925582 -4.277344,-1.865281 z m 10.693359,0 c -0.953146,0.0364 -1.904443,0.325317 -2.746094,0.884766 -0.5611,0.372965 -1.030336,0.838832 -1.40039,1.363281 -1.110163,1.573347 -1.3249,3.686939 -0.416016,5.492187 a 1.0999487,1.1000513 85.001573 0 0 1.3125,0.552735 1.0999487,1.1000513 85.001573 0 0 0.341797,1.382812 c 2.188431,1.572763 5.230479,1.261015 7.054688,-0.722656 1.824207,-1.983671 1.879474,-5.04094 0.128906,-7.089844 -1.094105,-1.280611 -2.686814,-1.923997 -4.275391,-1.863328 z M 7.8443498,36.883519 c 0.932383,-0.03754 1.862275,0.343394 2.5117182,1.103516 1.039108,1.216196 1.008574,2.992477 -0.07422,4.169922 -1.0827932,1.177444 -2.8533262,1.359347 -4.1523442,0.425781 a 1.0999487,1.1000513 85.001573 0 0 -0.970703,-0.15625 1.0999487,1.1000513 85.001573 0 0 0,-0.982422 c -0.719329,-1.42875 -0.265804,-3.147679 1.066406,-4.033203 0.499578,-0.332072 1.059711,-0.504822 1.619141,-0.527344 z m 21.3769532,0 c 0.932015,-0.0371 1.862275,0.343394 2.511718,1.103516 1.039108,1.216196 1.006621,2.99443 -0.07617,4.171875 -1.082793,1.177444 -2.851374,1.357395 -4.150391,0.423828 a 1.0999487,1.1000513 85.001573 0 0 -0.970704,-0.15625 1.0999487,1.1000513 85.001573 0 0 -0.0039,-0.982422 c -0.719329,-1.42875 -0.261897,-3.147679 1.070312,-4.033203 0.499579,-0.332072 1.059931,-0.505085 1.619141,-0.527344 z m 10.691406,0 c 0.932821,-0.03717 1.864229,0.343393 2.513672,1.103516 1.039109,1.216196 1.00662,2.994431 -0.07617,4.171875 -1.082793,1.177444 -2.851372,1.359348 -4.150391,0.425781 a 1.0999487,1.1000513 85.001573 0 0 -0.972656,-0.158203 1.0999487,1.1000513 85.001573 0 0 -0.002,-0.982422 c -0.719329,-1.42875 -0.26385,-3.147679 1.068359,-4.033203 0.499579,-0.332072 1.059448,-0.505043 1.619141,-0.527344 z m -21.376953,0.002 c 0.932383,-0.03754 1.864229,0.343393 2.513672,1.103516 1.039109,1.216196 1.00662,2.992478 -0.07617,4.169922 -1.082793,1.177444 -2.851372,1.357395 -4.150391,0.423828 a 1.0999487,1.1000513 85.001573 0 0 -0.972656,-0.15625 1.0999487,1.1000513 85.001573 0 0 -0.002,-0.982422 c -0.719329,-1.42875 -0.263851,-3.145725 1.068359,-4.03125 0.499578,-0.332071 1.059711,-0.504822 1.619141,-0.527344 z M 7.9654428,38.28391 a 1.7452079,1.7450508 0 0 0 -1.74414,1.746094 1.7452079,1.7450508 0 0 0 1.74414,1.74414 1.7452079,1.7450508 0 0 0 1.746094,-1.74414 1.7452079,1.7450508 0 0 0 -1.746094,-1.746094 z m 10.6914072,0 a 1.7452079,1.7450508 0 0 0 -1.744141,1.746094 1.7452079,1.7450508 0 0 0 1.744141,1.74414 1.7452079,1.7450508 0 0 0 1.746093,-1.74414 1.7452079,1.7450508 0 0 0 -1.746093,-1.746094 z m 10.685546,0 a 1.7452079,1.7450508 0 0 0 -1.746093,1.746094 1.7452079,1.7450508 0 0 0 1.746093,1.74414 1.7452079,1.7450508 0 0 0 1.744141,-1.74414 1.7452079,1.7450508 0 0 0 -1.744141,-1.746094 z m 10.691407,0 a 1.7452079,1.7450508 0 0 0 -1.744141,1.746094 1.7452079,1.7450508 0 0 0 1.744141,1.74414 1.7452079,1.7450508 0 0 0 1.746093,-1.74414 1.7452079,1.7450508 0 0 0 -1.746093,-1.746094 z" fill="#008055"/>
</svg>
