<svg xmlns="http://www.w3.org/2000/svg" width="48" height="48">
	<path d="M 14.240234 2.0273438 C 12.641898 2.0273438 11.100814 2.5493241 9.9804688 3.6289062 C 8.8601237 4.7084886 8.25 6.2930236 8.25 8.015625 L 8.25 39.371094 C 8.25 41.061558 8.6171305 42.69064 9.6523438 43.970703 C 10.687557 45.250766 12.379534 45.972656 14.240234 45.972656 A 1.8 1.8 0 0 0 16.041016 44.173828 A 1.8 1.8 0 0 0 14.240234 42.373047 C 13.185945 42.373047 12.782696 42.116968 12.451172 41.707031 C 12.119648 41.297094 11.849609 40.522829 11.849609 39.371094 L 11.849609 8.015625 C 11.849609 7.0824264 12.114348 6.5716208 12.478516 6.2207031 C 12.842683 5.8697854 13.394681 5.6269531 14.240234 5.6269531 L 33.78125 5.6269531 C 34.849706 5.6269531 35.332998 5.8793424 35.621094 6.1757812 C 35.909189 6.4722202 36.150391 6.9917719 36.150391 8.015625 L 36.150391 39.371094 C 36.150391 40.423772 35.850306 41.19167 35.457031 41.65625 C 35.063756 42.12083 34.600052 42.373047 33.78125 42.373047 L 19.923828 42.373047 A 1.8 1.8 0 0 0 18.125 44.173828 A 1.8 1.8 0 0 0 19.923828 45.972656 L 33.78125 45.972656 C 35.536868 45.972656 37.156968 45.220567 38.205078 43.982422 C 39.253188 42.744277 39.75 41.109715 39.75 39.371094 L 39.75 8.015625 C 39.75 6.3714781 39.302304 4.7970268 38.203125 3.6660156 C 37.103946 2.5350045 35.503654 2.0273438 33.78125 2.0273438 L 14.240234 2.0273438 z M 24.179688 7.6796875 A 1.7 1.7 0 0 0 22.480469 9.3789062 L 22.480469 14.324219 C 19.822376 14.438911 17.179496 14.811379 14.8125 15.486328 A 1.7 1.7 0 0 0 13.642578 17.587891 A 1.7 1.7 0 0 0 15.744141 18.755859 C 17.750049 18.183875 20.100813 17.880565 22.480469 17.792969 L 22.480469 22.050781 C 21.194137 22.205169 19.894395 22.519116 18.546875 23.005859 C 18.538091 22.966129 18.536383 22.930203 18.527344 22.890625 C 18.356623 22.143159 18.224346 21.483435 17.744141 20.742188 A 1.7 1.7 0 0 0 15.392578 20.240234 A 1.7 1.7 0 0 0 14.890625 22.591797 C 14.838832 22.51185 15.077368 23.053126 15.212891 23.646484 C 15.348413 24.239843 15.462781 24.941346 15.539062 25.513672 A 1.70017 1.70017 0 0 0 17.931641 26.835938 C 19.692803 26.031753 21.133367 25.511298 22.480469 25.257812 L 22.480469 38.955078 A 1.7 1.7 0 0 0 24.179688 40.654297 A 1.7 1.7 0 0 0 25.878906 38.955078 L 25.878906 25.232422 C 27.191006 25.472332 28.583806 25.990586 30.265625 26.816406 A 1.70017 1.70017 0 0 0 32.714844 25.369141 C 32.818685 23.135651 33.500449 19.947494 34.4375 17.802734 A 1.70017 1.70017 0 0 0 33.369141 15.494141 C 31.164166 14.829626 28.569747 14.447222 25.878906 14.328125 L 25.878906 9.3789062 A 1.7 1.7 0 0 0 24.179688 7.6796875 z M 25.878906 17.820312 C 27.585128 17.91042 29.234701 18.102484 30.693359 18.408203 C 30.19789 19.92246 29.846779 21.416443 29.630859 22.955078 C 28.349135 22.482869 27.108504 22.191107 25.878906 22.046875 L 25.878906 17.820312 z " fill="#008055"/>
</svg>
