<svg xmlns="http://www.w3.org/2000/svg" width="48" height="48">
	<path d="m 17.048828,2.3505858 a 1.5,1.5 0 0 0 -1.5,1.5000004 V 15.249023 H 3.8496095 a 1.5,1.5 0 0 0 -1.5,1.5 1.5,1.5 0 0 0 1.5,1.5 H 15.548828 V 29.750976 H 3.8496095 a 1.5,1.5 0 0 0 -1.5,1.5 1.5,1.5 0 0 0 1.5,1.5 H 15.548828 v 11.398438 a 1.5,1.5 0 0 0 1.5,1.5 1.5,1.5 0 0 0 1.5,-1.5 V 32.750976 h 11.501953 v 11.398438 a 1.5,1.5 0 0 0 1.5,1.5 1.5,1.5 0 0 0 1.5,-1.5 V 32.750976 h 11.09961 a 1.5,1.5 0 0 0 1.5,-1.5 1.5,1.5 0 0 0 -1.5,-1.5 H 33.050781 V 18.249023 h 11.09961 a 1.5,1.5 0 0 0 1.5,-1.5 1.5,1.5 0 0 0 -1.5,-1.5 H 33.050781 V 3.8505862 a 1.5,1.5 0 0 0 -1.5,-1.5000004 1.5,1.5 0 0 0 -1.5,1.5000004 V 15.249023 H 18.548828 V 3.8505862 a 1.5,1.5 0 0 0 -1.5,-1.5000004 z M 9.6074225,4.8486332 c -0.734213,-0.001 -1.48142,0.198562 -2.107422,0.68164 -0.626003,0.483079 -1.080078,1.310695 -1.080078,2.232422 a 1.1,1.1 0 0 0 1.099609,1.099609 1.1,1.1 0 0 0 1.099609,-1.099609 c 0,-0.290123 0.067807,-0.369232 0.22461,-0.490234 0.156802,-0.121003 0.452192,-0.223094 0.761718,-0.222657 0.309527,4.38e-4 0.6056365,0.102506 0.7636725,0.22461 0.158035,0.122103 0.224609,0.202653 0.224609,0.488281 0,0.292185 -0.04947,0.372696 -0.236328,0.568359 -0.186854,0.195664 -0.5529545,0.438353 -1.0253905,0.714844 -0.944872,0.552982 -2.360865,1.2956008 -3.037109,2.9355468 a 1.10011,1.10011 0 0 0 1.015625,1.519531 h 4.5566395 a 1.1,1.1 0 0 0 1.09961,-1.099609 1.1,1.1 0 0 0 -1.09961,-1.101563 H 9.8925785 c 0.1886195,-0.116102 0.3408175,-0.232588 0.5507805,-0.355468 0.495064,-0.289734 1.031197,-0.596708 1.50586,-1.0937498 0.474663,-0.497043 0.845703,-1.250726 0.845703,-2.087891 0,-0.920322 -0.45531,-1.7458 -1.080078,-2.228516 -0.624768,-0.482715 -1.373209,-0.684509 -2.1074215,-0.685546 z m 28.8144525,0.01758 c -0.871406,0 -1.70622,0.273122 -2.361328,0.808593 -0.655108,0.535471 -1.115234,1.378689 -1.115234,2.31836 v 0.0059 0.0039 c 0.0087,1.12971 0.749181,2.0772078 1.623046,2.4589848 0.873866,0.381777 1.857729,0.36025 2.748047,-0.01367 a 1.1,1.1 0 0 0 0.38086,-0.269531 v 0.197265 c -0.0023,0.281167 -0.10808,0.462477 -0.341797,0.648438 -0.233717,0.18596 -0.602908,0.314453 -0.933594,0.314453 -0.31525,0 -0.691814,-0.132984 -0.933594,-0.328125 a 1.1,1.1 0 0 0 -1.546875,0.164062 1.1,1.1 0 0 0 0.164063,1.546875 c 0.655501,0.529059 1.469217,0.816407 2.316406,0.816407 0.831725,0 1.643681,-0.26703 2.304688,-0.792969 0.661006,-0.525939 1.161991,-1.37353 1.169921,-2.351563 v -0.0039 -2.3964838 c 0,-0.982552 -0.501524,-1.841959 -1.169921,-2.361328 -0.668399,-0.51937 -1.482383,-0.765625 -2.304688,-0.765625 z m 0,2.199218 c 0.356667,0 0.730339,0.130057 0.955078,0.304688 0.224739,0.17463 0.320313,0.326799 0.320313,0.623047 v 0.693359 a 1.1,1.1 0 0 0 -1.234375,-0.26758 c -0.343052,0.144078 -0.77637,0.131017 -1.013672,0.02734 -0.235439,-0.10286 -0.299276,-0.138852 -0.302735,-0.457032 0.0012,-0.268226 0.09323,-0.436888 0.306641,-0.611328 0.214777,-0.175554 0.568115,-0.3125 0.96875,-0.3125 z M 18.548828,18.249023 H 30.050781 V 29.750976 H 18.548828 Z m -10.6796875,1.44336 a 1.10011,1.10011 0 0 0 -1.099609,1.099609 v 2.746094 a 1.10011,1.10011 0 0 0 1.099609,1.099609 c 1.170901,0 1.899478,0.0016 2.2968755,0.148438 a 1.10011,1.10011 0 0 0 0.002,0 c 0.3977,0.14688 0.548828,0.297769 0.548828,0.603515 a 1.10011,1.10011 0 0 0 0,0.0039 c 8.36e-4,0.285404 -0.0624,0.33662 -0.322266,0.492188 -0.259861,0.155568 -0.7220575,0.259765 -1.0117185,0.259765 -0.250351,0 -0.563495,-0.06707 -0.753906,-0.166015 -0.190411,-0.09894 -0.247524,-0.160785 -0.287109,-0.3125 a 1.1,1.1 0 0 0 -1.341797,-0.787109 1.1,1.1 0 0 0 -0.78711,1.341796 c 0.211995,0.812485 0.804683,1.40038 1.402344,1.710938 0.597661,0.310558 1.211039,0.412109 1.767578,0.412109 0.6649885,0 1.4215895,-0.139855 2.1406245,-0.570312 0.718587,-0.430188 1.394893,-1.306155 1.392579,-2.386719 -10e-4,-1.324218 -0.982521,-2.295285 -1.986329,-2.666016 C 10.286052,22.483762 9.6227925,22.54508 8.9687975,22.540033 V 21.891595 H 11.652391 A 1.1,1.1 0 0 0 12.752,20.791986 1.1,1.1 0 0 0 11.652391,19.692377 Z m 13.8535155,0.107421 a 1.1,1.1 0 0 0 -1.099609,1.09961 1.1,1.1 0 0 0 1.099609,1.101562 h 3.236328 l -2.617187,4.814453 a 1.1,1.1 0 0 0 0.439453,1.492188 1.1,1.1 0 0 0 1.492188,-0.441406 l 3.503906,-6.441407 a 1.10011,1.10011 0 0 0 -0.966797,-1.625 z" fill="#008055"/>
</svg>
