<svg xmlns="http://www.w3.org/2000/svg" width="48" height="48">
	<path d="m 8.1503906,4.083008 c -1.5740852,0 -3.1065753,0.4836368 -4.25,1.53125 C 2.7569659,6.6618712 2.1152344,8.2421443 2.1152344,9.918945 v 27.601563 c 0,1.615673 0.3768981,3.219193 1.4414062,4.470703 1.0645081,1.25151 2.7645765,1.925781 4.59375,1.925781 a 2,2 0 0 0 2.0000004,-2 2,2 0 0 0 -2.0000004,-2 c -0.9772796,0 -1.2955372,-0.222088 -1.546875,-0.517578 C 6.3521778,39.103924 6.1152344,38.506635 6.1152344,37.520508 V 9.918945 c 0,-0.7542972 0.2005173,-1.0936066 0.4863281,-1.3554682 C 6.8873733,8.3016149 7.3715812,8.083008 8.1503906,8.083008 H 39.869141 c 0.998048,0 1.411611,0.2305198 1.617188,0.4316406 0.205576,0.2011208 0.398437,0.5455845 0.398437,1.4042964 v 27.601563 c 0,0.87681 -0.255495,1.470382 -0.572266,1.826172 -0.31677,0.35579 -0.698905,0.570312 -1.443359,0.570312 H 13.623047 a 2,2 0 0 0 -2,2 2,2 0 0 0 2,2 h 26.246094 c 1.734112,0 3.360696,-0.707296 4.431641,-1.910156 1.070944,-1.20286 1.583984,-2.807938 1.583984,-4.486328 V 9.918945 c 0,-1.583586 -0.471518,-3.1581172 -1.601563,-4.2636714 C 43.15316,4.5497194 41.558036,4.083008 39.869141,4.083008 Z m 8.9960944,6.826172 a 1.90019,1.90019 0 0 0 -1.785156,1.228515 L 7.2070312,33.727539 A 1.9,1.9 0 0 0 8.3125,36.174805 1.9,1.9 0 0 0 10.761719,35.069336 l 1.841797,-4.873047 h 8.798828 l 1.751953,4.847656 a 1.9,1.9 0 0 0 2.433594,1.140626 1.9,1.9 0 0 0 1.140625,-2.431641 L 18.925782,12.163086 A 1.90019,1.90019 0 0 0 17.146485,10.90918 Z m -0.04688,7.382812 2.929687,8.103516 h -5.990234 z m 15.78125,0.730469 c -1.256138,-0.0063 -2.511896,0.335871 -3.556641,1.115234 -1.044744,0.779364 -1.833984,2.110406 -1.833984,3.625 a 1.7,1.7 0 0 0 1.699218,1.699219 1.7,1.7 0 0 0 1.699219,-1.699219 c 0,-0.45481 0.132296,-0.649401 0.46875,-0.90039 0.336454,-0.25099 0.922353,-0.444341 1.507813,-0.441406 0.58546,0.0029 1.127113,0.193556 1.453125,0.464843 0.326011,0.271287 0.537109,0.575626 0.537109,1.333985 l -0.0098,2.541015 c -0.633137,-0.6964 -1.434238,-1.133015 -2.292968,-1.3125 -0.886488,-0.185285 -1.830827,-0.103254 -2.699219,0.226563 -1.736785,0.659634 -3.152344,2.541968 -3.152344,4.96289 0,2.37215 1.193956,4.295945 2.876953,5.136719 1.682998,0.840774 3.843049,0.585126 5.257813,-0.841797 a 1.7,1.7 0 0 0 0.408203,-0.664062 c 0.539352,1.039375 1.537307,1.783205 2.642578,1.765625 1.636867,-0.02604 3.009766,-1.614931 3.009766,-3.410156 a 1.7,1.7 0 0 0 -1.701172,-1.699219 1.7,1.7 0 0 0 -0.966797,0.302734 l 0.02734,-7 a 1.70017,1.70017 0 0 0 0,-0.0078 c 0,-1.631641 -0.708485,-3.069204 -1.763672,-3.947266 -1.055187,-0.878062 -2.355191,-1.243704 -3.611328,-1.25 z m -1.433594,9.748047 c 0.385771,-0.02419 0.748915,0.111354 0.900391,0.285156 a 1.7,1.7 0 0 0 2.398437,0.166016 1.7,1.7 0 0 0 0.08984,-0.08398 l -0.01367,3.386719 a 1.7,1.7 0 0 0 -2.400391,0.01367 c -0.389013,0.392357 -0.844219,0.435106 -1.324218,0.195313 -0.48,-0.239793 -0.996094,-0.774174 -0.996094,-2.095704 0,-1.272826 0.453332,-1.593108 0.958984,-1.785156 0.126413,-0.04801 0.258129,-0.07397 0.386719,-0.08203 z" fill="#008055"/>
</svg>
