<svg xmlns="http://www.w3.org/2000/svg" width="48" height="48">
	<path d="M 26.451475,2.8510568 C 22.614227,2.7901691 18.354427,4.191221 14.542801,6.3383514 9.4606341,9.2011927 4.9618493,13.677201 4.9618493,19.325151 c 0,4.515082 2.3963171,7.926295 5.7550017,9.690264 3.358684,1.763969 7.527617,2.219532 11.848658,2.068371 8.642081,-0.302322 17.847606,-3.039028 22.426286,-5.72285 a 2.0850894,2.0850894 0 0 0 0.743756,-2.852852 2.0850894,2.0850894 0 0 0 -2.852852,-0.745899 c -3.418145,2.003568 -12.659079,4.879709 -20.462941,5.152708 -3.90193,0.1365 -7.454397,-0.379995 -9.76314,-1.592539 -2.308742,-1.212543 -3.5258759,-2.78083 -3.5258759,-5.997203 0,-3.272613 3.1227759,-6.911112 7.4589959,-9.3537533 3.787851,-2.1337386 8.231888,-3.0570315 11.038457,-2.7242491 -0.434025,0.8168667 -1.20104,1.9760081 -2.400597,3.3651234 -2.685297,3.109635 -6.766559,6.916166 -10.286127,9.793147 a 2.0850894,2.0850894 0 0 0 -0.293644,2.932157 2.0850894,2.0850894 0 0 0 2.932157,0.295788 c 3.686453,-3.013397 7.860391,-6.88712 10.804827,-10.296845 1.472218,-1.704862 2.641085,-3.247428 3.330829,-4.7754723 0.34487,-0.7640216 0.626241,-1.5470352 0.503696,-2.5677809 -0.122545,-1.0207456 -1.031869,-2.1627672 -2.00407,-2.531343 a 2.085298,2.085298 0 0 0 -0.09859,-0.036437 C 28.963602,3.0541392 27.730556,2.8713526 26.451475,2.8510568 Z M 5.3948139,28.4367 a 2.0850894,2.0850894 0 0 0 -1.474652,0.572284 l -1.2924639,1.22602 a 2.0850894,2.0850894 0 0 0 -0.077163,2.947161 2.0850894,2.0850894 0 0 0 2.9471607,0.07716 l 1.292464,-1.226018 a 2.0850894,2.0850894 0 0 0 0.077163,-2.947161 2.0850894,2.0850894 0 0 0 -1.4725088,-0.649447 z m 1.682561,7.975552 a 1.0974155,1.0974155 0 0 0 -1.0974155,1.097416 1.0974155,1.0974155 0 0 0 1.0974155,1.097415 H 39.129624 a 1.0974155,1.0974155 0 0 0 1.097415,-1.097415 1.0974155,1.0974155 0 0 0 -1.097415,-1.097416 z m 0,3.255809 a 1.0974155,1.0974155 0 0 0 -1.0974155,1.097416 1.0974155,1.0974155 0 0 0 1.0974155,1.097415 H 39.129624 a 1.0974155,1.0974155 0 0 0 1.097415,-1.097415 1.0974155,1.0974155 0 0 0 -1.097415,-1.097416 z m 0,3.28796 a 1.0974155,1.0974155 0 0 0 -1.0974155,1.097416 1.0974155,1.0974155 0 0 0 1.0974155,1.097415 H 27.002326 a 1.0974155,1.0974155 0 0 0 1.097415,-1.097415 1.0974155,1.0974155 0 0 0 -1.097415,-1.097416 z" fill="#008055"/>
</svg>
