<svg xmlns="http://www.w3.org/2000/svg" width="48" height="48">
	<path d="m 20.340359,0.9153219 c -0.504737,0.079199 -0.992471,0.2500114 -1.43164,0.5292969 -0.878338,0.558571 -1.442415,1.4705602 -1.740234,2.4609375 l 0.0098,-0.0293 c -1.209708,3.773866 -2.621873,5.038436 -5.005859,6.9843747 a 1.60016,1.60016 0 0 0 -0.501953,0.722656 c -0.509592,1.497259 -0.203531,3.031086 0.591797,3.945313 0.795327,0.914226 1.789882,1.259431 2.6875,1.332031 a 1.60016,1.60016 0 0 0 1.474609,-0.730469 c 0.241672,-0.376082 0.402911,-0.451837 0.896484,-0.568359 0.493573,-0.116522 1.261864,-0.139804 2.175781,-0.244141 0.913918,-0.104336 2.030078,-0.321976 3.046876,-1.068359 1.016797,-0.746383 1.794552,-1.967284 2.232421,-3.615234 a 1.6,1.6 0 0 0 -1.134765,-1.9570317 1.6,1.6 0 0 0 -1.957032,1.134766 c -0.30843,1.1607987 -0.682212,1.5997767 -1.033203,1.8574217 -0.35099,0.257645 -0.818592,0.389174 -1.515625,0.46875 -0.697032,0.07958 -1.566613,0.07671 -2.548828,0.308594 -0.622239,0.146898 -1.275348,0.510757 -1.880859,0.992187 -0.0055,-0.0052 -0.02301,-0.0067 -0.02734,-0.01172 -0.06023,-0.06923 -0.02605,-0.316116 0.01563,-0.576171 2.255378,-1.901687 4.241543,-3.9726587 5.53125,-7.9960937 a 1.60016,1.60016 0 0 0 0.0078,-0.0293 c 0.14495,-0.482023 0.295511,-0.619912 0.392578,-0.681641 0.0924,-0.05876 0.275432,-0.112933 0.695312,-0.05273 2.259725,0.483415 3.632651,1.875707 4.140625,3.130859 1.186043,2.9306037 0.86734,6.9003267 0.515625,8.9746097 -0.09251,0.514019 -0.15604,0.979098 0.04102,1.59375 0.197056,0.614652 1.010844,1.308356 1.669922,1.378906 1.318155,0.141099 1.745991,-0.423601 2.316406,-0.820313 l -0.0918,0.05859 c 0.808871,-0.484584 1.615018,-1.096539 2.359375,-1.761719 1.573836,3.52304 1.318496,7.100705 -0.248047,9.884766 -0.520673,-1.324025 -1.171479,-2.99931 -2.783203,-4.175781 a 1.60016,1.60016 0 0 0 -0.02148,-0.01563 c -0.489613,-0.344892 -1.046906,-0.598654 -1.681641,-0.632813 -0.634735,-0.03416 -1.300945,0.211833 -1.742187,0.585938 -0.882486,0.748208 -1.075558,1.695705 -1.109375,2.580078 a 1.60016,1.60016 0 0 0 0,0.0098 c -0.08424,2.687451 0.724837,4.85507 1.335937,6.917968 0.610108,2.059548 1.07619,4.02886 0.701172,6.722656 -0.399394,2.440505 -2.223318,4.978434 -5.119141,5.333985 -2.076985,0.255034 -3.477056,-0.103051 -4.373046,-0.722656 -0.895991,-0.619606 -1.429834,-1.538701 -1.603516,-2.953125 -0.131425,-1.070297 0.11962,-1.887957 0.478516,-2.585938 0.0076,0.186137 -0.04991,0.354676 -0.02734,0.544922 a 1.60016,1.60016 0 0 0 0.002,0.0059 c 0.127697,1.040079 0.572018,2.092262 1.425781,2.951172 0.853763,0.858911 2.218975,1.446848 3.710938,1.263672 2.190783,-0.269089 4.010588,-2.194768 4.455078,-4.878906 a 1.60016,1.60016 0 0 0 0.01367,-0.101563 c 0.205383,-2.059318 -0.2572,-3.81 -1.109375,-5.167968 -0.852176,-1.357969 -2.00263,-2.323109 -3.119141,-3.222657 -2.072036,-1.66931 -3.692792,-2.579553 -4.117188,-5.822265 a 1.60016,1.60016 0 0 0 -0.002,-0.0098 c -0.212798,-1.548364 0.782933,-3.136649 1.851563,-3.810547 a 1.6,1.6 0 0 0 0.5,-2.207031 1.6,1.6 0 0 0 -2.207031,-0.5 c -2.108095,1.329403 -3.726247,3.948386 -3.314453,6.951172 9.2e-5,6.77e-4 -9.4e-5,0.0013 0,0.002 0.57267,4.343123 3.374684,6.352671 5.28125,7.888672 1.060289,0.854252 1.904741,1.616909 2.416015,2.431641 0.50249,0.800733 0.76271,1.66325 0.632813,3.085937 -0.281728,1.608937 -1.027115,2.104399 -1.671875,2.183594 -0.553238,0.06792 -0.780845,-0.07023 -1.050782,-0.341797 -0.269352,-0.270977 -0.476235,-0.752528 -0.517578,-1.083984 -0.118542,-1.009814 0.102989,-1.902198 0.642578,-3.179688 a 1.60016,1.60016 0 0 0 -1.667968,-2.208984 c -3.178248,0.390212 -6.344009,3.618166 -5.78125,8.201172 0.259717,2.115075 1.257224,4.020445 2.958984,5.197265 1.70176,1.17682 3.96517,1.587191 6.583984,1.265625 4.530796,-0.556294 7.306157,-4.368804 7.892579,-8.021484 a 1.60016,1.60016 0 0 0 0.0059,-0.0332 c 0.461925,-3.296856 -0.15593,-5.904465 -0.802735,-8.087891 -0.563111,-1.900901 -1.028691,-3.482547 -1.11914,-5.162109 0.460352,0.652649 0.890334,1.470264 1.279297,2.439453 a 1.60016,1.60016 0 0 0 0.0039,0.0078 c 0.210973,0.517599 0.4703,0.98394 0.875,1.390625 0.4047,0.406685 1.020075,0.749035 1.691406,0.775391 1.342663,0.05271 2.180258,-0.856463 2.773438,-1.792969 a 1.60016,1.60016 0 0 0 0.01563,-0.02148 C 37.0194,24.57781 37.344534,19.328453 34.8795,14.534533 a 1.60016,1.60016 0 0 0 -0.03711,-0.06836 c -0.221905,-0.384486 -0.477359,-0.743041 -0.886719,-1.048828 -0.40936,-0.305787 -1.032332,-0.502057 -1.572266,-0.449219 -1.068329,0.104547 -1.537532,0.668204 -1.984375,1.117187 -0.292174,0.283576 -0.729251,0.545168 -1.113281,0.824219 C 29.574531,12.448984 29.72578,9.2268693 28.42825,6.0207903 27.485617,3.6916405 25.203276,1.6243004 21.941922,0.9446188 a 1.60016,1.60016 0 0 0 -0.06836,-0.013672 c -0.507115,-0.083161 -1.028466,-0.094823 -1.533204,-0.015625 z" fill="#008055"/>
</svg>
