<svg xmlns="http://www.w3.org/2000/svg" width="48" height="48">
	<path d="m 32.549504,1.1357184 c -3.673567,0.09767 -6.948478,1.896604 -9.195313,4.427734 -2.99578,3.374841 -4.445797,8.1192416 -2.96875,12.3652346 a 1.80018,1.80018 0 0 0 0.01367,0.04102 c 0.202608,0.540319 0.200005,0.758366 0.199219,0.763672 -7.86e-4,0.0053 0.04026,0.03424 -0.300781,0.357422 a 1.80018,1.80018 0 0 0 -0.03516,0.03516 L 2.8717694,36.538062 c -1.361747,1.362642 -2.03390203,3.046037 -1.99023403,4.630859 0.043668,1.584823 0.74834403,3.007684 1.80078103,4.035157 2.104875,2.054944 5.962906,2.454603 8.6347656,-0.21875 L 26.449894,30.168921 a 1.8,1.8 0 0 0 0.02734,-2.544922 1.8,1.8 0 0 0 -2.544922,-0.02734 L 8.7838794,42.426734 a 1.80018,1.80018 0 0 0 -0.013672,0.01367 c -1.46113,1.461946 -2.691441,1.049384 -3.572266,0.189453 -0.440413,-0.429966 -0.703066,-0.991335 -0.71875,-1.560547 -0.015684,-0.569212 0.160652,-1.20897 0.9375,-1.986328 L 22.774113,21.704078 c 0.681495,-0.645815 1.243446,-1.489641 1.384766,-2.44336 0.141319,-0.953719 -0.09874,-1.781506 -0.388672,-2.554687 l 0.01367,0.04102 c -0.941161,-2.705507 0.01663,-6.263563 2.263672,-8.7949216 1.501839,-1.69187 3.483008,-2.811178 5.736328,-3.091796 l -1.38086,1.382812 c -1.12121,1.040792 -1.74838,2.668591 -1.466797,4.2167966 a 1.80018,1.80018 0 0 0 0.01563,0.07422 l 1.060547,4.685546 a 1.80018,1.80018 0 0 0 0.0039,0.01953 c 0.158962,0.667554 0.431328,1.364012 0.958984,1.953125 0.527656,0.589112 1.268343,0.972972 2.001953,1.15625 a 1.80018,1.80018 0 0 0 0.04688,0.01172 l 5.013672,1.107421 c 0.654545,0.14466 1.36569,0.247405 2.134766,-0.0078 0.769075,-0.255217 1.24823,-0.754199 1.625,-1.171875 l -0.06445,0.06836 1.626954,-1.626953 c -0.986365,6.706963 -8.896408,10.050874 -13.056641,7.074219 a 1.8,1.8 0 0 0 -2.509766,0.416015 1.8,1.8 0 0 0 0.416016,2.511719 c 7.937676,5.679423 21.290752,-2.619238 18.544922,-14.589843 a 1.80018,1.80018 0 0 0 -3.027344,-0.869141 l -4.539063,4.537109 a 1.80018,1.80018 0 0 0 -0.06445,0.06836 c -0.262792,0.291323 -0.263634,0.223679 -0.08398,0.164062 0.17965,-0.05962 0.194108,0.0027 -0.224609,-0.08984 l -4.978516,-1.099609 c -0.189804,-0.04976 -0.184934,-0.06836 -0.179688,-0.0625 0.0053,0.0059 -0.06171,-0.0855 -0.132812,-0.365234 l -0.002,-0.0098 -1.041016,-4.6015626 c -0.07556,-0.416839 -0.05014,-0.540622 0.371094,-0.93164 a 1.80018,1.80018 0 0 0 0.04688,-0.04688 l 4.195312,-4.195313 a 1.80018,1.80018 0 0 0 -0.761718,-2.998046 c -1.290174,-0.381025 -2.558681,-0.538415 -3.783203,-0.50586 z" fill="#008055"/>
</svg>
