<svg xmlns="http://www.w3.org/2000/svg" width="48" height="48">
	<path d="M 23.369141 3.4570312 C 21.510734 3.4234121 19.59104 3.9944538 18.242188 5.4199219 A 1.6001612 1.6001612 0 0 0 18.195312 5.4707031 C 17.265864 6.5440623 16.729061 8.3843413 17.554688 10.142578 L 17.517578 10.058594 L 21.830078 20.808594 A 1.6000011 1.6000011 0 0 0 23.912109 21.699219 A 1.6000011 1.6000011 0 0 0 24.800781 19.617188 L 20.490234 8.8671875 A 1.6001612 1.6001612 0 0 0 20.453125 8.7832031 C 20.182239 8.2063291 20.345345 7.8966613 20.591797 7.6035156 C 21.150103 7.0295693 22.196336 6.6360935 23.310547 6.65625 C 24.431327 6.6765252 25.503794 7.1118543 26.080078 7.7363281 C 26.255669 7.9379788 26.339282 8.3499404 26.199219 8.7246094 C 26.199219 8.7246094 26.199219 8.7265625 26.199219 8.7265625 L 23.863281 14.671875 A 1.6000011 1.6000011 0 0 0 24.765625 16.746094 A 1.6000011 1.6000011 0 0 0 26.841797 15.841797 L 29.185547 9.875 A 1.6001612 1.6001612 0 0 0 29.195312 9.8515625 C 29.722504 8.4489236 29.537171 6.8012664 28.470703 5.6015625 A 1.6001612 1.6001612 0 0 0 28.458984 5.5878906 C 27.131579 4.1310825 25.227547 3.4906505 23.369141 3.4570312 z M 33.304688 3.8847656 A 1.90019 1.90019 0 0 0 31.466797 5.7832031 L 31.484375 35.455078 C 31.469455 38.464656 30.972415 38.924242 29.753906 39.955078 C 28.273613 41.07098 26.412152 40.911688 25.302734 39.990234 C 24.135064 39.020394 23.876376 36.78549 24.658203 35.78125 C 25.337721 34.909777 25.903788 34.639907 26.488281 34.511719 C 27.073196 34.383439 27.735977 34.449898 28.390625 34.613281 A 1.9 1.9 0 0 0 30.693359 33.230469 A 1.9 1.9 0 0 0 29.310547 30.927734 C 28.336445 30.68462 27.068724 30.494861 25.673828 30.800781 C 24.278933 31.106701 22.815415 31.962584 21.660156 33.445312 A 1.90019 1.90019 0 0 0 21.658203 33.445312 C 19.40051 36.345272 20.05701 40.573504 22.875 42.914062 C 25.400272 45.011499 29.24237 45.147735 32.095703 42.958984 A 1.90019 1.90019 0 0 0 32.166016 42.904297 C 33.831059 41.496899 35.264519 39.24044 35.283203 35.472656 A 1.90019 1.90019 0 0 0 35.285156 35.462891 L 35.271484 12.298828 C 37.006367 13.74627 38.958405 14.659273 40.376953 15.337891 C 42.458722 16.333874 43.968662 20.298755 41.839844 24.826172 A 1.9 1.9 0 0 0 42.75 27.353516 A 1.9 1.9 0 0 0 45.277344 26.443359 C 48.069325 20.505575 46.593957 14.100573 42.015625 11.910156 C 39.129689 10.529554 35.985148 9.1256957 35.230469 5.4042969 A 1.90019 1.90019 0 0 0 33.304688 3.8847656 z M 12.898438 7.7714844 C 10.929701 7.6799831 9.1308331 8.5749149 7.7929688 9.8652344 C 6.4551045 11.155554 5.5005122 12.917165 5.5546875 14.878906 A 1.6001612 1.6001612 0 0 0 5.5585938 14.947266 C 5.6603539 16.363465 6.583089 18.04367 8.4101562 18.703125 L 8.3242188 18.669922 L 18.974609 23.222656 A 1.6000011 1.6000011 0 0 0 21.074219 22.378906 A 1.6000011 1.6000011 0 0 0 20.232422 20.279297 L 9.5820312 15.726562 A 1.6001612 1.6001612 0 0 0 9.4980469 15.693359 C 8.8985899 15.476993 8.7947365 15.141319 8.7617188 14.759766 C 8.7506594 13.959142 9.2115532 12.941582 10.013672 12.167969 C 10.82052 11.389794 11.887264 10.938581 12.736328 10.972656 C 13.003078 10.991083 13.35364 11.22392 13.519531 11.587891 L 16.072266 17.445312 A 1.6000011 1.6000011 0 0 0 18.177734 18.273438 A 1.6000011 1.6000011 0 0 0 19.005859 16.166016 L 16.443359 10.289062 A 1.6001612 1.6001612 0 0 0 16.433594 10.267578 C 15.814559 8.9029818 14.520394 7.8676498 12.917969 7.7734375 A 1.6001612 1.6001612 0 0 0 12.898438 7.7714844 z M 6.0605469 19.298828 C 5.1300905 19.317681 4.2048931 19.640098 3.4550781 20.306641 A 1.6001612 1.6001612 0 0 0 3.4394531 20.320312 C 1.982645 21.647718 1.3441661 23.55175 1.3105469 25.410156 C 1.2769278 27.268563 1.8479694 29.188257 3.2734375 30.537109 A 1.6001612 1.6001612 0 0 0 3.3242188 30.583984 C 4.397578 31.513433 6.2378569 32.048283 7.9960938 31.222656 L 7.9121094 31.259766 L 18.662109 26.947266 A 1.6000011 1.6000011 0 0 0 19.550781 24.867188 A 1.6000011 1.6000011 0 0 0 17.470703 23.978516 L 6.7207031 28.289062 A 1.6001612 1.6001612 0 0 0 6.6367188 28.326172 C 6.0598447 28.597058 5.7501769 28.431998 5.4570312 28.185547 C 4.8830849 27.627241 4.4896092 26.581007 4.5097656 25.466797 C 4.5300408 24.346017 4.9634168 23.27355 5.5878906 22.697266 C 5.7895413 22.521675 6.2034561 22.438062 6.578125 22.578125 L 12.523438 24.916016 A 1.6000011 1.6000011 0 0 0 14.597656 24.011719 A 1.6000011 1.6000011 0 0 0 13.695312 21.935547 L 7.7265625 19.591797 A 1.6001612 1.6001612 0 0 0 7.7050781 19.583984 C 7.1790885 19.386287 6.6188207 19.287516 6.0605469 19.298828 z M 19.611328 27.574219 A 1.6000011 1.6000011 0 0 0 18.132812 28.544922 L 13.580078 39.195312 A 1.6001612 1.6001612 0 0 0 13.546875 39.28125 C 13.330509 39.880707 12.994834 39.982607 12.613281 40.015625 C 11.812658 40.026684 10.795097 39.565791 10.021484 38.763672 C 9.24331 37.956824 8.7920968 36.892033 8.8261719 36.042969 C 8.844599 35.776219 9.0754827 35.425657 9.4394531 35.259766 C 9.4394531 35.259766 9.4414062 35.257812 9.4414062 35.257812 L 15.296875 32.707031 A 1.6000011 1.6000011 0 0 0 16.125 30.601562 A 1.6000011 1.6000011 0 0 0 14.019531 29.771484 L 8.140625 32.333984 A 1.6001612 1.6001612 0 0 0 8.1191406 32.34375 C 6.7545443 32.962785 5.7192123 34.258903 5.625 35.861328 A 1.6001612 1.6001612 0 0 0 5.625 35.878906 C 5.5334988 37.847643 6.4264774 39.648464 7.7167969 40.986328 C 9.0071165 42.324192 10.768728 43.276832 12.730469 43.222656 A 1.6001612 1.6001612 0 0 0 12.800781 43.21875 C 14.21698 43.11699 15.895232 42.196208 16.554688 40.369141 L 16.523438 40.453125 L 21.074219 29.802734 A 1.6000011 1.6000011 0 0 0 20.232422 27.703125 A 1.6000011 1.6000011 0 0 0 19.611328 27.574219 z " fill="#008055"/>
</svg>
