<svg xmlns="http://www.w3.org/2000/svg" width="48" height="48">
	<path d="m 6.2548825,2.3964845 c -1.011875,0 -1.985816,0.33492 -2.689453,1.019531 -0.703636,0.684611 -1.085937,1.684921 -1.085937,2.779297 v 5.8554685 c 0,1.078571 0.231525,2.10922 0.880859,2.919922 0.649334,0.810703 1.715825,1.273438 2.894531,1.273438 a 1.1,1.1 0 0 0 1.09961,-1.09961 1.1,1.1 0 0 0 -1.09961,-1.101562 c -0.681143,0 -0.953098,-0.169244 -1.175781,-0.447266 -0.222683,-0.278022 -0.398437,-0.792392 -0.398437,-1.544922 V 6.1953125 c 0,-0.616625 0.174445,-0.966186 0.417968,-1.203125 0.243524,-0.236939 0.608846,-0.396485 1.15625,-0.396485 h 6.1757815 c 0.688561,0 1.009034,0.165461 1.205078,0.369141 0.196043,0.20368 0.355469,0.558779 0.355469,1.230469 v 5.8554685 c 0,0.691522 -0.195853,1.202152 -0.457031,1.513672 -0.261179,0.311521 -0.57125,0.478516 -1.103516,0.478516 H 8.9326175 a 1.1,1.1 0 0 0 -1.09961,1.101562 1.1,1.1 0 0 0 1.09961,1.09961 h 3.4980465 c 1.110294,0 2.130601,-0.480247 2.789063,-1.265625 0.658462,-0.78538 0.970703,-1.821057 0.970703,-2.927735 V 6.1953125 c 0,-1.047111 -0.281626,-2.041893 -0.970703,-2.757813 -0.689078,-0.71592 -1.696983,-1.041015 -2.789063,-1.041015 z m 14.6835945,0 c -1.011873,0 -1.985819,0.33492 -2.689454,1.019531 -0.703634,0.684611 -1.085937,1.684921 -1.085937,2.779297 v 5.8554685 c 0,1.078569 0.23348,2.109219 0.882812,2.919922 0.649333,0.810704 1.713872,1.273438 2.892579,1.273438 a 1.1,1.1 0 0 0 1.099609,-1.09961 1.1,1.1 0 0 0 -1.099609,-1.101562 c -0.681143,0 -0.9531,-0.169244 -1.175782,-0.447266 -0.22268,-0.278021 -0.398437,-0.79239 -0.398437,-1.544922 V 6.1953125 c 0,-0.616625 0.176399,-0.966186 0.419922,-1.203125 0.243523,-0.236939 0.606898,-0.396485 1.154297,-0.396485 h 6.175781 c 0.688567,0 1.009034,0.165461 1.205078,0.369141 0.196044,0.20368 0.355469,0.558779 0.355469,1.230469 v 5.8554685 c 0,0.691518 -0.19585,1.20215 -0.457032,1.513672 -0.261181,0.311523 -0.571257,0.478516 -1.103515,0.478516 h -3.498047 a 1.1,1.1 0 0 0 -1.099609,1.101562 1.1,1.1 0 0 0 1.099609,1.09961 h 3.498047 c 1.11029,0 2.130597,-0.480248 2.789062,-1.265625 0.658465,-0.785379 0.970703,-1.821053 0.970703,-2.927735 V 6.1953125 c 0,-1.047111 -0.279671,-2.041893 -0.96875,-2.757813 -0.689078,-0.71592 -1.698932,-1.041015 -2.791015,-1.041015 z m 14.646484,0 c -1.011868,0 -1.985818,0.334921 -2.689453,1.019531 -0.703635,0.68461 -1.083985,1.684919 -1.083985,2.779297 v 5.8554685 c 0,1.078571 0.231527,2.10922 0.88086,2.919922 0.649332,0.810702 1.713875,1.273438 2.892578,1.273438 a 1.1,1.1 0 0 0 1.099609,-1.09961 1.1,1.1 0 0 0 -1.099609,-1.101562 c -0.681137,0 -0.953099,-0.169244 -1.175781,-0.447266 -0.222682,-0.278023 -0.398438,-0.792392 -0.398438,-1.544922 V 6.1953125 c 0,-0.616623 0.176398,-0.966185 0.419922,-1.203125 0.243524,-0.236941 0.606905,-0.396485 1.154297,-0.396485 h 6.175781 c 0.688561,0 1.009035,0.165461 1.205078,0.369141 0.196044,0.20368 0.355469,0.558779 0.355469,1.230469 v 5.8554685 c 0,0.69152 -0.195852,1.202151 -0.457031,1.513672 -0.261181,0.311522 -0.571256,0.478516 -1.103516,0.478516 h -3.498047 a 1.1,1.1 0 0 0 -1.099609,1.101562 1.1,1.1 0 0 0 1.099609,1.09961 h 3.498047 c 1.110292,0 2.130601,-0.480247 2.789063,-1.265625 0.658462,-0.785379 0.970703,-1.821056 0.970703,-2.927735 V 6.1953125 c 0,-1.047111 -0.279674,-2.041893 -0.96875,-2.757813 -0.689076,-0.71592 -1.698937,-1.041015 -2.791016,-1.041015 z M 9.2958985,5.7167965 c -0.609669,-8.62e-4 -1.233247,0.164683 -1.757812,0.572266 -0.524567,0.407583 -0.90625,1.108268 -0.90625,1.878906 a 1,1 0 0 0 1,1 1,1 0 0 0 1,-1 c 0,-0.200362 0.034422,-0.224333 0.132812,-0.300781 0.09839,-0.07645 0.306405,-0.150704 0.527344,-0.150391 0.220938,3.13e-4 0.42979,0.07493 0.529297,0.152344 0.099506,0.07741 0.134765,0.102203 0.134765,0.298828 0,0.20642 -0.023348,0.236832 -0.15625,0.376953 -0.132901,0.140121 -0.416358,0.330025 -0.791015,0.550781 -0.749315,0.441514 -1.911685,1.0548995 -2.466797,2.4101565 a 1.0001,1.0001 0 0 0 0.925781,1.378907 h 3.6249995 a 1,1 0 0 0 1,-1 1,1 0 0 0 -1,-1 H 9.9521485 c 0.03431,-0.02025 0.037116,-0.04374 0.072266,-0.06445 0.395277,-0.232906 0.833031,-0.483531 1.226563,-0.8984385 0.39353,-0.414907 0.705078,-1.055426 0.705078,-1.753906 0,-0.769675 -0.382802,-1.469744 -0.90625,-1.876953 -0.52345,-0.407212 -1.1442385,-0.57336 -1.7539075,-0.574222 z m 27.9374995,0.113281 a 1.0001,1.0001 0 0 0 -1,1 v 2.201172 a 1.0001,1.0001 0 0 0 0.646485,0.935547 1,1 0 0 0 -0.367188,0.02344 1,1 0 0 0 -0.716797,1.2187505 c 0.17754,0.684934 0.676657,1.184226 1.175782,1.445312 0.499124,0.261086 1.005623,0.345703 1.466797,0.345703 0.551585,0 1.172992,-0.113861 1.771484,-0.474609 0.598048,-0.360481 1.167651,-1.105682 1.166016,-2.011719 0,-1.1136305 -0.827349,-1.9356045 -1.66211,-2.2460945 a 1.0001,1.0001 0 0 0 0,-0.002 c -0.497926,-0.184757 -0.992769,-0.131879 -1.480469,-0.140625 v -0.294922 h 2.011719 a 1,1 0 0 0 1,-1 1,1 0 0 0 -1,-1 z m -14.86914,0.101563 a 1,1 0 0 0 -1,1 1,1 0 0 0 1,1 h 0.941406 l -0.480469,0.52539 a 1.0001,1.0001 0 0 0 0.738282,1.6757825 c 0.437112,0 0.825161,0.09343 0.992187,0.189453 0.167026,0.09602 0.167969,0.05282 0.167969,0.292969 a 1.0001,1.0001 0 0 0 0,0.002 c 5.15e-4,0.188354 -0.01876,0.186146 -0.199219,0.294921 -0.180459,0.108775 -0.530166,0.189454 -0.738281,0.189454 -0.180951,0 -0.411068,-0.05022 -0.539063,-0.117188 -0.127994,-0.06696 -0.145266,-0.08817 -0.167968,-0.175781 a 1,1 0 0 0 -1.21875,-0.716797 1,1 0 0 0 -0.716797,1.21875 c 0.177498,0.684991 0.676631,1.184175 1.175781,1.445312 0.49915,0.261138 1.005629,0.345704 1.466797,0.345704 0.551584,0 1.172995,-0.115813 1.771484,-0.476563 0.59849,-0.36075 1.1685,-1.104773 1.166016,-2.011719 -7.97e-4,-0.8739645 -0.532325,-1.6588585 -1.169922,-2.0253905 -0.03688,-0.0212 -0.07802,-0.006 -0.115234,-0.02539 l 0.873046,-0.957031 a 1.0001,1.0001 0 0 0 -0.738281,-1.673828 z m 14.75,4.0917965 a 1.0001,1.0001 0 0 0 0.11914,0.0078 c 0.933735,0 1.501363,0.0052 1.783204,0.109375 0.280979,0.104511 0.359375,0.180078 0.359375,0.373047 a 1.0001,1.0001 0 0 0 0,0.0039 c 5.15e-4,0.188351 -0.01876,0.186146 -0.199219,0.294922 -0.180464,0.108777 -0.530166,0.1875 -0.738281,0.1875 -0.180966,0 -0.411046,-0.05022 -0.539063,-0.117188 -0.128017,-0.06696 -0.145297,-0.08832 -0.167969,-0.175782 A 1,1 0 0 0 37.114258,10.023437 Z M 6.2548825,17.076172 c -1.011899,0 -1.985829,0.334914 -2.689453,1.019531 -0.703623,0.684617 -1.085937,1.684958 -1.085937,2.779297 v 5.855469 c 0,1.078569 0.231525,2.109219 0.880859,2.919922 0.649334,0.810701 1.715825,1.273437 2.894531,1.273437 a 1.1,1.1 0 0 0 1.09961,-1.099609 1.1,1.1 0 0 0 -1.09961,-1.101563 c -0.681143,0 -0.953098,-0.169243 -1.175781,-0.447265 -0.222683,-0.278023 -0.398437,-0.792393 -0.398437,-1.544922 V 20.875 c 0,-0.61656 0.174432,-0.966167 0.417968,-1.203125 0.243537,-0.236959 0.608869,-0.396484 1.15625,-0.396484 h 6.1757815 c 0.688547,0 1.00902,0.16544 1.205078,0.36914 0.196057,0.2037 0.355469,0.558841 0.355469,1.230469 v 5.855469 c 0,0.691519 -0.19584,1.202123 -0.457031,1.513672 -0.261193,0.311548 -0.571272,0.478515 -1.103516,0.478515 H 8.9326175 a 1.1,1.1 0 0 0 -1.09961,1.101563 1.1,1.1 0 0 0 1.09961,1.099609 h 3.4980465 c 1.110316,0 2.130609,-0.480224 2.789063,-1.265625 0.658452,-0.785401 0.970703,-1.821054 0.970703,-2.927734 V 20.875 c 0,-1.047072 -0.281639,-2.041887 -0.970703,-2.757812 -0.689065,-0.715925 -1.696959,-1.041016 -2.789063,-1.041016 z m 14.6835945,0 c -1.011895,0 -1.985833,0.334914 -2.689454,1.019531 -0.70362,0.684617 -1.085937,1.684958 -1.085937,2.779297 v 5.855469 c 0,1.078567 0.23348,2.109217 0.882812,2.919922 0.649333,0.810702 1.713872,1.273437 2.892579,1.273437 a 1.1,1.1 0 0 0 1.099609,-1.099609 1.1,1.1 0 0 0 -1.099609,-1.101563 c -0.681143,0 -0.9531,-0.169244 -1.175782,-0.447265 -0.22268,-0.278022 -0.398437,-0.792392 -0.398437,-1.544922 V 20.875 c 0,-0.61656 0.176386,-0.966167 0.419922,-1.203125 0.243535,-0.236959 0.606922,-0.396484 1.154297,-0.396484 h 6.175781 c 0.688547,0 1.009022,0.165441 1.205078,0.36914 0.196055,0.203699 0.355469,0.558839 0.355469,1.230469 v 5.855469 c 0,0.691519 -0.195841,1.202123 -0.457032,1.513672 -0.26119,0.311548 -0.571278,0.478515 -1.103515,0.478515 h -3.498047 a 1.1,1.1 0 0 0 -1.099609,1.101563 1.1,1.1 0 0 0 1.099609,1.099609 h 3.498047 c 1.110314,0 2.130612,-0.480224 2.789062,-1.265625 0.658451,-0.785401 0.970703,-1.821054 0.970703,-2.927734 V 20.875 c 0,-1.047069 -0.279688,-2.041886 -0.96875,-2.757812 -0.689061,-0.715928 -1.698912,-1.041016 -2.791015,-1.041016 z m 2.77539,3.365234 c -0.723666,0 -1.41731,0.230244 -1.96289,0.683594 -0.545581,0.453349 -0.927735,1.168325 -0.927735,1.957031 v 0.0039 0.0039 c 0.0072,0.948236 0.627378,1.761896 1.361328,2.087891 0.04382,0.01946 0.09038,0.02597 0.134766,0.04297 a 1,1 0 0 0 -0.669922,0.359375 1,1 0 0 0 0.138672,1.408203 c 0.544505,0.446714 1.217506,0.689453 1.925781,0.689453 0.69408,0 1.368302,-0.225257 1.917969,-0.669922 0.549667,-0.444665 0.966113,-1.161467 0.972656,-1.982422 v -0.0039 -1.939453 c 0,-0.824149 -0.416091,-1.552498 -0.972656,-1.992188 -0.556565,-0.439689 -1.233665,-0.648437 -1.917969,-0.648437 z M 9.1865235,20.621094 c -0.691807,0 -1.365996,0.223441 -1.916016,0.664062 -0.55002,0.440621 -0.968017,1.153571 -0.974609,1.972657 v 0.0039 1.921875 c 0,0.822144 0.419707,1.546773 0.976562,1.982422 0.556856,0.435648 1.231854,0.640625 1.914063,0.640625 0.72163,0 1.4130115,-0.226441 1.9589845,-0.675782 0.545973,-0.449339 0.93164,-1.162361 0.93164,-1.949218 v -0.002 -0.0039 c -0.0073,-0.946029 -0.63273,-1.75594 -1.365234,-2.078125 -0.02857,-0.01257 -0.05907,-0.01581 -0.08789,-0.02734 a 1,1 0 0 0 0.63086,-0.359375 1,1 0 0 0 -0.146485,-1.40625 c -0.544797,-0.442472 -1.2159015,-0.68355 -1.9218755,-0.68355 z m 14.5273435,1.820312 c 0.253915,0 0.523545,0.09499 0.677735,0.216797 0.154189,0.121811 0.21289,0.213378 0.21289,0.423828 v 0.310547 a 1,1 0 0 0 -0.910156,-0.06641 c -0.239779,0.102384 -0.546968,0.09019 -0.697266,0.02344 -0.148291,-0.06587 -0.169618,-0.05201 -0.171875,-0.271484 0.0011,-0.187622 0.05783,-0.293329 0.203125,-0.414062 0.146671,-0.121877 0.396943,-0.222657 0.685547,-0.222656 z M 9.1865235,22.621094 c 0.219086,0 0.490892,0.09689 0.660156,0.234375 a 1,1 0 0 0 0.052735,0.04102 c -0.495526,-0.05389 -1.001283,0.0099 -1.476563,0.210937 a 1,1 0 0 0 -0.050781,0.02539 c 0.031146,-0.09828 0.0423,-0.200518 0.15039,-0.28711 0.162,-0.129778 0.43083,-0.224609 0.664063,-0.224609 z m 26.3984375,0.841797 c -1.011871,0 -1.985816,0.334921 -2.689453,1.019531 -0.703637,0.68461 -1.083985,1.684919 -1.083985,2.779297 v 5.855469 c 0,1.078569 0.2315,2.109262 0.88086,2.919921 0.64936,0.81066 1.71391,1.271485 2.892578,1.271485 a 1.1,1.1 0 0 0 1.099609,-1.09961 1.1,1.1 0 0 0 -1.099609,-1.099609 c -0.681182,0 -0.953122,-0.1693 -1.175781,-0.447266 -0.222659,-0.277965 -0.398438,-0.792392 -0.398438,-1.544921 v -5.855469 c 0,-0.616622 0.176397,-0.966186 0.419922,-1.203125 0.243525,-0.23694 0.606898,-0.396485 1.154297,-0.396485 h 6.175781 c 0.688547,0 1.00902,0.163488 1.205078,0.367188 0.196059,0.203699 0.355469,0.560794 0.355469,1.232422 v 5.855469 c 0,0.691518 -0.195849,1.202148 -0.457031,1.513671 -0.261182,0.311524 -0.571256,0.478516 -1.103516,0.478516 h -3.498047 a 1.1,1.1 0 0 0 -1.099609,1.099609 1.1,1.1 0 0 0 1.099609,1.09961 h 3.498047 c 1.110292,0 2.130598,-0.480249 2.789063,-1.265625 0.658465,-0.785379 0.970703,-1.8191 0.970703,-2.925781 v -5.855469 c 0,-1.047072 -0.279685,-2.041888 -0.96875,-2.757813 -0.689065,-0.715925 -1.698912,-1.041015 -2.791016,-1.041015 z M 9.5888675,24.876953 c 0.127166,-0.0015 0.24249,0.01741 0.318359,0.05078 0.1496295,0.06581 0.1658695,0.04774 0.1679685,0.257812 -0.0011,0.179891 -0.05436,0.281171 -0.1992185,0.400391 -0.146274,0.120384 -0.398793,0.220703 -0.689453,0.220703 -0.256011,0 -0.527742,-0.09444 -0.681641,-0.214844 -0.153899,-0.120401 -0.208984,-0.205748 -0.208984,-0.408203 v -0.298828 a 1,1 0 0 0 0.90625,0.06641 c 0.120542,-0.05098 0.259552,-0.07276 0.386719,-0.07422 z m 14.9472655,0.261719 c -0.02983,0.111539 -0.04716,0.221466 -0.16211,0.314453 -0.16235,0.131335 -0.429186,0.224609 -0.660156,0.224609 -0.216765,0 -0.488669,-0.09724 -0.658203,-0.236328 a 1,1 0 0 0 -0.08594,-0.0625 c 0.506486,0.06063 1.024039,-0.0055 1.509765,-0.21289 a 1,1 0 0 0 0.05664,-0.02734 z m 12.21875,1.707031 a 1,1 0 0 0 -1,1 1,1 0 0 0 1,1 h 2.371094 l -1.990235,3.685547 a 1,1 0 0 0 0.404297,1.355469 1,1 0 0 0 1.355469,-0.404297 l 2.787109,-5.162109 a 1.0001,1.0001 0 0 0 -0.878906,-1.47461 z M 6.2548825,31.755859 c -1.011899,0 -1.985827,0.334916 -2.689453,1.019532 -0.703625,0.684615 -1.085937,1.684955 -1.085937,2.779297 v 5.855468 c 0,1.078532 0.231521,2.109237 0.880859,2.919922 0.649338,0.810684 1.715825,1.273438 2.894531,1.273438 a 1.1,1.1 0 0 0 1.09961,-1.101563 1.1,1.1 0 0 0 -1.09961,-1.099609 c -0.681143,0 -0.953097,-0.16925 -1.175781,-0.447266 -0.222684,-0.278016 -0.398437,-0.792454 -0.398437,-1.544922 v -5.855468 c 0,-0.61656 0.174429,-0.966167 0.417968,-1.203125 0.24354,-0.236961 0.608869,-0.396485 1.15625,-0.396485 h 6.1757815 c 0.688561,0 1.009034,0.163508 1.205078,0.367188 0.196043,0.203679 0.355469,0.560732 0.355469,1.232422 v 5.855468 c 0,0.691519 -0.19584,1.202123 -0.457031,1.513672 -0.261191,0.311549 -0.57128,0.478516 -1.103516,0.478516 H 8.9326175 a 1.1,1.1 0 0 0 -1.09961,1.099609 1.1,1.1 0 0 0 1.09961,1.101563 h 3.4980465 c 1.110314,0 2.130612,-0.480224 2.789063,-1.265625 0.65845,-0.785401 0.970703,-1.821056 0.970703,-2.927735 v -5.855468 c 0,-1.047112 -0.281626,-2.041894 -0.970703,-2.757813 -0.689078,-0.71592 -1.696983,-1.041016 -2.789063,-1.041016 z m 14.6835945,0 c -1.011895,0 -1.985833,0.334915 -2.689454,1.019532 -0.70362,0.684615 -1.085937,1.684956 -1.085937,2.779297 v 5.855468 c 0,1.078528 0.23348,2.109236 0.882812,2.919922 0.649333,0.810685 1.713872,1.273438 2.892579,1.273438 a 1.1,1.1 0 0 0 1.099609,-1.101563 1.1,1.1 0 0 0 -1.099609,-1.099609 c -0.681143,0 -0.953102,-0.169252 -1.175782,-0.447266 -0.22268,-0.278014 -0.398437,-0.792449 -0.398437,-1.544922 v -5.855468 c 0,-0.616561 0.176386,-0.966167 0.419922,-1.203125 0.243535,-0.236959 0.606922,-0.396485 1.154297,-0.396485 h 6.175781 c 0.688567,0 1.009037,0.163508 1.205078,0.367188 0.196041,0.203679 0.355469,0.560729 0.355469,1.232422 v 5.855468 c 0,0.691519 -0.195841,1.202123 -0.457032,1.513672 -0.26119,0.311549 -0.571278,0.478516 -1.103515,0.478516 h -3.498047 a 1.1,1.1 0 0 0 -1.099609,1.099609 1.1,1.1 0 0 0 1.099609,1.101563 h 3.498047 c 1.110314,0 2.130612,-0.480224 2.789062,-1.265625 0.658451,-0.785401 0.970703,-1.821056 0.970703,-2.927735 v -5.855468 c 0,-1.047109 -0.279674,-2.041892 -0.96875,-2.757813 -0.689076,-0.715922 -1.698932,-1.041016 -2.791015,-1.041016 z m 3.113281,3.271485 a 1,1 0 0 0 -0.808594,0.482422 l -2.169922,3.611328 a 1,1 0 0 0 -0.0078,0.01563 1,1 0 0 0 -0.0293,0.05078 1,1 0 0 0 -0.01758,0.03711 1,1 0 0 0 -0.01563,0.03906 1,1 0 0 0 -0.0098,0.02148 1,1 0 0 0 -0.01953,0.06445 1,1 0 0 0 -0.002,0.002 1,1 0 0 0 -0.002,0.0098 1,1 0 0 0 -0.01367,0.05078 1,1 0 0 0 -0.0039,0.02148 1,1 0 0 0 -0.01953,0.144531 1,1 0 0 0 -0.002,0.04297 1,1 0 0 0 0,0.01367 1,1 0 0 0 0.002,0.03516 1,1 0 0 0 0,0.01953 1,1 0 0 0 0.01953,0.154297 1,1 0 0 0 0.0039,0.01172 1,1 0 0 0 0.01367,0.05469 1,1 0 0 0 0.01563,0.04492 1,1 0 0 0 0.0078,0.02148 1,1 0 0 0 0.01172,0.03516 1,1 0 0 0 0.01367,0.03125 1,1 0 0 0 0.03711,0.07422 1,1 0 0 0 0,0.002 1,1 0 0 0 0.002,0.0039 1,1 0 0 0 0.125,0.173828 1,1 0 0 0 0.04492,0.04688 1,1 0 0 0 0.02148,0.02148 1,1 0 0 0 0.03906,0.0332 1,1 0 0 0 0.03125,0.02539 1,1 0 0 0 0.01758,0.01563 1,1 0 0 0 0.07813,0.05273 1,1 0 0 0 0.05664,0.03125 1,1 0 0 0 0.130859,0.05469 1,1 0 0 0 0.0332,0.01172 1,1 0 0 0 0.0098,0.0039 1,1 0 0 0 0.0625,0.01563 1,1 0 0 0 0.269531,0.02539 h 2.412109 v 0.748047 a 1,1 0 0 0 1,1 1,1 0 0 0 1,-1 v -3.470704 a 1,1 0 0 0 -1,-1 1,1 0 0 0 -1,1 v 0.722657 h -0.689453 l 1.257813,-2.09375 a 1,1 0 0 0 -0.341797,-1.373047 1,1 0 0 0 -0.564453,-0.140625 z m -14.8632815,0.0957 c -0.521241,-0.0015 -1.047217,0.09623 -1.533203,0.382812 -0.485986,0.286586 -0.943359,0.885247 -0.943359,1.580079 0,0.591875 0.307957,1.057901 0.707031,1.455078 -0.016181,0.01393 -0.03275,0.0169 -0.048828,0.03125 -0.427543,0.381571 -0.820313,1.004164 -0.820313,1.728515 0,0.731577 0.495884,1.343677 1.009766,1.634766 0.513882,0.291088 1.073909,0.390797 1.630859,0.390625 0.55695,-1.73e-4 1.1153065,-0.101544 1.6289065,-0.392578 0.5136,-0.291035 1.009766,-0.901216 1.009766,-1.632813 0,-0.73324 -0.425277,-1.263642 -0.949219,-1.691406 0.391895,-0.339076 0.779297,-0.862037 0.779297,-1.523437 0,-0.695088 -0.45797,-1.290169 -0.941407,-1.576172 -0.483436,-0.286001 -1.0080555,-0.385228 -1.5292965,-0.386716 z m -0.00586,1.900391 c 0.220802,6.3e-4 0.416989,0.06328 0.519531,0.113281 -0.00596,0.0086 0.025494,-0.0105 -0.080078,0.07227 -0.098244,0.07702 -0.333542,0.193996 -0.517578,0.294921 a 0.94999999,0.94999999 0 0 0 -0.09961,-0.06055 c -0.313357,-0.163339 -0.330045,-0.28403 -0.341796,-0.3125 0.099458,-0.04873 0.297302,-0.108056 0.519531,-0.107421 z m -0.039063,2.65625 a 0.94999999,0.94999999 0 0 0 0.183594,0.105468 c 0.458616,0.19509 0.575682,0.384127 0.59375,0.484375 -0.00923,0.0016 -0.00453,-0.0067 -0.037109,0.01172 -0.119992,0.06799 -0.405522,0.146395 -0.69336,0.146485 -0.287837,9e-5 -0.573651,-0.07868 -0.693359,-0.146485 -0.036108,-0.02045 -0.032661,-0.01349 -0.041016,-0.01367 0.00373,-0.09599 0.02357,-0.139756 0.177735,-0.277344 0.098407,-0.08783 0.326912,-0.204028 0.509765,-0.310546 z" fill="#008055"/>
</svg>
