<svg xmlns="http://www.w3.org/2000/svg" width="48" height="48">
	<path d="M 23.913423,0.84529342 C 22.394147,0.89307742 21.171426,1.7597381 20.089204,2.8882622 L 3.4720166,19.610918 a 1.90019,1.90019 0 0 0 -0.011719,0.01172 c -1.0037014,1.028909 -1.7676368,2.271241 -1.8046875,3.767578 -0.037051,1.496337 0.9138804,3.005431 2.3125,3.828125 l 11.4589836,6.736328 a 1.9,1.9 0 0 0 2.601563,-0.675781 1.9,1.9 0 0 0 -0.675781,-2.601562 L 5.8938916,23.942949 C 5.3388555,23.616468 5.4512418,23.61307 5.4544385,23.483965 c 0.0032,-0.129104 0.158359,-0.62656 0.7246094,-1.207031 L 22.807954,5.5425591 a 1.90019,1.90019 0 0 0 0.02344,-0.023437 c 0.745753,-0.7776583 1.148317,-0.8733376 1.201172,-0.875 0.05286,-0.00166 0.283551,0.00534 0.900391,0.671875 a 1.90019,1.90019 0 0 0 0.05078,0.052734 L 41.878266,22.257403 a 1.90019,1.90019 0 0 0 0.05078,0.04883 c 0.519028,0.481153 0.620898,0.876873 0.615235,1.050781 -0.0057,0.173908 -0.0066,0.351296 -0.605469,0.710937 a 1.90019,1.90019 0 0 0 -0.02344,0.01367 l -10.595703,6.585938 c -0.0032,0.0018 -0.0046,0.004 -0.0078,0.0059 -2.028911,1.168033 -3.287207,2.531978 -3.949219,3.949219 -0.663048,1.419459 -0.734341,2.721295 -0.871094,3.708984 -0.136752,0.98769 -0.279818,1.66181 -0.820312,2.431641 -0.31468,0.448201 -0.897638,0.969332 -1.679688,1.527344 -0.214738,-0.473359 -0.417713,-0.962024 -0.740234,-1.31836 -0.910667,-1.006144 -2.008152,-1.414769 -2.80664,-1.707031 -0.79849,-0.292262 -1.323588,-0.519783 -1.455079,-0.630859 -0.13149,-0.111077 -0.191007,0.0015 -0.154297,-0.761719 a 1.9,1.9 0 0 0 -1.80664,-1.990234 1.9,1.9 0 0 0 -1.988281,1.80664 c -0.07559,1.571499 0.546878,3.044157 1.498047,3.847656 0.951166,0.803501 1.909573,1.043594 2.601562,1.296876 0.691989,0.25328 1.092471,0.467934 1.292969,0.689453 0.200498,0.221518 0.421973,0.54324 0.40039,1.699218 a 1.90019,1.90019 0 0 0 2.732422,1.742188 c 2.563718,-1.253523 4.198445,-2.571866 5.214844,-4.019531 1.016399,-1.447666 1.315374,-2.943676 1.474609,-4.09375 0.159236,-1.150075 0.237005,-1.953539 0.548828,-2.621094 0.311824,-0.667555 0.851118,-1.371584 2.410157,-2.267578 a 1.90019,1.90019 0 0 0 0.05664,-0.0332 l 10.625,-6.603516 c 1.425612,-0.85608 2.397309,-2.311686 2.447266,-3.845703 0.04996,-1.534018 -0.709842,-2.922445 -1.830078,-3.960938 l 0.05273,0.04883 L 27.722021,2.7340113 C 26.723031,1.6545396 25.432703,0.79755582 23.913428,0.84533942 Z m -0.02344,9.22070358 c -1.440174,0.06414 -2.476281,0.911329 -3.410154,1.886718 l 0.0293,-0.03125 -7.738281,7.708984 0.08398,-0.07812 c -0.55699,0.488496 -1.195454,1.181749 -1.099609,2.314453 0.09584,1.132704 0.978227,1.762869 1.5625,2.027343 1.168544,0.52895 2.322803,0.554688 3.626953,0.554688 1.726647,0 3.131755,-0.555551 4.242187,-1 1.110432,-0.444449 1.926835,-0.742187 2.535156,-0.742188 0.622483,0 1.56035,0.314388 2.736328,0.75586 1.175979,0.441471 2.600796,0.984375 4.302735,0.984375 1.2703,0 2.33136,0.04838 3.52539,-0.517578 0.298508,-0.141489 0.630665,-0.342769 0.933594,-0.708985 0.302929,-0.366216 0.528823,-0.936988 0.525391,-1.46289 -0.0069,-1.051805 -0.542393,-1.629053 -1.052735,-2.132813 l 0.04883,0.04883 -7.259765,-7.730468 c -0.947145,-1.084079 -2.151622,-1.941105 -3.591798,-1.876959 z m 0.160156,3.595703 c -0.05855,0.0026 0.108185,-0.05068 0.720703,0.65039 a 1.80018,1.80018 0 0 0 0.04297,0.04883 l 6.080078,6.47461 c -0.07221,0.0018 -0.05927,0.01172 -0.132812,0.01172 -0.898051,0 -1.89523,-0.326455 -3.039063,-0.755859 -1.143832,-0.429404 -2.425965,-0.986328 -4,-0.986328 -1.568963,1e-6 -2.806091,0.574905 -3.873047,1.001953 -1.066955,0.427048 -1.961047,0.742187 -2.904296,0.742187 -0.132241,0 -0.136493,-0.0236 -0.265626,-0.0293 l 6.371094,-6.347656 a 1.80018,1.80018 0 0 0 0.0293,-0.0293 c 0.673061,-0.702982 1.029255,-0.783858 0.970703,-0.78125 z" fill="#008055"/>
</svg>
