<svg xmlns="http://www.w3.org/2000/svg" width="48" height="48">
	<path d="m 8.8027347,3.0498042 c -1.5230074,0 -2.9810596,0.4961311 -4.0390628,1.515625 C 3.7056688,5.5849231 3.1269532,7.0812484 3.1269532,8.7236321 V 38.680663 c 0,1.621587 0.3526739,3.168415 1.3300781,4.376954 0.9774042,1.208538 2.5697692,1.892578 4.3457034,1.892578 a 1.6,1.6 0 0 0 1.5996093,-1.59961 1.6,1.6 0 0 0 -1.5996093,-1.601562 c -1.0591669,0 -1.5055462,-0.268039 -1.8574221,-0.703125 C 6.5934368,40.610811 6.3261719,39.823378 6.3261719,38.680663 V 8.7236321 c 0,-0.940715 0.2723788,-1.4817343 0.6582032,-1.8535154 C 7.3701997,6.4983356 7.9488318,6.249023 8.8027347,6.249023 H 39.21875 c 1.066551,0 1.584295,0.2548854 1.898438,0.578125 0.314143,0.3232396 0.556641,0.8747181 0.556641,1.8964841 V 38.680663 c 0,1.052538 -0.301037,1.834142 -0.710938,2.31836 -0.409901,0.484218 -0.908564,0.75 -1.744141,0.75 H 14.332032 a 1.6,1.6 0 0 0 -1.601563,1.601562 1.6,1.6 0 0 0 1.601563,1.59961 H 39.21875 c 1.668294,0 3.195519,-0.710981 4.1875,-1.882813 0.991982,-1.171832 1.466797,-2.724454 1.466797,-4.386719 V 8.7236321 c 0,-1.5731329 -0.427778,-3.0599143 -1.46289,-4.1249998 C 42.375045,3.5335469 40.86658,3.0498042 39.21875,3.0498042 Z m -0.011719,4.1601563 a 1.6,1.6 0 0 0 -1.111328,0.4687496 1.6,1.6 0 0 0 0,2.261719 L 21.738282,23.999023 7.6796877,38.057617 a 1.6,1.6 0 0 0 0,2.263672 1.6,1.6 0 0 0 2.2617191,0 L 24,26.262695 38.058594,40.321289 a 1.6,1.6 0 0 0 2.261719,0 1.6,1.6 0 0 0 0.002,-2.263672 L 26.263672,23.999023 40.322266,9.9404291 a 1.6,1.6 0 0 0 -0.002,-2.261719 1.6,1.6 0 0 0 -1.150391,-0.4687496 1.6,1.6 0 0 0 -1.111328,0.4687496 L 24,21.737304 9.9414068,7.6787101 A 1.6,1.6 0 0 0 8.7910157,7.2099605 Z M 24.521485,8.3974601 c -0.829732,0 -1.639006,0.269773 -2.296875,0.796875 -0.65787,0.527102 -1.156208,1.3717369 -1.164063,2.3476569 v 0.0059 2.396484 c 0,0.980432 0.498779,1.838806 1.164063,2.359375 0.665284,0.520569 1.476707,0.769532 2.296875,0.769532 0.868946,0 1.701542,-0.273946 2.353515,-0.810547 0.651973,-0.536602 1.107422,-1.38076 1.107422,-2.31836 v -0.0039 -0.0039 c -0.0085,-1.127319 -0.74378,-2.075643 -1.615234,-2.458984 -0.871454,-0.383343 -1.852847,-0.361661 -2.740235,0.01367 a 1.1,1.1 0 0 0 -0.367187,0.253907 v -0.185547 c 0.0023,-0.283881 0.108763,-0.46329 0.339844,-0.648438 0.23108,-0.185148 0.596686,-0.314453 0.921875,-0.314453 0.309632,0 0.680787,0.133755 0.919922,0.328125 a 1.1,1.1 0 0 0 1.546875,-0.160156 1.1,1.1 0 0 0 -0.160157,-1.5488279 c -0.652345,-0.53023 -1.461352,-0.81836 -2.30664,-0.81836 z m -1.261719,4.8652349 a 1.1,1.1 0 0 0 1.224609,0.253906 c 0.338014,-0.142968 0.763518,-0.127698 0.996094,-0.02539 0.230743,0.101501 0.295372,0.135868 0.298828,0.457032 -0.0012,0.270676 -0.09179,0.441617 -0.302734,0.615234 -0.21229,0.174723 -0.560194,0.308594 -0.955078,0.308594 -0.351192,0 -0.719316,-0.127001 -0.941406,-0.300781 -0.222091,-0.173781 -0.320313,-0.328186 -0.320313,-0.626954 z M 12.34961,19.299804 c -0.732326,-0.001 -1.478285,0.199265 -2.101563,0.683594 -0.6232772,0.484329 -1.0742182,1.310635 -1.0742182,2.230469 A 1.1,1.1 0 0 0 10.275391,23.313476 1.1,1.1 0 0 0 11.375,22.213867 c 0,-0.292617 0.06818,-0.374104 0.222657,-0.494141 0.154474,-0.120037 0.445323,-0.22114 0.75,-0.220703 0.304677,4.37e-4 0.596233,0.103456 0.751953,0.224609 0.155719,0.121154 0.222656,0.202139 0.222656,0.490235 0,0.294314 -0.04909,0.374943 -0.234375,0.570312 -0.185286,0.19537 -0.550247,0.440255 -1.019531,0.716797 -0.93857,0.553084 -2.3463813,1.296725 -3.0175782,2.935547 a 1.10011,1.10011 0 0 0 1.0175782,1.517578 h 4.52539 a 1.1,1.1 0 0 0 1.09961,-1.101562 1.1,1.1 0 0 0 -1.09961,-1.09961 h -1.958984 c 0.188722,-0.117008 0.34031,-0.233394 0.550781,-0.357422 0.491967,-0.289908 1.026089,-0.59806 1.498047,-1.095703 0.471958,-0.497643 0.839844,-1.250402 0.839844,-2.085937 0,-0.918405 -0.452186,-1.742607 -1.074219,-2.226563 -0.622032,-0.483956 -1.367284,-0.686449 -2.099609,-0.6875 z m 21.582031,0 a 1.10011,1.10011 0 0 0 -1.099609,1.099609 v 2.748047 a 1.10011,1.10011 0 0 0 1.099609,1.09961 c 1.1637,0 1.88773,0.0027 2.279297,0.148437 0.391858,0.145718 0.542969,0.293813 0.542969,0.603516 a 1.10011,1.10011 0 0 0 0,0.0039 c 6.33e-4,0.28888 -0.06405,0.341596 -0.320313,0.496094 -0.256265,0.154498 -0.710745,0.255859 -0.996094,0.255859 -0.246758,0 -0.556804,-0.0641 -0.74414,-0.162109 -0.187336,-0.09801 -0.243347,-0.160631 -0.283203,-0.314453 a 1.1,1.1 0 0 0 -1.341797,-0.789063 1.1,1.1 0 0 0 -0.78711,1.341797 c 0.210104,0.810878 0.796932,1.399319 1.392579,1.710938 0.595646,0.311618 1.208739,0.414062 1.763671,0.414062 0.663122,0 1.41675,-0.142516 2.132813,-0.574219 0.715615,-0.431432 1.386288,-1.305022 1.384766,-2.382812 0,-1.322097 -0.975441,-2.293734 -1.976563,-2.666016 -0.639351,-0.237935 -1.297375,-0.176299 -1.945313,-0.18164 V 21.50097 h 2.658204 a 1.1,1.1 0 0 0 1.099609,-1.101563 1.1,1.1 0 0 0 -1.099609,-1.099609 z M 21.078125,30.838867 a 1.1,1.1 0 0 0 -1.099609,1.099609 1.1,1.1 0 0 0 1.099609,1.099609 h 3.208985 l -2.603516,4.822266 a 1.1,1.1 0 0 0 0.445313,1.490234 1.1,1.1 0 0 0 1.492187,-0.445312 l 3.478516,-6.44336 a 1.10011,1.10011 0 0 0 -0.966797,-1.623046 z" fill="#008055"/>
</svg>
