<svg xmlns="http://www.w3.org/2000/svg" width="48" height="48">
	<path d="m 23.135783,1.5665228 a 1.80018,1.80018 0 0 0 -1.748047,2.0527343 c 0.136553,0.9586173 0.09488,1.8135868 0.02734,2.6269532 -1.055344,0.8457066 -2.303335,1.7298466 -3.429688,3.1992186 a 1.80018,1.80018 0 0 0 -0.05469,0.07422 c -2.193103,3.1854651 -3.776217,5.1112651 -5.951171,7.5683591 -3.97e-4,4.43e-4 3.96e-4,0.0015 0,0.002 -0.0019,0.0021 -0.004,0.0038 -0.0059,0.0059 -1.497535,1.67963 -1.287313,3.947239 -0.363281,5.615234 0.462726,0.835279 1.152804,1.591786 2.115234,2.048828 0.957584,0.454741 2.196819,0.519148 3.314454,0.08008 1.638923,-0.619043 2.581315,-1.503793 3.246093,-1.886718 0.710464,0.06556 1.370244,0.04187 1.998047,-0.0293 -0.533973,1.376393 -1.499596,2.39327 -2.830078,4.013672 -1.275394,1.553309 -2.606634,3.818021 -3.470703,7.039062 -1.379827,0.645515 -2.259538,2.009702 -2.392578,3.314453 -0.0844,0.827695 0.04917,1.674338 0.484375,2.451172 0.04036,0.07205 0.123151,0.125011 0.169922,0.195313 l -1.28125,1.644531 0.05469,-0.06445 c -0.356162,0.415788 -0.652587,0.89243 -0.794922,1.492187 -0.142334,0.599757 -0.0737,1.357722 0.283203,1.957032 0.713811,1.198619 1.961717,1.466796 3.128907,1.466796 h 18.048828 c 1.083525,0 2.173981,-0.314224 2.908203,-1.253906 0.734222,-0.939682 0.657253,-2.457691 0.01758,-3.388672 a 1.80018,1.80018 0 0 0 -0.06055,-0.08203 l -1.416015,-1.830078 c 0.452831,-0.70716 0.684619,-1.518412 0.625,-2.277344 -0.05721,-0.728278 -0.312657,-1.450567 -0.845704,-2.056641 -0.533046,-0.606073 -1.409641,-1.047878 -2.318359,-1.048828 a 1.80018,1.80018 0 0 0 -0.002,0 h -10.5625 a 1.8,1.8 0 0 0 -1.800781,1.800782 1.8,1.8 0 0 0 1.800781,1.798828 h 9.828125 a 1.80018,1.80018 0 0 0 -0.576172,2.689453 l 1.585937,2.048828 H 16.551798 l 1.591797,-2.046966 a 1.80018,1.80018 0 0 0 -0.931641,-2.837891 c -0.01804,-0.04532 -0.05516,-0.15429 -0.04101,-0.292968 0.03166,-0.310511 0.0089,-0.430637 0.408203,-0.47461 a 1.80018,1.80018 0 0 0 1.564448,-1.425781 c 0.688223,-3.338314 1.833249,-4.999986 3.09375,-6.535156 1.260501,-1.535171 2.835425,-2.992879 3.634766,-5.488282 a 1.80018,1.80018 0 0 0 0.01758,-0.05469 c 0.202722,-0.711027 0.329784,-1.274806 0.345703,-1.876953 0.01592,-0.602147 -0.12284,-1.464258 -0.824219,-2.0625 -0.701378,-0.598242 -1.458653,-0.578913 -1.908203,-0.535156 -0.44955,0.04376 -0.777533,0.135182 -1.08789,0.208984 a 1.80018,1.80018 0 0 0 -0.01758,0.0039 c -0.472004,0.117027 -1.265235,0.157491 -2.371093,-0.0098 a 1.80018,1.80018 0 0 0 -1.044922,0.154297 c -1.495924,0.714327 -2.350116,1.594447 -3.220703,1.919921 a 1.80018,1.80018 0 0 0 -0.03516,0.01367 c -0.278663,0.110883 -0.322272,0.07767 -0.457031,0.01367 -0.134759,-0.064 -0.347909,-0.248844 -0.509765,-0.541015 -0.323713,-0.584343 -0.2484,-1.308262 -0.09766,-1.476563 a 1.80018,1.80018 0 0 0 0.0078,-0.0078 c 2.224278,-2.512533 3.95467,-4.620016 6.226562,-7.919921 l -0.05273,0.07422 C 21.691837,10.5292 22.968596,9.7171339 24.391628,8.4649269 a 1.80018,1.80018 0 0 0 0.332031,-0.390625 1.80018,1.80018 0 0 0 0.002,0 1.80018,1.80018 0 0 0 0.59375,0.283203 c 3.6598,0.973786 5.455383,2.3497971 6.386719,3.8261721 0.931336,1.476375 1.115142,3.285717 0.867188,5.47461 -0.49591,4.377786 -3.035653,9.635635 -2.185547,14.527344 a 1.8,1.8 0 0 0 2.081998,1.464876 1.8,1.8 0 0 0 1.464844,-2.082031 C 33.413796,28.571585 35.556737,23.295005 36.149454,18.062617 36.445813,15.446422 36.27748,12.68162 34.751017,10.261835 33.342771,8.0294509 30.739628,6.357062 27.059611,5.2208197 26.491058,4.0701519 25.692032,2.6568994 24.004923,1.7716009 a 1.80018,1.80018 0 0 0 -0.86914,-0.2050781 z" fill="#008055"/>
</svg>
