<svg xmlns="http://www.w3.org/2000/svg" width="48" height="48">
	<path d="M 13.314453 1.8632812 C 10.627595 1.8282607 7.8533027 2.7990772 5.9082031 4.9121094 C 3.9631036 7.0251415 3.0181714 10.272593 3.8261719 14.15625 C 4.7868885 19.064917 4.9046111 26.787121 6.5351562 33.425781 C 7.3514487 36.749264 8.5524563 39.855172 10.628906 42.232422 C 12.705356 44.609672 15.741374 46.1387 19.568359 46.138672 C 22.032622 46.138672 23.975159 44.858442 25.037109 43.214844 C 26.09906 41.571246 26.522693 39.675441 26.878906 37.910156 C 27.23512 36.144872 27.523236 34.477726 27.919922 33.486328 C 28.118265 32.990629 28.3311 32.69441 28.470703 32.570312 C 28.610306 32.446216 28.651671 32.410156 28.957031 32.410156 C 29.460333 32.410156 30.131248 32.725889 31.015625 33.558594 C 31.900002 34.391299 32.890213 35.649741 33.958984 37.001953 A 1.7 1.7 0 0 0 36.347656 37.28125 A 1.7 1.7 0 0 0 36.626953 34.894531 C 35.571084 33.558643 34.531389 32.198554 33.347656 31.083984 C 32.163923 29.969414 30.73013 29.009766 28.957031 29.009766 C 27.924717 29.009766 26.915911 29.402623 26.210938 30.029297 C 25.505963 30.655971 25.080309 31.431317 24.763672 32.222656 C 24.130398 33.805334 23.883219 35.571466 23.546875 37.238281 C 23.210531 38.905097 22.782834 40.440617 22.181641 41.371094 C 21.580447 42.301571 21.045816 42.738281 19.568359 42.738281 C 16.583195 42.738303 14.711323 41.736472 13.189453 39.994141 C 11.667583 38.251809 10.581385 35.648323 9.8359375 32.613281 C 8.3450424 26.543197 8.23483 18.963371 7.1582031 13.482422 A 1.70017 1.70017 0 0 0 7.1542969 13.462891 C 6.5197623 10.412998 7.2210743 8.5065866 8.4101562 7.2148438 C 9.5992384 5.9231008 11.445123 5.2379393 13.269531 5.2617188 C 15.09394 5.2854982 16.784358 6.0103233 17.75 7.2519531 C 18.715642 8.493583 19.184006 10.341795 18.150391 13.349609 L 18.152344 13.349609 A 1.70017 1.70017 0 0 0 18.148438 13.359375 C 16.35433 18.698697 14.779348 24.277855 14.210938 28.707031 C 13.926731 30.921619 13.857664 32.837315 14.294922 34.486328 C 14.513551 35.310835 14.87749 36.104154 15.535156 36.732422 C 16.19093 37.358882 17.146228 37.716688 18.070312 37.71875 C 19.047624 37.725561 20.003162 37.333464 20.667969 36.75 C 21.335073 36.16452 21.759325 35.450643 22.099609 34.710938 C 22.780178 33.231524 23.149082 31.554187 23.587891 29.957031 C 24.026699 28.359875 24.535965 26.868581 25.167969 25.933594 C 25.796403 25.003887 26.321767 24.59697 27.5 24.572266 C 28.651948 24.576743 29.897583 25.161814 31.234375 26.357422 C 32.576296 27.557617 33.931919 29.323824 35.181641 31.296875 C 37.681084 35.242977 39.748676 39.945119 41.261719 42.806641 A 1.7 1.7 0 0 0 43.558594 43.515625 A 1.7 1.7 0 0 0 44.267578 41.21875 C 42.884631 38.603271 40.750639 33.732912 38.054688 29.476562 C 36.706712 27.348388 35.214484 25.355676 33.5 23.822266 C 31.785516 22.288855 29.768362 21.169922 27.486328 21.169922 A 1.70017 1.70017 0 0 0 27.458984 21.169922 C 25.192609 21.208811 23.398676 22.480194 22.351562 24.029297 C 21.30445 25.5784 20.772517 27.375184 20.310547 29.056641 C 19.848577 30.738097 19.454955 32.327513 19.011719 33.291016 C 18.790101 33.772767 18.562138 34.073926 18.423828 34.195312 C 18.285518 34.3167 18.287006 34.322205 18.09375 34.320312 A 1.70017 1.70017 0 0 0 18.078125 34.320312 C 17.877742 34.320312 17.931709 34.318283 17.884766 34.273438 C 17.837822 34.228592 17.694389 34.037014 17.582031 33.613281 C 17.357315 32.765817 17.326073 31.133146 17.582031 29.138672 C 18.09356 25.152741 19.61292 19.677288 21.367188 14.455078 C 21.368516 14.451124 21.369765 14.447313 21.371094 14.443359 C 22.665563 10.666035 22.154786 7.3771838 20.433594 5.1640625 C 18.710517 2.9485173 16.001311 1.8983018 13.314453 1.8632812 z M 10.28125 8.2519531 A 2.054018 -2.0550117 0 0 0 8.2265625 10.306641 A 2.054018 -2.0550117 0 0 0 10.28125 12.363281 A 2.054018 -2.0550117 0 0 0 12.333984 10.306641 A 2.054018 -2.0550117 0 0 0 10.28125 8.2519531 z M 15.755859 8.2519531 A 2.054018 -2.0550117 0 0 0 13.703125 10.306641 A 2.054018 -2.0550117 0 0 0 15.755859 12.361328 A 2.054018 -2.0550117 0 0 0 17.810547 10.306641 A 2.054018 -2.0550117 0 0 0 15.755859 8.2519531 z M 9.2929688 13.615234 A 1.7 1.7 0 0 0 7.8867188 14.408203 A 1.7 1.7 0 0 0 8.4179688 16.753906 C 11.249259 18.538254 14.376563 18.195076 16.535156 16.71875 A 1.7 1.7 0 0 0 16.978516 14.355469 A 1.7 1.7 0 0 0 14.615234 13.912109 C 13.361488 14.769583 12.062599 15.031606 10.230469 13.876953 A 1.7 1.7 0 0 0 9.2929688 13.615234 z " fill="#008055"/>
</svg>
