<svg xmlns="http://www.w3.org/2000/svg" width="48" height="48">
	<path d="m 23.638598,2.510749 c -8.517529,0 -14.8010757,5.239095 -17.6386717,11.775391 a 1.80018,1.80018 0 0 0 -0.00195,0.0078 c -0.314944,0.734182 -0.530461,1.414411 -0.429688,2.244141 0.100774,0.82973 0.765833,1.691264 1.410157,2.023437 1.288647,0.664347 2.207313,0.421875 3.0390617,0.421875 h 26.81836 a 1.8,1.8 0 0 0 1.798828,-1.798828 1.8,1.8 0 0 0 -1.798828,-1.800781 h -26.81836 c -0.3404697,0 -0.2602137,0.01452 -0.5117187,-0.0078 2.4195077,-5.256525 7.2246097,-9.265626 14.1328127,-9.265626 7.800732,0 12.166561,3.499264 15.089844,9.320313 a 1.8,1.8 0 0 0 2.416015,0.800781 1.8,1.8 0 0 0 0.800781,-2.416015 C 38.590321,7.134886 32.602065,2.510749 23.638598,2.510749 Z m 0.347656,17.875 a 3.6796527,3.6774621 0 0 0 -3.679687,3.677735 3.6796527,3.6774621 0 0 0 3.679687,3.677734 3.6796527,3.6774621 0 0 0 3.679688,-3.677734 3.6796527,3.6774621 0 0 0 -3.679688,-3.677735 z m 10.205078,0.002 a 3.6796527,3.6774621 0 0 0 -3.679687,3.677735 3.6796527,3.6774621 0 0 0 3.679687,3.675781 3.6796527,3.6774621 0 0 0 3.679688,-3.675781 3.6796527,3.6774621 0 0 0 -3.679688,-3.677735 z m -20.408203,0.0059 a 3.6796527,3.6774621 0 0 0 -3.679687,3.677734 3.6796527,3.6774621 0 0 0 3.679687,3.677734 3.6796527,3.6774621 0 0 0 3.679688,-3.677734 3.6796527,3.6774621 0 0 0 -3.679688,-3.677734 z m 25.548828,8.583897 c -0.494502,-0.02247 -0.931783,0.03906 -1.347656,0.03906 H 11.165942 a 1.8,1.8 0 0 0 -1.8007817,1.800782 1.8,1.8 0 0 0 1.8007817,1.798828 h 26.818359 c 0.33917,0 0.258709,-0.01444 0.509766,0.0078 -2.419498,5.256529 -7.224584,9.265625 -14.132813,9.265625 -7.800755,0 -12.164601,-3.499262 -15.0878897,-9.320312 a 1.8,1.8 0 0 0 -2.416016,-0.800781 1.8,1.8 0 0 0 -0.800781,2.416015 c 3.354924,6.68055 9.3411997,11.304688 18.3046867,11.304688 8.517552,0 14.801091,-5.239099 17.638672,-11.775391 a 1.80018,1.80018 0 0 0 0.0039,-0.0078 c 0.31497,-0.734183 0.528497,-1.414393 0.427735,-2.244141 -0.100757,-0.829746 -0.765823,-1.691266 -1.410151,-2.023435 -0.644327,-0.332171 -1.194951,-0.438467 -1.689453,-0.460938 z" fill="#008055"/>
</svg>
