<svg xmlns="http://www.w3.org/2000/svg" width="48" height="48">
	<path d="M 23.65625,3.8847656 C 21.961223,3.9199202 20.448193,4.7552724 19.607422,5.875 c -0.840782,1.1197174 -1.17641,2.3414286 -1.478516,3.4921875 -0.604212,2.3015075 -1.054755,4.2489995 -2.289062,5.1855465 -1.234298,0.936548 -3.230338,0.846511 -5.609375,0.808594 -1.1895085,-0.01896 -2.4570155,-0.02578 -3.761719,0.482422 -1.3047137,0.508206 -2.5174553,1.740238 -3.0078125,3.363281 -0.4903674,1.623044 -0.1604951,3.321103 0.6445313,4.466797 0.8050263,1.145705 1.86229,1.83947 2.8632812,2.482422 1.209714,0.777001 2.3086599,1.462432 3.105469,2.205078 1.611038,1.167515 3.665863,-0.857423 2.368834,-2.659034 -1.33323,-1.756477 -1.928244,-1.784139 -3.4215686,-2.74331 C 8.1202302,22.380101 7.4693577,21.850488 7.2148438,21.488281 6.9603401,21.126075 6.8798484,21.034 7.0996094,20.306641 c 0.2197507,-0.72737 0.3375172,-0.761214 0.75,-0.921875 0.4124725,-0.160672 1.2493141,-0.241686 2.3203126,-0.22461 2.141986,0.03413 5.291198,0.451571 7.96875,-1.580078 2.677552,-2.031638 3.123953,-5.175852 3.667969,-7.248047 0.271997,-1.0360972 0.574035,-1.8217903 0.839843,-2.175781 0.265809,-0.354001 0.328268,-0.4569104 1.087891,-0.4726562 0.759623,-0.015756 0.829121,0.083116 1.109375,0.4257812 0.280254,0.342675 0.614967,1.1166925 0.929688,2.140625 0.62944,2.047865 1.205376,5.169011 3.964843,7.087891 2.759478,1.918879 5.886658,1.374881 8.025391,1.251953 1.069372,-0.06146 1.911293,-0.01842 2.330078,0.125 0.418775,0.143421 0.537394,0.171042 0.787109,0.888672 0.249716,0.717629 0.172865,0.815052 -0.06641,1.1875 -0.23927,0.372448 -0.869607,0.929175 -1.746094,1.544922 -1.752972,1.231514 -4.543524,2.745308 -5.515625,5.96289 -0.97211,3.217572 0.513213,6.023304 1.291016,8.019531 0.388902,0.998109 0.606597,1.811272 0.599609,2.253907 -0.007,0.442634 0.0018,0.564167 -0.603515,1.023437 -0.605287,0.45927 -0.718359,0.41717 -1.146485,0.304688 -0.428135,-0.112483 -1.153341,-0.53827 -2.009765,-1.181641 -1.712839,-1.286742 -4.014737,-3.475945 -7.375,-3.40625 -3.360263,0.06968 -5.570493,2.350379 -7.228516,3.707031 -0.829017,0.678332 -1.533929,1.137447 -1.957031,1.267578 -0.423102,0.130142 -0.536353,0.175972 -1.160156,-0.257812 -0.623804,-0.433784 -0.619201,-0.556078 -0.644532,-0.998047 -0.02533,-0.441969 0.158668,-1.262007 0.50586,-2.275391 0.532682,-1.554786 1.007108,-2.378599 1.127651,-4.489121 -0.392922,-2.462576 -3.237248,-2.119476 -3.676479,-0.299941 -0.174373,1.052412 -0.59499,2.237669 -1.046875,3.556641 -0.3856077,1.125528 -0.7852036,2.328575 -0.7050785,3.726562 0.080115,1.397987 0.8775615,2.93049 2.2695315,3.898438 1.391959,0.967936 3.108955,1.181175 4.447265,0.769531 1.338311,-0.411644 2.325341,-1.203634 3.246094,-1.957031 1.841507,-1.506786 3.351373,-2.817484 4.900391,-2.84961 1.549017,-0.03213 3.111283,1.215391 5.013672,2.644531 0.951199,0.714571 1.971952,1.464511 3.326171,1.820313 1.35423,0.355802 3.059518,0.0717 4.410157,-0.953125 1.350638,-1.024823 2.083381,-2.59013 2.105469,-3.990235 0.0221,-1.400114 -0.425481,-2.584794 -0.857422,-3.693359 -0.863872,-2.21713 -1.643428,-4.057782 -1.195313,-5.541015 0.448126,-1.483244 2.115537,-2.585331 4.0625,-3.953126 0.973482,-0.683886 2.002925,-1.421522 2.759766,-2.599609 0.756841,-1.178097 1.014255,-2.888922 0.457031,-4.490234 C 43.911526,16.754146 42.648872,15.574767 41.324219,15.121094 39.999566,14.66742 38.73263,14.726659 37.544922,14.794922 35.169506,14.931448 33.178318,15.103312 31.90625,14.21875 30.634192,13.334177 30.103397,11.407299 29.404297,9.1328125 29.054742,7.9955793 28.671627,6.7889861 27.785156,5.7050781 26.898675,4.6211803 25.351267,3.8496111 23.65625,3.8847656 Z" fill="#008055"/>
</svg>
