<svg xmlns="http://www.w3.org/2000/svg" width="48" height="48">
	<path d="m 8.4248055,2.9169919 c -1.499631,0 -2.938632,0.4902715 -3.982422,1.4960935 -1.04379,1.005823 -1.615235,2.482632 -1.615235,4.09961 V 17.17871 c 0,1.594428 0.348177,3.118167 1.3125,4.310547 0.964324,1.192381 2.537124,1.867188 4.285157,1.867188 a 1.6,1.6 0 0 0 1.5996085,-1.59961 1.6,1.6 0 0 0 -1.5996085,-1.601562 c -1.031268,0 -1.458079,-0.258815 -1.796875,-0.677735 -0.338797,-0.418919 -0.59961,-1.183255 -0.59961,-2.298828 V 8.5126954 c 0,-0.915323 0.263146,-1.43682 0.634766,-1.794922 0.37162,-0.358103 0.931209,-0.59961 1.761719,-0.59961 H 17.65332 c 1.039812,0 1.537008,0.248988 1.837891,0.558594 0.300883,0.309606 0.537109,0.839726 0.537109,1.835938 V 17.17871 c 0,1.02584 -0.291397,1.784037 -0.6875,2.251953 -0.396103,0.467916 -0.876556,0.72461 -1.6875,0.72461 h -5.226562 a 1.6,1.6 0 0 0 -1.59961,1.601562 1.6,1.6 0 0 0 1.59961,1.59961 h 5.226562 c 1.643648,0 3.150717,-0.701888 4.128907,-1.857422 0.978189,-1.155534 1.447265,-2.684753 1.447265,-4.320313 V 8.5126954 c 0,-1.547589 -0.421539,-3.014962 -1.443359,-4.066407 C 20.764314,3.3948444 19.274459,2.9169919 17.65332,2.9169919 Z m 21.9414055,0 c -1.499634,0 -2.936677,0.4902715 -3.980469,1.4960935 -1.043792,1.005823 -1.615234,2.482632 -1.615234,4.09961 V 17.17871 c 0,1.594428 0.348174,3.118166 1.3125,4.310547 0.964326,1.192381 2.535167,1.867188 4.283203,1.867188 a 1.6,1.6 0 0 0 1.601562,-1.59961 1.6,1.6 0 0 0 -1.601562,-1.601562 c -1.031273,0 -1.456125,-0.258815 -1.794922,-0.677735 C 28.232492,19.058619 27.97168,18.294283 27.97168,17.17871 V 8.5126954 c 0,-0.915323 0.263145,-1.43682 0.634765,-1.794922 0.371621,-0.358103 0.92925,-0.59961 1.759766,-0.59961 h 9.230469 c 1.039819,0 1.537008,0.248988 1.83789,0.558594 0.300883,0.309606 0.53711,0.839726 0.53711,1.835938 V 17.17871 c 0,1.025838 -0.291395,1.784036 -0.6875,2.251953 -0.396105,0.467917 -0.876557,0.72461 -1.6875,0.72461 h -5.226563 a 1.6,1.6 0 0 0 -1.601562,1.601562 1.6,1.6 0 0 0 1.601562,1.59961 h 5.226563 c 1.643647,0 3.150714,-0.701889 4.128906,-1.857422 0.978193,-1.155533 1.447266,-2.684751 1.447266,-4.320313 V 8.5126954 c 0,-1.547589 -0.421538,-3.014962 -1.44336,-4.066407 C 42.70767,3.3948444 41.217822,2.9169919 39.59668,2.9169919 Z M 13.182617,8.2138674 c -1.585245,-0.04461 -3.169188,0.66771 -4.1582025,2.0410146 -1.471538,2.043316 -1.072568,4.82297 0.748047,6.482422 a 1.3999708,1.4000292 84.996837 0 0 0.3710935,0.402344 1.3999708,1.4000292 84.996837 0 0 0.0059,0.0039 1.3999708,1.4000292 84.996837 0 1 0.002,0.002 1.3999708,1.4000292 84.996837 0 0 0.494141,0.222656 c 2.151987,1.200247 4.918092,0.693078 6.388672,-1.351562 1.581071,-2.198262 1.072856,-5.303095 -1.125,-6.8847656 -0.824196,-0.593126 -1.775416,-0.891203 -2.726563,-0.917968 z m 21.94336,0 c -1.585684,-0.04498 -3.169188,0.665757 -4.158204,2.0390616 -1.472264,2.044324 -1.072977,4.829165 0.75,6.488281 a 1.3999708,1.4000292 84.996837 0 0 0.361329,0.390625 c 0.0028,0.002 0.005,0.0058 0.0078,0.0078 a 1.3999708,1.4000292 84.996837 0 0 0.0059,0.002 1.3999708,1.4000292 84.996837 0 0 0.002,0.0039 1.3999708,1.4000292 84.996837 0 0 0.496093,0.220703 c 2.15197,1.200149 4.916168,0.694989 6.386719,-1.349609 1.58107,-2.198262 1.074808,-5.303094 -1.123047,-6.8847656 -0.824195,-0.593126 -1.777106,-0.890983 -2.728515,-0.917968 z M 13.09082,10.99707 c 0.409465,0.01355 0.82185,0.14647 1.185547,0.408203 0.96986,0.697952 1.182049,2.006543 0.484375,2.976562 -0.697674,0.97002 -2.006273,1.185637 -2.976562,0.488282 a 1.3999708,1.4000292 84.996837 0 0 -0.0039,-0.002 c -0.96943,-0.69855 -1.182646,-2.008926 -0.484375,-2.978515 0.43642,-0.605994 1.11248,-0.915167 1.794922,-0.892578 z m 21.94336,0 c 0.408982,0.0136 0.819896,0.14647 1.183593,0.408203 0.969862,0.697953 1.184002,2.008495 0.486329,2.978515 -0.697674,0.97002 -2.008227,1.183684 -2.978516,0.486329 a 1.3999708,1.4000292 84.996837 0 1 -0.002,-0.002 c -0.96943,-0.69855 -1.180692,-2.008925 -0.482422,-2.978515 0.43642,-0.605994 1.111334,-0.915238 1.792969,-0.892578 z M 8.4248055,24.643554 c -1.499631,0 -2.938633,0.490291 -3.982422,1.496094 -1.043789,1.005803 -1.615235,2.480715 -1.615235,4.097656 v 8.667969 c 0,1.594427 0.348177,3.118166 1.3125,4.310547 0.964324,1.19238 2.537124,1.867187 4.285157,1.867187 a 1.6,1.6 0 0 0 1.5996085,-1.601562 1.6,1.6 0 0 0 -1.5996085,-1.59961 c -1.031268,0 -1.458079,-0.258815 -1.796875,-0.677734 -0.338797,-0.41892 -0.59961,-1.183256 -0.59961,-2.298828 v -8.667969 c 0,-0.915259 0.263145,-1.434872 0.634766,-1.792969 0.371621,-0.358097 0.931209,-0.599609 1.761719,-0.599609 H 17.65332 c 1.039812,0 1.537008,0.247045 1.837891,0.556641 0.300883,0.309594 0.537109,0.839847 0.537109,1.835937 v 8.667969 c 0,1.025778 -0.291386,1.784017 -0.6875,2.251953 -0.396113,0.467936 -0.876578,0.724609 -1.6875,0.724609 h -5.226562 a 1.6,1.6 0 0 0 -1.59961,1.59961 1.6,1.6 0 0 0 1.59961,1.601562 l 5.226562,-0.002 c 1.64367,0 3.150729,-0.69993 4.128907,-1.855469 0.978177,-1.155539 1.447265,-2.684791 1.447265,-4.320312 v -8.667969 c 0,-1.54751 -0.421539,-3.013048 -1.443359,-4.064453 -1.021819,-1.051406 -2.511674,-1.529297 -4.132813,-1.529297 z m 21.9414055,0 c -1.499634,0 -2.936678,0.49029 -3.980469,1.496094 -1.04379,1.005803 -1.615234,2.480715 -1.615234,4.097656 v 8.667969 c 0,1.594427 0.348174,3.118166 1.3125,4.310547 0.964326,1.19238 2.535167,1.867187 4.283203,1.867187 a 1.6,1.6 0 0 0 1.601562,-1.601562 1.6,1.6 0 0 0 -1.601562,-1.59961 c -1.031273,0 -1.456125,-0.258815 -1.794922,-0.677734 -0.338797,-0.418919 -0.599609,-1.183256 -0.599609,-2.298828 v -8.667969 c 0,-0.915259 0.261192,-1.434872 0.632812,-1.792969 0.371623,-0.358096 0.931203,-0.599609 1.761719,-0.599609 h 9.230469 c 1.039819,0 1.537008,0.247045 1.83789,0.556641 0.300883,0.309594 0.53711,0.839847 0.53711,1.835937 v 8.667969 c 0,1.025776 -0.291384,1.784016 -0.6875,2.251953 -0.396116,0.467937 -0.876579,0.724609 -1.6875,0.724609 h -5.226563 a 1.6,1.6 0 0 0 -1.601562,1.59961 1.6,1.6 0 0 0 1.601562,1.601562 l 5.226563,-0.002 c 1.643668,0 3.150725,-0.699931 4.128906,-1.855469 0.978182,-1.155538 1.447266,-2.684789 1.447266,-4.320312 v -8.667969 c 0,-1.54751 -0.421538,-3.013048 -1.44336,-4.064453 -1.021822,-1.051406 -2.51167,-1.529297 -4.132812,-1.529297 z m 4.759766,5.294922 c -1.586052,-0.04454 -3.171141,0.66771 -4.160157,2.041015 -1.471145,2.042772 -1.069336,4.822789 0.75,6.482422 a 1.3999708,1.4000292 84.996837 0 0 0.371094,0.404297 1.3999708,1.4000292 84.996837 0 0 0.0059,0.0039 1.3999708,1.4000292 84.996837 0 1 0.002,0.002 1.3999708,1.4000292 84.996837 0 0 0.496093,0.222656 c 2.151987,1.200247 4.91614,0.693077 6.386719,-1.351563 1.581072,-2.198261 1.074808,-5.303094 -1.123047,-6.884765 -0.824196,-0.593127 -1.776885,-0.893199 -2.728515,-0.919922 z m -0.0918,2.783203 c 0.408982,0.0136 0.819896,0.146471 1.183593,0.408203 0.96986,0.697953 1.184002,2.008496 0.486329,2.978516 -0.697674,0.970019 -2.008227,1.183683 -2.978516,0.486328 a 1.3999708,1.4000292 84.996837 0 1 -0.002,0 c -0.969428,-0.69855 -1.180692,-2.008925 -0.482422,-2.978516 0.43642,-0.605993 1.111334,-0.91719 1.792969,-0.894531 z" fill="#008055"/>
</svg>
