<svg xmlns="http://www.w3.org/2000/svg" width="48" height="48">
	<path d="m 30.349609,2.8671873 c -1.517601,0 -2.979952,0.4971478 -4.042968,1.5214844 -1.063018,1.0243366 -1.642579,2.5264008 -1.642579,4.1621095 v 8.6445308 c 0,1.605947 0.3498,3.152677 1.332032,4.367188 0.982231,1.21451 2.586579,1.90039 4.353515,1.90039 A 1.7,1.7 0 0 0 32.050781,21.761718 1.7,1.7 0 0 0 30.349609,20.0625 c -1.005374,0 -1.393331,-0.245958 -1.710937,-0.638672 -0.317607,-0.392715 -0.574219,-1.131363 -0.574219,-2.228516 V 8.5507812 c 0,-0.890192 0.252731,-1.3787054 0.601562,-1.7148439 0.348833,-0.3361384 0.876926,-0.5683593 1.683594,-0.5683593 h 9.207032 c 1.018311,0 1.481133,0.2406942 1.757812,0.5253906 0.276679,0.2846963 0.507812,0.7820286 0.507812,1.7578126 v 8.6445308 c 0,1.003374 -0.285924,1.735304 -0.662109,2.179688 -0.376185,0.444383 -0.821691,0.6875 -1.603515,0.6875 h -5.214844 a 1.7,1.7 0 0 0 -1.699219,1.699218 1.7,1.7 0 0 0 1.699219,1.701172 l 5.214844,-0.002 c 1.666584,0 3.202618,-0.713706 4.197265,-1.888672 0.994647,-1.174966 1.46875,-2.725727 1.46875,-4.376953 V 8.5507342 c 0,-1.5616165 -0.426059,-3.0540496 -1.46875,-4.1269532 C 42.711215,3.3509243 41.192588,2.8671873 39.556641,2.8671873 Z M 11.21875,8.3242182 c -0.757789,0 -1.540841,0.254854 -2.117188,0.810547 -0.576346,0.555694 -0.876953,1.3713468 -0.876953,2.1835938 v 3.458984 c 0,0.750296 0.157698,1.540777 0.69336,2.201172 0.535662,0.660395 1.436816,1.027344 2.30664,1.027344 h 3.675782 c 0.854153,0 1.699781,-0.386823 2.228515,-1.011719 0.528734,-0.624896 0.757813,-1.418976 0.757813,-2.216797 v -3.458984 c 0,-0.74884 -0.211822,-1.5579948 -0.791016,-2.1542968 -0.579194,-0.596301 -1.410012,-0.839844 -2.195312,-0.839844 z m 0,2.7988278 h 3.681641 c 0.109529,0 0.142255,0.0065 0.171874,0.01172 0.0063,0.0319 0.01367,0.07273 0.01367,0.183594 v 3.458984 c 0,0.26458 -0.07416,0.385049 -0.09375,0.408203 -0.01959,0.02315 0.03339,0.01953 -0.0918,0.01953 h -3.675782 c -0.246375,0 -0.144766,-0.0074 -0.130859,0.0098 0.01391,0.01715 -0.07031,-0.105996 -0.07031,-0.4375 v -3.458984 c 0,-0.198553 0.03309,-0.179162 0.02149,-0.167969 -0.01161,0.01119 0.0019,-0.02734 0.173828,-0.02734 z M 8.462891,24.539062 c -1.517603,0 -2.981906,0.495195 -4.044922,1.519531 -1.063017,1.024337 -1.640625,2.528354 -1.640625,4.164063 v 8.644531 c 0,1.605947 0.347847,3.150723 1.330078,4.365235 0.982231,1.21451 2.588532,1.90039 4.355469,1.90039 a 1.7,1.7 0 0 0 1.699218,-1.699219 1.7,1.7 0 0 0 -1.699218,-1.701171 c -1.005374,0 -1.393332,-0.244005 -1.710938,-0.636719 C 6.434347,40.702988 6.175781,39.96434 6.175781,38.867187 v -8.644531 c 0,-0.890192 0.252731,-1.378705 0.601563,-1.714844 0.348831,-0.336138 0.878878,-0.568359 1.685547,-0.568359 h 9.205078 c 1.018305,0 1.483084,0.238745 1.759765,0.523437 0.276682,0.284693 0.50586,0.784046 0.50586,1.759766 v 8.644531 c 0,1.003374 -0.285924,1.735304 -0.66211,2.179688 -0.376185,0.444383 -0.82169,0.685547 -1.603515,0.685547 h -5.212891 a 1.7,1.7 0 0 0 -1.701172,1.701171 1.7,1.7 0 0 0 1.701172,1.699219 h 5.212891 c 1.666584,0 3.204571,-0.713706 4.199218,-1.888672 0.994648,-1.174966 1.466797,-2.725727 1.466797,-4.376953 v -8.644531 c 0,-1.56158 -0.426059,-3.056024 -1.46875,-4.128906 -1.042691,-1.072883 -2.561321,-1.554688 -4.197265,-1.554688 z m 24.642578,5.457031 c -0.757791,0 -1.540843,0.252896 -2.117188,0.808594 -0.576345,0.555699 -0.876953,1.37331 -0.876953,2.185547 v 3.458984 c 0,0.750292 0.159629,1.54077 0.695313,2.201172 0.535682,0.660402 1.436798,1.025469 2.30664,1.025391 h 3.675781 c 0.854154,0 1.699782,-0.38487 2.228516,-1.009766 0.528734,-0.624896 0.757813,-1.418976 0.757813,-2.216797 v -3.458984 c 0,-0.748845 -0.211822,-1.557999 -0.791016,-2.154297 -0.579194,-0.596298 -1.410014,-0.839844 -2.195313,-0.839844 z m 0,2.798829 h 3.683593 c 0.109267,0 0.140597,0.0065 0.169922,0.01172 0.0067,0.0319 0.01563,0.07272 0.01563,0.183594 v 3.458984 c 0,0.26458 -0.07416,0.385049 -0.09375,0.408204 -0.01959,0.02315 0.03339,0.01953 -0.0918,0.01953 h -3.675781 c -0.246357,2.2e-5 -0.146746,-0.0074 -0.132812,0.0098 0.01393,0.01718 -0.06836,-0.105991 -0.06836,-0.4375 v -3.45902 c 0,-0.198563 0.03115,-0.18112 0.01953,-0.169922 -0.01161,0.0112 0.0019,-0.02539 0.173828,-0.02539 z" fill="#008055"/>
</svg>
