<svg xmlns="http://www.w3.org/2000/svg" width="48" height="48">
	<path d="M 13.324219 1.8242188 C 11.678186 1.8242188 10.067984 2.2929488 8.796875 3.3242188 C 7.5257665 4.3554886 6.6776599 5.9946114 6.6230469 7.8378906 A 1.90019 1.90019 0 0 0 6.6230469 7.8945312 L 6.6230469 40.083984 C 6.6230469 41.967074 7.3578797 43.695233 8.6621094 44.75 C 9.9663391 45.804767 11.618773 46.175781 13.324219 46.175781 A 1.9 1.9 0 0 0 15.224609 44.275391 A 1.9 1.9 0 0 0 13.324219 42.375 C 12.187424 42.375 11.43849 42.106893 11.052734 41.794922 C 10.666979 41.482951 10.423828 41.115884 10.423828 40.083984 L 10.423828 7.9472656 C 10.450089 7.1024266 10.721335 6.6551818 11.189453 6.2753906 C 11.657896 5.8953354 12.407302 5.625903 13.320312 5.625 L 35.285156 5.6640625 A 1.90019 1.90019 0 0 0 35.289062 5.6640625 C 36.295682 5.6640625 36.785334 5.8984963 37.058594 6.1640625 C 37.331853 6.4296287 37.576172 6.883308 37.576172 7.9335938 L 37.576172 40.083984 C 37.576172 40.908636 37.34044 41.434185 37.009766 41.777344 C 36.679091 42.120503 36.200356 42.375 35.289062 42.375 L 18.617188 42.375 A 1.9 1.9 0 0 0 16.716797 44.275391 A 1.9 1.9 0 0 0 18.617188 46.175781 L 35.289062 46.175781 C 37.0336 46.175781 38.646266 45.555414 39.746094 44.414062 C 40.845922 43.272711 41.376953 41.703233 41.376953 40.083984 L 41.376953 7.9335938 C 41.376953 6.1930195 40.861229 4.5611569 39.707031 3.4394531 C 38.553292 2.3181956 36.95168 1.8636426 35.291016 1.8632812 L 35.289062 1.8632812 L 13.328125 1.8242188 A 1.90019 1.90019 0 0 0 13.324219 1.8242188 z M 24.242188 8.2167969 A 3.4605861 3.4605861 0 0 0 20.78125 11.677734 A 3.4605861 3.4605861 0 0 0 24.242188 15.136719 A 3.4605861 3.4605861 0 0 0 27.703125 11.677734 A 3.4605861 3.4605861 0 0 0 24.242188 8.2167969 z M 24.050781 17.78125 C 20.544535 17.811099 17.108055 19.515791 15.025391 22.636719 C 11.783034 27.495476 13.036423 34.015997 17.693359 37.451172 A 1.849997 1.850003 85.004333 0 0 17.986328 37.748047 C 18.000376 37.757579 18.007378 37.773726 18.021484 37.783203 A 1.849997 1.850003 85.004333 0 0 18.083984 37.822266 A 1.849997 1.850003 85.004333 0 0 18.134766 37.857422 C 18.147859 37.865983 18.162665 37.866503 18.175781 37.875 A 1.849997 1.850003 85.004333 0 0 18.572266 38.03125 C 23.549672 40.979106 30.040845 39.596391 33.251953 34.71875 C 36.552963 29.704552 35.164037 22.910391 30.160156 19.59375 C 28.283701 18.350009 26.154529 17.76334 24.050781 17.78125 z M 24.066406 21.462891 C 25.455003 21.454386 26.862533 21.84938 28.115234 22.679688 C 31.455773 24.893842 32.363873 29.336172 30.160156 32.683594 C 27.95644 36.031017 23.514459 36.954966 20.160156 34.761719 A 1.849997 1.850003 85.004333 0 0 20.121094 34.736328 A 1.849997 1.850003 85.004333 0 0 20.115234 34.732422 A 1.849997 1.850003 85.004333 0 0 20.083984 34.710938 C 16.757341 32.475962 15.876982 28.024999 18.101562 24.691406 C 19.491926 22.60791 21.752078 21.477065 24.066406 21.462891 z " fill="#008055"/>
</svg>
