<svg xmlns="http://www.w3.org/2000/svg" width="48" height="48">
	<path d="m 40.638569,1.7093633 a 1.8,1.8 0 0 0 -0.11914,0.0039 c -3.030026,0.185936 -5.452253,0.72721 -7.472657,1.994141 -2.020404,1.266931 -3.483818,3.182002 -4.78125,5.695312 a 1.8,1.8 0 0 0 0.773438,2.4257817 1.8,1.8 0 0 0 2.425781,-0.775391 c 1.138269,-2.2049887 2.180498,-3.4719057 3.496094,-4.2968747 1.315596,-0.824968 3.058423,-1.284207 5.779297,-1.451172 a 1.8,1.8 0 0 0 1.685547,-1.90625 1.8,1.8 0 0 0 -1.78711,-1.689453 z M 24.777241,10.672254 c -0.454499,0.0052 -0.9004,0.08464 -1.314453,0.232422 -1.104142,0.394088 -2.009183,1.216886 -2.578125,2.287109 a 1.8,1.8 0 0 0 0.744141,2.433594 1.8,1.8 0 0 0 2.433593,-0.744141 c 0.181161,-0.340777 0.435005,-0.523701 0.609375,-0.585937 0.174371,-0.06224 0.230772,-0.06277 0.38086,0.0332 a 1.80018,1.80018 0 0 0 0.0293,0.01953 l 3.724609,2.28125 v 0.002 c 0.219049,0.146064 0.378449,0.560914 0.150391,0.933594 a 1.80018,1.80018 0 0 0 -0.0078,0.01367 l -0.851562,1.419922 c -0.07178,-0.02994 0.0129,0.0034 -0.207032,-0.140625 a 1.80018,1.80018 0 0 0 -0.01953,-0.01172 C 20.350861,14.049034 10.289687,17.459215 7.0389601,24.812879 a 1.80018,1.80018 0 0 0 -0.00781,0.01953 c -3.317435,7.758359 -0.509991,14.564657 3.7011719,18.029297 5.787254,4.911121 14.94439,4.650857 20.408203,-1.455078 a 1.80018,1.80018 0 0 0 0.002,-0.002 C 36.03507,35.919771 35.24425,29.052985 33.033148,24.863613 a 1.8,1.8 0 0 0 -2.431641,-0.751953 1.8,1.8 0 0 0 -0.751953,2.431641 c 1.633098,3.094228 2.376121,8.237701 -1.394532,12.464843 -4.167255,4.654653 -11.095977,4.766081 -15.404296,1.09961 a 1.80018,1.80018 0 0 0 -0.02539,-0.01953 c -3.0845219,-2.53337 -5.4297409,-7.409468 -2.685595,-13.833939 2.281146,-5.133017 10.008204,-7.93728 15.595703,-4.373047 0.64915,0.42468 1.394509,0.881384 2.480469,0.84375 1.095541,-0.03797 2.111521,-0.822875 2.669922,-1.708984 a 1.80018,1.80018 0 0 0 0.02148,-0.03516 l 0.929688,-1.550782 -0.0098,0.01367 c 1.216881,-1.98856 0.650345,-4.571215 -1.236328,-5.818359 a 1.80018,1.80018 0 0 0 -0.05078,-0.0332 l -3.748047,-2.296875 c 0,0 -0.002,0 -0.002,0 -0.54097,-0.345525 -1.147324,-0.542981 -1.75586,-0.603516 -0.152285,-0.01515 -0.305531,-0.02126 -0.457031,-0.01953 z" fill="#008055"/>
</svg>
