<svg xmlns="http://www.w3.org/2000/svg" width="48" height="48">
	<path d="M 10.294922 2.6191406 C 7.9964884 2.6191406 5.9656104 3.2854264 4.5800781 4.7109375 C 3.1945458 6.1364486 2.6035156 8.1413442 2.6035156 10.335938 L 2.6035156 23.177734 C 2.6035156 25.492304 3.267629 27.621506 4.6132812 29.210938 C 5.9589335 30.800369 8.0079929 31.759766 10.294922 31.759766 L 12.746094 31.759766 A 1.8 1.8 0 0 0 14.546875 29.958984 A 1.8 1.8 0 0 0 12.746094 28.160156 L 10.296875 28.160156 A 1.80018 1.80018 0 0 0 10.294922 28.160156 C 8.9446818 28.160156 8.0501258 27.700653 7.359375 26.884766 C 6.6686242 26.068878 6.2050781 24.806282 6.2050781 23.177734 L 6.2050781 10.335938 C 6.2050781 8.7617343 6.587685 7.8097491 7.1621094 7.21875 C 7.7365337 6.6277509 8.6504008 6.21875 10.294922 6.21875 L 23.970703 6.21875 C 25.320723 6.21875 26.307958 6.6214831 26.978516 7.2675781 C 27.649074 7.9136731 28.091797 8.8547931 28.091797 10.335938 L 28.091797 13.263672 A 1.8 1.8 0 0 0 29.892578 15.0625 A 1.8 1.8 0 0 0 31.693359 13.263672 L 31.693359 10.335938 C 31.693359 8.0653137 30.903334 6.0505015 29.476562 4.6757812 C 28.049791 3.301061 26.073428 2.6191406 23.970703 2.6191406 L 10.294922 2.6191406 z M 11.083984 8.1875 A 2.6432023 2.6431959 0 0 0 8.4902344 10.832031 A 2.6432023 2.6431959 0 0 0 11.134766 13.474609 A 2.6432023 2.6431959 0 0 0 13.777344 10.832031 A 2.6432023 2.6431959 0 0 0 11.134766 8.1875 A 2.6432023 2.6431959 0 0 0 11.083984 8.1875 z M 23.238281 8.1933594 A 2.6432023 2.6431959 0 0 0 20.646484 10.835938 A 2.6432023 2.6431959 0 0 0 23.289062 13.480469 A 2.6432023 2.6431959 0 0 0 25.933594 10.835938 A 2.6432023 2.6431959 0 0 0 23.289062 8.1933594 A 2.6432023 2.6431959 0 0 0 23.238281 8.1933594 z M 24.029297 16.240234 C 21.926572 16.240234 19.950209 16.922138 18.523438 18.296875 C 17.096666 19.671612 16.306641 21.68637 16.306641 23.957031 L 16.306641 36.798828 C 16.306641 39.075759 16.807645 41.199402 18.125 42.828125 C 19.442355 44.456848 21.566996 45.380859 24.029297 45.380859 A 1.8 1.8 0 0 0 25.828125 43.580078 A 1.8 1.8 0 0 0 24.029297 41.78125 C 22.373282 41.78125 21.537409 41.321106 20.923828 40.5625 C 20.310247 39.803894 19.908203 38.536976 19.908203 36.798828 L 19.908203 23.957031 C 19.908203 22.475829 20.350927 21.534774 21.021484 20.888672 C 21.692042 20.24257 22.679277 19.839844 24.029297 19.839844 L 37.705078 19.839844 C 39.349599 19.839844 40.263466 20.248845 40.837891 20.839844 C 41.412315 21.430843 41.794922 22.382828 41.794922 23.957031 L 41.794922 36.798828 C 41.794922 38.427375 41.331384 39.689946 40.640625 40.505859 C 39.949866 41.321773 39.055302 41.78125 37.705078 41.78125 L 29.958984 41.78125 A 1.8 1.8 0 0 0 28.158203 43.580078 A 1.8 1.8 0 0 0 29.958984 45.380859 L 37.705078 45.380859 C 39.992023 45.380859 42.041075 44.421485 43.386719 42.832031 C 44.732363 41.242578 45.396484 39.113398 45.396484 36.798828 L 45.396484 23.957031 C 45.396484 21.762438 44.805454 19.757542 43.419922 18.332031 C 42.03439 16.90652 40.003511 16.240234 37.705078 16.240234 L 24.029297 16.240234 z M 11.072266 20.8125 A 2.6432023 2.6431959 0 0 0 8.4785156 23.455078 A 2.6432023 2.6431959 0 0 0 11.123047 26.097656 A 2.6432023 2.6431959 0 0 0 13.765625 23.455078 A 2.6432023 2.6431959 0 0 0 11.123047 20.8125 A 2.6432023 2.6431959 0 0 0 11.072266 20.8125 z M 24.787109 21.808594 A 2.6432023 2.6431959 0 0 0 22.193359 24.451172 A 2.6432023 2.6431959 0 0 0 24.837891 27.095703 A 2.6432023 2.6431959 0 0 0 27.480469 24.451172 A 2.6432023 2.6431959 0 0 0 24.837891 21.808594 A 2.6432023 2.6431959 0 0 0 24.787109 21.808594 z M 36.941406 21.814453 A 2.6432023 2.6431959 0 0 0 34.349609 24.457031 A 2.6432023 2.6431959 0 0 0 36.992188 27.101562 A 2.6432023 2.6431959 0 0 0 39.636719 24.457031 A 2.6432023 2.6431959 0 0 0 36.992188 21.814453 A 2.6432023 2.6431959 0 0 0 36.941406 21.814453 z M 24.769531 28.101562 A 2.6432023 2.6431959 0 0 0 22.177734 30.746094 A 2.6432023 2.6431959 0 0 0 24.820312 33.388672 A 2.6432023 2.6431959 0 0 0 27.464844 30.746094 A 2.6432023 2.6431959 0 0 0 24.820312 28.101562 A 2.6432023 2.6431959 0 0 0 24.769531 28.101562 z M 36.925781 28.107422 A 2.6432023 2.6431959 0 0 0 34.332031 30.75 A 2.6432023 2.6431959 0 0 0 36.976562 33.394531 A 2.6432023 2.6431959 0 0 0 39.619141 30.75 A 2.6432023 2.6431959 0 0 0 36.976562 28.107422 A 2.6432023 2.6431959 0 0 0 36.925781 28.107422 z M 24.775391 34.433594 A 2.6432023 2.6431959 0 0 0 22.181641 37.076172 A 2.6432023 2.6431959 0 0 0 24.826172 39.71875 A 2.6432023 2.6431959 0 0 0 27.46875 37.076172 A 2.6432023 2.6431959 0 0 0 24.826172 34.433594 A 2.6432023 2.6431959 0 0 0 24.775391 34.433594 z M 36.929688 34.439453 A 2.6432023 2.6431959 0 0 0 34.337891 37.082031 A 2.6432023 2.6431959 0 0 0 36.980469 39.724609 A 2.6432023 2.6431959 0 0 0 39.623047 37.082031 A 2.6432023 2.6431959 0 0 0 36.980469 34.439453 A 2.6432023 2.6431959 0 0 0 36.929688 34.439453 z " fill="#008055"/>
</svg>
