<svg xmlns="http://www.w3.org/2000/svg" width="48" height="48">
	<path d="m 10.798828,1.4707036 c -1.3779743,0 -2.7334627,0.395475 -3.8046875,1.269531 -1.071224,0.874055 -1.782415,2.264998 -1.828125,3.816406 a 1.70017,1.70017 0 0 0 -0.00195,0.05078 V 33.128906 c 0,1.579493 0.617999,3.048414 1.720703,3.945312 1.1027045,0.896899 2.4939348,1.207032 3.9140625,1.207032 a 1.7,1.7 0 0 0 1.699219,-1.699219 1.7,1.7 0 0 0 -1.699219,-1.701172 c -0.9083919,0 -1.485752,-0.216086 -1.7675779,-0.445313 C 8.7494242,34.206321 8.5644533,33.951114 8.5644533,33.128907 V 6.6562506 c 0.01964,-0.666592 0.2255249,-0.991957 0.5800781,-1.28125 0.3537871,-0.28867 0.9323086,-0.502985 1.6503906,-0.503907 l 17.994141,0.03125 a 1.70017,1.70017 0 0 0 0.0039,0 c 0.79829,0 1.154046,0.183769 1.345703,0.371094 0.191657,0.187325 0.384766,0.522542 0.384766,1.365234 a 1.7,1.7 0 0 0 1.701171,1.699219 1.7,1.7 0 0 0 1.699219,-1.699219 c 0,-1.456807 -0.43041,-2.841175 -1.408203,-3.796875 -0.977331,-0.955247 -2.333917,-1.33948 -3.720703,-1.339843 h -0.002 l -17.992188,-0.03125 a 1.70017,1.70017 0 0 0 -0.002,0 z m 8.910156,8.248047 c -1.377974,0 -2.731508,0.3954754 -3.802734,1.2695314 -1.071226,0.874055 -1.784375,2.264994 -1.830078,3.816406 a 1.70017,1.70017 0 0 0 0,0.05078 v 26.521485 c 0,1.579527 0.617983,3.04842 1.720703,3.945312 1.102721,0.896892 2.492006,1.207031 3.912109,1.207031 a 1.7,1.7 0 0 0 1.701172,-1.699218 1.7,1.7 0 0 0 -1.701172,-1.701172 c -0.908416,0 -1.485768,-0.214151 -1.767578,-0.44336 -0.281809,-0.229208 -0.464843,-0.486321 -0.464843,-1.308593 V 14.900391 c 0.02073,-0.662419 0.224671,-0.988947 0.578125,-1.277344 0.35417,-0.288981 0.93318,-0.503444 1.652343,-0.503906 l 17.994141,0.03125 a 1.70017,1.70017 0 0 0 0.002,0 c 0.798289,0 1.156,0.183772 1.347656,0.371094 0.191657,0.187322 0.384766,0.522605 0.384766,1.365234 v 26.488282 c 0,0.653339 -0.184756,1.053046 -0.427734,1.30664 -0.242977,0.253594 -0.591693,0.447266 -1.304688,0.447266 h -13.28125 a 1.7,1.7 0 0 0 -1.699219,1.699218 1.7,1.7 0 0 0 1.699219,1.701172 h 13.28125 c 1.462805,0 2.830799,-0.526537 3.759766,-1.496093 0.928967,-0.969557 1.373047,-2.297943 1.373047,-3.658203 V 14.886719 c 0,-1.45677 -0.430411,-2.841197 -1.408204,-3.796875 -0.976867,-0.954774 -2.3346,-1.3391174 -3.720703,-1.3398434 h -0.0039 l -17.990234,-0.03125 a 1.70017,1.70017 0 0 0 -0.0039,0 z m 9.003907,5.1601564 c -0.875577,-0.01592 -1.762529,0.100696 -2.63086,0.357422 -3.473323,1.026902 -5.965773,4.100692 -6.267578,7.724609 -0.301805,3.623917 1.649215,7.078767 4.90625,8.675781 a 1.6033468,1.5966562 71.0002 0 0 2.134766,-0.734375 1.6033468,1.5966562 71.0002 0 0 -0.738281,-2.146484 c -2.077128,-1.018473 -3.312235,-3.200961 -3.119141,-5.519531 0.193094,-2.318572 1.775325,-4.269779 3.994141,-4.925782 2.218816,-0.656002 4.594656,0.120117 6.005859,1.960938 1.411203,1.84082 1.552419,4.353037 0.353516,6.34375 a 1.6033468,1.5966562 71.0002 0 0 0.542968,2.203125 1.6033468,1.5966562 71.0002 0 0 2.19336,-0.539063 c 1.873034,-3.110071 1.650656,-7.072662 -0.560547,-9.957031 -1.658403,-2.163276 -4.187723,-3.395585 -6.814453,-3.443359 z m 0.716797,9.978515 c -0.15827,0.01482 -0.314651,0.0545 -0.460938,0.126953 -0.585149,0.289823 -0.722378,0.687446 -0.818359,0.941407 -0.09598,0.253961 -0.132039,0.464318 -0.164063,0.689453 -0.06405,0.450269 -0.08398,0.954042 -0.08398,1.574219 l -0.0098,8.269531 a 1.4,1.4 0 0 0 1.398438,1.402344 1.4,1.4 0 0 0 1.402343,-1.398438 l 0.0059,-4.648437 2.689453,6.546875 h -3.367188 a 1.4,1.4 0 0 0 -1.40039,1.398437 1.4,1.4 0 0 0 1.40039,1.400391 h 4.025391 c 0.788024,0 1.720502,-0.353901 2.152344,-1.15625 0.431842,-0.80235 0.259647,-1.652623 -0.0625,-2.308594 l 0.03906,0.08594 -4.316406,-10.513672 -0.0078,-0.01563 c -0.238287,-0.608476 -0.437081,-1.063488 -0.689474,-1.462888 -0.127558,-0.201856 -0.251854,-0.399761 -0.548828,-0.626953 -0.148487,-0.113596 -0.414197,-0.230674 -0.714843,-0.283203 -0.150324,-0.02627 -0.310482,-0.0363 -0.46875,-0.02148 z" fill="#008055"/>
</svg>
