<svg xmlns="http://www.w3.org/2000/svg" width="48" height="48">
	<path d="M 12.61551,2.4942825 C 10.730001,2.5661725 8.846252,3.1405075 7.1799635,4.2481885 6.0691053,4.9866435 5.1408171,5.9081705 4.4084792,6.9454545 2.2114669,10.057308 1.7907124,14.234401 3.5901197,17.808735 a 1.5999925,1.6000075 84.980665 0 0 2.1484376,0.708984 1.5999925,1.6000075 84.980665 0 0 0.7089843,-2.148437 C 4.7646982,13.026492 5.8347581,8.9860545 8.9514479,6.9142045 c 3.1166891,-2.07185 7.2565501,-1.49587 9.6874991,1.349609 2.430951,2.8454795 2.355449,7.0263935 -0.177734,9.7812495 -2.533184,2.754857 -6.691473,3.180319 -9.7304682,0.996094 a 1.5999925,1.6000075 84.980665 0 0 -2.2324219,0.365234 1.5999925,1.6000075 84.980665 0 0 0.3632813,2.234375 c 4.3326618,3.114024 10.3435408,2.497886 13.9550778,-1.429687 3.611537,-3.927574 3.72359,-9.96667 0.257812,-14.0234375 -2.16611,-2.535479 -5.316469,-3.813184 -8.458984,-3.693359 z m 21.935547,0 c -1.885246,0.07212 -3.767306,0.648178 -5.433594,1.755859 -1.110859,0.738455 -2.043053,1.658028 -2.77539,2.695313 -2.197013,3.1118525 -2.615815,7.2889465 -0.816407,10.8632805 a 1.5999925,1.6000075 84.980665 0 0 2.148438,0.708984 1.5999925,1.6000075 84.980665 0 0 0.708984,-2.148437 c -1.682842,-3.34279 -0.612783,-7.3832275 2.503906,-9.4550775 3.11669,-2.07185 7.258504,-1.493918 9.689453,1.351562 2.430951,2.8454795 2.351543,7.0244405 -0.18164,9.7792965 -2.533184,2.754856 -6.689519,3.180319 -9.728516,0.996094 a 1.5999925,1.6000075 84.980665 0 0 -2.234375,0.365234 1.5999925,1.6000075 84.980665 0 0 0.365235,2.234375 c 4.332661,3.114024 10.343541,2.497886 13.955078,-1.429687 3.611537,-3.927574 3.721636,-9.966671 0.255859,-14.0234375 -2.166111,-2.53548 -5.314954,-3.813552 -8.457031,-3.693359 z m -21.519531,6.871094 a 3.6889634,3.6889453 0 0 0 -3.6875,3.6894525 3.6889634,3.6889453 0 0 0 3.6875,3.6875 3.6889634,3.6889453 0 0 0 3.689453,-3.6875 3.6889634,3.6889453 0 0 0 -3.689453,-3.6894525 z M 12.613557,24.38686 C 10.728311,24.458976 8.8462518,25.035038 7.1799635,26.142719 6.0691042,26.881174 5.1388632,27.798794 4.406526,28.836079 2.2095137,31.947933 1.7907116,36.125026 3.5901197,39.69936 A 1.5999925,1.6000075 84.980665 0 0 5.7385573,40.410298 1.5999925,1.6000075 84.980665 0 0 6.4494948,38.26186 C 4.766652,34.919069 5.8347575,30.878632 8.9514479,28.806782 c 3.1166891,-2.071851 7.2565501,-1.493918 9.6874991,1.351562 2.43095,2.84548 2.35545,7.024441 -0.177734,9.779297 -2.533183,2.754856 -6.691472,3.180318 -9.7304682,0.996094 a 1.5999925,1.6000075 84.980665 0 0 -2.2324219,0.365234 1.5999925,1.6000075 84.980665 0 0 0.3652344,2.232422 c 4.3326617,3.114024 10.3415877,2.497886 13.9531247,-1.429687 3.611537,-3.927574 3.719683,-9.966671 0.253906,-14.023438 -2.166111,-2.53548 -5.314954,-3.811599 -8.457031,-3.691406 z m 21.935547,0 c -1.885509,0.07189 -3.767305,0.646225 -5.433594,1.753906 -1.110858,0.738455 -2.039146,1.658029 -2.771484,2.695313 -2.197013,3.111854 -2.617767,7.2909 -0.81836,10.865234 a 1.5999925,1.6000075 84.980665 0 0 2.148438,0.708985 1.5999925,1.6000075 84.980665 0 0 0.708984,-2.148438 c -1.682843,-3.34279 -0.612783,-7.383228 2.503906,-9.455078 3.11669,-2.071851 7.256551,-1.493917 9.6875,1.351562 2.430951,2.84548 2.355449,7.024441 -0.177734,9.779297 -2.533184,2.754857 -6.691472,3.180319 -9.730469,0.996094 a 1.5999925,1.6000075 84.980665 0 0 -2.232422,0.365234 1.5999925,1.6000075 84.980665 0 0 0.363282,2.232422 c 4.332661,3.114025 10.343541,2.499839 13.955078,-1.427734 3.611537,-3.927573 3.721637,-9.96667 0.255859,-14.023438 -2.16611,-2.535479 -5.316469,-3.813184 -8.458984,-3.693359 z m 0.417969,6.871094 a 3.6889634,3.6889453 0 0 0 -3.6875,3.6875 3.6889634,3.6889453 0 0 0 3.6875,3.689453 3.6889634,3.6889453 0 0 0 3.689453,-3.689453 3.6889634,3.6889453 0 0 0 -3.689453,-3.6875 z" fill="#008055"/>
</svg>
