<svg xmlns="http://www.w3.org/2000/svg" width="48" height="48">
	<path d="m 8.6289039,5.3222181 c -1.72041,0 -3.394256,0.3729518 -4.722656,1.4472656 -1.3284,1.0743138 -2.078125,2.838651 -2.078125,4.7441403 v 19.539063 c 0,1.807671 0.781375,3.493639 2.0625,4.578125 1.281125,1.084485 2.961555,1.591797 4.738281,1.591797 H 21.25781 v 1.708984 c 0,1.03212 -0.238203,1.454227 -0.488281,1.697266 -0.250078,0.243037 -0.711786,0.472656 -1.701172,0.472656 h -8.158203 a 2,2 0 0 0 -2.0000001,2 2,2 0 0 0 2.0000001,2 h 8.158203 c 1.678604,0 3.312855,-0.45928 4.490235,-1.603516 1.177379,-1.144236 1.699218,-2.807666 1.699218,-4.566406 v -3.708984 a 2.0002,2.0002 0 0 0 -2,-2 H 8.6289039 c -1.014564,0 -1.732685,-0.287633 -2.154297,-0.644532 -0.421612,-0.356899 -0.646484,-0.758642 -0.646484,-1.52539 V 11.513624 c 0,-1.0095 0.230212,-1.340388 0.591797,-1.6328122 0.361585,-0.2924237 1.087154,-0.5585937 2.208984,-0.5585937 H 39.986326 c 0.889363,0 1.339956,0.2442503 1.65039,0.5664062 0.310436,0.3221557 0.53711,0.8212657 0.53711,1.6249997 v 19.539063 c 0,1.03212 -0.23625,1.454227 -0.486328,1.697265 -0.250079,0.243039 -0.711786,0.472657 -1.701172,0.472657 H 28.716795 a 2,2 0 0 0 -2,2 2,2 0 0 0 2,2 h 11.269531 c 1.678604,0 3.310902,-0.45928 4.488281,-1.603516 1.177379,-1.144236 1.699219,-2.807667 1.699219,-4.566406 V 11.513624 c 0,-1.6401549 -0.538136,-3.2380337 -1.658203,-4.4003903 C 43.395555,5.9508771 41.752793,5.3222181 39.986326,5.3222181 Z M 24.123045,10.136671 a 1.8,1.8 0 0 0 -1.798829,1.798828 v 7.542969 H 8.5312479 a 1.8,1.8 0 0 0 -1.800782,1.800781 1.8,1.8 0 0 0 1.800782,1.798828 H 22.324216 v 7.542969 a 1.8,1.8 0 0 0 1.798829,1.798828 1.8,1.8 0 0 0 1.800781,-1.798828 v -7.542969 h 13.728516 a 1.8,1.8 0 0 0 1.800781,-1.798828 1.8,1.8 0 0 0 -1.800781,-1.800781 H 25.923826 v -7.542969 a 1.8,1.8 0 0 0 -1.800781,-1.798828 z m 3.951171,30.964844 a 2,2 0 0 0 -2,2 2,2 0 0 0 2,2 h 7.140626 a 2,2 0 0 0 2,-2 2,2 0 0 0 -2,-2 z" fill="#008055"/>
</svg>
