<svg xmlns="http://www.w3.org/2000/svg" width="48" height="48">
	<path d="m 16.587775,3.0475557 c -0.225961,-0.017067 -0.453979,-0.00891 -0.679688,0.027344 -1.806179,0.2901488 -3.163349,2.2177941 -2.814453,4.2597656 a 1.70017,1.70017 0 0 0 0.0039,0.023437 c 0.574486,3.1007427 1.980079,6.2637157 3.892579,9.3203117 -0.675459,5.876064 -2.743621,11.72368 -5.242188,16.615235 -2.7401914,1.452463 -5.2154745,3.110837 -7.2500002,4.945312 a 1.70017,1.70017 0 0 0 -0.013672,0.01172 c -1.5731857,1.44997 -1.5146087,3.866599 -0.28125,5.158203 0.6166794,0.645802 1.51892,1.077691 2.5117188,1.060547 0.9927988,-0.01714 1.9889074,-0.507676 2.7441406,-1.310547 a 1.70017,1.70017 0 0 0 0.056641,-0.0625 c 1.6784328,-1.96996 3.3443738,-4.414297 4.8613278,-7.179687 5.126172,-2.494928 11.261891,-4.346579 17.257813,-5.001953 2.762708,1.635025 5.659972,2.942331 8.617187,3.679687 a 1.70017,1.70017 0 0 0 0.0293,0.0059 c 1.063375,0.245618 2.17297,0.0088 2.957031,-0.5625 0.784063,-0.571326 1.26069,-1.40284 1.417969,-2.294922 0.15728,-0.892081 -0.01885,-1.896887 -0.632812,-2.714843 -0.612477,-0.815973 -1.626129,-1.351418 -2.763672,-1.494141 0,0 -0.002,0 -0.002,0 -2.83822,-0.364389 -5.837118,-0.365099 -8.863282,-0.128906 -2.589828,-1.643295 -5.062885,-3.62927 -7.24414,-5.84375 -1.787532,-1.81476 -3.302928,-3.780133 -4.63086,-5.767578 0.234285,-3.129646 0.154157,-6.2713809 -0.453074,-9.3144946 v -0.00195 C 19.681185,4.5426865 18.169498,3.1670271 16.587775,3.0475557 Z m 14.386719,0.4023438 c -0.907604,0 -1.834542,0.3309329 -2.498047,0.9941406 -0.663506,0.6632077 -1.007813,1.6120931 -1.007813,2.5585937 v 7.4179692 7.109375 a 1.7,1.7 0 0 0 1.699219,1.699219 1.7,1.7 0 0 0 1.701172,-1.699219 V 14.420603 7.0026338 c 0,-0.1970993 0.03263,-0.1752014 0.0098,-0.1523437 -0.02287,0.022858 -0.04686,0 0.0957,0 h 2.498047 c 0.0074,0.027265 -0.0039,-0.045882 -0.0039,0.1523437 V 24.576853 a 1.7,1.7 0 0 0 1.699219,1.701172 1.7,1.7 0 0 0 1.701172,-1.701172 V 7.0026338 C 36.869077,6.1211934 36.665329,5.213573 36.038985,4.4948213 35.412641,3.7760697 34.441482,3.4498149 33.593672,3.4498995 Z M 16.44715,6.4030245 c 0.02635,-0.038326 0.133433,-0.025475 0.285156,0.7382812 a 1.70017,1.70017 0 0 0 0,0.00195 c 0.05853,0.293232 0.05148,0.6074308 0.09961,0.9042969 -0.115088,-0.4283181 -0.309285,-0.8790255 -0.386718,-1.2949218 -0.07554,-0.4753745 0.04453,-0.3268376 0.0039,-0.3203125 -0.01046,0.00168 -0.01074,-0.016521 -0.002,-0.029297 z m 3.414062,14.2871095 c 0.904926,1.112776 1.83848,2.213465 2.865235,3.25586 1.510071,1.533072 3.171722,2.929579 4.892578,4.242187 -3.931081,0.676407 -7.690442,1.759178 -11.283203,3.220703 1.479799,-3.390617 2.796466,-6.914742 3.52539,-10.71875 z m 19.914063,10.152344 c 0.34427,0.03268 0.712979,0.02107 1.050781,0.06445 a 1.70017,1.70017 0 0 0 0.0078,0 c 0.426293,0.05274 0.464327,0.153615 0.470703,0.162109 0.0064,0.0085 0.01517,0.02007 0.0039,0.08398 -0.01127,0.06392 -0.05686,0.125494 -0.07227,0.136719 -0.0143,0.01042 -0.01454,0.03247 -0.177734,-0.002 -0.426077,-0.106564 -0.855358,-0.312271 -1.283203,-0.445312 z m -10.607422,1.449219 a 1.7,1.7 0 0 0 -1.699219,1.699218 v 2.685547 a 1.70017,1.70017 0 0 0 0.152344,0.705078 l 3.003906,6.583985 a 1.70017,1.70017 0 0 0 3.091797,0.0059 l 2.953125,-6.423828 a 1.70017,1.70017 0 0 0 0.15625,-0.710938 v -1.011718 a 1.7,1.7 0 0 0 -1.699219,-1.701172 1.7,1.7 0 0 0 -1.701172,1.701172 v 0.640625 l -1.248046,2.71289 -1.310547,-2.871093 0.002,-2.316407 A 1.7,1.7 0 0 0 29.167853,32.291697 Z M 7.2616027,40.391306 c -0.104247,0.127457 -0.2025168,0.336357 -0.3066406,0.458984 -0.2111533,0.207774 -0.3096187,0.218937 -0.2988282,0.21875 0.01177,-2.03e-4 0.026471,0.01377 0.00586,-0.0078 -0.040689,-0.04261 -0.2402826,0.03286 0.125,-0.306641 0.1402426,-0.126296 0.3286072,-0.238415 0.4746088,-0.363293 z" fill="#008055"/>
</svg>
