<svg xmlns="http://www.w3.org/2000/svg" width="48" height="48">
	<path d="M 30.271991,1.3348118 C 28.913999,1.2948588 27.44813,1.6246263 26.018084,2.2176243 24.584131,2.8122427 23.192033,3.6597387 22.223162,4.9637181 a 1.70017,1.70017 0 0 0 -0.0332,0.044922 C 21.187024,6.45167 20.66149,7.5959919 20.262228,8.6141088 c -0.396456,1.010962 -0.675461,1.8618702 -1.292969,3.0722652 -0.424257,0.788138 -0.934626,1.381799 -1.423828,2.035156 0.07014,-1.27763 0.105621,-2.542485 0.06641,-3.617187 a 1.70017,1.70017 0 0 0 -0.0039,-0.07031 C 17.601228,9.9480275 17.595761,8.4017244 16.895038,6.930515 16.194314,5.4593054 14.550596,3.9015772 12.018084,3.5984837 A 1.70017,1.70017 0 0 0 11.818866,3.586765 C 10.840288,3.5846975 9.8950909,4.0422445 9.3442562,4.6062962 9.0654333,4.8918093 8.9945531,5.1203632 8.8364437,5.3875462 7.9350776,5.5243301 7.095291,5.6904586 5.9048031,5.9676243 A 1.70017,1.70017 0 0 0 5.7973812,5.9969212 C 4.9350199,6.2582728 4.2761179,6.7721589 3.7075375,7.5184056 3.1389571,8.2646522 2.7099324,9.3179431 2.824725,10.50864 a 1.70017,1.70017 0 0 0 0.00781,0.06445 c 0.07817,0.577502 0.3947194,1.182153 0.8007812,1.558594 0.4060619,0.37644 0.8291017,0.552784 1.1855469,0.667969 0.626424,0.202428 1.0829892,0.245487 1.4589844,0.318359 -0.010878,0.02524 -0.02175,-0.002 -0.033203,0.0918 a 1.70017,1.70017 0 0 0 -0.00586,0.04883 C 5.9639917,16.214536 4.977775,20.07505 7.96535,24.715671 a 1.70017,1.70017 0 0 0 0.019531,0.0293 c 0.8204254,1.217243 1.8627561,2.310404 3.158203,3.056641 1.295448,0.746235 2.902046,1.114796 4.529297,0.740234 a 1.70017,1.70017 0 0 0 0.02149,-0.0039 c 0.145831,-0.03546 0.04204,-0.03327 0.0957,-0.03516 0.521105,5.384375 1.154303,10.473586 -0.720703,13.933594 l -1.615235,1.146485 a 1.7,1.7 0 0 0 -0.402343,2.36914 1.7,1.7 0 0 0 2.371093,0.402344 l 2.007813,-1.425781 a 1.70017,1.70017 0 0 0 0.482422,-0.527344 c 2.900101,-4.94679 1.771198,-10.953464 1.251953,-16.349609 a 1.70017,1.70017 0 0 0 -0.002,-0.01758 C 19.06165,27.086626 18.57914,26.045192 17.670428,25.510593 16.761717,24.975994 15.771805,25.018604 14.889178,25.233249 14.175696,25.391887 13.545127,25.26228 12.84035,24.856296 12.131024,24.447692 11.403804,23.726152 10.813006,22.85239 8.4549677,19.173399 9.2992256,16.996406 9.6196469,13.621921 9.8123828,12.04293 8.896483,10.305664 7.3266781,9.8699681 A 1.70017,1.70017 0 0 0 7.2661312,9.8543431 C 6.8350852,9.7516208 6.6426504,9.720016 6.3794125,9.6707493 c 0.019645,-0.030619 0.00744,-0.060553 0.03125,-0.091797 C 6.5629125,9.3791283 6.831772,9.2439603 6.7739437,9.25864 8.3582163,8.8881724 9.4203223,8.6139091 9.9321469,8.5945774 a 1.70017,1.70017 0 0 0 1.4628911,-0.953125 c 0.175284,-0.3589698 0.305115,-0.5585849 0.357421,-0.6210937 1.343127,0.2036004 1.761094,0.7197234 2.072266,1.3730469 0.319106,0.66998 0.343924,1.3036489 0.386719,1.8652344 0.07898,2.226689 -0.08862,5.394741 -0.607422,7.84375 a 1.70017,1.70017 0 0 0 2.572266,1.789062 c 2.022127,-1.280668 4.152716,-3.553099 5.792968,-6.605469 a 1.70017,1.70017 0 0 0 0.01563,-0.0293 c 0.735147,-1.435829 1.087898,-2.500907 1.441401,-3.4023399 0.349475,-0.8911611 0.707286,-1.6701045 1.539063,-2.8730469 0.408296,-0.5427306 1.320344,-1.193811 2.355469,-1.6230469 1.041204,-0.4317566 2.204526,-0.6471494 2.857422,-0.6269531 a 1.70017,1.70017 0 0 0 0.01758,0 c 0.769211,0.015754 0.985803,0.252305 1.447265,1.0253906 0.461462,0.7730857 0.844256,1.9979209 1.345703,3.1992188 1.237437,2.9947634 2.984918,5.7850784 4.824219,8.4941404 a 1.70017,1.70017 0 0 0 0.04297,0.0625 c 2.053922,2.755533 3.220746,4.874211 3.6875,6.494141 0.466754,1.619929 0.345822,2.702211 -0.265625,3.978515 a 1.7,1.7 0 0 0 0.798828,2.267578 1.7,1.7 0 0 0 2.267578,-0.798828 c 0.92217,-1.924896 1.119592,-4.116276 0.464841,-6.388672 -0.650024,-2.255988 -2.033871,-4.633837 -4.183594,-7.52539 -1.790265,-2.636838 -3.406767,-5.248816 -4.496094,-7.8867188 a 1.70017,1.70017 0 0 0 -0.002,-0.00781 C 35.735667,6.7067566 35.346234,5.3266387 34.563006,4.0144993 33.780658,2.7038343 32.282523,1.3788991 30.271991,1.3348118 Z M 11.752459,6.9676243 c -0.01575,0.00691 -0.01815,0.019365 0.06055,0.019531 l -0.03906,-0.00195 c 2.52e-4,-2.634e-4 0.0017,-0.00366 0.002,-0.00391 0.02142,-0.021937 -0.0077,-0.020579 -0.02344,-0.013672 z m 0.492188,0.7226563 a 1.3590386,1.3590386 0 0 0 -1.359375,1.359375 1.3590386,1.3590386 0 0 0 1.359375,1.3593754 1.3590386,1.3590386 0 0 0 1.359375,-1.3593754 1.3590386,1.3590386 0 0 0 -1.359375,-1.359375 z M 38.873553,21.016452 a 1.7,1.7 0 0 0 -1.613281,1.304688 c -0.729341,3.056639 -0.993835,5.051068 -0.248047,8.017578 a 1.70017,1.70017 0 0 0 0.07813,0.234375 c 0.350252,0.848121 0.316358,1.643182 0.234375,2.863281 a 1.70017,1.70017 0 0 0 0,0.01563 c -0.18788,3.249254 -0.117246,6.513264 0.402344,9.771484 a 1.7,1.7 0 0 0 1.947265,1.41211 1.7,1.7 0 0 0 1.410157,-1.947266 c -0.471556,-2.956983 -0.54266,-5.970721 -0.36524,-9.039067 l -0.002,0.01563 c 0.07996,-1.190017 0.177553,-2.646194 -0.421875,-4.216797 -0.614584,-2.473606 -0.431253,-3.392741 0.271484,-6.337891 A 1.7,1.7 0 0 0 39.3071,21.063332 1.7,1.7 0 0 0 38.873506,21.016452 Z m -5.931641,1.488281 c -0.305221,-0.0079 -0.578024,0.04586 -0.814453,0.101563 -0.472857,0.111399 -0.879184,0.287708 -1.289062,0.496094 -1.839619,0.929604 -3.55293,1.714548 -5.335938,1.978515 -0.830915,0.0938 -1.67784,0.231558 -2.457031,0.837891 -0.798655,0.621479 -1.181773,1.522352 -1.4375,2.470703 a 1.70017,1.70017 0 0 0 -0.0059,0.01953 c -0.440561,1.709995 -0.845254,3.610947 -0.597657,5.589844 a 1.70017,1.70017 0 0 0 0.01367,0.08984 c 0.253608,1.41391 1.290509,2.434073 1.982422,2.867187 0.691914,0.433114 0.998304,0.551601 1.375,1.080078 a 1.7,1.7 0 0 0 2.371137,0.398443 1.7,1.7 0 0 0 0.398437,-2.371094 c -0.835554,-1.172222 -1.887564,-1.707123 -2.339843,-1.990234 -0.430798,-0.269665 -0.344307,-0.108247 -0.419922,-0.556641 -0.138721,-1.208764 0.109728,-2.704663 0.509765,-4.257812 0,0 0,-0.002 0,-0.002 0.167985,-0.606441 0.27437,-0.682379 0.238282,-0.654297 -0.03705,0.02883 0.128641,-0.07561 0.804687,-0.150391 a 1.70017,1.70017 0 0 0 0.0625,-0.0078 c 1.964066,-0.290772 3.653119,-1.020031 5.248047,-1.789063 -0.33855,1.360671 -0.60575,2.807014 -0.548828,4.453125 a 1.70017,1.70017 0 0 0 0.0039,0.06641 c 0.08913,1.198818 0.269376,1.016291 -0.382812,1.998047 a 1.70017,1.70017 0 0 0 -0.01758,0.02539 c -1.6817,2.637494 -3.332284,5.32122 -3.876954,8.177734 a 1.7,1.7 0 0 0 1.351563,1.988282 1.7,1.7 0 0 0 1.988281,-1.351563 c 0.366914,-1.924273 1.753565,-4.395494 3.386719,-6.958984 l 0.01758,-0.02734 c 0.989319,-1.506983 1.007813,-2.973951 0.923828,-4.103516 l 0.0039,0.06836 c -0.05669,-1.639532 0.248929,-3.081821 0.699219,-4.583985 l -0.03711,0.105469 c 0.225413,-0.603821 0.378303,-1.127584 0.359375,-1.767578 -0.01893,-0.639994 -0.428303,-1.580849 -1.166016,-1.96875 -0.368856,-0.193951 -0.706497,-0.263567 -1.011719,-0.271485 z" fill="#008055"/>
</svg>
