<svg xmlns="http://www.w3.org/2000/svg" width="48" height="48">
	<path d="m 23.91476,1.9584977 c -1.825203,-6.088e-4 -3.723225,0.2249979 -5.638672,0.7382812 a 1.70017,1.70017 0 0 0 -0.02539,0.00586 c -0.430354,0.1222825 -1.120481,0.4537425 -1.421875,1.2304688 -0.301394,0.776726 -0.03149,1.4181383 0.154297,1.7578124 0.371569,0.6793484 0.741269,0.9585794 1.117187,1.3300782 a 1.70017,1.70017 0 0 0 0.03125,0.03125 l 9.996094,9.3906247 c 0.0015,0.0014 0.0024,0.0025 0.0039,0.0039 0.455491,0.442967 0.864876,0.790776 1.34375,1.068359 0.480407,0.278471 1.146796,0.574399 1.998047,0.326172 0.851252,-0.248227 1.343798,-1.024551 1.515625,-1.560547 0.17118,-0.533973 0.195133,-1.003875 0.195313,-1.521484 v -0.0059 l 0.01953,-5.7031249 A 1.7,1.7 0 0 0 31.510463,7.3432633 1.7,1.7 0 0 0 29.805385,9.0385758 L 29.78976,13.339357 21.522182,5.5717789 c 3.465535,-0.4414124 6.799211,0.08748 9.388671,1.1269532 A 1.7,1.7 0 0 0 33.121791,5.7553727 1.7,1.7 0 0 0 32.178432,3.5444352 C 30.273439,2.779725 28.074357,2.2245411 25.713588,2.0327164 25.123395,1.9847603 24.523161,1.9587006 23.91476,1.9584977 Z m -10.208985,2.84375 A 1.7,1.7 0 0 0 12.832728,5.0385758 C 6.6354617,8.7018374 1.5147058,15.89991 1.9538224,26.003419 a 1.70017,1.70017 0 0 0 0.00195,0.02344 c 0.049508,0.877552 0.2776724,1.903764 1.3691406,2.478515 0.5457341,0.287376 1.2329173,0.304475 1.7402343,0.144532 0.5073172,-0.159944 0.8777044,-0.437 1.1914063,-0.746094 L 19.529994,15.626466 a 1.70017,1.70017 0 0 0 0.0059,-0.0059 c 0.668762,-0.623626 1.233057,-1.393409 1.384766,-2.392578 0.151709,-0.99917 -0.262759,-2.077059 -0.939453,-2.802734 a 1.70017,1.70017 0 0 0 -0.09766,-0.0957 L 17.489015,8.1420505 a 1.7,1.7 0 0 0 -2.40039,0.109375 1.7,1.7 0 0 0 0.107422,2.4023435 l 2.320312,2.117187 c -0.0052,8.59e-4 -0.02163,0.104788 -0.298828,0.363282 L 5.5182755,23.954591 C 5.8182296,16.169949 9.7186948,10.82994 14.563197,7.9663102 A 1.7,1.7 0 0 0 15.160853,5.6362321 1.7,1.7 0 0 0 13.705775,4.8022477 Z m 23.025391,1.7578125 c -0.26592,-0.012388 -0.558243,0.02401 -0.882813,0.1269531 -0.649138,0.2058864 -1.146748,0.7758372 -1.353515,1.2578125 -0.206768,0.4819753 -0.244141,0.9113839 -0.244141,1.34375 l -0.01172,18.6445312 a 1.70017,1.70017 0 0 0 0,0.002 c 0,0.914393 0.179381,1.852147 0.806641,2.644531 0.62726,0.792384 1.697193,1.224609 2.689453,1.224609 l 1.789063,0.01953 a 1.7,1.7 0 0 0 1.71875,-1.681641 1.7,1.7 0 0 0 -1.681641,-1.71875 l -1.806641,-0.01953 a 1.70017,1.70017 0 0 0 -0.01953,0 c -0.04074,0 -0.02038,0.0045 -0.03906,0.0059 -0.02187,-0.06424 -0.05664,-0.189905 -0.05664,-0.474609 l 0.0098,-16.539062 c 5.354495,5.701808 5.772057,13.302236 4.195312,18.251952 a 1.7,1.7 0 0 0 1.103516,2.136719 1.7,1.7 0 0 0 2.136719,-1.103515 c 2.07766,-6.522197 1.306752,-16.38853 -6.498047,-23.1875001 A 1.70017,1.70017 0 0 0 38.57101,7.4799821 C 38.089226,7.0705315 37.528926,6.5972238 36.731166,6.5600602 Z M 17.494838,12.743654 c 0.02311,0.02479 0.01224,0.0086 0.02539,0.02148 0,0 -0.002,0.002 -0.002,0.002 z m -4.683594,11.96289 c -0.384514,0.01574 -0.737595,0.118343 -0.992187,0.238282 -0.509185,0.239876 -0.869749,0.543853 -1.25,0.898437 l -3.1894533,2.828125 a 1.7,1.7 0 0 0 -0.1445313,2.398438 1.7,1.7 0 0 0 2.3984375,0.144531 l 2.2226561,-1.96875 0.01563,8.929687 C 9.5594951,36.239979 8.1761505,34.073274 7.1510881,31.870607 A 1.7,1.7 0 0 0 4.8932755,31.046388 1.7,1.7 0 0 0 4.0690568,33.306154 c 1.4365489,3.086874 3.6860062,6.492975 7.8632812,9.144531 0.374611,0.261389 1.077648,0.605654 1.902344,0.302734 0.838996,-0.308173 1.111554,-0.973792 1.230468,-1.341797 0.237829,-0.736009 0.191699,-1.207471 0.207032,-1.736328 a 1.70017,1.70017 0 0 0 0.002,-0.05273 L 15.25265,28.388185 c 0.01359,-0.637888 -0.0088,-1.175544 -0.132812,-1.716797 -0.12397,-0.541253 -0.364866,-1.230304 -1.126953,-1.683594 -0.381044,-0.226644 -0.797127,-0.296988 -1.181641,-0.28125 z m 7.515625,8.078125 c -0.914413,0 -1.852146,0.177425 -2.644531,0.804688 -0.792386,0.627262 -1.224618,1.697228 -1.22461,2.689453 l -0.02148,3.267578 a 1.7,1.7 0 0 0 1.689453,1.708984 1.7,1.7 0 0 0 1.710938,-1.689453 l 0.02148,-3.27539 a 1.70017,1.70017 0 0 0 0,-0.01172 c 0,-0.04073 -0.0045,-0.02038 -0.0059,-0.03906 0.06423,-0.02187 0.189878,-0.05664 0.474609,-0.05664 l 17.615234,0.0098 c -4.899284,5.437013 -11.945574,7.814926 -19.36914,5.654297 a 1.7,1.7 0 0 0 -2.107422,1.15625 1.7,1.7 0 0 0 1.15625,2.107422 c 9.297267,2.705969 18.585672,-0.641056 24.248047,-8.066406 a 1.70017,1.70017 0 0 0 0.0059,-0.0059 c 0.488706,-0.646525 1.069277,-1.382218 0.693359,-2.632813 -0.187958,-0.625297 -0.742485,-1.154964 -1.234374,-1.371094 -0.491891,-0.21613 -0.92819,-0.247584 -1.357422,-0.240234 l -19.648438,-0.0098 a 1.70017,1.70017 0 0 0 -0.002,0 z" fill="#008055"/>
</svg>
