<svg xmlns="http://www.w3.org/2000/svg" width="48" height="48">
	<path d="m 22.266784,2.4228497 c -1.12922,0 -2.270924,0.2400159 -3.203125,0.9902344 -0.932201,0.7502181 -1.457031,2.0044201 -1.457031,3.2812501 a 1.7,1.7 0 0 0 1.701172,1.699219 1.7,1.7 0 0 0 1.699218,-1.699219 c 0,-0.51157 0.07982,-0.544581 0.189454,-0.632813 0.109633,-0.08823 0.447352,-0.238281 1.070312,-0.238281 h 19.330078 c 0.447629,0 0.587658,0.106007 0.683594,0.205078 0.09594,0.09907 0.199219,0.273608 0.199219,0.666016 V 18.682615 c 0,0.545692 -0.111197,0.655648 -0.15625,0.699219 -0.04505,0.04357 -0.195729,0.158203 -0.726563,0.158203 -2.344746,0 -4.139104,1.361495 -5.083984,2.998047 l 0.02344,-0.04102 c -0.212823,0.345219 -0.622681,0.667375 -0.982422,0.998047 -0.170289,-1.465214 -1.063442,-2.971315 -2.638671,-3.771484 a 1.7,1.7 0 0 0 -2.285157,0.746093 1.7,1.7 0 0 0 0.746094,2.285157 c 0.72619,0.368882 0.819515,0.662397 0.853516,1.167969 0.034,0.50557 -0.196944,1.258901 -0.636719,1.859374 a 1.70017,1.70017 0 0 0 1.742187,2.664063 c 2.686078,-0.601233 4.868575,-2.175499 6.095703,-4.166016 a 1.70017,1.70017 0 0 0 0.02539,-0.04297 c 0.6327,-1.095849 0.743211,-1.296875 2.140625,-1.296875 1.113866,0 2.254872,-0.307731 3.089844,-1.115235 0.834972,-0.807504 1.193359,-1.97617 1.193359,-3.142578 V 6.6943342 c 0,-1.106892 -0.370286,-2.219597 -1.15625,-3.03125 C 43.937851,2.8514305 42.786433,2.4228497 41.596862,2.4228497 Z m -6.095703,7.7773433 c -7.2181953,0 -12.0117186,6.262266 -12.0117186,13.060547 0,6.083812 -0.1497988,8.596764 -1.484375,13.576172 l 0.015625,-0.05273 c -0.4798416,1.595388 -0.851154,3.462415 -0.2851562,5.335937 0.2829989,0.936761 0.8745125,1.885837 1.796875,2.523438 0.9223624,0.637601 2.0882874,0.933593 3.3886719,0.933593 H 31.46405 c 1.965694,0 3.778359,-0.917435 4.318359,-2.589843 0.54,-1.672408 -0.313416,-3.361648 -1.673828,-4.416016 a 1.80018,1.80018 0 0 0 -0.05469,-0.04102 c -2.644988,-1.894688 -3.534308,-3.368032 -3.914062,-4.628906 -0.379754,-1.260874 -0.21875,-2.493601 -0.21875,-4.066406 A 1.8,1.8 0 0 0 28.1203,28.036131 1.8,1.8 0 0 0 26.321472,29.834959 c 0,1.210395 -0.260443,3.006664 0.371093,5.103515 0.627585,2.083733 2.167928,4.283087 5.210938,6.476563 0.295961,0.229381 0.382316,0.384038 0.414062,0.458984 -0.09912,0.04225 -0.333738,0.103516 -0.853515,0.103516 H 7.5910031 c -0.7724958,0 -1.1470525,-0.160301 -1.3417969,-0.294922 C 6.0544618,41.547994 5.9519254,41.407475 5.8527218,41.0791 5.6543146,40.422346 5.7677196,39.051998 6.1378781,37.821287 a 1.80018,1.80018 0 0 0 0.015625,-0.05273 c 1.4003437,-5.224792 1.6054687,-8.354425 1.6054687,-14.507813 0,-5.191718 3.2327242,-9.460937 8.4121092,-9.460937 4.521316,0 7.64919,2.783475 8.595703,5.609375 a 1.80018,1.80018 0 0 0 0.02148,0.06445 c 0.768849,2.035488 0.910569,3.394967 1.25586,5.298828 a 1.8,1.8 0 0 0 2.09375,1.449219 1.8,1.8 0 0 0 1.449218,-2.091797 c -0.31793,-1.753027 -0.529263,-3.506663 -1.419917,-5.882814 -1.477157,-4.378324 -6.009809,-8.046875 -11.996094,-8.046875 z m 5.732422,8.283203 a 2.0964029,2.0966306 0 0 0 -2.089844,2.095704 2.0964029,2.0966306 0 0 0 2.095703,2.097656 2.0964029,2.0966306 0 0 0 2.095703,-2.097656 2.0964029,2.0966306 0 0 0 -2.095703,-2.095704 2.0964029,2.0966306 0 0 0 -0.0059,0 z m -7.94336,0.138672 a 2.0964029,2.0966306 0 0 0 -2.091797,2.097656 2.0964029,2.0966306 0 0 0 2.097657,2.095704 2.0964029,2.0966306 0 0 0 2.095703,-2.095704 2.0964029,2.0966306 0 0 0 -2.095703,-2.097656 2.0964029,2.0966306 0 0 0 -0.0059,0 z m 4.466797,4.730469 c -0.817354,0.01001 -1.389482,0.442188 -1.914062,0.884766 a 1.30013,1.30013 0 0 0 -0.02149,0.01953 c -0.766919,0.676579 -1.663327,1.064166 -3.035156,1.0625 a 1.30013,1.30013 0 0 0 -0.002,0 c -0.149293,0 -0.306776,-0.0072 -0.503906,-0.0039 -0.19713,0.0033 -0.430003,-0.07117 -0.941406,0.230468 -0.255704,0.150821 -0.566878,0.5072 -0.660157,0.884766 -0.09328,0.377566 -0.01976,0.668439 0.04883,0.865234 0.137172,0.393591 0.296892,0.578626 0.494141,0.828125 a 1.30013,1.30013 0 0 0 0.02344,0.0293 c 1.835485,2.190795 3.862034,3.264715 6.132812,4.19336 a 1.30013,1.30013 0 0 0 0.03516,0.01367 c 0.545834,0.205198 1.147168,0.336001 1.765625,0.246093 0.618458,-0.08991 1.15013,-0.377491 1.634766,-0.724609 a 1.30013,1.30013 0 0 0 0.01367,-0.0098 c 1.513644,-1.116209 2.854019,-2.415585 3.853515,-4.689453 0.116207,-0.247124 0.213761,-0.467971 0.267578,-0.787109 0.0553,-0.327912 0.03045,-0.94984 -0.416015,-1.388672 -0.446465,-0.438833 -0.920206,-0.443338 -1.195313,-0.435547 -0.275106,0.0078 -0.473635,0.05187 -0.68164,0.09961 l 0.0293,-0.0059 c -1.080717,0.221816 -2.288333,-0.07309 -3.074219,-0.583984 -0.52224,-0.369192 -1.057647,-0.738264 -1.853516,-0.728516 z m 0.04297,2.664063 c 0.06973,0.03736 0.16572,0.08536 0.351563,0.216796 a 1.30013,1.30013 0 0 0 0.04297,0.02734 c 0.970812,0.631109 2.187402,0.9044 3.453125,0.951172 -0.640405,1.04456 -1.334075,1.808146 -2.353515,2.560547 -0.297844,0.211951 -0.430339,0.251058 -0.490235,0.259765 -0.05889,0.0086 -0.165857,0.0078 -0.46289,-0.101562 -1.543207,-0.632045 -2.712853,-1.349607 -3.828125,-2.308594 1.151995,-0.267879 2.208342,-0.696968 3.019531,-1.410156 0.142699,-0.116655 0.214167,-0.159409 0.267578,-0.195312 z" fill="#008055"/>
</svg>
