<svg xmlns="http://www.w3.org/2000/svg" width="48" height="48">
	<path d="m 33.333297,0.97466385 a 1.6,1.6 0 0 0 -1.5625,1.41601555 1.6,1.6 0 0 0 1.40625,1.7734375 c 2.941056,0.3415144 4.947339,1.0359784 6.205079,1.8886719 1.257738,0.8526936 1.845209,1.8022786 2.115234,3.1191406 0.54005,2.6337236 -0.693513,6.9281436 -2.984375,12.0839836 a 1.6,1.6 0 0 0 0.8125,2.111329 1.6,1.6 0 0 0 2.111328,-0.8125 C 43.80233,17.230882 45.462969,12.581227 44.632126,8.5293514 44.216703,6.5034134 43.051398,4.6737578 41.179,3.4043513 39.306604,2.1349447 36.805202,1.3648181 33.546188,0.98638255 a 1.6,1.6 0 0 0 -0.212891,-0.0117187 z m -9.259765,0.0273439 c -3.266042,0 -5.949234,1.7686075 -7.611328,4.2675781 -1.662094,2.4989708 -2.447794,5.7094771 -2.392578,9.0292971 0.04869,2.927866 -0.339489,5.345837 -0.271485,7.648438 0.068,2.302601 0.823005,4.657497 3.017578,6.339843 a 1.6,1.6 0 0 0 2.244141,-0.296875 1.6,1.6 0 0 0 -0.296875,-2.242187 c -1.457687,-1.117454 -1.711502,-2.061932 -1.765625,-3.894531 -0.05412,-1.832599 0.325064,-4.385489 0.271484,-7.607422 -0.046,-2.76548 0.650309,-5.3901743 1.857422,-7.2050783 1.207114,-1.814905 2.777107,-2.8398441 4.947266,-2.8398441 2.81367,0 5.005259,1.1259175 6.802734,2.8085941 1.797476,1.682675 3.133021,3.9399543 3.94336,5.9570313 0.768573,1.913118 0.56675,2.540967 0.318359,3.972656 -0.248392,1.431689 -0.547149,3.50144 0.300781,6.710938 a 1.6,1.6 0 0 0 1.955078,1.136718 1.6,1.6 0 0 0 1.138672,-1.955078 c -0.7287,-2.758202 -0.487763,-3.930242 -0.242187,-5.345703 0.245576,-1.415461 0.492366,-3.240756 -0.5,-5.710937 C 36.839726,9.4092214 35.313873,6.7802814 33.063766,4.6738825 30.813659,2.5674834 27.769792,1.0020075 24.073532,1.0020078 Z M 11.557907,1.63482 c -0.391798,0.00506 -0.771189,0.027144 -1.138672,0.068359 C 8.949304,1.8680392 7.674193,2.3248672 6.608688,3.0898982 4.477678,4.61996 3.5021974,7.1690834 3.2219692,10.050835 c -0.3049865,3.136417 0.402415,9.345797 1.5449218,14.869141 0.571254,2.761672 1.243914,5.278127 2.072266,7.123047 0.414175,0.922459 0.822215,1.695624 1.5625,2.320312 0.370142,0.312345 0.8805,0.599 1.503906,0.644531 0.619716,0.04526 1.246391,-0.198798 1.679687,-0.53125 2.576645,-1.846437 3.610692,-3.156651 4.246094,-4.185546 a 1.6,1.6 0 0 0 -0.521484,-2.203125 1.6,1.6 0 0 0 -2.201172,0.521484 c -0.470314,0.761572 -1.109334,1.522188 -2.902344,2.871094 C 10.066128,31.281349 9.960215,31.180451 9.759079,30.732476 9.122739,29.315208 8.447603,26.910866 7.901657,24.271538 6.809764,18.992883 6.201913,12.475765 6.407516,10.361382 6.637878,7.9924344 7.335255,6.5065174 8.475876,5.6875544 9.616494,4.8685913 11.523412,4.4992604 14.729782,5.1914606 A 1.6,1.6 0 0 0 16.632126,3.9648982 1.6,1.6 0 0 0 15.405563,2.0645075 C 14.017658,1.7648826 12.7333,1.6196274 11.557907,1.63482 Z M 32.02275,11.828179 c -0.550974,0.02936 -1.092174,0.191399 -1.591796,0.46875 -0.999246,0.554703 -1.806827,1.802872 -1.712891,3.183594 a 1.60016,1.60016 0 0 0 0.002,0.03906 c 0.450616,4.819541 2.37221,8.461068 4.265625,11.792969 1.126369,2.060432 2.882074,2.980398 4.564453,3.453125 a 1.6,1.6 0 0 0 -1.371094,1.691406 1.6,1.6 0 0 0 1.705079,1.488281 c 1.709017,-0.115937 3.919477,-1.05897 5.488281,-3.46875 a 1.60016,1.60016 0 0 0 -1.394531,-2.472656 c -1.683934,0.05718 -4.691756,0.50924 -6.185547,-2.228515 a 1.60016,1.60016 0 0 0 -0.01367,-0.02344 c -1.856872,-3.26666 -3.470726,-6.373415 -3.863281,-10.501953 -0.01282,-0.165194 -0.02287,-0.103653 0.06836,-0.154297 0.09831,-0.05457 0.329358,-0.04409 0.335938,-0.04102 a 1.6,1.6 0 0 0 2.126903,-0.773429 1.6,1.6 0 0 0 -0.773438,-2.126953 C 33.133705,11.902536 32.573726,11.798822 32.02275,11.828179 Z M 20.253219,12.04107 c -0.607054,0.01646 -1.161033,0.152077 -1.634765,0.333984 a 1.6,1.6 0 0 0 -0.919922,2.066406 1.6,1.6 0 0 0 2.066406,0.919922 c 0.200754,-0.07709 0.84497,-0.146401 1.197266,0.002 0.348735,0.146856 0.691119,0.32934 0.835937,1.59375 0.22368,3.148991 -0.231586,4.774746 -0.794922,6.277344 -0.565819,1.509223 -1.383714,3.050584 -1.466797,5.369141 l 0.0039,-0.07227 c -0.07704,0.947408 -0.318122,1.347524 -0.81836,1.761719 -0.500238,0.414194 -1.402238,0.799754 -2.716797,1.085937 a 1.60016,1.60016 0 0 0 -0.832031,2.650391 c 1.948942,2.102207 4.635668,2.223056 6.226563,0.902344 a 1.6,1.6 0 0 0 0.208984,-2.253907 1.6,1.6 0 0 0 -0.478516,-0.388672 c 0.871748,-0.914942 1.486241,-2.105868 1.59961,-3.5 a 1.60016,1.60016 0 0 0 0.0039,-0.07227 c 0.05823,-1.624944 0.6161,-2.621673 1.267578,-4.359375 0.651478,-1.737702 1.249548,-4.068891 0.988281,-7.666016 a 1.60016,1.60016 0 0 0 -0.0039,-0.05664 c -0.232077,-2.122153 -1.412673,-3.644382 -2.78125,-4.220704 -0.684288,-0.28816 -1.344118,-0.389505 -1.951172,-0.373046 z m 14.1875,17.861328 a 1.6,1.6 0 0 0 -1.53125,1.197265 c -1.139723,4.386899 -0.983097,8.071065 -1.320312,10.216797 -0.168608,1.072866 -0.425745,1.638696 -0.738281,1.935547 -0.312538,0.296851 -0.87906,0.572266 -2.294922,0.572266 -1.349593,0 -1.895814,-0.228256 -2.013672,-0.322266 -0.117858,-0.09401 -0.250909,-0.278299 -0.347656,-1.164062 C 26.00113,40.566419 26.257496,36.934656 25.2415,31.66607 a 1.6,1.6 0 0 0 -1.875,-1.269532 1.6,1.6 0 0 0 -1.267578,1.875 c 0.945305,4.902014 0.650379,7.997986 0.914063,10.41211 0.131842,1.207062 0.480181,2.480366 1.533203,3.320312 1.053022,0.839947 2.367308,1.021485 4.009766,1.021485 1.873947,0 3.422823,-0.431867 4.498046,-1.453125 1.075225,-1.021258 1.479393,-2.383891 1.695313,-3.757813 0.43184,-2.747843 0.248534,-6.025355 1.257813,-9.910156 a 1.6,1.6 0 0 0 -1.146485,-1.951172 1.6,1.6 0 0 0 -0.419922,-0.05078 z" fill="#008055"/>
</svg>
