<svg xmlns="http://www.w3.org/2000/svg" width="48" height="48">
	<path d="m 29.452148,4.9952838 a 1.7,1.7 0 0 0 -1.277343,0.621093 L 15.071289,21.567549 a 1.70017,1.70017 0 0 0 0.529297,2.587891 c 2.621649,1.359266 4.374148,3.223189 5.15625,6.226562 a 1.7,1.7 0 0 0 2.074219,1.216797 1.7,1.7 0 0 0 1.216797,-2.072265 C 23.217063,26.336196 21.325878,23.95239 18.911133,22.24919 L 30.801758,7.7745798 a 1.7,1.7 0 0 0 -0.234375,-2.392578 1.7,1.7 0 0 0 -1.115235,-0.386718 z m -6.75,0.964843 a 1.7,1.7 0 0 0 -1.285156,0.603516 L 6.7236329,23.981612 a 1.70017,1.70017 0 0 0 1.060547,2.779296 c 5.7067351,0.806863 7.6813731,4.079965 7.7558591,7.101563 0.07449,3.021598 -1.741375,5.695783 -5.251953,5.742187 H 7.7607419 c -1.041081,0 -1.590533,-0.246014 -1.910156,-0.55664 -0.319623,-0.310626 -0.578125,-0.825468 -0.578125,-1.91211 v -19.34375 c 0,-0.866472 0.251887,-1.446854 0.623047,-1.832031 0.37116,-0.385176 0.910093,-0.658203 1.865234,-0.658203 h 4.3574221 a 1.7,1.7 0 0 0 1.701172,-1.699219 1.7,1.7 0 0 0 -1.701172,-1.701171 H 7.7607419 c -1.700688,0 -3.25511,0.59987 -4.314453,1.699218 -1.0593427,1.099349 -1.5742188,2.613979 -1.5742188,4.191406 v 19.34375 c 0,1.70426 0.5015406,3.272961 1.609375,4.34961 1.1078348,1.076649 2.6523888,1.519531 4.2792968,1.519531 h 2.5507811 a 1.70017,1.70017 0 0 0 0.02149,0 c 5.340752,-0.0706 8.719223,-4.612035 8.605468,-9.226562 -0.09695,-3.932957 -2.876844,-7.840328 -7.964843,-9.5625 L 24.016602,8.7550488 a 1.7,1.7 0 0 0 -0.205079,-2.394531 1.7,1.7 0 0 0 -1.109375,-0.400391 z m 11.88086,5.9199222 a 1.7,1.7 0 0 0 -0.111328,0.002 1.7,1.7 0 0 0 -1.482422,1.029297 L 24.182617,33.43869 a 1.70017,1.70017 0 0 0 -0.002,0.0078 c -0.986253,2.328219 -1.779299,3.751579 -2.630859,4.769532 a 1.70017,1.70017 0 0 0 -0.04102,0.05078 c -0.304294,0.393663 -0.575206,0.717713 -0.824219,1.058594 -0.249012,0.34088 -0.694221,0.615557 -0.61914,1.724609 0.03754,0.554526 0.452717,1.197187 0.839843,1.464844 0.387126,0.267657 0.690207,0.33029 0.958985,0.382812 0.537555,0.105044 1.024772,0.107422 1.701172,0.107422 h 16.0625 c 1.719551,0 3.32825,-0.491569 4.544922,-1.521484 1.21667,-1.029916 1.955078,-2.618026 1.955078,-4.347657 V 17.784346 c 0,-1.838296 -0.708955,-3.494087 -1.964844,-4.509766 -1.255889,-1.015678 -2.859636,-1.380859 -4.535156,-1.380859 a 1.7,1.7 0 0 0 -1.699219,1.699219 1.7,1.7 0 0 0 1.699219,1.701172 c 1.166719,0 1.962383,0.271975 2.396484,0.623046 0.434101,0.351072 0.705078,0.790484 0.705078,1.867188 v 19.351562 c 0,0.844871 -0.265882,1.340494 -0.751953,1.751954 -0.486071,0.411459 -1.277871,0.716796 -2.349609,0.716796 l -14.9375,0.002 c 0.924685,-1.278492 1.744593,-2.767175 2.617187,-4.826172 l 0.0039,-0.0078 8.802735,-20.521484 A 1.7,1.7 0 0 0 35.22168,12.018721 1.7,1.7 0 0 0 34.583008,11.880049 Z" fill="#008055"/>
</svg>
