<svg xmlns="http://www.w3.org/2000/svg" width="48" height="48">
	<path d="m 8.6279297,4.110352 c -1.7203911,0 -3.3961986,0.372972 -4.7246094,1.447265 C 2.5749093,6.63191 1.8271484,8.394312 1.8271484,10.299805 V 29.84082 c 0,1.807666 0.7794153,3.491707 2.0605469,4.576172 1.2811315,1.084465 2.963523,1.59375 4.7402344,1.59375 H 21.256836 v 1.708985 c 0,1.032145 -0.238206,1.45423 -0.488281,1.697265 -0.250075,0.243036 -0.711781,0.472656 -1.701172,0.472656 H 10.90918 a 2,2 0 0 0 -2.0000003,2 2,2 0 0 0 2.0000003,2 h 8.158203 c 1.678599,0 3.310899,-0.461229 4.488282,-1.605468 1.177382,-1.14424 1.701171,-2.805699 1.701171,-4.564453 v -3.708985 a 2.0002,2.0002 0 0 0 -2,-2 H 8.6279297 c -1.0145786,0 -1.732691,-0.289599 -2.1542969,-0.646484 C 6.0520269,31.007373 5.8271484,30.607555 5.8271484,29.84082 V 10.299805 c 0,-1.009507 0.2302228,-1.340406 0.5917969,-1.632813 0.3615741,-0.292407 1.0871353,-0.55664 2.2089844,-0.55664 H 39.983399 c 0.889358,0 1.339953,0.244249 1.65039,0.566406 0.310439,0.322157 0.539063,0.819372 0.539063,1.623047 V 29.84082 c 0,1.032083 -0.238206,1.454235 -0.488281,1.697266 -0.250076,0.243031 -0.711781,0.472656 -1.701172,0.472656 H 28.715821 a 2,2 0 0 0 -2,2 2,2 0 0 0 2,2 h 11.267578 c 1.678599,0 3.312852,-0.46125 4.490234,-1.605468 1.177382,-1.144219 1.699219,-2.805736 1.699219,-4.564454 V 10.299805 c 0,-1.640126 -0.538139,-3.236095 -1.658203,-4.398438 C 43.394585,4.739024 41.749871,4.110352 39.983399,4.110352 Z M 22.637696,10.94043 c -0.275098,0.02433 -0.509177,0.106127 -0.6875,0.179687 -0.356647,0.147122 -0.617461,0.323511 -0.894531,0.529297 a 1.60016,1.60016 0 0 0 -0.0059,0.0039 c -3.784601,2.836016 -4.577953,7.868815 -3.050781,11.582032 a 1.60016,1.60016 0 0 0 0.0059,0.01172 c 1.887311,4.476838 6.785736,6.278026 10.660156,5.986328 a 1.6,1.6 0 0 0 1.47461,-1.714843 1.6,1.6 0 0 0 -1.714844,-1.476563 c -2.618604,0.19715 -6.272146,-1.204103 -7.46875,-4.03125 -0.7139,-1.741398 -0.592269,-4.170072 0.501953,-6.058594 0.02516,1.821553 0.238068,3.674427 1.134766,5.507813 a 1.60016,1.60016 0 0 0 0.0098,0.01758 c 0.822887,1.632223 1.565114,2.711318 2.828126,3.941406 a 1.6,1.6 0 0 0 2.261718,-0.0293 1.6,1.6 0 0 0 -0.0293,-2.261718 c -1.078884,-1.05076 -1.45084,-1.602204 -2.199218,-3.085938 -0.965224,-1.98111 -1.032024,-4.09587 -0.783203,-6.443359 v -0.002 c 0.03652,-0.336623 0.06093,-0.65352 -0.02149,-1.070313 -0.08257,-0.417552 -0.397277,-1.111387 -1.085937,-1.421875 -0.344331,-0.155243 -0.660449,-0.188389 -0.935547,-0.164062 z m 5.435547,28.949218 a 2,2 0 0 0 -2,2 2,2 0 0 0 2,2 h 7.140625 a 2,2 0 0 0 2,-2 2,2 0 0 0 -2,-2 z" fill="#008055"/>
</svg>
