<svg xmlns="http://www.w3.org/2000/svg" width="48" height="48">
	<path d="m 5.0048832,2.8805753 c -0.903022,0 -1.803986,0.27333 -2.429688,0.914062 -0.625702,0.640732 -0.867187,1.522206 -0.867187,2.382813 L 1.6904302,19.642294 a 1.30013,1.30013 0 0 0 0,0.002 c 0,0.861342 0.245248,1.719578 0.80664,2.408203 0.561392,0.688625 1.468223,1.14875 2.451172,1.177734 a 1.3,1.3 0 0 0 1.337891,-1.261719 1.3,1.3 0 0 0 -1.261719,-1.33789 c -0.305741,-0.009 -0.397188,-0.08022 -0.511719,-0.220703 -0.11453,-0.140488 -0.222656,-0.406817 -0.222656,-0.765625 L 4.3076172,6.1794503 a 1.30013,1.30013 0 0 0 0,-0.002 c 0,-0.410453 0.088553,-0.527084 0.126953,-0.566406 0.038401,-0.03932 0.137325,-0.128907 0.570313,-0.128907 H 19.856445 c 0.314423,0 0.461288,0.08182 0.542969,0.160157 0.08168,0.07833 0.164063,0.188964 0.164063,0.535156 V 19.644247 c 0,0.481558 -0.117428,0.741446 -0.189454,0.830078 -0.07203,0.08863 -0.109652,0.15625 -0.517578,0.15625 H 8.7392582 a 1.3,1.3 0 0 0 -1.298828,1.300781 1.3,1.3 0 0 0 1.298828,1.298828 H 19.856445 c 0.987515,0 1.952912,-0.398744 2.535157,-1.115234 0.582244,-0.716491 0.771484,-1.598192 0.771484,-2.470703 V 6.1774503 c 0,-0.919068 -0.335873,-1.808936 -0.964844,-2.41211 -0.628971,-0.603173 -1.48631,-0.884765 -2.341797,-0.884765 z m 23.1445308,0 c -0.903022,0 -1.803985,0.27333 -2.429687,0.914062 -0.625702,0.640732 -0.865235,1.522206 -0.865235,2.382813 l -0.01953,13.4648437 a 1.30013,1.30013 0 0 0 0,0.002 c 0,0.861342 0.245249,1.719578 0.806641,2.408203 0.561392,0.688625 1.468223,1.14875 2.451171,1.177734 a 1.3,1.3 0 0 0 1.337891,-1.261719 1.3,1.3 0 0 0 -1.261719,-1.33789 c -0.305741,-0.009 -0.397188,-0.08022 -0.511718,-0.220703 -0.114531,-0.140488 -0.222657,-0.406817 -0.222657,-0.765625 l 0.01953,-13.4648437 a 1.30013,1.30013 0 0 0 0,-0.002 c 0,-0.410453 0.08855,-0.527084 0.126953,-0.566406 0.0384,-0.03932 0.135371,-0.128907 0.568359,-0.128907 H 43.00293 c 0.314423,0 0.459334,0.08182 0.541015,0.160157 0.08168,0.07833 0.164063,0.188964 0.164063,0.535156 V 19.644247 c 0,0.481558 -0.115475,0.741446 -0.1875,0.830078 -0.07203,0.08863 -0.109653,0.15625 -0.517578,0.15625 H 31.885742 a 1.3,1.3 0 0 0 -1.300781,1.300781 1.3,1.3 0 0 0 1.300781,1.298828 H 43.00293 c 0.987514,0 1.952912,-0.398744 2.535156,-1.115234 0.582244,-0.716491 0.771484,-1.598192 0.771484,-2.470703 V 6.1774503 c 0,-0.919068 -0.335872,-1.808936 -0.964843,-2.41211 -0.628971,-0.603173 -1.48631,-0.884765 -2.341797,-0.884765 z M 7.3779302,6.4333093 c -0.562623,0 -1.08766,0.163775 -1.449219,0.533203 -0.361559,0.369429 -0.509766,0.884463 -0.509766,1.419922 l -0.011718,9.1406247 c 0,0.530306 0.153136,1.049221 0.486328,1.457031 0.333192,0.407811 0.858894,0.67783 1.453125,0.695313 a 0.60000002,0.60000002 0 0 0 0.61914,-0.582031 0.60000002,0.60000002 0 0 0 -0.582031,-0.617188 c -0.282349,-0.0083 -0.433959,-0.100922 -0.560547,-0.255859 -0.126588,-0.154937 -0.214843,-0.399412 -0.214843,-0.697266 l 0.011718,-9.1386717 a 0.60006002,0.60006002 0 0 0 0,-0.002 c 0,-0.327231 0.075835,-0.487934 0.166016,-0.580078 0.090181,-0.09214 0.24564,-0.173828 0.591797,-0.173828 H 17.481445 c 0.273316,0 0.449174,0.07914 0.564454,0.189453 0.115279,0.110309 0.199218,0.267547 0.199218,0.564453 v 9.1406247 c 0,0.369114 -0.08683,0.613787 -0.191406,0.742188 -0.104572,0.1284 -0.231117,0.210937 -0.572266,0.210937 H 9.6904302 a 0.60000002,0.60000002 0 0 0 -0.59961,0.59961 0.60000002,0.60000002 0 0 0 0.59961,0.599609 h 7.7910148 c 0.608062,0 1.161478,-0.234284 1.501954,-0.652344 0.340475,-0.41806 0.46289,-0.950054 0.46289,-1.5 V 8.3863873 c 0,-0.561884 -0.202192,-1.079393 -0.570312,-1.43164 -0.368121,-0.35225 -0.872048,-0.521485 -1.394532,-0.521485 z m 23.1445308,0 c -0.562623,0 -1.085707,0.163775 -1.447266,0.533203 -0.361559,0.369429 -0.509765,0.884463 -0.509765,1.419922 l -0.01172,9.1406247 c 0,0.530306 0.151183,1.049221 0.484375,1.457031 0.333192,0.407811 0.860847,0.67783 1.455078,0.695313 a 0.60000002,0.60000002 0 0 0 0.617188,-0.582031 0.60000002,0.60000002 0 0 0 -0.582032,-0.617188 c -0.282349,-0.0083 -0.433959,-0.100922 -0.560547,-0.255859 -0.126587,-0.154937 -0.214843,-0.399412 -0.214843,-0.697266 l 0.01172,-9.1386717 a 0.60006002,0.60006002 0 0 0 0,-0.002 c 0,-0.327231 0.07779,-0.487934 0.167968,-0.580078 0.09018,-0.09214 0.243687,-0.173828 0.589844,-0.173828 h 10.103516 c 0.273316,0 0.451126,0.07914 0.566406,0.189453 0.11528,0.110309 0.199219,0.267547 0.199219,0.564453 v 9.1406247 c 0,0.369114 -0.08684,0.613787 -0.191407,0.742188 -0.104571,0.1284 -0.23307,0.210937 -0.574218,0.210937 h -7.789063 a 0.60000002,0.60000002 0 0 0 -0.599609,0.59961 0.60000002,0.60000002 0 0 0 0.599609,0.599609 h 7.789063 c 0.608061,0 1.16343,-0.234284 1.503906,-0.652344 0.340476,-0.41806 0.460937,-0.950054 0.460937,-1.5 V 8.3863873 c 0,-0.561884 -0.200239,-1.079393 -0.568359,-1.43164 -0.36812,-0.35225 -0.874,-0.521485 -1.396484,-0.521485 z M 8.9541022,24.769247 c -0.903022,0 -1.802033,0.27333 -2.427735,0.914062 -0.625702,0.640732 -0.867187,1.522205 -0.867187,2.382813 l -0.019531,13.464843 c 0,0.861342 0.247201,1.721532 0.808593,2.410157 0.561392,0.688625 1.46627,1.148749 2.449219,1.177734 a 1.3,1.3 0 0 0 1.3378908,-1.261719 1.3,1.3 0 0 0 -1.2597658,-1.33789 c -0.305741,-0.009 -0.399141,-0.08217 -0.513672,-0.222657 -0.114261,-0.140157 -0.22215,-0.406142 -0.222656,-0.763672 v -0.002 l 0.019531,-13.464843 c 0,-0.410453 0.088553,-0.527084 0.126953,-0.566407 0.038401,-0.03932 0.135371,-0.130859 0.56836,-0.130859 H 39.051758 c 0.314423,0 0.461287,0.08378 0.542969,0.162109 0.08168,0.07833 0.164062,0.188964 0.164062,0.535157 v 13.466796 c 0,0.481559 -0.117427,0.741446 -0.189453,0.830079 -0.07203,0.08863 -0.109653,0.15625 -0.517578,0.15625 H 12.69043 a 1.3,1.3 0 0 0 -1.300781,1.300781 1.3,1.3 0 0 0 1.300781,1.298828 h 26.361328 c 0.987514,0 1.952912,-0.398744 2.535156,-1.115234 0.582245,-0.716491 0.771485,-1.598191 0.771485,-2.470704 V 28.066122 c 0,-0.919068 -0.335873,-1.808936 -0.964844,-2.41211 -0.628971,-0.603174 -1.48631,-0.884765 -2.341797,-0.884765 z m 2.3730468,3.550781 c -0.562624,0 -1.085707,0.165727 -1.4472658,0.535156 -0.361559,0.369429 -0.509766,0.884463 -0.509766,1.419922 l -0.011718,9.140625 c 0,0.530306 0.151182,1.049221 0.484374,1.457031 0.3331928,0.407811 0.8608478,0.67783 1.4550788,0.695313 a 0.60000002,0.60000002 0 0 0 0.617187,-0.582031 0.60000002,0.60000002 0 0 0 -0.582031,-0.617188 c -0.282349,-0.0083 -0.433959,-0.100922 -0.560547,-0.255859 -0.126588,-0.154938 -0.214844,-0.399412 -0.214844,-0.697266 l 0.01172,-9.138672 a 0.60006002,0.60006002 0 0 0 0,-0.002 c 0,-0.327231 0.07779,-0.487934 0.167969,-0.580078 0.09018,-0.09214 0.243687,-0.173828 0.589844,-0.173828 h 25.349609 c 0.273316,0 0.449173,0.07719 0.564453,0.1875 0.11528,0.110309 0.199219,0.2695 0.199219,0.566406 v 9.140625 c 0,0.369114 -0.08684,0.613788 -0.191407,0.742187 -0.10457,0.128401 -0.231116,0.210938 -0.572265,0.210938 H 13.641602 a 0.60000002,0.60000002 0 0 0 -0.59961,0.599609 0.60000002,0.60000002 0 0 0 0.59961,0.59961 h 23.035156 c 0.608061,0 1.161477,-0.234284 1.501953,-0.652344 0.340476,-0.41806 0.460938,-0.950054 0.460938,-1.5 v -9.140578 c 0,-0.561884 -0.20024,-1.079392 -0.56836,-1.431641 -0.36812,-0.352248 -0.872047,-0.523437 -1.394531,-0.523437 z" fill="#008055"/>
</svg>
