<svg xmlns="http://www.w3.org/2000/svg" width="48" height="48">
	<path d="m 8.6279296,4.1093749 c -1.7204098,0 -3.3942563,0.3729518 -4.7226562,1.4472656 -1.3284002,1.0743136 -2.078125,2.8386506 -2.078125,4.7441405 v 19.541016 c 0,1.807671 0.7813746,3.491686 2.0625,4.576172 1.2811251,1.084485 2.9615555,1.59375 4.7382812,1.59375 l 12.6289064,-0.002 v 1.710938 c 0,1.03212 -0.238203,1.454227 -0.488281,1.697266 -0.250078,0.243037 -0.711786,0.472656 -1.701172,0.472656 H 10.90918 a 2,2 0 0 0 -2.0000004,2 2,2 0 0 0 2.0000004,2 h 8.158203 c 1.678604,0 3.312855,-0.461233 4.490234,-1.605469 1.17738,-1.144236 1.699219,-2.805713 1.699219,-4.564453 v -3.710938 a 2.0002,2.0002 0 0 0 -2,-2 l -14.6289064,0.002 c -1.0145643,0 -1.7326846,-0.289586 -2.1542969,-0.646485 C 6.0520205,31.008335 5.8271484,30.608545 5.8271484,29.841797 V 10.300781 c 0,-1.0094999 0.2302119,-1.3403899 0.5917968,-1.6328119 0.3615849,-0.292425 1.0871542,-0.558594 2.2089844,-0.558594 H 39.985352 c 0.889363,0 1.339955,0.246203 1.650391,0.568359 0.310434,0.322156 0.537109,0.819312 0.537109,1.6230469 v 19.541016 c 0,1.03212 -0.23625,1.454227 -0.486328,1.697265 -0.250079,0.243039 -0.711786,0.472657 -1.701172,0.472657 H 28.715821 a 2,2 0 0 0 -2,2 2,2 0 0 0 2,2 h 11.269531 c 1.678604,0 3.310902,-0.461233 4.488281,-1.605469 1.177379,-1.144237 1.699219,-2.805714 1.699219,-4.564453 V 10.300781 c 0,-1.6401549 -0.538136,-3.2360809 -1.658203,-4.3984374 C 43.394581,4.739987 41.751819,4.1093749 39.985352,4.1093749 Z M 23.81543,8.7910151 c -1.475181,0.104524 -2.879392,0.938028 -3.673828,2.3496099 -1.188144,2.111135 -0.571938,4.788538 1.285156,6.230468 a 1.5299922,1.4706001 85.003955 0 0 0.347656,0.326172 c 0.0029,0.0018 0.003,0.0041 0.0059,0.0059 a 1.5299922,1.4706001 85.003955 0 0 0.03906,0.02344 1.5299922,1.4706001 85.003955 0 0 0.02734,0.01758 c 0.0026,0.0015 0.0072,4.3e-4 0.0098,0.002 a 1.5299922,1.4706001 85.003955 0 1 0.002,0.002 1.5299922,1.4706001 85.003955 0 0 0.435547,0.146484 c 2.123872,0.967457 4.655708,0.201217 5.828125,-1.921875 1.253208,-2.269394 0.498818,-5.226731 -1.689454,-6.5488279 -0.820716,-0.495925 -1.732193,-0.695665 -2.617302,-0.632951 z m 0.201172,3.0371099 c 0.319138,-0.02138 0.649655,0.05416 0.951172,0.236328 0.804045,0.485784 1.072658,1.518002 0.601562,2.371094 -0.471095,0.853091 -1.471393,1.131242 -2.279297,0.652343 a 1.5299922,1.4706001 85.003955 0 1 -0.002,0 1.5299922,1.4706001 85.003955 0 0 -0.02148,-0.01367 c -0.800136,-0.492638 -1.061837,-1.523983 -0.583985,-2.373047 0.298658,-0.530666 0.802088,-0.837409 1.333985,-0.873047 z m -0.208985,6.824218 c -1.890564,0 -3.711609,0.387959 -5.169921,1.441407 -1.458313,1.053448 -2.406398,2.858042 -2.396485,4.960937 v 2.367188 c 0,1.065369 0.470723,2.151698 1.277344,2.779297 0.806621,0.627598 1.762767,0.814453 2.695312,0.814453 a 1.6,1.6 0 0 0 1.59961,-1.601563 1.6,1.6 0 0 0 -1.59961,-1.599609 c -0.471833,0 -0.702052,-0.116562 -0.730468,-0.138672 -0.02842,-0.02211 -0.04102,0.06641 -0.04102,-0.253906 v -2.373047 a 1.60016,1.60016 0 0 0 0,-0.0078 c -0.0059,-1.254944 0.369528,-1.848697 1.06836,-2.353515 0.698831,-0.504819 1.868316,-0.833985 3.296874,-0.833985 1.584112,0 2.860324,0.351243 3.619141,0.876954 0.758817,0.52571 1.132813,1.116014 1.132813,2.318359 v 2.373047 c 0,0.23313 -0.05132,0.277924 -0.07422,0.300781 -0.02289,0.02286 -0.07788,0.0918 -0.396485,0.0918 H 23.81543 a 1.6,1.6 0 0 0 -1.601563,1.599609 1.6,1.6 0 0 0 1.601563,1.601563 h 4.273437 c 0.993664,0 1.974272,-0.346468 2.658204,-1.029297 0.683932,-0.68283 1.011718,-1.635816 1.011718,-2.564453 v -2.373047 c 0,-2.089967 -0.995716,-3.900282 -2.509765,-4.949219 -1.51405,-1.048937 -3.413414,-1.447266 -5.441407,-1.447266 z m 4.265626,21.238282 a 2,2 0 0 0 -2,2 2,2 0 0 0 2,2 h 7.140624 a 2,2 0 0 0 2,-2 2,2 0 0 0 -2,-2 z" fill="#008055"/>
</svg>
