<svg xmlns="http://www.w3.org/2000/svg" width="48" height="48">
	<path d="m 8.6279295,4.1103515 c -1.7204144,0 -3.3942612,0.372966 -4.7226562,1.447266 -1.328395,1.0743 -2.078125,2.838682 -2.078125,4.7441405 V 29.84082 c 0,1.807666 0.78138,3.491679 2.0625,4.576172 1.28112,1.084493 2.961546,1.59375 4.7382812,1.59375 H 21.256836 v 1.708984 c 0,1.032146 -0.238206,1.45423 -0.488281,1.697266 -0.250075,0.243035 -0.711781,0.472656 -1.701172,0.472656 H 10.90918 a 2,2 0 0 0 -2.0000005,2 2,2 0 0 0 2.0000005,2 h 8.158203 c 1.678599,0 3.312852,-0.459276 4.490234,-1.603516 1.177383,-1.144238 1.699219,-2.807651 1.699219,-4.566406 v -3.708984 a 2.0002,2.0002 0 0 0 -2,-2 H 8.6279295 c -1.0145548,0 -1.7326794,-0.289578 -2.1542968,-0.646484 C 6.0520152,31.00735 5.8271483,30.607554 5.8271483,29.84082 V 10.301758 c 0,-1.0094415 0.2302069,-1.3423405 0.5917969,-1.6347655 0.3615899,-0.292425 1.0871588,-0.556641 2.2089843,-0.556641 H 39.985352 c 0.889357,0 1.339952,0.24425 1.65039,0.566407 0.310439,0.322155 0.53711,0.821325 0.53711,1.6249995 V 29.84082 c 0,1.032082 -0.236237,1.45421 -0.486328,1.697266 -0.250093,0.243056 -0.711806,0.472656 -1.701172,0.472656 H 28.71582 a 2,2 0 0 0 -2,2 2,2 0 0 0 2,2 h 11.269532 c 1.678624,0 3.310915,-0.459272 4.488281,-1.603516 1.177366,-1.144244 1.699219,-2.807688 1.699219,-4.566406 V 10.301758 c 0,-1.6401255 -0.53814,-3.2380475 -1.658204,-4.4003905 -1.120063,-1.162343 -2.762824,-1.791016 -4.529296,-1.791016 z m 8.0234375,7.4160155 c -0.705985,0 -1.489545,0.0603 -2.15625,0.65625 -0.666705,0.595945 -0.837891,1.465285 -0.837891,2.302734 v 2.707031 c 0,0.745441 0.262114,1.639775 0.949219,2.111329 0.687106,0.471553 1.319695,0.445312 1.919922,0.445312 h 13.650391 a 1.3,1.3 0 0 0 1.298828,-1.298828 1.3,1.3 0 0 0 -1.298828,-1.300781 H 16.526367 c -0.280232,0 -0.21766,0.01149 -0.269531,0.0059 v -2.669922 c 0,-0.203179 0.01433,-0.271199 0.02344,-0.330078 0.07084,-0.01227 0.167451,-0.0293 0.371094,-0.0293 h 14.919922 c 0.10299,0 0.127374,0.009 0.169922,0.01563 0.0013,0.02533 0.002,0.01599 0.002,0.06055 v 11.896484 c 0,0.05339 -3.26e-4,0.04266 -0.002,0.07422 -0.04457,0.0052 -0.05629,0.01172 -0.146484,0.01172 H 16.416992 c -0.09522,0 -0.105474,-0.0077 -0.160156,-0.01367 -3.44e-4,-0.01878 0,-0.0067 0,-0.0293 v -4.871093 a 1.3,1.3 0 0 0 -1.298828,-1.300782 1.3,1.3 0 0 0 -1.300782,1.300782 v 4.871093 c 0,0.684293 0.152312,1.482359 0.769532,2.03125 0.617219,0.548892 1.333838,0.613281 1.990234,0.613281 h 15.177735 c 0.667976,0 1.406065,-0.125749 1.988281,-0.669921 0.582216,-0.544173 0.759766,-1.324061 0.759766,-2.017579 V 14.202148 c 0,-0.673352 -0.192904,-1.440076 -0.757813,-1.976562 -0.564909,-0.536486 -1.310829,-0.699219 -2.013672,-0.699219 z m 1.130859,3.164062 a 1,1 0 0 0 -1,1 1,1 0 0 0 1,1 h 0.519532 a 1,1 0 0 0 1,-1 1,1 0 0 0 -1,-1 z m 6.595704,0 a 1,1 0 0 0 -1,1 1,1 0 0 0 1,1 h 0.517578 a 1,1 0 0 0 1,-1 1,1 0 0 0 -1,-1 z m 2.640625,0 a 1,1 0 0 0 -1,1 1,1 0 0 0 1,1 h 0.519531 a 1,1 0 0 0 1,-1 1,1 0 0 0 -1,-1 z m 2.601562,0 a 1,1 0 0 0 -1,1 1,1 0 0 0 1,1 h 0.517578 a 1,1 0 0 0 1,-1 1,1 0 0 0 -1,-1 z m -1.546875,25.199219 a 2,2 0 0 0 -2,2 2,2 0 0 0 2,2 h 7.140625 a 2,2 0 0 0 2,-2 2,2 0 0 0 -2,-2 z" fill="#008055"/>
</svg>
