<svg xmlns="http://www.w3.org/2000/svg" width="48" height="48">
	<path d="m 22.966797,3.149414 c -1.690485,0 -3.319552,0.3671166 -4.59961,1.4023439 -1.280057,1.035227 -2.001953,2.727198 -2.001953,4.5878901 V 25.15918 c 0,1.755651 0.752077,3.375722 1.990235,4.423828 1.238157,1.048106 2.872723,1.546875 4.611328,1.546875 a 1.8,1.8 0 0 0 1.798828,-1.800781 1.8,1.8 0 0 0 -1.798828,-1.800782 c -1.052686,0 -1.820577,-0.30009 -2.285157,-0.693359 -0.464579,-0.393269 -0.716796,-0.856932 -0.716796,-1.675781 V 9.139648 c 0,-1.054305 0.256087,-1.4575391 0.666015,-1.789062 0.409928,-0.3315231 1.184183,-0.601562 2.335938,-0.601562 h 16.96289 c 0.933214,0 1.444003,0.264734 1.794922,0.628906 0.350919,0.364171 0.59375,0.916157 0.59375,1.761718 V 25.15918 c 0,1.068476 -0.252388,1.551748 -0.548828,1.839844 -0.29644,0.288094 -0.815992,0.529296 -1.839844,0.529296 H 28.542969 a 1.8,1.8 0 0 0 -1.800782,1.800782 1.8,1.8 0 0 0 1.800782,1.800781 h 11.386718 c 1.644139,0 3.218593,-0.449649 4.34961,-1.548828 1.131017,-1.09918 1.638672,-2.699451 1.638672,-4.421875 V 9.139648 c 0,-1.5983361 -0.52198,-3.1394121 -1.601563,-4.2597651 C 43.236823,3.7595293 41.652304,3.149414 39.929687,3.149414 Z m 3.611328,5.7460939 a 1.50015,1.50015 0 0 0 -1.5,1.5000001 v 13.9375 a 1.50015,1.50015 0 0 0 1.5,1.5 l 6.669922,0.002 c 1.743551,6.2e-5 3.172181,-0.636831 4.037109,-1.630859 0.863921,-0.992871 1.148791,-2.196966 1.134766,-3.242188 -0.0075,-2.001681 -1.360141,-3.321555 -2.664063,-4.074219 1.031331,-0.768817 1.998047,-1.920658 1.998047,-3.607421 0,-1.453259 -0.798918,-2.699191 -1.802734,-3.398438 C 34.947356,9.182636 33.772837,8.895555 32.628906,8.895555 Z m 1.5,3.0000001 h 4.550781 c 0.59689,0 1.234458,0.189416 1.607422,0.449219 0.372964,0.259802 0.517578,0.457205 0.517578,0.935547 0,0.907403 -0.319069,1.133403 -1.021484,1.501953 -0.702415,0.368549 -1.599396,0.516537 -2.44336,0.804687 a 1.50015,1.50015 0 0 0 0.06055,2.859375 c 0.791792,0.232936 1.856643,0.425649 2.748047,0.869141 0.891404,0.443491 1.324219,0.800093 1.324219,1.662109 a 1.50015,1.50015 0 0 0 0,0.02148 c 0.0064,0.454231 -0.129681,0.925504 -0.398438,1.234374 -0.268756,0.308872 -0.687162,0.601601 -1.77539,0.601563 H 28.078125 Z M 8.0722654,16.793945 c -1.5983156,0 -3.1393997,0.523942 -4.2597655,1.603516 C 2.692134,19.477035 2.082031,21.061539 2.082031,22.78418 v 15.466797 c 0,1.690468 0.3671098,3.317617 1.4023439,4.597656 1.035234,1.280039 2.727207,2.001953 4.5878905,2.001953 H 25.595703 c 1.755644,0 3.375718,-0.752081 4.423828,-1.990234 1.04811,-1.238153 1.546875,-2.870767 1.546875,-4.609375 v -3.929688 a 1.8,1.8 0 0 0 -1.800781,-1.800781 1.8,1.8 0 0 0 -1.800781,1.800781 v 3.929688 c 0,1.052691 -0.300095,1.818631 -0.69336,2.283203 -0.393265,0.464572 -0.856925,0.716797 -1.675781,0.716797 H 8.0722654 c -1.0543165,0 -1.4575465,-0.256105 -1.7890625,-0.666016 C 5.951687,40.17505 5.6816404,39.402708 5.6816404,38.250977 V 22.78418 c 0,-0.933259 0.2647471,-1.444022 0.6289063,-1.794922 0.3641591,-0.350901 0.9161343,-0.59375 1.7617187,-0.59375 H 13.46289 a 1.8,1.8 0 0 0 1.800782,-1.800781 1.8,1.8 0 0 0 -1.800782,-1.800782 z m 5.6445316,11.56836 a 1.5,1.5 0 0 0 -1.28125,0.71289 L 7.2675779,37.452148 A 1.5,1.5 0 0 0 7.7558591,39.516602 1.5,1.5 0 0 0 9.8203124,39.02832 L 11.83789,35.756836 h 9.720704 l 2.179687,3.308594 a 1.5,1.5 0 0 0 2.078125,0.427734 1.5,1.5 0 0 0 0.427734,-2.078125 L 23.601562,33.40332 a 1.5,1.5 0 0 0 -1.21289,-0.673828 1.5,1.5 0 0 0 -0.373047,0.03711 1.5,1.5 0 0 0 -0.173828,-0.0098 H 13.6875 L 14.988281,30.64938 A 1.5,1.5 0 0 0 14.5,28.584961 1.5,1.5 0 0 0 13.716797,28.362305 Z" fill="#008055"/>
</svg>
