<svg xmlns="http://www.w3.org/2000/svg" width="48" height="48">
	<path d="m 23.989258,1.2304686 c -1.957084,5.192e-4 -3.913765,0.3563754 -5.56836,1.2285157 -1.654595,0.8721401 -3.111328,2.532162 -3.111328,4.6503906 v 5.1113281 a 1.8,1.8 0 0 0 1.800782,1.800781 1.8,1.8 0 0 0 1.798827,-1.800781 V 7.1093749 c 0,-0.5992215 0.264158,-0.9790715 1.189453,-1.4667969 0.925298,-0.4877254 2.407854,-0.8121067 3.890626,-0.8125 1.48277,-3.933e-4 2.9658,0.3232337 3.890624,0.8105469 0.924825,0.4873132 1.189454,0.8666848 1.189454,1.46875 V 19.095703 c 0,1.391581 -0.329038,2.057045 -0.947266,2.564453 -0.618228,0.507407 -1.796581,0.917968 -3.728516,0.917968 h -1.474609 c -2.824705,0 -5.04349,0.846005 -6.255859,2.574219 -1.212369,1.728214 -1.332031,3.777736 -1.332031,5.976563 v 9.761718 c 0,2.119024 1.456265,3.782218 3.111327,4.654297 1.655065,0.872079 3.611282,1.225129 5.56836,1.22461 1.957078,-5.2e-4 3.91572,-0.356393 5.570312,-1.228516 1.654592,-0.872123 3.109375,-2.532174 3.109375,-4.650391 v -4.763671 a 1.8,1.8 0 0 0 -1.798828,-1.798829 1.8,1.8 0 0 0 -1.800781,1.798829 v 4.763671 c 0,0.599183 -0.264156,0.97908 -1.189453,1.466797 -0.925298,0.487718 -2.407851,0.812107 -3.890625,0.8125 -1.482775,3.94e-4 -2.965799,-0.323241 -3.890625,-0.810547 -0.924826,-0.487305 -1.189453,-0.866723 -1.189453,-1.46875 v -9.761718 c 0,-1.983274 0.257157,-3.307846 0.679687,-3.910157 0.422531,-0.602311 1.096139,-1.041015 3.308594,-1.041015 h 1.474609 c 2.420936,0 4.480495,-0.477632 6.011719,-1.734375 1.531224,-1.256743 2.263672,-3.230238 2.263672,-5.347656 V 7.1093749 c 0,-2.1190348 -1.456261,-3.7822008 -3.111328,-4.6542969 C 27.90255,1.5829818 25.946341,1.2299495 23.989258,1.2304686 Z m -2.222657,5.2050781 a 1.7039176,1.7039176 0 0 0 -1.705078,1.7050782 1.7039176,1.7039176 0 0 0 1.705078,1.703125 1.7039176,1.7039176 0 0 0 1.703125,-1.703125 1.7039176,1.7039176 0 0 0 -1.703125,-1.7050782 z m 3.707031,5.0097653 a 1.8,1.8 0 0 0 -1.798828,1.800782 v 1.263671 c 0,0.313464 -0.04246,0.321678 -0.144531,0.40625 -0.102073,0.08457 -0.36731,0.210938 -0.796875,0.210938 H 8.6162109 c -2.2114934,-0.0242 -3.9925782,1.417808 -4.9277344,3.126953 -0.9351561,1.709144 -1.2988849,3.74156 -1.2792968,5.767578 0.019588,2.026017 0.4253974,4.050624 1.359375,5.748047 0.9339776,1.697422 2.6507146,3.160156 4.828125,3.160156 h 3.5722653 a 1.8,1.8 0 0 0 1.800782,-1.800781 1.8,1.8 0 0 0 -1.800782,-1.798829 H 8.5966797 c -0.6785396,0 -1.1368182,-0.320906 -1.6738281,-1.296874 C 6.3858417,27.057234 6.023611,25.519372 6.0087891,23.986327 5.9939671,22.453283 6.3280534,20.930292 6.8466797,19.982421 7.365306,19.03455 7.7950519,18.718006 8.5771484,18.726562 a 1.80018,1.80018 0 0 0 0.019531,0 H 22.733398 c 1.101874,0 2.207712,-0.304935 3.09375,-1.039063 0.886038,-0.734127 1.447266,-1.932398 1.447266,-3.177734 v -1.263671 a 1.8,1.8 0 0 0 -1.800782,-1.800782 z m 10.335938,3.625 a 1.8,1.8 0 0 0 -1.800781,1.800781 1.8,1.8 0 0 0 1.800781,1.798828 h 3.59375 c 0.678513,0 1.138764,0.320863 1.675781,1.296875 0.537018,0.976012 0.897288,2.513795 0.91211,4.046875 0.01482,1.533081 -0.319278,3.056077 -0.837891,4.003906 -0.518613,0.947831 -0.948398,1.264481 -1.730469,1.25586 a 1.80018,1.80018 0 0 0 -0.01953,0 H 25.416992 c -1.077311,0 -2.144362,0.294466 -3.054688,0.966797 -0.910325,0.67233 -1.636718,1.852989 -1.636718,3.18164 v 1.332032 a 1.8,1.8 0 0 0 1.800781,1.800781 1.8,1.8 0 0 0 1.798828,-1.800781 v -1.332032 c 0,-0.162849 0.0013,-0.156261 0.175781,-0.285156 0.174522,-0.128894 0.55193,-0.263672 0.916016,-0.263672 h 13.966797 c 2.211514,0.02438 3.992565,-1.417814 4.927734,-3.126953 0.935169,-1.709138 1.298884,-3.741534 1.279297,-5.767578 -0.01959,-2.026044 -0.423454,-4.05059 -1.357422,-5.748047 -0.933968,-1.697457 -2.652641,-3.160156 -4.830078,-3.160156 z m -9.785156,23.066406 a 1.7039176,1.7039176 0 0 0 -1.705078,1.705078 1.7039176,1.7039176 0 0 0 1.705078,1.703125 1.7039176,1.7039176 0 0 0 1.703125,-1.703125 1.7039176,1.7039176 0 0 0 -1.703125,-1.705078 z" fill="#008055"/>
</svg>
