<svg xmlns="http://www.w3.org/2000/svg" width="48" height="48">
	<path d="m 21.265356,1.4866967 c -2.530417,0.049007 -5.201943,0.6743173 -7.765625,1.9003906 a 1.80018,1.80018 0 0 0 -0.02344,0.011719 c -3.204317,1.5910165 -4.7784296,5.1800488 -5.5195306,9.0703127 -0.7411007,3.890263 -0.6213527,8.269141 0.25,12.085937 a 1.80018,1.80018 0 0 0 0.00977,0.04297 c 0.378135,1.488731 1.096482,2.881619 2.1835926,4.083984 a 1.80018,1.80018 0 0 0 0.06055,0.06445 c 3.67965,3.686159 6.110878,7.086126 7.632813,12.550782 a 1.8,1.8 0 0 0 2.216797,1.251953 1.8,1.8 0 0 0 1.251953,-2.21875 C 19.879696,34.289144 16.95725,30.174698 13.070043,26.267947 l -0.0059,-0.0078 C 12.361105,25.480387 11.962775,24.70084 11.71258,23.723038 10.968177,20.441396 10.864171,16.448232 11.49383,13.14296 12.124525,9.8322578 13.516432,7.4042538 15.071956,6.6273348 18.27641,5.0995783 21.673242,4.7707539 24.261409,5.383194 c 2.592929,0.6135673 4.24843,1.9912758 4.748047,4.0449218 0.453958,1.9578132 1.675061,3.6982772 3.55664,4.3144532 l -0.115234,-0.04102 c 0.108535,0.04383 0.136618,0.09258 0.240234,0.136718 -1.475021,-0.09498 -2.911815,-0.211838 -5.097656,0.01172 a 1.80018,1.80018 0 0 0 -0.0293,0.0039 c -3.943588,0.467693 -6.544718,1.668309 -7.925781,3.722657 -1.381064,2.054347 -1.248907,4.449476 -0.865235,6.640625 a 1.80018,1.80018 0 0 0 0.0098,0.04688 c 1.396387,6.894712 2.760335,10.796569 3.603516,13.519531 0.84318,2.722962 1.161246,4.046772 0.75,6.654297 a 1.8,1.8 0 0 0 1.498047,2.05664 1.8,1.8 0 0 0 2.058593,-1.496093 c 0.498203,-3.158876 0.01008,-5.43996 -0.86914,-8.279297 -0.876773,-2.831444 -2.149277,-6.449326 -3.503907,-13.123047 -3.98e-4,-0.0023 3.97e-4,-0.0036 0,-0.0059 -0.324978,-1.860005 -0.26209,-3.159865 0.306641,-4.005859 0.568238,-0.845261 1.93961,-1.745309 5.345703,-2.152344 5.343056,-0.544275 7.179968,0.22912 10.496094,0.71875 a 1.80018,1.80018 0 0 0 1.779297,-2.75 c -1.092865,-1.708722 -2.998917,-3.645805 -6.449219,-5.039062 a 1.80018,1.80018 0 0 0 -0.113281,-0.04102 C 33.171799,10.152495 32.780621,9.7712838 32.513393,8.6018948 a 1.80018,1.80018 0 0 0 -0.0059,-0.02344 C 31.645799,5.0363395 28.620263,2.7162357 25.091528,1.8812279 24.209344,1.672476 23.286366,1.5443075 22.339575,1.5003686 21.984528,1.4838914 21.626844,1.4796957 21.265356,1.4866967 Z m 2.552734,4.8984375 a 2.155549,2.155549 0 0 0 -2.103515,2.1542966 2.155549,2.155549 0 0 0 2.15625,2.1562502 2.155549,2.155549 0 0 0 2.154296,-2.1562502 2.155549,2.155549 0 0 0 -2.154296,-2.1542966 2.155549,2.155549 0 0 0 -0.05273,0 z" fill="#008055"/>
</svg>
