<svg xmlns="http://www.w3.org/2000/svg" width="48" height="48">
	<path d="m 24.320338,1.5945657 c -1.821105,-0.038051 -3.64017,0.1409429 -5.275391,0.5078125 a 1.80018,1.80018 0 0 0 -0.01367,0.00195 c -0.926747,0.215933 -1.952114,0.6485799 -2.511721,1.7109407 -0.559607,1.0623605 -0.318252,2.2264982 0.105469,3.1464842 l 2.554688,6.1015629 c 0.270181,0.659318 0.559014,1.476564 1.447265,2.128906 0.893205,0.65598 2.032033,0.729337 3.160156,0.566406 l -0.109374,0.01367 c 0.55754,-0.0457 0.737507,-0.0037 1.24414,0.07031 a 1.8,1.8 0 0 0 2.041016,-1.521485 1.8,1.8 0 0 0 -1.521485,-2.041015 c -0.465106,-0.06797 -1.152074,-0.170005 -2.058593,-0.0957 a 1.80018,1.80018 0 0 0 -0.109375,0.01172 c -0.308566,0.04456 -0.427839,0.04356 -0.501953,0.04297 -0.04978,-0.09051 -0.145387,-0.261858 -0.265626,-0.554688 a 1.80018,1.80018 0 0 0 -0.0059,-0.01172 L 19.95901,5.6023781 c 2.581277,-0.554802 6.168929,-0.508618 8.617187,0.228516 A 1.8,1.8 0 0 0 30.820338,4.6258157 1.8,1.8 0 0 0 29.61526,2.3836282 C 27.965785,1.886996 26.141442,1.6326171 24.320338,1.5945657 Z m 9.5,2.7109375 c -0.270822,0.00248 -0.551162,0.041983 -0.837891,0.1308594 -1.146917,0.3555046 -1.797525,1.3506345 -2.148437,2.3007815 l -2.507813,6.1210929 c -0.275175,0.657378 -0.649295,1.437649 -0.482422,2.527344 0.167752,1.09543 0.921081,1.954225 1.833985,2.636719 l -0.08789,-0.06836 c 0.426595,0.361963 0.524312,0.517239 0.830078,0.927734 a 1.8,1.8 0 0 0 2.519531,0.369141 1.8,1.8 0 0 0 0.369141,-2.519532 c -0.280894,-0.377104 -0.695167,-0.935001 -1.388672,-1.523437 a 1.80018,1.80018 0 0 0 -0.08594,-0.06836 c -0.252104,-0.188474 -0.337302,-0.275823 -0.388672,-0.328124 0.02889,-0.09975 0.08537,-0.286932 0.207031,-0.578126 a 1.80018,1.80018 0 0 0 0.0039,-0.01172 l 2.494141,-6.0878909 c 2.217692,1.432838 4.723495,4.0032449 5.933594,6.2558589 a 1.8,1.8 0 0 0 2.4375,0.732422 1.8,1.8 0 0 0 0.734374,-2.4375 C 41.625488,9.6494131 38.813859,6.8062501 35.982439,5.0125311 a 1.80018,1.80018 0 0 0 -0.01367,-0.00781 C 35.564782,4.7533881 35.105695,4.5226312 34.603541,4.3992532 34.352463,4.3375642 34.091159,4.3030227 33.820338,4.3055032 Z M 13.558619,4.5301126 A 1.8,1.8 0 0 0 12.685572,4.7449563 C 9.6506114,6.3754231 6.8054073,9.1868461 5.0117441,12.018394 a 1.80018,1.80018 0 0 0 -0.00781,0.01172 c -0.5026869,0.80796 -0.9219234,1.839402 -0.5664063,2.986328 0.3555171,1.146925 1.350651,1.799461 2.3007813,2.15039 l 6.1191409,2.507813 c 0.657374,0.27519 1.439573,0.64928 2.529297,0.482422 1.095454,-0.167736 1.952314,-0.921095 2.634766,-1.833985 l -0.06836,0.08594 c 0.362113,-0.426702 0.519064,-0.524129 0.929688,-0.830078 a 1.8,1.8 0 0 0 0.367187,-2.519532 1.8,1.8 0 0 0 -2.517578,-0.367187 c -0.376936,0.28085 -0.934912,0.695173 -1.523437,1.388672 a 1.80018,1.80018 0 0 0 -0.07031,0.08594 c -0.187443,0.250736 -0.27392,0.334903 -0.326172,0.386719 -0.09984,-0.02891 -0.287231,-0.08353 -0.578125,-0.205078 a 1.80018,1.80018 0 0 0 -0.01172,-0.0059 L 8.1328378,13.848472 C 9.5655558,11.630808 12.135952,9.1251161 14.388697,7.9148781 a 1.8,1.8 0 0 0 0.734375,-2.4375 1.8,1.8 0 0 0 -1.564453,-0.9472655 z m 29.40625,11.6660154 c -0.13628,-0.0056 -0.27157,-0.0031 -0.40625,0.0078 -0.538721,0.04371 -1.059544,0.21001 -1.519531,0.421875 l -6.089844,2.548828 c -0.661158,0.271495 -1.484631,0.557981 -2.140625,1.451172 -0.655994,0.89319 -0.72933,2.033996 -0.566406,3.162109 l -0.01367,-0.111328 c 0.04573,0.557748 0.0038,0.737865 -0.07031,1.24414 a 1.8,1.8 0 0 0 1.521485,2.041016 1.8,1.8 0 0 0 2.041015,-1.519531 c 0.06812,-0.465525 0.170017,-1.152142 0.0957,-2.058594 a 1.80018,1.80018 0 0 0 -0.01172,-0.111328 c -0.04474,-0.309762 -0.04318,-0.430189 -0.04297,-0.503906 0.09132,-0.04996 0.263068,-0.143922 0.554687,-0.263672 a 1.80018,1.80018 0 0 0 0.01172,-0.0039 l 6.070313,-2.542969 c 0.555195,2.581274 0.508745,6.170328 -0.228516,8.61914 a 1.8,1.8 0 0 0 1.205078,2.242188 1.8,1.8 0 0 0 2.242188,-1.205078 c 0.993202,-3.298921 1.015012,-7.297966 0.28125,-10.56836 a 1.80018,1.80018 0 0 0 -0.0039,-0.01367 c -0.215888,-0.926807 -0.646583,-1.954044 -1.708984,-2.513672 -0.3984,-0.209861 -0.811865,-0.305554 -1.220703,-0.322266 z M 4.0683847,17.104331 a 1.8,1.8 0 0 0 -1.6855469,1.28125 c -0.993153,3.298948 -1.0151791,7.297806 -0.28125,10.56836 a 1.80018,1.80018 0 0 0 0.00391,0.01563 c 0.2158628,0.926773 0.6465849,1.952109 1.7089844,2.511718 1.0623994,0.55961 2.2265121,0.316305 3.1464843,-0.107421 l -0.056641,0.02539 6.1464845,-2.574219 c 0.661168,-0.271497 1.484632,-0.557994 2.140624,-1.451171 0.655993,-0.893179 0.729332,-2.034045 0.566407,-3.16211 l 0.01367,0.111328 c -0.0457,-0.557793 -0.0037,-0.737482 0.07031,-1.24414 a 1.8,1.8 0 0 0 -1.521484,-2.041016 1.8,1.8 0 0 0 -2.041016,1.519531 c -0.06797,0.465142 -0.169982,1.151987 -0.0957,2.058594 a 1.80018,1.80018 0 0 0 0.01172,0.111328 c 0.04474,0.309739 0.04318,0.430183 0.04297,0.503906 -0.09133,0.04996 -0.263068,0.143924 -0.554688,0.263672 a 1.80018,1.80018 0 0 0 -0.01172,0.0059 l -6.068362,2.54097 C 5.0486233,25.460639 5.0929931,21.871144 5.8301034,19.422691 A 1.8,1.8 0 0 0 4.6250253,17.180503 1.8,1.8 0 0 0 4.0683847,17.104331 Z M 33.378931,27.809409 c -0.238045,-0.01638 -0.491763,-0.0087 -0.765625,0.0332 -1.095447,0.167729 -1.952278,0.921102 -2.634765,1.833984 l 0.06836,-0.08594 c -0.361991,0.42663 -0.519053,0.524128 -0.929687,0.830078 a 1.8,1.8 0 0 0 -0.367188,2.519532 1.8,1.8 0 0 0 2.519531,0.367187 c 0.376946,-0.280849 0.934949,-0.695101 1.523438,-1.388672 a 1.80018,1.80018 0 0 0 0.06836,-0.08594 c 0.187458,-0.25074 0.273926,-0.334904 0.326172,-0.386719 0.09984,0.02891 0.287232,0.08353 0.578125,0.205078 a 1.80018,1.80018 0 0 0 0.01172,0.0059 l 6.089844,2.49414 c -1.432829,2.217718 -4.003242,4.723482 -6.25586,5.933594 a 1.8,1.8 0 0 0 -0.734375,2.4375 1.8,1.8 0 0 0 2.4375,0.732422 c 3.03497,-1.630394 5.880099,-4.441944 7.673828,-7.273438 a 1.80018,1.80018 0 0 0 0.0078,-0.01172 c 0.502671,-0.807968 0.921942,-1.839421 0.566406,-2.986329 -0.355536,-1.146906 -1.3487,-1.797508 -2.298828,-2.148437 l 0.05859,0.02148 -6.167969,-2.52539 c -0.494619,-0.206703 -1.061241,-0.472354 -1.775377,-0.52151 z m -17.259765,0.583985 a 1.8,1.8 0 0 0 -1.058594,0.355469 1.8,1.8 0 0 0 -0.367188,2.519531 c 0.280856,0.376962 0.693197,0.934915 1.386719,1.523437 a 1.80018,1.80018 0 0 0 0.08789,0.07031 c 0.250742,0.187458 0.334904,0.273923 0.386719,0.326172 -0.02937,0.09975 -0.08535,0.286914 -0.207032,0.578125 a 1.80018,1.80018 0 0 0 -0.0039,0.01172 l -2.49414,6.087891 C 11.631961,38.433341 9.12619,35.864791 7.916041,33.612144 a 1.8,1.8 0 0 0 -2.4375,-0.734375 1.8,1.8 0 0 0 -0.734375,2.4375 c 1.6304117,3.034951 4.4437987,5.878216 7.275391,7.671875 a 1.80018,1.80018 0 0 0 0.01172,0.0078 c 0.807958,0.502676 1.839411,0.923878 2.986328,0.56836 1.146918,-0.355519 1.797524,-1.350652 2.148438,-2.300782 l 2.503906,-6.107421 0.0039,-0.01172 c 0.275172,-0.657346 0.649265,-1.439574 0.482422,-2.529297 -0.16772,-1.095449 -0.921097,-1.954232 -1.833984,-2.636719 l 0.08789,0.07031 C 17.9835,29.685596 17.886044,29.528625 17.580099,29.117987 a 1.8,1.8 0 0 0 -1.460937,-0.724609 z m 6.734375,3.746093 a 1.8,1.8 0 0 0 -0.113281,0.002 1.8,1.8 0 0 0 -1.703126,1.539062 1.8,1.8 0 0 0 1.521485,2.041016 c 0.465139,0.06796 1.152027,0.170001 2.058594,0.0957 a 1.80018,1.80018 0 0 0 0.109375,-0.01172 c 0.310945,-0.04491 0.432544,-0.04322 0.505859,-0.04297 0.05044,0.09133 0.143935,0.263074 0.263672,0.554688 a 1.80018,1.80018 0 0 0 0.0039,0.01172 l 2.541016,6.068359 c -2.581245,0.55487 -6.168861,0.508554 -8.617188,-0.228516 a 1.8,1.8 0 0 0 -2.24414,1.205079 1.8,1.8 0 0 0 1.205078,2.242187 c 3.298881,0.99313 7.299754,1.01707 10.570312,0.283203 a 1.80018,1.80018 0 0 0 0.01367,-0.0039 c 0.92676,-0.215872 1.952126,-0.648552 2.511719,-1.710938 0.559593,-1.062385 0.318237,-2.224561 -0.105469,-3.144531 l 0.02539,0.05664 -2.574219,-6.146485 -0.0059,-0.01172 C 28.550171,34.279021 28.26131,33.461778 27.373072,32.809409 26.47988,32.153402 25.341029,32.078118 24.212916,32.24105 l 0.109375,-0.01172 c -0.557634,0.0457 -0.73744,0.0037 -1.244141,-0.07031 a 1.8,1.8 0 0 0 -0.224609,-0.01953 z" fill="#008055"/>
</svg>
