<svg xmlns="http://www.w3.org/2000/svg" width="48" height="48">
	<path d="M 23.371442,2.3932514 C 18.481951,2.5291677 13.671919,3.8211995 9.7483948,6.1823139 a 2.0002,2.0002 0 0 0 -0.027344,0.015625 C 4.3614369,9.5427993 1.3737094,13.897043 1.0706604,18.457704 0.76761146,23.018366 3.1724396,27.426047 7.4183167,30.791689 a 2.0002,2.0002 0 0 0 0.00195,0.002 c 4.2332723,3.345322 8.2923513,4.157222 10.6132813,4.666015 0,0 0.002,0 0.002,0 0.001,2.29e-4 0.0029,0.0017 0.0039,0.002 2.32905,0.520186 3.106918,1.466746 3.503906,2.707032 0.397439,1.241696 0.202892,3.016058 -0.498047,4.667968 a 2.0002,2.0002 0 0 0 2.662109,2.605469 c 3.556351,-1.598723 5.657539,-3.592413 7.490235,-5.574219 1.832695,-1.981805 3.444168,-3.936634 6.509765,-6.134765 a 2,2 0 0 0 0.460938,-2.791016 2,2 0 0 0 -2.791016,-0.458984 c -3.447082,2.471668 -5.388005,4.798099 -7.117187,6.667968 -0.872047,0.942998 -1.683295,1.771174 -2.652344,2.535157 0.0021,-0.915368 0.03305,-1.835661 -0.255859,-2.738281 -0.802845,-2.508279 -3.071327,-4.640685 -6.449219,-5.392579 a 2.0002,2.0002 0 0 0 -0.0059,-0.002 C 16.487159,31.025101 13.436184,30.448491 9.9026886,27.65697 l -0.00195,-0.002 C 6.3895703,24.870868 4.8629661,21.731402 5.0628479,18.723329 5.2626059,15.71712 7.2122609,12.484584 11.828473,9.6002826 19.145371,5.2082979 31.503137,5.4383877 38.435895,10.916689 c 3.467065,2.749851 4.559531,5.698778 4.517578,8.445312 -0.04197,2.747483 -1.367198,5.355546 -3.085938,6.945312 a 2,2 0 0 0 -0.111328,2.826172 2,2 0 0 0 2.828125,0.109375 c 2.530091,-2.340233 4.308861,-5.872042 4.369141,-9.818359 0.06028,-3.946317 -1.746459,-8.244793 -6.035156,-11.6445309 a 2.0002,2.0002 0 0 0 -0.0039,-0.00195 C 36.612686,4.3787717 31.064351,2.6307732 25.469098,2.4069233 24.769691,2.378942 24.06994,2.3738348 23.371442,2.3932514 Z m 1.134765,8.6777346 a 2,2 0 0 0 -1.861328,1.480468 l -2.013672,7.515625 a 2,2 0 0 0 -0.07617,0.28125 2,2 0 0 0 -0.002,0.0078 L 18.926084,26.4323 a 2,2 0 0 0 1.414063,2.449219 2,2 0 0 0 2.449219,-1.414062 l 1.601562,-5.978516 c 0.59952,-1.072554 1.810579,-2.625824 3.195312,-3.880859 1.45075,-1.314867 3.122098,-2.256028 4.111329,-2.400391 a 2,2 0 0 0 1.689498,-2.269518 2,2 0 0 0 -1.980469,-1.710937 2,2 0 0 0 -0.287109,0.02148 c -1.678409,0.244937 -3.184846,1.029362 -4.554688,2.033203 a 2,2 0 0 0 -1.470703,-2.144531 2,2 0 0 0 -0.587891,-0.06641 z" fill="#008055"/>
</svg>
