<svg xmlns="http://www.w3.org/2000/svg" width="48" height="48">
	<path d="M 24.572045,2.047054 C 23.895983,2.028907 23.215651,2.0406942 22.534936,2.0822103 17.089212,2.4143385 11.584654,4.6798955 7.4431389,9.2794755 a 2.1002099,2.1002099 0 0 0 -0.00391,0.002 C 3.3290664,13.860645 1.765959,19.328738 1.820092,24.306819 1.874225,29.2849 3.4565455,33.802804 5.8454826,36.908382 a 2.0999999,2.0999999 0 0 0 2.9453125,0.382812 2.0999999,2.0999999 0 0 0 0.3828126,-2.943359 C 7.4706447,32.134012 6.0637027,28.342238 6.0193108,24.259944 5.9749272,20.178422 7.2038418,15.835025 10.564233,12.090022 l 0.002,-0.002 C 17.250483,4.6669615 28.751119,5.0282805 34.634592,9.7618505 A 2.0999999,2.0999999 0 0 0 37.58767,9.4435385 2.0999999,2.0999999 0 0 0 37.267358,6.4904135 C 33.854171,3.7443215 29.304483,2.1740831 24.572045,2.047054 Z m 15.806641,8.390624 a 2.0999999,2.0999999 0 0 0 -1.148438,0.384766 2.0999999,2.0999999 0 0 0 -0.501953,2.927734 c 3.834791,5.424186 5.365541,14.877685 -1.419922,22.4375 -3.322284,3.688477 -7.807459,5.367827 -12.289062,5.554688 -4.48246,0.186896 -8.897837,-1.201199 -11.707032,-3.396484 a 2.0999999,2.0999999 0 0 0 -2.947265,0.361328 2.0999999,2.0999999 0 0 0 0.361328,2.949218 c 3.770505,2.946515 9.039207,4.509507 14.466797,4.283204 5.42759,-0.226304 11.077255,-2.324064 15.238281,-6.945313 a 2.1002099,2.1002099 0 0 0 0.002,-0.002 c 8.158538,-9.089585 6.594466,-20.775001 1.722657,-27.666016 a 2.0999999,2.0999999 0 0 0 -1.65625,-0.888672 2.0999999,2.0999999 0 0 0 -0.121094,0 z m -25.115235,0.535157 a 2,2 0 0 0 -1.714843,0.990234 2,2 0 0 0 0.71875,2.736328 l 7.33789,4.291016 -7.320312,4.171875 a 2,2 0 0 0 -0.746094,2.728516 2,2 0 0 0 2.728516,0.746093 l 7.654297,-4.361328 -0.04102,0.02148 c 0.634372,-0.342111 1.163192,-0.669 1.650391,-1.146485 0.487198,-0.477484 1.004409,-1.274579 0.96875,-2.232422 -0.03566,-0.957843 -0.553939,-1.642958 -1.009766,-2.083984 -0.455827,-0.441026 -0.940934,-0.753826 -1.494141,-1.078125 a 2.0002,2.0002 0 0 0 -0.002,-0.002 L 16.284885,11.24622 A 2,2 0 0 0 15.2634,10.972783 Z m 17.425782,10.427734 a 2,2 0 0 0 -0.955078,0.261719 l -7.654297,4.361328 0.04101,-0.02148 c -0.63437,0.342109 -1.165149,0.669015 -1.652343,1.146484 -0.487194,0.477469 -1.002394,1.274605 -0.966797,2.232422 0.0356,0.957817 0.553966,1.64489 1.009765,2.085937 0.4558,0.441048 0.939023,0.753821 1.492188,1.078125 a 2.0002,2.0002 0 0 0 0.002,0 l 7.708984,4.507813 a 2,2 0 0 0 2.736328,-0.716797 2,2 0 0 0 -0.716796,-2.736328 l -7.337891,-4.291016 7.318359,-4.171875 a 2,2 0 0 0 0.748047,-2.728515 2,2 0 0 0 -1.773437,-1.007813 z" fill="#008055"/>
</svg>
