<svg xmlns="http://www.w3.org/2000/svg" width="48" height="48">
	<path d="m 23.938675,6.3051124 a 1.80018,1.80018 0 0 0 -0.04102,0.002 l -5.869141,0.328125 c -2.662703,0.148811 -4.752246,1.640762 -5.90625,3.6835936 L 3.096874,25.94969 a 1.80018,1.80018 0 0 0 -0.017578,0.0293 c -1.2620534,2.283517 -1.1618178,4.876094 -0.3320313,6.947266 a 1.80018,1.80018 0 0 0 0.03125,0.07227 l 1.265625,2.798828 a 1.8,1.8 0 0 0 2.3828126,0.896485 1.8,1.8 0 0 0 0.8984374,-2.382813 L 6.0890665,31.580502 C 5.6274094,30.423823 5.5981414,28.867367 6.2316446,27.721127 L 15.247269,12.10394 a 1.80018,1.80018 0 0 0 0.0098,-0.01563 c 0.739004,-1.308194 1.303685,-1.766101 2.972656,-1.859375 L 24.05785,9.9027634 h 0.002 c 1.741437,-0.0577 2.000946,0.1594276 2.425782,0.9160156 L 41.800004,38.092221 11.739457,37.799252 25.374222,14.238706 a 1.8,1.8 0 0 0 -0.65625,-2.458985 1.8,1.8 0 0 0 -2.458984,0.65625 L 8.456254,36.28558 a 1.80018,1.80018 0 0 0 -0.013672,0.02344 c -0.5430945,0.970769 -0.9788964,2.018807 -0.5058594,3.277344 0.2365184,0.629268 0.7739014,1.180474 1.3359375,1.457031 0.562036,0.276557 1.1205277,0.349566 1.6699217,0.347656 l 31.667969,0.308594 a 1.80018,1.80018 0 0 0 0.01758,0 c 1.076782,-3.16e-4 2.341824,-0.416868 2.929687,-1.539063 0.587041,-1.120622 0.262487,-2.26484 -0.21875,-3.11914 l -0.002,-0.002 L 29.62613,9.0570184 c -1.028315,-1.831322 -3.20475,-2.834585 -5.6875,-2.751953 z M 15.014847,15.57269 a 1.7,1.7 0 0 0 -1.685546,1.353516 1.7,1.7 0 0 0 1.318359,2.011718 l 1.527344,0.31836 a 1.7,1.7 0 0 0 2.011718,-1.316407 1.7,1.7 0 0 0 -1.318359,-2.011718 l -1.527344,-0.31836 a 1.7,1.7 0 0 0 -0.326172,-0.03711 z m 9.423828,4.632812 a 1.7,1.7 0 0 0 -1.134765,0.44336 1.7,1.7 0 0 0 -0.107422,2.402344 l 8.666016,9.490234 -12.955079,-2.214844 a 1.7,1.7 0 0 0 -1.960937,1.388672 1.7,1.7 0 0 0 1.388672,1.960938 l 17.832031,3.048828 A 1.70017,1.70017 0 0 0 37.71016,33.904721 L 25.706254,20.758237 A 1.7,1.7 0 0 0 24.438675,20.205502 Z M 9.737504,24.685971 a 1.7,1.7 0 0 0 -1.1367187,0.431641 1.7,1.7 0 0 0 -0.1367188,2.40039 l 1.0410157,1.164063 a 1.7,1.7 0 0 0 2.4003898,0.136719 1.7,1.7 0 0 0 0.134766,-2.400391 L 11.001176,25.25433 A 1.7,1.7 0 0 0 9.737504,24.685971 Z" fill="#008055"/>
</svg>
