<svg xmlns="http://www.w3.org/2000/svg" width="48" height="48">
	<path d="m 13.487305,1.084032 c -1.577426,0 -3.092066,0.5168301 -4.1914063,1.576172 -1.09934,1.059342 -1.699219,2.613779 -1.699219,4.314453 v 10.685547 a 1.7,1.7 0 0 0 1.699219,1.701172 1.7,1.7 0 0 0 1.6992193,-1.701172 V 6.974657 c 0,-0.955126 0.274984,-1.49603 0.660156,-1.867187 0.385173,-0.37116 0.965567,-0.623047 1.832031,-0.623047 h 5.175782 c 0.08165,0 0.06425,-7.07e-4 0.101562,0 0.02689,0.06757 0.06437,0.152954 0.107422,0.292968 0.587869,2.461985 1.631813,4.624199 3.888672,5.972657 0.702503,0.422021 0.895481,1.662663 0.488281,2.388672 -0.12084,0.215438 -0.567214,0.556867 -1.101562,0.667968 -0.534348,0.111101 -1.006266,-0.0092 -1.210938,-0.18164 -0.76559,-0.645143 -0.730192,-1.547316 -0.345703,-2.125 A 1.7,1.7 0 0 0 20.118165,9.142626 1.7,1.7 0 0 0 17.760743,9.617235 c -1.314311,1.974716 -1.079835,4.867965 0.984375,6.607422 1.210228,1.019829 2.752248,1.191033 4.09375,0.912109 1.341502,-0.278923 2.633893,-1.009223 3.376953,-2.333984 a 1.70017,1.70017 0 0 0 0,-0.002 C 27.507622,12.49759 26.99764,9.329917 24.510743,7.835938 a 1.70017,1.70017 0 0 0 -0.0039,-0.002 C 23.094273,6.991036 22.688274,6.122247 22.178718,3.988235 a 1.70017,1.70017 0 0 0 -0.01172,-0.04492 C 21.998638,3.315015 21.790639,2.593888 21.133795,1.95894 20.476951,1.3239923 19.52345,1.08394 18.663092,1.08394 Z m 11.115235,0.00195 a 1.7,1.7 0 0 0 -1.701172,1.6992189 1.7,1.7 0 0 0 1.701172,1.699219 h 9.929687 c 1.086621,0 1.601484,0.260456 1.91211,0.580078 0.310625,0.319621 0.558593,0.869073 0.558593,1.910156 v 8.0195311 c 0,0.174897 -0.192795,0.513657 -0.583984,0.699219 -1.316801,0.605463 -2.37749,1.576436 -3.193359,2.861328 a 1.70017,1.70017 0 0 0 -0.01953,0.0332 c -0.421459,0.699605 -1.669586,0.897859 -2.398437,0.490235 -0.216949,-0.121353 -0.55899,-0.567577 -0.669922,-1.09961 -0.110932,-0.532032 0.01118,-0.999105 0.183594,-1.203125 0.64566,-0.764031 1.553302,-0.732303 2.132812,-0.347656 a 1.7,1.7 0 0 0 2.357422,-0.474609 1.7,1.7 0 0 0 -0.476562,-2.357422 c -1.97629,-1.311753 -4.868988,-1.077394 -6.611329,0.984375 -1.021588,1.20888 -1.193705,2.750629 -0.914062,4.091797 0.279643,1.341167 1.012539,2.631699 2.337891,3.373047 2.294095,1.283017 5.443669,0.787521 6.949218,-1.667969 l 0.02148,-0.0332 c 0.571136,-0.892749 0.923203,-1.199011 1.734375,-1.56836 a 1.70017,1.70017 0 0 0 0.02344,-0.01172 c 1.398612,-0.663438 2.527344,-2.030829 2.527344,-3.769532 V 6.9746519 c 0,-1.626917 -0.442882,-3.173421 -1.519531,-4.28125 C 37.807141,1.5855784 36.236466,1.0859851 34.532227,1.0859851 Z m -8.75,15.634766 c -1.705469,-0.02171 -3.408151,0.7577 -4.390625,2.388672 l 0.01953,-0.0332 c -0.480433,0.758086 -0.860237,1.106436 -1.394531,1.429687 a 1.70017,1.70017 0 0 0 -0.087891,0.05664 c -0.548757,0.379865 -1.12225,0.758726 -1.621094,1.433593 -0.498843,0.674868 -0.759765,1.601164 -0.759765,2.525391 v 15.888672 c 0,1.719567 0.491575,3.330196 1.521484,4.546875 1.029909,1.216679 2.618039,1.955078 4.347656,1.955078 H 24.614259 A 1.7,1.7 0 0 0 26.31543,45.210985 1.7,1.7 0 0 0 24.614259,43.511766 H 13.487305 c -0.844802,0 -1.340477,-0.265857 -1.751953,-0.751953 -0.411476,-0.486095 -0.716797,-1.277877 -0.716797,-2.349609 V 24.521532 c 0,-0.434373 0.03343,-0.422299 0.09375,-0.503906 0.06032,-0.08161 0.308803,-0.302769 0.822266,-0.658203 l -0.08789,0.05664 c 0.952966,-0.576549 1.804665,-1.410017 2.507813,-2.519531 a 1.70017,1.70017 0 0 0 0.01953,-0.0332 c 0.421496,-0.699711 1.669748,-0.897844 2.398438,-0.490235 0.217003,0.121376 0.557031,0.567589 0.667968,1.09961 0.110937,0.532021 -0.0092,1.001058 -0.18164,1.205078 -0.645633,0.763945 -1.555101,0.730423 -2.134766,0.345703 a 1.7,1.7 0 0 0 -2.355469,0.476563 1.7,1.7 0 0 0 0.476563,2.355468 c 1.976335,1.31168 4.867008,1.077281 6.609375,-0.984375 a 1.70017,1.70017 0 0 0 0.002,0 c 1.021589,-1.20888 1.193725,-2.750617 0.914063,-4.091797 -0.279663,-1.341179 -1.014448,-2.631722 -2.339844,-3.373046 -0.576178,-0.322298 -1.205117,-0.531928 -1.84961,-0.626954 -0.241684,-0.03563 -0.484877,-0.05549 -0.728515,-0.05859 z m 22.832031,3.05664 a 1.7,1.7 0 0 0 -1.699219,1.699219 v 19.550781 c 0,1.041084 -0.247968,1.590535 -0.558593,1.910157 -0.310626,0.319621 -0.825489,0.578125 -1.91211,0.578125 h -3.197266 c -0.278891,0 -0.228524,-0.0024 -0.330078,-0.107422 -0.100989,-0.104457 -0.30097,-0.434279 -0.470703,-0.992188 -9.47e-4,-0.0031 -10e-4,-0.0027 -0.002,-0.0059 L 28.331055,33.406298 C 27.945387,31.817894 27.296026,30.695891 26.563477,29.953173 25.830929,29.210454 25.070213,28.858279 24.85254,28.720751 a 1.70017,1.70017 0 0 0 -0.0332,-0.01953 c -0.702564,-0.422033 -0.897403,-1.662852 -0.490235,-2.388672 0.12084,-0.215439 0.569168,-0.556868 1.103516,-0.667969 0.534348,-0.111101 1.006266,0.01112 1.210937,0.183594 0.765484,0.644999 0.730142,1.545552 0.345704,2.123047 a 1.7,1.7 0 0 0 0.472656,2.357421 1.7,1.7 0 0 0 2.357422,-0.472656 c 1.314561,-1.974705 1.077987,-4.869974 -0.986328,-6.609375 -1.210229,-1.019828 -2.752249,-1.191033 -4.09375,-0.912109 -1.341502,0.278924 -2.631941,1.011176 -3.375,2.335937 -1.292032,2.30318 -0.781959,5.470876 1.705078,6.964844 0.527693,0.330559 0.804887,0.451539 1.074218,0.724609 0.276247,0.280082 0.607961,0.737145 0.882813,1.869141 l 2.208984,9.095703 a 1.70017,1.70017 0 0 0 0.02344,0.08984 c 0.256424,0.848457 0.607709,1.678268 1.283203,2.376953 0.675494,0.698685 1.726883,1.144531 2.77539,1.144531 h 3.197266 c 1.704239,0 3.274913,-0.501546 4.351563,-1.609375 1.076649,-1.107828 1.517578,-2.65238 1.517578,-4.279297 V 21.47661 a 1.7,1.7 0 0 0 -1.699219,-1.699219 z" fill="#008055"/>
</svg>
