<svg xmlns="http://www.w3.org/2000/svg" width="48" height="48">
	<path d="m 28.495649,2.8438117 c -0.333782,0.00584 -0.668938,0.032511 -1.001953,0.080078 l 0.01953,-0.00391 -17.126953,2.279297 a 2,2 0 0 0 -1.7187495,2.246093 2,2 0 0 0 2.2460925,1.71875 l 17.126953,-2.279296 a 2.0002,2.0002 0 0 0 0.01953,-0.002 c 1.619306,-0.231299 2.43756,0.03113 3.46289,1.341797 0,0 0.002,0.002 0.002,0.002 l 10.09961,13.1210942 a 2.0002,2.0002 0 0 0 0.08984,0.107422 c 0.623439,0.70214 0.82546,1.451237 0.373047,2.365234 a 2.0002,2.0002 0 0 0 -0.01172,0.02539 l -5.492188,11.482422 c -0.578396,1.092983 -1.248074,1.796063 -2.619141,2.208984 0,0 -0.002,0 -0.002,0 L 21.439,41.072324 c -1.417481,0.315032 -2.072306,0.08069 -3.166016,-0.869141 L 6.7241655,29.712952 l -0.00195,-0.002 c -0.778326,-0.757515 -1.20865,-1.626466 -0.943359,-2.808593 L 9.4116685,11.886734 A 2,2 0 0 0 7.9390125,9.4707178 2,2 0 0 0 5.5249495,10.945327 L 1.8843219,25.98639 a 2.0002,2.0002 0 0 0 -0.00781,0.03125 c -0.6013037,2.663756 0.5269937,5.073439 2.0585937,6.5625 a 2.0002,2.0002 0 0 0 0.048828,0.04688 L 15.616743,43.195374 a 2.0002,2.0002 0 0 0 0.03516,0.0293 c 1.758166,1.526882 4.172987,2.314438 6.681641,1.75 a 2.0002,2.0002 0 0 0 0.105469,-0.02734 l 12.642578,-3.570313 a 2.0002,2.0002 0 0 0 0.0332,-0.0098 c 2.40907,-0.7247 4.066757,-2.391933 5.009766,-4.177734 a 2.0002,2.0002 0 0 0 0.03516,-0.07031 L 45.671436,25.59574 v -0.002 c 1.176001,-2.3777 0.568605,-5.065613 -0.966802,-6.79485 l 0.08984,0.109375 L 34.685099,5.7754518 a 2.0002,2.0002 0 0 0 -0.0098,-0.01172 C 33.347674,4.0651778 31.471165,3.1034057 29.491743,2.8887336 29.16184,2.8529548 28.829432,2.8379698 28.495649,2.8438117 Z m 0.433594,5.0234371 a 1.9,1.9 0 0 0 -1.802734,1.492188 L 24.347212,22.031312 13.532759,10.779359 a 1.9,1.9 0 0 0 -1.345703,-0.582031 1.9,1.9 0 0 0 -1.339844,0.529296 1.9,1.9 0 0 0 -0.05469,2.685547 L 21.647993,24.707093 8.8042435,25.763734 a 1.9,1.9 0 0 0 -1.738281,2.048828 1.9,1.9 0 0 0 2.048828,1.738281 l 13.4999995,-1.109375 -3.513672,9.375 a 1.9,1.9 0 0 0 1.113281,2.445313 1.9,1.9 0 0 0 2.445313,-1.113282 l 4.140625,-11.050781 0.203125,-0.01758 a 1.90019,1.90019 0 0 0 0.296875,-0.04883 l 12.691406,-3.115234 a 1.9,1.9 0 0 0 1.392578,-2.296876 1.9,1.9 0 0 0 -1.86914,-1.447265 1.9,1.9 0 0 0 -0.429688,0.05469 l -11.27539,2.767578 3.029296,-13.822265 a 1.9,1.9 0 0 0 -1.449218,-2.2617192 1.9,1.9 0 0 0 -0.460938,-0.04297 z" fill="#008055"/>
</svg>
