<svg xmlns="http://www.w3.org/2000/svg" width="48" height="48">
	<path d="m 25.58223,2.2603527 a 1.9,1.9 0 0 0 -1.332031,0.5488281 1.9,1.9 0 0 0 -0.01367,2.6875 l 2.833985,2.8632813 c 0.05635,0.062053 0.06714,0.073026 0.04297,0.1835937 -0.02465,0.1127732 -0.133979,0.4113789 -0.740234,0.7851563 0,0 -0.002,0.00195 -0.002,0.00195 C 23.238272,11.239416 18.992786,13.399173 12.679887,15.186134 9.7532158,15.939463 7.7281598,18.44702 7.5197298,21.303321 6.8320948,28.466912 5.1698791,35.743818 2.3830116,43.170509 a 1.90019,1.90019 0 0 0 3.1191406,2.015625 L 25.558793,25.217384 a 1.9,1.9 0 0 0 0.0059,-2.6875 1.9,1.9 0 0 0 -2.685546,-0.0059 L 8.1701208,37.166602 C 9.6556798,31.939092 10.817797,26.745633 11.30684,21.623634 a 1.90019,1.90019 0 0 0 0.0039,-0.04297 c 0.09929,-1.360699 0.835957,-2.333774 2.316406,-2.714844 a 1.90019,1.90019 0 0 0 0.04297,-0.01172 c 6.687419,-1.888226 11.324118,-4.232841 14.685547,-6.28125 a 1.90019,1.90019 0 0 0 0.0059,-0.0039 c 1.28782,-0.791475 2.184667,-1.931052 2.464844,-3.2128902 0.280178,-1.2818383 -0.102533,-2.6254234 -0.943359,-3.5527344 a 1.90019,1.90019 0 0 0 -0.05664,-0.058594 L 26.937699,2.8248058 A 1.9,1.9 0 0 0 25.58223,2.2603527 Z M 39.156449,16.662696 c -0.170713,6.83e-4 -0.341591,0.01164 -0.511719,0.03516 -1.359233,0.187891 -2.566406,1.103202 -3.248046,2.375 -2.067567,3.602805 -4.565713,8.481933 -6.314454,15.609375 a 1.90019,1.90019 0 0 0 -0.0039,0.01953 c -0.35483,1.515883 -0.680699,1.975004 -2.117187,2.177734 l 0.03711,-0.0039 c -4.633473,0.563858 -9.368158,1.533135 -14.164062,3.537109 a 1.9,1.9 0 0 0 -1.021485,2.486328 1.9,1.9 0 0 0 2.486328,1.019532 c 4.378176,-1.829426 8.734418,-2.733143 13.158203,-3.271485 a 1.90019,1.90019 0 0 0 0.03516,-0.0039 c 2.807851,-0.39627 4.710006,-2.617102 5.285156,-5.074219 l -0.0039,0.01953 c 1.652164,-6.733818 3.946055,-11.196635 5.941406,-14.669921 a 1.90019,1.90019 0 0 0 0.0293,-0.05078 c 0.198663,-0.371693 0.343468,-0.393458 0.421875,-0.404297 0.07841,-0.01084 0.190789,-0.0292 0.435547,0.234375 a 1.90019,1.90019 0 0 0 0.01172,0.01172 l 2.845704,3.009766 a 1.9,1.9 0 0 0 2.685546,0.07422 1.9,1.9 0 0 0 0.07422,-2.685547 l -2.833984,-2.996094 c -0.847649,-0.912821 -2.033523,-1.454001 -3.228516,-1.449219 z" fill="#008055"/>
</svg>
