<svg xmlns="http://www.w3.org/2000/svg" width="48" height="48">
	<path d="m 23.456707,2.0575913 c -4.129806,0.095167 -8.225315,1.3313465 -11.726562,3.7128906 a 1.9,1.9 0 0 0 -0.501953,2.640625 1.9,1.9 0 0 0 2.638672,0.5019532 c 7.643717,-5.1992473 18.892657,-3.8056081 24.861328,4.4042969 3.898078,5.397387 4.407598,11.308873 2.394531,16.773438 -0.140425,0.344031 -0.346401,0.573353 -0.488281,0.65039 -0.144061,0.07822 -0.279092,0.169781 -0.894531,-0.06836 a 1.90019,1.90019 0 0 0 -0.01172,-0.0039 L 32.52702,27.938451 a 1.9,1.9 0 0 0 -2.449219,1.103516 1.9,1.9 0 0 0 1.103516,2.451172 l 7.199219,2.728515 -0.01172,-0.0059 c 1.424651,0.551259 2.943956,0.481062 4.078125,-0.134766 1.134169,-0.615828 1.824025,-1.613195 2.214844,-2.595703 a 1.90019,1.90019 0 0 0 0.01563,-0.04102 c 2.422542,-6.541364 1.735918,-13.97527 -2.869141,-20.351562 a 1.90019,1.90019 0 0 0 -0.002,-0.0039 C 37.319076,4.9126993 30.33972,1.89898 23.456707,2.0575913 Z M 9.0699888,9.9072007 c -0.30423,0.019936 -0.6007593,0.071514 -0.8808596,0.1523443 -1.1171408,0.322378 -2.0287467,1.02341 -2.671875,1.935547 -8.656e-4,0.0012 -0.00109,0.0027 -0.00195,0.0039 -0.00107,0.0015 -0.00284,0.0024 -0.00391,0.0039 -5.70946215,8.046437 -3.8582291,18.470447 0.6855469,24.931641 a 1.90019,1.90019 0 0 0 0.013672,0.01563 c 8.1815219,11.36254 25.1904239,11.917858 34.0605479,1.927741 a 1.9,1.9 0 0 0 -0.158204,-2.681641 1.9,1.9 0 0 0 -2.683593,0.158204 C 30.226733,44.466543 16.057458,44.099242 9.3063168,34.747045 v -0.002 C 5.606807,29.483295 4.0517628,20.618215 8.6149104,14.19431 a 1.90019,1.90019 0 0 0 0.00586,-0.0078 c 0.170029,-0.242065 0.439925,-0.424282 0.621094,-0.476563 0.179425,-0.05178 0.221153,-0.05689 0.392578,0.06055 l 6.3261726,4.75 a 1.9,1.9 0 0 0 2.660156,-0.378906 1.9,1.9 0 0 0 -0.378906,-2.660156 l -6.384766,-4.794922 a 1.90019,1.90019 0 0 0 -0.0625,-0.04492 C 11.241656,10.260559 10.620873,10.034991 9.9977228,9.9443101 9.6861478,9.8989699 9.3742178,9.8872645 9.0699888,9.9072007 Z M 23.915692,16.848607 c -1.740727,0.01357 -3.438098,0.658998 -4.746094,1.816406 -0.697598,0.617285 -1.285074,1.382538 -1.708984,2.271485 -1.609509,3.375173 -0.25771,7.360729 2.914062,9.222656 a 1.7999817,1.8000183 85.000423 0 0 0.449219,0.337891 c 0.0049,0.0024 0.0068,0.0074 0.01172,0.0098 a 1.7999817,1.8000183 85.000423 0 0 0.04102,0.01758 1.7999817,1.8000183 85.000423 0 0 0.0332,0.01758 c 0.0055,0.0026 0.01209,0.0014 0.01758,0.0039 a 1.7999817,1.8000183 85.000423 0 0 0.546875,0.130859 c 3.449904,1.270351 7.387021,-0.210482 8.976562,-3.59375 1.675153,-3.565487 0.131031,-7.863463 -3.429687,-9.548828 -1.001452,-0.474009 -2.061033,-0.693689 -3.105469,-0.685547 z m 0.0059,3.585938 c 0.520919,-9.74e-4 1.052756,0.113167 1.560547,0.353515 1.80548,0.854572 2.560326,2.95774 1.710938,4.765625 -0.849389,1.807885 -2.949399,2.568781 -4.759766,1.72461 a 1.7999817,1.8000183 85.000423 0 0 -0.0332,-0.01563 1.7999817,1.8000183 85.000423 0 0 -0.0059,0 c -1.800533,-0.864946 -2.54337,-2.974376 -1.683593,-4.777344 0.214944,-0.450742 0.507004,-0.836053 0.853515,-1.146484 0.64971,-0.582058 1.489224,-0.902674 2.357422,-0.904297 z m 9.607422,1.615234 a 1.9,1.9 0 0 0 -1.90039,1.900391 1.9,1.9 0 0 0 1.90039,1.90039 h 6.175781 a 1.9,1.9 0 0 0 1.898438,-1.90039 1.9,1.9 0 0 0 -1.898438,-1.900391 z m -9.623047,9.621094 a 1.9,1.9 0 0 0 -1.90039,1.90039 v 6.107422 a 1.9,1.9 0 0 0 1.90039,1.900391 1.9,1.9 0 0 0 1.898438,-1.900391 v -6.107422 a 1.9,1.9 0 0 0 -1.898438,-1.90039 z" fill="#008055"/>
</svg>
