<svg xmlns="http://www.w3.org/2000/svg" width="48" height="48">
	<path d="m 5.2617166,6.1035156 c -1.155051,0 -2.3056692,0.3762145 -3.1523437,1.1835938 C 1.2626982,8.0944886 0.80663846,9.2887233 0.80663846,10.529297 v 14.287109 c 0,1.181605 0.25859694,2.372265 1.04296874,3.332031 0.7843719,0.959766 2.0771764,1.492188 3.4121094,1.492188 H 6.5996072 A 1.7,1.7 0 0 0 8.3007791,27.941406 1.7,1.7 0 0 0 6.5996072,26.240234 H 5.2617166 c -0.581337,0 -0.6652012,-0.104532 -0.7792969,-0.244141 C 4.3683241,25.856485 4.2070291,25.483901 4.2070291,24.816406 V 10.529297 c 0,-0.487227 0.1188289,-0.6580294 0.2480469,-0.7812501 C 4.5842939,9.624826 4.8101976,9.5039062 5.2617166,9.5039062 H 25.449216 c 0.611706,0 0.774858,0.1309837 0.845704,0.203125 0.07084,0.072141 0.197265,0.2504736 0.197265,0.8222658 v 4.671874 a 1.7,1.7 0 0 0 1.699219,1.701172 1.7,1.7 0 0 0 1.699219,-1.701172 v -4.671874 c 0,-1.1638081 -0.328793,-2.3485696 -1.169922,-3.2050783 C 27.879572,6.46771 26.672171,6.1035156 25.449216,6.1035156 Z M 8.5136697,11.28125 A 2.5248551,2.5047867 0 0 0 5.9882791,13.787109 2.5248551,2.5047867 0 0 0 8.5136697,16.291015 2.5248551,2.5047867 0 0 0 11.03906,13.787109 2.5248551,2.5047867 0 0 0 8.5136697,11.28125 Z m 24.2265623,0.04492 a 1.7,1.7 0 0 0 -1.701172,1.701172 1.7,1.7 0 0 0 1.701172,1.699219 h 9.988281 c 0.611713,0 0.77486,0.130986 0.845703,0.203125 0.07084,0.07214 0.195313,0.25047 0.195313,0.822266 v 3.322265 a 1.7,1.7 0 0 0 1.699219,1.699218 1.7,1.7 0 0 0 1.701172,-1.699219 v -3.322265 c 0,-1.163805 -0.328793,-2.348568 -1.169922,-3.205078 -0.841129,-0.856512 -2.048527,-1.220703 -3.271485,-1.220703 z m -18.804687,7.033203 c -1.155051,0 -2.307623,0.376214 -3.154297,1.183593 -0.8466749,0.807379 -1.3007819,1.999661 -1.3007819,3.240235 v 14.289062 c 0,1.181608 0.258597,2.372267 1.0429689,3.332031 0.784373,0.959765 2.07718,1.492188 3.41211,1.492188 h 20.210937 c 1.283988,0 2.511479,-0.558395 3.296875,-1.476563 0.785396,-0.918167 1.144531,-2.112391 1.144531,-3.347656 a 1.70017,1.70017 0 0 0 0,-0.0078 c -0.0068,-1.591341 -0.436513,-2.892446 -1.050781,-4.064454 a 1.70017,1.70017 0 0 0 -0.04883,-0.08789 l -2.841797,-4.71875 a 1.70017,1.70017 0 0 0 -0.03906,-0.0625 c -0.365182,-0.551074 -0.75778,-1.297876 -1.925782,-1.517578 -0.584001,-0.109852 -1.187156,0.06023 -1.583984,0.28125 -0.396828,0.221016 -0.670694,0.475892 -0.943359,0.757812 a 1.70017,1.70017 0 0 0 -0.0098,0.0098 l -2.166016,2.273437 -1.185547,-1.177734 c -0.5163,-0.54741 -1.196904,-1.131873 -2.207031,-1.207031 -1.010126,-0.07516 -1.830993,0.43849 -2.445312,0.986328 l 0.05859,-0.05078 -7.617187,6.1875 a 1.7,1.7 0 0 0 -0.248047,2.390625 1.7,1.7 0 0 0 2.390625,0.248046 l 7.619141,-6.1875 a 1.70017,1.70017 0 0 0 0.0059,-0.0039 1.70017,1.70017 0 0 0 0.0098,0.0098 l 1.607422,1.595703 -0.04492,-0.04688 c 0.506515,0.542471 1.429273,1.133637 2.419922,0.972656 0.990648,-0.16098 1.465026,-0.706116 1.914062,-1.177734 l 1.839844,-1.929688 2.431641,4.039063 c 0.476818,0.91054 0.653026,1.414809 0.658203,2.492187 -0.0012,0.576992 -0.16266,0.945896 -0.324219,1.134766 -0.162147,0.189558 -0.306442,0.285156 -0.714844,0.285156 H 13.935545 c -0.58133,0 -0.667153,-0.10453 -0.78125,-0.24414 -0.114098,-0.139611 -0.273438,-0.512196 -0.273438,-1.179688 V 22.783203 c 0,-0.487227 0.118829,-0.656076 0.248047,-0.779297 0.129218,-0.123221 0.355122,-0.246094 0.806641,-0.246094 h 20.1875 c 0.611705,0 0.774859,0.130986 0.845703,0.203125 0.07084,0.07214 0.195312,0.25047 0.195312,0.822266 v 3.322265 a 1.7,1.7 0 0 0 1.699219,1.699219 1.7,1.7 0 0 0 1.701172,-1.699219 v -3.322265 c 0,-1.163805 -0.328795,-2.346614 -1.169922,-3.203125 -0.841127,-0.856511 -2.04853,-1.220703 -3.271484,-1.220703 z m 27.066406,0.666015 a 1.7,1.7 0 0 0 -0.873047,0.244141 1.7,1.7 0 0 0 -0.578125,2.332031 l 3.529297,5.865234 a 1.70017,1.70017 0 0 0 0.002,0.0039 c 0.523594,0.865898 0.703428,1.406944 0.708984,2.574218 -0.0012,0.576985 -0.16266,0.943944 -0.324218,1.132813 -0.162147,0.189557 -0.306442,0.287109 -0.714844,0.287109 h -1.478516 a 1.7,1.7 0 0 0 -1.699219,1.699219 1.7,1.7 0 0 0 1.699219,1.699219 h 1.478516 c 1.283988,0 2.511479,-0.556442 3.296875,-1.47461 0.785396,-0.918167 1.144531,-2.112391 1.144531,-3.347656 a 1.70017,1.70017 0 0 0 0,-0.0078 c -0.0071,-1.663253 -0.448696,-3.078327 -1.199219,-4.320313 l -0.002,-0.002 -3.529297,-5.863281 a 1.7,1.7 0 0 0 -1.460937,-0.822266 z m -23.816406,4.511719 a 2.5248551,2.5047867 0 0 0 -2.523438,2.505859 2.5248551,2.5047867 0 0 0 2.523438,2.503907 2.5248551,2.5047867 0 0 0 2.52539,-2.503907 2.5248551,2.5047867 0 0 0 -2.52539,-2.505859 z" fill="#008055"/>
</svg>
