<svg xmlns="http://www.w3.org/2000/svg" width="48" height="48">
	<path d="M 12.472305,2.3109427 C 10.35573,2.3973331 7.8277043,3.3285111 5.3512109,5.8089896 2.0401973,9.1253327 1.5662274,12.565518 2.2398828,14.916412 c 0.3368278,1.175446 0.838733,2.079686 1.1152344,2.667968 0.2765014,0.588283 0.1212091,0.683167 0.2734375,0.210938 -1.6286495,4.913856 -1.7042821,11.094545 0.6855469,16.384766 a 2.0999999,2.0999999 0 0 0 2.7792969,1.050781 2.0999999,2.0999999 0 0 0 1.0488281,-2.779297 C 6.2915459,28.354828 6.3201659,23.007833 7.6187891,19.101958 a 2.1002099,2.1002099 0 0 0 0.00586,-0.01953 C 8.0971268,17.616748 7.5148683,16.561013 7.1558985,15.797271 6.7969285,15.033529 6.4556016,14.383465 6.2769922,13.760162 5.9197734,12.513554 5.7310839,11.374696 8.3238672,8.7777396 10.925676,6.1717441 12.160422,6.2772629 13.521133,6.5804739 c 0.680356,0.1516055 1.397552,0.4630855 2.25,0.7714844 0.852449,0.3083989 1.992881,0.7089341 3.359375,0.265625 l -0.08203,0.025391 C 26.572974,5.5390279 32.82466,7.0977698 37.493789,12.203521 a 2.1002099,2.1002099 0 0 0 0.0098,0.0098 c 4.372376,4.726583 4.70544,11.614119 2.974609,17.125 -0.463296,1.412193 0.04068,2.435044 0.367188,3.216797 0.326513,0.781752 0.659101,1.468316 0.847656,2.136718 0.377109,1.336805 0.563083,2.469564 -1.548828,4.785156 -2.078637,2.279199 -3.391428,2.233848 -5.046875,1.949219 -0.827724,-0.142314 -1.696719,-0.432645 -2.636719,-0.689453 -0.94,-0.256807 -2.027492,-0.58583 -3.384765,-0.144531 l 0.128906,-0.03906 c -7.67997,1.962041 -13.66103,0.787652 -17.982422,-3.771484 a 2.0999999,2.0999999 0 0 0 -2.9687503,-0.08008 2.0999999,2.0999999 0 0 0 -0.080078,2.96875 c 5.4540083,5.754064 13.4308833,7.160284 22.0703123,4.953125 a 2.1002099,2.1002099 0 0 0 0.13086,-0.03711 c -0.157623,0.05125 0.227318,-0.0041 0.978515,0.201171 0.751197,0.205227 1.79074,0.563721 3.033203,0.777344 2.484928,0.427246 5.958966,-0.07541 8.861329,-3.257812 2.869188,-3.145907 3.126547,-6.493289 2.488281,-8.75586 -0.319133,-1.131285 -0.767276,-2.025302 -1.013672,-2.615234 -0.176026,-0.421451 -0.163075,-0.592462 -0.193359,-0.496094 2.022694,-6.587419 1.669759,-15.00363 -3.935547,-21.0703122 l -0.0039,-0.00391 C 34.894338,3.1410961 26.612163,1.1669454 17.917617,3.5980521 a 2.1002099,2.1002099 0 0 0 -0.08203,0.023437 c 0.170644,-0.055359 -0.0038,0.010245 -0.636719,-0.21875 C 16.565902,3.1737447 15.627499,2.746984 14.433244,2.4808646 13.836114,2.3478048 13.177831,2.2821459 12.472306,2.3109427 Z M 24.212539,12.400786 c -1.262128,0.0084 -2.48356,0.328417 -3.560546,0.960938 -2.902013,1.667253 -4.123143,5.405287 -2.607422,8.603516 l 0.04101,0.08594 0.04688,0.08203 c 1.163313,1.972114 3.268363,3.25235 5.751953,3.634766 1.766294,0.27187 2.50153,0.56383 3.183594,1.765625 0.660993,1.303115 -0.182051,3.130869 -1.208984,3.765625 -0.707805,0.391338 -1.870143,0.674931 -2.808594,0.529297 -0.948891,-0.147254 -1.675261,-0.503835 -2.285156,-1.759766 a 2.0999999,2.0999999 0 0 0 -2.804688,-0.972656 2.0999999,2.0999999 0 0 0 -0.972656,2.806641 c 1.170505,2.41037 3.349335,3.75515 5.417969,4.076172 2.068634,0.321021 4.014517,-0.160813 5.548828,-1.027344 l 0.02344,-0.01367 0.02344,-0.01367 c 2.962037,-1.77663 4.647789,-5.790194 2.791015,-9.353516 l -0.01367,-0.02539 -0.01367,-0.02539 c -1.389756,-2.497361 -3.912732,-3.543792 -6.242188,-3.902343 -1.560939,-0.240349 -2.15413,-0.669321 -2.6875,-1.523438 -0.498687,-1.157374 0.05981,-2.609329 0.91211,-3.095703 l 0.01367,-0.0078 0.01172,-0.0078 c 0.440018,-0.259517 1.327095,-0.450754 2.064453,-0.335938 0.737359,0.114817 1.235438,0.408255 1.535157,0.935547 a 2.0999999,2.0999999 0 0 0 2.863281,0.78711 2.0999999,2.0999999 0 0 0 0.787109,-2.863282 c -1.020989,-1.796239 -2.830428,-2.743739 -4.53907,-3.009797 -0.426094,-0.06635 -0.850775,-0.09849 -1.271485,-0.0957 z" fill="#008055"/>
</svg>
