<svg xmlns="http://www.w3.org/2000/svg" width="48" height="48">
	<path d="m 28.599749,1.7943952 a 1.70017,1.70017 0 0 0 -1.720704,1.7011719 l 0.01367,21.9726559 c -0.01227,2.487844 -0.687529,3.229733 -1.322265,3.685547 -1.35169,0.868904 -2.72876,0.829042 -3.830079,0.03516 -0.412857,-0.2976 -0.700721,-0.846829 -0.773437,-1.558594 -0.07213,-0.705987 0.126226,-1.488476 0.408203,-1.923828 0.275732,-0.397398 0.739919,-0.643778 1.333984,-0.769532 0.598459,-0.126683 1.331362,-0.05207 1.361329,-0.04492 a 1.7,1.7 0 0 0 2.048828,-1.259765 1.7,1.7 0 0 0 -1.259766,-2.046875 c -0.771943,-0.184151 -1.696639,-0.221454 -2.853515,0.02344 -1.156877,0.244892 -2.537861,0.852712 -3.449219,2.1875 a 1.70017,1.70017 0 0 0 -0.01563,0.02148 c -0.809003,1.226326 -1.106165,2.698443 -0.957032,4.158203 0.149135,1.45976 0.802728,2.986602 2.167969,3.970703 2.250836,1.622515 5.305465,1.61174 7.705078,0.04492 a 1.70017,1.70017 0 0 0 0.05273,-0.03711 c 1.495021,-1.058157 2.765074,-3.187712 2.78125,-6.46875 a 1.70017,1.70017 0 0 0 0,-0.0098 L 30.279436,5.6205671 c 3.774795,0.921565 5.822169,2.6116839 7.708984,4.6757809 a 1.7,1.7 0 0 0 2.400391,0.107422 1.7,1.7 0 0 0 0.109375,-2.40039 C 38.080715,5.3587667 34.769313,2.6599066 28.818499,1.8119734 a 1.70017,1.70017 0 0 0 -0.21875,-0.017578 z M 23.302873,7.632286 C 13.851364,7.973759 6.0180999,15.129273 4.8360769,24.501427 c -1.182023,9.372154 4.631808,18.244179 13.7031251,20.916015 7.937402,2.337856 16.357032,-0.664082 21.083984,-7.154297 0.675279,-0.927173 1.274755,-1.926088 1.787109,-2.990234 4.098834,-8.513173 1.405769,-18.768853 -6.347656,-24.177734 a 1.6989717,1.7010277 85.00002 0 0 -2.367187,0.419921 1.6989717,1.7010277 85.00002 0 0 0.419921,2.365235 c 6.40593,4.468852 8.614611,12.88709 5.228516,19.919922 -3.386095,7.032832 -11.34911,10.564869 -18.84375,8.357422 C 12.005499,39.95023 7.2365179,32.667924 8.2130299,24.925255 9.1895419,17.182586 15.617446,11.308929 23.42592,11.026817 A 1.6989717,1.7010277 85.00002 0 0 25.064592,9.269005 1.6989717,1.7010277 85.00002 0 0 23.302873,7.632286 Z M 23.08217,14.12838 a 1.6988335,1.7011657 85.000114 0 0 -0.109375,0.0059 c -5.460797,0.436182 -10.035582,4.340999 -11.316406,9.660156 -1.280824,5.319159 1.014656,10.874625 5.679688,13.742188 4.66503,2.867562 10.666927,2.412907 14.845703,-1.125 1.044694,-0.884477 1.917972,-1.913164 2.607422,-3.03711 2.068349,-3.371835 2.483899,-7.603584 0.93164,-11.402343 a 1.6988335,1.7011657 85.000114 0 0 -2.216797,-0.931682 1.6988335,1.7011657 85.000114 0 0 -0.933593,2.214844 c 1.518721,3.716687 0.475998,7.970751 -2.589844,10.566406 -3.065841,2.595656 -7.437993,2.924613 -10.861328,0.820312 -3.423335,-2.104301 -5.095989,-6.150077 -4.15625,-10.052734 0.939738,-3.902657 4.274389,-6.748311 8.28125,-7.068359 A 1.6988335,1.7011657 85.000114 0 0 24.802873,15.692833 1.6988335,1.7011657 85.000114 0 0 23.08217,14.12838 Z" fill="#008055"/>
</svg>
