<svg xmlns="http://www.w3.org/2000/svg" width="48" height="48">
	<path d="M 18.482422 2.0058594 A 2.0002 2.0002 0 0 0 16.458984 4.0058594 L 16.480469 34.550781 C 16.458159 38.65928 15.703511 39.502653 13.988281 40.878906 C 11.915683 42.417041 8.9732812 42.185042 7.3085938 40.886719 C 5.481266 39.461596 5.1395023 36.571835 6.5 34.537109 A 2.0002 2.0002 0 0 0 6.5097656 34.523438 C 7.3093092 33.305629 8.2192732 32.82322 9.2597656 32.615234 C 10.300258 32.407249 11.487845 32.571736 12.402344 32.916016 A 2 2 0 0 0 14.980469 31.75 A 2 2 0 0 0 13.8125 29.173828 C 12.281109 28.597308 10.41831 28.303267 8.4765625 28.691406 C 6.5379154 29.078926 4.5399977 30.245457 3.1738281 32.320312 C 0.694608 36.033836 1.2453336 41.230061 4.8496094 44.041016 C 8.0251823 46.517709 12.829039 46.763235 16.421875 44.060547 A 2.0002 2.0002 0 0 0 16.46875 44.023438 C 18.720471 42.219951 20.456069 39.434696 20.480469 34.560547 A 2.0002 2.0002 0 0 0 20.480469 34.548828 L 20.460938 7.65625 C 21.262618 7.9804357 22.067689 8.2561115 22.847656 8.3144531 C 24.757506 8.4573101 26.415205 7.947316 27.857422 7.4960938 C 29.299639 7.0448715 30.549144 6.6484634 31.632812 6.6054688 C 32.716482 6.5624741 33.65805 6.7526985 34.960938 7.7558594 A 2 2 0 0 0 37.765625 7.390625 A 2 2 0 0 0 37.400391 4.5859375 C 35.440218 3.0766984 33.330282 2.5337978 31.474609 2.6074219 C 29.618936 2.681046 28.040215 3.2491347 26.664062 3.6796875 C 25.28791 4.1102403 24.136781 4.4002462 23.146484 4.3261719 C 22.156188 4.2520976 21.205025 3.9196598 19.873047 2.5898438 A 2.0002 2.0002 0 0 0 18.482422 2.0058594 z M 28.542969 11.253906 A 1.80018 1.80018 0 0 0 26.884766 12.300781 L 22.214844 22.46875 A 1.8 1.8 0 0 0 23.099609 24.855469 A 1.8 1.8 0 0 0 25.486328 23.972656 L 28.519531 17.367188 L 30.794922 22.316406 C 29.550493 22.960024 28.478199 23.785188 27.863281 24.912109 C 26.930575 26.621423 26.720703 28.570404 26.720703 30.632812 L 26.720703 34.041016 A 1.8 1.8 0 0 0 28.521484 35.839844 A 1.8 1.8 0 0 0 30.320312 34.041016 L 30.320312 30.632812 C 30.320312 28.852421 30.562852 27.480806 31.023438 26.636719 C 31.484023 25.792632 32.059103 25.289367 33.550781 24.984375 A 1.80018 1.80018 0 0 0 34.826172 22.46875 L 30.15625 12.300781 A 1.80018 1.80018 0 0 0 28.542969 11.253906 z M 39.876953 21.15625 A 1.8 1.8 0 0 0 38.078125 22.957031 L 38.078125 26.363281 C 38.078125 28.143673 37.835586 29.515288 37.375 30.359375 C 36.914414 31.203462 36.339334 31.70868 34.847656 32.013672 A 1.80018 1.80018 0 0 0 33.572266 34.527344 L 38.242188 44.695312 A 1.80018 1.80018 0 0 0 41.513672 44.695312 L 46.183594 34.527344 A 1.8 1.8 0 0 0 45.298828 32.140625 A 1.8 1.8 0 0 0 42.912109 33.025391 L 39.878906 39.630859 L 37.603516 34.681641 C 38.847944 34.038022 39.920239 33.210905 40.535156 32.083984 C 41.467863 30.374671 41.677734 28.425689 41.677734 26.363281 L 41.677734 22.957031 A 1.8 1.8 0 0 0 39.876953 21.15625 z " fill="#008055"/>
</svg>
