<svg xmlns="http://www.w3.org/2000/svg" width="48" height="48">
	<path d="M 24.412035,2.0166231 C 19.719083,1.9256605 14.970596,3.3266843 10.937425,6.3037322 9.7850914,7.1543172 8.7399974,8.0981522 7.8026594,9.1181852 1.2412964,16.258416 0.02852612,27.117243 5.3280504,35.627951 a 1.9,1.9 0 0 0 2.619141,0.609375 1.9,1.9 0 0 0 0.607422,-2.619141 C 3.5274564,25.544882 5.5434634,15.010413 13.195238,9.3623262 20.847012,3.714239 31.51022,4.892619 37.744066,12.075217 c 6.233846,7.182597 5.899162,17.90476 -0.769531,24.685546 -6.668693,6.780788 -17.384419,7.292951 -24.669922,1.179688 a 1.9,1.9 0 0 0 -2.6777346,0.234375 1.9,1.9 0 0 0 0.236328,2.675781 C 18.640607,48.215721 31.649235,47.592203 39.683519,39.422873 47.717802,31.253542 48.125549,18.23645 40.615159,9.5830292 36.390565,4.715479 30.445829,2.133575 24.412035,2.0166231 Z m -0.15625,11.0507809 c -4.664119,-0.0049 -9.405949,1.043712 -13.861329,3.148438 a 1.8,1.8 0 0 0 -0.8593746,2.396484 1.8,1.8 0 0 0 2.3964846,0.857422 c 7.96304,-3.761748 16.840707,-3.708263 24.089843,-0.02344 a 1.8,1.8 0 0 0 2.419922,-0.787107 1.8,1.8 0 0 0 -0.789062,-2.421875 C 33.505237,14.129339 28.919903,13.072323 24.255785,13.067404 Z m -0.353516,6.902344 c -5.343258,-0.01813 -10.660134,1.627086 -14.8828126,5.003906 a 1.8,1.8 0 0 0 -0.28125,2.53125 1.8,1.8 0 0 0 2.5292966,0.28125 c 7.001443,-5.59896 18.214413,-5.486095 25.501953,0.0293 A 1.8,1.8 0 0 0 39.290941,27.465845 1.8,1.8 0 0 0 38.943285,24.94436 C 34.616254,21.669553 29.245527,19.987875 23.902269,19.969748 Z m 0.154297,7.054687 c -4.170526,-0.0138 -8.358518,1.350041 -11.962891,4.13086 a 1.8,1.8 0 0 0 -0.326172,2.523437 1.8,1.8 0 0 0 2.523438,0.326172 c 5.999853,-4.628962 13.555918,-4.527947 19.417968,0 a 1.8,1.8 0 0 0 2.523438,-0.324219 1.8,1.8 0 0 0 -0.324219,-2.52539 c -3.529474,-2.726227 -7.681037,-4.117056 -11.851562,-4.13086 z" fill="#008055"/>
</svg>
