<svg xmlns="http://www.w3.org/2000/svg" width="48" height="48">
	<path d="m 39.265609,1.9156585 a 1.60016,1.60016 0 0 0 -0.19336,0.00781 C 35.206171,2.3357383 32.59535,5.4800023 30.593733,9.2379215 28.592117,12.995841 27.046141,17.614835 25.427718,21.911749 a 1.6,1.6 0 0 0 0.933594,2.060547 1.6,1.6 0 0 0 2.060547,-0.933594 c 1.645606,-4.369086 3.189577,-8.903292 4.996093,-12.294921 1.6544,-3.1060404 3.413779,-4.9757903 5.441407,-5.4667969 1.329599,0.915866 2.164153,1.9228671 2.158203,4.1894534 -0.0065,2.4602595 -1.319767,6.5849795 -4.681641,12.6523435 -1.334495,0.180391 -2.401869,0.531305 -3.097656,1.216796 a 1.6,1.6 0 0 0 -0.01563,2.263672 1.6,1.6 0 0 0 2.261719,0.01563 c -0.05975,0.05886 0.583536,-0.410538 1.992187,-0.460937 A 1.60016,1.60016 0 0 0 38.81053,24.345346 C 42.629473,17.620823 44.209397,13.030602 44.218733,9.474252 44.228033,5.917903 42.320362,3.5127929 40.072249,2.1480804 A 1.60016,1.60016 0 0 0 39.265609,1.9156585 Z M 9.9726397,4.1715179 c -1.640158,0 -3.2360829,0.5381394 -4.3984378,1.6582031 -1.1623546,1.1200637 -1.7929687,2.7647929 -1.7929687,4.53125 v 25.958984 c 0,1.720434 0.3729453,3.394256 1.4472656,4.722657 1.0743204,1.3284 2.8386629,2.078125 4.7441409,2.078125 H 22.439437 a 2,2 0 0 0 2,-2 2,2 0 0 0 -2,-2 H 9.9726397 c -1.009512,0 -1.340396,-0.232176 -1.632813,-0.59375 -0.292417,-0.361575 -0.558594,-1.085165 -0.558594,-2.207032 V 10.360971 c 0,-0.889343 0.246202,-1.339954 0.56836,-1.6503906 0.322158,-0.3104363 0.819315,-0.5390625 1.623047,-0.5390625 H 27.738265 a 2,2 0 0 0 2,-2 2,2 0 0 0 -2,-2 z M 38.400374,6.9293304 A 1.6,1.6 0 0 0 37.162093,7.5836272 C 30.859243,16.198193 25.249323,30.609425 26.353499,44.610971 a 1.6,1.6 0 0 0 1.720703,1.46875 1.6,1.6 0 0 0 1.46875,-1.720703 C 28.520688,31.396163 33.924114,17.428886 39.744124,9.474252 A 1.6,1.6 0 0 0 39.398421,7.2379241 1.6,1.6 0 0 0 38.400374,6.9293304 Z M 24.599593,24.618784 a 1.6,1.6 0 0 0 -0.279297,0.01953 1.6,1.6 0 0 0 -1.337891,1.824219 c 0.121648,0.789851 0.432006,2.047163 0.789063,3.353515 a 1.6,1.6 0 0 0 1.964844,1.121094 1.6,1.6 0 0 0 1.121093,-1.964844 c -0.338442,-1.238248 -0.649198,-2.582546 -0.71289,-2.996094 a 1.6,1.6 0 0 0 -1.544922,-1.357421 z m 11.166016,1.863281 a 1.6,1.6 0 0 0 -1.189454,0.535156 c -1.062073,1.191405 -1.595053,1.488873 -2.972656,2.615234 a 1.6,1.6 0 0 0 -0.226562,2.251953 1.6,1.6 0 0 0 2.251953,0.22461 c 1.270557,-1.038838 2.08453,-1.559096 3.335937,-2.962891 a 1.6,1.6 0 0 0 -0.128906,-2.257812 1.6,1.6 0 0 0 -1.070312,-0.40625 z" fill="#008055"/>
</svg>
