<svg xmlns="http://www.w3.org/2000/svg" width="48" height="48">
	<path d="m 24.05276,1.7816514 c -1.966289,-0.042173 -3.50031,1.1879408 -5.041016,2.890625 -0.0013,0.00139 -0.0026,0.00252 -0.0039,0.00391 C 12.038255,12.257484 7.4769797,20.332042 5.5195633,30.000405 c -0.3646507,1.691347 -0.1969272,3.419329 0.7167968,4.771484 0.9151406,1.354252 2.3600771,2.174374 4.0468749,2.726563 l -0.07422,-0.02539 c 5.02338,1.875395 8.483083,4.339027 12.427734,8.203125 a 1.9,1.9 0 0 0 2.6875,-0.02734 1.9,1.9 0 0 0 -0.02734,-2.685547 C 21.124597,38.876191 17.067138,35.976316 11.539088,33.912511 a 1.90019,1.90019 0 0 0 -0.07422,-0.02539 C 10.238355,33.485609 9.6379618,33.019582 9.3847916,32.644933 9.1316215,32.270284 9.008914,31.829322 9.2324479,30.797277 a 1.90019,1.90019 0 0 0 0.00586,-0.02539 C 11.049664,21.806077 15.17684,14.457298 21.808619,7.2445416 a 1.90019,1.90019 0 0 0 0.0098,-0.01172 c 1.283424,-1.420382 1.95185,-1.656686 2.154297,-1.652344 0.202447,0.0043 0.911166,0.313408 2.152344,1.664062 6.21506,6.8486564 10.777435,14.6119374 12.566406,23.5117194 0.183291,0.962418 0.184676,1.684559 0.06641,2.027344 -0.118498,0.343445 -0.219422,0.586612 -1.253906,0.941406 -3.628566,1.106336 -7.479851,2.698948 -10.466797,5.13086 a 1.9,1.9 0 0 0 -0.273438,2.673828 1.9,1.9 0 0 0 2.673829,0.273437 c 2.368059,-1.928027 5.865065,-3.439566 9.236328,-4.462891 a 1.90019,1.90019 0 0 0 0.06445,-0.02148 c 1.790861,-0.614206 3.115047,-1.856542 3.611328,-3.294922 0.496281,-1.43838 0.301641,-2.793675 0.07422,-3.984375 a 1.90019,1.90019 0 0 0 -0.0039,-0.01758 C 40.470081,20.304437 35.492351,11.911076 28.929713,4.682042 a 1.90019,1.90019 0 0 0 -0.0078,-0.00977 C 27.458163,3.0794302 26.024195,1.8239343 24.05276,1.7816514 Z M 15.814479,19.449621 a 1.7,1.7 0 0 0 -1.640625,1.271484 1.7,1.7 0 0 0 1.214843,2.074219 c 1.820609,0.475461 3.593943,1.107677 5.330079,1.933593 -2.165656,1.632748 -4.260612,3.664455 -6.242188,6.208985 a 1.7,1.7 0 0 0 0.296875,2.386719 1.7,1.7 0 0 0 2.386719,-0.296876 c 2.192,-2.814733 4.460334,-4.895553 6.80664,-6.46875 2.346307,1.573197 4.614645,3.654018 6.806641,6.46875 a 1.7,1.7 0 0 0 2.384766,0.296876 1.7,1.7 0 0 0 0.296875,-2.386719 c -1.981573,-2.54453 -4.07493,-4.576237 -6.240235,-6.208985 1.736134,-0.825915 3.509471,-1.458132 5.330078,-1.933593 a 1.7,1.7 0 0 0 1.214844,-2.074219 1.7,1.7 0 0 0 -1.710937,-1.269531 1.7,1.7 0 0 0 -0.363282,0.05469 c -2.604162,0.680092 -5.197105,1.659351 -7.720703,3.087891 -2.522712,-1.428077 -5.113151,-2.407935 -7.716797,-3.087891 a 1.7,1.7 0 0 0 -0.433593,-0.05664 z" fill="#008055"/>
</svg>
