<svg xmlns="http://www.w3.org/2000/svg" width="48" height="48">
	<path d="m 6.9273173,2.8419603 c -3.1746639,0 -5.4316406,2.7274254 -5.4316406,5.5878907 v 18.847656 c 0,1.404159 0.4924643,2.785442 1.4863281,3.767578 0.9938638,0.982136 2.418086,1.494141 3.9453125,1.494141 h 4.8652337 a 1.8,1.8 0 0 0 1.798828,-1.800781 1.8,1.8 0 0 0 -1.798828,-1.800781 H 6.9273173 c -0.7755232,0 -1.1676017,-0.209573 -1.4140625,-0.453126 C 5.266794,28.240986 5.0952861,27.891129 5.0952861,27.277507 V 8.429851 c 0,-1.0888809 0.6579189,-1.9882812 1.8320312,-1.9882812 H 14.407786 A 1.8,1.8 0 0 0 16.208567,4.6427416 1.8,1.8 0 0 0 14.407786,2.8419603 Z M 18.034739,5.1075854 a 1.8,1.8 0 0 0 -1.798828,1.7988281 1.8,1.8 0 0 0 1.798828,1.8007813 h 5.878906 c 1.567977,0 2.363281,0.9031855 2.363281,2.0449222 a 1.8,1.8 0 0 0 1.798829,1.798828 1.8,1.8 0 0 0 1.800781,-1.798828 c 0,-3.1093748 -2.690497,-5.6445316 -5.962891,-5.6445316 z m -6.197266,2.2207031 a 1.6,1.6 0 0 0 -1.599609,1.5996094 1.6,1.6 0 0 0 1.599609,1.5996091 h 2.386719 A 1.6,1.6 0 0 0 15.823801,8.9278979 1.6,1.6 0 0 0 14.224192,7.3282885 Z m 5.152344,2.515625 a 1.6,1.6 0 0 0 -1.601562,1.5996095 1.6,1.6 0 0 0 1.601562,1.599609 h 2.384766 a 1.6,1.6 0 0 0 1.599609,-1.599609 1.6,1.6 0 0 0 -1.599609,-1.5996095 z m -5.152344,2.4765625 a 1.6,1.6 0 0 0 -1.599609,1.599609 1.6,1.6 0 0 0 1.599609,1.59961 h 2.386719 a 1.6,1.6 0 0 0 1.599609,-1.59961 1.6,1.6 0 0 0 -1.599609,-1.599609 z m 19.857422,2.146484 c -3.214968,-0.114002 -6.48255,0.776074 -9.294922,2.732422 -0.803535,0.558957 -1.53967,1.181761 -2.203125,1.859375 -4.644182,4.743297 -5.789423,12.110697 -2.5,18.123047 a 1.8004168,1.7995831 84.999482 0 0 2.44336,0.712891 1.8004168,1.7995831 84.999482 0 0 0.714843,-2.441407 c -2.890605,-5.283397 -1.343433,-11.860338 3.59961,-15.298828 4.943043,-3.438489 11.642133,-2.599568 15.585937,1.951172 3.943804,4.550739 3.823397,11.304703 -0.279297,15.712891 -4.102692,4.408188 -10.828528,5.007974 -15.646484,1.396484 a 1.8004168,1.7995831 84.999482 0 0 -2.517578,0.363281 1.8004168,1.7995831 84.999482 0 0 0.361328,2.519532 c 6.265986,4.696918 15.102094,3.908473 20.4375,-1.824219 C 47.731474,34.54091 47.88845,25.66666 42.759348,19.74821 39.874229,16.419082 35.828426,14.613534 31.694895,14.46696 Z m -14.705078,0.263672 a 1.6,1.6 0 0 0 -1.601562,1.59961 1.6,1.6 0 0 0 1.601562,1.599609 h 2.384766 a 1.6,1.6 0 0 0 1.599609,-1.599609 1.6,1.6 0 0 0 -1.599609,-1.59961 z m -2.953125,2.777344 a 1.6,1.6 0 0 0 -1.554687,1.298828 l -0.910157,4.761719 c -0.228355,1.050346 -0.13571,2.020736 0.236328,2.816406 0.372038,0.79567 1.044645,1.576136 2.22461,1.582031 a 1.6,1.6 0 0 0 1.607422,-1.591796 1.6,1.6 0 0 0 -0.935547,-1.462891 c -0.03173,-0.09776 -0.09248,-0.265619 -0.0059,-0.664063 a 1.60016,1.60016 0 0 0 0.0098,-0.03906 l 0.916016,-4.802734 a 1.6,1.6 0 0 0 -1.269532,-1.871094 1.6,1.6 0 0 0 -0.318359,-0.02734 z m 17.453125,5.716797 c -1.050738,-0.05405 -2.121871,0.143797 -3.119141,0.611328 -0.664846,0.311687 -1.258863,0.725862 -1.767578,1.216797 -1.526146,1.472805 -2.288444,3.638217 -1.929687,5.8125 a 1.8003961,1.7996038 84.999958 0 0 2.068359,1.484375 1.8003961,1.7996038 84.999958 0 0 1.482422,-2.070313 c -0.218509,-1.324295 0.458913,-2.614027 1.673828,-3.183593 1.214916,-0.569566 2.638283,-0.26535 3.515625,0.75 0.877341,1.015348 0.97147,2.467557 0.232422,3.58789 -0.739048,1.120333 -2.112488,1.607035 -3.390625,1.199219 a 1.8003961,1.7996038 84.999958 0 0 -2.259766,1.166016 1.8003961,1.7996038 84.999958 0 0 1.167969,2.263672 c 2.798155,0.892809 5.868645,-0.192264 7.486328,-2.644532 1.617683,-2.452268 1.40709,-5.704834 -0.513672,-7.927734 -1.200475,-1.389313 -2.895254,-2.175537 -4.646484,-2.265625 z" fill="#008055"/>
</svg>
