<svg xmlns="http://www.w3.org/2000/svg" width="48" height="48">
	<path d="M 30.652344 0.40429688 C 28.284676 0.37249619 25.934309 1.3047215 24.224609 3.109375 A 1.7999911 1.8000089 85.021333 0 0 24.146484 3.1992188 A 1.7999911 1.8000089 85.021333 0 0 24.294922 5.6542969 A 1.7999911 1.8000089 85.021333 0 0 26.839844 5.5859375 C 28.450876 3.8854304 30.98832 3.5051266 33.027344 4.6582031 C 35.066368 5.8112788 36.048866 8.1824654 35.421875 10.439453 C 34.794884 12.69644 32.730284 14.22009 30.388672 14.15625 A 1.7999911 1.8000089 85.021333 0 0 28.541016 15.90625 A 1.7999911 1.8000089 85.021333 0 0 30.291016 17.755859 C 34.267043 17.864258 37.826 15.234686 38.890625 11.402344 C 39.955248 7.5700019 38.261061 3.4813447 34.798828 1.5234375 C 33.50049 0.78922235 32.072944 0.42337729 30.652344 0.40429688 z M 18.28125 5.8300781 C 15.209163 5.7436089 12.175257 7.2886663 10.521484 10.111328 C 8.1941646 14.083601 9.4689273 19.149632 13.259766 21.671875 A 1.7999911 1.8000089 85.021333 0 0 13.558594 21.941406 C 13.571388 21.949062 13.578949 21.961152 13.591797 21.96875 A 1.7999911 1.8000089 85.021333 0 0 13.654297 22.005859 A 1.7999911 1.8000089 85.021333 0 0 13.714844 22.041016 C 13.725664 22.047177 13.739164 22.044673 13.75 22.050781 A 1.7999911 1.8000089 85.021333 0 0 14.142578 22.179688 C 18.212444 24.216808 23.239463 22.814163 25.533203 18.824219 C 27.904793 14.698856 26.482786 9.3807199 22.367188 6.9921875 C 21.081063 6.2457711 19.677653 5.8693823 18.28125 5.8300781 z M 17.671875 9.4199219 C 18.643823 9.3566043 19.64652 9.5750033 20.560547 10.105469 C 22.997951 11.520043 23.818598 14.588069 22.414062 17.03125 C 21.009526 19.47443 17.945066 20.30656 15.496094 18.912109 A 1.7999911 1.8000089 85.021333 0 0 15.460938 18.892578 A 1.7999911 1.8000089 85.021333 0 0 15.423828 18.871094 C 12.998158 17.436493 12.202342 14.36317 13.626953 11.931641 C 14.517335 10.411935 16.051961 9.5254511 17.671875 9.4199219 z M 29.867188 19.103516 A 1.9 1.9 0 0 0 27.96875 21.001953 A 1.9 1.9 0 0 0 29.867188 22.902344 C 33.248399 22.902344 36.074263 23.658881 37.925781 24.992188 C 39.777299 26.325494 40.822266 28.134009 40.822266 31.089844 L 40.822266 36.085938 C 40.822266 36.910583 40.586535 37.436136 40.255859 37.779297 C 39.925183 38.122458 39.444494 38.376953 38.533203 38.376953 L 36.396484 38.376953 A 1.9 1.9 0 0 0 34.498047 40.277344 A 1.9 1.9 0 0 0 36.396484 42.177734 L 38.533203 42.177734 C 40.277743 42.177734 41.892361 41.557367 42.992188 40.416016 C 44.092014 39.274664 44.623047 37.705182 44.623047 36.085938 L 44.623047 31.089844 C 44.623047 27.119929 42.894886 23.887369 40.146484 21.908203 C 37.398083 19.929037 33.796295 19.103516 29.867188 19.103516 z M 17.351562 24.523438 C 13.707742 24.523438 10.27542 25.321955 7.6425781 27.298828 C 5.0097366 29.275701 3.3587417 32.503343 3.3769531 36.519531 L 3.3769531 41.505859 C 3.3769531 43.388949 4.1117859 45.117108 5.4160156 46.171875 C 6.7202453 47.226642 8.3726797 47.597656 10.078125 47.597656 A 1.9 1.9 0 0 0 11.978516 45.697266 A 1.9 1.9 0 0 0 10.078125 43.796875 C 8.9413303 43.796875 8.1923959 43.528768 7.8066406 43.216797 C 7.4208853 42.904826 7.1777344 42.537759 7.1777344 41.505859 L 7.1777344 36.509766 A 1.90019 1.90019 0 0 0 7.1777344 36.501953 C 7.1639158 33.454521 8.1909522 31.639023 9.9238281 30.337891 C 11.656704 29.036758 14.278003 28.322266 17.351562 28.322266 C 20.732775 28.322266 23.558638 29.078803 25.410156 30.412109 C 27.261674 31.745416 28.306641 33.55393 28.306641 36.509766 L 28.306641 41.505859 C 28.306641 42.330505 28.07091 42.856058 27.740234 43.199219 C 27.409558 43.54238 26.928869 43.796875 26.017578 43.796875 L 16.029297 43.796875 A 1.9 1.9 0 0 0 14.128906 45.697266 A 1.9 1.9 0 0 0 16.029297 47.597656 L 26.017578 47.597656 C 27.762118 47.597656 29.376736 46.977289 30.476562 45.835938 C 31.576389 44.694586 32.105469 43.125104 32.105469 41.505859 L 32.105469 36.509766 C 32.105469 32.539851 30.379261 29.307291 27.630859 27.328125 C 24.882458 25.348959 21.28067 24.523438 17.351562 24.523438 z " fill="#008055"/>
</svg>
