<svg xmlns="http://www.w3.org/2000/svg" width="48" height="48">
	<path d="m 8.6542969,6.7226761 c -1.7224044,0 -3.3246488,0.5096136 -4.4238281,1.6406246 -1.0991793,1.131012 -1.546875,2.7054633 -1.546875,4.3496103 l -0.037109,21.960937 a 1.80018,1.80018 0 0 0 0,0.002 c 0,1.626789 0.4624114,3.214849 1.4765624,4.464844 1.0141513,1.249995 2.622358,2.080901 4.4394532,2.134766 A 1.8,1.8 0 0 0 10.414063,39.53127 1.8,1.8 0 0 0 8.6699219,37.677755 c -0.8749347,-0.02594 -1.3521836,-0.314358 -1.75,-0.804688 C 6.522752,36.383534 6.2469872,35.611975 6.2460938,34.679708 v -0.0039 l 0.037109,-21.960937 a 1.80018,1.80018 0 0 0 0,-0.002 c 0,-1.023853 0.2412012,-1.545358 0.5292969,-1.841797 0.2880957,-0.296439 0.7733413,-0.548828 1.8417968,-0.548828 H 39.361328 c 0.845554,0 1.399505,0.244785 1.763672,0.595703 0.364168,0.350918 0.628907,0.861723 0.628907,1.794922 v 21.96289 c 0,1.151736 -0.271992,1.924048 -0.603516,2.333985 -0.331524,0.409937 -0.734772,0.667969 -1.789063,0.667969 H 14.195313 a 1.8,1.8 0 0 0 -1.800781,1.798828 1.8,1.8 0 0 0 1.800781,1.800781 h 25.166015 c 1.860701,0 3.554631,-0.723843 4.589844,-2.003906 1.035213,-1.280064 1.402344,-2.907192 1.402344,-4.597657 v -21.96289 c 0,-1.722602 -0.610124,-3.3071373 -1.730469,-4.3867193 C 42.502702,7.2466097 40.959666,6.7226761 39.361328,6.7226761 Z M 28.384766,15.195333 a 1.6,1.6 0 0 0 -1.042969,0.375 1.6,1.6 0 0 0 -0.197265,2.253906 l 3.644531,4.347656 -3.644531,4.347656 a 1.6,1.6 0 0 0 0.197265,2.253907 1.6,1.6 0 0 0 2.253907,-0.199219 l 3.28125,-3.91211 3.28125,3.91211 a 1.6,1.6 0 0 0 2.253906,0.199219 1.6,1.6 0 0 0 0.199218,-2.253907 l -3.646484,-4.347656 3.646484,-4.347656 a 1.6,1.6 0 0 0 -0.199218,-2.253906 1.6,1.6 0 0 0 -1.080078,-0.373047 1.6,1.6 0 0 0 -1.173828,0.570312 l -3.28125,3.914063 -3.28125,-3.914063 A 1.6,1.6 0 0 0 28.384766,15.195333 Z M 10.15625,15.365255 a 1.6,1.6 0 0 0 -1.5996093,1.599609 1.6,1.6 0 0 0 1.5996093,1.601562 h 3.222657 v 9.150391 a 1.6,1.6 0 0 0 1.599609,1.599609 1.6,1.6 0 0 0 1.599609,-1.599609 v -9.150391 h 3.34961 a 1.6,1.6 0 0 0 1.599609,-1.601562 1.6,1.6 0 0 0 -1.599609,-1.599609 z m 9.699219,5.253906 A 1.60016,1.60016 0 0 0 18.25586,22.21877 v 10.75 a 1.60016,1.60016 0 0 0 1.599609,1.601563 h 6.558594 A 1.6,1.6 0 0 0 28.013672,32.96877 1.6,1.6 0 0 0 26.414063,31.369161 H 21.455078 V 29.15627 h 3.28711 a 1.6,1.6 0 0 0 1.599609,-1.599609 1.6,1.6 0 0 0 -1.599609,-1.59961 h -3.28711 v -2.138672 h 4.958985 a 1.6,1.6 0 0 0 1.601562,-1.599609 1.6,1.6 0 0 0 -1.601562,-1.599609 z" fill="#008055"/>
</svg>
