<svg xmlns="http://www.w3.org/2000/svg" width="48" height="48">
	<path d="m 35.123047,0.17098832 a 2,2 0 0 0 -0.119141,0.001953 2,2 0 0 0 -1.734375,1.15429688 L 17.181641,35.829191 a 2,2 0 0 0 0.966797,2.658203 2,2 0 0 0 2.658203,-0.966797 L 36.894531,3.0166914 a 2,2 0 0 0 -0.966797,-2.65820308 2,2 0 0 0 -0.804687,-0.1875 z M 14.808594,3.2998945 c -1.776725,0 -3.457157,0.5073111 -4.738282,1.5917969 C 8.7891875,5.9761773 8.0078125,7.6621449 8.0078125,9.4698164 V 41.637785 c 0,1.90549 0.749725,3.669827 2.0781245,4.74414 1.3284,1.074315 3.002246,1.447266 4.722657,1.447266 h 18.996094 c 1.766466,0 3.40923,-0.628658 4.529296,-1.791016 1.120067,-1.162356 1.658204,-2.760235 1.658204,-4.40039 V 9.4385664 a 2,2 0 0 0 -2,-2 2,2 0 0 0 -2,2 V 41.637785 c 0,0.803735 -0.226675,1.302844 -0.53711,1.625 -0.310435,0.322156 -0.761027,0.566406 -1.65039,0.566406 H 14.808594 c -1.12183,0 -1.847399,-0.26617 -2.208985,-0.558594 -0.361584,-0.292423 -0.591797,-0.623312 -0.591797,-1.632812 V 9.4698164 c 0,-0.7667484 0.224873,-1.1684914 0.646485,-1.5253906 0.421613,-0.3568992 1.139733,-0.6445313 2.154297,-0.6445313 h 12.605469 a 2,2 0 0 0 2,-2 2,2 0 0 0 -2,-2 z" fill="#008055"/>
</svg>
