<svg xmlns="http://www.w3.org/2000/svg" width="48" height="48">
	<path d="m 7.4326171,0.5427773 c -1.019784,0 -2.066816,0.1363369 -2.9785156,0.8710938 -0.9116993,0.7347569 -1.2890625,1.9510568 -1.2890625,3 V 16.241996 c 0,0.8653 0.1576396,1.841144 0.8554686,2.669922 0.6978291,0.828778 1.8285024,1.201172 2.8437505,1.201172 H 19.458008 a 1.9,1.9 0 0 0 1.90039,-1.898437 1.9,1.9 0 0 0 -1.90039,-1.900391 H 6.954101 c -0.00811,-0.04988 0.011719,0.04477 0.011719,-0.07227 V 4.4138711 c 0,-0.04389 -0.00376,-0.018314 -0.00391,-0.046875 -0.00853,0.016402 0.00423,-0.023437 0.4707031,-0.023437 H 40.567383 c 0.403351,0 0.456194,0.043541 0.472656,0.039062 -4.64e-4,0.023188 -0.0059,-0.00138 -0.0059,0.03125 V 16.241996 c 0,0.135626 0.02411,0.03623 0.01758,0.07227 H 28.147461 a 1.90019,1.90019 0 0 0 -1.898438,1.900391 v 23.253906 c 0,0.827427 -0.256227,1.230317 -0.679687,1.585937 -0.423461,0.355621 -1.096051,0.594506 -1.785156,0.601563 -0.689106,0.0071 -1.342918,-0.215927 -1.751954,-0.556641 -0.409035,-0.340714 -0.673828,-0.742444 -0.673828,-1.630859 v -17.57227 a 1.9,1.9 0 0 0 -1.90039,-1.90039 1.9,1.9 0 0 0 -1.900391,1.90039 v 17.572266 c 0,1.881835 0.820563,3.534182 2.041016,4.550781 1.220452,1.016599 2.741065,1.452693 4.224609,1.4375 1.483544,-0.01519 2.983426,-0.47937 4.189453,-1.492187 1.206027,-1.012818 2.035156,-2.642271 2.035156,-4.496094 V 20.11309 h 11.039063 c 0.980017,0 2.07091,-0.327993 2.798828,-1.125 0.727918,-0.797007 0.949219,-1.816456 0.949219,-2.746094 V 4.4138711 c 0,-1.15705 -0.503011,-2.4156318 -1.433594,-3.09375 C 42.470784,0.6420028 41.474989,0.5427773 40.567383,0.5427773 Z" fill="#008055"/>
</svg>
