<svg xmlns="http://www.w3.org/2000/svg" width="48" height="48">
	<path d="m 20.926288,0.54273326 a 1.8,1.8 0 0 0 -0.769532,0.1816406 C 14.608751,3.4295482 9.7744713,9.4849353 9.7505064,17.65992 a 1.80018,1.80018 0 0 0 0,0.04102 c 0.041029,2.127149 0.1434876,4.437818 0.2636716,6.265625 a 1.80018,1.80018 0 0 0 0.002,0.02344 c 0.06729,0.850596 0.201591,1.587021 0.664063,2.306641 0.462472,0.71962 1.49088,1.278066 2.333984,1.255859 1.677584,-0.04419 2.53045,-0.962105 3.576172,-1.90625 2.183139,-1.922531 4.750129,-3.501953 8.341797,-3.501953 5.986379,0 8.02109,3.773215 8.060547,5.78125 1.24e-4,0.661952 0.07453,1.084055 -0.373047,2.017578 -0.451499,0.941711 -1.450218,2.218003 -4.105469,3.447266 a 1.80018,1.80018 0 0 0 -0.02148,0.01172 c -0.409652,0.196167 -0.717601,0.349294 -1.0625,0.609375 -0.172449,0.13004 -0.371945,0.267873 -0.605469,0.654297 -0.233523,0.386424 -0.389917,1.34689 -0.0098,1.974609 0.380152,0.627719 0.809046,0.755849 1.064453,0.845703 0.255406,0.08985 0.43471,0.1142 0.609375,0.136719 0.349329,0.04504 0.672435,0.05078 1.046875,0.05078 a 1.80018,1.80018 0 0 0 0.0039,0 c 0.918097,-0.0021 1.509295,0.120083 1.771484,0.220703 0.04183,0.01605 0.0297,0.01288 0.05469,0.02344 -0.04006,0.136473 -0.108925,0.527349 -0.460938,1.105469 -0.510647,0.838649 -1.375587,1.838574 -2.166015,2.621093 -0.790428,0.78252 -1.753571,1.476429 -1.5625,1.369141 a 1.80018,1.80018 0 0 0 -0.160156,0.09961 c -0.48706,0.34492 -0.851994,0.577627 -1.232422,1.207031 -0.190215,0.314704 -0.448933,0.874981 -0.25,1.609376 0.198932,0.734394 0.840584,1.187001 1.232422,1.335937 0.783675,0.297873 1.162962,0.176914 1.638671,0.111328 0.47571,-0.06559 0.979377,-0.183641 1.53711,-0.347656 2.23093,-0.656059 5.326854,-2.047959 7.970703,-4.160156 4.849222,-3.874097 8.50281,-9.621142 8.554687,-17.753907 0.03706,-5.815868 -1.973275,-10.447924 -5.990246,-14.365244 a 1.80018,1.80018 0 0 0 -0.02344,-0.02344 C 35.326362,5.9090055 28.171031,4.6826335 21.438006,6.0896083 a 1.8,1.8 0 0 0 -1.392578,2.1308593 1.8,1.8 0 0 0 2.128907,1.3925781 c 5.827138,-1.2176752 11.665288,-0.1459992 15.796875,3.7246093 3.471467,3.388861 4.928564,6.720991 4.896484,11.753906 -0.04532,7.105236 -2.980747,11.59154 -7.203125,14.964844 -0.62683,0.50078 -1.354573,0.871268 -2.056641,1.291015 0.113202,-0.167065 0.266529,-0.281395 0.371094,-0.453125 0.76321,-1.253438 1.5083,-2.816722 0.707031,-4.529297 -0.341273,-0.729412 -0.998685,-1.255378 -1.722656,-1.617187 1.345069,-1.065395 2.386245,-2.171597 2.902344,-3.248047 0.838436,-1.748764 0.730357,-3.5213 0.730469,-3.585938 a 1.80018,1.80018 0 0 0 0,-0.03125 c -0.06737,-4.270813 -4.098666,-9.33789 -11.664063,-9.33789 -4.679752,0 -8.192201,2.171769 -10.720703,4.398437 a 1.80018,1.80018 0 0 0 -0.01563,0.01367 C 13.787263,23.325039 13.85982,23.272495 13.594251,23.427496 13.486146,21.714549 13.390233,19.611914 13.352064,17.661871 13.376024,10.901262 17.339206,6.1040024 21.734877,3.9607 A 1.8,1.8 0 0 0 22.564955,1.55445 1.8,1.8 0 0 0 20.926283,0.54273126 Z M 17.838397,11.109139 a 2.1903305,2.1903305 0 0 0 -2.189453,2.191407 2.1903305,2.1903305 0 0 0 2.189453,2.189452 2.1903305,2.1903305 0 0 0 2.191406,-2.189452 2.1903305,2.1903305 0 0 0 -2.191406,-2.191407 z M 6.7973814,11.781014 a 1.5,1.5 0 0 0 -1.21875,0.636719 C 0.8212595,19.170556 0.8519947,26.88302 2.6528501,32.202889 c 1.8597506,5.493834 5.4068399,9.524827 8.3984379,11.267578 0.556888,0.337383 0.972985,0.622077 1.792968,0.601563 0.41093,-0.01028 1.03917,-0.225597 1.392579,-0.703125 0.353409,-0.477529 0.369565,-0.96919 0.335937,-1.304688 -0.06726,-0.670995 -0.308165,-1.081935 -0.609375,-1.570312 -0.30121,-0.488377 -0.696196,-1.002572 -1.185547,-1.546875 -0.101401,-0.112778 -0.206338,-0.3462 -0.246094,-0.605469 -0.03976,-0.259269 0.02689,-0.565231 -0.0059,-0.470703 0.278647,-0.804446 0.452118,-0.830371 1.089844,-0.847656 0.481732,-0.01291 0.902507,-0.06414 1.3125,-0.191407 0.409992,-0.127265 0.887379,-0.289456 1.267578,-0.929687 0.190099,-0.320116 0.289019,-0.788157 0.216797,-1.189453 -0.07222,-0.401297 -0.267651,-0.701599 -0.455078,-0.908203 -0.374856,-0.413212 -0.746318,-0.571168 -1.144532,-0.712891 l 0.07031,0.02734 c -4.017494,-1.658434 -5.6113345,-3.826899 -6.2089845,-5.898438 -0.59765,-2.071539 -0.1152548,-4.215014 0.5625,-5.554687 a 1.5,1.5 0 0 0 -0.6620654,-2.015621 1.5,1.5 0 0 0 -2.015625,0.662109 c -0.981935,1.940927 -1.6249756,4.768374 -0.7675781,7.740234 0.7023917,2.434589 2.5484614,4.820091 5.71875,6.669922 -0.794659,0.491789 -1.480461,1.186829 -1.8203125,2.167969 -0.1390842,0.401507 -0.083782,0.81058 -0.078125,1.214844 C 8.031991,36.331478 6.4661624,34.109923 5.494647,31.239998 3.9746025,26.749667 3.9003152,20.007825 8.0298033,14.146249 A 1.5,1.5 0 0 0 7.6684751,12.056405 1.5,1.5 0 0 0 6.7973814,11.781014 Z m 22.3007816,34.269531 -0.160157,0.101563 c 0.01517,-0.0085 0.02795,-0.02851 0.04297,-0.03711 0.04277,-0.04316 -0.03605,0.04406 0.117188,-0.06445 z" fill="#008055"/>
</svg>
