<svg xmlns="http://www.w3.org/2000/svg" width="48" height="48">
	<path d="m 17.307617,2.3876971 c -0.760655,0 -1.344737,0.021822 -2.021485,0.2617187 -0.338372,0.1199482 -0.729413,0.3145251 -1.076171,0.6914059 -0.346759,0.376882 -0.572587,0.943658 -0.605469,1.40625 -0.06576,0.925186 0.255622,1.372489 0.466797,1.753907 0.211175,0.381417 0.422402,0.693848 0.609375,1 a 1.90019,1.90019 0 0 0 0.01367,0.02344 c 0.825354,1.311376 0.976908,3.5922433 1.027343,5.9882813 -7.11e-4,0.698732 -0.01647,1.662903 0.697266,2.652344 0.725803,1.006167 2.058937,1.453125 3.386719,1.453125 h 8.341797 c 1.412758,0 2.796812,-0.539722 3.509765,-1.570312 0.712953,-1.030591 0.701172,-2.042532 0.701172,-2.767578 a 1.90019,1.90019 0 0 0 0,-0.01758 c -0.02088,-2.307829 0.04085,-4.2012543 1.027344,-5.6679683 l 0.002,-0.002 c 0,0 0,-0.002 0,-0.002 0.230907,-0.341433 0.468118,-0.684416 0.6875,-1.105468 0.220115,-0.422459 0.522194,-0.960651 0.382813,-1.871094 C 34.318626,3.7038167 33.43676,2.9020512 32.770508,2.6611346 32.104255,2.4202179 31.50719,2.3876971 30.762695,2.3876971 Z m 0.925781,3.8007816 H 29.87207 c -1.314728,2.413112 -1.331701,4.9867023 -1.3125,7.1093753 -0.003,0.238748 -0.03036,0.40784 -0.04688,0.509765 -0.05756,0.0031 -0.103402,0.0098 -0.365234,0.0098 h -8.341797 c -0.190812,0 -0.188772,-8.61e-4 -0.257813,-0.0039 -0.01215,-0.09087 -0.02734,-0.164668 -0.02734,-0.341797 a 1.90019,1.90019 0 0 0 0,-0.03906 c -0.04583,-2.177077 -0.0577,-4.8317103 -1.28711,-7.2441403 z m -6.427734,1.976562 c -1.469523,0 -3.0068541,0.42261 -4.2539064,1.470703 C 6.3047052,10.683837 5.479492,12.40056 5.479492,14.356447 l 0.00195,25.085938 a 2.0002,2.0002 0 0 0 0,0.05859 c 0.055347,1.869443 0.9167697,3.539498 2.2089844,4.58789 1.2922146,1.048392 2.9265076,1.523438 4.5917966,1.523438 a 2.0002,2.0002 0 0 0 0.002,0 l 24.046875,-0.03906 c 1.678603,0 3.310902,-0.459273 4.488282,-1.603515 1.177379,-1.144243 1.701172,-2.807657 1.701172,-4.566407 V 14.356447 c 0,-1.640161 -0.538143,-3.238028 -1.658204,-4.4003903 -1.120061,-1.162362 -2.764787,-1.791016 -4.53125,-1.791016 a 2,2 0 0 0 -2,2.0000003 2,2 0 0 0 2,2 c 0.889338,0 1.339952,0.244243 1.650391,0.566406 0.310439,0.322164 0.539063,0.821262 0.539063,1.625 v 25.046875 c 0,1.032151 -0.238211,1.454234 -0.488282,1.697266 -0.25007,0.243032 -0.711774,0.472656 -1.701172,0.472656 a 2.0002,2.0002 0 0 0 -0.0039,0 l -24.044922,0.03906 c -0.89591,0 -1.624155,-0.265347 -2.072265,-0.628907 -0.4470489,-0.362652 -0.7031146,-0.777204 -0.7285659,-1.5957 l -0.00195,-25.03125 c 0,-0.959112 0.2673369,-1.339546 0.6464839,-1.658203 0.379148,-0.318657 1.00281,-0.533203 1.679688,-0.533203 a 2,2 0 0 0 2,-2 2,2 0 0 0 -2,-2.0000003 z m 19.21875,11.8925783 a 2,2 0 0 0 -1.708985,1.001953 L 22.913086,32.157229 19.02832,25.774416 a 2,2 0 0 0 -2.748047,-0.669922 2,2 0 0 0 -0.667969,2.75 l 5.640625,9.265625 a 2.0002,2.0002 0 0 0 3.441407,-0.04102 l 8.085937,-14.021485 a 2,2 0 0 0 -0.732422,-2.732422 2,2 0 0 0 -1.023437,-0.267578 z" fill="#008055"/>
</svg>
