<svg xmlns="http://www.w3.org/2000/svg" width="48" height="48">
	<path d="m 26.893968,2.1774394 a 1.8,1.8 0 0 0 -1.396484,0.6230469 1.8,1.8 0 0 0 -0.429688,1.0253906 1.8,1.8 0 0 0 1.642578,1.9433594 c 9.480994,0.7978487 16.747917,8.6886327 16.763672,18.2031257 0.01576,9.514492 -7.224825,17.428569 -16.703125,18.257812 a 1.8,1.8 0 0 0 -1.634766,1.949219 1.8,1.8 0 0 0 1.949219,1.636719 C 38.393204,44.826805 47.092452,35.317511 47.073655,23.966502 47.054858,12.615494 38.324153,3.1351497 27.013109,2.1832987 a 1.8,1.8 0 0 0 -0.119141,-0.00586 z m -7.820313,0.4394531 c -0.296933,-0.00134 -0.592124,0.02855 -0.878906,0.085937 C 9.9070961,4.3452874 3.6385972,10.818816 1.6244364,18.159861 a 1.80018,1.80018 0 0 0 -0.013672,0.05469 C -1.4789444,31.045239 6.2472041,42.445951 17.634202,45.284862 a 1.8,1.8 0 0 0 2.181641,-1.310547 1.8,1.8 0 0 0 -1.310547,-2.183594 C 8.9201472,39.401033 2.4639871,30.136911 5.1049051,19.091502 6.7583362,13.095871 12.066672,7.5871221 18.893968,6.23408 a 1.80018,1.80018 0 0 0 0.0059,-0.00195 c 0.159519,-0.03207 0.221333,-0.033284 0.248047,-0.03125 -0.01728,-0.017628 0.08398,0.062104 0.08398,0.5214844 l 0.01172,33.4550786 a 1.8,1.8 0 0 0 1.800782,1.798828 1.8,1.8 0 0 0 1.798828,-1.800781 L 22.831505,6.7223644 c 0,-1.2009073 -0.379041,-2.4032164 -1.287109,-3.2148438 C 20.864061,2.8994702 19.964455,2.6209154 19.073655,2.6168925 Z m 7.720704,5.53125 a 1.7884971,1.8115791 37.990569 0 0 -1.779297,1.5957031 1.7884971,1.8115791 37.990569 0 0 1.55664,1.9980474 c 5.869488,0.680407 10.383992,5.949592 10.373047,12.308594 -0.01094,6.359 -4.507303,11.565613 -10.371094,12.222656 a 1.7884971,1.8115791 37.990569 0 0 -1.611328,1.992188 1.7884971,1.8115791 37.990569 0 0 1.964844,1.591796 C 34.682496,38.988136 40.526542,32.093402 40.540452,24.011424 40.54219,23.001177 40.45455,22.009705 40.28264,21.046581 39.079268,14.304708 33.80303,8.9453825 27.026781,8.1598613 a 1.7884971,1.8115791 37.990569 0 0 -0.232422,-0.011719 z m 0.0625,6.6953125 a 1.6554856,1.745708 37.840201 0 0 -1.732422,1.714844 1.6554856,1.745708 37.840201 0 0 1.607422,1.708984 c 1.404708,-0.0044 2.884507,0.952575 3.74414,2.792969 0.859633,1.840396 0.851242,4.205505 0.02539,5.994141 -0.825851,1.788636 -2.171451,2.681247 -3.576172,2.685547 a 1.6554856,1.745708 37.840201 0 0 -1.769531,1.71875 1.6554856,1.745708 37.840201 0 0 1.605468,1.705078 c 2.876635,-0.0088 5.483468,-1.963346 6.789063,-4.791016 0.652797,-1.413834 0.973811,-2.951127 0.970703,-4.478515 -0.0031,-1.527388 -0.32942,-3.046443 -0.974609,-4.427735 -1.29038,-2.762583 -3.773745,-4.632149 -6.650391,-4.623047 a 1.6554856,1.745708 37.840201 0 0 -0.03906,0 z m -0.181641,5.925782 a 1.60016,1.60016 0 0 0 -1.580078,1.599609 v 3.652344 a 1.60016,1.60016 0 0 0 2.767578,1.091797 c 0.820353,-0.877658 1.024857,-1.914364 1.029297,-2.921875 0.0044,-1.007511 -0.188902,-2.075676 -1.066406,-2.953125 a 1.60016,1.60016 0 0 0 -1.150391,-0.46875 z" fill="#008055"/>
</svg>
