<svg xmlns="http://www.w3.org/2000/svg" width="48" height="48">
	<path d="M 34.905582,2.0643989 C 34.090512,2.0444799 33.248688,2.185968 32.429019,2.4843208 L 9.2083163,10.935493 c -1.6025954,0.583295 -3.0277575,1.496361 -3.8925781,2.933594 -0.8648205,1.437232 -0.9643693,3.312504 -0.3203125,5.082031 a 1.90019,1.90019 0 0 0 0.041016,0.101562 c 0.5894255,1.37066 0.8847745,2.962157 0.8847656,4.75 v 16.042969 c 0,1.883094 0.7348351,3.611242 2.0390624,4.666016 1.3042275,1.054774 2.9566593,1.425781 4.6621093,1.425781 h 24.708984 c 1.744544,0 3.35916,-0.618406 4.458984,-1.759766 1.099824,-1.141358 1.63086,-2.712783 1.63086,-4.332031 V 25.173774 c 0,-0.909302 -0.294698,-2.084312 -1.208985,-2.74414 -0.914286,-0.659829 -1.725892,-0.609375 -2.408203,-0.609375 H 13.571598 a 1.9,1.9 0 0 0 -1.900391,1.90039 1.9,1.9 0 0 0 1.898437,1.898438 l 26.050781,0.002 v 14.224609 c 0,0.824652 -0.235727,1.352146 -0.566406,1.695313 -0.330678,0.343166 -0.81137,0.595703 -1.722656,0.595703 H 12.622379 c -1.13679,0 -1.885727,-0.266149 -2.271485,-0.578125 C 9.9651369,41.246564 9.7200351,40.877556 9.7200351,39.845649 l 0.00195,-16.042969 c 1.11e-5,-2.207956 -0.367098,-4.326011 -1.1953125,-6.251953 l 0.039062,0.101563 C 8.212805,16.682617 8.3177613,16.253164 8.5735507,15.828071 8.8293401,15.402978 9.440863,14.896563 10.509098,14.507759 L 33.727847,6.0565865 c 0.856323,-0.3116944 1.394167,-0.2386631 1.822266,-0.029297 0.428099,0.2093662 0.831236,0.6235273 1.113281,1.3984375 l 0.394531,1.0878907 a 1.90019,1.90019 0 0 0 -0.04492,0.015625 L 12.57941,17.421821 a 1.9,1.9 0 0 0 -1.134766,2.435547 1.9,1.9 0 0 0 2.433594,1.134766 l 24.433594,-8.892579 -0.101563,0.0332 c 0.888227,-0.267463 1.855723,-0.648661 2.449219,-1.710937 0.593496,-1.0622767 0.35933,-2.2233617 0.0098,-3.0957034 L 40.233707,6.1268989 C 39.679892,4.6053093 38.643906,3.311539 37.220035,2.6151802 36.508099,2.2670008 35.720651,2.0843177 34.905582,2.0643989 Z M 22.540347,27.181587 c -0.415633,-0.03734 -0.849051,0.03044 -1.24414,0.251953 -0.790178,0.443029 -1.136719,1.331007 -1.136719,2.091797 v 4.730469 a 1.5,1.5 0 0 0 1.5,1.5 1.5,1.5 0 0 0 1.5,-1.5 v -3.517579 l 5.294922,3.125 -5.654297,3.337891 a 1.5,1.5 0 0 0 -1.140625,-0.527344 1.5,1.5 0 0 0 -1.5,1.5 c 0,0.756122 0.320198,1.623655 1.09375,2.087891 0.773552,0.464236 1.756992,0.317302 2.416016,-0.0918 l 7.289062,-4.300781 -0.04688,0.02539 c 0.636448,-0.345831 1.32465,-0.999541 1.345703,-1.986328 0.02101,-0.984547 -0.66815,-1.695484 -1.320312,-2.060547 l -7.265625,-4.289062 c -0.322296,-0.198951 -0.717369,-0.339805 -1.13086,-0.376953 z" fill="#008055"/>
</svg>
