<svg xmlns="http://www.w3.org/2000/svg" width="48" height="48">
	<path d="m 6.029297,3.2500024 c -1.100888,0 -2.251848,0.2224802 -3.207031,1 C 1.867083,5.027522 1.357422,6.3261063 1.357422,7.6015646 v 4.9023444 c 0,1.1959 0.430631,2.4223 1.318359,3.232422 0.887728,0.810122 2.057579,1.11914 3.197266,1.11914 h 7.966797 c 0.182208,0 0.257357,0.01249 0.292969,0.02148 0.0099,0.02483 0.03125,0.0953 0.03125,0.320312 v 23.427735 c 0,1.029382 0.272838,2.122314 1.044922,2.947265 0.772083,0.824952 1.910978,1.177735 2.972656,1.177735 h 9.25 a 1.9,1.9 0 0 0 1.90039,-1.900391 1.9,1.9 0 0 0 -1.90039,-1.898437 h -9.25 c -0.127747,0 -0.154211,-0.0053 -0.1875,-0.0098 -0.01252,-0.05228 -0.0293,-0.136208 -0.0293,-0.316406 V 17.197268 c 0,-1.023811 -0.290462,-2.122825 -1.074219,-2.947265 -0.783756,-0.82444 -1.936938,-1.195313 -3.050781,-1.195313 H 5.873047 c -0.48046,0 -0.619978,-0.111505 -0.634766,-0.125 -0.014787,-0.0135 -0.082031,-0.0136 -0.082031,-0.425781 V 7.6015646 c 0,-0.463146 0.047908,-0.390829 0.064453,-0.404297 0.016545,-0.01347 0.252502,-0.146484 0.808594,-0.146484 H 40.089844 A 1.9,1.9 0 0 0 41.990235,5.150393 1.9,1.9 0 0 0 40.089844,3.2500024 Z m 33.541016,9.1777346 a 1.9,1.9 0 0 0 -1.900391,1.900391 1.9,1.9 0 0 0 1.900391,1.90039 h 1.505859 a 1.9,1.9 0 0 0 1.900391,-1.90039 1.9,1.9 0 0 0 -1.900391,-1.900391 z m -13.576172,0.558594 a 1.9,1.9 0 0 0 -1.900391,1.90039 1.9,1.9 0 0 0 1.900391,1.900391 H 27.5 A 1.9,1.9 0 0 0 29.400391,14.886721 1.9,1.9 0 0 0 27.5,12.986331 Z m 8.0625,5.015625 a 1.9,1.9 0 0 0 -1.900391,1.900391 1.9,1.9 0 0 0 1.900391,1.90039 H 35.5625 a 1.9,1.9 0 0 0 1.900391,-1.90039 1.9,1.9 0 0 0 -1.900391,-1.900391 z m -7.982422,2.275391 a 1.9,1.9 0 0 0 -1.900391,1.90039 1.9,1.9 0 0 0 1.900391,1.898438 h 1.505859 a 1.9,1.9 0 0 0 1.900391,-1.898438 1.9,1.9 0 0 0 -1.900391,-1.90039 z m 17.162109,2.042968 a 1.9,1.9 0 0 0 -1.90039,1.900391 1.9,1.9 0 0 0 1.90039,1.898437 h 1.507813 a 1.9,1.9 0 0 0 1.898437,-1.898437 1.9,1.9 0 0 0 -1.898437,-1.900391 z m -9.398437,3.701172 a 1.9,1.9 0 0 0 -1.900391,1.900391 1.9,1.9 0 0 0 1.900391,1.90039 h 1.507812 a 1.9,1.9 0 0 0 1.898438,-1.90039 1.9,1.9 0 0 0 -1.898438,-1.900391 z m -8.017578,1.273438 a 1.9,1.9 0 0 0 -1.898438,1.90039 1.9,1.9 0 0 0 1.898438,1.900391 h 1.507812 a 1.9,1.9 0 0 0 1.900391,-1.900391 1.9,1.9 0 0 0 -1.900391,-1.90039 z m 13.232422,4.794922 a 1.9,1.9 0 0 0 -1.900391,1.90039 1.9,1.9 0 0 0 1.900391,1.900391 h 1.505859 a 1.9,1.9 0 0 0 1.900391,-1.900391 1.9,1.9 0 0 0 -1.900391,-1.90039 z m -13.175782,1.847656 a 1.9,1.9 0 0 0 -1.90039,1.90039 1.9,1.9 0 0 0 1.90039,1.900391 h 1.50586 a 1.9,1.9 0 0 0 1.90039,-1.900391 1.9,1.9 0 0 0 -1.90039,-1.90039 z" fill="#008055"/>
</svg>
