<svg xmlns="http://www.w3.org/2000/svg" width="48" height="48">
	<path d="M 25.886292,2.1024908 C 14.977781,2.1353433 6.1710236,6.9250274 2.7066046,16.241163 a 2.0002,2.0002 0 0 0 -0.027344,0.08008 c -2.48794596,7.661475 -0.903268,15.601225 3.283203,22.353516 A 2,2 0 0 0 8.71637,39.321241 2,2 0 0 0 9.3628544,36.567335 C 5.6781226,30.624291 4.4079806,24.01419 6.4741826,17.602491 9.352649,9.9084441 16.10031,6.1335863 25.892151,6.1024908 c 5.272563,0 8.924793,1.824897 11.576172,4.3007812 2.58449,2.413422 4.13775,5.506769 4.894532,8.066406 C 34.87515,15.658736 29.500178,16.270913 26.462464,18.180616 a 2.0002,2.0002 0 0 0 -0.01563,0.0098 c -0.501123,0.321236 -0.932105,0.645721 -1.314453,1.140626 -0.382349,0.494904 -0.692778,1.293703 -0.595703,2.05664 0.194149,1.525875 1.130566,2.001411 1.736328,2.44336 a 2.0002,2.0002 0 0 0 0.02539,0.01758 c 2.902196,2.048707 4.571349,6.729407 3.691407,9.203125 -0.491623,1.327781 -0.282967,2.712276 0.177734,3.607421 0.466126,0.905688 1.120374,1.451024 1.28125,1.59961 a 2.0002,2.0002 0 0 0 0.07813,0.06836 c 1.476853,1.22813 3.482887,1.893328 5.660156,2.578125 2.177271,0.684797 4.291085,1.200221 5.78711,1.332032 a 2,2 0 0 0 2.167969,-1.81836 2,2 0 0 0 -1.816407,-2.166016 c -0.795525,-0.07013 -2.960991,-0.542447 -4.9375,-1.1641 -1.963945,-0.617702 -3.951112,-1.563941 -4.277343,-1.826172 -0.196324,-0.186737 -0.336899,-0.332998 -0.388672,-0.433594 -0.05854,-0.113737 -0.109908,-0.05477 0.01953,-0.392578 a 2.0002,2.0002 0 0 0 0.01563,-0.04492 c 1.624321,-4.566334 -0.528006,-9.896221 -4.431641,-13.11914 1.904325,-0.820047 5.880676,-1.35907 12.078125,1.072265 a 2.0002,2.0002 0 0 0 0.002,0 c 1.236768,0.483858 2.815794,0.499181 3.970704,-0.533203 1.154909,-1.032384 1.343258,-2.719269 0.929687,-4.208984 a 2.0002,2.0002 0 0 0 -0.002,-0.0078 C 45.39715,14.37924 43.504222,10.56791 40.196839,7.4794439 36.889457,4.3909782 32.118219,2.1024908 25.892151,2.1024908 a 2.0002,2.0002 0 0 0 -0.0059,0 z m -6.039063,8.3457032 a 4.1964321,4.1960983 0 0 0 -4.152343,4.195313 4.1964321,4.1960983 0 0 0 4.197265,4.197265 4.1964321,4.1960983 0 0 0 4.197266,-4.197265 4.1964321,4.1960983 0 0 0 -4.197266,-4.195313 4.1964321,4.1960983 0 0 0 -0.04492,0 z m -8.568359,27.90625 a 2,2 0 0 0 -0.404297,0.04297 2,2 0 0 0 -1.548828,2.365234 c 0.4876375,2.333155 2.122083,4.042001 4.019531,4.517578 1.169172,0.293042 2.333781,0.02953 3.410157,-0.478515 1.159644,0.877109 2.58312,1.256136 3.810546,1.033203 1.136815,-0.206476 2.055465,-0.799225 2.835938,-1.550782 4.498119,1.784037 8.703563,1.890345 12.806641,0.738282 a 2,2 0 0 0 1.384765,-2.464844 2,2 0 0 0 -2.466796,-1.386719 c -3.851214,1.081345 -7.141278,1.012106 -11.455079,-1.041015 a 2.0002,2.0002 0 0 0 -2.664062,0.943359 c -0.11901,0.248961 -0.719223,0.746796 -1.15625,0.826172 -0.437028,0.07938 -0.576589,0.189867 -1.027344,-0.613281 a 2.0002,2.0002 0 0 0 -3.267578,-0.316407 c -0.345744,0.407132 -0.833029,0.53126 -1.238281,0.429688 -0.405252,-0.101573 -0.84001,-0.325133 -1.076172,-1.455078 A 2,2 0 0 0 11.27887,38.354444 Z" fill="#008055"/>
</svg>
