<svg xmlns="http://www.w3.org/2000/svg" width="48" height="48">
	<path d="m 32.258507,4.566145 c -0.984569,0.035395 -1.964985,0.2068029 -2.898438,0.5078125 -3.733811,1.2040384 -6.967441,4.8250329 -6.648437,9.8378905 0.0091,0.147102 -0.0083,0.18219 -0.01172,0.296875 C 16.515984,14.272269 10.707117,9.5641546 8.9225696,7.1032543 A 2,2 0 0 0 6.1296008,6.6579418 2,2 0 0 0 5.6842883,9.4509105 c 2.632768,3.6306005 8.8401807,8.6378125 16.5566407,9.7480465 a 2.0002,2.0002 0 0 0 0.01367,0.002 c 0.685826,0.09321 1.313894,0.12567 1.998047,-0.03125 0.684152,-0.156919 1.451668,-0.61837 1.880859,-1.248047 0.858381,-1.259353 0.630452,-2.295783 0.570312,-3.261718 a 2.0002,2.0002 0 0 0 -0.002,-0.002 c -0.210546,-3.308543 1.5677,-5.0295324 3.886719,-5.7773439 2.319019,-0.7478116 4.914999,-0.1580467 6.136719,1.5996089 a 2.0002,2.0002 0 0 0 0.09375,0.125 c 1.188278,1.451143 3.167745,1.871177 4.660156,1.501954 1.492411,-0.369224 2.696285,-1.255229 3.597656,-2.3652348 a 2,2 0 0 0 -0.291015,-2.8144531 2,2 0 0 0 -2.8125,0.2910156 c -0.39343,0.484494 -1.051374,0.9059826 -1.455078,1.0058594 -0.403705,0.099876 -0.354455,0.1498606 -0.603516,-0.1542969 l 0.0938,0.1269531 c -1.812578,-2.607708 -4.796293,-3.7370436 -7.75,-3.6308593 z M 6.3268664,13.325911 a 2,2 0 0 0 -0.4023437,0.05664 2,2 0 0 0 -1.4707035,2.416015 c 0.6713076,2.757045 2.8796418,4.411503 4.9335941,5.675782 A 2,2 0 0 0 12.139366,20.820051 2,2 0 0 0 11.48507,18.068098 C 9.7384219,16.992976 8.5890315,15.87381 8.3405383,14.853254 A 2,2 0 0 0 6.3268664,13.325911 Z m 34.4531246,1.876952 a 2,2 0 0 0 -1.986328,2.011719 c 0.04437,7.237896 -4.109027,14.673629 -10.33789,18.824219 -4.648393,3.097445 -10.334692,4.4513 -16.492188,2.685547 2.274699,-0.706964 4.20155,-1.759981 5.996094,-2.837891 a 2,2 0 0 0 0.685547,-2.744141 2,2 0 0 0 -2.744141,-0.683593 c -3.410081,2.048298 -5.9848993,3.52372 -11.2421873,3.035156 A 2.0002,2.0002 0 0 0 3.4049912,39.17552 c 9.7916858,6.196787 19.9112708,5.094566 27.2695318,0.191406 7.35826,-4.90316 12.172773,-13.426177 12.11914,-22.175781 A 2,2 0 0 0 40.779991,15.202863 Z M 8.9069446,21.954816 a 2,2 0 0 0 -0.6347656,0.09961 2,2 0 0 0 -1.2734376,2.52539 C 7.8929379,27.2961 10.10162,28.975154 12.22921,30.179426 A 2,2 0 0 0 14.95382,29.42552 2,2 0 0 0 14.19796,26.698957 C 12.454351,25.712029 11.214373,24.59398 10.79757,23.327863 A 2,2 0 0 0 8.9069446,21.954816 Z" fill="#008055"/>
</svg>
