<svg xmlns="http://www.w3.org/2000/svg" width="48" height="48">
	<path d="M 36.426056,2.5221354 C 35.28658,2.4876764 34.401872,3.1427321 33.752228,3.8326823 a 1.70017,1.70017 0 0 0 -0.01758,0.019531 l -3.9375,4.3144532 0.0059,-0.00391 c -0.277183,0.3010695 -0.530092,0.6022878 -0.744141,1.015625 -0.214049,0.4133371 -0.382308,1.0160885 -0.263672,1.6328125 0.237274,1.233447 1.117483,1.721196 1.890625,2.142578 l -0.04105,-0.02344 c 0.356394,0.207212 0.527343,0.496513 0.527343,0.826171 v 16.433595 c 0,2.188944 -0.324452,2.55702 -1.52539,3.421875 -1.032763,0.743673 -3.241377,1.466797 -6.13086,1.466797 -2.562737,0 -4.534336,-0.669452 -5.445312,-1.353516 -1.07739,-0.808948 -1.438194,-1.201287 -1.427734,-3.509766 a 1.70017,1.70017 0 0 0 0,-0.0078 V 18.285807 a 1.7,1.7 0 0 0 -1.701172,-1.699218 1.7,1.7 0 0 0 -1.699219,1.699218 V 30.19987 c -0.01346,2.970521 1.1566,5.019889 2.787109,6.244141 1.796924,1.349335 4.382246,2.035156 7.486328,2.035156 3.411658,0 6.20223,-0.728495 8.117188,-2.107422 1.746782,-1.257945 2.939453,-3.312785 2.939453,-6.18164 V 13.75651 c 0,-1.50976 -0.852246,-2.789015 -2.017578,-3.568359 L 36.22879,6.1627604 c 0.347396,-0.3689499 0.341216,-0.234704 0.09375,-0.2421875 -0.241434,-0.0073 -0.139911,-0.066498 0.226563,0.3183594 l 0.002,0.00195 c 0.0067,0.00705 -0.003,-0.0015 0.0039,0.00586 l 3.683594,3.9999997 c -1.207414,0.807675 -2.066448,2.057085 -2.066448,3.509768 v 16.435548 c 0,3.877624 -1.76936,7.183015 -4.433593,9.101562 -2.743426,1.975575 -6.295616,2.785157 -10.222657,2.785157 -3.640448,0 -7.021439,-0.781421 -9.648437,-2.753907 -2.55258,-1.916615 -4.242375,-5.212825 -4.224609,-9.142578 a 1.70017,1.70017 0 0 0 0,-0.0059 V 13.883464 a 1.70017,1.70017 0 0 0 -0.00195,-0.05469 c -0.041429,-1.268545 -0.782181,-2.6554 -2.054687,-3.611328 0.084486,-0.132912 0.00672,0.02186 0.212891,-0.214844 l 3.402343,-3.6953124 c 0.241343,-0.2137428 0.257081,-0.2330774 0.257813,-0.2480469 0.02997,0.032021 0.0048,0.012539 0.06055,0.072266 l 3.71875,4.0390623 c -1.797471,1.148259 -1.970703,3.111328 -1.970703,3.111328 a 1.7,1.7 0 0 0 1.382812,1.966797 1.7,1.7 0 0 0 1.966797,-1.384765 c 0,0 0.390091,-0.846532 0.460937,-0.884766 l -0.01562,0.0078 c 0.421882,-0.2223 0.800384,-0.451666 1.160149,-0.802732 0.359765,-0.351067 0.716172,-0.899804 0.791015,-1.53711 C 19.16265,9.3808944 18.465758,8.6440676 17.881134,8.0221354 l -0.0059,-0.00781 -3.861329,-4.1953125 a 1.70017,1.70017 0 0 0 -0.0078,-0.00781 C 13.305855,3.060667 12.264131,2.4424675 11.16629,2.5748697 10.068449,2.707272 9.406572,3.3173429 8.810821,3.8893229 A 1.70017,1.70017 0 0 0 8.736603,3.9654949 L 5.265899,7.7350262 a 1.70017,1.70017 0 0 0 -0.03125,0.035156 c -0.551324,0.6329712 -1.15551,1.0823396 -1.326171,2.2890628 -0.085331,0.603361 0.135798,1.344485 0.478515,1.796875 0.342718,0.45239 0.724801,0.715625 1.136719,0.966797 l -0.023437,-0.01367 c 0.733226,0.463019 0.72548,0.619294 0.742187,1.130859 v 16.236329 c -0.019885,4.915163 2.114907,9.262416 5.583984,11.867187 3.396563,2.550315 7.562102,3.435547 11.689453,3.435547 4.3926,0 8.700331,-0.899156 12.208985,-3.425781 3.587847,-2.583653 5.847656,-6.945153 5.847656,-11.861328 V 13.75651 c 0,-0.346706 0.175856,-0.671851 0.613281,-0.873046 a 1.70017,1.70017 0 0 0 0.02539,-0.01172 c 0.418353,-0.200779 0.796732,-0.409687 1.171875,-0.779297 0.375143,-0.369611 0.73713,-1.036914 0.726562,-1.703125 -0.0204,-1.2862543 -0.693297,-1.7833946 -1.259765,-2.3261722 L 39.049102,3.9361977 a 1.70017,1.70017 0 0 0 -0.0059,-0.00781 C 38.381234,3.218143 37.565491,2.5565962 36.426015,2.5221377 Z" fill="#008055"/>
</svg>
