<svg xmlns="http://www.w3.org/2000/svg" width="48" height="48">
	<path d="m 8.6533206,6.6230005 c -1.74057,0 -3.370478,0.515728 -4.492188,1.669922 -1.121709,1.154194 -1.576171,2.7585445 -1.576171,4.4199215 v 9.634765 a 1.9,1.9 0 0 0 1.898437,1.898438 1.9,1.9 0 0 0 1.900391,-1.898438 v -9.634765 c 0,-1.006623 0.236387,-1.498228 0.501953,-1.771485 0.265565,-0.273256 0.717288,-0.517578 1.767578,-0.517578 H 39.362305 c 0.824643,0 1.350197,0.23573 1.69336,0.566407 0.343162,0.330678 0.597656,0.811385 0.597656,1.722656 v 21.962891 c 0,1.13683 -0.268114,1.885739 -0.580078,2.271484 -0.311965,0.385745 -0.679027,0.630859 -1.710938,0.630859 H 8.6162116 c -0.792779,0 -1.224525,-0.238548 -1.59961,-0.68164 -0.374783,-0.442736 -0.669447,-1.186427 -0.669922,-2.21875 v -0.002 l 0.00586,-5.105469 v -0.002 c 0.00189,-0.478013 0.094841,-0.526506 0.072265,-0.503907 -0.022661,0.02268 0.026348,-0.07617 0.533203,-0.07617 h 5.0859384 c 0.685564,0 0.999561,0.120696 1.220703,0.267578 0.221142,0.146881 0.440103,0.387316 0.693359,0.951172 a 1.90019,1.90019 0 0 0 0.01758,0.03516 c 0.255378,0.539114 0.524383,1.011286 0.984376,1.455078 0.459992,0.443791 1.316015,0.883665 2.195312,0.742187 0.879297,-0.141478 1.41835,-0.67694 1.763672,-1.134765 0.343504,-0.455415 0.566909,-0.927037 0.771484,-1.458985 l 3.806641,-9.404297 2.173828,5.207032 a 1.90019,1.90019 0 0 0 0.03125,0.07031 c 0.549824,1.180738 1.246655,2.124555 2.226563,2.677735 0.979907,0.553179 1.966846,0.589843 2.787109,0.589843 h 7.470703 a 1.9,1.9 0 0 0 1.900391,-1.898437 1.9,1.9 0 0 0 -1.900391,-1.900391 h -7.470703 c -0.649737,0 -0.848714,-0.06247 -0.917969,-0.101562 -0.06868,-0.03877 -0.283068,-0.189597 -0.646484,-0.964844 l -2.701172,-6.470703 0.01563,0.04102 c -0.251751,-0.645015 -0.504678,-1.182021 -0.917976,-1.695226 -0.413298,-0.513205 -1.21108,-1.138225 -2.234375,-1.0625 -1.023295,0.07572 -1.6278,0.70575 -1.994141,1.205078 -0.36634,0.499328 -0.606173,1.022595 -0.839843,1.63086 l -3.857422,9.529296 C 16.273271,26.838622 15.86476,26.42093 15.366212,26.089797 14.412208,25.456153 13.251841,25.187453 12.043946,25.187453 H 6.9580076 c -1.161365,0 -2.363719,0.333521 -3.220703,1.191406 -0.856983,0.857886 -1.182735,2.049917 -1.185547,3.183594 a 1.90019,1.90019 0 0 0 0,0.002 l -0.00586,5.109375 a 1.90019,1.90019 0 0 0 0,0.002 c 0,1.757675 0.504013,3.416148 1.570313,4.675781 1.066299,1.259632 2.718358,2.02539 4.5,2.02539 H 39.362305 c 1.883079,0 3.611243,-0.734832 4.666016,-2.039062 1.054773,-1.30423 1.425781,-2.95664 1.425781,-4.662109 V 12.712844 c 0,-1.744529 -0.620369,-3.3591615 -1.761719,-4.4589845 -1.141349,-1.099822 -2.71083,-1.630859 -4.330078,-1.630859 z" fill="#008055"/>
</svg>
