<svg xmlns="http://www.w3.org/2000/svg" width="48" height="48">
	<path d="m 26.908203,2.1768142 a 1.8,1.8 0 0 0 -1.394531,0.6269531 1.8,1.8 0 0 0 -0.429688,1.0214843 1.8,1.8 0 0 0 1.642579,1.9453126 c 9.480993,0.7978472 16.745962,8.6886318 16.761718,18.2031248 0.01575,9.514492 -7.222872,17.426615 -16.701172,18.255859 a 1.8,1.8 0 0 0 -1.636718,1.949219 1.8,1.8 0 0 0 1.951172,1.636719 C 38.409392,44.826179 47.106686,35.318838 47.087891,23.967829 47.069093,12.616821 38.338388,3.1345248 27.027344,2.1826735 a 1.8,1.8 0 0 0 -0.119141,-0.00586 z m -5.816406,0.00195 a 1.8,1.8 0 0 0 -0.119141,0.00586 C 9.661612,3.136478 0.930906,12.614868 0.912109,23.965876 0.893364,35.285914 9.545858,44.772798 20.808594,45.80572 a 1.8,1.8 0 0 0 0.01563,0.002 c 0.02556,0.0023 0.05058,0.0056 0.07617,0.0078 a 1.8,1.8 0 0 0 0.113281,0.0059 1.8,1.8 0 0 0 0.04297,0.002 1.8,1.8 0 0 0 0.05664,-0.002 1.8,1.8 0 0 0 0.01367,0 1.8,1.8 0 0 0 0.01367,0 1.8,1.8 0 0 0 0.08984,-0.0078 1.8,1.8 0 0 0 0.0078,0 1.8,1.8 0 0 0 0.002,0 1.8,1.8 0 0 0 0.111329,-0.01563 1.8,1.8 0 0 0 0.109374,-0.02148 1.8,1.8 0 0 0 0.109376,-0.0293 1.8,1.8 0 0 0 0.107421,-0.03516 1.8,1.8 0 0 0 0.207032,-0.0918 1.8,1.8 0 0 0 0.09766,-0.05469 1.8,1.8 0 0 0 0.0957,-0.06055 1.8,1.8 0 0 0 0.08984,-0.06641 1.8,1.8 0 0 0 0.08594,-0.07227 1.8,1.8 0 0 0 0.08203,-0.07813 1.8,1.8 0 0 0 0.07422,-0.07813 1.8,1.8 0 0 0 0.0039,-0.0039 1.8,1.8 0 0 0 0.002,-0.0039 1.8,1.8 0 0 0 0.06836,-0.08398 1.8,1.8 0 0 0 0.02539,-0.0332 1.8,1.8 0 0 0 0.04102,-0.05859 1.8,1.8 0 0 0 0.02344,-0.03516 1.8,1.8 0 0 0 0.03711,-0.06055 1.8,1.8 0 0 0 0.05273,-0.09766 1.8,1.8 0 0 0 0.01953,-0.03906 1.8,1.8 0 0 0 0.0293,-0.06445 1.8,1.8 0 0 0 0.01563,-0.03711 1.8,1.8 0 0 0 0.02539,-0.06836 1.8,1.8 0 0 0 0.0039,-0.0098 1.8,1.8 0 0 0 0.0293,-0.09766 1.8,1.8 0 0 0 0.01953,-0.07422 1.8,1.8 0 0 0 0.01367,-0.05859 1.8,1.8 0 0 0 0.0039,-0.01563 1.8,1.8 0 0 0 0.01172,-0.07031 1.8,1.8 0 0 0 0.0059,-0.04102 1.8,1.8 0 0 0 0.0078,-0.07227 1.8,1.8 0 0 0 0,-0.0059 1.8,1.8 0 0 0 0.0059,-0.07617 1.8,1.8 0 0 0 0.002,-0.06055 1.8,1.8 0 0 0 0,-0.01172 1.8,1.8 0 0 0 0,-0.0078 V 4.8506423 A 1.8,1.8 0 0 0 22.830078,4.5459548 1.8,1.8 0 0 0 22.917969,3.8252516 1.8,1.8 0 0 0 22.488281,2.8018142 1.8,1.8 0 0 0 21.091797,2.1787673 Z M 19.257813,6.0635329 V 41.944392 C 10.759555,40.273979 4.497069,32.818682 4.511719,23.971736 4.526335,15.145249 10.784133,7.7284159 19.257813,6.0635329 Z m 7.552734,2.0859375 a 1.7884971,1.8115791 37.990569 0 0 -1.779297,1.595703 1.7884971,1.8115791 37.990569 0 0 1.556641,1.9980466 c 5.869487,0.680407 10.385945,5.947639 10.375,12.306641 -0.01094,6.359001 -4.51121,11.567566 -10.375,12.224609 a 1.7884971,1.8115791 37.990569 0 0 -1.609375,1.992187 1.7884971,1.8115791 37.990569 0 0 1.964843,1.589844 c 7.755326,-0.868991 13.599371,-7.761772 13.613282,-15.84375 0.0017,-1.010247 -0.08785,-2.001719 -0.259766,-2.964844 C 39.093504,14.306036 33.819218,8.9467104 27.042969,8.1611892 a 1.7884971,1.8115791 37.990569 0 0 -0.232422,-0.011719 z m 0.06055,6.6933586 a 1.6554856,1.745708 37.840201 0 0 -1.730469,1.71875 1.6554856,1.745708 37.840201 0 0 1.607422,1.705078 c 1.404709,-0.0044 2.884508,0.952574 3.74414,2.792969 0.859633,1.840395 0.851242,4.205505 0.02539,5.994141 -0.825851,1.788635 -2.171451,2.681247 -3.576172,2.685547 a 1.6554856,1.745708 37.840201 0 0 -1.769531,1.71875 1.6554856,1.745708 37.840201 0 0 1.605469,1.707031 c 2.876635,-0.0088 5.481514,-1.965299 6.787109,-4.792969 0.652798,-1.413833 0.975763,-2.949174 0.972656,-4.476562 -0.0031,-1.527387 -0.331373,-3.048395 -0.976562,-4.429688 -1.29038,-2.762583 -3.771792,-4.632149 -6.648438,-4.623047 a 1.6554856,1.745708 37.840201 0 0 -0.04102,0 z m -0.181641,5.927735 a 1.60016,1.60016 0 0 0 -1.580078,1.599609 v 3.652344 a 1.60016,1.60016 0 0 0 2.769531,1.091797 c 0.820354,-0.877658 1.024857,-1.914364 1.029297,-2.921875 0.0044,-1.007511 -0.188902,-2.077629 -1.066406,-2.955078 a 1.60016,1.60016 0 0 0 -1.152344,-0.466797 z" fill="#008055"/>
</svg>
