<svg xmlns="http://www.w3.org/2000/svg" width="48" height="48">
	<path d="m 8.9589843,4.4384765 c -1.7113096,0 -3.2760827,0.665649 -4.2324219,1.847656 -0.9563387,1.182007 -1.2929687,2.682927 -1.2929687,4.2343755 v 6.878906 a 1.7,1.7 0 0 0 1.6992187,1.699218 1.7,1.7 0 0 0 1.7011719,-1.699218 v -6.878906 c 0,-1.0424515 0.2436703,-1.7354355 0.5351564,-2.0957035 0.291486,-0.360268 0.6397733,-0.585937 1.5898436,-0.585937 H 39.039062 c 0.760305,0 1.249789,0.216662 1.570313,0.52539 0.320524,0.308728 0.55664,0.75874 0.55664,1.597657 V 23.030273 c 0,0.233465 -0.0785,0.383919 -0.123047,0.435547 -0.04454,0.05163 -0.01827,0.06834 -0.205078,0.06836 -0.945347,0 -1.942326,0.1989 -2.759765,0.837891 -0.81744,0.63899 -1.283077,1.617316 -1.47461,2.634765 l 0.0059,-0.03516 -0.296875,1.412109 -2.972656,-13.353515 a 1.70017,1.70017 0 0 0 -0.002,-0.01563 c -0.135863,-0.584032 -0.310034,-1.084624 -0.65039,-1.570313 -0.340356,-0.485687 -1.029727,-1.059383 -1.923828,-1.02539 -0.894102,0.03399 -1.476726,0.597731 -1.791016,1.058593 -0.31429,0.460864 -0.477775,0.933389 -0.595703,1.458985 l 0.01563,-0.06836 -3.939453,14.654296 -3.720703,-14.347656 c -0.138375,-0.594556 -0.329478,-1.11558 -0.6875,-1.603516 -0.358023,-0.487934 -1.016211,-1.014453 -1.875,-1.017578 -0.858789,-0.0031 -1.521961,0.519767 -1.876954,1.001954 -0.354078,0.480947 -0.535317,0.991996 -0.660156,1.558593 -3.21e-4,0.0015 -0.0016,0.0024 -0.002,0.0039 l -3.208936,13.476579 -0.822266,-3.863282 a 1.70017,1.70017 0 0 0 -0.01172,-0.04688 C 11.345887,23.687696 10.918901,22.753138 10.140625,22.063477 9.3623492,21.373815 8.3076254,21.0655 7.2929688,21.06543 c -1.1718543,0 -2.3197432,0.522748 -2.984375,1.363281 -0.6646319,0.840534 -0.8750001,1.83407 -0.8750001,2.769531 v 12.841797 c 0,1.584784 0.5628251,3.046222 1.5976564,4.042969 1.034831,0.996746 2.4567789,1.478515 3.9277342,1.478515 H 39.039062 c 1.71131,0 3.276083,-0.665649 4.232422,-1.847656 0.956339,-1.182006 1.294922,-2.680973 1.294922,-4.232422 v -6.880859 a 1.7,1.7 0 0 0 -1.701172,-1.699219 1.7,1.7 0 0 0 -1.699219,1.699219 v 6.880859 c 0,1.042451 -0.245623,1.733483 -0.537109,2.09375 -0.291486,0.360268 -0.639773,0.585938 -1.589844,0.585938 H 8.9589843 c -0.7603045,0 -1.2497884,-0.216662 -1.5703125,-0.525391 C 7.068148,39.327014 6.8339843,38.878957 6.8339843,38.040039 V 25.198242 c 0,-0.394639 0.1067095,-0.617265 0.140625,-0.660157 0.033916,-0.04289 -0.034536,-0.07227 0.3183595,-0.07227 0.4319933,3e-5 0.5077731,0.06639 0.59375,0.142578 0.085977,0.07619 0.2559675,0.300081 0.3964844,0.878906 l 1.6445311,7.734375 a 1.70017,1.70017 0 0 0 0.00391,0.01172 c 0.1263657,0.575316 0.2647727,1.051445 0.5585937,1.541016 0.146911,0.244785 0.337011,0.50543 0.673828,0.746093 0.336818,0.240663 0.88094,0.428753 1.396485,0.369141 1.031089,-0.119225 1.442906,-0.776026 1.703125,-1.228516 0.260218,-0.452489 0.416095,-0.916312 0.554687,-1.458984 a 1.70017,1.70017 0 0 0 0.0059,-0.02539 l 3.382813,-14.199219 3.816406,14.722657 a 1.70017,1.70017 0 0 0 0.0098,0.03906 c 0.146894,0.513985 0.297294,0.948787 0.548828,1.384766 0.251534,0.435978 0.70118,1.163732 1.816406,1.199219 0.557613,0.01774 1.064802,-0.237314 1.357422,-0.488282 0.292621,-0.250967 0.449898,-0.496624 0.578125,-0.728515 0.256454,-0.463782 0.396784,-0.922286 0.53711,-1.488281 l 3.898358,-14.492182 3.248047,14.58789 c 0,0 0,0.002 0,0.002 l 0.002,0.0059 c 0.115211,0.526972 0.241616,0.965474 0.470703,1.40625 0.230328,0.443163 0.645438,1.189301 1.767578,1.251953 0.56107,0.03133 1.082,-0.222088 1.375,-0.472656 0.293,-0.250568 0.441126,-0.492745 0.560547,-0.716797 0.236493,-0.443693 0.349333,-0.864496 0.449219,-1.357422 l 0.002,-0.0059 1.292969,-6.15625 a 1.70017,1.70017 0 0 0 0.0059,-0.03516 c 0.09248,-0.491251 0.193228,-0.5564 0.228516,-0.583985 0.03529,-0.02758 0.178462,-0.117187 0.666015,-0.117187 1.09037,-8.6e-5 2.12889,-0.494176 2.779297,-1.248047 0.650407,-0.753871 0.949219,-1.704415 0.949219,-2.65625 V 9.9619145 c 0,-1.584784 -0.562825,-3.048175 -1.597656,-4.044922 -1.034966,-0.996747 -2.458867,-1.478516 -3.929823,-1.478516 z" fill="#008055"/>
</svg>
