<svg xmlns="http://www.w3.org/2000/svg" width="48" height="48">
	<path d="m 9.0888665,4.3818358 c -1.503869,0 -2.975405,0.4934072 -4.046874,1.5253906 -1.071472,1.0319835 -1.648438,2.5470373 -1.648438,4.1660156 V 37.37207 c 0,1.571049 0.339576,3.109804 1.330078,4.333984 0.990502,1.224181 2.619747,1.91211 4.365234,1.91211 a 1.9,1.9 0 0 0 1.9003915,-1.900391 1.9,1.9 0 0 0 -1.9003915,-1.90039 c -0.894732,0 -1.164706,-0.196184 -1.412109,-0.501954 C 7.4293545,39.00966 7.1923825,38.374221 7.1923825,37.37207 V 10.073242 c 0,-0.7853218 0.213222,-1.1666458 0.486328,-1.4296878 C 7.9518175,8.3805134 8.3792075,8.180664 9.0888665,8.180664 H 38.928711 c 0.918914,0 1.274535,0.210246 1.474609,0.4160156 0.200075,0.2057696 0.402344,0.5964536 0.402344,1.4765624 V 37.37207 c 0,0.901305 -0.257422,1.53005 -0.564453,1.892578 -0.30703,0.362529 -0.640825,0.552735 -1.3125,0.552735 H 14.237305 a 1.9,1.9 0 0 0 -1.900391,1.90039 1.9,1.9 0 0 0 1.900391,1.900391 h 24.691406 c 1.660075,0 3.214404,-0.719466 4.212891,-1.898438 0.998486,-1.178971 1.464843,-2.721961 1.464843,-4.347656 V 10.073242 c 0,-1.5351908 -0.422083,-3.0404478 -1.478515,-4.126953 C 42.071497,4.8597835 40.537585,4.3818358 38.928711,4.3818358 Z M 32.37793,12.262695 c -0.321129,0.01864 -0.623872,0.09391 -0.886719,0.195312 -0.525694,0.202807 -0.965066,0.504754 -1.40625,0.882813 a 1.70017,1.70017 0 0 0 -0.04297,0.03906 L 15.817383,26.43457 v -5.150391 l 1.058594,0.914063 a 1.7,1.7 0 0 0 2.398437,-0.175781 1.7,1.7 0 0 0 -0.177734,-2.398438 l -2.44336,-2.107422 -0.0039,-0.002 c -0.330082,-0.302799 -0.627674,-0.557079 -1.068359,-0.771484 -0.442128,-0.215107 -1.285199,-0.407208 -2.025391,0.02344 -0.740192,0.430645 -0.932955,1.068342 -1.029297,1.490235 -0.09634,0.421892 -0.109375,0.787819 -0.109375,1.191406 v 8.935547 c 0,0.5179 0.0083,0.965972 0.257813,1.546875 0.2495,0.580903 1.19536,1.30985 1.96289,1.287109 0.767529,-0.02274 1.140189,-0.309727 1.486328,-0.546875 0.34614,-0.237148 0.650256,-0.501831 0.976563,-0.798828 a 1.70017,1.70017 0 0 0 0.0039,-0.0039 l 14.53125,-13.335938 v 14.726563 l -6.189453,-5.78711 a 1.7,1.7 0 0 0 -2.402344,0.08008 1.7,1.7 0 0 0 0.08008,2.402344 l 7.285157,6.814453 -0.0039,-0.0059 c 0.36694,0.345827 0.736125,0.635328 1.199219,0.851562 0.463093,0.216235 1.099247,0.385587 1.806641,0.160157 0.707392,-0.225431 1.222845,-0.862586 1.423828,-1.392578 0.200981,-0.529993 0.223619,-1.006746 0.199219,-1.501953 l 0.002,0.08203 V 15.303711 c 0,-0.509085 -0.05714,-1.008935 -0.28125,-1.533204 -0.224164,-0.524267 -0.704147,-1.107024 -1.378962,-1.361328 -0.337408,-0.127151 -0.676919,-0.165128 -0.998047,-0.146484 z" fill="#008055"/>
</svg>
