<svg xmlns="http://www.w3.org/2000/svg" width="48" height="48">
	<path d="m 23.402662,3.4083814 c -1.848159,0.025454 -3.593214,1.4460413 -4.087891,3.4589844 L 16.1136,18.591975 c -0.288939,0.927148 -0.506742,2.000691 0.134765,3.123047 0.641508,1.122356 1.970467,1.52539 3.042969,1.52539 h 4.769531 a 1.9,1.9 0 0 0 1.900391,-1.90039 1.9,1.9 0 0 0 -1.900391,-1.900391 H 19.820631 L 22.992506,7.8204908 a 1.90019,1.90019 0 0 0 0.01367,-0.046875 c 0.151443,-0.6162569 0.324255,-0.5646852 0.449219,-0.5664063 0.124963,-0.00172 0.364824,-0.037579 0.591796,0.6835938 l 7.201172,24.4804687 a 1.90019,1.90019 0 0 0 0.0332,0.103515 c 0.676813,1.889829 1.692157,3.399523 3.166016,4.306641 1.473859,0.907118 3.170633,1.138672 5.042969,1.138672 1.419392,0 1.704562,0.734568 1.724609,1.486328 0.01002,0.37588 -0.108344,0.699974 -0.328125,0.929687 -0.219781,0.229714 -0.565575,0.457032 -1.396484,0.457032 H 8.5178975 c -0.807689,0 -1.15403,-0.223376 -1.382813,-0.460938 -0.228783,-0.237562 -0.355083,-0.574809 -0.349609,-0.949219 0.010947,-0.748819 0.249743,-1.46289 1.732422,-1.46289 1.9697495,0 3.6498175,-0.372222 4.9707025,-1.345703 1.320885,-0.973482 2.088691,-2.371647 2.695312,-3.931641 a 1.90019,1.90019 0 0 0 0.0098,-0.02539 c 0.248913,-0.668341 0.447645,-0.954869 0.490234,-0.99414 0.04259,-0.03927 0.01588,-0.09766 0.609375,-0.09766 h 8.994141 a 1.9,1.9 0 0 0 1.90039,-1.900391 1.9,1.9 0 0 0 -1.90039,-1.900391 h -8.994141 c -1.184243,0 -2.371786,0.355091 -3.185547,1.105469 -0.813761,0.750378 -1.164722,1.628879 -1.474609,2.460937 l 0.0098,-0.02539 c -0.48954,1.258906 -0.927204,1.895507 -1.408204,2.25 -0.481,0.354493 -1.199887,0.603516 -2.7167955,0.603516 -3.263402,0 -5.495379,2.621703 -5.533204,5.208984 -0.018912,1.29364 0.436083,2.625196 1.41211,3.638672 0.976026,1.013476 2.458197,1.625 4.121094,1.625 H 39.490553 c 1.674335,0 3.165343,-0.607508 4.142578,-1.628906 0.977235,-1.021399 1.415321,-2.365933 1.380859,-3.658204 -0.06892,-2.58454 -2.288219,-5.185546 -5.523437,-5.185546 -1.542875,0 -2.463781,-0.212937 -3.050782,-0.574219 -0.583025,-0.358836 -1.069976,-0.943496 -1.570312,-2.330078 L 27.683912,6.7833814 a 1.90019,1.90019 0 0 0 -0.01172,-0.033203 C 27.037476,4.7334515 25.250821,3.3829275 23.402662,3.4083814 Z" fill="#008055"/>
</svg>
