<svg xmlns="http://www.w3.org/2000/svg" width="48" height="48">
	<path d="M 23.983398,0.54795653 A 1.8,1.8 0 0 0 22.604492,1.2237377 C 19.076774,5.6353392 14.58993,8.2586358 10.692383,11.743269 6.7948352,15.227902 3.6259766,19.84101 3.6259766,27.411238 c 10e-8,11.212994 9.6480274,20.041016 20.6601564,20.041016 10.178236,0 20.08789,-8.444231 20.08789,-20.150391 0,-7.969567 -3.728907,-12.790679 -7.923828,-16.542969 a 1.80018,1.80018 0 0 0 -0.0059,-0.0039 C 35.715687,10.109389 35.120769,9.6470217 34.506836,9.3116283 33.892902,8.9762349 33.090689,8.5931507 32.041992,9.0499096 31.517643,9.278289 31.115071,9.740943 30.922851,10.1378 c -0.192219,0.396857 -0.243535,0.737613 -0.267578,1.042969 -0.04809,0.610712 0.03027,1.132505 0.134766,1.697266 0.08994,0.486099 0.151345,0.695276 0.246094,1.039062 -2.006094,1.313065 -2.980316,2.953805 -3.673829,4.365235 0.0044,-0.03896 -0.539942,0.143398 -1.53125,0.27539 -0.519084,0.06912 -1.129161,0.12589 -1.853515,0.548829 -0.724355,0.422938 -1.386719,1.508613 -1.386719,2.464843 a 1.80018,1.80018 0 0 0 0,0.0332 c 0.02234,1.157408 0.202151,2.317986 1.080078,3.25586 0.877928,0.937874 2.243087,1.177099 3.443359,1.019531 1.506068,-0.197711 2.412823,-0.04854 2.71875,0.0918 0.305928,0.140335 0.281694,0.078 0.355469,0.603516 0.318471,2.348336 -1.136901,5.37651 -4.707031,6.279296 -3.441657,0.691237 -5.82231,-0.492606 -7.074219,-2.25 -1.256871,-1.76436 -1.447141,-4.14358 0.208985,-6.49414 5.51e-4,-7.82e-4 0.0014,-0.0012 0.002,-0.002 4.633779,-6.071528 6.220298,-9.030394 6.960937,-14.9375007 a 1.8,1.8 0 0 0 -1.5625,-2.0097656 1.8,1.8 0 0 0 -2.009765,1.5625 C 21.315236,14.240052 20.313044,15.962379 15.71782,21.977597 a 1.80018,1.80018 0 0 0 -0.04102,0.05664 c -2.447225,3.470777 -2.316095,7.692075 -0.203124,10.658203 2.11297,2.966128 6.14171,4.634674 10.771484,3.685547 a 1.80018,1.80018 0 0 0 0.07227,-0.01563 c 5.270722,-1.306177 8.015986,-6.054723 7.4375,-10.28125 a 1.80018,1.80018 0 0 0 -0.002,-0.0059 c -0.191724,-1.365687 -1.085094,-2.762686 -2.419922,-3.375 -1.334827,-0.612315 -2.839913,-0.632914 -4.685546,-0.390626 -0.574598,0.07543 -0.435565,-2.7e-5 -0.34961,0.0918 0.02658,0.0284 -0.0218,-0.230483 -0.0332,-0.267578 0.03092,-0.005 0.0096,-0.0034 0.04297,-0.0078 0.797552,-0.106194 2.314129,0.01464 3.642578,-1.283203 a 1.80018,1.80018 0 0 0 0.365234,-0.50586 c 0.898544,-1.8672 1.147905,-2.859381 3.50586,-3.929687 a 1.80018,1.80018 0 0 0 1.042968,-1.853516 c -0.02204,-0.183299 -0.06113,-0.231698 -0.0918,-0.396484 3.495554,3.264386 6.001953,6.695799 6.001953,13.144531 0,9.65884 -8.315878,16.550781 -16.488281,16.550781 -9.085052,0 -17.060547,-7.3072 -17.060547,-16.441406 0,-6.636972 2.3562102,-9.845358 5.867187,-12.984375 C 16.60375,11.287846 21.40885,8.4841831 25.416992,3.4717846 a 1.8,1.8 0 0 0 -0.28125,-2.52929687 1.8,1.8 0 0 0 -1.152344,-0.3945312 z" fill="#008055"/>
</svg>
