<svg xmlns="http://www.w3.org/2000/svg" width="48" height="48">
	<path d="m 23.769851,2.1163074 a 1.8,1.8 0 0 0 -1.798828,1.8007812 1.8,1.8 0 0 0 1.798828,1.7988281 c 5.847785,0 10.875608,2.431596 14.498047,6.8515633 a 1.8,1.8 0 0 0 2.533203,0.251953 1.8,1.8 0 0 0 0.25,-2.533204 C 36.78984,5.0867954 30.637266,2.1163074 23.769851,2.1163074 Z M 17.760085,3.188573 A 1.70017,1.70017 0 0 0 17.215163,3.27451 C 9.3023514,5.8963786 2.3267243,13.471525 2.2249288,23.782323 A 1.7,1.7 0 0 0 3.9065694,25.49912 1.7,1.7 0 0 0 5.6233663,23.815527 C 5.7073602,15.307836 11.29829,9.1995229 17.664382,6.8155261 c 0.543473,0.2776179 1.123331,0.554329 1.542969,0.9726563 0.237951,0.2372083 0.404072,0.482258 0.548828,0.7402343 -0.953043,0.2137031 -1.819967,0.4625786 -2.601562,0.9726563 -1.217098,0.794291 -1.883324,2.128532 -2.351563,3.789063 l 0.02148,-0.07031 c -0.164488,0.499679 -0.282455,0.566992 -0.339843,0.605469 -0.05739,0.03848 -0.179307,0.08962 -0.507813,0.111328 -0.328506,0.02171 -0.807032,-0.0098 -1.416015,0.03516 -0.608986,0.04499 -1.443306,0.197803 -2.160157,0.802734 a 1.70017,1.70017 0 0 0 -0.101562,0.09375 c -1.3622293,1.353125 -2.079455,2.946158 -2.1035161,4.490234 -0.024061,1.544076 0.5538658,2.904639 1.2597657,4.113282 a 1.70017,1.70017 0 0 0 1.6074224,0.83789 l 3.625,-0.296875 c 1.05877,1.326416 2.166333,2.319562 3.355468,2.9375 0.641528,0.333372 1.405714,0.576186 2.076172,0.830078 -0.179847,0.186995 -0.418538,0.270724 -0.583984,0.5 -0.589649,0.817139 -0.747301,1.923349 -0.705078,3.119141 -1.073948,0.654519 -1.948941,1.385231 -2.339844,2.386719 -0.01578,0.04043 -0.0089,0.07708 -0.02344,0.117187 -0.182621,-0.298737 -0.333075,-0.409939 -0.554688,-0.876953 -0.0472,-3.19954 -0.876036,-5.106754 -1.664062,-6.316406 a 1.70017,1.70017 0 0 0 -0.05664,-0.08203 C 12.66023,24.55611 10.096717,24.051094 7.8714072,24.00694 a 1.7,1.7 0 0 0 -1.734375,1.666015 1.7,1.7 0 0 0 1.6660156,1.734375 c 1.612421,0.03199 3.1669302,0.622083 3.6328132,1.228516 0.756057,1.156448 1.233869,1.806955 1.15039,4.925781 a 1.70017,1.70017 0 0 0 0.15625,0.757813 c 1.461432,3.166856 3.116632,4.009152 3.976563,4.726562 a 1.70017,1.70017 0 0 0 2.789062,-1.289062 c 0.01507,-1.589944 0.04302,-2.459295 0.150391,-2.734375 0.10737,-0.275081 0.281708,-0.533176 1.621094,-1.171875 a 1.70017,1.70017 0 0 0 0.9375,-1.859375 c -0.244272,-1.254386 -0.130395,-1.434443 0.07617,-1.720703 0.206566,-0.286261 0.925371,-0.809036 2.074219,-1.664063 a 1.70017,1.70017 0 0 0 -0.382812,-2.941406 c -1.948346,-0.780431 -3.347614,-1.199552 -4.373047,-1.732422 -1.025433,-0.53287 -1.783559,-1.135757 -2.798828,-2.636719 a 1.70017,1.70017 0 0 0 -1.546875,-0.742187 l -3.19336,0.261719 c -0.191432,-0.486424 -0.482453,-1.026244 -0.476562,-1.404297 0.0095,-0.606978 0.220381,-1.204855 1.03125,-2.041016 -0.03158,0.02082 -0.05791,0.01003 0.183594,-0.0078 0.285207,-0.02107 0.773407,0.0076 1.390624,-0.0332 0.61722,-0.04079 1.419176,-0.172402 2.175782,-0.679687 0.756605,-0.507285 1.341269,-1.351017 1.675781,-2.367188 a 1.70017,1.70017 0 0 0 0.02148,-0.07031 c 0.388562,-1.377969 0.597277,-1.639973 0.939453,-1.863281 0.342178,-0.223309 1.304046,-0.483784 3.105469,-0.847657 A 1.70017,1.70017 0 0 0 23.48273,9.8682855 C 23.52032,7.9829743 22.651207,6.4202222 21.60773,5.3800042 20.564254,4.3397863 19.360323,3.7151944 18.400699,3.3175042 A 1.70017,1.70017 0 0 0 17.760085,3.188573 Z m 14.220703,7.462891 a 1.70017,1.70017 0 0 0 -0.259765,0.01758 c -4.089978,0.599349 -6.88044,3.156156 -9.457032,5.152344 a 1.70017,1.70017 0 0 0 0.90625,3.039062 c 2.574316,0.20554 4.114563,0.522113 4.927735,0.953125 0.813172,0.431013 1.180782,0.909869 1.683594,2.335938 a 1.70017,1.70017 0 0 0 2.191406,1.03125 c 1.05948,-0.39063 1.569137,-0.503429 1.828125,-0.539063 -0.135242,1.03064 -0.13982,2.007473 0.158203,2.855469 0.439068,1.249327 1.294255,2.134896 2.146484,2.839844 1.704458,1.409896 3.53418,2.371317 4.998047,4.496094 a 1.70017,1.70017 0 0 0 2.972656,-0.31836 C 46.696485,26.149307 46.059402,19.621 43.705398,14.665138 a 1.7,1.7 0 0 0 -2.265625,-0.806641 1.7,1.7 0 0 0 -0.804688,2.265625 c 1.638184,3.448852 2.19514,7.899479 1.0625,12.4375 -1.326777,-1.213561 -2.609904,-2.168871 -3.425781,-2.84375 -0.637483,-0.527314 -0.954484,-0.918043 -1.105469,-1.347656 -0.150985,-0.429613 -0.206122,-1.053954 0.148438,-2.251953 a 1.70017,1.70017 0 0 0 -0.490235,-1.742188 c -0.734846,-0.6654 -1.77773,-1.218043 -2.84375,-1.203125 -0.576799,0.0081 -1.169254,0.274737 -1.722656,0.441407 -0.631244,-1.163282 -1.409131,-2.190252 -2.568359,-2.804688 -0.627452,-0.332573 -1.359053,-0.519194 -2.105469,-0.705078 1.190584,-0.818121 2.420609,-1.468897 3.732422,-1.818359 0.638861,0.822499 1.307502,1.541118 2.230469,1.970703 1.285397,0.598275 2.658561,0.589749 4.43164,0.433594 a 1.7,1.7 0 0 0 1.544922,-1.841797 1.7,1.7 0 0 0 -1.84375,-1.544922 c -1.595821,0.140544 -2.313488,0.04972 -2.697266,-0.128907 -0.383777,-0.178625 -0.813066,-0.601549 -1.609374,-1.777343 A 1.70017,1.70017 0 0 0 31.980788,10.651464 Z M 4.3518819,26.704198 a 1.8,1.8 0 0 0 -0.453125,0.06641 1.8,1.8 0 0 0 -1.2441406,2.220703 c 2.9514456,10.48546 10.6290907,15.83893 18.5234377,16.74414 7.894347,0.90521 16.057671,-2.374817 20.449219,-8.753906 a 1.8,1.8 0 0 0 -0.462891,-2.501956 1.8,1.8 0 0 0 -2.503906,0.460938 C 35.142254,40.051036 28.204973,42.917992 21.58821,42.159277 14.971448,41.400561 8.7274945,37.280185 6.11946,28.014745 A 1.8,1.8 0 0 0 4.3518819,26.704198 Z" fill="#008055"/>
</svg>
