<svg xmlns="http://www.w3.org/2000/svg" width="48" height="48">
	<path d="m 23.144196,3.1757802 c -11.907643,0 -20.0277369,9.7645908 -20.0644532,21.5683598 a 2.0002,2.0002 0 0 0 0,0.0059 v 11.015625 a 2,2 0 0 0 1.9999999,2 2,2 0 0 0 2.0000001,-2 V 24.7559 24.75 C 7.1135044,14.695789 13.363992,7.1757802 23.144196,7.1757802 c 2.900535,0 3.68641,0.1321656 5.789062,0.6953125 0,0 0.002,0 0.002,0 5.735256,1.5578497 12.280536,7.3584963 11.97461,16.8242193 -0.319566,9.383049 -7.577936,16.097792 -17.580078,16.128906 H 5.0797427 a 2,2 0 0 0 -1.9999999,2 2,2 0 0 0 1.9999999,2 H 23.335602 a 2.0002,2.0002 0 0 0 0.0059,0 c 11.85624,-0.03688 21.179249,-8.558984 21.566407,-19.998047 a 2.0002,2.0002 0 0 0 0,-0.002 C 45.275113,13.461226 37.414245,6.0295165 29.982087,4.0117177 a 2.0002,2.0002 0 0 0 -0.0059,-0.00195 C 27.726835,3.4070783 26.210828,3.1757833 23.144156,3.1757833 Z m -5.1875,9.0898438 c -0.209869,-0.0091 -0.41274,0.0053 -0.597656,0.04688 -0.711223,0.160032 -1.097556,0.445932 -1.507813,0.697266 -1.249001,0.677629 -1.871344,1.758872 -2.308594,3.05664 -0.44024,1.306647 -0.570864,2.928835 0.158203,4.476563 2.787507,6.014579 7.590997,10.659348 13.625001,13.642578 2.749432,1.360883 5.695718,0.08921 7.417968,-1.792968 a 1.80018,1.80018 0 0 0 0.03906,-0.04297 c 0.571717,-0.666799 0.942312,-1.60261 0.867187,-2.464844 -0.07512,-0.862234 -0.464476,-1.480466 -0.80664,-1.943359 a 1.80018,1.80018 0 0 0 -0.03516,-0.04492 c -0.822801,-1.042595 -1.925265,-1.71508 -3.115234,-2.351563 -0.594985,-0.318241 -1.188364,-0.589834 -1.792969,-0.777343 -0.604605,-0.187511 -1.192443,-0.54787 -2.34375,0.04101 a 1.80018,1.80018 0 0 0 -0.06641,0.03516 c -1.092907,0.618311 -1.775685,1.59506 -1.90625,2.917969 a 1.8,1.8 0 0 0 1.615234,1.96875 1.8,1.8 0 0 0 1.931641,-1.394531 c 0.258746,0.09997 0.531406,0.204256 0.865234,0.382812 0.86508,0.462708 1.778808,1.215932 1.916016,1.359375 -0.869773,0.839653 -2.15466,1.293476 -2.988281,0.88086 a 1.80018,1.80018 0 0 0 -0.002,0 C 23.528338,28.29291 19.38812,24.257263 16.964508,19.023437 a 1.80018,1.80018 0 0 0 -0.0059,-0.01367 c -0.224924,-0.47607 -0.21872,-1.155273 -0.0039,-1.792969 0.214855,-0.637696 0.766287,-1.132301 0.613281,-1.050781 a 1.80018,1.80018 0 0 0 0.08398,-0.04688 c 0.09804,-0.05917 0.0417,-0.02953 0.117188,-0.07031 0.36731,0.370581 0.874956,0.946299 1.289062,1.685547 0.322847,0.576333 0.37639,0.877436 0.494141,1.255859 a 1.8,1.8 0 0 0 -1.296875,2.023437 1.8,1.8 0 0 0 2.066406,1.488281 c 0.202284,-0.03288 0.709905,-0.01061 1.460938,-0.326171 0.751033,-0.315559 1.640277,-1.488189 1.636719,-2.527344 -0.005,-1.395469 -0.559246,-2.493019 -1.220704,-3.673828 -0.661457,-1.18081 -1.43632,-2.287566 -2.466796,-3.09375 a 1.80018,1.80018 0 0 0 -0.01172,-0.0098 c -0.443296,-0.340296 -1.13406,-0.578108 -1.763667,-0.605464 z" fill="#008055"/>
</svg>
