<svg xmlns="http://www.w3.org/2000/svg" width="48" height="48">
	<path d="M 24.413121,1.9166804 C 19.698854,1.8256261 14.931128,3.2329571 10.879917,6.223321 9.7224284,7.0777107 8.6710679,8.0248385 7.7295265,9.0494929 1.1387366,16.222073 -0.08003016,27.131576 5.2431984,35.680352 a 2,2 0 0 0 2.7578125,0.640625 2,2 0 0 0 0.6386719,-2.755859 C 3.6396159,25.53532 5.6443764,15.059722 13.254917,9.442071 c 7.610541,-5.6176508 18.21381,-4.4466253 24.414063,2.697266 6.200254,7.143892 5.869085,17.806534 -0.763672,24.550781 -6.632757,6.744246 -17.290866,7.252195 -24.53711,1.171875 A 2,2 0 0 0 9.5517921,38.11004 2,2 0 0 0 9.7978859,40.926446 C 18.614548,48.324503 31.684698,47.700677 39.754918,39.494805 47.825137,31.288934 48.234447,18.21037 40.690464,9.5182429 36.446974,4.6289204 30.474321,2.0337502 24.413121,1.9166804 Z M 34.79398,14.090509 a 1.9,1.9 0 0 0 -1.86914,1.40625 L 29.489293,28.299493 26.66898,17.819024 c -0.184418,-0.801286 -0.364986,-1.444275 -0.644531,-2.039062 -0.144328,-0.307086 -0.304951,-0.615133 -0.636719,-0.951172 -0.331768,-0.33604 -0.987699,-0.735376 -1.736328,-0.69336 -0.748629,0.04202 -1.265869,0.443738 -1.560547,0.75586 -0.294678,0.312121 -0.45942,0.601355 -0.611328,0.902343 -0.303816,0.601981 -0.529653,1.275408 -0.769531,2.126954 a 1.90019,1.90019 0 0 0 -0.0078,0.0293 l -2.6172,9.894528 -3.265626,-12.279297 a 1.9,1.9 0 0 0 -2.324218,-1.347656 1.9,1.9 0 0 0 -1.347657,2.324218 l 4.03711,15.175782 c 0.195565,0.803582 0.378353,1.426569 0.664062,2.009765 0.142855,0.291599 0.304771,0.584821 0.626953,0.904297 0.322182,0.319476 0.941579,0.698659 1.66797,0.669922 0.726388,-0.02874 1.25293,-0.411961 1.544921,-0.712891 0.291992,-0.300929 0.447917,-0.575018 0.587891,-0.849609 0.279949,-0.549183 0.470628,-1.131947 0.669922,-1.845703 a 1.90019,1.90019 0 0 0 0.0059,-0.02539 l 2.757813,-10.425781 2.824218,10.501953 c 3.96e-4,0.0016 0.0016,0.0023 0.002,0.0039 0.183637,0.726112 0.372113,1.318779 0.693359,1.890625 0.160969,0.28654 0.355987,0.57904 0.695313,0.869141 0.339325,0.290101 0.900539,0.575915 1.52539,0.572266 1.249703,-0.0073 1.84559,-0.829467 2.185547,-1.382813 0.339957,-0.553346 0.561426,-1.139901 0.783203,-1.859375 a 1.90019,1.90019 0 0 0 0.01953,-0.06836 l 4.15625,-15.486328 a 1.9,1.9 0 0 0 -1.341797,-2.328125 1.9,1.9 0 0 0 -0.458984,-0.06445 z" fill="#008055"/>
</svg>
