<svg xmlns="http://www.w3.org/2000/svg" width="48" height="48">
	<path d="m 14.234375,2.7264229 c -2.647521,0 -4.6992188,2.2307462 -4.6992188,4.6074219 V 18.892439 c 0,6.365148 4.9662528,11.367889 11.4511718,11.935547 0.333382,0.03117 0.463881,0.06887 0.595703,0.09961 0.01223,0.108044 0.02734,0.171536 0.02734,0.443359 v 9.058594 c 0,0.578537 -0.09725,0.596004 -0.179687,0.664063 -0.08244,0.06806 -0.3448,0.183508 -0.761719,0.179687 a 2.0002,2.0002 0 0 0 -0.01758,0 h -8.875 a 2,2 0 0 0 -2.0000003,2 2,2 0 0 0 2.0000003,2 h 8.855469 c 1.110671,0.01018 2.33007,-0.257187 3.345703,-1.095703 1.015632,-0.838516 1.632812,-2.249884 1.632812,-3.748047 v -9.058594 c 0,-1.105793 -0.05731,-2.316726 -1.019531,-3.3125 -0.962218,-0.995773 -2.105021,-1.111428 -3.25,-1.214843 a 2.0002,2.0002 0 0 0 -0.0039,0 c -4.72888,-0.413943 -7.800781,-3.58272 -7.800781,-7.951172 V 7.3338448 7.3318917 c 5.2e-5,-0.3836401 0.01457,-0.6054688 0.699218,-0.6054688 h 19.353516 c 0.826975,0 0.876953,0.388028 0.876953,0.6074219 V 18.892439 c 0,2.201505 -0.65431,3.732972 -1.728516,4.943359 -1.074206,1.210388 -2.645674,2.099407 -4.550781,2.609375 a 2,2 0 0 0 -1.416016,2.449219 2,2 0 0 0 2.449219,1.414062 c 2.492973,-0.667331 4.802292,-1.892468 6.509766,-3.816406 1.707474,-1.923937 2.736328,-4.544714 2.736328,-7.599609 V 7.3338448 c 0,-2.4206061 -2.129708,-4.6074219 -4.876953,-4.6074219 z M 28.496094,41.273298 a 2,2 0 0 0 -2,2 2,2 0 0 0 2,2 h 7.728516 a 2,2 0 0 0 2,-2 2,2 0 0 0 -2,-2 z" fill="#008055"/>
</svg>
