<svg xmlns="http://www.w3.org/2000/svg" width="48" height="48">
	<path d="m 8.9697261,4.238271 c -1.512758,0 -2.989557,0.495984 -4.066406,1.533203 C 3.826471,6.808692 3.2431639,8.332269 3.2431639,9.960927 v 15.273437 a 1.9,1.9 0 0 0 1.9003906,1.900391 1.9,1.9 0 0 0 1.9003906,-1.900391 V 9.960927 c 0,-0.795042 0.215635,-1.182916 0.494141,-1.451172 0.278506,-0.268256 0.713139,-0.470703 1.43164,-0.470703 H 39.049804 c 0.92903,0 1.292927,0.210905 1.498047,0.421875 0.20512,0.21097 0.410157,0.610121 0.410157,1.5 v 27.517578 c 0,0.911462 -0.259988,1.551181 -0.572266,1.919922 -0.312278,0.368741 -0.654948,0.5625 -1.335938,0.5625 H 8.9697261 c -0.905291,0 -1.181216,-0.201741 -1.433594,-0.513672 -0.252377,-0.311931 -0.492187,-0.954287 -0.492187,-1.966797 v -4.851562 c 0,-0.0804 -0.00649,-0.05163 -0.00781,-0.08789 -0.00316,0.01502 0.065308,-0.04102 0.521485,-0.04102 h 5.2304689 a 1.90019,1.90019 0 0 0 0.002,0 c 1.31805,-6.9e-5 2.607617,-0.480075 3.408203,-1.371093 0.800586,-0.891019 1.066539,-1.932581 1.205078,-2.871094 a 1.90019,1.90019 0 0 0 0.0059,-0.03906 c 0.27307,-2.169089 2.123168,-6.929442 7.275391,-9.974609 -0.877265,4.526033 -0.07368,8.551129 0.943359,10.722656 a 1.90019,1.90019 0 0 0 0.0625,0.121094 c 0.464477,0.829894 1.061549,1.691954 1.980469,2.363281 0.91892,0.671327 2.147915,1.067041 3.478516,1.048828 h 6.310547 a 1.9,1.9 0 0 0 1.90039,-1.90039 1.9,1.9 0 0 0 -1.90039,-1.900391 h -6.335938 a 1.90019,1.90019 0 0 0 -0.02734,0 c -0.642084,0.0088 -0.905446,-0.113133 -1.183688,-0.316406 -0.263174,-0.192264 -0.553487,-0.562427 -0.857422,-1.087891 -0.657941,-1.43868 -1.674576,-5.950524 -0.244141,-10.240234 l 0.002,-0.0078 c 0.168337,-0.496989 0.3023,-0.903184 0.337891,-1.472656 0.01789,-0.286253 0.02026,-0.638687 -0.158203,-1.091797 -0.178465,-0.453109 -0.643107,-0.97113 -1.136719,-1.189453 -0.987224,-0.436646 -1.525777,-0.15231 -1.966797,-0.0078 -0.429105,0.140594 -0.822237,0.322969 -1.27539,0.541015 -7.849078,3.521396 -10.516401,10.262739 -10.976563,13.917969 l 0.0059,-0.04102 c -0.08523,0.577388 -0.236145,0.847388 -0.271484,0.886719 -0.03534,0.03933 -4.24e-4,0.109344 -0.583984,0.109375 H 7.5576171 c -0.940339,0 -1.960265,0.10033 -2.9023439,0.802735 -0.9420792,0.702404 -1.4121093,1.969918 -1.4121093,3.126953 v 4.851562 c 0,1.58139 0.3443958,3.127078 1.3398437,4.357422 0.9954475,1.230344 2.6306305,1.923828 4.3867185,1.923828 H 39.049804 c 1.669451,0 3.230673,-0.723019 4.234375,-1.908203 1.003703,-1.185184 1.472657,-2.739162 1.472657,-4.375 V 9.960927 c 0,-1.544921 -0.424871,-3.056708 -1.486328,-4.148438 C 42.20905,4.720759 40.668825,4.238271 39.049804,4.238271 Z" fill="#008055"/>
</svg>
