<svg xmlns="http://www.w3.org/2000/svg" width="48" height="48">
	<path d="m 8.9228516,4.0839845 c -1.5370832,0 -3.0446002,0.5049997 -4.1445313,1.5644531 C 3.6783893,6.7078911 3.084961,8.2636714 3.084961,9.9179685 V 37.521484 c 0,1.600316 0.3463709,3.174769 1.3632811,4.431641 1.0169103,1.256871 2.6920503,1.96289 4.4746095,1.96289 a 2,2 0 0 0 2.0000004,-2 2,2 0 0 0 -2.0000004,-2 c -0.8869708,0 -1.1304972,-0.188387 -1.3652345,-0.478515 C 7.3228799,39.147371 7.084961,38.522968 7.084961,37.521484 V 9.9179685 c 0,-0.776802 0.2091759,-1.138649 0.46875,-1.388672 0.2595738,-0.2500206 0.6681238,-0.445312 1.3691406,-0.445312 H 39.094726 c 0.914786,0 1.251031,0.2067085 1.435547,0.396484 0.184517,0.189777 0.384766,0.561105 0.384766,1.4375 V 37.521484 c 0,0.896364 -0.256654,1.513673 -0.552734,1.863281 -0.296081,0.349608 -0.608967,0.53125 -1.267579,0.53125 H 14.129883 a 2,2 0 0 0 -2,2 2,2 0 0 0 2,2 h 24.964843 c 1.699031,0 3.296384,-0.73627 4.320313,-1.945312 1.023929,-1.209042 1.5,-2.790383 1.5,-4.449219 V 9.9179685 c 0,-1.5659035 -0.431637,-3.1096634 -1.517578,-4.2265621 C 42.31152,4.5745076 40.735793,4.0839845 39.094726,4.0839845 Z M 11.594726,14.242187 c -0.842135,0 -1.8345395,0.228696 -2.4863275,1.150391 -0.651788,0.921695 -0.4753297,2.19168 0.019531,3.048828 l -0.015625,-0.02539 8.2050785,14.808594 a 1.70017,1.70017 0 0 0 0.0039,0.0059 c 0.165154,0.294705 0.337139,0.575778 0.640625,0.871094 0.303486,0.295316 0.85443,0.643351 1.519531,0.638672 0.665101,-0.0047 1.168214,-0.333541 1.464844,-0.603516 0.29663,-0.269974 0.478344,-0.529112 0.65625,-0.804687 a 1.70017,1.70017 0 0 0 0.07227,-0.125 l 7.914062,-14.912109 a 1.70017,1.70017 0 0 0 0.0098,-0.01758 c 0.188799,-0.366483 0.302676,-0.448986 0.378906,-0.49414 0.07623,-0.04515 0.205481,-0.09961 0.585937,-0.09961 h 4.998047 L 28.975618,30.234416 28.186555,28.701213 A 1.7,1.7 0 0 0 25.897493,27.966837 1.7,1.7 0 0 0 25.163118,30.2559 l 1.683594,3.275391 a 1.70017,1.70017 0 0 0 0.01172,0.02344 c 0.163802,0.306574 0.331672,0.599227 0.679688,0.916016 0.348016,0.316789 1.075504,0.647165 1.746094,0.527343 0.67059,-0.11982 1.032616,-0.476528 1.271484,-0.740234 0.238868,-0.263706 0.391847,-0.507687 0.546875,-0.767578 a 1.70017,1.70017 0 0 0 0.04688,-0.08008 l 7.888672,-15.035156 c 0.354588,-0.656359 0.810331,-1.4971 0.296875,-2.650391 -0.256767,-0.576687 -0.801176,-1.01338 -1.285195,-1.207073 -0.48402,-0.193694 -0.929307,-0.234375 -1.390625,-0.234375 h -6.095704 c -0.769463,0 -1.590499,0.141922 -2.320312,0.574219 -0.729007,0.431819 -1.277698,1.106462 -1.666016,1.859374 0,0 -0.002,0.002 -0.002,0.002 L 19.475586,30.101562 12.571289,17.640625 h 5.248047 c 0.617568,0 0.481208,-0.09468 0.724609,0.371093 l 1.53125,2.931641 a 1.7,1.7 0 0 0 2.294922,0.71875 1.7,1.7 0 0 0 0.71875,-2.292969 l -1.53125,-2.933594 c -0.731938,-1.400629 -2.337509,-2.193359 -3.738281,-2.193359 z" fill="#008055"/>
</svg>
