<svg xmlns="http://www.w3.org/2000/svg" width="48" height="48">
	<path d="m 8.9238276,4.0839842 c -1.537083,0 -3.0465529,0.5049997 -4.146484,1.5644531 C 3.6774125,6.7078907 3.0859374,8.2636707 3.0859374,9.9179687 V 37.521485 c 0,1.600315 0.346371,3.174769 1.3632812,4.43164 1.0169102,1.256872 2.69205,1.962891 4.474609,1.962891 a 2,2 0 0 0 2.0000004,-2 2,2 0 0 0 -2.0000004,-2 c -0.88697,0 -1.130497,-0.188387 -1.365234,-0.478516 -0.234737,-0.290128 -0.472656,-0.914532 -0.472656,-1.916015 V 9.9179687 c 0,-0.776802 0.207223,-1.13865 0.466797,-1.388672 0.259574,-0.250022 0.670077,-0.445312 1.371093,-0.445312 H 39.095703 c 0.914785,0 1.249078,0.204754 1.433594,0.394531 0.184516,0.189776 0.384766,0.563057 0.384766,1.439453 V 37.521485 c 0,0.896363 -0.254701,1.513673 -0.550781,1.863281 -0.296082,0.349608 -0.608968,0.53125 -1.267579,0.53125 H 14.128906 a 2,2 0 0 0 -2,2 2,2 0 0 0 2,2 h 24.966797 c 1.69903,0 3.296384,-0.738224 4.320313,-1.947266 1.023929,-1.209042 1.498047,-2.78843 1.498047,-4.447265 V 9.9179687 c 0,-1.565904 -0.431637,-3.109664 -1.517578,-4.2265626 C 42.310543,4.5745073 40.736769,4.0839842 39.095703,4.0839842 Z m 4.3281254,8.3925788 a 2,2 0 0 0 -2,2 v 17.103515 c 0,0.555081 0.02972,1.071054 0.171875,1.625 0.142157,0.553947 0.412926,1.263986 1.185547,1.777344 0.772621,0.513358 1.804937,0.464917 2.439453,0.230469 0.634516,-0.234448 1.091971,-0.575452 1.576172,-0.992188 l -0.01563,0.01563 6.94336,-5.84375 a 2.0002,2.0002 0 0 0 0.123047,-0.111328 c 0.131475,-0.130822 0.200278,-0.17733 0.238281,-0.201172 0.04044,0.02106 0.112064,0.06238 0.251953,0.181641 l 7.158203,6.169922 -0.02734,-0.02539 c 0.556174,0.497234 1.209768,0.907423 2.052735,1 0.842966,0.09258 1.751449,-0.283172 2.263672,-0.773437 1.024445,-0.980531 1.134765,-1.997146 1.134765,-2.957032 V 14.574219 a 2,2 0 0 0 -2,-2 2,2 0 0 0 -2,2 v 15.802734 l -5.978515,-5.152344 a 2.0002,2.0002 0 0 0 -0.0078,-0.0059 c -0.803693,-0.685178 -1.852957,-1.198164 -3.001953,-1.154297 -1.148997,0.04387 -2.155144,0.635431 -2.904297,1.38086 l 0.123047,-0.113282 -5.726563,4.816407 V 14.476563 a 2,2 0 0 0 -2,-2 z" fill="#008055"/>
</svg>
