<svg xmlns="http://www.w3.org/2000/svg" width="48" height="48">
	<path d="m 8.923828,4.083008 c -1.537083,0 -3.046553,0.506953 -4.146484,1.566406 C 3.677413,6.708868 3.085938,8.264648 3.085938,9.918946 v 27.603515 c 0,1.600316 0.346371,3.172816 1.363281,4.429688 1.01691,1.256871 2.69205,1.964843 4.474609,1.964843 a 2,2 0 0 0 2,-2 2,2 0 0 0 -2,-2 c -0.886971,0 -1.130497,-0.19034 -1.365234,-0.480468 C 7.323856,39.146395 7.085938,38.523945 7.085938,37.522461 V 9.918946 c 0,-0.776803 0.207222,-1.138651 0.466796,-1.388672 C 7.812308,8.280252 8.222811,8.083008 8.923828,8.083008 h 30.171875 c 0.914784,0 1.249078,0.206708 1.433594,0.396484 0.184516,0.189777 0.384765,0.563058 0.384765,1.439454 v 27.603515 c 0,0.896364 -0.2547,1.51172 -0.550781,1.861328 -0.29608,0.349608 -0.608967,0.533203 -1.267578,0.533203 H 14.128906 a 2,2 0 0 0 -2,2 2,2 0 0 0 2,2 h 24.966797 c 1.69903,0 3.296383,-0.738223 4.320313,-1.947265 1.023929,-1.209042 1.498046,-2.78843 1.498046,-4.447266 V 9.918946 c 0,-1.565905 -0.431636,-3.111617 -1.517578,-4.228516 C 42.310543,4.573531 40.736769,4.083008 39.095703,4.083008 Z m 5.044922,8.849609 a 2,2 0 0 0 -2,2 2,2 0 0 0 2,2 h 15.570312 c 2.896783,0 3.665788,1.520712 3.66211,3.054688 -0.0037,1.533976 -0.795322,3.0625 -3.66211,3.0625 H 16.5 c -1.207996,0 -2.453676,0.380204 -3.302734,1.271484 -0.849059,0.891281 -1.142578,2.076896 -1.142578,3.169922 v 7.636719 a 2,2 0 0 0 2,2 2,2 0 0 0 2,-2 v -7.636719 c 0,-0.424074 0.08651,-0.459962 0.03906,-0.410156 -0.04745,0.0498 -0.0699,-0.03125 0.40625,-0.03125 H 29.53906 c 4.659063,0 7.65366,-3.528561 7.66211,-7.052735 0.0084,-3.524173 -2.98453,-7.064453 -7.66211,-7.064453 z" fill="#008055"/>
</svg>
