<svg xmlns="http://www.w3.org/2000/svg" width="48" height="48">
	<path d="m 8.6552738,6.6230466 c -1.7405743,0 -3.3724343,0.5157253 -4.4941406,1.6699219 C 3.0394269,9.4471651 2.5849613,11.049564 2.5849613,12.710937 l -0.039062,21.960937 a 1.90019,1.90019 0 0 0 0,0.0039 c 0,1.646035 0.4687274,3.256236 1.5,4.527343 1.0312726,1.271108 2.6703927,2.117262 4.5136719,2.171875 A 1.9,1.9 0 0 0 10.516602,39.533203 1.9,1.9 0 0 0 8.6728519,37.578124 C 7.8241011,37.552977 7.3777656,37.279776 6.9970707,36.810546 6.6170132,36.342102 6.3475831,35.592696 6.3466801,34.679687 v -0.0039 l 0.037109,-21.960938 a 1.90019,1.90019 0 0 0 0,-0.0039 c 0,-1.006616 0.2363846,-1.49627 0.5019531,-1.769531 0.265569,-0.273273 0.7192459,-0.519543 1.7695316,-0.519543 H 39.364258 c 0.824645,0 1.350198,0.237683 1.693359,0.568359 0.343161,0.330676 0.595703,0.809413 0.595703,1.720703 v 21.964844 c 0,1.136794 -0.266154,1.885729 -0.578125,2.271484 -0.311971,0.385755 -0.679037,0.628906 -1.710937,0.628906 H 14.196289 a 1.9,1.9 0 0 0 -1.900391,1.900391 1.9,1.9 0 0 0 1.900391,1.900391 h 25.167969 c 1.88309,0 3.609296,-0.736786 4.664062,-2.041016 1.054767,-1.30423 1.425782,-2.954711 1.425782,-4.660156 V 12.710937 c 0,-1.744539 -0.618414,-3.3572044 -1.759766,-4.457031 C 42.552984,7.1540795 40.983503,6.6230466 39.364258,6.6230466 Z m 1.5175782,8.0390624 a 1.9,1.9 0 0 0 -1.5957032,0.949218 1.9,1.9 0 0 0 0.6953125,2.59375 L 19.512695,24.11914 9.2744144,30.007812 a 1.9,1.9 0 0 0 -0.6992187,2.59375 1.9,1.9 0 0 0 2.5937503,0.699219 l 13.095702,-7.533204 a 1.90019,1.90019 0 0 0 0.002,-3.291015 L 11.172852,14.916015 a 1.9,1.9 0 0 0 -1,-0.253906 z m 18.419922,12.621094 a 3.074666,3.074666 0 0 0 -3.076172,3.074218 3.074666,3.074666 0 0 0 3.076172,3.074219 3.074666,3.074666 0 0 0 3.074218,-3.074219 3.074666,3.074666 0 0 0 -3.074218,-3.074218 z m 8.296874,0 a 3.074666,3.074666 0 0 0 -3.074218,3.074218 3.074666,3.074666 0 0 0 3.074218,3.074219 3.074666,3.074666 0 0 0 3.076172,-3.074219 3.074666,3.074666 0 0 0 -3.076172,-3.074218 z" fill="#008055"/>
</svg>
