<svg xmlns="http://www.w3.org/2000/svg" width="48" height="48">
	<path d="m 34.239475,11.163484 a 1.80018,1.80018 0 0 0 -0.736328,0.160156 c -1.261399,0.573737 -1.954938,1.670267 -2.359375,2.564453 -0.03246,0.07177 -0.04002,0.107214 -0.07031,0.177735 -0.204183,-0.249144 -0.257273,-0.253938 -0.533203,-0.640625 a 1.80018,1.80018 0 0 0 -3.230469,0.6875 c -0.495395,2.436895 -0.195718,4.280161 -0.746094,5.136718 0.0655,-0.103025 -0.279412,0.113939 -0.677734,0.08398 -3.541368,-0.323468 -7.873947,-1.617793 -11.765626,-0.884766 a 1.80018,1.80018 0 0 0 -0.0293,0.0039 c -1.193998,0.244707 -1.415165,0.263277 -1.753907,0.01563 C 9.9162142,16.632144 7.2349057,14.63444 3.0910375,13.231843 a 1.8,1.8 0 0 0 -2.28124999,1.128906 1.8,1.8 0 0 0 1.12695309,2.28125 c 3.6333854,1.229811 5.8346582,2.882823 8.2500004,4.714844 a 1.80018,1.80018 0 0 0 0.02539,0.01758 c 1.493035,1.091549 3.249542,0.882562 4.601563,0.605469 l -0.02734,0.0059 c 2.481078,-0.467329 6.751137,0.566522 10.777344,0.933594 a 1.80018,1.80018 0 0 0 0.0098,0 c 1.315107,0.112776 3.001127,-0.146395 4.015625,-1.714844 a 1.80018,1.80018 0 0 0 0.002,-0.0039 c 0.660585,-1.025442 0.897116,-2.047408 1.017578,-3.009765 0.533738,0.209084 1.075427,0.521582 1.523438,0.46289 a 1.80018,1.80018 0 0 0 1.357421,-0.943359 1.80018,1.80018 0 0 0 0.398438,0.236328 c 1.725956,0.738037 0.869663,0.483117 1.851562,1.308594 a 1.80018,1.80018 0 0 0 0.892579,0.402344 c 2.248184,0.337184 4.291757,0.742083 5.605468,1.230468 0.626685,0.232976 1.041624,0.48236 1.253906,0.65625 -0.434277,0.930026 -1.081726,1.576976 -2.15039,2.164063 -1.255739,0.689858 -2.944381,1.241532 -4.634766,2.0625 0,0 -0.002,0.002 -0.002,0.002 -0.71441,0.331361 -1.392109,0.806832 -1.902344,1.605469 -0.510798,0.799519 -0.698258,2.165405 -0.09961,3.201171 a 1.80018,1.80018 0 0 0 0.02734,0.04492 c 0.807946,1.306938 1.899292,2.299754 2.195312,2.792969 a 1.8,1.8 0 0 0 2.470703,0.617188 1.8,1.8 0 0 0 0.617188,-2.470703 c -0.687645,-1.145722 -1.468631,-1.882366 -1.914063,-2.439454 0.05475,-0.03923 0.06017,-0.05966 0.121094,-0.08789 a 1.80018,1.80018 0 0 0 0.0332,-0.01563 c 1.375207,-0.671098 3.126164,-1.224472 4.822266,-2.15625 1.696101,-0.931778 3.402724,-2.404906 4.126953,-4.722657 a 1.80018,1.80018 0 0 0 0.08008,-0.636718 c -0.05933,-1.070675 -0.654436,-2.022859 -1.361328,-2.640625 -0.706892,-0.617766 -1.527101,-1.016018 -2.429688,-1.351563 -1.626784,-0.604773 -3.627707,-0.950272 -5.701171,-1.27539 -0.205366,-0.229251 -0.735065,-0.592811 -1.595703,-1.083985 -0.01842,-0.284691 -0.06431,-1.118626 -0.150391,-2.320312 a 1.80018,1.80018 0 0 0 -1.804688,-1.669922 z m 0.08789,8.099609 a 1.7699848,1.7651261 0 0 0 -1.769531,1.765625 1.7699848,1.7651261 0 0 0 1.769531,1.763672 1.7699848,1.7651261 0 0 0 1.771484,-1.763672 1.7699848,1.7651261 0 0 0 -1.771484,-1.765625 z M 10.403538,22.661531 A 1.8,1.8 0 0 0 8.6691625,24.028718 C 7.7988829,27.542603 7.5461574,30.089714 7.708225,33.208406 a 1.80018,1.80018 0 0 0 0.015625,0.154297 c 0.049325,0.354149 0.083937,0.69685 0.1601562,1.08789 0.076219,0.391041 0.1417832,0.895337 0.6757813,1.480469 0.5339981,0.585132 1.5861405,0.802184 2.2050785,0.681641 0.615134,-0.119803 1.05015,-0.355112 1.568359,-0.658204 l 0.0098,-0.0039 c 0.970593,-0.558734 1.349061,-0.642064 2.404297,-0.517578 a 1.80018,1.80018 0 0 0 0.02148,0.0039 c 6.541809,0.693673 11.962779,0.0066 17.033203,1.158204 l -0.01172,-0.0039 c 0.489448,0.114697 0.93504,0.208718 1.435547,0.234375 0.500506,0.02566 1.206977,0.0611 1.939453,-0.601562 0.732475,-0.662658 0.779866,-1.728684 0.644531,-2.324219 -0.135335,-0.595535 -0.372557,-1.069634 -0.69336,-1.642578 a 1.80018,1.80018 0 0 0 -0.002,-0.0039 c -0.44774,-0.795551 -0.924531,-1.558127 -1.257812,-2.09375 a 1.8,1.8 0 0 0 -2.478516,-0.578125 1.8,1.8 0 0 0 -0.578125,2.480468 c 0.140856,0.226372 0.326003,0.547238 0.494141,0.822266 -5.378334,-0.961106 -10.531779,-0.435073 -16.125,-1.025391 -1.350731,-0.159346 -2.637501,0.132987 -3.857422,0.675782 -0.09784,-2.575514 0.08633,-4.550868 0.851562,-7.640625 a 1.8,1.8 0 0 0 -1.314453,-2.179688 1.8,1.8 0 0 0 -0.445312,-0.05273 z" fill="#008055"/>
</svg>
