<svg xmlns="http://www.w3.org/2000/svg" width="48" height="48">
	<path d="M 28.700913,0.4644731 A 1.70017,1.70017 0 0 0 26.97435,2.1636919 l 0.01563,24.4062501 c -0.01514,3.052251 -0.559321,3.601465 -1.804687,4.65625 -1.553083,1.174509 -3.518671,1.016984 -4.703125,0.0332 -1.25401,-1.041552 -1.533987,-3.381747 -0.675781,-4.486328 0.705176,-0.905065 1.317767,-1.204168 1.945312,-1.341797 0.627545,-0.13763 1.322679,-0.06407 1.994141,0.103516 A 1.7,1.7 0 0 0 25.806382,24.296504 1.7,1.7 0 0 0 24.5681,22.235957 c -0.957288,-0.238918 -2.192656,-0.423523 -3.544922,-0.126953 -1.352263,0.296571 -2.768183,1.123584 -3.898437,2.574219 a 1.70017,1.70017 0 0 0 -0.002,0 c -2.180016,2.800185 -1.545584,6.92299 1.185547,9.191406 2.451115,2.035843 6.191359,2.174507 8.972656,0.04102 a 1.70017,1.70017 0 0 0 0.0625,-0.05078 c 1.643761,-1.389409 3.028376,-3.547011 3.046875,-7.277344 a 1.70017,1.70017 0 0 0 0,-0.0098 L 30.378647,8.1285356 c 1.812386,1.6125625 3.909441,2.6398514 5.429688,3.3671874 2.205156,1.054994 3.376097,2.174702 3.904297,3.398438 0.528199,1.223736 0.531544,2.785249 -0.267578,5.062499 a 1.7,1.7 0 0 0 1.041015,2.167969 1.7,1.7 0 0 0 2.166016,-1.041015 c 0.968648,-2.760349 1.140186,-5.318917 0.183593,-7.535157 C 41.879086,11.332218 39.912776,9.6912227 37.275132,8.4293169 34.37534,7.0419607 31.112067,5.6349915 30.339585,1.8258012 A 1.70017,1.70017 0 0 0 28.700913,0.4644731 Z M 22.0681,10.708614 c -1.297387,0.06181 -2.418698,0.428308 -3.117187,1.265625 -0.698488,0.837316 -0.750351,1.735296 -0.808594,2.332031 -0.05824,0.596735 -0.108556,0.993529 -0.228515,1.253906 -0.119961,0.260377 -0.263903,0.496955 -0.966797,0.828125 -0.702895,0.331172 -0.976747,0.29007 -1.253907,0.216797 -0.27716,-0.07327 -0.614087,-0.286076 -1.111328,-0.621094 -0.49724,-0.335016 -1.222108,-0.864896 -2.3125,-0.859375 -1.090392,0.0055 -2.087252,0.636558 -2.9609374,1.597657 -0.8736855,0.961096 -1.4067595,2.011678 -1.3085938,3.097656 0.098167,1.085978 0.6973528,1.759517 1.078125,2.222656 0.3807712,0.463139 0.6233658,0.775982 0.7226562,1.044922 0.09929,0.268939 0.1632387,0.538336 -0.099609,1.269531 -0.2628484,0.731195 -0.4846282,0.896845 -0.7324219,1.041016 -0.2477937,0.14417 -0.6341612,0.232947 -1.2226562,0.347656 -0.5884953,0.114708 -1.4789737,0.252416 -2.2460938,1.027344 -0.7671201,0.774927 -1.0247007,1.925267 -0.9628906,3.222656 0.06181,1.297388 0.4283086,2.418698 1.265625,3.117187 0.8373164,0.698489 1.7352963,0.750351 2.3320312,0.808594 0.596735,0.05824 0.9915756,0.108556 1.2519532,0.228516 0.260377,0.11996 0.4969545,0.263902 0.8281251,0.966797 0.331171,0.702894 0.292022,0.976746 0.21875,1.253906 -0.07327,0.277161 -0.286077,0.614088 -0.6210939,1.111328 -0.3350165,0.497241 -0.8668484,1.222108 -0.8613281,2.3125 0.00552,1.090392 0.636558,2.087252 1.597656,2.960938 0.961098,0.873685 2.013632,1.408712 3.099609,1.310547 1.085979,-0.09817 1.757565,-0.699306 2.220704,-1.080079 0.463139,-0.380771 0.777935,-0.623365 1.046875,-0.722656 0.268938,-0.09929 0.536383,-0.163239 1.267578,0.09961 0.731195,0.26285 0.898797,0.484629 1.042969,0.732422 0.14417,0.247794 0.230993,0.636115 0.345703,1.22461 0.114708,0.588495 0.250462,1.475067 1.02539,2.242187 0.774927,0.76712 1.927221,1.026654 3.22461,0.964844 1.297387,-0.06181 2.418698,-0.428308 3.117187,-1.265625 0.698488,-0.837316 0.750351,-1.735296 0.808594,-2.332031 0.05824,-0.596735 0.108555,-0.991576 0.228516,-1.251953 0.119959,-0.260377 0.263901,-0.495002 0.966796,-0.826172 0.702895,-0.331172 0.976746,-0.293976 1.253907,-0.220703 0.27716,0.07327 0.614088,0.286077 1.111328,0.621093 0.497241,0.335018 1.222108,0.868803 2.3125,0.863282 1.090392,-0.0055 2.087252,-0.638512 2.960937,-1.59961 0.873686,-0.961098 1.408713,-2.013631 1.310547,-3.099609 -0.09817,-1.085979 -0.697353,-1.757564 -1.078125,-2.220703 -0.380771,-0.463139 -0.62532,-0.777936 -0.724609,-1.046875 -0.09929,-0.268939 -0.161286,-0.536383 0.101562,-1.267578 0.262849,-0.731196 0.482675,-0.898799 0.730469,-1.042969 0.247794,-0.14417 0.636114,-0.230994 1.224609,-0.345703 0.588495,-0.114708 1.47702,-0.250464 2.244141,-1.025391 0.76712,-0.774928 1.024701,-1.929174 0.962891,-3.226562 -0.06181,-1.297388 -0.426356,-2.416747 -1.263672,-3.115235 -0.837317,-0.698489 -1.737251,-0.750352 -2.333985,-0.808593 -0.596735,-0.05824 -0.989623,-0.108556 -1.25,-0.228516 -0.260377,-0.11996 -0.496954,-0.263902 -0.828125,-0.966797 -0.331171,-0.702894 -0.293975,-0.976745 -0.220703,-1.253906 0.07327,-0.277161 0.288031,-0.616041 0.623047,-1.113281 0.335018,-0.49724 0.864896,-1.222109 0.859375,-2.3125 -0.0055,-1.090394 -0.636558,-2.085299 -1.597656,-2.958985 -0.961098,-0.873685 -2.096432,-1.041088 -2.816406,-0.416015 -0.8743,0.850254 -0.709748,1.670607 0.0059,2.292968 -0.08713,0.0079 0.03698,-0.07822 0.660156,0.488282 0.623182,0.566501 0.549272,0.698809 0.548828,0.611328 -4.43e-4,-0.08748 -0.01619,0.06512 -0.314453,0.507812 -0.298261,0.442686 -0.803031,1.107957 -1.060547,2.082031 -0.257515,0.974076 -0.163407,2.201604 0.417969,3.435547 0.581376,1.233944 1.467722,2.088169 2.382813,2.509766 0.915091,0.421598 1.749985,0.454007 2.28125,0.505859 0.531264,0.05185 0.658974,0.136115 0.591797,0.08008 -0.06718,-0.05604 0.07906,-0.02873 0.11914,0.8125 0.04008,0.841234 -0.104513,0.884438 -0.04297,0.822266 0.06155,-0.06217 -0.0581,0.03264 -0.582031,0.134766 -0.523929,0.102123 -1.349836,0.217926 -2.220703,0.724609 -0.870866,0.506684 -1.671378,1.439032 -2.132813,2.722656 -0.461434,1.283626 -0.438799,2.515756 -0.08984,3.460938 0.348953,0.945182 0.912957,1.558376 1.251953,1.970703 0.338995,0.412325 0.371157,0.56369 0.363281,0.476562 -0.0079,-0.08713 0.07822,0.03502 -0.488281,0.658203 -0.566503,0.623182 -0.69881,0.551225 -0.611328,0.550782 0.08748,-4.42e-4 -0.06513,-0.01814 -0.507813,-0.316406 -0.442685,-0.298263 -1.107955,-0.803032 -2.082031,-1.060547 -0.974075,-0.257516 -2.199651,-0.163408 -3.433594,0.417968 -1.233943,0.581376 -2.090123,1.469674 -2.511718,2.384766 -0.421598,0.915091 -0.454007,1.748032 -0.50586,2.279297 -0.05185,0.531265 -0.13807,0.658974 -0.08203,0.591797 0.05604,-0.06718 0.02873,0.08102 -0.8125,0.121093 -0.841234,0.04008 -0.882484,-0.104512 -0.820313,-0.04297 0.06217,0.06155 -0.03459,-0.0581 -0.136718,-0.582032 -0.102123,-0.523929 -0.21402,-1.351789 -0.720704,-2.222656 -0.506683,-0.870866 -1.440985,-1.669423 -2.724609,-2.130859 -1.283625,-0.461435 -2.515756,-0.440747 -3.460937,-0.0918 -0.945183,0.348953 -1.558377,0.914911 -1.970704,1.253906 -0.412325,0.338997 -0.561736,0.371156 -0.474609,0.363282 0.08713,-0.0079 -0.03697,0.07627 -0.660156,-0.490235 -0.623145,-0.566501 -0.551225,-0.696856 -0.550782,-0.609375 4.43e-4,0.08748 0.01815,-0.06708 0.316407,-0.509766 0.298261,-0.442685 0.801078,-1.106002 1.058593,-2.080078 0.257516,-0.974074 0.163408,-2.201603 -0.417968,-3.435546 -0.581376,-1.233944 -1.465769,-2.088168 -2.38086,-2.509766 -0.9150913,-0.421598 -1.7480314,-0.45596 -2.2792963,-0.507813 -0.5312646,-0.05185 -0.660927,-0.136114 -0.59375,-0.08008 0.067177,0.05604 -0.081016,0.02873 -0.1210937,-0.8125 -0.040078,-0.841234 0.1045138,-0.884437 0.042969,-0.822265 -0.061546,0.06217 0.058102,-0.03264 0.5820313,-0.134766 0.5239292,-0.102121 1.3517897,-0.214019 2.2226567,-0.720703 0.870866,-0.506684 1.671378,-1.442938 2.132812,-2.726563 0.461436,-1.283625 0.436844,-2.513803 0.08789,-3.458984 -0.348954,-0.945182 -0.912957,-1.56033 -1.251953,-1.972656 -0.338997,-0.412326 -0.371157,-0.561737 -0.363281,-0.47461 0.0079,0.08713 -0.07432,-0.03502 0.492187,-0.658203 0.566503,-0.62318 0.694903,-0.553177 0.607422,-0.552734 -0.08748,4.42e-4 0.06513,0.01815 0.507813,0.316406 0.442685,0.298261 1.109909,0.803031 2.083984,1.060547 0.974076,0.257516 2.201604,0.163407 3.435547,-0.417969 1.233943,-0.581376 2.086215,-1.465768 2.507813,-2.380859 0.421596,-0.915092 0.455959,-1.749985 0.507812,-2.28125 0.05185,-0.531265 0.136114,-0.660928 0.08008,-0.59375 -0.05604,0.06718 -0.02873,-0.07906 0.8125,-0.119141 0.841234,-0.04008 0.882484,0.102561 0.820313,0.04102 0.855372,0.70715 2.244165,0.62534 2.55664,-0.550781 0.259055,-0.544804 -0.09698,-1.516996 -0.304733,-1.722653 -0.774927,-0.767119 -1.927221,-1.026653 -3.22461,-0.964843 z" fill="#008055"/>
</svg>
