<svg xmlns="http://www.w3.org/2000/svg" width="48" height="48">
	<path d="m 8.6269531,4.1103515 c -1.720391,0 -3.3942454,0.372972 -4.7226563,1.447265 -1.3284108,1.074294 -2.078125,2.836695 -2.078125,4.7421885 V 29.84082 c 0,1.807665 0.7813685,3.491707 2.0625,4.576172 1.2811316,1.084464 2.9635231,1.59375 4.7402344,1.59375 l 12.6269528,-0.002 v 1.710938 c 0,1.032145 -0.238206,1.45423 -0.488281,1.697266 -0.250075,0.243034 -0.709828,0.472656 -1.699219,0.472656 h -8.158203 a 2,2 0 0 0 -1.9999998,2 2,2 0 0 0 1.9999998,2 h 8.158203 c 1.678599,0 3.310899,-0.461229 4.488281,-1.605469 1.177383,-1.14424 1.699219,-2.805699 1.699219,-4.564453 v -3.710938 a 2.0002,2.0002 0 0 0 -2,-2 l -14.6269528,0.002 c -1.0145787,0 -1.7346441,-0.2896 -2.15625,-0.646484 C 6.0510503,31.007373 5.8261718,30.607554 5.8261718,29.84082 V 10.299805 c 0,-1.0095075 0.2321759,-1.3404075 0.59375,-1.6328125 0.3615741,-0.292407 1.0851823,-0.556641 2.2070313,-0.556641 H 39.984375 c 0.889383,0 1.339967,0.24427 1.65039,0.566406 0.310424,0.322136 0.539063,0.819306 0.539063,1.6230475 V 29.84082 c 0,1.032083 -0.238206,1.454234 -0.488281,1.697266 -0.250076,0.243032 -0.711781,0.472656 -1.701172,0.472656 H 28.714844 a 2,2 0 0 0 -2,2 2,2 0 0 0 2,2 h 11.269531 c 1.678599,0 3.310899,-0.46125 4.488281,-1.605469 1.177382,-1.144218 1.701172,-2.805736 1.701172,-4.564453 V 10.299805 c 0,-1.6401595 -0.540078,-3.2360995 -1.660156,-4.3984385 -1.120079,-1.162338 -2.76285,-1.791015 -4.529297,-1.791015 z M 14.347656,10.31543 c -0.698059,0 -1.517668,0.172734 -2.201172,0.767578 -0.683504,0.594843 -1.042968,1.559905 -1.042968,2.482422 v 6.609375 c 0,0.828009 0.326314,1.67772 0.939453,2.267578 0.613139,0.589857 1.464831,0.886719 2.304687,0.886719 a 1.7,1.7 0 0 0 1.699219,-1.701172 1.7,1.7 0 0 0 -1.544922,-1.69336 v -6.21875 h 8.732422 v 6.212891 h -4.957031 a 1.7,1.7 0 0 0 -1.699219,1.699219 1.7,1.7 0 0 0 1.699219,1.701172 h 5.220703 c 1.615766,0 3.136718,-1.489042 3.136718,-3.154297 V 13.56543 c 1.6e-5,-0.808434 -0.224959,-1.685176 -0.847656,-2.337891 -0.622697,-0.652714 -1.516476,-0.912109 -2.289062,-0.912109 z m 14.751953,6.552734 a 1.7,1.7 0 0 0 -1.701172,1.701172 1.7,1.7 0 0 0 1.701172,1.699219 h 4.435547 v 6.21289 h -8.732422 v -0.46875 a 1.7,1.7 0 0 0 -1.699219,-1.701172 1.7,1.7 0 0 0 -1.701171,1.701172 v 0.619141 c 0,0.922497 0.361432,1.887565 1.044921,2.482422 0.68349,0.594856 1.503116,0.767578 2.201172,0.767578 h 9.150391 c 0.772595,0 1.666363,-0.25938 2.289062,-0.912109 0.622699,-0.65273 0.847657,-1.529497 0.847657,-2.337891 v -6.609375 c 0,-1.665242 -1.520953,-3.154297 -3.136719,-3.154297 z m -1.025391,23.021484 a 2,2 0 0 0 -2,2 2,2 0 0 0 2,2 h 7.138672 a 2,2 0 0 0 2,-2 2,2 0 0 0 -2,-2 z" fill="#008055"/>
</svg>
