<svg xmlns="http://www.w3.org/2000/svg" width="48" height="48">
	<path d="m 20.438476,4.0306344 a 1.9,1.9 0 0 0 -1.236328,0.501953 1.9,1.9 0 0 0 -0.109376,2.683594 L 40.887694,30.882197 c 1.281853,1.391833 1.195313,1.064635 1.195313,2.917969 l -0.01367,4.072265 a 1.90019,1.90019 0 0 0 0,0.0059 c 0,1.031909 -0.245105,1.400917 -0.630859,1.712891 -0.385755,0.311974 -1.134694,0.578125 -2.271485,0.578125 H 8.2080068 c -0.911285,3.4e-5 -1.391991,-0.252557 -1.722656,-0.595703 -0.330666,-0.343146 -0.566407,-0.87066 -0.566407,-1.695313 v -1.382853 c 0,-0.716087 0.187551,-0.939559 0.5625,-1.216797 0.37495,-0.277238 1.039079,-0.478515 1.664063,-0.478515 H 38.219726 a 1.9,1.9 0 0 0 1.898437,-1.900391 1.9,1.9 0 0 0 -1.898437,-1.900391 H 8.1455068 c -1.321196,0 -2.719334,0.333495 -3.9218751,1.222656 -1.2025408,0.889162 -2.1054688,2.463325 -2.1054688,4.273438 v 1.382812 c 0,1.619249 0.5310173,3.190678 1.6308594,4.332032 1.0998425,1.141354 2.7144195,1.759831 4.4589845,1.759765 H 39.166991 c 1.70545,0 3.357884,-0.371005 4.66211,-1.425781 1.304225,-1.054776 2.039062,-2.782924 2.039062,-4.666016 l 0.01367,-4.072265 a 1.90019,1.90019 0 0 0 0,-0.0059 c 0,-2.255267 -0.738278,-3.908021 -2.197266,-5.492188 L 21.887694,4.6419624 A 1.9,1.9 0 0 0 20.438476,4.0306344 Z M 7.5791008,25.362666 a 1.9,1.9 0 0 0 -1.900391,1.90039 1.9,1.9 0 0 0 1.900391,1.898438 H 31.840819 a 1.9,1.9 0 0 0 1.900391,-1.898438 1.9,1.9 0 0 0 -1.900391,-1.90039 z" fill="#008055"/>
</svg>
