<svg xmlns="http://www.w3.org/2000/svg" width="48" height="48">
	<path d="m 9.566407,7.5839815 c -1.656668,0 -3.225508,0.490303 -4.306641,1.599609 C 4.178633,10.292898 3.744141,11.832648 3.744141,13.412107 L 3.708985,34.00781 a 1.90019,1.90019 0 0 0 0,0.0039 c 0,1.567554 0.447443,3.10736 1.4375,4.324218 0.990057,1.216858 2.566245,2.026077 4.328125,2.078125 a 1.9,1.9 0 0 0 1.955078,-1.84375 1.9,1.9 0 0 0 -1.84375,-1.955078 C 8.815788,36.592481 8.431741,36.352914 8.09375,35.937497 7.756388,35.522852 7.508729,34.848025 7.507813,34.015622 v -0.0039 L 7.544922,13.416013 a 1.90019,1.90019 0 0 0 0,-0.0039 c 0,-0.92284 0.213811,-1.346653 0.4375,-1.576172 0.22369,-0.229517 0.615662,-0.453125 1.583985,-0.453125 h 28.882812 c 0.753143,0 1.219033,0.21313 1.517578,0.5 0.298546,0.28687 0.525391,0.701655 0.525391,1.529297 v 20.59961 c 0,1.047713 -0.249034,1.721165 -0.519531,2.054687 -0.270497,0.333523 -0.576955,0.548828 -1.523438,0.548828 H 14.777344 a 1.9,1.9 0 0 0 -1.898437,1.900391 1.9,1.9 0 0 0 1.898437,1.90039 h 23.671875 c 1.795258,0 3.459602,-0.703575 4.47461,-1.955078 1.015008,-1.251503 1.367187,-2.831232 1.367187,-4.449218 v -20.59961 c 0,-1.663257 -0.593672,-3.214725 -1.691406,-4.2695305 -1.097735,-1.054805 -2.604893,-1.558594 -4.150391,-1.558594 z m 10.488281,8.0097655 c -0.37488,0.0162 -0.751354,0.111348 -1.101562,0.306641 -0.933889,0.520781 -1.357422,1.576927 -1.357422,2.505859 V 24.9707 a 1.7,1.7 0 0 0 1.701172,1.699219 1.7,1.7 0 0 0 1.699218,-1.699219 v -5.433593 l 7.683594,4.509765 -7.962891,4.673828 a 1.7,1.7 0 0 0 -1.421875,-0.767578 1.7,1.7 0 0 0 -1.699218,1.701172 c 0,0.923581 0.393994,1.953806 1.308593,2.5 0.9146,0.546194 2.075626,0.380654 2.878907,-0.115234 l 9.535156,-5.597657 -0.05273,0.0293 c 0.784606,-0.423715 1.599619,-1.205535 1.625,-2.371094 0.02538,-1.165559 -0.793409,-2.013933 -1.59961,-2.460937 l 0.03711,0.01953 -9.535157,-5.595703 c -0.39435,-0.243441 -0.870401,-0.414452 -1.365234,-0.458985 -0.123708,-0.01113 -0.248087,-0.01517 -0.373047,-0.0098 z" fill="#008055"/>
</svg>
