<svg xmlns="http://www.w3.org/2000/svg" width="48" height="48">
	<path d="m 14.808593,2.7353515 c -1.586185,0 -3.027503,0.4528796 -4.09375,1.3554687 C 9.6485965,4.9934094 9.0078125,6.3578324 9.0078125,7.9052736 V 40.073242 c 0,1.681492 0.618382,3.087955 1.7050775,3.966797 1.086696,0.878842 2.524934,1.22461 4.095703,1.22461 h 18.996095 c 1.54719,0 2.890934,-0.532069 3.808593,-1.484375 0.917659,-0.952307 1.378907,-2.275981 1.378907,-3.707032 V 12.805664 c 0,-1.577085 -0.450931,-2.9306724 -1.396485,-3.8496094 -0.945554,-0.918937 -2.284717,-1.322266 -3.791015,-1.322266 h -7.525391 a 1,1 0 0 0 -1,1 1,1 0 0 0 1,1 h 7.525391 c 1.16169,0 1.91458,0.287522 2.396484,0.7558604 0.481904,0.468338 0.791016,1.20224 0.791016,2.416015 v 27.267578 c 0,1.01284 -0.305517,1.786154 -0.81836,2.31836 -0.512844,0.532206 -1.260502,0.873047 -2.36914,0.873047 H 14.808593 c -1.27148,0 -2.234603,-0.291402 -2.83789,-0.779297 -0.603287,-0.487896 -0.962891,-1.17861 -0.962891,-2.41211 V 7.9052736 c 0,-1.0269797 0.36351,-1.7483138 1,-2.2871097 0.636491,-0.5387959 1.595677,-0.8828125 2.800781,-0.8828125 H 33.5625 a 1,1 0 0 0 1,-1 1,1 0 0 0 -1,-1 z m 5.007813,15.9824225 c -1.156993,0 -2.035156,0.999367 -2.035156,2.033203 v 5.021484 c 0,2.76672 2.102707,4.966695 4.86914,5.216797 0.116909,0.01125 0.147201,0.02181 0.199219,0.0332 0.0052,0.04783 0.01172,0.06592 0.01172,0.171875 v 3.935547 c 0,0.250786 -0.04185,0.254164 -0.06445,0.273438 -0.0226,0.01927 -0.111286,0.06399 -0.271485,0.0625 a 0.90008998,0.90008998 0 0 0 -0.0098,0 h -3.732422 a 0.89999998,0.89999998 0 0 0 -0.900391,0.90039 0.89999998,0.89999998 0 0 0 0.900391,0.898438 h 3.724609 c 0.482452,0.0045 1.017714,-0.117609 1.457031,-0.492188 0.439318,-0.374579 0.697266,-0.991114 0.697266,-1.642578 v -3.935547 c 0,-0.480618 -0.01801,-1.004938 -0.435547,-1.451172 -0.417534,-0.446233 -0.925073,-0.501444 -1.412109,-0.546875 a 0.90008998,0.90008998 0 0 0 -0.002,0 c -1.950947,-0.176377 -3.230469,-1.527167 -3.230469,-3.423828 v -5.021484 c 0,-0.166064 -0.01113,-0.232422 0.234375,-0.232422 h 8.142578 c 0.305455,0 0.310547,0.138532 0.310547,0.232422 v 5.021484 c 0,1.911885 -1.026633,2.817443 -2.605469,3.253907 a 0.89999998,0.89999998 0 0 0 -0.626953,1.107421 0.89999998,0.89999998 0 0 0 1.107422,0.626953 c 2.121624,-0.586516 3.925781,-2.332725 3.925781,-4.988281 v -5.021484 c 0,-1.05309 -0.913343,-2.033203 -2.111328,-2.033203 z m 6.001953,16.748047 a 0.89999998,0.89999998 0 0 0 -0.900391,0.90039 0.89999998,0.89999998 0 0 0 0.900391,0.898438 h 3.25 a 0.89999998,0.89999998 0 0 0 0.900391,-0.898438 0.89999998,0.89999998 0 0 0 -0.900391,-0.90039 z" fill="#008055"/>
</svg>
