<svg xmlns="http://www.w3.org/2000/svg" width="48" height="48">
	<path d="m 14.809571,2.7353515 c -1.58619,0 -3.027505,0.452879 -4.09375,1.355469 -1.066247,0.90259 -1.708985,2.267013 -1.708985,3.814453 V 40.073242 c 0,1.68149 0.620338,3.087956 1.707031,3.966797 1.086694,0.878843 2.524934,1.224609 4.095704,1.224609 h 18.99414 c 1.547195,0 2.892889,-0.532068 3.810547,-1.484375 0.917658,-0.952306 1.378906,-2.275982 1.378906,-3.707031 V 12.803711 c 0,-1.577084 -0.452884,-2.9287185 -1.398437,-3.8476565 -0.945553,-0.918938 -2.284712,-1.322266 -3.791016,-1.322266 h -7.523437 a 1,1 0 0 0 -1,1 1,1 0 0 0 1,1 h 7.523437 c 1.161696,0 1.916536,0.287523 2.398438,0.7558595 0.481902,0.468337 0.791015,1.200286 0.791015,2.414063 v 27.269531 c 0,1.012842 -0.305518,1.786155 -0.818359,2.31836 -0.512842,0.532204 -1.262449,0.873046 -2.371094,0.873046 h -18.99414 c -1.271481,0 -2.234607,-0.291401 -2.837891,-0.779296 -0.603284,-0.487896 -0.964844,-1.17861 -0.964844,-2.41211 V 7.9052735 c 0,-1.026981 0.363511,-1.748314 1,-2.287109 0.636489,-0.538797 1.597624,-0.882813 2.802735,-0.882813 h 18.751953 a 1,1 0 0 0 1,-1 1,1 0 0 0 -1,-1 z M 27.854492,18.47168 a 0.89999998,0.89999998 0 0 0 -0.363281,0.08789 l -8.224609,3.960937 c -0.355471,0.167488 -0.853146,0.288895 -1.384766,0.660157 -0.533744,0.372744 -0.974147,1.152225 -0.935547,2.035156 v 9.666015 c 0,0.724793 0.229509,1.431746 0.71875,1.951172 0.489242,0.519426 1.21579,0.804688 1.992188,0.804688 h 8.476562 c 0.752605,0 1.490169,-0.168772 2.072266,-0.650391 0.582097,-0.481618 0.904297,-1.263319 0.904297,-2.105469 V 26.02246 c 0,-0.798659 -0.335949,-1.545803 -0.896485,-2.03125 -0.560535,-0.485446 -1.300836,-0.714843 -2.080078,-0.714843 h -3.929687 a 0.89999998,0.89999998 0 0 0 -0.900391,0.90039 0.89999998,0.89999998 0 0 0 0.900391,0.900391 h 3.929687 c 0.428359,0 0.726225,0.122864 0.902344,0.27539 0.176119,0.152527 0.275391,0.329112 0.275391,0.669922 v 8.859375 c 0,0.448041 -0.102914,0.595436 -0.251953,0.71875 -0.149041,0.123314 -0.448757,0.236329 -0.925782,0.236329 h -8.476562 c -0.372593,0 -0.552005,-0.100648 -0.681641,-0.238282 -0.129636,-0.137634 -0.230469,-0.359909 -0.230469,-0.716797 v -9.705078 a 0.90008998,0.90008998 0 0 0 0,-0.03906 c -0.0191,-0.436889 0.0018,-0.367769 0.166016,-0.482422 0.164176,-0.114653 0.598019,-0.256392 1.132812,-0.509766 a 0.90008998,0.90008998 0 0 0 0.0039,-0.0039 l 8.224609,-3.960937 A 0.89999998,0.89999998 0 0 0 28.692376,18.9795 0.89999998,0.89999998 0 0 0 27.854485,18.471687 Z" fill="#008055"/>
</svg>
