<svg xmlns="http://www.w3.org/2000/svg" width="48" height="48">
	<path d="m 14.80957,2.7353514 c -1.586185,0 -3.027503,0.4528795 -4.09375,1.3554687 C 9.649573,4.9934093 9.008789,6.3578324 9.008789,7.9052732 L 9.006836,40.073242 c 0,1.681493 0.620334,3.087956 1.707031,3.966797 1.086696,0.878842 2.524938,1.22461 4.095703,1.22461 h 18.99414 c 1.547191,0 2.892888,-0.532069 3.810547,-1.484375 0.91766,-0.952307 1.378907,-2.275981 1.378907,-3.707032 V 12.803711 c 0,-1.577085 -0.452884,-2.9287196 -1.398438,-3.8476565 C 36.649172,8.0371176 35.31001,7.6337888 33.80371,7.6337888 h -7.523437 a 1,1 0 0 0 -1,1 1,1 0 0 0 1,1 h 7.523437 c 1.161691,0 1.916534,0.2875213 2.398438,0.7558592 0.481904,0.468338 0.791016,1.200288 0.791016,2.414063 v 27.269531 c 0,1.01284 -0.305516,1.786154 -0.81836,2.31836 -0.512843,0.532206 -1.262455,0.873047 -2.371094,0.873047 H 14.80957 c -1.271475,0 -2.234602,-0.291401 -2.837891,-0.779297 -0.603288,-0.487896 -0.964843,-1.178612 -0.964843,-2.41211 l 0.002,-32.1679688 c 0,-1.0269792 0.361556,-1.7483135 0.998047,-2.2871093 0.63649,-0.5387959 1.597629,-0.8828125 2.802734,-0.8828125 H 33.56157 a 1,1 0 0 0 1,-1 1,1 0 0 0 -1,-1 z m 9.308594,18.1757816 a 0.89999998,0.89999998 0 0 0 -0.898438,0.900391 0.89999998,0.89999998 0 0 0 0.900391,0.90039 c 2.418645,-7.54e-4 3.919106,0.612665 5.46289,2.421875 a 0.89999998,0.89999998 0 0 0 1.269532,0.09961 0.89999998,0.89999998 0 0 0 0.09961,-1.267579 C 29.13043,21.83089 26.891216,20.910268 24.118165,20.911133 Z M 21.52832,21.37207 a 0.80008001,0.80008001 0 0 0 -0.310547,0.06055 c -0.984933,0.408084 -2.451844,1.107999 -3.714844,2.433594 -1.263,1.325595 -2.297511,3.294089 -2.425781,6.064453 a 0.80008001,0.80008001 0 0 0 0.560547,0.800782 h 0.0039 l 2.644531,0.832031 1.064454,1.126953 -0.04102,1.251953 a 0.80008001,0.80008001 0 0 0 0.189453,0.544922 l 1.439453,1.685547 a 0.80008001,0.80008001 0 0 0 1.408203,-0.511719 l 0.0098,-1.072266 0.740234,-0.472656 a 0.80008001,0.80008001 0 0 0 0.369141,-0.654297 l 0.01172,-0.519531 0.927734,-1.035156 a 0.80008001,0.80008001 0 0 0 -0.429687,-1.31836 l -1.5625,-0.326171 -1.240235,-1.447266 a 0.80008001,0.80008001 0 0 0 -0.671875,-0.277344 l -0.886719,0.07227 0.111329,-1.263672 1.601562,-0.751953 a 0.80008001,0.80008001 0 0 0 0.371094,-0.359375 l 0.513672,-1 1.478515,-0.492188 a 0.80008001,0.80008001 0 0 0 0.296875,-1.341797 L 22.07522,21.590827 a 0.80008001,0.80008001 0 0 0 -0.546875,-0.21875 z m -0.148438,1.763672 0.539063,0.509766 -0.521485,0.173828 a 0.80008001,0.80008001 0 0 0 -0.458984,0.394531 l -0.539062,1.048829 -1.769532,0.830078 a 0.80008001,0.80008001 0 0 0 -0.457031,0.654296 l -0.234375,2.667969 a 0.80008001,0.80008001 0 0 0 0.05859,0.378907 l -1.195313,-0.375 c 0.22489,-2.033163 0.930518,-3.474327 1.859375,-4.449219 0.877685,-0.921184 1.874465,-1.452509 2.71875,-1.833985 z m 5.97461,1.363282 a 0.80008001,0.80008001 0 0 0 -0.416016,0.101562 l -3.535156,1.962891 a 0.80008001,0.80008001 0 0 0 0.185547,1.472656 l 2.146484,0.560547 0.716797,0.949219 a 0.80008001,0.80008001 0 0 0 0.824219,0.296875 l 0.792969,-0.189454 0.228515,0.177735 0.02148,0.779297 a 0.80008001,0.80008001 0 0 0 0.216796,0.52539 l 2.509766,2.671875 a 0.80008001,0.80008001 0 0 0 1.318359,-0.230468 c 1.136882,-2.623936 0.889851,-5.342091 -0.158198,-7.400391 A 0.80008001,0.80008001 0 0 0 31.565429,25.743164 L 28.39746,25.454102 27.989257,24.850586 a 0.80008001,0.80008001 0 0 0 -0.634765,-0.351562 z m -0.279297,1.855468 0.210937,0.310547 a 0.80008001,0.80008001 0 0 0 0.589844,0.347657 l 3.003906,0.27539 c 0.540097,1.237806 0.616478,2.732889 0.273438,4.294922 L 29.911132,30.260742 29.885742,29.40918 A 0.80008001,0.80008001 0 0 0 29.577148,28.799805 L 28.745117,28.15332 a 0.80008001,0.80008001 0 0 0 -0.677735,-0.146484 l -0.654296,0.158203 -0.56836,-0.753906 a 0.80008001,0.80008001 0 0 0 -0.4375,-0.292969 l -0.482422,-0.125 z m -6.851563,3.8125 1.152344,1.34375 a 0.80008001,0.80008001 0 0 0 0.44336,0.261719 l 0.46875,0.09766 -0.199219,0.222657 a 0.80008001,0.80008001 0 0 0 -0.203125,0.515625 l -0.0098,0.388671 -0.746094,0.476563 a 0.80008001,0.80008001 0 0 0 -0.210937,0.197266 l 0.04101,-1.259766 a 0.80008001,0.80008001 0 0 0 -0.216796,-0.576172 l -1.435547,-1.521484 a 0.80008001,0.80008001 0 0 0 -0.07227,-0.06641 z m -4.177734,1.044922 a 0.89999998,0.89999998 0 0 0 -0.214844,0.03711 0.89999998,0.89999998 0 0 0 -0.607422,1.117187 c 1.232348,4.171784 4.357565,6.325347 7.570313,6.681641 3.212748,0.356294 6.53423,-0.952669 8.425781,-3.503906 a 0.89999998,0.89999998 0 0 0 -0.185547,-1.257813 0.89999998,0.89999998 0 0 0 -1.259765,0.185547 c -1.455501,1.963113 -4.196955,3.073708 -6.78125,2.787109 -2.584296,-0.286598 -4.989943,-1.837608 -6.042969,-5.402343 a 0.89999998,0.89999998 0 0 0 -0.904297,-0.644532 z" fill="#008055"/>
</svg>
