<svg xmlns="http://www.w3.org/2000/svg" width="48" height="48">
	<path d="m 14.80957,1.7353516 c -1.776729,0 -3.459114,0.5073073 -4.740234,1.5917968 -1.281121,1.08449 -2.0625,2.770461 -2.0625,4.578125 V 40.073242 c 0,1.905501 0.749721,3.669832 2.078125,4.744141 1.328403,1.074307 3.004215,1.447265 4.724609,1.447265 h 18.994141 c 1.76649,0 3.411191,-0.628645 4.53125,-1.791015 1.120059,-1.162372 1.658203,-2.76026 1.658203,-4.400391 V 14.805664 c 0,-1.758735 -0.523796,-3.422167 -1.701172,-4.566407 C 37.114616,9.0950184 35.482318,8.6357424 33.803711,8.6357424 h -5.59375 a 2,2 0 0 0 -2,1.9999996 2,2 0 0 0 2,2 h 5.59375 c 0.989392,0 1.451098,0.229621 1.701171,0.472656 0.250074,0.243036 0.488282,0.665141 0.488282,1.697266 v 25.267578 c 0,0.803759 -0.228647,1.302858 -0.539063,1.625 -0.310416,0.322142 -0.760981,0.566406 -1.65039,0.566406 H 14.80957 c -1.121806,0 -1.847388,-0.264209 -2.208984,-0.556641 -0.361597,-0.29243 -0.59375,-0.625276 -0.59375,-1.634765 V 7.9052734 c 0,-0.766756 0.224879,-1.166542 0.646484,-1.523437 0.421605,-0.356896 1.141679,-0.646485 2.15625,-0.646485 h 18.751953 a 2,2 0 0 0 2,-2 2,2 0 0 0 -2,-1.9999998 z m 5,18.6425774 a 1,1 0 0 0 -1,1 v 3.533204 c 0,2.205154 1.787458,3.926687 3.974609,3.927734 l 3.232422,0.0039 a 1.0001,1.0001 0 0 0 0.002,0 c 0.54524,0 0.903544,0.164938 1.16211,0.433594 0.258565,0.268656 0.445312,0.678955 0.445312,1.3125 v 4.132812 a 1,1 0 0 0 1,1 1,1 0 0 0 1,-1 v -4.132812 c 0,-1.052416 -0.345872,-2.015505 -1.003906,-2.699219 -0.658034,-0.683714 -1.600956,-1.046875 -2.603516,-1.046875 l -3.232422,-0.0039 c -1.250539,0 -1.976562,-0.69764 -1.976562,-1.927734 v -3.533204 a 1,1 0 0 0 -1,-1 z m 8.800781,0.0098 a 1,1 0 0 0 -1,1 v 4.193359 a 1,1 0 0 0 1,1 1,1 0 0 0 1,-1 v -4.193359 a 1,1 0 0 0 -1,-1 z m -8.798828,8.726562 a 1,1 0 0 0 -1,1 v 4.605469 a 1,1 0 0 0 1,1 1,1 0 0 0 1,-1 v -4.605469 a 1,1 0 0 0 -1,-1 z" fill="#008055"/>
</svg>
