<svg xmlns="http://www.w3.org/2000/svg" width="48" height="48">
	<path d="m 14.808594,2.735352 c -1.586185,0 -3.027503,0.452879 -4.09375,1.355468 C 9.6485965,4.99341 9.0078125,6.357833 9.0078125,7.905274 v 32.169921 c 0,1.681492 0.618384,3.086002 1.7050785,3.964844 1.086693,0.878842 2.524937,1.224609 4.095703,1.224609 h 18.99414 c 1.547191,0 2.892888,-0.532068 3.810547,-1.484374 0.917659,-0.952307 1.378907,-2.274028 1.378907,-3.705079 V 12.805664 c 0,-1.577085 -0.45093,-2.930672 -1.396485,-3.849609 -0.945554,-0.918937 -2.28667,-1.320313 -3.792969,-1.320313 h -7.523437 a 1,1 0 0 0 -1,1 1,1 0 0 0 1,1 h 7.523437 c 1.161691,0 1.916534,0.285568 2.398438,0.753906 0.481904,0.46834 0.791016,1.202241 0.791016,2.416016 v 27.269531 c 0,1.01284 -0.305516,1.784201 -0.81836,2.316407 -0.512842,0.532206 -1.262455,0.873046 -2.371094,0.873046 h -18.99414 c -1.271476,0 -2.234605,-0.291401 -2.837891,-0.779296 -0.603286,-0.487896 -0.962891,-1.176658 -0.962891,-2.410157 V 7.905274 c 0,-1.02698 0.36351,-1.748314 1,-2.28711 0.636491,-0.538796 1.595677,-0.882812 2.800782,-0.882812 H 33.5625 a 1,1 0 0 0 1,-1 1,1 0 0 0 -1,-1 z M 26.3125,19.051758 a 0.80000001,0.80000001 0 0 0 -0.642578,0.289062 l -5.513672,6.648438 a 0.80008001,0.80008001 0 0 0 0.25,1.222656 c 1.08779,0.558702 1.800925,1.313736 2.123047,2.539063 a 0.80000001,0.80000001 0 0 0 0.978516,0.570312 0.80000001,0.80000001 0 0 0 0.570312,-0.976562 c -0.346043,-1.316313 -1.182251,-2.241405 -2.173828,-2.958985 l 4.998047,-6.023437 A 0.80000001,0.80000001 0 0 0 26.796875,19.235352 0.80000001,0.80000001 0 0 0 26.3125,19.051758 Z m -2.914062,0.402344 a 0.80000001,0.80000001 0 0 0 -0.572266,0.28125 l -6.181641,7.259765 a 0.80008001,0.80008001 0 0 0 0.498047,1.3125 c 2.37258,0.332315 3.159259,1.657874 3.189453,2.871094 0.03019,1.21322 -0.691282,2.281971 -2.126953,2.300781 h -1.0625 c -0.424806,0 -0.633961,-0.09915 -0.748047,-0.208984 -0.114086,-0.109835 -0.214843,-0.295469 -0.214843,-0.730469 v -8.0625 c 0,-0.340523 0.09813,-0.555188 0.236328,-0.697265 0.138199,-0.142079 0.341501,-0.25 0.726562,-0.25 h 1.833985 a 0.80000001,0.80000001 0 0 0 0.798828,-0.798829 0.80000001,0.80000001 0 0 0 -0.798828,-0.800781 h -1.833985 c -0.732598,0 -1.40931,0.257619 -1.873047,0.734375 -0.463736,0.476757 -0.689453,1.134284 -0.689453,1.8125 v 8.0625 c 0,0.728391 0.218491,1.414355 0.705078,1.882813 0.486586,0.468457 1.159519,0.65625 1.857422,0.65625 h 1.074219 a 0.80008001,0.80008001 0 0 0 0.0098,0 c 2.28887,-0.02999 3.754106,-1.969546 3.705078,-3.939454 -0.04097,-1.646008 -1.195222,-3.278334 -3.28125,-4.03125 l 5.394531,-6.335937 a 0.80000001,0.80000001 0 0 0 -0.08984,-1.126953 0.80000001,0.80000001 0 0 0 -0.55664,-0.191406 z m 5.044921,2.466796 a 0.80000001,0.80000001 0 0 0 -0.07617,0.002 0.80000001,0.80000001 0 0 0 -0.685547,0.480468 l -3.705078,8.558594 a 0.80008001,0.80008001 0 0 0 -0.002,0.0039 c -0.413249,0.966568 -0.742167,1.550722 -1.091796,1.964844 a 0.80008001,0.80008001 0 0 0 -0.01953,0.02344 c -0.126975,0.162721 -0.239916,0.295319 -0.347656,0.441406 -0.10774,0.146087 -0.314695,0.264794 -0.279297,0.783203 0.0177,0.259204 0.213919,0.55929 0.392578,0.681641 0.17866,0.122351 0.31478,0.148879 0.433594,0.171875 0.237629,0.04599 0.44421,0.04688 0.730469,0.04688 h 6.759765 c 0.738268,0 1.432314,-0.209397 1.962891,-0.654297 0.530577,-0.444901 0.857422,-1.137992 0.857422,-1.884766 V 24.47368 c 0,-0.78844 -0.312084,-1.513067 -0.861328,-1.953125 -0.549244,-0.440058 -1.242374,-0.59375 -1.958985,-0.59375 a 0.80000001,0.80000001 0 0 0 -0.800781,0.800781 0.80000001,0.80000001 0 0 0 0.800781,0.800781 c 0.4794,0 0.795159,0.112494 0.957032,0.242188 0.161873,0.129694 0.261718,0.276454 0.261718,0.703125 v 8.066406 c 0,0.326456 -0.09724,0.50422 -0.283203,0.660156 -0.185966,0.155937 -0.499265,0.279297 -0.935547,0.279297 h -6.173828 c 0.371178,-0.526232 0.71526,-1.061683 1.066407,-1.882812 v -0.002 l 3.705078,-8.554688 a 0.80000001,0.80000001 0 0 0 -0.416016,-1.052734 0.80000001,0.80000001 0 0 0 -0.291016,-0.06641 z" fill="#008055"/>
</svg>
