<svg xmlns="http://www.w3.org/2000/svg" width="48" height="48">
	<path d="m 14.808593,2.7353516 c -1.586184,0 -3.027502,0.4528796 -4.093749,1.3554688 C 9.6485969,4.9934095 9.0078126,6.3578325 9.0078126,7.9052735 V 40.075195 c 0,1.681491 0.6183842,3.086002 1.7050784,3.964844 1.086694,0.878842 2.524938,1.224609 4.095702,1.224609 h 18.994141 c 1.547195,0 2.892888,-0.532068 3.810547,-1.484375 0.917658,-0.952307 1.378906,-2.274029 1.378906,-3.705078 V 12.805664 c 0,-1.577084 -0.452886,-2.9306715 -1.398437,-3.8496096 C 36.648198,8.0371175 35.309033,7.6357425 33.802734,7.6357425 h -7.523438 a 1,1 0 0 0 -1,1 1,1 0 0 0 1,1 h 7.523438 c 1.161691,0 1.916536,0.285569 2.398438,0.7539055 0.481901,0.468337 0.791015,1.202239 0.791015,2.416016 v 27.269531 c 0,1.012841 -0.305518,1.784201 -0.818359,2.316406 -0.512842,0.532205 -1.262449,0.873047 -2.371094,0.873047 H 14.808593 c -1.271474,0 -2.234604,-0.291401 -2.83789,-0.779297 -0.603286,-0.487895 -0.96289,-1.176657 -0.96289,-2.410156 V 7.9052735 c 0,-1.026979 0.363509,-1.748314 1,-2.287109 0.63649,-0.538796 1.595677,-0.8828131 2.80078,-0.8828131 h 18.751953 a 1,1 0 0 0 1,-0.9999999 1,1 0 0 0 -1,-1 z M 23.86914,19.163085 c -2.06289,0.03198 -4.126156,0.720709 -5.851562,2.089844 -0.985947,0.782364 -1.779934,1.721908 -2.373047,2.757813 -1.779336,3.107713 -1.74523,7.075288 0.361328,10.208984 a 0.99999949,1.0000005 82.937492 0 0 1.386719,0.273438 0.99999949,1.0000005 82.937492 0 0 0.271484,-1.388672 c -2.236895,-3.327586 -1.543191,-7.792847 1.597656,-10.285157 3.140848,-2.492308 7.646698,-2.153296 10.378907,0.78125 2.732208,2.934547 2.749039,7.453115 0.03906,10.408204 -2.709976,2.955089 -7.213473,3.327902 -10.373047,0.859375 a 0.99999949,1.0000005 82.937492 0 0 -1.402344,0.171875 0.99999949,1.0000005 82.937492 0 0 0.171876,1.404296 c 3.967298,3.09959 9.675358,2.626555 13.078124,-1.083984 3.402766,-3.710539 3.3799,-9.436349 -0.05078,-13.121094 -1.929758,-2.072668 -4.582087,-3.11729 -7.234375,-3.076172 z m 4.740235,4.1875 a 0.80008001,0.80008001 0 0 0 -0.390625,0.119141 l -4.6875,2.890625 a 0.80000001,0.80000001 0 0 0 -0.261719,1.101563 0.80000001,0.80000001 0 0 0 1.101562,0.261718 l 1.808594,-1.117187 -0.708984,1.148437 c -0.14915,0.226912 -0.232497,0.256696 -0.447266,0.294922 -0.214769,0.03823 -0.559246,0.0153 -0.966797,-0.0293 -0.40755,-0.0446 -0.877585,-0.11047 -1.40625,-0.01563 -0.52786,0.0947 -1.116886,0.430485 -1.46875,1.00586 0,0 -0.002,0.002 -0.002,0.002 l -2.53125,3.964844 a 0.80008001,0.80008001 0 0 0 1.080078,1.121093 l 4.699219,-2.767578 a 0.80000001,0.80000001 0 0 0 0.285156,-1.09375 0.80000001,0.80000001 0 0 0 -1.095703,-0.285156 l -1.824219,1.074219 0.744141,-1.166016 a 0.80008001,0.80008001 0 0 0 0.0098,-0.01563 c 0.131874,-0.216361 0.187163,-0.229824 0.386718,-0.265625 0.199556,-0.0358 0.540091,-0.01352 0.949219,0.03125 0.409128,0.04477 0.887721,0.110698 1.421875,0.01563 0.534155,-0.09507 1.126148,-0.420449 1.501953,-0.992187 a 0.80008001,0.80008001 0 0 0 0.01172,-0.01758 L 29.3203,24.571326 a 0.80008001,0.80008001 0 0 0 -0.710937,-1.220704 z" fill="#008055"/>
</svg>
