<svg xmlns="http://www.w3.org/2000/svg" width="48" height="48">
	<path d="m 14.808594,2.7353516 c -1.586185,0 -3.027503,0.4528796 -4.09375,1.3554688 C 9.6485969,4.9934096 9.0078126,6.3578327 9.0078126,7.9052735 V 40.073242 c 0,1.681492 0.6183819,3.087955 1.7050784,3.966797 1.086696,0.878841 2.524938,1.224609 4.095703,1.224609 h 18.99414 c 1.547191,0 2.892888,-0.532068 3.810547,-1.484375 0.917659,-0.952306 1.378906,-2.275981 1.378906,-3.707031 V 12.803711 c 0,-1.577085 -0.450932,-2.9287196 -1.396484,-3.8476566 C 36.650151,8.0371183 35.309029,7.6337892 33.802734,7.6337892 h -7.523437 a 1,1 0 0 0 -1,1 1,1 0 0 0 1,1.0000002 h 7.523437 c 1.161685,0 1.916535,0.287521 2.398438,0.7558586 0.481902,0.468338 0.791015,1.200288 0.791015,2.414063 v 27.269531 c 0,1.01284 -0.305516,1.786153 -0.818359,2.318359 -0.512843,0.532206 -1.262455,0.873047 -2.371094,0.873047 h -18.99414 c -1.271475,0 -2.234602,-0.291401 -2.837891,-0.779297 -0.603288,-0.487896 -0.96289,-1.178611 -0.96289,-2.412109 V 7.9052735 c 0,-1.0269792 0.363509,-1.7483136 1,-2.2871093 0.63649,-0.5387959 1.595676,-0.8828126 2.800781,-0.8828126 h 18.751953 a 1,1 0 0 0 1,-1 1,1 0 0 0 -1,-1 z M 23.9375,19.336914 c -0.948124,-0.0044 -1.895511,0.239083 -2.669922,0.779297 -0.774411,0.540213 -1.363281,1.453041 -1.363281,2.535156 a 0.89999998,0.89999998 0 0 0 0.90039,0.90039 0.89999998,0.89999998 0 0 0 0.900391,-0.90039 c 0,-0.482121 0.193043,-0.780431 0.591797,-1.058594 0.398754,-0.278163 1.016716,-0.459919 1.632812,-0.457031 0.616097,0.0029 1.210332,0.187753 1.601563,0.492187 0.391231,0.304435 0.630859,0.684769 0.630859,1.386719 l -0.0293,6.666016 a 0.90008998,0.90008998 0 0 0 0,0.0039 c 0,1.295026 1.001658,2.279208 2.048828,2.263672 1.04717,-0.01554 2.023438,-0.986643 2.023438,-2.257813 a 0.89999998,0.89999998 0 0 0 -0.900391,-0.90039 0.89999998,0.89999998 0 0 0 -0.90039,0.90039 c 0,0.50337 -0.159807,0.457676 -0.248047,0.458985 -0.08794,0.0013 -0.221747,0.09163 -0.222656,-0.462891 v -0.002 l 0.0293,-6.666016 a 0.90008998,0.90008998 0 0 0 0,-0.0039 c 0,-1.196355 -0.544238,-2.200135 -1.326172,-2.808594 -0.781933,-0.608458 -1.751095,-0.864696 -2.699218,-0.86914 z m -0.890625,5.03125 c -0.490987,-0.02559 -0.992623,0.04839 -1.466797,0.216797 -1.264464,0.449088 -2.345703,1.735434 -2.345703,3.527343 0,1.764292 0.938069,3.11386 2.166015,3.6875 1.227946,0.573641 2.746845,0.414393 3.792969,-0.572265 a 0.89999998,0.89999998 0 0 0 0.03711,-1.271485 0.89999998,0.89999998 0 0 0 -1.271484,-0.03711 c -0.485965,0.458341 -1.187613,0.534619 -1.796875,0.25 -0.609261,-0.284619 -1.126953,-0.887152 -1.126953,-2.056641 0,-1.14192 0.508221,-1.604651 1.148438,-1.832031 0.640215,-0.227379 1.402582,-0.05326 1.734374,0.302734 a 0.89999998,0.89999998 0 0 0 1.271485,0.04492 0.89999998,0.89999998 0 0 0 0.04492,-1.271484 c -0.465204,-0.499134 -1.062244,-0.805548 -1.701172,-0.929688 -0.159732,-0.03103 -0.322666,-0.05006 -0.486328,-0.05859 z m -7.056641,8.125 a 0.80000001,0.80000001 0 0 0 -0.472656,0.15625 0.80000001,0.80000001 0 0 0 -0.167969,1.11914 c 1.344227,1.822354 2.785021,3.091805 4.484375,3.707032 1.693457,0.613091 3.582932,0.540799 5.707031,-0.115235 l 0.02148,-0.0059 c 0.832118,-0.233606 1.677812,-0.387659 2.314453,-0.337891 0.642252,0.05021 1.013182,0.216465 1.304687,0.728516 a 0.80008001,0.80008001 0 0 0 1.22461,0.203125 l 3.658203,-3.232422 A 0.80008001,0.80008001 0 0 0 33.65039,33.325195 l -4.86914,-0.71875 A 0.80008001,0.80008001 0 0 0 28,32.954101 l -0.53711,0.806641 a 0.80000001,0.80000001 0 0 0 0.222657,1.109375 0.80000001,0.80000001 0 0 0 1.109375,-0.222656 l 0.255859,-0.384766 2.664063,0.394531 -1.832032,1.619141 C 29.327184,35.801377 28.681286,35.474157 28,35.420898 c -0.980095,-0.07662 -1.97349,0.140747 -2.892578,0.400391 a 0.80008001,0.80008001 0 0 0 -0.01953,0.0059 c -1.914776,0.594595 -3.398656,0.616964 -4.708984,0.142578 -1.310328,-0.474385 -2.510964,-1.481234 -3.742187,-3.15039 a 0.80000001,0.80000001 0 0 0 -0.646485,-0.326172 z" fill="#008055"/>
</svg>
