<svg xmlns="http://www.w3.org/2000/svg" width="48" height="48">
	<path d="m 14.808594,2.734375 c -1.586185,0 -3.027503,0.4548327 -4.09375,1.3574219 -1.0662475,0.9025891 -1.7070315,2.2650592 -1.7070315,3.8125 V 40.074219 c 0,1.681492 0.618382,3.086002 1.7050785,3.964843 1.086696,0.878842 2.524937,1.226563 4.095703,1.226563 h 18.99414 c 1.547191,0 2.892888,-0.534022 3.810547,-1.486328 0.917659,-0.952307 1.378907,-2.274028 1.378907,-3.705078 V 12.804688 c 0,-1.577086 -0.450931,-2.930673 -1.396485,-3.8496099 -0.945554,-0.9189369 -2.28667,-1.3203125 -3.792969,-1.3203125 h -7.523437 a 1,1 0 0 0 -1,1 1,1 0 0 0 1,1 h 7.523437 c 1.16169,0 1.916534,0.2875213 2.398438,0.7558594 0.481904,0.468338 0.791016,1.200286 0.791016,2.414063 v 27.269531 c 0,1.01284 -0.305516,1.786153 -0.81836,2.318359 -0.512844,0.532206 -1.262454,0.873047 -2.371094,0.873047 h -18.99414 c -1.271475,0 -2.234602,-0.293354 -2.837891,-0.78125 -0.603289,-0.487896 -0.962891,-1.176659 -0.962891,-2.410156 V 7.9042969 c 0,-1.0269792 0.36351,-1.7483136 1,-2.2871094 0.636491,-0.5387958 1.595677,-0.8828125 2.800782,-0.8828125 h 18.751953 a 1,1 0 0 0 1,-1 1,1 0 0 0 -1,-1 z m 17.21289,16.136719 c -0.486156,-0.0029 -0.985627,0.220002 -1.373046,0.607422 l -9.8125,9.753906 c -0.882605,0.04555 -1.656386,0.332242 -2.185547,0.835937 -0.623108,0.593121 -0.995953,1.330062 -1.345703,2.033203 -0.349751,0.703143 -0.673626,1.381344 -1.070313,1.894532 -0.396686,0.513188 -0.828108,0.864815 -1.511719,1.039062 a 0.80008001,0.80008001 0 0 0 0.171875,1.574219 c 1.960566,0.06026 3.877846,-0.226581 5.419922,-0.966797 1.542077,-0.740215 2.741954,-2.034745 2.90625,-3.791016 a 0.80000001,0.80000001 0 0 0 -0.722656,-0.871093 0.80000001,0.80000001 0 0 0 -0.871094,0.720703 c -0.106675,1.14031 -0.795261,1.918898 -2.005859,2.5 -0.577039,0.276985 -1.275594,0.476133 -2.029297,0.613281 0.479897,-0.662455 0.832142,-1.371971 1.144531,-2 0.337414,-0.678339 0.662518,-1.249918 1.017578,-1.587891 0.355061,-0.337972 0.696033,-0.50932 1.416016,-0.457031 a 0.80008001,0.80008001 0 0 0 0.623047,-0.230469 l 9.984375,-9.927734 a 0.80008001,0.80008001 0 0 0 0.002,-0.002 c 0.143459,-0.14346 0.206522,-0.138828 0.232422,-0.138672 0.0259,1.56e-4 0.0496,0.009 0.08008,0.04102 0.06095,0.06399 0.16451,0.105021 -0.06641,0.335937 l -8.542969,8.554688 a 0.80000001,0.80000001 0 0 0 -0.697266,0.222656 0.80000001,0.80000001 0 0 0 0,1.130859 c 0.218462,0.218506 0.674978,0.4015 1.03125,0.316407 0.356272,-0.08509 0.522513,-0.264302 0.66211,-0.402344 a 0.80008001,0.80008001 0 0 0 0.0039,-0.0039 l 8.675781,-8.6875 c 0.755893,-0.755894 0.700975,-1.930745 0.0918,-2.570313 -0.304589,-0.319784 -0.742359,-0.534185 -1.228516,-0.537109 z m -6.466796,0.630859 c -1.796835,-0.05238 -3.494178,0.58392 -4.496094,1.832031 -0.526223,0.611291 -0.765812,1.328746 -0.740235,1.957032 0.02578,0.633296 0.251526,1.142148 0.4375,1.550781 0.185975,0.408633 0.3308,0.734412 0.359375,0.896484 0.02858,0.162073 0.06419,0.108926 -0.08594,0.267578 l -0.0078,0.0078 -0.0078,0.0098 c -0.117243,0.130584 -0.15653,0.141786 -0.443359,0.132812 -0.28683,-0.009 -0.741054,-0.114345 -1.269532,-0.224609 -0.528478,-0.110265 -1.145481,-0.225549 -1.828125,-0.123047 -0.682644,0.102501 -1.411635,0.474726 -1.96289,1.152344 l -0.0078,0.0098 -0.0078,0.0098 c -1.180002,1.537967 -1.154427,3.642459 -0.464844,5.261719 a 0.89999998,0.89999998 0 0 0 1.181641,0.474609 0.89999998,0.89999998 0 0 0 0.474609,-1.181641 c -0.453609,-1.065154 -0.401559,-2.610349 0.232422,-3.447265 0.292985,-0.354895 0.517654,-0.452309 0.822265,-0.498047 0.309071,-0.04641 0.721186,0.005 1.19336,0.103515 0.472173,0.09852 0.98946,0.24324 1.580078,0.261719 0.586241,0.01834 1.319612,-0.168081 1.824219,-0.720703 0.485659,-0.519236 0.647826,-1.258168 0.550781,-1.808594 -0.09755,-0.553311 -0.328515,-0.966156 -0.494141,-1.330078 -0.165626,-0.363922 -0.268531,-0.662414 -0.277343,-0.878906 -0.0088,-0.216492 0.01495,-0.384139 0.304687,-0.716797 l 0.01367,-0.01563 0.01367,-0.01563 c 0.529952,-0.668968 1.729657,-1.204644 3.054687,-1.166016 0.745428,0.02171 0.892663,0.02931 1.582032,0.363282 a 0.89999998,0.89999998 0 0 0 1.203125,-0.416016 0.89999998,0.89999998 0 0 0 -0.417969,-1.203125 c -0.841912,-0.40787 -1.495935,-0.521029 -2.316406,-0.544922 z m 5.74414,5.316406 a 0.89999998,0.89999998 0 0 0 -0.291015,0.04883 0.89999998,0.89999998 0 0 0 -0.556641,1.144531 c 0.309851,0.89669 0.374718,0.988151 0.416016,1.916015 0.07994,1.796063 -0.375254,3.593819 -1.488282,4.908204 -1.410525,1.568519 -3.167189,2.346708 -4.933593,2.523437 -0.929001,0.09293 -1.250745,0.06336 -2.132813,-0.148437 a 0.89999998,0.89999998 0 0 0 -1.085937,0.664062 0.89999998,0.89999998 0 0 0 0.666015,1.085938 c 0.974172,0.233907 1.684148,0.294121 2.730469,0.189453 2.180457,-0.218155 4.389628,-1.206948 6.105469,-3.121094 l 0.0098,-0.0078 0.0059,-0.0098 c 1.482857,-1.743678 2.017755,-4.009883 1.921875,-6.164063 -0.0467,-1.049275 -0.208743,-1.541378 -0.513672,-2.423828 a 0.89999998,0.89999998 0 0 0 -0.853516,-0.605469 z" fill="#008055"/>
</svg>
