<svg xmlns="http://www.w3.org/2000/svg" width="48" height="48">
	<path d="m 14.80957,2.7353518 c -1.586185,0 -3.027503,0.4528796 -4.09375,1.3554688 C 9.649573,4.9934097 9.006836,6.3578329 9.006836,7.9052737 V 40.073242 c 0,1.681493 0.620335,3.087956 1.707031,3.966797 1.086696,0.878841 2.524938,1.224609 4.095703,1.224609 h 18.994141 c 1.547191,0 2.892887,-0.532068 3.810547,-1.484374 0.917659,-0.952307 1.378906,-2.275982 1.378906,-3.707032 V 12.803711 c 0,-1.577085 -0.452883,-2.9287193 -1.398438,-3.847656 C 36.649173,8.037118 35.31001,7.6337893 33.803711,7.6337893 h -7.523438 a 1,1 0 0 0 -1,1 1,1 0 0 0 1,1 h 7.523438 c 1.16169,0 1.916534,0.2875213 2.398437,0.7558597 0.481904,0.468338 0.791016,1.200287 0.791016,2.414062 v 27.269531 c 0,1.01284 -0.305516,1.786154 -0.818359,2.31836 -0.512844,0.532206 -1.262455,0.873046 -2.371094,0.873046 H 14.80957 c -1.271475,0 -2.234602,-0.2914 -2.83789,-0.779296 -0.603289,-0.487897 -0.964844,-1.178612 -0.964844,-2.41211 V 7.9052737 c 0,-1.0269792 0.363509,-1.7483135 1,-2.2871094 0.63649,-0.5387958 1.59763,-0.8828125 2.802734,-0.8828125 h 18.751953 a 1,1 0 0 0 1,-1 1,1 0 0 0 -1,-1 z m 9.583985,16.0898432 c -0.324391,-0.002 -0.65661,0.04479 -0.990235,0.146485 -1.334497,0.406787 -2.59022,1.5865 -3.646484,3.662109 a 0.89999998,0.89999998 0 0 0 0.392578,1.210938 0.89999998,0.89999998 0 0 0 1.210938,-0.394532 c 0.917856,-1.803631 1.881994,-2.548592 2.568359,-2.757812 0.662141,-0.201837 1.139571,-0.0012 1.517578,0.410156 0.783862,1.1611 0.411853,2.564576 -0.324219,3.359375 a 0.90008998,0.90008998 0 0 0 0.357422,1.458984 l 4.75,1.699219 a 0.90008998,0.90008998 0 0 0 1.203125,-0.841797 l 0.02734,-5.046875 a 0.90008998,0.90008998 0 0 0 -1.203125,-0.851562 c -0.532481,0.190611 -0.742579,0.146934 -1.148438,0.07226 a 0.89999998,0.89999998 0 0 0 -1.046875,0.722657 0.89999998,0.89999998 0 0 0 0.722657,1.048828 c 0.203171,0.03738 0.587946,-0.06672 0.86914,-0.0625 l -0.01367,2.835937 -2.666015,-0.953125 c 0.70178,-1.351815 0.995758,-3.00232 -0.0625,-4.513671 a 0.90008998,0.90008998 0 0 0 -0.05664,-0.07227 c -0.394397,-0.45516 -0.92448,-0.804646 -1.521484,-0.988281 -0.298502,-0.09182 -0.615063,-0.14255 -0.939453,-0.144532 z m -5.097657,5.490235 a 0.90008998,0.90008998 0 0 0 -0.419922,0.11914 l -4.382812,2.498047 a 0.90008998,0.90008998 0 0 0 -0.136719,1.46875 c 0.431318,0.365837 0.498443,0.568201 0.636719,0.957031 a 0.89999998,0.89999998 0 0 0 1.150391,0.546876 0.89999998,0.89999998 0 0 0 0.546875,-1.150391 c -0.06936,-0.195027 -0.352842,-0.476468 -0.490235,-0.722656 l 2.462891,-1.40625 0.507812,2.787109 c -1.521481,0.06826 -3.097274,0.638532 -3.876953,2.310547 a 0.90008998,0.90008998 0 0 0 -0.03516,0.08594 c -0.393963,1.138278 -0.148443,2.528155 0.871094,3.480469 1.019537,0.952314 2.670437,1.451177 4.996093,1.328125 a 0.89999998,0.89999998 0 0 0 0.851563,-0.947266 0.89999998,0.89999998 0 0 0 -0.947266,-0.849609 c -2.020913,0.106928 -3.147502,-0.355904 -3.671875,-0.845703 -0.506118,-0.472748 -0.569895,-0.988166 -0.402343,-1.521484 0.614281,-1.257311 2.014671,-1.636376 3.070312,-1.396485 a 0.90008998,0.90008998 0 0 0 1.083985,-1.039062 l -0.902344,-4.962891 a 0.90008998,0.90008998 0 0 0 -0.91211,-0.740234 z m 12.488282,3.722656 a 0.89999998,0.89999998 0 0 0 -0.507813,0.144531 0.89999998,0.89999998 0 0 0 -0.265625,1.244141 c 1.103062,1.696698 1.265508,2.904497 1.103516,3.603516 -0.156436,0.67504 -0.569158,0.987973 -1.115235,1.109374 -1.396079,0.09676 -2.424053,-0.926743 -2.74414,-1.960937 a 0.90008998,0.90008998 0 0 0 -1.441407,-0.419922 l -3.847656,3.263672 a 0.90008998,0.90008998 0 0 0 0.128906,1.464844 l 4.355469,2.546875 a 0.90008998,0.90008998 0 0 0 1.339844,-0.617188 c 0.101168,-0.556446 0.242171,-0.717093 0.509766,-1.03125 a 0.89999998,0.89999998 0 0 0 -0.101563,-1.267578 0.89999998,0.89999998 0 0 0 -1.269531,0.101563 c -0.134219,0.157572 -0.236354,0.543084 -0.380859,0.785156 l -2.449219,-1.431641 2.160156,-1.832031 c 0.819842,1.283574 2.101536,2.363927 3.939453,2.203125 a 0.90008998,0.90008998 0 0 0 0.0918,-0.01367 c 1.182759,-0.227952 2.263163,-1.135039 2.578125,-2.49414 0.314962,-1.359103 -0.07826,-3.037683 -1.347656,-4.990235 A 0.89999998,0.89999998 0 0 0 31.78418,28.038086 Z" fill="#008055"/>
</svg>
