<svg xmlns="http://www.w3.org/2000/svg" width="48" height="48">
	<path d="M 14.808594 2.734375 C 13.222409 2.734375 11.781092 3.1892084 10.714844 4.0917969 C 9.6485943 4.9943854 9.0078125 6.358808 9.0078125 7.90625 L 9.0078125 40.074219 C 9.0078125 41.755711 9.6261961 43.160221 10.712891 44.039062 C 11.799584 44.917904 13.237829 45.265625 14.808594 45.265625 L 33.804688 45.265625 C 35.351878 45.265625 36.697578 44.733557 37.615234 43.78125 C 38.532891 42.828942 38.992188 41.505268 38.992188 40.074219 L 38.992188 12.804688 C 38.992188 11.227604 38.541255 9.8740161 37.595703 8.9550781 C 36.650151 8.0361401 35.310986 7.6347656 33.804688 7.6347656 L 26.279297 7.6347656 A 1 1 0 0 0 25.279297 8.6347656 A 1 1 0 0 0 26.279297 9.6347656 L 33.804688 9.6347656 C 34.966378 9.6347656 35.719271 9.9242397 36.201172 10.392578 C 36.683073 10.860915 36.992188 11.590912 36.992188 12.804688 L 36.992188 40.074219 C 36.992188 41.087061 36.686669 41.862326 36.173828 42.394531 C 35.660987 42.926736 34.913327 43.265625 33.804688 43.265625 L 14.808594 43.265625 C 13.537119 43.265625 12.57399 42.974223 11.970703 42.486328 C 11.367418 41.998432 11.007812 41.307718 11.007812 40.074219 L 11.007812 7.90625 C 11.007812 6.879272 11.37132 6.1559845 12.007812 5.6171875 C 12.644305 5.0783915 13.603489 4.734375 14.808594 4.734375 L 33.5625 4.734375 A 1 1 0 0 0 34.5625 3.734375 A 1 1 0 0 0 33.5625 2.734375 L 14.808594 2.734375 z M 22.736328 18.322266 A 0.89789185 0.90211333 89.999934 0 0 22.003906 18.693359 A 0.89789185 0.90211333 89.999934 0 0 22.205078 19.947266 L 29.589844 25.287109 A 0.89798166 0.90220356 89.999934 0 0 29.609375 25.300781 C 32.478522 27.255034 33.173744 30.799042 31.255859 33.732422 C 30.298281 35.191052 29.026389 35.944669 27.685547 36.279297 C 26.344162 36.614061 24.930763 36.49529 23.871094 36.148438 A 0.89798166 0.90220356 89.999934 0 0 23.847656 36.140625 C 20.939766 35.282025 19.36977 32.112536 20.060547 29.005859 A 0.89798166 0.90220356 89.999934 0 0 20.0625 29.001953 C 20.158143 28.56203 20.196457 28.173127 20.125 27.779297 C 20.053543 27.385467 19.809097 26.948512 19.416016 26.722656 C 19.022934 26.496801 18.607639 26.498476 18.259766 26.564453 C 17.911892 26.630431 17.591776 26.763882 17.263672 26.9375 A 0.89798166 0.90220356 89.999934 0 0 17.251953 26.943359 L 12.921875 29.320312 A 0.89789185 0.90211333 89.999934 0 0 12.568359 30.539062 A 0.89789185 0.90211333 89.999934 0 0 13.794922 30.892578 L 18.111328 28.523438 C 18.204245 28.47427 18.239815 28.471675 18.314453 28.441406 C 18.306328 28.516164 18.319116 28.518795 18.296875 28.621094 L 18.298828 28.617188 C 17.426267 32.541417 19.438748 36.700654 23.320312 37.855469 C 24.701045 38.305299 26.409958 38.449013 28.123047 38.021484 C 29.840483 37.592871 31.557605 36.557193 32.767578 34.712891 A 0.89798166 0.90220356 89.999934 0 0 32.767578 34.710938 C 35.173728 31.030787 34.250209 26.284926 30.628906 23.818359 L 23.265625 18.494141 A 0.89789185 0.90211333 89.999934 0 0 22.972656 18.355469 A 0.89789185 0.90211333 89.999934 0 0 22.736328 18.322266 z M 15.507812 22.023438 A 0.89789185 0.90211333 89.999934 0 0 14.666016 22.71875 A 0.89789185 0.90211333 89.999934 0 0 15.341797 23.794922 L 24.660156 25.941406 A 0.89789185 0.90211333 89.999934 0 0 25.742188 25.267578 A 0.89789185 0.90211333 89.999934 0 0 25.074219 24.191406 A 0.89789185 0.90211333 89.999934 0 0 25.066406 24.191406 L 15.746094 22.044922 A 0.89789185 0.90211333 89.999934 0 0 15.507812 22.023438 z M 26.177734 27.111328 C 25.33561 27.110883 24.511365 27.413894 23.873047 27.964844 C 23.532611 28.258685 23.246816 28.623184 23.037109 29.048828 C 22.225502 30.696154 22.883446 32.674023 24.46875 33.568359 A 0.89803077 0.90196489 85.000047 0 0 24.583984 33.662109 C 24.593044 33.666709 24.598322 33.673234 24.607422 33.677734 A 0.89803077 0.90196489 85.000047 0 0 24.658203 33.703125 A 0.89803077 0.90196489 85.000047 0 1 24.660156 33.705078 A 0.89803077 0.90196489 85.000047 0 0 24.689453 33.71875 C 24.699893 33.72355 24.712186 33.719909 24.722656 33.724609 A 0.89803077 0.90196489 85.000047 0 0 24.865234 33.761719 C 26.554534 34.438314 28.521163 33.717417 29.310547 32.060547 C 30.126855 30.347166 29.392459 28.274666 27.677734 27.451172 C 27.195468 27.219564 26.683009 27.111595 26.177734 27.111328 z M 26.244141 28.902344 C 26.461133 28.914405 26.680309 28.969309 26.890625 29.070312 C 27.731889 29.474326 28.079549 30.45173 27.679688 31.291016 C 27.279827 32.130301 26.299634 32.484783 25.453125 32.091797 A 0.89803077 0.90196489 85.000047 0 0 25.439453 32.085938 A 0.89803077 0.90196489 85.000047 0 0 25.414062 32.070312 C 24.578191 31.655337 24.243409 30.671874 24.654297 29.837891 C 24.962462 29.212403 25.593165 28.866161 26.244141 28.902344 z " fill="#008055"/>
</svg>
