<svg xmlns="http://www.w3.org/2000/svg" width="48" height="48">
	<path d="m 14.808594,2.7353514 c -1.586185,0 -3.027503,0.4528782 -4.09375,1.3554692 -1.0662472,0.902588 -1.7070315,2.267012 -1.7070315,3.814453 V 40.073242 c 0,1.681492 0.6183842,3.087955 1.7050785,3.966797 1.086694,0.878842 2.524938,1.22461 4.095703,1.22461 h 18.99414 c 1.547196,0 2.892888,-0.532068 3.810547,-1.484375 0.917659,-0.952308 1.378907,-2.275983 1.378907,-3.707032 V 12.803711 c 0,-1.577084 -0.450933,-2.9287184 -1.396485,-3.8476564 -0.945552,-0.918938 -2.28667,-1.322266 -3.792969,-1.322266 h -7.523437 a 1,1 0 0 0 -1,1 1,1 0 0 0 1,1 h 7.523437 c 1.16169,0 1.916537,0.287522 2.398438,0.7558604 0.481901,0.468337 0.791016,1.200286 0.791016,2.414062 v 27.269531 c 0,1.012842 -0.305518,1.786154 -0.81836,2.31836 -0.512842,0.532205 -1.262449,0.873047 -2.371094,0.873047 h -18.99414 c -1.271475,0 -2.234605,-0.291402 -2.837891,-0.779297 -0.603286,-0.487896 -0.962891,-1.178611 -0.962891,-2.41211 V 7.9052736 c 0,-1.02698 0.36351,-1.748314 1,-2.28711 0.636491,-0.538796 1.595677,-0.882812 2.800782,-0.882812 h 18.751953 a 1,1 0 0 0 1,-1 1,1 0 0 0 -1,-1.0000002 z M 23.060547,19.12793 a 0.80000001,0.80000001 0 0 0 -0.582031,0.259765 c -0.866339,0.94735 -1.722607,2.60392 -2.201172,4.931641 -1.027516,-0.22999 -1.890131,-0.539782 -2.542969,-0.898437 0.828814,-1.07145 1.844385,-1.856712 2.771484,-2.326172 a 0.80000001,0.80000001 0 0 0 0.353516,-1.074219 0.80000001,0.80000001 0 0 0 -0.734375,-0.439453 0.80000001,0.80000001 0 0 0 -0.341797,0.08594 c -2.440877,1.236001 -5.302734,4.151045 -5.302734,8.597657 0,2.465746 0.884269,4.437072 2.005859,5.871093 1.121591,1.434022 2.460091,2.347153 3.482422,2.814453 a 0.80000001,0.80000001 0 0 0 1.060547,-0.394531 0.80000001,0.80000001 0 0 0 -0.394531,-1.060547 c -0.774831,-0.354169 -1.947599,-1.143029 -2.886719,-2.34375 -0.0084,-0.01078 -0.01504,-0.02431 -0.02344,-0.03516 0.654204,-0.361068 1.51965,-0.67306 2.552735,-0.904297 0.53275,2.595117 1.516978,4.243987 2.30664,5.023438 a 0.80000001,0.80000001 0 0 0 1.13086,-0.0078 0.80000001,0.80000001 0 0 0 -0.0078,-1.130859 c -0.431186,-0.42561 -1.31906,-1.818692 -1.830078,-4.158203 0.692998,-0.08006 1.439511,-0.125 2.238281,-0.125 0.79404,0 1.528758,0.04212 2.208985,0.115234 -0.511238,2.345357 -1.400257,3.741777 -1.832031,4.167969 a 0.80000001,0.80000001 0 0 0 -0.0059,1.130859 0.80000001,0.80000001 0 0 0 1.13086,0.0078 c 0.792075,-0.781833 1.779585,-2.437872 2.310546,-5.046875 1.058262,0.228943 1.929536,0.547359 2.59375,0.927734 -0.0053,0.0068 -0.01033,0.01471 -0.01563,0.02148 -0.939111,1.200725 -2.111889,1.989613 -2.886718,2.34375 a 0.80000001,0.80000001 0 0 0 -0.394532,1.060547 0.80000001,0.80000001 0 0 0 1.058594,0.394532 c 1.022381,-0.467282 2.360837,-1.380424 3.482422,-2.814453 1.121584,-1.434031 2.005859,-3.405351 2.005859,-5.871094 0,-4.446603 -2.86191,-7.361655 -5.302734,-8.597656 a 0.80000001,0.80000001 0 0 0 -0.361328,-0.08594 0.80000001,0.80000001 0 0 0 -0.712891,0.4375 0.80000001,0.80000001 0 0 0 0.351563,1.076172 c 0.928905,0.470385 1.947209,1.257289 2.777344,2.332031 -0.664536,0.380981 -1.53614,0.700461 -2.595704,0.929688 -0.47699,-2.339975 -1.335878,-4.0046 -2.205078,-4.955079 a 0.80000001,0.80000001 0 0 0 -0.603515,-0.259765 0.80000001,0.80000001 0 0 0 -0.527344,0.208984 0.80000001,0.80000001 0 0 0 -0.05078,1.13086 c 0.581237,0.635587 1.341823,2.043454 1.791015,4.134765 -0.682299,0.07363 -1.419843,0.115235 -2.216797,0.115235 -0.800929,0 -1.549569,-0.04453 -2.24414,-0.125 0.449479,-2.086004 1.20871,-3.490381 1.789062,-4.125 a 0.80000001,0.80000001 0 0 0 -0.05078,-1.13086 0.80000001,0.80000001 0 0 0 -0.548828,-0.208984 z m 8.310547,5.644531 c 0.484698,0.990706 0.800781,2.144985 0.800781,3.478516 0,1.373329 -0.318434,2.530259 -0.800781,3.505859 -0.8712,-0.514282 -1.942061,-0.902232 -3.197266,-1.162109 0.0801,-0.726259 0.136719,-1.48948 0.136719,-2.335938 0,-0.83289 -0.05804,-1.594721 -0.138672,-2.322265 1.256464,-0.259969 2.327413,-0.649256 3.199219,-1.164063 z m -14.484375,0.0039 c 0.855827,0.490492 1.912962,0.87538 3.142578,1.138672 -0.08225,0.733657 -0.140625,1.502663 -0.140625,2.34375 0,0.855014 0.0589,1.625031 0.140625,2.357422 -1.234474,0.264335 -2.294697,0.651292 -3.152344,1.144531 -0.479479,-0.973475 -0.794922,-2.127583 -0.794922,-3.496093 0,-1.337706 0.317681,-2.495559 0.804688,-3.488282 z m 4.730469,1.402344 c 0.779748,0.08989 1.611934,0.138672 2.498046,0.138672 0.878763,0 1.702965,-0.04192 2.470704,-0.125 0.07248,0.646149 0.125,1.323265 0.125,2.066406 0,0.754308 -0.05355,1.43397 -0.126954,2.080078 0,0 -0.002,0 -0.002,0 -0.766607,-0.08279 -1.589551,-0.125 -2.466797,-0.125 -0.885366,0 -1.716909,0.04892 -2.496093,0.138672 -0.0743,-0.650027 -0.128907,-1.333942 -0.128907,-2.09375 0,-0.748443 0.05351,-1.430024 0.126954,-2.080078 z" fill="#008055"/>
</svg>
