<svg xmlns="http://www.w3.org/2000/svg" width="48" height="48">
	<path d="m 14.808594,1.734375 c -1.776725,0 -3.457157,0.5092641 -4.738282,1.5937499 C 8.7891875,4.4126107 8.0078125,6.0966252 8.0078125,7.9042969 V 40.074219 c 0,1.905489 0.747772,3.669826 2.0761715,4.74414 1.328401,1.074314 3.004199,1.447266 4.72461,1.447266 h 18.99414 c 1.766467,0 3.411184,-0.628659 4.53125,-1.791016 1.120067,-1.162356 1.658204,-2.760235 1.658204,-4.40039 V 14.804687 c 0,-1.758739 -0.52184,-3.420216 -1.699219,-4.564453 -1.17738,-1.1442358 -2.811631,-1.6054684 -4.490235,-1.6054684 h -5.591796 a 2,2 0 0 0 -2,2.0000004 2,2 0 0 0 2,2 h 5.591796 c 0.989387,0 1.451093,0.229617 1.701172,0.472656 0.250079,0.243038 0.488282,0.665146 0.488282,1.697265 v 25.269532 c 0,0.803734 -0.228628,1.302844 -0.539063,1.625 -0.310434,0.322156 -0.761027,0.566406 -1.650391,0.566406 h -18.99414 c -1.12183,0 -1.847399,-0.26617 -2.208985,-0.558594 -0.361584,-0.292424 -0.591797,-0.623312 -0.591797,-1.632812 V 7.9042969 c 0,-0.7667486 0.224873,-1.1665384 0.646485,-1.5234376 C 13.07591,6.0239603 13.79403,5.734375 14.808594,5.734375 H 33.5625 a 2,2 0 0 0 2,-1.9980469 2,2 0 0 0 -2,-2.0019531 z m 9.310547,19.177734 a 0.89999998,0.89999998 0 0 0 -0.900391,0.900391 0.89999998,0.89999998 0 0 0 0.900391,0.90039 c 2.418644,-7.54e-4 3.919105,0.612665 5.46289,2.421876 a 0.89999998,0.89999998 0 0 0 1.269532,0.09961 0.89999998,0.89999998 0 0 0 0.101562,-1.269531 c -1.82172,-2.134931 -4.060933,-3.0536 -6.833984,-3.052735 z m -2.589844,0.460938 a 0.80008001,0.80008001 0 0 0 -0.310547,0.06055 c -0.984934,0.408083 -2.451843,1.107999 -3.714844,2.433593 -1.262999,1.325595 -2.297512,3.294089 -2.425781,6.064453 a 0.80008001,0.80008001 0 0 0 0.5625,0.800782 l 0.0059,0.002 2.640625,0.830078 1.0625,1.126953 -0.04102,1.251953 A 0.80008001,0.80008001 0 0 0 19.5,34.488281 l 1.4375,1.685547 a 0.80008001,0.80008001 0 0 0 1.408203,-0.511719 l 0.01172,-1.072265 0.738281,-0.472657 a 0.80008001,0.80008001 0 0 0 0.369141,-0.65625 l 0.01172,-0.517578 0.929687,-1.035156 A 0.80008001,0.80008001 0 0 0 23.974609,30.589844 L 22.414063,30.263672 21.171875,28.814453 A 0.80008001,0.80008001 0 0 0 20.5,28.539062 l -0.884766,0.07227 0.111329,-1.263672 1.599609,-0.751953 a 0.80008001,0.80008001 0 0 0 0.373047,-0.359375 l 0.513672,-1.001953 1.478515,-0.492188 a 0.80008001,0.80008001 0 0 0 0.296875,-1.339843 l -1.914062,-1.810547 a 0.80008001,0.80008001 0 0 0 -0.544922,-0.21875 z m -0.150391,1.763672 0.539063,0.509765 -0.521485,0.173828 A 0.80008001,0.80008001 0 0 0 20.9375,24.214844 l -0.537109,1.048828 -1.771485,0.830078 a 0.80008001,0.80008001 0 0 0 -0.457031,0.654297 L 17.9375,29.416016 a 0.80008001,0.80008001 0 0 0 0.06055,0.378906 l -1.195313,-0.375 c 0.224942,-2.032961 0.930573,-3.474385 1.859375,-4.449219 0.877608,-0.921103 1.872553,-1.452508 2.716797,-1.833984 z M 27.355469,24.5 a 0.80008001,0.80008001 0 0 0 -0.416016,0.101562 l -3.537109,1.962891 a 0.80008001,0.80008001 0 0 0 0.185547,1.472656 l 2.146484,0.560547 0.716797,0.949219 a 0.80008001,0.80008001 0 0 0 0.826172,0.296875 l 0.791015,-0.189453 0.230469,0.177734 0.02148,0.779297 a 0.80008001,0.80008001 0 0 0 0.216796,0.523438 l 2.509766,2.671874 a 0.80008001,0.80008001 0 0 0 1.316406,-0.228515 c 1.136876,-2.623935 0.891802,-5.34209 -0.15625,-7.400391 A 0.80008001,0.80008001 0 0 0 31.566406,25.74414 L 28.398438,25.455078 27.990234,24.851562 A 0.80008001,0.80008001 0 0 0 27.355469,24.5 Z m -0.279297,1.855469 0.210937,0.310547 a 0.80008001,0.80008001 0 0 0 0.589844,0.347656 l 3.003906,0.27539 c 0.540358,1.238404 0.615218,2.734043 0.271485,4.296875 l -1.242188,-1.324218 -0.02344,-0.853516 a 0.80008001,0.80008001 0 0 0 -0.308591,-0.609375 l -0.832031,-0.644531 a 0.80008001,0.80008001 0 0 0 -0.677735,-0.146485 l -0.65625,0.158204 -0.566406,-0.753907 a 0.80008001,0.80008001 0 0 0 -0.4375,-0.292969 l -0.482422,-0.125 z m -6.853516,3.810547 1.154297,1.345703 a 0.80008001,0.80008001 0 0 0 0.441406,0.261718 l 0.470704,0.09766 -0.199219,0.222656 a 0.80008001,0.80008001 0 0 0 -0.205078,0.515625 l -0.0098,0.388672 -0.744141,0.476562 a 0.80008001,0.80008001 0 0 0 -0.21289,0.197266 l 0.04297,-1.259766 a 0.80008001,0.80008001 0 0 0 -0.21875,-0.576172 l -1.435547,-1.521484 a 0.80008001,0.80008001 0 0 0 -0.07031,-0.06641 z M 16.044922,31.21289 A 0.89999998,0.89999998 0 0 0 15.832031,31.25 0.89999998,0.89999998 0 0 0 15.224609,32.367187 c 1.232349,4.171784 4.357566,6.325347 7.570313,6.681641 3.212747,0.356294 6.53423,-0.952669 8.425781,-3.503906 a 0.89999998,0.89999998 0 0 0 -0.1875,-1.257813 0.89999998,0.89999998 0 0 0 -1.259765,0.185547 c -1.455501,1.963113 -4.196956,3.073707 -6.78125,2.78711 -2.584296,-0.286599 -4.989944,-1.837608 -6.042969,-5.402344 A 0.89999998,0.89999998 0 0 0 16.044922,31.21289 Z" fill="#008055"/>
</svg>
