<svg xmlns="http://www.w3.org/2000/svg" width="48" height="48">
	<path d="m 14.80957,1.734375 c -1.776693,0 -3.45911,0.509273 -4.740234,1.59375 C 8.788212,4.412602 8.008789,6.096607 8.008789,7.904297 l -0.00195,32.169922 c 0,1.905501 0.749722,3.669833 2.078125,4.74414 1.328403,1.074307 3.004215,1.447266 4.724609,1.447266 h 18.994141 c 1.766491,0 3.411191,-0.628645 4.53125,-1.791016 1.120059,-1.16237 1.658203,-2.76026 1.658203,-4.40039 V 14.804687 c 0,-1.758735 -0.523795,-3.422166 -1.701172,-4.566406 C 37.114619,9.094042 35.482322,8.634766 33.803714,8.634766 h -5.59375 a 2,2 0 0 0 -2,2 2,2 0 0 0 2,2 h 5.59375 c 0.989392,0 1.451098,0.22962 1.701172,0.472656 0.250074,0.243035 0.488281,0.66514 0.488281,1.697265 v 25.269532 c 0,0.803759 -0.228646,1.302857 -0.539062,1.625 -0.310416,0.322142 -0.760982,0.566406 -1.650391,0.566406 H 14.80957 c -1.121806,0 -1.847387,-0.266163 -2.208984,-0.558594 -0.361597,-0.29243 -0.59375,-0.623323 -0.59375,-1.632812 l 0.002,-32.169922 c 0,-0.766731 0.222906,-1.16653 0.644531,-1.523438 0.421626,-0.356908 1.141743,-0.646484 2.15625,-0.646484 H 33.56157 a 2,2 0 0 0 2,-2 2,2 0 0 0 -2,-2 z m 5.025391,19.232422 a 1,1 0 0 0 -1,1 1,1 0 0 0 1,1 h 6.990234 c 0.648641,0 1.096098,0.180433 1.378907,0.4375 0.282809,0.257067 0.46289,0.608704 0.46289,1.222656 v 2.228516 c 0,0.621168 -0.529924,1.298828 -1.787109,1.298828 a 1.0001,1.0001 0 0 0 -0.002,0 l -3.322266,0.002 a 1,1 0 0 0 -1,1 1,1 0 0 0 1.001953,1 l 3.322266,-0.002 c 2.109415,0 3.787109,-1.473456 3.787109,-3.298828 v -2.228516 c 0,-1.071978 -0.399996,-2.051215 -1.117187,-2.703125 -0.717191,-0.65191 -1.68985,-0.957031 -2.72461,-0.957031 z m 0.998047,2.49414 a 1,1 0 0 0 -1,1 v 10.839844 a 1,1 0 0 0 1,1 1,1 0 0 0 1,-1 V 24.460937 a 1,1 0 0 0 -1,-1 z" fill="#008055"/>
</svg>
