<svg xmlns="http://www.w3.org/2000/svg" width="48" height="48">
	<path d="m 14.80957,2.7343748 c -1.586185,0 -3.027503,0.4548327 -4.09375,1.3574219 C 9.6495732,4.9943858 9.008789,6.3568562 9.008789,7.9042962 L 9.006839,40.074218 c 0,1.681493 0.6203349,3.087956 1.707031,3.966797 1.086696,0.878841 2.524938,1.22461 4.095703,1.22461 h 18.994141 c 1.547191,0 2.892887,-0.534022 3.810546,-1.486329 0.91766,-0.952306 1.378907,-2.274028 1.378907,-3.705078 V 12.804687 c 0,-1.577085 -0.452884,-2.9287188 -1.398438,-3.8476558 C 36.649175,8.0380943 35.310013,7.6347653 33.803714,7.6347653 h -7.523438 a 1,1 0 0 0 -1,1 1,1 0 0 0 1,1 h 7.523438 c 1.16169,0 1.916534,0.28752 2.398437,0.7558597 0.481904,0.468337 0.791016,1.200287 0.791016,2.414062 v 27.269531 c 0,1.01284 -0.305516,1.786154 -0.81836,2.31836 -0.512843,0.532206 -1.262454,0.873047 -2.371093,0.873047 H 14.80957 c -1.271475,0 -2.234602,-0.293355 -2.837891,-0.78125 -0.603288,-0.487897 -0.964843,-1.176659 -0.964843,-2.410157 l 0.002,-32.1699217 c 0,-1.0269784 0.361556,-1.7483132 0.998047,-2.287109 0.63649,-0.5387958 1.597629,-0.8828125 2.802734,-0.8828125 H 33.56157 a 1,1 0 0 0 1,-1 1,1 0 0 0 -1,-1 z m 9.324219,16.3730462 a 0.89999998,0.89999998 0 0 0 -0.900391,0.900391 v 5.171875 h -1.556641 c -0.811009,0 -1.588677,0.247815 -2.101562,0.820312 -0.512885,0.572499 -0.689453,1.335123 -0.689453,2.150391 v 1.171875 h -5.257813 a 0.89999998,0.89999998 0 0 0 -0.90039,0.900391 0.89999998,0.89999998 0 0 0 0.90039,0.90039 h 5.257813 v 1.171875 c 1.9e-5,0.678784 0.0647,1.390779 0.519531,2.015625 0.454831,0.624847 1.280176,0.955079 2.208984,0.955079 h 1.619141 v 4.849609 a 0.89999998,0.89999998 0 0 0 0.900391,0.900391 0.89999998,0.89999998 0 0 0 0.90039,-0.900391 v -4.849609 h 1.675782 c 0.855642,0 1.65373,-0.300424 2.115234,-0.90625 0.461504,-0.605828 0.556641,-1.325143 0.556641,-2.064454 v -1.171875 h 5.300781 a 0.89999998,0.89999998 0 0 0 0.898437,-0.90039 0.89999998,0.89999998 0 0 0 -0.898437,-0.900391 H 29.381836 V 28.15039 c 0,-0.854669 -0.204543,-1.637669 -0.744141,-2.197265 -0.539598,-0.559598 -1.314873,-0.773438 -2.109375,-0.773438 h -1.494141 v -5.171875 a 0.89999998,0.89999998 0 0 0 -0.90039,-0.900391 z m -2.457032,7.871094 h 4.851563 c 0.497858,0 0.698678,0.106569 0.8125,0.22461 0.113822,0.11804 0.240234,0.369284 0.240234,0.947265 v 4.144531 c 0,0.55335 -0.106136,0.867802 -0.1875,0.97461 -0.08136,0.106807 -0.169046,0.195312 -0.683593,0.195312 h -5.095704 c -0.582777,0 -0.673113,-0.10385 -0.753906,-0.214844 -0.08079,-0.110993 -0.173814,-0.434022 -0.173828,-0.955078 V 28.15039 c 0,-0.556082 0.120595,-0.828754 0.228516,-0.949219 0.10792,-0.120464 0.27429,-0.222656 0.761718,-0.222656 z m 2.457032,1.619141 a 1.6241062,1.6241062 0 0 0 -1.625,1.625 1.6241062,1.6241062 0 0 0 1.625,1.625 1.6241062,1.6241062 0 0 0 1.625,-1.625 1.6241062,1.6241062 0 0 0 -1.625,-1.625 z" fill="#008055"/>
</svg>
