<svg xmlns="http://www.w3.org/2000/svg" width="48" height="48">
	<path d="m 14.809571,2.734375 c -1.586186,0 -3.027503,0.4528796 -4.09375,1.3554687 C 9.6495731,4.9924329 9.0068361,6.3568561 9.0068361,7.9042968 V 21.708984 c 0,1.681491 0.6203363,3.087955 1.7070309,3.966797 1.086696,0.878842 2.524934,1.224609 4.095704,1.224609 h 4.748046 a 1,1 0 0 0 1,-1 1,1 0 0 0 -1,-1 h -4.748046 c -1.271481,0 -2.234604,-0.291401 -2.837891,-0.779296 -0.603287,-0.487896 -0.964844,-1.178611 -0.964844,-2.41211 V 7.9042968 c 0,-1.0269793 0.36351,-1.7483136 1,-2.2871093 0.636491,-0.5387959 1.59763,-0.8828125 2.802735,-0.8828125 h 18.751953 a 1,1 0 0 0 1,-1 1,1 0 0 0 -1,-1 z m 11.470703,4.8984375 a 1,1 0 0 0 -1,0.9999999 1,1 0 0 0 1,1 h 7.523437 c 1.161691,0 1.916534,0.2875212 2.398438,0.7558596 0.481903,0.468338 0.791015,1.200287 0.791015,2.414062 v 8.90625 c 0,1.01284 -0.305516,1.786154 -0.818359,2.31836 -0.512843,0.532206 -1.262455,0.873046 -2.371094,0.873046 h -4.748047 a 1,1 0 0 0 -1,1 1,1 0 0 0 1,1 h 4.748047 c 1.547191,0 2.892888,-0.532068 3.810547,-1.484374 0.917659,-0.952307 1.378906,-2.275982 1.378906,-3.707032 v -8.90625 c 0,-1.577084 -0.452883,-2.9287191 -1.398437,-3.8476559 C 36.649173,8.0361411 35.310011,7.6328125 33.803711,7.6328125 Z M 24.000977,22.089844 a 0.89999998,0.89999998 0 0 0 -0.900391,0.90039 v 4.65625 c 0,1.920888 -1.548599,3.209204 -3.033203,3.525391 a 0.90008998,0.90008998 0 0 0 -0.542969,1.40625 l 3.744141,5.207031 a 0.90008998,0.90008998 0 0 0 1.462891,0 l 3.74414,-5.207031 a 0.90008998,0.90008998 0 0 0 -0.617187,-1.419922 c -0.693172,-0.088 -1.365043,-0.703092 -1.595703,-0.994141 a 0.89999998,0.89999998 0 0 0 -1.263672,-0.146484 0.89999998,0.89999998 0 0 0 -0.146485,1.263672 c 0.271464,0.342534 0.821362,0.789128 1.503907,1.160156 l -2.355469,3.275391 -2.337891,-3.25 c 1.746167,-0.816155 3.236328,-2.487615 3.236328,-4.820313 v -4.65625 a 0.89999998,0.89999998 0 0 0 -0.898437,-0.90039 z M 10.006836,27.77539 a 1,1 0 0 0 -0.9999999,1 v 11.298829 c 0,1.681491 0.6203363,3.086001 1.7070309,3.964843 1.086696,0.878842 2.524934,1.226563 4.095704,1.226563 h 18.99414 c 1.547191,0 2.892888,-0.534022 3.810547,-1.486328 0.917659,-0.952307 1.378906,-2.274028 1.378906,-3.705078 V 28.77539 a 1,1 0 0 0 -1,-1 1,1 0 0 0 -1,1 v 11.298829 c 0,1.012839 -0.305516,1.786153 -0.818359,2.318359 -0.512843,0.532206 -1.262455,0.873047 -2.371094,0.873047 h -18.99414 c -1.271481,0 -2.234604,-0.293355 -2.837891,-0.78125 -0.603287,-0.487896 -0.964844,-1.176658 -0.964844,-2.410156 V 28.77539 a 1,1 0 0 0 -1,-1 z" fill="#008055"/>
</svg>
