<svg xmlns="http://www.w3.org/2000/svg" width="48" height="48">
	<path d="m 14.809571,2.7353517 c -1.586186,0 -3.027503,0.4548327 -4.09375,1.3574218 C 9.649574,4.9953623 9.006836,6.3578323 9.006836,7.9052733 V 40.075195 c 0,1.681491 0.620338,3.086002 1.707032,3.964844 1.086694,0.878842 2.524938,1.224609 4.095703,1.224609 h 18.99414 c 1.547196,0 2.892886,-0.532068 3.810547,-1.484375 0.917661,-0.952306 1.378906,-2.274028 1.378906,-3.705078 V 12.805664 c 0,-1.577085 -0.452883,-2.9306727 -1.398437,-3.8496097 -0.945554,-0.918935 -2.284716,-1.320312 -3.791016,-1.320312 h -7.52539 a 1,1 0 0 0 -1,1 1,1 0 0 0 1,1 h 7.52539 c 1.161691,0 1.916534,0.287521 2.398438,0.7558587 0.481903,0.468338 0.791015,1.200288 0.791015,2.414063 v 27.269531 c 0,1.01284 -0.307468,1.7842 -0.820312,2.316406 -0.512844,0.532206 -1.260496,0.873047 -2.369141,0.873047 h -18.99414 c -1.271475,0 -2.234605,-0.291401 -2.837891,-0.779297 -0.603286,-0.487895 -0.964844,-1.176657 -0.964844,-2.410156 V 7.9052733 c 0,-1.026979 0.36351,-1.748313 1,-2.287109 0.636491,-0.538796 1.59763,-0.8828126 2.802735,-0.8828126 h 18.751953 a 1,1 0 0 0 1,-1 1,1 0 0 0 -1,-1 z m 9.564453,15.4999993 c -2.119625,-0.04101 -4.262916,0.59135 -6.083984,1.935547 -1.040611,0.768113 -1.892806,1.705524 -2.539063,2.748047 -1.938771,3.127567 -2.045161,7.200348 0.0059,10.494141 a 0.99999711,1.0000029 84.972612 0 0 1.376954,0.320312 0.99999711,1.0000029 84.972612 0 0 0.320312,-1.376953 c -2.19288,-3.521609 -1.314318,-8.114406 2.023438,-10.578125 3.337755,-2.463719 7.985831,-1.949486 10.705078,1.183594 2.719246,3.133079 2.571038,7.807818 -0.337891,10.765625 -2.908929,2.957807 -7.577873,3.180304 -10.755859,0.513672 a 0.99999711,1.0000029 84.972612 0 0 -1.410157,0.123047 0.99999711,1.0000029 84.972612 0 0 0.123047,1.408203 c 3.963197,3.325497 9.84304,3.044087 13.470703,-0.644531 3.627664,-3.688619 3.811034,-9.569369 0.419922,-13.476563 -1.907501,-2.197797 -4.593127,-3.363284 -7.318359,-3.416016 z m -0.02344,5.78125 c -0.679258,-0.04157 -1.372789,0.0878 -2.015625,0.404297 -0.857114,0.422 -1.507893,1.119714 -1.882812,1.94336 -0.37492,0.823645 -0.475116,1.773764 -0.230469,2.697265 a 0.89999317,0.90000679 84.994846 0 0 1.101563,0.636719 0.89999317,0.90000679 84.994846 0 0 0.640625,-1.099609 c -0.272586,-1.02896 0.211026,-2.092312 1.166015,-2.5625 0.954989,-0.470189 2.094809,-0.204797 2.744141,0.638671 0.649332,0.84347 0.614842,2.011515 -0.08398,2.814454 -0.698827,0.802938 -1.854275,1.001317 -2.779297,0.474609 a 0.89999317,0.90000679 84.994846 0 0 -1.226563,0.335937 0.89999317,0.90000679 84.994846 0 0 0.337891,1.226563 c 1.66043,0.945448 3.770979,0.585826 5.02539,-0.855469 1.254412,-1.441294 1.317907,-3.581661 0.152344,-5.095703 -0.728476,-0.946276 -1.817121,-1.489304 -2.949219,-1.558594 z" fill="#008055"/>
</svg>
