<svg xmlns="http://www.w3.org/2000/svg" width="48" height="48">
	<path d="m 14.80957,2.7353517 c -1.586185,0 -3.0275,0.4548334 -4.09375,1.3574218 C 9.649571,4.9953622 9.006836,6.3578313 9.006836,7.9052733 V 40.075195 c 0,1.681492 0.620335,3.086003 1.707031,3.964844 1.086697,0.878841 2.524938,1.224609 4.095703,1.224609 h 18.994141 c 1.547187,0 2.892887,-0.532069 3.810547,-1.484375 0.91766,-0.952305 1.378906,-2.274026 1.378906,-3.705078 V 12.805664 c 0,-1.577085 -0.452883,-2.9306737 -1.398437,-3.8496087 -0.945554,-0.918937 -2.284717,-1.320313 -3.791016,-1.320313 h -7.523437 a 1,1 0 0 0 -1,1 1,1 0 0 0 1,1 h 7.523437 c 1.161691,0 1.916534,0.287521 2.398437,0.7558587 0.481905,0.468338 0.791016,1.200288 0.791016,2.414063 v 27.269531 c 0,1.012839 -0.305514,1.786153 -0.818359,2.31836 -0.512845,0.532206 -1.262461,0.871093 -2.371094,0.871093 H 14.80957 c -1.271475,0 -2.234602,-0.2914 -2.83789,-0.779297 -0.603289,-0.487896 -0.964844,-1.176658 -0.964844,-2.410156 V 7.9052733 c 0,-1.026978 0.363507,-1.748313 1,-2.287109 0.636493,-0.5387967 1.59763,-0.8828126 2.802734,-0.8828126 h 18.751954 a 1,1 0 0 0 1,-1 1,1 0 0 0 -1,-1 z M 29.674805,18.905273 c -0.732556,-0.02507 -1.462408,0.225888 -2.013672,0.777344 a 0.80008502,0.80008502 0 0 0 -0.0039,0.0059 l -1.78711,1.814453 -0.458984,-0.458984 a 0.80000502,0.80000502 0 0 0 -1.132813,0 0.80000502,0.80000502 0 0 0 0,1.13086 l 0.484375,0.484374 c 0.286675,0.308692 0.720529,0.560258 1.19336,0.529297 0.47283,-0.03096 0.83039,-0.303856 1.085937,-0.599609 l -0.03516,0.03906 1.785156,-1.8125 c 0.444192,-0.444347 1.228706,-0.443347 1.777344,0.105469 0.548047,0.548568 0.549559,1.333403 0.105469,1.777344 a 0.80008502,0.80008502 0 0 0 -0.0039,0.0039 l -1.765633,1.792936 c -0.2793,0.260884 -0.516131,0.622724 -0.544922,1.054688 -0.02879,0.431962 0.164072,0.825726 0.40625,1.109374 a 0.80008502,0.80008502 0 0 0 0.04297,0.04688 l 0.503907,0.503906 a 0.80000502,0.80000502 0 0 0 1.132812,0 0.80000502,0.80000502 0 0 0 0,-1.13086 l -0.431641,-0.43164 a 0.80008502,0.80008502 0 0 0 0.0078,-0.0059 l 1.789063,-1.816406 -0.0059,0.0039 c 1.102229,-1.101858 1.010264,-2.92227 -0.105469,-4.039062 -0.558311,-0.558492 -1.292834,-0.859699 -2.02539,-0.884766 z m -5.513672,4.802735 c -0.494041,0.01212 -0.898217,0.297561 -1.193359,0.630859 L 17.22168,30.12207 c -1.100899,1.10275 -1.006917,2.923066 0.109375,4.039063 1.116875,1.115319 2.93529,1.207744 4.037109,0.105468 v 0.002 l 5.027344,-5.003907 a 0.80000502,0.80000502 0 0 0 0.0039,-1.132812 0.80000502,0.80000502 0 0 0 -1.132812,-0.002 l -5.027344,5.003906 a 0.80008502,0.80008502 0 0 0 -0.002,0.002 c -0.443901,0.444084 -1.226646,0.440559 -1.775391,-0.107422 -0.548856,-0.548711 -0.551821,-1.331145 -0.107422,-1.775391 a 0.80008502,0.80008502 0 0 0 0.002,-0.002 l 5.777344,-5.816406 a 0.80008502,0.80008502 0 0 0 0.03125,-0.03516 c 0.02381,-0.02689 0.02168,-0.02195 0.03711,-0.03711 0.011,0.0097 0.0071,0.0056 0.02148,0.01953 l 2.109375,2.160156 a 0.80000502,0.80000502 0 0 0 1.130859,0.01367 0.80000502,0.80000502 0 0 0 0.01367,-1.130859 l -2.125,-2.175782 a 0.80008502,0.80008502 0 0 0 -0.01563,-0.01563 c -0.287286,-0.278411 -0.68174,-0.537509 -1.175781,-0.52539 z m -8.005859,10.779297 a 0.80000502,0.80000502 0 0 0 -0.515626,0.234374 l -1.011718,1.009766 a 0.80000502,0.80000502 0 0 0 0,1.13086 0.80000502,0.80000502 0 0 0 1.130859,0 l 1.011719,-1.009766 a 0.80000502,0.80000502 0 0 0 0,-1.13086 0.80000502,0.80000502 0 0 0 -0.615234,-0.234374 z" fill="#008055"/>
</svg>
