<svg xmlns="http://www.w3.org/2000/svg" width="48" height="48">
	<path d="m 14.80957,1.7353515 c -1.776729,0 -3.459106,0.507311 -4.740234,1.591797 -1.2811275,1.084486 -2.0625005,2.770453 -2.0625005,4.578125 V 40.073242 c 0,1.905488 0.749728,3.669826 2.0781255,4.744141 1.328398,1.074316 3.004199,1.447265 4.724609,1.447265 h 18.994141 c 1.766466,0 3.411183,-0.628658 4.53125,-1.791015 1.120066,-1.162357 1.658203,-2.760236 1.658203,-4.400391 V 14.805664 c 0,-1.758736 -0.523794,-3.422168 -1.701172,-4.566406 C 37.114613,9.0950195 35.482318,8.6357425 33.803711,8.6357425 h -5.59375 a 2,2 0 0 0 -2,1.9999995 2,2 0 0 0 2,2 h 5.59375 c 0.989393,0 1.451096,0.229619 1.701172,0.472656 0.250076,0.243038 0.488281,0.665144 0.488281,1.697266 v 25.267578 c 0,0.803734 -0.228628,1.302844 -0.539062,1.625 -0.310435,0.322156 -0.76103,0.566406 -1.650391,0.566406 H 14.80957 c -1.121829,0 -1.847401,-0.264218 -2.208984,-0.55664 -0.361583,-0.292423 -0.59375,-0.625263 -0.59375,-1.634766 V 7.9052735 c 0,-0.766749 0.224871,-1.166538 0.646484,-1.523438 0.421614,-0.356899 1.141679,-0.646484 2.15625,-0.646484 h 18.751953 a 2,2 0 0 0 2,-2 2,2 0 0 0 -2,-2 z M 25.887695,21.59668 c -1.276006,0 -2.358206,0.840741 -2.716797,1.974609 l 0.0098,-0.0332 -3.214844,8.996094 -1.015625,-3.013672 a 0.90008998,0.90008998 0 0 0 -0.01172,-0.03516 c -0.184091,-0.480283 -0.461285,-0.919143 -0.878939,-1.220704 -0.417653,-0.30156 -0.931142,-0.421875 -1.425781,-0.421875 h -1.107422 a 0.89999998,0.89999998 0 0 0 -0.898437,0.900391 0.89999998,0.89999998 0 0 0 0.898437,0.900391 h 1.107422 c 0.236002,0 0.311521,0.03706 0.371094,0.08008 0.05957,0.04301 0.149203,0.138133 0.251953,0.40625 l 1.830078,5.435547 a 0.90008998,0.90008998 0 0 0 1.701172,0.01563 l 4.087891,-11.435547 a 0.90008998,0.90008998 0 0 0 0.01172,-0.0332 c 0.181129,-0.572733 0.331325,-0.716797 1,-0.716797 h 5.996094 a 0.89999998,0.89999998 0 0 0 0.900391,-0.898437 0.89999998,0.89999998 0 0 0 -0.900391,-0.900391 z m 4.777344,5.769531 a 0.89999998,0.89999998 0 0 0 -0.734375,0.373047 l -1.666016,2.294922 -1.664062,-2.294922 a 0.89999998,0.89999998 0 0 0 -0.757813,-0.371094 0.89999998,0.89999998 0 0 0 -0.5,0.169922 0.89999998,0.89999998 0 0 0 -0.199218,1.257812 l 2.009765,2.771485 -2.009765,2.771484 a 0.89999998,0.89999998 0 0 0 0.199218,1.257813 0.89999998,0.89999998 0 0 0 1.257813,-0.201172 l 1.664062,-2.294922 1.666016,2.294922 a 0.89999998,0.89999998 0 0 0 1.255859,0.201172 0.89999998,0.89999998 0 0 0 0.201172,-1.257813 l -2.009765,-2.771484 2.009765,-2.771485 a 0.89999998,0.89999998 0 0 0 -0.201172,-1.257812 0.89999998,0.89999998 0 0 0 -0.521484,-0.171875 z" fill="#008055"/>
</svg>
