<svg xmlns="http://www.w3.org/2000/svg" width="48" height="48">
	<path d="m 14.80957,2.7343748 c -1.586185,0 -3.027503,0.4548327 -4.09375,1.3574219 C 9.649573,4.9943859 9.008789,6.3568564 9.008789,7.9042962 L 9.006839,40.074218 c 0,1.681492 0.620335,3.087955 1.707031,3.966797 1.086695,0.878842 2.524934,1.22461 4.095703,1.22461 h 18.994141 c 1.547191,0 2.892887,-0.534022 3.810546,-1.486329 0.91766,-0.952306 1.378907,-2.274027 1.378907,-3.705078 V 12.804687 c 0,-1.577085 -0.452884,-2.9287188 -1.398438,-3.8476558 -0.945554,-0.918937 -2.284716,-1.322266 -3.791015,-1.322266 h -7.523438 a 1,1 0 0 0 -1,1 1,1 0 0 0 1,1 h 7.523438 c 1.16169,0 1.916534,0.287522 2.398437,0.7558598 0.481904,0.468338 0.791016,1.200287 0.791016,2.414062 v 27.269531 c 0,1.01284 -0.305516,1.786154 -0.81836,2.31836 -0.512843,0.532206 -1.262454,0.873047 -2.371093,0.873047 H 14.80957 c -1.271481,0 -2.234604,-0.293355 -2.837891,-0.78125 -0.603287,-0.487896 -0.964843,-1.176658 -0.964843,-2.410157 l 0.002,-32.1699218 c 0,-1.0269782 0.361556,-1.748313 0.998047,-2.2871089 0.63649,-0.5387958 1.597629,-0.8828125 2.802734,-0.8828125 l 18.751953,0.00195 a 1,1 0 0 0 1,-1 1,1 0 0 0 -1,-1 z M 27.461914,18.93164 c -0.530666,-0.01835 -1.048431,0.10104 -1.503907,0.365235 -0.835841,0.484823 -1.410557,1.379495 -1.804687,2.482421 l -1.167969,-0.677734 c -0.485386,-0.284226 -1.030206,-0.439822 -1.550781,-0.279297 -0.520575,0.160526 -0.834028,0.557643 -1.048828,0.929688 a 0.80008001,0.80008001 0 0 0 0,0.002 l -0.533203,0.929687 c -0.246949,0.428619 -0.384172,1.010911 -0.132813,1.496094 0.251685,0.485812 0.658761,0.669037 1.039063,0.826172 0.521028,0.2269 0.855839,0.450557 0.927734,0.580078 0.07275,0.131066 0.150774,0.404725 -0.359375,1.294922 -0.509957,0.889861 -0.782426,0.956615 -0.923828,0.958984 -0.141402,0.0024 -0.501685,-0.174566 -0.964844,-0.523437 a 0.80008001,0.80008001 0 0 0 -0.0098,-0.0078 c -0.25285,-0.184181 -0.497614,-0.32618 -0.785157,-0.404297 -0.287543,-0.07812 -0.639647,-0.06631 -0.921875,0.06055 -0.564456,0.253716 -0.749536,0.698254 -0.9375,1.078125 l 0.02148,-0.04297 -0.683594,1.193359 a 0.80000001,0.80000001 0 0 0 0.296875,1.091797 0.80000001,0.80000001 0 0 0 1.091797,-0.296875 l 0.683594,-1.193359 a 0.80008001,0.80008001 0 0 0 0.02344,-0.04297 c 0.1111,-0.224531 0.11864,-0.221694 0.117188,-0.238281 0.04552,0.02281 0.0611,0.02285 0.15039,0.08789 0.493115,0.371877 1.086732,0.85228 1.945313,0.837891 0.86389,-0.01448 1.645313,-0.64521 2.285156,-1.761719 0.640711,-1.118023 0.788196,-2.114199 0.369141,-2.869141 -0.419056,-0.754941 -1.137737,-1.032288 -1.705078,-1.277343 a 0.80008001,0.80008001 0 0 0 -0.01172,-0.0059 c -0.144324,-0.05963 -0.103054,-0.0306 -0.128907,-0.04688 l 0.533242,-0.925796 v -0.002 c 0.118056,-0.203235 0.17579,-0.212472 0.132812,-0.199219 -0.04327,0.01334 -0.0042,-0.03055 0.271484,0.13086 a 0.80008001,0.80008001 0 0 0 0.002,0 l 1.464843,0.851562 c 0.152143,0.101702 0.297046,0.189517 0.501953,0.25 0.225767,0.06664 0.605849,0.063 0.875,-0.119141 0.269152,-0.182138 0.36152,-0.403413 0.421876,-0.560547 0.05349,-0.139255 0.08188,-0.257789 0.111328,-0.378906 0.310513,-0.99572 0.779596,-1.59582 1.207031,-1.84375 0.427434,-0.24793 0.840691,-0.26829 1.476562,0.101563 0.597544,0.347557 0.778502,0.713155 0.78711,1.210937 0.0086,0.497783 -0.241353,1.179642 -0.830078,1.882813 a 0.80008001,0.80008001 0 0 0 -0.0039,0.0059 c -0.192969,0.234473 -0.427755,0.461629 -0.486328,0.941406 -0.02929,0.239889 0.03189,0.521797 0.148438,0.72461 0.11655,0.202813 0.26323,0.34242 0.417968,0.466797 a 0.80008001,0.80008001 0 0 0 0.09961,0.06836 l 2.017578,1.173828 -0.673828,1.175781 c -0.480711,-0.367988 -1.00999,-0.855709 -1.84375,-0.933593 -0.449654,-0.042 -0.958446,0.09242 -1.378906,0.394531 -0.420461,0.302113 -0.773771,0.740584 -1.117188,1.339844 -0.337198,0.588402 -0.539985,1.101511 -0.599609,1.603515 -0.05963,0.502004 0.0596,1.003144 0.308593,1.373047 0.48459,0.719912 1.200277,0.953513 1.773438,1.208985 l -0.677734,1.179687 c -0.02751,-0.01029 0.02778,0.0077 -0.05664,-0.04492 a 0.80008001,0.80008001 0 0 0 -0.01953,-0.01367 l -1.501953,-0.871093 c -0.209462,-0.143097 -0.393886,-0.25323 -0.621094,-0.330079 -0.227209,-0.07685 -0.555336,-0.111297 -0.851563,0.02539 -0.296226,0.136688 -0.450983,0.3717 -0.535156,0.537109 -0.07766,0.152622 -0.116358,0.274009 -0.154297,0.390625 -0.322963,0.854707 -0.822544,1.421639 -1.3125,1.677735 -0.489956,0.256096 -0.958238,0.273699 -1.542969,-0.06641 -0.570944,-0.332089 -0.770996,-0.733863 -0.779296,-1.271484 -0.0083,-0.53762 0.248132,-1.231942 0.828125,-1.890625 l -0.02539,0.02734 c 0.153781,-0.159188 0.278463,-0.299746 0.384766,-0.484375 0.106302,-0.184629 0.203379,-0.466462 0.144531,-0.767578 -0.05885,-0.301116 -0.240189,-0.497756 -0.359375,-0.603516 -0.119186,-0.10576 -0.20686,-0.159461 -0.279297,-0.210937 a 0.80008001,0.80008001 0 0 0 -0.06055,-0.03906 l -0.640625,-0.371094 a 0.80000001,0.80000001 0 0 0 -1.09375,0.289063 0.80000001,0.80000001 0 0 0 0.289063,1.09375 l 0.326172,0.189453 c -0.699808,0.856235 -1.128289,1.821007 -1.113282,2.792969 0.01601,1.036722 0.576213,2.048416 1.574219,2.628906 1.00096,0.582204 2.159234,0.586964 3.087891,0.101563 0.865213,-0.452242 1.518133,-1.290038 1.955078,-2.322266 l 1.455078,0.845703 c 0,0 0.002,0 0.002,0 0.335934,0.209427 0.718021,0.396839 1.203125,0.326172 0.485838,-0.07077 0.855402,-0.438013 1.0625,-0.800781 l 0.755859,-1.31836 a 0.80008001,0.80008001 0 0 0 0,-0.002 c 0.18878,-0.331201 0.356291,-0.779446 0.185547,-1.255859 -0.170553,-0.475882 -0.55491,-0.711747 -0.914062,-0.875 h -0.002 c -0.620189,-0.282239 -1.067535,-0.533271 -1.158203,-0.667969 -0.04539,-0.06743 -0.06936,-0.103662 -0.04688,-0.292969 0.02249,-0.189307 0.128216,-0.522608 0.398438,-0.99414 0.271163,-0.473176 0.508734,-0.727687 0.662109,-0.837891 0.153376,-0.110204 0.20184,-0.108487 0.296875,-0.09961 0.19007,0.01776 0.647039,0.301299 1.183594,0.699218 0.27949,0.207597 0.677785,0.405397 1.144531,0.316407 0.466747,-0.08899 0.783153,-0.425748 0.988282,-0.767579 a 0.80008001,0.80008001 0 0 0 0.0078,-0.01367 l 0.816406,-1.427735 a 0.80008001,0.80008001 0 0 0 0.01367,-0.02344 c 0.159228,-0.300621 0.30269,-0.75647 0.123047,-1.195313 -0.179209,-0.437783 -0.496583,-0.627459 -0.80664,-0.80664 l -0.002,-0.002 -1.742187,-1.013671 c 0.742957,-0.901555 1.193092,-1.891439 1.175781,-2.892579 -0.01759,-1.016995 -0.595918,-1.991703 -1.583984,-2.566406 -0.50471,-0.293563 -1.04746,-0.450402 -1.578125,-0.46875 z" fill="#008055"/>
</svg>
