<svg xmlns="http://www.w3.org/2000/svg" width="48" height="48">
	<path d="m 14.808594,2.7353515 c -1.586184,0 -3.027503,0.452882 -4.09375,1.355469 -1.0662475,0.902586 -1.7070315,2.267012 -1.7070315,3.814453 V 40.073242 c 0,1.681492 0.618382,3.087956 1.7050785,3.966797 1.086696,0.878842 2.524937,1.224609 4.095703,1.224609 h 18.996094 c 1.54719,0 2.892887,-0.532069 3.810546,-1.484375 0.91766,-0.952306 1.376954,-2.275981 1.376954,-3.707031 V 12.803711 c 0,-1.577085 -0.450931,-2.9287195 -1.396485,-3.8476565 -0.945554,-0.918937 -2.284717,-1.322266 -3.791015,-1.322266 h -7.525391 a 1,1 0 0 0 -1,1 1,1 0 0 0 1,1 h 7.525391 c 1.16169,0 1.91458,0.287522 2.396484,0.7558595 0.481904,0.468338 0.791016,1.200287 0.791016,2.414063 v 27.269531 c 0,1.012839 -0.305515,1.786153 -0.81836,2.31836 -0.512844,0.532206 -1.260501,0.873046 -2.36914,0.873046 H 14.808594 c -1.271475,0 -2.234602,-0.291401 -2.837891,-0.779296 -0.603289,-0.487896 -0.962891,-1.178613 -0.962891,-2.41211 V 7.9052735 c 0,-1.026979 0.363511,-1.748316 1,-2.287109 0.636491,-0.538795 1.595675,-0.882813 2.800782,-0.882813 H 33.5625 a 1,1 0 0 0 1,-1 1,1 0 0 0 -1,-1 z M 24.03125,18.286133 c -1.255177,-0.01526 -2.39164,0.39683 -3.251953,1.027344 -0.862699,0.632259 -1.508346,1.493417 -1.548828,2.529296 a 0.90008998,0.90008998 0 0 0 0,0.03516 v 3.980469 c 0,-0.05472 -0.01649,0.03981 -0.06445,0.09375 -0.03108,0.03495 -0.04136,0.03971 -0.03125,0.03906 -0.825345,0.02801 -1.564804,0.417271 -2.023438,0.994141 -0.460512,0.579233 -0.666015,1.307243 -0.666015,2.048828 a 0.90008998,0.90008998 0 0 0 0,0.002 l 0.01758,6.539063 c 3.44e-4,0.747085 0.199497,1.47116 0.703125,2 0.504065,0.529299 1.243919,0.767578 2.021484,0.767578 h 9.599609 c 0.726853,0 1.437075,-0.244414 1.949219,-0.748047 0.512144,-0.503633 0.785156,-1.23501 0.785156,-2.021484 v -6.539063 c 0,-0.766711 -0.160735,-1.511724 -0.632812,-2.107422 -0.472079,-0.595697 -1.257951,-0.9375 -2.101563,-0.9375 h -6.185546 a 0.89999998,0.89999998 0 0 0 -0.900391,0.900391 0.89999998,0.89999998 0 0 0 0.900391,0.898437 h 6.185546 c 0.432158,0 0.565317,0.09675 0.691407,0.25586 0.126089,0.159107 0.242187,0.487465 0.242187,0.990234 v 6.539063 c 0,0.399705 -0.108525,0.602999 -0.246094,0.738281 -0.137568,0.135282 -0.344762,0.232422 -0.6875,0.232422 H 19.1875 c -0.443884,0 -0.615658,-0.100732 -0.71875,-0.208985 -0.103092,-0.108253 -0.207031,-0.317861 -0.207031,-0.761718 a 0.90008998,0.90008998 0 0 0 0,-0.002 l -0.01563,-6.541016 c 9.06e-4,-0.40017 0.118547,-0.72655 0.27539,-0.923828 0.157452,-0.198044 0.327012,-0.307792 0.675782,-0.318359 h -0.02539 c 0.58566,0 1.03396,-0.296611 1.339844,-0.640625 0.305883,-0.344015 0.517578,-0.762991 0.517578,-1.289063 v -3.945312 c 0.0095,-0.24356 0.265051,-0.743834 0.814453,-1.146485 0.549402,-0.40265 1.332549,-0.695391 2.171875,-0.683593 a 0.90008998,0.90008998 0 0 0 0.01953,0 c 0.916066,-0.0074 1.677152,0.314284 2.197266,0.726562 0.520114,0.41228 0.733358,0.933699 0.734375,1.076172 v 2.619141 a 0.89999998,0.89999998 0 0 0 0.900391,0.90039 0.89999998,0.89999998 0 0 0 0.898437,-0.90039 v -2.626953 a 0.90008998,0.90008998 0 0 0 0,-0.0059 c -0.007,-0.977827 -0.583855,-1.813027 -1.416016,-2.472656 -0.82996,-0.657886 -1.98035,-1.121649 -3.318359,-1.113282 z m -0.05273,10.097656 c -1.334774,0 -2.359375,1.045029 -2.359375,2.238281 0,0.794734 0.430524,1.367428 0.945312,1.771485 v 2.429687 c 0,0.4054 0.227489,0.789249 0.50586,0.992188 0.27837,0.202938 0.586514,0.276612 0.888671,0.279297 0.302157,0.0027 0.614897,-0.06646 0.898438,-0.271485 0.283541,-0.205027 0.507812,-0.59537 0.507812,-1 v -2.421875 c 0.520337,-0.397258 0.972657,-0.965741 0.972657,-1.779297 0,-1.201397 -1.033645,-2.224921 -2.351563,-2.238281 a 0.70006999,0.70006999 0 0 0 -0.0078,0 z m -0.0039,1.402344 c 0.622327,0.0087 0.962891,0.436947 0.962891,0.835937 0,0.459804 -0.23493,0.688744 -0.574219,0.851563 a 0.70006999,0.70006999 0 0 0 -0.398437,0.617187 0.70006999,0.70006999 0 0 0 -0.398438,-0.617187 c -0.272769,-0.130978 -0.546875,-0.436637 -0.546875,-0.851563 0,-0.403381 0.32527,-0.833486 0.955078,-0.835937 z" fill="#008055"/>
</svg>
