<svg xmlns="http://www.w3.org/2000/svg" width="48" height="48">
	<path d="m 14.375,6.6269532 c -1.757661,0 -3.407852,0.5103258 -4.6406251,1.5917968 -1.2327735,1.0814712 -1.9414063,2.726253 -1.9414063,4.478516 V 35.28125 c 0,1.857116 0.6768644,3.572901 1.9550782,4.644532 1.2782142,1.071629 2.9215072,1.447265 4.6269532,1.447265 h 19.623046 c 1.74454,0 3.360536,-0.609024 4.490235,-1.734375 1.129699,-1.125351 1.71875,-2.707211 1.71875,-4.357422 V 15.273438 c 0,-1.767691 -0.574646,-3.417817 -1.757813,-4.521485 C 37.266051,9.6482852 35.65942,9.203125 33.998046,9.203125 H 25.8125 a 1.9,1.9 0 0 0 -1.900391,1.900391 1.9,1.9 0 0 0 1.900391,1.90039 h 8.185546 c 1.006617,0 1.55534,0.243737 1.859375,0.527344 0.304036,0.283607 0.548829,0.719018 0.548829,1.742188 V 35.28125 c 0,0.79368 -0.239061,1.306855 -0.59961,1.666016 -0.360549,0.359161 -0.897303,0.625 -1.808594,0.625 H 14.375 c -1.136796,0 -1.833551,-0.263487 -2.185547,-0.558594 C 11.837457,36.718565 11.59375,36.339125 11.59375,35.28125 V 12.697266 c 0,-0.822158 0.236245,-1.261205 0.646484,-1.621094 0.410239,-0.359889 1.101136,-0.648438 2.134766,-0.648438 h 7.722656 A 1.9,1.9 0 0 0 23.996093,8.5273438 1.9,1.9 0 0 0 22.097656,6.6269532 Z m 3.736328,10.4179688 a 0.89999998,0.89999998 0 0 0 -0.363282,0.08594 0.89999998,0.89999998 0 0 0 -0.427734,1.199218 l 0.998047,2.109375 a 0.89999998,0.89999998 0 0 0 1.199219,0.427735 0.89999998,0.89999998 0 0 0 0.427734,-1.199219 l -1,-2.109375 a 0.89999998,0.89999998 0 0 0 -0.833984,-0.513672 z m 11.974609,0 a 0.89999998,0.89999998 0 0 0 -0.8125,0.513672 l -1,2.109375 a 0.89999998,0.89999998 0 0 0 0.427734,1.199219 0.89999998,0.89999998 0 0 0 1.199219,-0.427735 l 1,-2.109375 A 0.89999998,0.89999998 0 0 0 30.472656,17.13086 0.89999998,0.89999998 0 0 0 30.085937,17.04492 Z m -6.255859,3.242188 c -4.150588,0 -7.666016,3.312581 -7.666016,7.910156 v 0.814453 c 0,0.8042 0.342544,1.553656 0.910156,2.039063 0.567612,0.485406 1.314022,0.714843 2.101563,0.714843 a 0.89999998,0.89999998 0 0 0 0.90039,-0.90039 0.89999998,0.89999998 0 0 0 -0.90039,-0.900391 c -0.441059,0 -0.749788,-0.125734 -0.931641,-0.28125 -0.181853,-0.155516 -0.28125,-0.331345 -0.28125,-0.671875 v -0.814453 c 0,-3.707085 2.646615,-6.109375 5.867188,-6.109375 2.076521,0 3.582623,0.718406 4.615234,1.820312 1.032611,1.101907 1.592763,2.623065 1.591797,4.275391 l -0.002,0.798828 a 0.90008998,0.90008998 0 0 0 0,0.002 c 0,0.458651 -0.106399,0.647401 -0.212891,0.751953 -0.106492,0.104553 -0.299969,0.203125 -0.730469,0.203125 h -7.375 a 0.89999998,0.89999998 0 0 0 -0.90039,0.900391 0.89999998,0.89999998 0 0 0 0.90039,0.900391 h 7.375 c 0.74382,0 1.47038,-0.208398 1.992188,-0.720703 0.521808,-0.512306 0.75,-1.252837 0.75,-2.035157 l 0.002,-0.798828 a 0.90008998,0.90008998 0 0 0 0,-0.002 C 31.837137,26.12283 31.135162,24.14543 29.759765,22.677735 28.384369,21.210039 26.336377,20.28711 23.830078,20.28711 Z M 26.25,24.529297 A 1.2125573,1.2249594 0 0 0 25.037109,25.75586 1.2125573,1.2249594 0 0 0 26.25,26.980469 1.2125573,1.2249594 0 0 0 27.46289,25.75586 1.2125573,1.2249594 0 0 0 26.25,24.529297 Z m -4.591797,0.01172 a 1.2125573,1.2249594 0 0 0 -1.212891,1.224609 1.2125573,1.2249594 0 0 0 1.212891,1.226563 1.2125573,1.2249594 0 0 0 1.21289,-1.226563 1.2125573,1.2249594 0 0 0 -1.21289,-1.224609 z" fill="#008055"/>
</svg>
