<svg xmlns="http://www.w3.org/2000/svg" width="48" height="48">
	<path d="m 14.80957,2.7353515 c -1.586185,0 -3.027503,0.4528793 -4.09375,1.355469 -1.0662466,0.902589 -1.708984,2.267012 -1.708984,3.814453 V 40.073242 c 0,1.681492 0.620335,3.087956 1.707031,3.966797 1.086696,0.878842 2.522985,1.224609 4.09375,1.224609 h 18.996094 c 1.547191,0 2.892888,-0.532069 3.810547,-1.484375 0.917659,-0.952306 1.378906,-2.275981 1.378906,-3.707031 V 12.805664 c 0,-1.577084 -0.452882,-2.9306725 -1.398437,-3.8496095 -0.945556,-0.918937 -2.284712,-1.320312 -3.791016,-1.320312 H 26.27832 a 1,1 0 0 0 -1,1 1,1 0 0 0 1,1 h 7.525391 c 1.161696,0 1.916533,0.285568 2.398437,0.7539055 0.481905,0.468338 0.791016,1.20224 0.791016,2.416016 v 27.267578 c 0,1.012839 -0.307469,1.786153 -0.820312,2.31836 -0.512844,0.532206 -1.260502,0.873046 -2.369141,0.873046 H 14.807617 c -1.271475,0 -2.232648,-0.291401 -2.835937,-0.779296 -0.603289,-0.487896 -0.964844,-1.178613 -0.964844,-2.41211 V 7.9052735 c 0,-1.026979 0.363509,-1.748313 1,-2.28711 0.636491,-0.538795 1.59763,-0.882812 2.802734,-0.882812 h 18.751954 a 1,1 0 0 0 1,-1 1,1 0 0 0 -1,-1 z m 9.515625,14.6250005 a 0.89999998,0.89999998 0 0 0 -0.886718,0.912109 l 0.0059,0.458984 a 0.89999998,0.89999998 0 0 0 0.910156,0.888672 0.89999998,0.89999998 0 0 0 0.888672,-0.912109 l -0.0059,-0.458985 a 0.89999998,0.89999998 0 0 0 -0.91211,-0.888671 z m 0.05469,2.52539 c -1.137929,0.01705 -2.201648,0.757695 -2.652344,1.900391 a 0.90008998,0.90008998 0 0 0 -0.01367,0.03711 c -0.225377,0.655731 -0.219321,1.366977 0.0332,1.986328 0.252524,0.619352 0.720584,1.128895 1.308594,1.529297 l -0.01758,-0.01172 c 0.110842,0.07916 0.587999,0.66074 0.992188,1.312501 0.404188,0.651759 0.8047,1.379486 1.154296,1.923828 a 0.89999998,0.89999998 0 0 0 1.244141,0.269531 0.89999998,0.89999998 0 0 0 0.269531,-1.242187 c -0.288562,-0.449308 -0.70097,-1.194592 -1.138671,-1.90039 -0.437701,-0.705799 -0.830891,-1.36837 -1.474609,-1.828125 a 0.90008998,0.90008998 0 0 0 -0.01758,-0.01172 c -0.36975,-0.251779 -0.565741,-0.503507 -0.654297,-0.720704 -0.08664,-0.212486 -0.09305,-0.41278 0.0039,-0.705078 0.273957,-0.674679 0.574599,-0.824784 1.148438,-0.726562 0.484207,0.08288 0.844535,0.479754 0.828125,1.046875 a 0.90008998,0.90008998 0 0 0 0,0.01953 c -0.0019,0.235935 -0.04982,0.330418 -0.07617,0.376953 -0.02635,0.04653 0.0082,0.01023 -0.0625,0.07227 a 0.89999998,0.89999998 0 0 0 -0.08203,1.269531 0.89999998,0.89999998 0 0 0 1.269531,0.08203 c 0.01431,-0.01256 0.268151,-0.231189 0.441406,-0.537109 0.171662,-0.303107 0.302094,-0.728505 0.308594,-1.238281 0.03686,-1.419806 -0.975453,-2.636655 -2.322266,-2.867188 -0.16404,-0.02808 -0.327673,-0.03955 -0.490234,-0.03711 z m -1.927735,6.230469 a 0.89999998,0.89999998 0 0 0 -0.765624,0.460937 l -5.669922,10.164063 a 0.89999998,0.89999998 0 0 0 0.347656,1.224609 0.89999998,0.89999998 0 0 0 1.224609,-0.347656 l 5.66992,-10.164062 a 0.89999998,0.89999998 0 0 0 -0.347656,-1.22461 0.89999998,0.89999998 0 0 0 -0.458985,-0.113281 z m 8.0625,1.835937 a 0.89999998,0.89999998 0 0 0 -0.572265,0.195313 c -0.32233,0.255431 -0.556324,0.427984 -0.962891,0.585937 a 0.89999998,0.89999998 0 0 0 -0.511718,1.164063 0.89999998,0.89999998 0 0 0 1.164062,0.513672 c 0.629654,-0.244625 1.074665,-0.573726 1.427734,-0.853516 a 0.89999998,0.89999998 0 0 0 0.146485,-1.263672 0.89999998,0.89999998 0 0 0 -0.691407,-0.341797 z m -7.300781,1.433594 a 0.89999998,0.89999998 0 0 0 -0.886719,0.638672 0.89999998,0.89999998 0 0 0 0.597657,1.123047 c 1.155718,0.351846 2.269867,0.30379 3.320312,0.138672 0.372631,-0.05832 0.420575,0.02087 0.587891,0.296875 l 3.480469,5.808594 a 0.89999998,0.89999998 0 0 0 1.234375,0.308593 0.89999998,0.89999998 0 0 0 0.310546,-1.234375 l -3.484374,-5.8125 a 0.90008998,0.90008998 0 0 0 -0.002,-0.0039 C 27.942982,29.941666 27.015899,29.344739 25.96773,29.508796 a 0.90008998,0.90008998 0 0 0 -0.002,0 c -0.91417,0.143827 -1.704862,0.162843 -2.515625,-0.08398 a 0.89999998,0.89999998 0 0 0 -0.236328,-0.03906 z" fill="#008055"/>
</svg>
