<svg xmlns="http://www.w3.org/2000/svg" width="48" height="48">
	<path d="m 14.80957,2.7353515 c -1.586185,0 -3.027502,0.45288 -4.09375,1.355469 -1.0662465,0.902589 -1.7089845,2.267012 -1.7089845,3.814453 V 40.073242 c 0,1.681492 0.620335,3.087956 1.7070315,3.966797 1.086696,0.878842 2.522986,1.224609 4.09375,1.224609 h 18.996094 c 1.54719,0 2.892888,-0.534021 3.810547,-1.486328 0.917659,-0.952306 1.378906,-2.274028 1.378906,-3.705078 V 12.803711 c 0,-1.577085 -0.452883,-2.9287195 -1.398437,-3.8476565 -0.945555,-0.918936 -2.284717,-1.322265 -3.791016,-1.322265 H 26.27832 a 1,1 0 0 0 -1,1 1,1 0 0 0 1,1 h 7.525391 c 1.16169,0 1.916533,0.287521 2.398437,0.7558585 0.481904,0.468338 0.791016,1.200289 0.791016,2.414063 v 27.269531 c 0,1.01284 -0.30747,1.786153 -0.820312,2.31836 -0.512843,0.532206 -1.260503,0.873046 -2.369141,0.873046 H 14.807617 c -1.271474,0 -2.232648,-0.2914 -2.835937,-0.779296 -0.603289,-0.487896 -0.964844,-1.178612 -0.964844,-2.41211 V 7.9052735 c 0,-1.026979 0.363509,-1.748313 1,-2.287109 0.636491,-0.538796 1.597629,-0.882813 2.802734,-0.882813 h 18.751953 a 1,1 0 0 0 1,-1 1,1 0 0 0 -1,-1 z M 17.731445,23.47168 c -0.69566,0 -1.369237,0.143783 -1.908203,0.566406 -0.538965,0.422624 -0.849609,1.129458 -0.849609,1.890625 v 3.941406 c 0,0.519044 0.05914,1.078255 0.396484,1.589844 0.305324,0.463032 0.919659,0.714551 1.560547,0.771484 v 1.386719 c 0,0.402048 0.09816,0.836183 0.398438,1.193359 0.300272,0.357177 0.796394,0.558594 1.283203,0.558594 h 11.005859 c 0.497455,0 0.973525,-0.202044 1.273438,-0.529297 0.299912,-0.32725 0.427734,-0.736193 0.427734,-1.125 a 0.80000001,0.80000001 0 0 0 -0.800781,-0.798828 0.80000001,0.80000001 0 0 0 -0.798828,0.798828 c 0,0.02916 -0.01205,0.04759 -0.0078,0.04297 0.0042,-0.0046 0.02782,0.01172 -0.09375,0.01172 H 18.612305 c -0.125732,0 -0.0715,-0.0056 -0.05859,0.0098 0.0129,0.01535 -0.02148,-0.02625 -0.02148,-0.162109 V 32.15531 c 0,-0.338435 -0.02899,-0.754195 -0.378907,-1.09375 -0.349911,-0.339555 -0.750097,-0.349609 -1.058593,-0.349609 -0.335758,0 -0.329739,-0.04344 -0.388672,-0.132813 -0.05893,-0.08937 -0.132813,-0.350517 -0.132813,-0.708984 v -3.941406 c 0,-0.391523 0.088,-0.51302 0.238281,-0.63086 0.15028,-0.117839 0.456421,-0.226562 0.919922,-0.226562 h 12.78711 c 0.371474,0 0.566265,0.102584 0.693359,0.230469 0.127094,0.127884 0.216797,0.316276 0.216797,0.626953 v 3.941406 c 0,0.401901 -0.09219,0.559074 -0.195313,0.65625 -0.103124,0.09718 -0.304453,0.193359 -0.714843,0.193359 h -10.51368 a 0.80000001,0.80000001 0 0 0 -0.798828,0.798828 0.80000001,0.80000001 0 0 0 0.798828,0.800782 h 10.513672 c 0.677709,0 1.33346,-0.177501 1.8125,-0.628906 0.479039,-0.451407 0.697265,-1.118644 0.697265,-1.820313 v -3.941406 c 0,-0.655734 -0.225327,-1.294758 -0.68164,-1.753907 -0.456314,-0.459147 -1.11647,-0.703124 -1.828125,-0.703124 z m 11.919922,2.49414 a 0.69999999,0.69999999 0 0 0 -0.701172,0.699219 v 2.453125 a 0.69999999,0.69999999 0 0 0 0.701172,0.701172 0.69999999,0.69999999 0 0 0 0.699219,-0.701172 V 26.665039 A 0.69999999,0.69999999 0 0 0 29.651367,25.96582 Z m -2.246094,0.05078 a 0.69999999,0.69999999 0 0 0 -0.701171,0.699219 v 2.453125 a 0.69999999,0.69999999 0 0 0 0.701171,0.699219 0.69999999,0.69999999 0 0 0 0.699219,-0.699219 V 26.71582 a 0.69999999,0.69999999 0 0 0 -0.699219,-0.699219 z m -2.246093,0.05078 a 0.69999999,0.69999999 0 0 0 -0.701172,0.699218 v 2.453125 a 0.69999999,0.69999999 0 0 0 0.701172,0.699219 0.69999999,0.69999999 0 0 0 0.699218,-0.699219 V 26.766602 A 0.69999999,0.69999999 0 0 0 25.15918,26.067383 Z m -2.248047,0.04883 a 0.69999999,0.69999999 0 0 0 -0.699219,0.701172 v 2.453125 a 0.69999999,0.69999999 0 0 0 0.699219,0.699218 0.69999999,0.69999999 0 0 0 0.701172,-0.699218 v -2.453125 a 0.69999999,0.69999999 0 0 0 -0.701172,-0.701172 z m -4.492188,0.05078 a 0.69999999,0.69999999 0 0 0 -0.699218,0.699219 v 2.453125 a 0.69999999,0.69999999 0 0 0 0.699218,0.701172 0.69999999,0.69999999 0 0 0 0.699219,-0.701172 v -2.453124 a 0.69999999,0.69999999 0 0 0 -0.699219,-0.699219 z m 2.246094,0 A 0.69999999,0.69999999 0 0 0 19.96582,26.86621 v 2.453125 a 0.69999999,0.69999999 0 0 0 0.699219,0.701172 0.69999999,0.69999999 0 0 0 0.701172,-0.701172 v -2.453124 a 0.69999999,0.69999999 0 0 0 -0.701172,-0.699219 z" fill="#008055"/>
</svg>
