<svg xmlns="http://www.w3.org/2000/svg" width="48" height="48">
	<path d="m 14.80957,2.734375 c -1.586185,0 -3.027503,0.454832 -4.09375,1.357422 C 9.649573,4.994386 9.006836,6.358809 9.006836,7.90625 v 32.167969 c 0,1.681491 0.620336,3.087954 1.707031,3.966796 1.086696,0.878842 2.524934,1.22461 4.095703,1.22461 h 18.994141 c 1.547191,0 2.892887,-0.534022 3.810547,-1.486328 0.917659,-0.952307 1.378906,-2.274029 1.378906,-3.705078 V 12.804687 c 0,-1.577085 -0.452886,-2.928719 -1.398437,-3.847656 C 36.649174,8.038094 35.310006,7.634765 33.803711,7.634765 h -7.523438 a 1,1 0 0 0 -1,1 1,1 0 0 0 1,1 h 7.523438 c 1.161685,0 1.916535,0.287522 2.398437,0.75586 0.481903,0.468338 0.791016,1.200287 0.791016,2.414062 v 27.269532 c 0,1.012838 -0.307468,1.786153 -0.820313,2.318359 -0.512843,0.532206 -1.260501,0.873047 -2.36914,0.873047 H 14.80957 c -1.27148,0 -2.234603,-0.291402 -2.83789,-0.779297 -0.603287,-0.487896 -0.964844,-1.178611 -0.964844,-2.412109 V 7.90625 c 0,-1.026979 0.363509,-1.750267 1,-2.289063 0.63649,-0.538796 1.59763,-0.882812 2.802734,-0.882812 l 18.751953,0.002 a 1,1 0 0 0 1,-1 1,1 0 0 0 -1,-1 z m 9.333985,16.542968 c -0.12613,-0.0052 -0.252066,0.0027 -0.376954,0.02148 -0.499551,0.07494 -0.974827,0.336218 -1.314453,0.742187 -0.375074,0.448384 -0.469514,1.017749 -0.386718,1.517578 0.0828,0.49983 0.331857,0.968797 0.759765,1.291016 0.220462,0.180207 0.40273,0.297706 0.441406,0.333984 0.04122,0.03866 -0.002,-0.07766 -0.002,0.01172 l -0.0059,2.964844 a 0.70006999,0.70006999 0 0 0 0,0.002 c 0,0.336744 0.052,0.676401 0.230469,0.990234 0.178466,0.313834 0.492969,0.560635 0.833984,0.681641 0.841672,0.316205 1.339542,0.820487 1.494141,1.291016 0.155244,0.472495 0.0744,0.99996 -0.605469,1.677734 a 0.69999999,0.69999999 0 0 0 -0.002,0.990235 0.69999999,0.69999999 0 0 0 0.990234,0 c 0.941119,-0.938218 1.276131,-2.104549 0.947266,-3.105469 -0.328866,-1.00092 -1.211633,-1.747436 -2.345703,-2.169922 a 0.70006999,0.70006999 0 0 0 -0.0098,-0.0039 c -0.08769,-0.03111 -0.07243,-0.02898 -0.08594,-0.05273 -0.01351,-0.02375 -0.04688,-0.113761 -0.04688,-0.298828 l 0.0039,-2.964844 a 0.70006999,0.70006999 0 0 0 0,-0.002 c 0,-0.410843 -0.215009,-0.822682 -0.439453,-1.033203 -0.224444,-0.210521 -0.396002,-0.298173 -0.527344,-0.408203 a 0.70006999,0.70006999 0 0 0 -0.0293,-0.02148 c -0.08879,-0.06686 -0.192649,-0.232986 -0.220703,-0.402344 -0.02805,-0.169359 0.0088,-0.305358 0.08008,-0.390625 0.21353,-0.255242 0.643889,-0.31158 0.837891,-0.160156 0.120838,0.09431 0.155115,0.182215 0.171875,0.291015 0.01676,0.1088 -0.0184,0.23992 -0.02344,0.25 a 0.69999999,0.69999999 0 0 0 0.3125,0.939453 0.69999999,0.69999999 0 0 0 0.939453,-0.314453 c 0.159472,-0.31907 0.219008,-0.680495 0.15625,-1.08789 -0.06276,-0.407395 -0.283051,-0.859898 -0.695312,-1.181641 -0.327037,-0.255261 -0.703641,-0.382727 -1.082031,-0.398438 z m 4.8125,1.003907 c -1.057509,0.0025 -1.802348,0.618834 -2.181641,1.226562 -0.377827,0.605379 -0.571193,1.199792 -0.716797,1.400391 -5.65e-4,7.78e-4 -0.0014,0.0051 -0.002,0.0059 -0.109192,0.138558 -0.241511,0.263686 -0.394531,0.46875 -0.157204,0.210672 -0.31836,0.549214 -0.31836,0.917969 v 0.923828 c 0,0.422582 0.207087,0.818798 0.498047,1.054688 0.29096,0.235889 0.644992,0.339274 1,0.328125 1.817154,-0.05638 3.197089,-0.331216 4.410157,-1 1.211063,-0.66768 2.20758,-1.689343 3.367187,-3.140625 0.09588,-0.117254 0.185734,-0.239373 0.240234,-0.447266 0.0545,-0.207893 8.31e-4,-0.591894 -0.224609,-0.800781 -0.22544,-0.208887 -0.445476,-0.224784 -0.603516,-0.226563 -0.158039,-0.0018 -0.288857,0.02367 -0.423828,0.06055 -0.953501,0.260479 -1.358904,0.119702 -1.978515,-0.125 -0.619611,-0.244701 -1.435892,-0.646484 -2.669922,-0.646484 a 0.70006999,0.70006999 0 0 0 -0.002,0 z m -9.921875,0.06836 c -1.234032,0 -2.050319,0.401783 -2.669922,0.646484 -0.619603,0.244703 -1.024997,0.385485 -1.978516,0.125 -0.134965,-0.03687 -0.26579,-0.06233 -0.423828,-0.06055 -0.158038,0.0018 -0.378087,0.01768 -0.603516,0.226562 -0.225428,0.208887 -0.279086,0.592903 -0.224609,0.800781 0.05448,0.207879 0.144378,0.330007 0.240234,0.447266 1.159631,1.451269 2.158077,2.472949 3.369141,3.140625 1.213069,0.66878 2.591027,0.943608 4.408203,1 0.35501,0.01115 0.709057,-0.09223 1,-0.328125 0.290943,-0.235895 0.5,-0.63211 0.5,-1.054687 v -0.923829 c 0,-0.368748 -0.163111,-0.707296 -0.320312,-0.917968 -0.153018,-0.205067 -0.285336,-0.33019 -0.394532,-0.46875 -5.63e-4,-7.67e-4 -0.0014,-0.0051 -0.002,-0.0059 -0.145611,-0.200607 -0.338968,-0.795013 -0.716797,-1.40039 -0.379295,-0.607728 -1.124135,-1.224057 -2.18164,-1.226563 a 0.70006999,0.70006999 0 0 0 -0.002,0 z m 9.923828,1.332031 c 0.946109,0 1.451403,0.270465 2.15625,0.548829 0.392556,0.155031 0.874264,0.2647 1.417969,0.300781 -0.655562,0.702238 -1.31698,1.498691 -1.957032,1.851562 -0.966637,0.532924 -2.076307,0.773394 -3.777344,0.826172 a 0.70006999,0.70006999 0 0 0 -0.002,0 c -0.03012,9.46e-4 -0.04368,-0.0071 -0.05469,-0.01172 v -0.896484 c 0,-0.04248 -0.01799,-0.003 0.04102,-0.08203 0.059,-0.07907 0.211635,-0.229823 0.390624,-0.460938 a 0.70006999,0.70006999 0 0 0 0.0098,-0.01367 c 0.399995,-0.543967 0.542458,-1.116614 0.779297,-1.496093 0.236489,-0.378918 0.389096,-0.564418 0.996094,-0.566407 z m -9.925781,0.06836 c 0.609245,0.0014 0.761204,0.186924 0.998046,0.566406 0.236843,0.379482 0.3793,0.952125 0.779297,1.496094 a 0.70006999,0.70006999 0 0 0 0.0098,0.01367 c 0.178985,0.231102 0.331626,0.38187 0.390625,0.460937 0.059,0.07907 0.04102,0.03956 0.04102,0.08203 v 0.896485 c -0.01151,0.0047 -0.02537,0.01264 -0.05469,0.01172 -1.701064,-0.05279 -2.810702,-0.293249 -3.777344,-0.826171 -0.640054,-0.352871 -1.30146,-1.149328 -1.957031,-1.851563 0.543621,-0.0361 1.02351,-0.145768 1.416016,-0.300781 0.704242,-0.278129 1.209742,-0.548369 2.154297,-0.548828 z m 3.234374,5.642578 a 0.69999999,0.69999999 0 0 0 -0.486328,0.193359 c -0.709354,0.674416 -1.170216,1.64401 -0.9375,2.658203 0.232628,1.013805 1.088333,1.90443 2.552735,2.609375 1.60037,0.771577 2.111367,1.509598 2.232422,2.039063 0.121054,0.529465 -0.107759,1.037843 -0.447266,1.445312 a 0.69999999,0.69999999 0 0 0 0.08789,0.986329 0.69999999,0.69999999 0 0 0 0.986328,-0.08984 c 0.516433,-0.619811 0.985909,-1.57123 0.738281,-2.654297 -0.247628,-1.083067 -1.173242,-2.111255 -2.988281,-2.986328 a 0.70006999,0.70006999 0 0 0 -0.002,0 c -1.243921,-0.598497 -1.692584,-1.216113 -1.794922,-1.66211 -0.102339,-0.445996 0.07255,-0.888404 0.537109,-1.330078 a 0.69999999,0.69999999 0 0 0 0.02539,-0.990234 0.69999999,0.69999999 0 0 0 -0.503907,-0.21875 z m 1.69336,0.748047 a 0.69999999,0.69999999 0 0 0 -0.701172,0.699218 v 1.66211 a 0.69999999,0.69999999 0 0 0 0.701172,0.699219 0.69999999,0.69999999 0 0 0 0.699219,-0.699219 v -1.66211 a 0.69999999,0.69999999 0 0 0 -0.699219,-0.699218 z m -1.625,4.644531 a 0.69999999,0.69999999 0 0 0 -0.535156,0.242187 c -0.517636,0.598684 -0.922669,1.241991 -0.982422,2.001954 -0.05975,0.759963 0.276454,1.529319 0.923828,2.226562 a 0.69999999,0.69999999 0 0 0 0.990234,0.03711 0.69999999,0.69999999 0 0 0 0.03711,-0.990235 c -0.481357,-0.518437 -0.579175,-0.852623 -0.554688,-1.164062 0.02449,-0.31144 0.222397,-0.707085 0.644531,-1.195313 a 0.69999999,0.69999999 0 0 0 -0.07227,-0.986329 0.69999999,0.69999999 0 0 0 -0.451172,-0.171874 z m 1.634766,0.822266 a 0.69999999,0.69999999 0 0 0 -0.708985,0.689453 c 0,0 -0.01741,1.095821 -0.02539,2.207031 -0.004,0.555605 -0.005,1.114747 -0.002,1.546875 0.0015,0.216064 0.0031,0.399152 0.0078,0.541016 0.0024,0.07093 0.0052,0.129903 0.0098,0.1875 0.0023,0.0288 0.0057,0.05628 0.01172,0.0957 0.006,0.03943 -0.04131,0.04098 0.0918,0.269531 a 0.69999999,0.69999999 0 0 0 0.957031,0.251953 0.69999999,0.69999999 0 0 0 0.335938,-0.734375 c -0.0015,-0.02008 -0.004,-0.06081 -0.0059,-0.117187 -0.004,-0.118388 -0.0063,-0.2943 -0.0078,-0.503907 -0.0029,-0.419212 -0.002,-0.975128 0.002,-1.527343 0.0079,-1.10443 0.02344,-2.197266 0.02344,-2.197266 A 0.69999999,0.69999999 0 0 0 23.969728,33.60742 Z" fill="#008055"/>
</svg>
