<svg xmlns="http://www.w3.org/2000/svg" width="48" height="48">
	<path d="m 14.808593,2.7353517 c -1.586188,0 -3.027503,0.4528789 -4.093749,1.3554687 C 9.6485977,4.9934102 9.0078126,6.3578341 9.0078126,7.9052735 V 40.075195 c 0,1.681491 0.6183842,3.086002 1.7050784,3.964844 1.086693,0.878842 2.524939,1.224609 4.095702,1.224609 h 18.994141 c 1.547195,0 2.892886,-0.532068 3.810547,-1.484375 0.917661,-0.952306 1.378906,-2.274028 1.378906,-3.705078 V 12.805664 c 0,-1.577086 -0.450928,-2.9306731 -1.396484,-3.8496092 C 36.650146,8.0371187 35.309034,7.6357423 33.802734,7.6357423 h -7.523437 a 1,1 0 0 0 -1,1 1,1 0 0 0 1,1 h 7.523437 c 1.161691,0 1.916532,0.2875204 2.398438,0.7558597 0.481906,0.468339 0.791015,1.200288 0.791015,2.414062 v 27.269531 c 0,1.01284 -0.305515,1.7842 -0.818359,2.316406 -0.512844,0.532206 -1.262449,0.873047 -2.371094,0.873047 H 14.808593 c -1.271474,0 -2.234604,-0.291401 -2.83789,-0.779297 -0.603286,-0.487895 -0.96289,-1.176657 -0.96289,-2.410156 V 7.9052735 c 0,-1.0269805 0.36351,-1.7483141 0.999999,-2.2871093 0.636489,-0.5387952 1.595672,-0.8828125 2.800781,-0.8828125 h 18.751954 a 1,1 0 0 0 1,-1 1,1 0 0 0 -1,-1 z m 2.607422,18.2226563 a 0.89999998,0.89999998 0 0 0 -0.888672,0.757812 h -0.01172 v 0.142578 7.494141 1.253906 6.212891 a 0.89999998,0.89999998 0 0 0 0.90039,0.90039 0.89999998,0.89999998 0 0 0 0.900391,-0.90039 V 30.25293 h 1.78125 c 3.205847,0 5.115487,-2.322164 5.121094,-4.646485 0.0056,-2.324321 -1.899734,-4.648437 -5.121094,-4.648437 z m 0.898438,1.798828 h 1.783203 c 2.42489,0 3.325699,1.422469 3.322266,2.845703 -0.0034,1.423234 -0.918023,2.849609 -3.322266,2.849609 h -1.783203 z m 10.6875,3.880859 c -0.994171,0.0016 -1.853035,0.396245 -2.404297,1.007813 -0.551262,0.611567 -0.80515,1.397665 -0.800781,2.167968 0.0044,0.770303 0.26627,1.549859 0.816406,2.158204 0.550136,0.608344 1.401724,1.005156 2.386719,1.007812 a 0.90008998,0.90008998 0 0 0 0.002,0 h 0.482422 c 0.517269,0 0.798187,0.166482 1.015625,0.414062 0.217438,0.247581 0.350822,0.617504 0.353515,0.996094 0.0027,0.37859 -0.123644,0.741341 -0.335937,0.984375 -0.212294,0.243035 -0.494605,0.41211 -1.033203,0.41211 h -2.775391 a 0.89999998,0.89999998 0 0 0 -0.900391,0.898437 0.89999998,0.89999998 0 0 0 0.900391,0.900391 h 2.775391 c 0.990387,0 1.846712,-0.406906 2.388672,-1.027344 0.54196,-0.620438 0.784794,-1.408933 0.779296,-2.181641 -0.0055,-0.772707 -0.257917,-1.554028 -0.798828,-2.169922 -0.54091,-0.615892 -1.390189,-1.02539 -2.36914,-1.02539 h -0.480469 -0.002 c -0.537685,-0.002 -0.834979,-0.173061 -1.054688,-0.416016 -0.22006,-0.243344 -0.3495,-0.599246 -0.351562,-0.96289 -0.0021,-0.363645 0.122172,-0.711855 0.33789,-0.951172 0.215376,-0.238937 0.514193,-0.410668 1.06836,-0.41211 h 1.835937 a 0.89999998,0.89999998 0 0 0 0.900391,-0.90039 0.89999998,0.89999998 0 0 0 -0.900391,-0.900391 z" fill="#008055"/>
</svg>
