<svg xmlns="http://www.w3.org/2000/svg" width="48" height="48">
	<path d="m 14.808594,2.7353515 c -1.586185,0 -3.027503,0.4528796 -4.09375,1.3554687 C 9.6485965,4.9934094 9.0078125,6.3578325 9.0078125,7.9052734 V 40.073242 c 0,1.681492 0.618384,3.087955 1.7050785,3.966797 1.086694,0.878842 2.524938,1.22461 4.095703,1.22461 h 18.99414 c 1.547196,0 2.892885,-0.534022 3.810547,-1.486328 0.917661,-0.952307 1.378907,-2.274028 1.378907,-3.705079 V 12.803711 c 0,-1.577085 -0.45093,-2.9287194 -1.396485,-3.8476564 C 36.650148,8.0371176 35.309038,7.633789 33.802734,7.633789 h -7.523437 a 1,1 0 0 0 -1,0.9999996 1,1 0 0 0 1,1 h 7.523437 c 1.161696,0 1.916534,0.287522 2.398438,0.7558604 0.481904,0.468338 0.791016,1.200287 0.791016,2.414062 v 27.269531 c 0,1.01284 -0.305516,1.786154 -0.81836,2.31836 -0.512844,0.532206 -1.26245,0.873047 -2.371094,0.873047 h -18.99414 c -1.271475,0 -2.234605,-0.291402 -2.837891,-0.779297 -0.603286,-0.487896 -0.962891,-1.17861 -0.962891,-2.41211 V 7.9052734 c 0,-1.0269794 0.36351,-1.7483136 1,-2.2871094 0.636491,-0.5387959 1.595677,-0.8828125 2.800782,-0.8828125 h 18.751953 a 1,1 0 0 0 1,-1 1,1 0 0 0 -1,-1 z m 6.791015,20.2910165 c -1.532073,0.07327 -3.129037,0.90101 -4.044921,2.689453 a 1,1 0 0 0 0.433593,1.345703 1,1 0 0 0 1.345703,-0.433594 c 0.929426,-1.814884 2.625047,-1.858147 3.582032,-1.355469 0.478491,0.25134 0.684319,0.563195 0.689453,0.910157 0.0051,0.34696 -0.214278,0.97238 -1.275391,1.771484 a 1.0001,1.0001 0 0 0 -0.01758,0.01172 c -2.194616,1.727416 -3.363058,3.409927 -3.566406,5.064453 -0.203349,1.654526 0.777329,3.116045 2.208984,3.824218 2.863309,1.416349 7.493997,0.713875 11.626953,-2.808593 a 1,1 0 0 0 0.111328,-1.408203 1,1 0 0 0 -1.408203,-0.113282 c -3.651713,3.112312 -7.675343,3.411667 -9.443359,2.53711 -0.884009,-0.437279 -1.215196,-0.942001 -1.111328,-1.78711 0.103563,-0.842633 0.856978,-2.18672 2.802734,-3.722656 l 0.01563,-0.01367 c 1.356137,-1.026556 2.074164,-2.200569 2.056641,-3.384765 -0.0176,-1.189156 -0.800043,-2.146274 -1.759766,-2.650391 -0.479862,-0.252058 -1.024909,-0.410219 -1.595703,-0.462891 -0.214047,-0.01975 -0.431523,-0.02414 -0.650391,-0.01367 z" fill="#008055"/>
</svg>
