<svg xmlns="http://www.w3.org/2000/svg" width="48" height="48">
	<path d="m 14.808594,2.7343752 c -1.586185,0 -3.027503,0.4548331 -4.09375,1.3574216 -1.0662465,0.90259 -1.7070315,2.26506 -1.7070315,3.8125 V 40.074219 c 0,1.681493 0.618382,3.086003 1.7050785,3.964844 1.086696,0.878841 2.524939,1.226562 4.095703,1.226562 h 18.99414 c 1.547191,0 2.892888,-0.534021 3.810547,-1.486328 0.917659,-0.952306 1.378907,-2.274028 1.378907,-3.705078 V 12.804688 c 0,-1.577085 -0.452883,-2.9306723 -1.398438,-3.8496093 -0.945554,-0.918937 -2.284716,-1.320313 -3.791016,-1.320313 h -7.523437 a 1,1 0 0 0 -1,1 1,1 0 0 0 1,1 h 7.523437 c 1.161691,0 1.916534,0.287521 2.398438,0.7558593 0.481904,0.46834 0.791016,1.200288 0.791016,2.414063 v 27.269531 c 0,1.01284 -0.305517,1.786154 -0.81836,2.31836 -0.512842,0.532206 -1.262455,0.873046 -2.371094,0.873046 h -18.99414 c -1.271475,0 -2.234602,-0.293353 -2.837891,-0.78125 -0.603289,-0.487895 -0.962891,-1.176658 -0.962891,-2.410156 V 7.9042967 c 0,-1.026979 0.36351,-1.748313 1,-2.287109 0.636491,-0.538796 1.595677,-0.882813 2.800782,-0.882813 h 18.751953 a 1,1 0 0 0 1,-0.9999995 1,1 0 0 0 -1,-1 z m 1.300781,17.1757818 c -0.357474,0.0069 -0.745248,0.106927 -1.0625,0.384765 a 0.80008001,0.80008001 0 0 0 -0.05273,0.05078 c -0.331078,0.34902 -0.476345,0.88295 -0.408204,1.300781 0.06814,0.417831 0.257871,0.731513 0.453125,1.013672 0.390512,0.564317 0.868837,1.05684 1.06836,1.388672 a 0.80008001,0.80008001 0 0 0 0.05859,0.08398 c 0.492712,0.622442 0.775261,1.823104 1.408203,2.882812 a 0.80008001,0.80008001 0 0 0 0.0332,0.04883 c 0.206266,0.293765 0.258287,0.502987 0.25,0.58789 -0.235734,1.171734 -0.36841,2.286075 -0.279297,3.294922 0.09082,1.028115 0.434176,2.002734 1.226563,2.638672 a 0.80008001,0.80008001 0 0 0 0.908203,0.06445 c 0.387475,-0.229297 0.516282,-0.485813 0.669922,-0.71289 0.117525,-0.173702 0.21052,-0.30497 0.298828,-0.425782 0.448966,0.69261 0.836106,1.208643 1.314453,1.736328 a 0.80000001,0.80000001 0 0 0 1.130859,0.05469 0.80000001,0.80000001 0 0 0 0.05469,-1.128906 c -0.47179,-0.520452 -0.788656,-0.929036 -1.246094,-1.650391 a 0.80008001,0.80008001 0 0 0 -0.02148,-0.03125 c -0.296818,-0.42246 -0.751121,-0.785186 -1.298829,-0.753906 -0.547708,0.03128 -0.855202,0.360317 -1.066406,0.611328 -0.04159,0.04942 -0.05847,0.0877 -0.0957,0.136719 -0.08768,-0.235743 -0.250868,-0.335738 -0.28125,-0.679688 -0.06843,-0.774732 0.03679,-1.789242 0.263672,-2.90039 a 0.80008001,0.80008001 0 0 0 0.01172,-0.07031 c 0.07328,-0.648915 -0.192183,-1.193911 -0.498047,-1.640625 -0.415547,-0.695733 -0.693953,-1.979731 -1.517578,-3.033203 -0.359716,-0.571724 -0.825711,-1.052128 -1.076172,-1.414063 -0.08439,-0.121951 -0.09319,-0.167324 -0.121094,-0.232422 0.168667,0.02329 0.444201,0.115981 0.728516,0.25 0.568628,0.268039 1.082198,0.641517 1.521484,0.859376 a 0.80008001,0.80008001 0 0 0 0.01367,0.0059 c 0.636173,0.300078 1.147236,0.20166 1.572266,0.240234 0.425031,0.03857 0.846887,0.125301 1.521484,0.623047 1.111058,0.868931 2.090694,1.454244 3.150391,2.845703 0.903272,1.253025 1.541713,2.46577 3.003906,5.050781 a 0.80008001,0.80008001 0 0 0 0.03125,0.04883 c 0.326909,0.490143 0.825136,0.894475 1.445312,1.121093 0.591271,0.216009 1.250231,0.640835 1.935547,1.269532 -0.01532,-4.96e-4 -0.02379,5.06e-4 -0.03906,0 a 0.80008001,0.80008001 0 0 0 -0.01563,0 c -0.323309,-0.0047 -0.589903,0.0096 -0.867188,0.0918 -0.277285,0.08216 -0.675623,0.313092 -0.789062,0.757813 -0.113439,0.444721 0.075,0.760993 0.226562,0.970703 0.150472,0.208199 0.325115,0.372686 0.53125,0.544922 0.0015,0.0012 0.0024,0.0027 0.0039,0.0039 0.982837,0.850945 2.038925,1.51817 2.867188,2.0625 a 0.80000001,0.80000001 0 0 0 1.107422,-0.230468 0.80000001,0.80000001 0 0 0 -0.228516,-1.107422 c -0.654744,-0.430295 -1.386128,-0.958516 -2.08789,-1.498047 0.197676,-1.3e-4 0.398905,0.0174 0.585937,-0.002 0.221635,-0.02294 0.426285,-0.0084 0.755859,-0.248047 0.164789,-0.119833 0.370399,-0.396986 0.384766,-0.701172 0.01429,-0.302532 -0.110262,-0.508816 -0.212891,-0.644531 -1.238536,-1.680838 -2.588335,-2.398469 -3.609375,-2.771485 -0.322383,-0.117802 -0.515058,-0.285382 -0.662109,-0.505859 -1.429305,-2.528581 -2.102141,-3.8125 -3.076172,-5.16211 a 0.80008001,0.80008001 0 0 0 -0.01172,-0.01562 C 24.79272,23.758868 23.584048,23.023047 22.560547,22.220704 a 0.80008001,0.80008001 0 0 0 -0.01758,-0.01563 c -0.894693,-0.660144 -1.716648,-0.870286 -2.328125,-0.925782 -0.611478,-0.0555 -0.929637,-0.04685 -1.033203,-0.0957 -0.104963,-0.05417 -0.811005,-0.522965 -1.53711,-0.865234 -0.366292,-0.172662 -0.756869,-0.326719 -1.191406,-0.386719 -0.108635,-0.015 -0.224592,-0.02379 -0.34375,-0.02148 z M 19.875,23.519532 a 0.80000001,0.80000001 0 0 0 -0.75,0.496093 0.80000001,0.80000001 0 0 0 0.4375,1.044922 c 0.314898,0.12892 0.323203,0.09759 0.373047,0.341797 a 0.80000001,0.80000001 0 0 0 0.943359,0.623047 0.80000001,0.80000001 0 0 0 0.625,-0.943359 C 21.34143,24.285994 20.680912,23.788126 20.167969,23.578125 A 0.80000001,0.80000001 0 0 0 19.875,23.519532 Z m 0.708984,8.861328 c 0.0079,0.01248 0.01557,0.01694 0.02344,0.0293 0,0 -0.002,0.002 -0.002,0.002 z" fill="#008055"/>
</svg>
