<svg xmlns="http://www.w3.org/2000/svg" width="48" height="48">
	<path d="m 14.808594,2.7343751 c -1.586185,0 -3.027504,0.4548328 -4.09375,1.3574219 C 9.6485965,4.9943862 9.0078125,6.3588096 9.0078125,7.9062499 V 40.074219 c 0,1.681491 0.618384,3.087955 1.7050785,3.966797 1.086693,0.878842 2.524938,1.224609 4.095703,1.224609 h 18.996094 c 1.547195,0 2.892887,-0.534021 3.810546,-1.486328 0.917659,-0.952307 1.376954,-2.274029 1.376954,-3.705078 V 12.804688 c 0,-1.577084 -0.450933,-2.9287181 -1.396485,-3.8476571 -0.945552,-0.918936 -2.284717,-1.3222651 -3.791015,-1.3222651 h -7.525391 a 1,1 0 0 0 -1,1.0000001 1,1 0 0 0 1,1 h 7.525391 c 1.16169,0 1.914583,0.287522 2.396484,0.7558591 0.481901,0.468338 0.791016,1.200286 0.791016,2.414063 v 27.269531 c 0,1.012841 -0.305518,1.786154 -0.81836,2.318359 -0.512842,0.532206 -1.260495,0.873047 -2.36914,0.873047 H 14.808594 c -1.271475,0 -2.234605,-0.291401 -2.83789,-0.779297 -0.603286,-0.487895 -0.962892,-1.17861 -0.962892,-2.412109 V 7.9062499 c 0,-1.0269788 0.36351,-1.7483133 1,-2.2871091 0.636491,-0.5387959 1.595678,-0.8847657 2.800782,-0.8847657 l 18.753906,0.00195 a 1,1 0 0 0 1,-1 1,1 0 0 0 -1,-1 z m 5.015625,15.7128909 a 0.90008998,0.90008998 0 0 0 -0.806641,1.199219 c 0.300338,0.852744 0.207092,1.535011 -0.08789,1.990234 -0.294983,0.455223 -0.81347,0.783203 -1.771485,0.783203 -0.786855,0 -1.532111,0.223217 -2.101562,0.703125 -0.569452,0.479908 -0.917969,1.228315 -0.917969,2.029297 v 8.587891 c 0,0.843071 0.333084,1.627884 0.923828,2.103515 0.590744,0.475631 1.334246,0.638672 2.095703,0.638672 H 31 c 0.782702,0 1.513345,-0.278074 2.011719,-0.792969 C 33.510092,35.174559 33.75,34.466317 33.75,33.740235 v -8.587891 c 0,-0.777503 -0.233666,-1.516303 -0.757812,-2.023437 C 32.468041,22.621772 31.743308,22.419922 31,22.419922 h -4.556641 a 0.89999998,0.89999998 0 0 0 -0.90039,0.900391 0.89999998,0.89999998 0 0 0 0.90039,0.90039 H 31 c 0.434522,0 0.634208,0.10054 0.740234,0.203125 0.106026,0.102586 0.208985,0.279459 0.208985,0.728516 v 8.587891 c 0,0.348017 -0.09733,0.55971 -0.230469,0.697265 C 31.585608,34.575056 31.389758,34.681641 31,34.681641 H 17.158203 c -0.493292,0 -0.811474,-0.115178 -0.966797,-0.240234 C 16.036084,34.31635 15.9375,34.178313 15.9375,33.740235 v -8.587891 c 0,-0.330468 0.0951,-0.498754 0.277344,-0.652344 0.182247,-0.153589 0.497964,-0.279297 0.943359,-0.279297 1.425614,0 2.633557,-0.600969 3.283203,-1.603515 0.32075,-0.494988 0.495133,-1.065528 0.541016,-1.666016 1.171327,0.704156 2.058218,1.651646 2.082031,2.398438 a 0.89999998,0.89999998 0 0 0 0.929688,0.86914 0.89999998,0.89999998 0 0 0 0.86914,-0.927734 C 24.791897,21.052335 22.739407,19.068173 20.0625,18.46875 A 0.90008998,0.90008998 0 0 0 19.824219,18.44727 Z M 17.9375,25.910157 a 0.69999999,0.69999999 0 0 0 -0.699219,0.699218 0.69999999,0.69999999 0 0 0 0.699219,0.699219 h 12.136719 a 0.69999999,0.69999999 0 0 0 0.701172,-0.699219 0.69999999,0.69999999 0 0 0 -0.701172,-0.699218 z m 0,2.771484 a 0.69999999,0.69999999 0 0 0 -0.699219,0.699219 0.69999999,0.69999999 0 0 0 0.699219,0.699218 h 12.136719 a 0.69999999,0.69999999 0 0 0 0.701172,-0.699218 0.69999999,0.69999999 0 0 0 -0.701172,-0.699219 z m 0,2.769531 a 0.69999999,0.69999999 0 0 0 -0.699219,0.701172 0.69999999,0.69999999 0 0 0 0.699219,0.699219 h 12.136719 a 0.69999999,0.69999999 0 0 0 0.701172,-0.699219 0.69999999,0.69999999 0 0 0 -0.701172,-0.701172 z" fill="#008055"/>
</svg>
