<svg xmlns="http://www.w3.org/2000/svg" width="48" height="48">
	<path d="m 14.808594,2.7353514 c -1.586185,0 -3.027503,0.45288 -4.09375,1.3554682 -1.0662474,0.902591 -1.7070317,2.267013 -1.7070317,3.814454 V 40.073242 c 0,1.681493 0.6183819,3.087956 1.7050787,3.966797 1.086696,0.878842 2.524938,1.22461 4.095703,1.22461 h 18.99414 c 1.547192,0 2.892888,-0.532069 3.810547,-1.484375 0.91766,-0.952307 1.378907,-2.275981 1.378907,-3.707032 V 12.805664 c 0,-1.577085 -0.450931,-2.9306724 -1.396485,-3.8496094 -0.945554,-0.918937 -2.286669,-1.320313 -3.792969,-1.320313 h -7.523437 a 1,1 0 0 0 -1,1 1,1 0 0 0 1,1 h 7.523437 c 1.161691,0 1.916534,0.285569 2.398438,0.7539074 0.481904,0.468338 0.791016,1.20224 0.791016,2.416015 v 27.267578 c 0,1.01284 -0.305517,1.786154 -0.81836,2.31836 -0.512843,0.532206 -1.262455,0.873047 -2.371094,0.873047 h -18.99414 c -1.271475,0 -2.234602,-0.291401 -2.837891,-0.779297 -0.603289,-0.487896 -0.962891,-1.178612 -0.962891,-2.41211 V 7.9052736 c 0,-1.02698 0.363509,-1.748314 1.000001,-2.28711 0.63649,-0.538796 1.595676,-0.882812 2.800781,-0.882812 h 18.751953 a 1,1 0 0 0 1,-1 1,1 0 0 0 -1,-1.0000002 z M 28.111328,18.59668 a 0.80000001,0.80000001 0 0 0 -0.662109,0.396484 0.80000001,0.80000001 0 0 0 0.291015,1.09375 c 1.167435,0.678587 2.610723,2.483886 2.435547,4.451172 a 0.80008001,0.80008001 0 0 0 -0.002,0.0059 c -0.01913,0.229204 -0.07732,0.296162 -0.06641,0.285156 0.01092,-0.01101 0.05359,0.0054 -0.109375,-0.0078 a 0.80008001,0.80008001 0 0 0 -0.04688,-0.0039 l -4.804688,-0.105469 2.054688,-3.626953 a 0.80000001,0.80000001 0 0 0 -0.302734,-1.089844 0.80000001,0.80000001 0 0 0 -1.089844,0.302735 l -2.712891,4.789062 a 0.80008001,0.80008001 0 0 0 0.679688,1.195313 l 6.09375,0.132812 c 0.48725,0.03942 1.019864,-0.104786 1.373047,-0.460937 0.352069,-0.355029 0.486595,-0.815862 0.52539,-1.273438 0.246264,-2.765634 -1.535783,-4.994909 -3.224609,-5.976562 a 0.80000001,0.80000001 0 0 0 -0.431641,-0.107422 z m -7.304687,6.71875 a 1.4738899,1.4949557 0 0 0 -1.47461,1.49414 1.4738899,1.4949557 0 0 0 1.47461,1.496094 1.4738899,1.4949557 0 0 0 1.474609,-1.496094 1.4738899,1.4949557 0 0 0 -1.474609,-1.49414 z m 8.195312,2.521484 -5.447265,0.01172 a 0.80008001,0.80008001 0 0 0 -0.701172,1.181641 l 2.933594,5.419922 c 0.207638,0.44256 0.590906,0.837271 1.076171,0.970703 0.483908,0.133058 0.955314,0.01689 1.369141,-0.179688 2.495231,-1.17304 3.502293,-3.85435 3.496094,-5.818359 a 0.80000001,0.80000001 0 0 0 -0.802735,-0.796875 0.80000001,0.80000001 0 0 0 -0.796875,0.802734 c 0.0043,1.374348 -0.823479,3.543386 -2.578125,4.367188 a 0.80008001,0.80008001 0 0 0 -0.0039,0.002 c -0.201664,0.09609 -0.279236,0.07472 -0.259765,0.08008 0.01947,0.0054 0.02187,0.04743 -0.05078,-0.107422 a 0.80008001,0.80008001 0 0 0 -0.02148,-0.03906 l -2.316406,-4.285157 4.107422,-0.0098 a 0.80000001,0.80000001 0 0 0 0.796874,-0.802735 0.80000001,0.80000001 0 0 0 -0.800781,-0.796875 z m -8.357422,1.65625 a 0.80008001,0.80008001 0 0 0 -0.701171,0.390625 l -3.16211,5.28711 c -0.2746,0.404445 -0.415345,0.932319 -0.289062,1.416015 0.125783,0.481782 0.454541,0.834939 0.828125,1.09961 0,0 0.002,0 0.002,0 2.247127,1.604437 5.054193,1.152531 6.736328,0.160156 a 0.80000001,0.80000001 0 0 0 0.283203,-1.095703 0.80000001,0.80000001 0 0 0 -1.095703,-0.283203 C 22.082908,37.153995 19.83294,37.516735 18.25,36.385742 a 0.80008001,0.80008001 0 0 0 -0.0039,-0.0039 c -0.18345,-0.129496 -0.209772,-0.209715 -0.207031,-0.199219 0.0027,0.0105 -0.02896,0.02718 0.06641,-0.113281 a 0.80008001,0.80008001 0 0 0 0.02539,-0.03906 l 2.484374,-4.152344 2.054688,3.591797 a 0.80000001,0.80000001 0 0 0 1.091797,0.296875 0.80000001,0.80000001 0 0 0 0.296875,-1.091797 L 21.324228,29.897469 A 0.80008001,0.80008001 0 0 0 20.64454,29.493172 Z" fill="#008055"/>
</svg>
