<svg xmlns="http://www.w3.org/2000/svg" width="48" height="48">
	<path d="m 14.808594,2.7343752 c -1.586186,0 -3.025548,0.4548334 -4.091797,1.3574219 C 9.6505474,4.9943856 9.0078124,6.3568548 9.0078124,7.9042967 V 40.074219 c 0,1.681491 0.6203357,3.086002 1.7070316,3.964844 1.086695,0.878842 2.52298,1.226562 4.09375,1.226562 h 18.996094 c 1.547187,0 2.892886,-0.534022 3.810547,-1.486328 0.91766,-0.952305 1.376953,-2.274026 1.376953,-3.705078 V 12.804688 c 0,-1.577085 -0.450931,-2.9306723 -1.396485,-3.8496093 -0.945554,-0.918937 -2.284716,-1.320313 -3.791015,-1.320313 h -7.525391 a 1,1 0 0 0 -1,1 1,1 0 0 0 1,1 h 7.525391 c 1.16169,0 1.916534,0.287522 2.398437,0.7558593 0.481904,0.46834 0.789063,1.200288 0.789063,2.414063 v 27.269531 c 0,1.012839 -0.305515,1.786153 -0.81836,2.31836 -0.512844,0.532206 -1.260507,0.873046 -2.36914,0.873046 H 14.808594 c -1.271481,0 -2.232651,-0.293354 -2.835938,-0.78125 -0.603287,-0.487895 -0.964844,-1.176657 -0.964844,-2.410156 V 7.9042967 c 0,-1.026978 0.363507,-1.748313 1,-2.287109 0.636493,-0.5387965 1.595677,-0.8828125 2.800782,-0.8828125 H 33.5625 a 1,1 0 0 0 1,-1 1,1 0 0 0 -1,-1 z M 27.609375,16.734375 a 0.80008001,0.80008001 0 0 0 -0.222656,0.0332 c -1.165029,0.351804 -2.084741,0.797838 -2.753906,1.496093 -0.669166,0.698255 -1.016833,1.621525 -1.115235,2.6875 a 0.80000001,0.80000001 0 0 0 0.72461,0.871094 0.80000001,0.80000001 0 0 0 0.86914,-0.724609 c 0.07657,-0.829454 0.28661,-1.318435 0.677735,-1.726563 0.06046,-0.06309 0.245327,-0.105533 0.318359,-0.166015 -0.07597,0.109588 -0.102077,0.404753 -0.197266,0.496093 a 0.80000001,0.80000001 0 0 0 -0.02344,1.13086 0.80000001,0.80000001 0 0 0 1.130859,0.02344 c 0.79407,-0.761977 1.09302,-1.753603 1.384766,-3.158203 a 0.80008001,0.80008001 0 0 0 -0.792969,-0.962891 z m 0.01953,4.548829 c -0.341938,0.01195 -0.671446,0.05689 -0.976562,0.123047 -1.220464,0.264642 -2.260225,0.703124 -2.675781,0.703124 -0.203536,0 -0.853373,-0.151314 -1.601563,-0.318359 -0.74819,-0.167045 -1.640103,-0.335729 -2.591797,-0.238281 -0.951693,0.09745 -1.977397,0.5053 -2.77539,1.398437 -0.797993,0.893138 -1.36535,2.206655 -1.683594,4.078125 a 0.90008998,0.90008998 0 0 0 -0.0059,0.0332 c -0.360901,2.754713 0.581358,5.3355 1.771485,7.242187 0.595063,0.953343 1.253758,1.743516 1.890625,2.322266 0.636867,0.578749 1.160182,1.033203 2.011719,1.033203 0.91863,0 1.612922,-0.336935 2.085937,-0.587891 0.473015,-0.250955 0.706607,-0.376953 1.011719,-0.376953 0.181062,0 0.493384,0.13249 1.017578,0.375 0.524194,0.24251 1.252591,0.542969 2.181641,0.542969 1.499424,0 2.687399,-1.020034 3.5625,-2.169922 0.8751,-1.149888 1.478477,-2.491295 1.630859,-3.691406 a 0.89999998,0.89999998 0 0 0 -0.779297,-1.00586 0.89999998,0.89999998 0 0 0 -1.005859,0.779297 c -0.09228,0.726749 -0.590067,1.922473 -1.279297,2.828125 -0.68923,0.905652 -1.52917,1.458985 -2.128906,1.458985 -0.55918,0 -0.958458,-0.158801 -1.425781,-0.375 -0.467324,-0.216201 -1.00974,-0.541016 -1.773438,-0.541016 -0.819528,0 -1.419776,0.354783 -1.855469,0.585937 -0.435692,0.231155 -0.727067,0.376953 -1.242187,0.376953 0.177682,0 -0.313231,-0.121395 -0.800782,-0.564453 -0.487548,-0.443057 -1.063048,-1.121291 -1.576171,-1.943359 -1.024708,-1.641671 -1.796504,-3.846882 -1.511719,-6.044922 0.28241,-1.637838 0.757428,-2.609321 1.246094,-3.15625 0.491744,-0.550375 1.000511,-0.743497 1.617187,-0.80664 0.616676,-0.06314 1.327948,0.04959 2.015625,0.203124 0.687678,0.153535 1.305446,0.363282 1.994141,0.363282 1.162063,0 2.122565,-0.543127 3.058593,-0.746094 0.921294,-0.199772 1.63299,-0.204792 2.490235,0.574219 -0.04062,0.02769 -0.05062,0.03534 -0.0957,0.06641 a 0.90008998,0.90008998 0 0 0 -0.0098,0.0059 c -1.658911,1.170641 -2.150358,2.946442 -2.001953,4.396485 0.0742,0.725021 0.286675,1.384499 0.570313,1.933593 0.283637,0.549096 0.603082,0.99855 1.123046,1.296876 a 0.89999998,0.89999998 0 0 0 1.228516,-0.332032 0.89999998,0.89999998 0 0 0 -0.332031,-1.228515 c -2.96e-4,-1.7e-4 -0.241529,-0.217149 -0.419922,-0.5625 -0.178393,-0.345352 -0.329547,-0.80873 -0.378906,-1.291016 -0.09872,-0.964572 0.120731,-1.945298 1.25,-2.742187 0.192776,-0.132551 0.361653,-0.240175 0.537109,-0.375 0.17807,-0.136835 0.418789,-0.312966 0.548828,-0.710938 0.130039,-0.397972 -0.01416,-0.839389 -0.171875,-1.085938 -0.157712,-0.246548 -0.336882,-0.428389 -0.566406,-0.652343 a 0.90008998,0.90008998 0 0 0 -0.01367,-0.01367 c -0.662796,-0.618787 -1.392613,-0.943995 -2.109375,-1.082031 -0.358381,-0.06902 -0.712749,-0.09007 -1.054688,-0.07813 z" fill="#008055"/>
</svg>
