<svg xmlns="http://www.w3.org/2000/svg" width="48" height="48">
	<path d="m 14.80957,2.7353516 c -1.586185,0 -3.027503,0.4528795 -4.09375,1.3554688 C 9.6495732,4.9934095 9.0068358,6.3578328 9.0068358,7.9052735 V 40.073242 c 0,1.681492 0.6203354,3.087955 1.7070312,3.966797 1.086696,0.878841 2.522985,1.224609 4.09375,1.224609 h 18.996094 c 1.547191,0 2.892887,-0.532069 3.810546,-1.484375 0.91766,-0.952306 1.378907,-2.275981 1.378907,-3.707031 V 12.80371 c 0,-1.577083 -0.452884,-2.9287186 -1.398438,-3.8476554 C 36.649172,8.0371179 35.31001,7.633789 33.803711,7.633789 H 26.27832 a 1,1 0 0 0 -1,1.0000001 1,1 0 0 0 1,1.0000003 h 7.525391 c 1.16169,0 1.916534,0.2875211 2.398437,0.7558586 0.481904,0.468338 0.791016,1.200287 0.791016,2.414062 v 27.269532 c 0,1.01284 -0.30747,1.786153 -0.820313,2.318359 -0.512843,0.532206 -1.260501,0.873047 -2.36914,0.873047 H 14.807617 c -1.271475,0 -2.232649,-0.291401 -2.835938,-0.779297 -0.603288,-0.487896 -0.964843,-1.178611 -0.964843,-2.412109 V 7.9052735 c 0,-1.0269793 0.363509,-1.7483136 1,-2.2871095 0.63649,-0.5387956 1.597629,-0.8828125 2.802734,-0.8828125 h 18.751953 a 1,1 0 0 0 1,-1 1,1 0 0 0 -1,-1 z m 9.173828,18.3203124 c -0.744782,-0.006 -1.330079,0.506463 -1.683594,1.115234 a 0.90008998,0.90008998 0 0 0 -0.002,0.002 l -7.28125,12.65625 a 0.89999998,0.89999998 0 0 0 0.330078,1.228516 0.89999998,0.89999998 0 0 0 1.228516,-0.330078 l 7.28125,-12.654297 0.002,-0.002 c 0.05883,-0.100114 0.08597,-0.12428 0.113281,-0.154297 0.03216,0.03329 0.06868,0.06621 0.136719,0.183594 a 0.90008998,0.90008998 0 0 0 0,0.002 l 7.367188,12.628906 a 0.89999998,0.89999998 0 0 0 1.230468,0.324219 0.89999998,0.89999998 0 0 0 0.324219,-1.230469 l -7.365234,-12.626953 -0.002,-0.002 c -0.36039,-0.620537 -0.935871,-1.134623 -1.679688,-1.140625 z m -0.898437,7.892578 a 0.69999999,0.69999999 0 0 0 -0.699219,0.701172 v 5.660156 a 0.69999999,0.69999999 0 0 0 0.699219,0.701172 0.69999999,0.69999999 0 0 0 0.701172,-0.701172 v -5.660156 a 0.69999999,0.69999999 0 0 0 -0.701172,-0.701172 z m -2.035157,1.458984 a 0.69999999,0.69999999 0 0 0 -0.701171,0.701172 v 4.201172 a 0.69999999,0.69999999 0 0 0 0.701171,0.701172 0.69999999,0.69999999 0 0 0 0.699219,-0.701172 v -4.201172 a 0.69999999,0.69999999 0 0 0 -0.699219,-0.701172 z m 4.158203,0 a 0.69999999,0.69999999 0 0 0 -0.701171,0.701172 v 4.201172 a 0.69999999,0.69999999 0 0 0 0.701171,0.701172 0.69999999,0.69999999 0 0 0 0.699219,-0.701172 v -4.201172 a 0.69999999,0.69999999 0 0 0 -0.699219,-0.701172 z m -6.152343,2.734375 a 0.69999999,0.69999999 0 0 0 -0.699219,0.701172 v 1.466797 a 0.69999999,0.69999999 0 0 0 0.699219,0.701172 0.69999999,0.69999999 0 0 0 0.699219,-0.701172 v -1.466797 a 0.69999999,0.69999999 0 0 0 -0.699219,-0.701172 z m 8.144531,0 a 0.69999999,0.69999999 0 0 0 -0.699219,0.701172 v 1.466797 a 0.69999999,0.69999999 0 0 0 0.699219,0.701172 0.69999999,0.69999999 0 0 0 0.701172,-0.701172 v -1.466797 a 0.69999999,0.69999999 0 0 0 -0.701172,-0.701172 z m 2.019531,1.269531 a 0.75898117,0.74792475 0 0 0 -0.757812,0.748047 0.75898117,0.74792475 0 0 0 0.757812,0.748047 0.75898117,0.74792475 0 0 0 0.759766,-0.748047 0.75898117,0.74792475 0 0 0 -0.759766,-0.748047 z" fill="#008055"/>
</svg>
