<svg xmlns="http://www.w3.org/2000/svg" width="48" height="48">
	<path d="m 14.80957,2.734375 c -1.58619,0 -3.027508,0.454831 -4.09375,1.357422 -1.066241,0.902591 -1.708984,2.265063 -1.708984,3.8125 v 32.169922 c 0,1.681487 0.620337,3.087952 1.707031,3.966797 1.086694,0.878844 2.522958,1.224609 4.09375,1.224609 h 18.996094 c 1.547178,0 2.89289,-0.534022 3.810547,-1.486328 0.917656,-0.952305 1.378906,-2.274026 1.378906,-3.705078 V 12.804688 c 0,-1.577083 -0.452887,-2.930671 -1.398438,-3.84961 C 36.649176,8.03614 35.310015,7.634766 33.803711,7.634766 H 26.27832 a 1,1 0 0 0 -1,1 1,1 0 0 0 1,1 h 7.525391 c 1.161696,0 1.916538,0.287523 2.398437,0.755859 0.4819,0.468337 0.791016,1.200285 0.791016,2.414063 v 27.269531 c 0,1.012838 -0.307469,1.786152 -0.820313,2.318359 -0.512843,0.532207 -1.260519,0.873047 -2.36914,0.873047 H 14.807617 c -1.271508,0 -2.232655,-0.293357 -2.835938,-0.78125 -0.603281,-0.487893 -0.964843,-1.176653 -0.964843,-2.410156 V 7.904297 c 0,-1.026983 0.363516,-1.748315 1,-2.287109 0.636483,-0.538794 1.597624,-0.882813 2.802734,-0.882813 h 18.751953 a 1,1 0 0 0 1,-1 1,1 0 0 0 -1,-1 z m 5.025391,18.232422 a 1,1 0 0 0 -1,1 1,1 0 0 0 1,1 h 6.990234 c 0.64864,0 1.096097,0.180433 1.378906,0.4375 0.282809,0.257067 0.462891,0.608704 0.462891,1.222656 v 2.228516 c 0,0.621168 -0.531878,1.298828 -1.789063,1.298828 l -3.322265,0.002 a 1,1 0 0 0 -1,1 1,1 0 0 0 1,1 l 3.322265,-0.002 c 2.109416,0 3.789063,-1.473456 3.789063,-3.298828 v -2.228516 c 0,-1.071978 -0.399997,-2.051214 -1.117187,-2.703125 -0.717192,-0.65191 -1.68985,-0.957031 -2.72461,-0.957031 z m 0.998047,2.494141 a 1,1 0 0 0 -1,1 v 10.839843 a 1,1 0 0 0 1,1 1,1 0 0 0 1,-1 V 24.460938 a 1,1 0 0 0 -1,-1 z" fill="#008055"/>
</svg>
