<svg xmlns="http://www.w3.org/2000/svg" width="48" height="48">
	<path d="m 14.808594,2.7353514 c -1.586185,0 -3.027504,0.4528795 -4.093751,1.3554687 C 9.6485965,4.9934093 9.0078125,6.3578324 9.0078125,7.9052732 V 40.073242 c 0,1.681492 0.618384,3.087955 1.7050785,3.966797 1.086693,0.878842 2.524937,1.22461 4.095703,1.22461 h 18.99414 c 1.547196,0 2.892888,-0.532068 3.810547,-1.484375 0.917659,-0.952308 1.378907,-2.275983 1.378907,-3.707032 V 12.803711 c 0,-1.577084 -0.450933,-2.9287184 -1.396485,-3.8476564 -0.945552,-0.9189379 -2.28667,-1.3222658 -3.792969,-1.3222658 h -7.523437 a 1,1 0 0 0 -1,0.9999998 1,1 0 0 0 1,1 h 7.523437 c 1.161691,0 1.916537,0.287522 2.398438,0.7558604 0.481901,0.468337 0.791016,1.200286 0.791016,2.414062 v 27.269531 c 0,1.012842 -0.305518,1.786154 -0.81836,2.31836 -0.512842,0.532205 -1.262448,0.873047 -2.371094,0.873047 h -18.99414 c -1.271476,0 -2.234605,-0.291402 -2.837891,-0.779297 -0.603285,-0.487896 -0.962891,-1.178611 -0.962891,-2.41211 V 7.9052732 c 0,-1.0269792 0.36351,-1.7483135 1,-2.2871094 0.636491,-0.5387957 1.595677,-0.8828124 2.800782,-0.8828124 h 18.751953 a 1,1 0 0 0 1,-1 1,1 0 0 0 -1,-1 z m 2.519531,17.9121096 c -0.534168,0 -1.094905,0.150244 -1.505859,0.550781 -0.410954,0.400538 -0.582032,0.97492 -0.582032,1.535157 v 11.583984 c 0,0.535495 0.177607,1.079894 0.5625,1.480469 0.384894,0.400575 0.950559,0.613281 1.525391,0.613281 H 18.75 A 0.89999998,0.89999998 0 0 0 19.650391,35.510742 0.89999998,0.89999998 0 0 0 18.75,34.610352 h -1.421875 c -0.178998,0 -0.207372,-0.03659 -0.228516,-0.05859 -0.02114,-0.02201 -0.06055,-0.07419 -0.06055,-0.234375 V 22.733399 c 0,-0.234204 0.04485,-0.251731 0.03906,-0.246094 -0.0058,0.0056 0.02687,-0.04102 0.25,-0.04102 H 18.75 A 0.89999998,0.89999998 0 0 0 19.648438,21.547852 0.89999998,0.89999998 0 0 0 18.75,20.647461 Z m 12.009766,0 a 0.89999998,0.89999998 0 0 0 -0.900391,0.900391 0.89999998,0.89999998 0 0 0 0.900391,0.898437 h 1.421875 c 0.223131,0 0.255783,0.04665 0.25,0.04102 -0.0058,-0.0056 0.03906,0.01189 0.03906,0.246094 v 11.583984 c 0,0.160185 -0.04136,0.21237 -0.0625,0.234375 -0.02114,0.02201 -0.04756,0.05859 -0.226562,0.05859 h -1.421875 a 0.89999998,0.89999998 0 0 0 -0.900391,0.90039 0.89999998,0.89999998 0 0 0 0.900391,0.900391 h 1.421875 c 0.574832,0 1.140496,-0.212706 1.52539,-0.613281 0.384895,-0.400575 0.5625,-0.944974 0.5625,-1.480469 V 22.733399 c 0,-0.560237 -0.171078,-1.134619 -0.582031,-1.535157 -0.410953,-0.400537 -0.971691,-0.550781 -1.505859,-0.550781 z m -9.097657,2.798828 a 0.89999998,0.89999998 0 0 0 -0.90039,0.898438 0.89999998,0.89999998 0 0 0 0.90039,0.90039 h 2.984375 v 8.701172 A 0.89999998,0.89999998 0 0 0 24.125,34.84668 0.89999998,0.89999998 0 0 0 25.025391,33.946289 v -8.701172 h 3.103515 a 0.89999998,0.89999998 0 0 0 0.900391,-0.90039 0.89999998,0.89999998 0 0 0 -0.900391,-0.898438 z" fill="#008055"/>
</svg>
