<svg xmlns="http://www.w3.org/2000/svg" width="48" height="48">
	<path d="m 14.808594,2.7353517 c -1.586185,0 -3.027503,0.4528795 -4.09375,1.3554686 -1.066247,0.902589 -1.7070313,2.267013 -1.7070313,3.814453 V 40.073242 c 0,1.68149 0.6183834,3.087954 1.7050783,3.966797 1.086695,0.878843 2.524929,1.224609 4.095703,1.224609 h 18.996093 c 1.547192,0 2.890935,-0.532068 3.808594,-1.484375 0.91766,-0.952306 1.378906,-2.275981 1.378906,-3.707031 V 12.803711 c 0,-1.577085 -0.45093,-2.9287188 -1.396484,-3.8476558 -0.945554,-0.918937 -2.284716,-1.322266 -3.791016,-1.322266 h -7.52539 a 1,1 0 0 0 -1,1 1,1 0 0 0 1,1 h 7.52539 c 1.161691,0 1.914581,0.2875211 2.396485,0.7558588 0.481903,0.468338 0.791015,1.200288 0.791015,2.414063 v 27.269531 c 0,1.01284 -0.305516,1.786153 -0.818359,2.318359 -0.512843,0.532207 -1.260501,0.873047 -2.369141,0.873047 H 14.808594 c -1.271486,0 -2.234605,-0.291401 -2.837891,-0.779297 -0.603285,-0.487894 -0.96289,-1.178609 -0.96289,-2.412109 V 7.9052732 c 0,-1.026979 0.363509,-1.748313 1,-2.287109 0.63649,-0.538796 1.595676,-0.882813 2.800781,-0.882813 H 33.5625 a 1,1 0 0 0 1,-1 1,1 0 0 0 -1,-0.9999995 z m 14.041015,16.0214843 -9.574218,0.01758 c -0.736729,3.57e-4 -1.45779,0.203988 -1.976563,0.710937 -0.519226,0.507394 -0.746093,1.241392 -0.746093,2.015626 v 13.460937 c 0,0.722778 0.235128,1.428524 0.728515,1.943359 0.493387,0.514835 1.218845,0.792969 1.996094,0.792969 h 9.574219 c 0.75491,0 1.494439,-0.164373 2.080078,-0.640625 0.585639,-0.476252 0.912109,-1.256382 0.912109,-2.095703 v -6.234377 a 0.89999998,0.89999998 0 0 0 -0.898437,-0.900391 0.89999998,0.89999998 0 0 0 -0.900391,0.900391 v 6.234375 c 0,0.438389 -0.09899,0.576418 -0.25,0.699219 -0.151006,0.1228 -0.459272,0.238281 -0.943359,0.238281 h -9.574219 c -0.380351,0 -0.567082,-0.104392 -0.697266,-0.240234 -0.130183,-0.135843 -0.228515,-0.348834 -0.228515,-0.697266 V 21.500977 c 0,-0.449027 0.104017,-0.62785 0.207031,-0.728516 0.103014,-0.100666 0.293231,-0.199219 0.71875,-0.199219 a 0.90008998,0.90008998 0 0 0 0.002,0 l 9.572266,-0.01563 c 0.384112,0 0.693222,0.11486 0.882812,0.269531 0.18959,0.154672 0.300064,0.32981 0.310547,0.685547 a 0.89999998,0.89999998 0 0 0 0.925781,0.873047 0.89999998,0.89999998 0 0 0 0.873047,-0.927734 C 31.819507,20.63377 31.442111,19.894875 30.873094,19.430659 30.304076,18.966443 29.583877,18.756831 28.85161,18.756831 a 0.90008998,0.90008998 0 0 0 -0.002,0 z m -6.373046,4.544922 c -0.527137,0 -1.060879,0.13011 -1.458985,0.503906 -0.398106,0.373796 -0.560547,0.92171 -0.560547,1.453125 v 5.861328 c 0,0.329699 0.02702,0.625067 0.16211,0.931641 0.135092,0.306573 0.471879,0.626299 0.83789,0.705078 0.732023,0.157558 1.166744,-0.190366 1.695313,-0.542969 a 0.80008001,0.80008001 0 0 0 0.0059,-0.0039 l 9.585938,-6.50586 a 0.80008001,0.80008001 0 0 0 0.0039,-0.002 c 0.250597,-0.171659 0.458808,-0.329214 0.640625,-0.513671 0.181817,-0.18446 0.441891,-0.401229 0.400391,-0.927735 -0.02075,-0.263253 -0.190902,-0.534308 -0.361329,-0.669922 -0.170427,-0.135614 -0.326103,-0.186518 -0.46875,-0.222656 -0.285292,-0.07228 -0.555476,-0.07593 -0.90039,-0.06445 l 0.02734,-0.002 z m 0,1.599609 h 8.601562 l -8.818359,5.984375 c -0.179717,0.11758 -0.103256,0.09603 -0.201172,0.132813 v -5.759766 c 0,-0.247045 0.04437,-0.277421 0.05469,-0.287109 0.01032,-0.0097 0.08686,-0.07031 0.363282,-0.07031 z" fill="#008055"/>
</svg>
