<svg xmlns="http://www.w3.org/2000/svg" width="48" height="48">
	<path d="m 14.808594,2.7353516 c -1.586185,0 -3.027503,0.4528796 -4.09375,1.3554688 C 9.6485965,4.9934096 9.0078125,6.3578327 9.0078125,7.9052735 V 40.073242 c 0,1.681492 0.618382,3.087955 1.7050785,3.966797 1.086697,0.878841 2.524937,1.224609 4.095703,1.224609 h 18.99414 c 1.547191,0 2.892888,-0.532068 3.810547,-1.484375 0.917659,-0.952306 1.378907,-2.275981 1.378907,-3.707031 V 12.803711 c 0,-1.577085 -0.452883,-2.9287196 -1.398438,-3.8476562 C 36.648196,8.0371179 35.309033,7.6337892 33.802734,7.6337892 h -7.523437 a 1,1 0 0 0 -1,1 1,1 0 0 0 1,1.0000002 h 7.523437 c 1.161691,0 1.916534,0.287521 2.398438,0.7558586 0.481904,0.468338 0.791016,1.200288 0.791016,2.414063 v 27.269531 c 0,1.01284 -0.305516,1.786153 -0.81836,2.318359 -0.512842,0.532206 -1.262455,0.873047 -2.371094,0.873047 h -18.99414 c -1.271476,0 -2.234603,-0.291401 -2.837891,-0.779297 -0.603289,-0.487896 -0.962891,-1.178611 -0.962891,-2.412109 V 7.9052735 c 0,-1.0269792 0.36351,-1.7483136 1,-2.2871093 0.636491,-0.5387959 1.595677,-0.8828126 2.800782,-0.8828126 h 18.751953 a 1,1 0 0 0 1,-1 1,1 0 0 0 -1,-1 z m 7.007812,18.0624994 a 0.90008998,0.90008998 0 0 0 -0.80664,0.558594 l -6.21875,15.246094 a 0.89999998,0.89999998 0 0 0 0.49414,1.171875 0.89999998,0.89999998 0 0 0 1.171875,-0.492188 l 2.177735,-5.33789 h 6.08789 l 1.992188,5.314453 a 0.89999998,0.89999998 0 0 0 1.160156,0.52539 0.89999998,0.89999998 0 0 0 0.525391,-1.158203 L 22.685547,21.379883 a 0.90008998,0.90008998 0 0 0 -0.869141,-0.582032 z m 9.085938,2.294922 a 1.3119273,1.3119273 0 0 0 -1.3125,1.3125 1.3119273,1.3119273 0 0 0 1.3125,1.3125 1.3119273,1.3119273 0 0 0 1.3125,-1.3125 1.3119273,1.3119273 0 0 0 -1.3125,-1.3125 z m -9.095703,1.072266 2.240234,5.978515 h -4.677734 z m 9.113281,2.326172 a 0.89999998,0.89999998 0 0 0 -0.900391,0.898437 v 9.462891 a 0.89999998,0.89999998 0 0 0 0.900391,0.90039 0.89999998,0.89999998 0 0 0 0.900391,-0.90039 v -9.462891 a 0.89999998,0.89999998 0 0 0 -0.900391,-0.898437 z" fill="#008055"/>
</svg>
