<svg xmlns="http://www.w3.org/2000/svg" width="48" height="48">
	<path d="m 14.80957,2.7353517 c -1.586185,0 -3.027501,0.4528802 -4.09375,1.3554687 C 9.6495708,4.9934089 9.0068358,6.3578316 9.0068358,7.9052735 V 40.073242 c 0,1.681492 0.6203349,3.087956 1.7070312,3.966797 1.086696,0.878841 2.524938,1.224609 4.095703,1.224609 h 18.99414 c 1.547187,0 2.892887,-0.532069 3.810547,-1.484375 0.917661,-0.952305 1.378907,-2.275979 1.378907,-3.707031 V 12.803711 c 0,-1.577085 -0.452884,-2.9287197 -1.398438,-3.8476567 C 36.649172,8.0371184 35.31001,7.6337892 33.80371,7.6337892 h -7.523437 a 1,1 0 0 0 -1,1 1,1 0 0 0 1,1.0000001 h 7.523437 c 1.161691,0 1.916534,0.287521 2.398438,0.7558587 0.481904,0.468338 0.791016,1.200288 0.791016,2.414063 v 27.269531 c 0,1.012838 -0.305515,1.786153 -0.81836,2.318359 -0.512845,0.532207 -1.26246,0.873047 -2.371094,0.873047 H 14.80957 c -1.271475,0 -2.234602,-0.2914 -2.837891,-0.779297 -0.603288,-0.487896 -0.964843,-1.178611 -0.964843,-2.412109 V 7.9052735 c 0,-1.0269778 0.363507,-1.7483128 1,-2.2871093 0.636493,-0.5387965 1.597629,-0.8828125 2.802734,-0.8828125 h 18.751953 a 1,1 0 0 0 1,-1 1,1 0 0 0 -1,-1 z m 3.439453,18.4960933 a 0.89999998,0.89999998 0 0 0 -0.365234,0.08594 0.89999998,0.89999998 0 0 0 -0.427735,1.199218 l 1,2.109375 a 0.89999998,0.89999998 0 0 0 1.199219,0.427735 0.89999998,0.89999998 0 0 0 0.427734,-1.199219 l -1,-2.109375 a 0.89999998,0.89999998 0 0 0 -0.833984,-0.513672 z m 11.974609,0 a 0.89999998,0.89999998 0 0 0 -0.814453,0.513672 l -0.998047,2.109375 a 0.89999998,0.89999998 0 0 0 0.427735,1.199219 0.89999998,0.89999998 0 0 0 1.197265,-0.427735 l 1,-2.109375 a 0.89999998,0.89999998 0 0 0 -0.427734,-1.199218 0.89999998,0.89999998 0 0 0 -0.384766,-0.08594 z m -6.255859,3.242188 c -4.150587,0 -7.667969,3.310628 -7.667969,7.908203 v 0.814453 c 0,0.8042 0.344498,1.555609 0.91211,2.041015 0.567612,0.485408 1.314021,0.712891 2.101562,0.712891 a 0.89999998,0.89999998 0 0 0 0.900391,-0.898437 0.89999998,0.89999998 0 0 0 -0.900391,-0.900391 c -0.441059,0 -0.749789,-0.125734 -0.93164,-0.28125 -0.181854,-0.155516 -0.28125,-0.333299 -0.28125,-0.673828 v -0.814453 c 0,-3.707085 2.646614,-6.107422 5.867187,-6.107422 2.076521,0 3.582623,0.718406 4.615234,1.820312 1.032611,1.101907 1.59081,2.621111 1.589844,4.273438 l -0.002,0.800781 a 0.90008998,0.90008998 0 0 0 0,0.002 c 0,0.458651 -0.104446,0.645448 -0.210938,0.75 -0.106491,0.104553 -0.301921,0.205078 -0.732421,0.205078 h -7.373047 a 0.89999998,0.89999998 0 0 0 -0.900391,0.898438 0.89999998,0.89999998 0 0 0 0.900391,0.90039 h 7.373047 c 0.74382,0 1.472332,-0.206444 1.99414,-0.71875 0.521368,-0.511872 0.749613,-1.251615 0.75,-2.033203 v -0.002 l 0.002,-0.798828 a 0.90008998,0.90008998 0 0 0 0,-0.002 c 0.0012,-2.060764 -0.700775,-4.038164 -2.076172,-5.505859 -1.375396,-1.467696 -3.423388,-2.390625 -5.929687,-2.390625 z m 2.417969,4.242187 a 1.2125573,1.2249594 0 0 0 -1.210938,1.22461 1.2125573,1.2249594 0 0 0 1.210938,1.224609 1.2125573,1.2249594 0 0 0 1.21289,-1.224609 1.2125573,1.2249594 0 0 0 -1.21289,-1.22461 z m -4.589844,0.01172 a 1.2125573,1.2249594 0 0 0 -1.212891,1.224609 1.2125573,1.2249594 0 0 0 1.212891,1.22461 1.2125573,1.2249594 0 0 0 1.210938,-1.22461 1.2125573,1.2249594 0 0 0 -1.210938,-1.224609 z" fill="#008055"/>
</svg>
