<svg xmlns="http://www.w3.org/2000/svg" width="48" height="48">
	<path d="m 14.375977,6.6279295 c -1.757661,0 -3.407852,0.510326 -4.6406255,1.591797 -1.232774,1.081471 -1.941406,2.7262535 -1.941406,4.4785155 v 22.583985 c 0,1.857116 0.674911,3.572901 1.953125,4.644531 1.2782135,1.07163 2.9234605,1.445313 4.6289065,1.445313 H 33.99707 c 1.74454,0 3.362488,-0.607071 4.492188,-1.732422 1.129699,-1.125352 1.716797,-2.707211 1.716797,-4.357422 V 15.272461 c 0,-1.76769 -0.574647,-3.415863 -1.757813,-4.519531 C 37.265076,9.6492615 35.658443,9.2041015 33.99707,9.2041015 h -8.183593 a 1.9,1.9 0 0 0 -1.900391,1.8984375 1.9,1.9 0 0 0 1.900391,1.900391 h 8.183593 c 1.006617,0 1.55534,0.243737 1.859375,0.527344 0.304035,0.283607 0.548828,0.719017 0.548828,1.742187 v 20.009766 c 0,0.79368 -0.237107,1.306854 -0.597656,1.666015 -0.360548,0.359161 -0.899256,0.625 -1.810547,0.625 H 14.375977 c -1.136795,0 -1.835505,-0.263486 -2.1875,-0.558593 -0.351996,-0.295107 -0.595704,-0.674547 -0.595704,-1.732422 V 12.698242 c 0,-0.822157 0.238199,-1.263156 0.648438,-1.623047 0.410239,-0.359889 1.101136,-0.648437 2.134766,-0.648437 H 22.09668 A 1.9,1.9 0 0 0 23.99707,8.5283205 1.9,1.9 0 0 0 22.09668,6.6279295 Z M 26.25293,20.166992 a 0.89999998,0.89999998 0 0 0 -0.564453,0.216797 0.89999998,0.89999998 0 0 0 -0.09766,1.267578 l 2.392578,2.791016 -2.392578,2.789062 a 0.89999998,0.89999998 0 0 0 0.09766,1.269532 0.89999998,0.89999998 0 0 0 1.269531,-0.09766 l 2.210937,-2.578126 2.210938,2.578126 a 0.89999998,0.89999998 0 0 0 1.269531,0.09766 0.89999998,0.89999998 0 0 0 0.09766,-1.269532 l -2.392582,-2.789062 2.392578,-2.791016 a 0.89999998,0.89999998 0 0 0 -0.09766,-1.267578 0.89999998,0.89999998 0 0 0 -0.585937,-0.216797 0.89999998,0.89999998 0 0 0 -0.683594,0.3125 l -2.210938,2.578125 -2.210937,-2.578125 a 0.89999998,0.89999998 0 0 0 -0.705078,-0.3125 z m -11.675782,0.105469 a 0.89999998,0.89999998 0 0 0 -0.90039,0.900391 0.89999998,0.89999998 0 0 0 0.90039,0.90039 h 2.195313 v 5.851563 a 0.89999998,0.89999998 0 0 0 0.900391,0.898437 0.89999998,0.89999998 0 0 0 0.90039,-0.898437 v -5.851563 h 2.277344 a 0.89999998,0.89999998 0 0 0 0.900391,-0.90039 0.89999998,0.89999998 0 0 0 -0.900391,-0.900391 z m 6.228516,3.298828 a 0.90008998,0.90008998 0 0 0 -0.900391,0.900391 v 6.751953 a 0.90008998,0.90008998 0 0 0 0.900391,0.898438 h 4.212891 a 0.89999998,0.89999998 0 0 0 0.90039,-0.898438 0.89999998,0.89999998 0 0 0 -0.90039,-0.900391 h -3.3125 v -1.599609 h 2.238281 a 0.89999998,0.89999998 0 0 0 0.898437,-0.900391 0.89999998,0.89999998 0 0 0 -0.898437,-0.898437 h -2.238281 v -1.552734 h 3.3125 a 0.89999998,0.89999998 0 0 0 0.90039,-0.900391 0.89999998,0.89999998 0 0 0 -0.90039,-0.900391 z" fill="#008055"/>
</svg>
