<svg xmlns="http://www.w3.org/2000/svg" width="48" height="48">
	<path d="m 14.808594,2.7353515 c -1.586185,0 -3.027503,0.4528795 -4.09375,1.3554686 C 9.6485975,4.9934095 9.0078125,6.3578326 9.0078125,7.9052735 V 40.075196 c 0,1.681491 0.618383,3.086001 1.7050785,3.964843 1.086696,0.878842 2.524933,1.22461 4.095703,1.22461 h 18.99414 c 1.547191,0 2.892888,-0.532069 3.810547,-1.484375 0.917659,-0.952307 1.378907,-2.274028 1.378907,-3.705078 V 12.805664 c 0,-1.577085 -0.452883,-2.9306724 -1.398438,-3.8496094 -0.945554,-0.918937 -2.284716,-1.320312 -3.791016,-1.320312 h -7.523437 a 1,1 0 0 0 -1,0.9999999 1,1 0 0 0 1,1 h 7.523437 c 1.161691,0 1.916534,0.2855681 2.398438,0.7539065 0.481904,0.468338 0.791016,1.20224 0.791016,2.416015 v 27.269532 c 0,1.012839 -0.305517,1.7842 -0.81836,2.316406 -0.512842,0.532206 -1.262455,0.873047 -2.371094,0.873047 h -18.99414 c -1.27148,0 -2.234603,-0.291402 -2.837891,-0.779297 -0.603287,-0.487896 -0.962891,-1.176658 -0.962891,-2.410156 V 7.9052735 c 0,-1.026979 0.36351,-1.748314 1,-2.28711 0.636491,-0.538795 1.595677,-0.882812 2.800782,-0.882812 h 18.751953 a 1,1 0 0 0 1,-1 1,1 0 0 0 -1,-1 z M 30.826172,19.204102 c -0.268994,0.02287 -0.478443,0.108865 -0.689453,0.193359 -0.273767,0.109624 -0.551668,0.24475 -0.861328,0.390625 -4.409234,1.921513 -7.134489,1.14178 -10.570313,-0.46289 a 0.89999998,0.89999998 0 0 0 -1.197265,0.435547 0.89999998,0.89999998 0 0 0 0.435546,1.195312 c 3.595296,1.67915 7.198627,2.597809 12.052735,0.482422 a 0.90008998,0.90008998 0 0 0 0.02344,-0.0098 c 0.230697,-0.108461 0.383519,-0.178704 0.546875,-0.251953 v 8.808594 c 0,2.321958 -0.724522,3.857938 -1.882812,4.880859 -1.158291,1.022922 -2.831927,1.552735 -4.839844,1.552735 -1.825658,0 -3.380043,-0.49765 -4.470703,-1.501953 -1.090661,-1.004304 -1.795894,-2.546881 -1.787109,-4.927735 a 0.90008998,0.90008998 0 0 0 0,-0.0039 V 21.83298 A 0.89999998,0.89999998 0 0 0 16.68555,20.932589 0.89999998,0.89999998 0 0 0 15.785159,21.83298 v 8.152344 c -0.0092,2.752936 0.872273,4.877511 2.369141,6.255859 1.497647,1.379066 3.532532,1.978516 5.689453,1.978516 2.326194,0 4.462378,-0.618388 6.03125,-2.003906 1.568872,-1.385519 2.490234,-3.516827 2.490234,-6.230469 v -8.853516 c 0,-0.416171 -0.01502,-0.754309 -0.173828,-1.128906 -0.158808,-0.374597 -0.653393,-0.76254 -1.074218,-0.798828 -0.105207,-0.0091 -0.20135,-0.0076 -0.291016,0 z m -3.652344,4.558594 a 0.89999998,0.89999998 0 0 0 -0.90039,0.90039 v 6.644531 c 0,1.14133 -0.556332,1.408425 -1.064454,1.41211 -0.50812,0.0037 -1.054687,-0.235314 -1.054687,-1.41211 a 0.89999998,0.89999998 0 0 0 -0.898438,-0.898437 0.89999998,0.89999998 0 0 0 -0.90039,0.898437 c 0,1.932975 1.413736,3.221465 2.865234,3.210938 1.451499,-0.01053 2.853516,-1.299346 2.853516,-3.210938 v -6.644531 a 0.89999998,0.89999998 0 0 0 -0.900391,-0.90039 z" fill="#008055"/>
</svg>
