<svg xmlns="http://www.w3.org/2000/svg" width="48" height="48">
	<path d="m 14.809571,2.7343752 c -1.586186,0 -3.027504,0.4548327 -4.09375,1.3574219 C 9.6495735,4.9943862 9.0068362,6.3568567 9.0068362,7.9042967 V 40.074219 c 0,1.681493 0.6203349,3.086003 1.7070308,3.964844 1.086697,0.878841 2.524939,1.226562 4.095704,1.226562 h 18.99414 c 1.547191,0 2.892888,-0.534021 3.810547,-1.486328 0.91766,-0.952306 1.378906,-2.274028 1.378906,-3.705078 V 12.804688 c 0,-1.577085 -0.452883,-2.9306723 -1.398437,-3.8496093 -0.945554,-0.918937 -2.284716,-1.320313 -3.791016,-1.320313 h -7.523437 a 1,1 0 0 0 -1,1 1,1 0 0 0 1,1 h 7.523437 c 1.161691,0 1.916534,0.287522 2.398438,0.7558593 0.481903,0.46834 0.791015,1.200288 0.791015,2.414063 v 27.269531 c 0,1.01284 -0.305516,1.786154 -0.818359,2.31836 -0.512843,0.532206 -1.262455,0.873046 -2.371094,0.873046 h -18.99414 c -1.271476,0 -2.234602,-0.293353 -2.837891,-0.78125 -0.603289,-0.487895 -0.964844,-1.176658 -0.964844,-2.410156 V 7.9042967 c 0,-1.026979 0.36351,-1.748313 1,-2.287109 0.636491,-0.5387958 1.59763,-0.8828125 2.802735,-0.8828125 h 18.751953 a 1,1 0 0 0 1,-1 1,1 0 0 0 -1,-1 z m 9.544922,16.1074218 c -4.888613,0 -8.88086,3.870249 -8.88086,9.177735 0,2.500064 0.608479,4.85289 2.00586,6.623047 1.39738,1.770156 3.605725,2.880859 6.445312,2.880859 a 0.90008998,0.90008998 0 0 0 0.01758,-0.002 c 1.513173,-0.03186 3.125738,-0.271749 4.736328,-1.140625 a 0.89999998,0.89999998 0 0 0 0.365235,-1.21875 0.89999998,0.89999998 0 0 0 -1.220703,-0.365235 c -1.292883,0.697481 -2.555164,0.894367 -3.90625,0.923829 -2.38732,-0.0022 -3.955293,-0.840269 -5.023438,-2.19336 -1.069546,-1.354866 -1.619141,-3.303346 -1.619141,-5.507812 0,-4.431894 3.115332,-7.376953 7.080079,-7.376953 1.806157,0 3.428835,0.59807 4.605468,1.736328 1.176634,1.138257 1.947266,2.832104 1.947266,5.207031 0,1.06567 -0.241321,2.127759 -0.613281,2.837891 -0.371961,0.710132 -0.756159,0.984375 -1.167969,0.984375 -0.250748,0 -0.341387,-0.06407 -0.431641,-0.167969 -0.09025,-0.103895 -0.166015,-0.288156 -0.166015,-0.527344 v -2.759766 -0.0078 c 0.0087,-1.271445 -0.268627,-2.492374 -0.957031,-3.455078 -0.689844,-0.964716 -1.847166,-1.607422 -3.226563,-1.607422 -2.544751,0 -4.474609,2.356737 -4.474609,5.226562 0,1.528701 0.312831,2.818275 1.02539,3.779297 0.71256,0.961023 1.854887,1.503907 3.113282,1.503907 0.890334,0 1.685641,-0.369612 2.24414,-0.927735 a 0.89999998,0.89999998 0 0 0 0,-1.273437 0.89999998,0.89999998 0 0 0 -1.273437,0 c -0.239439,0.239277 -0.578849,0.402344 -0.970703,0.402344 -0.797527,0 -1.273293,-0.247682 -1.666016,-0.777344 -0.392724,-0.529663 -0.671875,-1.431351 -0.671875,-2.707032 0,-2.106574 1.236837,-3.425781 2.673828,-3.425781 0.875208,0 1.368777,0.304004 1.761719,0.853516 0.392941,0.549512 0.628786,1.408911 0.621094,2.402344 a 0.90008998,0.90008998 0 0 0 0,0.0059 v 2.767578 c 0,0.614263 0.191984,1.228507 0.609374,1.708984 0.417391,0.480478 1.076261,0.78711 1.789063,0.78711 1.253511,0 2.209305,-0.894573 2.761719,-1.949219 0.552413,-1.054645 0.818359,-2.352728 0.818359,-3.673828 0,-2.775473 -0.947942,-5.004232 -2.494141,-6.5 -1.546197,-1.495768 -3.648821,-2.244141 -5.857421,-2.244141 z" fill="#008055"/>
</svg>
