<svg xmlns="http://www.w3.org/2000/svg" width="48" height="48">
	<path d="m 14.80957,2.735352 c -1.586185,0 -3.027503,0.452879 -4.09375,1.355468 C 9.649573,4.99341 9.008789,6.357833 9.008789,7.905274 l -0.00195,32.169921 c 0,1.681492 0.620335,3.086002 1.707031,3.964844 1.086695,0.878842 2.524934,1.224609 4.095703,1.224609 h 18.994141 c 1.547191,0 2.892887,-0.532068 3.810547,-1.484374 0.917659,-0.952307 1.378906,-2.274028 1.378906,-3.705079 V 12.805664 c 0,-1.577085 -0.452884,-2.930672 -1.398438,-3.849609 C 36.649175,8.037118 35.310013,7.635742 33.803714,7.635742 h -7.523438 a 1,1 0 0 0 -1,1 1,1 0 0 0 1,1 h 7.523438 c 1.16169,0 1.916534,0.285568 2.398437,0.753906 0.481904,0.46834 0.791016,1.202241 0.791016,2.416016 v 27.269531 c 0,1.01284 -0.305516,1.784201 -0.81836,2.316407 -0.512843,0.532206 -1.262454,0.873046 -2.371093,0.873046 H 14.80957 c -1.271481,0 -2.234604,-0.291401 -2.837891,-0.779296 -0.603287,-0.487896 -0.964843,-1.176658 -0.964843,-2.410157 l 0.002,-32.169921 c 0,-1.02698 0.361556,-1.748314 0.998047,-2.28711 0.63649,-0.538796 1.597629,-0.882812 2.802734,-0.882812 H 33.56157 a 1,1 0 0 0 1,-1 1,1 0 0 0 -1,-1 z m 14.509766,15.691406 c -1.980697,0 -3.507434,1.059901 -4.603516,2.480469 -1.096082,1.420568 -1.860442,3.212571 -2.574219,4.958984 -0.713777,1.746413 -1.377842,3.454359 -2.134765,4.648437 -0.756924,1.19408 -1.47708,1.796876 -2.486328,1.796876 a 0.80008001,0.80008001 0 0 0 -0.02148,0 c -0.913334,0.02567 -1.642578,0.870871 -1.642578,1.824218 v 3.070313 a 0.80000001,0.80000001 0 0 0 0.800781,0.798828 0.80000001,0.80000001 0 0 0 0.798828,-0.798828 v -3.070313 c 0,-0.264013 0.05904,-0.223798 0.08789,-0.224609 h -0.02344 c 1.69404,0 2.944626,-1.131855 3.83789,-2.541016 0.893264,-1.40916 1.558822,-3.173865 2.263672,-4.898437 0.70485,-1.724572 1.448802,-3.403267 2.361328,-4.585938 0.912526,-1.182671 1.896504,-1.857422 3.335938,-1.857422 0.215514,0 0.19446,0.0035 0.207031,0.002 v 2.11914 c 0,0.09952 -0.0081,0.146511 -0.01563,0.199219 -0.0035,-1e-6 -2.09e-4,0 -0.0039,0 -1.005134,0 -1.831281,0.520705 -2.414063,1.119141 -0.582782,0.598434 -0.969426,1.256486 -1.076172,1.953124 a 0.80008001,0.80008001 0 0 0 -0.0039,0.0293 c -0.04187,0.361169 -0.148839,0.698334 0.0293,1.207032 0.08907,0.254349 0.316742,0.534531 0.583984,0.671875 0.267243,0.137343 0.527575,0.166015 0.791016,0.166015 h 0.99414 c 0.106848,0 0.03615,-0.02062 0.05469,-0.01758 v 2.113281 c -0.02927,0.0041 -0.03789,0.0086 -0.08789,0.0098 l -2.017578,-0.0098 a 0.80008001,0.80008001 0 0 0 -0.0039,0 c -0.577787,0 -1.07003,0.219385 -1.404297,0.490235 -0.334267,0.27085 -0.526657,0.572904 -0.642578,0.822265 -1.185256,2.424536 -3.010562,4.347267 -5.333984,5.140625 a 0.80000001,0.80000001 0 0 0 -0.498047,1.015625 0.80000001,0.80000001 0 0 0 1.015625,0.5 c 2.83147,-0.966837 4.936925,-3.255311 6.259765,-5.96875 a 0.80008001,0.80008001 0 0 0 0.0078,-0.01367 c 0.0231,-0.04969 0.101163,-0.1725 0.199219,-0.251953 0.09805,-0.07945 0.196661,-0.134765 0.396484,-0.134765 l 2.035156,0.0098 a 0.80008001,0.80008001 0 0 0 0.02344,0 c 0.365955,-0.0087 0.780399,-0.05841 1.146484,-0.367187 0.366086,-0.30878 0.503906,-0.802271 0.503906,-1.238281 v -2.119225 c 0,-0.371488 -0.07022,-0.833437 -0.427734,-1.175781 -0.357517,-0.342345 -0.806223,-0.404297 -1.226563,-0.404297 h -0.835937 c 0.0018,-0.07934 0.0054,-0.06671 0.02148,-0.232422 0,0 0.002,-0.002 0.002,-0.002 0.02506,-0.159108 0.266579,-0.694032 0.640626,-1.078125 0.374845,-0.384913 0.832551,-0.634766 1.267578,-0.634766 0.477223,0 1.029645,-0.168576 1.326172,-0.589844 0.296525,-0.421266 0.292968,-0.828551 0.292968,-1.208984 V 19.99507 c -7.1e-5,-0.394878 -0.126315,-0.911783 -0.523437,-1.222656 -0.397122,-0.310873 -0.827338,-0.345703 -1.283203,-0.345703 z" fill="#008055"/>
</svg>
