<svg xmlns="http://www.w3.org/2000/svg" width="48" height="48">
	<path d="m 14.808594,2.7353517 c -1.586185,0 -3.027503,0.4528796 -4.09375,1.3554687 C 9.6485965,4.9934096 9.0078125,6.3578328 9.0078125,7.9052736 V 40.075195 c 0,1.681491 0.618382,3.086002 1.7050785,3.964844 1.086694,0.878842 2.524934,1.224609 4.095703,1.224609 h 18.99414 c 1.547191,0 2.892888,-0.532068 3.810547,-1.484375 0.917659,-0.952306 1.378907,-2.274028 1.378907,-3.705078 V 12.805664 c 0,-1.577085 -0.450931,-2.9306723 -1.396485,-3.8496092 -0.945554,-0.9189369 -2.28667,-1.3203125 -3.792969,-1.3203125 h -7.523437 a 1,1 0 0 0 -1,1 1,1 0 0 0 1,1 h 7.523437 c 1.16169,0 1.916534,0.2855682 2.398438,0.7539057 0.481904,0.468339 0.791016,1.202241 0.791016,2.416016 v 27.269531 c 0,1.01284 -0.305518,1.7842 -0.81836,2.316406 -0.512844,0.532206 -1.262456,0.873047 -2.371094,0.873047 h -18.99414 c -1.271482,0 -2.234605,-0.291401 -2.837891,-0.779297 -0.603288,-0.487895 -0.962891,-1.176657 -0.962891,-2.410156 V 7.9052735 c 0,-1.0269792 0.36351,-1.7483135 1,-2.2871093 0.636491,-0.5387959 1.595677,-0.8828125 2.800782,-0.8828125 h 18.751953 a 1,1 0 0 0 1,-1 1,1 0 0 0 -1,-1 z M 25.535156,19.270508 c -0.16469,-0.01359 -0.332066,-0.01159 -0.498047,0.0059 -1.327846,0.13957 -2.670133,1.217936 -3.349609,3.181641 l -0.873047,2.52539 h -2.144531 a 0.89999998,0.89999998 0 0 0 -0.900391,0.900391 0.89999998,0.89999998 0 0 0 0.900391,0.90039 h 1.521484 l -1.130859,3.267579 c -0.707794,1.889563 -2.336747,2.229515 -2.740234,2.107421 a 0.89999998,0.89999998 0 0 0 -1.123047,0.59961 0.89999998,0.89999998 0 0 0 0.601562,1.123047 c 1.705073,0.515947 3.96508,-0.577122 4.947266,-3.199219 a 0.90008998,0.90008998 0 0 0 0.0078,-0.02148 l 1.341797,-3.876954 h 2.884766 a 0.89999998,0.89999998 0 0 0 0.90039,-0.90039 0.89999998,0.89999998 0 0 0 -0.90039,-0.900391 H 22.71875 l 0.669922,-1.9375 c 0.509943,-1.473745 1.361844,-1.928478 1.837891,-1.978515 0.238023,-0.02502 0.362206,0.04402 0.404296,0.08398 0.04209,0.03996 0.08721,0.05789 0.04102,0.300781 a 0.89999998,0.89999998 0 0 0 0.716797,1.052735 0.89999998,0.89999998 0 0 0 1.052734,-0.716797 c 0.137631,-0.723694 -0.07922,-1.477111 -0.570312,-1.94336 -0.368323,-0.349686 -0.841866,-0.533458 -1.335938,-0.574218 z m 5.373047,5.683593 c -0.16469,-0.01359 -0.332066,-0.01159 -0.498047,0.0059 -1.327846,0.13957 -2.670127,1.217936 -3.349609,3.18164 L 26.1875,30.666992 h -2.144531 a 0.89999998,0.89999998 0 0 0 -0.900391,0.900391 0.89999998,0.89999998 0 0 0 0.900391,0.90039 h 1.521484 l -1.130859,3.267578 c -0.707793,1.889562 -2.338703,2.229515 -2.742188,2.107422 a 0.89999998,0.89999998 0 0 0 -1.121093,0.59961 0.89999998,0.89999998 0 0 0 0.599609,1.123046 c 1.705075,0.515949 3.967032,-0.577119 4.949219,-3.199218 a 0.90008998,0.90008998 0 0 0 0.0078,-0.01953 l 1.341797,-3.878906 h 2.884766 a 0.89999998,0.89999998 0 0 0 0.90039,-0.90039 0.89999998,0.89999998 0 0 0 -0.90039,-0.900391 h -2.261719 l 0.669922,-1.9375 c 0.509946,-1.473746 1.35989,-1.928478 1.835937,-1.978516 0.238023,-0.02502 0.364162,0.04403 0.40625,0.08398 0.04209,0.03996 0.08721,0.05788 0.04102,0.300781 a 0.89999998,0.89999998 0 0 0 0.716797,1.052734 0.89999998,0.89999998 0 0 0 1.050781,-0.716797 c 0.137635,-0.723693 -0.07726,-1.477109 -0.568359,-1.943359 -0.368322,-0.349687 -0.841866,-0.533459 -1.335938,-0.574219 z" fill="#008055"/>
</svg>
