<svg xmlns="http://www.w3.org/2000/svg" width="48" height="48">
	<path d="m 14.808594,2.7353516 c -1.58619,0 -3.027507,0.4528776 -4.093751,1.3554689 -1.0662395,0.902591 -1.7070305,2.267016 -1.7070305,3.814453 V 40.073242 c 0,1.681486 0.618384,3.087952 1.7050775,3.966797 1.086694,0.878844 2.524913,1.224609 4.095704,1.224609 h 18.99414 c 1.547179,0 2.892891,-0.532069 3.810547,-1.484375 0.917657,-0.952306 1.378907,-2.27598 1.378907,-3.707031 V 12.803711 c 0,-1.577083 -0.450933,-2.9287175 -1.396485,-3.8476566 -0.945551,-0.918938 -2.286665,-1.3222649 -3.792969,-1.3222649 h -7.523437 a 1,1 0 0 0 -1,1 1,1 0 0 0 1,1 h 7.523437 c 1.161696,0 1.916539,0.287522 2.398438,0.7558585 0.481899,0.468337 0.791016,1.200285 0.791016,2.414063 v 27.269531 c 0,1.012838 -0.305516,1.786152 -0.81836,2.318359 -0.512842,0.532207 -1.262472,0.873047 -2.371094,0.873047 h -18.99414 c -1.271509,0 -2.23461,-0.291404 -2.837891,-0.779297 -0.603281,-0.487893 -0.962891,-1.178606 -0.962891,-2.412109 V 7.9052735 c 0,-1.026983 0.363517,-1.748315 1,-2.287109 0.636484,-0.538794 1.595671,-0.882813 2.800782,-0.882813 h 18.751953 a 1,1 0 0 0 1,-1 1,1 0 0 0 -1,-1 z m 4.667969,17.8183594 a 1,1 0 0 0 -1,1 v 13.333984 a 1,1 0 0 0 1,1 1,1 0 0 0 1,-1 V 21.553711 a 1,1 0 0 0 -1,-1 z m 2.722656,0 a 1,1 0 0 0 -1,1 1,1 0 0 0 1,1 h 3.136719 c 0.704032,0 1.207118,0.201344 1.548828,0.533203 0.341709,0.331859 0.582031,0.834394 0.582031,1.68164 v 10.119141 a 1,1 0 0 0 1,1 1,1 0 0 0 1,-1 V 24.768554 c 0,-1.263234 -0.419213,-2.369151 -1.189453,-3.117187 -0.770241,-0.748036 -1.831439,-1.097656 -2.941406,-1.097656 z" fill="#008055"/>
</svg>
