<svg xmlns="http://www.w3.org/2000/svg" width="48" height="48">
	<path d="m 14.808593,2.734375 c -1.586184,0 -3.025547,0.4548332 -4.091795,1.3574219 C 9.6505465,4.9943854 9.0078125,6.3568551 9.0078125,7.9042971 V 40.074219 c 0,1.681491 0.620337,3.086001 1.7070305,3.964843 1.086695,0.878842 2.522985,1.226563 4.09375,1.226563 h 18.996095 c 1.547195,0 2.892888,-0.534021 3.810546,-1.486328 0.917659,-0.952307 1.376954,-2.27403 1.376954,-3.705078 V 12.804687 c 0,-1.577083 -0.450933,-2.9306709 -1.396485,-3.8496089 -0.945552,-0.918938 -2.284715,-1.320312 -3.791015,-1.320312 h -7.525391 a 1,1 0 0 0 -1,1 1,1 0 0 0 1,1 h 7.525391 c 1.16169,0 1.916536,0.287522 2.398437,0.7558589 0.481901,0.468337 0.789063,1.200286 0.789063,2.414062 v 27.269532 c 0,1.012841 -0.305518,1.786154 -0.81836,2.318359 -0.512842,0.532205 -1.260495,0.873047 -2.36914,0.873047 H 14.808593 c -1.271474,0 -2.23265,-0.293355 -2.835937,-0.78125 -0.603285,-0.487896 -0.964844,-1.176658 -0.964844,-2.410156 V 7.9042971 c 0,-1.026978 0.363508,-1.748313 1,-2.28711 0.636493,-0.5387957 1.595678,-0.8828122 2.800781,-0.8828122 H 33.5625 a 1,1 0 0 0 1,-1 1,1 0 0 0 -1,-1 z m 6.025391,16.724609 c -0.572147,0 -1.143556,0.124823 -1.605468,0.5 -0.461913,0.375177 -0.720703,0.994758 -0.720703,1.638672 a 0.80000001,0.80000001 0 0 0 0.800781,0.798828 0.80000001,0.80000001 0 0 0 0.798828,-0.798828 c 0,-0.287066 0.05341,-0.337114 0.128906,-0.398437 0.0755,-0.06132 0.265973,-0.140625 0.597656,-0.140625 h 9.589844 c 0.246083,0 0.340334,0.06216 0.40625,0.130859 0.06592,0.0687 0.125,0.184512 0.125,0.408203 v 9.769531 c 0,0.300971 -0.0636,0.386866 -0.105469,0.427735 -0.04187,0.04087 -0.140004,0.103515 -0.425781,0.103515 h -9.589844 c -0.290738,0 -0.479113,-0.08379 -0.578125,-0.167968 -0.09901,-0.08418 -0.148437,-0.159452 -0.148437,-0.363282 v -5.199218 a 0.80000001,0.80000001 0 0 0 -0.798828,-0.800782 0.80000001,0.80000001 0 0 0 -0.800781,0.800782 v 5.199218 c 0,0.618381 0.270445,1.205869 0.71289,1.582032 0.442445,0.376163 1.01637,0.548828 1.613281,0.548828 h 9.589844 c 0.562655,0 1.130913,-0.156401 1.542969,-0.558594 0.412056,-0.402193 0.589844,-0.981906 0.589844,-1.572266 v -9.769531 c 0,-0.556829 -0.183279,-1.11021 -0.572266,-1.515625 -0.388985,-0.405414 -0.962099,-0.623047 -1.560547,-0.623047 z m -3.080078,3.664063 c -0.562653,0 -1.130913,0.1564 -1.542968,0.558593 -0.412056,0.402194 -0.587891,0.981906 -0.587891,1.572266 v 9.769531 c 0,0.556826 0.18328,1.110209 0.572266,1.515625 0.388985,0.405417 0.960142,0.623047 1.558593,0.623047 h 9.589844 c 0.572143,0 1.145512,-0.124823 1.607422,-0.5 0.46191,-0.375177 0.71875,-0.994757 0.71875,-1.638672 a 0.80000001,0.80000001 0 0 0 -0.798828,-0.800781 0.80000001,0.80000001 0 0 0 -0.800781,0.800781 c 0,0.287066 -0.05341,0.337115 -0.128907,0.398438 -0.0755,0.06132 -0.265979,0.140625 -0.597656,0.140625 h -9.589844 c -0.246089,0 -0.338383,-0.06216 -0.404297,-0.13086 -0.06591,-0.0687 -0.126953,-0.184509 -0.126953,-0.408203 v -9.769531 c 0,-0.30097 0.06555,-0.386865 0.107422,-0.427734 0.04187,-0.04087 0.138053,-0.103516 0.423828,-0.103516 h 9.589844 c 0.290737,0 0.479115,0.08379 0.578125,0.167969 0.09901,0.08418 0.148438,0.159448 0.148438,0.363281 v 5.21875 a 0.80000001,0.80000001 0 0 0 0.800781,0.800781 0.80000001,0.80000001 0 0 0 0.798828,-0.800781 v -5.21875 c 0,-0.618377 -0.268494,-1.205866 -0.710938,-1.582031 -0.442443,-0.376165 -1.018322,-0.548828 -1.615234,-0.548828 z" fill="#008055"/>
</svg>
