<svg xmlns="http://www.w3.org/2000/svg" width="48" height="48">
	<path d="m 14.808594,2.7353516 c -1.586186,0 -3.027503,0.4528796 -4.09375,1.3554688 C 9.6485966,4.9934095 9.0078124,6.3578327 9.0078124,7.9052735 V 40.073242 c 0,1.681491 0.6183826,3.087955 1.7050786,3.966797 1.086695,0.878842 2.524933,1.224609 4.095703,1.224609 h 18.994141 c 1.547191,0 2.892887,-0.532069 3.810547,-1.484375 0.917659,-0.952306 1.378906,-2.275981 1.378906,-3.707031 V 12.803711 c 0,-1.577085 -0.450931,-2.9287194 -1.396485,-3.8476563 C 36.650149,8.0371178 35.309034,7.6337891 33.802735,7.6337891 h -7.523438 a 1,1 0 0 0 -1,1 1,1 0 0 0 1,1 h 7.523438 c 1.16169,0 1.916534,0.2875212 2.398437,0.7558589 0.481904,0.468339 0.791016,1.200288 0.791016,2.414063 v 27.269531 c 0,1.01284 -0.305516,1.786153 -0.81836,2.318359 -0.512843,0.532206 -1.262454,0.873047 -2.371093,0.873047 H 14.808594 c -1.271481,0 -2.234604,-0.291401 -2.837891,-0.779297 -0.603287,-0.487895 -0.962891,-1.17861 -0.962891,-2.412109 V 7.9052735 c 0,-1.0269793 0.36351,-1.7483136 1,-2.2871094 0.636491,-0.5387959 1.595677,-0.8828125 2.800782,-0.8828125 H 33.5625 a 1,1 0 0 0 1,-1.0000001 1,1 0 0 0 -1,-1 z" fill="#008055"/>
</svg>
