<svg xmlns="http://www.w3.org/2000/svg" width="48" height="48">
	<path d="m 14.80957,2.7353515 c -1.586185,0 -3.0275,0.4528804 -4.09375,1.3554688 C 9.6495707,4.9934088 9.0068359,6.3578313 9.0068359,7.9052735 V 40.073242 c 0,1.681492 0.6203347,3.087955 1.7070311,3.966797 1.086697,0.878841 2.522985,1.224609 4.09375,1.224609 h 18.996094 c 1.547191,0 2.892887,-0.532069 3.810547,-1.484375 0.917659,-0.952306 1.378906,-2.275981 1.378906,-3.707031 V 12.80371 c 0,-1.577083 -0.452882,-2.9287186 -1.398438,-3.8476556 C 36.649171,8.0371181 35.310015,7.633789 33.803711,7.633789 H 26.27832 a 1,1 0 0 0 -1,1.0000004 1,1 0 0 0 1,1 h 7.525391 c 1.161696,0 1.916533,0.2875211 2.398437,0.7558586 0.481905,0.468338 0.791016,1.200287 0.791016,2.414062 v 27.269532 c 0,1.01284 -0.307469,1.786153 -0.820313,2.318359 -0.512843,0.532206 -1.260501,0.873047 -2.36914,0.873047 H 14.807617 c -1.271475,0 -2.23265,-0.291401 -2.835937,-0.779297 -0.60329,-0.487896 -0.964844,-1.178612 -0.964844,-2.412109 V 7.9052735 c 0,-1.0269779 0.363506,-1.7483128 1,-2.2871095 0.636493,-0.5387965 1.597629,-0.8828125 2.802734,-0.8828125 h 18.751953 a 1,1 0 0 0 1,-1 1,1 0 0 0 -1,-1 z m 9.03125,16.7343745 c -0.594013,0.01691 -1.170823,0.193255 -1.660156,0.482422 a 0.90008998,0.90008998 0 0 0 -0.0078,0.0059 l -6.173828,3.730469 a 0.89999998,0.89999998 0 0 0 -0.304687,1.234375 0.89999998,0.89999998 0 0 0 1.236328,0.304688 l 6.166016,-3.72461 0.0039,-0.002 0.0039,-0.002 c 0.551805,-0.324019 0.980097,-0.381599 1.548828,-0.02539 a 0.90008998,0.90008998 0 0 0 0.01758,0.01172 l 4.242188,2.529297 -8.878906,0.0078 a 0.89999998,0.89999998 0 0 0 -0.898438,0.900391 0.89999998,0.89999998 0 0 0 0.900391,0.898438 l 10.503906,-0.0098 c 0.377838,0 0.662592,-0.01006 0.962891,-0.08594 0.150149,-0.03794 0.314018,-0.08586 0.513671,-0.246094 0.199654,-0.160237 0.40687,-0.537702 0.384766,-0.863282 -0.04421,-0.651158 -0.366841,-0.772079 -0.578125,-0.935546 -0.203955,-0.157797 -0.432983,-0.294288 -0.701172,-0.44336 l -0.01172,-0.0078 -5.501953,-3.28125 c -0.562793,-0.35249 -1.173565,-0.495427 -1.767578,-0.478516 z m -5.380859,6.865234 a 0.89999998,0.89999998 0 0 0 -0.900391,0.900391 v 5.621094 a 0.89999998,0.89999998 0 0 0 0.900391,0.900391 0.89999998,0.89999998 0 0 0 0.898437,-0.900391 V 27.235351 A 0.89999998,0.89999998 0 0 0 18.459961,26.33496 Z m 5.523437,0 a 0.89999998,0.89999998 0 0 0 -0.898437,0.900391 v 5.621094 a 0.89999998,0.89999998 0 0 0 0.898437,0.900391 0.89999998,0.89999998 0 0 0 0.900391,-0.900391 V 27.235351 A 0.89999998,0.89999998 0 0 0 23.983398,26.33496 Z m 5.525391,0 a 0.89999998,0.89999998 0 0 0 -0.900391,0.900391 v 5.621094 a 0.89999998,0.89999998 0 0 0 0.900391,0.900391 0.89999998,0.89999998 0 0 0 0.900391,-0.900391 V 27.235351 A 0.89999998,0.89999998 0 0 0 29.508789,26.33496 Z m -14.583985,7.826172 a 0.99999499,0.99999499 0 0 0 -1,1 0.99999499,0.99999499 0 0 0 1,1 h 18.119141 a 0.99999499,0.99999499 0 0 0 1,-1 0.99999499,0.99999499 0 0 0 -1,-1 z" fill="#008055"/>
</svg>
