<svg xmlns="http://www.w3.org/2000/svg" width="48" height="48">
	<path d="m 14.809571,2.7353515 c -1.586186,0 -3.027503,0.45288 -4.09375,1.355469 -1.066247,0.902589 -1.708985,2.267012 -1.708985,3.814453 V 40.073242 c 0,1.681492 0.620334,3.087956 1.707032,3.966797 1.086695,0.878842 2.524938,1.224609 4.095703,1.224609 h 18.99414 c 1.547191,0 2.892888,-0.534022 3.810547,-1.486328 0.917659,-0.952306 1.378906,-2.274028 1.378906,-3.705078 V 12.803711 c 0,-1.577085 -0.452883,-2.9287195 -1.398437,-3.8476565 -0.945554,-0.918937 -2.284716,-1.322265 -3.791016,-1.322265 h -7.523437 a 1,1 0 0 0 -1,1 1,1 0 0 0 1,1 h 7.523437 c 1.161691,0 1.916534,0.287521 2.398438,0.7558585 0.481903,0.468338 0.791015,1.200289 0.791015,2.414063 v 27.269531 c 0,1.01284 -0.305516,1.786153 -0.818359,2.31836 -0.512843,0.532206 -1.262455,0.873046 -2.371094,0.873046 h -18.99414 c -1.271475,0 -2.234602,-0.291401 -2.837891,-0.779296 -0.603289,-0.487896 -0.964844,-1.178612 -0.964844,-2.41211 V 7.9052735 c 0,-1.026979 0.36351,-1.748313 1,-2.287109 0.636491,-0.538796 1.59763,-0.882813 2.802735,-0.882813 h 18.751953 a 1,1 0 0 0 1,-1 1,1 0 0 0 -1,-1 z m 2.791015,17.0976565 c -0.665992,0 -1.322701,0.218883 -1.802734,0.679687 -0.480033,0.460805 -0.738281,1.137381 -0.738281,1.853516 v 6.529297 a 0.89999998,0.89999998 0 0 0 0.90039,0.90039 0.89999998,0.89999998 0 0 0 0.900391,-0.90039 v -6.529297 c 0,-0.319926 0.08229,-0.459395 0.183594,-0.556641 0.101304,-0.09725 0.265602,-0.177734 0.55664,-0.177734 H 30.50293 c 0.383588,0 0.513587,0.08609 0.582031,0.15625 0.06844,0.07016 0.150391,0.213394 0.150391,0.578125 v 11.763672 c 0,0.372304 -0.106555,0.622791 -0.22461,0.761719 -0.118053,0.138927 -0.237053,0.210937 -0.507812,0.210937 H 17.600586 c -0.369938,0 -0.457695,-0.07524 -0.548828,-0.1875 -0.09113,-0.112256 -0.191406,-0.365941 -0.191406,-0.785156 V 32.09082 c 0.02336,-0.0045 -0.0046,-0.002 0.134766,-0.002 h 2.24414 c 0.581187,-2.9e-5 1.162523,-0.212955 1.523438,-0.613281 0.360914,-0.400326 0.478353,-0.863649 0.539062,-1.273438 a 0.90008998,0.90008998 0 0 0 0.002,-0.01953 c 0.112974,-0.894386 0.886812,-2.887032 3.041016,-4.175781 -0.327347,1.884517 -0.109816,3.597887 0.324219,4.521484 a 0.90008998,0.90008998 0 0 0 0.0293,0.05859 c 0.202532,0.360638 0.466501,0.741647 0.875,1.039062 0.408501,0.297416 0.955458,0.47085 1.541016,0.462891 h 2.707031 a 0.89999998,0.89999998 0 0 0 0.898438,-0.900391 0.89999998,0.89999998 0 0 0 -0.898438,-0.90039 h -2.71875 a 0.90008998,0.90008998 0 0 0 -0.01172,0.002 c -0.260522,0.0035 -0.353999,-0.0427 -0.458985,-0.11914 -0.09831,-0.07158 -0.214466,-0.220861 -0.339844,-0.435547 -0.270009,-0.590449 -0.705094,-2.504821 -0.09961,-4.310547 0.0732,-0.215346 0.134124,-0.392947 0.150391,-0.652344 0.0082,-0.130522 0.0095,-0.294108 -0.07422,-0.505859 -0.08368,-0.211752 -0.302591,-0.454988 -0.533203,-0.556641 -0.461225,-0.203305 -0.708078,-0.06994 -0.904297,-0.0059 -0.190955,0.06236 -0.360962,0.142472 -0.556641,0.236328 -3.394738,1.519227 -4.554728,4.423319 -4.755859,6.015625 l 0.002,-0.01758 c -0.03529,0.238211 -0.09612,0.334662 -0.09375,0.332031 0.0024,-0.0026 0.04694,0.01757 -0.1875,0.01758 h -2.24414 c -0.41172,0 -0.86728,0.04355 -1.294922,0.361328 -0.427643,0.317774 -0.640625,0.893893 -0.640625,1.40625 v 2.074219 c 0,0.689594 0.149667,1.372905 0.59375,1.919921 0.444082,0.547017 1.175684,0.853516 1.947265,0.853516 h 12.90225 c 0.737391,0 1.43446,-0.320375 1.880859,-0.845703 0.446399,-0.525328 0.652344,-1.21114 0.652344,-1.927734 V 22.366211 c 0,-0.67607 -0.187291,-1.34923 -0.662109,-1.835938 -0.474819,-0.486706 -1.161772,-0.697265 -1.871094,-0.697265 z" fill="#008055"/>
</svg>
