<svg xmlns="http://www.w3.org/2000/svg" width="48" height="48">
	<path d="m 14.808594,2.7353514 c -1.58619,0 -3.027509,0.4528776 -4.09375,1.3554687 C 9.6486025,4.9934112 9.0078125,6.3578363 9.0078125,7.9052732 V 40.073242 c 0,1.681498 0.618377,3.087959 1.7050785,3.966797 1.086701,0.878838 2.524957,1.22461 4.095703,1.22461 h 18.99414 c 1.547221,0 2.892899,-0.532062 3.810547,-1.484375 0.917648,-0.952314 1.378907,-2.275994 1.378907,-3.707032 V 12.803711 c 0,-1.577082 -0.450933,-2.9287184 -1.396485,-3.8476565 C 36.650152,8.037116 35.309038,7.6337888 33.802734,7.6337888 h -7.523437 a 1,1 0 0 0 -1,1 1,1 0 0 0 1,0.9999998 h 7.523437 c 1.161696,0 1.916539,0.287523 2.398438,0.7558604 0.481899,0.468336 0.791016,1.200285 0.791016,2.414062 v 27.269531 c 0,1.012852 -0.305532,1.786161 -0.81836,2.31836 -0.512827,0.532199 -1.262414,0.873047 -2.371094,0.873047 h -18.99414 c -1.271454,0 -2.234593,-0.291398 -2.837891,-0.779297 -0.603297,-0.4879 -0.962891,-1.178618 -0.962891,-2.41211 V 7.9052732 c 0,-1.0269831 0.363517,-1.7483155 1,-2.2871094 0.636484,-0.5387938 1.595671,-0.8828124 2.800782,-0.8828124 h 18.751953 a 1,1 0 0 0 1,-1 1,1 0 0 0 -1,-1 z m 4.613281,17.6953126 a 1,1 0 0 0 -1,1 v 10.121094 c 0,1.263238 0.417264,2.367184 1.1875,3.115234 0.770235,0.748051 1.833382,1.09961 2.943359,1.09961 h 3.136719 a 1,1 0 0 0 1,-1 1,1 0 0 0 -1,-1 h -3.136719 c -0.704022,0 -1.207112,-0.201331 -1.548828,-0.533203 -0.341715,-0.331873 -0.582031,-0.834389 -0.582031,-1.681641 V 21.430664 a 1,1 0 0 0 -1,-1 z m 3.121094,0 a 1,1 0 0 0 -1,1 1,1 0 0 0 1,1 h 3.138672 c 0.704033,0 1.207118,0.203297 1.548828,0.535156 0.341709,0.33186 0.582031,0.832442 0.582031,1.679688 v 10.121094 a 1,1 0 0 0 1,1 1,1 0 0 0 1,-1 V 24.645508 c 0,-1.263234 -0.419213,-2.367198 -1.189453,-3.115234 -0.770241,-0.748036 -1.831438,-1.09961 -2.941406,-1.09961 z" fill="#008055"/>
</svg>
