<svg xmlns="http://www.w3.org/2000/svg" width="48" height="48">
	<path d="m 14.80957,2.7353515 c -1.586185,0 -3.027503,0.452878 -4.09375,1.355469 -1.0662466,0.902588 -1.7070309,2.267012 -1.7070309,3.814453 l -0.00195,32.1679685 c 0,1.681489 0.6203381,3.087955 1.7070309,3.966797 1.086694,0.878843 2.524934,1.224609 4.095703,1.224609 h 18.994141 c 1.547195,0 2.892889,-0.532068 3.810547,-1.484375 0.917658,-0.952308 1.378906,-2.275982 1.378906,-3.707031 V 12.803711 c 0,-1.577084 -0.452886,-2.9287185 -1.398437,-3.8476565 -0.945552,-0.918938 -2.284716,-1.322266 -3.791016,-1.322266 h -7.523437 a 1,1 0 0 0 -1,1 1,1 0 0 0 1,1 h 7.523437 c 1.161691,0 1.916537,0.287522 2.398438,0.7558595 0.481901,0.468337 0.791015,1.200286 0.791015,2.414063 v 27.269531 c 0,1.012842 -0.305518,1.786154 -0.818359,2.31836 -0.512842,0.532204 -1.262449,0.873046 -2.371094,0.873046 H 14.80957 c -1.27148,0 -2.234606,-0.291401 -2.83789,-0.779296 -0.603284,-0.487896 -0.964844,-1.17861 -0.964844,-2.41211 l 0.002,-32.1679685 c 0,-1.02698 0.361557,-1.748314 0.998047,-2.28711 0.636491,-0.538796 1.59763,-0.882812 2.802734,-0.882812 h 18.751954 a 1,1 0 0 0 1,-1 1,1 0 0 0 -1,-1 z m 6.201172,16.2148425 a 0.89999998,0.89999998 0 0 0 -0.90039,0.898438 v 2.708984 a 0.89999998,0.89999998 0 0 0 0.90039,0.900391 0.89999998,0.89999998 0 0 0 0.900391,-0.900391 v -2.708983 a 0.89999998,0.89999998 0 0 0 -0.900391,-0.898439 z m 3.03125,0 a 0.89999998,0.89999998 0 0 0 -0.90039,0.898438 v 2.708984 a 0.89999998,0.89999998 0 0 0 0.90039,0.900391 0.89999998,0.89999998 0 0 0 0.900391,-0.900391 v -2.708983 a 0.89999998,0.89999998 0 0 0 -0.900391,-0.898439 z m 3.03125,0 a 0.89999998,0.89999998 0 0 0 -0.90039,0.898438 v 2.708984 a 0.89999998,0.89999998 0 0 0 0.90039,0.900391 0.89999998,0.89999998 0 0 0 0.900391,-0.900391 v -2.708983 a 0.89999998,0.89999998 0 0 0 -0.900391,-0.898439 z m -9.068359,1.339844 c -0.631107,0 -1.292117,0.181755 -1.830078,0.634766 -0.537961,0.45301 -0.892578,1.19568 -0.892578,2.035156 v 11.384767 a 0.90008998,0.90008998 0 0 0 0,0.02734 c 0.02375,0.803628 0.394492,1.525989 0.951172,1.978515 0.556679,0.452526 1.259356,0.65625 1.972656,0.65625 l 11.933594,-0.01758 c 0.717738,0 1.424251,-0.197399 1.933593,-0.693359 0.509342,-0.495962 0.732422,-1.214219 0.732422,-1.966797 V 22.959961 c 0,-0.703967 -0.231348,-1.393753 -0.714843,-1.896484 -0.483496,-0.502733 -1.193633,-0.773438 -1.951172,-0.773438 h -0.714844 a 0.89999998,0.89999998 0 0 0 -0.900391,0.900391 0.89999998,0.89999998 0 0 0 0.900391,0.898437 h 0.714844 c 0.362071,0 0.53474,0.09834 0.654296,0.222657 0.119558,0.124313 0.210938,0.320124 0.210938,0.648437 v 11.369141 c 0,0.426231 -0.09507,0.587737 -0.1875,0.677734 -0.09242,0.09 -0.270743,0.183594 -0.677734,0.183594 a 0.90008998,0.90008998 0 0 0 -0.002,0 l -11.93164,0.01563 c -0.36638,0 -0.660902,-0.108079 -0.837891,-0.251953 C 17.19113,34.810233 17.090865,34.65082 17.081009,34.317388 V 22.959961 c 0,-0.391785 0.104356,-0.533914 0.251953,-0.658203 0.147597,-0.12429 0.398172,-0.212891 0.671875,-0.212891 h 0.753906 a 0.89999998,0.89999998 0 0 0 0.900391,-0.898437 0.89999998,0.89999998 0 0 0 -0.900391,-0.900391 z m 1.478516,5.507814 a 0.69999999,0.69999999 0 0 0 -0.701172,0.699218 0.69999999,0.69999999 0 0 0 0.701172,0.701172 h 9.134765 a 0.69999999,0.69999999 0 0 0 0.699219,-0.701172 0.69999999,0.69999999 0 0 0 -0.699219,-0.699218 z m 0,2.876953 a 0.69999999,0.69999999 0 0 0 -0.701172,0.699218 0.69999999,0.69999999 0 0 0 0.701172,0.701172 h 9.134765 a 0.69999999,0.69999999 0 0 0 0.699219,-0.701172 0.69999999,0.69999999 0 0 0 -0.699219,-0.699218 z m 0,2.876953 a 0.69999999,0.69999999 0 0 0 -0.701172,0.699219 0.69999999,0.69999999 0 0 0 0.701172,0.699218 h 9.134765 a 0.69999999,0.69999999 0 0 0 0.699219,-0.699218 0.69999999,0.69999999 0 0 0 -0.699219,-0.699219 z" fill="#008055"/>
</svg>
