<svg xmlns="http://www.w3.org/2000/svg" width="48" height="48">
	<path d="m 14.808594,2.7353517 c -1.586186,0 -3.027503,0.4528797 -4.09375,1.3554688 C 9.6485969,4.9934097 9.0078127,6.3578332 9.0078127,7.9052732 V 40.073242 c 0,1.681492 0.6183818,3.087956 1.7050783,3.966797 1.086696,0.878841 2.524938,1.224609 4.095703,1.224609 h 18.99414 c 1.547196,0 2.892886,-0.534021 3.810547,-1.486328 0.917661,-0.952306 1.378906,-2.274028 1.378906,-3.705078 V 12.803711 c 0,-1.577085 -0.450928,-2.9287188 -1.396484,-3.8476558 -0.945556,-0.918937 -2.286665,-1.322266 -3.792969,-1.322266 h -7.523437 a 1,1 0 0 0 -1,1 1,1 0 0 0 1,1 h 7.523437 c 1.161696,0 1.916533,0.287521 2.398438,0.7558588 0.481904,0.468338 0.791015,1.200288 0.791015,2.414063 v 27.269531 c 0,1.01284 -0.305515,1.786153 -0.818359,2.318359 -0.512844,0.532207 -1.262449,0.873047 -2.371094,0.873047 h -18.99414 c -1.271475,0 -2.234602,-0.2914 -2.837891,-0.779297 -0.603288,-0.487895 -0.96289,-1.178611 -0.96289,-2.412109 V 7.9052732 c 0,-1.0269784 0.36351,-1.7483132 0.999999,-2.287109 0.636491,-0.5387958 1.595677,-0.8828125 2.800782,-0.8828125 h 18.751953 a 1,1 0 0 0 1,-1 1,1 0 0 0 -1,-1 z m 9.08789,16.3828123 c -3.846149,0.08983 -6.443359,2.967212 -6.443359,6.402344 a 0.90008998,0.90008998 0 0 0 0,0.01172 c 0.03971,2.790192 1.378738,4.570438 2.642578,6.259765 1.26384,1.689327 2.49861,3.348891 2.931641,6.357422 a 0.89999998,0.89999998 0 0 0 1.019531,0.761719 0.89999998,0.89999998 0 0 0 0.761719,-1.017578 c -0.4907,-3.409189 -2.001517,-5.48217 -3.271485,-7.179688 -1.268616,-1.695711 -2.249227,-2.957772 -2.283203,-5.201172 0.0037,-2.58003 1.666199,-4.523487 4.681641,-4.595703 2.789043,-0.0426 4.755859,1.940247 4.755859,4.603516 0,2.150929 -0.941956,3.405277 -2.208984,5.117187 -0.632522,0.854649 -1.471623,1.974426 -2.105469,3.154297 a 0.89999998,0.89999998 0 0 0 0.367188,1.21875 0.89999998,0.89999998 0 0 0 1.21875,-0.367187 c 0.542754,-1.01031 1.331918,-2.077716 1.966796,-2.935547 1.267872,-1.71305 2.560547,-3.48441 2.560547,-6.1875 0,-3.594936 -2.884533,-6.46152 -6.585937,-6.402344 a 0.90008998,0.90008998 0 0 0 -0.0078,0 z m 0.181641,3.074219 c -1.180421,-0.05857 -2.338778,0.614274 -2.882813,1.794922 -0.645788,1.40147 -0.09804,2.975544 1.060547,3.876953 a 0.82102306,0.77951884 85.006789 0 0 0.332032,0.40039 c 0.0018,9.51e-4 0.0021,0.003 0.0039,0.0039 a 0.82102306,0.77951884 85.006789 0 0 0.03711,0.01758 0.82102306,0.77951884 85.006789 0 0 0.01172,0.0059 0.82102306,0.77951884 85.006789 0 0 0.01172,0.0059 c 0.0022,0.0011 0.0036,8.62e-4 0.0059,0.002 a 0.82102306,0.77951884 85.006789 0 0 0.496094,0.02148 c 1.392354,0.391353 2.89861,-0.140175 3.53125,-1.550781 0.70961,-1.582229 0.06494,-3.506674 -1.441406,-4.267578 -0.376587,-0.190227 -0.772542,-0.291024 -1.166016,-0.310547 z m -0.07031,1.632812 c 0.191936,0.01036 0.385236,0.06081 0.570313,0.154297 0.740309,0.373954 1.050466,1.286234 0.695312,2.078125 -0.355153,0.791892 -1.228591,1.121589 -1.972656,0.75586 a 0.82102306,0.77951884 85.006789 0 0 -0.01758,-0.0078 0.82102306,0.77951884 85.006789 0 0 -0.01172,-0.0078 c -0.736473,-0.382137 -1.034959,-1.297984 -0.671875,-2.085937 0.272313,-0.590964 0.832395,-0.917782 1.408203,-0.886719 z" fill="#008055"/>
</svg>
