<svg xmlns="http://www.w3.org/2000/svg" width="48" height="48">
	<path d="m 14.374024,6.6269533 c -1.757661,0 -3.405897,0.5103277 -4.6386724,1.5917964 C 8.5025759,9.3002207 7.7939454,10.945001 7.7939454,12.697266 V 35.28125 c 0,1.857119 0.674909,3.572903 1.953125,4.644532 1.2782156,1.071629 2.9215086,1.447265 4.6269536,1.447265 h 19.623047 c 1.744539,0 3.362489,-0.60707 4.492187,-1.732421 1.129699,-1.125352 1.716797,-2.709165 1.716797,-4.359376 V 15.273438 c 0,-1.76769 -0.574645,-3.417816 -1.757812,-4.521484 C 37.265076,9.6482857 35.658444,9.2031257 33.997071,9.2031257 h -8.185547 a 1.9,1.9 0 0 0 -1.898437,1.9003903 1.9,1.9 0 0 0 1.898437,1.900391 h 8.185547 c 1.006616,0 1.555339,0.243736 1.859375,0.527343 0.304036,0.283608 0.548828,0.719018 0.548828,1.742188 V 35.28125 c 0,0.793681 -0.237108,1.306855 -0.597656,1.666016 -0.360549,0.359161 -0.899256,0.625 -1.810547,0.625 H 14.374024 c -1.136795,0 -1.833548,-0.263485 -2.185547,-0.558594 -0.351999,-0.295108 -0.595703,-0.674548 -0.595703,-1.732422 V 12.697266 c 0,-0.822155 0.238195,-1.261203 0.648437,-1.621094 0.410242,-0.35989 1.099183,-0.648437 2.132813,-0.648437 H 22.09668 A 1.9,1.9 0 0 0 23.997071,8.5273437 1.9,1.9 0 0 0 22.09668,6.6269533 Z M 21.778321,16.3125 c -0.10201,-0.0078 -0.204632,-0.0047 -0.306641,0.01172 -0.816071,0.131066 -1.427269,1.004457 -1.271484,1.916016 a 0.80008001,0.80008001 0 0 0 0.002,0.01172 c 0.247221,1.334129 0.865523,2.682737 1.679688,3.99414 -0.290375,2.533327 -1.178789,5.059166 -2.25586,7.169922 -1.172606,0.625429 -2.244401,1.33253 -3.11914,2.121094 a 0.80008001,0.80008001 0 0 0 -0.0078,0.0059 c -0.702765,0.647686 -0.679056,1.740102 -0.123047,2.322266 0.278005,0.291082 0.684454,0.486255 1.132813,0.478515 0.448358,-0.0077 0.896456,-0.2308 1.232421,-0.58789 a 0.80008001,0.80008001 0 0 0 0.02734,-0.0293 c 0.724805,-0.850547 1.444511,-1.901816 2.09961,-3.091797 2.21447,-1.073889 4.863948,-1.876555 7.451172,-2.15625 0,0 0.002,0 0.002,0 1.17922,0.690503 2.405918,1.279134 3.667968,1.59375 a 0.80008001,0.80008001 0 0 0 0.01367,0.0039 c 0.47599,0.109923 0.97643,0.0037 1.330078,-0.253906 0.353649,-0.257649 0.569832,-0.63173 0.640625,-1.033203 0.07079,-0.401473 -0.01006,-0.855563 -0.287109,-1.224609 -0.276189,-0.367906 -0.733323,-0.606309 -1.238281,-0.669922 -1.206767,-0.154975 -2.487031,-0.128057 -3.771485,-0.0332 -1.125667,-0.71072 -2.206527,-1.567275 -3.154297,-2.529297 -0.801775,-0.813833 -1.4324,-1.711758 -2.017578,-2.603516 0.08449,-1.303095 0.09118,-2.614068 -0.162109,-3.882812 -0.1702,-0.856536 -0.850383,-1.478683 -1.564453,-1.533204 z m 1.404297,7.601563 c 0.411851,0.5122 0.729979,1.062737 1.201172,1.541016 0.64231,0.65197 1.412019,1.162151 2.142578,1.722656 -1.646799,0.283384 -3.221363,0.73087 -4.734375,1.333984 0.621952,-1.451112 1.086984,-2.977404 1.390625,-4.597656 z m 9.160156,4.59375 c 0.0076,0.0052 0.05288,0.01502 0.05078,0.01367 -0.0015,0.0028 -0.0055,0.01036 -0.002,0.0078 0.0081,-0.0059 0.04472,0.0054 -0.0293,-0.01172 l 0.01367,0.0039 c -0.01098,-0.0027 -0.02222,-0.01089 -0.0332,-0.01367 z" fill="#008055"/>
</svg>
