<svg xmlns="http://www.w3.org/2000/svg" width="48" height="48">
	<path d="m 14.808594,1.7353515 c -1.776726,0 -3.457155,0.5092642 -4.738282,1.59375 -1.2811245,1.084486 -2.0624995,2.7685 -2.0624995,4.576172 V 40.073242 c 0,1.90549 0.749725,3.669826 2.0781245,4.744141 1.3284,1.074314 3.002248,1.447265 4.722657,1.447265 h 18.996094 c 1.766467,0 3.40923,-0.628658 4.529296,-1.791015 1.120068,-1.162357 1.658204,-2.760236 1.658204,-4.400391 V 14.805664 c 0,-1.758739 -0.521839,-3.422169 -1.699219,-4.566406 C 37.11559,9.0950215 35.483291,8.6357425 33.804688,8.6357425 h -5.59375 a 2,2 0 0 0 -2,1.9999995 2,2 0 0 0 2,2 h 5.59375 c 0.989385,0 1.451093,0.229618 1.701171,0.472656 0.250079,0.243039 0.486329,0.665145 0.486329,1.697266 v 25.267578 c 0,0.803734 -0.226675,1.302844 -0.53711,1.625 -0.310434,0.322156 -0.761028,0.566406 -1.65039,0.566406 H 14.808594 c -1.121831,0 -1.8474,-0.264217 -2.208985,-0.55664 -0.361585,-0.292423 -0.591797,-0.625265 -0.591797,-1.634766 V 7.9052735 c 0,-0.766749 0.224872,-1.166538 0.646485,-1.523438 0.421612,-0.356899 1.139733,-0.646484 2.154297,-0.646484 H 33.5625 a 2,2 0 0 0 2,-2 2,2 0 0 0 -2,-2 z m 7.96875,17.2695315 a 0.70006498,0.70006498 0 0 0 -0.6875,0.564453 l -0.121094,0.613282 a 0.69999498,0.69999498 0 0 0 0.550781,0.822265 0.69999498,0.69999498 0 0 0 0.822266,-0.550781 l 0.0098,-0.04883 h 1.396484 l 0.01172,0.06055 a 0.69999498,0.69999498 0 0 0 0.832031,0.537109 0.69999498,0.69999498 0 0 0 0.537109,-0.832031 L 25.996094,19.557617 A 0.70006498,0.70006498 0 0 0 25.3125,19.004883 Z m -4.382813,2.332031 c -0.723857,0 -1.434903,0.159471 -2.001953,0.621094 -0.567049,0.461624 -0.884766,1.217787 -0.884766,2.02539 v 6.289063 c 0,0.769039 0.331463,1.492212 0.876954,1.957031 0.54549,0.464819 1.259405,0.681641 2.009765,0.681641 a 0.89999998,0.89999998 0 0 0 0.900391,-0.900391 0.89999998,0.89999998 0 0 0 -0.900391,-0.90039 c -0.405109,0 -0.682425,-0.11615 -0.841797,-0.251954 -0.159371,-0.135803 -0.24414,-0.282246 -0.24414,-0.585937 v -6.289063 c 0,-0.407057 0.08817,-0.522967 0.220703,-0.630859 0.132532,-0.107892 0.412521,-0.214844 0.865234,-0.214844 h 11.5625 c 0.351045,0 0.514319,0.09319 0.628907,0.212891 0.114589,0.119703 0.205078,0.310596 0.205078,0.632812 v 6.289063 c 0,0.419057 -0.0942,0.576566 -0.181641,0.662109 -0.08744,0.08554 -0.256222,0.175782 -0.652344,0.175782 h -9.253906 a 0.89999998,0.89999998 0 0 0 -0.900391,0.90039 0.89999998,0.89999998 0 0 0 0.900391,0.900391 h 9.253906 c 0.708318,0 1.406695,-0.196928 1.910157,-0.689453 0.503461,-0.492526 0.724609,-1.205335 0.724609,-1.949219 v -6.289063 c 0,-0.696132 -0.227502,-1.378063 -0.705078,-1.876953 -0.477576,-0.498889 -1.181331,-0.769532 -1.929688,-0.769532 z m 10.683594,11.714844 a 0.89999998,0.89999998 0 0 0 -0.214844,0.02148 0.89999998,0.89999998 0 0 0 -0.68164,1.076171 l 0.68164,3.029297 a 0.89999998,0.89999998 0 0 0 1.074219,0.679688 0.89999998,0.89999998 0 0 0 0.681641,-1.074219 L 29.9375,33.754883 A 0.89999998,0.89999998 0 0 0 29.078125,33.051758 Z M 19,33.133789 a 0.89999998,0.89999998 0 0 0 -0.90625,0.716797 l -0.615234,2.947266 a 0.89999998,0.89999998 0 0 0 0.697265,1.064453 0.89999998,0.89999998 0 0 0 1.064453,-0.697266 l 0.615235,-2.947266 A 0.89999998,0.89999998 0 0 0 19.158203,33.15332 0.89999998,0.89999998 0 0 0 19,33.133789 Z m 5.050781,0.07227 a 0.89999998,0.89999998 0 0 0 -0.90039,0.900391 v 0.882812 a 0.89999998,0.89999998 0 0 0 0.90039,0.898438 0.89999998,0.89999998 0 0 0 0.898438,-0.898438 V 34.106451 A 0.89999998,0.89999998 0 0 0 24.050781,33.20606 Z" fill="#008055"/>
</svg>
