<svg xmlns="http://www.w3.org/2000/svg" width="48" height="48">
	<path d="m 14.80957,2.7343748 c -1.586189,0 -3.027501,0.4548328 -4.09375,1.3574219 -1.0662483,0.9025891 -1.7089842,2.2650592 -1.7089842,3.8125 V 40.074218 c 0,1.681493 0.6203334,3.086003 1.7070312,3.964844 1.086698,0.878841 2.524934,1.226563 4.095703,1.226563 h 18.994141 c 1.547191,0 2.892887,-0.534022 3.810547,-1.486328 0.917659,-0.952307 1.378906,-2.274028 1.378906,-3.705079 V 12.804687 c 0,-1.577085 -0.452884,-2.9306722 -1.398438,-3.8496091 C 36.649172,8.0361411 35.31001,7.6347654 33.803711,7.6347654 h -7.523438 a 1,1 0 0 0 -1,1 1,1 0 0 0 1,1 h 7.523438 c 1.16169,0 1.916534,0.2875213 2.398437,0.7558596 0.481904,0.468338 0.791016,1.200287 0.791016,2.414062 v 27.269531 c 0,1.01284 -0.30747,1.786154 -0.820313,2.31836 -0.512843,0.532206 -1.260501,0.873047 -2.36914,0.873047 H 14.80957 c -1.27148,0 -2.234601,-0.293354 -2.83789,-0.78125 -0.60329,-0.487897 -0.964844,-1.176659 -0.964844,-2.410157 V 7.9042967 c 0,-1.0269792 0.363508,-1.7483135 1,-2.2871094 0.636491,-0.5387958 1.597624,-0.8828125 2.802734,-0.8828125 h 18.751953 a 1,1 0 0 0 1,-1 1,1 0 0 0 -1,-1 z m 3.0625,16.6914062 c -0.696303,0 -1.379145,0.227616 -1.876953,0.707031 -0.497808,0.479415 -0.765625,1.184156 -0.765625,1.933594 v 2.775391 c 0,0.725459 0.156959,1.439072 0.617188,2.007812 0.460228,0.56874 1.217722,0.888672 2.02539,0.888672 h 2.927735 a 0.89999998,0.89999998 0 0 0 0.90039,-0.900391 0.89999998,0.89999998 0 0 0 -0.90039,-0.90039 H 17.87207 c -0.404702,0 -0.518739,-0.08698 -0.626953,-0.220703 -0.108214,-0.133728 -0.216797,-0.419071 -0.216797,-0.875 v -2.775391 c 0,-0.354512 0.09523,-0.521521 0.214844,-0.636719 0.119617,-0.115198 0.308769,-0.205078 0.628906,-0.205078 h 3.390625 c 0.416956,0 0.572536,0.09354 0.658203,0.181641 0.08567,0.0881 0.175782,0.260841 0.175782,0.660156 v 4.769531 a 0.89999998,0.89999998 0 0 0 0.90039,0.900391 0.89999998,0.89999998 0 0 0 0.900391,-0.900391 v -4.769531 c 0,-0.709665 -0.196178,-1.408805 -0.6875,-1.914063 -0.491322,-0.505257 -1.203502,-0.726562 -1.947266,-0.726562 z m -0.08203,9.076172 c -0.709811,0 -1.41047,0.196481 -1.916016,0.6875 -0.505545,0.491019 -0.726562,1.203657 -0.726562,1.947265 v 3.388672 c 0,0.69622 0.229274,1.379428 0.708984,1.876953 0.47971,0.497525 1.184061,0.763672 1.933594,0.763672 h 2.777344 c 0.725652,0 1.438812,-0.155347 2.007812,-0.615234 0.569,-0.459888 0.888672,-1.217842 0.888672,-2.025391 v -2.925781 a 0.89999998,0.89999998 0 0 0 -0.900391,-0.900391 0.89999998,0.89999998 0 0 0 -0.90039,0.900391 v 2.925781 c 0,0.404101 -0.08681,0.516785 -0.220703,0.625 -0.13389,0.108215 -0.418553,0.216797 -0.875,0.216797 H 17.79004 c -0.355077,0 -0.523419,-0.09531 -0.638672,-0.214844 C 17.036116,35.032811 16.94629,34.845 16.94629,34.52539 v -3.388672 c 0,-0.416412 0.09543,-0.570624 0.183594,-0.65625 0.08816,-0.08563 0.260327,-0.177734 0.660156,-0.177734 h 4.771484 a 0.89999998,0.89999998 0 0 0 0.900391,-0.900391 0.89999998,0.89999998 0 0 0 -0.900391,-0.90039 z m 9.630859,0.296875 a 0.89999998,0.89999998 0 0 0 -0.90039,0.90039 0.89999998,0.89999998 0 0 0 0.90039,0.900391 h 2.927734 c 0.404712,0 0.518743,0.08698 0.626954,0.220703 0.10821,0.133723 0.216796,0.419068 0.216796,0.875 v 2.775391 c 0,0.354512 -0.09523,0.521521 -0.214843,0.636718 -0.119618,0.115198 -0.308768,0.205079 -0.628907,0.205079 h -3.390624 c -0.416958,0 -0.572538,-0.0955 -0.658204,-0.183594 -0.08567,-0.0881 -0.175781,-0.258886 -0.175781,-0.658203 v -4.771485 a 0.89999998,0.89999998 0 0 0 -0.900391,-0.898437 0.89999998,0.89999998 0 0 0 -0.90039,0.898437 v 4.771485 c 0,0.709662 0.19618,1.408803 0.6875,1.914062 0.49132,0.505259 1.203501,0.726563 1.947266,0.726563 h 3.390624 c 0.696304,0 1.379146,-0.22957 1.876954,-0.708985 0.497807,-0.479414 0.765625,-1.182203 0.765625,-1.93164 v -2.775391 c 0,-0.725457 -0.156958,-1.439073 -0.617188,-2.007812 -0.46023,-0.56874 -1.217722,-0.888672 -2.025391,-0.888672 z" fill="#008055"/>
</svg>
