<svg xmlns="http://www.w3.org/2000/svg" width="48" height="48">
	<path d="m 14.808594,2.7343752 c -1.586185,0 -3.027503,0.4548327 -4.09375,1.3574219 C 9.6485966,4.9943863 9.0078124,6.3588094 9.0078124,7.9062502 V 40.074219 c 0,1.681493 0.6183818,3.087956 1.7050786,3.966797 1.086696,0.878841 2.524938,1.224609 4.095703,1.224609 h 18.994141 c 1.547191,0 2.892887,-0.534021 3.810547,-1.486328 0.917659,-0.952306 1.378906,-2.274028 1.378906,-3.705078 V 12.804688 c 0,-1.577085 -0.450931,-2.9287198 -1.396485,-3.8476565 C 36.650149,8.0380946 35.309034,7.6347658 33.802735,7.6347658 h -7.523438 a 1,1 0 0 0 -1,1 1,1 0 0 0 1,1 h 7.523438 c 1.16169,0 1.916534,0.2875213 2.398437,0.7558592 0.481904,0.468338 0.791016,1.200288 0.791016,2.414063 v 27.269531 c 0,1.01284 -0.305516,1.786154 -0.81836,2.31836 -0.512843,0.532206 -1.262454,0.873046 -2.371093,0.873046 H 14.808594 c -1.271475,0 -2.234602,-0.2914 -2.837891,-0.779296 -0.603289,-0.487897 -0.962891,-1.178612 -0.962891,-2.41211 V 7.9062502 c 0,-1.0269792 0.36351,-1.7483135 1,-2.2871094 0.636491,-0.5387957 1.595677,-0.8847656 2.800782,-0.8847656 l 18.751953,0.00195 a 1,1 0 0 0 1,-1 1,1 0 0 0 -1,-1 z m 4.552734,18.7871098 c -1.106513,-0.03374 -2.265546,0.178926 -3.335937,0.728516 a 0.90008998,0.90008998 0 0 0 -0.002,0 c -0.401237,0.207327 -0.76196,0.540077 -0.96875,0.949218 -0.206791,0.409142 -0.263672,0.844274 -0.263672,1.285156 v 8.951172 c 0,0.63206 0.277028,1.257018 0.800781,1.623047 0.520528,0.363776 1.238926,0.409463 1.861328,0.158203 l 0.01172,-0.0039 c 1.729771,-0.678402 4.030964,-0.463792 5.972656,0.634766 a 0.90008998,0.90008998 0 0 0 1.34375,-0.783203 V 24.484375 c 0,-0.242929 0.03837,-0.353259 0.07617,-0.414062 0.03714,-0.05974 0.09895,-0.129901 0.328125,-0.222656 1.920064,-0.729429 3.892049,-0.64924 5.599609,0.01563 0,0 0.002,0 0.002,0 0.180738,0.0724 0.226045,0.127066 0.267578,0.197265 0.04207,0.07111 0.08398,0.199523 0.08398,0.423828 v 8.951172 c 0,0.08955 -0.02834,0.114943 -0.02344,0.111328 0.0049,-0.0036 -0.0443,0.07146 -0.40625,-0.04297 a 0.90008998,0.90008998 0 0 0 -0.0078,-0.0039 c -1.747236,-0.535403 -3.681201,-0.369694 -5.15039,0.386718 a 0.89999998,0.89999998 0 0 0 -0.388672,1.210938 0.89999998,0.89999998 0 0 0 1.21289,0.388672 c 0.948951,-0.488568 2.543144,-0.648449 3.798828,-0.263672 l -0.0078,-0.0039 c 0.734252,0.232131 1.48666,0.168667 2.017578,-0.222657 0.530918,-0.391324 0.753906,-1.003432 0.753906,-1.560547 V 24.48439 c 0,-0.446334 -0.08299,-0.915609 -0.333984,-1.339843 -0.250995,-0.424235 -0.669013,-0.763641 -1.158203,-0.957031 a 0.90008998,0.90008998 0 0 0 -0.0039,-0.002 c -2.104866,-0.820147 -4.55508,-0.912827 -6.904296,-0.01758 a 0.90008998,0.90008998 0 0 0 -0.01172,0.0039 c -0.49572,0.197159 -0.930005,0.517352 -1.197266,0.947266 -0.267261,0.429914 -0.347656,0.913034 -0.347656,1.365234 v 9.363282 c -2.060066,-0.800406 -4.265769,-1.063819 -6.1875,-0.304688 a 0.90008998,0.90008998 0 0 0 -0.01172,0.0039 c -0.174342,0.07155 -0.165818,0.03179 -0.158203,0.03711 0.0076,0.0053 -0.03125,-0.0072 -0.03125,-0.148438 V 24.48433 c 0,-0.277226 0.03958,-0.417663 0.06836,-0.474609 0.02846,-0.05631 0.04285,-0.08301 0.1875,-0.158203 1.497959,-0.769122 3.535939,-0.574226 4.734376,0.02734 a 0.89999998,0.89999998 0 0 0 1.207031,-0.400391 0.89999998,0.89999998 0 0 0 -0.400391,-1.208984 c -0.866212,-0.434806 -1.92083,-0.714306 -3.027344,-0.748047 z" fill="#008055"/>
</svg>
