<svg xmlns="http://www.w3.org/2000/svg" width="48" height="48">
	<path d="m 14.808594,2.7343751 c -1.58619,0 -3.027509,0.4548308 -4.09375,1.3574219 C 9.6486025,4.9943881 9.0078125,6.3568602 9.0078125,7.9042969 V 40.074219 c 0,1.681487 0.618384,3.087952 1.7050785,3.966797 1.086693,0.878844 2.52491,1.224609 4.095703,1.224609 h 18.996094 c 1.547178,0 2.89289,-0.534022 3.810546,-1.486328 0.917657,-0.952305 1.376954,-2.274026 1.376954,-3.705078 V 12.804688 c 0,-1.577083 -0.450934,-2.9287191 -1.396485,-3.8476561 -0.945552,-0.918939 -2.284711,-1.322266 -3.791015,-1.322266 h -7.525391 a 1,1 0 0 0 -1,1 1,1 0 0 0 1,1 h 7.525391 c 1.161695,0 1.914585,0.287523 2.396484,0.7558591 0.481899,0.468337 0.791016,1.200285 0.791016,2.414063 v 27.269531 c 0,1.012838 -0.305515,1.786152 -0.81836,2.318359 -0.512844,0.532207 -1.26052,0.873047 -2.36914,0.873047 H 14.808594 c -1.271509,0 -2.23461,-0.293357 -2.83789,-0.78125 -0.603284,-0.487893 -0.962892,-1.176653 -0.962892,-2.410156 V 7.9042969 c 0,-1.0269829 0.363517,-1.7483155 1,-2.2871092 0.636484,-0.538794 1.595672,-0.8828126 2.800782,-0.8828126 H 33.5625 a 1,1 0 0 0 1,-1 1,1 0 0 0 -1,-1 z m 9.417969,17.6894529 a 1,1 0 0 0 -1,1 v 2.384766 a 1,1 0 0 0 1,1 1,1 0 0 0 1,-1 v -2.384766 a 1,1 0 0 0 -1,-1 z m -0.02148,5.550782 a 1,1 0 0 0 -1,1 v 4.970703 c 0,1.168083 0.292151,2.171153 0.962891,2.86914 0.670741,0.697988 1.625195,0.970703 2.589844,0.970703 h 1.09375 a 1,1 0 0 0 1,-1 1,1 0 0 0 -1,-1 h -1.09375 c -0.617554,0 -0.939129,-0.139609 -1.148438,-0.357421 -0.209309,-0.217813 -0.404297,-0.634826 -0.404297,-1.482422 V 26.97461 a 1,1 0 0 0 -1,-1 z" fill="#008055"/>
</svg>
