<svg xmlns="http://www.w3.org/2000/svg" width="48" height="48">
	<path d="m 14.808594,2.7353515 c -1.58619,0 -3.025556,0.4528776 -4.091797,1.3554687 C 9.6505555,4.9934113 9.0078125,6.3578364 9.0078125,7.9052734 V 40.073243 c 0,1.681485 0.620337,3.087952 1.7070315,3.966796 1.086693,0.878845 2.522959,1.22461 4.09375,1.22461 h 18.996094 c 1.547178,0 2.89289,-0.53207 3.810546,-1.484375 0.917657,-0.952306 1.376954,-2.27598 1.376954,-3.707031 V 12.803711 c 0,-1.577082 -0.450935,-2.9287184 -1.396485,-3.8476564 C 36.650152,8.0371161 35.310992,7.633789 33.804688,7.633789 h -7.525391 a 1,1 0 0 0 -1,0.9999996 1,1 0 0 0 1,1 h 7.525391 c 1.161695,0 1.914585,0.287523 2.396484,0.7558604 0.481898,0.468336 0.791016,1.200285 0.791016,2.414062 v 27.269532 c 0,1.012838 -0.305516,1.786152 -0.81836,2.318359 -0.512842,0.532207 -1.260519,0.873047 -2.36914,0.873047 H 14.808594 c -1.271509,0 -2.232657,-0.291404 -2.835938,-0.779297 -0.60328,-0.487893 -0.964844,-1.178607 -0.964844,-2.412109 V 7.9052734 c 0,-1.0269833 0.363517,-1.7483155 1,-2.2871094 0.636484,-0.5387939 1.595671,-0.8828125 2.800782,-0.8828125 H 33.5625 a 1,1 0 0 0 1,-1 1,1 0 0 0 -1,-1 z m 5.001953,17.6406255 a 1,1 0 0 0 -1,1 v 3.535156 c 0,2.205826 1.786549,3.925781 3.974609,3.925781 l 3.232422,0.0039 c 0.54524,0 0.905498,0.16689 1.164063,0.435546 0.258566,0.268657 0.443359,0.678956 0.443359,1.3125 v 4.132813 a 1,1 0 0 0 1,1 1,1 0 0 0 1,-1 V 30.58886 c 0,-1.052414 -0.343919,-2.015504 -1.001953,-2.699218 -0.657601,-0.683264 -1.601694,-1.048348 -2.603516,-1.048828 h -0.002 l -3.230469,-0.0039 a 1.0001,1.0001 0 0 0 -0.002,0 c -1.25054,0 -1.974609,-0.695686 -1.974609,-1.925781 v -3.535156 a 1,1 0 0 0 -1,-1 z m 8.800781,0.01172 a 1,1 0 0 0 -1,1 v 4.191406 a 1,1 0 0 0 1,1 1,1 0 0 0 1,-1 v -4.191406 a 1,1 0 0 0 -1,-1 z M 19.8125,29.114258 a 1,1 0 0 0 -1,1 v 4.605469 a 1,1 0 0 0 1,1 1,1 0 0 0 1,-1 v -4.605469 a 1,1 0 0 0 -1,-1 z" fill="#008055"/>
</svg>
