<svg xmlns="http://www.w3.org/2000/svg" width="48" height="48">
	<path d="m 14.80957,2.7353517 c -1.586189,0 -3.027501,0.4528796 -4.09375,1.3554687 C 9.6495718,4.9934096 9.0087891,6.3578328 9.0087891,7.9052735 L 9.006836,40.073242 c 0,1.681492 0.6203335,3.087956 1.707031,3.966797 1.086698,0.878841 2.524934,1.224609 4.095703,1.224609 h 18.994141 c 1.547191,0 2.892888,-0.532068 3.810547,-1.484375 0.917659,-0.952306 1.378906,-2.275981 1.378906,-3.707031 V 12.803711 c 0,-1.577085 -0.452883,-2.9287193 -1.398437,-3.8476562 C 36.649173,8.0371179 35.31001,7.6337892 33.803711,7.6337892 h -7.523437 a 1,1 0 0 0 -1,1 1,1 0 0 0 1,1 h 7.523437 c 1.161691,0 1.916534,0.2875212 2.398437,0.7558588 0.481905,0.468339 0.791016,1.200288 0.791016,2.414063 v 27.269531 c 0,1.01284 -0.305516,1.786153 -0.818359,2.318359 -0.512843,0.532206 -1.262455,0.873047 -2.371094,0.873047 H 14.80957 c -1.27148,0 -2.234601,-0.2914 -2.83789,-0.779297 -0.60329,-0.487896 -0.964844,-1.178611 -0.964844,-2.412109 l 0.002,-32.1679685 c 0,-1.0269791 0.363509,-1.7483135 1,-2.2871093 0.636492,-0.5387959 1.595671,-0.8828125 2.800781,-0.8828125 h 18.751954 a 1,1 0 0 0 1,-1 1,1 0 0 0 -1,-1 z m 3.0625,16.6894533 c -0.696303,0 -1.379145,0.229569 -1.876953,0.708984 -0.497807,0.479415 -0.765625,1.182203 -0.765625,1.93164 v 2.777344 c 0,0.72546 0.156959,1.43712 0.617188,2.00586 0.460229,0.568739 1.217722,0.888672 2.02539,0.888672 h 2.927735 a 0.89999998,0.89999998 0 0 0 0.90039,-0.900391 0.89999998,0.89999998 0 0 0 -0.90039,-0.898438 H 17.87207 c -0.404702,0 -0.518739,-0.08698 -0.626953,-0.220703 -0.108213,-0.133728 -0.214843,-0.41907 -0.214843,-0.875 v -2.777344 c 0,-0.354512 0.09327,-0.519567 0.21289,-0.634765 0.119617,-0.115198 0.308769,-0.205078 0.628906,-0.205078 h 3.390625 c 0.416957,0 0.572536,0.09354 0.658203,0.18164 0.08567,0.0881 0.177735,0.258889 0.177735,0.658203 v 4.771485 a 0.89999998,0.89999998 0 0 0 0.898437,0.900391 0.89999998,0.89999998 0 0 0 0.900391,-0.900391 v -4.771485 c 0,-0.709665 -0.194225,-1.408805 -0.685547,-1.914062 -0.491322,-0.505257 -1.205455,-0.726562 -1.949219,-0.726562 z m 9.607422,0.05273 c -0.72566,0 -1.438815,0.157295 -2.007812,0.617187 -0.568998,0.459892 -0.888672,1.217849 -0.888672,2.025391 v 2.925781 a 0.89999998,0.89999998 0 0 0 0.90039,0.900391 0.89999998,0.89999998 0 0 0 0.900391,-0.900391 v -2.925777 c 0,-0.404108 0.08682,-0.516789 0.220703,-0.625 0.133883,-0.108211 0.418541,-0.216797 0.875,-0.216797 h 2.779297 c 0.355057,0 0.521468,0.09531 0.636719,0.214844 0.115251,0.119533 0.205078,0.307343 0.205078,0.626953 v 3.388672 c 0,0.416422 -0.09349,0.570631 -0.181641,0.65625 -0.08815,0.08562 -0.26032,0.177734 -0.660156,0.177734 h -4.773437 a 0.89999998,0.89999998 0 0 0 -0.900391,0.898438 0.89999998,0.89999998 0 0 0 0.900391,0.90039 h 4.773437 c 0.709815,0 1.408525,-0.194521 1.914063,-0.685546 0.505538,-0.491026 0.726562,-1.203668 0.726562,-1.947266 v -3.388672 c 0,-0.69622 -0.229281,-1.379429 -0.708984,-1.876953 -0.479704,-0.497525 -1.182118,-0.765625 -1.931641,-0.765625 z m -9.689453,9.02539 c -0.709811,0 -1.408517,0.194528 -1.914062,0.685547 -0.505546,0.491019 -0.728516,1.203658 -0.728516,1.947266 v 3.388672 c 0,0.69622 0.229274,1.379428 0.708984,1.876953 0.47971,0.497525 1.184061,0.765625 1.933594,0.765625 h 2.777344 c 0.725653,0 1.438812,-0.1573 2.007812,-0.617187 0.569,-0.459888 0.888672,-1.217842 0.888672,-2.025391 v -2.925781 a 0.89999998,0.89999998 0 0 0 -0.90039,-0.900391 0.89999998,0.89999998 0 0 0 -0.900391,0.900391 v 2.925781 c 0,0.404101 -0.08681,0.516785 -0.220703,0.625 -0.13389,0.108215 -0.418553,0.216797 -0.875,0.216797 h -2.777344 c -0.355077,0 -0.523419,-0.09531 -0.638672,-0.214844 -0.115252,-0.119532 -0.205078,-0.307343 -0.205078,-0.626953 v -3.388672 c 0,-0.416412 0.09543,-0.570624 0.183594,-0.65625 0.08816,-0.08563 0.260327,-0.177734 0.660156,-0.177734 h 4.773438 a 0.89999998,0.89999998 0 0 0 0.898437,-0.898438 0.89999998,0.89999998 0 0 0 -0.898437,-0.900391 z m 9.630859,0.294922 a 0.89999998,0.89999998 0 0 0 -0.898437,0.900391 0.89999998,0.89999998 0 0 0 0.898437,0.900391 h 2.927735 c 0.404711,0 0.518743,0.08698 0.626953,0.220703 0.10821,0.133723 0.216797,0.419067 0.216797,0.875 v 2.77539 c 0,0.354513 -0.09523,0.521521 -0.214844,0.636719 -0.119617,0.115198 -0.308769,0.205078 -0.628906,0.205078 h -3.390625 c -0.416956,0 -0.570585,-0.09354 -0.65625,-0.18164 -0.08566,-0.0881 -0.177734,-0.260839 -0.177734,-0.660157 v -4.769531 a 0.89999998,0.89999998 0 0 0 -0.900391,-0.90039 0.89999998,0.89999998 0 0 0 -0.900391,0.90039 v 4.769531 c 0,0.709663 0.196181,1.408804 0.6875,1.914063 0.49132,0.505259 1.203502,0.728516 1.947266,0.728516 h 3.390625 c 0.696303,0 1.379145,-0.22957 1.876953,-0.708985 0.497808,-0.479415 0.765625,-1.184156 0.765625,-1.933594 v -2.77539 c 0,-0.725458 -0.156959,-1.439073 -0.617187,-2.007813 -0.46023,-0.568739 -1.217722,-0.888672 -2.025391,-0.888672 z" fill="#008055"/>
</svg>
