<svg xmlns="http://www.w3.org/2000/svg" width="48" height="48">
	<path d="m 14.80957,2.7353515 c -1.586185,0 -3.027505,0.452879 -4.09375,1.355468 -1.066245,0.90259 -1.708984,2.267015 -1.708984,3.814453 V 40.073242 c 0,1.681491 0.620334,3.087955 1.707031,3.966797 1.086697,0.878842 2.522976,1.224609 4.09375,1.224609 h 18.996094 c 1.547195,0 2.892886,-0.532069 3.810547,-1.484375 0.917661,-0.952306 1.378906,-2.275981 1.378906,-3.707031 V 12.803711 c 0,-1.577087 -0.452883,-2.9287205 -1.398438,-3.8476565 -0.945554,-0.918936 -2.28472,-1.322266 -3.791015,-1.322266 H 26.27832 a 1,1 0 0 0 -1,1 1,1 0 0 0 1,1 h 7.525391 c 1.161685,0 1.916532,0.28752 2.398437,0.7558595 0.481905,0.468338 0.791016,1.200289 0.791016,2.414063 v 27.269531 c 0,1.012839 -0.307469,1.786154 -0.820313,2.31836 -0.512844,0.532206 -1.260496,0.873046 -2.36914,0.873046 H 14.807617 c -1.271486,0 -2.23265,-0.291401 -2.835938,-0.779296 -0.603287,-0.487896 -0.964843,-1.178612 -0.964843,-2.41211 V 7.9052725 c 0,-1.02698 0.363512,-1.748314 1,-2.287109 0.636488,-0.538795 1.597629,-0.882812 2.802734,-0.882812 h 18.751953 a 1,1 0 0 0 1,-1 1,1 0 0 0 -1,-1 z m 7.478516,15.6953125 c -0.791939,0 -1.559278,0.17129 -2.167969,0.662109 -0.608691,0.49082 -0.953125,1.297175 -0.953125,2.171876 v 3.978515 a 0.89999998,0.89999998 0 0 0 0.900391,0.900391 0.89999998,0.89999998 0 0 0 0.90039,-0.900391 v -3.978516 c 0,-0.47032 0.107863,-0.631674 0.28125,-0.771484 0.173387,-0.139812 0.515692,-0.263672 1.039063,-0.263672 h 3.486328 c 0.417758,0 0.634669,0.115843 0.783203,0.269531 0.148534,0.153689 0.255859,0.390548 0.255859,0.765626 v 3.388671 c 0,0.479902 -0.111052,0.681222 -0.232421,0.798828 -0.12137,0.117607 -0.343918,0.226563 -0.806641,0.226563 h -3.720703 a 0.89999998,0.89999998 0 0 0 -0.900391,0.898437 0.89999998,0.89999998 0 0 0 0.900391,0.900391 h 3.720703 c 0.771956,0 1.519378,-0.209924 2.058594,-0.732422 0.539216,-0.522498 0.779297,-1.283958 0.779297,-2.091797 v -3.388671 c 0,-0.752573 -0.246302,-1.48434 -0.759766,-2.015626 -0.513464,-0.531284 -1.266834,-0.818359 -2.078125,-0.818359 z m 5.314453,9.849609 c -0.791943,0 -1.561229,0.17129 -2.169922,0.66211 -0.608693,0.490819 -0.953125,1.297175 -0.953125,2.171875 l 0.002,3.978515 a 0.89999998,0.89999998 0 0 0 0.898438,0.900391 0.89999998,0.89999998 0 0 0 0.90039,-0.900391 v -3.978515 c 0,-0.470321 0.109816,-0.631673 0.283203,-0.771485 0.173388,-0.13981 0.515686,-0.261718 1.039063,-0.261718 h 3.486328 c 0.417758,0 0.63467,0.115842 0.783203,0.269531 0.148534,0.153688 0.253906,0.388593 0.253906,0.763672 v 3.390625 c 0,0.479899 -0.111049,0.679265 -0.232421,0.796875 -0.121374,0.117609 -0.341967,0.226562 -0.804688,0.226562 h -3.722656 a 0.89999998,0.89999998 0 0 0 -0.898438,0.900391 0.89999998,0.89999998 0 0 0 0.898438,0.900391 h 3.722656 c 0.771959,0 1.519377,-0.211876 2.058594,-0.734375 0.539217,-0.522501 0.779297,-1.282004 0.779297,-2.089844 v -3.390625 c 0,-0.752573 -0.248255,-1.484341 -0.761719,-2.015625 -0.513464,-0.531284 -1.26488,-0.81836 -2.076172,-0.81836 z m -10.626953,0.0098 c -0.791939,0 -1.561231,0.171289 -2.169922,0.662109 -0.608691,0.49082 -0.953125,1.297174 -0.953125,2.171875 v 3.978516 a 0.89999998,0.89999998 0 0 0 0.90039,0.90039 0.89999998,0.89999998 0 0 0 0.900391,-0.90039 v -3.978516 c 0,-0.47032 0.109816,-0.631673 0.283203,-0.771484 0.173387,-0.139812 0.515692,-0.261719 1.039063,-0.261719 h 3.486328 c 0.417756,0 0.632715,0.115841 0.78125,0.269531 0.148535,0.15369 0.255859,0.388602 0.255859,0.763672 v 3.390625 c 0,0.4799 -0.11105,0.679268 -0.232422,0.796875 -0.121371,0.117607 -0.34197,0.226563 -0.804687,0.226563 h -3.722656 a 0.89999998,0.89999998 0 0 0 -0.898438,0.90039 0.89999998,0.89999998 0 0 0 0.898438,0.898438 h 3.722656 c 0.771953,0 1.519377,-0.209925 2.058594,-0.732422 0.539216,-0.522498 0.779297,-1.282004 0.779297,-2.089844 v -3.390625 c 0,-0.752569 -0.248257,-1.484341 -0.761719,-2.015625 -0.513463,-0.531284 -1.264878,-0.818359 -2.076172,-0.818359 z" fill="#008055"/>
</svg>
