<svg xmlns="http://www.w3.org/2000/svg" width="48" height="48">
	<path d="m 14.808594,2.7343748 c -1.586184,0 -3.027502,0.4548334 -4.093749,1.3574219 C 9.6485955,4.9943852 9.0078125,6.356855 9.0078125,7.9042962 V 40.074218 c 0,1.681493 0.618383,3.087956 1.7050795,3.966797 1.086693,0.878841 2.524939,1.22461 4.095702,1.22461 h 18.99414 c 1.547188,0 2.892888,-0.534023 3.810547,-1.486329 0.91766,-0.952305 1.378907,-2.274026 1.378907,-3.705078 V 12.804687 c 0,-1.577085 -0.450928,-2.9306717 -1.396485,-3.8496088 -0.945556,-0.9189369 -2.286665,-1.320313 -3.792969,-1.320313 h -7.523437 a 1,1 0 0 0 -1,1 1,1 0 0 0 1,1 h 7.523437 c 1.161696,0 1.916534,0.28752 2.398438,0.7558598 0.481904,0.468337 0.791016,1.200287 0.791016,2.414062 v 27.269531 c 0,1.012839 -0.305515,1.786153 -0.81836,2.31836 -0.512844,0.532206 -1.262461,0.873047 -2.371094,0.873047 h -18.99414 c -1.271473,0 -2.234603,-0.293355 -2.837891,-0.78125 -0.603288,-0.487897 -0.962891,-1.176659 -0.962891,-2.410157 V 7.9042962 c 0,-1.0269779 0.363508,-1.7483124 1,-2.2871089 0.636493,-0.5387965 1.59568,-0.8828125 2.800782,-0.8828125 h 18.751953 a 1,1 0 0 0 1,-1 1,1 0 0 0 -1,-1 z m 2.943359,17.8964842 a 0.89999998,0.89999998 0 0 0 -0.90039,0.90039 0.89999998,0.89999998 0 0 0 0.90039,0.900391 h 13.740235 l -1.375,11.796875 c -0.03401,0.229397 -0.09387,0.315548 -0.337891,0.417969 l -5.320313,1.669922 c -0.0016,4.87e-4 -0.0023,-4.83e-4 -0.0039,0 -0.296735,0.08839 -0.500271,0.09764 -0.714844,0.02344 a 0.90008998,0.90008998 0 0 0 -0.02148,-0.0078 l -5.351572,-1.705093 c -0.246595,-0.107216 -0.274403,-0.09179 -0.306641,-0.371094 a 0.90008998,0.90008998 0 0 0 0,-0.0039 l -1.285156,-10.75196 a 0.89999998,0.89999998 0 0 0 -1,-0.787109 0.89999998,0.89999998 0 0 0 -0.78711,1 l 1.285157,10.748047 c 0.101708,0.881179 0.749327,1.54696 1.376953,1.822266 a 0.90008998,0.90008998 0 0 0 0.08789,0.0332 l 5.41211,1.724609 c 0.0014,4.78e-4 0.0025,-4.75e-4 0.0039,0 0.645055,0.221846 1.291663,0.159094 1.822266,0 a 0.90008998,0.90008998 0 0 0 0.0098,-0.0039 l 5.402344,-1.69336 a 0.90008998,0.90008998 0 0 0 0.07422,-0.02734 c 0.775334,-0.32015 1.318674,-1.045831 1.433593,-1.826172 a 0.90008998,0.90008998 0 0 0 0.0039,-0.02734 l 1.398437,-11.972656 a 0.90008998,0.90008998 0 0 0 0,-0.0039 c 0.0479,-0.424595 -0.04168,-0.913416 -0.365234,-1.292969 -0.323555,-0.379553 -0.83473,-0.5625 -1.31836,-0.5625 z m 9.859375,3.179687 -7.970703,0.02148 a 0.89999998,0.89999998 0 0 0 -0.896484,0.902344 0.89999998,0.89999998 0 0 0 0.902343,0.896484 l 7.896485,-0.01953 -0.763672,6.371093 a 0.90008998,0.90008998 0 0 0 0,0.0059 c -0.03335,0.293526 -0.04082,0.366624 -0.371094,0.480468 0,0 0,0.002 0,0.002 l -1.730469,0.558593 c 0,0 -0.002,0 -0.002,0 -0.403124,0.116136 -0.865945,0.12617 -1.230468,0.02148 L 21.763625,32.52742 c -0.165409,-0.05223 -0.32584,-0.306612 -0.347656,-0.482422 a 0.90008998,0.90008998 0 0 0 0,-0.002 l -0.121094,-0.96289 a 0.89999998,0.89999998 0 0 0 -1.005859,-0.78125 0.89999998,0.89999998 0 0 0 -0.78125,1.003906 l 0.121093,0.964844 c 0.10118,0.810673 0.614043,1.667179 1.59375,1.976562 a 0.90008998,0.90008998 0 0 0 0.002,0 l 1.699219,0.529267 a 0.90008998,0.90008998 0 0 0 0.01758,0.0059 c 0.751047,0.217564 1.529843,0.18273 2.236328,-0.02148 a 0.90008998,0.90008998 0 0 0 0.02539,-0.0078 l 1.773438,-0.572265 a 0.90008998,0.90008998 0 0 0 0.01563,-0.0039 c 0.941556,-0.323517 1.485849,-1.204557 1.574218,-1.982422 l 0.779297,-6.482422 v -0.002 c 0.06175,-0.48699 -0.09146,-1.016531 -0.433594,-1.373047 -0.342573,-0.356978 -0.824646,-0.523438 -1.296875,-0.523438 a 0.90008998,0.90008998 0 0 0 -0.0039,0 z" fill="#008055"/>
</svg>
