<svg xmlns="http://www.w3.org/2000/svg" width="48" height="48">
	<path d="m 14.808594,2.7353514 c -1.586185,0 -3.027503,0.4528795 -4.09375,1.3554687 C 9.6485966,4.9934093 9.0078123,6.3578324 9.0078123,7.9052732 V 40.073242 c 0,1.681493 0.6183819,3.087956 1.7050787,3.966797 1.086696,0.878842 2.524938,1.22461 4.095703,1.22461 h 18.99414 c 1.547192,0 2.892888,-0.532069 3.810547,-1.484375 0.91766,-0.952307 1.378907,-2.275981 1.378907,-3.707032 V 12.803711 c 0,-1.577085 -0.450931,-2.9287194 -1.396485,-3.8476565 C 36.650149,8.0371176 35.309034,7.6337888 33.802734,7.6337888 h -7.523437 a 1,1 0 0 0 -1,1 1,1 0 0 0 1,1 h 7.523437 c 1.161691,0 1.916534,0.2875218 2.398438,0.7558602 0.481904,0.468338 0.791016,1.200287 0.791016,2.414062 v 27.269531 c 0,1.01284 -0.305517,1.786154 -0.81836,2.31836 -0.512843,0.532206 -1.262455,0.873047 -2.371094,0.873047 h -18.99414 c -1.271475,0 -2.234602,-0.291401 -2.837891,-0.779297 -0.603289,-0.487896 -0.962891,-1.178612 -0.962891,-2.41211 V 7.9052732 c 0,-1.0269792 0.363509,-1.7483135 1.000001,-2.2871094 0.63649,-0.5387957 1.595676,-0.8828124 2.800781,-0.8828124 h 18.751953 a 1,1 0 0 0 1,-1 1,1 0 0 0 -1,-1 z M 27.814453,21.086914 a 0.89999998,0.89999998 0 0 0 -0.361328,0.0957 0.89999998,0.89999998 0 0 0 -0.398437,1.208985 l 2.167968,4.300781 -2.199218,3.458984 a 0.89999998,0.89999998 0 0 0 0.277343,1.242188 0.89999998,0.89999998 0 0 0 1.242188,-0.277344 l 1.623047,-2.552734 1.558594,3.089844 a 0.89999998,0.89999998 0 0 0 1.208984,0.398437 0.89999998,0.89999998 0 0 0 0.398437,-1.208984 l -2.041015,-4.046875 2.347656,-3.6875 a 0.89999998,0.89999998 0 0 0 -0.277344,-1.244141 0.89999998,0.89999998 0 0 0 -0.53125,-0.138672 0.89999998,0.89999998 0 0 0 -0.710937,0.416016 l -1.771485,2.783203 -1.685546,-3.34375 a 0.89999998,0.89999998 0 0 0 -0.847657,-0.494141 z m -13.078125,3.240235 a 0.89999998,0.89999998 0 0 0 -0.289062,0.05859 0.89999998,0.89999998 0 0 0 -0.517578,1.16211 L 17,33.545899 a 0.90008998,0.90008998 0 0 0 1.22461,0.492187 l 4.121093,-1.955078 a 0.89999998,0.89999998 0 0 0 0.427735,-1.199219 0.89999998,0.89999998 0 0 0 -1.199219,-0.427734 l -3.242188,1.539062 -2.722656,-7.091796 a 0.89999998,0.89999998 0 0 0 -0.873047,-0.576172 z m 6.527344,1.035156 a 0.89999998,0.89999998 0 0 0 -0.431641,0.134766 0.89999998,0.89999998 0 0 0 -0.292968,1.238281 l 2.71875,4.398437 v 4.666016 a 0.89999998,0.89999998 0 0 0 0.898437,0.90039 0.89999998,0.89999998 0 0 0 0.900391,-0.90039 v -4.65625 l 2.810547,-4.396484 a 0.89999998,0.89999998 0 0 0 -0.273438,-1.242188 0.89999998,0.89999998 0 0 0 -0.451172,-0.142578 0.89999998,0.89999998 0 0 0 -0.791015,0.416016 l -2.181641,3.410156 -2.097656,-3.398438 a 0.89999998,0.89999998 0 0 0 -0.808594,-0.427734 z" fill="#008055"/>
</svg>
