<svg xmlns="http://www.w3.org/2000/svg" width="48" height="48">
	<path d="m 14.808594,2.7353517 c -1.586181,0 -3.027502,0.4528803 -4.09375,1.3554687 C 9.6485958,4.993409 9.0078123,6.3578315 9.0078123,7.9052736 V 40.073242 c 0,1.681492 0.6183819,3.087956 1.7050787,3.966797 1.086696,0.878841 2.524938,1.224609 4.095703,1.224609 h 18.99414 c 1.547192,0 2.892888,-0.532068 3.810547,-1.484375 0.91766,-0.952306 1.378907,-2.274028 1.378907,-3.705078 V 12.805664 c 0,-1.577085 -0.450931,-2.9306723 -1.396485,-3.8496092 C 36.650149,8.0371179 35.309034,7.6357423 33.802734,7.6357423 h -7.523437 a 1,1 0 0 0 -1,1 1,1 0 0 0 1,1 h 7.523437 c 1.161691,0 1.916534,0.2855682 2.398438,0.7539067 0.481904,0.468337 0.791016,1.20224 0.791016,2.416015 v 27.269531 c 0,1.01284 -0.305517,1.7842 -0.81836,2.316406 -0.512843,0.532207 -1.262455,0.873047 -2.371094,0.873047 h -18.99414 c -1.271475,0 -2.234602,-0.2914 -2.837891,-0.779297 -0.603289,-0.487895 -0.962891,-1.176658 -0.962891,-2.410156 V 7.9052736 c 0,-1.0269779 0.363508,-1.7483129 1.000001,-2.2871094 0.636492,-0.5387965 1.595682,-0.8828125 2.800781,-0.8828125 h 18.751953 a 1,1 0 0 0 1,-1 1,1 0 0 0 -1,-1 z m 8.664062,16.4023433 a 0.89999998,0.89999998 0 0 0 -0.05859,0.0039 c -0.557202,0.05295 -1.128497,0.159882 -1.708985,0.324219 -0.002,5.79e-4 -0.0038,0.0014 -0.0059,0.002 -3.173438,0.864771 -6.521858,4.03166 -6.365235,8.865235 a 0.90008998,0.90008998 0 0 0 0,0.002 c 0.16536,4.873711 4.15182,8.505794 9.208985,8.521484 a 0.90008998,0.90008998 0 0 0 0.002,0 h 3.066406 a 0.89999998,0.89999998 0 0 0 0.900391,-0.90039 0.89999998,0.89999998 0 0 0 -0.900391,-0.900391 h -3.0625 -0.0039 c -4.223407,-0.01493 -7.278231,-2.835381 -7.412109,-6.78125 -0.12909,-3.983806 2.633972,-6.418287 5.048828,-7.072266 a 0.90008998,0.90008998 0 0 0 0.0098,-0.0039 c 0.479784,-0.136152 0.945335,-0.220987 1.394532,-0.263672 a 0.89999998,0.89999998 0 0 0 0.810546,-0.982422 0.89999998,0.89999998 0 0 0 -0.923828,-0.814453 z m 1.445313,3.251953 c -0.676817,-0.05931 -1.400247,-1.8e-4 -2.142578,0.205079 0,0 -0.002,0.002 -0.002,0.002 -2.070847,0.551123 -4.233878,2.580408 -4.132813,5.640625 a 0.90008998,0.90008998 0 0 0 0,0.002 c 0.107166,3.096945 2.716994,5.412716 5.941406,5.421875 a 0.90008998,0.90008998 0 0 0 0.002,0 h 6.658204 a 0.89999998,0.89999998 0 0 0 0.90039,-0.900391 0.89999998,0.89999998 0 0 0 -0.90039,-0.900391 h -6.65625 -0.002 c -2.407307,-0.0077 -4.070078,-1.531997 -4.144531,-3.683593 -0.0723,-2.189108 1.4774,-3.492787 2.798828,-3.84375 a 0.90008998,0.90008998 0 0 0 0.0098,-0.002 c 0.543493,-0.151227 1.045732,-0.189274 1.511719,-0.148438 a 0.89999998,0.89999998 0 0 0 0.976562,-0.818359 0.89999998,0.89999998 0 0 0 -0.818359,-0.97461 z m -0.527344,3.087891 c -0.16598,0.01391 -0.33573,0.04233 -0.505859,0.08594 -0.999377,0.248491 -2.051516,1.187953 -2.001953,2.585937 a 0.90008998,0.90008998 0 0 0 0,0.002 c 0.05349,1.438725 1.367883,2.475061 2.820312,2.480469 a 0.90008998,0.90008998 0 0 0 0.002,0 h 9.808594 a 0.89999998,0.89999998 0 0 0 0.900391,-0.900391 0.89999998,0.89999998 0 0 0 -0.900391,-0.90039 h -9.804688 -0.0039 c -0.69285,-0.0041 -1.007769,-0.326646 -1.023437,-0.748047 -0.01522,-0.460449 0.345333,-0.701029 0.638672,-0.773438 a 0.90008998,0.90008998 0 0 0 0.0098,-0.0039 c 0.301065,-0.07786 0.529766,-0.03945 0.722656,0.04297 0.193048,0.08244 0.341171,0.228098 0.396485,0.318359 a 0.89999998,0.89999998 0 0 0 1.236328,0.296875 0.89999998,0.89999998 0 0 0 0.296875,-1.238281 c -0.271515,-0.442975 -0.687471,-0.804663 -1.222744,-1.033259 -0.400327,-0.171054 -0.871202,-0.256576 -1.369141,-0.214844 z" fill="#008055"/>
</svg>
