<svg xmlns="http://www.w3.org/2000/svg" width="48" height="48">
	<path d="m 14.808594,2.7353518 c -1.586185,0 -3.02555,0.4528796 -4.091797,1.3554688 C 9.6505499,4.9934097 9.0078125,6.3578328 9.0078125,7.9052737 V 40.073242 c 0,1.681491 0.6203357,3.087955 1.7070315,3.966797 1.086695,0.878842 2.52298,1.224609 4.09375,1.224609 h 18.996094 c 1.54719,0 2.892887,-0.532069 3.810546,-1.484375 0.91766,-0.952306 1.376954,-2.275981 1.376954,-3.707031 V 12.803711 c 0,-1.577086 -0.45093,-2.9287191 -1.396485,-3.8476562 C 36.650149,8.0371181 35.310986,7.6337892 33.804688,7.6337892 h -7.525391 a 1,1 0 0 0 -1,1.0000001 1,1 0 0 0 1,1 h 7.525391 c 1.161691,0 1.91458,0.2875212 2.396484,0.7558587 0.481904,0.468338 0.791016,1.200286 0.791016,2.414063 v 27.269531 c 0,1.01284 -0.305516,1.786153 -0.81836,2.318359 -0.512844,0.532206 -1.260502,0.873047 -2.36914,0.873047 H 14.808594 c -1.271481,0 -2.234604,-0.291401 -2.837891,-0.779297 -0.603287,-0.487895 -0.962891,-1.17861 -0.962891,-2.412109 V 7.9052737 c 0,-1.0269792 0.36351,-1.7483135 1,-2.2871095 0.636491,-0.5387958 1.595677,-0.8828125 2.800782,-0.8828125 H 33.5625 a 1,1 0 0 0 1,-1 1,1 0 0 0 -1,-1 z m 9.167969,17.5761712 c -3.735152,-0.07215 -6.418501,2.33334 -6.994141,5.300781 -0.08383,0.360022 -0.222836,0.450564 -0.722656,0.664063 a 0.90008998,0.90008998 0 0 0 -0.01758,0.0078 c -1.401871,0.635933 -1.953126,2.131621 -1.953126,3.50586 v 3.085937 c 0,2.036003 1.477677,3.855469 3.472657,3.855469 0.834192,0 1.588186,-0.55114 1.876953,-1.175781 0.288767,-0.624642 0.308594,-1.257104 0.308594,-1.853516 v -5.248047 a 0.89999998,0.89999998 0 0 0 -0.898438,-0.90039 0.89999998,0.89999998 0 0 0 -0.90039,0.90039 v 5.248047 c 0,0.499658 -0.06765,0.931355 -0.144532,1.097656 -0.07688,0.166302 0.03271,0.132813 -0.242187,0.132813 -0.86726,0 -1.671875,-0.870924 -1.671875,-2.056641 v -3.085937 c 0,-0.935922 0.292662,-1.592207 0.894531,-1.865235 0.732656,-0.317098 1.540793,-0.938245 1.761719,-1.949219 a 0.90008998,0.90008998 0 0 0 0.0039,-0.02148 c 0.418841,-2.159133 2.219812,-3.91357 5.207031,-3.847656 a 0.90008998,0.90008998 0 0 0 0.04102,0 c 2.987207,-0.06591 4.788201,1.68853 5.207031,3.847656 a 0.90008998,0.90008998 0 0 0 0.0039,0.02148 c 0.220984,1.010907 1.029062,1.632115 1.761719,1.949219 0.601923,0.273038 0.894531,0.929308 0.894531,1.865235 v 3.085937 c 0,1.185717 -0.804615,2.056641 -1.671875,2.056641 -0.274926,0 -0.165306,0.03348 -0.242187,-0.132813 -0.07688,-0.166297 -0.144531,-0.598001 -0.144531,-1.097656 v -5.248047 a 0.89999998,0.89999998 0 0 0 -0.900391,-0.90039 0.89999998,0.89999998 0 0 0 -0.898437,0.90039 v 5.248047 c 0,0.596415 0.01981,1.228871 0.308593,1.853516 0.288781,0.624644 1.042751,1.175781 1.876953,1.175781 1.99498,0 3.472657,-1.819466 3.472657,-3.855469 v -3.085937 c 0,-1.374234 -0.551209,-2.869938 -1.953125,-3.50586 a 0.90008998,0.90008998 0 0 0 -0.01758,-0.0078 c -0.499799,-0.213493 -0.638785,-0.303981 -0.722657,-0.664063 l -0.0039,-0.01367 c -6.81e-4,-0.003 -0.0013,-0.0047 -0.002,-0.0078 -0.584675,-2.957909 -3.263217,-5.352203 -6.990234,-5.279297 z m 1.537109,4.060547 a 0.50005,0.50005 0 0 0 -0.494141,0.371094 l -2.175781,8.152343 v -6.1875 A 0.50005,0.50005 0 0 0 21.884766,26.512695 L 20.25,30.348632 a 0.5,0.5 0 0 0 0.263672,0.65625 0.5,0.5 0 0 0 0.65625,-0.263671 l 0.673828,-1.582032 v 7.546875 a 0.50005,0.50005 0 0 0 0.984375,0.128907 l 2.173828,-8.150391 v 5.982422 a 0.50005,0.50005 0 0 0 0.960938,0.195312 l 1.748047,-4.123047 a 0.5,0.5 0 0 0 -0.265625,-0.654296 0.5,0.5 0 0 0 -0.654297,0.263671 l -0.789063,1.859375 V 24.87207 a 0.50005,0.50005 0 0 0 -0.488281,-0.5 z" fill="#008055"/>
</svg>
