<svg xmlns="http://www.w3.org/2000/svg" width="48" height="48">
	<path d="m 14.808594,2.734375 c -1.586185,0 -3.0275,0.454834 -4.09375,1.357422 -1.0662495,0.902589 -1.7070315,2.265058 -1.7070315,3.8125 v 32.169922 c 0,1.681491 0.618384,3.087955 1.7050785,3.966797 1.086693,0.878842 2.524937,1.224609 4.095703,1.224609 h 18.99414 c 1.547191,0 2.892891,-0.53402 3.810547,-1.486328 0.917657,-0.952307 1.378907,-2.274029 1.378907,-3.705078 V 12.804688 c 0,-1.577084 -0.450933,-2.928719 -1.396485,-3.847656 -0.945552,-0.918938 -2.28667,-1.322266 -3.792969,-1.322266 h -7.523437 a 1,1 0 0 0 -1,1 1,1 0 0 0 1,1 h 7.523437 c 1.161691,0 1.916537,0.287522 2.398438,0.755859 0.481901,0.468338 0.791016,1.200287 0.791016,2.414063 v 27.269531 c 0,1.012841 -0.305519,1.786154 -0.81836,2.31836 -0.512841,0.532205 -1.262455,0.873046 -2.371094,0.873046 h -18.99414 c -1.271476,0 -2.234605,-0.293354 -2.837891,-0.78125 -0.603286,-0.487895 -0.962891,-1.176657 -0.962891,-2.410156 V 7.904297 c 0,-1.026978 0.363507,-1.748313 1,-2.287109 0.636493,-0.538796 1.595677,-0.882813 2.800782,-0.882813 l 18.751953,0.002 a 1,1 0 0 0 1,-1 1,1 0 0 0 -1,-1 z m 5.238281,16.003907 a 0.89999998,0.89999998 0 0 0 -0.900391,0.898437 0.89999998,0.89999998 0 0 0 0.900391,0.900391 h 5.398438 c 0.08407,0 0.109957,0.0079 0.152343,0.01367 0.0013,0.02905 0.002,0.01999 0.002,0.07813 v 4.058594 c 0,1.019545 0.428801,1.833967 0.863282,2.376953 0.987065,1.283753 2.381056,2.916115 3.521484,4.40039 0.572035,0.744507 1.078351,1.45095 1.423828,2.027344 0.345478,0.576394 0.480469,1.073747 0.480469,1.066406 0,0.369144 -0.07054,0.562865 -0.212891,0.701172 -0.14235,0.138307 -0.480221,0.324405 -1.310547,0.322266 a 0.90008998,0.90008998 0 0 0 -0.002,0 H 17.349609 a 0.90008998,0.90008998 0 0 0 -0.002,0 c -0.830234,0.0023 -1.170155,-0.18199 -1.3125,-0.320313 -0.142344,-0.138323 -0.210937,-0.333981 -0.210937,-0.703125 0,0.01448 0.130057,-0.470644 0.472656,-1.035156 0.342599,-0.564512 0.845918,-1.259781 1.416016,-1.992187 1.140195,-1.464814 2.543165,-3.084867 3.544922,-4.378907 a 0.90008998,0.90008998 0 0 0 0.0098,-0.01367 c 0.483686,-0.650568 0.796064,-1.434301 0.841797,-2.34375 a 0.90008998,0.90008998 0 0 0 0.002,-0.04492 v -2.583985 a 0.89999998,0.89999998 0 0 0 -0.90039,-0.900391 0.89999998,0.89999998 0 0 0 -0.900391,0.900391 v 2.544922 c -0.03083,0.593033 -0.165751,0.919706 -0.488281,1.353516 -0.947965,1.223346 -2.349742,2.845948 -3.529297,4.361328 -0.591669,0.76012 -1.128293,1.493659 -1.535157,2.164062 -0.406863,0.670404 -0.734375,1.226434 -0.734375,1.96875 0,0.653726 0.17236,1.425226 0.757813,1.994141 0.585075,0.568546 1.458728,0.832843 2.568359,0.830078 h 13.013672 c 1.108528,0.0022 1.981715,-0.263947 2.566407,-0.832031 0.58545,-0.568821 0.759765,-1.338462 0.759765,-1.992188 0,-0.745081 -0.327844,-1.310674 -0.736328,-1.992187 -0.408484,-0.681514 -0.947516,-1.426774 -1.541016,-2.199219 -1.187001,-1.544891 -2.597734,-3.196306 -3.533203,-4.414063 a 0.90008998,0.90008998 0 0 0 -0.01172,-0.01367 c -0.244112,-0.305042 -0.46683,-0.742668 -0.46683,-1.25196 v -4.058594 c 0,-0.543945 -0.151353,-1.132929 -0.59961,-1.5 -0.448256,-0.367072 -0.936478,-0.390625 -1.355468,-0.390625 z m 2.460938,7.736328 a 0.80000001,0.80000001 0 0 0 -0.800782,0.800781 0.80000001,0.80000001 0 0 0 0.800782,0.798828 h 2.765625 a 0.80000001,0.80000001 0 0 0 0.798828,-0.798828 0.80000001,0.80000001 0 0 0 -0.798828,-0.800781 z m 1.49414,2.289062 a 0.81114674,0.80663478 0 0 0 -0.8125,0.806641 0.81114674,0.80663478 0 0 0 0.8125,0.806641 0.81114674,0.80663478 0 0 0 0.810547,-0.806641 0.81114674,0.80663478 0 0 0 -0.810547,-0.806641 z m -3.332031,2.015625 a 1.4923186,1.4840178 0 0 0 -1.492188,1.484375 1.4923186,1.4840178 0 0 0 1.492188,1.484375 1.4923186,1.4840178 0 0 0 1.492187,-1.484375 1.4923186,1.4840178 0 0 0 -1.492187,-1.484375 z m 7.158203,0.08594 a 0.66294783,0.65926021 0 0 0 -0.650391,0.660156 0.66294783,0.65926021 0 0 0 0.66211,0.658203 0.66294783,0.65926021 0 0 0 0.664062,-0.658203 0.66294783,0.65926021 0 0 0 -0.664062,-0.660156 0.66294783,0.65926021 0 0 0 -0.01172,0 z m -2.96875,2.246094 a 1.0167172,1.0110619 0 0 0 -1.017578,1.009765 1.0167172,1.0110619 0 0 0 1.017578,1.011719 1.0167172,1.0110619 0 0 0 1.015625,-1.011719 1.0167172,1.0110619 0 0 0 -1.015625,-1.009765 z" fill="#008055"/>
</svg>
