<svg xmlns="http://www.w3.org/2000/svg" width="48" height="48">
	<path d="m 14.808594,1.7353515 c -1.776726,0 -3.457158,0.50731 -4.738282,1.591797 -1.2811225,1.084487 -2.0624995,2.770456 -2.0624995,4.578125 V 40.073242 c 0,1.90549 0.747772,3.669827 2.0761715,4.744141 1.3284,1.074314 3.004201,1.447265 4.72461,1.447265 h 18.99414 c 1.766467,0 3.411184,-0.628658 4.53125,-1.791015 1.120067,-1.162357 1.658204,-2.760236 1.658204,-4.400391 v -25.26953 c 0,-1.75874 -0.521839,-3.420218 -1.699219,-4.564453 -1.17738,-1.1442375 -2.811631,-1.6054695 -4.490235,-1.6054695 h -5.591796 a 2,2 0 0 0 -2,2.0000005 2,2 0 0 0 2,2 h 5.591796 c 0.989387,0 1.451094,0.229617 1.701172,0.472656 0.250079,0.243039 0.488282,0.665146 0.488282,1.697266 v 25.26953 c 0,0.803736 -0.228628,1.302844 -0.539063,1.625 -0.310434,0.322156 -0.761027,0.566406 -1.650391,0.566406 h -18.99414 c -1.121831,0 -1.8474,-0.266171 -2.208985,-0.558593 -0.361585,-0.292423 -0.591797,-0.623313 -0.591797,-1.632813 V 7.9052735 c 0,-0.766751 0.224876,-1.168493 0.646485,-1.52539 0.421609,-0.356898 1.139733,-0.644532 2.154297,-0.644532 H 33.5625 a 2,2 0 0 0 2,-2 2,2 0 0 0 -2,-2 z M 31.513672,19.31543 c -0.486157,-0.0029 -0.983674,0.21805 -1.371094,0.605468 l -9.810547,9.753907 c -0.884099,0.04482 -1.659611,0.331595 -2.189453,0.835937 -0.623107,0.59312 -0.994,1.332014 -1.34375,2.035156 -0.349751,0.703143 -0.675578,1.381344 -1.072266,1.894532 -0.396685,0.513188 -0.826154,0.862862 -1.509765,1.037109 a 0.80008001,0.80008001 0 0 0 0.171875,1.576172 c 1.960566,0.06026 3.877845,-0.226582 5.419922,-0.966797 1.542076,-0.740215 2.741954,-2.036698 2.90625,-3.792969 a 0.80000001,0.80000001 0 0 0 -0.722656,-0.871093 0.80000001,0.80000001 0 0 0 -0.871094,0.722656 c -0.106674,1.14031 -0.795262,1.916944 -2.00586,2.498047 -0.576406,0.276682 -1.27656,0.476126 -2.029296,0.613281 0.479319,-0.662039 0.832373,-1.37048 1.144531,-1.998047 0.337413,-0.678339 0.660564,-1.249918 1.015625,-1.587891 0.35506,-0.337972 0.697986,-0.511274 1.417969,-0.458984 a 0.80008001,0.80008001 0 0 0 0.621093,-0.230469 l 9.986328,-9.927734 a 0.80008001,0.80008001 0 0 0 0.002,0 c 0.143461,-0.14346 0.206524,-0.138827 0.232421,-0.138672 0.0259,1.57e-4 0.0496,0.009 0.08008,0.04102 0.06095,0.06399 0.164509,0.105021 -0.06641,0.335936 l -8.542968,8.554687 a 0.80000001,0.80000001 0 0 0 -0.697266,0.222657 0.80000001,0.80000001 0 0 0 0,1.130859 c 0.218461,0.218506 0.674977,0.4015 1.03125,0.316406 0.356273,-0.08509 0.522512,-0.266255 0.662109,-0.404296 a 0.80008001,0.80008001 0 0 0 0.0039,-0.002 l 8.673828,-8.6875 c 0.755893,-0.755893 0.702928,-1.930744 0.09375,-2.570312 -0.304589,-0.319784 -0.744313,-0.534185 -1.230469,-0.53711 z m -5.966797,0.201172 c -1.796352,-0.05239 -3.493363,0.58292 -4.494141,1.832031 -0.524785,0.610759 -0.763793,1.327646 -0.738281,1.955078 0.02574,0.63299 0.251722,1.140366 0.4375,1.548828 0.185778,0.408462 0.328872,0.734457 0.357422,0.896484 0.02855,0.162028 0.06391,0.109123 -0.08594,0.267579 l -0.0078,0.0098 -0.0078,0.0078 c -0.116997,0.130392 -0.15513,0.141775 -0.441407,0.132813 -0.286276,-0.009 -0.739607,-0.114383 -1.267578,-0.22461 -0.52797,-0.110227 -1.145892,-0.225551 -1.828125,-0.123047 -0.682233,0.102505 -1.410188,0.472978 -1.960937,1.150391 l -0.0078,0.01172 -0.0078,0.0098 c -1.178896,1.537472 -1.151778,3.639223 -0.462891,5.257812 a 0.89999998,0.89999998 0 0 0 1.179688,0.476563 0.89999998,0.89999998 0 0 0 0.476562,-1.181641 c -0.453122,-1.064641 -0.402698,-2.608936 0.230469,-3.445312 0.292594,-0.354634 0.516327,-0.452374 0.820312,-0.498047 0.308443,-0.04634 0.719773,0.0051 1.191407,0.103515 0.471634,0.09846 0.989826,0.243241 1.580078,0.261719 0.585582,0.01833 1.320031,-0.166884 1.824218,-0.71875 0.48753,-0.519281 0.645959,-1.259301 0.548829,-1.810547 -0.09745,-0.553044 -0.326743,-0.964366 -0.492188,-1.328125 -0.165446,-0.363757 -0.268543,-0.662473 -0.277344,-0.878906 -0.0088,-0.216433 0.01336,-0.384361 0.302735,-0.716797 l 0.01563,-0.01563 0.01172,-0.01563 c 0.529287,-0.668527 1.727534,-1.204607 3.050782,-1.166016 0.744645,0.02171 0.891584,0.03142 1.580078,0.365235 a 0.89999998,0.89999998 0 0 0 1.203125,-0.417969 0.89999998,0.89999998 0 0 0 -0.416016,-1.203125 c -0.84124,-0.407892 -1.494892,-0.519122 -2.314507,-0.543015 z m 5.738281,5.3125 a 0.89999998,0.89999998 0 0 0 -0.292968,0.04883 0.89999998,0.89999998 0 0 0 -0.556641,1.144532 c 0.30952,0.896312 0.374764,0.988549 0.416016,1.916015 0.07985,1.795311 -0.374586,3.59256 -1.486329,4.90625 -1.408945,1.567728 -3.165472,2.34487 -4.929687,2.521485 -0.927841,0.09291 -1.247735,0.06319 -2.128906,-0.148438 a 0.89999998,0.89999998 0 0 0 -1.083985,0.664063 0.89999998,0.89999998 0 0 0 0.664063,1.085937 c 0.973129,0.233713 1.683115,0.29414 2.728515,0.189453 2.178509,-0.218089 4.387423,-1.205705 6.101563,-3.11914 l 0.0078,-0.0098 0.0059,-0.0078 c 1.481403,-1.743053 2.015692,-4.008899 1.919922,-6.162109 -0.04665,-1.048814 -0.209072,-1.539809 -0.513672,-2.421875 a 0.89999998,0.89999998 0 0 0 -0.851563,-0.607422 z" fill="#008055"/>
</svg>
