<svg xmlns="http://www.w3.org/2000/svg" width="48" height="48">
	<path d="m 14.808594,2.7353517 c -1.586186,0 -3.027503,0.4528796 -4.09375,1.3554687 C 9.648597,4.9934092 9.0078127,6.3578332 9.0078127,7.9052732 V 40.075195 c 0,1.681491 0.6183826,3.086002 1.7050783,3.964844 1.086695,0.878842 2.524933,1.224609 4.095703,1.224609 h 18.996093 c 1.547192,0 2.890935,-0.532068 3.808594,-1.484375 0.91766,-0.952306 1.378906,-2.274028 1.378906,-3.705078 V 12.805664 c 0,-1.577085 -0.45093,-2.9306717 -1.396484,-3.8496088 -0.945554,-0.918937 -2.284716,-1.320313 -3.791016,-1.320313 h -7.52539 a 1,1 0 0 0 -1,1 1,1 0 0 0 1,1 h 7.52539 c 1.161691,0 1.914581,0.285568 2.396485,0.7539058 0.481903,0.468338 0.791015,1.202241 0.791015,2.416016 v 27.269531 c 0,1.01284 -0.305516,1.7842 -0.818359,2.316407 -0.512843,0.532206 -1.260501,0.873046 -2.369141,0.873046 H 14.808594 c -1.271481,0 -2.234604,-0.291401 -2.837891,-0.779296 -0.603287,-0.487896 -0.96289,-1.176658 -0.96289,-2.410157 V 7.9052732 c 0,-1.026979 0.363509,-1.748313 1,-2.287109 0.63649,-0.538796 1.595676,-0.8828119 2.800781,-0.8828119 H 33.5625 a 1,1 0 0 0 1,-1.0000006 1,1 0 0 0 -1,-1 z m 6.199219,16.6035153 a 0.80000001,0.80000001 0 0 0 -0.798829,0.800781 v 0.919922 a 0.80000001,0.80000001 0 0 0 0.798829,0.798828 0.80000001,0.80000001 0 0 0 0.800781,-0.798828 v -0.919922 a 0.80000001,0.80000001 0 0 0 -0.800781,-0.800781 z m 3.009765,0 a 0.80000001,0.80000001 0 0 0 -0.800781,0.800781 v 0.919922 a 0.80000001,0.80000001 0 0 0 0.800781,0.798828 0.80000001,0.80000001 0 0 0 0.798828,-0.798828 v -0.919922 a 0.80000001,0.80000001 0 0 0 -0.798828,-0.800781 z m 3.007813,0 a 0.80000001,0.80000001 0 0 0 -0.800782,0.800781 v 0.919922 a 0.80000001,0.80000001 0 0 0 0.800782,0.798828 0.80000001,0.80000001 0 0 0 0.800781,-0.798828 v -0.919922 a 0.80000001,0.80000001 0 0 0 -0.800781,-0.800781 z m -7.314454,2.755859 c -0.486603,0 -0.98126,0.161426 -1.34375,0.509766 -0.362487,0.348341 -0.552734,0.862307 -0.552734,1.384766 v 8.441406 c 0,0.490926 0.103899,0.99441 0.439453,1.408203 0.335555,0.413793 0.896893,0.644531 1.457031,0.644531 a 0.80000001,0.80000001 0 0 0 0.798829,-0.798828 0.80000001,0.80000001 0 0 0 -0.798829,-0.800781 c -0.2027,0 -0.190775,-0.02546 -0.21289,-0.05273 -0.02211,-0.02727 -0.08398,-0.149557 -0.08398,-0.400391 v -8.441406 c 0,-0.170641 0.03649,-0.20548 0.0625,-0.230469 0.026,-0.02499 0.08143,-0.0625 0.234374,-0.0625 H 28.3125 c 0.220254,0 0.245078,0.04193 0.246094,0.04297 0.001,10e-4 0.04492,0.04008 0.04492,0.25 v 8.441406 c 0,0.211406 -0.06073,0.332409 -0.103516,0.382812 -0.04278,0.0504 -0.05825,0.07031 -0.1875,0.07031 h -6.431641 a 0.80000001,0.80000001 0 0 0 -0.798828,0.800781 0.80000001,0.80000001 0 0 0 0.798828,0.798828 H 28.3125 c 0.544468,0 1.073782,-0.240789 1.408203,-0.634765 0.334421,-0.393977 0.482422,-0.900875 0.482422,-1.417969 V 23.98926 c 0,-0.486364 -0.136017,-0.995695 -0.498047,-1.367188 -0.362029,-0.371493 -0.882472,-0.527344 -1.392578,-0.527344 z m -3.789062,2.384766 a 0.80000001,0.80000001 0 0 0 -0.798828,0.800781 0.80000001,0.80000001 0 0 0 0.798828,0.798829 h 0.847656 a 0.80000001,0.80000001 0 0 0 0.798828,-0.798829 0.80000001,0.80000001 0 0 0 -0.798828,-0.800781 z m 15.296875,0 a 0.80000001,0.80000001 0 0 0 -0.800781,0.800781 0.80000001,0.80000001 0 0 0 0.800781,0.798829 h 0.900391 a 0.80000001,0.80000001 0 0 0 0.800781,-0.798829 0.80000001,0.80000001 0 0 0 -0.800781,-0.800781 z m -15.296875,3.007813 a 0.80000001,0.80000001 0 0 0 -0.798828,0.800781 0.80000001,0.80000001 0 0 0 0.798828,0.800781 h 0.847656 a 0.80000001,0.80000001 0 0 0 0.798828,-0.800781 0.80000001,0.80000001 0 0 0 -0.798828,-0.800781 z m 15.296875,0 a 0.80000001,0.80000001 0 0 0 -0.800781,0.800781 0.80000001,0.80000001 0 0 0 0.800781,0.800781 h 0.900391 a 0.80000001,0.80000001 0 0 0 0.800781,-0.800781 0.80000001,0.80000001 0 0 0 -0.800781,-0.800781 z M 15.921875,30.49707 a 0.80000001,0.80000001 0 0 0 -0.798828,0.798828 0.80000001,0.80000001 0 0 0 0.798828,0.800782 h 0.847656 a 0.80000001,0.80000001 0 0 0 0.798828,-0.800782 0.80000001,0.80000001 0 0 0 -0.798828,-0.798828 z m 15.296875,0 a 0.80000001,0.80000001 0 0 0 -0.800781,0.798828 0.80000001,0.80000001 0 0 0 0.800781,0.800782 h 0.900391 a 0.80000001,0.80000001 0 0 0 0.800781,-0.800782 0.80000001,0.80000001 0 0 0 -0.800781,-0.798828 z m -10.210937,4.087891 a 0.80000001,0.80000001 0 0 0 -0.798829,0.800781 v 0.957031 a 0.80000001,0.80000001 0 0 0 0.798829,0.800782 0.80000001,0.80000001 0 0 0 0.800781,-0.800782 v -0.957031 a 0.80000001,0.80000001 0 0 0 -0.800781,-0.800781 z m 3.009765,0 a 0.80000001,0.80000001 0 0 0 -0.800781,0.800781 v 0.957031 a 0.80000001,0.80000001 0 0 0 0.800781,0.800782 0.80000001,0.80000001 0 0 0 0.798828,-0.800782 v -0.957031 a 0.80000001,0.80000001 0 0 0 -0.798828,-0.800781 z m 3.007813,0 a 0.80000001,0.80000001 0 0 0 -0.800782,0.800781 v 0.957031 a 0.80000001,0.80000001 0 0 0 0.800782,0.800782 0.80000001,0.80000001 0 0 0 0.800781,-0.800782 v -0.957031 a 0.80000001,0.80000001 0 0 0 -0.800781,-0.800781 z" fill="#008055"/>
</svg>
