<svg xmlns="http://www.w3.org/2000/svg" width="48" height="48">
	<path d="m 14.809571,2.7353515 c -1.58619,0 -3.027509,0.4548308 -4.09375,1.357422 -1.066242,0.9025909 -1.708985,2.2650629 -1.708985,3.8125 V 40.075195 c 0,1.681486 0.620337,3.085999 1.707031,3.964844 1.086694,0.878844 2.524912,1.224609 4.095704,1.224609 h 18.99414 c 1.547179,0 2.89289,-0.532069 3.810547,-1.484375 0.917657,-0.952306 1.378906,-2.274027 1.378906,-3.705078 V 12.805664 c 0,-1.577083 -0.452887,-2.9306706 -1.398437,-3.8496096 -0.945551,-0.918938 -2.284712,-1.320312 -3.791016,-1.320312 h -7.523437 a 1,1 0 0 0 -1,1 1,1 0 0 0 1,1 h 7.523437 c 1.161696,0 1.916538,0.287523 2.398438,0.7558586 0.481899,0.468337 0.791015,1.200285 0.791015,2.414063 v 27.269531 c 0,1.012838 -0.307469,1.784199 -0.820312,2.316406 -0.512843,0.532207 -1.260519,0.873047 -2.369141,0.873047 h -18.99414 c -1.271509,0 -2.23461,-0.291404 -2.837891,-0.779297 -0.603281,-0.487893 -0.964844,-1.176653 -0.964844,-2.410156 V 7.9052735 c 0,-1.026983 0.363517,-1.748315 1,-2.2871091 0.636484,-0.538794 1.597624,-0.8828129 2.802735,-0.8828129 h 18.751953 a 1,1 0 0 0 1,-1 1,1 0 0 0 -1,-1 z m 8.154296,18.0468745 c -1.109967,0 -2.171166,0.351574 -2.941406,1.09961 -0.77024,0.748035 -1.189453,1.852 -1.189453,3.115234 v 10.121094 a 1,1 0 0 0 1,1 1,1 0 0 0 1,-1 V 24.99707 c 0,-0.847246 0.240321,-1.349782 0.582031,-1.681641 0.34171,-0.331859 0.844796,-0.533203 1.548828,-0.533203 h 5.703125 a 1,1 0 0 0 1,-1 1,1 0 0 0 -1,-1 z m 5.703125,2.496094 a 1,1 0 0 0 -1,1 v 10.839844 a 1,1 0 0 0 1,1 1,1 0 0 0 1,-1 V 24.27832 a 1,1 0 0 0 -1,-1 z m -6.121093,4.693359 a 1,1 0 0 0 -1,1 1,1 0 0 0 1,1 h 3.394531 a 1,1 0 0 0 1,-1 1,1 0 0 0 -1,-1 z" fill="#008055"/>
</svg>
