<svg xmlns="http://www.w3.org/2000/svg" width="48" height="48">
	<path d="m 14.808594,2.734375 c -1.586186,0 -3.027503,0.454832 -4.09375,1.357422 -1.066247,0.902589 -1.707032,2.265059 -1.707032,3.8125 v 32.169921 c 0,1.681492 0.618385,3.087955 1.705079,3.966797 1.086693,0.878843 2.524933,1.22461 4.095703,1.22461 h 18.99414 c 1.547191,0 2.89289,-0.534021 3.810547,-1.486328 0.917657,-0.952308 1.378907,-2.274029 1.378907,-3.705079 V 12.804687 c 0,-1.577083 -0.450933,-2.930671 -1.396485,-3.849609 C 36.650152,8.03614 35.309034,7.634765 33.802734,7.634765 h -7.523437 a 1,1 0 0 0 -1,1 1,1 0 0 0 1,1 h 7.523437 c 1.161691,0 1.916537,0.287522 2.398438,0.75586 0.481901,0.468337 0.791016,1.200286 0.791016,2.414062 v 27.269531 c 0,1.012842 -0.305519,1.786155 -0.81836,2.31836 -0.512841,0.532205 -1.262455,0.873047 -2.371094,0.873047 h -18.99414 c -1.271481,0 -2.234607,-0.293355 -2.837891,-0.78125 -0.603284,-0.487895 -0.962891,-1.176657 -0.962891,-2.410157 V 7.904297 c 0,-1.02698 0.36351,-1.748314 1,-2.28711 0.636492,-0.538796 1.595677,-0.882812 2.800782,-0.882812 h 18.751953 a 1,1 0 0 0 1,-1 1,1 0 0 0 -1,-1 z m 9.722656,18.416015 -2.597656,0.144532 c -1.176623,0.06493 -2.102598,0.717314 -2.615235,1.613281 l -3.99414,6.830078 a 0.80008001,0.80008001 0 0 0 -0.0078,0.01172 c -0.56147,1.003019 -0.517685,2.144721 -0.148437,3.054687 a 0.80008001,0.80008001 0 0 0 0.01367,0.0332 l 0.560547,1.222657 a 0.80000001,0.80000001 0 0 0 1.060546,0.392578 0.80000001,0.80000001 0 0 0 0.394532,-1.060547 l -0.546875,-1.19336 c -0.201829,-0.500377 -0.214741,-1.170748 0.0625,-1.666015 l 3.990234,-6.824219 a 0.80008001,0.80008001 0 0 0 0.0039,-0.0078 c 0.325183,-0.568342 0.573936,-0.767733 1.314453,-0.808594 l 2.580078,-0.142578 c 0.773299,-0.02541 0.888853,0.07055 1.074219,0.396484 l 6.765625,11.894531 -13.277344,-0.126953 6.021485,-10.271484 a 0.80000001,0.80000001 0 0 0 -0.287109,-1.095703 0.80000001,0.80000001 0 0 0 -1.09375,0.285156 l -6.109381,10.421865 a 0.80008001,0.80008001 0 0 0 -0.0059,0.0098 c -0.2415,0.426203 -0.437516,0.891911 -0.224609,1.451172 0.106453,0.279628 0.347128,0.521817 0.595703,0.642578 0.248574,0.12076 0.493887,0.153181 0.736328,0.152343 L 32.8125,36.644531 a 0.80008001,0.80008001 0 0 0 0.0078,0 c 0.475173,-1.38e-4 1.032851,-0.178176 1.296876,-0.675781 0.264023,-0.497605 0.117379,-1.008573 -0.09766,-1.384766 h 0.002 L 27.066406,22.355468 C 26.608533,21.550374 25.646269,21.114324 24.548828,21.15039 a 0.80008001,0.80008001 0 0 0 -0.01758,0 z m -3.939453,4.107422 a 0.69999999,0.69999999 0 0 0 -0.6875,0.558594 0.69999999,0.69999999 0 0 0 0.544922,0.826172 L 21.125,26.78125 a 0.69999999,0.69999999 0 0 0 0.826172,-0.542969 0.69999999,0.69999999 0 0 0 -0.542969,-0.828125 l -0.677734,-0.138672 a 0.69999999,0.69999999 0 0 0 -0.138672,-0.01367 z m 4.197265,2.023438 a 0.69999999,0.69999999 0 0 0 -0.488281,0.185547 0.69999999,0.69999999 0 0 0 -0.03906,0.990234 l 3.917969,4.236328 -5.867188,-0.990234 a 0.69999999,0.69999999 0 0 0 -0.806641,0.572265 0.69999999,0.69999999 0 0 0 0.574219,0.808594 l 7.890625,1.332031 A 0.70006999,0.70006999 0 0 0 30.601564,33.25 l -5.3125,-5.744141 a 0.69999999,0.69999999 0 0 0 -0.5,-0.224609 z m -6.505859,1.957031 a 0.69999999,0.69999999 0 0 0 -0.07031,0.002 0.69999999,0.69999999 0 0 0 -0.421875,0.179688 0.69999999,0.69999999 0 0 0 -0.04883,0.988281 l 0.460937,0.509765 a 0.69999999,0.69999999 0 0 0 0.988281,0.04883 0.69999999,0.69999999 0 0 0 0.04883,-0.988282 L 18.78125,29.46875 a 0.69999999,0.69999999 0 0 0 -0.498047,-0.230469 z" fill="#008055"/>
</svg>
