<svg xmlns="http://www.w3.org/2000/svg" width="48" height="48">
	<path d="m 14.808594,2.734375 c -1.586185,0 -3.027503,0.4548329 -4.09375,1.3574219 -1.0662468,0.90259 -1.7070315,2.26506 -1.7070315,3.8125 V 40.074219 c 0,1.681491 0.6183844,3.087955 1.7050785,3.966797 1.086694,0.878842 2.524939,1.224609 4.095703,1.224609 h 18.996094 c 1.547195,0 2.892888,-0.53402 3.810546,-1.486328 0.917658,-0.952307 1.376954,-2.274029 1.376954,-3.705078 V 12.804688 c 0,-1.577084 -0.450934,-2.9306729 -1.396485,-3.8496099 C 36.650151,8.0361401 35.310988,7.6347656 33.804688,7.6347656 H 26.28125 c -0.552285,0 -1,0.4477153 -1,1 0,0.5522847 0.447715,1 1,1 h 7.523438 c 1.16169,0 1.916536,0.2875224 2.398437,0.7558594 0.481901,0.468338 0.789063,1.200286 0.789063,2.414063 v 27.269531 c 0,1.012841 -0.303566,1.786153 -0.816407,2.318359 -0.512842,0.532205 -1.262448,0.873047 -2.371093,0.873047 H 14.808594 c -1.271475,0 -2.232652,-0.293354 -2.835938,-0.78125 C 11.36937,41.99648 11.007812,41.307718 11.007812,40.074219 V 7.9042969 c 0,-1.026979 0.36351,-1.7483134 1,-2.2871094 C 12.644303,5.0783915 13.60349,4.734375 14.808594,4.734375 H 33.5625 c 0.552285,0 1,-0.4477153 1,-1 0,-0.5522847 -0.447715,-1 -1,-1 z M 25.552734,19.25 c -0.328398,-0.0028 -0.63368,0.05512 -0.916015,0.193359 -0.564669,0.27647 -0.819584,0.765067 -0.988281,1.097657 -0.337394,0.665181 -0.324999,0.992327 -1.345704,1.25 -1.038291,0.262112 -1.188779,-0.0333 -1.80664,-0.457032 -0.30893,-0.211867 -0.76866,-0.516172 -1.396485,-0.490234 -0.627826,0.02594 -1.188526,0.367697 -1.759765,0.917969 -0.566684,0.545885 -0.929813,1.091623 -0.972656,1.71875 -0.04284,0.627127 0.253274,1.091944 0.457031,1.404297 0.407516,0.624707 0.699253,0.77845 0.412109,1.791015 -0.292091,1.030009 -0.622839,1.010907 -1.298828,1.333985 -0.337995,0.161539 -0.831603,0.410256 -1.123047,0.966796 -0.291445,0.556541 -0.276986,1.210754 -0.08594,1.980469 0.189531,0.763578 0.480127,1.348562 1.001953,1.699219 0.521827,0.350656 1.072857,0.328831 1.445312,0.308594 0.547578,-0.02975 0.596271,0.0013 0.939113,0.07167 1.155827,0.229411 1.406381,-1.097856 0.662382,-1.527075 -0.487347,-0.328851 -1.157673,-0.370788 -1.697198,-0.341474 -0.304117,0.01653 -0.353793,-0.01257 -0.34375,-0.0059 0.01004,0.0067 -0.123045,-0.08786 -0.259766,-0.638671 -0.138669,-0.558667 -0.06675,-0.715959 -0.06836,-0.712891 -0.0016,0.0031 0.02914,-0.04409 0.304688,-0.175781 0.551104,-0.263391 1.799173,-0.863256 2.253906,-2.466797 0.451816,-1.593252 -0.300069,-2.755539 -0.632813,-3.265625 -0.166372,-0.255042 -0.167143,-0.310897 -0.167968,-0.298828 -8.24e-4,0.01207 0.01505,-0.153095 0.423828,-0.546875 0.414611,-0.399393 0.587445,-0.416158 0.583984,-0.416016 -0.0035,1.44e-4 0.05283,0.0031 0.304688,0.175781 0.503714,0.345451 1.647238,1.128765 3.263672,0.720703 1.606062,-0.405444 2.236229,-1.64046 2.511718,-2.183593 0.137744,-0.271567 0.186649,-0.298289 0.175782,-0.292969 -0.0054,0.0027 0.02869,-0.01321 0.132812,-0.0098 0.104125,0.0035 0.278029,0.025 0.550781,0.103516 0.55328,0.159274 0.656151,0.299801 0.654297,0.296875 -0.0019,-0.0029 0.02369,0.04714 0,0.351562 -0.04739,0.608842 -0.153886,1.990068 1.007813,3.185547 1.154246,1.187808 2.53825,1.117033 3.146484,1.083985 0.304116,-0.01652 0.353792,0.01257 0.34375,0.0059 -0.01004,-0.0067 0.123047,0.08786 0.259766,0.638672 0.138669,0.558668 0.06675,0.715959 0.06836,0.712891 0.0016,-0.0031 -0.02914,0.04409 -0.304688,0.175781 -0.551103,0.263391 -1.799173,0.863256 -2.253906,2.466797 -0.451816,1.593252 0.300069,2.755539 0.632813,3.265625 0.166373,0.255043 0.167145,0.310897 0.167969,0.298828 8.24e-4,-0.01207 -0.01505,0.153095 -0.423829,0.546875 -0.414611,0.399394 -0.587446,0.416158 -0.583984,0.416015 0.0035,-1.43e-4 -0.05283,-0.0031 -0.304687,-0.175781 -0.503714,-0.345452 -1.647239,-1.128764 -3.263672,-0.720703 -1.606061,0.405444 -2.23623,1.640461 -2.511719,2.183594 -0.137745,0.271567 -0.186647,0.298288 -0.175781,0.292969 0.01087,-0.0053 -0.13809,0.06329 -0.683594,-0.09375 -0.55328,-0.159275 -0.654199,-0.2998 -0.652344,-0.296876 0.0019,0.0029 -0.0237,-0.04714 0,-0.351562 0.03944,-0.506722 0.228775,-1.246066 -0.415533,-2.270453 -0.653884,-0.880647 -1.968373,0.05744 -1.378962,1.008129 0.101414,0.390907 0.04066,0.568772 -0.0024,1.121699 -0.02906,0.373407 -0.06294,0.924474 0.273438,1.455078 0.336381,0.530603 0.911536,0.843057 1.673828,1.0625 0.756215,0.217693 1.40994,0.258894 1.974609,-0.01758 0.564669,-0.27647 0.821537,-0.765065 0.990234,-1.097656 0.337396,-0.66518 0.324999,-0.992327 1.345704,-1.25 1.038291,-0.262112 1.186826,0.0333 1.804687,0.457031 0.30893,0.211866 0.770613,0.516171 1.398438,0.490234 0.627826,-0.02594 1.186573,-0.367696 1.757812,-0.917968 0.566684,-0.545885 0.929814,-1.091623 0.972656,-1.71875 0.04284,-0.627127 -0.253274,-1.091943 -0.457031,-1.404297 -0.407515,-0.624707 -0.6973,-0.778451 -0.410156,-1.791016 0.292091,-1.03001 0.622838,-1.010906 1.298828,-1.333984 0.337995,-0.161538 0.831602,-0.410256 1.123047,-0.966797 0.291444,-0.556541 0.275042,-1.210754 0.08398,-1.980469 C 33.08,25.519624 32.789405,24.93464 32.267578,24.583984 c -0.521827,-0.350656 -1.072857,-0.32883 -1.445312,-0.308593 -0.744909,0.04047 -1.022298,0.213877 -1.75586,-0.541016 -0.7462,-0.767897 -0.565941,-1.044204 -0.507812,-1.791016 0.02906,-0.373406 0.06294,-0.924475 -0.273438,-1.455078 -0.336381,-0.530604 -0.911536,-0.843057 -1.673828,-1.0625 C 26.233221,19.316934 25.881132,19.252846 25.552734,19.25 Z m -1.83789,5.488281 c -0.491003,0.03207 -0.981418,0.159342 -1.44336,0.386719 -0.82123,0.40423 -1.443447,1.074177 -1.802734,1.863281 -0.359288,0.789103 -0.455105,1.699386 -0.220703,2.583985 0.128474,0.479811 0.621518,0.764797 1.101562,0.636718 0.4798,-0.127715 0.765564,-0.619718 0.638672,-1.099609 -0.25207,-0.951277 0.196988,-1.934462 1.080078,-2.369141 0.88309,-0.434679 1.934685,-0.188007 2.535157,0.591797 0.600471,0.779804 0.568087,1.859271 -0.07813,2.601563 -0.646207,0.742292 -1.712942,0.922498 -2.56836,0.435547 -0.431545,-0.245339 -0.980317,-0.09504 -1.226562,0.335937 -0.246985,0.431951 -0.0965,0.982284 0.335937,1.228516 1.590874,0.905614 3.614507,0.56225 4.816406,-0.81836 1.2019,-1.380609 1.263222,-3.430607 0.146485,-4.880859 -0.697961,-0.906407 -1.73935,-1.429288 -2.824219,-1.496094 -0.16273,-0.01002 -0.326567,-0.01069 -0.490234,0 z" fill="#008055"/>
</svg>
