<svg xmlns="http://www.w3.org/2000/svg" width="48" height="48">
	<path d="m 14.375976,6.6279298 c -1.75766,0 -3.407851,0.5083727 -4.6406246,1.5898438 C 8.5025778,9.2992447 7.7939452,10.944026 7.7939452,12.696289 v 22.583984 c 0,1.857116 0.674911,3.574855 1.953125,4.646485 1.2782138,1.07163 2.9234608,1.445312 4.6289058,1.445312 H 33.99707 c 1.74454,0 3.362488,-0.607071 4.492188,-1.732422 1.1297,-1.12535 1.716797,-2.709163 1.716797,-4.359375 V 15.272461 c 0,-1.767691 -0.574645,-3.415864 -1.757813,-4.519531 C 37.265075,9.6492625 35.658444,9.2041017 33.99707,9.2041017 h -8.185547 a 1.9,1.9 0 0 0 -1.898437,1.8984373 1.9,1.9 0 0 0 1.898437,1.900391 h 8.185547 c 1.006616,0 1.555339,0.243736 1.859375,0.527344 0.304037,0.283607 0.548828,0.719018 0.548828,1.742187 v 20.007812 c 0,0.793679 -0.237106,1.306854 -0.597656,1.666016 -0.360549,0.359162 -0.899256,0.625 -1.810547,0.625 H 14.375976 c -1.136795,0 -1.835504,-0.261534 -2.1875,-0.556641 -0.351996,-0.295106 -0.595703,-0.676499 -0.595703,-1.734375 V 12.696289 c 0,-0.822158 0.238199,-1.261205 0.648438,-1.621094 0.410239,-0.359888 1.101135,-0.648437 2.134765,-0.648437 H 22.09668 A 1.9,1.9 0 0 0 23.99707,8.5263673 1.9,1.9 0 0 0 22.09668,6.6279298 Z m 9.279297,10.1289062 c -0.653189,-0.0058 -1.300226,0.236365 -1.769531,0.695312 a 1.0001,1.0001 0 0 0 -0.0098,0.0078 l -6.207032,6.208984 c -0.507123,0.49688 -0.805241,1.184073 -0.765625,1.851563 0.03962,0.667489 0.370893,1.2479 0.816406,1.699218 a 1.0001,1.0001 0 0 0 0.0039,0.0039 l 6.58789,6.58789 a 1.0001,1.0001 0 0 0 0.03125,0.0293 c 0.390333,0.357647 0.901276,0.68463 1.550782,0.75586 0.649506,0.07123 1.369974,-0.181703 1.929687,-0.6875 a 1.0001,1.0001 0 0 0 0.04102,-0.03906 l 6.822265,-6.904297 a 1,1 0 0 0 -0.0098,-1.414062 1,1 0 0 0 -1.414063,0.0098 l -6.785156,6.865235 c -0.23115,0.207325 -0.293625,0.189708 -0.367187,0.18164 -0.07435,-0.0082 -0.231229,-0.07287 -0.416016,-0.242187 l -6.552734,-6.552735 c -0.193027,-0.195541 -0.238099,-0.343224 -0.242188,-0.412109 -0.0041,-0.06889 -0.01212,-0.126328 0.169922,-0.304687 a 1.0001,1.0001 0 0 0 0.0059,-0.0059 l 6.207032,-6.208984 h 0.002 c 0.210822,-0.20531 0.430783,-0.267272 0.689453,0.01758 a 1.0001,1.0001 0 0 0 0.0332,0.0332 l 2.164063,2.164063 c 0.17874,0.192152 0.176943,0.252078 0.158203,0.390625 -0.01874,0.138546 -0.129411,0.396303 -0.417969,0.695312 l -4.087891,4.087891 a 1,1 0 0 0 0,1.414062 1,1 0 0 0 1.416016,0 l 4.099609,-4.101562 a 1.0001,1.0001 0 0 0 0.01172,-0.01172 c 0.493131,-0.510991 0.865803,-1.113068 0.960937,-1.816406 0.09513,-0.703338 -0.161612,-1.466784 -0.675781,-2.019531 a 1.0001,1.0001 0 0 0 -0.02539,-0.02734 l -2.15625,-2.154297 c -0.487829,-0.537202 -1.145639,-0.791093 -1.798829,-0.796875 z" fill="#008055"/>
</svg>
