<svg xmlns="http://www.w3.org/2000/svg" width="48" height="48">
	<path d="m 14.80957,2.734375 c -1.586185,0 -3.027502,0.454832 -4.09375,1.357421 -1.0662465,0.90259 -1.7089845,2.26506 -1.7089845,3.8125 v 32.169922 c 0,1.681493 0.620335,3.087956 1.7070315,3.966797 1.086696,0.878841 2.522986,1.22461 4.09375,1.22461 h 18.996094 c 1.54719,0 2.892888,-0.534022 3.810547,-1.486329 0.917659,-0.952306 1.378906,-2.274028 1.378906,-3.705078 V 12.804687 c 0,-1.577085 -0.452883,-2.928719 -1.398437,-3.847656 C 36.649172,8.038094 35.31001,7.634765 33.803711,7.634765 H 26.27832 a 1,1 0 0 0 -1,1 1,1 0 0 0 1,1 h 7.525391 c 1.16169,0 1.916533,0.28752 2.398437,0.75586 0.481904,0.468338 0.791016,1.200287 0.791016,2.414062 v 27.269531 c 0,1.01284 -0.30747,1.786154 -0.820312,2.31836 -0.512843,0.532206 -1.260503,0.873047 -2.369141,0.873047 H 14.807617 c -1.271474,0 -2.232648,-0.293355 -2.835937,-0.78125 -0.603289,-0.487897 -0.964844,-1.176659 -0.964844,-2.410157 V 7.904296 c 0,-1.026979 0.363509,-1.748313 1,-2.287109 0.636491,-0.538796 1.597629,-0.882812 2.802734,-0.882812 l 18.751953,0.002 a 1,1 0 0 0 1,-1 1,1 0 0 0 -1,-1 z m 2.792969,20.55664 c -0.623214,0 -1.246545,0.187062 -1.742187,0.603516 -0.495642,0.416453 -0.826172,1.086937 -0.826172,1.820312 v 9.150391 c 0,0.775879 0.392759,1.446393 0.894531,1.84375 0.50177,0.397357 1.090149,0.582031 1.673828,0.582031 a 0.89999998,0.89999998 0 0 0 0.898438,-0.90039 0.89999998,0.89999998 0 0 0 -0.898438,-0.900391 c -0.16675,0 -0.41235,-0.07714 -0.556641,-0.191406 -0.144292,-0.114266 -0.210937,-0.205904 -0.210937,-0.433594 v -3.785156 h 6.320312 v 4.410156 h -3.035156 a 0.89999998,0.89999998 0 0 0 -0.90039,0.900391 0.89999998,0.89999998 0 0 0 0.90039,0.90039 h 10.341797 c 1.374468,0 2.441406,-1.156809 2.441406,-2.425781 v -9.150391 c 0,-0.763 -0.311613,-1.451485 -0.804687,-1.865234 -0.493075,-0.413749 -1.088775,-0.558594 -1.636719,-0.558594 z m 0,1.798828 h 5.554688 a 0.89999998,0.89999998 0 0 0 -0.002,0.06641 v 4.125 h -6.320312 v -3.566406 c 0,-0.250265 0.0644,-0.341254 0.183594,-0.441406 0.119195,-0.100152 0.331869,-0.183594 0.583984,-0.183594 z m 7.349609,0 h 5.509766 c 0.218356,0 0.393779,0.06593 0.480469,0.138672 0.08669,0.07274 0.162109,0.145239 0.162109,0.486328 v 3.566406 h -6.148437 v -4.125 a 0.89999998,0.89999998 0 0 0 -0.0039,-0.06641 z m 0.0039,5.990235 h 6.148437 v 3.785156 c 0,0.443308 -0.109825,0.625 -0.642578,0.625 h -5.505859 z" fill="#008055"/>
</svg>
