<svg xmlns="http://www.w3.org/2000/svg" width="48" height="48">
	<path d="m 14.808594,2.7353515 c -1.586191,0 -3.027502,0.454833 -4.09375,1.357422 -1.0662485,0.902589 -1.7070315,2.265059 -1.7070315,3.8125 V 40.075195 c 0,1.681492 0.618384,3.086002 1.7050785,3.964844 1.086694,0.878842 2.524937,1.224609 4.095703,1.224609 h 18.99414 c 1.547191,0 2.892888,-0.532069 3.810547,-1.484375 0.917659,-0.952306 1.378907,-2.274028 1.378907,-3.705078 V 12.805664 c 0,-1.577084 -0.450933,-2.9306715 -1.396485,-3.8496095 -0.945552,-0.918938 -2.28667,-1.320312 -3.792969,-1.320312 h -7.523437 a 1,1 0 0 0 -1,1 1,1 0 0 0 1,1 h 7.523437 c 1.16169,0 1.916537,0.287522 2.398438,0.7558595 0.481901,0.468336 0.791016,1.200285 0.791016,2.414062 v 27.269531 c 0,1.012839 -0.305516,1.7842 -0.81836,2.316407 -0.512844,0.532206 -1.262454,0.873046 -2.371094,0.873046 h -18.99414 c -1.271475,0 -2.234605,-0.291401 -2.837891,-0.779296 -0.603286,-0.487896 -0.962891,-1.176659 -0.962891,-2.410157 V 7.9052735 c 0,-1.026979 0.363508,-1.748314 1,-2.28711 0.636491,-0.538795 1.595671,-0.882812 2.800782,-0.882812 h 18.751953 a 1,1 0 0 0 1,-1 1,1 0 0 0 -1,-1 z M 22.15625,18.84082 c -1.003683,0 -1.857422,0.872434 -1.857422,1.980469 v 1.628906 c 0,1.135909 0.868783,1.998047 1.857422,1.998047 0.966909,-1.7e-5 1.850163,-0.84107 1.857422,-1.99414 v -0.002 -1.63086 c 0,-1.161832 -0.906537,-1.980467 -1.857422,-1.980467 z m 7.259766,0 c -1.003693,0 -1.857422,0.872438 -1.857422,1.980469 v 1.628906 c 0,1.135909 0.86878,1.998047 1.857422,1.998047 0.966906,-1.7e-5 1.850149,-0.841078 1.857422,-1.99414 v -0.002 -1.63086 c 0,-1.161832 -0.906543,-1.980467 -1.857422,-1.980467 z m -11.556641,0.03906 a 0.60000002,0.60000002 0 0 0 -0.601562,0.601563 0.60000002,0.60000002 0 0 0 0.601562,0.599609 h 0.146484 v 3.125 h -0.07031 a 0.60000002,0.60000002 0 0 0 -0.599609,0.599609 0.60000002,0.60000002 0 0 0 0.599609,0.59961 H 19.27344 A 0.60000002,0.60000002 0 0 0 19.875,23.805664 0.60000002,0.60000002 0 0 0 19.273438,23.206055 h -0.06836 v -3.695313 a 0.60000002,0.60000002 0 0 0 0,-0.0293 0.60000002,0.60000002 0 0 0 -0.0039,-0.06445 0.60000002,0.60000002 0 0 0 -0.595703,-0.537109 z m 7.259766,0 a 0.60000002,0.60000002 0 0 0 -0.601563,0.601563 0.60000002,0.60000002 0 0 0 0.601563,0.599609 h 0.146484 v 3.125 h -0.07031 a 0.60000002,0.60000002 0 0 0 -0.59961,0.599609 0.60000002,0.60000002 0 0 0 0.59961,0.59961 h 1.33789 a 0.60000002,0.60000002 0 0 0 0.601563,-0.59961 0.60000002,0.60000002 0 0 0 -0.601563,-0.599609 h -0.06836 V 19.51074 a 0.60000002,0.60000002 0 0 0 0,-0.0293 0.60000002,0.60000002 0 0 0 -0.0039,-0.06445 0.60000002,0.60000002 0 0 0 -0.595704,-0.53711 z m -2.962891,1.160156 c 0.297035,0 0.658203,0.201223 0.658203,0.78125 v 1.625 c -0.0035,0.56239 -0.394712,0.80273 -0.658203,0.802735 -0.241721,0 -0.65625,-0.286138 -0.65625,-0.798828 v -1.628907 c 0,-0.541404 0.313553,-0.78125 0.65625,-0.78125 z m 7.259766,0 c 0.29702,0 0.658203,0.201223 0.658203,0.78125 v 1.625 c -0.0035,0.562397 -0.394729,0.80273 -0.658203,0.802735 -0.241738,0 -0.65625,-0.286138 -0.65625,-0.798828 v -1.628907 c 0,-0.541409 0.313521,-0.78125 0.65625,-0.78125 z m -3.53125,5.34375 c -1.003693,0 -1.857422,0.872434 -1.857422,1.980469 v 1.628906 c 0,1.135922 0.868786,2 1.857422,2 0.966912,0 1.850175,-0.843012 1.857422,-1.996093 v -0.002 -1.630859 c 0,-1.161817 -0.906538,-1.980469 -1.857422,-1.980469 z m -8.025391,0.04102 a 0.60000002,0.60000002 0 0 0 -0.601562,0.599609 0.60000002,0.60000002 0 0 0 0.601562,0.599609 h 0.146484 v 3.126954 h -0.07031 a 0.60000002,0.60000002 0 0 0 -0.599609,0.599609 0.60000002,0.60000002 0 0 0 0.599609,0.599609 H 19.27344 A 0.60000002,0.60000002 0 0 0 19.875,30.350586 0.60000002,0.60000002 0 0 0 19.273438,29.750977 h -0.06836 v -3.697266 a 0.60000002,0.60000002 0 0 0 0,-0.0293 0.60000002,0.60000002 0 0 0 -0.0039,-0.06445 0.60000002,0.60000002 0 0 0 -0.595709,-0.535156 z m 3.726563,0 a 0.60000002,0.60000002 0 0 0 -0.59961,0.599609 0.60000002,0.60000002 0 0 0 0.59961,0.599609 h 0.146484 v 3.126954 h -0.06836 a 0.60000002,0.60000002 0 0 0 -0.59961,0.599609 0.60000002,0.60000002 0 0 0 0.59961,0.599609 h 1.33789 a 0.60000002,0.60000002 0 0 0 0.59961,-0.599609 0.60000002,0.60000002 0 0 0 -0.59961,-0.599609 h -0.06836 v -3.697266 a 0.60000002,0.60000002 0 0 0 0,-0.0293 0.60000002,0.60000002 0 0 0 -0.0039,-0.06445 0.60000002,0.60000002 0 0 0 -0.595708,-0.535156 z m 7.517578,0 a 0.60000002,0.60000002 0 0 0 -0.59961,0.599609 0.60000002,0.60000002 0 0 0 0.59961,0.599609 h 0.148437 v 3.126954 h -0.07031 a 0.60000002,0.60000002 0 0 0 -0.59961,0.599609 0.60000002,0.60000002 0 0 0 0.59961,0.599609 h 1.33789 a 0.60000002,0.60000002 0 0 0 0.59961,-0.599609 0.60000002,0.60000002 0 0 0 -0.59961,-0.599609 h -0.06836 v -3.697266 a 0.60000002,0.60000002 0 0 0 0,-0.0293 0.60000002,0.60000002 0 0 0 -0.0039,-0.06445 0.60000002,0.60000002 0 0 0 -0.59571,-0.535156 z m -3.21875,1.160156 c 0.297035,0 0.65625,0.199274 0.65625,0.779297 v 1.625 c -0.0035,0.562399 -0.392782,0.802734 -0.65625,0.802734 -0.241744,0 -0.658203,-0.28613 -0.658203,-0.798828 v -1.628906 c 0,-0.541404 0.315474,-0.779297 0.658203,-0.779297 z M 18.5,31.862305 c -1.003692,0 -1.857422,0.872439 -1.857422,1.980468 v 1.628907 c 0,1.135914 0.868786,2 1.857422,2 0.966912,0 1.850175,-0.843013 1.857422,-1.996094 v -0.002 -1.630859 c 0,-1.161786 -0.906554,-1.980421 -1.857422,-1.980421 z m 7.384766,0 c -1.003693,0 -1.857422,0.872439 -1.857422,1.980468 v 1.628907 c 0,1.135914 0.868786,2 1.857422,2 0.966912,0 1.850175,-0.843013 1.857422,-1.996094 v -0.002 -1.630859 c 0,-1.161824 -0.906544,-1.980469 -1.857422,-1.980469 z m -4.298828,0.04102 a 0.60000002,0.60000002 0 0 0 -0.59961,0.599609 0.60000002,0.60000002 0 0 0 0.59961,0.599609 h 0.146484 v 3.126954 h -0.06836 a 0.60000002,0.60000002 0 0 0 -0.59961,0.599609 0.60000002,0.60000002 0 0 0 0.59961,0.599609 h 1.33789 a 0.60000002,0.60000002 0 0 0 0.59961,-0.599609 0.60000002,0.60000002 0 0 0 -0.59961,-0.599609 h -0.06836 v -3.697266 a 0.60000002,0.60000002 0 0 0 0,-0.0293 0.60000002,0.60000002 0 0 0 -0.0039,-0.06445 0.60000002,0.60000002 0 0 0 -0.595704,-0.535156 z m 7.517578,0 a 0.60000002,0.60000002 0 0 0 -0.59961,0.599609 0.60000002,0.60000002 0 0 0 0.59961,0.599609 h 0.148437 v 3.126954 h -0.07031 a 0.60000002,0.60000002 0 0 0 -0.59961,0.599609 0.60000002,0.60000002 0 0 0 0.59961,0.599609 h 1.33789 a 0.60000002,0.60000002 0 0 0 0.59961,-0.599609 0.60000002,0.60000002 0 0 0 -0.59961,-0.599609 h -0.06836 v -3.697266 a 0.60000002,0.60000002 0 0 0 0,-0.0293 0.60000002,0.60000002 0 0 0 -0.0039,-0.06445 0.60000002,0.60000002 0 0 0 -0.595703,-0.535156 z M 18.5,33.063477 c 0.29701,0 0.658203,0.199269 0.658203,0.779296 v 1.626954 c -0.0035,0.562398 -0.394735,0.800781 -0.658203,0.800781 -0.241744,0 -0.65625,-0.286144 -0.65625,-0.798828 v -1.628907 c 0,-0.54139 0.313523,-0.779296 0.65625,-0.779296 z m 7.384766,0 c 0.297041,0 0.65625,0.19926 0.65625,0.779296 v 1.626954 c -0.0035,0.562398 -0.392782,0.800781 -0.65625,0.800781 -0.241744,0 -0.658203,-0.286144 -0.658203,-0.798828 v -1.628907 c 0,-0.54139 0.315474,-0.779296 0.658203,-0.779296 z" fill="#008055"/>
</svg>
