<svg xmlns="http://www.w3.org/2000/svg" width="48" height="48">
	<path d="m 14.808594,2.7353515 c -1.586186,0 -3.027503,0.4528796 -4.09375,1.3554687 C 9.6485969,4.9934094 9.0078127,6.3578326 9.0078127,7.9052733 V 40.075196 c 0,1.681491 0.6183826,3.086001 1.7050783,3.964843 1.086695,0.878842 2.524933,1.22461 4.095703,1.22461 h 18.99414 c 1.547191,0 2.892888,-0.532069 3.810547,-1.484375 0.917659,-0.952307 1.378906,-2.274028 1.378906,-3.705078 V 12.805664 c 0,-1.577085 -0.45093,-2.9306726 -1.396484,-3.8496095 C 36.650149,8.0371176 35.309034,7.6357421 33.802734,7.6357421 h -7.523437 a 1,1 0 0 0 -1,1 1,1 0 0 0 1,1 h 7.523437 c 1.161691,0 1.916534,0.2855681 2.398438,0.7539059 0.481903,0.468338 0.791015,1.202241 0.791015,2.416016 v 27.269532 c 0,1.012839 -0.305516,1.7842 -0.818359,2.316406 -0.512843,0.532206 -1.262455,0.873047 -2.371094,0.873047 h -18.99414 c -1.271481,0 -2.234604,-0.291402 -2.837891,-0.779297 -0.603287,-0.487896 -0.96289,-1.176658 -0.96289,-2.410156 V 7.9052733 c 0,-1.0269792 0.363509,-1.7483136 1,-2.2871093 0.63649,-0.5387959 1.595676,-0.8828125 2.800781,-0.8828125 h 18.751953 a 1,1 0 0 0 1,-1 1,1 0 0 0 -1,-1 z M 25.83789,18.717774 c -0.910084,0.0048 -1.856185,0.11825 -2.853515,0.302734 a 0.80000001,0.80000001 0 0 0 -0.640625,0.931641 0.80000001,0.80000001 0 0 0 0.93164,0.640625 c 2.492256,-0.461013 4.272173,-0.424803 6.101563,0.564453 0.468965,0.301345 0.752954,0.404502 0.96875,0.767578 0.03002,0.05053 0.207853,0.527319 0.322266,1.005859 0.10876,0.4549 0.193978,0.940311 0.238281,1.275391 l -3.490234,-0.666016 a 0.80000001,0.80000001 0 0 0 -0.935547,0.634766 0.80000001,0.80000001 0 0 0 0.634765,0.9375 l 3.660156,0.697266 c 0.262395,0.0556 0.527941,0.07248 0.802735,-0.002 0.277469,-0.07516 0.546467,-0.267876 0.701172,-0.49414 0.30941,-0.452528 0.270868,-0.879219 0.226562,-1.238281 -0.05184,-0.417425 -0.151975,-0.974921 -0.28125,-1.515625 -0.129275,-0.540705 -0.244288,-1.017551 -0.501953,-1.451172 -0.482508,-0.811821 -1.204232,-1.12087 -1.505859,-1.31836 a 0.80008001,0.80008001 0 0 0 -0.05469,-0.0332 c -1.111137,-0.604806 -2.241684,-0.911218 -3.425781,-1.005859 -0.296024,-0.02366 -0.595076,-0.03482 -0.898438,-0.0332 z m -5.798828,1.111328 c -0.384031,-0.03061 -0.729508,0.121379 -0.972656,0.283203 -0.324197,0.215765 -0.559735,0.478036 -0.732422,0.785156 h 0.002 c -0.181133,0.322028 -0.26911,0.6714 -0.271484,1.041016 -0.0024,0.369615 0.08226,0.782943 0.380859,1.138672 0.504345,0.600892 1.361033,1.227299 2.158204,1.804687 0.79717,0.577389 1.501953,1.042969 1.501953,1.042969 a 0.80000001,0.80000001 0 0 0 1.107421,-0.224609 0.80000001,0.80000001 0 0 0 -0.222656,-1.109375 c 0,0 -0.680641,-0.450596 -1.447265,-1.00586 -0.766625,-0.555264 -1.653559,-1.277931 -1.871094,-1.537109 0.02632,0.03136 -0.0065,-0.0064 -0.0059,-0.09961 5.98e-4,-0.09318 0.0378,-0.218233 0.06445,-0.265626 0.03116,-0.05542 0.138475,-0.170947 0.210937,-0.224609 1.101931,0.486913 2.318323,1.218141 4.210938,1.263672 a 0.80000001,0.80000001 0 0 0 0.818359,-0.78125 0.80000001,0.80000001 0 0 0 -0.779297,-0.818359 c -1.556949,-0.03746 -2.460242,-0.641339 -3.757812,-1.195313 -0.134211,-0.05729 -0.266521,-0.08745 -0.394532,-0.09766 z m -1.667968,3.982422 a 0.80000001,0.80000001 0 0 0 -0.128907,0.01172 c -0.922694,0.156204 -1.671841,0.442244 -2.220703,0.953124 -0.548862,0.510881 -0.818359,1.244326 -0.818359,1.982422 v 8.904297 c 0,0.302859 0.0034,0.692714 0.259765,1.109375 0.256331,0.416662 0.823303,0.695313 1.373047,0.695313 0.877592,0 1.560993,-0.466774 1.994141,-0.9375 a 0.80008001,0.80008001 0 0 0 0.02148,-0.02344 L 21.8125,33.03418 a 0.80008001,0.80008001 0 0 0 0.002,-0.002 c 0.205545,-0.242228 0.555255,-0.359242 0.726563,-0.289063 a 0.80008001,0.80008001 0 0 0 0.0039,0.002 l 6.111328,2.46875 a 0.80008001,0.80008001 0 0 0 0.01367,0.0059 c 0.739748,0.283258 1.528205,0.03805 1.998047,-0.371094 0.469842,-0.409148 0.735423,-0.924979 0.878906,-1.417969 a 0.80000001,0.80000001 0 0 0 -0.542969,-0.992187 0.80000001,0.80000001 0 0 0 -0.992187,0.544922 c -0.06642,0.2282 -0.241271,0.526694 -0.394532,0.660156 -0.152498,0.132799 -0.169437,0.159653 -0.373047,0.08203 l -6.095703,-2.46289 c -0.993005,-0.406801 -1.97927,0.05939 -2.552734,0.734375 l -2.947266,3.451172 c -0.272299,0.295106 -0.441209,0.419921 -0.8125,0.419921 -0.01733,0 -0.0038,0.0034 -0.01563,0.0039 -0.0014,-0.02038 -0.01563,-0.0548 -0.01563,-0.208985 v -8.904297 c 0,-0.406123 0.08637,-0.6037 0.308594,-0.810546 0.222226,-0.206848 0.659269,-0.424024 1.396485,-0.548829 a 0.80000001,0.80000001 0 0 0 0.654296,-0.921875 0.80000001,0.80000001 0 0 0 -0.792968,-0.666015 z m 12.472656,2.404297 a 0.80000001,0.80000001 0 0 0 -0.339844,0.08789 0.80000001,0.80000001 0 0 0 -0.345703,1.076172 c 0.06699,0.130409 0.267646,0.755432 0.396484,1.419922 0.08653,0.446288 0.109628,0.88602 0.144532,1.326172 -1.044287,-0.6547 -2.284957,-1.564343 -2.919922,-2.40625 a 0.80000001,0.80000001 0 0 0 -1.121094,-0.15625 0.80000001,0.80000001 0 0 0 -0.15625,1.121094 c 0.945905,1.254184 2.464177,2.360538 3.707031,3.085937 a 0.80008001,0.80008001 0 0 0 0.002,0 c 0.384115,0.223906 0.759712,0.447265 1.333985,0.283203 0.287136,-0.08203 0.559844,-0.327716 0.68164,-0.576172 0.121149,-0.247132 0.143842,-0.477408 0.142578,-0.701172 0.0033,-0.721633 -0.100054,-1.538119 -0.24414,-2.28125 C 31.980595,27.7501 31.826968,27.129965 31.580125,26.649414 A 0.80000001,0.80000001 0 0 0 30.84375,26.215821 Z" fill="#008055"/>
</svg>
