<svg xmlns="http://www.w3.org/2000/svg" width="48" height="48">
	<path d="m 14.808594,2.7343748 c -1.586185,0 -3.025547,0.4548334 -4.091797,1.3574219 C 9.6505473,4.9943852 9.0078123,6.3568542 9.0078123,7.9042962 V 40.074218 c 0,1.681492 0.620336,3.086002 1.7070317,3.964844 1.086696,0.878842 2.522981,1.226563 4.09375,1.226563 h 18.996094 c 1.547187,0 2.892887,-0.534022 3.810546,-1.486329 0.91766,-0.952305 1.376954,-2.274026 1.376954,-3.705078 V 12.804687 c 0,-1.577085 -0.45093,-2.9306718 -1.396485,-3.8496088 -0.945555,-0.918937 -2.284711,-1.320313 -3.791015,-1.320313 h -7.525391 a 1,1 0 0 0 -1,1 1,1 0 0 0 1,1 h 7.525391 c 1.161695,0 1.91458,0.287522 2.396484,0.7558598 0.481904,0.468338 0.791016,1.200287 0.791016,2.414062 v 27.269531 c 0,1.012839 -0.305515,1.786153 -0.81836,2.31836 -0.512844,0.532207 -1.260508,0.873047 -2.36914,0.873047 H 14.808594 c -1.271481,0 -2.23265,-0.293355 -2.835937,-0.78125 -0.603288,-0.487896 -0.964845,-1.176658 -0.964845,-2.410157 V 7.9042962 c 0,-1.026976 0.363508,-1.748312 1,-2.287109 0.636493,-0.5387963 1.595677,-0.8828124 2.800782,-0.8828124 H 33.5625 a 1,1 0 0 0 1,-1 1,1 0 0 0 -1,-1 z m 6.714844,16.2695312 c -0.490179,0 -1.038655,0.149954 -1.470704,0.552734 -0.43205,0.40278 -0.682489,1.031254 -0.691406,1.753906 a 0.80008001,0.80008001 0 0 0 0,0.0098 v 2.212891 c 0,0.308404 -0.09663,0.413685 -0.279297,0.55664 -0.182669,0.142956 -0.462685,0.246473 -0.61914,0.28711 a 0.80008001,0.80008001 0 0 0 -0.0039,1.546875 c 0.210376,0.0556 0.485283,0.148571 0.65625,0.273437 0.170968,0.124867 0.249591,0.188494 0.246094,0.5 a 0.80008001,0.80008001 0 0 0 0,0.0078 v 2.208984 c 0,0.679083 0.222385,1.29289 0.642578,1.705078 0.420194,0.412188 0.984135,0.585755 1.517578,0.583985 a 0.80000001,0.80000001 0 0 0 0.798829,-0.802735 0.80000001,0.80000001 0 0 0 -0.802735,-0.796875 c -0.201806,6.7e-4 -0.317014,-0.05283 -0.392578,-0.126953 -0.07556,-0.07413 -0.164062,-0.204153 -0.164062,-0.5625 v -2.199219 c 0.0077,-0.688739 -0.328197,-1.218795 -0.708985,-1.585937 0.37564,-0.375409 0.708985,-0.903419 0.708985,-1.595703 v -2.203125 c 0.0049,-0.398928 0.103428,-0.528781 0.183593,-0.603516 0.08017,-0.07474 0.205665,-0.123047 0.378907,-0.123047 a 0.80000001,0.80000001 0 0 0 0.800781,-0.798828 0.80000001,0.80000001 0 0 0 -0.800781,-0.800781 z m 4.960937,0 a 0.80000001,0.80000001 0 0 0 -0.798828,0.800781 0.80000001,0.80000001 0 0 0 0.798828,0.798828 c 0.173272,0 0.300702,0.04832 0.380859,0.123047 0.08016,0.07473 0.178672,0.204578 0.183594,0.603516 v 2.203125 c 0,0.691921 0.331647,1.220287 0.707031,1.595703 -0.380793,0.367144 -0.714769,0.897198 -0.707031,1.585937 v 2.199219 c 0,0.358347 -0.0885,0.488375 -0.164062,0.5625 -0.07556,0.07413 -0.190802,0.127623 -0.392578,0.126953 a 0.80000001,0.80000001 0 0 0 -0.802735,0.796875 0.80000001,0.80000001 0 0 0 0.796875,0.802735 c 0.533433,0.0018 1.097393,-0.171797 1.517578,-0.583985 0.420185,-0.412187 0.644532,-1.025995 0.644532,-1.705078 v -2.208984 a 0.80008001,0.80008001 0 0 0 0,-0.0078 c -0.0035,-0.311505 0.07317,-0.375135 0.24414,-0.5 0.170968,-0.124865 0.445864,-0.217839 0.65625,-0.273437 a 0.80008001,0.80008001 0 0 0 -0.0039,-1.546875 c -0.156461,-0.04064 -0.434507,-0.14415 -0.617188,-0.28711 -0.18268,-0.142959 -0.279296,-0.248246 -0.279296,-0.55664 v -2.212891 a 0.80008001,0.80008001 0 0 0 0,-0.0098 c -0.0089,-0.722642 -0.261313,-1.351119 -0.69336,-1.753906 -0.432047,-0.402786 -0.980515,-0.552734 -1.470703,-0.552734 z m -8.669922,8.234375 a 0.89999998,0.89999998 0 0 0 -0.4375,0.111328 c -1.886561,1.041302 -3.027976,2.545938 -3.041016,4.195313 -0.01304,1.649373 1.107937,3.166946 2.980469,4.21875 3.745063,2.103605 9.418267,2.133022 13.230469,0.08008 1.906101,-1.026472 3.075248,-2.513314 3.125,-4.16211 0.04975,-1.648796 -1.043934,-3.185399 -2.896484,-4.251953 a 0.89999998,0.89999998 0 0 0 -1.228516,0.332029 0.89999998,0.89999998 0 0 0 0.332031,1.228516 c 1.489199,0.857364 2.01905,1.811232 1.994141,2.636719 -0.02491,0.825487 -0.629826,1.798182 -2.179688,2.632812 -3.099723,1.669261 -8.472487,1.633912 -11.496093,-0.06445 -1.511805,-0.849182 -2.069024,-1.811488 -2.0625,-2.636719 0.0065,-0.82523 0.583628,-1.789587 2.111328,-2.632812 a 0.89999998,0.89999998 0 0 0 0.353515,-1.222656 0.89999998,0.89999998 0 0 0 -0.785156,-0.464844 z" fill="#008055"/>
</svg>
