<svg xmlns="http://www.w3.org/2000/svg" width="48" height="48">
	<path d="m 14.808594,2.7353517 c -1.586186,0 -3.02555,0.4528796 -4.091797,1.3554688 C 9.65055,4.9934097 9.0078125,6.3578328 9.0078125,7.9052736 V 40.073242 c 0,1.681492 0.6203349,3.087956 1.7070315,3.966797 1.086696,0.878841 2.522985,1.224609 4.09375,1.224609 h 18.996094 c 1.547191,0 2.892887,-0.532068 3.810547,-1.484375 0.917659,-0.952306 1.376953,-2.275981 1.376953,-3.707031 V 12.803711 c 0,-1.577085 -0.450931,-2.9287193 -1.396485,-3.8476562 C 36.65015,8.0371179 35.310987,7.6337892 33.804688,7.6337892 h -7.525391 a 1,1 0 0 0 -1,1 1,1 0 0 0 1,1 h 7.525391 c 1.16169,0 1.916534,0.2875213 2.398437,0.7558598 0.481904,0.468338 0.789063,1.200287 0.789063,2.414062 v 27.269531 c 0,1.01284 -0.305516,1.786153 -0.818359,2.31836 -0.512844,0.532206 -1.260502,0.873046 -2.369141,0.873046 H 14.808594 c -1.271475,0 -2.232649,-0.291401 -2.835938,-0.779296 -0.603289,-0.487897 -0.964844,-1.178612 -0.964844,-2.41211 V 7.9052736 c 0,-1.0269792 0.36351,-1.7483136 1,-2.2871094 0.636491,-0.5387958 1.595677,-0.8828125 2.800782,-0.8828125 H 33.5625 a 1,1 0 0 0 1,-1 1,1 0 0 0 -1,-1 z m 9.052735,14.1601563 c -0.679478,-0.0014 -1.182242,0.427775 -1.453126,0.732422 -0.270885,0.304646 -0.416519,0.488455 -0.626953,0.578125 -0.239961,0.102253 -0.490786,0.07913 -0.910156,0.07031 -0.419371,-0.0088 -1.069694,0.06181 -1.560547,0.550781 -0.483149,0.481298 -0.538013,1.141925 -0.515625,1.548828 0.02239,0.406904 0.04905,0.639029 -0.03711,0.851563 -0.09825,0.242356 -0.291882,0.405835 -0.595703,0.697266 -0.303821,0.29143 -0.716844,0.803198 -0.720703,1.496093 -0.0038,0.68202 0.422066,1.184278 0.72461,1.455078 0.302543,0.270801 0.483683,0.414103 0.572265,0.625 0.101012,0.240492 0.08061,0.493095 0.07031,0.914063 -0.0103,0.420968 0.05562,1.073524 0.541015,1.564453 0.477777,0.483224 1.135541,0.535651 1.541016,0.511719 0.405475,-0.02393 0.636221,-0.04861 0.847656,0.03711 0.241105,0.09775 0.404102,0.289841 0.69336,0.59375 0.289258,0.303909 0.796016,0.715414 1.486328,0.716797 0.679477,0.0014 1.18224,-0.427775 1.453125,-0.732422 0.270884,-0.304647 0.416519,-0.486502 0.626953,-0.576172 0.239963,-0.102252 0.490785,-0.08109 0.910156,-0.07227 0.419371,0.0088 1.071647,-0.06376 1.5625,-0.552735 0.483149,-0.481297 0.53606,-1.138018 0.513672,-1.544921 -0.02239,-0.406904 -0.04905,-0.639029 0.03711,-0.851563 0.09825,-0.242356 0.291881,-0.405835 0.595703,-0.697266 0.303822,-0.29143 0.716844,-0.803198 0.720703,-1.496093 0.0038,-0.68202 -0.422065,-1.184278 -0.724609,-1.455078 -0.302544,-0.270801 -0.483684,-0.416056 -0.572266,-0.626954 -0.101011,-0.240491 -0.08061,-0.493094 -0.07031,-0.914062 0.0103,-0.420969 -0.05562,-1.075477 -0.541015,-1.566406 -0.477778,-0.483224 -1.135541,-0.535651 -1.541016,-0.511719 -0.405476,0.02393 -0.63622,0.05252 -0.847656,-0.0332 -0.241104,-0.09775 -0.404101,-0.291794 -0.693359,-0.595703 -0.289258,-0.30391 -0.796016,-0.715413 -1.486328,-0.716797 z m -0.0098,1.404297 c 0.229208,4.59e-4 0.256089,0.04335 0.484375,0.283203 0.228286,0.239848 0.567294,0.676344 1.177734,0.923828 0.600091,0.24329 1.136339,0.153349 1.451172,0.134766 0.314834,-0.01858 0.332299,-0.03842 0.470703,0.101562 0.161169,0.163006 0.146799,0.214641 0.138672,0.546875 -0.0081,0.332234 -0.07606,0.883302 0.179688,1.492187 0.25141,0.598563 0.692822,0.914735 0.927734,1.125 0.234911,0.210265 0.258912,0.206728 0.257812,0.404297 -0.0013,0.230066 -0.04538,0.256328 -0.285156,0.486329 -0.239779,0.23 -0.67702,0.571938 -0.925781,1.185546 -0.244544,0.603206 -0.158007,1.143043 -0.140625,1.458985 0.01738,0.315942 0.0384,0.331279 -0.101562,0.470703 -0.162982,0.162357 -0.211997,0.149542 -0.542969,0.142578 -0.330973,-0.007 -0.878782,-0.07529 -1.486328,0.183594 -0.597248,0.254499 -0.916625,0.699002 -1.126953,0.935547 -0.21033,0.236545 -0.205512,0.262114 -0.402344,0.261718 -0.229209,-4.59e-4 -0.256089,-0.04726 -0.484375,-0.287109 -0.228287,-0.239848 -0.567295,-0.676343 -1.177735,-0.923828 -0.600092,-0.243289 -1.136338,-0.153349 -1.451172,-0.134766 -0.314833,0.01858 -0.3323,0.04037 -0.470703,-0.09961 -0.161169,-0.163006 -0.146799,-0.214641 -0.138672,-0.546875 0.0081,-0.332234 0.07801,-0.883302 -0.177734,-1.492188 -0.25141,-0.598562 -0.694777,-0.914734 -0.929688,-1.125 -0.234912,-0.210264 -0.258912,-0.206727 -0.257812,-0.404296 0.0013,-0.230067 0.04538,-0.258282 0.285156,-0.488282 0.23978,-0.23 0.67702,-0.569985 0.925781,-1.183594 0.244545,-0.603205 0.158007,-1.143041 0.140625,-1.458984 -0.01738,-0.315941 -0.0384,-0.331279 0.101563,-0.470703 0.16298,-0.162357 0.211996,-0.147589 0.542968,-0.140625 0.330972,0.007 0.878782,0.07334 1.486329,-0.185547 0.597247,-0.2545 0.916624,-0.699002 1.126953,-0.935547 0.21033,-0.236545 0.205511,-0.260161 0.402344,-0.259764 z m -0.222656,1.316406 c -1.184434,0.0859 -2.309214,0.739281 -2.945313,1.84375 -0.980831,1.703033 -0.428042,3.859732 1.183593,4.935547 a 0.70174023,0.69826544 85.000038 0 0 0.154297,0.138672 c 0.0018,0.001 0.0022,0.0029 0.0039,0.0039 a 0.70174023,0.69826544 85.000038 0 0 0.0293,0.01563 0.70174023,0.69826544 85.000038 0 0 0.201172,0.06836 0.70174023,0.69826544 85.000038 0 0 0.0078,0 c 1.733935,0.856446 3.862207,0.2547 4.833985,-1.451172 1.00943,-1.77197 0.396238,-4.05308 -1.365235,-5.072265 -0.660552,-0.382195 -1.392855,-0.533964 -2.103515,-0.482422 z m 0.09375,1.392578 c 0.441362,-0.03064 0.897146,0.06827 1.3125,0.308594 1.107609,0.640861 1.485087,2.038768 0.849609,3.154297 -0.635479,1.115528 -2.03001,1.49887 -3.140625,0.863281 a 0.70174023,0.69826544 85.000038 0 0 -0.0078,-0.0059 0.70174023,0.69826544 85.000038 0 0 -0.0098,-0.0059 c -1.10458,-0.646118 -1.474708,-2.04766 -0.833985,-3.160156 0.400452,-0.69531 1.094475,-1.103227 1.830079,-1.154297 z m 2.738281,8.0625 a 0.69999999,0.69999999 0 0 0 -0.183594,0.02148 0.69999999,0.69999999 0 0 0 -0.507812,0.84961 l 1.886718,7.490234 -3.349609,-2.884765 a 0.70006999,0.70006999 0 0 0 -0.917969,0.002 l -3.355469,2.9375 1.898472,-7.494184 a 0.69999999,0.69999999 0 0 0 -0.50586,-0.851562 0.69999999,0.69999999 0 0 0 -0.849609,0.507812 l -2,7.884766 a 0.70006999,0.70006999 0 0 0 -0.02148,0.171875 c 0,0.666613 0.351248,1.302289 0.945313,1.466797 0.519348,0.143815 1.033381,-0.115697 1.337891,-0.533204 l 3.015625,-2.634765 3.041016,2.61914 c 0.303736,0.416496 0.818635,0.684215 1.333984,0.533203 0.593321,-0.173858 0.919922,-0.802421 0.919922,-1.451171 a 0.70006999,0.70006999 0 0 0 -0.02148,-0.171875 l -2,-7.933594 a 0.69999999,0.69999999 0 0 0 -0.666015,-0.529297 z" fill="#008055"/>
</svg>
