<svg xmlns="http://www.w3.org/2000/svg" width="48" height="48">
	<path d="m 14.808594,2.7353517 c -1.586185,0 -3.027503,0.4548329 -4.09375,1.3574216 -1.0662475,0.902589 -1.7070315,2.265059 -1.7070315,3.8125 V 40.075195 c 0,1.681491 0.618383,3.086002 1.7050785,3.964844 1.086696,0.878842 2.524933,1.224609 4.095703,1.224609 h 18.99414 c 1.547191,0 2.892888,-0.532068 3.810547,-1.484375 0.917659,-0.952306 1.378907,-2.274028 1.378907,-3.705078 V 12.805664 c 0,-1.577085 -0.45093,-2.9306727 -1.396485,-3.8496087 -0.945554,-0.918937 -2.28667,-1.320313 -3.792969,-1.320313 h -7.523437 a 1,1 0 0 0 -1,1 1,1 0 0 0 1,1 h 7.523437 c 1.16169,0 1.916534,0.287521 2.398438,0.7558587 0.481904,0.468338 0.791016,1.200288 0.791016,2.414063 v 27.269531 c 0,1.01284 -0.305516,1.786153 -0.81836,2.31836 -0.512844,0.532206 -1.262454,0.871093 -2.371094,0.871093 h -18.99414 c -1.27148,0 -2.234603,-0.291401 -2.837891,-0.779297 -0.603286,-0.487895 -0.962891,-1.176657 -0.962891,-2.410156 V 7.9052733 c 0,-1.026979 0.36351,-1.748313 1,-2.287109 0.636491,-0.538796 1.595677,-0.882813 2.800782,-0.882813 h 18.751953 a 1,1 0 0 0 1,-1 1,1 0 0 0 -1,-0.9999996 z M 32.392578,19.551758 c -0.253424,0.01545 -0.433323,0.118311 -0.621094,0.214843 -0.25036,0.128711 -0.49788,0.297356 -0.753906,0.496094 a 0.70006999,0.70006999 0 0 0 -0.01172,0.0098 c -1.183908,0.959824 -1.867041,2.620595 -2.132812,3.548828 -0.04004,0.126387 -0.05723,0.137405 -0.08789,0.197266 -0.05206,-0.03937 -0.04769,-0.03948 -0.195312,-0.1875 a 0.70006999,0.70006999 0 0 0 -0.0059,-0.0039 c -1.12193,-1.101737 -3.000217,-3.205078 -5.703125,-3.205078 -2.630682,0 -4.767565,1.226954 -6.044921,3.099609 -1.184913,1.737128 -1.561548,4.021106 -1.169922,6.376954 -0.282687,0.210486 -0.508152,0.482599 -0.533204,0.845703 -0.04024,0.583198 0.391892,1.102325 0.949219,1.324219 0,0 0.002,0.002 0.002,0.002 2.044399,0.826525 4.032227,0.862191 6.417969,-0.04492 a 0.69999999,0.69999999 0 0 0 -0.12696,0.09952 c -0.909948,0.923716 -3.568223,1.432103 -5.710937,0.390625 a 0.70006999,0.70006999 0 0 0 -0.865235,1.048828 c 0.586766,0.780537 1.409377,1.407639 3.044922,1.8125 1.114949,0.942576 2.627222,1.433794 4.564453,1.273438 1.214708,-0.08011 2.411972,-0.730906 3.515625,-1.59375 1.10257,-0.861998 2.102723,-1.957229 2.824219,-3.052735 0.06426,-0.08753 0.100873,-0.12203 0.130859,-0.154296 0.05703,0.03578 0.14425,0.09161 0.294922,0.236328 0.451751,0.439205 1.028984,0.815756 1.527344,1.013672 0.282066,0.118596 0.564186,0.19207 0.892578,0.128906 0.331308,-0.06373 0.688221,-0.378502 0.777344,-0.716797 0.174808,-0.663544 -0.147962,-1.137512 -0.597656,-1.650391 -1.193216,-1.514742 -0.397521,-3.842566 -0.0625,-5.064453 a 0.70006999,0.70006999 0 0 0 0.02344,-0.228515 c -0.08195,-1.317712 0.0526,-3.313569 0.400391,-4.183594 0.172224,-0.386279 0.279992,-0.683847 0.291015,-1.025391 0.0056,-0.174837 -0.01578,-0.384994 -0.15039,-0.595703 -0.134611,-0.210709 -0.394211,-0.359462 -0.601563,-0.394531 -0.103676,-0.01753 -0.196776,-0.02273 -0.28125,-0.01758 z m -15.097656,1.6875 a 0.69999999,0.69999999 0 0 0 -0.181641,0.0332 c -2.204051,0.698255 -3.525746,2.979061 -3.140625,5.902344 a 0.69999999,0.69999999 0 0 0 0.785156,0.603515 0.69999999,0.69999999 0 0 0 0.603516,-0.785156 c -0.323919,-2.458718 0.614559,-3.892734 2.173828,-4.386719 a 0.69999999,0.69999999 0 0 0 0.455078,-0.878906 0.69999999,0.69999999 0 0 0 -0.695312,-0.488281 z m 14.419922,0.414062 c -0.357735,1.260573 -0.449495,2.808394 -0.378906,4.072266 -0.290076,1.017318 -1.18588,3.617759 0.136718,5.771484 -0.127592,-0.09076 -0.252043,-0.146538 -0.324218,-0.216797 a 0.70006999,0.70006999 0 0 0 -0.0039,-0.0039 c -0.441575,-0.424133 -0.875262,-0.743915 -1.451172,-0.673828 -0.575909,0.07009 -0.864485,0.478038 -1.097656,0.810547 a 0.70006999,0.70006999 0 0 0 -0.01172,0.01563 c -0.627494,0.954257 -1.55055,1.963998 -2.523437,2.724609 -0.972887,0.760611 -2.002601,1.252452 -2.746094,1.300781 a 0.70006999,0.70006999 0 0 0 -0.01367,0 c -1.490607,0.125016 -2.459769,-0.201701 -3.234375,-0.736328 1.326,-0.121793 2.514093,-0.607599 3.304688,-1.410156 a 0.69999999,0.69999999 0 0 0 -0.0059,-0.990234 0.69999999,0.69999999 0 0 0 -0.578125,-0.195313 c 0.380034,-0.154628 0.769187,-0.330339 1.171875,-0.533203 a 0.69999999,0.69999999 0 0 0 0.310547,-0.941406 0.69999999,0.69999999 0 0 0 -0.941406,-0.310547 c -2.758947,1.389883 -4.453657,1.448445 -6.5,0.673828 a 0.70006999,0.70006999 0 0 0 0.222656,-0.677734 c -0.491968,-2.212961 -0.09389,-4.304482 0.941407,-5.822266 1.035295,-1.517784 2.682372,-2.490234 4.888671,-2.490234 1.946695,0 3.544652,1.64953 4.716797,2.800781 8.69e-4,8.7e-4 0.003,0.0011 0.0039,0.002 0,0 0.002,0.002 0.002,0.002 0.284111,0.285756 0.585808,0.676242 1.240234,0.705078 0.328823,0.01449 0.6965,-0.161843 0.914063,-0.408203 0.217562,-0.24636 0.345301,-0.537733 0.457031,-0.902344 a 0.70006999,0.70006999 0 0 0 0.0039,-0.01172 c 0.167279,-0.584244 0.863192,-1.871393 1.496094,-2.554688 z m -8.941406,0.501953 a 0.69999999,0.69999999 0 0 0 -0.371094,0.121094 c -1.110943,0.753443 -1.732422,1.955886 -1.732422,3.289062 a 0.70006999,0.70006999 0 0 0 0,0.01367 c 0.0237,1.150681 0.306847,2.251653 0.916016,3.113282 0.609168,0.861628 1.600248,1.455078 2.791015,1.455078 0.925165,0 1.730306,-0.480592 2.28711,-1.140625 0.556803,-0.660034 0.898437,-1.515918 0.898437,-2.41211 0,-1.062038 -0.355668,-1.751913 -0.607422,-2.085937 a 0.69999999,0.69999999 0 0 0 -0.980469,-0.136719 0.69999999,0.69999999 0 0 0 -0.136718,0.980469 c 0.02929,0.03886 0.326172,0.521965 0.326172,1.242187 0,0.526129 -0.22347,1.09862 -0.570313,1.509766 -0.346843,0.411146 -0.783163,0.644531 -1.216797,0.644531 -0.760013,0 -1.250961,-0.305793 -1.646484,-0.865234 -0.394211,-0.557585 -0.637576,-1.397589 -0.658203,-2.326172 0.0023,-0.928678 0.351003,-1.604744 1.115234,-2.123047 a 0.69999999,0.69999999 0 0 0 0.1875,-0.972656 0.69999999,0.69999999 0 0 0 -0.601562,-0.306641 z m 1.728515,3.16211 a 1.1022366,1.0961136 0 0 0 -1.101562,1.097656 1.1022366,1.0961136 0 0 0 1.101562,1.095703 1.1022366,1.0961136 0 0 0 1.103516,-1.095703 1.1022366,1.0961136 0 0 0 -1.103516,-1.097656 z" fill="#008055"/>
</svg>
