<svg xmlns="http://www.w3.org/2000/svg" width="48" height="48">
	<path d="m 14.80957,2.735352 c -1.586185,0 -3.027503,0.452879 -4.09375,1.355468 C 9.6495735,4.993409 9.0068359,6.357833 9.0068359,7.905273 v 32.167969 c 0,1.681492 0.6203351,3.087956 1.7070311,3.966797 1.086696,0.878841 2.524938,1.224609 4.095703,1.224609 h 18.994141 c 1.547195,0 2.892888,-0.532067 3.810547,-1.484375 0.917658,-0.952307 1.378906,-2.275982 1.378906,-3.707031 V 12.803711 c 0,-1.577084 -0.452886,-2.928719 -1.398437,-3.847656 C 36.649175,8.037117 35.31001,7.633789 33.803711,7.633789 H 26.27832 a 1,1 0 0 0 -1,1 1,1 0 0 0 1,1 h 7.525391 c 1.16169,0 1.916536,0.287522 2.398437,0.755859 0.481901,0.468338 0.791016,1.200287 0.791016,2.414063 v 27.269531 c 0,1.012841 -0.307471,1.786153 -0.820313,2.31836 -0.512841,0.532205 -1.260495,0.873046 -2.36914,0.873046 H 14.80957 c -1.271475,0 -2.234602,-0.291401 -2.83789,-0.779296 -0.603289,-0.487897 -0.964844,-1.178612 -0.964844,-2.41211 V 7.905273 c 0,-1.026979 0.363509,-1.748313 1,-2.287109 0.63649,-0.538796 1.59763,-0.882812 2.802734,-0.882812 h 18.751953 a 1,1 0 0 0 1,-1 1,1 0 0 0 -1,-1 z m 14.207031,17.378906 c -0.163661,-0.0034 -0.327659,0.005 -0.492187,0.02539 -0.439363,0.05455 -0.878276,0.19575 -1.291016,0.433594 a 0.80008001,0.80008001 0 0 0 -0.02539,0.01563 c -1.181018,0.741927 -1.806085,2.055374 -1.640625,3.384766 a 0.80008001,0.80008001 0 0 0 0,0.002 c 0.01772,0.138747 0.06096,0.169283 -0.136719,0.267578 a 0.80008001,0.80008001 0 0 0 -0.01563,0.0078 l -5.269531,2.761719 c -0.181518,0.08816 -0.160446,0.06251 -0.246094,-0.03711 l -0.01172,-0.01172 C 19.024441,26.000785 17.68128,25.6022 16.374017,25.94828 a 0.80008001,0.80008001 0 0 0 -0.0293,0.0078 c -1.820818,0.557119 -2.786981,2.46012 -2.322266,4.177734 0.339948,1.289234 1.596023,2.613895 3.457031,2.550781 a 0.80008001,0.80008001 0 0 0 0.03516,-0.002 c 1.188864,-0.09428 2.05538,-0.671385 2.546875,-1.314453 0.02748,-0.03608 0.14825,0.0034 0.08398,-0.03906 a 0.80008001,0.80008001 0 0 0 0.05469,0.0332 l 5.242188,2.880859 c 0.05041,0.02897 0.144395,0.05711 0.105468,0.369141 a 0.80008001,0.80008001 0 0 0 -0.002,0.0293 c -0.111436,1.283469 0.51336,2.533202 1.654297,3.25 a 0.80008001,0.80008001 0 0 0 0.02734,0.01562 c 1.64879,0.950103 3.697682,0.358366 4.638672,-1.15039 v -0.002 c 0.712043,-1.127468 0.825882,-2.950157 -0.490234,-4.267578 a 0.80008001,0.80008001 0 0 0 -0.02539,-0.02344 C 31.023164,32.164463 30.669022,31.998196 30.319278,31.8427 a 0.80008001,0.80008001 0 0 0 -0.277344,-0.167968 0.80008001,0.80008001 0 0 0 -0.01758,-0.0059 c -0.190325,-0.06085 -0.286468,-0.144937 -0.287109,-0.291015 v -0.002 l 0.0078,-4.148437 a 0.80008001,0.80008001 0 0 0 0,-0.002 c 0,-0.330402 -0.02409,-0.28727 0.228516,-0.378906 l -0.03906,0.01367 c 0.481224,-0.147203 0.966088,-0.425211 1.423828,-0.84375 a 0.80008001,0.80008001 0 0 0 0.02539,-0.02539 c 1.316068,-1.317435 1.202285,-3.140113 0.490234,-4.267578 -0.617056,-0.990407 -1.711789,-1.585564 -2.857422,-1.609375 z m 0.07227,1.605468 c 0.115749,0.0085 0.230812,0.0288 0.341797,0.05859 0.448331,0.120353 0.845684,0.402736 1.087891,0.792969 a 0.80008001,0.80008001 0 0 0 0.0039,0.0059 c 0.345006,0.545577 0.487179,1.509022 -0.263672,2.271485 -0.296985,0.26673 -0.559859,0.409162 -0.792969,0.480469 a 0.80008001,0.80008001 0 0 0 -0.03906,0.01367 c -0.766633,0.278104 -1.28125,1.087934 -1.28125,1.882813 l -0.0078,4.148437 a 0.80008001,0.80008001 0 0 0 0,0.002 c 0,0.753212 0.48616,1.258909 1.03125,1.570313 a 0.80008001,0.80008001 0 0 0 0.34961,0.240234 c 0.236427,0.08182 0.484431,0.223241 0.732422,0.445313 0.749182,0.762216 0.608455,1.726254 0.263671,2.271484 a 0.80008001,0.80008001 0 0 0 -0.0039,0.0039 c -0.482423,0.77721 -1.574824,1.124362 -2.472656,0.615235 -0.673011,-0.430479 -0.960117,-1.031794 -0.898438,-1.742188 l -0.0039,0.0293 c 0.106273,-0.851868 -0.302703,-1.613015 -0.894531,-1.953125 a 0.80008001,0.80008001 0 0 0 -0.01367,-0.0078 l -5.255859,-2.888672 0.05469,0.0332 c -0.713725,-0.471164 -1.677121,-0.332425 -2.238281,0.404297 -0.242965,0.317443 -0.638659,0.615926 -1.382813,0.681641 -1.065299,0.02427 -1.674359,-0.731222 -1.83789,-1.353516 a 0.80008001,0.80008001 0 0 0 0,-0.0078 c -0.239833,-0.882211 0.251626,-1.91557 1.236298,-2.224711 0.780258,-0.199733 1.421325,0.0051 1.90039,0.544922 a 0.80008001,0.80008001 0 0 0 0.01563,0.01758 c 0.465771,0.495421 1.356673,0.769656 2.125,0.396484 a 0.80008001,0.80008001 0 0 0 0.02148,-0.01172 l 5.291016,-2.771485 -0.01563,0.0059 c 0.792321,-0.393987 1.093641,-1.260468 1.013672,-1.898438 v -0.0039 c -0.09107,-0.74249 0.195061,-1.369605 0.890625,-1.814453 0.334877,-0.189401 0.695724,-0.263691 1.042969,-0.238282 z" fill="#008055"/>
</svg>
