<svg xmlns="http://www.w3.org/2000/svg" width="48" height="48">
	<path d="m 14.808594,2.7353515 c -1.586185,0 -3.025551,0.45288 -4.091797,1.355469 -1.0662465,0.902589 -1.7089845,2.267012 -1.7089845,3.814453 V 40.075195 c 0,1.681492 0.620335,3.086003 1.7070315,3.964844 1.086696,0.878842 2.522984,1.224609 4.09375,1.224609 h 18.996094 c 1.54719,0 2.892887,-0.532068 3.810546,-1.484375 0.91766,-0.952306 1.376954,-2.274028 1.376954,-3.705078 V 12.805664 c 0,-1.577085 -0.45093,-2.9306725 -1.396485,-3.8496095 -0.945554,-0.918937 -2.284715,-1.320312 -3.791015,-1.320312 h -7.525391 a 1,1 0 0 0 -1,1 1,1 0 0 0 1,1 h 7.525391 c 1.16169,0 1.916533,0.285568 2.398437,0.7539055 0.481904,0.468338 0.789063,1.202242 0.789063,2.416016 v 27.269531 c 0,1.01284 -0.305516,1.7842 -0.81836,2.316407 -0.512842,0.532206 -1.260502,0.873046 -2.36914,0.873046 H 14.808594 c -1.271476,0 -2.232649,-0.291401 -2.835938,-0.779296 -0.603289,-0.487896 -0.964844,-1.176659 -0.964844,-2.410157 V 7.9052735 c 0,-1.026979 0.36351,-1.748313 1,-2.287109 0.636491,-0.538796 1.595677,-0.882813 2.800782,-0.882813 H 33.5625 a 1,1 0 0 0 1,-1 1,1 0 0 0 -1,-1 z m 2.167969,15.5781255 a 0.89999998,0.89999998 0 0 0 -0.900391,0.90039 v 1.421875 c 0,1.232048 1.012473,2.320313 2.277344,2.320313 h 6.871093 c 3.694793,0 6.105469,2.708112 6.105469,6.02539 0,2.134943 -0.723512,3.68552 -1.828125,4.744141 -1.104611,1.058622 -2.623269,1.628906 -4.277344,1.628906 h -6.871093 c -0.562852,0 -1.135275,0.139449 -1.585938,0.525391 -0.450662,0.385942 -0.691406,0.999752 -0.691406,1.611328 v 1.236328 a 0.89999998,0.89999998 0 0 0 0.900391,0.900391 0.89999998,0.89999998 0 0 0 0.90039,-0.900391 v -1.236328 c 0,-0.215884 0.0328,-0.218708 0.0625,-0.244141 0.0297,-0.02543 0.146875,-0.0918 0.414063,-0.0918 h 6.871093 c 2.070437,0 4.056258,-0.722812 5.523438,-2.128907 1.467179,-1.406094 2.382812,-3.490164 2.382812,-6.044922 0,-4.22574 -3.299823,-7.826171 -7.90625,-7.826171 h -6.871093 c -0.33591,0 -0.476563,-0.14926 -0.476563,-0.519532 v -1.421875 a 0.89999998,0.89999998 0 0 0 -0.90039,-0.90039 z m 0,5.36914 a 0.89999998,0.89999998 0 0 0 -0.900391,0.898438 v 9.228515 a 0.89999998,0.89999998 0 0 0 0.900391,0.900391 0.89999998,0.89999998 0 0 0 0.90039,-0.900391 v -9.228515 a 0.89999998,0.89999998 0 0 0 -0.90039,-0.898438 z m 6.982421,1.283203 c -0.573645,0.01299 -0.95675,0.417603 -1.167968,0.816407 l -2.921875,5.068359 c 0,0 0,0.002 0,0.002 -0.244172,0.404066 -0.320783,0.96495 -0.05859,1.412109 0.262549,0.447777 0.769227,0.652344 1.234375,0.652344 a 0.80000001,0.80000001 0 0 0 0.800781,-0.800781 0.80000001,0.80000001 0 0 0 -0.447265,-0.716797 l 2.585937,-4.484375 2.537109,4.40039 h -3.52539 a 0.80000001,0.80000001 0 0 0 -0.798828,0.800782 0.80000001,0.80000001 0 0 0 0.798828,0.798828 h 3.945312 c 0.467709,0 0.986334,-0.21731 1.236328,-0.673828 0.249995,-0.456519 0.158896,-0.999106 -0.08203,-1.396485 L 25.169922,25.768555 C 24.94674,25.358618 24.53263,24.952833 23.958984,24.96582 Z" fill="#008055"/>
</svg>
