<svg xmlns="http://www.w3.org/2000/svg" width="48" height="48">
	<path d="m 14.808594,2.7353515 c -1.586186,0 -3.027503,0.4528792 -4.09375,1.3554691 -1.066247,0.902589 -1.707032,2.267012 -1.707032,3.814453 V 40.075195 c 0,1.681492 0.618382,3.086003 1.705079,3.964844 1.086696,0.878842 2.524938,1.224609 4.095703,1.224609 h 18.996094 c 1.54719,0 2.890934,-0.532069 3.808593,-1.484375 0.91766,-0.952306 1.378907,-2.274028 1.378907,-3.705078 V 12.805663 c 0,-1.577084 -0.450931,-2.9306714 -1.396485,-3.8496084 -0.945554,-0.918937 -2.284717,-1.320313 -3.791015,-1.320313 h -7.525391 a 1,1 0 0 0 -1,1 1,1 0 0 0 1,1 h 7.525391 c 1.16169,0 1.91458,0.285569 2.396484,0.7539074 0.481903,0.468338 0.791016,1.20224 0.791016,2.416014 v 27.269532 c 0,1.012839 -0.305517,1.7842 -0.81836,2.316407 -0.512843,0.532206 -1.260503,0.873046 -2.36914,0.873046 H 14.808594 c -1.271475,0 -2.234602,-0.291401 -2.837891,-0.779296 -0.603289,-0.487896 -0.962891,-1.17666 -0.962891,-2.410157 V 7.9052736 c 0,-1.026979 0.36351,-1.748314 1,-2.28711 0.636491,-0.538795 1.595677,-0.882812 2.800782,-0.882812 H 33.5625 a 1,1 0 0 0 1,-1 1,1 0 0 0 -1,-1.0000001 z m 5.017578,16.3593755 c -0.869693,0.0121 -1.755223,0.356564 -2.445313,1.123046 l -2.048828,2.275391 a 0.80008001,0.80008001 0 0 0 -0.0039,0.0039 c -1.357461,1.528773 -1.028537,3.681018 0.232422,4.816406 1.280499,1.153045 3.47648,1.21301 4.818359,-0.277344 l 0.296875,-0.330078 a 0.80000001,0.80000001 0 0 0 -0.05859,-1.128906 0.80000001,0.80000001 0 0 0 -1.13086,0.05859 l -0.296875,0.330079 c -0.7312,0.812105 -1.951913,0.704497 -2.558594,0.158203 -0.626301,-0.563933 -0.888567,-1.682527 -0.105468,-2.564453 l 2.044921,-2.271485 c 0.810082,-0.899755 1.873085,-0.72901 2.535157,-0.132812 0.372003,0.334951 0.601123,0.800333 0.662109,1.214844 0.06099,0.414509 -0.03987,0.731338 -0.208984,0.904296 -0.373405,0.377663 -0.576844,0.972353 -0.453125,1.4375 0.124352,0.467529 0.396622,0.716449 0.589843,0.910157 a 0.80008001,0.80008001 0 0 0 0.0293,0.0293 l 9.867188,8.892578 c 0.366096,0.337135 0.237712,0.44324 0.138672,0.552734 -0.09904,0.109494 -0.18779,0.245346 -0.552735,-0.08203 l 0.02734,0.02539 c -0.329523,-0.324655 -0.875343,-0.535992 -1.322266,-0.417968 -0.446921,0.118023 -0.66959,0.378919 -0.847656,0.570312 a 0.80008001,0.80008001 0 0 0 -0.0098,0.0098 l -1,1.111328 c -0.06003,0.05849 -0.02089,0.0344 -0.05078,0.05469 l -1.597656,-1.484375 1.003906,-1.115234 -0.01953,0.01953 c 0.303426,-0.314755 0.52632,-0.799539 0.451172,-1.263672 -0.07515,-0.464134 -0.341963,-0.766339 -0.607422,-1.013672 a 0.80008001,0.80008001 0 0 0 -0.01172,-0.0098 l -4.964843,-4.457031 a 0.80000001,0.80000001 0 0 0 -1.13086,0.06055 0.80000001,0.80000001 0 0 0 0.0625,1.130859 L 26.125,32.69043 c 0.04044,0.04125 0.02958,0.01445 0.04297,0.0332 l -0.984375,1.09375 c 0,0 0,0.002 0,0.002 -0.224775,0.238625 -0.472725,0.535023 -0.503906,0.996095 -0.03123,0.461792 0.221457,0.856834 0.486328,1.125 a 0.80008001,0.80008001 0 0 0 0.02344,0.02344 l 1.730469,1.607421 c 0.300009,0.302016 0.793502,0.527938 1.246094,0.451172 0.452591,-0.07677 0.731965,-0.324167 0.976562,-0.5625 a 0.80008001,0.80008001 0 0 0 0.03711,-0.03711 l 1.027343,-1.140625 0.0039,-0.0059 c 0.02891,-0.02945 0.0011,-0.01076 0.02148,-0.02734 0.878438,0.690175 2.068423,0.602184 2.685547,-0.08008 0.643617,-0.711554 0.635216,-1.99474 -0.242188,-2.802735 a 0.80008001,0.80008001 0 0 0 -0.0078,-0.0039 L 22.82813,24.491222 c -0.0055,-0.0055 -6.14e-4,-0.0024 -0.0059,-0.0078 -0.08431,-0.08724 -0.08728,-0.08722 -0.107422,-0.113281 0.579222,-0.607384 0.750261,-1.449373 0.634765,-2.234376 -0.116801,-0.793881 -0.513201,-1.575093 -1.173828,-2.169921 -0.625984,-0.5637 -1.479917,-0.883195 -2.349609,-0.871094 z" fill="#008055"/>
</svg>
