<svg xmlns="http://www.w3.org/2000/svg" width="48" height="48">
	<path d="m 14.809571,2.7353517 c -1.58619,0 -3.027509,0.4528777 -4.09375,1.3554686 -1.066242,0.902591 -1.708985,2.267016 -1.708985,3.814453 V 40.073242 c 0,1.681487 0.620338,3.087952 1.707032,3.966797 1.086693,0.878844 2.524911,1.224609 4.095703,1.224609 h 18.99414 c 1.547179,0 2.89289,-0.532069 3.810547,-1.484375 0.917657,-0.952305 1.378906,-2.275979 1.378906,-3.707031 V 12.805664 c 0,-1.577083 -0.452886,-2.9306717 -1.398437,-3.8496087 -0.945551,-0.918939 -2.284712,-1.322266 -3.791016,-1.322266 h -7.523437 a 1,1 0 0 0 -1,1 1,1 0 0 0 1,1 h 7.523437 c 1.161696,0 1.916538,0.287523 2.398438,0.7558587 0.481899,0.468337 0.791015,1.202238 0.791015,2.416016 v 27.267578 c 0,1.012838 -0.305516,1.786152 -0.818359,2.318359 -0.512843,0.532207 -1.262472,0.873047 -2.371094,0.873047 h -18.99414 c -1.271509,0 -2.23461,-0.291404 -2.837891,-0.779297 -0.603281,-0.487893 -0.964844,-1.178606 -0.964844,-2.412109 V 7.9052733 c 0,-1.026983 0.363517,-1.748315 1,-2.287109 0.636484,-0.538794 1.597624,-0.882813 2.802735,-0.882813 h 18.751953 a 1,1 0 0 0 1,-1 1,1 0 0 0 -1,-0.9999996 z m 2.59375,17.6484373 a 1,1 0 0 0 -1,1 v 10.121094 c 0,1.263241 0.419217,2.367182 1.189453,3.115234 0.770235,0.748052 1.831429,1.099609 2.941406,1.099609 h 11.515625 a 1,1 0 0 0 1,-1 1,1 0 0 0 -1,-1 H 20.53418 c -0.704023,0 -1.207113,-0.20133 -1.548828,-0.533203 -0.341715,-0.331873 -0.582031,-0.834382 -0.582031,-1.68164 V 21.383789 a 1,1 0 0 0 -1,-1 z m 6.634765,0 a 1,1 0 0 0 -1,1 v 10.583984 a 1,1 0 0 0 1,1 1,1 0 0 0 1,-1 V 21.383789 a 1,1 0 0 0 -1,-1 z m 6.8125,0 a 1,1 0 0 0 -1,1 v 10.679687 a 1,1 0 0 0 1,1 1,1 0 0 0 1,-1 V 21.383789 a 1,1 0 0 0 -1,-1 z" fill="#008055"/>
</svg>
