<svg xmlns="http://www.w3.org/2000/svg" width="48" height="48">
	<path d="m 14.375976,6.626953 c -1.75766,0 -3.407851,0.510326 -4.6406246,1.591797 C 8.502578,9.300221 7.7939452,10.945003 7.7939452,12.697266 V 35.28125 c 0,1.857116 0.6749112,3.572901 1.953125,4.644531 1.2782138,1.071631 2.9234608,1.447266 4.6289058,1.447266 H 33.99707 c 1.74454,0 3.362488,-0.609024 4.492188,-1.734375 1.1297,-1.125351 1.716797,-2.70721 1.716797,-4.357422 V 15.273438 c 0,-1.767693 -0.574645,-3.417818 -1.757813,-4.521485 C 37.265074,9.648286 35.658444,9.203125 33.99707,9.203125 h -8.183593 a 1.9,1.9 0 0 0 -1.900391,1.900391 1.9,1.9 0 0 0 1.900391,1.90039 h 8.183593 c 1.006617,0 1.555339,0.243736 1.859375,0.527344 0.304037,0.283608 0.550782,0.719019 0.550782,1.742188 V 35.28125 c 0,0.793679 -0.23906,1.306854 -0.59961,1.666016 -0.360549,0.359161 -0.899256,0.625 -1.810547,0.625 H 14.375976 c -1.136794,0 -1.835503,-0.263487 -2.1875,-0.558594 -0.351996,-0.295107 -0.59375,-0.674547 -0.59375,-1.732422 V 12.697266 c 0,-0.822158 0.236246,-1.261205 0.646485,-1.621094 0.410239,-0.359889 1.101136,-0.648438 2.134765,-0.648438 h 7.720704 a 1.9,1.9 0 0 0 1.90039,-1.90039 1.9,1.9 0 0 0 -1.90039,-1.900391 z m 9.667969,10.007813 c -1.869103,-0.03629 -3.75969,0.521921 -5.365234,1.707031 -0.917454,0.677206 -1.666507,1.504429 -2.236328,2.423828 -1.709466,2.758197 -1.806326,6.34994 0.002,9.253906 a 0.99999671,1.0000033 85.003128 0 0 1.376953,0.322266 0.99999671,1.0000033 85.003128 0 0 0.320313,-1.378906 c -1.869228,-3.001843 -1.120517,-6.911629 1.724609,-9.011719 2.845127,-2.100089 6.803189,-1.662844 9.121094,1.007812 2.317905,2.670658 2.194435,6.652575 -0.285156,9.173828 -2.479591,2.521255 -6.457078,2.708601 -9.166016,0.435547 a 0.99999671,1.0000033 85.003128 0 0 -1.408203,0.125 0.99999671,1.0000033 85.003128 0 0 0.123047,1.408203 c 3.494149,2.93192 8.678627,2.681752 11.876953,-0.570312 3.198326,-3.252064 3.358912,-8.43804 0.36914,-11.882812 -1.681746,-1.937684 -4.049992,-2.967019 -6.453125,-3.013672 z m -0.01367,5.035156 c -0.609765,-0.0374 -1.233455,0.07915 -1.810546,0.363281 -0.769455,0.378839 -1.354676,1.006347 -1.691407,1.746094 -0.336729,0.739748 -0.426658,1.590871 -0.207031,2.419922 a 0.8999928,0.90000715 85.006324 0 0 1.09961,0.640625 0.8999928,0.90000715 85.006324 0 0 0.640624,-1.09961 c -0.222542,-0.840058 0.171503,-1.707927 0.951172,-2.091796 0.779669,-0.38387 1.708156,-0.169092 2.238282,0.519531 0.530126,0.688621 0.502174,1.641344 -0.06836,2.296875 -0.570534,0.655531 -1.510421,0.814778 -2.265625,0.384765 a 0.8999928,0.90000715 85.006324 0 0 -1.226564,0.337891 0.8999928,0.90000715 85.006324 0 0 0.335937,1.228516 c 1.490612,0.848754 3.387553,0.524357 4.513672,-0.769532 1.126119,-1.293887 1.183075,-3.216977 0.136719,-4.576172 -0.653973,-0.849496 -1.630209,-1.338059 -2.646485,-1.40039 z" fill="#008055"/>
</svg>
