<svg xmlns="http://www.w3.org/2000/svg" width="48" height="48">
	<path d="m 14.808594,1.7353515 c -1.776729,0 -3.457161,0.5092604 -4.738282,1.59375 C 8.7891925,4.4135914 8.0078125,6.0976094 8.0078125,7.9052735 V 40.075195 c 0,1.905478 0.749725,3.667867 2.0781245,4.742187 1.328401,1.074321 3.002224,1.447266 4.722657,1.447266 h 18.996094 c 1.766457,0 3.409233,-0.628661 4.529296,-1.791016 1.120064,-1.162354 1.658204,-2.758279 1.658204,-4.398437 V 14.805664 c 0,-1.758735 -0.521842,-3.422167 -1.699219,-4.566407 C 37.115592,9.0950184 35.483295,8.6357424 33.804688,8.6357424 h -5.59375 a 2,2 0 0 0 -2,1.9999996 2,2 0 0 0 2,2 h 5.59375 c 0.989392,0 1.451098,0.22962 1.701171,0.472656 0.250074,0.243036 0.486329,0.665141 0.486329,1.697266 v 25.269531 c 0,0.803732 -0.226673,1.300889 -0.53711,1.623047 -0.310436,0.322157 -0.761048,0.566406 -1.65039,0.566406 H 14.808594 c -1.121867,0 -1.845457,-0.264223 -2.207032,-0.556641 -0.361574,-0.292417 -0.59375,-0.6233 -0.59375,-1.632812 V 7.9052735 c 0,-0.7667561 0.22488,-1.1665411 0.646485,-1.5234381 0.421605,-0.356894 1.139726,-0.6464839 2.154297,-0.6464839 H 33.5625 a 2,2 0 0 0 2,-2 2,2 0 0 0 -2,-2 z m 2.595703,18.6503905 a 1,1 0 0 0 -1,1 v 10.11914 c 0,1.263242 0.417264,2.369136 1.1875,3.117188 0.770235,0.748052 1.833382,1.097656 2.943359,1.097656 h 11.515625 a 1,1 0 0 0 1,-1 1,1 0 0 0 -1,-1 H 20.535156 c -0.704023,0 -1.207113,-0.20133 -1.548828,-0.533203 -0.341715,-0.331873 -0.582031,-0.834382 -0.582031,-1.681641 v -10.11914 a 1,1 0 0 0 -1,-1 z m 6.634766,0 a 1,1 0 0 0 -1,1 v 10.582031 a 1,1 0 0 0 1,1 1,1 0 0 0 1,-1 V 21.385742 a 1,1 0 0 0 -1,-1 z m 6.8125,0 a 1,1 0 0 0 -1,1 v 10.677734 a 1,1 0 0 0 1,1 1,1 0 0 0 1,-1 V 21.385742 a 1,1 0 0 0 -1,-1 z" fill="#008055"/>
</svg>
