<svg xmlns="http://www.w3.org/2000/svg" width="48" height="48">
	<path d="m 14.808594,2.7343752 c -1.586185,0 -3.02555,0.4548327 -4.091797,1.3574219 C 9.6505495,4.9943862 9.0078125,6.3568567 9.0078125,7.9042967 V 40.074219 c 0,1.681493 0.620335,3.087956 1.7070315,3.966797 1.086697,0.878841 2.522984,1.224609 4.09375,1.224609 h 18.996094 c 1.547195,0 2.892887,-0.53402 3.810546,-1.486328 0.917659,-0.952307 1.376954,-2.274029 1.376954,-3.705078 V 12.804688 c 0,-1.577085 -0.450933,-2.9306733 -1.396485,-3.8496093 -0.945552,-0.918937 -2.28472,-1.320313 -3.791015,-1.320313 h -7.525391 a 1,1 0 0 0 -1,1 1,1 0 0 0 1,1 h 7.525391 c 1.161684,0 1.916536,0.287522 2.398437,0.7558593 0.481902,0.46834 0.789063,1.200288 0.789063,2.414063 v 27.269531 c 0,1.012841 -0.305518,1.786154 -0.81836,2.31836 -0.512842,0.532205 -1.260495,0.873046 -2.36914,0.873046 H 14.808594 c -1.271476,0 -2.23265,-0.293353 -2.835938,-0.78125 -0.603289,-0.487895 -0.964844,-1.176658 -0.964844,-2.410156 V 7.9042967 c 0,-1.0269784 0.36351,-1.7483132 1,-2.287109 0.636491,-0.5387958 1.595677,-0.8828125 2.800782,-0.8828125 H 33.5625 a 1,1 0 0 0 1,-1 1,1 0 0 0 -1,-1 z m 2.861328,17.7910158 c -0.770895,0 -1.501662,0.30678 -1.945313,0.853516 -0.443649,0.546735 -0.59375,1.228948 -0.59375,1.917968 v 2.03711 c 0,1.177798 0.99515,2.101562 2.101563,2.101562 h 12.699219 a 0.89999998,0.89999998 0 0 0 0.90039,-0.90039 0.89999998,0.89999998 0 0 0 -0.90039,-0.900391 H 17.232422 c -0.182789,0 -0.300781,-0.0689 -0.300781,-0.300781 v -2.03711 c 0,-0.418769 0.100579,-0.673224 0.191406,-0.785156 0.09083,-0.111932 0.1778,-0.1875 0.546875,-0.1875 h 12.884766 c 0.29032,0 0.453747,0.08079 0.554687,0.177735 0.100941,0.09694 0.183594,0.235147 0.183594,0.554687 v 11.867188 c 0,0.418769 -0.09862,0.671271 -0.189453,0.783203 -0.09083,0.111932 -0.179747,0.1875 -0.548828,0.1875 H 17.669922 c -0.290284,0 -0.45374,-0.08079 -0.554688,-0.177735 -0.100947,-0.09695 -0.183593,-0.235159 -0.183593,-0.554687 v -6.435547 a 0.89999998,0.89999998 0 0 0 -0.900391,-0.900391 0.89999998,0.89999998 0 0 0 -0.900391,0.900391 v 6.435547 c 0,0.715571 0.258684,1.392927 0.738282,1.853515 0.479597,0.460589 1.135366,0.679688 1.800781,0.679688 h 12.884766 c 0.770899,0 1.50166,-0.30678 1.945312,-0.853516 0.443652,-0.546735 0.59375,-1.228948 0.59375,-1.917968 V 23.056641 c 0,-0.71556 -0.258682,-1.39292 -0.738281,-1.853516 -0.479599,-0.460595 -1.135351,-0.677734 -1.800781,-0.677734 z m 0.751953,2.734375 a 0.80000001,0.80000001 0 0 0 -0.800781,0.800781 0.80000001,0.80000001 0 0 0 0.800781,0.798828 h 0.466797 A 0.80000001,0.80000001 0 0 0 19.6875,24.060547 0.80000001,0.80000001 0 0 0 18.888672,23.259766 Z m 5.935547,0 a 0.80000001,0.80000001 0 0 0 -0.798828,0.800781 0.80000001,0.80000001 0 0 0 0.798828,0.798828 h 0.466797 A 0.80000001,0.80000001 0 0 0 25.625,24.060547 0.80000001,0.80000001 0 0 0 24.824219,23.259766 Z m 2.378906,0 a 0.80000001,0.80000001 0 0 0 -0.800781,0.800781 0.80000001,0.80000001 0 0 0 0.800781,0.798828 h 0.466797 a 0.80000001,0.80000001 0 0 0 0.798828,-0.798828 0.80000001,0.80000001 0 0 0 -0.798828,-0.800781 z m 2.339844,0 a 0.80000001,0.80000001 0 0 0 -0.798828,0.800781 0.80000001,0.80000001 0 0 0 0.798828,0.798828 h 0.466797 a 0.80000001,0.80000001 0 0 0 0.800781,-0.798828 0.80000001,0.80000001 0 0 0 -0.800781,-0.800781 z" fill="#008055"/>
</svg>
