<svg xmlns="http://www.w3.org/2000/svg" width="48" height="48">
	<path d="m 14.808594,2.7353514 c -1.586185,0 -3.02555,0.4548328 -4.091797,1.357422 -1.0662465,0.9025891 -1.7089845,2.2650592 -1.7089845,3.8125 V 40.075196 c 0,1.681492 0.620335,3.086002 1.7070315,3.964843 1.086696,0.878842 2.522986,1.22461 4.09375,1.22461 h 18.996094 c 1.54719,0 2.892887,-0.532069 3.810546,-1.484375 0.91766,-0.952307 1.376954,-2.274028 1.376954,-3.705078 V 12.805664 c 0,-1.577085 -0.450657,-2.9295663 -1.396485,-3.8476563 -0.945827,-0.91809 -2.285136,-1.3203125 -3.791015,-1.3203125 h -3.390625 a 1.0001,1.0001 0 0 0 -1,1 l 0.0039,22.4667968 c 0,0.62444 -0.241782,0.793097 -0.330078,0.822266 -0.08762,0.02895 -0.319257,0.07231 -0.730469,-0.542969 l -2.740234,-4.855468 a 1.0001,1.0001 0 0 0 -0.0039,-0.0098 C 25.4602,26.25341 25.318435,26.030417 25.109375,25.813477 c -0.20906,-0.21694 -0.571021,-0.484793 -1.056641,-0.46875 -0.485619,0.01604 -0.816843,0.29829 -1.009765,0.517578 -0.192923,0.219288 -0.319134,0.437925 -0.455078,0.691406 l -2.652344,4.94336 c -0.3096,0.568855 -0.606761,0.583295 -0.693359,0.5625 -0.0866,-0.0208 -0.341797,-0.110476 -0.341797,-0.955079 V 8.6376952 a 1,1 0 0 0 -1,-1 1,1 0 0 0 -1,1 V 31.104492 c 0,1.427068 0.736964,2.627111 1.875,2.900391 1.138035,0.27328 2.298528,-0.412627 2.917968,-1.550781 a 1.0001,1.0001 0 0 0 0.002,-0.0059 l 2.419921,-4.511718 2.53125,4.486328 a 1.0001,1.0001 0 0 0 0.03711,0.06055 c 0.740446,1.11891 1.958964,1.696033 3.03125,1.341797 1.072288,-0.354236 1.703125,-1.475123 1.703125,-2.720704 l -0.0039,-21.4667968 h 2.390625 c 1.16211,0 1.916807,0.2883544 2.398437,0.7558598 0.481629,0.467505 0.789063,1.198334 0.789063,2.412109 v 27.269532 c 0,1.012839 -0.305517,1.786153 -0.81836,2.318359 -0.512842,0.532206 -1.260502,0.871094 -2.36914,0.871094 H 14.808594 c -1.271475,0 -2.234602,-0.291401 -2.837891,-0.779297 -0.603289,-0.487896 -0.962891,-1.176659 -0.962891,-2.410156 V 7.9052734 c 0,-1.0269793 0.36351,-1.7483136 1,-2.2871094 0.636491,-0.5387959 1.595677,-0.8828125 2.800782,-0.8828125 H 33.5625 a 1,1 0 0 0 1,-1 1,1 0 0 0 -1,-1.0000001 z" fill="#008055"/>
</svg>
