<svg xmlns="http://www.w3.org/2000/svg" width="48" height="48">
	<path d="m 14.808594,2.7353517 c -1.586186,0 -3.027503,0.4528796 -4.09375,1.3554686 -1.0662474,0.902589 -1.7070317,2.267012 -1.7070317,3.814453 V 40.073242 c 0,1.681491 0.6183826,3.087955 1.7050777,3.966797 1.086696,0.878842 2.524934,1.224609 4.095704,1.224609 h 18.99414 c 1.547192,0 2.892888,-0.532068 3.810547,-1.484375 0.91766,-0.952306 1.378907,-2.275981 1.378907,-3.707031 V 12.803711 c 0,-1.577085 -0.450931,-2.9287197 -1.396485,-3.8476567 -0.945554,-0.918936 -2.286669,-1.322265 -3.792969,-1.322265 h -7.523437 a 1,1 0 0 0 -1,1 1,1 0 0 0 1,1 h 7.523437 c 1.161691,0 1.916534,0.287521 2.398438,0.7558587 0.481904,0.468338 0.791016,1.200288 0.791016,2.414063 v 27.269531 c 0,1.01284 -0.305517,1.786153 -0.81836,2.318359 -0.512843,0.532206 -1.262454,0.873047 -2.371094,0.873047 h -18.99414 c -1.271481,0 -2.234604,-0.291401 -2.837891,-0.779297 -0.603287,-0.487895 -0.962891,-1.17861 -0.962891,-2.412109 V 7.9052733 c 0,-1.026979 0.36351,-1.748313 1,-2.287109 0.636491,-0.538796 1.595677,-0.882813 2.800782,-0.882813 h 18.751953 a 1,1 0 0 0 1,-1 1,1 0 0 0 -1,-0.9999996 z m 9.169922,17.8906243 c -0.748133,0.01696 -1.308699,0.573152 -1.673828,1.285157 l -4.212891,7.544921 a 0.69999999,0.69999999 0 0 0 0.269531,0.951172 0.69999999,0.69999999 0 0 0 0.951172,-0.269531 l 4.226563,-7.566406 a 0.70006999,0.70006999 0 0 0 0.01172,-0.02148 c 0.237561,-0.463245 0.43808,-0.522919 0.460938,-0.523437 0.02286,-5.18e-4 0.205593,0.03415 0.460937,0.519531 a 0.70006999,0.70006999 0 0 0 0.0078,0.01367 l 1.642578,2.949219 1.642578,2.947265 1.642578,2.947266 1.642578,2.947266 a 0.70006999,0.70006999 0 0 0 0.0078,0.01367 c 0.20824,0.355398 0.170187,0.576832 0.101562,0.714843 -0.06862,0.138011 -0.178153,0.208985 -0.330078,0.208985 -0.398005,0 -0.347412,-0.02155 -0.578125,-0.330078 L 29.21875,33.317383 a 0.70006999,0.70006999 0 0 0 -0.591797,-0.328125 l -9.453125,0.0059 a 0.70006999,0.70006999 0 0 0 -0.605469,0.347656 l -0.402344,0.691407 a 0.69999999,0.69999999 0 0 0 0.253907,0.957031 0.69999999,0.69999999 0 0 0 0.957031,-0.251953 l 0.199219,-0.34375 8.664062,-0.0059 0.855469,1.359375 a 0.70006999,0.70006999 0 0 0 0.0332,0.04883 c 0.328009,0.437046 0.927204,0.890625 1.701172,0.890625 0.677006,0 1.290924,-0.396954 1.583985,-0.986328 0.29306,-0.589374 0.255132,-1.35616 -0.148438,-2.044922 L 30.63086,30.72168 28.988281,27.774414 27.347656,24.827148 25.712891,21.893554 c -0.387606,-0.736792 -0.986243,-1.284539 -1.734375,-1.267578 z m 0.0098,4.175782 c -0.579684,0.01323 -0.977291,0.433721 -1.21289,0.890625 l 0.01367,-0.02734 -2.195313,3.841797 a 0.69999999,0.69999999 0 0 0 0.261719,0.955078 0.69999999,0.69999999 0 0 0 0.955078,-0.261719 l 2.193359,-3.839844 a 0.70006999,0.70006999 0 0 0 0.0098,-0.01758 0.70006999,0.70006999 0 0 0 0.002,0.0039 l 2.404297,4.310546 a 0.70006999,0.70006999 0 0 0 0.0098,0.01563 c 0.04,0.06785 0.02521,0.04659 0.04297,0.09961 h -8.669922 a 0.70006999,0.70006999 0 0 0 -0.609375,0.355469 l -1.439453,2.541015 c 0,0 0,0.002 0,0.002 l -0.0039,0.0059 c -0.390275,0.670844 -0.471783,1.414216 -0.1875,2.019531 0.28541,0.607717 0.943038,0.996094 1.646484,0.996094 0.518763,0 0.919506,-0.262015 1.078125,-0.382813 a 0.69999999,0.69999999 0 0 0 0.132813,-0.980469 0.69999999,0.69999999 0 0 0 -0.980469,-0.132812 c -0.111721,0.08508 -0.100792,0.0957 -0.230469,0.0957 -0.250824,0 -0.324381,-0.07531 -0.378906,-0.191406 -0.05453,-0.116098 -0.08471,-0.353372 0.132812,-0.72461 a 0.70006999,0.70006999 0 0 0 0.0039,-0.0098 l 1.24414,-2.19336 h 8.488282 c 0.265602,0 0.543367,-0.05587 0.783203,-0.222656 0.239836,-0.166784 0.398648,-0.444989 0.449219,-0.697265 0.101141,-0.504557 -0.07128,-0.908331 -0.296875,-1.291016 L 25.246243,25.67876 C 24.996772,25.207504 24.568115,24.788576 23.98843,24.801807 Z" fill="#008055"/>
</svg>
