<svg xmlns="http://www.w3.org/2000/svg" width="48" height="48">
	<path d="m 14.80957,2.7353515 c -1.586185,0 -3.027503,0.45288 -4.09375,1.355469 -1.066247,0.902589 -1.708984,2.267013 -1.708984,3.814453 V 40.073242 c 0,1.681492 0.620335,3.087956 1.707031,3.966797 1.086696,0.878842 2.522985,1.224609 4.09375,1.224609 h 18.996094 c 1.547195,0 2.892888,-0.532066 3.810547,-1.484375 0.917658,-0.952306 1.378906,-2.275981 1.378906,-3.707031 V 12.803711 c 0,-1.577085 -0.452885,-2.9287195 -1.398438,-3.8476555 -0.945551,-0.918937 -2.28472,-1.322266 -3.791015,-1.322266 H 26.27832 a 1,1 0 0 0 -1,1 1,1 0 0 0 1,1 h 7.525391 c 1.161685,0 1.916535,0.287521 2.398437,0.7558585 0.481903,0.46834 0.791016,1.200289 0.791016,2.414063 v 27.269531 c 0,1.012842 -0.307471,1.786155 -0.820312,2.31836 -0.512842,0.532206 -1.260496,0.873046 -2.369141,0.873046 H 14.807617 c -1.271475,0 -2.232649,-0.2914 -2.835937,-0.779296 -0.603289,-0.487896 -0.964844,-1.178612 -0.964844,-2.41211 V 7.9052735 c 0,-1.026979 0.363509,-1.748313 1,-2.287109 0.63649,-0.538796 1.59763,-0.882813 2.802734,-0.882813 h 18.751953 a 1,1 0 0 0 1,-1 1,1 0 0 0 -1,-1 z M 31.131836,19.790039 c -0.497693,0.01843 -1.012189,0.221173 -1.419922,0.628906 l -9.361328,9.363282 a 0.80008001,0.80008001 0 0 0 -0.05078,0.05469 l -5.775391,6.970703 a 0.80008001,0.80008001 0 0 0 0.984375,1.21875 c 1.520539,-0.793947 3.011155,-1.459276 4.5,-1.640625 a 0.80008001,0.80008001 0 0 0 0.0078,-0.002 c 0.785447,-0.103403 1.51656,-0.726353 1.583984,-1.552734 0.04078,-0.491795 0.117374,-0.846538 0.292969,-1.134766 a 0.80000001,0.80000001 0 0 0 -0.265625,-1.099609 0.80000001,0.80000001 0 0 0 -1.09961,0.265625 c -0.368646,0.605111 -0.472664,1.247171 -0.521484,1.835937 a 0.80008001,0.80008001 0 0 0 -0.002,0.002 c -0.0047,0.0578 0.03059,0.06766 -0.197266,0.09766 h 0.0078 c -0.686725,0.08365 -1.330487,0.300855 -1.97461,0.513672 l 3.667969,-4.423828 9.335937,-9.33789 c 0.323355,-0.323355 0.434349,-0.196426 0.509766,-0.125 0.03771,0.03571 0.05393,0.06611 0.05273,0.121093 -0.0012,0.05498 -0.01731,0.167706 -0.205078,0.355469 a 0.80008001,0.80008001 0 0 0 -0.002,0.002 l -8.826172,8.875 a 0.80000001,0.80000001 0 0 0 -0.779297,0.158203 0.80000001,0.80000001 0 0 0 -0.07031,1.128907 c 0.431224,0.489383 1.264054,0.524823 1.767578,0.05859 a 0.80008001,0.80008001 0 0 0 0.02344,-0.02344 l 9.017578,-9.068359 0.002,-0.002 c 0.417515,-0.418405 0.660678,-0.935353 0.671875,-1.449218 0.01121,-0.5147 -0.20883,-0.992659 -0.552734,-1.31836 -0.343906,-0.325701 -0.824573,-0.491081 -1.322266,-0.472656 z m -12.337891,0.445313 c -0.68134,0 -1.350681,0.18587 -1.849609,0.644532 -0.498928,0.458661 -0.746094,1.148152 -0.746094,1.859374 v 8.392578 a 0.89999998,0.89999998 0 0 0 0.900391,0.900391 0.89999998,0.89999998 0 0 0 0.90039,-0.900391 v -8.392578 c 0,-0.342388 0.07725,-0.453397 0.164063,-0.533203 0.08681,-0.07981 0.264599,-0.169922 0.630859,-0.169922 h 7.878907 a 0.89999998,0.89999998 0 0 0 0.90039,-0.900391 0.89999998,0.89999998 0 0 0 -0.90039,-0.90039 z m 12.271485,5.339843 a 0.89999998,0.89999998 0 0 0 -0.900391,0.900391 v 7.669922 c 0,0.342388 -0.07725,0.455351 -0.164063,0.535156 -0.08681,0.07981 -0.264599,0.167969 -0.630859,0.167969 h -5.666015 a 0.89999998,0.89999998 0 0 0 -0.900391,0.90039 0.89999998,0.89999998 0 0 0 0.900391,0.900391 h 5.666015 c 0.68134,0 1.350682,-0.18587 1.849609,-0.644531 0.498928,-0.458661 0.746094,-1.148153 0.746094,-1.859375 v -7.669922 a 0.89999998,0.89999998 0 0 0 -0.90039,-0.900391 z" fill="#008055"/>
</svg>
