<svg xmlns="http://www.w3.org/2000/svg" width="48" height="48">
	<path d="m 14.375977,6.626953 c -1.757661,0 -3.407852,0.510326 -4.6406255,1.591797 -1.232774,1.081471 -1.941406,2.726253 -1.941406,4.478516 V 35.28125 c 0,1.857119 0.674909,3.572902 1.953125,4.644531 1.2782145,1.07163 2.9215105,1.447266 4.6269525,1.447266 H 33.99707 c 1.744538,0 3.362488,-0.609024 4.492188,-1.734375 1.1297,-1.125351 1.716797,-2.707208 1.716797,-4.357422 V 15.273437 c 0,-1.767693 -0.574647,-3.417814 -1.757813,-4.521484 C 37.265076,9.648283 35.658443,9.203125 33.99707,9.203125 h -8.185547 a 1.9,1.9 0 0 0 -1.898437,1.900391 1.9,1.9 0 0 0 1.898437,1.90039 h 8.185547 c 1.006617,0 1.55534,0.243737 1.859375,0.527344 0.304035,0.283607 0.548828,0.719011 0.548828,1.742187 V 35.28125 c 0,0.793686 -0.237107,1.306856 -0.597656,1.666016 -0.360548,0.359159 -0.899254,0.625 -1.810547,0.625 H 14.374023 c -1.136796,0 -1.833552,-0.263489 -2.185546,-0.558594 -0.351995,-0.295105 -0.595704,-0.674541 -0.595704,-1.732422 V 12.697266 c 0,-0.822158 0.238199,-1.263158 0.648438,-1.623047 0.410239,-0.359889 1.101136,-0.646485 2.134766,-0.646485 h 7.720703 a 1.9,1.9 0 0 0 1.90039,-1.90039 1.9,1.9 0 0 0 -1.90039,-1.900391 z m 4.923828,9.126953 c -0.410491,0.007 -0.82669,0.04937 -1.25,0.132813 a 0.82981477,0.82981477 0 0 0 -0.0078,0 c -0.53351,0.1097 -1.035267,0.368662 -1.367187,0.794922 -0.33193,0.42622 -0.458985,0.959 -0.458985,1.49414 v 3.542969 a 0.82973181,0.82973181 0 0 0 0.828125,0.830078 0.82973181,0.82973181 0 0 0 0.830078,-0.830078 v -3.542969 c 0,-0.28494 0.05748,-0.408029 0.109375,-0.474609 0.0517,-0.0665 0.133958,-0.136073 0.392579,-0.189453 1.708939,-0.33443 3.427194,0.237506 5.259765,1.003906 1.8341,0.76698 3.738385,1.731289 5.833985,1.818359 0.23026,0.0101 0.398623,0.08282 0.490234,0.164063 0.0914,0.0812 0.155053,0.162875 0.158203,0.421875 l 0.0098,10.847656 c -1.91e-4,0.24387 -0.06172,0.33065 -0.113282,0.380859 -0.0505,0.0491 -0.138723,0.09595 -0.339843,0.09375 -1.74106,-0.0821 -3.446301,-0.867891 -5.28125,-1.613281 -1.83867,-0.74686 -3.848951,-1.444902 -6.113282,-1.007812 -0.26614,0.0492 -0.320931,-0.0059 -0.33789,-0.01953 -0.0168,-0.0144 -0.06355,-0.06079 -0.06445,-0.251954 v -4.283203 c 0,-0.47648 0.09751,-0.604458 0.621093,-0.798828 1.705411,-0.46311 3.227871,0.02365 4.75,0.761719 v 4.267577 a 0.82973181,0.82973181 0 0 0 0.828125,0.830078 0.82973181,0.82973181 0 0 0 0.830079,-0.830078 V 25.90625 c 1.30758,0.71795 2.620986,1.389753 4.091796,1.251953 a 0.82973181,0.82973181 0 0 0 0.748047,-0.904297 0.82973181,0.82973181 0 0 0 -0.904297,-0.748047 c -0.953229,0.0892 -2.316476,-0.65059 -3.935546,-1.49414 v -4.033203 a 0.82973181,0.82973181 0 0 0 -0.830079,-0.830079 0.82973181,0.82973181 0 0 0 -0.828125,0.830079 v 3.230468 c -1.530509,-0.6504 -3.285896,-1.076056 -5.228515,-0.535156 a 0.82981477,0.82981477 0 0 0 -0.06055,0.01953 c -1.00581,0.36446 -1.742188,1.299347 -1.742188,2.373047 v 4.28711 a 0.82981477,0.82981477 0 0 0 0,0.0039 c 0.002,0.55612 0.203714,1.133805 0.658204,1.515625 0.4545,0.38182 1.093484,0.495786 1.714843,0.378906 a 0.82981477,0.82981477 0 0 0 0.0059,0 c 1.76149,-0.34005 3.393864,0.191813 5.171875,0.914063 1.77801,0.72225 3.661014,1.639071 5.839843,1.738281 a 0.82981477,0.82981477 0 0 0 0.01953,0 c 0.56508,0.0131 1.133488,-0.167203 1.542968,-0.564453 0.409481,-0.3973 0.617188,-0.975996 0.617188,-1.572266 l -0.0098,-10.855469 a 0.82981477,0.82981477 0 0 0 0,-0.01172 c -0.01,-0.65571 -0.280983,-1.258128 -0.714843,-1.642578 -0.433861,-0.384471 -0.980109,-0.556219 -1.517579,-0.580079 a 0.82981477,0.82981477 0 0 0 -0.0098,0 c -1.60745,-0.0661 -3.367872,-0.898586 -5.263672,-1.691406 -1.421861,-0.59467 -2.945242,-1.165332 -4.570313,-1.226562 -0.135449,-0.005 -0.271402,-0.0069 -0.408203,-0.0039 z" fill="#008055"/>
</svg>
