<svg xmlns="http://www.w3.org/2000/svg" width="48" height="48">
	<path d="m 14.808594,2.7353517 c -1.586185,0 -3.025547,0.4528802 -4.091797,1.3554687 C 9.6505475,4.9934093 9.0078125,6.3578313 9.0078125,7.9052733 V 40.075195 c 0,1.681491 0.620336,3.086002 1.7070325,3.964844 1.086695,0.878842 2.522979,1.224609 4.093749,1.224609 h 18.996094 c 1.547187,0 2.892887,-0.532069 3.810546,-1.484375 0.91766,-0.952305 1.376954,-2.274026 1.376954,-3.705078 V 12.805664 c 0,-1.577085 -0.450933,-2.9306737 -1.396485,-3.8496087 -0.945552,-0.918937 -2.28472,-1.320313 -3.791015,-1.320313 h -7.525391 a 1,1 0 0 0 -1,1 1,1 0 0 0 1,1 h 7.525391 c 1.161684,0 1.914581,0.285568 2.396484,0.7539057 0.481902,0.468338 0.791016,1.202241 0.791016,2.416016 v 27.269531 c 0,1.012839 -0.305515,1.7842 -0.81836,2.316406 -0.512844,0.532207 -1.260508,0.873047 -2.36914,0.873047 H 14.808594 c -1.27148,0 -2.234603,-0.291401 -2.837891,-0.779297 -0.603286,-0.487895 -0.962891,-1.176657 -0.962891,-2.410156 V 7.9052733 c 0,-1.026978 0.363507,-1.748313 1,-2.287109 0.636494,-0.538797 1.595677,-0.882813 2.800782,-0.882813 H 33.5625 a 1,1 0 0 0 1,-0.9999996 1,1 0 0 0 -1,-1 z m 2.953125,17.8964843 a 0.89999998,0.89999998 0 0 0 -0.900391,0.90039 0.89999998,0.89999998 0 0 0 0.900391,0.898438 h 13.740234 l -1.375,11.798828 c -0.034,0.229383 -0.09194,0.315554 -0.335937,0.417969 l -5.322266,1.667968 c -0.299381,0.08977 -0.503007,0.09805 -0.71875,0.02344 a 0.90008998,0.90008998 0 0 0 -0.02148,-0.0059 L 18.376957,34.62789 c -0.246635,-0.107236 -0.274401,-0.09373 -0.30664,-0.373046 a 0.90008998,0.90008998 0 0 0 0,-0.002 L 16.787109,23.499023 a 0.89999998,0.89999998 0 0 0 -1.001953,-0.787109 0.89999998,0.89999998 0 0 0 -0.787109,1.001953 l 1.285156,10.748047 c 0.101709,0.881179 0.749328,1.54696 1.376953,1.822265 a 0.90008998,0.90008998 0 0 0 0.08789,0.0332 l 5.414062,1.722656 c 0.646437,0.223551 1.292479,0.159435 1.824219,0 a 0.90008998,0.90008998 0 0 0 0.01172,-0.002 l 5.400391,-1.695313 a 0.90008998,0.90008998 0 0 0 0.07422,-0.02539 c 0.775335,-0.32015 1.320628,-1.047784 1.435547,-1.828125 a 0.90008998,0.90008998 0 0 0 0.002,-0.02539 l 1.398438,-11.972656 a 0.90008998,0.90008998 0 0 0 0,-0.0039 c 0.0479,-0.424596 -0.03973,-0.913416 -0.363281,-1.292969 -0.323555,-0.379553 -0.836684,-0.5625 -1.320313,-0.5625 z m 1.882812,3.201172 a 0.89999998,0.89999998 0 0 0 -0.90039,0.898437 0.89999998,0.89999998 0 0 0 0.90039,0.900391 h 4.220703 l -4.171875,1.664062 a 0.90008998,0.90008998 0 0 0 0.333985,1.736328 h 7.111328 l -0.349609,2.953125 a 0.90008998,0.90008998 0 0 0 0,0.0039 c -0.03343,0.294277 -0.03831,0.368077 -0.371094,0.482421 l -1.75586,0.566407 0.02539,-0.0098 c -0.404836,0.117015 -0.86872,0.127394 -1.234375,0.02148 l -1.679686,-0.523392 c -0.1654,-0.05223 -0.32584,-0.304672 -0.347657,-0.480469 a 0.90008998,0.90008998 0 0 0 0,-0.002 l -0.121093,-0.964844 a 0.89999998,0.89999998 0 0 0 -1.003907,-0.78125 0.89999998,0.89999998 0 0 0 -0.78125,1.00586 l 0.121094,0.964844 c 0.101181,0.810665 0.61208,1.665223 1.591797,1.974609 a 0.90008998,0.90008998 0 0 0 0.0039,0.002 l 1.697266,0.529297 a 0.90008998,0.90008998 0 0 0 0.01758,0.0059 c 0.751026,0.21753 1.529844,0.182721 2.236328,-0.02148 a 0.90008998,0.90008998 0 0 0 0.02734,-0.0078 l 1.771484,-0.572265 a 0.90008998,0.90008998 0 0 0 0.01758,-0.0059 c 0.939915,-0.322952 1.482466,-1.199681 1.572266,-1.976562 l 0.363281,-3.066406 c 0.06238,-0.487517 -0.08906,-1.018029 -0.43164,-1.375 C 28.16523,27.397929 27.6812,27.231463 27.208978,27.231463 h -2.498046 l 4.171875,-1.664062 a 0.90008998,0.90008998 0 0 0 -0.332032,-1.734375 z" fill="#008055"/>
</svg>
