<svg xmlns="http://www.w3.org/2000/svg" width="48" height="48">
	<path d="m 14.375977,6.6279295 c -1.757661,0 -3.40785,0.508374 -4.6406255,1.589844 -1.232775,1.08147 -1.941406,2.7282055 -1.941406,4.4804695 v 22.582031 c 0,1.857117 0.676863,3.574855 1.955078,4.646485 1.2782145,1.071629 2.9215075,1.445312 4.6269535,1.445312 H 33.99707 c 1.74454,0 3.362488,-0.607071 4.492188,-1.732422 1.1297,-1.125351 1.716797,-2.709163 1.716797,-4.359375 V 15.272462 c 0,-1.767692 -0.574646,-3.415864 -1.757813,-4.519532 C 37.265074,9.6492625 35.658443,9.2041015 33.99707,9.2041015 h -8.183593 a 1.9,1.9 0 0 0 -1.900391,1.8984385 1.9,1.9 0 0 0 1.900391,1.90039 h 8.183593 c 1.006617,0 1.555338,0.243736 1.859375,0.527344 0.304037,0.283608 0.550782,0.719019 0.550782,1.742188 v 20.007812 c 0,0.793679 -0.239061,1.306854 -0.59961,1.666016 -0.360549,0.359161 -0.899256,0.625 -1.810547,0.625 H 14.375977 c -1.136795,0 -1.835503,-0.261533 -2.1875,-0.556641 -0.351998,-0.295108 -0.59375,-0.676501 -0.59375,-1.734375 V 12.698243 c 0,-0.822156 0.236243,-1.263157 0.646484,-1.623047 0.410241,-0.35989 1.101136,-0.648437 2.134766,-0.648437 H 22.09668 A 1.9,1.9 0 0 0 23.99707,8.5283205 1.9,1.9 0 0 0 22.09668,6.6279295 Z M 24.110352,16.90918 c -0.662901,0.03692 -1.322885,0.167457 -1.955079,0.396485 -4.355855,1.578018 -6.1058,6.749139 -4.484375,11 1.188972,3.117104 3.917925,5.374368 7.044922,6.105468 a 1.0148591,0.98535647 68.679796 0 0 1.171875,-0.757812 1.0148591,0.98535647 68.679796 0 0 -0.765625,-1.214844 c -2.496577,-0.583706 -4.683107,-2.405607 -5.609375,-4.833984 -1.241371,-3.254477 0.101807,-7.218273 3.337891,-8.390625 2.403647,-0.870781 5.366734,0.251312 6.230469,2.777344 0.610159,1.784439 -0.157934,3.944579 -1.916016,4.488281 -1.152304,0.356359 -2.562047,-0.209805 -2.886719,-1.384766 -0.09334,-0.33779 -0.05583,-0.757858 0.08789,-1.064453 0.143721,-0.306596 0.34044,-0.487494 0.644531,-0.552734 0.124553,-0.02672 0.323322,0.0041 0.435547,0.06641 0.0456,0.02532 0.03739,0.04639 0.05664,0.06445 a 1.0148591,0.98535647 68.679796 0 0 -0.591797,0.933594 1.0148591,0.98535647 68.679796 0 0 1.005859,1.011719 c 0.605398,0.0018 1.118375,-0.385615 1.363281,-0.794922 0.244906,-0.409308 0.326091,-0.848624 0.257813,-1.316407 -0.111089,-0.76107 -0.614861,-1.359617 -1.173828,-1.669921 -0.558965,-0.310305 -1.184326,-0.404856 -1.796875,-0.273438 -0.933858,0.200352 -1.629835,0.864251 -1.988281,1.628906 -0.358446,0.764656 -0.432454,1.643483 -0.201172,2.480469 0.667214,2.414592 3.2725,3.462897 5.394531,2.806641 2.926943,-0.905182 4.124795,-4.27549 3.173828,-7.056641 -0.316297,-0.925027 -0.81564,-1.718431 -1.435547,-2.367187 -1.394792,-1.459703 -3.411692,-2.192782 -5.40039,-2.082032 z" fill="#008055"/>
</svg>
