<svg xmlns="http://www.w3.org/2000/svg" width="48" height="48">
	<path d="m 14.809571,2.7353515 c -1.586186,0 -3.027501,0.4528804 -4.09375,1.3554688 C 9.6495708,4.9934088 9.0068361,6.3578314 9.0068361,7.9052735 V 40.073242 c 0,1.681491 0.6203368,3.087955 1.7070319,3.966797 1.086693,0.878842 2.524938,1.224609 4.095703,1.224609 h 18.99414 c 1.547196,0 2.892889,-0.532068 3.810547,-1.484375 0.917659,-0.952307 1.378906,-2.275982 1.378906,-3.707031 V 12.80371 c 0,-1.577083 -0.452886,-2.9287175 -1.398437,-3.8476556 C 36.649175,8.0371173 35.310011,7.633789 33.803711,7.633789 h -7.523437 a 1,1 0 0 0 -1,1.0000004 1,1 0 0 0 1,1 h 7.523437 c 1.161691,0 1.916537,0.287522 2.398438,0.7558586 0.481901,0.468337 0.791015,1.200287 0.791015,2.414062 v 27.269532 c 0,1.012841 -0.307471,1.786154 -0.820312,2.318359 -0.512842,0.532205 -1.260496,0.873047 -2.369141,0.873047 h -18.99414 c -1.271475,0 -2.234605,-0.291401 -2.837891,-0.779297 -0.603286,-0.487895 -0.964844,-1.17861 -0.964844,-2.412109 V 7.9052735 c 0,-1.026978 0.363507,-1.748313 1,-2.2871095 0.636493,-0.5387965 1.59763,-0.8828125 2.802735,-0.8828125 h 18.751953 a 1,1 0 0 0 1,-1 1,1 0 0 0 -1,-1 z m 6.357421,20.5488275 c -2.996387,0 -5.285156,2.700376 -5.285156,6.089844 0,3.403377 2.382322,5.933594 5.285156,5.933594 1.451416,0 2.800632,-0.625602 3.757813,-1.685547 a 0.89999998,0.89999998 0 0 0 -0.06445,-1.271484 0.89999998,0.89999998 0 0 0 -1.271484,0.06445 c -0.6365,0.704834 -1.478071,1.091797 -2.421876,1.091797 -1.887603,0 -3.484374,-1.52367 -3.484374,-4.132813 0,-2.623052 1.550943,-4.289063 3.484374,-4.289063 0.966736,0 1.799322,0.410607 2.433594,1.152344 a 0.89999998,0.89999998 0 0 0 1.267578,0.09961 0.89999998,0.89999998 0 0 0 0.09961,-1.269532 C 24.025829,23.965837 22.6652,23.284176 21.166995,23.284176 Z m 9.117188,0.0625 a 0.60000002,0.60000002 0 0 0 -0.527344,0.371094 l -0.71289,1.740234 h -2.427735 a 0.60000002,0.60000002 0 0 0 -0.599609,0.59961 0.60000002,0.60000002 0 0 0 0.599609,0.599609 h 1.9375 l -0.546875,1.337891 h -2.300781 a 0.60000002,0.60000002 0 0 0 -0.599609,0.599609 0.60000002,0.60000002 0 0 0 0.599609,0.59961 h 1.808594 l -0.550781,1.347656 a 0.60000002,0.60000002 0 0 0 0.328124,0.78125 0.60000002,0.60000002 0 0 0 0.783204,-0.328125 l 0.736328,-1.800781 h 1.662109 l -0.552734,1.349609 a 0.60000002,0.60000002 0 0 0 0.328125,0.783203 0.60000002,0.60000002 0 0 0 0.783203,-0.328125 l 0.738281,-1.804687 h 2.404297 a 0.60000002,0.60000002 0 0 0 0.599609,-0.59961 0.60000002,0.60000002 0 0 0 -0.599609,-0.599609 h -1.912109 l 0.546875,-1.337891 h 2.27539 a 0.60000002,0.60000002 0 0 0 0.59961,-0.599609 0.60000002,0.60000002 0 0 0 -0.59961,-0.59961 h -1.785156 l 0.525391,-1.28125 a 0.60000002,0.60000002 0 0 0 -0.328125,-0.783203 0.60000002,0.60000002 0 0 0 -0.25586,-0.04492 0.60000002,0.60000002 0 0 0 -0.527343,0.373047 l -0.710938,1.736328 h -1.662109 l 0.52539,-1.285156 a 0.60000002,0.60000002 0 0 0 -0.328125,-0.783205 0.60000002,0.60000002 0 0 0 -0.253906,-0.04297 z m -0.433594,3.310547 h 1.66211 l -0.548828,1.337891 H 29.303711 Z M 13.995118,31.86621 a 1.7764144,1.7764144 0 0 0 -1.775391,1.775391 1.7764144,1.7764144 0 0 0 1.775391,1.777344 1.7764144,1.7764144 0 0 0 1.777343,-1.777344 1.7764144,1.7764144 0 0 0 -1.777343,-1.775391 z" fill="#008055"/>
</svg>
