<svg xmlns="http://www.w3.org/2000/svg" width="48" height="48">
	<path d="m 14.80957,2.7353516 c -1.586185,0 -3.027503,0.4528796 -4.09375,1.3554688 -1.066247,0.902589 -1.708984,2.267012 -1.708984,3.814453 V 40.073242 c 0,1.681492 0.620335,3.087955 1.707031,3.966797 1.086696,0.878841 2.522985,1.224609 4.09375,1.224609 h 18.996094 c 1.547191,0 2.892887,-0.532068 3.810547,-1.484375 0.917659,-0.952306 1.378906,-2.275981 1.378906,-3.707031 V 12.803711 c 0,-1.577085 -0.452883,-2.9287196 -1.398438,-3.8476566 -0.945553,-0.918937 -2.284716,-1.322265 -3.791015,-1.322265 H 26.27832 a 1,1 0 0 0 -1,1 1,1 0 0 0 1,1 h 7.525391 c 1.16169,0 1.916534,0.287521 2.398437,0.7558586 0.481904,0.468338 0.791016,1.200288 0.791016,2.414063 v 27.269531 c 0,1.01284 -0.307469,1.786153 -0.820312,2.318359 -0.512845,0.532206 -1.260502,0.873047 -2.369141,0.873047 H 14.807617 c -1.271475,0 -2.232649,-0.291401 -2.835937,-0.779297 -0.603289,-0.487896 -0.964844,-1.178611 -0.964844,-2.412109 V 7.9052734 c 0,-1.026979 0.363509,-1.748313 1,-2.287109 0.63649,-0.538796 1.59763,-0.882813 2.802734,-0.882813 h 18.751953 a 1,1 0 0 0 1,-1 1,1 0 0 0 -1,-0.9999998 z m 3.029297,16.7812494 c -0.795216,0 -1.563464,0.237549 -2.09375,0.783203 -0.530286,0.545655 -0.740234,1.299729 -0.740234,2.058594 l -0.01563,2.189453 a 1,1 0 0 0 0.992187,1.007813 1,1 0 0 0 1.007813,-0.992188 l 0.01563,-2.197265 a 1.0001,1.0001 0 0 0 0,-0.0078 c 0,-0.414265 0.09414,-0.582064 0.173828,-0.664062 0.07969,-0.082 0.228252,-0.177735 0.660156,-0.177735 H 29.65918 c 0.328168,0 0.512588,0.09104 0.628906,0.203125 0.116318,0.112089 0.21289,0.274067 0.21289,0.638672 V 33.90332 c 0,0.475216 -0.113742,0.766639 -0.21875,0.896484 -0.105006,0.129845 -0.206204,0.214844 -0.623046,0.214844 h -2.363282 a 1,1 0 0 0 -1,1 1,1 0 0 0 1,1 h 2.363282 c 0.864857,0 1.683748,-0.343781 2.179687,-0.957031 0.495939,-0.61325 0.662109,-1.379793 0.662109,-2.154297 V 22.358398 c 0,-0.803154 -0.287806,-1.563172 -0.824218,-2.080078 -0.536412,-0.516906 -1.271186,-0.761719 -2.017578,-0.761719 z m -1.539062,6.585938 a 1,1 0 0 0 -1,1 1,1 0 0 0 1,1 c 4.243661,0 7.427734,3.347631 7.427734,7.599609 a 1,1 0 0 0 1,1 1,1 0 0 0 1,-1 c 0,-5.273262 -4.113535,-9.599609 -9.427734,-9.599609 z m 0.02148,3.984375 a 1,1 0 0 0 -1.021484,0.978515 1,1 0 0 0 0.980468,1.021485 c 2.221812,0.04688 3.64454,1.461293 3.644532,3.615234 a 1,1 0 0 0 1,1 1,1 0 0 0 1,-1 c 1.1e-5,-3.131719 -2.451408,-5.548719 -5.603516,-5.615234 z m 0.464844,3.55664 a 1.6003384,1.5997281 0 0 0 -1.150391,0.46875 1.6003384,1.5997281 0 0 0 0,2.261719 1.6003384,1.5997281 0 0 0 2.261719,0 1.6003384,1.5997281 0 0 0 0,-2.261719 1.6003384,1.5997281 0 0 0 -1.111328,-0.46875 z" fill="#008055"/>
</svg>
