<svg xmlns="http://www.w3.org/2000/svg" width="48" height="48">
	<path d="m 14.808594,2.7353515 c -1.586186,0 -3.027503,0.4528796 -4.09375,1.3554687 C 9.6485969,4.9934094 9.0078127,6.3578325 9.0078127,7.9052734 V 40.073243 c 0,1.681491 0.6183818,3.087955 1.7050783,3.966796 1.086696,0.878842 2.524938,1.22461 4.095703,1.22461 h 18.99414 c 1.547191,0 2.892888,-0.532069 3.810547,-1.484375 0.917659,-0.952307 1.378906,-2.275982 1.378906,-3.707031 V 12.803711 c 0,-1.577085 -0.45093,-2.9287194 -1.396484,-3.8476564 C 36.650149,8.0371176 35.309034,7.633789 33.802734,7.633789 h -7.523437 a 1,1 0 0 0 -1,0.9999996 1,1 0 0 0 1,1 h 7.523437 c 1.161691,0 1.916534,0.287522 2.398438,0.7558604 0.481903,0.468338 0.791015,1.200287 0.791015,2.414062 v 27.269532 c 0,1.012838 -0.305516,1.786153 -0.818359,2.318359 -0.512843,0.532206 -1.262455,0.873047 -2.371094,0.873047 h -18.99414 c -1.271475,0 -2.234602,-0.291401 -2.837891,-0.779297 -0.603288,-0.487896 -0.96289,-1.178613 -0.96289,-2.412109 V 7.9052734 c 0,-1.0269794 0.363509,-1.7483136 1,-2.2871094 0.63649,-0.5387959 1.595676,-0.8828125 2.800781,-0.8828125 h 18.751953 a 1,1 0 0 0 1,-1 1,1 0 0 0 -1,-1 z M 24.324219,19.56543 c -5.375074,0 -9.279297,4.179431 -9.279297,9.035156 0,5.414878 4.446667,9.06879 9.345703,9.083985 a 0.90008998,0.90008998 0 0 0 0.002,0 h 8.988281 a 0.89999998,0.89999998 0 0 0 0.900391,-0.900391 0.89999998,0.89999998 0 0 0 -0.900391,-0.900391 h -8.984375 -0.0039 c -4.030303,-0.01435 -7.546875,-2.83906 -7.546875,-7.283203 0,-3.907394 3.019569,-7.234375 7.478516,-7.234375 3.818268,0 7.096241,3.204605 7.109375,7.41211 -0.0013,2.005146 -1.002107,3.991894 -2.296875,5.146484 a 0.89999998,0.89999998 0 0 0 -0.07227,1.271484 0.89999998,0.89999998 0 0 0 1.271484,0.07227 c 1.699281,-1.515309 2.898438,-3.912437 2.898438,-6.494141 a 0.90008998,0.90008998 0 0 0 0,-0.002 c -0.01607,-5.146695 -4.083425,-9.207031 -8.910156,-9.207031 z m -1.789063,3.123047 a 1.4943325,1.4968796 75.212108 0 0 -1.427734,1.234375 1.4943325,1.4968796 75.212108 0 0 1.214843,1.730469 1.4943325,1.4968796 75.212108 0 0 1.734376,-1.212891 1.4943325,1.4968796 75.212108 0 0 -1.214844,-1.730469 1.4943325,1.4968796 75.212108 0 0 -0.306641,-0.02148 z m 4.347656,0.675781 a 1.4943325,1.4968796 75.212108 0 0 -1.427734,1.236328 1.4943325,1.4968796 75.212108 0 0 1.214844,1.730469 1.4943325,1.4968796 75.212108 0 0 1.734375,-1.212891 1.4943325,1.4968796 75.212108 0 0 -1.214844,-1.730468 1.4943325,1.4968796 75.212108 0 0 -0.306641,-0.02344 z m -7.197265,2.835938 a 1.4943325,1.4968796 75.212108 0 0 -1.427735,1.236328 1.4943325,1.4968796 75.212108 0 0 1.212891,1.730469 1.4943325,1.4968796 75.212108 0 0 1.734375,-1.212891 1.4943325,1.4968796 75.212108 0 0 -1.212891,-1.732422 1.4943325,1.4968796 75.212108 0 0 -0.30664,-0.02148 z m 8.898437,1.279297 a 1.4943325,1.4968796 75.212108 0 0 -1.425781,1.234374 1.4943325,1.4968796 75.212108 0 0 1.212891,1.730469 1.4943325,1.4968796 75.212108 0 0 1.734375,-1.21289 1.4943325,1.4968796 75.212108 0 0 -1.212891,-1.730469 1.4943325,1.4968796 75.212108 0 0 -0.308594,-0.02148 z m -4.380859,0.294921 a 0.87876302,0.87543827 0 0 0 -0.878906,0.875 0.87876302,0.87543827 0 0 0 0.878906,0.876953 0.87876302,0.87543827 0 0 0 0.878906,-0.876953 0.87876302,0.87543827 0 0 0 -0.878906,-0.875 z M 21.3125,30.458008 a 1.4943325,1.4968796 75.212108 0 0 -1.427735,1.234375 1.4943325,1.4968796 75.212108 0 0 1.212891,1.730469 1.4943325,1.4968796 75.212108 0 0 1.734375,-1.212891 1.4943325,1.4968796 75.212108 0 0 -1.21289,-1.730468 1.4943325,1.4968796 75.212108 0 0 -0.306641,-0.02148 z m 4.59375,0.863281 a 1.4943325,1.4968796 75.212108 0 0 -1.427735,1.234375 1.4943325,1.4968796 75.212108 0 0 1.212891,1.730469 1.4943325,1.4968796 75.212108 0 0 1.734375,-1.21289 1.4943325,1.4968796 75.212108 0 0 -1.21289,-1.730469 1.4943325,1.4968796 75.212108 0 0 -0.306641,-0.02148 z" fill="#008055"/>
</svg>
