<svg xmlns="http://www.w3.org/2000/svg" width="48" height="48">
	<path d="m 14.80957,2.734375 c -1.586185,0 -3.027502,0.4548327 -4.09375,1.3574219 -1.0662465,0.9025892 -1.7089845,2.2650591 -1.7089845,3.8125 V 40.074219 c 0,1.681492 0.620335,3.086002 1.7070315,3.964844 1.086696,0.878841 2.524939,1.226562 4.095703,1.226562 h 18.994141 c 1.54719,0 2.892888,-0.534022 3.810547,-1.486328 0.917659,-0.952306 1.378906,-2.274028 1.378906,-3.705078 V 12.804688 c 0,-1.577085 -0.452883,-2.9306731 -1.398437,-3.8496101 -0.945555,-0.9189369 -2.284718,-1.320312 -3.791016,-1.320312 h -7.523438 a 1,1 0 0 0 -1,1 1,1 0 0 0 1,1 h 7.523438 c 1.16169,0 1.916533,0.2875211 2.398437,0.7558591 0.481904,0.468338 0.791016,1.200288 0.791016,2.414063 v 27.269531 c 0,1.01284 -0.305517,1.786153 -0.818359,2.318359 -0.512844,0.532206 -1.262456,0.873047 -2.371094,0.873047 H 14.80957 c -1.271474,0 -2.234601,-0.293354 -2.83789,-0.78125 -0.603288,-0.487896 -0.964844,-1.176658 -0.964844,-2.410156 V 7.9042969 c 0,-1.026979 0.363509,-1.748314 1,-2.2871094 C 12.643327,5.0783917 13.604465,4.734375 14.80957,4.734375 h 18.751953 a 1,1 0 0 0 1,-1 1,1 0 0 0 -1,-1 z m 11.347657,14.716797 c -0.511983,-0.01562 -1.017123,0.095 -1.449219,0.308594 a 0.90008998,0.90008998 0 0 0 -0.04492,0.02344 l -3.318359,1.878907 a 0.89999998,0.89999998 0 0 0 -0.339844,1.226562 0.89999998,0.89999998 0 0 0 1.226562,0.339844 l 3.277344,-1.855469 c 0.532026,-0.262463 1.033262,-0.290379 1.482422,0.347656 0.4176,0.610885 0.262479,1.402494 -0.246094,1.751953 l -4.375,2.6875 c -0.0011,-0.584704 -0.02624,-1.187051 -0.40625,-1.777343 a 0.90008998,0.90008998 0 0 0 -0.01758,-0.02539 c -1.027318,-1.481451 -2.976647,-1.603229 -4.251953,-0.720703 -1.317359,0.909136 -1.733711,2.799297 -0.8125,4.324219 a 0.90008998,0.90008998 0 0 0 0.04688,0.07227 l 6.267578,8.447266 c 0.407294,0.662705 0.340063,1.560108 -0.378906,2.029297 a 0.90008998,0.90008998 0 0 0 -0.0059,0.0039 c -0.384323,0.256023 -0.680438,0.286218 -0.958984,0.222656 -0.275033,-0.06276 -0.556334,-0.250049 -0.791016,-0.576172 -0.35907,-0.549285 -0.286096,-1.10164 0.16211,-1.546875 a 0.89999998,0.89999998 0 0 0 0.0039,-1.273437 0.89999998,0.89999998 0 0 0 -1.273437,-0.0039 c -1.010396,1.003697 -1.199225,2.615171 -0.384766,3.835937 a 0.90008998,0.90008998 0 0 0 0.01367,0.02148 c 0.454789,0.642394 1.104821,1.124417 1.86914,1.298828 0.763008,0.174111 1.616555,0.01103 2.353516,-0.478516 1.561842,-1.023198 1.795806,-3.065385 0.923828,-4.480469 a 0.90008998,0.90008998 0 0 0 -0.04297,-0.06445 l -6.265625,-8.447266 c -0.459004,-0.770443 -0.204882,-1.560085 0.294922,-1.904296 a 0.90008998,0.90008998 0 0 0 0.002,0 c 0.590477,-0.408616 1.2485,-0.431264 1.736329,0.255859 0.455643,0.723316 0.227052,1.448243 -0.173829,2.220703 a 0.90008998,0.90008998 0 0 0 1.269532,1.181641 l 6.171875,-3.791016 a 0.90008998,0.90008998 0 0 0 0.03516,-0.02344 c 1.376689,-0.940514 1.675027,-2.872795 0.716797,-4.265625 a 0.90008998,0.90008998 0 0 0 -0.0039,-0.0059 c -0.468237,-0.668891 -1.121695,-1.043222 -1.800795,-1.179647 -0.169775,-0.03411 -0.341057,-0.05339 -0.511718,-0.05859 z m 2.24414,6.046875 a 0.89999998,0.89999998 0 0 0 -0.501953,0.162109 0.89999998,0.89999998 0 0 0 -0.222656,1.253907 l 3.044922,4.353515 c 0.243615,0.406186 0.303703,0.734933 0.242187,1.044922 -0.06174,0.311119 -0.260362,0.666071 -0.767578,1.0625 0,0 -0.002,0.002 -0.002,0.002 l -3.958984,2.773438 a 0.89999998,0.89999998 0 0 0 -0.220704,1.253906 0.89999998,0.89999998 0 0 0 1.253907,0.220703 l 3.996093,-2.800781 a 0.90008998,0.90008998 0 0 0 0.03711,-0.02734 c 0.759042,-0.592003 1.267353,-1.32658 1.427734,-2.134765 0.160382,-0.808187 -0.04496,-1.628083 -0.46875,-2.330079 a 0.90008998,0.90008998 0 0 0 -0.0332,-0.05078 L 29.15332,23.882813 a 0.89999998,0.89999998 0 0 0 -0.751953,-0.384766 z" fill="#008055"/>
</svg>
