<svg xmlns="http://www.w3.org/2000/svg" width="48" height="48">
	<path d="m 14.808594,2.7353516 c -1.586185,0 -3.027503,0.4528796 -4.09375,1.3554688 C 9.6485965,4.9934096 9.0078125,6.3578327 9.0078125,7.9052735 V 40.073242 c 0,1.681491 0.618384,3.087955 1.7050785,3.966797 1.086694,0.878842 2.524938,1.224609 4.095703,1.224609 h 18.99414 c 1.547196,0 2.892888,-0.532068 3.810547,-1.484375 0.917659,-0.952307 1.378907,-2.275982 1.378907,-3.707031 V 12.803711 c 0,-1.577084 -0.450933,-2.9287186 -1.396485,-3.8476566 -0.945552,-0.918937 -2.28667,-1.3222652 -3.792969,-1.3222652 h -7.523437 a 1,1 0 0 0 -1,1 1,1 0 0 0 1,1.0000002 h 7.523437 c 1.16169,0 1.916537,0.287522 2.398438,0.7558586 0.481901,0.468337 0.791016,1.200286 0.791016,2.414063 v 27.269531 c 0,1.012841 -0.305518,1.786154 -0.81836,2.318359 -0.512842,0.532206 -1.26245,0.873047 -2.371094,0.873047 h -18.99414 c -1.271475,0 -2.234605,-0.291401 -2.837891,-0.779297 -0.603286,-0.487895 -0.962891,-1.17861 -0.962891,-2.412109 V 7.9052735 c 0,-1.0269792 0.36351,-1.7483136 1,-2.2871093 0.636491,-0.5387959 1.595677,-0.8828126 2.800782,-0.8828126 h 18.751953 a 1,1 0 0 0 1,-1 1,1 0 0 0 -1,-1 z M 31.169922,17.182617 c -0.271926,-0.02642 -0.536676,-0.01558 -0.785156,0.01563 -2.279195,0.108541 -3.887251,2.187193 -4.035157,4.324219 -0.04848,0.473157 0.02141,0.901393 0.166016,1.210937 a 0.80000001,0.80000001 0 0 0 1.0625,0.386719 0.80000001,0.80000001 0 0 0 0.386719,-1.0625 c -0.03553,-0.07607 -0.05616,-0.09618 -0.02539,-0.378906 a 0.80008001,0.80008001 0 0 0 0.002,-0.0332 c 0.0912,-1.395122 1.245303,-2.81042 2.542969,-2.857421 a 0.80008001,0.80008001 0 0 0 0.07617,-0.0078 c 0.26283,-0.03529 0.614963,7.48e-4 0.796875,0.08008 0.161119,0.07026 0.169308,0.09186 0.179687,0.228516 -0.107554,1.083643 -0.881,2.115933 -1.802734,2.976562 -0.590421,0.490563 -0.61255,0.570099 -1.394531,0.875 a 0.80000001,0.80000001 0 0 0 -0.455078,1.03711 0.80000001,0.80000001 0 0 0 1.035156,0.455078 c 0.912681,-0.355862 1.272177,-0.666951 1.853516,-1.148438 a 0.80008001,0.80008001 0 0 0 0.0332,-0.0293 c 1.069783,-0.994571 2.220126,-2.344737 2.349609,-4.115235 a 0.80008001,0.80008001 0 0 0 0.002,-0.09375 c -0.03588,-0.784439 -0.593238,-1.405115 -1.160156,-1.652344 -0.277097,-0.12084 -0.556199,-0.184517 -0.828125,-0.210937 z m -7.09375,1.091797 c -0.557607,0.07208 -1.050555,0.369771 -1.384766,0.753906 -0.445613,0.51218 -0.683958,1.173794 -0.654297,1.867187 a 0.80008001,0.80008001 0 0 0 0,0.0059 c 0.04258,0.89112 0.114172,1.355759 0.207032,1.828125 a 0.80000001,0.80000001 0 0 0 0.939453,0.630859 0.80000001,0.80000001 0 0 0 0.55664,-0.419922 0.80000001,0.80000001 0 0 0 0.355469,0.638672 0.80000001,0.80000001 0 0 0 1.109375,-0.226562 c 0.405269,-0.612664 0.648146,-1.106609 0.861328,-1.947266 a 0.80008001,0.80008001 0 0 0 0.0059,-0.02148 c 0.103629,-0.461693 0.168521,-1.035758 0.0332,-1.640625 -0.06766,-0.302434 -0.191152,-0.622289 -0.433594,-0.902344 -0.242442,-0.280055 -0.6147,-0.493496 -1.019531,-0.558594 -0.196505,-0.03149 -0.390303,-0.03184 -0.576172,-0.0078 z m -3.960938,1.392578 c -0.206149,-0.0061 -0.408742,0.02806 -0.585937,0.0957 -0.354392,0.135291 -0.617839,0.371037 -0.818359,0.630859 -0.401041,0.519645 -0.614005,1.162288 -0.498047,1.857422 a 0.80008001,0.80008001 0 0 0 0.002,0.0098 c 0.166542,0.9198 0.563648,1.753764 1.361328,2.328125 a 0.80000001,0.80000001 0 0 0 1.115234,-0.183594 0.80000001,0.80000001 0 0 0 0.08594,-0.783203 0.80000001,0.80000001 0 0 0 0.384765,0.164063 0.80000001,0.80000001 0 0 0 0.904297,-0.681641 c 0.07313,-0.525135 0.09032,-1.116988 -0.07813,-1.712891 -0.16845,-0.595902 -0.569523,-1.204736 -1.224609,-1.560547 a 0.80008001,0.80008001 0 0 0 -0.04102,-0.02148 c -0.191564,-0.09027 -0.401273,-0.136516 -0.607422,-0.142578 z m 4.283204,0.193359 c 0.06749,0.01085 0.04848,0.0089 0.06445,0.02734 0.01597,0.01845 0.05524,0.08534 0.08203,0.205078 0.0528,0.236011 0.02846,0.644092 -0.0332,0.927734 -0.184974,0.727332 -0.274236,0.89238 -0.642578,1.449219 a 0.80000001,0.80000001 0 0 0 -0.04102,0.07422 0.80000001,0.80000001 0 0 0 -0.01367,-0.123047 c -0.08631,-0.439069 -0.139719,-0.760959 -0.179687,-1.59375 -0.0107,-0.250083 0.100992,-0.561066 0.263672,-0.748047 0.162679,-0.186981 0.299198,-0.250933 0.5,-0.21875 z m -4.347657,1.44336 c 0.200817,0.130948 0.325405,0.271993 0.396485,0.523437 0.08013,0.283455 0.0864,0.674661 0.0332,1.056641 a 0.80000001,0.80000001 0 0 0 0.05859,0.427734 0.80000001,0.80000001 0 0 0 -0.0293,-0.02148 c -0.481275,-0.346548 -0.585565,-0.587145 -0.716787,-1.308598 -0.01767,-0.121487 0.06127,-0.450295 0.185547,-0.611328 0.03713,-0.04811 0.04933,-0.04931 0.07227,-0.06641 z m -3.285156,0.921875 c -0.296844,0.0239 -0.577497,0.130141 -0.789063,0.271484 -0.42313,0.282686 -0.731528,0.683595 -0.833984,1.222656 a 0.80008001,0.80008001 0 0 0 -0.0059,0.03711 c -0.167142,1.180306 0.29163,2.450955 1.414062,3.03125 a 0.80000001,0.80000001 0 0 0 1.078125,-0.34375 0.80000001,0.80000001 0 0 0 -0.34375,-1.078125 c -0.458853,-0.237226 -0.648328,-0.693907 -0.5625,-1.357422 0.0047,-0.009 0.04651,-0.05597 0.08008,-0.101563 0.291843,0.271729 0.432281,0.543598 0.449219,1.03125 a 0.80000001,0.80000001 0 0 0 0.828125,0.771485 0.80000001,0.80000001 0 0 0 0.771485,-0.828125 c -0.02788,-0.802829 -0.303042,-1.780703 -1.169922,-2.416016 a 0.80008001,0.80008001 0 0 0 -0.02734,-0.01953 C 17.375536,22.25925 17.062435,22.201681 16.76559,22.225587 Z m 9.064453,1.986328 c -1.525676,-0.07287 -3.043396,0.194562 -4.455078,0.732422 a 0.80008001,0.80008001 0 0 0 -0.01563,0.0059 c -1.702787,0.68594 -3.496665,1.913149 -4.183594,3.935547 a 0.80008001,0.80008001 0 0 0 0,0.002 c -0.573991,1.701073 -0.149137,3.483292 0.609375,4.902344 a 0.80008001,0.80008001 0 0 0 0.0039,0.0078 c 1.281542,2.343251 3.516598,4.404555 6.333984,4.740235 2.317008,0.282519 4.376227,-1.234924 5.402344,-3.125 a 0.80008001,0.80008001 0 0 0 0.03711,-0.08008 c 0.10322,-0.25205 0.335434,-0.669442 0.46875,-1.185546 0.133316,-0.516105 0.108359,-1.301428 -0.4375,-1.822266 a 0.80008001,0.80008001 0 0 0 -0.146484,-0.111328 c -1.207607,-0.713657 -2.574396,-0.360875 -3.554688,0.123047 a 0.80000001,0.80000001 0 0 0 -0.363281,1.072265 0.80000001,0.80000001 0 0 0 1.072266,0.363282 c 0.648464,-0.320115 1.380265,-0.416078 1.884765,-0.205078 0.01316,0.02423 0.03882,0.01428 -0.0039,0.179687 -0.05877,0.227521 -0.225342,0.561496 -0.373047,0.912109 -0.765897,1.400453 -2.314591,2.472828 -3.794922,2.291016 a 0.80008001,0.80008001 0 0 0 -0.002,0 c -2.13381,-0.254316 -4.026958,-1.923079 -5.119089,-3.919997 -0.607105,-1.138478 -0.884034,-2.49424 -0.501953,-3.628906 v -0.002 c 0.470732,-1.383726 1.817885,-2.377045 3.257813,-2.958985 1.214869,-0.462068 2.511776,-0.68676 3.794922,-0.626953 0.867408,0.06312 1.666057,0.235282 2.164062,0.69336 0.203333,0.21111 0.279647,0.475234 0.238281,0.824218 -0.04205,0.354768 -0.23237,0.750257 -0.466796,0.996094 a 0.80008001,0.80008001 0 0 0 -0.02734,0.03125 c -1.204886,1.399211 -3.235515,2.094752 -4.917969,3.712891 -0.613279,0.54017 -0.926745,1.425915 -0.648437,2.263672 a 0.80008001,0.80008001 0 0 0 0.02344,0.06055 c 0.272614,0.644138 0.758458,1.22744 1.46875,1.521485 0.710292,0.294045 1.649385,0.176188 2.394531,-0.431641 a 0.80000001,0.80000001 0 0 0 0.113282,-1.125 0.80000001,0.80000001 0 0 0 -1.125,-0.115234 c -0.385746,0.314658 -0.555289,0.282859 -0.771485,0.193359 -0.204932,-0.08484 -0.440123,-0.344693 -0.576172,-0.632812 -0.0551,-0.196696 -0.01063,-0.375338 0.177735,-0.539063 a 0.80008001,0.80008001 0 0 0 0.0332,-0.0293 c 1.338016,-1.295908 3.446816,-2.005218 5.021484,-3.822265 0.483634,-0.513208 0.803305,-1.176287 0.888672,-1.896485 0.08615,-0.726811 -0.09567,-1.55043 -0.693359,-2.152343 a 0.80008001,0.80008001 0 0 0 -0.02148,-0.02148 c -0.949836,-0.89157 -2.182699,-1.060039 -3.171875,-1.130859 a 0.80008001,0.80008001 0 0 0 -0.01758,-0.002 z" fill="#008055"/>
</svg>
