<svg xmlns="http://www.w3.org/2000/svg" width="48" height="48">
	<path d="m 14.80957,2.7353515 c -1.586185,0 -3.027503,0.4528792 -4.09375,1.3554691 -1.0662468,0.902589 -1.7089842,2.267012 -1.7089842,3.814453 V 40.075196 c 0,1.681492 0.620335,3.086002 1.7070312,3.964843 1.086696,0.878842 2.524938,1.22461 4.095703,1.22461 h 18.994141 c 1.547191,0 2.892885,-0.53207 3.810546,-1.484375 0.917662,-0.952306 1.378907,-2.274027 1.378907,-3.705078 V 12.805664 c 0,-1.577086 -0.452881,-2.9306734 -1.398438,-3.8496094 -0.945556,-0.918936 -2.284716,-1.320313 -3.791015,-1.320313 h -7.523438 a 1,1 0 0 0 -1,1 1,1 0 0 0 1,1 h 7.523438 c 1.16169,0 1.916531,0.285568 2.398437,0.7539074 0.481906,0.468339 0.791016,1.202241 0.791016,2.416015 v 27.269532 c 0,1.012838 -0.305514,1.784199 -0.81836,2.316406 -0.512845,0.532207 -1.262454,0.873047 -2.371093,0.873047 H 14.80957 c -1.271475,0 -2.234602,-0.291401 -2.83789,-0.779297 -0.603289,-0.487896 -0.964844,-1.176659 -0.964844,-2.410156 V 7.9052736 c 0,-1.0269791 0.363509,-1.7483141 1,-2.28711 0.63649,-0.5387951 1.597629,-0.882812 2.802734,-0.882812 h 18.751953 a 1,1 0 0 0 1,-1 1,1 0 0 0 -1,-1.0000001 z m 15.673828,16.7792975 -9.925781,0.01953 c -0.818958,0.0017 -1.619475,0.331765 -2.13086,0.925781 a 0.90008998,0.90008998 0 0 0 -0.03711,0.04492 l -2.763672,3.667969 c -0.534656,0.679846 -0.759765,1.418927 -0.759765,2.230469 v 8.234375 c 0,0.703501 0.151798,1.399431 0.601562,1.955078 0.449764,0.555646 1.191361,0.867187 1.976563,0.867187 a 0.89999998,0.89999998 0 0 0 0.90039,-0.90039 0.89999998,0.89999998 0 0 0 -0.90039,-0.900391 c -0.382348,0 -0.478504,-0.07856 -0.576172,-0.199219 -0.09767,-0.120661 -0.201172,-0.388376 -0.201172,-0.822265 v -8.234375 c 0,-0.646418 -0.02536,-0.612547 0.373047,-1.119141 a 0.90008998,0.90008998 0 0 0 0.01172,-0.01367 l 2.742188,-3.638672 c 0.253232,-0.29428 0.245015,-0.297771 0.767578,-0.298828 l 9.923828,-0.01953 c 0.395592,0 0.534421,0.08896 0.609375,0.166015 0.07495,0.07706 0.160157,0.232702 0.160157,0.611329 v 12.546875 c 0,0.386875 -0.109527,0.651475 -0.234376,0.798828 -0.124847,0.147352 -0.253583,0.222656 -0.535156,0.222656 H 19.721679 a 0.89999998,0.89999998 0 0 0 -0.90039,0.900391 0.89999998,0.89999998 0 0 0 0.90039,0.90039 h 10.763672 c 0.749568,0 1.455721,-0.32533 1.908203,-0.859375 0.452483,-0.534045 0.66211,-1.232735 0.66211,-1.96289 V 22.090821 c 0,-0.689043 -0.191179,-1.373011 -0.671875,-1.867188 -0.480696,-0.494177 -1.17617,-0.708984 -1.898438,-0.708984 a 0.90008998,0.90008998 0 0 0 -0.002,0 z m -8.431641,2.019531 a 0.80000001,0.80000001 0 0 0 -0.798828,0.798828 v 1.646484 c 0,0.476756 0.201113,0.976425 0.566407,1.273438 0.365293,0.297013 0.8011,0.384766 1.210937,0.384766 h 5.001953 c 0.446872,0 0.899893,-0.16782 1.207031,-0.488282 0.307139,-0.320461 0.445313,-0.753278 0.445313,-1.169922 v -1.646484 a 0.80000001,0.80000001 0 0 0 -0.798828,-0.798828 0.80000001,0.80000001 0 0 0 -0.800781,0.798828 v 1.646484 c 0,0.08389 -0.01769,0.07892 -0.002,0.0625 0.01574,-0.01642 0.04336,-0.0039 -0.05078,-0.0039 h -5.001953 c -0.151152,0 -0.183994,-0.03006 -0.179687,-0.02539 5.54e-4,-0.0099 0.002,-0.0031 0.002,-0.0332 V 22.333008 A 0.80000001,0.80000001 0 0 0 22.051757,21.53418 Z m -1.15039,6.548828 c -0.606648,0 -1.210624,0.188498 -1.595703,0.632813 -0.38508,0.444315 -0.482422,1.001168 -0.482422,1.550781 v 2.830078 a 0.80000001,0.80000001 0 0 0 0.798828,0.800781 0.80000001,0.80000001 0 0 0 0.800781,-0.800781 v -2.830078 c 0,-0.345307 0.07166,-0.480676 0.0918,-0.503906 0.02013,-0.02323 0.05816,-0.08008 0.386719,-0.08008 h 6.568359 c 0.333576,0 0.360839,0.05709 0.384766,0.08594 0.02393,0.02884 0.09375,0.174056 0.09375,0.498047 v 2.763672 a 0.80008001,0.80008001 0 0 0 0,0.01758 c 0.006,0.290569 -0.05839,0.403514 -0.101563,0.451172 -0.04318,0.04766 -0.118021,0.108765 -0.396484,0.115234 h -6.583984 a 0.80000001,0.80000001 0 0 0 -0.798828,0.798828 0.80000001,0.80000001 0 0 0 0.798828,0.800782 h 6.603515 a 0.80008001,0.80008001 0 0 0 0.01758,0 c 0.584538,-0.01358 1.16041,-0.216218 1.544922,-0.640626 0.384512,-0.424407 0.527256,-0.992392 0.515625,-1.558593 v -2.748047 c 0,-0.52196 -0.08881,-1.068587 -0.46289,-1.519531 -0.374084,-0.450945 -0.984791,-0.664063 -1.615235,-0.664063 z" fill="#008055"/>
</svg>
