<svg xmlns="http://www.w3.org/2000/svg" width="48" height="48">
	<path d="m 14.811799,2.737314 c -1.586186,0 -3.027503,0.45288 -4.09375,1.355469 C 9.6518017,4.995372 9.0110167,6.359795 9.0110167,7.907236 v 17.554687 c -0.020868,0.506334 -0.018364,0.883214 0.085938,1.279297 0.052151,0.198042 0.125478,0.422971 0.357422,0.660156 0.231943,0.237187 0.6961583,0.391768 1.0234373,0.339844 0.654558,-0.103848 0.818685,-0.421274 1.042969,-0.693359 0.224284,-0.272085 0.43308,-0.592133 0.658203,-0.970703 a 1.0001,1.0001 0 0 0 0.0098,-0.01953 l 4.251953,-7.509765 a 1.0001,1.0001 0 0 0 0.0078,-0.01367 c 0.07129,-0.130872 0.106532,-0.151055 0.171875,-0.253906 0.05703,0.212 0.11117,0.334679 0.16211,0.660156 l 2.308593,15.232422 a 1.0001,1.0001 0 0 0 0.002,0.0039 c 0.106044,0.681141 0.201163,1.174036 0.353515,1.59375 0.07618,0.209857 0.15263,0.409494 0.367188,0.642578 0.214558,0.233085 0.759214,0.466787 1.175781,0.353516 0.416567,-0.113272 0.589114,-0.338372 0.724609,-0.511719 0.135496,-0.173347 0.230913,-0.344301 0.328125,-0.535156 0.194424,-0.381711 0.382014,-0.845139 0.59961,-1.41211 a 1.0001,1.0001 0 0 0 0.01172,-0.03125 l 2.72461,-7.910156 a 1.0001,1.0001 0 0 0 0.01367,-0.03516 c 0.08903,-0.294939 0.180751,-0.465562 0.259765,-0.601562 0.115021,0.116025 0.257976,0.264956 0.451172,0.597656 a 1.0001,1.0001 0 0 0 0.0098,0.01758 l 2.511719,4.130859 a 1.0001,1.0001 0 0 0 0.03516,0.05469 c 0.381402,0.544771 0.940528,1.057579 1.716797,1.039062 0.776268,-0.01852 1.304852,-0.535968 1.689453,-1.095703 a 1.0001,1.0001 0 0 0 0.03516,-0.05469 l 2.273438,-3.816407 a 1.0001,1.0001 0 0 0 0.0098,-0.01563 c 0.305974,-0.534431 0.485309,-0.602392 0.47461,-0.625 0.05066,0.05644 0.09845,0.09382 0.1875,0.261719 0.0015,0.0028 0.0024,0.001 0.0039,0.0039 l 1.671875,3.308594 a 1.0001,1.0001 0 0 0 0.03516,0.06445 c 0.07675,0.127487 0.236354,0.662439 0.242188,1.001953 v 9.46875 c 0,1.01284 -0.305517,1.786154 -0.81836,2.31836 -0.512843,0.532206 -1.260501,0.873047 -2.36914,0.873047 H 14.815705 c -1.271481,0 -2.234604,-0.291402 -2.837891,-0.779297 -0.603287,-0.487896 -0.96289,-1.178611 -0.96289,-2.41211 v -9.957031 a 1,1 0 0 0 -1,-1 1,1 0 0 0 -1.0000003,1 v 9.957031 c 0,1.681492 0.620335,3.087955 1.7070313,3.966797 1.086695,0.878842 2.522981,1.22461 4.09375,1.22461 h 18.996094 c 1.547191,0 2.892887,-0.532069 3.810546,-1.484375 0.91766,-0.952307 1.376954,-2.275981 1.376954,-3.707032 v -9.484375 a 1.0001,1.0001 0 0 0 0,-0.01758 c -0.01217,-0.708165 -0.162926,-1.391427 -0.529297,-2 l 0.03711,0.06445 -1.679687,-3.322265 a 1.0001,1.0001 0 0 0 -0.0078,-0.01367 c -0.220279,-0.419437 -0.475314,-0.777537 -0.839844,-1.052735 -0.364529,-0.275196 -0.884359,-0.433714 -1.361328,-0.357421 -0.953937,0.152584 -1.486106,0.860606 -1.970703,1.707031 l -2.240234,3.757812 c -0.0362,0.05127 -0.04213,0.05142 -0.06836,0.08203 -0.0137,-0.01734 -0.01273,-0.01232 -0.0293,-0.03516 L 27.83133,25.323252 c -0.312882,-0.538808 -0.6278,-0.959003 -1.021485,-1.279297 -0.393684,-0.320295 -0.946202,-0.546392 -1.503906,-0.447266 -0.557703,0.09913 -0.961162,0.463166 -1.230468,0.84375 -0.269308,0.380584 -0.449885,0.816474 -0.59961,1.3125 l -2.52539,7.330078 -2.189454,-14.441406 a 1.0001,1.0001 0 0 0 0,-0.0059 c -0.109562,-0.702848 -0.242276,-1.252969 -0.451172,-1.722657 -0.208895,-0.469687 -0.54402,-0.97724 -1.201171,-1.125 -0.657152,-0.147759 -1.200842,0.204074 -1.539063,0.541016 -0.338221,0.336942 -0.603427,0.745933 -0.876953,1.248047 L 11.011017,24.07907 V 7.907236 c 0,-1.026979 0.36351,-1.748314 1,-2.28711 0.636491,-0.538795 1.595677,-0.882812 2.800782,-0.882812 h 18.751953 a 1,1 0 0 0 1,-1 1,1 0 0 0 -1,-1 z m 11.470703,4.898438 a 1,1 0 0 0 -1,1 1,1 0 0 0 1,1 h 7.523437 c 1.161691,0 1.916534,0.287521 2.398438,0.755859 0.481903,0.468338 0.791015,1.200287 0.791015,2.414062 v 10.335938 a 1,1 0 0 0 1,1 1,1 0 0 0 1,-1 V 12.805673 c 0,-1.577085 -0.45093,-2.928719 -1.396484,-3.847656 C 36.653354,8.03908 35.312239,7.635752 33.805939,7.635752 Z" fill="#008055"/>
</svg>
