<svg xmlns="http://www.w3.org/2000/svg" width="48" height="48">
	<path d="m 14.375977,6.6279295 c -1.757661,0 -3.407852,0.5083727 -4.6406255,1.5898438 -1.232773,1.0814708 -1.941406,2.7282057 -1.941406,4.4804697 v 22.583984 c 0,1.857115 0.676864,3.572901 1.955078,4.644531 1.2782135,1.07163 2.9215075,1.445313 4.6269535,1.445313 h 19.623046 c 1.744541,0 3.360535,-0.607071 4.490235,-1.732422 1.129699,-1.125351 1.716797,-2.707212 1.716797,-4.357422 V 15.272461 c 0,-1.76769 -0.574646,-3.415863 -1.757813,-4.519531 C 37.265076,9.6492615 35.660398,9.2041014 33.999023,9.2041014 h -8.185546 a 1.9,1.9 0 0 0 -1.900391,1.8984376 1.9,1.9 0 0 0 1.900391,1.900391 h 8.185546 c 1.006617,0 1.553386,0.243737 1.857422,0.527344 0.304037,0.283607 0.550782,0.719018 0.550782,1.742187 v 20.009766 c 0,0.793679 -0.239061,1.304901 -0.59961,1.664062 -0.360548,0.359162 -0.897303,0.625 -1.808594,0.625 H 14.375977 c -1.136795,0 -1.83355,-0.261533 -2.185547,-0.55664 -0.351996,-0.295107 -0.595703,-0.674548 -0.595703,-1.732422 V 12.698243 c 0,-0.822158 0.236245,-1.263158 0.646484,-1.623047 0.410239,-0.359889 1.101136,-0.648438 2.134766,-0.648438 H 22.09668 A 1.9,1.9 0 0 0 23.99707,8.5283201 1.9,1.9 0 0 0 22.09668,6.6279295 Z M 26.15918,16.336914 a 0.80000001,0.80000001 0 0 0 -0.56836,0.28711 l -5.513672,6.65039 a 0.80008001,0.80008001 0 0 0 0.25,1.222657 c 1.08779,0.558702 1.800924,1.311783 2.123047,2.537109 a 0.80000001,0.80000001 0 0 0 0.978516,0.570313 0.80000001,0.80000001 0 0 0 0.570312,-0.976563 c -0.345977,-1.316063 -1.182525,-2.239477 -2.173828,-2.957031 l 4.998047,-6.025391 a 0.80000001,0.80000001 0 0 0 -0.105469,-1.125 0.80000001,0.80000001 0 0 0 -0.558593,-0.183594 z m -2.839844,0.402344 a 0.80000001,0.80000001 0 0 0 -0.572266,0.279297 l -6.18164,7.261719 a 0.80008001,0.80008001 0 0 0 0.498047,1.310547 c 2.372579,0.332314 3.159257,1.657874 3.189453,2.871093 0.03019,1.21322 -0.691284,2.281971 -2.126953,2.300782 h -1.0625 c -0.424808,0 -0.633961,-0.09915 -0.748047,-0.208985 -0.114086,-0.109835 -0.214844,-0.293516 -0.214844,-0.728515 v -8.0625 c 0,-0.340524 0.09813,-0.557141 0.236328,-0.699219 0.138198,-0.142079 0.3415,-0.248047 0.726563,-0.248047 h 1.833984 a 0.80000001,0.80000001 0 0 0 0.798828,-0.800781 0.80000001,0.80000001 0 0 0 -0.798828,-0.798828 h -1.833984 c -0.732598,0 -1.409311,0.255665 -1.873047,0.732422 -0.463737,0.476756 -0.689453,1.136236 -0.689453,1.814453 v 8.0625 c 0,0.72839 0.218491,1.412402 0.705078,1.880859 0.486587,0.468457 1.159518,0.65625 1.857422,0.65625 h 1.074218 a 0.80008001,0.80008001 0 0 0 0.0098,0 c 2.28887,-0.02999 3.754106,-1.969545 3.705078,-3.939453 -0.04098,-1.646459 -1.19606,-3.27669 -3.283203,-4.029297 l 5.396484,-6.337891 a 0.80000001,0.80000001 0 0 0 -0.08984,-1.126953 0.80000001,0.80000001 0 0 0 -0.556641,-0.189453 z m 5.042969,2.466797 a 0.80000001,0.80000001 0 0 0 -0.759766,0.482422 l -3.705078,8.55664 a 0.80008001,0.80008001 0 0 0 -0.002,0.0039 c -0.413249,0.966567 -0.742168,1.550722 -1.091797,1.964843 a 0.80008001,0.80008001 0 0 0 -0.01953,0.02344 c -0.126976,0.162722 -0.239915,0.297272 -0.347657,0.443359 -0.107741,0.146088 -0.314693,0.264795 -0.279296,0.783203 0.0177,0.259206 0.213919,0.557337 0.392578,0.679688 0.178659,0.122351 0.314778,0.150833 0.433593,0.173828 0.237629,0.04599 0.44421,0.04688 0.730469,0.04688 l 6.759766,-0.002 c 0.738268,0 1.434267,-0.207443 1.964844,-0.652344 0.530577,-0.4449 0.855468,-1.137991 0.855468,-1.884765 v -8.066407 c 0,-0.788439 -0.312083,-1.513066 -0.861328,-1.953125 -0.549244,-0.440058 -1.242373,-0.59375 -1.958984,-0.59375 a 0.80000001,0.80000001 0 0 0 -0.800781,0.798829 0.80000001,0.80000001 0 0 0 0.800781,0.800781 c 0.479399,0 0.795158,0.112493 0.957031,0.242187 0.161873,0.129695 0.261719,0.278408 0.261719,0.705078 v 8.066407 c 0,0.326455 -0.09724,0.502266 -0.283203,0.658203 -0.185967,0.155937 -0.499266,0.279297 -0.935547,0.279297 h -6.173828 c 0.371174,-0.526452 0.715156,-1.063212 1.066406,-1.884766 v 0.0039 l 3.705078,-8.558593 a 0.80000001,0.80000001 0 0 0 -0.416016,-1.050782 0.80000001,0.80000001 0 0 0 -0.292968,-0.06641 z" fill="#008055"/>
</svg>
