<svg xmlns="http://www.w3.org/2000/svg" width="48" height="48">
	<path d="m 14.80957,1.7353515 c -1.776726,0 -3.459109,0.507311 -4.740234,1.591797 -1.281126,1.084485 -2.0625,2.770453 -2.0625,4.578125 V 40.073242 c 0,1.90549 0.749725,3.669826 2.078125,4.744141 1.3284,1.074314 3.002246,1.447265 4.722656,1.447265 h 18.996094 c 1.766467,0 3.409229,-0.628658 4.529297,-1.791015 1.120066,-1.162357 1.660156,-2.760236 1.660156,-4.400391 V 14.803711 c 0,-1.75874 -0.523793,-3.420217 -1.701172,-4.564453 C 37.114613,9.0950215 35.482315,8.6337885 33.803711,8.6337885 h -5.59375 a 2,2 0 0 0 -2,2.0000005 2,2 0 0 0 2,2 h 5.59375 c 0.989386,0 1.451093,0.229617 1.701171,0.472657 0.250079,0.243038 0.488282,0.665145 0.488282,1.697265 v 25.269531 c 0,0.803735 -0.228628,1.302844 -0.539063,1.625 -0.310435,0.322156 -0.761028,0.566406 -1.65039,0.566406 H 14.807617 c -1.12183,0 -1.845446,-0.264217 -2.207031,-0.55664 -0.361585,-0.292424 -0.59375,-0.625265 -0.59375,-1.634766 V 7.9052735 c 0,-0.766749 0.224872,-1.168492 0.646484,-1.525391 0.421262,-0.356602 1.141067,-0.644051 2.154297,-0.644531 h 18.753906 a 2,2 0 0 0 2,-2 2,2 0 0 0 -2,-2 z M 31.170898,17.182617 c -0.271441,-0.02642 -0.536682,-0.01558 -0.785156,0.01563 -2.277043,0.108413 -3.884605,2.18346 -4.035156,4.31836 -0.04981,0.47582 0.01878,0.90579 0.164062,1.216797 a 0.80000001,0.80000001 0 0 0 1.064453,0.386717 0.80000001,0.80000001 0 0 0 0.384766,-1.0625 c -0.03554,-0.07607 -0.05613,-0.09615 -0.02539,-0.378906 a 0.80008001,0.80008001 0 0 0 0.002,-0.0332 c 0.0912,-1.395115 1.245301,-2.810419 2.542969,-2.857422 a 0.80008001,0.80008001 0 0 0 0.07813,-0.0078 c 0.26283,-0.03528 0.614961,7.46e-4 0.796875,0.08008 0.161713,0.07052 0.169388,0.09028 0.179688,0.228515 -0.107628,1.084452 -0.884024,2.117495 -1.806641,2.978516 -0.585881,0.487098 -0.612658,0.568955 -1.392578,0.873047 a 0.80000001,0.80000001 0 0 0 -0.455078,1.037109 0.80000001,0.80000001 0 0 0 1.037109,0.455078 c 0.912676,-0.355855 1.270222,-0.666949 1.851563,-1.148437 a 0.80008001,0.80008001 0 0 0 0.03516,-0.0293 c 1.069778,-0.994571 2.22012,-2.344745 2.349609,-4.115234 a 0.80008001,0.80008001 0 0 0 0,-0.09375 c -0.03589,-0.784438 -0.59324,-1.405114 -1.160156,-1.652344 -0.277089,-0.120838 -0.554731,-0.184518 -0.826172,-0.210938 z m -7.09375,1.091797 c -0.557055,0.07208 -1.050549,0.369771 -1.384766,0.753906 -0.445621,0.512181 -0.685942,1.173771 -0.65625,1.867188 a 0.80008001,0.80008001 0 0 0 0,0.0059 c 0.04258,0.89111 0.114158,1.355735 0.207032,1.828125 a 0.80000001,0.80000001 0 0 0 0.939453,0.630859 0.80000001,0.80000001 0 0 0 0.556641,-0.416015 0.80000001,0.80000001 0 0 0 0.355468,0.634765 0.80000001,0.80000001 0 0 0 1.109375,-0.226562 c 0.405272,-0.612662 0.650107,-1.106605 0.863281,-1.947266 a 0.80008001,0.80008001 0 0 0 0.0059,-0.02148 c 0.103635,-0.461694 0.168522,-1.035757 0.0332,-1.640625 -0.06766,-0.302434 -0.191151,-0.622288 -0.433594,-0.902344 -0.242442,-0.280052 -0.616652,-0.493496 -1.021484,-0.558592 -0.196504,-0.03149 -0.388534,-0.03184 -0.574219,-0.0078 z m -3.96289,1.392578 c -0.206638,-0.0061 -0.408741,0.02806 -0.585938,0.0957 -0.354393,0.13529 -0.615885,0.371036 -0.816406,0.630859 -0.401042,0.519646 -0.615966,1.162284 -0.5,1.857422 a 0.80008001,0.80008001 0 0 0 0.002,0.0098 c 0.166542,0.919801 0.563654,1.751807 1.361328,2.326172 a 0.80000001,0.80000001 0 0 0 1.117187,-0.181641 0.80000001,0.80000001 0 0 0 0.08399,-0.783204 0.80000001,0.80000001 0 0 0 0.386719,0.164064 0.80000001,0.80000001 0 0 0 0.902343,-0.681641 c 0.07313,-0.525136 0.09033,-1.11699 -0.07813,-1.71289 -0.16845,-0.595902 -0.567574,-1.204738 -1.222656,-1.560547 a 0.80008001,0.80008001 0 0 0 -0.04102,-0.02148 c -0.191564,-0.09027 -0.402737,-0.136516 -0.609374,-0.142578 z m 4.283203,0.19336 c 0.06749,0.01085 0.04848,0.0089 0.06445,0.02734 0.01597,0.01845 0.05524,0.08534 0.08203,0.205078 0.05302,0.237001 0.02905,0.647882 -0.0332,0.931641 -0.18394,0.722235 -0.273298,0.890011 -0.640625,1.445312 a 0.80000001,0.80000001 0 0 0 -0.04102,0.07031 0.80000001,0.80000001 0 0 0 -0.01563,-0.11914 c -0.08632,-0.439047 -0.139717,-0.760955 -0.179687,-1.59375 -0.01071,-0.250063 0.102944,-0.561068 0.265625,-0.748047 0.162147,-0.186367 0.29833,-0.250206 0.498047,-0.21875 z m -4.347657,1.441406 c 0.202552,0.131255 0.327063,0.272898 0.398438,0.52539 0.08013,0.283454 0.0864,0.674657 0.0332,1.056641 a 0.80000001,0.80000001 0 0 0 0.05664,0.427734 0.80000001,0.80000001 0 0 0 -0.02734,-0.02148 c -0.482138,-0.347162 -0.587207,-0.586074 -0.71875,-1.310547 -0.01704,-0.122343 0.06163,-0.448814 0.185547,-0.609375 0.03764,-0.04877 0.04938,-0.05141 0.07227,-0.06836 z m -3.285156,0.923828 c -0.296845,0.02391 -0.577497,0.13014 -0.789062,0.271484 -0.42313,0.282687 -0.729578,0.683594 -0.832032,1.222657 a 0.80008001,0.80008001 0 0 0 -0.0059,0.03711 c -0.167148,1.180318 0.289688,2.450958 1.412109,3.03125 a 0.80000001,0.80000001 0 0 0 1.078125,-0.34375 0.80000001,0.80000001 0 0 0 -0.34375,-1.078125 c -0.45885,-0.237226 -0.646375,-0.693907 -0.560547,-1.357422 0.0046,-0.0088 0.04556,-0.05501 0.07813,-0.09961 0.290653,0.271396 0.432307,0.542417 0.449218,1.029297 a 0.80000001,0.80000001 0 0 0 0.828125,0.771484 0.80000001,0.80000001 0 0 0 0.771485,-0.828125 C 18.8227,24.079003 18.547546,23.101128 17.680664,22.46582 a 0.80008001,0.80008001 0 0 0 -0.02734,-0.01953 c -0.278729,-0.187042 -0.59183,-0.24461 -0.888676,-0.220704 z m 9.064453,1.986328 c -1.525673,-0.07287 -3.0434,0.194557 -4.455078,0.732422 a 0.80008001,0.80008001 0 0 0 -0.01367,0.0059 c -1.702794,0.685942 -3.498627,1.913151 -4.185547,3.935547 a 0.80008001,0.80008001 0 0 0 0,0.002 c -0.573989,1.701073 -0.149138,3.483292 0.609375,4.902343 a 0.80008001,0.80008001 0 0 0 0.0039,0.0078 c 1.281546,2.343256 3.516603,4.404555 6.333984,4.740234 2.317835,0.28365 4.377889,-1.23438 5.404297,-3.125 a 0.80008001,0.80008001 0 0 0 0.03711,-0.08008 c 0.103234,-0.252068 0.335436,-0.669439 0.46875,-1.185547 0.133314,-0.516107 0.106401,-1.301426 -0.439453,-1.822265 a 0.80008001,0.80008001 0 0 0 -0.144531,-0.111329 c -1.207607,-0.713641 -2.574391,-0.360885 -3.554688,0.123047 a 0.80000001,0.80000001 0 0 0 -0.363281,1.072266 0.80000001,0.80000001 0 0 0 1.070313,0.363281 c 0.649173,-0.320471 1.38221,-0.417067 1.886718,-0.205078 0.01317,0.02423 0.03687,0.01426 -0.0059,0.179687 -0.05877,0.22751 -0.223393,0.561532 -0.371094,0.91211 -0.76589,1.400449 -2.316537,2.472831 -3.796875,2.291016 a 0.80008001,0.80008001 0 0 0 -0.002,0 c -2.131658,-0.25398 -4.022577,-1.919875 -5.115234,-3.914063 v -0.002 c -0.608439,-1.139287 -0.88828,-2.496886 -0.505768,-3.632837 v -0.002 c 0.470723,-1.383716 1.81983,-2.37704 3.259766,-2.958984 1.214855,-0.462069 2.509826,-0.686757 3.792969,-0.626953 0.868143,0.06319 1.668114,0.234441 2.166015,0.693359 0.20333,0.21111 0.277693,0.475237 0.236329,0.824219 -0.04205,0.354769 -0.232374,0.750259 -0.466797,0.996094 a 0.80008001,0.80008001 0 0 0 -0.02734,0.03125 c -1.204891,1.399215 -3.235507,2.094754 -4.917969,3.71289 -0.613259,0.540174 -0.924795,1.425917 -0.646484,2.263672 a 0.80008001,0.80008001 0 0 0 0.02148,0.06055 c 0.272614,0.644135 0.758459,1.227441 1.46875,1.521484 0.710291,0.294044 1.649382,0.176182 2.394531,-0.43164 a 0.80000001,0.80000001 0 0 0 0.113282,-1.125 0.80000001,0.80000001 0 0 0 -1.125,-0.115235 c -0.385751,0.314659 -0.555291,0.28286 -0.771485,0.19336 -0.205262,-0.08497 -0.438299,-0.346046 -0.574218,-0.634766 -0.05387,-0.195678 -0.0098,-0.37408 0.177734,-0.537109 a 0.80008001,0.80008001 0 0 0 0.03125,-0.0293 c 1.337231,-1.295136 3.447113,-2.003712 5.021484,-3.818359 0.485019,-0.51356 0.805116,-1.178975 0.890625,-1.900391 0.08615,-0.72681 -0.09763,-1.552383 -0.695312,-2.154297 a 0.80008001,0.80008001 0 0 0 -0.01953,-0.01953 C 28.070673,24.453099 26.83779,24.28466 25.848633,24.21382 a 0.80008001,0.80008001 0 0 0 -0.01953,-0.002 z" fill="#008055"/>
</svg>
