<svg xmlns="http://www.w3.org/2000/svg" width="48" height="48">
	<path d="m 14.808594,2.734375 c -1.586185,0 -3.02555,0.454833 -4.091797,1.357422 -1.0662465,0.902589 -1.7089845,2.265059 -1.7089845,3.8125 v 32.169922 c 0,1.681492 0.620335,3.086002 1.7070315,3.964844 1.086696,0.878841 2.522986,1.226562 4.09375,1.226562 h 18.996094 c 1.54719,0 2.892887,-0.534022 3.810546,-1.486328 0.91766,-0.952307 1.376954,-2.274028 1.376954,-3.705078 V 12.804687 c 0,-1.577084 -0.45093,-2.930672 -1.396485,-3.849609 C 36.650149,8.036141 35.310987,7.634766 33.804688,7.634766 h -7.525391 a 1,1 0 0 0 -1,1 1,1 0 0 0 1,1 h 7.525391 c 1.16169,0 1.916533,0.287521 2.398437,0.755859 0.481904,0.468338 0.789063,1.200287 0.789063,2.414062 v 27.269532 c 0,1.01284 -0.305517,1.786153 -0.81836,2.318359 -0.512842,0.532206 -1.260502,0.873047 -2.36914,0.873047 H 14.808594 c -1.271475,0 -2.232649,-0.293354 -2.835938,-0.78125 -0.603289,-0.487896 -0.964844,-1.176659 -0.964844,-2.410156 V 7.904297 c 0,-1.026979 0.36351,-1.748314 1,-2.28711 0.636491,-0.538795 1.595677,-0.882812 2.800782,-0.882812 H 33.5625 a 1,1 0 0 0 1,-1 1,1 0 0 0 -1,-1 z m 11.080078,18.861328 c -1.276006,0 -2.358207,0.840742 -2.716797,1.97461 l 0.0098,-0.03125 -3.214844,8.996093 -1.015625,-3.015625 A 0.90008998,0.90008998 0 0 0 18.9375,29.484375 C 18.753441,29.004092 18.476247,28.567186 18.058594,28.265625 17.64094,27.964064 17.129404,27.84375 16.634766,27.84375 h -1.107422 a 0.89999998,0.89999998 0 0 0 -0.900391,0.900391 0.89999998,0.89999998 0 0 0 0.900391,0.90039 h 1.107422 c 0.236001,0 0.311519,0.03706 0.371093,0.08008 0.05869,0.04238 0.14721,0.139337 0.248047,0.398438 l 1.833985,5.443359 a 0.90008998,0.90008998 0 0 0 1.701172,0.01563 l 4.08789,-11.4375 a 0.90008998,0.90008998 0 0 0 0.0098,-0.03125 c 0.181129,-0.572733 0.333278,-0.716797 1.001953,-0.716797 H 31.8848 a 0.89999998,0.89999998 0 0 0 0.90039,-0.90039 0.89999998,0.89999998 0 0 0 -0.90039,-0.900391 z m -0.04492,5.771484 a 0.89999998,0.89999998 0 0 0 -0.5,0.169922 0.89999998,0.89999998 0 0 0 -0.199219,1.257813 l 2.009766,2.771484 -2.009766,2.773438 a 0.89999998,0.89999998 0 0 0 0.199219,1.255859 0.89999998,0.89999998 0 0 0 1.257813,-0.199219 l 1.666015,-2.296875 1.664063,2.296875 a 0.89999998,0.89999998 0 0 0 1.255859,0.199219 0.89999998,0.89999998 0 0 0 0.201172,-1.255859 l -2.009766,-2.773438 2.009766,-2.771484 A 0.89999998,0.89999998 0 0 0 31.1875,27.537109 0.89999998,0.89999998 0 0 0 30.666016,27.367187 0.89999998,0.89999998 0 0 0 29.931641,27.738281 l -1.664063,2.296875 -1.666015,-2.296875 A 0.89999998,0.89999998 0 0 0 25.84375,27.367187 Z" fill="#008055"/>
</svg>
