<svg xmlns="http://www.w3.org/2000/svg" width="48" height="48">
	<path d="m 14.375977,6.6279295 c -1.757661,0 -3.407852,0.510326 -4.6406255,1.591797 -1.232774,1.081471 -1.941406,2.7262535 -1.941406,4.4785165 v 22.583984 c 0,1.857116 0.674911,3.572901 1.953124,4.644531 1.2782145,1.071631 2.9215085,1.445313 4.6269535,1.445313 H 33.99707 c 1.744541,0 3.362487,-0.607072 4.492188,-1.732422 1.1297,-1.12535 1.716797,-2.707209 1.716797,-4.357422 V 15.272462 c 0,-1.767693 -0.574644,-3.415865 -1.757813,-4.519532 C 37.265073,9.6492635 35.658445,9.2041015 33.99707,9.2041015 h -8.185547 a 1.9,1.9 0 0 0 -1.898437,1.8984385 1.9,1.9 0 0 0 1.898437,1.90039 h 8.185547 c 1.006617,0 1.555337,0.243735 1.859375,0.527344 0.304038,0.283609 0.548828,0.71902 0.548828,1.742188 v 20.009765 c 0,0.793677 -0.237104,1.306853 -0.597656,1.666016 -0.360551,0.359162 -0.899256,0.625 -1.810547,0.625 H 14.374023 c -1.136794,0 -1.833551,-0.263487 -2.185546,-0.558594 -0.351998,-0.295107 -0.595704,-0.674547 -0.595704,-1.732422 V 12.698243 c 0,-0.822158 0.238199,-1.263158 0.648438,-1.623047 0.410239,-0.359889 1.101136,-0.648438 2.134766,-0.648438 H 22.09668 A 1.9,1.9 0 0 0 23.99707,8.5283205 1.9,1.9 0 0 0 22.09668,6.6279295 Z M 27.25293,14.555665 a 0.80008001,0.80008001 0 0 0 -0.222657,0.03516 c -1.048893,0.317464 -1.88532,0.720494 -2.498046,1.361328 -0.612728,0.640834 -0.930465,1.491892 -1.019532,2.458984 a 0.80000001,0.80000001 0 0 0 0.722657,0.869141 0.80000001,0.80000001 0 0 0 0.214843,-0.0078 c -0.1875,0.05247 -0.347152,0.08984 -0.443359,0.08984 -0.155639,0 -0.738093,-0.132809 -1.410156,-0.283203 -0.672064,-0.150394 -1.480759,-0.304013 -2.34961,-0.214844 -0.86885,0.08917 -1.811692,0.466995 -2.541015,1.285157 -0.729326,0.818161 -1.242969,2.011546 -1.529297,3.699218 a 0.90008998,0.90008998 0 0 0 -0.0039,0.0332 c -0.326289,2.496246 0.523393,4.826941 1.595703,6.548829 0.536155,0.860943 1.129885,1.573925 1.707031,2.099609 0.577146,0.525684 1.046315,0.951172 1.863281,0.951172 0.843018,0 1.485343,-0.311208 1.910156,-0.53711 0.424813,-0.2259 0.61257,-0.326171 0.857422,-0.326171 0.13026,0 0.397525,0.107484 0.869141,0.326171 0.471615,0.218689 1.141677,0.496094 1.992187,0.496094 1.38908,0 2.467861,-0.939458 3.259766,-1.982422 0.791905,-1.042964 1.337294,-2.252225 1.476563,-3.351562 a 0.89999998,0.89999998 0 0 0 -0.779297,-1.00586 0.89999998,0.89999998 0 0 0 -1.00586,0.779297 c -0.07943,0.627013 -0.51858,1.691561 -1.125,2.490235 -0.60642,0.798673 -1.338851,1.269531 -1.826172,1.269531 -0.47979,0 -0.819691,-0.135837 -1.234375,-0.328125 -0.414684,-0.192288 -0.912714,-0.494141 -1.626953,-0.494141 -0.760447,0 -1.31371,0.331071 -1.701172,0.53711 -0.387462,0.206039 -0.627825,0.328125 -1.066406,0.328125 0.214616,0 -0.22244,-0.09263 -0.65039,-0.482422 -0.427952,-0.389792 -0.938146,-0.990987 -1.392579,-1.720703 -0.906376,-1.455437 -1.584232,-3.408839 -1.335937,-5.347657 0.250573,-1.456114 0.669001,-2.313051 1.089844,-2.785156 0.423546,-0.475138 0.847773,-0.636696 1.380859,-0.691406 0.533087,-0.05471 1.162005,0.04286 1.773438,0.179688 0.611432,0.136825 1.160822,0.328124 1.802734,0.328124 1.079214,0 1.932583,-0.491419 2.753906,-0.669921 0.767891,-0.166891 1.345754,-0.143778 2.03711,0.433593 -1.488518,1.068983 -1.942935,2.686316 -1.808594,4.001954 0.06759,0.661934 0.260575,1.261202 0.519531,1.763671 0.258957,0.50247 0.548505,0.917946 1.041016,1.201172 a 0.89999998,0.89999998 0 0 0 1.228509,-0.332041 0.89999998,0.89999998 0 0 0 -0.332031,-1.228516 c 0.02746,0.01579 -0.183847,-0.165943 -0.337891,-0.464843 -0.154043,-0.298901 -0.285266,-0.703307 -0.328125,-1.123047 -0.08572,-0.839481 0.09484,-1.677006 1.076172,-2.371094 0.171089,-0.117904 0.322227,-0.213004 0.484375,-0.337891 0.164524,-0.126715 0.39506,-0.29384 0.521485,-0.68164 0.126424,-0.3878 -0.01334,-0.819635 -0.16211,-1.052735 -0.148766,-0.233099 -0.312415,-0.397053 -0.519531,-0.599609 a 0.90008998,0.90008998 0 0 0 -0.01563,-0.01367 c -0.604289,-0.56547 -1.274172,-0.86494 -1.931641,-0.992187 -0.657468,-0.127248 -1.302304,-0.08311 -1.855468,0.03711 -0.700564,0.152258 -1.310733,0.355493 -1.763672,0.490234 a 0.80000001,0.80000001 0 0 0 0.492187,-0.666015 c 0.03833,-0.416142 0.212904,-0.595115 0.332032,-0.853516 a 0.80000001,0.80000001 0 0 0 0.214843,0.666016 0.80000001,0.80000001 0 0 0 1.13086,0.02148 c 0.72805,-0.700224 1.00025,-1.611323 1.261718,-2.873047 a 0.80008001,0.80008001 0 0 0 -0.792968,-0.96289 z m -1.492188,2.464843 c -0.0364,0.04257 -0.04515,0.179524 -0.08594,0.21875 a 0.80000001,0.80000001 0 0 0 -0.105469,0.125 c 0.0559,-0.07936 0.05063,-0.234993 0.119141,-0.30664 0.01339,-0.014 0.05815,-0.02323 0.07227,-0.03711 z" fill="#008055"/>
</svg>
