<svg xmlns="http://www.w3.org/2000/svg" width="48" height="48">
	<path d="m 14.375977,6.6279298 c -1.757661,0 -3.407852,0.5103259 -4.6406255,1.5917969 -1.232773,1.081471 -1.941406,2.7262533 -1.941406,4.4785153 v 22.583984 c 0,1.857116 0.676864,3.572901 1.955078,4.644532 1.2782135,1.07163 2.9215075,1.445312 4.6269535,1.445312 h 19.623046 c 1.744541,0 3.360537,-0.60707 4.490235,-1.732422 1.129699,-1.125351 1.716797,-2.707211 1.716797,-4.357422 V 15.274414 c 0,-1.767687 -0.574647,-3.417818 -1.757813,-4.521484 C 37.265076,9.6492639 35.660398,9.2041017 33.999023,9.2041017 h -8.185546 a 1.9,1.9 0 0 0 -1.900391,1.9003903 1.9,1.9 0 0 0 1.900391,1.898438 h 8.185546 c 1.006617,0 1.553387,0.245691 1.857422,0.529296 0.304037,0.283607 0.550782,0.719025 0.550782,1.742188 v 20.007812 c 0,0.793681 -0.239061,1.306855 -0.59961,1.666016 -0.360548,0.359161 -0.897303,0.625 -1.808594,0.625 H 14.375977 c -1.136795,0 -1.83355,-0.263486 -2.185547,-0.558594 -0.351996,-0.295107 -0.595703,-0.674547 -0.595703,-1.732422 V 12.698242 c 0,-0.822157 0.236245,-1.263158 0.646484,-1.623047 0.410239,-0.359888 1.101136,-0.646484 2.134766,-0.646484 H 22.09668 A 1.9,1.9 0 0 0 23.99707,8.5283204 1.9,1.9 0 0 0 22.09668,6.6279298 Z m 5.013671,11.8320312 c -0.547686,0 -1.114332,0.103003 -1.582031,0.488281 -0.467697,0.385278 -0.699219,1.017917 -0.699219,1.638672 v 5.011719 c -0.0068,1.733731 0.771275,3.08035 1.955079,3.802734 1.184764,0.722971 2.651097,0.916016 4.195312,0.916016 1.671917,0 3.209869,-0.207427 4.441406,-0.929688 1.231536,-0.722261 2.048828,-2.071395 2.048828,-3.789062 v -3.988281 a 0.89999998,0.89999998 0 0 0 -0.90039,-0.898438 0.89999998,0.89999998 0 0 0 -0.900391,0.898438 v 3.988281 c 0,1.226292 -0.389539,1.785529 -1.158203,2.236328 -0.768664,0.450799 -2.024327,0.681641 -3.53125,0.681641 -1.376686,0 -2.544229,-0.214947 -3.257812,-0.650391 -0.713583,-0.435445 -1.097699,-0.9969 -1.091797,-2.263672 a 0.90008998,0.90008998 0 0 0 0,-0.0039 v -5.011725 c 0,-0.261865 0.03351,-0.242208 0.04297,-0.25 0.0095,-0.0078 0.132437,-0.07813 0.4375,-0.07813 h 11.564454 c 0.385792,0 0.907519,0.113166 1.24414,0.34375 0.336622,0.230584 0.564453,0.501734 0.564453,1.230469 0,0.739185 -0.217027,0.986533 -0.529297,1.199218 -0.312269,0.212686 -0.811354,0.317132 -1.214843,0.31836 a 0.89999998,0.89999998 0 0 0 -0.896485,0.904297 0.89999998,0.89999998 0 0 0 0.902344,0.896484 c 0.657851,-0.002 1.479935,-0.124995 2.222656,-0.630859 0.742722,-0.505865 1.314453,-1.465215 1.314453,-2.6875 0,-1.232756 -0.595227,-2.199435 -1.347656,-2.714844 -0.752428,-0.515409 -1.584798,-0.658203 -2.259765,-0.658203 z m 11.962891,10.919922 a 0.89999998,0.89999998 0 0 0 -0.626953,0.257812 c -0.644075,0.63451 -1.689912,1.377307 -2.984375,1.421875 h -8.601563 a 0.90008998,0.90008998 0 0 0 -0.0059,0 c -1.35518,0.0098 -2.467634,-0.609918 -3.107422,-1.349609 a 0.89999998,0.89999998 0 0 0 -1.269531,-0.0918 0.89999998,0.89999998 0 0 0 -0.0918,1.269531 c 0.983894,1.137529 2.579721,1.984451 4.482422,1.970703 h 8.625 a 0.90008998,0.90008998 0 0 0 0.0293,0 c 1.929498,-0.06643 3.355454,-1.117809 4.1875,-1.9375 a 0.89999998,0.89999998 0 0 0 0.0098,-1.273437 0.89999998,0.89999998 0 0 0 -0.646484,-0.267578 z" fill="#008055"/>
</svg>
