<svg xmlns="http://www.w3.org/2000/svg" width="48" height="48">
	<path d="m 14.808594,2.7353515 c -1.586185,0 -3.02555,0.452879 -4.091797,1.355468 -1.0662465,0.902591 -1.7089845,2.267013 -1.7089845,3.814454 V 40.075195 c 0,1.681492 0.620335,3.086003 1.7070315,3.964844 1.086696,0.878842 2.522986,1.224609 4.09375,1.224609 h 18.996094 c 1.54719,0 2.892887,-0.532069 3.810546,-1.484375 0.91766,-0.952306 1.376954,-2.274028 1.376954,-3.705078 V 12.805664 c 0,-1.577085 -0.45093,-2.9306725 -1.396485,-3.8496095 -0.945554,-0.918937 -2.284716,-1.320313 -3.791015,-1.320313 h -7.525391 a 1,1 0 0 0 -1,1 1,1 0 0 0 1,1 h 7.525391 c 1.16169,0 1.91458,0.287522 2.396484,0.7558605 0.481904,0.468337 0.791016,1.200286 0.791016,2.414062 v 27.269531 c 0,1.012839 -0.305517,1.7842 -0.81836,2.316407 -0.512842,0.532206 -1.260502,0.873046 -2.36914,0.873046 H 14.808594 c -1.271475,0 -2.232649,-0.291401 -2.835938,-0.779296 -0.603289,-0.487896 -0.964844,-1.17666 -0.964844,-2.410157 V 7.9052735 c 0,-1.02698 0.36351,-1.748314 1,-2.28711 0.636491,-0.538796 1.595677,-0.882812 2.800782,-0.882812 H 33.5625 a 1,1 0 0 0 1,-1 1,1 0 0 0 -1,-1 z M 24.09375,20.30957 c -1.729997,0 -2.986517,1.122829 -3.947266,2.208985 -0.9847,1.113317 -1.859301,2.496569 -2.628906,3.957031 -1.527422,2.898477 -2.736328,5.969399 -2.736328,8.363281 3.64e-4,1.139843 0.94029,2.073411 2.080078,2.076172 a 0.70006999,0.70006999 0 0 0 0.03906,0 c 0.934446,-0.05026 2.557278,-0.314324 4.308593,-1.003906 1.751317,-0.689583 3.628068,-1.809923 4.929688,-3.617188 a 0.70006999,0.70006999 0 0 0 0.01758,-0.02539 c 0.07633,-0.11598 0.142686,-0.214875 0.189453,-0.396485 0.02338,-0.0908 0.04387,-0.211877 0.01172,-0.36914 -0.03215,-0.157263 -0.142376,-0.341782 -0.275391,-0.445313 -0.266027,-0.207061 -0.454121,-0.168607 -0.5625,-0.162109 -0.108378,0.0065 -0.175609,0.02228 -0.228515,0.0332 a 0.70006999,0.70006999 0 0 0 -0.04688,0.01172 c -2.524153,0.701155 -3.83605,1.250453 -5.664063,1.501953 a 0.70006999,0.70006999 0 0 0 -0.0059,0.002 c 0,0 -0.002,0 -0.002,0 0.0095,-0.03518 0.0053,-0.03801 0.01758,-0.07813 0.371538,-1.208671 0.916829,-2.620624 1.621094,-3.957031 0.661231,-1.2548 1.418932,-2.414613 2.058593,-3.138672 0.411343,-0.445562 0.664766,-0.575721 0.771485,-0.591797 0.106985,-0.01612 0.277599,0.01911 0.671875,0.298828 0.554825,0.409106 0.983334,0.698639 2.048828,2.115235 0,0 0.002,0.002 0.002,0.002 1.008854,1.392513 2.032353,3.479878 3.169922,5.978515 a 0.69999999,0.69999999 0 0 0 0.925781,0.347657 0.69999999,0.69999999 0 0 0 0.347656,-0.927735 c -1.147779,-2.521062 -2.182383,-4.667749 -3.316406,-6.230468 a 0.70006999,0.70006999 0 0 0 -0.0078,-0.0098 c -1.132591,-1.506366 -1.798823,-2.00284 -2.345704,-2.40625 a 0.70006999,0.70006999 0 0 0 -0.0098,-0.0078 c -0.516956,-0.368084 -1.075057,-0.638356 -1.695313,-0.544921 -0.620256,0.09343 -1.097124,0.48791 -1.599609,1.035156 a 0.70006999,0.70006999 0 0 0 -0.0078,0.0098 c -0.762802,0.862415 -1.553229,2.086364 -2.253906,3.416016 -0.754753,1.432213 -1.324508,2.91669 -1.71875,4.199219 a 0.70006999,0.70006999 0 0 0 -0.002,0.002 c -0.078,0.254652 -0.132297,0.476724 -0.146484,0.716797 -0.01419,0.240073 0.01877,0.544949 0.226562,0.802734 0.207793,0.257785 0.516876,0.358511 0.753906,0.384766 0.235033,0.02603 0.448917,0.0035 0.6875,-0.03125 1.320126,-0.181625 2.581275,-0.625981 3.84375,-1.013672 -0.905476,0.754479 -1.894185,1.389083 -2.919921,1.792969 -1.571664,0.618844 -3.080926,0.857022 -3.835938,0.90039 -0.367017,-0.0062 -0.677619,-0.311487 -0.677734,-0.671875 5.86e-4,-1.890656 1.102985,-4.913426 2.576172,-7.708984 0.735234,-1.395238 1.561506,-2.693438 2.435546,-3.681641 0.875912,-0.990244 1.783768,-1.736328 2.900391,-1.736328 0.960043,0 1.770947,0.567646 2.523438,1.322266 0.809635,0.811983 1.479557,1.724069 2.248046,2.972656 0.929582,1.50806 2.808403,5.318072 2.705079,9.361328 a 0.69999999,0.69999999 0 0 0 0.68164,0.716797 0.69999999,0.69999999 0 0 0 0.71875,-0.681641 C 33.0854,30.913044 31.090832,26.945107 30.058594,25.270508 29.258404,23.970415 28.514587,22.953743 27.607422,22.043945 26.748233,21.182325 25.599787,20.30957 24.09375,20.30957 Z" fill="#008055"/>
</svg>
