<svg xmlns="http://www.w3.org/2000/svg" width="48" height="48">
	<path d="m 14.80957,2.734375 c -1.586185,0 -3.027503,0.4548327 -4.09375,1.3574219 C 9.649573,4.994386 9.006836,6.3568561 9.006836,7.9042971 V 40.074219 c 0,1.681492 0.620335,3.086002 1.707031,3.964843 1.086696,0.878842 2.524938,1.226563 4.095703,1.226563 h 18.994141 c 1.547191,0 2.892887,-0.534022 3.810547,-1.486328 0.917659,-0.952307 1.378906,-2.274028 1.378906,-3.705078 V 12.804687 c 0,-1.577085 -0.452883,-2.9306719 -1.398438,-3.8496089 -0.945553,-0.918937 -2.284716,-1.320313 -3.791015,-1.320313 h -7.523438 a 1,1 0 0 0 -1,1 1,1 0 0 0 1,1 h 7.523438 c 1.16169,0 1.916534,0.2875219 2.398437,0.7558599 0.481904,0.468338 0.791016,1.200287 0.791016,2.414062 v 27.269532 c 0,1.012839 -0.305516,1.786153 -0.818359,2.318359 -0.512844,0.532206 -1.262455,0.873047 -2.371094,0.873047 H 14.80957 c -1.271475,0 -2.234602,-0.293354 -2.83789,-0.78125 -0.603289,-0.487896 -0.964844,-1.176659 -0.964844,-2.410156 V 7.9042971 c 0,-1.0269791 0.363509,-1.7483141 1,-2.2871097 0.63649,-0.5387959 1.59763,-0.8828125 2.802734,-0.8828125 h 18.751953 a 1,1 0 0 0 1,-1 1,1 0 0 0 -1,-1 z m 7.966797,16.269531 a 0.70006498,0.70006498 0 0 0 -0.6875,0.564453 l -0.121094,0.613282 a 0.69999498,0.69999498 0 0 0 0.550782,0.822265 0.69999498,0.69999498 0 0 0 0.824218,-0.550781 l 0.0078,-0.04883 h 1.396484 l 0.01172,0.06055 a 0.69999498,0.69999498 0 0 0 0.832031,0.537109 0.69999498,0.69999498 0 0 0 0.53711,-0.832031 l -0.13086,-0.611328 a 0.70006498,0.70006498 0 0 0 -0.685547,-0.554688 z m -4.380859,2.333985 c -0.723857,0 -1.436856,0.157517 -2.003906,0.61914 -0.567051,0.461624 -0.884766,1.219741 -0.884766,2.027344 v 6.289062 c 0,0.76904 0.331462,1.49026 0.876953,1.955078 0.545491,0.46482 1.261358,0.681641 2.011719,0.681641 a 0.89999998,0.89999998 0 0 0 0.898437,-0.900391 0.89999998,0.89999998 0 0 0 -0.898437,-0.90039 c -0.405109,0 -0.684379,-0.114197 -0.84375,-0.25 -0.159372,-0.135803 -0.244141,-0.282247 -0.244141,-0.585938 v -6.289062 c 0,-0.407057 0.08817,-0.522968 0.220703,-0.63086 0.132532,-0.107891 0.414475,-0.216796 0.867188,-0.216796 h 11.560547 c 0.351043,0 0.514317,0.09514 0.628906,0.214843 0.114589,0.119703 0.205078,0.310596 0.205078,0.632813 v 6.289062 c 0,0.419057 -0.0942,0.574613 -0.181641,0.660157 -0.08744,0.08554 -0.256221,0.175781 -0.652343,0.175781 h -9.253907 a 0.89999998,0.89999998 0 0 0 -0.898437,0.90039 0.89999998,0.89999998 0 0 0 0.898437,0.900391 h 9.253907 c 0.708318,0 1.406694,-0.196927 1.910156,-0.689453 0.503461,-0.492526 0.724609,-1.203382 0.724609,-1.947266 v -6.289062 c 0,-0.696133 -0.227502,-1.380017 -0.705078,-1.878906 -0.477576,-0.49889 -1.181331,-0.767578 -1.929687,-0.767578 z m 10.68164,11.71289 a 0.89999998,0.89999998 0 0 0 -0.214843,0.02148 0.89999998,0.89999998 0 0 0 -0.681641,1.076172 l 0.681641,3.029297 a 0.89999998,0.89999998 0 0 0 1.076171,0.681641 0.89999998,0.89999998 0 0 0 0.679688,-1.076172 l -0.681641,-3.029297 a 0.89999998,0.89999998 0 0 0 -0.859375,-0.703125 z m -10.078125,0.08203 a 0.89999998,0.89999998 0 0 0 -0.90625,0.716797 l -0.615234,2.947266 a 0.89999998,0.89999998 0 0 0 0.697266,1.064453 0.89999998,0.89999998 0 0 0 1.064453,-0.697266 l 0.615234,-2.947265 a 0.89999998,0.89999998 0 0 0 -0.697266,-1.064453 0.89999998,0.89999998 0 0 0 -0.158203,-0.01953 z m 5.050782,0.07422 a 0.89999998,0.89999998 0 0 0 -0.900391,0.898438 v 0.882812 a 0.89999998,0.89999998 0 0 0 0.900391,0.900391 0.89999998,0.89999998 0 0 0 0.90039,-0.900391 v -0.882812 a 0.89999998,0.89999998 0 0 0 -0.90039,-0.898438 z" fill="#008055"/>
</svg>
