<svg xmlns="http://www.w3.org/2000/svg" width="48" height="48">
	<path d="m 14.808593,1.735352 c -1.776725,0 -3.459108,0.509264 -4.740234,1.59375 C 8.7872345,4.413587 8.0078128,6.097601 8.0078128,7.905274 v 32.169921 c 0,1.90549 0.7477717,3.667874 2.0761712,4.742188 1.328401,1.074314 3.0042,1.447265 4.724609,1.447265 h 18.994141 c 1.766467,0 3.411183,-0.628659 4.53125,-1.791015 1.120067,-1.162357 1.658203,-2.758282 1.658203,-4.398438 V 14.805664 c 0,-1.75874 -0.523793,-3.42217 -1.701172,-4.566406 C 37.113636,9.095022 35.481338,8.635742 33.802734,8.635742 h -5.59375 a 2,2 0 0 0 -2,2 2,2 0 0 0 2,2 h 5.59375 c 0.989386,0 1.451093,0.229618 1.701172,0.472656 0.250078,0.243039 0.488281,0.665146 0.488281,1.697266 v 25.269531 c 0,0.803735 -0.228627,1.300891 -0.539062,1.623047 -0.310436,0.322156 -0.761028,0.566406 -1.650391,0.566406 H 14.808593 c -1.12183,0 -1.847399,-0.264216 -2.208984,-0.55664 -0.361584,-0.292424 -0.591796,-0.623312 -0.591796,-1.632813 V 7.905274 c 0,-0.766749 0.222919,-1.166539 0.64453,-1.523438 0.421613,-0.356899 1.141686,-0.646484 2.15625,-0.646484 h 18.751953 a 2,2 0 0 0 2,-2 2,2 0 0 0 -2,-2 z M 31.498046,19.50293 c -0.497693,0.01842 -1.012188,0.221173 -1.419921,0.628906 l -9.361329,9.363281 a 0.80008001,0.80008001 0 0 0 -0.05078,0.05469 l -5.77539,6.970703 a 0.80008001,0.80008001 0 0 0 0.986328,1.21875 c 1.520538,-0.793947 3.009201,-1.459276 4.498047,-1.640625 a 0.80008001,0.80008001 0 0 0 0.0078,0 c 0.785447,-0.103403 1.51656,-0.728306 1.583984,-1.554688 0.04078,-0.491794 0.117375,-0.846537 0.292969,-1.134765 a 0.80000001,0.80000001 0 0 0 -0.265625,-1.09961 0.80000001,0.80000001 0 0 0 -1.099609,0.265625 c -0.368646,0.605112 -0.472663,1.249125 -0.521485,1.837891 -0.0047,0.0578 0.02864,0.06766 -0.199218,0.09766 h 0.0078 c -0.686724,0.08365 -1.330486,0.300855 -1.974609,0.513672 L 21.875,30.600586 31.210937,21.262695 c 0.323354,-0.323354 0.434348,-0.196425 0.509766,-0.125 0.03771,0.03571 0.05393,0.06611 0.05273,0.121094 -0.0012,0.05498 -0.01731,0.167706 -0.205078,0.355469 a 0.80008001,0.80008001 0 0 0 -0.002,0.002 l -8.824219,8.875 a 0.80000001,0.80000001 0 0 0 -0.779297,0.158203 0.80000001,0.80000001 0 0 0 -0.07227,1.128906 c 0.431224,0.489383 1.264054,0.524824 1.767578,0.05859 a 0.80008001,0.80008001 0 0 0 0.02344,-0.02344 l 9.017578,-9.06836 0.002,-0.002 c 0.417514,-0.418405 0.660678,-0.935353 0.671874,-1.449219 0.01121,-0.5147 -0.208829,-0.992658 -0.552734,-1.318359 -0.343905,-0.325701 -0.824572,-0.491081 -1.322266,-0.472656 z m -12.40625,0.751953 c -0.671472,0 -1.332749,0.183141 -1.826171,0.636719 -0.493423,0.453577 -0.738282,1.134631 -0.738282,1.835937 v 8.234375 a 0.89999998,0.89999998 0 0 0 0.900391,0.900391 0.89999998,0.89999998 0 0 0 0.900391,-0.900391 v -8.234375 c 0,-0.332443 0.07494,-0.436979 0.15625,-0.511719 0.08131,-0.07474 0.251024,-0.162109 0.607421,-0.162109 h 7.730469 a 0.89999998,0.89999998 0 0 0 0.900391,-0.900391 0.89999998,0.89999998 0 0 0 -0.900391,-0.898437 z m 12.041016,5.238281 a 0.89999998,0.89999998 0 0 0 -0.90039,0.900391 v 7.52539 c 0,0.332433 -0.07494,0.436979 -0.15625,0.511719 -0.08131,0.07474 -0.251021,0.16211 -0.607422,0.16211 h -5.558594 a 0.89999998,0.89999998 0 0 0 -0.900391,0.898437 0.89999998,0.89999998 0 0 0 0.900391,0.900391 h 5.558594 c 0.671478,0 1.332751,-0.183142 1.826172,-0.636719 0.493419,-0.453578 0.738281,-1.134641 0.738281,-1.835938 v -7.52539 a 0.89999998,0.89999998 0 0 0 -0.900391,-0.900391 z" fill="#008055"/>
</svg>
