<svg xmlns="http://www.w3.org/2000/svg" width="48" height="48">
	<path d="m 14.808594,2.7353516 c -1.586185,0 -3.0275,0.4528803 -4.09375,1.3554688 -1.0662495,0.902589 -1.7070315,2.267011 -1.7070315,3.814453 V 40.075195 c 0,1.681491 0.618384,3.086002 1.7050785,3.964844 1.086693,0.878842 2.524937,1.224609 4.095703,1.224609 h 18.99414 c 1.547191,0 2.892891,-0.532068 3.810547,-1.484375 0.917657,-0.952307 1.378907,-2.274029 1.378907,-3.705078 V 12.805664 c 0,-1.577084 -0.450933,-2.9306716 -1.396485,-3.8496096 -0.945552,-0.918937 -2.28667,-1.320312 -3.792969,-1.320312 h -7.523437 a 1,1 0 0 0 -1,1 1,1 0 0 0 1,1 h 7.523437 c 1.161691,0 1.916537,0.285569 2.398438,0.7539056 0.481901,0.468337 0.791016,1.202239 0.791016,2.416016 v 27.269531 c 0,1.012841 -0.305519,1.784201 -0.81836,2.316406 -0.512841,0.532206 -1.262455,0.873047 -2.371094,0.873047 h -18.99414 c -1.271476,0 -2.234605,-0.291401 -2.837891,-0.779297 -0.603286,-0.487895 -0.962891,-1.176657 -0.962891,-2.410156 V 7.9052734 c 0,-1.026978 0.363507,-1.748313 1,-2.287109 0.636493,-0.538797 1.595677,-0.882813 2.800782,-0.882813 H 33.5625 a 1,1 0 0 0 1,-0.9999998 1,1 0 0 0 -1,-1 z M 31.890625,18.483398 a 0.69999999,0.69999999 0 0 0 -0.699219,0.701172 v 2.447266 h -2.449218 a 0.69999999,0.69999999 0 0 0 -0.699219,0.699218 0.69999999,0.69999999 0 0 0 0.699219,0.701172 h 2.449218 v 2.44336 a 0.69999999,0.69999999 0 0 0 0.699219,0.701172 0.69999999,0.69999999 0 0 0 0.701172,-0.701172 v -2.44336 h 2.443359 a 0.69999999,0.69999999 0 0 0 0.699219,-0.701172 0.69999999,0.69999999 0 0 0 -0.699219,-0.699218 H 32.591797 V 19.18457 a 0.69999999,0.69999999 0 0 0 -0.701172,-0.701172 z m -10.722656,4.802734 c -2.996388,0 -5.285157,2.700376 -5.285157,6.089844 0,3.403378 2.38232,5.931641 5.285157,5.931641 1.451416,0 2.800632,-0.625602 3.757812,-1.685547 a 0.89999998,0.89999998 0 0 0 -0.06445,-1.271484 0.89999998,0.89999998 0 0 0 -1.271484,0.06445 c -0.636499,0.704835 -1.478071,1.09375 -2.421875,1.09375 -1.887604,0 -3.486328,-1.52367 -3.486328,-4.132813 0,-2.623051 1.552896,-4.291015 3.486328,-4.291015 0.966735,0 1.797368,0.410606 2.43164,1.152343 a 0.89999998,0.89999998 0 0 0 1.269532,0.09961 0.89999998,0.89999998 0 0 0 0.09961,-1.269532 c -0.941947,-1.101542 -2.302577,-1.78125 -3.800781,-1.78125 z m 7.125,1.404297 a 0.69999999,0.69999999 0 0 0 -0.699219,0.699219 v 2.447266 h -2.449219 a 0.69999999,0.69999999 0 0 0 -0.701172,0.701172 0.69999999,0.69999999 0 0 0 0.701172,0.699218 h 2.449219 v 2.445313 a 0.69999999,0.69999999 0 0 0 0.699219,0.699219 0.69999999,0.69999999 0 0 0 0.701172,-0.699219 V 29.237304 H 31.4375 A 0.69999999,0.69999999 0 0 0 32.136719,28.538086 0.69999999,0.69999999 0 0 0 31.4375,27.836914 h -2.443359 v -2.447266 a 0.69999999,0.69999999 0 0 0 -0.701172,-0.699219 z m -14.296875,7.175782 a 1.7764144,1.7764144 0 0 0 -1.777344,1.777343 1.7764144,1.7764144 0 0 0 1.777344,1.775391 1.7764144,1.7764144 0 0 0 1.77539,-1.775391 1.7764144,1.7764144 0 0 0 -1.77539,-1.777343 z" fill="#008055"/>
</svg>
