<svg xmlns="http://www.w3.org/2000/svg" width="48" height="48">
	<path d="m 14.809567,2.7353515 c -1.586185,0 -3.027503,0.45288 -4.09375,1.355469 -1.066247,0.902589 -1.707031,2.267012 -1.707031,3.814453 L 9.006836,40.073242 c 0,1.68149 0.620336,3.087954 1.707031,3.966797 1.086694,0.878842 2.524929,1.224609 4.095703,1.224609 h 18.99414 c 1.547192,0 2.892888,-0.532069 3.810547,-1.484375 0.91766,-0.952306 1.378907,-2.275981 1.378907,-3.707031 V 12.803711 c 0,-1.577085 -0.452884,-2.9287195 -1.398438,-3.8476565 -0.945554,-0.918937 -2.284716,-1.322265 -3.791016,-1.322265 h -7.523437 a 1,1 0 0 0 -1,1 1,1 0 0 0 1,1 h 7.523437 c 1.161691,0 1.916534,0.287521 2.398438,0.7558585 0.481904,0.468338 0.791016,1.200287 0.791016,2.414063 v 27.269531 c 0,1.012839 -0.305517,1.786153 -0.81836,2.31836 -0.512843,0.532206 -1.262455,0.873046 -2.371094,0.873046 H 14.809567 c -1.271486,0 -2.234605,-0.291401 -2.837891,-0.779296 -0.603285,-0.487896 -0.964843,-1.17861 -0.964843,-2.41211 l 0.002,-32.1679685 c 0,-1.026979 0.363509,-1.748313 1,-2.28711 0.63649,-0.538795 1.595676,-0.882812 2.800781,-0.882812 h 18.751953 a 1,1 0 0 0 1,-1 1,1 0 0 0 -1,-1 z m 3.042969,17.8945315 a 0.89999998,0.89999998 0 0 0 -0.900391,0.90039 0.89999998,0.89999998 0 0 0 0.900391,0.900391 h 13.742187 l -1.376953,11.796875 -0.002,0.002 c -0.03401,0.228219 -0.09055,0.315786 -0.333984,0.417968 l -5.320313,1.667969 c -0.29938,0.08976 -0.50496,0.09805 -0.720703,0.02344 a 0.90008998,0.90008998 0 0 0 -0.01953,-0.0078 l -5.353516,-1.705079 c -0.246556,-0.107196 -0.272451,-0.09181 -0.304687,-0.371093 a 0.90008998,0.90008998 0 0 0 0,-0.0039 L 16.877926,23.499023 a 0.89999998,0.89999998 0 0 0 -1,-0.787109 0.89999998,0.89999998 0 0 0 -0.787109,1 l 1.283203,10.75 c 0.101709,0.88118 0.749327,1.545006 1.376953,1.820313 a 0.90008998,0.90008998 0 0 0 0.08984,0.03516 l 5.412109,1.722657 c 0.646437,0.223551 1.292479,0.159434 1.824219,0 a 0.90008998,0.90008998 0 0 0 0.01172,-0.0039 l 5.402343,-1.693359 a 0.90008998,0.90008998 0 0 0 0.07422,-0.02734 c 0.775334,-0.320149 1.318674,-1.045831 1.433594,-1.826172 a 0.90008998,0.90008998 0 0 0 0.0039,-0.02734 l 1.396485,-11.970703 a 0.90008998,0.90008998 0 0 0 0,-0.0039 c 0.0479,-0.424595 -0.03973,-0.913415 -0.363282,-1.292969 -0.323555,-0.379553 -0.83473,-0.564453 -1.318359,-0.564453 z m 1.882812,3.201172 a 0.90008998,0.90008998 0 0 0 -0.894531,1 l 0.382812,3.40039 a 0.90008998,0.90008998 0 0 0 0.894532,0.800782 h 7.113281 l -0.349609,2.951171 a 0.90008998,0.90008998 0 0 0 -0.002,0.0059 c -0.03343,0.294265 -0.03638,0.366138 -0.36914,0.480469 l -1.730469,0.558594 c -0.0013,3.69e-4 -0.0026,-3.68e-4 -0.0039,0 -0.403945,0.115975 -0.867939,0.127061 -1.232422,0.02148 l -1.677695,-0.523474 c -0.165399,-0.05223 -0.327799,-0.306642 -0.349609,-0.482422 l -0.119141,-0.964843 a 0.89999998,0.89999998 0 0 0 -1.005859,-0.78125 0.89999998,0.89999998 0 0 0 -0.78125,1.003906 l 0.121094,0.964844 c 0.10065,0.811199 0.611377,1.666953 1.591797,1.976562 a 0.90008998,0.90008998 0 0 0 0.0039,0 l 1.699219,0.529297 a 0.90008998,0.90008998 0 0 0 0.01758,0.0059 c 0.751042,0.217548 1.529853,0.182717 2.236328,-0.02148 a 0.90008998,0.90008998 0 0 0 0.02539,-0.0078 l 1.773437,-0.570313 a 0.90008998,0.90008998 0 0 0 0.01563,-0.0059 c 0.941562,-0.323509 1.485849,-1.202594 1.574219,-1.980469 l 0.361328,-3.064453 c 0.06238,-0.487518 -0.08906,-1.016075 -0.431641,-1.373047 -0.342576,-0.356971 -0.824653,-0.523437 -1.296875,-0.523437 h -6.378906 l -0.179687,-1.59961 h 7.898437 a 0.89999998,0.89999998 0 0 0 0.900391,-0.90039 0.89999998,0.89999998 0 0 0 -0.900391,-0.900391 z" fill="#008055"/>
</svg>
