<svg xmlns="http://www.w3.org/2000/svg" width="48" height="48">
	<path d="m 14.374023,6.626953 c -1.75766,0 -3.40785,0.510327 -4.640625,1.591797 -1.232774,1.08147 -1.939453,2.726251 -1.939453,4.478516 V 35.28125 c 0,1.857117 0.67491,3.572902 1.953125,4.644531 1.278215,1.07163 2.921508,1.447266 4.626953,1.447266 H 33.99707 c 1.74454,0 3.360535,-0.609025 4.490235,-1.734375 1.129699,-1.125351 1.71875,-2.70721 1.71875,-4.357422 V 15.273437 c 0,-1.767689 -0.574645,-3.417817 -1.757813,-4.521484 C 37.265074,9.648286 35.658444,9.203125 33.99707,9.203125 h -8.185547 a 1.9,1.9 0 0 0 -1.90039,1.900391 1.9,1.9 0 0 0 1.90039,1.90039 h 8.185547 c 1.006617,0 1.555338,0.243736 1.859375,0.527344 0.304037,0.283607 0.548828,0.719021 0.548828,1.742187 V 35.28125 c 0,0.793679 -0.239059,1.306854 -0.599609,1.666016 -0.36055,0.359161 -0.897303,0.625 -1.808594,0.625 H 14.374023 c -1.136795,0 -1.833549,-0.263486 -2.185547,-0.558594 -0.351997,-0.295108 -0.595703,-0.674548 -0.595703,-1.732422 V 12.697266 c 0,-0.822156 0.236244,-1.263158 0.646485,-1.623047 0.41024,-0.35989 1.101136,-0.646485 2.134765,-0.646485 h 7.722657 a 1.9,1.9 0 0 0 1.90039,-1.90039 1.9,1.9 0 0 0 -1.90039,-1.900391 z m 12.820313,9.570313 c -0.722691,0.02735 -1.446976,0.230871 -2.101563,0.642578 -1.309173,0.823412 -2.191406,2.47199 -2.191406,4.748046 v 2.603516 h -3.5 a 1.000005,1.000005 0 0 0 -1,1 1.000005,1.000005 0 0 0 1,1 h 3.5 v 3.314453 c 0,1.940348 -0.6181,2.406472 -1.333984,2.634766 -0.715885,0.228294 -1.789208,-0.06173 -2.107422,-0.287109 a 1.000005,1.000005 0 0 0 -1.394531,0.238281 1.000005,1.000005 0 0 0 0.238281,1.394531 c 0.962476,0.681697 2.399234,1.030543 3.873047,0.560547 1.473813,-0.469996 2.724609,-2.039484 2.724609,-4.541016 v -3.314453 h 3.658203 a 1.000005,1.000005 0 0 0 1,-1 1.000005,1.000005 0 0 0 -1,-1 H 24.901367 V 21.58789 c 0,-1.795493 0.587384,-2.636198 1.255859,-3.05664 0.668477,-0.420443 1.568025,-0.430316 2.3125,-0.09766 a 1.000005,1.000005 0 0 0 1.320313,-0.50586 1.000005,1.000005 0 0 0 -0.503906,-1.320312 c -0.648122,-0.289605 -1.369106,-0.437507 -2.091797,-0.410156 z" fill="#008055"/>
</svg>
