<svg xmlns="http://www.w3.org/2000/svg" width="48" height="48">
	<path d="m 14.808594,2.7353515 c -1.586185,0 -3.027503,0.452879 -4.09375,1.355469 -1.0662465,0.902589 -1.7070315,2.267012 -1.7070315,3.814453 V 40.075195 c 0,1.681492 0.618383,3.086002 1.7050785,3.964844 1.086696,0.878842 2.524933,1.224609 4.095703,1.224609 h 18.99414 c 1.547191,0 2.892888,-0.532069 3.810547,-1.484375 0.917659,-0.952306 1.378907,-2.274028 1.378907,-3.705078 V 12.805664 c 0,-1.577085 -0.45093,-2.9306725 -1.396485,-3.8496095 -0.945554,-0.918937 -2.286669,-1.320313 -3.792969,-1.320313 h -7.523437 a 1,1 0 0 0 -1,1 1,1 0 0 0 1,1 h 7.523437 c 1.161691,0 1.916534,0.285569 2.398438,0.7539075 0.481904,0.468338 0.791016,1.20224 0.791016,2.416015 v 27.269531 c 0,1.012839 -0.305517,1.7842 -0.81836,2.316407 -0.512842,0.532206 -1.262455,0.873046 -2.371094,0.873046 h -18.99414 c -1.27148,0 -2.234603,-0.291401 -2.837891,-0.779296 -0.603287,-0.487896 -0.962891,-1.176659 -0.962891,-2.410157 V 7.9052735 c 0,-1.026979 0.36351,-1.748314 1,-2.28711 0.636491,-0.538795 1.595677,-0.882812 2.800782,-0.882812 h 18.751953 a 1,1 0 0 0 1,-1 1,1 0 0 0 -1,-1 z M 25.273438,19.276367 a 0.89999998,0.89999998 0 0 0 -0.626954,0.259766 0.89999998,0.89999998 0 0 0 -0.0059,1.273437 l 1.177734,1.191407 c -0.0042,0.0186 -0.02679,0.117329 -0.261718,0.261718 -1.31021,0.798263 -3.084611,1.700975 -5.726563,2.449219 -1.268725,0.326565 -2.153191,1.422145 -2.24414,2.662109 v -0.01953 c -0.2871,3.007309 -0.983779,6.06236 -2.154297,9.181641 a 0.90008998,0.90008998 0 0 0 1.478515,0.955078 l 8.429688,-8.392578 a 0.89999998,0.89999998 0 0 0 0.002,-1.273437 0.89999998,0.89999998 0 0 0 -1.271484,-0.002 l -5.896485,5.869141 c 0.565911,-2.072862 1.01092,-4.134189 1.205078,-6.167969 a 0.90008998,0.90008998 0 0 0 0.002,-0.01953 c 0.03905,-0.532396 0.314843,-0.898613 0.898438,-1.048828 a 0.90008998,0.90008998 0 0 0 0.01953,-0.0059 c 2.819909,-0.796216 4.778636,-1.787833 6.197266,-2.652344 a 0.90008998,0.90008998 0 0 0 0.002,-0.002 c 0.559325,-0.343765 0.957439,-0.844135 1.082031,-1.414063 0.124593,-0.569927 -0.04568,-1.169273 -0.419922,-1.582031 a 0.90008998,0.90008998 0 0 0 -0.02734,-0.0293 L 25.920024,19.543811 A 0.89999998,0.89999998 0 0 0 25.27354,19.276233 Z m 5.935546,6.066406 c -0.150739,-0.01897 -0.303513,-0.019 -0.455078,0.002 -0.605335,0.08368 -1.141987,0.492368 -1.441406,1.050781 -0.870815,1.517638 -1.924715,3.578384 -2.662109,6.583984 a 0.90008998,0.90008998 0 0 0 -0.002,0.0098 c -0.143304,0.612053 -0.237553,0.757857 -0.804688,0.837891 -1.948096,0.237952 -3.941375,0.647523 -5.962891,1.492187 a 0.89999998,0.89999998 0 0 0 -0.484375,1.177735 0.89999998,0.89999998 0 0 0 1.177735,0.482421 c 1.829025,-0.764234 3.650207,-1.1416 5.503906,-1.367187 a 0.90008998,0.90008998 0 0 0 0.01563,-0.002 c 1.216744,-0.171706 2.058985,-1.15319 2.306641,-2.210937 0.69139,-2.812751 1.648896,-4.674568 2.484375,-6.128906 a 0.90008998,0.90008998 0 0 0 0.01367,-0.02539 C 30.96904,27.113016 31.0013,27.12775 31,27.12793 c -0.0013,1.8e-4 0.01219,-0.02158 0.0957,0.06836 a 0.90008998,0.90008998 0 0 0 0.0059,0.0059 l 1.195312,1.263672 a 0.89999998,0.89999998 0 0 0 1.271484,0.03516 0.89999998,0.89999998 0 0 0 0.03516,-1.271485 L 32.414063,25.97168 c -0.319849,-0.344474 -0.752857,-0.57201 -1.205079,-0.628907 z" fill="#008055"/>
</svg>
