<svg xmlns="http://www.w3.org/2000/svg" width="48" height="48">
	<path d="m 14.80957,2.7353515 c -1.586185,0 -3.027503,0.4528792 -4.09375,1.3554691 -1.066247,0.902589 -1.708984,2.267012 -1.708984,3.814453 V 40.073243 c 0,1.681491 0.620335,3.087955 1.707031,3.966796 1.086697,0.878842 2.524938,1.22461 4.095703,1.22461 h 18.994141 c 1.547191,0 2.892888,-0.532069 3.810547,-1.484375 0.917659,-0.952307 1.378906,-2.275982 1.378906,-3.707031 V 12.803711 c 0,-1.577085 -0.452883,-2.9287194 -1.398437,-3.8476564 -0.945554,-0.918937 -2.284717,-1.322266 -3.791016,-1.322266 h -7.523437 a 1,1 0 0 0 -1,1 1,1 0 0 0 1,1 h 7.523437 c 1.161691,0 1.916534,0.287522 2.398437,0.7558604 0.481905,0.468338 0.791016,1.200287 0.791016,2.414062 v 27.269532 c 0,1.012838 -0.307469,1.786153 -0.820312,2.318359 -0.512844,0.532206 -1.260502,0.873047 -2.369141,0.873047 H 14.80957 c -1.271475,0 -2.234602,-0.291401 -2.83789,-0.779297 -0.603289,-0.487896 -0.964844,-1.178613 -0.964844,-2.412109 V 7.9052736 c 0,-1.0269791 0.363509,-1.7483141 1,-2.28711 0.636491,-0.5387951 1.59763,-0.882812 2.802734,-0.882812 h 18.751954 a 1,1 0 0 0 1,-1 1,1 0 0 0 -1,-1.0000001 z M 29.713867,18.209961 c -0.153841,-0.0071 -0.308784,-0.0021 -0.464843,0.01367 a 0.90008998,0.90008998 0 0 0 -0.01367,0 c -1.58727,0.184821 -2.902741,0.932168 -4.136719,1.59375 -1.233978,0.661583 -2.382376,1.242231 -3.613281,1.361328 -0.681466,0.05519 -1.336793,0.266308 -1.841797,0.72461 -0.509863,0.46271 -0.794922,1.171646 -0.794922,1.916015 l 0.0039,10.101563 c -0.0073,1.332724 -0.366613,1.728505 -0.6875,1.96289 a 0.90008998,0.90008998 0 0 0 -0.0098,0.0078 c -0.75742,0.570141 -1.410541,0.499903 -1.886719,0.08984 -0.68845,-0.592797 -0.661631,-1.421388 -0.337891,-1.927735 a 0.90008998,0.90008998 0 0 0 0,-0.002 c 0.140188,-0.220085 0.343891,-0.340654 0.613281,-0.40625 0.26939,-0.0656 0.592198,-0.03752 0.75,0.01563 a 0.89999998,0.89999998 0 0 0 1.140664,-0.566345 0.89999998,0.89999998 0 0 0 -0.566406,-1.138672 c -0.528607,-0.178033 -1.12731,-0.212171 -1.75,-0.06055 -0.62269,0.151624 -1.282056,0.525338 -1.705078,1.189453 -0.797259,1.246954 -0.672463,3.095482 0.679688,4.259766 1.117796,0.962587 2.830745,0.967328 4.138671,-0.01367 0.770401,-0.565538 1.413641,-1.682393 1.421875,-3.40625 a 0.90008998,0.90008998 0 0 0 0,-0.0039 l -0.0059,-10.103516 c 4.6e-4,-0.341027 0.07947,-0.464314 0.207031,-0.580078 0.127942,-0.11611 0.37837,-0.234345 0.78711,-0.265625 a 0.90008998,0.90008998 0 0 0 0.01758,0 c 1.669804,-0.161563 3.045963,-0.900839 4.291015,-1.568359 1.24241,-0.666104 2.357822,-1.255316 3.486329,-1.388672 0.290179,-0.02741 0.447161,0.03596 0.5,0.07422 0.05344,0.0387 0.07516,0.04049 0.08008,0.207032 a 0.90008998,0.90008998 0 0 0 0,0.002 c 0.0082,0.266741 0.002,0.461428 0.002,0.882812 a 0.89999998,0.89999998 0 0 0 0.898437,0.900391 0.89999998,0.89999998 0 0 0 0.900391,-0.900391 c 0,-0.400955 0.0079,-0.616541 -0.002,-0.9375 -0.01865,-0.630967 -0.323925,-1.250448 -0.822266,-1.611328 -0.373756,-0.27066 -0.817772,-0.400495 -1.279297,-0.421875 z m 0.378907,4.294922 c -0.130315,-0.0083 -0.258187,-0.0049 -0.38086,0.0098 -1.520396,0.182978 -2.770545,0.857907 -3.939453,1.396484 -1.168908,0.538577 -2.231439,0.947389 -3.435547,0.878906 a 0.89999998,0.89999998 0 0 0 -0.951172,0.847657 0.89999998,0.89999998 0 0 0 0.847656,0.949218 c 1.670663,0.09502 3.066072,-0.47662 4.291016,-1.041015 1.224944,-0.564396 2.3046,-1.112029 3.402344,-1.244141 0.111588,-0.01331 0.08446,0.0046 0.05859,-0.01953 -0.02586,-0.0241 0.03997,-4.11e-4 0.03711,0.291016 a 0.90008998,0.90008998 0 0 0 0,0.0078 l 0.0039,6.910156 c -0.0073,1.33267 -0.366581,1.728509 -0.6875,1.962891 a 0.90008998,0.90008998 0 0 0 -0.0098,0.0078 c -0.757347,0.570151 -1.412517,0.499854 -1.888672,0.08984 -0.688431,-0.592849 -0.659685,-1.421377 -0.335938,-1.927734 a 0.90008998,0.90008998 0 0 0 0,-0.002 c 0.140194,-0.220094 0.341949,-0.340658 0.611328,-0.40625 0.26938,-0.06559 0.594096,-0.03754 0.751954,0.01563 a 0.89999998,0.89999998 0 0 0 1.138671,-0.566407 0.89999998,0.89999998 0 0 0 -0.564453,-1.140625 c -0.528602,-0.178018 -1.129265,-0.210216 -1.751953,-0.05859 -0.622688,0.151622 -1.280108,0.525346 -1.703125,1.189453 -0.797253,1.246943 -0.672362,3.095434 0.679688,4.259765 1.117819,0.962537 2.830772,0.967419 4.138672,-0.01367 0.770488,-0.565539 1.413651,-1.682438 1.421874,-3.40625 a 0.90008998,0.90008998 0 0 0 0,-0.0039 l -0.0059,-6.90039 c 0.0061,-0.626314 -0.178695,-1.225438 -0.607422,-1.625 -0.321545,-0.299673 -0.730149,-0.435924 -1.121093,-0.460938 z" fill="#008055"/>
</svg>
