<svg xmlns="http://www.w3.org/2000/svg" width="48" height="48">
	<path d="m 14.80957,2.734375 c -1.586185,0 -3.027503,0.454833 -4.09375,1.357422 -1.066247,0.902589 -1.708984,2.265059 -1.708984,3.8125 v 32.169922 c 0,1.681491 0.620335,3.087955 1.707031,3.966797 1.086696,0.878842 2.524934,1.224609 4.095703,1.224609 h 18.994141 c 1.547191,0 2.892887,-0.534022 3.810547,-1.486328 0.917659,-0.952306 1.378906,-2.274028 1.378906,-3.705078 V 12.804688 c 0,-1.577085 -0.452885,-2.930673 -1.398438,-3.84961 -0.945552,-0.918937 -2.28472,-1.320312 -3.791015,-1.320312 h -7.523438 a 1,1 0 0 0 -1,1 1,1 0 0 0 1,1 h 7.523438 c 1.161685,0 1.916535,0.287521 2.398437,0.755859 0.481903,0.468338 0.791016,1.200288 0.791016,2.414063 v 27.269531 c 0,1.01284 -0.305516,1.786153 -0.818359,2.318359 -0.512845,0.532206 -1.262455,0.873047 -2.371094,0.873047 H 14.80957 c -1.271481,0 -2.234604,-0.293354 -2.837891,-0.78125 -0.603286,-0.487895 -0.964843,-1.176657 -0.964843,-2.410156 V 7.904297 c 0,-1.026979 0.363509,-1.748314 1,-2.287109 0.63649,-0.538796 1.597629,-0.882813 2.802734,-0.882813 h 18.751953 a 1,1 0 0 0 1,-1 1,1 0 0 0 -1,-1 z m 8.941406,17.496094 c -2.09855,0.05834 -4.16284,0.611891 -5.849609,1.623047 a 0.90008998,0.90008998 0 0 0 -0.01172,0.0078 c -2.301428,1.430772 -3.591664,3.297939 -3.722656,5.261719 -0.130992,1.96378 0.907391,3.859673 2.732422,5.300781 a 0.90008998,0.90008998 0 0 0 0.002,0 c 1.819641,1.432412 3.566451,1.781383 4.558594,1.998047 0.988512,0.219188 1.303765,0.609585 1.46875,1.123047 0.164985,0.513462 0.0856,1.258914 -0.210938,1.955078 a 0.90008998,0.90008998 0 0 0 1.195313,1.173828 c 1.52772,-0.684137 2.435283,-1.540664 3.220703,-2.386718 0.78542,-0.846055 1.471726,-1.675413 2.779297,-2.609376 a 0.89999998,0.89999998 0 0 0 0.208984,-1.255859 0.89999998,0.89999998 0 0 0 -1.255859,-0.208984 c -1.479249,1.056587 -2.314004,2.053848 -3.052735,2.849609 -0.304822,0.328355 -0.768742,0.538769 -1.08789,0.8125 -0.02117,-0.295028 0.01156,-0.58958 -0.08203,-0.880859 -0.348633,-1.085004 -1.338765,-2.007197 -2.794922,-2.330078 a 0.90008998,0.90008998 0 0 0 -0.002,-0.002 c -1.031893,-0.225378 -2.326138,-0.468999 -3.830078,-1.652344 -1.494959,-1.180472 -2.138918,-2.502871 -2.054687,-3.765625 0.08413,-1.261224 0.907344,-2.627438 2.873047,-3.851563 3.113057,-1.861211 8.389979,-1.761884 11.33789,0.558594 1.473576,1.164672 1.933731,2.405354 1.916016,3.560547 -0.01772,1.155872 -0.580419,2.25664 -1.306641,2.925781 a 0.89999998,0.89999998 0 0 0 -0.05078,1.271484 0.89999998,0.89999998 0 0 0 1.271484,0.05078 c 1.091869,-1.006049 1.858736,-2.523275 1.884766,-4.220703 0.02603,-1.697428 -0.755295,-3.545551 -2.599609,-5.001953 a 0.90008998,0.90008998 0 0 0 -0.002,0 c -1.850055,-1.45629 -4.233208,-2.205056 -6.634766,-2.300782 -0.300195,-0.01197 -0.600598,-0.01419 -0.900391,-0.0059 z m 0.515625,3.699219 a 0.89999998,0.89999998 0 0 0 -0.867187,0.667968 l -0.861328,3.201172 a 0.89999998,0.89999998 0 0 0 -0.02734,0.09766 0.89999998,0.89999998 0 0 0 -0.0039,0.01563 l -0.699219,2.601562 a 0.89999998,0.89999998 0 0 0 0.636719,1.103516 0.89999998,0.89999998 0 0 0 1.101562,-0.636719 l 0.681641,-2.529297 c 0.250505,-0.450614 0.763638,-1.114292 1.357422,-1.650391 0.616971,-0.557033 1.32732,-0.952256 1.736328,-1.011718 a 0.89999998,0.89999998 0 0 0 0.761719,-1.021485 0.89999998,0.89999998 0 0 0 -0.882813,-0.769531 0.89999998,0.89999998 0 0 0 -0.136719,0.0098 c -0.698997,0.101621 -1.323184,0.422469 -1.894531,0.828125 a 0.89999998,0.89999998 0 0 0 -0.666016,-0.875 0.89999998,0.89999998 0 0 0 -0.236328,-0.03125 z" fill="#008055"/>
</svg>
