<svg xmlns="http://www.w3.org/2000/svg" width="48" height="48">
	<path d="m 14.80957,2.7353517 c -1.586185,0 -3.0275,0.4548334 -4.09375,1.3574219 C 9.649571,4.9953622 9.006836,6.3578313 9.006836,7.9052732 V 40.075195 c 0,1.681491 0.620337,3.086002 1.707031,3.964844 1.086694,0.878842 2.524938,1.224609 4.095703,1.224609 h 18.994141 c 1.547195,0 2.892888,-0.532067 3.810547,-1.484375 0.917658,-0.952307 1.378906,-2.274029 1.378906,-3.705078 V 12.805664 c 0,-1.577084 -0.452886,-2.9306717 -1.398437,-3.8496088 -0.945552,-0.918938 -2.284717,-1.320313 -3.791016,-1.320313 h -7.523437 a 1,1 0 0 0 -1,1 1,1 0 0 0 1,1 h 7.523437 c 1.161691,0 1.916536,0.287522 2.398437,0.7558588 0.481902,0.468339 0.791016,1.200287 0.791016,2.414063 v 27.269531 c 0,1.012841 -0.307471,1.786154 -0.820312,2.31836 -0.512842,0.532205 -1.260496,0.871093 -2.369141,0.871093 H 14.80957 c -1.271475,0 -2.234604,-0.291401 -2.83789,-0.779297 -0.603286,-0.487895 -0.964844,-1.176657 -0.964844,-2.410156 V 7.9052732 c 0,-1.026978 0.363507,-1.748313 1,-2.287109 0.636493,-0.538796 1.59763,-0.8828125 2.802734,-0.8828125 h 18.751954 a 1,1 0 0 0 1,-1 1,1 0 0 0 -1,-1 z M 24.844727,23.286133 c -2.996391,0 -5.285157,2.700375 -5.285157,6.089844 0,3.403376 2.382321,5.93164 5.285157,5.93164 1.451415,0 2.800631,-0.625602 3.757812,-1.685547 a 0.89999998,0.89999998 0 0 0 -0.06445,-1.271484 0.89999998,0.89999998 0 0 0 -1.271484,0.06445 c -0.6365,0.704835 -1.478071,1.09375 -2.421875,1.09375 -1.887604,0 -3.486329,-1.523671 -3.486329,-4.132812 0,-2.623052 1.552899,-4.291016 3.486329,-4.291016 0.96673,0 1.797366,0.410612 2.43164,1.152344 a 0.89999998,0.89999998 0 0 0 1.269531,0.09961 0.89999998,0.89999998 0 0 0 0.09961,-1.267578 C 27.703565,23.967806 26.342939,23.286131 24.84473,23.286131 Z m -8.804688,8.580078 a 1.7764144,1.7764144 0 0 0 -1.777344,1.777344 1.7764144,1.7764144 0 0 0 1.777344,1.77539 1.7764144,1.7764144 0 0 0 1.775391,-1.77539 1.7764144,1.7764144 0 0 0 -1.775391,-1.777344 z" fill="#008055"/>
</svg>
