<svg xmlns="http://www.w3.org/2000/svg" width="48" height="48">
	<path d="m 14.808594,2.734375 c -1.586185,0 -3.027504,0.454833 -4.09375,1.357422 -1.0662471,0.902589 -1.7070315,2.265059 -1.7070315,3.8125 v 32.169922 c 0,1.68149 0.6183849,3.087954 1.7050785,3.966797 1.086693,0.878843 2.524934,1.224609 4.095703,1.224609 h 18.99414 c 1.547196,0 2.892888,-0.534021 3.810547,-1.486328 0.917659,-0.952307 1.378907,-2.274029 1.378907,-3.705078 V 12.804688 c 0,-1.577084 -0.450933,-2.930672 -1.396485,-3.84961 -0.945552,-0.918937 -2.28667,-1.320312 -3.792969,-1.320312 h -7.523437 a 1,1 0 0 0 -1,1 1,1 0 0 0 1,1 h 7.523437 c 1.16169,0 1.916537,0.287522 2.398438,0.755859 0.481901,0.468338 0.791016,1.200286 0.791016,2.414063 v 27.269531 c 0,1.012841 -0.305518,1.786154 -0.81836,2.318359 -0.512842,0.532206 -1.262448,0.873047 -2.371094,0.873047 h -18.99414 c -1.27148,0 -2.234607,-0.293355 -2.83789,-0.78125 -0.603286,-0.487895 -0.962892,-1.176656 -0.962892,-2.410156 V 7.904297 c 0,-1.026979 0.36351,-1.748313 1,-2.287109 0.636491,-0.538796 1.595678,-0.882813 2.800782,-0.882813 h 18.751953 a 1,1 0 0 0 1,-1 1,1 0 0 0 -1,-1 z m 9.21875,15.15625 c -0.87101,2.31e-4 -1.742306,0.157766 -2.478516,0.546875 -0.73621,0.389109 -1.382812,1.129386 -1.382812,2.072266 v 2.28125 a 0.80000001,0.80000001 0 0 0 0.800781,0.800781 0.80000001,0.80000001 0 0 0 0.798828,-0.800781 v -2.28125 c 0,-0.269591 0.119477,-0.440569 0.53125,-0.658203 0.411773,-0.217634 1.070836,-0.361153 1.730469,-0.361328 0.659633,-1.75e-4 1.318905,0.143877 1.730469,0.361328 0.411563,0.21745 0.53125,0.387349 0.53125,0.658203 v 5.347656 c 0,0.621965 -0.146423,0.921744 -0.421875,1.148438 -0.275453,0.226694 -0.800668,0.408203 -1.660157,0.408203 h -0.65625 c -1.257124,0 -2.244419,0.378325 -2.783203,1.148437 -0.538784,0.770113 -0.591797,1.683291 -0.591797,2.664063 v 4.355468 c 0,0.943242 0.646395,1.685131 1.382813,2.074219 0.736418,0.389089 1.607506,0.547106 2.478515,0.546875 0.87101,-2.3e-4 1.742306,-0.15972 2.478516,-0.548828 0.73621,-0.389108 1.382813,-1.129386 1.382813,-2.072266 v -2.125 a 0.80000001,0.80000001 0 0 0 -0.800782,-0.798828 0.80000001,0.80000001 0 0 0 -0.798828,0.798828 v 2.125 c 0,0.269591 -0.119477,0.44057 -0.53125,0.658204 -0.411772,0.217633 -1.070836,0.363106 -1.730469,0.363281 -0.659632,1.74e-4 -1.318905,-0.145831 -1.730468,-0.363281 -0.411564,-0.217451 -0.53125,-0.387354 -0.53125,-0.658204 v -4.355468 c 0,-0.885229 0.114028,-1.476366 0.302734,-1.746094 0.188706,-0.269728 0.488381,-0.464844 1.472656,-0.464844 h 0.65625 c 1.07742,0 1.994788,-0.214942 2.675782,-0.77539 0.680993,-0.560449 1.005859,-1.439128 1.005859,-2.382813 v -5.347656 c 0,-0.943242 -0.646393,-1.683177 -1.382813,-2.072266 -0.736418,-0.389089 -1.607506,-0.547106 -2.478515,-0.546875 z m -0.988281,2.31836 a 0.75819737,0.76026303 0 0 0 -0.759766,0.761718 0.75819737,0.76026303 0 0 0 0.759766,0.759766 0.75819737,0.76026303 0 0 0 0.757812,-0.759766 0.75819737,0.76026303 0 0 0 -0.757812,-0.761718 z m 1.65039,2.238281 a 0.80000001,0.80000001 0 0 0 -0.800781,0.800781 v 0.841797 H 17.1875 c -0.984541,-0.0108 -1.777681,0.632742 -2.193359,1.394531 -0.41568,0.76179 -0.577069,1.667061 -0.56836,2.570313 0.0087,0.903251 0.188338,1.805897 0.603515,2.5625 0.415179,0.756603 1.17904,1.410156 2.148438,1.410156 h 1.589844 a 0.80000001,0.80000001 0 0 0 0.800781,-0.800781 0.80000001,0.80000001 0 0 0 -0.800781,-0.798828 h -1.589844 c -0.30142,0 -0.504768,-0.143857 -0.74414,-0.580078 -0.239371,-0.436223 -0.401601,-1.121894 -0.408203,-1.806641 -0.0066,-0.684747 0.141832,-1.36533 0.373047,-1.789063 0.231214,-0.423732 0.42396,-0.56631 0.771484,-0.5625 a 0.80008001,0.80008001 0 0 0 0.0078,0 h 7.511719 a 0.80008001,0.80008001 0 0 0 0.798828,-0.798828 v -1.642578 a 0.80000001,0.80000001 0 0 0 -0.798828,-0.800781 z m 4.597656,1.617187 a 0.80000001,0.80000001 0 0 0 -0.800781,0.800782 0.80000001,0.80000001 0 0 0 0.800781,0.800781 h 1.59961 c 0.301421,0 0.506722,0.141904 0.746094,0.578125 0.239371,0.436221 0.399647,1.123847 0.40625,1.808594 0.0066,0.684746 -0.141833,1.365329 -0.373047,1.789062 -0.231215,0.423733 -0.423961,0.564356 -0.771485,0.560547 a 0.80008001,0.80008001 0 0 0 -0.0078,0 h -7.509766 a 0.80008001,0.80008001 0 0 0 -0.800781,0.800781 v 1.640625 a 0.80000001,0.80000001 0 0 0 0.800781,0.800781 0.80000001,0.80000001 0 0 0 0.798828,-0.800781 v -0.841797 h 6.701172 c 0.984541,0.01079 1.777681,-0.632741 2.19336,-1.394531 0.415678,-0.76179 0.577067,-1.667062 0.568359,-2.570312 -0.0087,-0.903251 -0.188339,-1.805898 -0.603516,-2.5625 -0.415177,-0.756603 -1.179039,-1.410157 -2.148437,-1.410157 z m -4.375,10.289063 a 0.75819737,0.76026303 0 0 0 -0.736328,0.761719 0.75819737,0.76026303 0 0 0 0.757813,0.759765 0.75819737,0.76026303 0 0 0 0.757812,-0.759765 0.75819737,0.76026303 0 0 0 -0.757812,-0.761719 0.75819737,0.76026303 0 0 0 -0.02148,0 z" fill="#008055"/>
</svg>
