<svg xmlns="http://www.w3.org/2000/svg" width="48" height="48">
	<path d="m 14.808594,2.7343748 c -1.586186,0 -3.027503,0.4548327 -4.09375,1.3574219 C 9.6485969,4.9943859 9.0078127,6.3568564 9.0078127,7.9042962 V 40.074218 c 0,1.681492 0.6183841,3.087955 1.7050783,3.966797 1.086693,0.878842 2.524938,1.22461 4.095703,1.22461 h 18.99414 c 1.547191,0 2.89289,-0.53402 3.810547,-1.486329 0.917657,-0.952307 1.378906,-2.274029 1.378906,-3.705078 V 12.804687 c 0,-1.577084 -0.450933,-2.9287178 -1.396484,-3.8476558 -0.945551,-0.918938 -2.286669,-1.322266 -3.792969,-1.322266 h -7.523437 a 1,1 0 0 0 -1,1 1,1 0 0 0 1,1 h 7.523437 c 1.161691,0 1.916537,0.287522 2.398438,0.7558598 0.481901,0.468337 0.791015,1.200286 0.791015,2.414062 v 27.269531 c 0,1.012842 -0.305518,1.786154 -0.818359,2.31836 -0.512841,0.532205 -1.262455,0.873047 -2.371094,0.873047 h -18.99414 c -1.271475,0 -2.234605,-0.293355 -2.837891,-0.78125 -0.603286,-0.487896 -0.96289,-1.176658 -0.96289,-2.410157 V 7.9042962 c 0,-1.0269782 0.363509,-1.748313 0.999999,-2.2871089 0.636491,-0.5387958 1.595677,-0.8828125 2.800782,-0.8828125 l 18.751953,0.00195 a 1,1 0 0 0 1,-1 1,1 0 0 0 -1,-1 z m 8.820312,15.1015622 a 0.89999998,0.89999998 0 0 0 -0.365234,0.07813 l -6.917969,3.113281 c -0.287909,0.126746 -0.707571,0.216894 -1.183594,0.527344 -0.477625,0.311495 -0.906582,1.027913 -0.871093,1.785156 l -0.002,-0.04297 v 7.626953 c 0,0.621937 0.219115,1.242444 0.666016,1.685547 0.446901,0.443102 1.087851,0.671875 1.759766,0.671875 h 2.041015 a 0.89999998,0.89999998 0 0 0 0.900391,-0.900391 0.89999998,0.89999998 0 0 0 -0.900391,-0.900391 h -2.041015 c -0.294805,0 -0.418383,-0.07526 -0.492188,-0.148437 -0.0738,-0.07318 -0.132812,-0.180221 -0.132812,-0.408203 v -7.626953 a 0.90008998,0.90008998 0 0 0 -0.002,-0.04102 c -0.01311,-0.279787 -0.05295,-0.121885 0.05664,-0.193359 0.109595,-0.07147 0.472324,-0.188484 0.933594,-0.392578 a 0.90008998,0.90008998 0 0 0 0.0059,-0.002 l 6.917969,-3.111328 a 0.89999998,0.89999998 0 0 0 0.451224,-1.191359 0.89999998,0.89999998 0 0 0 -0.824219,-0.529297 z m -3.089844,3.775391 a 0.89999998,0.89999998 0 0 0 -0.90039,0.90039 0.89999998,0.89999998 0 0 0 0.90039,0.900391 h 3.306641 c 0.344168,0 0.574889,0.0968 0.689453,0.189453 0.114564,0.09266 0.158203,0.158803 0.158203,0.361328 a 0.89999998,0.89999998 0 0 0 0.900391,0.898438 0.89999998,0.89999998 0 0 0 0.898437,-0.898438 c 0,-0.692794 -0.32094,-1.3531 -0.826171,-1.761718 -0.505232,-0.408619 -1.148461,-0.589844 -1.820313,-0.589844 z m 6.578125,3.773437 c -1.380121,-0.04889 -2.783908,0.333829 -3.990234,1.175781 -0.689329,0.481116 -1.260702,1.074557 -1.705078,1.740235 -1.333128,1.997036 -1.522117,4.643021 -0.3125,6.861328 a 0.90169084,0.89831595 84.999994 0 0 1.220703,0.359375 0.90169084,0.89831595 84.999994 0 0 0.355469,-1.224609 c -1.178899,-2.161976 -0.547741,-4.848455 1.46875,-6.25586 2.016491,-1.407405 4.745138,-1.06523 6.353515,0.796875 1.608379,1.862106 1.560429,4.623384 -0.113281,6.427735 -1.673711,1.80435 -4.414042,2.050031 -6.378906,0.572265 a 0.90169084,0.89831595 84.999994 0 0 -1.257813,0.179688 0.90169084,0.89831595 84.999994 0 0 0.181641,1.263672 c 2.688299,2.021858 6.481022,1.680026 8.769531,-0.78711 2.288509,-2.467136 2.358732,-6.288267 0.158203,-8.835937 -1.237797,-1.433065 -2.975558,-2.210581 -4.75,-2.273438 z m -0.08984,3.789063 c -0.448021,-0.02298 -0.903057,0.06178 -1.328125,0.261718 -0.566758,0.266591 -1.013142,0.706379 -1.291016,1.236329 -0.277873,0.52995 -0.387119,1.149509 -0.285156,1.769531 a 0.80149437,0.79851289 85.000053 0 0 0.916015,0.660156 0.80149437,0.79851289 85.000053 0 0 0.658204,-0.921875 c -0.08862,-0.538891 0.186728,-1.061092 0.679687,-1.292969 0.492958,-0.231877 1.068167,-0.108295 1.423828,0.304688 0.355661,0.412983 0.395632,1.002798 0.0957,1.458984 -0.299929,0.456186 -0.856791,0.652226 -1.375,0.486328 a 0.80149437,0.79851289 85.000053 0 0 -1.003906,0.519532 0.80149437,0.79851289 85.000053 0 0 0.519531,1.007812 c 1.193064,0.381945 2.501954,-0.08221 3.191407,-1.130859 0.689453,-1.048646 0.600264,-2.43961 -0.21875,-3.390625 -0.511884,-0.594384 -1.235722,-0.93045 -1.982422,-0.96875 z" fill="#008055"/>
</svg>
