<svg xmlns="http://www.w3.org/2000/svg" width="48" height="48">
	<path d="m 14.808594,2.7353515 c -1.586186,0 -3.02555,0.452878 -4.091797,1.355469 -1.0662473,0.902588 -1.7089846,2.267012 -1.7089846,3.814453 V 40.073242 c 0,1.681492 0.6203357,3.087955 1.7070316,3.966797 1.086695,0.878842 2.52298,1.224609 4.09375,1.224609 h 18.996094 c 1.547191,0 2.892887,-0.532069 3.810547,-1.484375 0.917659,-0.952306 1.376953,-2.275981 1.376953,-3.707031 V 12.803711 c 0,-1.577085 -0.450931,-2.9287195 -1.396485,-3.8476565 -0.945554,-0.918937 -2.284716,-1.322266 -3.791015,-1.322266 h -7.525391 a 1,1 0 0 0 -1,1 1,1 0 0 0 1,1 h 7.525391 c 1.16169,0 1.914581,0.287522 2.396484,0.7558595 0.481904,0.468338 0.791016,1.200287 0.791016,2.414063 v 27.269531 c 0,1.012839 -0.305516,1.786154 -0.81836,2.31836 -0.512843,0.532206 -1.260501,0.873046 -2.36914,0.873046 H 14.808594 c -1.271481,0 -2.234604,-0.291401 -2.837891,-0.779296 -0.603287,-0.487896 -0.962891,-1.178612 -0.962891,-2.41211 V 7.9052735 c 0,-1.02698 0.36351,-1.748314 1,-2.28711 0.636491,-0.538796 1.595677,-0.882812 2.800782,-0.882812 H 33.5625 a 1,1 0 0 0 1,-1 1,1 0 0 0 -1,-1 z m 9.269531,16.5566405 c -0.68842,0.0217 -1.235568,0.413403 -1.710937,0.910157 l -7.19336,7.253906 a 0.90008998,0.90008998 0 0 0 -0.0059,0.0059 c -0.443388,0.455495 -0.786043,1.009748 -0.802735,1.685547 -0.01669,0.6758 0.416189,1.359403 1.039063,1.726563 l 4.960938,2.923828 a 0.89999998,0.89999998 0 0 0 1.232421,-0.31836 0.89999998,0.89999998 0 0 0 -0.318359,-1.232421 L 16.31836,29.323242 c -0.223092,-0.131504 -0.155027,-0.101329 -0.154297,-0.130859 7.29e-4,-0.02953 0.05656,-0.231742 0.292969,-0.47461 l 7.199218,-7.259765 a 0.90008998,0.90008998 0 0 0 0.01172,-0.01172 c 0.316176,-0.330399 0.474454,-0.355711 0.466797,-0.355468 -0.0077,2.41e-4 0.07063,-0.01531 0.330078,0.265624 a 0.90008998,0.90008998 0 0 0 0.02344,0.02539 l 7.316406,7.328125 a 0.90008998,0.90008998 0 0 0 0.02344,0.02344 c 0.212641,0.197539 0.243784,0.349331 0.242188,0.398437 -0.0016,0.04911 0.01783,0.100201 -0.22461,0.246094 a 0.90008998,0.90008998 0 0 0 -0.01172,0.0078 l -4.585938,2.857422 c -0.890714,0.51298 -1.45017,1.117311 -1.744141,1.748047 -0.29397,0.630736 -0.326005,1.205435 -0.384765,1.63086 -0.05876,0.425423 -0.117187,0.702863 -0.341797,1.023437 -0.107667,0.153667 -0.53182,0.379404 -0.769531,0.568359 -0.07855,-0.140713 -0.05343,-0.370534 -0.15625,-0.484375 -0.408546,-0.452335 -0.89813,-0.63409 -1.246094,-0.761718 -0.347964,-0.127629 -0.567045,-0.225586 -0.607422,-0.259766 -0.04038,-0.03418 -0.05421,0.04405 -0.03906,-0.271484 a 0.89999998,0.89999998 0 0 0 -0.855469,-0.941407 0.89999998,0.89999998 0 0 0 -0.94336,0.855469 c -0.03348,0.697592 0.24734,1.367785 0.675782,1.730469 0.428441,0.362683 0.852943,0.467072 1.15039,0.576172 0.297448,0.109099 0.456693,0.196956 0.529297,0.277344 0.0726,0.08039 0.161466,0.198461 0.152344,0.6875 a 0.90008998,0.90008998 0 0 0 1.296875,0.824218 c 1.117815,-0.547661 1.837526,-1.127864 2.287109,-1.769531 0.449584,-0.641667 0.581024,-1.306375 0.650391,-1.808594 0.06937,-0.502218 0.104305,-0.840349 0.232422,-1.115234 0.128117,-0.274885 0.346357,-0.567977 1.011719,-0.951172 a 0.90008998,0.90008998 0 0 0 0.02734,-0.01563 l 4.59961,-2.865234 0.002,-0.002 c 0.632897,-0.38186 1.07129,-1.037384 1.09375,-1.728515 0.02249,-0.692017 -0.319213,-1.313508 -0.816406,-1.775391 l 0.02539,0.02344 -7.291015,-7.302735 c -0.440231,-0.476703 -1.020565,-0.865448 -1.708985,-0.84375 z m -0.0078,4.056641 c -0.632885,0.02825 -1.086383,0.399479 -1.492188,0.824219 l -3.300781,3.296875 c -0.243348,0.213875 -0.524665,0.519283 -0.482422,1.019531 0.04224,0.500247 0.431185,0.780217 0.6875,0.896484 0.51263,0.232534 1.013891,0.242188 1.580078,0.242188 0.752515,0 1.364604,-0.242582 1.845703,-0.435547 0.4811,-0.192966 0.832369,-0.320313 1.089844,-0.320313 0.263665,0 0.666368,0.13453 1.175781,0.326172 0.509414,0.191642 1.129154,0.427735 1.871094,0.427735 0.551126,0 1.012427,0.02265 1.53711,-0.226563 0.13117,-0.0623 0.276523,-0.15061 0.410156,-0.3125 0.133632,-0.16189 0.233932,-0.414338 0.232422,-0.646484 -0.003,-0.464295 -0.238249,-0.717219 -0.460938,-0.9375 l -3.140625,-3.353516 0.01758,0.02148 c -0.411949,-0.472474 -0.937441,-0.850509 -1.570326,-0.82226 z m 0.07031,1.597656 c -0.03461,0.0015 0.03149,-0.02676 0.294922,0.275391 a 0.80008502,0.80008502 0 0 0 0.01953,0.02148 l 2.605469,2.78125 c -0.0087,6.4e-5 -0.0069,0.002 -0.01563,0.002 -0.3839,0 -0.811532,-0.139912 -1.30664,-0.326171 -0.495109,-0.186259 -1.052765,-0.429688 -1.740235,-0.429688 -0.68533,0 -1.223794,0.250343 -1.685547,0.435547 -0.461753,0.185206 -0.846398,0.322266 -1.25,0.322266 -0.03721,0 -0.03747,-0.0067 -0.07422,-0.0078 l 2.732421,-2.728516 a 0.80008502,0.80008502 0 0 0 0.01367,-0.01367 c 0.290025,-0.303558 0.440864,-0.333577 0.40625,-0.332032 z" fill="#008055"/>
</svg>
