<svg xmlns="http://www.w3.org/2000/svg" width="48" height="48">
	<path d="m 14.374023,6.6279296 c -1.757659,0 -3.407851,0.5083728 -4.6406245,1.5898438 -1.232773,1.081471 -1.939453,2.7262526 -1.939453,4.4785156 v 22.583984 c 0,1.857116 0.674911,3.574854 1.953125,4.646484 1.2782135,1.071631 2.9215075,1.445313 4.6269525,1.445313 H 33.99707 c 1.74454,0 3.362488,-0.607071 4.492188,-1.732422 1.129699,-1.125351 1.716797,-2.709164 1.716797,-4.359375 V 15.272461 c 0,-1.767696 -0.574646,-3.415861 -1.757813,-4.519532 C 37.265076,9.6492584 35.658445,9.2021484 33.99707,9.2021484 h -8.185547 a 1.9,1.9 0 0 0 -1.898437,1.9003906 1.9,1.9 0 0 0 1.898437,1.90039 h 8.185547 c 1.006617,0 1.555339,0.243736 1.859375,0.527344 0.304037,0.283608 0.548828,0.719009 0.548828,1.742188 v 20.007812 c 0,0.79368 -0.23906,1.306855 -0.599609,1.666016 -0.360549,0.359161 -0.897303,0.625 -1.808594,0.625 H 14.374023 c -1.136795,0 -1.833551,-0.261534 -2.185546,-0.556641 -0.351996,-0.295107 -0.595704,-0.6765 -0.595704,-1.734375 V 12.696289 c 0,-0.822158 0.238199,-1.261205 0.648439,-1.621094 0.410238,-0.359889 1.099181,-0.648438 2.132811,-0.648438 H 22.09668 A 1.9,1.9 0 0 0 23.99707,8.5263672 1.9,1.9 0 0 0 22.09668,6.6279296 Z m 9.441407,9.5703124 c -0.658683,0.02077 -1.173464,0.394459 -1.615235,0.855469 l -6.599609,6.65625 a 0.90008998,0.90008998 0 0 0 -0.0059,0.0059 c -0.415148,0.426604 -0.741842,0.949198 -0.757813,1.595703 -0.01597,0.646505 0.402489,1.303821 0.990234,1.650391 l 4.550782,2.68164 a 0.89999998,0.89999998 0 0 0 1.230468,-0.318359 0.89999998,0.89999998 0 0 0 -0.318359,-1.232422 L 16.74117,25.411173 c -0.187933,-0.110816 -0.103527,-0.05425 -0.103516,-0.05469 1.2e-5,-4.38e-4 0.03984,-0.170818 0.248047,-0.384766 l 6.599651,-6.660194 a 0.90008998,0.90008998 0 0 0 0.01172,-0.01172 c 0.283309,-0.296152 0.411056,-0.303871 0.375,-0.302734 -0.03606,0.0011 0.0157,-0.02886 0.246094,0.220703 a 0.90008998,0.90008998 0 0 0 0.02344,0.02539 l 6.708984,6.720703 a 0.90008998,0.90008998 0 0 0 0.02344,0.02344 c 0.183169,0.170219 0.199821,0.290053 0.199219,0.308594 -6.02e-4,0.01854 0.03413,0.042 -0.171875,0.166016 a 0.90008998,0.90008998 0 0 0 -0.01172,0.0078 l -4.201171,2.617188 c -0.826071,0.47591 -1.354432,1.045468 -1.63086,1.638671 -0.276429,0.593205 -0.303956,1.128565 -0.357422,1.515626 -0.05347,0.387059 -0.104143,0.625488 -0.300781,0.90625 -0.08323,0.118841 -0.438166,0.302962 -0.611328,0.449218 -0.06507,-0.107198 -0.04017,-0.289281 -0.121094,-0.378906 -0.38852,-0.430303 -0.850722,-0.600915 -1.171875,-0.71875 -0.321152,-0.117835 -0.51229,-0.208853 -0.533203,-0.226562 -0.02091,-0.01771 -0.02485,0.08617 -0.01172,-0.1875 a 0.89999998,0.89999998 0 0 0 -0.855473,-0.941396 0.89999998,0.89999998 0 0 0 -0.941407,0.855469 c -0.03146,0.655591 0.235587,1.302135 0.644532,1.648438 0.408944,0.346302 0.805544,0.441719 1.076171,0.541015 0.270628,0.0993 0.404375,0.176054 0.457032,0.234375 0.05266,0.05832 0.129213,0.142214 0.121093,0.578125 a 0.90008998,0.90008998 0 0 0 1.296875,0.826172 c 1.032143,-0.505909 1.703497,-1.044658 2.125,-1.646484 0.421504,-0.601827 0.545311,-1.229566 0.609375,-1.69336 0.06406,-0.463794 0.09443,-0.764502 0.205079,-1.001953 0.110651,-0.237451 0.297722,-0.491812 0.898437,-0.83789 a 0.90008998,0.90008998 0 0 0 0.02734,-0.01563 l 4.216797,-2.628906 c 0.597802,-0.359859 1.019532,-0.987204 1.041015,-1.648437 0.02148,-0.661233 -0.303801,-1.25093 -0.771484,-1.685547 L 25.44043,16.99707 c -0.411144,-0.445358 -0.964744,-0.819646 -1.625,-0.798828 z m -0.0078,3.730469 c -0.608142,0.02715 -1.035221,0.382737 -1.412109,0.777343 l -3.021485,3.019531 c -0.23028,0.202457 -0.506381,0.498132 -0.464843,0.990235 0.04154,0.492103 0.422622,0.76367 0.667968,0.875 0.490694,0.222659 0.953002,0.228515 1.476563,0.228515 0.704545,0 1.274866,-0.226981 1.716797,-0.404296 0.441931,-0.177315 0.756374,-0.289063 0.974609,-0.289063 0.224082,0 0.587004,0.11892 1.054688,0.294922 0.467683,0.176002 1.045003,0.398437 1.740234,0.398437 0.508526,0 0.932515,0.0251 1.4375,-0.214843 0.126247,-0.05999 0.267461,-0.145962 0.398438,-0.304688 0.130976,-0.158726 0.23,-0.406793 0.228515,-0.634765 -0.003,-0.455945 -0.233464,-0.700508 -0.443359,-0.908204 l -2.876953,-3.074218 0.01758,0.02148 c -0.38386,-0.440427 -0.885997,-0.802544 -1.494141,-0.77539 z m 0.0625,1.607421 c 0.02257,0.01509 0.08724,0.06085 0.226563,0.220703 a 0.80008502,0.80008502 0 0 0 0.01953,0.01953 l 2.246094,2.398437 c -0.2988,-0.03049 -0.613237,-0.105185 -0.998047,-0.25 -0.453374,-0.170617 -0.971111,-0.398437 -1.619141,-0.398437 -0.646235,0 -1.147732,0.234745 -1.570312,0.404297 -0.379182,0.152138 -0.688291,0.238352 -1.00586,0.259765 l 2.371094,-2.367187 a 0.80008502,0.80008502 0 0 0 0.01171,-0.01172 c 0.230114,-0.240932 0.332535,-0.271154 0.318359,-0.275391 z" fill="#008055"/>
</svg>
