<svg xmlns="http://www.w3.org/2000/svg" width="48" height="48">
	<path d="m 14.80957,2.7353517 c -1.586185,0 -3.027503,0.4528796 -4.09375,1.3554687 C 9.6495731,4.9934096 9.0087889,6.3578329 9.0087889,7.9052735 l -0.00195,32.1679685 c 0,1.681491 0.6203356,3.087955 1.7070311,3.966797 1.086695,0.878842 2.524934,1.224609 4.095703,1.224609 h 18.99414 c 1.547192,0 2.892888,-0.532068 3.810547,-1.484375 0.91766,-0.952306 1.378907,-2.275981 1.378907,-3.707031 V 12.803711 c 0,-1.577085 -0.452884,-2.9287197 -1.398438,-3.8476562 C 36.649172,8.0371179 35.31001,7.6337892 33.80371,7.6337892 h -7.523437 a 1,1 0 0 0 -1,1 1,1 0 0 0 1,1.0000001 h 7.523437 c 1.161691,0 1.916534,0.287521 2.398438,0.7558587 0.481904,0.468338 0.791016,1.200288 0.791016,2.414063 v 27.269531 c 0,1.01284 -0.305517,1.786153 -0.81836,2.318359 -0.512843,0.532206 -1.262455,0.873047 -2.371094,0.873047 H 14.80957 c -1.271481,0 -2.234604,-0.291401 -2.837891,-0.779297 -0.603287,-0.487895 -0.964843,-1.17861 -0.964843,-2.412109 l 0.002,-32.1679685 c 0,-1.0269791 0.361555,-1.7483135 0.998047,-2.2871093 0.63649,-0.5387959 1.597629,-0.8828125 2.802734,-0.8828125 H 33.56157 a 1,1 0 0 0 1,-1 1,1 0 0 0 -1,-1 z m 1.671875,18.5996093 c -0.546009,0 -1.079719,0.174088 -1.472656,0.544922 -0.392938,0.370833 -0.609375,0.920599 -0.609375,1.505859 v 7.087891 c 0,0.449561 0.07849,0.887642 0.294922,1.277343 0.216427,0.389701 0.593112,0.712713 1.044921,0.861329 a 0.69999999,0.69999999 0 0 0 0.882813,-0.447266 0.69999999,0.69999999 0 0 0 -0.445313,-0.882813 c -0.139593,-0.04592 -0.193561,-0.09525 -0.257812,-0.210937 -0.06425,-0.115691 -0.119141,-0.318137 -0.119141,-0.597656 v -7.087891 c 0,-0.271807 0.07369,-0.397465 0.169922,-0.488281 0.09623,-0.09082 0.252421,-0.164063 0.511719,-0.164063 h 10.119141 c 0.282882,0 0.4255,0.06139 0.498046,0.115235 0.07255,0.05384 0.119823,0.113112 0.154297,0.292968 a 0.69999999,0.69999999 0 0 0 0.820313,0.556641 0.69999999,0.69999999 0 0 0 0.554687,-0.820313 c -0.08558,-0.446497 -0.321486,-0.874894 -0.695312,-1.152343 -0.373827,-0.27745 -0.839,-0.390625 -1.332031,-0.390625 z m 2.449219,2.611328 c -0.54601,0 -1.079719,0.174088 -1.472657,0.544922 -0.392937,0.370834 -0.607421,0.922552 -0.607421,1.507812 v 7.087891 c 0,0.449561 0.07849,0.885689 0.294921,1.275391 0.216429,0.389701 0.591159,0.712712 1.042969,0.861328 a 0.69999999,0.69999999 0 0 0 0.882813,-0.445313 0.69999999,0.69999999 0 0 0 -0.445313,-0.884765 c -0.139593,-0.04592 -0.193561,-0.09525 -0.257812,-0.210938 -0.06425,-0.115691 -0.117188,-0.316183 -0.117188,-0.595703 v -7.087891 c 0,-0.271807 0.07174,-0.397465 0.167969,-0.488281 0.09623,-0.09082 0.252421,-0.164063 0.511719,-0.164063 h 10.11914 c 0.282883,0 0.427454,0.06139 0.5,0.115235 0.07255,0.05384 0.119823,0.113112 0.154297,0.292969 a 0.69999999,0.69999999 0 0 0 0.818359,0.554687 0.69999999,0.69999999 0 0 0 0.556641,-0.818359 c -0.08558,-0.446498 -0.321486,-0.876847 -0.695312,-1.154297 -0.373827,-0.27745 -0.840953,-0.390625 -1.333985,-0.390625 z m 2.464843,2.53125 c -0.546009,0 -1.081672,0.174088 -1.474609,0.544922 -0.392937,0.370834 -0.607422,0.920599 -0.607422,1.505859 v 7.089844 c 0,0.565567 0.125929,1.121322 0.490234,1.5625 0.364306,0.441177 0.957962,0.685547 1.591797,0.685547 h 10.13086 c 0.602558,0 1.168391,-0.255359 1.535156,-0.679688 0.366765,-0.424328 0.539063,-0.981777 0.539063,-1.568359 a 0.70006999,0.70006999 0 0 0 0,-0.0039 c -0.0034,-0.782548 -0.179861,-1.439975 -0.595704,-2.095703 l -1.24414,-2.044922 a 0.70006999,0.70006999 0 0 0 -0.0078,-0.01172 c -0.249473,-0.393219 -0.671323,-0.664185 -1.123047,-0.697266 -0.451723,-0.03308 -0.900924,0.167553 -1.214843,0.507813 l -0.923829,0.957031 0.02539,-0.02344 c -0.09567,0.08989 -0.03082,0.05706 -0.07031,0.08789 -0.02439,-0.0236 -0.01962,-0.01194 -0.05078,-0.04688 a 0.70006999,0.70006999 0 0 0 -0.03125,-0.03516 L 27.77246,31.631836 c -0.327595,-0.33861 -0.788153,-0.541684 -1.222656,-0.515625 -0.434502,0.02606 -0.785158,0.230437 -1.066406,0.466797 l -4.048828,3.255859 a 0.69999999,0.69999999 0 0 0 -0.107422,0.984375 0.69999999,0.69999999 0 0 0 0.984375,0.107422 l 4.0625,-3.265625 a 0.70006999,0.70006999 0 0 0 0.01172,-0.0098 c 0.13651,-0.114723 0.230665,-0.141535 0.248047,-0.142578 0.01738,-0.001 0.01587,-0.02713 0.132812,0.09375 a 0.70006999,0.70006999 0 0 0 0.01172,0.01172 l 0.605469,0.59375 c 0.161287,0.177159 0.317992,0.321536 0.517578,0.431641 0.212733,0.117356 0.509484,0.178727 0.761719,0.123046 0.504468,-0.111361 0.658899,-0.396706 0.8125,-0.541015 a 0.70006999,0.70006999 0 0 0 0.02539,-0.02539 l 0.931641,-0.96875 a 0.70006999,0.70006999 0 0 0 0.01172,-0.0098 c 0.06676,-0.07236 0.0857,-0.06028 0.08203,-0.06055 -0.0035,-2.58e-4 0.0039,-0.01093 0.04297,0.04883 0,0 0.002,0.002 0.002,0.002 l 1.24414,2.046875 a 0.70006999,0.70006999 0 0 0 0.0078,0.0098 c 0.316045,0.498361 0.374211,0.7217 0.376953,1.351562 -4.92e-4,0.312814 -0.09132,0.527516 -0.199219,0.652344 -0.108189,0.125169 -0.228853,0.193359 -0.474609,0.193359 h -10.13086 c -0.326702,0 -0.425665,-0.07157 -0.511718,-0.175781 -0.08605,-0.104211 -0.169922,-0.320227 -0.169922,-0.671875 v -7.089844 c 0,-0.271807 0.07174,-0.397465 0.167969,-0.488281 0.09623,-0.09082 0.254374,-0.16211 0.513671,-0.16211 h 10.117188 c 0.335277,0 0.466045,0.07488 0.535156,0.144532 0.06911,0.06965 0.140625,0.19851 0.140625,0.505859 v 2.806641 a 0.69999999,0.69999999 0 0 0 0.699219,0.699218 0.69999999,0.69999999 0 0 0 0.699219,-0.699218 v -2.806641 c 0,-0.553657 -0.156907,-1.099216 -0.544922,-1.490234 -0.388015,-0.391019 -0.944949,-0.560547 -1.529297,-0.560547 z m 1.628907,2.421875 a 1.2655915,1.2425293 0 0 0 -1.265625,1.244141 1.2655915,1.2425293 0 0 0 1.265625,1.242187 1.2655915,1.2425293 0 0 0 1.265625,-1.242187 1.2655915,1.2425293 0 0 0 -1.265625,-1.244141 z" fill="#008055"/>
</svg>
