<svg xmlns="http://www.w3.org/2000/svg" width="48" height="48">
	<path d="m 14.80957,2.734375 c -1.586185,0 -3.027505,0.4548321 -4.09375,1.3574219 C 9.6495759,4.9943867 9.0068359,6.3568573 9.0068359,7.904297 v 32.169922 c 0,1.681492 0.6203351,3.087955 1.7070311,3.966797 1.086696,0.878841 2.524938,1.224609 4.095703,1.224609 h 18.994141 c 1.547195,0 2.892888,-0.534021 3.810547,-1.486328 0.917658,-0.952307 1.378906,-2.274029 1.378906,-3.705078 V 12.804687 c 0,-1.577084 -0.452886,-2.930672 -1.398437,-3.849609 C 36.649174,8.036141 35.310006,7.634766 33.803711,7.634766 H 26.27832 a 1,1 0 0 0 -1,1 1,1 0 0 0 1,1 h 7.525391 c 1.161685,0 1.916535,0.287521 2.398437,0.755859 0.481903,0.468338 0.791016,1.200287 0.791016,2.414062 v 27.269532 c 0,1.012841 -0.307471,1.786154 -0.820313,2.318359 -0.512841,0.532205 -1.260495,0.873047 -2.36914,0.873047 H 14.80957 c -1.271475,0 -2.234602,-0.293354 -2.83789,-0.78125 -0.603289,-0.487896 -0.964844,-1.176659 -0.964844,-2.410156 V 7.904297 c 0,-1.026981 0.363512,-1.7483143 1,-2.2871095 0.636488,-0.5387952 1.59763,-0.8828125 2.802734,-0.8828125 h 18.751953 a 1,1 0 0 0 1,-1 1,1 0 0 0 -1,-1 z m 18.480469,17.705078 c -0.203952,5.85e-4 -0.398737,0.07148 -0.517578,0.150391 -0.303874,0.201768 -0.36859,0.385062 -0.457031,0.583984 -0.767443,1.546745 -2.005213,2.766422 -3.410157,3.402344 -0.885741,0.400903 -2.099562,0.665662 -3.230468,0.730469 -1.130907,0.06481 -2.19635,-0.09516 -2.701172,-0.341797 -0.202597,-0.09899 -0.86173,-0.558332 -1.572266,-1.140625 -0.710535,-0.582293 -1.523903,-1.302188 -2.257812,-2 -0.119938,-0.11427 -0.243633,-0.21482 -0.396485,-0.304688 -0.152852,-0.08987 -0.324111,-0.231162 -0.736328,-0.160156 -0.206108,0.0355 -0.465341,0.193789 -0.59375,0.394531 -0.128409,0.200743 -0.148614,0.385221 -0.148437,0.523438 3.53e-4,0.276434 0.07081,0.455182 0.160156,0.673828 a 0.80008001,0.80008001 0 0 0 0.002,0.0078 c 0.06479,0.153494 0.345126,0.865455 0.623047,1.548829 0.13896,0.341686 0.279833,0.681914 0.404297,0.966796 0.120544,0.275911 0.187918,0.450883 0.333984,0.673828 -0.479647,0.382383 -0.895874,0.809093 -1.259765,1.275391 -0.82029,-0.423857 -1.868039,-0.488394 -2.753907,0.07813 a 0.80008001,0.80008001 0 0 0 -0.06055,0.04102 c -0.93715,0.727102 -1.307438,1.959618 -1.121093,3.230468 0.107858,0.735648 0.37945,1.390709 0.863281,1.871094 0.479369,0.475956 1.137679,0.734242 1.845703,0.792969 0.215105,0.02182 0.360261,0.128577 0.667969,0.34375 a 0.80008001,0.80008001 0 0 0 0.01758,0.01172 c 0.915333,0.604525 2.330055,0.894624 4.044922,1.033203 1.36409,0.110259 2.837189,0.01883 3.751953,-0.169922 a 0.80000001,0.80000001 0 0 0 0.621094,-0.945313 0.80000001,0.80000001 0 0 0 -0.945313,-0.621093 c -0.652656,0.134668 -2.113858,0.236406 -3.298828,0.140625 -1.562433,-0.126261 -2.931462,-0.53273 -3.292969,-0.771485 -0.254546,-0.179434 -0.716223,-0.543495 -1.404297,-0.613281 a 0.80008001,0.80008001 0 0 0 -0.01953,-0.002 c -0.434089,-0.03368 -0.678179,-0.15214 -0.861328,-0.333984 -0.183149,-0.181845 -0.335491,-0.472818 -0.408203,-0.96875 -0.122575,-0.835948 0.0854,-1.353529 0.492187,-1.691407 0.343335,-0.201567 0.844096,-0.188627 1.173829,-0.0039 a 0.80008001,0.80008001 0 0 0 0.002,0.002 c 0.243367,0.135204 0.575175,0.320887 1.035156,0.228516 0.459981,-0.09237 0.715375,-0.399126 0.925781,-0.6875 l -0.01563,0.02148 c 0.298044,-0.382179 0.623923,-0.718588 1.005859,-1.021484 0.267477,-0.205869 0.547028,-0.513593 0.625,-0.943359 0.07797,-0.429767 -0.07503,-0.834088 -0.283203,-1.15625 a 0.80008001,0.80008001 0 0 0 -0.0078,-0.0098 c 0.04171,0.06228 -0.09246,-0.183066 -0.207031,-0.445313 -0.03514,-0.08043 -0.08033,-0.193468 -0.119141,-0.285156 0.193195,0.164972 0.395221,0.362179 0.580078,0.513672 0.74767,0.612725 1.355083,1.081042 1.884766,1.339844 0.957097,0.467596 2.189352,0.576724 3.49414,0.501953 1.304789,-0.07477 2.66583,-0.356324 3.798829,-0.869141 1.108063,-0.501544 2.034935,-1.333486 2.849609,-2.289062 -0.09126,0.720815 -0.08294,1.633929 -0.324219,2.11914 -0.301831,0.606947 -1.087968,1.44414 -1.728516,1.900391 -0.466791,0.332481 -0.775647,0.832639 -0.996093,1.427734 -0.439368,1.186054 -0.785464,1.7141 -1.369141,2.326172 a 0.80000001,0.80000001 0 0 0 0.02734,1.132813 0.80000001,0.80000001 0 0 0 1.130859,-0.02734 c 0.704724,-0.739008 1.224045,-1.562607 1.710938,-2.876953 0.175693,-0.474285 0.220759,-0.533096 0.423828,-0.677734 0.847653,-0.603769 1.736872,-1.495695 2.232422,-2.492188 0.620243,-1.247317 0.770211,-2.714245 0.757812,-4.570312 -7.5e-4,-0.203708 -0.01231,-0.393137 -0.04297,-0.576172 -0.03065,-0.183036 -0.04984,-0.352746 -0.224609,-0.601563 -0.08739,-0.124408 -0.246518,-0.294747 -0.515625,-0.365234 -0.06728,-0.01762 -0.137094,-0.02559 -0.205078,-0.02539 z m -14.494141,5.71875 c 0,0 0.002,0 0.002,0 0.0026,0.0039 0.0032,0.0078 0.0059,0.01172 z m 2.431641,0.773438 a 1.133924,1.1311219 0 0 0 -1.134766,1.130859 1.133924,1.1311219 0 0 0 1.134766,1.130859 1.133924,1.1311219 0 0 0 1.132812,-1.130859 1.133924,1.1311219 0 0 0 -1.132812,-1.130859 z m 2.585938,0.445312 a 1.4346671,1.4311218 0 0 0 -1.435547,1.429688 1.4346671,1.4311218 0 0 0 1.435547,1.43164 1.4346671,1.4311218 0 0 0 1.433593,-1.43164 1.4346671,1.4311218 0 0 0 -1.433593,-1.429688 z m 1.486328,3.544922 a 0.69999999,0.69999999 0 0 0 -0.484375,0.201172 0.69999999,0.69999999 0 0 0 -0.0059,0.990234 l 3.501953,3.546875 a 0.69999999,0.69999999 0 0 0 0.990235,0.0078 0.69999999,0.69999999 0 0 0 0.0078,-0.990235 l -3.503854,-3.548815 a 0.69999999,0.69999999 0 0 0 -0.505859,-0.207031 z m 5.027343,4.648438 a 0.60006497,0.60006497 0 0 0 -0.46289,0.191406 l -0.4375,0.472656 a 0.60006497,0.60006497 0 0 0 -0.117188,0.628906 c 0.407995,1.02554 0.970182,1.530075 1.546875,1.822266 0.576694,0.292191 1.11262,0.449583 1.957032,1.130859 a 0.60006497,0.60006497 0 0 0 0.800781,-0.892578 C 32.844899,38.160013 32.691123,37.637601 32.399414,37.056641 32.107705,36.47568 31.562009,35.8783 30.456055,35.589844 a 0.60006497,0.60006497 0 0 0 -0.128907,-0.01953 z" fill="#008055"/>
</svg>
