<svg xmlns="http://www.w3.org/2000/svg" width="48" height="48">
	<path d="m 14.808595,2.7343749 c -1.586186,0 -3.025551,0.4548326 -4.091798,1.3574218 C 9.6505505,4.9943859 9.0078125,6.3568555 9.0078125,7.9042971 V 40.074219 c 0,1.681491 0.620336,3.087954 1.7070325,3.966796 1.086695,0.878842 2.522979,1.22461 4.09375,1.22461 h 18.996093 c 1.54719,0 2.892887,-0.534022 3.810546,-1.486328 0.91766,-0.952307 1.376954,-2.274029 1.376954,-3.705078 V 12.804687 c 0,-1.577085 -0.45093,-2.9287189 -1.396485,-3.8476559 -0.945554,-0.918937 -2.284716,-1.322266 -3.791015,-1.322266 h -7.525391 a 1,1 0 0 0 -1,1 1,1 0 0 0 1,1 h 7.525391 c 1.16169,0 1.916533,0.287522 2.398437,0.7558599 0.481904,0.468338 0.789063,1.200287 0.789063,2.414062 v 27.269532 c 0,1.012838 -0.305517,1.786153 -0.81836,2.318359 -0.512842,0.532206 -1.260502,0.873047 -2.36914,0.873047 H 14.808595 c -1.271481,0 -2.232651,-0.293355 -2.835939,-0.78125 -0.603286,-0.487896 -0.964844,-1.176658 -0.964844,-2.410156 V 7.9042971 c 0,-1.0269801 0.363511,-1.7483138 1,-2.2871098 0.636491,-0.5387957 1.595677,-0.8828124 2.800783,-0.8828124 l 18.753905,0.00195 a 1,1 0 0 0 1,-1 1,1 0 0 0 -1,-1 z M 25.017578,20.794922 c -0.580304,0 -1.128816,0.27227 -1.447265,0.605468 -0.31845,0.333199 -0.468351,0.667386 -0.601563,0.914063 -0.133212,0.246677 -0.239428,0.400045 -0.316406,0.466797 -0.07698,0.06675 -0.115389,0.107422 -0.38086,0.107422 a 0.89999998,0.89999998 0 0 0 -0.90039,0.90039 0.89999998,0.89999998 0 0 0 0.90039,0.900391 c 0.620201,0 1.184643,-0.222863 1.560547,-0.548828 0.375904,-0.325965 0.571146,-0.693759 0.720703,-0.970703 0.149557,-0.276945 0.26343,-0.467827 0.320313,-0.527344 0.05688,-0.05952 -0.0057,-0.04883 0.144531,-0.04883 h 2.748047 c 0.217759,0 0.160825,0.0062 0.195313,0.04297 0.03449,0.03675 0.123651,0.199533 0.24414,0.470703 0.120489,0.271169 0.280016,0.65601 0.646485,1.005859 0.366468,0.349849 0.942375,0.576172 1.568359,0.576172 h 0.724609 c 0.443058,0 0.650588,0.102248 0.759766,0.207031 0.109178,0.104783 0.212891,0.282101 0.212891,0.732422 v 8.625 c 0,0.348754 -0.100077,0.559584 -0.236329,0.699219 -0.136251,0.139634 -0.337727,0.25 -0.736328,0.25 H 17.130859 c -0.502143,0 -0.828642,-0.118598 -0.988281,-0.246094 -0.159638,-0.127496 -0.257812,-0.26398 -0.257812,-0.703125 v -8.625 c 0,-0.330956 0.09668,-0.50032 0.283203,-0.65625 0.186526,-0.15593 0.508481,-0.283203 0.96289,-0.283203 h 2.576172 a 0.89999998,0.89999998 0 0 0 0.900391,-0.900391 0.89999998,0.89999998 0 0 0 -0.900391,-0.90039 h -2.576172 c -0.793113,0 -1.544656,0.222875 -2.11914,0.703125 -0.574485,0.48025 -0.927735,1.231821 -0.927735,2.037109 v 8.625 c 0,0.847428 0.339875,1.633639 0.935547,2.109375 0.595674,0.475736 1.343178,0.640625 2.111328,0.640625 h 14.013672 c 0.788382,0 1.522304,-0.277389 2.025391,-0.792969 0.503088,-0.515579 0.746094,-1.227138 0.746094,-1.957031 v -8.625 c 0,-0.781434 -0.236824,-1.523731 -0.765625,-2.03125 -0.528802,-0.507519 -1.256501,-0.708984 -2.00586,-0.708984 h -0.724609 c -0.278716,0 -0.281268,-0.03526 -0.326172,-0.07813 -0.0449,-0.04287 -0.130015,-0.183095 -0.242187,-0.435547 -0.112173,-0.252452 -0.244048,-0.612783 -0.578125,-0.96875 -0.334076,-0.355968 -0.906488,-0.611328 -1.507813,-0.611328 z m 0.925781,4.458984 c -1.43625,0.108702 -2.797661,0.894473 -3.5625,2.216797 -1.171626,2.025615 -0.49667,4.565857 1.4375,5.841797 a 0.79506635,0.80495309 85.000395 0 0 0.22461,0.193359 c 0.0012,6.69e-4 7.7e-4,0.0032 0.002,0.0039 a 0.79506635,0.80495309 85.000395 0 0 0.0078,0.0039 0.79506635,0.80495309 85.000395 0 0 0.291016,0.09375 c 2.095811,0.992403 4.65515,0.275413 5.824219,-1.75 1.22182,-2.1168 0.468798,-4.832834 -1.671875,-6.039063 -0.802752,-0.452336 -1.690984,-0.629674 -2.552735,-0.564453 z m -8.96289,1.253906 a 0.80000001,0.80000001 0 0 0 -0.757813,0.591797 0.80000001,0.80000001 0 0 0 0.564453,0.980469 c 0.258974,0.06985 0.306872,0.12965 0.378907,0.261719 0.07203,0.132068 0.134765,0.396747 0.134765,0.783203 v 1.804687 c 0,0.397524 -0.0567,0.656754 -0.11914,0.773438 -0.06244,0.116683 -0.0992,0.174099 -0.392578,0.251953 a 0.80000001,0.80000001 0 0 0 -0.566407,0.978515 0.80000001,0.80000001 0 0 0 0.978516,0.56836 c 0.609248,-0.161675 1.126019,-0.548487 1.390625,-1.042969 0.264606,-0.494482 0.308594,-1.013377 0.308594,-1.529297 V 29.125 c 0,-0.5318 -0.0632,-1.059535 -0.330078,-1.548828 -0.266878,-0.489293 -0.770997,-0.88021 -1.367188,-1.041016 a 0.80000001,0.80000001 0 0 0 -0.222656,-0.02734 z m 9.074219,0.322266 c 0.550957,-0.04036 1.122288,0.07792 1.642578,0.371094 1.387437,0.781795 1.861992,2.50289 1.072265,3.871093 -0.789728,1.368203 -2.529821,1.839159 -3.917968,1.058594 a 0.79506635,0.80495309 85.000395 0 0 -0.0039,-0.002 c 0,0 -0.002,-0.002 -0.002,-0.002 -1.385328,-0.783501 -1.858985,-2.502235 -1.068359,-3.869141 0.494356,-0.854689 1.359081,-1.360473 2.277344,-1.427734 z" fill="#008055"/>
</svg>
