<svg xmlns="http://www.w3.org/2000/svg" width="48" height="48">
	<path d="m 14.808594,2.735352 c -1.586185,0 -3.027503,0.452879 -4.09375,1.355468 C 9.6485965,4.99341 9.0078125,6.357833 9.0078125,7.905274 v 32.167968 c 0,1.681493 0.618382,3.087956 1.7050785,3.966797 1.086697,0.878841 2.524937,1.224609 4.095703,1.224609 h 18.99414 c 1.547191,0 2.892888,-0.534021 3.810547,-1.486328 0.917659,-0.952306 1.378907,-2.274028 1.378907,-3.705078 V 12.803711 c 0,-1.577085 -0.45093,-2.928719 -1.396485,-3.847656 -0.945554,-0.918937 -2.28667,-1.322266 -3.792969,-1.322266 h -7.523437 a 1,1 0 0 0 -1,1 1,1 0 0 0 1,1 h 7.523437 c 1.161691,0 1.916534,0.287521 2.398438,0.755859 0.481904,0.46834 0.791016,1.200288 0.791016,2.414063 v 27.269531 c 0,1.01284 -0.305516,1.786154 -0.81836,2.31836 -0.512842,0.532206 -1.262455,0.873046 -2.371094,0.873046 h -18.99414 c -1.271476,0 -2.234603,-0.2914 -2.837891,-0.779296 -0.603289,-0.487897 -0.962891,-1.178612 -0.962891,-2.41211 V 7.905274 c 0,-1.02698 0.36351,-1.748314 1,-2.28711 0.636491,-0.538796 1.595677,-0.882812 2.800782,-0.882812 h 18.751953 a 1,1 0 0 0 1,-1 1,1 0 0 0 -1,-1 z m 2.146484,17.617187 c -0.752969,0 -1.482838,0.241601 -2.017578,0.75 -0.53474,0.5084 -0.828125,1.260112 -0.828125,2.068359 v 10.060547 c 0,0.787418 0.174834,1.554204 0.669922,2.158203 0.495088,0.604 1.300235,0.941407 2.175781,0.941407 h 14.273438 c 0.828657,0 1.599691,-0.35288 2.099609,-0.935547 0.499918,-0.582667 0.736328,-1.350999 0.736328,-2.164063 a 0.90008998,0.90008998 0 0 0 0,-0.0039 c -0.0047,-1.099083 -0.243859,-2.000448 -0.822265,-2.919922 l -1.75586,-2.908203 a 0.90008998,0.90008998 0 0 0 -0.0078,-0.01367 c -0.337713,-0.536238 -0.907066,-0.902226 -1.517578,-0.947265 -0.610512,-0.04504 -1.21821,0.225889 -1.644532,0.691406 l -1.302734,1.361328 0.0332,-0.03125 c -0.17597,0.16654 -0.122548,0.14064 -0.15625,0.175781 -0.04793,-0.0423 -0.05534,-0.03753 -0.132812,-0.125 a 0.90008998,0.90008998 0 0 0 -0.04102,-0.04297 l -0.835938,-0.826172 c -0.448017,-0.46651 -1.069763,-0.740632 -1.658203,-0.705078 -0.588439,0.03555 -1.065964,0.314796 -1.453125,0.642578 L 17.0625,32.200195 a 0.89999998,0.89999998 0 0 0 -0.134766,1.267579 0.89999998,0.89999998 0 0 0 1.267579,0.132812 l 5.722656,-4.634766 a 0.90008998,0.90008998 0 0 0 0.01563,-0.01367 c 0.201408,-0.170518 0.350227,-0.215837 0.398437,-0.21875 0.04821,-0.0029 0.07366,-0.0294 0.251953,0.15625 a 0.90008998,0.90008998 0 0 0 0.01563,0.01563 l 0.851563,0.841796 c 0.224185,0.248474 0.439124,0.449633 0.708984,0.59961 0.286559,0.159257 0.681804,0.238728 1.017578,0.164062 0.671551,-0.149331 0.885407,-0.53587 1.105469,-0.74414 a 0.90008998,0.90008998 0 0 0 0.0332,-0.03125 l 1.314453,-1.376954 a 0.90008998,0.90008998 0 0 0 0.01172,-0.01367 c 0.110009,-0.120124 0.164803,-0.112859 0.185547,-0.111329 0.02023,0.0015 0.05142,-0.0016 0.123047,0.109376 l 0.0039,0.002 1.753906,2.90625 a 0.90008998,0.90008998 0 0 0 0.0098,0.01367 c 0.451954,0.717954 0.542966,1.065807 0.546875,1.970704 -9.57e-4,0.462799 -0.13411,0.791745 -0.302734,0.988281 -0.169235,0.197246 -0.367863,0.306641 -0.734375,0.306641 H 16.955078 c -0.477735,0 -0.643791,-0.111171 -0.783203,-0.28125 -0.139412,-0.170081 -0.261719,-0.503176 -0.261719,-1.017579 v -10.0606 c 0,-0.4082 0.113144,-0.616843 0.267578,-0.763671 0.154435,-0.146828 0.395735,-0.25586 0.777344,-0.25586 h 14.25586 c 0.486516,0 0.69471,0.112841 0.8125,0.232422 0.117789,0.119581 0.224609,0.333265 0.224609,0.787109 v 3.982422 a 0.89999998,0.89999998 0 0 0 0.898437,0.898438 0.89999998,0.89999998 0 0 0 0.900391,-0.898438 v -3.982422 c 0,-0.768194 -0.213988,-1.514578 -0.740234,-2.048828 -0.526247,-0.534249 -1.28658,-0.769531 -2.095703,-0.769531 z m 2.296875,3.345703 a 1.7830637,1.7635434 0 0 0 -1.783203,1.761719 1.7830637,1.7635434 0 0 0 1.783203,1.763672 1.7830637,1.7635434 0 0 0 1.783203,-1.763672 1.7830637,1.7635434 0 0 0 -1.783203,-1.761719 z" fill="#008055"/>
</svg>
