<svg xmlns="http://www.w3.org/2000/svg" width="48" height="48">
	<path d="m 14.375977,6.626953 c -1.757661,0 -3.40785,0.510327 -4.6406255,1.591797 -1.232776,1.081469 -1.941406,2.72625 -1.941406,4.478515 V 35.28125 c 0,1.857117 0.676862,3.572902 1.955078,4.644531 1.2782145,1.071629 2.9215075,1.447266 4.6269535,1.447266 h 19.623046 c 1.74454,0 3.360535,-0.609024 4.490235,-1.734376 1.129699,-1.125351 1.716797,-2.707211 1.716797,-4.357421 V 15.273437 c 0,-1.76769 -0.572694,-3.417816 -1.75586,-4.521484 C 37.267029,9.648285 35.660396,9.203125 33.999023,9.203125 h -8.185546 a 1.9,1.9 0 0 0 -1.900391,1.90039 1.9,1.9 0 0 0 1.900391,1.900391 h 8.185546 c 1.006617,0 1.553387,0.243737 1.857422,0.527344 0.304035,0.283607 0.550782,0.719017 0.550782,1.742187 V 35.28125 c 0,0.793679 -0.239061,1.306854 -0.59961,1.666015 -0.360548,0.359162 -0.897303,0.625 -1.808594,0.625 H 14.375977 c -1.136795,0 -1.833549,-0.263485 -2.185547,-0.558594 -0.351999,-0.295107 -0.595703,-0.674549 -0.595703,-1.732421 V 12.697265 c 0,-0.822155 0.236242,-1.261202 0.646484,-1.621094 0.410242,-0.35989 1.101136,-0.648437 2.134766,-0.648437 h 7.720703 a 1.9,1.9 0 0 0 1.90039,-1.900391 1.9,1.9 0 0 0 -1.90039,-1.90039 z m 18.455078,10.378906 c -0.202439,8.25e-4 -0.395754,0.07211 -0.513672,0.150391 -0.301103,0.199878 -0.36383,0.37807 -0.449219,0.570312 -0.729237,1.469417 -1.907219,2.6292 -3.240234,3.232422 -0.840131,0.380172 -1.996389,0.63172 -3.072266,0.693359 -1.075877,0.06164 -2.08679,-0.09182 -2.558594,-0.322265 -0.186067,-0.09089 -0.818515,-0.52883 -1.496093,-1.083985 -0.677234,-0.554872 -1.452539,-1.243024 -2.152344,-1.908203 h -0.002 c -0.115722,-0.110143 -0.233932,-0.209361 -0.382813,-0.296875 -0.149355,-0.08779 -0.316654,-0.226841 -0.726562,-0.15625 -0.204955,0.0353 -0.465911,0.194751 -0.59375,0.394532 -0.127841,0.19978 -0.146654,0.381151 -0.146485,0.517578 3.37e-4,0.272853 0.06807,0.445305 0.154297,0.65625 a 0.80008001,0.80008001 0 0 0 0.0039,0.0078 c 0.06101,0.14451 0.32827,0.825884 0.59375,1.478516 0.132741,0.326316 0.267656,0.651371 0.386719,0.923828 0.110718,0.25336 0.177084,0.416863 0.308594,0.623047 -0.443682,0.356965 -0.832558,0.753311 -1.171875,1.185547 -0.790304,-0.39795 -1.787715,-0.460777 -2.636719,0.08203 a 0.80008001,0.80008001 0 0 0 -0.05859,0.04102 c -0.906174,0.702912 -1.265225,1.894742 -1.085937,3.117188 0.103786,0.707702 0.367163,1.343258 0.835937,1.808594 0.464284,0.460877 1.101135,0.708969 1.783204,0.765625 0.194478,0.01972 0.32601,0.115976 0.621093,0.322265 a 0.80008001,0.80008001 0 0 0 0.01758,0.01172 c 0.88647,0.585333 2.238125,0.859631 3.878907,0.992188 1.306455,0.105575 2.712471,0.01734 3.591797,-0.164063 a 0.80000001,0.80000001 0 0 0 0.621093,-0.945312 0.80000001,0.80000001 0 0 0 -0.943359,-0.621094 c -0.617255,0.127338 -2.013241,0.22587 -3.140625,0.134766 -1.488378,-0.120244 -2.794303,-0.512775 -3.126953,-0.732422 -0.242182,-0.1707 -0.690147,-0.522189 -1.357422,-0.589844 a 0.80008001,0.80008001 0 0 0 -0.01953,-0.002 c -0.408118,-0.03164 -0.630771,-0.141769 -0.798828,-0.308594 -0.168058,-0.166825 -0.310283,-0.436359 -0.378907,-0.904297 -0.115314,-0.786252 0.07792,-1.264446 0.453125,-1.578125 0.315184,-0.183474 0.778717,-0.171854 1.082032,-0.002 a 0.80008001,0.80008001 0 0 0 0.002,0 c 0.234128,0.130043 0.559987,0.315696 1.013672,0.224609 0.453683,-0.09109 0.70352,-0.394088 0.90625,-0.671875 l -0.01563,0.02148 c 0.282883,-0.362647 0.591014,-0.681582 0.953125,-0.96875 0.259191,-0.19945 0.534696,-0.499592 0.611328,-0.921875 0.07663,-0.422283 -0.0738,-0.818958 -0.275391,-1.13086 a 0.80008001,0.80008001 0 0 0 -0.0078,-0.0098 c 0.04433,0.06617 -0.08614,-0.170103 -0.195313,-0.419922 -0.01541,-0.03526 -0.0365,-0.08724 -0.05273,-0.125 0.144553,0.122403 0.298179,0.27257 0.4375,0.386719 0.714714,0.58558 1.293526,1.032554 1.80664,1.283203 0.924036,0.451339 2.103795,0.55402 3.353516,0.482422 1.249719,-0.0716 2.553265,-0.341937 3.640625,-0.833985 1.021473,-0.462241 1.885151,-1.2119 2.648437,-2.078125 -0.08901,0.618642 -0.07345,1.443502 -0.285156,1.869141 -0.283766,0.5705 -1.031754,1.368581 -1.638672,1.800781 -0.451661,0.321625 -0.753341,0.806146 -0.964843,1.376953 -0.418417,1.12925 -0.74428,1.629549 -1.298829,2.210938 a 0.80000001,0.80000001 0 0 0 0.02734,1.130859 0.80000001,0.80000001 0 0 0 1.13086,-0.02734 c 0.675611,-0.708311 1.174661,-1.500242 1.640625,-2.757812 0.166736,-0.449993 0.20466,-0.497044 0.392578,-0.630859 0.814019,-0.579681 1.665024,-1.430525 2.142578,-2.390626 0.596364,-1.198994 0.73836,-2.606942 0.726562,-4.380859 -7.23e-4,-0.19598 -0.01129,-0.377263 -0.04102,-0.554687 -0.02972,-0.177425 -0.04764,-0.343527 -0.220703,-0.589844 -0.08653,-0.123159 -0.245672,-0.293102 -0.513672,-0.363281 -0.067,-0.01754 -0.135647,-0.02567 -0.203125,-0.02539 z m -11.517578,6.232422 a 1.0826694,1.0797423 0 0 0 -1.083985,1.080078 1.0826694,1.0797423 0 0 0 1.083985,1.080078 1.0826694,1.0797423 0 0 0 1.082031,-1.080078 1.0826694,1.0797423 0 0 0 -1.082031,-1.080078 z m 2.46875,0.425781 a 1.3698186,1.3661152 0 0 0 -1.371094,1.367188 1.3698186,1.3661152 0 0 0 1.371094,1.365234 1.3698186,1.3661152 0 0 0 1.36914,-1.365234 1.3698186,1.3661152 0 0 0 -1.36914,-1.367188 z m -5.892579,0.03711 0.002,0.002 c -0.0011,-6.12e-4 -0.0028,6.09e-4 -0.0039,0 0,0 0.002,-0.002 0.002,-0.002 z m 7.310547,3.314454 a 0.69999999,0.69999999 0 0 0 -0.482422,0.203125 0.69999999,0.69999999 0 0 0 -0.0059,0.990234 l 3.34375,3.386719 a 0.69999999,0.69999999 0 0 0 0.990234,0.0059 0.69999999,0.69999999 0 0 0 0.0059,-0.990234 l -3.343749,-3.386761 a 0.69999999,0.69999999 0 0 0 -0.507813,-0.208984 z m 4.802735,4.443359 a 0.60006002,0.60006002 0 0 0 -0.462891,0.191406 l -0.417969,0.451172 a 0.60006002,0.60006002 0 0 0 -0.117187,0.628906 c 0.391122,0.982896 0.934663,1.47152 1.488281,1.751953 0.553617,0.280434 1.06192,0.430158 1.865234,1.078126 a 0.60006002,0.60006002 0 0 0 0.800782,-0.892579 c -0.731187,-0.725744 -0.876337,-1.218047 -1.15625,-1.77539 -0.279916,-0.557344 -0.810271,-1.137444 -1.871094,-1.414063 a 0.60006002,0.60006002 0 0 0 -0.128906,-0.01953 z" fill="#008055"/>
</svg>
