<svg xmlns="http://www.w3.org/2000/svg" width="48" height="48">
	<path d="m 14.807618,2.7353515 c -1.586186,0 -3.02555,0.4528793 -4.091797,1.355469 -1.066247,0.902589 -1.708985,2.267012 -1.708985,3.814453 V 40.073242 c 0,1.681492 0.620335,3.087956 1.707032,3.966797 1.086695,0.878842 2.522985,1.224609 4.09375,1.224609 h 18.996093 c 1.547191,0 2.892888,-0.532069 3.810547,-1.484375 0.917659,-0.952306 1.378906,-2.275981 1.378906,-3.707031 V 12.803711 c 0,-1.577085 -0.452883,-2.9287195 -1.398437,-3.8476565 -0.945554,-0.918937 -2.284716,-1.322266 -3.791016,-1.322266 h -7.52539 a 1,1 0 0 0 -1,1 1,1 0 0 0 1,1 h 7.52539 c 1.161691,0 1.916534,0.287522 2.398438,0.7558595 0.481903,0.468338 0.791015,1.200287 0.791015,2.414063 v 27.269531 c 0,1.012839 -0.307469,1.786153 -0.820312,2.31836 -0.512843,0.532206 -1.260502,0.873046 -2.369141,0.873046 H 14.807618 c -1.271476,0 -2.232649,-0.291401 -2.835938,-0.779296 -0.603289,-0.487896 -0.964844,-1.178613 -0.964844,-2.41211 V 7.9052735 c 0,-1.026979 0.36351,-1.748314 1,-2.287109 0.636491,-0.538797 1.595677,-0.882813 2.800782,-0.882813 h 18.753906 a 1,1 0 0 0 1,-1 1,1 0 0 0 -1,-1 z m 2.796874,20.4218755 c -0.643831,0 -1.288131,0.19488 -1.804687,0.628906 -0.516556,0.434026 -0.863281,1.13627 -0.863281,1.896484 v 9.150391 c 0,0.806334 0.410009,1.508791 0.93164,1.921875 0.521631,0.413083 1.129486,0.603515 1.736328,0.603515 a 1,1 0 0 0 1,-1 1,1 0 0 0 -1,-1 c -0.143587,0 -0.369709,-0.07138 -0.49414,-0.169921 -0.124432,-0.09854 -0.173828,-0.158234 -0.173828,-0.355469 v -9.150391 c 0,-0.223426 0.05211,-0.282654 0.15039,-0.365234 0.09828,-0.08258 0.28608,-0.160156 0.517578,-0.160156 h 12.859376 c 0.200045,0 0.351902,0.06144 0.416015,0.115234 0.06411,0.0538 0.126953,0.09251 0.126953,0.410156 v 9.150391 c 0,0.397438 -0.05698,0.52539 -0.542968,0.52539 H 20.122071 a 1,1 0 0 0 -1,1 1,1 0 0 0 1,1 h 10.341797 c 1.421229,0 2.542968,-1.210549 2.542968,-2.52539 v -9.150391 c 0,-0.786441 -0.326145,-1.508713 -0.841797,-1.941407 -0.515652,-0.432694 -1.134917,-0.583983 -1.701171,-0.583983 z" fill="#008055"/>
</svg>
