<svg xmlns="http://www.w3.org/2000/svg" width="48" height="48">
	<path d="m 14.808594,1.7353515 c -1.776726,0 -3.457156,0.5092643 -4.738281,1.59375 -1.281127,1.084486 -2.0625,2.7684999 -2.0625,4.576172 V 40.073242 c 0,1.905489 0.749724,3.669827 2.078124,4.74414 1.328401,1.074314 3.002247,1.447266 4.722657,1.447266 h 18.996093 c 1.766468,0 3.40923,-0.628659 4.529297,-1.791016 1.120068,-1.162356 1.658203,-2.760235 1.658203,-4.40039 V 14.805664 c 0,-1.75874 -0.521839,-3.42217 -1.699218,-4.566407 C 37.11559,9.0950215 35.483291,8.6357425 33.804687,8.6357425 h -5.59375 a 2,2 0 0 0 -2,1.9999995 2,2 0 0 0 2,2 h 5.59375 c 0.989388,0 1.451094,0.229617 1.701172,0.472656 0.250079,0.243039 0.486328,0.665145 0.486328,1.697266 v 25.267578 c 0,0.803734 -0.228627,1.302844 -0.539062,1.625 -0.310435,0.322156 -0.759075,0.566406 -1.648438,0.566406 H 14.808594 c -1.12183,0 -1.8474,-0.264217 -2.208985,-0.556641 -0.361585,-0.292423 -0.591796,-0.625265 -0.591796,-1.634765 V 7.9052735 c 0,-0.766748 0.224872,-1.166538 0.646484,-1.523437 0.421612,-0.356901 1.139732,-0.646485 2.154297,-0.646485 H 33.5625 a 2,2 0 0 0 2,-2 2,2 0 0 0 -2,-2 z m 6.791015,21.2910155 c -1.532073,0.07327 -3.129036,0.901011 -4.044922,2.689453 a 1,1 0 0 0 0.433594,1.345703 1,1 0 0 0 1.347656,-0.433594 c 0.929426,-1.814884 2.623093,-1.856194 3.580079,-1.353515 0.478492,0.251339 0.686272,0.561242 0.691406,0.908203 0.0051,0.346961 -0.216232,0.972381 -1.277344,1.771484 a 1.0001,1.0001 0 0 0 -0.01563,0.01367 c -2.194616,1.727417 -3.363057,3.407973 -3.566406,5.0625 -0.203349,1.654527 0.775377,3.117997 2.207031,3.826172 2.863309,1.41635 7.493997,0.71388 11.626953,-2.808594 a 1,1 0 0 0 0.113282,-1.410156 1,1 0 0 0 -1.410157,-0.113281 c -3.651714,3.112316 -7.675343,3.41362 -9.443359,2.539062 -0.884008,-0.437279 -1.213243,-0.943953 -1.109375,-1.789062 0.103542,-0.842457 0.855944,-2.187128 2.800781,-3.722657 l 0.01758,-0.01367 c 1.355349,-1.026334 2.074159,-2.200931 2.056641,-3.384766 -0.0176,-1.189156 -0.801995,-2.146274 -1.761719,-2.650391 -0.479862,-0.252058 -1.02491,-0.410219 -1.595703,-0.46289 -0.214047,-0.01975 -0.431523,-0.02414 -0.650391,-0.01367 z" fill="#008055"/>
</svg>
