<svg xmlns="http://www.w3.org/2000/svg" width="48" height="48">
	<path d="m 14.809571,2.734375 c -1.586186,0 -3.027503,0.454832 -4.09375,1.357422 -1.066247,0.902589 -1.707032,2.265059 -1.707032,3.8125 l -0.00195,32.169921 c 0,1.681493 0.620335,3.087956 1.707031,3.966797 1.086697,0.878842 2.524939,1.22461 4.095704,1.22461 h 18.99414 c 1.547191,0 2.892888,-0.534022 3.810547,-1.486328 0.917659,-0.952307 1.378906,-2.274028 1.378906,-3.705079 V 12.804687 c 0,-1.577085 -0.452883,-2.930672 -1.398437,-3.849609 C 36.649176,8.036141 35.310014,7.634765 33.803714,7.634765 h -7.523437 a 1,1 0 0 0 -1,1 1,1 0 0 0 1,1 h 7.523437 c 1.161691,0 1.916534,0.287522 2.398438,0.75586 0.481903,0.468338 0.791015,1.200287 0.791015,2.414062 v 27.269531 c 0,1.01284 -0.305516,1.786154 -0.818359,2.31836 -0.512843,0.532206 -1.262455,0.873047 -2.371094,0.873047 h -18.99414 c -1.271475,0 -2.234602,-0.293354 -2.837891,-0.78125 -0.603289,-0.487896 -0.964844,-1.176659 -0.964844,-2.410157 l 0.002,-32.169921 c 0,-1.02698 0.361557,-1.748314 0.998047,-2.28711 0.636491,-0.538796 1.59763,-0.882812 2.802735,-0.882812 h 18.751953 a 1,1 0 0 0 1,-1 1,1 0 0 0 -1,-1 z m 5.572265,20.423828 c -0.66236,0 -1.458033,0.328021 -1.705078,1.080078 -0.247044,0.752057 0.121845,1.426533 0.605469,1.910156 l 3.640625,3.705078 a 1.0001,1.0001 0 0 0 0.05469,0.05273 c 0.212062,0.185304 0.228397,0.290089 0.230469,0.330078 0.0021,0.03999 0.0078,0.117194 -0.183594,0.308594 a 1.0001,1.0001 0 0 0 -0.0078,0.0078 l -3.488281,3.560547 c -0.561917,0.543742 -1.053654,1.046279 -0.947266,1.941406 0.05319,0.447564 0.398454,0.888131 0.753906,1.076172 0.355452,0.188042 0.697944,0.226563 1.052735,0.226563 h 8.845703 a 1,1 0 0 0 1,-1 1,1 0 0 0 -1,-1 h -8.123047 l 3.328125,-3.398438 c 0.485922,-0.485951 0.802949,-1.143488 0.767578,-1.826172 -0.03537,-0.682683 -0.405031,-1.289326 -0.912109,-1.732422 l 0.05469,0.05273 -3.238281,-3.294922 h 8.123047 a 1,1 0 0 0 1,-1 1,1 0 0 0 -1,-1 z" fill="#008055"/>
</svg>
