<svg xmlns="http://www.w3.org/2000/svg" width="48" height="48">
	<path d="m 14.808594,2.7353515 c -1.586185,0 -3.025548,0.4528798 -4.091797,1.3554691 -1.0662495,0.902588 -1.7089845,2.267011 -1.7089845,3.814453 V 40.073242 c 0,1.681492 0.620337,3.087955 1.7070315,3.966797 1.086694,0.878842 2.522985,1.22461 4.09375,1.22461 h 18.996094 c 1.547195,0 2.892887,-0.532068 3.810546,-1.484375 0.917659,-0.952307 1.376954,-2.275982 1.376954,-3.707032 V 12.803711 c 0,-1.577083 -0.450933,-2.9287184 -1.396485,-3.8476564 -0.945552,-0.918938 -2.284717,-1.322266 -3.791015,-1.322266 h -7.525391 a 1,1 0 0 0 -1,1 1,1 0 0 0 1,1 h 7.525391 c 1.16169,0 1.914583,0.287522 2.396484,0.7558604 0.481901,0.468337 0.791016,1.200286 0.791016,2.414062 v 27.269531 c 0,1.012842 -0.305518,1.786155 -0.81836,2.31836 -0.512842,0.532205 -1.260497,0.873047 -2.36914,0.873047 H 14.808594 c -1.271475,0 -2.234605,-0.291402 -2.837891,-0.779297 -0.603286,-0.487896 -0.962891,-1.17861 -0.962891,-2.41211 V 7.9052736 c 0,-1.026978 0.363507,-1.748313 1,-2.28711 0.636494,-0.538796 1.595677,-0.882812 2.800782,-0.882812 H 33.5625 a 1,1 0 0 0 1,-1 1,1 0 0 0 -1,-1.0000001 z m 2.6875,20.4589845 c -0.73088,0 -1.432294,0.152682 -1.992188,0.591797 -0.559894,0.439116 -0.884765,1.170536 -0.884765,1.966797 v 7.042969 c 0,0.796257 0.324899,1.529631 0.884765,1.96875 0.559867,0.439118 1.261366,0.589843 1.992188,0.589843 h 13.564453 c 0.744594,0 1.430301,-0.253403 1.904297,-0.730468 0.473996,-0.477066 0.707031,-1.143004 0.707031,-1.828125 V 25.75293 a 0.80000001,0.80000001 0 0 0 -0.798828,-0.798828 0.80000001,0.80000001 0 0 0 -0.800781,0.798828 v 7.042969 c 0,0.340179 -0.09738,0.555427 -0.242188,0.701172 -0.144807,0.145744 -0.365175,0.257812 -0.769531,0.257812 H 17.496094 c -0.498589,0 -0.834653,-0.115718 -1.00586,-0.25 C 16.319028,33.370601 16.21875,33.222581 16.21875,32.795899 V 25.75293 c 0,-0.426689 0.100268,-0.572749 0.271484,-0.707031 0.171217,-0.134282 0.50718,-0.25 1.00586,-0.25 H 29.78125 l -5.169922,5.267578 a 0.80008001,0.80008001 0 0 0 -0.002,0.002 c -0.254821,0.260939 -0.465117,0.258437 -0.6875,0.05469 L 19.097609,25.27837 a 0.80000001,0.80000001 0 0 0 -1.130859,-0.002 0.80000001,0.80000001 0 0 0 -0.002,1.130859 l 4.849609,4.867187 a 0.80008001,0.80008001 0 0 0 0.02539,0.02539 c 0.820925,0.752136 2.132178,0.681345 2.912109,-0.115234 l 0.002,-0.002 5.480469,-5.582032 -0.01563,0.01367 c 0.254956,-0.247261 0.445875,-0.456443 0.589844,-0.734375 0.143968,-0.277932 0.218333,-0.798951 -0.04688,-1.160156 -0.265209,-0.361206 -0.579235,-0.421737 -0.828125,-0.46875 -0.248891,-0.04701 -0.492303,-0.05664 -0.759766,-0.05664 z" fill="#008055"/>
</svg>
