<svg xmlns="http://www.w3.org/2000/svg" width="48" height="48">
	<path d="m 14.808594,2.734375 c -1.586185,0 -3.027504,0.4548327 -4.093751,1.3574219 C 9.6485965,4.994386 9.0078125,6.3568565 9.0078125,7.9042965 V 40.074219 c 0,1.681493 0.618382,3.086002 1.7050785,3.964844 1.086696,0.878841 2.524937,1.226562 4.095703,1.226562 h 18.99414 c 1.547191,0 2.892888,-0.534022 3.810547,-1.486328 0.917659,-0.952306 1.378907,-2.274029 1.378907,-3.705078 V 12.804687 c 0,-1.577085 -0.45093,-2.9306715 -1.396485,-3.8496085 -0.945554,-0.918937 -2.28667,-1.320313 -3.792969,-1.320313 h -7.523437 a 1,1 0 0 0 -1,1 1,1 0 0 0 1,1 h 7.523437 c 1.161691,0 1.916534,0.287522 2.398438,0.7558585 0.481904,0.46834 0.791016,1.200288 0.791016,2.414063 v 27.269532 c 0,1.012839 -0.305516,1.786154 -0.81836,2.318359 -0.512842,0.532207 -1.262455,0.873047 -2.371094,0.873047 h -18.99414 c -1.271476,0 -2.234603,-0.293354 -2.837891,-0.78125 -0.603289,-0.487896 -0.962891,-1.176659 -0.962891,-2.410156 V 7.9042965 c 0,-1.026979 0.36351,-1.748313 1,-2.287109 0.636491,-0.5387958 1.595677,-0.8828125 2.800782,-0.8828125 h 18.751953 a 1,1 0 0 0 1,-1 1,1 0 0 0 -1,-1 z m 9.765625,14.109375 a 0.89999998,0.89999998 0 0 0 -0.822266,0.496093 l -9.634766,19.283204 a 0.89999998,0.89999998 0 0 0 0.404297,1.207031 0.89999998,0.89999998 0 0 0 1.207032,-0.402344 L 25.361328,18.144531 A 0.89999998,0.89999998 0 0 0 24.958984,16.9375 0.89999998,0.89999998 0 0 0 24.574219,16.84375 Z m 2.40039,9.068359 c -2.591654,0 -4.9375,2.460718 -4.9375,6.177735 0,1.54905 0.434377,2.970804 1.291016,4.037109 0.856641,1.066306 2.16529,1.740235 3.671875,1.740235 1.839399,0 3.080912,-0.960797 3.744141,-1.845704 a 0.89999998,0.89999998 0 0 0 -0.181641,-1.259765 0.89999998,0.89999998 0 0 0 -1.259766,0.18164 c -0.436211,0.582012 -1.046314,1.125 -2.302734,1.125 -0.999634,0 -1.721322,-0.385973 -2.269531,-1.068359 -0.548211,-0.682386 -0.892578,-1.699537 -0.892578,-2.910156 0,-2.995964 1.686774,-4.378906 3.136718,-4.378906 1.093379,0 1.68698,0.416604 2.15625,1.177734 0.339453,0.550573 0.410773,1.447257 0.498047,2.302734 h -4.226562 a 0.89999998,0.89999998 0 0 0 -0.900391,0.898438 0.89999998,0.89999998 0 0 0 0.900391,0.90039 h 5.316406 a 0.90008998,0.90008998 0 0 0 0.900391,-0.880859 c 0.03187,-1.501777 -0.224449,-2.977812 -0.957032,-4.166016 -0.732582,-1.188203 -2.042388,-2.03125 -3.6875,-2.03125 z" fill="#008055"/>
</svg>
