<svg xmlns="http://www.w3.org/2000/svg" width="48" height="48">
	<path d="m 14.809571,2.735352 c -1.586186,0 -3.027504,0.452879 -4.09375,1.3554684 C 9.6495735,4.9934095 9.0068362,6.3578327 9.0068362,7.9052735 V 40.073242 c 0,1.681493 0.6203349,3.087956 1.7070308,3.966797 1.086697,0.878841 2.524939,1.224609 4.095704,1.224609 h 18.99414 c 1.547191,0 2.892888,-0.532068 3.810547,-1.484374 0.91766,-0.952307 1.378906,-2.275982 1.378906,-3.707032 V 12.803711 c 0,-1.577085 -0.452885,-2.9287194 -1.398437,-3.8476562 -0.945552,-0.9189369 -2.28472,-1.3222657 -3.791016,-1.3222657 h -7.523437 a 1,1 0 0 0 -1,1 1,1 0 0 0 1,1 h 7.523437 c 1.161685,0 1.916535,0.2875213 2.398438,0.7558589 0.481903,0.468339 0.791015,1.200288 0.791015,2.414063 v 27.269531 c 0,1.01284 -0.305516,1.786154 -0.818359,2.31836 -0.512843,0.532206 -1.262455,0.873046 -2.371094,0.873046 h -18.99414 c -1.271476,0 -2.234602,-0.2914 -2.837891,-0.779296 -0.603289,-0.487897 -0.964844,-1.178612 -0.964844,-2.41211 V 7.9052735 c 0,-1.0269792 0.36351,-1.7483135 1,-2.2871094 0.636491,-0.5387958 1.59763,-0.8828125 2.802735,-0.8828125 h 18.751953 a 1,1 0 0 0 1,-1 1,1 0 0 0 -1,-0.9999996 z m 6.451171,18.765625 c -1.305882,0 -2.519897,0.286228 -3.449218,1.037109 -0.929322,0.750881 -1.457032,1.960044 -1.457032,3.369141 v 6.128906 c 0,1.230786 0.4688,2.345772 1.294922,3.099609 0.826123,0.753838 1.960099,1.134766 3.197266,1.134766 a 1,1 0 0 0 1,-1 1,1 0 0 0 -1,-1 c -0.835153,0 -1.445399,-0.244268 -1.847656,-0.611328 -0.402258,-0.36706 -0.644532,-0.869543 -0.644532,-1.623047 v -6.128906 c 0,-0.960694 0.269013,-1.454228 0.714844,-1.814453 0.445831,-0.360228 1.184539,-0.591797 2.191406,-0.591797 h 6.13086 c 0.861454,0 1.415427,0.258881 1.794922,0.652343 0.379494,0.393463 0.613281,0.969803 0.613281,1.753907 v 5.972656 c 0,0.952613 -0.239045,1.489411 -0.587891,1.828125 -0.348844,0.338714 -0.906979,0.5625 -1.820312,0.5625 h -3.751953 a 1,1 0 0 0 -1,1 1,1 0 0 0 1,1 h 3.751953 c 1.257627,0 2.402154,-0.337865 3.214844,-1.126953 0.81269,-0.789088 1.193359,-1.947415 1.193359,-3.263672 v -5.972656 c 0,-1.202697 -0.389312,-2.329186 -1.173828,-3.142579 -0.784516,-0.813392 -1.934769,-1.263671 -3.234375,-1.263671 z" fill="#008055"/>
</svg>
