<svg xmlns="http://www.w3.org/2000/svg" width="48" height="48">
	<path d="m 14.808594,2.7343749 c -1.586186,0 -3.027503,0.4548327 -4.09375,1.3574218 -1.0662471,0.9025892 -1.7070315,2.2650592 -1.7070315,3.8125 V 40.074219 c 0,1.681491 0.6183818,3.087955 1.7050785,3.966796 1.086696,0.878842 2.524938,1.22461 4.095703,1.22461 h 18.99414 c 1.547188,0 2.892888,-0.534023 3.810547,-1.486328 0.91766,-0.952306 1.378907,-2.274027 1.378907,-3.705078 V 12.804687 c 0,-1.577084 -0.452884,-2.9306721 -1.398438,-3.849609 C 36.648196,8.0361411 35.309033,7.6347655 33.802734,7.6347655 h -7.523437 a 1,1 0 0 0 -1,1 1,1 0 0 0 1,1 h 7.523437 c 1.16169,0 1.916534,0.2875212 2.398438,0.7558595 0.481904,0.468338 0.791016,1.200287 0.791016,2.414062 v 27.269532 c 0,1.012838 -0.305515,1.786152 -0.81836,2.318359 -0.512844,0.532207 -1.262461,0.873047 -2.371094,0.873047 h -18.99414 c -1.271475,0 -2.234602,-0.293354 -2.837891,-0.78125 -0.603289,-0.487896 -0.962891,-1.17666 -0.962891,-2.410156 V 7.9042967 c 0,-1.0269792 0.36351,-1.7483134 1,-2.2871094 0.636491,-0.5387957 1.595677,-0.8828124 2.800782,-0.8828124 h 18.751953 a 1,1 0 0 0 1,-1 1,1 0 0 0 -1,-1 z m 9.265625,21.8789061 c -2.114106,0 -4.028848,0.289731 -5.501953,0.804688 -0.736553,0.257478 -1.367007,0.566481 -1.875,0.986328 -0.507993,0.419846 -0.9375,1.026118 -0.9375,1.765625 0,0.739506 0.429507,1.345778 0.9375,1.765625 0.507993,0.419846 1.138447,0.72885 1.875,0.986328 1.473105,0.514956 3.387847,0.804687 5.501953,0.804687 2.114104,0 4.028848,-0.289731 5.501953,-0.804687 0.736553,-0.257478 1.365054,-0.566482 1.873047,-0.986328 0.507992,-0.419847 0.939453,-1.026119 0.939453,-1.765625 0,-0.739507 -0.431461,-1.345779 -0.939453,-1.765625 -0.507993,-0.419847 -1.136494,-0.72885 -1.873047,-0.986328 -1.473105,-0.514957 -3.387849,-0.804688 -5.501953,-0.804688 z m 0,2 c 1.925183,0 3.667835,0.282975 4.841797,0.693359 0.58698,0.205192 1.027563,0.446762 1.259765,0.638672 0.232201,0.19191 0.212891,0.258106 0.212891,0.22461 0,-0.0335 0.01931,0.0327 -0.212891,0.224609 -0.232202,0.19191 -0.672785,0.435433 -1.259765,0.640625 -1.173962,0.410384 -2.916614,0.691406 -4.841797,0.691406 -1.925182,0 -3.667835,-0.281022 -4.841797,-0.691406 -0.58698,-0.205192 -1.027565,-0.448715 -1.259766,-0.640625 -0.232202,-0.19191 -0.21289,-0.258105 -0.21289,-0.224609 0,0.0335 -0.01931,-0.0327 0.21289,-0.22461 0.232201,-0.19191 0.672786,-0.43348 1.259766,-0.638672 1.173962,-0.410384 2.916615,-0.693359 4.841797,-0.693359 z m 7.505859,5.800781 a 1,1 0 0 0 -1.414062,0.06445 1,1 0 0 0 0.06445,1.414063 c 0.167166,0.152656 0.163498,0.214227 0.160156,0.1875 -0.0033,-0.02673 0.03067,-0.05395 -0.05078,0.04883 -0.162905,0.205554 -0.864579,0.67048 -2.017578,0.986328 -2.305999,0.631697 -5.754394,0.669833 -8.183594,0.08008 -1.2146,-0.294877 -2.017874,-0.741357 -2.271484,-1.001953 -0.126805,-0.130298 -0.10871,-0.163089 -0.107422,-0.130859 0.0013,0.03223 -0.03317,0.03111 0.08398,-0.09766 a 1,1 0 0 0 -0.06641,-1.412109 1,1 0 0 0 -1.41211,0.06641 c -0.36918,0.405768 -0.626345,0.951937 -0.603515,1.523438 0.02283,0.5715 0.307133,1.070524 0.671875,1.445312 0.729483,0.749577 1.81116,1.205731 3.232422,1.550782 1.421261,0.34505 3.031646,0.510083 4.628906,0.49414 1.597261,-0.01594 3.181694,-0.211777 4.554687,-0.58789 1.372994,-0.376113 2.404607,-0.851084 3.056641,-1.673829 0.326017,-0.411371 0.539482,-0.973526 0.46875,-1.539062 -0.07073,-0.565536 -0.388444,-1.046774 -0.794922,-1.417969 z" fill="#008055"/>
</svg>
