<svg xmlns="http://www.w3.org/2000/svg" width="48" height="48">
	<path d="m 14.809571,1.7353515 c -1.776726,0 -3.45911,0.507311 -4.740235,1.591797 -1.281125,1.084485 -2.0625,2.770453 -2.0625,4.578125 V 40.073242 c 0,1.90549 0.749725,3.669826 2.078125,4.744141 1.3284,1.074314 3.0042,1.447265 4.72461,1.447265 h 18.99414 c 1.766467,0 3.411183,-0.628658 4.53125,-1.791015 1.120068,-1.162357 1.658203,-2.760236 1.658203,-4.400391 V 14.805664 c 0,-1.75874 -0.523792,-3.42217 -1.701172,-4.566406 C 37.114613,9.0950215 35.482315,8.6357415 33.803711,8.6357415 h -5.59375 a 2,2 0 0 0 -2,2.0000005 2,2 0 0 0 2,2 h 5.59375 c 0.989386,0 1.451094,0.229618 1.701172,0.472657 0.250079,0.243038 0.488281,0.665145 0.488281,1.697265 v 25.267578 c 0,0.803735 -0.228627,1.302844 -0.539062,1.625 -0.310435,0.322156 -0.761028,0.566406 -1.650391,0.566406 h -18.99414 c -1.121831,0 -1.8474,-0.264217 -2.208985,-0.55664 -0.361585,-0.292424 -0.59375,-0.625265 -0.59375,-1.634766 V 7.9052735 c 0,-0.766749 0.224872,-1.166539 0.646485,-1.523438 0.421612,-0.356899 1.141685,-0.646484 2.15625,-0.646484 h 18.751953 a 2,2 0 0 0 2,-2 2,2 0 0 0 -2,-2 z m 2.792968,21.5546875 c -0.623214,0 -1.246545,0.187063 -1.742187,0.603516 -0.495642,0.416452 -0.826172,1.088892 -0.826172,1.822265 v 9.148438 c 0,0.775879 0.39276,1.448346 0.894531,1.845703 0.501771,0.397357 1.090149,0.580078 1.673828,0.580078 a 0.89999998,0.89999998 0 0 0 0.900391,-0.900391 0.89999998,0.89999998 0 0 0 -0.900391,-0.90039 c -0.16675,0 -0.412349,-0.07714 -0.55664,-0.191406 -0.144292,-0.114267 -0.210938,-0.205903 -0.210938,-0.433594 v -3.783203 h 6.320313 v 4.408203 h -3.035156 a 0.89999998,0.89999998 0 0 0 -0.900391,0.90039 0.89999998,0.89999998 0 0 0 0.900391,0.900391 h 10.341796 c 1.374468,0 2.441407,-1.15681 2.441407,-2.425781 V 25.71582 c 0,-0.762999 -0.311613,-1.453438 -0.804688,-1.867187 -0.493075,-0.41375 -1.088774,-0.558594 -1.636719,-0.558594 z m 0,1.800781 h 5.554688 a 0.89999998,0.89999998 0 0 0 -0.002,0.06445 v 4.125 h -6.320313 v -3.564454 c 0,-0.250264 0.0644,-0.343207 0.183594,-0.443359 0.119195,-0.100152 0.331869,-0.181641 0.583984,-0.181641 z m 7.34961,0 h 5.509765 c 0.218356,0 0.393779,0.06398 0.480469,0.136719 0.08669,0.07274 0.162109,0.147191 0.162109,0.488281 v 3.564453 h -6.148437 v -4.125 a 0.89999998,0.89999998 0 0 0 -0.0039,-0.06445 z m 0.0039,5.990235 h 6.148437 v 3.783203 c 0,0.443308 -0.109825,0.625 -0.642578,0.625 h -5.505859 z" fill="#008055"/>
</svg>
