<svg xmlns="http://www.w3.org/2000/svg" width="48" height="48">
	<path d="m 14.808594,2.734375 c -1.586185,0 -3.027503,0.454833 -4.09375,1.357422 C 9.6485965,4.994386 9.0078125,6.358809 9.0078125,7.90625 v 32.167969 c 0,1.681492 0.618382,3.087955 1.7050785,3.966797 1.086696,0.878841 2.524937,1.224609 4.095703,1.224609 h 18.996094 c 1.54719,0 2.892887,-0.534022 3.810546,-1.486328 0.91766,-0.952307 1.376954,-2.274028 1.376954,-3.705078 V 12.804687 c 0,-1.577085 -0.450931,-2.928719 -1.396485,-3.847656 C 36.650149,8.038094 35.310986,7.634766 33.804688,7.634766 h -7.525391 a 1,1 0 0 0 -1,1 1,1 0 0 0 1,1 h 7.525391 c 1.16169,0 1.91458,0.287521 2.396484,0.755859 0.481904,0.468338 0.791016,1.200287 0.791016,2.414062 v 27.269532 c 0,1.012839 -0.305516,1.786153 -0.81836,2.318359 -0.512844,0.532206 -1.260501,0.873047 -2.36914,0.873047 H 14.808594 c -1.271475,0 -2.234602,-0.291401 -2.837891,-0.779297 -0.603289,-0.487896 -0.962891,-1.178612 -0.962891,-2.412109 V 7.90625 c 0,-1.026979 0.36351,-1.750267 1,-2.289063 0.636491,-0.538795 1.595677,-0.882812 2.800782,-0.882812 l 18.753906,0.002 a 1,1 0 0 0 1,-1 1,1 0 0 0 -1,-1 z m 9.183594,14.3125 c -1.6107,0.0195 -2.735532,1.183686 -3.011719,2.429687 -0.231119,1.042681 0.113092,2.130577 0.851562,2.958985 v 0.554687 h -2.492187 c -0.574288,0 -1.146376,0.214427 -1.525391,0.623047 -0.379014,0.408621 -0.539109,0.951988 -0.539062,1.480469 v 3.484375 a 0.90008998,0.90008998 0 0 0 0.90039,0.900391 h 1.621094 a 0.90008998,0.90008998 0 0 0 0.742188,-0.390626 c 0.313665,-0.457563 0.972356,-0.662373 1.53125,-0.53125 0.558894,0.131124 0.970103,0.429211 0.980468,1.339844 0.01026,0.90022 -0.407778,1.21375 -0.974609,1.351563 -0.566831,0.137813 -1.213444,-0.05808 -1.521484,-0.539063 a 0.90008998,0.90008998 0 0 0 -0.757813,-0.414062 h -1.621094 a 0.90008998,0.90008998 0 0 0 -0.90039,0.90039 v 3.164063 a 0.89999998,0.89999998 0 0 0 0.90039,0.900391 0.89999998,0.89999998 0 0 0 0.898438,-0.900391 l 0.002,-2.265625 H 19.5645 c 0.809061,0.780612 1.900728,1.156366 2.9375,0.904297 1.247822,-0.303381 2.368251,-1.485318 2.34961,-3.121094 -0.0185,-1.625362 -1.134943,-2.784202 -2.371094,-3.074219 -1.02967,-0.241574 -2.101589,0.124177 -2.910156,0.875 h -0.494141 l -0.002,-2.583984 c -1.6e-5,-0.179307 0.0453,-0.239424 0.06055,-0.25586 0.01525,-0.01644 0.02598,-0.04883 0.205078,-0.04883 h 3.392578 a 0.90008998,0.90008998 0 0 0 0.900391,-0.90039 v -1.666016 a 0.90008998,0.90008998 0 0 0 -0.371094,-0.728516 c -0.435045,-0.315664 -0.656594,-1.026223 -0.523438,-1.626953 0.133027,-0.600143 0.423083,-1.008422 1.275391,-1.019531 0.843196,-0.01018 1.147255,0.402853 1.287109,1.011719 0.139854,0.608866 -0.07574,1.308395 -0.53125,1.617187 A 0.90008998,0.90008998 0 0 0 24.375,22.220703 v 1.667969 a 0.90008998,0.90008998 0 0 0 0.900391,0.90039 h 3.460937 c 0.143774,3.3e-5 0.104768,0.0084 0.123047,0.03125 0.01828,0.02287 0.06641,0.124443 0.06641,0.273438 v 9.683594 c 0,0.162214 -0.03482,0.183698 -0.02539,0.173828 0.0094,-0.0099 0.01162,0.02539 -0.185547,0.02539 h -9.22461 a 0.89999998,0.89999998 0 0 0 -0.90039,0.898438 0.89999998,0.89999998 0 0 0 0.90039,0.90039 h 9.22461 c 0.551634,0 1.108859,-0.185149 1.486328,-0.580078 0.37747,-0.394928 0.525391,-0.924698 0.525391,-1.417968 V 25.09375 c 0,-0.474067 -0.122636,-0.975215 -0.460938,-1.398438 -0.338304,-0.423222 -0.921873,-0.704939 -1.529297,-0.705078 h -2.560547 v -0.550781 c 0.765918,-0.828777 1.119757,-1.935816 0.878907,-2.984375 -0.288976,-1.258073 -1.440759,-2.427772 -3.0625,-2.408203 z" fill="#008055"/>
</svg>
