<svg xmlns="http://www.w3.org/2000/svg" width="48" height="48">
	<path d="m 14.809571,2.7353515 c -1.586186,0 -3.027503,0.4528795 -4.09375,1.3554686 C 9.649574,4.9934095 9.006836,6.3578326 9.006836,7.9052735 V 40.075196 c 0,1.681492 0.620335,3.086002 1.707032,3.964843 1.086696,0.878842 2.524938,1.22461 4.095703,1.22461 h 18.99414 c 1.547191,0 2.892888,-0.532069 3.810547,-1.484375 0.91766,-0.952307 1.378906,-2.274028 1.378906,-3.705078 V 12.805664 c 0,-1.577085 -0.452885,-2.9306724 -1.398437,-3.8496094 -0.945552,-0.918937 -2.28472,-1.320312 -3.791016,-1.320312 h -7.52539 a 1,1 0 0 0 -1,0.9999999 1,1 0 0 0 1,1 h 7.52539 c 1.161685,0 1.916535,0.2855681 2.398438,0.7539065 0.481903,0.468338 0.791015,1.20224 0.791015,2.416015 v 27.269532 c 0,1.012839 -0.307469,1.7842 -0.820312,2.316406 -0.512843,0.532206 -1.260502,0.873047 -2.369141,0.873047 h -18.99414 c -1.271475,0 -2.234602,-0.291401 -2.837891,-0.779297 -0.603289,-0.487896 -0.964844,-1.176659 -0.964844,-2.410156 V 7.9052735 c 0,-1.026979 0.36351,-1.748314 1,-2.28711 0.636491,-0.538795 1.59763,-0.882812 2.802735,-0.882812 h 18.751953 a 1,1 0 0 0 1,-1 1,1 0 0 0 -1,-1 z m 2.314453,20.4218755 a 1,1 0 0 0 -1,1 1,1 0 0 0 1,1 h 13.695312 a 1,1 0 0 0 1,-1 1,1 0 0 0 -1,-1 z m 0,6.101562 a 1,1 0 0 0 -1,1 1,1 0 0 0 1,1 h 13.695312 a 1,1 0 0 0 1,-1 1,1 0 0 0 -1,-1 z m 0,6.09961 a 1,1 0 0 0 -1,1 1,1 0 0 0 1,1 h 13.695312 a 1,1 0 0 0 1,-1 1,1 0 0 0 -1,-1 z" fill="#008055"/>
</svg>
