<svg xmlns="http://www.w3.org/2000/svg" width="48" height="48">
	<path d="m 14.809571,1.7353514 c -1.776726,0 -3.459109,0.5073112 -4.740235,1.5917972 -1.281125,1.084485 -2.0625,2.770453 -2.0625,4.578125 V 40.073242 c 0,1.90549 0.749724,3.66983 2.078125,4.744141 1.328402,1.074311 3.002249,1.447266 4.722657,1.447266 h 18.996093 c 1.766465,0 3.409228,-0.628662 4.529297,-1.791016 1.120069,-1.162354 1.660156,-2.760235 1.660156,-4.400391 V 14.805664 c 0,-1.75874 -0.523792,-3.42217 -1.701171,-4.566406 C 37.114614,9.0950216 35.482315,8.6337886 33.803711,8.6337886 h -5.59375 a 2,2 0 0 0 -2,2.0000004 2,2 0 0 0 2,2 h 5.59375 c 0.989386,0 1.451094,0.231571 1.701172,0.47461 0.250079,0.243038 0.488281,0.665145 0.488281,1.697265 v 25.267578 c 0,0.803735 -0.228628,1.302847 -0.539062,1.625 -0.310434,0.322154 -0.761025,0.566407 -1.650391,0.566407 H 14.807618 c -1.121833,0 -1.845448,-0.264219 -2.207032,-0.556641 -0.361583,-0.292422 -0.59375,-0.625265 -0.59375,-1.634766 V 7.9052736 c 0,-0.766749 0.224872,-1.168492 0.646485,-1.525391 0.421612,-0.356899 1.141685,-0.644531 2.15625,-0.644531 h 18.751953 a 2,2 0 0 0 2,-2 2,2 0 0 0 -2,-2.0000002 z m 2.798828,21.4433596 c -0.643831,0 -1.288132,0.194881 -1.804688,0.628906 -0.516555,0.434026 -0.863281,1.13627 -0.863281,1.896485 v 9.15039 c 0,0.806335 0.41001,1.510744 0.931641,1.923829 0.521631,0.413083 1.129486,0.601562 1.736328,0.601562 a 1,1 0 0 0 1,-1 1,1 0 0 0 -1,-1 c -0.143588,0 -0.369709,-0.07138 -0.494141,-0.169922 -0.124431,-0.09854 -0.173828,-0.158233 -0.173828,-0.355469 v -9.15039 c 0,-0.223426 0.05016,-0.282655 0.148438,-0.365235 0.09828,-0.08258 0.288032,-0.160156 0.519531,-0.160156 h 12.859375 c 0.200045,0 0.351902,0.06144 0.416016,0.115234 0.06411,0.0538 0.126953,0.09251 0.126953,0.410157 v 9.15039 c 0,0.397438 -0.05698,0.525391 -0.542969,0.525391 H 20.125977 a 1,1 0 0 0 -1,1 1,1 0 0 0 1,1 h 10.341797 c 1.421229,0 2.542969,-1.210548 2.542969,-2.525391 v -9.15039 c 0,-0.78644 -0.326145,-1.508713 -0.841797,-1.941407 -0.515652,-0.432693 -1.134917,-0.583984 -1.701172,-0.583984 z" fill="#008055"/>
</svg>
