<svg xmlns="http://www.w3.org/2000/svg" width="48" height="48">
	<path d="m 14.80957,1.7353518 c -1.776726,0 -3.459108,0.5092642 -4.740234,1.59375 C 8.7882108,4.4135872 8.0068358,6.0976012 8.0068358,7.9052742 V 40.075195 c 0,1.90549 0.7497249,3.667874 2.0781252,4.742188 1.328399,1.074314 3.004199,1.447265 4.724609,1.447265 h 18.994141 c 1.766467,0 3.411183,-0.628659 4.53125,-1.791015 1.120067,-1.162357 1.658203,-2.758282 1.658203,-4.398438 V 14.805664 c 0,-1.75874 -0.523792,-3.42217 -1.701172,-4.566406 C 37.114613,9.0950222 35.482315,8.6357422 33.803711,8.6357422 h -5.59375 a 2,2 0 0 0 -2,1.9999998 2,2 0 0 0 2,2 h 5.59375 c 0.989385,0 1.451093,0.229618 1.701172,0.472656 0.250079,0.243039 0.488281,0.665146 0.488281,1.697266 v 25.269531 c 0,0.803735 -0.228628,1.300891 -0.539062,1.623047 -0.310435,0.322156 -0.761029,0.566406 -1.650391,0.566406 H 14.80957 c -1.121829,0 -1.8474,-0.264216 -2.208984,-0.55664 -0.361586,-0.292424 -0.59375,-0.623312 -0.59375,-1.632813 V 7.9052742 c 0,-0.76675 0.224871,-1.166539 0.646484,-1.523438 0.421612,-0.356899 1.141685,-0.646484 2.15625,-0.646484 h 18.751953 a 2,2 0 0 0 2,-2.0000004 2,2 0 0 0 -2,-2 z m 2.314453,21.4218752 a 1,1 0 0 0 -1,1 1,1 0 0 0 1,1 h 13.695313 a 1,1 0 0 0 1,-1 1,1 0 0 0 -1,-1 z m 0,6.101562 a 1,1 0 0 0 -1,1 1,1 0 0 0 1,1 h 13.695313 a 1,1 0 0 0 1,-1 1,1 0 0 0 -1,-1 z m 0,6.099609 a 1,1 0 0 0 -1,1 1,1 0 0 0 1,1 h 13.695313 a 1,1 0 0 0 1,-1 1,1 0 0 0 -1,-1 z" fill="#008055"/>
</svg>
