<svg xmlns="http://www.w3.org/2000/svg" width="48" height="48">
	<path d="m 14.375977,6.6279295 c -1.757661,0 -3.407852,0.5083764 -4.6406253,1.5898438 C 8.5025788,9.2992404 7.7939455,10.945985 7.7939455,12.698243 v 22.583984 c 0,1.857116 0.6749112,3.572901 1.953125,4.644531 1.2782135,1.07163 2.9234605,1.445313 4.6289065,1.445313 H 33.99707 c 1.744543,0 3.362488,-0.607071 4.492188,-1.732422 1.1297,-1.125352 1.716797,-2.707211 1.716797,-4.357422 V 15.272461 c 0,-1.767691 -0.574644,-3.415867 -1.757813,-4.519531 C 37.265074,9.6492655 35.658439,9.2041014 33.99707,9.2041014 h -8.183593 a 1.9,1.9 0 0 0 -1.900391,1.8984376 1.9,1.9 0 0 0 1.900391,1.900391 h 8.183593 c 1.006612,0 1.555338,0.243737 1.859375,0.527344 0.304038,0.283606 0.550782,0.719022 0.550782,1.742187 v 20.009766 c 0,0.79368 -0.239061,1.304901 -0.59961,1.664062 -0.360548,0.359161 -0.89925,0.625 -1.810547,0.625 H 14.375977 c -1.136796,0 -1.835505,-0.261533 -2.1875,-0.55664 -0.351996,-0.295107 -0.59375,-0.674547 -0.59375,-1.732422 V 12.698243 c 0,-0.822147 0.236244,-1.263159 0.646485,-1.623047 0.410238,-0.359889 1.101135,-0.648438 2.134765,-0.648438 H 22.09668 A 1.9,1.9 0 0 0 23.99707,8.5283201 1.9,1.9 0 0 0 22.09668,6.6279295 Z m 5.013671,5.6542975 a 1.4,1.4 0 0 0 -1.40039,1.40039 1.4,1.4 0 0 0 1.40039,1.400391 h 2.84375 a 1.4,1.4 0 0 0 1.400391,-1.400391 1.4,1.4 0 0 0 -1.400391,-1.40039 z m 6.138672,2.617187 a 1.4,1.4 0 0 0 -1.40039,1.400391 1.4,1.4 0 0 0 1.40039,1.400391 h 2.841797 a 1.4,1.4 0 0 0 1.400391,-1.400391 1.4,1.4 0 0 0 -1.400391,-1.400391 z m -6.138672,2.490235 a 1.4,1.4 0 0 0 -1.40039,1.40039 1.4,1.4 0 0 0 1.40039,1.400391 h 2.84375 a 1.4,1.4 0 0 0 1.400391,-1.400391 1.4,1.4 0 0 0 -1.400391,-1.40039 z m 6.138672,2.550781 a 1.4,1.4 0 0 0 -1.40039,1.398437 1.4,1.4 0 0 0 1.40039,1.400391 h 2.841797 a 1.4,1.4 0 0 0 1.400391,-1.400391 1.4,1.4 0 0 0 -1.400391,-1.398437 z m -3.53125,4.257813 a 1.4,1.4 0 0 0 -1.341797,1.136718 l -1.09375,5.703125 0.03125,-0.123047 c -0.438614,1.524022 -0.01583,3.056744 0.914063,3.958985 0.929894,0.902241 2.160656,1.251996 3.355469,1.253906 1.194813,0.0019 2.427097,-0.345818 3.365234,-1.240234 0.938138,-0.894417 1.385687,-2.418447 0.972656,-3.951172 l 0.01953,0.08594 -1.16211,-5.703125 a 1.4,1.4 0 0 0 -1.652344,-1.091797 1.4,1.4 0 0 0 -1.091796,1.650391 l 1.162109,5.703125 a 1.40014,1.40014 0 0 0 0.02148,0.08398 c 0.204205,0.757783 0.05621,0.950017 -0.203125,1.197266 -0.259335,0.247249 -0.826616,0.467758 -1.427734,0.466797 -0.601118,-9.61e-4 -1.161914,-0.223984 -1.410156,-0.464844 -0.248243,-0.24086 -0.391119,-0.420776 -0.173828,-1.175781 a 1.40014,1.40014 0 0 0 0.0293,-0.123047 l 1.09375,-5.703125 a 1.4,1.4 0 0 0 -1.111328,-1.638672 1.4,1.4 0 0 0 -0.296875,-0.02539 z" fill="#008055"/>
</svg>
