<svg xmlns="http://www.w3.org/2000/svg" width="48" height="48">
	<path d="m 14.374999,6.6269529 c -1.757659,0 -3.407851,0.5103259 -4.6406241,1.5917968 C 8.5016015,9.3002207 7.7929686,10.945003 7.7929686,12.697265 V 35.28125 c 0,1.857115 0.6768645,3.572901 1.9550782,4.644531 1.2782132,1.07163 2.9215082,1.447266 4.6269522,1.447266 h 19.623047 c 1.74454,0 3.360536,-0.609024 4.490235,-1.734376 1.129698,-1.125351 1.71875,-2.707211 1.71875,-4.357421 V 15.273437 c 0,-1.76769 -0.574646,-3.417816 -1.757813,-4.521484 C 37.266051,9.6482849 35.65942,9.2031247 33.998046,9.2031247 h -8.185547 a 1.9,1.9 0 0 0 -1.90039,1.9003903 1.9,1.9 0 0 0 1.90039,1.900391 h 8.185547 c 1.006617,0 1.55534,0.243737 1.859375,0.527344 0.304036,0.283607 0.548828,0.719017 0.548828,1.742187 V 35.28125 c 0,0.793679 -0.23906,1.306854 -0.599609,1.666015 -0.360549,0.359162 -0.897303,0.625 -1.808594,0.625 H 14.374999 c -1.136794,0 -1.83355,-0.263486 -2.185546,-0.558594 C 11.837457,36.718564 11.59375,36.339124 11.59375,35.28125 V 12.697265 c 0,-0.822157 0.236245,-1.261204 0.646484,-1.621093 0.410239,-0.359889 1.101137,-0.648438 2.134765,-0.648438 h 7.722657 A 1.9,1.9 0 0 0 23.996093,8.5273435 1.9,1.9 0 0 0 22.097656,6.6269529 Z m 14.830079,9.2753901 c -0.66023,-0.05486 -1.35398,0.201771 -1.853516,0.701172 L 17.15039,26.820312 a 0.90008998,0.90008998 0 0 0 -0.01172,0.01172 c -0.43736,0.453648 -0.850781,1.050354 -1.083984,1.753906 a 0.90008998,0.90008998 0 0 0 -0.0098,0.02734 l -1.503906,5.091797 a 0.90008998,0.90008998 0 0 0 1.126953,1.115234 l 5.517578,-1.683594 a 0.89999998,0.89999998 0 0 0 0.59961,-1.123047 0.89999998,0.89999998 0 0 0 -1.125,-0.599609 l -3.917969,1.197266 1.021484,-3.458985 c 0.114597,-0.345728 0.416976,-0.807873 0.671875,-1.072265 L 28.624999,17.875 c 0.168275,-0.168229 0.276281,-0.192597 0.431641,-0.179688 0.15536,0.01291 0.382289,0.103068 0.623047,0.34375 l 1.804688,1.804688 a 0.90008998,0.90008998 0 0 0 0.002,0.002 c 0.237658,0.236499 0.27036,0.373949 0.271484,0.447265 0.0011,0.07332 -0.01925,0.199019 -0.265625,0.445313 l -8.689453,8.658203 a 0.90008998,0.90008998 0 0 0 -0.0098,0.01172 c -0.04234,0.04358 -0.05033,0.04471 -0.07226,0.0625 -0.01733,-0.01566 -0.01633,-0.01257 -0.04688,-0.04492 a 0.90008998,0.90008998 0 0 0 -0.01953,-0.02148 l -1.845703,-1.828126 a 0.89999998,0.89999998 0 0 0 -1.273437,0.0059 0.89999998,0.89999998 0 0 0 0.0059,1.273437 l 1.824163,1.806547 c 0.332465,0.352178 0.796559,0.657463 1.355469,0.65625 0.558909,-0.0012 1.018979,-0.301858 1.363281,-0.65625 l 8.679687,-8.650391 a 0.90008998,0.90008998 0 0 0 0.002,0 c 0.477614,-0.477456 0.801081,-1.089482 0.791015,-1.746093 -0.01005,-0.655702 -0.342234,-1.240247 -0.798828,-1.695313 l -0.002,-0.002 -1.802734,-1.802734 c -0.483312,-0.483159 -1.087817,-0.808423 -1.748047,-0.863282 z" fill="#008055"/>
</svg>
