<svg xmlns="http://www.w3.org/2000/svg" width="48" height="48">
	<path d="m 14.375,6.626953 c -1.75766,0 -3.407851,0.5103257 -4.640625,1.5917971 C 8.501602,9.3002211 7.792969,10.945003 7.792969,12.697265 V 35.28125 c 0,1.857115 0.676864,3.572901 1.955078,4.644531 1.278214,1.07163 2.921508,1.447266 4.626953,1.447266 h 19.623047 c 1.74454,0 3.360536,-0.607071 4.490234,-1.732422 1.129699,-1.125351 1.71875,-2.709165 1.71875,-4.359375 V 15.273437 c 0,-1.76769 -0.574645,-3.417816 -1.757812,-4.521484 C 37.266052,9.6482851 35.659421,9.2031251 33.998047,9.2031251 H 25.8125 a 1.9,1.9 0 0 0 -1.90039,1.9003899 1.9,1.9 0 0 0 1.90039,1.900391 h 8.185547 c 1.006616,0 1.555339,0.243737 1.859375,0.527344 0.304036,0.283607 0.548828,0.719018 0.548828,1.742187 V 35.28125 c 0,0.793679 -0.23906,1.306854 -0.599609,1.666015 -0.360549,0.359162 -0.897304,0.625 -1.808594,0.625 H 14.375 c -1.136795,0 -1.83355,-0.263486 -2.185547,-0.558593 C 11.837457,36.718564 11.59375,36.339124 11.59375,35.28125 V 12.697265 c 0,-0.822157 0.236245,-1.261204 0.646484,-1.621093 0.41024,-0.359889 1.101136,-0.648438 2.134766,-0.648438 h 7.722656 A 1.9,1.9 0 0 0 23.996094,8.527343 1.9,1.9 0 0 0 22.097656,6.6269529 Z m 8.986328,10.65039 c -3.391144,0 -5.540081,2.323691 -5.84375,4.810547 -0.303669,2.486856 1.208618,5.21293 4.261719,5.88086 a 1.0001,1.0001 0 0 0 0.01367,0.002 c 0.184816,0.03776 0.351408,0.126993 0.439453,0.214844 0.08805,0.08785 0.128906,0.147676 0.128906,0.339843 v 5.09961 a 1,1 0 0 0 1,1 1,1 0 0 0 1,-1 v -5.09961 c 0,-0.696142 -0.294559,-1.332601 -0.716797,-1.753906 -0.422237,-0.421304 -0.937917,-0.654912 -1.451171,-0.759765 l 0.01367,0.002 c -2.127429,-0.46542 -2.896856,-2.097058 -2.703125,-3.683594 0.193732,-1.586537 1.318436,-3.052735 3.857422,-3.052735 h 6.214844 a 1,1 0 0 0 1,-1 1,1 0 0 0 -1,-1 z m 3.582032,2.853516 a 1,1 0 0 0 -1,1 V 33.625 a 1,1 0 0 0 1,1 1,1 0 0 0 1,-1 V 21.130859 a 1,1 0 0 0 -1,-1 z" fill="#008055"/>
</svg>
