<svg xmlns="http://www.w3.org/2000/svg" width="48" height="48">
	<path d="m 14.808594,2.7353515 c -1.586185,0 -3.027503,0.4528796 -4.09375,1.3554687 C 9.6485965,4.9934094 9.0078125,6.3578326 9.0078125,7.9052733 V 40.075196 c 0,1.681492 0.618382,3.086002 1.7050785,3.964843 1.086697,0.878842 2.524937,1.22461 4.095703,1.22461 h 18.99414 c 1.547191,0 2.892888,-0.532069 3.810547,-1.484375 0.917659,-0.952307 1.378907,-2.274028 1.378907,-3.705078 V 12.805664 c 0,-1.577085 -0.45093,-2.9306726 -1.396485,-3.8496094 -0.945554,-0.9189369 -2.28667,-1.3203125 -3.792969,-1.3203125 h -7.523437 a 1,1 0 0 0 -1,1 1,1 0 0 0 1,1 h 7.523437 c 1.161691,0 1.916534,0.2855681 2.398438,0.7539059 0.481904,0.468338 0.791016,1.202241 0.791016,2.416016 v 27.269532 c 0,1.012839 -0.305516,1.7842 -0.81836,2.316406 -0.512842,0.532206 -1.262455,0.873047 -2.371094,0.873047 h -18.99414 c -1.271476,0 -2.234603,-0.291401 -2.837891,-0.779297 -0.603289,-0.487896 -0.962891,-1.176659 -0.962891,-2.410156 V 7.9052733 c 0,-1.0269792 0.36351,-1.7483136 1,-2.2871093 0.636491,-0.5387959 1.595677,-0.8828125 2.800782,-0.8828125 h 18.751953 a 1,1 0 0 0 1,-1 1,1 0 0 0 -1,-1 z m 1.560547,19.4472665 a 0.69999999,0.69999999 0 0 0 -0.701172,0.701171 0.69999999,0.69999999 0 0 0 0.701172,0.699219 h 0.421875 v 4.947266 h -0.304688 a 0.69999999,0.69999999 0 0 0 -0.701172,0.701172 0.69999999,0.69999999 0 0 0 0.701172,0.699218 h 2.009766 a 0.69999999,0.69999999 0 0 0 0.699219,-0.699218 0.69999999,0.69999999 0 0 0 -0.699219,-0.701172 h -0.304688 v -5.646485 a 0.69999999,0.69999999 0 0 0 -0.0039,-0.07031 0.69999999,0.69999999 0 0 0 -0.697266,-0.630859 z m 6.490234,2.414062 a 1,1 0 0 0 -1,1 1,1 0 0 0 1,1 h 9.529297 a 1,1 0 0 0 1,-1 1,1 0 0 0 -1,-1 z m -5.580078,7.117188 c -1.157222,-0.0021 -2.337891,0.971744 -2.337891,2.484374 a 0.69999999,0.69999999 0 0 0 0.701172,0.699219 0.69999999,0.69999999 0 0 0 0.699219,-0.699219 c 0,-0.872678 0.455302,-1.084842 0.933594,-1.083984 0.478293,8.58e-4 0.9375,0.218757 0.9375,1.083984 0,0.406459 -0.10178,0.622686 -0.298828,0.863282 -0.197049,0.240596 -0.520795,0.483718 -0.919922,0.757812 -0.798253,0.54819 -1.915435,1.265367 -2.394532,2.72461 a 0.70006999,0.70006999 0 0 0 0.666016,0.917968 h 3.96875 a 0.69999999,0.69999999 0 0 0 0.701172,-0.699218 0.69999999,0.69999999 0 0 0 -0.701172,-0.699219 h -2.71875 c 0.354222,-0.403449 0.77252,-0.747187 1.271484,-1.089844 0.412295,-0.283138 0.849649,-0.584259 1.210938,-1.025391 0.361289,-0.44113 0.615234,-1.045023 0.615234,-1.75 0,-1.508342 -1.176762,-2.482298 -2.333984,-2.484374 z m 5.580078,2.984374 a 1,1 0 0 0 -1,1 1,1 0 0 0 1,1 h 9.529297 a 1,1 0 0 0 1,-1 1,1 0 0 0 -1,-1 z" fill="#008055"/>
</svg>
