<svg xmlns="http://www.w3.org/2000/svg" width="48" height="48">
	<path d="m 14.808594,2.734375 c -1.586185,0 -3.027503,0.454833 -4.09375,1.357422 C 9.6485966,4.994386 9.0078124,6.358809 9.0078124,7.90625 v 32.167969 c 0,1.681492 0.6183819,3.087955 1.7050786,3.966797 1.086696,0.878841 2.524938,1.224609 4.095703,1.224609 h 18.994141 c 1.547191,0 2.892887,-0.534022 3.810547,-1.486328 0.917659,-0.952307 1.378906,-2.274028 1.378906,-3.705078 V 12.804687 c 0,-1.577085 -0.45093,-2.928719 -1.396485,-3.847656 C 36.65015,8.038094 35.309034,7.634766 33.802735,7.634766 h -7.523438 a 1,1 0 0 0 -1,1 1,1 0 0 0 1,1 h 7.523438 c 1.16169,0 1.916534,0.287521 2.398437,0.755859 0.481904,0.468338 0.791016,1.200287 0.791016,2.414062 v 27.269532 c 0,1.012839 -0.305516,1.786153 -0.818359,2.318359 -0.512845,0.532206 -1.262455,0.873047 -2.371094,0.873047 H 14.808594 c -1.271475,0 -2.234602,-0.291401 -2.837891,-0.779297 -0.603289,-0.487896 -0.962891,-1.178612 -0.962891,-2.412109 V 7.90625 c 0,-1.026979 0.36351,-1.750267 1,-2.289063 0.636491,-0.538795 1.595677,-0.882812 2.800782,-0.882812 l 18.751953,0.002 a 1,1 0 0 0 1,-1 1,1 0 0 0 -1,-1 z M 24.5625,16.71289 a 0.80008001,0.80008001 0 0 0 -0.34375,0.06836 c -1.534687,0.682921 -2.395115,2.012714 -2.515625,3.544922 -0.12051,1.532207 0.342456,3.266307 1.111328,5.255859 a 0.80000001,0.80000001 0 0 0 1.035157,0.457031 0.80000001,0.80000001 0 0 0 0.457031,-1.035156 c -0.730163,-1.889388 -1.093911,-3.458042 -1.007812,-4.552734 0.06616,-0.841148 0.420935,-1.362814 1.029296,-1.800782 0.575393,0.851258 0.999736,1.772687 1.095704,2.611329 0.119182,1.041508 -0.129154,1.853034 -0.816407,2.396484 a 0.80000001,0.80000001 0 0 0 -0.130859,1.123047 0.80000001,0.80000001 0 0 0 1.125,0.130859 c 1.177428,-0.93106 1.575404,-2.406985 1.412109,-3.833984 -0.163294,-1.427 -0.837206,-2.872498 -1.859375,-4.082031 A 0.80008001,0.80008001 0 0 0 24.5625,16.71289 Z m -2.589843,8.789063 a 0.80000001,0.80000001 0 0 0 -0.464844,0.173828 c -2.044691,1.637852 -2.276646,3.681747 -1.869141,5.146485 a 0.80008001,0.80008001 0 0 0 0.0039,0.01172 c 0.541628,1.844846 2.060941,3.298574 4.18164,3.289063 a 0.80000001,0.80000001 0 0 0 0.796875,-0.802735 0.80000001,0.80000001 0 0 0 -0.802734,-0.796875 c -1.444006,0.0065 -2.237413,-0.782028 -2.636719,-2.134765 -0.290378,-1.04753 -0.30465,-2.158512 1.326172,-3.464844 a 0.80000001,0.80000001 0 0 0 0.125,-1.123047 0.80000001,0.80000001 0 0 0 -0.660156,-0.298828 z m 3.421875,0.525391 c -0.227243,0.0039 -0.461906,0.02817 -0.701172,0.07617 a 0.80008001,0.80008001 0 0 0 -0.0059,0 c -1.024061,0.213219 -1.79106,0.747804 -2.228515,1.419921 -0.437455,0.672118 -0.552305,1.433613 -0.486328,2.109375 a 0.80000001,0.80000001 0 0 0 0.873046,0.71875 0.80000001,0.80000001 0 0 0 0.71875,-0.873046 c -0.03667,-0.375639 0.03416,-0.771414 0.236329,-1.082032 0.201306,-0.309293 0.529723,-0.581841 1.207031,-0.724609 h 0.002 c 1.231835,-0.246181 1.919885,0.322443 2.287109,1.224609 0.367465,0.902758 0.245179,2.107099 -0.546875,2.935547 a 0.80000001,0.80000001 0 0 0 0.02539,1.130859 0.80000001,0.80000001 0 0 0 1.130859,-0.02539 c 1.258237,-1.316052 1.470687,-3.176301 0.873047,-4.644531 -0.448229,-1.101173 -1.44607,-1.998672 -2.724609,-2.216797 -0.21309,-0.03636 -0.432913,-0.05275 -0.660156,-0.04883 z M 24.8125,28.003906 a 0.80000001,0.80000001 0 0 0 -0.273437,0.04102 0.80000001,0.80000001 0 0 0 -0.50586,1.013672 c 0.564326,1.685641 0.908204,4.504971 0.908204,6.240234 0,1.001668 -0.18209,1.681336 -0.41211,2.029297 -0.228226,0.345248 -0.454938,0.470642 -1.005859,0.472656 -0.362551,-0.0074 -0.550852,-0.184652 -0.691406,-0.482422 -0.141461,-0.299691 -0.07631,-0.665229 -0.06641,-0.679687 a 0.80000001,0.80000001 0 0 0 -0.207031,-1.113282 0.80000001,0.80000001 0 0 0 -1.111328,0.208985 c -0.485228,0.708122 -0.404528,1.541026 -0.0625,2.265625 0.342028,0.724599 1.10652,1.392086 2.119141,1.40625 a 0.80008001,0.80008001 0 0 0 0.01172,0 c 0.957271,0 1.846701,-0.436494 2.34961,-1.197266 0.502909,-0.760771 0.675781,-1.735254 0.675781,-2.910156 0,-1.929317 -0.324336,-4.760962 -0.990234,-6.75 A 0.80000001,0.80000001 0 0 0 24.8125,28.003906 Z" fill="#008055"/>
</svg>
