<svg xmlns="http://www.w3.org/2000/svg" width="48" height="48">
	<path d="m 14.80957,2.7353515 c -1.586185,0 -3.027503,0.4548327 -4.09375,1.3574219 C 9.649573,4.9953625 9.006836,6.3578325 9.006836,7.9052735 V 40.075195 c 0,1.681492 0.620335,3.086003 1.707031,3.964844 1.086696,0.878842 2.524938,1.224609 4.095703,1.224609 h 18.994141 c 1.547191,0 2.892887,-0.532069 3.810547,-1.484375 0.917659,-0.952306 1.378906,-2.274028 1.378906,-3.705078 V 12.805664 c 0,-1.577086 -0.452884,-2.9306725 -1.398438,-3.8496095 -0.945554,-0.918937 -2.284716,-1.320312 -3.791015,-1.320312 h -7.523438 a 1,1 0 0 0 -1,1 1,1 0 0 0 1,1 h 7.523438 c 1.16169,0 1.916534,0.287521 2.398437,0.7558595 0.481904,0.468337 0.791016,1.200286 0.791016,2.414062 v 27.269531 c 0,1.01284 -0.305516,1.786153 -0.818359,2.31836 -0.512845,0.532206 -1.262455,0.871093 -2.371094,0.871093 H 14.80957 c -1.271475,0 -2.234601,-0.291401 -2.837891,-0.779296 -0.603288,-0.487896 -0.964843,-1.17666 -0.964843,-2.410157 V 7.9052735 c 0,-1.026979 0.363509,-1.748314 1,-2.287109 0.63649,-0.5387968 1.597629,-0.882813 2.802734,-0.882813 h 18.751953 a 1,1 0 0 0 1,-1 1,1 0 0 0 -1,-1 z m 9.191406,15.9941405 c -2.273884,0 -4.302734,1.806946 -4.302734,4.308594 v 4.021484 c 0,2.547156 2.127037,4.351563 4.302734,4.351563 2.145958,-1.4e-5 4.282813,-1.742787 4.300782,-4.345703 v -0.0039 -4.023437 c 0,-2.628197 -2.165037,-4.308594 -4.300782,-4.308594 z m 0,1.798828 c 1.241024,0 2.501953,0.838223 2.501953,2.509766 v 4.013672 c -0.01126,1.631683 -1.318571,2.56054 -2.501953,2.560547 -1.153663,0 -2.503906,-1.03033 -2.503906,-2.552735 v -4.021484 c 0,-1.569933 1.13449,-2.509766 2.503906,-2.509766 z m -6.164062,6.089844 a 0.89999998,0.89999998 0 0 0 -0.898438,0.898438 c 0,3.458362 2.692358,6.092232 6.158203,6.521484 v 1.296875 c 0,0.446691 -0.102163,0.62624 -0.199218,0.722656 -0.09706,0.09642 -0.272828,0.191406 -0.681641,0.191406 h -1.693359 a 0.89999998,0.89999998 0 0 0 -0.900391,0.898438 0.89999998,0.89999998 0 0 0 0.900391,0.900391 h 1.693359 c 0.725846,0 1.441149,-0.206222 1.951172,-0.712891 0.510023,-0.506668 0.730469,-1.23343 0.730469,-2 v -2.027344 a 0.90008998,0.90008998 0 0 0 -0.898438,-0.90039 c -3.05265,-0.0047 -5.261718,-2.105489 -5.261718,-4.890625 a 0.89999998,0.89999998 0 0 0 -0.900391,-0.898438 z m 12.326172,0 a 0.89999998,0.89999998 0 0 0 -0.900391,0.898438 c 0,1.333849 -0.484318,2.590876 -1.376953,3.439453 -0.89257,0.848525 -1.360261,0.998035 -1.970703,1.261718 a 0.89999998,0.89999998 0 0 0 -0.46875,1.181641 0.89999998,0.89999998 0 0 0 1.18164,0.470703 c 0.545657,-0.235698 1.424349,-0.588659 2.498047,-1.609375 1.295614,-1.231665 1.9375,-2.975589 1.9375,-4.74414 a 0.89999998,0.89999998 0 0 0 -0.90039,-0.898438 z m -4.25,9.623047 a 0.89999998,0.89999998 0 0 0 -0.900391,0.900391 0.89999998,0.89999998 0 0 0 0.900391,0.90039 h 1.583984 a 0.89999998,0.89999998 0 0 0 0.900391,-0.90039 0.89999998,0.89999998 0 0 0 -0.900391,-0.900391 z" fill="#008055"/>
</svg>
