<svg xmlns="http://www.w3.org/2000/svg" width="48" height="48">
	<path d="m 14.808594,2.734375 c -1.586185,0 -3.027503,0.4548327 -4.09375,1.3574219 C 9.6485965,4.994386 9.0078125,6.356856 9.0078125,7.904297 v 32.169922 c 0,1.681492 0.618382,3.086002 1.7050785,3.964844 1.086696,0.878841 2.524937,1.226562 4.095703,1.226562 h 18.99414 c 1.547191,0 2.892888,-0.534022 3.810547,-1.486328 0.917659,-0.952307 1.378907,-2.274028 1.378907,-3.705078 V 12.804687 c 0,-1.577084 -0.450931,-2.930672 -1.396485,-3.849609 -0.945554,-0.918937 -2.28667,-1.320312 -3.792969,-1.320312 h -7.523437 a 1,1 0 0 0 -1,1 1,1 0 0 0 1,1 h 7.523437 c 1.16169,0 1.916534,0.287521 2.398438,0.755859 0.481904,0.468338 0.791016,1.200287 0.791016,2.414062 v 27.269532 c 0,1.01284 -0.305516,1.786153 -0.81836,2.318359 -0.512844,0.532206 -1.262454,0.873047 -2.371094,0.873047 h -18.99414 c -1.271475,0 -2.234602,-0.293354 -2.837891,-0.78125 -0.603289,-0.487896 -0.962891,-1.176659 -0.962891,-2.410156 V 7.904297 c 0,-1.026979 0.36351,-1.748314 1,-2.2871095 0.636491,-0.5387958 1.595677,-0.8828125 2.800782,-0.8828125 h 18.751953 a 1,1 0 0 0 1,-1 1,1 0 0 0 -1,-1 z m 17.060547,14.779297 a 0.70006999,0.70006999 0 0 0 -0.03516,0.002 c -1.827632,0.195686 -3.068204,1.690024 -4.027343,3.498047 -0.95914,1.808023 -1.704568,4.03841 -2.484375,6.117187 a 0.69999999,0.69999999 0 0 0 0.410156,0.902344 0.69999999,0.69999999 0 0 0 0.902344,-0.410156 c 0.791622,-2.110272 1.533957,-4.305133 2.408203,-5.953125 0.815919,-1.538047 1.701076,-2.433841 2.730469,-2.654297 0.646459,0.452561 1.063451,0.963449 1.060546,2.074219 -0.0032,1.23163 -0.639975,3.254929 -2.322265,6.273437 -0.575618,0.09411 -1.145588,0.187888 -1.445313,0.484375 a 0.69999999,0.69999999 0 0 0 -0.0059,0.988281 0.69999999,0.69999999 0 0 0 0.990234,0.0059 c -0.0077,0.0077 0.314408,-0.217421 1.003907,-0.242188 a 0.70006999,0.70006999 0 0 0 0.585937,-0.355468 c 1.835614,-3.245301 2.589317,-5.45693 2.59375,-7.152344 0.0044,-1.695414 -0.891067,-2.824472 -1.960937,-3.476563 a 0.70006999,0.70006999 0 0 0 -0.404297,-0.101562 z m -14.052735,1.082031 c -0.777248,0 -1.530118,0.256838 -2.076172,0.785156 -0.546053,0.528318 -0.841797,1.302177 -0.841797,2.140625 v 12.548829 c 0,0.821102 0.177294,1.612125 0.681641,2.238281 0.504348,0.626155 1.332224,0.982422 2.236328,0.982422 h 6.001953 a 0.89999998,0.89999998 0 0 0 0.900391,-0.900391 0.89999998,0.89999998 0 0 0 -0.900391,-0.900391 h -6.001953 c -0.499286,0 -0.680335,-0.119787 -0.833984,-0.310547 -0.15365,-0.190758 -0.283203,-0.556537 -0.283203,-1.109374 V 21.521484 c 0,-0.445341 0.124322,-0.684486 0.292969,-0.847656 0.168646,-0.163169 0.424886,-0.277344 0.824218,-0.277344 h 8.552735 a 0.89999998,0.89999998 0 0 0 0.90039,-0.90039 0.89999998,0.89999998 0 0 0 -0.90039,-0.900391 z m 13.689453,1.240234 a 0.80000001,0.80000001 0 0 0 -0.623046,0.328126 c -3.038466,4.169702 -5.741169,11.140222 -5.208985,17.916015 a 0.80000001,0.80000001 0 0 0 0.859375,0.734375 0.80000001,0.80000001 0 0 0 0.736328,-0.859375 C 26.777976,31.696572 29.377806,24.9471 32.175781,21.107422 A 0.80000001,0.80000001 0 0 0 32,19.988281 0.80000001,0.80000001 0 0 0 31.505859,19.835937 Z m -6.658203,8.550782 a 0.80000001,0.80000001 0 0 0 -0.126953,0.0098 0.80000001,0.80000001 0 0 0 -0.669922,0.91211 c 0.05899,0.384603 0.20882,0.991056 0.38086,1.623047 a 0.80000001,0.80000001 0 0 0 0.982422,0.5625 0.80000001,0.80000001 0 0 0 0.560546,-0.982422 c -0.1628,-0.59805 -0.311564,-1.248196 -0.341796,-1.445313 a 0.80000001,0.80000001 0 0 0 -0.785157,-0.679687 z m 5.369141,0.90039 a 0.80000001,0.80000001 0 0 0 -0.578125,0.269532 c -0.509695,0.574081 -0.763525,0.716446 -1.427734,1.261718 a 0.80000001,0.80000001 0 0 0 -0.111329,1.125 0.80000001,0.80000001 0 0 0 1.126954,0.111328 c 0.61073,-0.501367 1.005268,-0.755128 1.609375,-1.435546 a 0.80000001,0.80000001 0 0 0 -0.06641,-1.128907 0.80000001,0.80000001 0 0 0 -0.552734,-0.203125 z" fill="#008055"/>
</svg>
