<svg xmlns="http://www.w3.org/2000/svg" width="48" height="48">
	<path d="m 14.809571,2.7353518 c -1.586186,0 -3.027503,0.4528797 -4.09375,1.3554687 C 9.649574,4.9934097 9.008789,6.3578329 9.008789,7.9052737 L 9.006836,40.073242 c 0,1.68149 0.620338,3.087954 1.707031,3.966797 1.086694,0.878843 2.524934,1.224609 4.095704,1.224609 h 18.99414 c 1.547196,0 2.892889,-0.532067 3.810547,-1.484375 0.917659,-0.952307 1.378906,-2.275982 1.378906,-3.707031 V 12.803711 c 0,-1.577084 -0.452886,-2.9287185 -1.398437,-3.8476561 C 36.649175,8.0371172 35.310011,7.6337893 33.803711,7.6337893 h -7.523437 a 1,1 0 0 0 -1,0.9999999 1,1 0 0 0 1,1 h 7.523437 c 1.161691,0 1.916537,0.2875226 2.398438,0.7558588 0.481901,0.468338 0.791015,1.200287 0.791015,2.414063 v 27.269531 c 0,1.012841 -0.305517,1.786153 -0.818359,2.31836 -0.512842,0.532205 -1.262449,0.873046 -2.371094,0.873046 h -18.99414 c -1.271481,0 -2.234607,-0.291402 -2.837891,-0.779296 -0.603284,-0.487896 -0.964844,-1.17861 -0.964844,-2.41211 l 0.002,-32.1679684 c 0,-1.0269792 0.361557,-1.7483136 0.998047,-2.2871094 0.636491,-0.5387958 1.59763,-0.8828125 2.802735,-0.8828125 h 18.751953 a 1,1 0 0 0 1,-1 1,1 0 0 0 -1,-1 z m 9.4375,18.4609372 c -0.316842,-0.0083 -0.633904,-0.0059 -0.951172,0.0059 -2.538143,0.09437 -5.055709,0.834186 -7.007813,2.273438 -1.946601,1.439736 -2.775743,3.269829 -2.748047,4.960937 0.0277,1.691108 0.846577,3.198303 1.988282,4.183594 a 0.80000001,0.80000001 0 0 0 1.128906,-0.08203 0.80000001,0.80000001 0 0 0 -0.08398,-1.128906 c -0.809606,-0.69869 -1.414315,-1.820868 -1.433594,-2.998047 -0.01928,-1.17718 0.48302,-2.452784 2.099609,-3.648438 3.233367,-2.382742 8.988958,-2.484858 12.402344,-0.568359 A 0.80000001,0.80000001 0 0 0 30.73145,23.88969 0.80000001,0.80000001 0 0 0 30.424809,22.799847 c -1.77806,-0.998319 -3.959844,-1.545656 -6.177734,-1.603516 z m -0.25586,2.685547 a 0.69999999,0.69999999 0 0 0 -0.648437,0.517578 l -1.462891,5.435547 a 0.69999999,0.69999999 0 0 0 0.492188,0.857422 0.69999999,0.69999999 0 0 0 0.859375,-0.494141 l 0.74414,-2.765625 h 0.697266 c 0.04764,0 0.02902,0.0025 0.06055,0.0059 -0.01111,0.05104 -0.0052,0.22401 -0.126953,0.664063 l -0.429688,1.556641 a 0.69999999,0.69999999 0 0 0 0.488281,0.861328 0.69999999,0.69999999 0 0 0 0.861328,-0.486328 l 0.429688,-1.556641 c 0.161867,-0.584971 0.313187,-1.034668 0.132812,-1.595703 -0.09019,-0.280518 -0.331548,-0.560825 -0.601562,-0.691406 -0.270014,-0.130581 -0.535062,-0.15625 -0.814453,-0.15625 h -0.320313 l 0.341797,-1.271485 a 0.69999999,0.69999999 0 0 0 -0.49414,-0.857422 0.69999999,0.69999999 0 0 0 -0.208985,-0.02344 z m 7.765625,0.02344 a 0.80000001,0.80000001 0 0 0 -0.583984,0.251953 0.80000001,0.80000001 0 0 0 0.03516,1.13086 c 0.90594,0.850704 1.489394,1.982008 1.488281,3.125 -0.0011,1.142992 -0.535802,2.374347 -2.166015,3.580078 -3.239921,2.387644 -8.905892,2.517064 -12.404297,0.566406 a 0.80000001,0.80000001 0 0 0 -1.087891,0.310547 0.80000001,0.80000001 0 0 0 0.308594,1.087891 c 4.132265,2.304088 10.23716,2.195953 14.134766,-0.677735 1.932976,-1.429659 2.812821,-3.188924 2.814453,-4.865234 0.0016,-1.67631 -0.822198,-3.194313 -1.992188,-4.292969 A 0.80000001,0.80000001 0 0 0 31.75684,23.905276 Z m -12.21875,2.128907 a 0.70006999,0.70006999 0 0 0 -0.675781,0.511718 l -1.330078,4.808594 a 0.69999999,0.69999999 0 0 0 0.488281,0.861328 0.69999999,0.69999999 0 0 0 0.861328,-0.488281 l 0.326172,-1.181641 h 0.951172 c 0.620333,0 1.149371,-0.337123 1.478516,-0.746093 0.329145,-0.408971 0.513427,-0.890993 0.607421,-1.371094 0.09399,-0.480102 0.103096,-0.955688 -0.0332,-1.40625 -0.06815,-0.225281 -0.175883,-0.45271 -0.373047,-0.648438 -0.197162,-0.195728 -0.506271,-0.336441 -0.810546,-0.339843 a 0.70006999,0.70006999 0 0 0 -0.0078,0 z m 7.791016,0 a 0.70006999,0.70006999 0 0 0 -0.673828,0.511718 l -1.330078,4.808594 a 0.69999999,0.69999999 0 0 0 0.488281,0.861328 0.69999999,0.69999999 0 0 0 0.861328,-0.488281 l 0.326172,-1.181641 h 0.951172 c 0.620332,0 1.147417,-0.337123 1.476562,-0.746093 0.329145,-0.408971 0.515381,-0.890993 0.609375,-1.371094 0.09399,-0.480102 0.103096,-0.955688 -0.0332,-1.40625 -0.06815,-0.225281 -0.175884,-0.45271 -0.373047,-0.648438 -0.197163,-0.195728 -0.506272,-0.336441 -0.810547,-0.339843 a 0.70006999,0.70006999 0 0 0 -0.0078,0 z m -7.259766,1.398437 h 0.802735 c 0.03992,0.135834 0.05764,0.432168 0,0.726563 -0.0581,0.296768 -0.186974,0.590714 -0.326172,0.763672 -0.139198,0.172956 -0.235227,0.224609 -0.386719,0.224609 h -0.564453 z m 7.792969,0 h 0.800781 c 0.03992,0.135834 0.05764,0.432168 0,0.726563 -0.0581,0.296768 -0.18502,0.590714 -0.324219,0.763672 -0.139197,0.172956 -0.235226,0.224609 -0.386718,0.224609 h -0.564453 z"  fill="#008055"/>
</svg>
