<svg xmlns="http://www.w3.org/2000/svg" width="48" height="48">
	<path d="m 14.80957,2.7353516 c -1.586185,0 -3.027501,0.4548334 -4.09375,1.3574219 C 9.6495715,4.9953624 9.0068355,6.3578314 9.0068355,7.9052734 V 40.075195 c 0,1.681493 0.620333,3.086003 1.7070315,3.964844 1.086699,0.87884 2.524939,1.224609 4.095703,1.224609 h 18.994141 c 1.54719,0 2.892888,-0.532068 3.810547,-1.484375 0.917659,-0.952306 1.378906,-2.274028 1.378906,-3.705078 V 12.805664 c 0,-1.577085 -0.452883,-2.9306726 -1.398437,-3.8496096 -0.945555,-0.918937 -2.284718,-1.320312 -3.791016,-1.320312 h -7.523438 a 1,1 0 0 0 -1,1 1,1 0 0 0 1,1 h 7.523438 c 1.16169,0 1.916533,0.287521 2.398437,0.7558586 0.481904,0.468338 0.791016,1.200288 0.791016,2.414063 v 27.269531 c 0,1.01284 -0.305517,1.7842 -0.818359,2.316406 -0.512844,0.532206 -1.262456,0.873047 -2.371094,0.873047 H 14.80957 c -1.271474,0 -2.234598,-0.2914 -2.83789,-0.779297 -0.603292,-0.487897 -0.964844,-1.176659 -0.964844,-2.410156 V 7.9052734 c 0,-1.026978 0.363506,-1.748313 1,-2.287109 0.636494,-0.538797 1.597629,-0.8828128 2.802734,-0.8828128 h 18.751953 a 1,1 0 0 0 1,-1 1,1 0 0 0 -1,-1 z m 9.605469,16.1035154 a 1.4986516,1.4986516 0 0 0 -1.498047,1.498047 1.4986516,1.4986516 0 0 0 1.498047,1.498047 1.4986516,1.4986516 0 0 0 1.5,-1.498047 1.4986516,1.4986516 0 0 0 -1.5,-1.498047 z m 0.04102,4.4375 a 0.89999998,0.89999998 0 0 0 -0.900391,0.90039 v 14.544922 c 0,0.584936 -0.155513,0.875741 -0.349609,1.072266 -0.194097,0.196525 -0.479591,0.31959 -0.841797,0.347656 -0.72441,0.05613 -1.604622,-0.385957 -1.851563,-0.865234 a 0.89999998,0.89999998 0 0 0 -1.21289,-0.388672 0.89999998,0.89999998 0 0 0 -0.386719,1.212891 c 0.685479,1.330413 2.175424,1.945537 3.589844,1.835937 0.707209,-0.0548 1.434685,-0.320385 1.984375,-0.876953 0.549689,-0.556568 0.86914,-1.381926 0.86914,-2.337891 V 24.176757 a 0.89999998,0.89999998 0 0 0 -0.90039,-0.90039 z m -7.580078,8.589844 a 1.7764144,1.7764144 0 0 0 -1.777344,1.777343 1.7764144,1.7764144 0 0 0 1.777344,1.775391 1.7764144,1.7764144 0 0 0 1.77539,-1.775391 1.7764144,1.7764144 0 0 0 -1.77539,-1.777343 z" fill="#008055"/>
</svg>
