<svg xmlns="http://www.w3.org/2000/svg" width="48" height="48">
	<path d="m 14.808594,2.7343751 c -1.586185,0 -3.027503,0.4548328 -4.09375,1.3574219 C 9.6485966,4.9943862 9.0078123,6.3588095 9.0078123,7.9062501 V 40.074219 c 0,1.681492 0.6183819,3.087956 1.7050787,3.966797 1.086696,0.878841 2.524938,1.224609 4.095703,1.224609 h 18.994141 c 1.54719,0 2.892887,-0.534021 3.810546,-1.486328 0.91766,-0.952306 1.378907,-2.274028 1.378907,-3.705078 V 12.804688 c 0,-1.577085 -0.450931,-2.9287197 -1.396485,-3.8476566 -0.945554,-0.9189369 -2.28667,-1.3222656 -3.792968,-1.3222656 h -7.523438 a 1,1 0 0 0 -1,1 1,1 0 0 0 1,1 h 7.523438 c 1.16169,0 1.916533,0.2875212 2.398437,0.7558592 0.481904,0.468338 0.791016,1.200287 0.791016,2.414063 v 27.269531 c 0,1.01284 -0.305517,1.786153 -0.81836,2.318359 -0.512843,0.532206 -1.262455,0.873047 -2.371093,0.873047 H 14.808594 c -1.271475,0 -2.234602,-0.2914 -2.837891,-0.779297 -0.603289,-0.487896 -0.962891,-1.178611 -0.962891,-2.412109 V 7.9062501 c 0,-1.0269791 0.36351,-1.7502666 1,-2.2890624 0.636491,-0.5387959 1.595677,-0.8828126 2.800782,-0.8828126 l 18.751953,0.00195 a 1,1 0 0 0 1,-1 1,1 0 0 0 -1,-0.9999999 z M 25.892578,16.603516 c -0.177497,-0.0089 -0.3564,-0.0059 -0.533203,0.0078 -0.707209,0.0548 -1.432733,0.320387 -1.982422,0.876953 -0.549689,0.556569 -0.871094,1.381927 -0.871094,2.337891 v 5.255859 H 20.875 A 0.89999998,0.89999998 0 0 0 19.974609,25.98241 0.89999998,0.89999998 0 0 0 20.875,26.882801 h 1.630859 v 7.488281 a 0.89999998,0.89999998 0 0 0 0.900391,0.900391 0.89999998,0.89999998 0 0 0 0.900391,-0.900391 v -7.488281 h 3.488281 A 0.89999998,0.89999998 0 0 0 28.695313,25.98241 0.89999998,0.89999998 0 0 0 27.794922,25.082019 H 24.306641 V 19.82616 c 0,-0.584936 0.155513,-0.877693 0.349609,-1.074219 0.194096,-0.196525 0.479592,-0.317636 0.841797,-0.345703 0.724411,-0.05613 1.604622,0.385958 1.851562,0.865235 a 0.89999998,0.89999998 0 0 0 1.212891,0.386718 0.89999998,0.89999998 0 0 0 0.388672,-1.210937 c -0.599794,-1.164112 -1.816113,-1.781245 -3.058594,-1.84375 z m -7.958984,15.263672 a 1.7764144,1.7764144 0 0 0 -1.775391,1.77539 1.7764144,1.7764144 0 0 0 1.775391,1.777344 1.7764144,1.7764144 0 0 0 1.777344,-1.777344 1.7764144,1.7764144 0 0 0 -1.777344,-1.77539 z" fill="#008055"/>
</svg>
