<svg xmlns="http://www.w3.org/2000/svg" width="48" height="48">
	<path d="m 14.808594,2.734375 c -1.586185,0 -3.027502,0.4548334 -4.09375,1.3574219 -1.0662495,0.9025886 -1.7070315,2.265058 -1.7070315,3.8125 V 40.074219 c 0,1.681491 0.618384,3.087955 1.7050785,3.966797 1.086693,0.878842 2.524937,1.224609 4.095703,1.224609 h 18.99414 c 1.547196,0 2.892888,-0.534021 3.810547,-1.486328 0.917659,-0.952307 1.378907,-2.274029 1.378907,-3.705078 V 12.804688 c 0,-1.577084 -0.450933,-2.928719 -1.396485,-3.847657 -0.945552,-0.918937 -2.28667,-1.322265 -3.792969,-1.322265 h -7.523437 a 1,1 0 0 0 -1,1 1,1 0 0 0 1,1 h 7.523437 c 1.16169,0 1.916537,0.287522 2.398438,0.755859 0.481901,0.468337 0.791016,1.200286 0.791016,2.414063 v 27.269531 c 0,1.012841 -0.305518,1.786154 -0.81836,2.318359 -0.512842,0.532206 -1.26245,0.873047 -2.371094,0.873047 h -18.99414 c -1.271475,0 -2.234605,-0.293354 -2.83789,-0.78125 -0.603287,-0.487895 -0.962892,-1.176657 -0.962892,-2.410156 V 7.9042969 c 0,-1.0269779 0.363508,-1.7483129 1,-2.2871094 C 12.644305,5.078391 13.603489,4.734375 14.808594,4.734375 h 18.751953 a 1,1 0 0 0 1,-1 1,1 0 0 0 -1,-1 z m 9.625,22.69336 c -0.966212,0 -1.808995,0.568995 -2.341797,1.36914 a 0.80000001,0.80000001 0 0 0 -0.04297,0.07227 V 26.255859 A 0.80000001,0.80000001 0 0 0 21.25,25.455078 0.80000001,0.80000001 0 0 0 20.449219,26.255859 V 37.947266 A 0.80000001,0.80000001 0 0 0 21.25,38.746094 0.80000001,0.80000001 0 0 0 22.048828,37.947266 v -5.273438 a 0.80000001,0.80000001 0 0 0 0.06836,0.115235 c 0.544308,0.774018 1.382587,1.298828 2.316406,1.298828 0.933855,0 1.772102,-0.52483 2.316406,-1.298828 0.544304,-0.773999 0.841797,-1.800934 0.841797,-2.976563 0,-1.170803 -0.283582,-2.215508 -0.816406,-3.015625 -0.532825,-0.800117 -1.375583,-1.36914 -2.341797,-1.36914 z m -7.140625,0.03125 c -2.109171,0 -3.664063,1.986396 -3.664063,4.384765 0,2.410073 1.622833,4.275391 3.664063,4.275391 1.020629,0 1.969591,-0.470237 2.626953,-1.240235 a 0.80000001,0.80000001 0 0 0 -0.08984,-1.126953 0.80000001,0.80000001 0 0 0 -1.126953,0.08984 c -0.383219,0.448882 -0.866826,0.677734 -1.410156,0.677734 -1.08665,0 -2.0625,-0.933114 -2.0625,-2.675781 0,-1.754331 0.952791,-2.785156 2.0625,-2.785156 0.554873,0 1.028427,0.242198 1.412109,0.716797 a 0.80000001,0.80000001 0 0 0 1.125,0.11914 0.80000001,0.80000001 0 0 0 0.119141,-1.125 c -0.645518,-0.79848 -1.601644,-1.310546 -2.65625,-1.310546 z m 14.705078,0.01367 c -0.966231,0 -1.808971,0.569042 -2.341797,1.369141 a 0.80000001,0.80000001 0 0 0 -0.04102,0.06836 V 26.300781 A 0.80000001,0.80000001 0 0 0 28.814449,25.5 0.80000001,0.80000001 0 0 0 28.015621,26.300781 v 11.689454 a 0.80000001,0.80000001 0 0 0 0.798828,0.800781 0.80000001,0.80000001 0 0 0 0.800781,-0.800781 V 32.71875 a 0.80000001,0.80000001 0 0 0 0.06641,0.113281 c 0.544305,0.774014 1.382559,1.300782 2.316406,1.300782 0.933852,0 1.772112,-0.526784 2.316406,-1.300782 0.544294,-0.773998 0.841797,-1.800942 0.841797,-2.976562 0,-1.170804 -0.283594,-2.213551 -0.816406,-3.013672 -0.532813,-0.800121 -1.375585,-1.369141 -2.341797,-1.369141 z m -7.564453,1.554688 c 0.359556,0 0.694786,0.183262 1.009765,0.65625 0.314978,0.472988 0.548829,1.22337 0.548829,2.128906 0,0.900741 -0.237916,1.609794 -0.550782,2.054688 -0.312866,0.444894 -0.653368,0.621093 -1.007812,0.621093 -0.354381,0 -0.694961,-0.176211 -1.007813,-0.621093 a 0.80000001,0.80000001 0 0 0 -1.115234,-0.19336 0.80000001,0.80000001 0 0 0 -0.261719,0.310547 v -4.373047 a 0.80000001,0.80000001 0 0 0 0.263672,0.294922 0.80000001,0.80000001 0 0 0 1.109375,-0.222656 c 0.314958,-0.472995 0.652169,-0.65625 1.011719,-0.65625 z m 7.564453,0.04492 c 0.359547,0 0.696747,0.183259 1.011719,0.65625 0.314971,0.472991 0.546875,1.221407 0.546875,2.126953 0,0.900739 -0.237924,1.611748 -0.550782,2.05664 -0.312858,0.444894 -0.653374,0.619141 -1.007812,0.619141 -0.354453,0 -0.694958,-0.174253 -1.007813,-0.619141 a 0.80000001,0.80000001 0 0 0 -1.113281,-0.193359 0.80000001,0.80000001 0 0 0 -0.261719,0.310547 v -4.373047 a 0.80000001,0.80000001 0 0 0 0.263672,0.294922 0.80000001,0.80000001 0 0 0 1.109375,-0.222656 c 0.314994,-0.473001 0.650196,-0.65625 1.009766,-0.65625 z M 12.955078,31.56445 a 1.2527848,1.2269304 0 0 0 -1.253906,1.226563 1.2527848,1.2269304 0 0 0 1.253906,1.226562 1.2527848,1.2269304 0 0 0 1.251953,-1.226562 1.2527848,1.2269304 0 0 0 -1.251953,-1.226563 z" fill="#008055"/>
</svg>
