<svg xmlns="http://www.w3.org/2000/svg" width="48" height="48">
	<path d="m 14.808594,2.734375 c -1.586186,0 -3.027503,0.4548327 -4.09375,1.3574219 C 9.6485969,4.994386 9.0078127,6.3568559 9.0078127,7.9042971 V 40.074219 c 0,1.681492 0.6183818,3.087955 1.7050783,3.966797 1.086696,0.878841 2.524938,1.224609 4.095703,1.224609 h 18.99414 c 1.547191,0 2.892888,-0.534022 3.810547,-1.486328 0.91766,-0.952307 1.378906,-2.274028 1.378906,-3.705078 V 12.804687 c 0,-1.577085 -0.45093,-2.9287189 -1.396484,-3.847656 C 36.650149,8.038094 35.309034,7.634766 33.802734,7.634766 h -7.523437 a 1,1 0 0 0 -1,1 1,1 0 0 0 1,1 h 7.523437 c 1.161691,0 1.916534,0.287521 2.398438,0.755859 0.481903,0.468338 0.791015,1.200287 0.791015,2.414062 v 27.269532 c 0,1.012839 -0.305516,1.786153 -0.818359,2.318359 -0.512843,0.532206 -1.262455,0.873047 -2.371094,0.873047 h -18.99414 c -1.271475,0 -2.234602,-0.291401 -2.837891,-0.779297 -0.603288,-0.487896 -0.96289,-1.178612 -0.96289,-2.412109 V 7.904297 c 0,-1.0269797 0.363509,-1.7483138 1,-2.2871096 0.63649,-0.5387959 1.595676,-0.8828125 2.800781,-0.8828125 l 18.751953,0.00195 a 1,1 0 0 0 1,-1 1,1 0 0 0 -1,-1 z M 29.300781,23.33789 a 0.89999998,0.89999998 0 0 0 -0.826172,0.615235 l -4.853515,14.544922 a 0.90008998,0.90008998 0 0 0 -0.002,0.0039 c -0.403732,1.227394 -1.048225,1.596446 -1.625,1.65625 -0.576775,0.0598 -1.163323,-0.235104 -1.464844,-0.820313 a 0.89999998,0.89999998 0 0 0 -1.210938,-0.388671 0.89999998,0.89999998 0 0 0 -0.388672,1.21289 c 0.630899,1.224482 1.931239,1.923848 3.25,1.78711 1.318763,-0.136739 2.578999,-1.1536 3.148438,-2.884766 l 4.855469,-14.541016 a 0.89999998,0.89999998 0 0 0 -0.570313,-1.138671 0.89999998,0.89999998 0 0 0 -0.3125,-0.04688 z m -8.951172,0.0039 a 0.89999998,0.89999998 0 0 0 -0.21289,0.03711 0.89999998,0.89999998 0 0 0 -0.607422,1.117188 l 3.101562,10.478515 A 0.89999998,0.89999998 0 0 0 23.75,35.582031 0.89999998,0.89999998 0 0 0 24.357422,34.464844 L 21.255859,23.986328 a 0.89999998,0.89999998 0 0 0 -0.90625,-0.644531 z m -2.972656,8.52539 a 1.7764144,1.7764144 0 0 0 -1.777344,1.775391 1.7764144,1.7764144 0 0 0 1.777344,1.777344 1.7764144,1.7764144 0 0 0 1.775391,-1.777344 1.7764144,1.7764144 0 0 0 -1.775391,-1.775391 z" fill="#008055"/>
</svg>
