<svg xmlns="http://www.w3.org/2000/svg" width="48" height="48">
	<path d="m 14.808593,2.7353516 c -1.586185,0 -3.027502,0.4548326 -4.093749,1.3574218 -1.0662471,0.9025892 -1.7070314,2.2650592 -1.7070314,3.8125 V 40.075195 c 0,1.681491 0.6183842,3.086002 1.7050784,3.964844 1.086694,0.878842 2.524937,1.224609 4.095702,1.224609 h 18.994141 c 1.547195,0 2.892888,-0.532068 3.810547,-1.484375 0.917658,-0.952307 1.378906,-2.274029 1.378906,-3.705078 V 12.805664 c 0,-1.577084 -0.450933,-2.9306717 -1.396484,-3.8496094 C 36.650151,8.037117 35.309033,7.6357422 33.802734,7.6357422 h -7.523437 a 1,1 0 0 0 -1,1 1,1 0 0 0 1,1 h 7.523437 c 1.161691,0 1.916536,0.287522 2.398437,0.7558598 0.481902,0.468337 0.791016,1.200285 0.791016,2.414062 v 27.269531 c 0,1.012841 -0.305518,1.786154 -0.818359,2.318359 -0.512842,0.532206 -1.262449,0.871094 -2.371094,0.871094 H 14.808593 c -1.271475,0 -2.234604,-0.291401 -2.83789,-0.779297 -0.603286,-0.487895 -0.96289,-1.176657 -0.96289,-2.410156 V 7.9052734 c 0,-1.0269792 0.363509,-1.7483135 1,-2.2871094 0.63649,-0.5387958 1.595676,-0.8828125 2.80078,-0.8828125 h 18.751954 a 1,1 0 0 0 1,-1 1,1 0 0 0 -1,-0.9999999 z m 5.738282,13.8105464 a 0.89999998,0.89999998 0 0 0 -0.900391,0.898437 V 34.37207 a 0.89999998,0.89999998 0 0 0 0.900391,0.900391 0.89999998,0.89999998 0 0 0 0.898437,-0.900391 V 17.444335 A 0.89999998,0.89999998 0 0 0 20.546875,16.545898 Z M 25.625,23.336914 c -0.91086,0.0014 -1.832375,0.290645 -2.556641,0.916015 -0.724266,0.625371 -1.208984,1.609724 -1.208984,2.767578 a 0.89999998,0.89999998 0 0 0 0.90039,0.898438 0.89999998,0.89999998 0 0 0 0.900391,-0.898438 c 0,-0.693246 0.233206,-1.101416 0.583984,-1.404296 0.350778,-0.302881 0.862233,-0.479681 1.384766,-0.480469 0.522533,-7.88e-4 1.031058,0.174877 1.380859,0.476562 0.349801,0.301686 0.583985,0.709555 0.583985,1.408203 v 7.351563 a 0.89999998,0.89999998 0 0 0 0.90039,0.900391 0.89999998,0.89999998 0 0 0 0.900391,-0.900391 v -7.351563 c 0,-1.161096 -0.483741,-2.145999 -1.208984,-2.771484 C 27.460303,23.623538 26.535859,23.33554 25.625,23.336914 Z m -9.570313,8.529297 a 1.7764144,1.7764144 0 0 0 -1.77539,1.777343 1.7764144,1.7764144 0 0 0 1.77539,1.775391 1.7764144,1.7764144 0 0 0 1.777344,-1.775391 1.7764144,1.7764144 0 0 0 -1.777344,-1.777343 z" fill="#008055"/>
</svg>
