<svg xmlns="http://www.w3.org/2000/svg" width="48" height="48">
	<path d="m 14.809571,2.734375 c -1.586186,0 -3.027503,0.454833 -4.09375,1.357422 -1.066247,0.902589 -1.708985,2.265059 -1.708985,3.8125 v 32.169922 c 0,1.68149 0.620338,3.086001 1.707031,3.964843 1.086694,0.878843 2.522981,1.226563 4.09375,1.226563 h 18.996094 c 1.547196,0 2.892889,-0.534021 3.810547,-1.486328 0.917659,-0.952307 1.378906,-2.27403 1.378906,-3.705078 V 12.804687 c 0,-1.577083 -0.452886,-2.930671 -1.398437,-3.849609 C 36.649175,8.03614 35.310011,7.634765 33.803711,7.634765 h -7.52539 a 1,1 0 0 0 -1,1 1,1 0 0 0 1,1 h 7.52539 c 1.161691,0 1.916537,0.287523 2.398438,0.75586 0.481901,0.468337 0.791015,1.200286 0.791015,2.414062 v 27.269532 c 0,1.012841 -0.307471,1.786154 -0.820312,2.318359 -0.512842,0.532205 -1.260496,0.873047 -2.369141,0.873047 H 14.807617 c -1.27148,0 -2.232653,-0.293355 -2.835937,-0.78125 -0.603284,-0.487895 -0.964844,-1.176656 -0.964844,-2.410156 V 7.904297 c 0,-1.026979 0.36351,-1.748314 1,-2.28711 0.636491,-0.538795 1.59763,-0.882812 2.802735,-0.882812 h 18.751953 a 1,1 0 0 0 1,-1 1,1 0 0 0 -1,-1 z M 24.051758,18 c -0.865292,2.31e-4 -1.730971,0.158062 -2.462891,0.544922 -0.731918,0.38686 -1.376953,1.122189 -1.376953,2.060547 v 2.263672 a 0.80000001,0.80000001 0 0 0 0.800782,0.800781 0.80000001,0.80000001 0 0 0 0.800781,-0.800781 v -2.263672 c 0,-0.265098 0.115959,-0.43111 0.523437,-0.646485 0.407479,-0.215375 1.060939,-0.3592 1.714844,-0.359375 0.653906,-1.75e-4 1.307576,0.142231 1.714844,0.357422 0.407267,0.215191 0.523437,0.382074 0.523437,0.648438 v 5.308593 c 0,0.61615 -0.146084,0.911003 -0.417968,1.134766 -0.271884,0.223763 -0.790321,0.404297 -1.642578,0.404297 h -0.650391 c -1.248758,0 -2.231526,0.37633 -2.767578,1.142578 -0.536052,0.766248 -0.589844,1.674612 -0.589844,2.648438 v 4.322265 c 0,0.938711 0.644825,1.675664 1.376953,2.0625 0.732129,0.386836 1.597601,0.545152 2.462891,0.544922 0.865289,-2.3e-4 1.730972,-0.158067 2.46289,-0.544922 0.731919,-0.386855 1.375,-1.124145 1.375,-2.0625 v -2.109375 a 0.80000001,0.80000001 0 0 0 -0.800781,-0.800781 0.80000001,0.80000001 0 0 0 -0.798828,0.800781 v 2.109375 c 0,0.26509 -0.11596,0.433066 -0.523438,0.648438 -0.407477,0.215372 -1.062891,0.357248 -1.716796,0.357421 -0.653906,1.75e-4 -1.307576,-0.142232 -1.714844,-0.357421 -0.407268,-0.215189 -0.521484,-0.382089 -0.521484,-0.648438 l -0.002,-4.322265 c 0,-0.878296 0.114794,-1.466566 0.300782,-1.732422 0.185988,-0.265857 0.481129,-0.458985 1.457031,-0.458985 h 0.650391 c 1.070191,0 1.982732,-0.212006 2.660156,-0.769531 0.677423,-0.557525 1,-1.43128 1,-2.369141 v -5.308593 c 0,-0.938717 -0.64287,-1.675659 -1.375,-2.0625 C 25.782472,18.156127 24.917004,17.999768 24.051712,18 Z m -0.998047,2.308594 a 0.75252908,0.7546072 0 0 0 -0.736328,0.753906 0.75252908,0.7546072 0 0 0 0.751953,0.753906 0.75252908,0.7546072 0 0 0 0.751953,-0.753906 0.75252908,0.7546072 0 0 0 -0.751953,-0.753906 0.75252908,0.7546072 0 0 0 -0.01563,0 z m 1.654297,2.214843 a 0.80000001,0.80000001 0 0 0 -0.800781,0.800782 v 0.558593 c 0,0.138656 -0.01841,0.143057 -0.0625,0.179688 -0.04409,0.03663 -0.161254,0.0918 -0.34961,0.0918 h -6.232421 c -0.979571,-0.01074 -1.768388,0.62934 -2.181641,1.386718 -0.413253,0.75738 -0.575056,1.657346 -0.566406,2.554688 0.0086,0.897342 0.18884,1.794709 0.601562,2.546875 0.412723,0.752166 1.172058,1.400391 2.136719,1.400391 h 1.578125 a 0.80000001,0.80000001 0 0 0 0.800781,-0.798828 0.80000001,0.80000001 0 0 0 -0.800781,-0.800782 H 17.25293 c -0.296654,0 -0.497448,-0.140477 -0.734375,-0.572265 -0.236927,-0.431789 -0.3958,-1.112168 -0.402344,-1.791016 -0.0065,-0.678848 0.140341,-1.354112 0.369141,-1.773437 0.2288,-0.419327 0.417246,-0.556491 0.759765,-0.552735 a 0.80008001,0.80008001 0 0 0 0.0078,0 h 6.242187 c 0.487986,0 0.978789,-0.134999 1.371094,-0.460937 0.392305,-0.325939 0.640625,-0.858472 0.640625,-1.410157 V 23.324222 A 0.80000001,0.80000001 0 0 0 24.707995,22.52344 Z m 4.5625,1.605469 a 0.80000001,0.80000001 0 0 0 -0.798828,0.800781 0.80000001,0.80000001 0 0 0 0.798828,0.798828 h 1.587891 c 0.296638,0 0.49744,0.140451 0.734375,0.572266 0.236935,0.431815 0.397751,1.112148 0.404297,1.791016 0.0065,0.678867 -0.142302,1.354138 -0.371094,1.773437 -0.228792,0.4193 -0.415291,0.558483 -0.757813,0.554688 a 0.80008001,0.80008001 0 0 0 -0.0098,0 h -6.177735 c -0.477212,0 -0.948528,0.129238 -1.351562,0.427734 -0.403035,0.298496 -0.724609,0.82349 -0.724609,1.412109 v 0.589844 a 0.80000001,0.80000001 0 0 0 0.800781,0.798828 0.80000001,0.80000001 0 0 0 0.798828,-0.798828 v -0.589844 c 0,-0.07192 1.01e-4,-0.06866 0.07617,-0.125 0.07607,-0.05634 0.241063,-0.115234 0.40039,-0.115234 h 6.169922 c 0.979588,0.01085 1.768376,-0.631296 2.181641,-1.388672 0.413264,-0.757375 0.573106,-1.65733 0.564453,-2.554687 -0.0087,-0.897358 -0.186888,-1.792737 -0.599609,-2.544922 -0.412721,-0.752185 -1.173996,-1.402344 -2.138672,-1.402344 z m -4.335937,10.21875 a 0.75252908,0.7546072 0 0 0 -0.738282,0.753906 0.75252908,0.7546072 0 0 0 0.753907,0.753907 0.75252908,0.7546072 0 0 0 0.751953,-0.753907 0.75252908,0.7546072 0 0 0 -0.751953,-0.753906 0.75252908,0.7546072 0 0 0 -0.01563,0 z" fill="#008055"/>
</svg>
