<svg xmlns="http://www.w3.org/2000/svg" width="48" height="48">
	<path d="m 14.80957,2.7343748 c -1.586185,0 -3.027503,0.4548327 -4.09375,1.3574219 C 9.649573,4.9943859 9.006836,6.3568554 9.006836,7.9042972 V 40.074218 c 0,1.681492 0.620337,3.087955 1.707031,3.966797 1.086694,0.878842 2.524938,1.22461 4.095703,1.22461 h 18.994141 c 1.547195,0 2.892888,-0.534021 3.810547,-1.486328 0.917658,-0.952309 1.378906,-2.27403 1.378906,-3.705079 V 12.804687 c 0,-1.577084 -0.452886,-2.9306718 -1.398437,-3.8496088 -0.945552,-0.918938 -2.284717,-1.320313 -3.791016,-1.320313 h -7.523438 a 1,1 0 0 0 -1,1 1,1 0 0 0 1,1 h 7.523438 c 1.16169,0 1.916536,0.287522 2.398437,0.7558598 0.481901,0.468337 0.791016,1.200286 0.791016,2.414062 v 27.269531 c 0,1.012842 -0.307471,1.786154 -0.820313,2.31836 -0.512841,0.532205 -1.260495,0.873047 -2.36914,0.873047 H 14.80957 c -1.271475,0 -2.234604,-0.293355 -2.83789,-0.78125 -0.603286,-0.487896 -0.964844,-1.176658 -0.964844,-2.410157 V 7.9042972 c 0,-1.0269802 0.363509,-1.748314 1,-2.2871099 0.63649,-0.5387958 1.59763,-0.8828125 2.802734,-0.8828125 h 18.751953 a 1,1 0 0 0 1,-1 1,1 0 0 0 -1,-1 z M 25.782227,23.236328 c -1.337835,0 -2.523601,0.741571 -3.302735,1.847656 a 0.89999998,0.89999998 0 0 0 0.216797,1.253906 0.89999998,0.89999998 0 0 0 1.253906,-0.216797 c 0.519286,-0.737195 1.139384,-1.085937 1.832032,-1.085937 0.692616,0 1.312745,0.348745 1.832031,1.085937 0.519285,0.737193 0.880859,1.859781 0.880859,3.205078 0,1.339571 -0.369757,2.407885 -0.888672,3.105469 -0.518914,0.697584 -1.145815,1.025391 -1.824218,1.025391 -0.678402,0 -1.3053,-0.327811 -1.824219,-1.025391 a 0.89999998,0.89999998 0 0 0 -1.257813,-0.185547 0.89999998,0.89999998 0 0 0 -0.185547,1.259766 c 0.793861,1.06718 1.972938,1.751953 3.267579,1.751953 1.294636,0 2.473722,-0.684762 3.267578,-1.751953 0.793855,-1.067191 1.24414,-2.512996 1.24414,-4.179688 0,-1.660962 -0.429849,-3.136105 -1.208984,-4.242187 -0.779135,-1.106082 -1.964912,-1.847656 -3.302734,-1.847656 z m -4.875,0.04102 a 0.89999998,0.89999998 0 0 0 -0.900391,0.898438 V 41.10352 a 0.89999998,0.89999998 0 0 0 0.900391,0.900391 0.89999998,0.89999998 0 0 0 0.898437,-0.900391 V 24.175781 a 0.89999998,0.89999998 0 0 0 -0.898437,-0.898438 z m -4.851563,8.589844 a 1.7764144,1.7764144 0 0 0 -1.777344,1.775391 1.7764144,1.7764144 0 0 0 1.777344,1.777343 1.7764144,1.7764144 0 0 0 1.777344,-1.777343 1.7764144,1.7764144 0 0 0 -1.777344,-1.775391 z" fill="#008055"/>
</svg>
