<svg xmlns="http://www.w3.org/2000/svg" width="48" height="48">
	<path d="m 14.808594,2.7343749 c -1.586186,0 -3.025548,0.4548334 -4.091797,1.3574218 -1.0662495,0.9025885 -1.7089845,2.2650579 -1.7089845,3.8125 V 40.074218 c 0,1.681493 0.6203349,3.087956 1.7070315,3.966797 1.086696,0.878842 2.522985,1.22461 4.09375,1.22461 h 18.996094 c 1.547187,0 2.892887,-0.534023 3.810547,-1.486328 0.91766,-0.952306 1.376953,-2.274026 1.376953,-3.705079 V 12.804687 c 0,-1.577084 -0.450931,-2.9306721 -1.396485,-3.849609 C 36.65015,8.0361411 35.310987,7.6347655 33.804688,7.6347655 h -7.525391 a 1,1 0 0 0 -1,1 1,1 0 0 0 1,1 h 7.525391 c 1.16169,0 1.916534,0.2875212 2.398437,0.7558595 0.481904,0.468338 0.789063,1.200287 0.789063,2.414062 v 27.269531 c 0,1.012839 -0.305515,1.786153 -0.818359,2.31836 -0.512845,0.532207 -1.260508,0.873047 -2.369141,0.873047 H 14.808594 c -1.271475,0 -2.232649,-0.293354 -2.835938,-0.78125 -0.603289,-0.487896 -0.964844,-1.176659 -0.964844,-2.410157 V 7.9042967 c 0,-1.0269779 0.363507,-1.7483128 1,-2.2871094 0.636494,-0.5387964 1.595677,-0.8828124 2.800782,-0.8828124 H 33.5625 a 1,1 0 0 0 1,-1 1,1 0 0 0 -1,-1 z m 9.138672,20.5507811 c -0.677802,0.0044 -1.336164,0.155746 -1.910157,0.451172 -1.545784,0.777291 -2.305377,2.713632 -1.439453,4.316406 l 0.01953,0.03711 0.02539,0.03711 c 0.664588,0.988402 1.781201,1.577784 3.171875,1.765625 1.11764,0.150907 1.726083,0.382422 2.169922,1.070312 0.225083,0.385155 0.229991,0.761712 0.07031,1.167969 -0.159384,0.405507 -0.509634,0.794057 -0.904297,1.005859 -0.499484,0.245252 -1.290902,0.415606 -1.976562,0.322266 -0.689071,-0.0938 -1.244658,-0.371099 -1.632813,-1.072266 a 0.89999998,0.89999998 0 0 0 -1.22461,-0.351562 0.89999998,0.89999998 0 0 0 -0.351562,1.222656 c 0.675404,1.220054 1.853311,1.832794 2.966797,1.984375 1.113486,0.151581 2.188596,-0.0786 3.027344,-0.49414 l 0.0098,-0.0039 0.0098,-0.0059 c 0.796287,-0.418971 1.420626,-1.109265 1.75,-1.947266 0.329374,-0.838 0.330976,-1.868533 -0.197266,-2.757812 l -0.0059,-0.01172 -0.0078,-0.0098 c -0.797001,-1.256308 -2.130601,-1.722453 -3.462891,-1.902343 -1.035266,-0.139836 -1.517382,-0.441248 -1.875001,-0.947266 -0.341916,-0.678987 -0.03269,-1.470544 0.666016,-1.820312 l 0.0059,-0.002 0.0059,-0.0039 c 0.355286,-0.183816 0.980852,-0.297305 1.527344,-0.222656 0.546492,0.07465 0.967834,0.300899 1.181641,0.630859 a 0.89999998,0.89999998 0 0 0 1.24414,0.265625 0.89999998,0.89999998 0 0 0 0.265625,-1.24414 c -0.575143,-0.8876 -1.532608,-1.310608 -2.447265,-1.435547 -0.227968,-0.03114 -0.455707,-0.0464 -0.681641,-0.04492 z m -7.908204,8.582031 a 1.7764144,1.7764144 0 0 0 -1.77539,1.775391 1.7764144,1.7764144 0 0 0 1.77539,1.777344 1.7764144,1.7764144 0 0 0 1.777344,-1.777344 1.7764144,1.7764144 0 0 0 -1.777344,-1.775391 z" fill="#008055"/>
</svg>
