<svg xmlns="http://www.w3.org/2000/svg" width="48" height="48">
	<path d="m 14.80957,2.7353517 c -1.586185,0 -3.027503,0.4528796 -4.09375,1.3554687 C 9.6495732,4.9934096 9.0068358,6.3578328 9.0068358,7.9052735 V 40.073242 c 0,1.681492 0.6203349,3.087956 1.7070312,3.966797 1.086696,0.878841 2.524938,1.224609 4.095703,1.224609 h 18.994141 c 1.547191,0 2.892887,-0.532068 3.810547,-1.484375 0.917659,-0.952306 1.378906,-2.275981 1.378906,-3.707031 V 12.803711 c 0,-1.577085 -0.452884,-2.9287193 -1.398438,-3.8476562 C 36.649172,8.0371179 35.31001,7.6337892 33.803711,7.6337892 h -7.523438 a 1,1 0 0 0 -1,1 1,1 0 0 0 1,1 h 7.523438 c 1.16169,0 1.916534,0.2875213 2.398437,0.7558588 0.481904,0.468339 0.791016,1.200288 0.791016,2.414063 v 27.269531 c 0,1.01284 -0.305516,1.786153 -0.81836,2.318359 -0.512843,0.532206 -1.262454,0.873047 -2.371093,0.873047 H 14.80957 c -1.271475,0 -2.234602,-0.2914 -2.837891,-0.779297 -0.603288,-0.487896 -0.964843,-1.178611 -0.964843,-2.412109 V 7.9052735 c 0,-1.0269791 0.363509,-1.7483135 1,-2.2871093 0.63649,-0.5387959 1.597629,-0.8828125 2.802734,-0.8828125 h 18.751953 a 1,1 0 0 0 1,-1 1,1 0 0 0 -1,-1 z m 8.951172,20.5039063 a 0.89999998,0.89999998 0 0 0 -0.900391,0.90039 v 3.914063 l -3.396484,-1.957032 a 0.89999998,0.89999998 0 0 0 -0.457031,-0.121093 0.89999998,0.89999998 0 0 0 -0.771485,0.451172 0.89999998,0.89999998 0 0 0 0.330078,1.228515 l 3.392579,1.957032 -3.392579,1.955078 a 0.89999998,0.89999998 0 0 0 -0.330078,1.228515 0.89999998,0.89999998 0 0 0 1.228516,0.330078 l 3.396484,-1.957031 v 3.914063 a 0.89999998,0.89999998 0 0 0 0.900391,0.90039 0.89999998,0.89999998 0 0 0 0.898437,-0.90039 v -3.914063 l 3.396485,1.957031 a 0.89999998,0.89999998 0 0 0 1.228515,-0.330078 0.89999998,0.89999998 0 0 0 -0.330078,-1.228515 l -3.392578,-1.957032 3.392578,-1.955078 a 0.89999998,0.89999998 0 0 0 0.330078,-1.228515 0.89999998,0.89999998 0 0 0 -0.792968,-0.451172 0.89999998,0.89999998 0 0 0 -0.435547,0.121093 l -3.396485,1.957032 v -3.914063 a 0.89999998,0.89999998 0 0 0 -0.898437,-0.90039 z m -8.939453,8.626953 a 1.7764144,1.7764144 0 0 0 -1.775391,1.777344 1.7764144,1.7764144 0 0 0 1.775391,1.77539 1.7764144,1.7764144 0 0 0 1.777343,-1.77539 1.7764144,1.7764144 0 0 0 -1.777343,-1.777344 z" fill="#008055"/>
</svg>
