<svg xmlns="http://www.w3.org/2000/svg" width="48" height="48">
	<path d="m 14.808594,2.7353515 c -1.586186,0 -3.027503,0.4528796 -4.09375,1.3554688 C 9.6485966,4.9934093 9.0078124,6.3578326 9.0078124,7.9052734 V 40.075195 c 0,1.681492 0.6183818,3.086003 1.7050786,3.964844 1.086696,0.878842 2.524938,1.224609 4.095703,1.224609 h 18.994141 c 1.547191,0 2.892887,-0.532069 3.810546,-1.484375 0.91766,-0.952306 1.378907,-2.274028 1.378907,-3.705078 V 12.805664 c 0,-1.577085 -0.450932,-2.9306725 -1.396485,-3.8496094 C 36.650151,8.0371178 35.30903,7.6357421 33.802735,7.6357421 h -7.523438 a 1,1 0 0 0 -1,1 1,1 0 0 0 1,1 h 7.523438 c 1.161684,0 1.916534,0.2855681 2.398437,0.7539059 0.481903,0.468339 0.791016,1.202241 0.791016,2.416016 v 27.269531 c 0,1.01284 -0.305516,1.7842 -0.81836,2.316407 -0.512843,0.532206 -1.262454,0.873046 -2.371093,0.873046 H 14.808594 c -1.271475,0 -2.234602,-0.291401 -2.837891,-0.779296 -0.603289,-0.487896 -0.962891,-1.17666 -0.962891,-2.410157 V 7.9052734 c 0,-1.0269792 0.36351,-1.7483136 1,-2.2871094 0.636491,-0.5387958 1.595677,-0.8828125 2.800782,-0.8828125 h 18.751953 a 1,1 0 0 0 1,-1 1,1 0 0 0 -1,-1 z m 9.21875,20.5605465 c -2.998776,0 -5.291016,2.697922 -5.291016,6.085938 0,3.401955 2.385842,5.927734 5.291016,5.927734 2.905174,0 5.291016,-2.525777 5.291016,-5.927734 0,-3.388013 -2.292224,-6.085938 -5.291016,-6.085938 z m 0,1.798829 c 1.938188,0 3.492187,1.667201 3.492187,4.287109 0,2.605964 -1.600001,4.128906 -3.492187,4.128906 -1.892186,0 -3.490234,-1.522941 -3.490234,-4.128906 0,-2.619905 1.55207,-4.287109 3.490234,-4.287109 z m -7.988282,6.771484 a 1.7764144,1.7764144 0 0 0 -1.777343,1.777344 1.7764144,1.7764144 0 0 0 1.777343,1.77539 1.7764144,1.7764144 0 0 0 1.775391,-1.77539 1.7764144,1.7764144 0 0 0 -1.775391,-1.777344 z" fill="#008055"/>
</svg>
