<svg xmlns="http://www.w3.org/2000/svg" width="48" height="48">
	<path d="m 14.808595,2.7343749 c -1.586186,0 -3.025551,0.4548327 -4.091798,1.3574218 -1.0662465,0.9025892 -1.7089845,2.2650592 -1.7089845,3.8125 V 40.074218 c 0,1.681493 0.620335,3.087956 1.7070325,3.966797 1.086696,0.878842 2.522985,1.22461 4.09375,1.22461 h 18.996093 c 1.54719,0 2.892887,-0.534022 3.810546,-1.486328 0.91766,-0.952307 1.376954,-2.274028 1.376954,-3.705079 V 12.804687 c 0,-1.577084 -0.45093,-2.9306721 -1.396485,-3.849609 C 36.650149,8.0361411 35.310987,7.6347655 33.804688,7.6347655 h -7.525391 a 1,1 0 0 0 -1,1 1,1 0 0 0 1,1 h 7.525391 c 1.16169,0 1.916533,0.2875212 2.398437,0.7558595 0.481904,0.468338 0.789063,1.200287 0.789063,2.414062 v 27.269531 c 0,1.01284 -0.305517,1.786154 -0.81836,2.31836 -0.512842,0.532206 -1.260502,0.873047 -2.36914,0.873047 H 14.808595 c -1.271476,0 -2.23265,-0.293354 -2.835939,-0.78125 -0.603289,-0.487896 -0.964844,-1.176659 -0.964844,-2.410157 V 7.9042967 c 0,-1.0269792 0.363511,-1.7483134 1,-2.2871094 0.636491,-0.5387958 1.595677,-0.8828124 2.800783,-0.8828124 H 33.5625 a 1,1 0 0 0 1,-1 1,1 0 0 0 -1,-1 z m 9.261718,13.8183591 a 0.89999998,0.89999998 0 0 0 -0.900391,0.900391 v 16.925781 a 0.89999998,0.89999998 0 0 0 0.900391,0.900391 0.89999998,0.89999998 0 0 0 0.90039,-0.900391 V 17.453125 a 0.89999998,0.89999998 0 0 0 -0.90039,-0.900391 z m -6.134766,15.314453 a 1.7764144,1.7764144 0 0 0 -1.777344,1.775391 1.7764144,1.7764144 0 0 0 1.777344,1.777344 1.7764144,1.7764144 0 0 0 1.775391,-1.777344 1.7764144,1.7764144 0 0 0 -1.775391,-1.775391 z" fill="#008055"/>
</svg>
