<svg xmlns="http://www.w3.org/2000/svg" width="48" height="48">
	<path d="m 14.808594,2.734375 c -1.586185,0 -3.02555,0.4548328 -4.091797,1.3574219 C 9.6505498,4.9943858 9.0078127,6.3568561 9.0078127,7.9042971 V 40.074219 c 0,1.681491 0.6203357,3.086001 1.7070313,3.964843 1.086695,0.878842 2.522981,1.226563 4.09375,1.226563 h 18.996093 c 1.547191,0 2.892888,-0.534022 3.810547,-1.486328 0.91766,-0.952307 1.376953,-2.274028 1.376953,-3.705078 V 12.804687 c 0,-1.577084 -0.45093,-2.9306719 -1.396484,-3.8496089 -0.945554,-0.918937 -2.284716,-1.320313 -3.791016,-1.320313 h -7.52539 a 1,1 0 0 0 -1,1 1,1 0 0 0 1,1 h 7.52539 c 1.161691,0 1.914581,0.2875219 2.396485,0.7558599 0.481903,0.468338 0.791015,1.200287 0.791015,2.414062 v 27.269532 c 0,1.012839 -0.305516,1.786153 -0.818359,2.318359 -0.512843,0.532206 -1.260502,0.873047 -2.369141,0.873047 H 14.808594 c -1.271481,0 -2.234604,-0.293355 -2.837891,-0.78125 -0.603287,-0.487896 -0.96289,-1.176658 -0.96289,-2.410156 V 7.9042971 c 0,-1.0269791 0.363509,-1.7483141 1,-2.2871097 0.63649,-0.5387959 1.595676,-0.8828125 2.800781,-0.8828125 H 33.5625 a 1,1 0 0 0 1,-1 1,1 0 0 0 -1,-1 z m 6.986328,16.058594 c -0.693526,0 -1.351148,0.337547 -1.75,0.849609 -0.398853,0.512062 -0.572266,1.154999 -0.572266,1.830078 0,2.811937 2.062536,5.342216 3.904297,7.351563 1.757496,1.917425 3.431641,4.284763 3.431641,6.134765 0,0.359499 -0.09868,0.605566 -0.191407,0.72461 -0.09273,0.119043 -0.145608,0.154297 -0.330078,0.154297 h -4.410156 c -0.277985,0 -0.295776,-0.03947 -0.365234,-0.132813 -0.06946,-0.09334 -0.164063,-0.343288 -0.164063,-0.746094 0,-1.979903 0.738781,-3.079277 1.890625,-4.335937 a 0.89999503,0.89999503 0 0 0 -0.05664,-1.271485 0.89999503,0.89999503 0 0 0 -1.271484,0.05469 c -1.272761,1.38858 -2.363281,3.079638 -2.363281,5.552734 0,0.650654 0.122869,1.289225 0.519531,1.822266 0.396662,0.53304 1.094383,0.857422 1.810547,0.857422 h 4.410156 c 0.693526,0 1.351146,-0.337548 1.75,-0.84961 0.398855,-0.512061 0.572266,-1.154997 0.572266,-1.830078 0,-2.811938 -2.064493,-5.342208 -3.90625,-7.351562 -1.757495,-1.917414 -3.431641,-4.284762 -3.431641,-6.134766 0,-0.359501 0.100636,-0.605567 0.19336,-0.724609 0.09272,-0.119043 0.145608,-0.154297 0.330078,-0.154297 h 4.410156 c 0.277983,0 0.295775,0.03947 0.365234,0.132812 0.06946,0.09334 0.164063,0.34329 0.164063,0.746094 0,1.974702 -0.738406,2.948184 -1.910156,4.226563 a 0.89999503,0.89999503 0 0 0 0.05469,1.271484 0.89999503,0.89999503 0 0 0 1.271484,-0.05469 c 1.252871,-1.366881 2.382813,-2.965081 2.382813,-5.443359 0,-0.650655 -0.122869,-1.289226 -0.519531,-1.822265 -0.396663,-0.53304 -1.092431,-0.857422 -1.808594,-0.857422 z" fill="#008055"/>
</svg>
