<svg xmlns="http://www.w3.org/2000/svg" width="48" height="48">
	<path d="m 14.808594,2.7353514 c -1.586185,0 -3.027503,0.4528795 -4.09375,1.3554687 C 9.6485965,4.9934096 9.0078125,6.3578326 9.0078125,7.9052736 V 40.075195 c 0,1.681492 0.618382,3.086002 1.7050785,3.964844 1.086694,0.878842 2.524934,1.22461 4.095703,1.22461 h 18.99414 c 1.547191,0 2.892888,-0.532069 3.810547,-1.484375 0.917659,-0.952307 1.378907,-2.274028 1.378907,-3.705079 V 12.805664 c 0,-1.577085 -0.450931,-2.9306724 -1.396485,-3.8496094 -0.945554,-0.918937 -2.28667,-1.320313 -3.792969,-1.320313 h -7.523437 a 1,1 0 0 0 -1,1 1,1 0 0 0 1,1 h 7.523437 c 1.16169,0 1.916534,0.285569 2.398438,0.7539074 0.481904,0.468338 0.791016,1.20224 0.791016,2.416015 v 27.269531 c 0,1.01284 -0.305518,1.784201 -0.81836,2.316407 -0.512844,0.532206 -1.262456,0.873047 -2.371094,0.873047 h -18.99414 c -1.271482,0 -2.234605,-0.291402 -2.837891,-0.779297 -0.603288,-0.487896 -0.962891,-1.176657 -0.962891,-2.410157 V 7.9052736 c 0,-1.02698 0.36351,-1.748314 1,-2.28711 0.636491,-0.538796 1.595677,-0.882812 2.800782,-0.882812 h 18.751953 a 1,1 0 0 0 1,-1.0000002 1,1 0 0 0 -1,-1 z M 26.75,23.528321 a 0.89999998,0.89999998 0 0 0 -0.564453,0.214843 0.89999998,0.89999998 0 0 0 -0.09961,1.269531 l 2.574218,3.011719 -2.574218,3.013672 a 0.89999998,0.89999998 0 0 0 0.09961,1.269531 0.89999998,0.89999998 0 0 0 1.269531,-0.09961 l 2.388672,-2.796875 2.388672,2.796875 a 0.89999998,0.89999998 0 0 0 1.269531,0.09961 0.89999998,0.89999998 0 0 0 0.09961,-1.269531 l -2.574219,-3.013672 2.574219,-3.011719 a 0.89999998,0.89999998 0 0 0 -0.09961,-1.269531 0.89999998,0.89999998 0 0 0 -0.585937,-0.214843 0.89999998,0.89999998 0 0 0 -0.683594,0.314453 L 29.84375,26.639649 27.455078,23.842774 A 0.89999998,0.89999998 0 0 0 26.75,23.528321 Z m -12.398438,0.113281 a 0.89999998,0.89999998 0 0 0 -0.90039,0.898437 0.89999998,0.89999998 0 0 0 0.90039,0.900391 h 2.388672 v 6.296875 a 0.89999998,0.89999998 0 0 0 0.900391,0.898437 0.89999998,0.89999998 0 0 0 0.898438,-0.898437 V 25.44043 h 2.474609 a 0.89999998,0.89999998 0 0 0 0.900391,-0.900391 0.89999998,0.89999998 0 0 0 -0.900391,-0.898437 z m 6.613282,3.515625 a 0.90008998,0.90008998 0 0 0 -0.900391,0.90039 v 7.195313 a 0.90008998,0.90008998 0 0 0 0.900391,0.900391 H 25.4375 A 0.89999998,0.89999998 0 0 0 26.337891,35.25293 0.89999998,0.89999998 0 0 0 25.4375,34.352539 h -3.572266 v -1.822265 h 2.431641 a 0.89999998,0.89999998 0 0 0 0.898438,-0.900391 0.89999998,0.89999998 0 0 0 -0.898438,-0.900391 h -2.431641 v -1.773437 l 3.572266,0.002 a 0.89999998,0.89999998 0 0 0 0.900391,-0.900391 0.89999998,0.89999998 0 0 0 -0.900391,-0.90039 z" fill="#008055"/>
</svg>
