<svg xmlns="http://www.w3.org/2000/svg" width="48" height="48">
	<path d="m 14.808594,2.7343751 c -1.586186,0 -3.027504,0.4548328 -4.09375,1.3574219 -1.0662474,0.9025892 -1.7070317,2.2650592 -1.7070317,3.8125 v 32.169922 c 0,1.681491 0.6183826,3.087955 1.7050777,3.966797 1.086696,0.878842 2.524934,1.224609 4.095704,1.224609 h 18.99414 c 1.547191,0 2.892888,-0.534021 3.810547,-1.486328 0.91766,-0.952306 1.378907,-2.274028 1.378907,-3.705078 V 12.804688 c 0,-1.577085 -0.450931,-2.9306728 -1.396485,-3.8496097 C 36.650149,8.0361414 35.309034,7.6347658 33.802734,7.6347658 h -7.523437 a 1,1 0 0 0 -1,1 1,1 0 0 0 1,1 h 7.523437 c 1.161691,0 1.916534,0.2875212 2.398438,0.7558592 0.481903,0.468338 0.791016,1.200287 0.791016,2.414063 v 27.269531 c 0,1.01284 -0.305517,1.786153 -0.81836,2.318359 -0.512843,0.532206 -1.262455,0.873047 -2.371094,0.873047 h -18.99414 c -1.271481,0 -2.234604,-0.293354 -2.837891,-0.78125 -0.603287,-0.487895 -0.962891,-1.176657 -0.962891,-2.410156 V 7.904297 c 0,-1.0269792 0.36351,-1.7483136 1,-2.2871093 0.636491,-0.538796 1.595677,-0.8828126 2.800782,-0.8828126 h 18.751953 a 1,1 0 0 0 1,-1 1,1 0 0 0 -1,-1 z M 21.607422,18.75586 c -0.145914,-0.007 -0.29515,0.0079 -0.447266,0.05078 -0.608463,0.171527 -0.972952,0.738322 -1.09375,1.285156 l -0.55664,2.441406 c -0.06159,0.264859 -0.148686,0.405211 -0.242188,0.494141 -0.0938,0.08921 -0.21895,0.164147 -0.511719,0.199219 a 0.90008998,0.90008998 0 0 0 -0.0078,0 l -2.464844,0.320312 c -0.0014,1.42e-4 -0.0025,0.0018 -0.0039,0.002 -0.548652,0.05666 -1.131643,0.320549 -1.398438,0.910157 -0.267476,0.591114 -0.03807,1.282665 0.361329,1.728515 l -0.0332,-0.03906 1.544922,1.939453 c 0.308965,0.417742 0.345596,0.606114 0.08008,1.0625 0,0 0,0.002 0,0.002 l -1.291015,2.132812 c 0,0 -0.002,0.002 -0.002,0.002 v 0.002 c -0.260437,0.427361 -0.510059,0.977481 -0.212891,1.617187 0.148992,0.320732 0.446711,0.563112 0.732422,0.679688 0.285711,0.116576 0.56879,0.14565 0.867187,0.142578 h 2.285157 a 0.89999998,0.89999998 0 0 0 0.90039,-0.900391 0.89999998,0.89999998 0 0 0 -0.90039,-0.898437 h -1.955079 l 1.123047,-1.857422 a 0.90008998,0.90008998 0 0 0 0.0078,-0.01367 c 0.575756,-0.98768 0.438549,-2.199495 -0.1875,-3.044922 a 0.90008998,0.90008998 0 0 0 -0.01953,-0.02539 l -1.351563,-1.697266 2.140625,-0.277344 c 0,0 0.002,0 0.002,0 0.589035,-0.07091 1.135201,-0.301338 1.53711,-0.683594 0.402334,-0.382661 0.635438,-0.882216 0.753906,-1.394531 a 0.90008998,0.90008998 0 0 0 0.002,-0.002 l 0.480469,-2.117188 1.542968,1.492188 c 0.415398,0.424707 0.940004,0.709879 1.488282,0.783203 0.548278,0.07332 1.074813,-0.05106 1.550781,-0.261719 a 0.90008998,0.90008998 0 0 0 0.02734,-0.01367 l 1.953125,-0.941406 -0.205078,2.160156 a 0.90008998,0.90008998 0 0 0 -0.0039,0.0332 c -0.05845,0.973373 0.405824,2.160444 1.542969,2.669922 l 1.931641,0.929687 -1.810547,1.183594 c -0.464367,0.297616 -0.857572,0.705592 -1.064453,1.21875 -0.206881,0.513158 -0.211894,1.073878 -0.103516,1.623047 a 0.90008998,0.90008998 0 0 0 0.0039,0.02539 l 0.482422,2.115235 -2.05664,-0.679688 a 0.90008998,0.90008998 0 0 0 -0.0293,-0.0098 c -1.030272,-0.303443 -2.192856,0.02042 -2.914063,0.867187 a 0.90008998,0.90008998 0 0 0 -0.01758,0.02344 l -1.35552,1.701063 -0.677734,-1.740234 a 0.89999998,0.89999998 0 0 0 -1.166016,-0.511719 0.89999998,0.89999998 0 0 0 -0.511718,1.166016 l 0.794922,2.039062 a 0.90008998,0.90008998 0 0 0 0.0098,0.02539 c 0.198434,0.467591 0.521103,0.974981 1.179688,1.107422 0.658584,0.132441 1.214489,-0.2658 1.564453,-0.697266 a 0.90008998,0.90008998 0 0 0 0.0039,-0.0059 l 1.550781,-1.941406 c 0.390351,-0.457779 0.467155,-0.472781 1.03125,-0.306641 l 2.353516,0.779297 a 0.90008998,0.90008998 0 0 0 0.0293,0.0098 c 0.51239,0.149702 1.135407,0.239549 1.664062,-0.228515 0.264328,-0.234032 0.402604,-0.572324 0.439453,-0.861328 0.03685,-0.289004 4.73e-4,-0.55059 -0.06445,-0.816407 l -0.548828,-2.410156 c -0.06352,-0.321871 -0.0387,-0.489092 0.0059,-0.599609 0.04456,-0.110517 0.122091,-0.221822 0.367187,-0.378906 a 0.90008998,0.90008998 0 0 0 0.0078,-0.0039 l 2.099609,-1.36914 0.002,-0.002 c 0.439037,-0.285489 0.838339,-0.75524 0.830078,-1.392579 -0.0083,-0.636902 -0.484693,-1.150625 -1.011719,-1.402343 l -0.0039,-0.002 -2.257812,-1.087891 a 0.90008998,0.90008998 0 0 0 -0.02148,-0.01172 c -0.46491,-0.208295 -0.511554,-0.427642 -0.482422,-0.916015 0,0 0,-0.002 0,-0.002 l 0.236328,-2.46875 a 0.90008998,0.90008998 0 0 0 0.002,-0.0078 c 0.04423,-0.505269 -0.0053,-1.110917 -0.541016,-1.537109 -0.533889,-0.424743 -1.233721,-0.31201 -1.757812,-0.05664 h -0.002 c -0.0012,6.05e-4 -0.0027,0.0013 -0.0039,0.002 l -2.230595,1.076253 c 0,0 -0.002,0 -0.002,0 -0.269013,0.118682 -0.453229,0.142225 -0.582031,0.125 -0.129215,-0.01728 -0.247225,-0.06123 -0.441406,-0.259766 a 0.90008998,0.90008998 0 0 0 -0.01758,-0.01758 l -1.804688,-1.74414 a 0.90008998,0.90008998 0 0 0 -0.0098,-0.01172 c -0.296869,-0.277886 -0.697026,-0.498656 -1.134766,-0.519531 z m 6.734375,2.779296 v 0.0078 c 0,0 -0.002,0 -0.002,0 z m -4.300781,2.585938 a 0.89999998,0.89999998 0 0 0 -0.900391,0.900391 v 4.039062 a 0.89999998,0.89999998 0 0 0 0.900391,0.900391 0.89999998,0.89999998 0 0 0 0.90039,-0.900391 v -4.039062 a 0.89999998,0.89999998 0 0 0 -0.90039,-0.900391 z m -0.0078,6.392578 a 1.0542278,1.0548291 0 0 0 -1.039062,1.054688 1.0542278,1.0548291 0 0 0 1.054687,1.054687 1.0542278,1.0548291 0 0 0 1.054688,-1.054687 1.0542278,1.0548291 0 0 0 -1.054688,-1.054688 1.0542278,1.0548291 0 0 0 -0.01563,0 z" fill="#008055"/>
</svg>
