<svg xmlns="http://www.w3.org/2000/svg" width="48" height="48">
	<path d="m 14.809571,2.7353514 c -1.586186,0 -3.027503,0.4528795 -4.09375,1.3554687 C 9.6495734,4.9934096 9.0068362,6.3578326 9.0068362,7.9052736 V 40.075196 c 0,1.681491 0.6203345,3.086002 1.7070318,3.964843 1.086696,0.878842 2.524938,1.22461 4.095703,1.22461 h 18.99414 c 1.547196,0 2.892886,-0.532069 3.810547,-1.484375 0.917661,-0.952307 1.378906,-2.274029 1.378906,-3.705078 V 12.805664 c 0,-1.577085 -0.452881,-2.9306724 -1.398437,-3.8496094 -0.945556,-0.918937 -2.284712,-1.320313 -3.791016,-1.320313 h -7.523437 a 1,1 0 0 0 -1,1 1,1 0 0 0 1,1 h 7.523437 c 1.161697,0 1.916533,0.285569 2.398438,0.7539074 0.481904,0.468338 0.791015,1.20224 0.791015,2.416015 v 27.269532 c 0,1.012838 -0.305515,1.7842 -0.818359,2.316406 -0.512844,0.532206 -1.262449,0.873047 -2.371094,0.873047 h -18.99414 c -1.271475,0 -2.234602,-0.291401 -2.837891,-0.779297 -0.603289,-0.487896 -0.964844,-1.17666 -0.964844,-2.410156 V 7.9052736 c 0,-1.02698 0.36351,-1.748314 1,-2.28711 0.636491,-0.538796 1.59763,-0.882812 2.802735,-0.882812 h 18.751953 a 1,1 0 0 0 1,-1.0000002 1,1 0 0 0 -1,-1 z M 23.899414,18.94043 c -2.293338,0 -4.370487,0.33261 -5.96289,0.917969 -0.796202,0.292679 -1.475477,0.643588 -2.013672,1.111328 -0.538195,0.467739 -0.96875,1.121774 -0.96875,1.892578 0,0.770804 0.430555,1.422885 0.96875,1.890625 0.538195,0.46774 1.21747,0.818649 2.013672,1.111328 1.592403,0.585358 3.669552,0.917969 5.96289,0.917969 2.293339,0 4.370488,-0.332611 5.962891,-0.917969 0.796202,-0.292679 1.475477,-0.643588 2.013672,-1.111328 0.538195,-0.46774 0.96875,-1.119821 0.96875,-1.890625 0,-0.770804 -0.430555,-1.424839 -0.96875,-1.892578 -0.538195,-0.46774 -1.21747,-0.818649 -2.013672,-1.111328 C 28.269902,19.27304 26.192753,18.94043 23.899414,18.94043 Z m 0,2 c 2.094677,0 3.990243,0.323227 5.273438,0.794922 0.641597,0.235847 1.124721,0.513046 1.390625,0.74414 0.265904,0.231095 0.28125,0.347113 0.28125,0.382813 0,0.0357 -0.01535,0.149765 -0.28125,0.380859 -0.265904,0.231095 -0.749028,0.508293 -1.390625,0.744141 -1.283195,0.471695 -3.178761,0.794922 -5.273438,0.794922 -2.094675,0 -3.990242,-0.323227 -5.273437,-0.794922 -0.641597,-0.235848 -1.126674,-0.513046 -1.392578,-0.744141 -0.265904,-0.231094 -0.279297,-0.345159 -0.279297,-0.380859 0,-0.0357 0.01339,-0.151718 0.279297,-0.382813 0.265904,-0.231094 0.750981,-0.508293 1.392578,-0.74414 1.283195,-0.471695 3.178762,-0.794922 5.273437,-0.794922 z m 8.234376,5.207031 a 1,1 0 0 0 -1.414063,0.0293 1,1 0 0 0 0.0293,1.414062 c 0.194321,0.186603 0.213762,0.286986 0.216797,0.3125 0.003,0.02551 0.01643,0.04908 -0.08789,0.1875 -0.208644,0.276843 -0.974785,0.797883 -2.232422,1.160157 -2.515274,0.724548 -6.262141,0.767819 -8.910156,0.0918 -1.324007,-0.338011 -2.199088,-0.840717 -2.501953,-1.167969 -0.151433,-0.163626 -0.15741,-0.238882 -0.158203,-0.259766 -7.94e-4,-0.02088 -0.01152,-0.06787 0.130859,-0.232422 a 1,1 0 0 0 -0.103519,-1.412115 1,1 0 0 0 -1.410157,0.103516 c -0.385948,0.446066 -0.637842,1.022041 -0.615234,1.617187 0.02261,0.595146 0.304949,1.127662 0.6875,1.541016 0.765102,0.826708 1.937144,1.355042 3.476562,1.748047 1.539419,0.393004 3.284795,0.580702 5.017579,0.5625 1.732783,-0.0182 3.453018,-0.241741 4.939453,-0.669922 1.486434,-0.428182 2.600692,-0.981083 3.277343,-1.878906 0.338326,-0.448912 0.546736,-1.036966 0.476563,-1.626954 -0.07017,-0.589987 -0.389511,-1.107717 -0.818359,-1.519531 z m 0.06055,5.292969 a 1,1 0 0 0 -1.414062,0.0293 1,1 0 0 0 0.02734,1.414062 c 0.194321,0.186603 0.215715,0.286986 0.21875,0.3125 0.003,0.02551 0.01643,0.04908 -0.08789,0.1875 -0.208644,0.276842 -0.976738,0.797882 -2.234375,1.160157 -2.515274,0.724547 -6.260188,0.767818 -8.908203,0.0918 -1.324007,-0.338011 -2.201041,-0.840716 -2.503906,-1.167968 -0.151433,-0.163627 -0.155457,-0.238882 -0.15625,-0.259766 -7.94e-4,-0.02088 -0.01347,-0.06787 0.128906,-0.232422 a 1,1 0 0 0 -0.101563,-1.410156 1,1 0 0 0 -1.410156,0.101562 c -0.385948,0.446067 -0.639796,1.022042 -0.617187,1.617188 0.02261,0.595146 0.306902,1.129614 0.689453,1.542969 0.765101,0.826708 1.937144,1.355041 3.476562,1.748047 1.539419,0.393004 3.284795,0.578749 5.017578,0.560546 1.732784,-0.0182 3.453018,-0.24174 4.939454,-0.669922 1.486434,-0.428181 2.600692,-0.979129 3.277343,-1.876953 0.338326,-0.448912 0.546736,-1.038918 0.476563,-1.628906 -0.07017,-0.589988 -0.389511,-1.107718 -0.81836,-1.519531 z" fill="#008055"/>
</svg>
