<svg xmlns="http://www.w3.org/2000/svg" width="48" height="48">
	<path d="m 14.808594,2.7343749 c -1.586185,0 -3.027503,0.4548327 -4.09375,1.3574218 C 9.6485965,4.9943859 9.0078125,6.3568555 9.0078125,7.9042971 V 40.074219 c 0,1.681491 0.618384,3.087954 1.7050785,3.966796 1.086693,0.878842 2.524937,1.22461 4.095703,1.22461 h 18.99414 c 1.547196,0 2.892888,-0.534021 3.810547,-1.486328 0.917659,-0.952308 1.378907,-2.27403 1.378907,-3.705078 V 12.804687 c 0,-1.577083 -0.450933,-2.9287179 -1.396485,-3.8476559 -0.945552,-0.918938 -2.28667,-1.322266 -3.792969,-1.322266 h -7.523437 a 1,1 0 0 0 -1,1 1,1 0 0 0 1,1 h 7.523437 c 1.16169,0 1.916537,0.287522 2.398438,0.7558599 0.481901,0.468337 0.791016,1.200286 0.791016,2.414062 v 27.269532 c 0,1.012841 -0.305518,1.786154 -0.81836,2.318359 -0.512842,0.532205 -1.26245,0.873047 -2.371094,0.873047 h -18.99414 c -1.271475,0 -2.234605,-0.293355 -2.837891,-0.78125 -0.603286,-0.487896 -0.96289,-1.176658 -0.96289,-2.410156 V 7.9042971 c 0,-1.02698 0.363509,-1.7483138 1,-2.2871098 0.63649,-0.5387957 1.595676,-0.8828124 2.800781,-0.8828124 l 18.753906,0.00195 a 1,1 0 0 0 1,-1 1,1 0 0 0 -1,-1 z m 7.523437,17.8691401 c -0.132943,0.0094 -0.264274,0.02793 -0.394531,0.05664 -1.042056,0.229651 -2.020137,1.113275 -2.251953,2.431641 a 0.89999998,0.89999998 0 0 0 0.730469,1.042968 0.89999998,0.89999998 0 0 0 1.042968,-0.730468 c 0.111223,-0.632544 0.504878,-0.906483 0.867188,-0.986328 0.181155,-0.03992 0.338989,-0.01549 0.431641,0.02734 0.09265,0.04283 0.136818,0.07657 0.18164,0.210938 a 0.90008998,0.90008998 0 0 0 0,0.0039 l 4.302735,12.708984 a 0.90008998,0.90008998 0 0 0 0.0059,0.01563 c 0.462841,1.283841 1.815414,1.876327 2.958983,1.617188 1.14357,-0.259139 2.151432,-1.303639 2.294922,-2.775391 a 0.89999998,0.89999998 0 0 0 -0.808594,-0.982422 0.89999998,0.89999998 0 0 0 -0.982421,0.808594 c -0.07704,0.790159 -0.505407,1.103412 -0.902344,1.193359 -0.395989,0.08973 -0.687669,0.02024 -0.865235,-0.46875 0,0 -0.002,-0.002 -0.002,-0.002 l -4.29492,-12.689453 -0.002,-0.002 C 24.449358,21.501702 24.01516,21.042318 23.51362,20.810448 23.136855,20.636263 22.730809,20.575134 22.331979,20.603416 Z m 0.833985,6.052735 a 0.89999998,0.89999998 0 0 0 -0.800782,0.533203 l -3.835937,8.605469 a 0.89999998,0.89999998 0 0 0 0.455078,1.1875 0.89999998,0.89999998 0 0 0 1.1875,-0.455079 l 3.837891,-8.603515 a 0.89999998,0.89999998 0 0 0 -0.455078,-1.189453 0.89999998,0.89999998 0 0 0 -0.388672,-0.07813 z" fill="#008055"/>
</svg>
