<svg xmlns="http://www.w3.org/2000/svg" width="48" height="48">
	<path d="M 15.648438 4.0722656 C 14.062252 4.0722656 12.620935 4.5270983 11.554688 5.4296875 C 10.48844 6.3322767 9.8476562 7.6947468 9.8476562 9.2421875 L 9.8476562 41.412109 C 9.8476562 43.0936 10.466038 44.500064 11.552734 45.378906 C 12.639429 46.257748 14.077668 46.603516 15.648438 46.603516 L 34.642578 46.603516 C 36.189769 46.603516 37.535466 46.069494 38.453125 45.117188 C 39.370784 44.164881 39.832031 42.843159 39.832031 41.412109 L 39.832031 14.142578 C 39.832031 12.565493 39.379148 11.211906 38.433594 10.292969 C 37.48804 9.3740321 36.148878 8.9726562 34.642578 8.9726562 L 27.119141 8.9726562 A 1 1 0 0 0 26.119141 9.9726562 A 1 1 0 0 0 27.119141 10.972656 L 34.642578 10.972656 C 35.804269 10.972656 36.559112 11.260178 37.041016 11.728516 C 37.522919 12.196854 37.832031 12.928803 37.832031 14.142578 L 37.832031 41.412109 C 37.832031 42.424948 37.526515 43.198263 37.013672 43.730469 C 36.500829 44.262674 35.751217 44.603516 34.642578 44.603516 L 15.648438 44.603516 C 14.376957 44.603516 13.413834 44.310162 12.810547 43.822266 C 12.20726 43.334371 11.847656 42.645608 11.847656 41.412109 L 11.847656 9.2421875 C 11.847656 8.2152083 12.211166 7.4938739 12.847656 6.9550781 C 13.484147 6.4162822 14.443333 6.0722656 15.648438 6.0722656 L 34.400391 6.0722656 A 1 1 0 0 0 35.400391 5.0722656 A 1 1 0 0 0 34.400391 4.0722656 L 15.648438 4.0722656 z M 20.505859 20.703125 A 0.89999998 0.89999998 0 0 0 19.605469 21.603516 A 0.89999998 0.89999998 0 0 0 20.505859 22.501953 L 32.736328 22.501953 A 0.89999998 0.89999998 0 0 0 33.636719 21.603516 A 0.89999998 0.89999998 0 0 0 32.736328 20.703125 L 20.505859 20.703125 z M 17.023438 24.796875 A 0.89999998 0.89999998 0 0 0 16.123047 25.695312 A 0.89999998 0.89999998 0 0 0 17.023438 26.595703 L 32.736328 26.595703 A 0.89999998 0.89999998 0 0 0 33.636719 25.695312 A 0.89999998 0.89999998 0 0 0 32.736328 24.796875 L 17.023438 24.796875 z M 17.023438 28.890625 A 0.89999998 0.89999998 0 0 0 16.123047 29.789062 A 0.89999998 0.89999998 0 0 0 17.023438 30.689453 L 21.351562 30.689453 A 0.89999998 0.89999998 0 0 0 22.251953 29.789062 A 0.89999998 0.89999998 0 0 0 21.351562 28.890625 L 17.023438 28.890625 z M 26.402344 28.910156 C 25.762792 28.910156 25.138013 29.043615 24.632812 29.441406 C 24.127612 29.839197 23.835938 30.504651 23.835938 31.210938 L 23.835938 36.554688 C 23.835938 37.229729 24.138707 37.864833 24.625 38.265625 C 25.111294 38.666416 25.740314 38.849609 26.402344 38.849609 A 0.80000001 0.80000001 0 0 0 27.203125 38.048828 A 0.80000001 0.80000001 0 0 0 26.402344 37.248047 C 26.037136 37.248047 25.782919 37.144962 25.642578 37.029297 C 25.502237 36.913631 25.435547 36.802076 25.435547 36.554688 L 25.435547 31.210938 C 25.435547 30.872754 25.506307 30.789187 25.623047 30.697266 C 25.739788 30.605346 25.995906 30.509766 26.402344 30.509766 L 31.265625 30.509766 C 31.583526 30.509766 31.735021 30.595326 31.833984 30.695312 C 31.932944 30.795302 32.007812 30.944918 32.007812 31.210938 L 32.007812 36.554688 C 32.007812 36.905422 31.930493 37.024717 31.855469 37.095703 C 31.780449 37.166693 31.622352 37.248047 31.265625 37.248047 L 28.455078 37.248047 A 0.80000001 0.80000001 0 0 0 27.65625 38.048828 A 0.80000001 0.80000001 0 0 0 28.455078 38.849609 L 31.265625 38.849609 C 31.890761 38.849609 32.504772 38.683895 32.955078 38.257812 C 33.405384 37.831731 33.607422 37.203944 33.607422 36.554688 L 33.607422 31.210938 C 33.607422 30.601287 33.400142 30.002236 32.972656 29.570312 C 32.54517 29.138389 31.925111 28.910156 31.265625 28.910156 L 26.402344 28.910156 z M 17.023438 32.982422 A 0.89999998 0.89999998 0 0 0 16.123047 33.882812 A 0.89999998 0.89999998 0 0 0 17.023438 34.783203 L 21.351562 34.783203 A 0.89999998 0.89999998 0 0 0 22.251953 33.882812 A 0.89999998 0.89999998 0 0 0 21.351562 32.982422 L 17.023438 32.982422 z M 17.023438 37.076172 A 0.89999998 0.89999998 0 0 0 16.123047 37.976562 A 0.89999998 0.89999998 0 0 0 17.023438 38.876953 L 21.351562 38.876953 A 0.89999998 0.89999998 0 0 0 22.251953 37.976562 A 0.89999998 0.89999998 0 0 0 21.351562 37.076172 L 17.023438 37.076172 z " fill="#008055"/>
</svg>
