<svg xmlns="http://www.w3.org/2000/svg" width="48" height="48">
	<path d="m 14.808594,2.7353516 c -1.586185,0 -3.027503,0.4528796 -4.09375,1.3554688 C 9.6485966,4.9934095 9.0078124,6.3578325 9.0078124,7.9052735 V 40.075195 c 0,1.681492 0.6183818,3.086002 1.7050786,3.964844 1.086696,0.878841 2.524938,1.224609 4.095703,1.224609 h 18.994141 c 1.547195,0 2.892887,-0.532068 3.810547,-1.484375 0.917658,-0.952307 1.378906,-2.274029 1.378906,-3.705078 V 12.805664 c 0,-1.577084 -0.452886,-2.9306715 -1.398438,-3.8496096 C 36.648199,8.0371175 35.309034,7.6357425 33.802735,7.6357425 h -7.523438 a 1,1 0 0 0 -1,1 1,1 0 0 0 1,1 h 7.523438 c 1.16169,0 1.916536,0.285569 2.398437,0.7539055 0.481901,0.468337 0.791016,1.202239 0.791016,2.416016 v 27.269531 c 0,1.012841 -0.305518,1.784201 -0.81836,2.316406 -0.512841,0.532205 -1.262449,0.873047 -2.371093,0.873047 H 14.808594 c -1.271475,0 -2.234602,-0.291401 -2.837891,-0.779297 -0.603288,-0.487896 -0.962891,-1.176658 -0.962891,-2.410156 V 7.9052735 c 0,-1.026979 0.36351,-1.748314 1.000001,-2.287109 0.63649,-0.538796 1.595676,-0.8828131 2.800781,-0.8828131 h 18.751953 a 1,1 0 0 0 1,-0.9999999 1,1 0 0 0 -1,-1 z M 27.080078,19.481445 c -0.293331,0 -0.608815,0.06244 -0.875,0.277344 -0.266184,0.214904 -0.414062,0.580653 -0.414062,0.923828 v 0.80664 a 0.60000002,0.60000002 0 0 0 0.599609,0.59961 0.60000002,0.60000002 0 0 0 0.279297,-0.07031 0.60000002,0.60000002 0 0 0 -0.08594,0.310547 0.60000002,0.60000002 0 0 0 0.599609,0.59961 h 0.84375 c 0.294411,0 0.619819,-0.0821 0.861328,-0.316407 0.24151,-0.234303 0.337891,-0.570056 0.337891,-0.878906 V 20.68262 c 0,-0.300528 -0.100138,-0.615516 -0.324219,-0.847656 -0.224081,-0.232141 -0.553323,-0.353516 -0.875,-0.353516 z m -3.349609,0.5625 c -2.397077,0.04682 -4.653114,1.193009 -5.769531,3.074219 a 0.80000001,0.80000001 0 0 0 0.28125,1.095703 0.80000001,0.80000001 0 0 0 1.095703,-0.279297 c 0.869774,-1.465606 3.073016,-2.498572 5.244141,-2.251953 a 0.80000001,0.80000001 0 0 0 0.884765,-0.705078 0.80000001,0.80000001 0 0 0 -0.703125,-0.884766 c -0.345277,-0.03922 -0.690763,-0.05552 -1.033203,-0.04883 z m 3.349609,0.638672 h 0.947266 v 1.046875 h -0.84375 a 0.60000002,0.60000002 0 0 0 -0.28125,0.07031 0.60000002,0.60000002 0 0 0 0.08789,-0.310547 v -0.798828 c 0.0043,-4.98e-4 0.0052,-0.0078 0.08984,-0.0078 z m 2.859375,1.835937 a 0.80000001,0.80000001 0 0 0 -0.535156,0.1875 0.80000001,0.80000001 0 0 0 -0.09766,1.126953 c 1.40235,1.667577 1.663703,4.656619 0.421875,7.083985 a 0.80000001,0.80000001 0 0 0 0.349609,1.076172 0.80000001,0.80000001 0 0 0 1.076172,-0.347657 C 32.671389,28.680093 32.4483,25.083334 30.53125,22.803711 a 0.80000001,0.80000001 0 0 0 -0.591797,-0.285157 z m -12.93164,2.039063 c -0.60174,0 -1.199418,0.130252 -1.679688,0.517578 -0.480269,0.387326 -0.75,1.028152 -0.75,1.701172 v 2.919922 a 0.80000001,0.80000001 0 0 0 0.798828,0.798828 0.80000001,0.80000001 0 0 0 0.800782,-0.798828 v -2.919922 c 0,-0.31363 0.06291,-0.381755 0.15625,-0.457032 0.09334,-0.07528 0.310847,-0.162109 0.673828,-0.162109 h 2.24414 c 0.275788,0 0.394017,0.07285 0.47461,0.15625 0.08059,0.0834 0.146484,0.217048 0.146484,0.462891 v 2.486328 c 0,0.326584 -0.07039,0.431512 -0.126953,0.486328 -0.05656,0.05482 -0.178819,0.125 -0.494141,0.125 h -2.417968 a 0.80000001,0.80000001 0 0 0 -0.798829,0.800781 0.80000001,0.80000001 0 0 0 0.798829,0.798828 h 2.417968 c 0.590249,0 1.179475,-0.161425 1.607422,-0.576171 0.427947,-0.414747 0.615235,-1.016721 0.615235,-1.634766 v -2.486328 c 0,-0.581347 -0.19271,-1.157108 -0.597657,-1.576172 -0.404946,-0.419065 -0.999348,-0.642578 -1.625,-0.642578 z m 1.527343,7.226562 a 0.80000001,0.80000001 0 0 0 -0.408203,0.113282 0.80000001,0.80000001 0 0 0 -0.28125,1.095703 c 1.275904,2.149962 4.038557,3.339151 6.800782,3.02539 a 0.80000001,0.80000001 0 0 0 0.705078,-0.884765 0.80000001,0.80000001 0 0 0 -0.884766,-0.705078 c -2.171136,0.246619 -4.374364,-0.786336 -5.244141,-2.251954 a 0.80000001,0.80000001 0 0 0 -0.6875,-0.392578 z m 8.925782,0.330078 c -0.445307,0 -0.897614,0.09449 -1.269532,0.394532 -0.371916,0.300042 -0.582031,0.802728 -0.582031,1.308593 v 1.830079 a 0.69999999,0.69999999 0 0 0 0.701172,0.701171 0.69999999,0.69999999 0 0 0 0.699219,-0.701171 v -1.830079 c 0,-0.191504 0.02717,-0.191824 0.06055,-0.21875 0.03337,-0.02692 0.154302,-0.08398 0.390625,-0.08398 h 1.585937 c 0.16535,0 0.208629,0.03766 0.238281,0.06836 0.02965,0.0307 0.06641,0.08878 0.06641,0.234375 v 1.75586 c 0,0.206368 -0.04012,0.239604 -0.04883,0.248047 -0.0087,0.0084 -0.05625,0.05078 -0.25586,0.05078 h -1.560547 a 0.69999999,0.69999999 0 0 0 -0.699218,0.699219 0.69999999,0.69999999 0 0 0 0.699218,0.701172 h 1.560547 c 0.440244,0 0.896844,-0.123821 1.230469,-0.447266 0.333625,-0.323445 0.474609,-0.790651 0.474609,-1.251953 v -1.75586 c 0,-0.43906 -0.145574,-0.882583 -0.458984,-1.207031 -0.31341,-0.324448 -0.774513,-0.496094 -1.246094,-0.496094 z" fill="#008055"/>
</svg>
