<svg xmlns="http://www.w3.org/2000/svg" width="48" height="48">
	<path d="m 14.808594,2.734375 c -1.586185,0 -3.027504,0.454833 -4.09375,1.357422 -1.0662475,0.902589 -1.7070315,2.265059 -1.7070315,3.8125 v 32.169922 c 0,1.681492 0.618382,3.086003 1.7050785,3.964844 1.086696,0.878841 2.524938,1.226562 4.095703,1.226562 h 18.99414 c 1.547191,0 2.892888,-0.534021 3.810547,-1.486328 0.917659,-0.952306 1.378907,-2.274028 1.378907,-3.705078 V 12.804688 c 0,-1.577085 -0.450933,-2.930673 -1.396485,-3.849609 C 36.650151,8.036142 35.30903,7.634766 33.802734,7.634766 h -7.523437 a 1,1 0 0 0 -1,1 1,1 0 0 0 1,1 h 7.523437 c 1.161685,0 1.916536,0.287521 2.398438,0.755859 0.481903,0.468339 0.791016,1.200288 0.791016,2.414063 v 27.269531 c 0,1.01284 -0.305515,1.786153 -0.81836,2.31836 -0.512844,0.532206 -1.262454,0.873046 -2.371094,0.873046 h -18.99414 c -1.271475,0 -2.234603,-0.293353 -2.83789,-0.78125 -0.603291,-0.487896 -0.962892,-1.176658 -0.962892,-2.410156 V 7.904297 c 0,-1.026979 0.36351,-1.748313 1,-2.287109 0.636491,-0.538796 1.595677,-0.882813 2.800782,-0.882813 H 33.5625 a 1,1 0 0 0 1,-1 1,1 0 0 0 -1,-1 z m 13.36914,15.888672 c -0.549357,0.0426 -1.089273,0.28491 -1.496093,0.677735 a 0.90008998,0.90008998 0 0 0 0,0.002 l -4,3.867187 a 0.90008998,0.90008998 0 0 0 -0.02539,0.02539 c -0.890436,0.935241 -0.77001,2.396635 0.0918,3.240234 l 2.064453,2.214844 -3.023437,2.0625 a 0.90008998,0.90008998 0 0 0 -0.01953,0.01367 c -0.06803,0.04912 -0.08202,0.05655 -0.107422,0.07227 -0.04547,-0.0282 -0.11824,-0.07287 -0.238281,-0.177735 l -0.0059,-0.0059 c -0.110038,-0.10146 -0.150791,-0.151699 -0.173828,-0.179688 0.01773,-0.04475 0.04964,-0.125631 0.113281,-0.253906 l 1.126953,-2.087891 a 0.89999998,0.89999998 0 0 0 -0.363281,-1.220703 0.89999998,0.89999998 0 0 0 -1.220703,0.365235 l -1.142578,2.115234 a 0.90008998,0.90008998 0 0 0 -0.01367,0.0293 c -0.125475,0.252902 -0.34671,0.601558 -0.322266,1.144531 0.02444,0.542973 0.349657,1.026051 0.792969,1.427735 a 0.90008998,0.90008998 0 0 0 0.0059,0.0059 c 0.4091,0.363936 0.826221,0.649351 1.371094,0.673828 0.544871,0.02448 0.946196,-0.240603 1.232422,-0.447266 L 25.91993,30.07427 a 0.90008998,0.90008998 0 0 0 0.04102,-0.0293 c 0.363804,-0.280162 0.659556,-0.677342 0.730468,-1.164062 0.07091,-0.486721 -0.125194,-0.986038 -0.43164,-1.31836 a 0.90008998,0.90008998 0 0 0 -0.0039,-0.0039 l -2.21875,-2.380859 a 0.90008998,0.90008998 0 0 0 -0.0293,-0.0293 c -0.218314,-0.213701 -0.255432,-0.493939 -0.04883,-0.710938 l 3.972657,-3.841797 c 0.241897,-0.233575 0.471789,-0.219932 0.576172,-0.125 l 2.68164,2.81836 a 0.90008998,0.90008998 0 0 0 0.0332,0.0332 c 0.0451,0.0428 0.11842,0.171216 0.128907,0.28125 0.01043,0.109458 0.0018,0.189029 -0.123047,0.324219 0,0 0,0.002 0,0.002 l -3.589844,3.490234 a 0.89999998,0.89999998 0 0 0 -0.01758,1.271485 0.89999998,0.89999998 0 0 0 1.273437,0.01758 l 3.621094,-3.521485 a 0.90008998,0.90008998 0 0 0 0.0332,-0.0332 c 0.464737,-0.500447 0.647689,-1.154757 0.59375,-1.720703 -0.05394,-0.565945 -0.298941,-1.054833 -0.68164,-1.417969 L 29.77149,19.189553 a 0.90008998,0.90008998 0 0 0 -0.04102,-0.04297 c -0.44369,-0.40909 -1.003378,-0.566133 -1.552736,-0.523536 z m -9.058593,14.451172 a 0.80000001,0.80000001 0 0 0 -0.716797,0.429688 l -1.710938,3.261718 a 0.80008001,0.80008001 0 0 0 -0.0059,0.01367 c -0.681815,1.368267 -0.649625,2.643118 -0.07227,3.519532 0.57736,0.876412 1.575108,1.277005 2.527344,1.226562 0.952236,-0.05044 1.94481,-0.610576 2.351563,-1.650391 0.406752,-1.039814 0.217442,-2.385528 -0.673829,-3.99414 a 0.80000001,0.80000001 0 0 0 -1.085937,-0.3125 0.80000001,0.80000001 0 0 0 -0.3125,1.08789 c 0.754038,1.360928 0.749634,2.208261 0.582031,2.636719 -0.167603,0.428458 -0.50807,0.611604 -0.945312,0.634766 -0.437243,0.02316 -0.884724,-0.171716 -1.107422,-0.509766 -0.222699,-0.338049 -0.344122,-0.896165 0.167969,-1.923828 l 1.701171,-3.248047 a 0.80000001,0.80000001 0 0 0 -0.33789,-1.080078 0.80000001,0.80000001 0 0 0 -0.361328,-0.0918 z" fill="#008055"/>
</svg>
