<svg xmlns="http://www.w3.org/2000/svg" width="48" height="48">
	<path d="m 14.808594,2.7343752 c -1.586185,0 -3.02555,0.4548327 -4.091797,1.3574219 C 9.6505495,4.9943862 9.0078125,6.3568567 9.0078125,7.9042967 V 40.074219 c 0,1.681493 0.620335,3.086003 1.7070315,3.964844 1.086696,0.878841 2.522985,1.226562 4.09375,1.226562 h 18.996094 c 1.54719,0 2.892887,-0.534021 3.810546,-1.486328 0.91766,-0.952306 1.376954,-2.274028 1.376954,-3.705078 V 12.804688 c 0,-1.577085 -0.450931,-2.9306723 -1.396485,-3.8496093 -0.945554,-0.918937 -2.284717,-1.320313 -3.791015,-1.320313 h -7.525391 a 1,1 0 0 0 -1,1 1,1 0 0 0 1,1 h 7.525391 c 1.16169,0 1.91458,0.287522 2.396484,0.7558593 0.481904,0.46834 0.791016,1.200288 0.791016,2.414063 v 27.269531 c 0,1.01284 -0.305518,1.786154 -0.81836,2.31836 -0.512844,0.532206 -1.260501,0.873046 -2.36914,0.873046 H 14.808594 c -1.271475,0 -2.232649,-0.293353 -2.835938,-0.78125 -0.603289,-0.487895 -0.964844,-1.176658 -0.964844,-2.410156 V 7.9042967 c 0,-1.026979 0.36351,-1.748313 1,-2.287109 0.636491,-0.5387958 1.595677,-0.8828125 2.800782,-0.8828125 H 33.5625 a 1,1 0 0 0 1,-1 1,1 0 0 0 -1,-1 z m 5.322265,17.7695318 a 1.0001,1.0001 0 0 0 -1,1 v 14.097656 a 1,1 0 0 0 1,1 1,1 0 0 0 1,-1 V 22.503907 h 4.03711 c 0.839885,0 1.340474,0.285682 1.707031,0.71289 0.366556,0.427209 0.573887,1.045814 0.572266,1.679688 -0.0016,0.633874 -0.213156,1.254535 -0.582032,1.683594 -0.368876,0.429059 -0.868119,0.71289 -1.697265,0.71289 h -2.316406 a 1.0001,1.0001 0 0 0 -0.75,1.660156 l 6.439453,7.310547 a 1,1 0 0 0 1.412109,0.08789 1,1 0 0 0 0.08984,-1.410156 l -4.976563,-5.648438 h 0.101563 c 1.34868,0 2.487425,-0.564375 3.21289,-1.408203 0.725465,-0.843828 1.063685,-1.921066 1.066407,-2.984375 0.0027,-1.063308 -0.32907,-2.140649 -1.054684,-2.986327 -0.725614,-0.845678 -1.869301,-1.410156 -3.224609,-1.410156 z" fill="#008055"/>
</svg>
