<svg xmlns="http://www.w3.org/2000/svg" width="48" height="48">
	<path d="m 14.80957,2.7353518 c -1.586185,0 -3.027503,0.4528796 -4.09375,1.3554688 C 9.6495733,4.9934097 9.0068359,6.3578329 9.0068359,7.9052737 V 40.073242 c 0,1.681491 0.6203372,3.087955 1.7070311,3.966797 1.086694,0.878842 2.524938,1.224609 4.095703,1.224609 h 18.994141 c 1.547195,0 2.892888,-0.532067 3.810547,-1.484374 0.917658,-0.952309 1.378906,-2.275983 1.378906,-3.707032 V 12.803711 c 0,-1.577084 -0.452886,-2.9287188 -1.398438,-3.847656 C 36.649175,8.0371172 35.31001,7.6337893 33.803711,7.6337893 h -7.523438 a 1,1 0 0 0 -1,1 1,1 0 0 0 1,1 h 7.523438 c 1.16169,0 1.916536,0.2875219 2.398437,0.7558587 0.481901,0.468339 0.791016,1.200287 0.791016,2.414063 v 27.269531 c 0,1.012841 -0.305518,1.786154 -0.818359,2.31836 -0.512842,0.532205 -1.26245,0.873046 -2.371094,0.873046 H 14.80957 c -1.271475,0 -2.234604,-0.291401 -2.837891,-0.779296 -0.603285,-0.487896 -0.964843,-1.178611 -0.964843,-2.41211 V 7.9052737 c 0,-1.0269792 0.363509,-1.7483135 1,-2.2871094 0.63649,-0.5387958 1.597629,-0.8828125 2.802734,-0.8828125 h 18.751953 a 1,1 0 0 0 1,-1 1,1 0 0 0 -1,-1 z m 1.394531,19.0703122 c -0.496053,0 -1.011084,0.138044 -1.388672,0.503906 -0.377585,0.365863 -0.537109,0.894293 -0.537109,1.414063 v 9.609375 c 0,0.495306 0.165056,0.996519 0.519531,1.363281 0.354476,0.366763 0.87437,0.560547 1.40625,0.560547 h 1.345704 a 0.80000001,0.80000001 0 0 0 0.800781,-0.800781 0.80000001,0.80000001 0 0 0 -0.800781,-0.798828 h -1.345704 c -0.182079,0 -0.225769,-0.04113 -0.255859,-0.07227 -0.03009,-0.03113 -0.07031,-0.09222 -0.07031,-0.251953 v -9.609375 c 0,-0.22826 0.04462,-0.257707 0.05078,-0.263672 0.0062,-0.006 0.05419,-0.05273 0.27539,-0.05273 h 1.345704 a 0.80000001,0.80000001 0 0 0 0.800781,-0.800782 0.80000001,0.80000001 0 0 0 -0.800781,-0.800781 z m 14.462891,0 a 0.80000001,0.80000001 0 0 0 -0.800781,0.800781 0.80000001,0.80000001 0 0 0 0.800781,0.800782 h 1.345703 c 0.221203,0 0.269234,0.04677 0.275391,0.05273 0.0062,0.006 0.05078,0.03541 0.05078,0.263672 v 9.609375 c 0,0.159734 -0.04022,0.220821 -0.07031,0.251953 -0.03009,0.03113 -0.07377,0.07227 -0.25586,0.07227 h -1.345703 a 0.80000001,0.80000001 0 0 0 -0.800781,0.798828 0.80000001,0.80000001 0 0 0 0.800781,0.800781 h 1.345703 c 0.531883,0 1.051772,-0.193784 1.40625,-0.560547 0.354478,-0.366763 0.519531,-0.867975 0.519531,-1.363281 v -9.609375 c 0,-0.51977 -0.15952,-1.0482 -0.537109,-1.414063 -0.377589,-0.365862 -0.892615,-0.503906 -1.388672,-0.503906 z m -10.449219,3.25586 c -0.665192,0.01708 -1.330917,0.198972 -1.929687,0.554687 -1.59672,0.948573 -2.26629,2.876675 -1.585938,4.556641 a 0.78575479,0.81450695 85.003259 0 0 1.054688,0.439453 0.78575479,0.81450695 85.003259 0 0 0.46289,-1.019531 c -0.399255,-0.985864 -0.01625,-2.085996 0.914063,-2.638672 0.930312,-0.552676 2.130422,-0.389791 2.865234,0.398437 0.734813,0.788229 0.775802,1.954499 0.107422,2.787109 -0.668381,0.832611 -1.84679,1.083824 -2.822266,0.595704 a 0.78575479,0.81450695 85.003259 0 0 -1.097656,0.335937 0.78575479,0.81450695 85.003259 0 0 0.341797,1.060547 c 1.65906,0.830181 3.714905,0.39539 4.863281,-1.035156 1.148376,-1.430546 1.069697,-3.458623 -0.179687,-4.798828 -0.780866,-0.837629 -1.885487,-1.264796 -2.994141,-1.236328 z m 9.792969,0.05664 c -0.222876,0.01966 -0.437704,0.09448 -0.617187,0.201172 l -4.222657,2.386719 c -0.364852,0.194763 -0.758301,0.575496 -0.746093,1.125 0.01221,0.549504 0.402954,0.89731 0.757812,1.082031 l -0.02539,-0.01172 4.240235,2.396485 c 0,0 0.002,0 0.002,0 0.36561,0.216637 0.88108,0.290108 1.300781,0.04883 0.420331,-0.241643 0.615234,-0.717571 0.615234,-1.138672 a 0.80000001,0.80000001 0 0 0 -0.800781,-0.800781 0.80000001,0.80000001 0 0 0 -0.640625,0.322265 l -3.40039,-1.923828 3.242187,-1.832031 v 2.232422 a 0.80000001,0.80000001 0 0 0 0.798828,0.798828 0.80000001,0.80000001 0 0 0 0.800781,-0.798828 v -2.814453 c 0,-0.423706 -0.208381,-0.912554 -0.636718,-1.142578 -0.214169,-0.115013 -0.445093,-0.150518 -0.667969,-0.13086 z" fill="#008055"/>
</svg>
