<svg xmlns="http://www.w3.org/2000/svg" width="48" height="48">
	<path d="m 14.808594,2.734375 c -1.586186,0 -3.027503,0.4548327 -4.09375,1.3574219 -1.0662476,0.9025891 -1.7070317,2.2650592 -1.7070317,3.8125 V 40.074219 c 0,1.681491 0.6183821,3.087955 1.7050787,3.966797 1.086695,0.878842 2.524933,1.224609 4.095703,1.224609 h 18.99414 c 1.547191,0 2.892888,-0.534022 3.810547,-1.486328 0.91766,-0.952307 1.378907,-2.274028 1.378907,-3.705078 V 12.804688 c 0,-1.577086 -0.450931,-2.930673 -1.396485,-3.8496099 C 36.650149,8.0361412 35.309034,7.6347656 33.802734,7.6347656 h -7.523437 a 1,1 0 0 0 -1,1 1,1 0 0 0 1,1 h 7.523437 c 1.161691,0 1.916534,0.2875213 2.398438,0.7558594 0.481903,0.468338 0.791016,1.200286 0.791016,2.414063 v 27.269531 c 0,1.01284 -0.305517,1.786153 -0.81836,2.318359 -0.512843,0.532206 -1.262455,0.873047 -2.371094,0.873047 h -18.99414 c -1.271481,0 -2.234604,-0.293354 -2.837891,-0.78125 -0.603287,-0.487896 -0.962891,-1.176657 -0.962891,-2.410156 V 7.9042969 c 0,-1.0269792 0.36351,-1.7483136 1,-2.2871094 0.636492,-0.5387958 1.595677,-0.8828125 2.800782,-0.8828125 h 18.751953 a 1,1 0 0 0 1,-1 1,1 0 0 0 -1,-1 z m 4.853515,16.632813 a 0.89999998,0.89999998 0 0 0 -0.90039,0.90039 0.89999998,0.89999998 0 0 0 0.90039,0.898438 h 12.230469 a 0.89999998,0.89999998 0 0 0 0.900391,-0.898438 0.89999998,0.89999998 0 0 0 -0.900391,-0.90039 z m -3.482421,4.09375 a 0.89999998,0.89999998 0 0 0 -0.900391,0.898437 0.89999998,0.89999998 0 0 0 0.900391,0.900391 h 15.71289 a 0.89999998,0.89999998 0 0 0 0.900391,-0.900391 0.89999998,0.89999998 0 0 0 -0.900391,-0.898437 z m 0,4.09375 a 0.89999998,0.89999998 0 0 0 -0.900391,0.898437 0.89999998,0.89999998 0 0 0 0.900391,0.900391 h 15.71289 a 0.89999998,0.89999998 0 0 0 0.900391,-0.900391 0.89999998,0.89999998 0 0 0 -0.900391,-0.898437 z m 0,4.091796 a 0.89999998,0.89999998 0 0 0 -0.900391,0.900391 0.89999998,0.89999998 0 0 0 0.900391,0.900391 h 15.71289 a 0.89999998,0.89999998 0 0 0 0.900391,-0.900391 0.89999998,0.89999998 0 0 0 -0.900391,-0.900391 z m 0,4.09375 a 0.89999998,0.89999998 0 0 0 -0.900391,0.900391 0.89999998,0.89999998 0 0 0 0.900391,0.900391 h 8.789062 a 0.89999998,0.89999998 0 0 0 0.900391,-0.900391 0.89999998,0.89999998 0 0 0 -0.900391,-0.900391 z" fill="#008055"/>
</svg>
