<svg xmlns="http://www.w3.org/2000/svg" width="48" height="48">
	<path d="m 14.808594,2.7353516 c -1.586185,0 -3.027502,0.4528803 -4.09375,1.3554688 C 9.6485935,4.9934088 9.0078125,6.3578314 9.0078125,7.9052735 V 40.073242 c 0,1.681491 0.618384,3.087955 1.7050775,3.966797 1.086694,0.878842 2.52494,1.224609 4.095704,1.224609 h 18.99414 c 1.547191,0 2.892891,-0.532068 3.810547,-1.484375 0.917657,-0.952307 1.378907,-2.275982 1.378907,-3.707031 V 12.805664 c 0,-1.577084 -0.450933,-2.9306715 -1.396485,-3.8496093 C 36.650151,8.0371172 35.309035,7.6357422 33.802734,7.6357422 h -7.523437 a 1,1 0 0 0 -1,1 1,1 0 0 0 1,1 h 7.523437 c 1.161691,0 1.916537,0.285569 2.398438,0.7539058 0.481901,0.468337 0.791016,1.202239 0.791016,2.416016 v 27.267578 c 0,1.012841 -0.305518,1.786154 -0.81836,2.318359 -0.512841,0.532205 -1.262455,0.873047 -2.371094,0.873047 h -18.99414 c -1.271476,0 -2.234605,-0.291401 -2.837891,-0.779297 -0.603285,-0.487895 -0.962891,-1.17861 -0.962891,-2.412109 V 7.9052735 c 0,-1.026978 0.363508,-1.748313 1,-2.2871095 0.636493,-0.5387965 1.595677,-0.8828125 2.800782,-0.8828125 H 33.5625 a 1,1 0 0 0 1,-1 1,1 0 0 0 -1,-1 z m 3.136719,17.8476554 c -0.65213,0 -1.277773,0.193631 -1.710938,0.636719 -0.433163,0.443088 -0.605469,1.056609 -0.605469,1.677734 v 10.953126 c 0,0.658098 0.189304,1.286071 0.597657,1.765624 0.408352,0.479555 1.043502,0.771485 1.71875,0.771485 h 4.783203 a 0.80000001,0.80000001 0 0 0 0.800781,-0.800781 0.80000001,0.80000001 0 0 0 -0.800781,-0.800782 h -4.783203 c -0.261344,0 -0.38397,-0.07077 -0.5,-0.207031 -0.116031,-0.136262 -0.216797,-0.377075 -0.216797,-0.728515 V 22.89746 c 0,-0.343814 0.07886,-0.487374 0.15039,-0.560546 0.07153,-0.07317 0.203207,-0.154297 0.566407,-0.154297 h 2.294921 c -0.405208,0.309006 -0.831398,0.609439 -1.115234,0.964843 -0.822437,1.029813 -1.102435,2.226657 -1.107422,3.402344 -0.01321,3.184541 2.203156,5.492188 4.90625,5.492188 1.382737,0 2.448511,-0.710632 2.917969,-1.644532 0.469458,-0.933898 0.383878,-2.104562 -0.375,-2.882812 a 0.80000001,0.80000001 0 0 0 -1.132813,-0.01563 0.80000001,0.80000001 0 0 0 -0.01367,1.132813 c 0.232942,0.238889 0.290976,0.650643 0.0918,1.046874 -0.19918,0.396232 -0.613987,0.761719 -1.488281,0.761719 -1.831367,0 -3.314999,-1.398886 -3.304687,-3.884765 0.004,-0.946024 0.189381,-1.700844 0.755859,-2.410157 0.566477,-0.709313 1.573711,-1.405087 3.335938,-2.005859 A 0.80008001,0.80008001 0 0 0 23.45313,20.583002 Z m 7.55664,0 a 0.80000001,0.80000001 0 0 0 -0.798828,0.798829 0.80000001,0.80000001 0 0 0 0.798828,0.800781 h 4.783203 c 0.261336,0 0.38397,0.07272 0.5,0.208984 0.116031,0.136263 0.216797,0.375115 0.216797,0.726563 v 10.953125 c 0,0.343822 -0.07886,0.48738 -0.15039,0.560547 -0.07153,0.07317 -0.203195,0.154296 -0.566407,0.154296 h -2.289062 c 0.40368,-0.308247 0.828306,-0.608506 1.111328,-0.96289 0.822438,-1.029812 1.100482,-2.228614 1.105469,-3.404297 0.01321,-3.184553 -2.201203,-5.490235 -4.904297,-5.490235 -1.382734,0 -2.448515,0.708681 -2.917969,1.642579 -0.469455,0.933897 -0.383869,2.106515 0.375,2.884765 a 0.80000001,0.80000001 0 0 0 1.130859,0.01367 0.80000001,0.80000001 0 0 0 0.01367,-1.130859 c -0.232931,-0.23888 -0.289024,-0.652593 -0.08984,-1.048828 0.19918,-0.396236 0.613994,-0.761719 1.488281,-0.761719 1.831367,0 3.314999,1.398879 3.304687,3.884766 -0.004,0.946016 -0.191333,1.702795 -0.757812,2.412109 -0.56648,0.709313 -1.573718,1.403139 -3.335938,2.003906 a 0.80008001,0.80008001 0 0 0 0.259766,1.558594 h 5.505859 c 0.652139,0 1.277777,-0.193625 1.710938,-0.636719 0.43316,-0.443093 0.605469,-1.05857 0.605469,-1.679687 V 23.118164 c 0,-0.658103 -0.189307,-1.284118 -0.597657,-1.763672 -0.408349,-0.479555 -1.043506,-0.771485 -1.71875,-0.771485 z" fill="#008055"/>
</svg>
