<svg xmlns="http://www.w3.org/2000/svg" width="48" height="48">
	<path d="m 14.80957,2.734375 c -1.586185,0 -3.027503,0.454833 -4.09375,1.357422 -1.066247,0.902589 -1.708984,2.265059 -1.708984,3.8125 v 32.169922 c 0,1.681491 0.620337,3.087955 1.707031,3.966797 1.086694,0.878842 2.524938,1.224609 4.095703,1.224609 h 18.994141 c 1.547195,0 2.892888,-0.534021 3.810546,-1.486328 0.91766,-0.952307 1.378907,-2.274029 1.378907,-3.705078 V 12.804688 c 0,-1.577084 -0.452886,-2.930672 -1.398438,-3.84961 C 36.649175,8.036141 35.31001,7.634766 33.803711,7.634766 h -7.523438 a 1,1 0 0 0 -1,1 1,1 0 0 0 1,1 h 7.523438 c 1.16169,0 1.916536,0.287522 2.398437,0.755859 0.481901,0.468338 0.791016,1.200286 0.791016,2.414063 v 27.269531 c 0,1.012841 -0.307471,1.786154 -0.820313,2.318359 -0.512841,0.532206 -1.260496,0.873047 -2.36914,0.873047 H 14.80957 c -1.271475,0 -2.234605,-0.293354 -2.837891,-0.78125 -0.603286,-0.487895 -0.964843,-1.176657 -0.964843,-2.410156 V 7.904297 c 0,-1.026979 0.363509,-1.748313 1,-2.287109 0.63649,-0.538796 1.597629,-0.882813 2.802734,-0.882813 h 18.751953 a 1,1 0 0 0 1,-1 1,1 0 0 0 -1,-1 z m 1.552734,17.445313 a 0.89999998,0.89999998 0 0 0 -0.505859,0.15039 0.89999998,0.89999998 0 0 0 -0.251953,1.248047 l 4.111328,6.191407 a 0.90008998,0.90008998 0 0 0 0.0078,0.01172 c 0.224381,0.326975 0.217511,0.795108 0.002,1.142578 l -4.121094,6.207032 a 0.89999998,0.89999998 0 0 0 0.251953,1.248046 0.89999998,0.89999998 0 0 0 1.246094,-0.251953 l 4.138672,-6.230468 a 0.90008998,0.90008998 0 0 0 0.01563,-0.02344 c 0.578421,-0.932389 0.606369,-2.156563 -0.04883,-3.111328 l -4.105468,-6.179687 a 0.89999998,0.89999998 0 0 0 -0.740235,-0.402344 z m 3.691407,0 a 0.89999998,0.89999998 0 0 0 -0.50586,0.15039 0.89999998,0.89999998 0 0 0 -0.251953,1.248047 l 9.662109,14.548828 a 0.89999998,0.89999998 0 0 0 1.246094,0.251953 0.89999998,0.89999998 0 0 0 0.251953,-1.248046 L 20.795898,20.582032 a 0.89999998,0.89999998 0 0 0 -0.742187,-0.402344 z m 7.33789,5.8125 a 0.89999998,0.89999998 0 0 0 -0.90039,0.898437 0.89999998,0.89999998 0 0 0 0.90039,0.900391 h 5.160156 a 0.89999998,0.89999998 0 0 0 0.900391,-0.900391 0.89999998,0.89999998 0 0 0 -0.900391,-0.898437 z m 1.796875,2.925781 a 0.89999998,0.89999998 0 0 0 -0.90039,0.900391 0.89999998,0.89999998 0 0 0 0.90039,0.90039 h 3.363281 a 0.89999998,0.89999998 0 0 0 0.900391,-0.90039 0.89999998,0.89999998 0 0 0 -0.900391,-0.900391 z m -6.070312,1.191406 a 0.89999998,0.89999998 0 0 0 -0.720703,0.398438 l -3.09961,4.621093 a 0.89999998,0.89999998 0 0 0 0.246094,1.248047 0.89999998,0.89999998 0 0 0 1.25,-0.246093 l 3.097656,-4.619141 a 0.89999998,0.89999998 0 0 0 -0.246094,-1.25 0.89999998,0.89999998 0 0 0 -0.527343,-0.152344 z" fill="#008055"/>
</svg>
