<svg xmlns="http://www.w3.org/2000/svg" width="48" height="48">
	<path d="m 14.808594,2.7353516 c -1.586185,0 -3.027503,0.4528796 -4.09375,1.3554688 C 9.6485968,4.9934096 9.0078125,6.3578327 9.0078125,7.9052735 V 40.073242 c 0,1.681492 0.6183818,3.087955 1.7050785,3.966797 1.086696,0.878841 2.524938,1.224609 4.095703,1.224609 h 18.99414 c 1.547191,0 2.892888,-0.532068 3.810547,-1.484375 0.917659,-0.952306 1.378907,-2.275981 1.378907,-3.707031 V 12.803711 c 0,-1.577085 -0.45093,-2.9287196 -1.396485,-3.8476566 -0.945554,-0.9189361 -2.28667,-1.3222652 -3.792969,-1.3222652 h -7.523437 a 1,1 0 0 0 -1,1.0000002 1,1 0 0 0 1,1 h 7.523437 c 1.16169,0 1.916534,0.287521 2.398438,0.7558586 0.481904,0.468338 0.791016,1.200288 0.791016,2.414063 v 27.269531 c 0,1.01284 -0.305516,1.786153 -0.81836,2.318359 -0.512844,0.532206 -1.262455,0.873047 -2.371094,0.873047 h -18.99414 c -1.271475,0 -2.234602,-0.291401 -2.837891,-0.779297 -0.603289,-0.487896 -0.962891,-1.178611 -0.962891,-2.412109 V 7.9052735 c 0,-1.0269792 0.36351,-1.7483136 1,-2.2871093 0.636491,-0.5387959 1.595678,-0.8828126 2.800782,-0.8828126 h 18.751953 a 1,1 0 0 0 1,-1 1,1 0 0 0 -1,-1 z M 26.335938,22.469726 a 0.80008001,0.80008001 0 0 0 -0.798829,0.798828 v 9.699219 a 0.80008001,0.80008001 0 0 0 0.798829,0.800781 h 2.443359 c 1.077386,6.1e-5 1.942481,-0.443621 2.441406,-1.083984 0.497929,-0.639085 0.652227,-1.396222 0.644531,-2.058594 -0.0027,-1.265675 -0.566943,-2.193893 -1.226562,-2.71289 -0.06486,-0.05103 -0.100392,-0.03333 -0.166016,-0.07813 0.56433,-0.507511 0.978516,-1.371299 0.978516,-2.558594 0,-0.904848 -0.435112,-1.674912 -1.03125,-2.138672 -0.596138,-0.46376 -1.322094,-0.667969 -2.027344,-0.667969 z m -8.177735,0.234375 a 0.80008001,0.80008001 0 0 0 -0.78125,0.535157 l -3.345702,9.566406 a 0.80000001,0.80000001 0 0 0 0.492186,1.019531 0.80000001,0.80000001 0 0 0 1.019532,-0.492187 l 0.767578,-2.197266 h 3.46875 l 0.710937,2.18164 a 0.80000001,0.80000001 0 0 0 1.007813,0.511719 0.80000001,0.80000001 0 0 0 0.511719,-1.007812 l -3.117188,-9.566407 a 0.80008001,0.80008001 0 0 0 -0.734375,-0.550781 z m 8.978516,1.365235 h 1.255859 c 0.37942,0 0.783207,0.12648 1.044922,0.330078 0.261715,0.203598 0.414063,0.43769 0.414063,0.876953 0,0.864898 -0.213724,1.160925 -0.449219,1.371094 -0.235495,0.210168 -0.577852,0.318114 -0.988281,0.474609 a 0.80008001,0.80008001 0 0 0 0.03516,1.507812 c 0.39224,0.12887 0.852664,0.266805 1.201172,0.541016 0.348507,0.274211 0.617187,0.612984 0.617187,1.462891 a 0.80008001,0.80008001 0 0 0 0,0.0098 c 0.0048,0.380669 -0.101136,0.790371 -0.308594,1.056641 -0.207457,0.26627 -0.492633,0.468789 -1.179687,0.46875 l -1.642578,-0.002 z m -9.03125,1.933593 1.152344,3.533203 h -2.386719 z m 5.654297,4.337891 a 0.80000001,0.80000001 0 0 0 -0.410157,0.109375 0.80000001,0.80000001 0 0 0 -0.285156,1.095703 c 0.14189,0.242462 0.312224,0.92829 0.271485,1.664063 -0.04074,0.735772 -0.262914,1.525945 -0.679688,2.117187 a 0.80000001,0.80000001 0 0 0 0.193359,1.115234 0.80000001,0.80000001 0 0 0 1.115235,-0.193359 c 0.639316,-0.906947 0.912579,-1.971987 0.966797,-2.951172 0.05422,-0.979185 -0.08056,-1.867169 -0.486328,-2.560547 A 0.80000001,0.80000001 0 0 0 23.759766,30.34082 Z m 9.271484,0 a 0.80000001,0.80000001 0 0 0 -0.410156,0.109375 0.80000001,0.80000001 0 0 0 -0.28711,1.095703 c 0.141891,0.242462 0.312225,0.92829 0.271485,1.664063 -0.04074,0.735772 -0.260962,1.525945 -0.677735,2.117187 a 0.80000001,0.80000001 0 0 0 0.19336,1.115234 0.80000001,0.80000001 0 0 0 1.113281,-0.193359 c 0.639316,-0.906947 0.914532,-1.971987 0.96875,-2.951172 0.05422,-0.979185 -0.08251,-1.867169 -0.488281,-2.560547 A 0.80000001,0.80000001 0 0 0 33.03125,30.34082 Z" fill="#008055"/>
</svg>
