<svg xmlns="http://www.w3.org/2000/svg" width="48" height="48">
	<path d="m 14.808594,2.7343748 c -1.586186,0 -3.027501,0.4548334 -4.09375,1.3574219 C 9.6485943,4.9943852 9.0078124,6.356855 9.0078124,7.9042962 V 40.074218 c 0,1.681491 0.6183841,3.087955 1.7050786,3.966797 1.086694,0.878842 2.524938,1.22461 4.095703,1.22461 h 18.994141 c 1.547195,0 2.892888,-0.534021 3.810547,-1.486329 0.917658,-0.952307 1.378906,-2.274029 1.378906,-3.705078 V 12.804687 c 0,-1.577084 -0.450933,-2.9287188 -1.396485,-3.8476558 -0.945551,-0.918938 -2.286669,-1.3222659 -3.792968,-1.3222659 h -7.523438 a 1,1 0 0 0 -1,1 1,1 0 0 0 1,1 h 7.523438 c 1.16169,0 1.916536,0.287521 2.398437,0.7558597 0.481901,0.468337 0.791016,1.200286 0.791016,2.414062 v 27.269531 c 0,1.012841 -0.305518,1.786154 -0.818359,2.31836 -0.512842,0.532205 -1.26245,0.873047 -2.371094,0.873047 H 14.808594 c -1.271475,0 -2.234605,-0.293355 -2.837891,-0.78125 -0.603286,-0.487896 -0.962891,-1.176658 -0.962891,-2.410157 V 7.9042962 c 0,-1.0269771 0.363507,-1.7483124 1,-2.2871089 0.636494,-0.5387965 1.595677,-0.8828125 2.800782,-0.8828125 H 33.5625 a 1,1 0 0 0 1,-1 1,1 0 0 0 -1,-1 z m 5.601563,20.5371092 a 0.89999998,0.89999998 0 0 0 -0.900391,0.900391 v 10.210937 a 0.89999998,0.89999998 0 0 0 0.900391,0.900391 0.89999998,0.89999998 0 0 0 0.90039,-0.900391 V 24.171875 a 0.89999998,0.89999998 0 0 0 -0.90039,-0.900391 z m 5.080078,0.07617 c -0.91086,0.0014 -1.834328,0.290645 -2.558594,0.916015 -0.724266,0.625371 -1.207031,1.609725 -1.207031,2.767578 a 0.89999998,0.89999998 0 0 0 0.90039,0.89844 0.89999998,0.89999998 0 0 0 0.900391,-0.898438 c 0,-0.693246 0.233206,-1.101415 0.583984,-1.404296 0.350779,-0.302881 0.86028,-0.477728 1.382813,-0.478516 0.522533,-7.88e-4 1.033011,0.172924 1.382812,0.474609 0.349801,0.301686 0.583985,0.709555 0.583985,1.408203 v 7.351563 a 0.89999998,0.89999998 0 0 0 0.90039,0.900391 0.89999998,0.89999998 0 0 0 0.898438,-0.900391 v -7.351563 c 0,-1.161096 -0.481788,-2.145998 -1.207031,-2.771484 -0.725244,-0.625485 -1.649688,-0.913483 -2.560547,-0.912109 z m -9.451172,8.519533 a 1.7764144,1.7764144 0 0 0 -1.775391,1.775391 1.7764144,1.7764144 0 0 0 1.775391,1.777343 1.7764144,1.7764144 0 0 0 1.777344,-1.777343 1.7764144,1.7764144 0 0 0 -1.777344,-1.775391 z" fill="#008055"/>
</svg>
