<svg xmlns="http://www.w3.org/2000/svg" width="48" height="48">
	<path d="m 14.809571,2.735352 c -1.586186,0 -3.027504,0.452879 -4.09375,1.355468 C 9.6495735,4.993409 9.0068362,6.357833 9.0068362,7.905273 v 32.167969 c 0,1.681491 0.6203373,3.087955 1.7070308,3.966797 1.086694,0.878842 2.524939,1.224609 4.095704,1.224609 h 18.99414 c 1.547196,0 2.892886,-0.532068 3.810547,-1.484375 0.917661,-0.952306 1.378906,-2.275981 1.378906,-3.707031 V 12.803711 c 0,-1.577085 -0.452883,-2.928719 -1.398437,-3.847656 C 36.649173,8.037118 35.310011,7.633789 33.803711,7.633789 h -7.523437 a 1,1 0 0 0 -1,1 1,1 0 0 0 1,1 h 7.523437 c 1.161691,0 1.916534,0.287521 2.398438,0.755859 0.481903,0.468338 0.791015,1.200288 0.791015,2.414063 v 27.269531 c 0,1.01284 -0.305515,1.786153 -0.818359,2.31836 -0.512844,0.532206 -1.262449,0.873046 -2.371094,0.873046 h -18.99414 c -1.271476,0 -2.234605,-0.291401 -2.837891,-0.779296 -0.603286,-0.487896 -0.964844,-1.178611 -0.964844,-2.41211 V 7.905273 c 0,-1.026979 0.36351,-1.748313 1,-2.287109 0.636491,-0.538796 1.59763,-0.882812 2.802735,-0.882812 h 18.751953 a 1,1 0 0 0 1,-1 1,1 0 0 0 -1,-1 z m 9.193359,16.089843 c -2.089334,0.0394 -4.177481,0.775493 -5.884766,2.234375 -3.902365,3.334589 -4.377612,9.223359 -1.060547,13.140625 3.317066,3.917267 9.204585,4.418573 13.136719,1.119141 a 0.90000267,0.89999729 5.0420515 0 0 0.05859,-0.05469 0.90000267,0.89999729 5.0420515 0 0 0.002,-0.002 0.90000267,0.89999729 5.0420515 0 0 0.06641,-0.05273 c 3.87228,-3.369477 4.293494,-9.261098 0.941406,-13.148438 -1.88555,-2.186628 -4.573479,-3.286983 -7.259766,-3.236328 z m 0.03711,1.791016 c 2.164837,-0.04238 4.330119,0.845698 5.859374,2.619141 2.718677,3.152786 2.38081,7.884406 -0.759765,10.617187 a 0.90000267,0.89999729 5.0420515 0 0 -0.04883,0.04688 0.90000267,0.89999729 5.0420515 0 0 -0.05469,0.04102 C 25.84701,36.616411 21.122886,36.2132 18.432614,33.036142 15.742342,29.859083 16.123108,25.133207 19.288082,22.42872 c 1.384677,-1.183213 3.068191,-1.779539 4.751954,-1.8125 z m 0.316406,1.275391 c -1.830517,0.0061 -3.633007,0.771847 -4.876953,2.203124 -1.990316,2.290044 -2.001005,5.655953 -0.01953,7.962891 1.981473,2.30694 5.397276,2.905398 8.082032,1.423828 a 1.0155484,0.98469366 4.9975914 0 0 0.376953,-1.34375 1.0155484,0.98469366 4.9975914 0 0 -1.386719,-0.36914 c -1.847419,1.019489 -4.158474,0.609045 -5.513672,-0.96875 -1.355199,-1.577796 -1.352009,-3.855802 0.01758,-5.431641 1.369588,-1.57584 3.689944,-1.969974 5.525391,-0.943359 A 1.0155484,0.98469366 4.9975914 0 0 27.946294,24.06543 1.0155484,0.98469366 4.9975914 0 0 27.811528,22.911133 1.0155484,0.98469366 4.9975914 0 0 27.56934,22.719726 c -1.005621,-0.56247 -2.11458,-0.83181 -3.21289,-0.828124 z" fill="#008055"/>
</svg>
