<svg xmlns="http://www.w3.org/2000/svg" width="48" height="48">
	<path d="m 14.808594,2.7343751 c -1.586185,0 -3.025551,0.4548328 -4.091797,1.3574219 C 9.6505495,4.9943862 9.0078125,6.3588096 9.0078125,7.9062499 V 40.074219 c 0,1.681492 0.620335,3.087956 1.7070315,3.966797 1.086696,0.878841 2.522985,1.224609 4.09375,1.224609 h 18.996094 c 1.547195,0 2.892885,-0.534021 3.810546,-1.486328 0.917662,-0.952306 1.376954,-2.274028 1.376954,-3.705078 V 12.804688 c 0,-1.577086 -0.450928,-2.9287201 -1.396485,-3.8476571 -0.945557,-0.918935 -2.284717,-1.3222651 -3.791015,-1.3222651 h -7.525391 a 1,1 0 0 0 -1,1.0000001 1,1 0 0 0 1,1 h 7.525391 c 1.16169,0 1.914577,0.28752 2.396484,0.7558591 0.481906,0.468339 0.791016,1.200289 0.791016,2.414063 v 27.269531 c 0,1.01284 -0.305516,1.786153 -0.81836,2.318359 -0.512844,0.532206 -1.260497,0.873047 -2.36914,0.873047 H 14.808594 c -1.271475,0 -2.23265,-0.2914 -2.835937,-0.779297 -0.603291,-0.487896 -0.964845,-1.178611 -0.964845,-2.412109 V 7.9062499 c 0,-1.0269788 0.36351,-1.7483133 1,-2.2871091 0.636491,-0.5387959 1.595677,-0.8847657 2.800782,-0.8847657 l 18.753906,0.00195 a 1,1 0 0 0 1,-1 1,1 0 0 0 -1,-1 z M 30.455078,21.742188 c -0.924178,-0.01853 -1.770677,0.248985 -2.476562,0.58789 a 0.80000001,0.80000001 0 0 0 -0.375,1.066407 0.80000001,0.80000001 0 0 0 1.068359,0.375 c 0.547254,-0.262745 1.160021,-0.44152 1.75,-0.429688 0.584043,0.01171 1.152735,0.19215 1.751953,0.712891 0.676333,0.693123 0.822502,1.363698 0.722656,1.96875 -0.101292,0.613819 -0.49931,1.161562 -0.972656,1.435547 -2.969596,1.662792 -4.136149,3.661408 -4.439453,5.660156 -0.756657,-0.540231 -1.655164,-1.042969 -2.873047,-1.042969 -1.223205,0 -2.15032,0.577537 -2.794922,1.226563 a 0.80008001,0.80008001 0 0 0 -0.01563,0.01367 c -0.121074,0.128191 -0.03965,0.0834 -0.06836,0.107421 -0.02579,-0.02343 -0.02276,-0.01658 -0.05469,-0.04883 -0.650195,-0.655483 -1.53116,-1.38611 -2.832031,-1.375 -1.131135,0.0013 -1.984499,0.566138 -2.71289,1.310547 -0.137272,-0.581135 -0.237398,-1.3994 -0.03906,-2.332031 0.226575,-1.06542 0.739978,-2.145864 1.65625,-2.943359 a 0.80000001,0.80000001 0 0 0 0.07813,-1.128907 0.80000001,0.80000001 0 0 0 -1.126953,-0.07813 c -1.231067,1.071484 -1.88859,2.486272 -2.171875,3.81836 -0.283286,1.332087 -0.220494,2.578122 0.09375,3.507812 a 0.80008001,0.80008001 0 0 0 0.03711,0.08789 c 0.123207,0.25793 0.246114,0.476713 0.455077,0.677734 0.208964,0.201021 0.584095,0.368978 0.921875,0.332031 0.666064,-0.07285 0.878378,-0.448741 1.150391,-0.755859 l 0.01172,-0.01367 c 0.631685,-0.670972 0.920832,-0.882812 1.65039,-0.882812 a 0.80008001,0.80008001 0 0 0 0.0078,0 c 0.76039,-0.007 1.087226,0.301127 1.683594,0.902343 v -0.002 c 0.171002,0.172719 0.330347,0.319618 0.541015,0.441407 0.210669,0.121787 0.511718,0.211424 0.802735,0.171874 0.572602,-0.07782 0.808081,-0.407372 1.066406,-0.683593 l 0.002,-0.002 c 0.0036,-0.0039 0.0081,-0.0078 0.01172,-0.01172 0.471323,-0.47159 0.885628,-0.738281 1.646484,-0.738281 0.928103,0 1.50073,0.355681 2.22461,0.912109 l -0.0078,-0.0078 c 0.187786,0.14857 0.340032,0.26643 0.541016,0.367188 0.200983,0.100758 0.580055,0.233615 0.972656,0.01953 0.392601,-0.214084 0.46834,-0.540732 0.511719,-0.736328 0.04338,-0.195596 0.05305,-0.366288 0.06641,-0.5625 v 0.01172 c 0.139292,-1.679111 0.902055,-3.215267 3.794922,-4.832031 a 0.80008001,0.80008001 0 0 0 0.0098,-0.0059 c 0.908664,-0.525956 1.568427,-1.460244 1.75,-2.560547 0.181573,-1.100303 -0.168604,-2.365218 -1.1875,-3.386718 a 0.80008001,0.80008001 0 0 0 -0.03906,-0.03516 c -0.873214,-0.768411 -1.86879,-1.100605 -2.792969,-1.11914 z m -7.044922,1.83789 c -0.692739,3.53e-4 -1.442627,0.07581 -2.261718,0.251953 a 0.80008001,0.80008001 0 0 0 -0.05469,0.01367 c -0.977151,0.284172 -1.752084,0.388297 -2.326172,1.105469 -0.287045,0.358586 -0.378929,0.895407 -0.287109,1.339844 0.09171,0.443899 0.301874,0.853866 0.603515,1.34375 0,0 0,0.002 0,0.002 0.407743,0.67847 0.787162,1.156362 1.253907,1.472656 0.469097,0.317888 1.077919,0.40538 1.554687,0.269532 0.953536,-0.271698 1.476323,-0.973175 2.144531,-1.494141 a 0.80000001,0.80000001 0 0 0 0.138672,-1.123047 0.80000001,0.80000001 0 0 0 -1.121093,-0.138672 c -0.795943,0.620554 -1.408325,1.161737 -1.601563,1.216797 -0.09662,0.02753 -0.06397,0.04888 -0.216797,-0.05469 -0.152825,-0.103564 -0.439535,-0.402088 -0.785156,-0.978516 a 0.80008001,0.80008001 0 0 0 -0.0059,-0.0078 c -0.253984,-0.412338 -0.372693,-0.707411 -0.398438,-0.832031 -0.0053,-0.02581 -0.0064,-0.01438 -0.0098,-0.02344 0.02087,-0.0061 0.56064,-0.278512 1.472657,-0.548829 3.81725,-0.81183 5.482666,0.773783 8.205078,1.886719 a 0.80000001,0.80000001 0 0 0 1.042969,-0.4375 0.80000001,0.80000001 0 0 0 -0.4375,-1.042969 c -1.817718,-0.743092 -3.610552,-2.00797 -6.236329,-2.197265 -0.218814,-0.01578 -0.442914,-0.02355 -0.673828,-0.02344 z m 2.908203,2.736329 a 1.0684559,1.1233827 0 0 0 -1.068359,1.125 1.0684559,1.1233827 0 0 0 1.068359,1.123046 1.0684559,1.1233827 0 0 0 1.06836,-1.123046 1.0684559,1.1233827 0 0 0 -1.06836,-1.125 z" fill="#008055"/>
</svg>
