<svg xmlns="http://www.w3.org/2000/svg" width="48" height="48">
	<path d="m 14.80957,2.734375 c -1.586185,0 -3.027503,0.454832 -4.09375,1.357422 -1.066247,0.902589 -1.707031,2.265059 -1.707031,3.8125 l -0.00195,32.169921 c 0,1.681492 0.620336,3.087955 1.707031,3.966797 1.086695,0.878843 2.524929,1.22461 4.095703,1.22461 h 18.994141 c 1.547191,0 2.892887,-0.534022 3.810547,-1.486328 0.917659,-0.952307 1.378906,-2.274028 1.378906,-3.705079 V 12.804687 c 0,-1.577085 -0.452884,-2.928719 -1.398438,-3.847656 C 36.649175,8.038094 35.310013,7.634765 33.803714,7.634765 h -7.523438 a 1,1 0 0 0 -1,1 1,1 0 0 0 1,1 h 7.523438 c 1.16169,0 1.916534,0.287522 2.398437,0.75586 0.481904,0.468338 0.791016,1.200287 0.791016,2.414062 v 27.269531 c 0,1.01284 -0.305516,1.786154 -0.81836,2.31836 -0.512843,0.532206 -1.262454,0.873047 -2.371093,0.873047 H 14.80957 c -1.271486,0 -2.234605,-0.293355 -2.837891,-0.78125 -0.603285,-0.487895 -0.964843,-1.176657 -0.964843,-2.410157 l 0.002,-32.169921 c 0,-1.02698 0.361556,-1.748314 0.998047,-2.28711 0.63649,-0.538796 1.597629,-0.882812 2.802734,-0.882812 H 33.56157 a 1,1 0 0 0 1,-1 1,1 0 0 0 -1,-1 z m 11.980469,16.1875 c -0.578927,-0.01724 -1.207654,0.124041 -1.820313,0.378906 -0.61405,0.255443 -1.209479,0.620026 -1.621094,1.175781 a 0.70006999,0.70006999 0 0 0 -0.01367,0.01758 c -0.430462,0.621331 -0.654687,1.112089 -0.826172,1.550782 -0.170244,0.435517 -0.291628,0.805057 -0.558594,1.330078 -0.229679,0.428307 -0.500847,0.557828 -0.769531,0.892578 0.02911,-0.543323 0.141641,-1.132676 0.125,-1.589844 a 0.70006999,0.70006999 0 0 0 -0.002,-0.0293 c -0.0033,-0.04241 -0.0068,-0.700656 -0.304688,-1.328125 -0.297903,-0.627468 -0.992515,-1.292 -2.074219,-1.421875 a 0.70006999,0.70006999 0 0 0 -0.08203,-0.0039 c -0.414252,-8.81e-4 -0.812659,0.191091 -1.044922,0.429687 -0.121833,0.125156 -0.154431,0.228324 -0.222656,0.345704 -0.389924,0.05814 -0.754143,0.130668 -1.273437,0.251953 a 0.70006999,0.70006999 0 0 0 -0.04492,0.01172 c -0.362988,0.110354 -0.642051,0.329497 -0.882813,0.646484 -0.240761,0.316987 -0.42152,0.763653 -0.373047,1.267578 a 0.70006999,0.70006999 0 0 0 0.002,0.02539 c 0.03267,0.242116 0.1642,0.494441 0.333985,0.652343 0.169784,0.157903 0.348933,0.232276 0.5,0.28125 0.277226,0.08987 0.489067,0.108458 0.654297,0.142578 -0.0048,0.0081 -0.0099,0.0092 -0.01758,0.07227 a 0.70006999,0.70006999 0 0 0 -0.002,0.01953 c -0.118805,1.282158 -0.542439,2.932037 0.738282,4.927735 a 0.70006999,0.70006999 0 0 0 0.0078,0.01367 c 0.351046,0.522505 0.795119,0.99124 1.347656,1.310546 0.552538,0.319308 1.23687,0.47639 1.929688,0.316407 a 0.70006999,0.70006999 0 0 0 0.0078,-0.002 c 0.102753,-0.02507 0.07068,-0.02306 0.08008,-0.02344 0.22603,2.351753 0.502477,4.581333 -0.333985,6.09961 l -0.685547,0.486328 a 0.69999999,0.69999999 0 0 0 -0.164062,0.976562 0.69999999,0.69999999 0 0 0 0.976562,0.164063 l 0.865235,-0.617188 a 0.70006999,0.70006999 0 0 0 0.197265,-0.216797 c 1.240334,-2.122443 0.758967,-4.709657 0.535156,-7.042968 a 0.70006999,0.70006999 0 0 0 0,-0.0078 c -0.0427,-0.402094 -0.245592,-0.837425 -0.626953,-1.0625 -0.37815,-0.223181 -0.792741,-0.208765 -1.166015,-0.119141 -0.319322,0.07374 -0.601931,0.01632 -0.914063,-0.164062 -0.31006,-0.179181 -0.624453,-0.493484 -0.880859,-0.873047 -1.025265,-1.602039 -0.661019,-2.560387 -0.523371,-4.015595 0.08146,-0.669275 -0.301708,-1.399878 -0.96289,-1.583984 a 0.70006999,0.70006999 0 0 0 -0.02539,-0.0059 c -0.200013,-0.04782 -0.30108,-0.06578 -0.416015,-0.08789 0.01439,-0.02822 0.0077,-0.0575 0.0293,-0.08594 0.06975,-0.09183 0.191266,-0.15444 0.173828,-0.15039 0.682946,-0.160222 1.140407,-0.280464 1.367188,-0.289063 a 0.70006999,0.70006999 0 0 0 0.603516,-0.392578 c 0.0771,-0.158413 0.136259,-0.253755 0.162109,-0.283203 0.598176,0.08811 0.802617,0.315092 0.941406,0.607422 0.141831,0.298734 0.149808,0.58359 0.167969,0.822265 0.03413,0.965023 -0.03738,2.333855 -0.261719,3.396485 a 0.70006999,0.70006999 0 0 0 1.060547,0.736328 c 0.864704,-0.5494 1.780595,-1.527931 2.484375,-2.841797 a 0.70006999,0.70006999 0 0 0 0.0059,-0.01172 c 0.31552,-0.618217 0.466401,-1.076059 0.619141,-1.466797 0.150877,-0.385973 0.306868,-0.726769 0.666016,-1.248047 0.180886,-0.242467 0.578815,-0.525491 1.029297,-0.71289 0.452037,-0.188047 0.956682,-0.282362 1.24414,-0.273438 a 0.70006999,0.70006999 0 0 0 0.0078,0 c 0.342279,0.007 0.446373,0.11938 0.648437,0.458985 0.202065,0.339604 0.367196,0.870402 0.582032,1.386718 v -0.0039 c 0.53148,1.291162 1.282023,2.497407 2.074218,3.667969 a 0.70006999,0.70006999 0 0 0 0.01758,0.02539 c 0.885896,1.192319 1.390713,2.109482 1.59375,2.816407 0.203037,0.706924 0.151368,1.187823 -0.115234,1.746093 a 0.69999999,0.69999999 0 0 0 0.330078,0.931641 0.69999999,0.69999999 0 0 0 0.933594,-0.330078 c 0.393958,-0.824959 0.477276,-1.759447 0.197266,-2.734375 -0.278059,-0.96813 -0.871811,-1.992069 -1.796876,-3.240234 l -0.0039,-0.0059 c -0.005,-0.0068 -0.0086,-0.01275 -0.01367,-0.01953 -0.764571,-1.131281 -1.454731,-2.25381 -1.921875,-3.388672 a 0.70006999,0.70006999 0 0 0 -0.002,-0.0039 C 29.112318,21.218549 28.94439,20.623848 28.610347,20.06243 28.276922,19.50205 27.6441,18.941363 26.790035,18.921805 Z m -7.763672,2.710937 a 0.58535933,0.5872348 0 0 0 -0.585938,0.587891 0.58535933,0.5872348 0 0 0 0.585938,0.585937 0.58535933,0.5872348 0 0 0 0.583984,-0.585937 0.58535933,0.5872348 0 0 0 -0.583984,-0.587891 z m 11.509765,5.791016 a 0.69999999,0.69999999 0 0 0 -0.07226,0.002 0.69999999,0.69999999 0 0 0 -0.632813,0.537109 c -0.313914,1.319848 -0.427457,2.17018 -0.107422,3.447266 a 0.70006999,0.70006999 0 0 0 0.0332,0.0957 c 0.154274,0.374775 0.138838,0.726566 0.103515,1.253906 a 0.70006999,0.70006999 0 0 0 0,0.0059 c -0.08084,1.402068 -0.05137,2.810257 0.171875,4.214843 a 0.69999999,0.69999999 0 0 0 0.802735,0.582032 0.69999999,0.69999999 0 0 0 0.580078,-0.800782 c -0.203293,-1.279141 -0.234326,-2.582586 -0.158204,-3.908287 v -0.0059 c 0.03394,-0.506544 0.06969,-1.11863 -0.173828,-1.777344 -0.274525,-1.095474 -0.19623,-1.498291 0.109374,-2.783203 a 0.69999999,0.69999999 0 0 0 -0.517578,-0.84375 0.69999999,0.69999999 0 0 0 -0.138672,-0.01953 z m -2.597656,0.644531 c -0.128034,-0.0032 -0.241808,0.01934 -0.341797,0.04297 -0.199976,0.04726 -0.373706,0.121608 -0.548828,0.210937 -0.792862,0.401939 -1.535008,0.74448 -2.308593,0.859375 -0.356014,0.04039 -0.71532,0.0997 -1.042969,0.355469 -0.336004,0.262292 -0.498123,0.642194 -0.607422,1.048828 a 0.70006999,0.70006999 0 0 0 -0.002,0.0078 c -0.189386,0.737452 -0.361481,1.555484 -0.25586,2.402344 a 0.70006999,0.70006999 0 0 0 0.0039,0.03711 c 0.107553,0.601562 0.54407,1.029108 0.839843,1.214844 0.295774,0.185735 0.434666,0.241671 0.601563,0.476562 a 0.69999999,0.69999999 0 0 0 0.976562,0.164063 0.69999999,0.69999999 0 0 0 0.164063,-0.976563 c -0.355243,-0.499969 -0.800998,-0.725869 -0.998047,-0.849609 -0.188349,-0.118277 -0.159764,-0.05999 -0.195313,-0.265625 -0.06065,-0.528386 0.04516,-1.177514 0.216797,-1.847657 l 0.002,-0.0039 c 3.59e-4,-0.0014 -3.57e-4,-0.0025 0,-0.0039 0.07352,-0.266678 0.123006,-0.306847 0.115235,-0.300781 -0.008,0.0062 0.07054,-0.03977 0.363281,-0.07227 a 0.70006999,0.70006999 0 0 0 0.02539,-0.002 c 0.894514,-0.132856 1.63943,-0.503759 2.361328,-0.859375 -0.165937,0.626575 -0.327335,1.274622 -0.300781,2.042969 a 0.70006999,0.70006999 0 0 0 0.002,0.02734 c 0.03834,0.517338 0.112651,0.455094 -0.171875,0.884765 a 0.70006999,0.70006999 0 0 0 -0.0059,0.01172 c -0.723919,1.138998 -1.433313,2.297147 -1.666015,3.521484 a 0.69999999,0.69999999 0 0 0 0.55664,0.81836 0.69999999,0.69999999 0 0 0 0.81836,-0.558594 c 0.160498,-0.844443 0.765475,-1.916635 1.472656,-3.029297 l -0.0078,0.0098 c 0.422872,-0.638589 0.43461,-1.246815 0.400391,-1.734375 v -0.01758 c -2.24e-4,-0.0031 2.28e-4,-0.0067 0,-0.0098 -0.02029,-0.702183 0.110768,-1.322424 0.302735,-1.964844 0.08697,-0.239868 0.14614,-0.454139 0.138671,-0.707031 -0.0079,-0.268469 -0.177377,-0.658381 -0.484375,-0.820313 -0.153498,-0.08096 -0.295793,-0.110036 -0.423828,-0.113281 z" fill="#008055"/>
</svg>
