<svg xmlns="http://www.w3.org/2000/svg" width="48" height="48">
	<path d="m 14.808594,2.7343752 c -1.586185,0 -3.027503,0.4548327 -4.09375,1.3574218 C 9.6485965,4.9943863 9.0078125,6.3568565 9.0078125,7.9042968 V 40.074219 c 0,1.681492 0.618382,3.087956 1.7050785,3.966797 1.086696,0.878841 2.524937,1.224609 4.095703,1.224609 h 18.996094 c 1.54719,0 2.890934,-0.534021 3.808593,-1.486328 0.917659,-0.952306 1.378907,-2.274028 1.378907,-3.705078 V 12.804688 c 0,-1.577085 -0.45093,-2.9306732 -1.396485,-3.8496102 -0.945554,-0.918935 -2.284717,-1.320312 -3.791015,-1.320312 h -7.525391 a 1,1 0 0 0 -1,1 1,1 0 0 0 1,1 h 7.525391 c 1.16169,0 1.91458,0.287521 2.396484,0.7558592 0.481904,0.468338 0.791016,1.200288 0.791016,2.414063 v 27.269531 c 0,1.01284 -0.305516,1.786153 -0.81836,2.318359 -0.512844,0.532207 -1.260501,0.873047 -2.36914,0.873047 H 14.808594 c -1.271475,0 -2.234602,-0.293353 -2.837891,-0.78125 -0.603289,-0.487896 -0.962891,-1.176658 -0.962891,-2.410156 V 7.9042968 c 0,-1.026979 0.36351,-1.7483133 1,-2.2871091 0.636491,-0.5387959 1.595677,-0.8828125 2.800782,-0.8828125 H 33.5625 a 1,1 0 0 0 1,-1 1,1 0 0 0 -1,-1 z m 2.927734,19.8535158 c -1.1449,0 -1.974995,1.008969 -1.949219,2.021484 v 11.820313 c 0,0.950363 0.772316,1.884766 1.894532,1.884766 a 0.80000001,0.80000001 0 0 0 0.798828,-0.798829 0.80000001,0.80000001 0 0 0 -0.798828,-0.800781 c -0.225745,0 -0.294922,-0.198619 -0.294922,-0.285156 v -2.791016 h 6.142578 v 3.076172 h -3.617188 a 0.80000001,0.80000001 0 0 0 -0.800781,0.800781 0.80000001,0.80000001 0 0 0 0.800781,0.798829 h 11.066407 c 1.085362,0 1.90625,-0.877796 1.90625,-1.869141 V 24.515625 c 0.01684,-0.966682 -0.807075,-1.927734 -1.929688,-1.927734 z m 0,1.599609 h 5.792969 v 3.115235 h -6.142578 v -2.712891 a 0.80008001,0.80008001 0 0 0 0,-0.01953 c -0.0065,-0.256304 0.03643,-0.382813 0.349609,-0.382813 z m 7.392578,0 h 5.826172 c 0.328347,0 0.331288,0.119124 0.328125,0.300782 a 0.80008001,0.80008001 0 0 0 0,0.01367 v 2.847656 a 0.80000001,0.80000001 0 0 0 -0.269531,-0.04688 h -5.884766 z m 6.154297,4.669922 v 3.236328 a 0.80000001,0.80000001 0 0 0 -0.287109,-0.05469 h -5.867188 v -3.134766 h 5.884766 a 0.80000001,0.80000001 0 0 0 0.269531,-0.04688 z m -13.896484,0.04688 h 6.142578 v 3.134766 h -6.142578 z m 13.896484,4.679688 v 2.861328 c 0,0.08629 -0.09161,0.269531 -0.304687,0.269531 h -5.84961 v -3.076172 h 5.867188 a 0.80000001,0.80000001 0 0 0 0.287109,-0.05469 z" fill="#008055"/>
</svg>
