<svg xmlns="http://www.w3.org/2000/svg" width="48" height="48">
	<path d="m 14.808594,2.735352 c -1.586186,0 -3.02555,0.4528796 -4.091797,1.3554688 C 9.6505497,4.9934099 9.0078124,6.3578326 9.0078124,7.9052744 V 40.073242 c 0,1.681493 0.6203349,3.087956 1.7070316,3.966797 1.086696,0.878841 2.522985,1.224609 4.09375,1.224609 h 18.996094 c 1.547191,0 2.892887,-0.534021 3.810547,-1.486328 0.917659,-0.952306 1.376953,-2.274028 1.376953,-3.705078 V 12.803711 c 0,-1.577085 -0.450931,-2.9287186 -1.396485,-3.8476556 -0.945554,-0.918937 -2.284716,-1.3222659 -3.791015,-1.3222659 h -7.525391 a 1,1 0 0 0 -1,0.9999999 1,1 0 0 0 1,1 h 7.525391 c 1.16169,0 1.916534,0.287522 2.398437,0.7558586 0.481904,0.46834 0.789063,1.200288 0.789063,2.414063 v 27.269531 c 0,1.01284 -0.305516,1.786154 -0.81836,2.31836 -0.512843,0.532206 -1.260501,0.873046 -2.36914,0.873046 H 14.808594 c -1.271475,0 -2.232649,-0.2914 -2.835938,-0.779296 -0.603289,-0.487897 -0.964844,-1.178612 -0.964844,-2.41211 V 7.9052744 c 0,-1.0269802 0.36351,-1.748314 1,-2.2871099 C 12.644303,5.0793687 13.603489,4.735352 14.808594,4.735352 H 33.5625 a 1,1 0 0 0 1,-1 1,1 0 0 0 -1,-1 z m 9.308594,16.46289 c -3.644531,0.02738 -7.328125,2.818699 -7.328125,7.8125 v 7.408203 c 0,1.996508 1.479718,3.316004 2.990234,3.324219 1.50782,0.0082 2.994696,-1.30671 3,-3.314453 0.01058,-1.054163 0.632187,-1.375725 1.287109,-1.384766 0.327462,-0.0045 0.634577,0.105429 0.851563,0.308594 0.216986,0.203165 0.386719,0.501349 0.386719,1.066406 a 0.90008998,0.90008998 0 0 0 0,0.0059 c 0.0116,1.984386 1.56186,3.25101 3.082031,3.251953 1.520171,9.43e-4 3.070313,-1.271416 3.070313,-3.257813 a 0.89999998,0.89999998 0 0 0 -0.900391,-0.90039 0.89999998,0.89999998 0 0 0 -0.898438,0.90039 c 0,1.159684 -0.617691,1.457436 -1.269531,1.457032 -0.651839,-4.05e-4 -1.278397,-0.306588 -1.285156,-1.462891 -0.0015,-0.978901 -0.367256,-1.822666 -0.955078,-2.373047 -0.589055,-0.551535 -1.357675,-0.807225 -2.107422,-0.796875 -1.499494,0.0207 -3.041282,1.247942 -3.060547,3.167969 a 0.90008998,0.90008998 0 0 0 0,0.0078 c 0,1.241235 -0.606264,1.528573 -1.191406,1.525391 -0.585142,-0.0032 -1.199219,-0.312438 -1.199219,-1.525391 V 27.01077 c 0,-4.149348 2.751411,-5.99076 5.541016,-6.011718 1.394802,-0.01048 2.775532,0.475614 3.798828,1.441406 1.023295,0.965792 1.728515,2.411415 1.728515,4.5 v 5.023437 a 0.89999998,0.89999998 0 0 0 0.898438,0.900391 0.89999998,0.89999998 0 0 0 0.900391,-0.900391 v -5.013672 a 0.90008998,0.90008998 0 0 0 0,-0.0098 0.90008998,0.90008998 0 0 0 -0.05469,-0.296875 c -0.07563,-2.353171 -0.910256,-4.258321 -2.238281,-5.511719 -1.389505,-1.311423 -3.22461,-1.947285 -5.046875,-1.933594 z m -1.876953,5.632813 a 1.5238409,1.5276928 0 0 0 -1.525391,1.527343 1.5238409,1.5276928 0 0 0 1.525391,1.529297 1.5238409,1.5276928 0 0 0 1.523437,-1.529297 1.5238409,1.5276928 0 0 0 -1.523437,-1.527343 z m 3.96289,0 a 1.5238409,1.5276928 0 0 0 -1.523437,1.527343 1.5238409,1.5276928 0 0 0 1.523437,1.529297 1.5238409,1.5276928 0 0 0 1.523438,-1.529297 1.5238409,1.5276928 0 0 0 -1.523438,-1.527343 z" fill="#008055"/>
</svg>
