<svg xmlns="http://www.w3.org/2000/svg" width="48" height="48">
	<path d="m 14.808594,2.7343752 c -1.586186,0 -3.027503,0.4548327 -4.09375,1.3574219 C 9.648597,4.9943862 9.007813,6.3568567 9.007813,7.9042967 V 40.074219 c 0,1.681491 0.618384,3.087955 1.705078,3.966797 1.086694,0.878842 2.524938,1.224609 4.095703,1.224609 h 18.99414 c 1.547196,0 2.892889,-0.53402 3.810547,-1.486328 0.917659,-0.952307 1.378906,-2.274029 1.378906,-3.705078 V 12.804688 c 0,-1.577084 -0.450932,-2.9306723 -1.396484,-3.8496093 -0.945551,-0.918938 -2.286669,-1.320313 -3.792969,-1.320313 h -7.523437 a 1,1 0 0 0 -1,1 1,1 0 0 0 1,1 h 7.523437 c 1.161691,0 1.916537,0.287522 2.398438,0.7558593 0.481901,0.468339 0.791015,1.200287 0.791015,2.414063 v 27.269531 c 0,1.012841 -0.305517,1.786154 -0.818359,2.31836 -0.512841,0.532205 -1.262449,0.873046 -2.371094,0.873046 h -18.99414 c -1.271475,0 -2.234605,-0.293354 -2.837891,-0.78125 -0.603286,-0.487895 -0.96289,-1.176657 -0.96289,-2.410156 V 7.9042967 c 0,-1.0269784 0.363509,-1.7483132 1,-2.287109 0.63649,-0.5387958 1.595676,-0.8828125 2.800781,-0.8828125 h 18.751953 a 1,1 0 0 0 1,-1 1,1 0 0 0 -1,-1 z M 18.824219,21.31836 c -0.09674,-0.01098 -0.205842,-0.0081 -0.330078,0.01563 -0.248473,0.04737 -0.4666,0.209913 -0.582032,0.351562 -0.115431,0.14165 -0.163549,0.261087 -0.197265,0.361328 -0.06743,0.200484 -0.08022,0.34689 -0.09375,0.511719 -0.02705,0.329658 -0.02539,0.717261 -0.02539,1.22461 v 9.365234 a 0.89999998,0.89999998 0 0 0 0.900391,0.900391 0.89999998,0.89999998 0 0 0 0.90039,-0.900391 v -8.494141 l 3.042969,4.580078 a 0.90008998,0.90008998 0 0 0 0.01563,0.02148 c 0.186066,0.262884 0.382896,0.491217 0.652344,0.673828 0.269448,0.182611 0.64619,0.304057 1.007812,0.263672 0.723245,-0.08077 1.10943,-0.559 1.460938,-1.044922 a 0.90008998,0.90008998 0 0 0 0.01367,-0.01953 L 28.6875,24.589844 v 8.558594 a 0.89999998,0.89999998 0 0 0 0.900391,0.900391 0.89999998,0.89999998 0 0 0 0.90039,-0.900391 v -9.501953 c 0,-0.453523 0.002,-0.80554 -0.02539,-1.117188 -0.01368,-0.155823 -0.02489,-0.298548 -0.09766,-0.5 -0.07277,-0.201451 -0.315171,-0.603104 -0.785156,-0.685546 -0.469985,-0.08244 -0.724373,0.130173 -0.873047,0.25 -0.148673,0.119825 -0.24816,0.234427 -0.357422,0.367187 -0.218522,0.26552 -0.458461,0.607397 -0.777343,1.068359 a 0.90008998,0.90008998 0 0 0 -0.002,0.0039 l -3.466797,5.080078 c -0.131861,0.168343 -0.101687,0.158532 -0.115235,0.177734 -0.02594,-0.03007 -0.02604,-0.02316 -0.05859,-0.06836 -0.003,-0.0041 -0.0028,-0.0016 -0.0059,-0.0059 L 20.52335,23.097609 C 20.206787,22.62108 19.96756,22.26301 19.751866,21.986281 19.644019,21.847916 19.547655,21.729504 19.400304,21.603468 19.28979,21.508938 19.114362,21.351254 18.824132,21.318312 Z m 13.289062,10.501953 a 0.89999998,0.89999998 0 0 0 -0.773437,0.447266 l -1.757813,3.017578 -1.716797,-3.009766 a 0.89999998,0.89999998 0 0 0 -0.792968,-0.453125 0.89999998,0.89999998 0 0 0 -0.435547,0.117188 0.89999998,0.89999998 0 0 0 -0.335938,1.228515 l 1.820313,3.1875 a 0.90008998,0.90008998 0 0 0 0.002,0.0039 c 0.159615,0.276461 0.327635,0.516184 0.583984,0.720704 0.256349,0.204519 0.666866,0.355923 1.048828,0.296875 0.763926,-0.118098 1.047958,-0.634389 1.341797,-1.119141 a 0.90008998,0.90008998 0 0 0 0.0078,-0.01172 l 1.789062,-3.072265 A 0.89999998,0.89999998 0 0 0 32.570313,31.94336 0.89999998,0.89999998 0 0 0 32.113281,31.820313 Z" fill="#008055"/>
</svg>
