<svg xmlns="http://www.w3.org/2000/svg" width="48" height="48">
	<path d="m 14.808594,2.734375 c -1.586185,0 -3.02555,0.4548327 -4.091797,1.3574218 C 9.6505497,4.9943859 9.0078124,6.3568559 9.0078124,7.9042969 V 40.074219 c 0,1.681492 0.6203349,3.086002 1.7070316,3.964843 1.086696,0.878842 2.522985,1.226563 4.09375,1.226563 h 18.996094 c 1.547195,0 2.892888,-0.534021 3.810547,-1.486328 0.917658,-0.952307 1.376953,-2.27403 1.376953,-3.705078 V 12.804687 c 0,-1.577085 -0.450932,-2.9306719 -1.396485,-3.8496089 -0.945552,-0.9189369 -2.28472,-1.3203125 -3.791015,-1.3203125 h -7.525391 a 1,1 0 0 0 -1,1 1,1 0 0 0 1,1.0000005 h 7.525391 c 1.161685,0 1.914581,0.287521 2.396484,0.7558589 0.481903,0.468338 0.791016,1.200287 0.791016,2.414062 v 27.269532 c 0,1.012841 -0.305518,1.786154 -0.81836,2.318359 -0.512841,0.532205 -1.260496,0.873047 -2.36914,0.873047 H 14.808594 c -1.271475,0 -2.234602,-0.293354 -2.837891,-0.78125 -0.603289,-0.487896 -0.962891,-1.176659 -0.962891,-2.410156 V 7.9042969 c 0,-1.0269794 0.36351,-1.7483136 1,-2.2871094 C 12.644303,5.0783916 13.603489,4.734375 14.808594,4.734375 H 33.5625 a 1,1 0 0 0 1,-1 1,1 0 0 0 -1,-1 z m 9.189453,14.207031 c -4.104423,0.09383 -6.875,3.25732 -6.875,6.634766 0,2.047945 0.866491,3.441257 1.628906,4.390625 0.381208,0.474684 0.728889,0.856546 0.941407,1.162109 0.212517,0.305563 0.277609,0.486211 0.27539,0.667969 a 0.89999998,0.89999998 0 0 0 0.888672,0.912109 0.89999998,0.89999998 0 0 0 0.912109,-0.890625 c 0.0083,-0.681692 -0.27842,-1.257791 -0.597656,-1.716797 -0.319236,-0.459005 -0.684511,-0.84698 -1.017578,-1.261718 -0.666134,-0.829477 -1.232422,-1.690937 -1.232422,-3.263672 0,-2.408249 1.897406,-4.76042 5.113282,-4.835938 3.014407,-0.04517 5.130859,2.050218 5.130859,4.835938 0,1.746224 -0.563219,2.543794 -1.224609,3.308594 -0.330696,0.382398 -0.699952,0.735802 -1.033204,1.183593 -0.333251,0.447791 -0.629056,1.0434 -0.628906,1.740235 0,0.232283 -0.08188,0.323042 -0.251953,0.375 l -5.433594,1.662109 a 0.89999998,0.89999998 0 0 0 -0.597656,1.125 0.89999998,0.89999998 0 0 0 1.125,0.597656 l 5.431641,-1.664062 v 0.002 c 0.901408,-0.275383 1.527343,-1.14724 1.527343,-2.097656 -4.9e-5,-0.228895 0.06338,-0.384438 0.271485,-0.664063 0.2081,-0.279625 0.561917,-0.629658 0.953125,-1.082031 0.782414,-0.904746 1.662109,-2.299553 1.662109,-4.486328 0,-3.738565 -3.056403,-6.695831 -6.96289,-6.634766 a 0.90008998,0.90008998 0 0 0 -0.0059,0 z m 3.220703,16.181641 a 0.89999998,0.89999998 0 0 0 -0.08008,0.002 0.89999998,0.89999998 0 0 0 -0.212891,0.03906 l -6.298828,1.972657 a 0.89999998,0.89999998 0 0 0 -0.589843,1.126953 0.89999998,0.89999998 0 0 0 1.126953,0.589844 l 6.298828,-1.970704 a 0.89999998,0.89999998 0 0 0 0.589844,-1.126953 0.89999998,0.89999998 0 0 0 -0.833985,-0.632812 z m -1.527343,3.767578 a 0.89999998,0.89999998 0 0 0 -0.212891,0.03711 l -3.386719,1.019532 a 0.89999998,0.89999998 0 0 0 -0.601562,1.121093 0.89999998,0.89999998 0 0 0 1.121093,0.603516 l 3.386719,-1.019531 a 0.89999998,0.89999998 0 0 0 0.601563,-1.121094 0.89999998,0.89999998 0 0 0 -0.828125,-0.640625 0.89999998,0.89999998 0 0 0 -0.08008,0 z" fill="#008055"/>
</svg>
