<svg xmlns="http://www.w3.org/2000/svg" width="48" height="48">
	<path d="m 14.808594,2.7353517 c -1.586185,0 -3.027503,0.4548328 -4.09375,1.3574219 C 9.6485968,4.9953632 9.0078125,6.3578332 9.0078125,7.9052732 V 40.075195 c 0,1.681493 0.6183818,3.086003 1.7050785,3.964844 1.086696,0.878841 2.524938,1.224609 4.095703,1.224609 h 18.996094 c 1.54719,0 2.892887,-0.532068 3.810546,-1.484375 0.91766,-0.952306 1.376954,-2.274028 1.376954,-3.705078 V 12.805664 c 0,-1.577085 -0.45093,-2.9306717 -1.396485,-3.8496088 -0.945554,-0.918937 -2.284717,-1.320313 -3.791015,-1.320313 h -7.525391 a 1,1 0 0 0 -1,1 1,1 0 0 0 1,1 h 7.525391 c 1.161691,0 1.91458,0.287522 2.396484,0.7558588 0.481904,0.46834 0.791016,1.200288 0.791016,2.414063 v 27.269531 c 0,1.01284 -0.305516,1.786154 -0.81836,2.31836 -0.512844,0.532206 -1.260502,0.871093 -2.36914,0.871093 H 14.808594 c -1.271475,0 -2.234602,-0.2914 -2.837891,-0.779297 -0.603289,-0.487895 -0.962891,-1.176658 -0.962891,-2.410156 V 7.9052732 c 0,-1.026979 0.36351,-1.748313 1,-2.287109 0.636491,-0.538796 1.595677,-0.8828125 2.800782,-0.8828125 H 33.5625 a 1,1 0 0 0 1,-1 1,1 0 0 0 -1,-1 z m 8.572265,16.7636713 c -0.522703,0.01491 -1.04736,0.162077 -1.519531,0.47461 -0.614401,0.406676 -0.989587,1.154415 -1.226562,2.041015 -0.798882,-0.60412 -1.614067,-0.9919 -2.396485,-0.921875 -1.168447,0.104576 -2.071228,0.897289 -2.52539,1.84961 -0.454162,0.95232 -0.505307,2.145258 0.128905,3.125 0.438047,0.676701 1.274938,1.080342 2.275392,1.320312 -0.561057,0.840501 -0.90453,1.690053 -0.796875,2.476563 0.156604,1.144139 0.94048,2.017015 1.878906,2.443359 0.938426,0.426344 2.113789,0.432605 3.035156,-0.246094 0.288324,-0.212385 0.514177,-0.507486 0.697266,-0.853515 a 0.80000001,0.80000001 0 0 0 0.07422,0.347656 c 0.421063,0.905376 0.567227,1.986022 0.8125,3.490234 A 0.80008001,0.80008001 0 0 0 25.375,35.147461 c 0.677353,-2.247446 2.724308,-3.77329 5.027344,-3.726563 0.03542,1.374738 -0.345692,2.519558 -1.191406,3.310547 -0.994113,0.929785 -2.533868,1.458923 -4.417969,1.3125 a 0.80008001,0.80008001 0 0 0 -0.861328,0.773438 l -0.08594,3.041015 a 0.80000001,0.80000001 0 0 0 0.777344,0.822266 0.80000001,0.80000001 0 0 0 0.822266,-0.777344 l 0.06641,-2.351562 c 1.88672,-0.03265 3.603048,-0.539421 4.792969,-1.652344 1.374168,-1.285248 2.0555,-3.22804 1.722656,-5.408203 a 0.80008001,0.80008001 0 0 0 -0.658203,-0.667969 c -2.616514,-0.443377 -5.052094,0.780901 -6.492188,2.804688 -0.129324,-0.56802 -0.170078,-1.208878 -0.419922,-1.746094 a 0.80000001,0.80000001 0 0 0 -1.0625,-0.388672 0.80000001,0.80000001 0 0 0 -0.220703,0.152344 c 0.0847,-0.240767 0.158721,-0.492389 0.216797,-0.761719 0.71763,0.480222 1.44605,0.786924 2.142578,0.726562 1.092281,-0.09466 1.950616,-0.81288 2.38086,-1.701171 0.430243,-0.888292 0.467126,-2.009283 -0.113282,-2.951172 -0.391739,-0.635718 -1.132659,-1.063704 -2.019531,-1.367188 0.608835,-0.783626 0.999609,-1.588321 0.921875,-2.361328 -0.113295,-1.126648 -0.891305,-1.986496 -1.816406,-2.414062 -0.462552,-0.213784 -0.983157,-0.331321 -1.50586,-0.316407 z m 0.0625,1.601563 c 0.254537,-0.0051 0.521631,0.05249 0.771485,0.167969 0.499707,0.230956 0.849315,0.652027 0.896484,1.121093 0.04717,0.469066 -0.158189,1.149398 -1.24414,2.001953 a 0.80008001,0.80008001 0 0 0 0.429687,1.427735 c 1.290335,0.105711 1.873907,0.545682 2.140625,0.978515 0.266718,0.432834 0.255868,0.962408 0.03711,1.414063 -0.218758,0.451655 -0.610042,0.763954 -1.080078,0.804687 -0.470036,0.04073 -1.148399,-0.161547 -1.984375,-1.15039 A 0.80008001,0.80008001 0 0 0 22,28.418945 c 0.0666,1.422751 -0.324354,2.067825 -0.714844,2.355469 -0.390491,0.287644 -0.924213,0.303156 -1.423828,0.07617 C 19.361714,30.6236 18.979264,30.180898 18.90625,29.647459 18.83324,29.11402 19.022229,28.369312 20.048828,27.434568 A 0.80008001,0.80008001 0 0 0 19.5,26.043945 c -1.414426,0.01564 -2.031073,-0.407934 -2.314453,-0.845703 -0.28338,-0.437769 -0.280725,-1.041145 -0.0293,-1.568359 0.251427,-0.527215 0.70733,-0.897064 1.224609,-0.94336 0.51728,-0.0463 1.256701,0.188247 2.16211,1.337891 A 0.80008001,0.80008001 0 0 0 21.9707,23.512695 c -0.02862,-1.35309 0.368033,-1.936738 0.773438,-2.205078 0.202701,-0.134169 0.444682,-0.201938 0.699218,-0.207031 z m -1.466796,3.480469 a 1.4726504,1.4767045 0 0 0 -1.472657,1.476562 1.4726504,1.4767045 0 0 0 1.472657,1.476563 1.4726504,1.4767045 0 0 0 1.472656,-1.476563 1.4726504,1.4767045 0 0 0 -1.472656,-1.476562 z" fill="#008055"/>
</svg>
