<svg xmlns="http://www.w3.org/2000/svg" width="48" height="48">
	<path d="m 14.808594,2.7353516 c -1.586185,0 -3.027504,0.4528799 -4.09375,1.3554689 -1.0662455,0.902589 -1.7070315,2.267012 -1.7070315,3.814453 V 40.073242 c 0,1.681492 0.618382,3.087955 1.7050785,3.966797 1.086696,0.878841 2.524939,1.224609 4.095703,1.224609 h 18.99414 c 1.547191,0 2.892888,-0.532069 3.810547,-1.484375 0.917659,-0.952306 1.378907,-2.275981 1.378907,-3.707031 V 12.80371 c 0,-1.577084 -0.45093,-2.9287185 -1.396485,-3.8476555 -0.945554,-0.918937 -2.286668,-1.322265 -3.792969,-1.322265 h -7.523437 a 1,1 0 0 0 -1,1 1,1 0 0 0 1,1 h 7.523437 c 1.161691,0 1.916534,0.287521 2.398438,0.7558585 0.481904,0.468338 0.791016,1.200287 0.791016,2.414062 v 27.269532 c 0,1.01284 -0.305516,1.786153 -0.81836,2.318359 -0.512842,0.532206 -1.262455,0.873047 -2.371094,0.873047 h -18.99414 c -1.271476,0 -2.234602,-0.291401 -2.837891,-0.779297 -0.603289,-0.487896 -0.962891,-1.178612 -0.962891,-2.412109 V 7.9052735 c 0,-1.026979 0.36351,-1.748314 1,-2.287109 0.636491,-0.538796 1.595677,-0.882813 2.800782,-0.882813 h 18.751953 a 1,1 0 0 0 1,-1 1,1 0 0 0 -1,-1 z M 30.673828,20.348632 c -0.266354,-0.01598 -0.526581,0.0237 -0.767578,0.08203 a 0.90008998,0.90008998 0 0 0 -0.0039,0.002 c -3.662487,0.903687 -7.726135,3.532928 -11.898438,4.068359 a 0.90008998,0.90008998 0 0 0 -0.0078,0 c -0.535552,0.07351 -1.076849,0.263085 -1.488281,0.683594 -0.411434,0.420509 -0.607422,1.029085 -0.607422,1.646484 v 2.246049 a 0.89999998,0.89999998 0 0 0 0.898419,0.900391 0.89999998,0.89999998 0 0 0 0.900391,-0.900391 v -2.246094 c 0,-0.28745 0.05294,-0.343008 0.0957,-0.386718 0.04204,-0.04297 0.161845,-0.118388 0.4375,-0.158204 l 0.0078,-0.002 c 4.733036,-0.609871 8.968078,-3.332282 12.09375,-4.103515 0.05976,-0.01376 0.07908,-0.01101 0.115235,-0.01367 1.78e-4,0.01768 0,0.0048 0,0.0293 v 1.863281 c 0,0.321495 -0.02805,0.330966 -0.396485,0.429687 a 0.90008998,0.90008998 0 0 0 -0.01758,0.0059 c -3.640245,1.051728 -7.39009,3.57108 -10.755859,3.90039 a 0.89999998,0.89999998 0 0 0 -0.806641,0.982422 0.89999998,0.89999998 0 0 0 0.982422,0.808594 c 4.063773,-0.3976 7.891526,-3.035777 11.06447,-3.957029 C 31.435361,25.984093 32.25,25.116054 32.25,24.05957 v -1.863281 c 0,-0.612536 -0.245641,-1.267023 -0.773437,-1.595703 -0.263898,-0.164342 -0.536381,-0.235974 -0.802735,-0.251954 z m 0,8.074219 c -0.266354,-0.01549 -0.526581,0.02565 -0.767578,0.08398 a 0.90008998,0.90008998 0 0 0 -0.0039,0 c -3.662487,0.903686 -7.726135,3.532928 -11.898438,4.068359 a 0.90008998,0.90008998 0 0 0 -0.0078,0.002 c -0.535552,0.07351 -1.076849,0.263084 -1.488281,0.683594 -0.411434,0.420509 -0.607422,1.027132 -0.607422,1.644531 v 2.246094 a 0.89999998,0.89999998 0 0 0 0.898437,0.90039 0.89999998,0.89999998 0 0 0 0.900391,-0.90039 v -2.246094 c 0,-0.287451 0.05294,-0.341055 0.0957,-0.384766 0.04277,-0.04371 0.159244,-0.120892 0.445312,-0.160156 h -0.0078 c 4.734535,-0.607582 8.970543,-3.330677 12.097656,-4.103515 l 0.0039,-0.002 c 0.05943,-0.01359 0.07914,-0.01123 0.115235,-0.01367 1.94e-4,0.01841 0,0.0051 0,0.03125 v 1.863282 c 0,0.321495 -0.02805,0.330966 -0.396485,0.429687 a 0.90008998,0.90008998 0 0 0 -0.01758,0.0039 c -3.640245,1.051728 -7.39009,3.573033 -10.755859,3.902343 a 0.89999998,0.89999998 0 0 0 -0.806641,0.982422 0.89999998,0.89999998 0 0 0 0.982422,0.808594 c 4.069772,-0.39819 7.904384,-3.045379 11.080078,-3.962891 l -0.01563,0.0039 C 31.435361,34.058312 32.25,33.192226 32.25,32.135742 V 30.27246 c 0,-0.612535 -0.245641,-1.268975 -0.773437,-1.597656 -0.263898,-0.16434 -0.536381,-0.236462 -0.802735,-0.251953 z" fill="#008055"/>
</svg>
