<svg xmlns="http://www.w3.org/2000/svg" width="48" height="48">
	<path d="m 14.808594,2.7353514 c -1.58619,0 -3.027504,0.4528789 -4.09375,1.3554687 C 9.6485975,4.9934099 9.0078125,6.3578337 9.0078125,7.9052732 V 40.075196 c 0,1.68149 0.618385,3.086001 1.7050785,3.964843 1.086693,0.878843 2.524934,1.22461 4.095703,1.22461 h 18.996094 c 1.547195,0 2.890934,-0.532068 3.808593,-1.484375 0.917659,-0.952308 1.378907,-2.27403 1.378907,-3.705078 V 12.805664 c 0,-1.577084 -0.450931,-2.9306718 -1.396485,-3.8496095 C 36.650151,8.0371168 35.310992,7.635742 33.804688,7.635742 h -7.525391 a 1,1 0 0 0 -1,1 1,1 0 0 0 1,1 h 7.525391 c 1.161695,0 1.914582,0.2855689 2.396484,0.753906 0.481901,0.468337 0.791016,1.20224 0.791016,2.416016 v 27.269532 c 0,1.012841 -0.305518,1.7842 -0.81836,2.316406 -0.512842,0.532205 -1.260495,0.873047 -2.36914,0.873047 H 14.808594 c -1.27148,0 -2.234607,-0.291402 -2.83789,-0.779297 -0.603286,-0.487895 -0.962892,-1.176657 -0.962892,-2.410156 V 7.9052732 c 0,-1.0269805 0.363512,-1.7483141 1,-2.2871094 0.636489,-0.5387951 1.595671,-0.8828124 2.800782,-0.8828124 H 33.5625 a 1,1 0 0 0 1,-1 1,1 0 0 0 -1,-1 z M 26.71875,18.354492 c -0.224517,-0.0053 -0.446766,-0.0018 -0.667969,0.01172 -2.654443,0.161957 -5.027501,1.683464 -6.052734,4.429688 a 0.90008998,0.90008998 0 0 0 -0.01172,0.03125 c -0.699099,2.115343 -0.510081,3.756751 -0.384765,4.917968 0.06266,0.580609 0.09831,1.034094 0.05078,1.382813 -0.04745,0.348138 -0.144616,0.606979 -0.451172,0.957031 0,0 0,0.002 0,0.002 l -4.433594,4.615235 0.04102,-0.03906 c -1.125487,1.034944 -1.187692,2.607554 -0.390625,3.507813 0.797066,0.900259 2.401679,0.979702 3.511719,-0.08789 a 0.90008998,0.90008998 0 0 0 0.01172,-0.01367 l 4.759766,-4.755859 a 0.89999998,0.89999998 0 0 0 0,-1.271485 0.89999998,0.89999998 0 0 0 -1.273438,0 l -4.757812,4.75586 0.01172,-0.01367 c -0.578342,0.556227 -0.76624,0.362525 -0.916016,0.193359 -0.149776,-0.169166 -0.312425,-0.462278 0.261719,-0.990234 a 0.90008998,0.90008998 0 0 0 0.03906,-0.03906 l 4.460938,-4.644531 a 0.90008998,0.90008998 0 0 0 0.02734,-0.0293 c 0.518357,-0.591066 0.793727,-1.263082 0.880859,-1.902344 0.08713,-0.639261 0.01875,-1.230298 -0.04492,-1.820312 -0.126856,-1.175492 -0.278402,-2.375342 0.300781,-4.140625 1.061535,-2.821014 3.648766,-3.828082 6.572266,-3.017578 2.912391,0.890007 4.185586,3.745735 3.345703,6.644531 -0.562098,1.752855 -1.554547,2.703183 -2.876953,3.191406 -1.324841,0.489122 -3.03915,0.460763 -4.884766,-0.06055 a 0.89999998,0.89999998 0 0 0 -1.111328,0.623046 0.89999998,0.89999998 0 0 0 0.623047,1.109375 c 2.105588,0.594741 4.191108,0.682013 5.996094,0.01563 1.804985,-0.666388 3.270248,-2.139526 3.972656,-4.339843 a 0.90008998,0.90008998 0 0 0 0.0059,-0.02148 c 1.086422,-3.71984 -0.709949,-7.72043 -4.554687,-8.888672 a 0.90008998,0.90008998 0 0 0 -0.01953,-0.0059 C 28.078874,18.471244 27.3923,18.370507 26.71875,18.354492 Z" fill="#008055"/>
</svg>
