<svg xmlns="http://www.w3.org/2000/svg" width="48" height="48">
	<path d="m 14.809571,2.7353515 c -1.586186,0 -3.027505,0.45288 -4.09375,1.355469 -1.066247,0.902589 -1.708985,2.267012 -1.708985,3.814453 V 40.073242 c 0,1.681492 0.620335,3.087956 1.707031,3.966797 1.086697,0.878842 2.524939,1.224609 4.095704,1.224609 h 18.99414 c 1.547191,0 2.892888,-0.532069 3.810547,-1.484375 0.917659,-0.952306 1.378906,-2.275981 1.378906,-3.707031 V 12.803711 c 0,-1.577085 -0.452885,-2.9287195 -1.398437,-3.8476565 -0.945553,-0.918937 -2.284721,-1.322266 -3.791016,-1.322266 h -7.523437 a 1,1 0 0 0 -1,1 1,1 0 0 0 1,1 h 7.523437 c 1.161685,0 1.916535,0.287522 2.398438,0.7558595 0.481902,0.468338 0.791015,1.200287 0.791015,2.414063 v 27.269531 c 0,1.012839 -0.305516,1.786153 -0.818359,2.31836 -0.512843,0.532206 -1.262455,0.873046 -2.371094,0.873046 h -18.99414 c -1.271476,0 -2.234602,-0.291401 -2.837891,-0.779296 -0.603289,-0.487896 -0.964844,-1.178613 -0.964844,-2.41211 V 7.9052735 c 0,-1.026979 0.36351,-1.748314 1,-2.287109 0.636491,-0.538797 1.59763,-0.882813 2.802735,-0.882813 h 18.751953 a 1,1 0 0 0 1,-1 1,1 0 0 0 -1,-1 z m 11.65625,20.4902345 c -0.791025,0 -1.498478,0.259804 -2.183594,0.488282 -0.685116,0.228477 -1.34303,0.436047 -1.947266,0.46875 -0.604225,0.0327 -1.302474,-0.100927 -1.958984,-0.263672 -0.656511,-0.162745 -1.22055,-0.371094 -1.855469,-0.371094 -0.562562,0 -2.117802,-0.240686 -3.085937,0.958984 -0.835011,1.03473 -1.667325,1.94042 -1.689454,3.158203 a 0.80008001,0.80008001 0 0 0 0,0.0039 c -0.0168,1.194103 0.734634,2.155308 1.554688,2.853515 a 0.80008001,0.80008001 0 0 0 0.02734,0.02148 c 0.161754,0.125749 0.152404,0.08704 0.130859,0.205078 -0.285737,1.361103 -0.182736,2.727111 0.431641,3.964844 a 0.80000001,0.80000001 0 0 0 1.072265,0.361328 0.80000001,0.80000001 0 0 0 0.359375,-1.072266 C 16.87595,33.105742 16.793293,32.152575 17.026367,31.05957 a 0.80008001,0.80008001 0 0 0 0.0039,-0.02344 c 0.135055,-0.739924 -0.282598,-1.41527 -0.720703,-1.755859 l 0.02734,0.02344 C 15.737869,28.793684 15.34188,28.11461 15.34667,27.692383 c 0.0063,-0.291033 0.517437,-1.17221 1.332031,-2.18164 0.346325,-0.42915 1.038459,-0.361328 1.841797,-0.361328 0.149051,0 0.768164,0.14811 1.470703,0.322265 0.70254,0.174155 1.541023,0.356691 2.429688,0.308594 0.888663,-0.0481 1.678683,-0.317268 2.367187,-0.546875 0.688504,-0.229607 1.279438,-0.408203 1.677735,-0.408203 0.25515,0 0.769626,0.223056 1.324218,0.662109 0.554593,0.439053 1.142958,1.046284 1.673828,1.609375 a 0.80008001,0.80008001 0 0 0 0.01758,0.01953 c 0.272076,0.269502 0.617849,0.489127 1.046876,0.587891 0.429026,0.09876 0.971914,0.03783 1.404296,-0.277344 a 0.80008001,0.80008001 0 0 0 0.07422,-0.0625 c 0.2804,-0.260824 0.486707,-0.599156 0.623047,-0.988281 A 0.80000001,0.80000001 0 0 0 32.139642,25.356445 0.80000001,0.80000001 0 0 0 31.12011,25.84668 c -0.05485,0.156554 -0.116599,0.231234 -0.169922,0.291015 -0.01298,0.0045 -0.01898,0.01783 -0.0625,0.0078 -0.07198,-0.01657 -0.198332,-0.08582 -0.279296,-0.166015 -0.535409,-0.567701 -1.153954,-1.213921 -1.826172,-1.746094 -0.679565,-0.53799 -1.419438,-1.007813 -2.316406,-1.007813 z m 7.537109,1.419922 a 0.80000001,0.80000001 0 0 0 -0.800781,0.798828 c -0.0015,1.030575 -0.75699,2.179248 -1.320313,2.951172 -0.291492,0.399436 -0.484328,0.705933 -0.623047,0.996094 a 0.80008001,0.80008001 0 0 0 -0.0098,0.02344 c -0.06122,0.138693 -0.116091,0.197114 -0.136719,0.212891 -0.02063,0.01578 -0.01382,0.0278 -0.13086,0.02344 a 0.80008001,0.80008001 0 0 0 -0.01758,0 c -0.673329,-0.01054 -1.191015,-0.135988 -1.785156,-0.523438 -0.265025,-0.178768 -0.583956,-0.342926 -0.986328,-0.324219 -0.396485,0.01843 -0.728239,0.2436 -0.949219,0.46875 -0.531742,0.506276 -1.088452,1.197873 -1.27539,2.144532 -0.188519,0.954664 0.03062,2.086973 0.785156,3.351562 a 0.80000001,0.80000001 0 0 0 1.095703,0.277344 0.80000001,0.80000001 0 0 0 0.277344,-1.097656 c -0.615529,-1.031622 -0.688309,-1.712182 -0.587891,-2.220704 0.09654,-0.488883 0.398799,-0.88456 0.785156,-1.259765 0.838884,0.541922 1.723371,0.765994 2.605469,0.78125 0.421261,0.01378 0.845358,-0.11334 1.154297,-0.349609 0.310999,-0.237848 0.499194,-0.545978 0.628906,-0.839844 l -0.0098,0.02344 c 0.07758,-0.162279 0.214288,-0.390096 0.472656,-0.74414 0.573417,-0.785757 1.624448,-2.163441 1.626953,-3.890625 A 0.80000001,0.80000001 0 0 0 34.00293,24.645508 Z m -14.226563,5.050781 c -0.09437,-0.0076 -0.196428,-0.0056 -0.308593,0.01172 -0.448662,0.06914 -0.72784,0.344521 -0.980469,0.626953 a 0.80008001,0.80008001 0 0 0 -0.02734,0.0332 c -0.548229,0.681227 -0.929377,1.410407 -0.976562,2.214844 -0.04719,0.804437 0.278563,1.608939 0.882812,2.300781 a 0.80000001,0.80000001 0 0 0 1.128906,0.07617 0.80000001,0.80000001 0 0 0 0.07617,-1.128906 c -0.409311,-0.468646 -0.510669,-0.805917 -0.490234,-1.154297 0.02025,-0.345236 0.200692,-0.774168 0.615234,-1.292969 0.02059,-0.02198 0.02245,-0.02294 0.03711,-0.03711 0.02012,0.0073 0.02018,0.0062 0.04688,0.01758 1.167344,0.568737 2.460143,0.58639 3.730468,0.478516 -0.02449,1.0373 0.02448,2.012884 0.316407,2.794922 a 0.80000001,0.80000001 0 0 0 1.029296,0.470703 0.80000001,0.80000001 0 0 0 0.46875,-1.029297 c -0.150821,-0.404015 -0.252462,-1.316194 -0.224616,-2.2832 a 0.80008001,0.80008001 0 0 0 0,-0.002 c 0.0078,-0.283036 0.08615,-0.638519 -0.240234,-1.085938 -0.163194,-0.223709 -0.439991,-0.381959 -0.677735,-0.4375 -0.237743,-0.05554 -0.450077,-0.04664 -0.675781,-0.02148 l 0.01563,-0.002 c -1.211787,0.113087 -2.266346,0.06338 -3.050781,-0.322265 a 0.80008001,0.80008001 0 0 0 -0.02148,-0.0098 c -0.180079,-0.08203 -0.390704,-0.195881 -0.673828,-0.21875 z" fill="#008055"/>
</svg>
