<svg xmlns="http://www.w3.org/2000/svg" width="48" height="48">
	<path d="m 14.80957,2.7353513 c -1.586185,0 -3.027503,0.4528796 -4.09375,1.3554688 C 9.6495732,4.9934092 9.0068359,6.3578324 9.0068359,7.9052732 V 40.073242 c 0,1.681493 0.6203349,3.087956 1.7070311,3.966797 1.086696,0.878841 2.522985,1.22461 4.09375,1.22461 h 18.996094 c 1.547191,0 2.892887,-0.532069 3.810547,-1.484376 0.917659,-0.952306 1.378906,-2.275981 1.378906,-3.707031 V 12.803711 c 0,-1.577085 -0.452884,-2.9287193 -1.398438,-3.8476563 C 36.649172,8.0371174 35.31001,7.6337888 33.803711,7.6337888 H 26.27832 a 1,1 0 0 0 -1,0.9999999 1,1 0 0 0 1,1 h 7.525391 c 1.16169,0 1.916534,0.28752 2.398437,0.7558603 0.481904,0.468337 0.791016,1.200287 0.791016,2.414062 v 27.269531 c 0,1.01284 -0.307469,1.786154 -0.820313,2.31836 -0.512843,0.532206 -1.260501,0.873047 -2.36914,0.873047 H 14.807617 c -1.271475,0 -2.232649,-0.291401 -2.835937,-0.779297 -0.603289,-0.487897 -0.964844,-1.178612 -0.964844,-2.41211 V 7.9052732 c 0,-1.0269792 0.363509,-1.7483135 1,-2.2871094 0.63649,-0.5387958 1.59763,-0.8828125 2.802734,-0.8828125 h 18.751953 a 1,1 0 0 0 1,-1 1,1 0 0 0 -1,-1 z m 5.978516,20.4023437 c -0.708601,0 -1.380805,0.154501 -1.890625,0.605469 -0.509821,0.450968 -0.744141,1.144679 -0.744141,1.875 v 6.009766 a 0.80000001,0.80000001 0 0 0 0.800781,0.800781 0.80000001,0.80000001 0 0 0 0.798829,-0.800781 v -6.009766 c 0,-0.430849 0.09313,-0.576757 0.205078,-0.675781 0.111947,-0.09902 0.355629,-0.205078 0.830078,-0.205078 h 9.929687 c 0.67179,0 1.074953,0.226083 1.365235,0.554687 0.290281,0.328605 0.453217,0.799367 0.453125,1.28125 -9.3e-5,0.481883 -0.16466,0.952538 -0.455079,1.28125 -0.290418,0.328713 -0.692113,0.552735 -1.363281,0.552735 -0.775519,0 -1.493213,0.167146 -2.027343,0.65039 -0.534131,0.483245 -0.765626,1.214579 -0.765626,1.990235 v 1.839843 a 0.80000001,0.80000001 0 0 0 0.800782,0.798828 0.80000001,0.80000001 0 0 0 0.798828,-0.798828 v -1.839843 c 0,-0.492715 0.105957,-0.683017 0.238281,-0.802735 0.132324,-0.119718 0.410558,-0.238281 0.955078,-0.238281 1.073752,0 1.980143,-0.434606 2.5625,-1.09375 0.582357,-0.659144 0.855309,-1.504584 0.855469,-2.339844 1.6e-4,-0.835259 -0.271148,-1.682544 -0.853516,-2.341797 -0.582368,-0.659252 -1.490312,-1.09375 -2.564453,-1.09375 z m -4.894531,1.589844 a 0.80000001,0.80000001 0 0 0 -0.800782,0.800781 v 7.556641 a 0.80008001,0.80008001 0 0 0 0.002,0.02344 c 0.01813,0.64826 0.188947,1.266153 0.638671,1.701171 0.449725,0.435019 1.066383,0.580079 1.691406,0.580079 h 6.369141 c 2.046241,0 3.341608,-1.522599 3.345703,-3.050782 0.0041,-1.528183 -1.289906,-3.054687 -3.345703,-3.054687 -1.183169,0 -1.501428,-0.606182 -1.503906,-1.177735 -0.0025,-0.571553 0.299812,-1.169922 1.503906,-1.169922 h 3.601563 a 0.80000001,0.80000001 0 0 0 0.798828,-0.798828 0.80000001,0.80000001 0 0 0 -0.798828,-0.800781 h -3.601563 c -1.885426,0 -3.109594,1.375472 -3.103515,2.777344 0.0061,1.401872 1.231384,2.769531 3.103515,2.769531 1.350254,0 1.748036,0.726435 1.746094,1.451172 -0.0019,0.724737 -0.410434,1.455078 -1.746094,1.455078 H 17.42485 c -0.390984,0 -0.52575,-0.07831 -0.580078,-0.130859 -0.05362,-0.05186 -0.137152,-0.190065 -0.15039,-0.587891 v -7.542969 a 0.80000001,0.80000001 0 0 0 -0.800781,-0.800781 z" fill="#008055"/>
</svg>
