<svg xmlns="http://www.w3.org/2000/svg" width="48" height="48">
	<path d="m 14.808594,2.7353515 c -1.586185,0 -3.025551,0.454833 -4.091797,1.357422 -1.0662465,0.90259 -1.7089845,2.26506 -1.7089845,3.8125 V 40.075195 c 0,1.681494 0.620335,3.086003 1.7070315,3.964844 1.086696,0.878842 2.522984,1.224609 4.09375,1.224609 h 18.996094 c 1.547195,0 2.892885,-0.532068 3.810546,-1.484375 0.917662,-0.952306 1.376954,-2.274028 1.376954,-3.705078 V 12.805664 c 0,-1.577085 -0.45093,-2.9306715 -1.396485,-3.8496085 -0.945554,-0.918937 -2.284715,-1.320313 -3.791015,-1.320313 h -7.525391 a 1,1 0 0 0 -1,1 1,1 0 0 0 1,1 h 7.525391 c 1.16169,0 1.916533,0.287521 2.398437,0.7558595 0.481904,0.46834 0.789063,1.200288 0.789063,2.414062 v 27.269531 c 0,1.01284 -0.305515,1.786155 -0.81836,2.31836 -0.512844,0.532207 -1.260495,0.871093 -2.36914,0.871093 H 14.808594 c -1.271476,0 -2.232649,-0.2914 -2.835938,-0.779296 -0.603289,-0.487896 -0.964844,-1.176659 -0.964844,-2.410157 V 7.9052735 c 0,-1.026979 0.36351,-1.748313 1,-2.287109 0.636491,-0.538796 1.595677,-0.882813 2.800782,-0.882813 H 33.5625 a 1,1 0 0 0 1,-1 1,1 0 0 0 -1,-1 z M 31.791016,21.418945 a 1,1 0 0 0 -0.771485,0.394532 L 22.591797,32.93457 v -9.328125 c 0,-0.535339 -0.04325,-1.080427 -0.5,-1.5625 -0.456753,-0.482072 -1.206127,-0.519706 -1.712891,-0.375 a 1.0001,1.0001 0 0 0 -0.01758,0.0059 c -2.395077,0.734487 -4.71387,2.816283 -4.666016,5.861328 a 1,1 0 0 0 1.015626,0.984375 1,1 0 0 0 0.984375,-1.015625 c -0.02929,-1.86398 1.312482,-3.087096 2.896484,-3.701172 v 9.40039 c 0,0.478662 0.01016,0.888751 0.06836,1.269532 0.05821,0.380781 0.07464,0.84231 0.673828,1.230468 0.299594,0.19408 0.727165,0.227187 1.009766,0.150391 0.282601,-0.0768 0.468528,-0.206228 0.638672,-0.341797 0.340291,-0.271137 0.630578,-0.614629 0.992187,-1.091797 L 32.61328,23.022501 A 1,1 0 0 0 32.419921,21.62211 1,1 0 0 0 31.791015,21.418985 Z" fill="#008055"/>
</svg>
