<svg xmlns="http://www.w3.org/2000/svg" width="48" height="48">
	<path d="m 14.80957,2.7353515 c -1.58618,0 -3.027502,0.4548333 -4.09375,1.3574219 -1.066246,0.9025885 -1.7089839,2.2650579 -1.7089839,3.8125 V 40.075195 c 0,1.681492 0.6203359,3.086003 1.7070309,3.964844 1.086696,0.878842 2.522981,1.224609 4.09375,1.224609 h 18.996094 c 1.547187,0 2.892887,-0.532069 3.810547,-1.484375 0.91766,-0.952306 1.378906,-2.274026 1.378906,-3.705078 v -27.26953 c 0,-1.577086 -0.452882,-2.9306735 -1.398437,-3.8496104 C 36.649171,8.0371177 35.310015,7.6357421 33.803711,7.6357421 H 26.27832 a 1,1 0 0 0 -1,1 1,1 0 0 0 1,1 h 7.525391 c 1.161696,0 1.916533,0.2875213 2.398438,0.7558599 0.481904,0.468338 0.791015,1.200286 0.791015,2.414063 v 27.26953 c 0,1.012839 -0.307467,1.786153 -0.820312,2.31836 -0.512845,0.532207 -1.260508,0.871093 -2.369141,0.871093 H 14.807617 c -1.27148,0 -2.23265,-0.291401 -2.835937,-0.779296 -0.603287,-0.487896 -0.964844,-1.176657 -0.964844,-2.410157 V 7.9052734 c 0,-1.0269779 0.363508,-1.7483129 1,-2.2871094 0.636492,-0.5387965 1.597637,-0.8828125 2.802734,-0.8828125 h 18.751954 a 1,1 0 0 0 1,-1 1,1 0 0 0 -1,-1 z m 4.439454,17.9628905 c -0.56666,0 -1.148838,0.107419 -1.626954,0.501953 -0.478115,0.394533 -0.71289,1.040982 -0.71289,1.681641 v 5.242187 c -0.0071,1.802064 0.795832,3.192203 2.021484,3.941407 1.226613,0.74979 2.750746,0.951172 4.359375,0.951172 1.742009,0 3.341546,-0.215433 4.617188,-0.964844 1.275641,-0.749411 2.11914,-2.143075 2.11914,-3.927735 v -4.169921 a 0.90000498,0.90000498 0 0 0 -0.90039,-0.900391 0.90000498,0.90000498 0 0 0 -0.900391,0.900391 v 4.169921 c 0,1.294122 -0.415932,1.897626 -1.228516,2.375 -0.812583,0.477375 -2.130299,0.71875 -3.707031,0.71875 -1.44081,0 -2.664641,-0.22582 -3.419922,-0.6875 -0.75528,-0.46168 -1.168325,-1.066423 -1.162109,-2.402343 a 0.90009498,0.90009498 0 0 0 0,-0.0039 v -5.242187 c 0,-0.282382 0.04051,-0.276432 0.06055,-0.292968 0.02004,-0.01654 0.156848,-0.08984 0.480469,-0.08984 h 12.074218 c 0.408892,0 0.959743,0.117824 1.320313,0.365234 0.360569,0.247411 0.607422,0.546233 0.607422,1.320313 0,0.784506 -0.234848,1.060186 -0.570313,1.289062 -0.335464,0.228876 -0.862443,0.3405 -1.289062,0.341797 a 0.90000498,0.90000498 0 0 0 -0.896485,0.902344 0.90000498,0.90000498 0 0 0 0.902344,0.896484 c 0.68143,-0.0021 1.532875,-0.129759 2.298828,-0.652343 0.765953,-0.522585 1.355469,-1.51056 1.355469,-2.777344 0,-1.277241 -0.614217,-2.271943 -1.390625,-2.804688 -0.776408,-0.532744 -1.639332,-0.68164 -2.337891,-0.68164 z m 12.490234,11.419922 a 0.90000498,0.90000498 0 0 0 -0.626953,0.259766 c -0.676626,0.667713 -1.77768,1.450926 -3.142578,1.498047 h -8.980469 a 0.90009498,0.90009498 0 0 0 -0.0059,0 c -1.426392,0.01033 -2.597712,-0.643201 -3.273438,-1.425782 a 0.90000498,0.90000498 0 0 0 -1.269531,-0.0918 0.90000498,0.90000498 0 0 0 -0.09375,1.269531 c 1.019414,1.180619 2.675542,2.061169 4.65039,2.046875 h 9.003907 a 0.90009498,0.90009498 0 0 0 0.03125,0 c 2.000941,-0.06908 3.479276,-1.162538 4.34375,-2.015625 a 0.90000498,0.90000498 0 0 0 0.0098,-1.271485 0.90000498,0.90000498 0 0 0 -0.646484,-0.269531 z" fill="#008055"/>
</svg>
