<svg xmlns="http://www.w3.org/2000/svg" width="48" height="48">
	<path d="m 14.80957,2.7353514 c -1.586185,0 -3.027503,0.4528795 -4.09375,1.3554687 C 9.649573,4.9934093 9.006836,6.3578324 9.006836,7.9052732 V 40.073242 c 0,1.681493 0.620335,3.087956 1.707031,3.966797 1.086697,0.878842 2.522985,1.22461 4.09375,1.22461 h 18.996094 c 1.547191,0 2.892888,-0.532069 3.810547,-1.484375 0.917659,-0.952307 1.378906,-2.275981 1.378906,-3.707032 V 12.803711 c 0,-1.577085 -0.452883,-2.9287194 -1.398437,-3.8476564 C 36.649173,8.0371175 35.31001,7.6337888 33.803711,7.6337888 H 26.27832 a 1,1 0 0 0 -1,0.9999998 1,1 0 0 0 1,1 h 7.525391 c 1.161691,0 1.916533,0.287522 2.398438,0.7558604 0.481903,0.468338 0.791015,1.200287 0.791015,2.414062 v 27.269531 c 0,1.01284 -0.307469,1.786154 -0.820312,2.31836 -0.512844,0.532206 -1.260502,0.873047 -2.369141,0.873047 H 14.807617 c -1.271475,0 -2.232649,-0.291401 -2.835937,-0.779297 -0.603289,-0.487896 -0.964844,-1.178612 -0.964844,-2.41211 V 7.9052732 c 0,-1.0269792 0.363509,-1.7483135 1,-2.2871094 0.636491,-0.5387957 1.59763,-0.8828124 2.802734,-0.8828124 h 18.751953 a 1,1 0 0 0 1,-1 1,1 0 0 0 -1,-1 z M 30.389649,18.741211 c -0.721894,0.04733 -1.424429,0.367261 -1.9375,0.947266 -0.936829,1.059042 -0.819133,2.592086 0.06445,3.648437 a 0.69999177,0.70000821 84.994952 0 0 0.148437,0.31836 c 0.0067,0.0061 0.005,0.01539 0.01172,0.02148 a 0.69999177,0.70000821 84.994952 0 0 0.03906,0.0332 0.69999177,0.70000821 84.994952 0 0 0.03516,0.03125 c 0.0048,0.004 0.01277,-7.4e-5 0.01758,0.0039 a 0.69999177,0.70000821 84.994952 0 0 0.0039,0.002 0.69999177,0.70000821 84.994952 0 0 0.339844,0.107422 c 1.168908,0.726124 2.701474,0.629171 3.61914,-0.445312 1.005806,-1.177686 0.873994,-2.966436 -0.294922,-3.982422 -0.584458,-0.507993 -1.324981,-0.732872 -2.046874,-0.685547 z m 0.0918,1.388672 c 0.363417,-0.02379 0.734602,0.09228 1.035157,0.353516 0.60111,0.522466 0.667617,1.411963 0.15039,2.017578 -0.517227,0.605614 -1.405516,0.679899 -2.015625,0.167969 a 0.69999177,0.70000821 84.994952 0 0 -0.01953,-0.01758 0.69999177,0.70000821 84.994952 0 0 -0.01758,-0.01563 c -0.591929,-0.532844 -0.642919,-1.423006 -0.115235,-2.019531 0.263843,-0.298262 0.619006,-0.462536 0.982422,-0.486328 z m -6.828125,2.849609 c -1.705906,-0.03306 -3.431797,0.475504 -4.896484,1.556641 -0.836964,0.617793 -1.519194,1.372007 -2.039063,2.210937 -1.559601,2.516793 -1.647682,5.796119 0.002,8.445313 a 0.99999633,1.0000037 84.987661 0 0 1.376953,0.320313 0.99999633,1.0000037 84.987661 0 0 0.320312,-1.376954 c -1.657751,-2.662147 -0.993919,-6.127796 1.529247,-7.990234 2.523166,-1.862438 6.028377,-1.475861 8.083984,0.892578 2.055607,2.368439 1.947043,5.894917 -0.251953,8.13086 -2.198995,2.235942 -5.722609,2.406454 -8.125,0.390624 a 0.99999633,1.0000037 84.987661 0 0 -1.410156,0.123047 0.99999633,1.0000037 84.987661 0 0 0.125,1.408203 c 3.187601,2.674696 7.918207,2.449176 10.835938,-0.517578 2.917732,-2.966753 3.065363,-7.70315 0.33789,-10.845703 C 28.007789,23.959853 25.846628,23.022 23.65332,22.979492 Z" fill="#008055"/>
</svg>
