<svg xmlns="http://www.w3.org/2000/svg" width="48" height="48">
	<path d="m 14.80957,2.7353515 c -1.586189,0 -3.027501,0.452879 -4.09375,1.355469 -1.066248,0.902589 -1.708984,2.267012 -1.708984,3.814453 V 40.073242 c 0,1.681492 0.620337,3.087954 1.707031,3.966797 1.086694,0.878842 2.522985,1.224609 4.09375,1.224609 h 18.996094 c 1.547191,0 2.892888,-0.532069 3.810547,-1.484375 0.917659,-0.952306 1.378906,-2.275981 1.378906,-3.707031 V 12.803711 c 0,-1.577084 -0.452886,-2.9287185 -1.398437,-3.8476565 -0.945552,-0.918938 -2.284717,-1.322266 -3.791016,-1.322266 H 26.27832 a 1,1 0 0 0 -1,1 1,1 0 0 0 1,1 h 7.525391 c 1.161691,0 1.916536,0.287522 2.398438,0.7558595 0.481901,0.468337 0.791015,1.200286 0.791015,2.414063 v 27.269531 c 0,1.012839 -0.307469,1.786153 -0.820312,2.31836 -0.512844,0.532206 -1.260502,0.873046 -2.369141,0.873046 H 14.807617 c -1.271475,0 -2.232651,-0.291401 -2.835937,-0.779296 -0.603286,-0.487896 -0.964844,-1.178612 -0.964844,-2.41211 V 7.9052735 c 0,-1.026979 0.363509,-1.748314 1,-2.28711 0.636491,-0.538795 1.597624,-0.882812 2.802734,-0.882812 h 18.751953 a 1,1 0 0 0 1,-1 1,1 0 0 0 -1,-1 z M 30.211914,18.786133 c -0.926454,0 -1.799427,0.789871 -1.806641,1.898437 v 0.002 1.574219 c 0,1.117124 0.893417,1.884765 1.806641,1.884765 0.965592,0 1.806641,-0.819444 1.806641,-1.884765 v -0.002 -0.002 c -0.004,-0.640287 -0.328527,-1.184943 -0.796875,-1.439453 -0.468348,-0.254509 -1.034368,-0.239636 -1.511719,0.0098 a 0.55000001,0.55000001 0 0 0 -0.205078,0.185547 v -0.322266 -0.002 c 0.0047,-0.546731 0.404286,-0.802734 0.707031,-0.802734 0.141993,0 0.327428,0.07489 0.46875,0.216796 a 0.55000001,0.55000001 0 0 0 0.777344,0 0.55000001,0.55000001 0 0 0 0.002,-0.777343 C 31.12675,18.9905 30.684788,18.786073 30.211961,18.786073 Z m -4.892578,0.08594 a 0.55005501,0.55005501 0 0 0 -0.548828,0.548828 v 4.246094 a 0.55000001,0.55000001 0 0 0 0.548828,0.548828 0.55000001,0.55000001 0 0 0 0.550781,-0.548828 v -1.587891 h 1.080078 a 0.55000001,0.55000001 0 0 0 0.548828,-0.548828 0.55000001,0.55000001 0 0 0 -0.548828,-0.550781 h -1.080078 v -1.007813 h 1.638672 a 0.55000001,0.55000001 0 0 0 0.548828,-0.550781 0.55000001,0.55000001 0 0 0 -0.548828,-0.548828 z m -4.474609,0.02539 a 0.55005501,0.55005501 0 0 0 -0.550782,0.550782 v 4.263671 a 0.55005501,0.55005501 0 0 0 0.550782,0.548829 h 1.402343 c 0.52841,2.2e-5 0.984656,-0.219471 1.246094,-0.546876 0.260403,-0.326106 0.337567,-0.70506 0.333985,-1.033204 -0.0019,-0.601137 -0.34577,-1.032855 -0.689454,-1.289062 0.248561,-0.263183 0.503907,-0.579292 0.503907,-1.0625 0,-0.459478 -0.23443,-0.865417 -0.542969,-1.099609 -0.308539,-0.234193 -0.669799,-0.332032 -1.023438,-0.332032 z m -4,0.05078 a 0.55005501,0.55005501 0 0 0 -0.548828,0.550781 v 4.24414 a 0.55005501,0.55005501 0 0 0 0.548828,0.550781 h 2.1875 a 0.55000001,0.55000001 0 0 0 0.550781,-0.550781 0.55000001,0.55000001 0 0 0 -0.550781,-0.550781 h -1.636719 v -1.03711 h 1.080078 a 0.55000001,0.55000001 0 0 0 0.548828,-0.548828 0.55000001,0.55000001 0 0 0 -0.548828,-0.550782 h -1.080078 v -1.007812 h 1.638672 a 0.55000001,0.55000001 0 0 0 0.548828,-0.548828 0.55000001,0.55000001 0 0 0 -0.548828,-0.550781 z m 4.548828,1.048828 h 0.68164 c 0.135072,0 0.281397,0.04823 0.359375,0.107422 0.07798,0.05919 0.107422,0.09319 0.107422,0.224609 0,0.307231 -0.06586,0.34454 -0.169922,0.419922 -0.104065,0.07538 -0.271916,0.120951 -0.498047,0.205078 a 0.55005501,0.55005501 0 0 0 0.02344,1.039062 c 0.210361,0.06743 0.430456,0.125055 0.589844,0.230469 0.159388,0.105415 0.242187,0.171779 0.242187,0.460938 a 0.55005501,0.55005501 0 0 0 0,0.0078 c 0.0017,0.129903 -0.03888,0.262819 -0.0957,0.333984 -0.05683,0.07117 -0.118186,0.134778 -0.384766,0.134766 H 21.39356 Z m 8.111328,1.61914 a 0.55000001,0.55000001 0 0 0 0.71289,0.185547 c 0.174971,-0.09142 0.359174,-0.08243 0.478516,-0.01758 0.118943,0.06464 0.220015,0.164068 0.222656,0.478516 -9.56e-4,0.52636 -0.327581,0.783203 -0.707031,0.783203 -0.333896,0 -0.707031,-0.219855 -0.707031,-0.785156 z m 0.716797,3.609375 c -0.976152,0 -1.808594,0.847222 -1.808594,1.931641 v 1.628906 c 0,1.109946 0.851079,1.947265 1.808594,1.947265 0.937602,0 1.799549,-0.816844 1.80664,-1.945312 v -1.630859 c 0,-1.137592 -0.883015,-1.931641 -1.80664,-1.931641 z m -8.417969,0.117187 c -0.807822,-0.0016 -1.591797,0.723977 -1.591797,1.775391 a 0.55000001,0.55000001 0 0 0 0.550781,0.550781 0.55000001,0.55000001 0 0 0 0.548828,-0.550781 c 0,-0.58562 0.258257,-0.676231 0.490235,-0.675781 0.231977,4.5e-4 0.490234,0.09535 0.490234,0.675781 0,0.272742 -0.06266,0.410215 -0.179687,0.564453 -0.117023,0.154238 -0.313638,0.314576 -0.566406,0.501953 -0.505539,0.374755 -1.24017,0.891379 -1.548829,1.90625 a 0.55005501,0.55005501 0 0 0 0.525391,0.708985 h 2.523438 A 0.55000001,0.55000001 0 0 0 23.59668,30.250977 0.55000001,0.55000001 0 0 0 23.045899,29.700195 H 21.65918 c 0.190001,-0.188322 0.295104,-0.449071 0.542969,-0.632812 0.263103,-0.19504 0.54916,-0.407084 0.787109,-0.720703 0.237949,-0.31362 0.402344,-0.73849 0.402344,-1.228516 0,-1.048533 -0.780069,-1.773823 -1.587891,-1.775391 z m 4.189453,0.0078 c -0.976152,0 -1.808594,0.847222 -1.808594,1.931641 v 1.628906 c 0,1.109947 0.851079,1.947266 1.808594,1.947266 0.937602,0 1.79955,-0.814892 1.806641,-1.94336 v -0.002 -1.63086 c 0,-1.137591 -0.883016,-1.93164 -1.806641,-1.93164 z m -9.212891,0.179688 a 0.55005501,0.55005501 0 0 0 -0.550781,0.548828 v 1.808594 a 0.55005501,0.55005501 0 0 0 0.550781,0.548828 c 0.621988,0 0.986608,2.36e-4 1.185547,0.0918 a 0.55005501,0.55005501 0 0 0 0.002,0 c 0.199267,0.09154 0.34961,0.244529 0.34961,0.576172 a 0.55005501,0.55005501 0 0 0 0,0.002 c 6.44e-4,0.28971 -0.09021,0.398009 -0.232422,0.503906 -0.142211,0.105897 -0.368134,0.164062 -0.503906,0.164062 -0.118182,0 -0.268112,-0.03627 -0.369141,-0.101562 -0.101028,-0.0653 -0.16933,-0.136652 -0.207031,-0.316406 a 0.55000001,0.55000001 0 0 0 -0.650391,-0.425782 0.55000001,0.55000001 0 0 0 -0.425781,0.652344 c 0.09535,0.45461 0.369763,0.809577 0.685547,1.013672 0.315784,0.204095 0.658219,0.279297 0.966797,0.279297 0.369138,0 0.786608,-0.103199 1.162109,-0.382813 0.375501,-0.279613 0.675184,-0.780995 0.673828,-1.390625 -8.26e-4,-0.740451 -0.44848,-1.325337 -0.990234,-1.574218 v 0.002 c -0.361747,-0.166493 -0.730194,-0.127361 -1.097656,-0.128907 v -0.771484 h 1.451171 a 0.55000001,0.55000001 0 0 0 0.550782,-0.550781 0.55000001,0.55000001 0 0 0 -0.550782,-0.548828 z m 13.441407,0.794922 c 0.324255,0 0.707031,0.227761 0.707031,0.832031 v 1.625 c -0.0037,0.58701 -0.414253,0.851562 -0.707031,0.851562 -0.272865,0 -0.707031,-0.309003 -0.707031,-0.847656 v -1.628906 c 0,-0.565002 0.336763,-0.832031 0.707031,-0.832031 z m -4.228516,0.125 c 0.324255,0 0.707031,0.227761 0.707031,0.832031 v 1.625 c -0.0037,0.58701 -0.414253,0.851562 -0.707031,0.851562 -0.272865,0 -0.707031,-0.309003 -0.707031,-0.847656 v -1.628906 c 0,-0.565002 0.336763,-0.832031 0.707031,-0.832031 z m -3.882812,5.46289 c -0.650898,0 -1.241895,0.319924 -1.636719,0.8125 -0.394824,0.492577 -0.613281,1.151569 -0.613281,1.882813 0,1.470453 0.990772,2.630859 2.25,2.630859 0.629612,0 1.214723,-0.292097 1.617187,-0.767578 a 0.55000001,0.55000001 0 0 0 -0.06445,-0.775391 0.55000001,0.55000001 0 0 0 -0.775391,0.06445 c -0.215156,0.25419 -0.478676,0.378906 -0.777343,0.378906 -0.597333,0 -1.150391,-0.515748 -1.150391,-1.53125 0,-0.511736 0.155035,-0.925762 0.371094,-1.195313 0.216058,-0.269551 0.474905,-0.40039 0.779297,-0.40039 0.304409,0 0.56324,0.130846 0.779297,0.40039 a 0.55000001,0.55000001 0 0 0 0.773437,0.08594 0.55000001,0.55000001 0 0 0 0.08398,-0.773438 c -0.394825,-0.492573 -0.985808,-0.8125 -1.636718,-0.8125 z m 2.777343,0.01953 a 0.55000001,0.55000001 0 0 0 -0.548828,0.550782 0.55000001,0.55000001 0 0 0 0.548828,0.550781 h 1.552735 l -1.333985,3.490234 a 0.55000001,0.55000001 0 0 0 0.31836,0.710938 0.55000001,0.55000001 0 0 0 0.708984,-0.318359 l 1.619141,-4.238282 a 0.55005501,0.55005501 0 0 0 -0.513672,-0.746094 z m 4.212891,0.01953 a 0.55000001,0.55000001 0 0 0 -0.550781,0.550781 0.55000001,0.55000001 0 0 0 0.550781,0.550781 h 1.123047 l -0.72461,0.947266 a 0.55005501,0.55005501 0 0 0 0.4375,0.882812 c 0.309428,0 0.580798,0.07248 0.728516,0.173828 0.147718,0.101349 0.226563,0.19398 0.226563,0.511719 2.77e-4,0.290477 -0.09139,0.402317 -0.246094,0.513672 -0.154709,0.111355 -0.40057,0.173828 -0.552735,0.173828 -0.131948,0 -0.298341,-0.03957 -0.410156,-0.109375 -0.111815,-0.06981 -0.181644,-0.146289 -0.220703,-0.326172 a 0.55000001,0.55000001 0 0 0 -0.654297,-0.419922 0.55000001,0.55000001 0 0 0 -0.421875,0.654297 c 0.100561,0.463125 0.389292,0.822141 0.714844,1.025391 0.325552,0.20325 0.676327,0.275391 0.992187,0.275391 0.377657,0 0.807089,-0.101428 1.195313,-0.38086 0.388224,-0.279432 0.705671,-0.785229 0.705078,-1.40625 0,-0.610199 -0.291319,-1.136045 -0.705078,-1.419922 -0.130917,-0.08982 -0.286243,-0.06206 -0.427734,-0.115234 l 0.914062,-1.197266 a 0.55005501,0.55005501 0 0 0 -0.4375,-0.884765 z m -11.419922,0.210937 a 0.55005501,0.55005501 0 0 0 -0.474609,0.328125 l -1.820313,4.132813 a 0.55000001,0.55000001 0 0 0 0.283203,0.724609 0.55000001,0.55000001 0 0 0 0.72461,-0.28125 l 0.375,-0.853516 h 1.730468 l 0.330079,0.833985 a 0.55000001,0.55000001 0 0 0 0.71289,0.310547 0.55000001,0.55000001 0 0 0 0.308594,-0.714844 l -1.630859,-4.132812 a 0.55005501,0.55005501 0 0 0 -0.539063,-0.347657 z m 0,1.976563 0.384766,0.974609 h -0.8125 z" fill="#008055"/>
</svg>
