<svg xmlns="http://www.w3.org/2000/svg" width="48" height="48">
	<path d="m 14.808594,2.734375 c -1.586186,0 -3.027503,0.454833 -4.09375,1.357422 -1.0662472,0.902589 -1.7070315,2.265059 -1.7070315,3.8125 v 32.169922 c 0,1.681492 0.6183819,3.087956 1.7050785,3.966797 1.086696,0.878841 2.524938,1.224609 4.095703,1.224609 h 18.99414 c 1.547191,0 2.892888,-0.534021 3.810547,-1.486328 0.917659,-0.952306 1.378906,-2.274028 1.378906,-3.705078 V 12.804688 c 0,-1.577085 -0.45093,-2.92872 -1.396484,-3.847657 -0.945554,-0.918936 -2.28667,-1.322265 -3.792969,-1.322265 h -7.523438 a 1,1 0 0 0 -1,1 1,1 0 0 0 1,1 h 7.523438 c 1.161691,0 1.916533,0.287521 2.398438,0.755859 0.481903,0.468338 0.791015,1.200288 0.791015,2.414063 v 27.269531 c 0,1.01284 -0.305516,1.786153 -0.818359,2.318359 -0.512843,0.532206 -1.262455,0.873047 -2.371094,0.873047 h -18.99414 c -1.271475,0 -2.234602,-0.293354 -2.837891,-0.78125 -0.603289,-0.487896 -0.96289,-1.176658 -0.96289,-2.410156 V 7.904297 c 0,-1.026979 0.363509,-1.748313 1,-2.287109 0.63649,-0.538796 1.595676,-0.882813 2.800781,-0.882813 H 33.5625 a 1,1 0 0 0 1,-1 1,1 0 0 0 -1,-1 z m 12.701171,16.726563 c -0.882687,-0.03101 -1.976175,0.101755 -3.048828,0.486328 a 0.69999999,0.69999999 0 0 0 -0.423828,0.896484 0.69999999,0.69999999 0 0 0 0.896484,0.421875 c 0.88191,-0.316187 1.843887,-0.43141 2.535157,-0.40625 a 0.70006999,0.70006999 0 0 0 0.02344,0 c 1.396239,0.0067 2.110629,0.295875 2.447266,0.56836 0.336637,0.272485 0.40034,0.54662 0.40625,0.871093 a 0.70006999,0.70006999 0 0 0 0,0.002 c 0.01264,0.654687 -0.466753,1.180453 -1.148438,1.189454 -0.399301,0.0054 -0.549874,-0.09629 -1.15039,-0.259766 -0.59979,-0.16328 -1.506954,-0.327088 -3.1875,-0.341797 h -0.0039 c -0.886979,-0.01099 -1.476361,0.06592 -1.949218,0.421875 -0.236882,0.178318 -0.418416,0.465387 -0.466797,0.748047 -0.04838,0.28266 0.0088,0.530167 0.08789,0.730469 0.158223,0.400604 0.407671,0.678777 0.613282,0.894531 0.20561,0.215754 0.390625,0.365234 0.390625,0.365234 a 0.70006999,0.70006999 0 0 0 0.01563,0.01172 c 0,0 1.489563,1.147566 2.855468,2.203125 -1.234529,0.03322 -2.665114,0.07573 -3.945312,0.326172 -0.741174,0.144992 -1.413592,0.337545 -1.966797,0.673828 -0.553205,0.336284 -1.033589,0.952461 -0.974609,1.673828 a 0.70006999,0.70006999 0 0 0 0,0.002 c 0.0633,0.76922 0.584231,1.365653 1.199219,1.744141 0.614987,0.378488 1.361748,0.622906 2.183593,0.84375 1.64369,0.441688 3.607242,0.766951 5.177735,1.341797 a 0.70006999,0.70006999 0 0 0 0,0.002 c 0.451558,0.164589 0.484926,0.222024 0.679687,0.335937 -0.179251,0.06395 -0.262907,0.115644 -0.513672,0.175782 -0.496955,0.119178 -1.097029,0.225989 -1.695312,0.320312 -3.354349,0.441707 -5.144466,0.06741 -7.421875,-0.736328 a 0.69999999,0.69999999 0 0 0 -0.892578,0.425781 0.69999999,0.69999999 0 0 0 0.425781,0.894532 c 2.378551,0.839436 4.542449,1.269538 8.078125,0.802734 a 0.70006999,0.70006999 0 0 0 0.01758,-0.002 c 0.618017,-0.0973 1.250305,-0.208458 1.814453,-0.34375 0.564148,-0.135292 1.048929,-0.271192 1.462891,-0.541016 0.206981,-0.134911 0.433378,-0.320474 0.537109,-0.662109 0.103714,-0.341731 -0.03081,-0.741772 -0.22072,-0.972751 -0.379825,-0.461959 -0.911744,-0.693187 -1.791016,-1.013672 -1.756647,-0.642984 -3.761089,-0.966738 -5.294922,-1.378907 -0.766916,-0.206082 -1.412544,-0.439398 -1.8125,-0.685546 -0.399955,-0.246149 -0.516898,-0.420421 -0.537109,-0.666016 -0.01061,-0.129708 10e-4,-0.178699 0.304687,-0.363281 0.30365,-0.184583 0.853281,-0.368052 1.507813,-0.496094 1.309064,-0.256084 3.027568,-0.327288 4.326172,-0.351563 a 0.70006999,0.70006999 0 0 0 0.002,0 c 0.324224,-0.0071 0.573253,-0.0132 0.808594,-0.04883 0.11767,-0.01781 0.233059,-0.03555 0.392578,-0.115234 0.159518,-0.07968 0.418216,-0.319903 0.451172,-0.632812 0.03296,-0.312911 -0.09634,-0.494113 -0.181641,-0.609376 -0.0853,-0.115261 -0.168378,-0.192849 -0.261719,-0.27539 -0.182129,-0.161058 -0.411379,-0.33136 -0.705078,-0.544922 l -0.01758,-0.01367 c -1.481761,-1.146237 -3.110197,-2.39877 -3.125,-2.410156 l -0.0059,-0.0059 -0.0078,-0.0059 c -0.01093,-0.009 -0.110002,-0.09157 -0.246094,-0.234375 -0.100285,-0.105233 -0.162711,-0.210851 -0.226562,-0.310547 0.09462,-0.03406 0.284911,-0.125211 0.914062,-0.117187 a 0.70006999,0.70006999 0 0 0 0.002,0 c 1.600956,0.01365 2.343626,0.156994 2.835937,0.291015 0.492312,0.134022 0.878401,0.319388 1.537109,0.310547 1.434336,-0.01894 2.554307,-1.220374 2.527344,-2.617187 -0.01083,-0.594617 -0.234465,-1.375601 -0.923828,-1.933594 -0.687328,-0.556345 -1.73545,-0.869575 -3.310547,-0.878906 z m -6.091797,1.552734 c -0.26885,0.0042 -0.550822,0.02373 -0.833984,0.08008 -0.283161,0.05635 -0.577058,0.150521 -0.847656,0.345703 -0.270598,0.195183 -0.500203,0.510986 -0.589844,0.875 -0.198011,0.80384 0.0774,1.587514 0.488282,2.28711 0.345866,0.588901 0.84345,1.108804 1.345702,1.595703 -1.120247,0.03556 -2.269731,0.18467 -3.232421,0.660156 -1.077814,0.532347 -1.975845,1.466734 -2.101563,2.751953 -0.09021,0.922316 0.388219,1.731417 1.019532,2.376953 0.631312,0.645537 1.452766,1.184246 2.30664,1.646485 1.707749,0.924477 3.458732,1.512715 4.228516,1.660156 a 0.69999999,0.69999999 0 0 0 0.818359,-0.556641 0.69999999,0.69999999 0 0 0 -0.554688,-0.818359 c -0.399607,-0.07654 -2.269422,-0.67289 -3.826171,-1.515625 -0.778375,-0.421368 -1.499845,-0.911067 -1.972656,-1.394531 -0.472811,-0.483464 -0.660061,-0.90325 -0.625,-1.261719 0.07185,-0.734551 0.524301,-1.23871 1.326172,-1.634766 0.800862,-0.395557 1.914203,-0.598998 2.984374,-0.591797 0.40428,0.0054 0.687876,0.01038 0.925781,-0.0059 0.118953,-0.0081 0.221594,-0.01436 0.382813,-0.07031 0.08061,-0.02798 0.184943,-0.06925 0.302734,-0.181641 0.117792,-0.11239 0.227168,-0.327079 0.234375,-0.515625 0.01441,-0.377092 -0.148297,-0.498083 -0.228515,-0.589844 -0.08022,-0.09176 -0.150881,-0.154128 -0.230469,-0.222656 -0.156858,-0.135059 -0.345643,-0.283905 -0.570313,-0.478516 l -0.0039,-0.0039 c -0.0017,-0.0014 -0.0022,-0.0025 -0.0039,-0.0039 -0.522035,-0.469969 -1.011567,-1.032318 -1.318359,-1.554688 -0.308449,-0.525192 -0.401157,-0.977426 -0.335938,-1.242187 0.01361,-0.05528 0.0099,-0.04666 0.05078,-0.07617 0.04092,-0.02951 0.143651,-0.07615 0.300781,-0.107422 0.311844,-0.06205 0.798852,-0.05495 1.259765,-0.04102 0,0 0.002,0 0.002,0 0.124782,0.0058 0.680431,0.07983 1.332032,0.173829 0.652537,0.09413 1.442206,0.207013 2.210937,0.291015 0.768731,0.084 1.509818,0.141751 2.117187,0.113282 0.303685,-0.01424 0.569762,-0.04019 0.84961,-0.146485 0.139924,-0.05315 0.292892,-0.126835 0.4375,-0.283203 0.144608,-0.156368 0.252911,-0.422602 0.242187,-0.65625 A 0.69999999,0.69999999 0 0 0 28.576229,21.251926 0.69999999,0.69999999 0 0 0 28.0274,21.562473 c -0.06737,0.01454 -0.143568,0.03496 -0.314453,0.04297 -0.456293,0.02139 -1.161944,-0.02499 -1.898437,-0.105469 -0.736493,-0.08048 -1.510844,-0.191205 -2.16211,-0.285156 -0.651265,-0.09395 -1.135008,-0.172191 -1.470703,-0.1875 a 0.70006999,0.70006999 0 0 0 -0.01172,0 c -0.227374,-0.0069 -0.483103,-0.01792 -0.751954,-0.01367 z" fill="#008055"/>
</svg>
