<svg xmlns="http://www.w3.org/2000/svg" width="48" height="48">
	<path d="m 14.808594,2.7353513 c -1.586185,0 -3.027504,0.4548327 -4.09375,1.3574219 -1.066247,0.9025892 -1.7070315,2.2650592 -1.7070315,3.8125 V 40.075195 c 0,1.681492 0.6183843,3.086002 1.7050785,3.964844 1.086693,0.878842 2.524938,1.22461 4.095703,1.22461 h 18.99414 c 1.547191,0 2.892888,-0.532069 3.810547,-1.484376 0.917659,-0.952306 1.378907,-2.274027 1.378907,-3.705078 V 12.805664 c 0,-1.577085 -0.45093,-2.9306723 -1.396485,-3.8496093 -0.945554,-0.9189373 -2.28667,-1.3203128 -3.792969,-1.3203128 h -7.523437 a 1,1 0 0 0 -1,0.9999998 1,1 0 0 0 1,1 h 7.523437 c 1.16169,0 1.916534,0.287522 2.398438,0.7558603 0.481904,0.468338 0.791016,1.200287 0.791016,2.414062 v 27.269531 c 0,1.01284 -0.305516,1.786154 -0.81836,2.31836 -0.512844,0.532206 -1.262454,0.871094 -2.371094,0.871094 h -18.99414 c -1.271475,0 -2.234605,-0.291402 -2.83789,-0.779297 -0.603286,-0.487896 -0.962892,-1.176658 -0.962892,-2.410157 V 7.9052732 c 0,-1.0269792 0.36351,-1.7483135 1,-2.2871094 C 12.644303,5.079368 13.60349,4.7353513 14.808594,4.7353513 H 33.5625 a 1,1 0 0 0 1,-1 1,1 0 0 0 -1,-1 z M 31.630859,18.670899 c -0.566241,-0.02052 -1.167183,0.167663 -1.667968,0.615234 a 0.80008001,0.80008001 0 0 0 -0.03125,0.0293 L 17.287109,31.885742 a 0.80008001,0.80008001 0 0 0 -0.0098,0.01172 c -0.420039,0.432976 -0.719853,0.918157 -0.929688,1.414062 l -1.314452,2.845704 a 0.80008001,0.80008001 0 0 0 1.007847,1.083983 l 3.392578,-1.271484 a 0.80000001,0.80000001 0 0 0 0.46875,-1.029297 0.80000001,0.80000001 0 0 0 -1.029297,-0.46875 l -1.572266,0.589843 0.509766,-1.103515 a 0.80008001,0.80008001 0 0 0 0.0098,-0.02344 c 0.145165,-0.343073 0.334568,-0.644584 0.605468,-0.923828 l 12.603516,-12.53125 0.0039,-0.002 c 0.479329,-0.425955 0.699375,-0.277706 0.884766,-0.07813 0.186047,0.200286 0.319788,0.479155 -0.121094,0.939453 L 20.638672,32.547852 c -0.110833,0.08349 -0.162519,0.09554 -0.158203,0.0957 0.0047,1.75e-4 -0.05606,0.01017 -0.242188,-0.175782 a 0.80000001,0.80000001 0 0 0 -1.130859,0 0.80000001,0.80000001 0 0 0 0,1.13086 c 0.36667,0.366325 0.819945,0.626294 1.314453,0.644531 0.494508,0.01824 0.919325,-0.203433 1.238281,-0.460937 a 0.80008001,0.80008001 0 0 0 0.06445,-0.05664 l 11.2168,-11.269529 a 0.80008001,0.80008001 0 0 0 0.01172,-0.01172 c 0.925128,-0.965871 0.86059,-2.353535 0.136719,-3.132813 -0.361936,-0.389638 -0.892744,-0.62011 -1.458985,-0.640624 z m -10.640625,0.248046 a 0.80008001,0.80008001 0 0 0 -0.765625,0.628907 c -0.06127,0.278665 -0.187515,0.538978 -0.15625,0.490234 a 0.80000001,0.80000001 0 0 0 0.07617,0.962891 c -0.492873,-0.06269 -0.983943,-0.129956 -1.490234,-0.04102 a 0.80008001,0.80008001 0 0 0 -0.02344,0.0039 c -1.160471,0.238252 -2.605648,1.009953 -3.154297,2.705078 -0.324607,1.002925 -0.305039,2.005345 0.08398,2.871094 0.389025,0.86575 1.108865,1.561567 2.039063,2.103516 a 0.80000001,0.80000001 0 0 0 1.09375,-0.289063 0.80000001,0.80000001 0 0 0 -0.287109,-1.09375 c -0.727462,-0.423831 -1.16722,-0.892817 -1.384766,-1.376953 -0.217545,-0.484135 -0.252251,-1.015701 -0.02344,-1.722656 0.345294,-1.066832 1.143653,-1.458501 1.941406,-1.625 0.57797,-0.100244 1.023597,-0.09549 1.285156,-0.0059 0.263547,0.09031 0.420783,0.207221 0.59961,0.66211 a 0.80008001,0.80008001 0 0 0 1.203125,0.363281 l 3.140625,-2.191406 a 0.80008001,0.80008001 0 0 0 -0.25,-1.429688 L 21.21288,18.946239 a 0.80008001,0.80008001 0 0 0 -0.222657,-0.02734 z m 0.507813,1.757813 1.34375,0.359375 -1.230469,0.859375 C 21.397417,21.6606 21.230857,21.37377 20.962891,21.239258 a 0.80000001,0.80000001 0 0 0 0.453125,-0.337891 c 0.04412,-0.06879 0.04789,-0.155816 0.08203,-0.224609 z m 8.558594,6.884765 a 0.80000001,0.80000001 0 0 0 -0.66211,0.396485 0.80000001,0.80000001 0 0 0 0.28711,1.09375 c 0.727458,0.423832 1.167217,0.892818 1.384765,1.376953 0.21755,0.484135 0.25225,1.01765 0.02344,1.724609 -0.345902,1.068712 -1.14613,1.458997 -1.945313,1.625 -0.576658,0.09976 -1.020092,0.0934 -1.28125,0.0039 -0.263545,-0.09031 -0.420783,-0.205268 -0.599609,-0.660157 a 0.80008001,0.80008001 0 0 0 -1.203125,-0.363281 l -3.142578,2.191406 a 0.80008001,0.80008001 0 0 0 0.251953,1.427735 L 26.875,37.366211 a 0.80008001,0.80008001 0 0 0 0.988281,-0.599609 c 0.06127,-0.278671 0.185627,-0.541023 0.154297,-0.492188 a 0.80000001,0.80000001 0 0 0 -0.07422,-0.960937 c 0.492416,0.06242 0.984432,0.12987 1.490235,0.04102 a 0.80008001,0.80008001 0 0 0 0.02344,-0.0059 c 1.16047,-0.238261 2.605649,-1.007999 3.154297,-2.703125 0.324607,-1.002931 0.305045,-2.0073 -0.08398,-2.873047 -0.389029,-0.865747 -1.108871,-1.561568 -2.039063,-2.103516 a 0.80000001,0.80000001 0 0 0 -0.43164,-0.107422 z m -3.578125,6.857422 c 0.213644,0.234016 0.379103,0.520245 0.646484,0.654297 a 0.80000001,0.80000001 0 0 0 -0.453125,0.337891 c -0.04404,0.06865 -0.04794,0.155969 -0.08203,0.224609 l -1.341797,-0.359375 z" fill="#008055"/>
</svg>
