<svg xmlns="http://www.w3.org/2000/svg" width="48" height="48">
	<path d="m 14.808594,2.7353515 c -1.586185,0 -3.027503,0.45288 -4.09375,1.355469 -1.0662465,0.902589 -1.7070315,2.267012 -1.7070315,3.814453 V 40.073242 c 0,1.681492 0.618383,3.087956 1.7050785,3.966797 1.086696,0.878842 2.524933,1.224609 4.095703,1.224609 h 18.99414 c 1.547191,0 2.892888,-0.532068 3.810547,-1.484375 0.917659,-0.952306 1.378907,-2.275981 1.378907,-3.707031 V 12.803711 c 0,-1.577085 -0.45093,-2.9287195 -1.396485,-3.8476565 -0.945554,-0.918937 -2.286669,-1.322265 -3.792969,-1.322265 h -7.523437 a 1,1 0 0 0 -1,1 1,1 0 0 0 1,1 h 7.523437 c 1.161691,0 1.916534,0.287521 2.398438,0.7558585 0.481904,0.468338 0.791016,1.200289 0.791016,2.414063 v 27.269531 c 0,1.01284 -0.305517,1.786153 -0.81836,2.31836 -0.512842,0.532206 -1.262455,0.873046 -2.371094,0.873046 h -18.99414 c -1.27148,0 -2.234603,-0.291401 -2.837891,-0.779296 -0.603287,-0.487896 -0.962891,-1.17861 -0.962891,-2.41211 V 7.9052735 c 0,-1.026979 0.36351,-1.748313 1,-2.287109 0.636491,-0.538796 1.595677,-0.882813 2.800782,-0.882813 h 18.751953 a 1,1 0 0 0 1,-1 1,1 0 0 0 -1,-1 z M 26.986328,16.823242 c -1.048524,-0.01409 -2.088994,0.402568 -2.845703,1.207031 a 0.80281602,0.79719416 85.000132 0 0 -0.03516,0.03906 0.80281602,0.79719416 85.000132 0 0 0.06641,1.095703 0.80281602,0.79719416 85.000132 0 0 1.126953,-0.03125 c 0.713665,-0.758702 1.838107,-0.929831 2.740235,-0.416015 0.902129,0.513815 1.33628,1.57136 1.058593,2.578125 -0.277687,1.006762 -1.192036,1.686664 -2.228515,1.658203 a 0.80281602,0.79719416 85.000132 0 0 -0.81836,0.78125 0.80281602,0.79719416 85.000132 0 0 0.777344,0.826172 c 1.760601,0.04834 3.33538,-1.125417 3.806641,-2.833985 0.47126,-1.708569 -0.278995,-3.530874 -1.8125,-4.404297 -0.575065,-0.327534 -1.206823,-0.491545 -1.835938,-0.5 z m -5.849609,2.425781 c -1.228952,0.08417 -2.397071,0.758446 -3.0625,1.902344 -1.030853,1.77208 -0.465173,4.031982 1.216797,5.15625 a 0.80281602,0.79719416 85.000132 0 0 0.134765,0.123047 c 0,0 0,0.002 0,0.002 0.0029,0.0017 0.0049,0.0041 0.0078,0.0059 a 0.80281602,0.79719416 85.000132 0 0 0.02539,0.01563 0.80281602,0.79719416 85.000132 0 0 0.0293,0.01758 c 0.0089,0.0051 0.01838,0.0028 0.02734,0.0078 a 0.80281602,0.79719416 85.000132 0 0 0.152344,0.05078 c 1.804249,0.916115 4.035665,0.289683 5.052734,-1.492187 1.049684,-1.839012 0.418599,-4.21182 -1.404297,-5.277344 -0.683585,-0.399572 -1.442315,-0.562221 -2.179687,-0.511719 z m 0.103515,1.595704 c 0.430186,-0.02828 0.874902,0.06831 1.279297,0.304687 1.07839,0.630343 1.440523,1.995929 0.81836,3.085938 -0.622164,1.090009 -1.978989,1.463175 -3.0625,0.841796 a 0.80281602,0.79719416 85.000132 0 0 -0.0098,-0.0059 0.80281602,0.79719416 85.000132 0 0 -0.02148,-0.01367 C 19.170918,24.418314 18.81813,23.048643 19.449189,21.963829 19.8436,21.28582 20.52323,20.891828 21.240204,20.844688 Z m 5.398438,4.263671 a 0.89999998,0.89999998 0 0 0 -0.898438,0.900391 0.89999998,0.89999998 0 0 0 0.898438,0.900391 c 1.487594,0 2.725338,0.333457 3.53125,0.917968 0.805912,0.584512 1.261719,1.373999 1.261719,2.679688 v 2.226562 c 0,0.358031 -0.103048,0.579358 -0.238282,0.720704 -0.135232,0.141347 -0.327637,0.248046 -0.716796,0.248046 H 29.53125 a 0.89999998,0.89999998 0 0 0 -0.900391,0.900391 0.89999998,0.89999998 0 0 0 0.900391,0.900391 h 0.945313 c 0.78669,0 1.519469,-0.282109 2.017578,-0.802735 0.498108,-0.520626 0.736328,-1.235058 0.736328,-1.966797 v -2.226562 c 0,-1.782622 -0.773244,-3.244144 -2.003906,-4.136719 -1.230663,-0.892575 -2.838906,-1.261719 -4.587891,-1.261719 z m -5.541016,2.416016 c -1.62306,0 -3.156476,0.358052 -4.335937,1.25 -1.179461,0.891949 -1.918272,2.349643 -1.910157,4.152344 v 2.224609 c 0,0.850085 0.332479,1.637473 0.923829,2.119141 0.591349,0.481667 1.336731,0.648437 2.101562,0.648437 a 0.89999998,0.89999998 0 0 0 0.900391,-0.898437 0.89999998,0.89999998 0 0 0 -0.900391,-0.900391 c -0.493538,0 -0.807965,-0.118313 -0.964844,-0.246094 -0.156877,-0.12778 -0.259765,-0.2729 -0.259765,-0.722656 v -2.228515 a 0.90008998,0.90008998 0 0 0 0,-0.0039 c -0.0061,-1.347081 0.441887,-2.139218 1.195312,-2.708984 0.753425,-0.569766 1.899001,-0.884766 3.25,-0.884766 1.487595,0 2.725339,0.335411 3.53125,0.919922 0.805912,0.584511 1.259766,1.372051 1.259766,2.677734 v 2.228516 c 0,0.358031 -0.101095,0.579359 -0.236328,0.720703 -0.135233,0.141344 -0.327635,0.248047 -0.716797,0.248047 h -4.423828 a 0.89999998,0.89999998 0 0 0 -0.898438,0.900391 0.89999998,0.89999998 0 0 0 0.898438,0.898437 h 4.423828 c 0.786687,0 1.519469,-0.282111 2.017578,-0.802734 0.49811,-0.520624 0.736328,-1.233105 0.736328,-1.964844 v -2.228516 c 0,-1.782617 -0.773243,-3.242192 -2.003906,-4.134765 -1.230663,-0.892574 -2.838906,-1.263672 -4.587891,-1.263672 z" fill="#008055"/>
</svg>
