<svg xmlns="http://www.w3.org/2000/svg" width="48" height="48">
	<path d="m 14.808594,1.7353513 c -1.776726,0 -3.459109,0.5073111 -4.740235,1.5917969 C 8.787234,4.411634 8.0078123,6.0976017 8.0078123,7.9052732 V 40.073242 c 0,1.90549 0.7477718,3.669827 2.0761717,4.744141 1.328401,1.074314 3.0042,1.447266 4.72461,1.447266 h 18.994141 c 1.766466,0 3.411182,-0.62866 4.53125,-1.791016 1.120066,-1.162357 1.658203,-2.760235 1.658203,-4.400391 V 14.805664 c 0,-1.75874 -0.523793,-3.42217 -1.701172,-4.566406 C 37.113637,9.0950212 35.481338,8.6357419 33.802735,8.6357419 h -5.59375 a 2,2 0 0 0 -2,2.0000001 2,2 0 0 0 2,2 h 5.59375 c 0.989386,0 1.451093,0.229617 1.701171,0.472657 0.250079,0.243038 0.488282,0.665145 0.488282,1.697265 v 25.267578 c 0,0.803735 -0.228628,1.302844 -0.539063,1.625 -0.310435,0.322156 -0.761029,0.566407 -1.65039,0.566407 H 14.808594 c -1.12183,0 -1.8474,-0.264217 -2.208985,-0.556641 -0.361583,-0.292424 -0.591796,-0.625265 -0.591796,-1.634766 V 7.9052732 c 0,-0.7667483 0.222919,-1.1665383 0.644531,-1.5234375 0.421612,-0.3568992 1.141686,-0.6464844 2.15625,-0.6464844 h 18.751953 a 2,2 0 0 0 2,-2 2,2 0 0 0 -2,-2 z m 4.853515,17.6308597 a 0.89999998,0.89999998 0 0 0 -0.90039,0.900391 0.89999998,0.89999998 0 0 0 0.90039,0.898437 h 12.230469 a 0.89999998,0.89999998 0 0 0 0.900391,-0.898437 0.89999998,0.89999998 0 0 0 -0.900391,-0.900391 z m -3.482421,4.09375 a 0.89999998,0.89999998 0 0 0 -0.900391,0.898438 0.89999998,0.89999998 0 0 0 0.900391,0.90039 h 15.71289 a 0.89999998,0.89999998 0 0 0 0.900391,-0.90039 0.89999998,0.89999998 0 0 0 -0.900391,-0.898438 z m 0,4.09375 a 0.89999998,0.89999998 0 0 0 -0.900391,0.898438 0.89999998,0.89999998 0 0 0 0.900391,0.90039 h 15.71289 a 0.89999998,0.89999998 0 0 0 0.900391,-0.90039 0.89999998,0.89999998 0 0 0 -0.900391,-0.898438 z m 0,4.091797 a 0.89999998,0.89999998 0 0 0 -0.900391,0.900391 0.89999998,0.89999998 0 0 0 0.900391,0.90039 h 15.71289 a 0.89999998,0.89999998 0 0 0 0.900391,-0.90039 0.89999998,0.89999998 0 0 0 -0.900391,-0.900391 z m 0,4.09375 a 0.89999998,0.89999998 0 0 0 -0.900391,0.900391 0.89999998,0.89999998 0 0 0 0.900391,0.90039 h 8.789062 a 0.89999998,0.89999998 0 0 0 0.900391,-0.90039 0.89999998,0.89999998 0 0 0 -0.900391,-0.900391 z" fill="#008055"/>
</svg>
