<svg xmlns="http://www.w3.org/2000/svg" width="48" height="48">
	<path d="m 14.808594,2.7353515 c -1.586185,0 -3.027503,0.45288 -4.09375,1.355469 -1.0662474,0.902589 -1.7070317,2.267012 -1.7070317,3.814453 V 40.073242 c 0,1.681492 0.6183818,3.087956 1.7050787,3.966797 1.086696,0.87884 2.524938,1.224609 4.095703,1.224609 h 18.99414 c 1.547192,0 2.892888,-0.532069 3.810547,-1.484375 0.91766,-0.952306 1.378907,-2.275981 1.378907,-3.707031 V 12.803711 c 0,-1.577085 -0.450931,-2.9287195 -1.396485,-3.8476565 -0.945554,-0.918937 -2.286669,-1.322265 -3.792969,-1.322265 h -7.523437 a 1,1 0 0 0 -1,1 1,1 0 0 0 1,1 h 7.523437 c 1.161691,0 1.916534,0.287521 2.398438,0.7558585 0.481904,0.468338 0.791016,1.200287 0.791016,2.414063 v 27.269531 c 0,1.012839 -0.305517,1.786153 -0.81836,2.31836 -0.512843,0.532206 -1.262455,0.873046 -2.371094,0.873046 h -18.99414 c -1.271475,0 -2.234602,-0.291401 -2.837891,-0.779296 -0.603289,-0.487896 -0.962891,-1.178613 -0.962891,-2.41211 V 7.9052735 c 0,-1.026979 0.36351,-1.748314 1,-2.28711 0.636491,-0.538795 1.595677,-0.882812 2.800782,-0.882812 h 18.751953 a 1,1 0 0 0 1,-1 1,1 0 0 0 -1,-1 z M 27.136719,17.952148 c -0.302996,-0.01901 -0.61208,0.06616 -0.929688,0.207032 -0.42046,0.186486 -0.761568,0.428882 -0.93164,0.8125 -0.170073,0.383617 -0.09157,0.736899 -0.04297,0.945312 0.09721,0.416826 0.209438,0.426659 -0.0918,0.84375 -0.307596,0.425902 -0.355088,0.323735 -0.783203,0.365235 -0.214057,0.02075 -0.573565,0.05794 -0.882812,0.339843 -0.309249,0.281904 -0.435521,0.682033 -0.484376,1.142578 -0.04851,0.457263 -0.0091,0.875685 0.238282,1.214844 0.247403,0.339158 0.592013,0.445605 0.796875,0.507813 0.409723,0.124414 0.474675,0.03251 0.685547,0.501953 0.215324,0.479357 0.103734,0.469982 -0.07422,0.861328 -0.08898,0.195673 -0.23622,0.526808 -0.146485,0.935547 0.08974,0.408738 0.373425,0.715561 0.748047,0.988281 0.371954,0.270778 0.752446,0.446804 1.169922,0.402344 0.417476,-0.04446 0.683586,-0.289341 0.839844,-0.435547 0.312517,-0.292412 0.265238,-0.394147 0.777344,-0.341797 0.522921,0.05346 0.458822,0.144294 0.708984,0.494141 0.125081,0.174923 0.339298,0.468868 0.738281,0.595703 0.398984,0.126834 0.806992,0.03548 1.230469,-0.152344 0.42046,-0.186487 0.761568,-0.428883 0.931641,-0.8125 0.170072,-0.383618 0.09157,-0.734946 0.04297,-0.943359 -0.09721,-0.416826 -0.209437,-0.428611 0.0918,-0.845703 0.307597,-0.425902 0.355088,-0.323735 0.783203,-0.365235 0.214058,-0.02075 0.573565,-0.05794 0.882813,-0.339844 0.309248,-0.281905 0.435521,-0.682034 0.484375,-1.142578 0.04851,-0.457264 0.0091,-0.873731 -0.238281,-1.21289 -0.247404,-0.339158 -0.592014,-0.445605 -0.796875,-0.507813 -0.409723,-0.124414 -0.474676,-0.03446 -0.685547,-0.503906 -0.215325,-0.479357 -0.103735,-0.469983 0.07422,-0.861328 0.08898,-0.195673 0.23622,-0.526809 0.146484,-0.935547 -0.08974,-0.408739 -0.373424,-0.71556 -0.748047,-0.988281 -0.185977,-0.13539 -0.37445,-0.248137 -0.568359,-0.320313 -0.19391,-0.07218 -0.392825,-0.104261 -0.601563,-0.08203 -0.417476,0.04446 -0.683585,0.289341 -0.839843,0.435547 -0.312517,0.292412 -0.265239,0.394148 -0.777344,0.341797 -0.522921,-0.05346 -0.458823,-0.144293 -0.708985,-0.49414 -0.12508,-0.174924 -0.337344,-0.468869 -0.736328,-0.595704 -0.09975,-0.03171 -0.201735,-0.04835 -0.302734,-0.05469 z m -0.140625,1.410157 c 0.01182,0.01463 0.01455,0.01573 0.04102,0.05273 0.18754,0.262273 0.720714,0.97359 1.705078,1.074218 0.979305,0.100111 1.642149,-0.491239 1.876953,-0.710937 0.02799,-0.02619 0.02856,-0.02509 0.04297,-0.03711 0.03536,0.0167 0.08555,0.03853 0.185546,0.111329 0.106244,0.07734 0.14858,0.122776 0.175782,0.152343 -0.0067,0.01759 -0.0068,0.02154 -0.02539,0.0625 -0.133408,0.293385 -0.481506,1.109362 -0.07617,2.011719 0.403252,0.897721 1.24685,1.176055 1.554688,1.269531 0.03828,0.01163 0.03897,0.01106 0.05664,0.01758 0.0032,0.03883 0.0073,0.09299 -0.0059,0.216797 -0.01396,0.131579 -0.03099,0.192445 -0.04297,0.230469 -0.01856,0.0029 -0.02103,0.0034 -0.06641,0.0078 -0.320948,0.03111 -1.206127,0.13577 -1.785156,0.9375 -0.576055,0.79761 -0.393347,1.669248 -0.320313,1.982421 0.009,0.03851 0.0085,0.03808 0.01172,0.05664 -0.03202,0.02222 -0.076,0.0532 -0.189453,0.103516 -0.120404,0.0534 -0.181453,0.06744 -0.220703,0.07617 -0.01182,-0.01463 -0.01455,-0.01573 -0.04102,-0.05273 -0.187541,-0.262272 -0.720715,-0.973591 -1.705078,-1.074219 -0.979306,-0.10011 -1.64215,0.493193 -1.876953,0.712891 -0.02766,0.02588 -0.02858,0.02314 -0.04297,0.03516 -0.03536,-0.0167 -0.08555,-0.03853 -0.185547,-0.111328 -0.106243,-0.07734 -0.14858,-0.122776 -0.175781,-0.152344 0.0067,-0.01763 0.007,-0.02008 0.02539,-0.06055 0.133407,-0.293383 0.481506,-1.111314 0.07617,-2.013671 -0.403251,-0.897722 -1.24685,-1.176056 -1.554687,-1.269532 -0.03828,-0.01163 -0.03897,-0.01106 -0.05664,-0.01758 -0.0032,-0.03883 -0.0073,-0.09299 0.0059,-0.216797 0.01396,-0.131578 0.03099,-0.192445 0.04297,-0.230468 0.01856,-0.0029 0.02103,-0.0034 0.06641,-0.0078 0.320948,-0.03111 1.206127,-0.13577 1.785156,-0.9375 0.576054,-0.79761 0.393346,-1.669248 0.320312,-1.982422 -0.009,-0.03851 -0.0085,-0.03808 -0.01172,-0.05664 0.03202,-0.02222 0.076,-0.0532 0.189453,-0.103516 0.120699,-0.05353 0.181529,-0.06748 0.220703,-0.07617 z m -7.691406,2.054687 c -0.206901,-0.0015 -0.405204,0.03662 -0.59375,0.128906 -0.377094,0.184563 -0.541843,0.504481 -0.638672,0.695313 -0.193659,0.381664 -0.116108,0.461934 -0.615235,0.587891 -0.509668,0.128616 -0.479254,0.02053 -0.833984,-0.222657 -0.177365,-0.121594 -0.478182,-0.323915 -0.896484,-0.30664 -0.418302,0.01727 -0.77177,0.243119 -1.105469,0.564453 -0.331322,0.319046 -0.569046,0.663379 -0.597656,1.082031 -0.02861,0.418651 0.166249,0.72117 0.283203,0.900391 0.233907,0.358441 0.343539,0.331204 0.203125,0.826172 -0.14338,0.50542 -0.223225,0.425907 -0.611328,0.611328 -0.194052,0.09271 -0.520663,0.252374 -0.714844,0.623047 -0.194181,0.370672 -0.174108,0.788801 -0.0625,1.238281 0.110812,0.446278 0.290189,0.824506 0.638672,1.058594 0.348482,0.234088 0.708092,0.216689 0.921875,0.205078 0.427566,-0.02322 0.457693,-0.13073 0.816406,0.238281 0.366289,0.376803 0.257983,0.405375 0.224609,0.833984 -0.01669,0.214304 -0.04248,0.574337 0.181641,0.927735 0.224121,0.353397 0.597663,0.545682 1.042969,0.673828 0.442134,0.127232 0.859235,0.163079 1.236328,-0.02148 0.377093,-0.184563 0.541842,-0.506433 0.638672,-0.697266 0.193659,-0.381664 0.116107,-0.461934 0.615234,-0.58789 0.509668,-0.128617 0.479255,-0.01858 0.833984,0.224609 0.177365,0.121594 0.478183,0.323916 0.896485,0.306641 0.418302,-0.01728 0.77177,-0.243119 1.105469,-0.564454 0.331321,-0.319045 0.569045,-0.66338 0.597656,-1.082031 0.02861,-0.418651 -0.16625,-0.723123 -0.283203,-0.902343 -0.233907,-0.358442 -0.343539,-0.329253 -0.203125,-0.824219 0.143379,-0.50542 0.223225,-0.425908 0.611328,-0.611328 0.194051,-0.09271 0.520663,-0.252375 0.714844,-0.623047 0.194181,-0.370673 0.174107,-0.788802 0.0625,-1.238282 -0.110813,-0.446277 -0.288237,-0.824505 -0.636719,-1.058593 -0.348483,-0.234088 -0.710045,-0.21669 -0.923828,-0.205078 -0.427566,0.02322 -0.457693,0.130728 -0.816407,-0.238282 -0.366288,-0.376803 -0.257982,-0.405376 -0.224609,-0.833984 0.01669,-0.214304 0.04248,-0.57629 -0.181641,-0.929687 -0.22412,-0.353398 -0.595709,-0.545684 -1.041015,-0.673829 -0.221067,-0.06362 -0.437631,-0.103967 -0.644531,-0.105468 z m 9.230468,0.5 a 1.2706231,1.2698722 0 0 0 -1.271484,1.269531 1.2706231,1.2698722 0 0 0 1.271484,1.269532 1.2706231,1.2698722 0 0 0 1.269532,-1.269532 1.2706231,1.2698722 0 0 0 -1.269532,-1.269531 z m -9.1875,0.908203 c 0.03883,0.0036 0.09357,0.0086 0.212891,0.04297 0.126613,0.03644 0.183163,0.06357 0.21875,0.08203 -2.93e-4,0.01883 -4.18e-4,0.02161 -0.0039,0.06641 -0.02502,0.321318 -0.07428,1.208662 0.615234,1.917969 0.685971,0.705662 1.577195,0.677604 1.898438,0.660156 0.03881,-0.0021 0.03782,-5.3e-5 0.05664,0 0.01637,0.03563 0.0386,0.08521 0.06836,0.205078 0.03166,0.127496 0.03725,0.188445 0.03906,0.228516 -0.01637,0.0091 -0.01883,0.01132 -0.06055,0.03125 -0.290952,0.139005 -1.083614,0.540768 -1.353515,1.492187 -0.268516,0.946531 0.199258,1.703348 0.375,1.972656 0.02146,0.03289 0.01993,0.0325 0.0293,0.04883 -0.02262,0.03194 -0.05369,0.07652 -0.142579,0.162109 -0.09522,0.09169 -0.147831,0.124943 -0.18164,0.146484 -0.01619,-0.0098 -0.01826,-0.01018 -0.05469,-0.03516 -0.265933,-0.182313 -1.011287,-0.667894 -1.970703,-0.425781 -0.954486,0.240869 -1.374029,1.023791 -1.519531,1.310547 -0.01725,0.034 -0.01792,0.03261 -0.02734,0.04883 -0.03883,-0.0036 -0.09359,-0.0067 -0.212891,-0.04102 -0.126651,-0.03645 -0.183173,-0.06553 -0.21875,-0.08398 2.93e-4,-0.01883 4.19e-4,-0.02161 0.0039,-0.06641 0.02502,-0.321319 0.07428,-1.208663 -0.615235,-1.917969 -0.685971,-0.705662 -1.577194,-0.677604 -1.898437,-0.660156 -0.03882,0.0021 -0.03782,0.002 -0.05664,0.002 -0.01633,-0.0354 -0.03838,-0.08433 -0.06836,-0.205078 -0.03168,-0.127607 -0.03726,-0.190427 -0.03906,-0.230469 0.01637,-0.0091 0.01883,-0.01132 0.06055,-0.03125 0.290952,-0.139006 1.085567,-0.538816 1.355469,-1.490235 0.268515,-0.94653 -0.201212,-1.703348 -0.376953,-1.972656 -0.02116,-0.03242 -0.01992,-0.03251 -0.0293,-0.04883 0.02262,-0.03194 0.05369,-0.07652 0.142578,-0.162109 0.09522,-0.09169 0.147831,-0.124943 0.181641,-0.146485 0.01619,0.0098 0.01826,0.01018 0.05469,0.03516 0.265933,0.182312 1.011287,0.667894 1.970703,0.425781 0.954487,-0.240869 1.37403,-1.023791 1.519532,-1.310547 0.01778,-0.03504 0.01788,-0.03455 0.02734,-0.05078 z m -0.818359,2.746094 a 1.2706231,1.2698722 0 0 0 -1.271484,1.269531 1.2706231,1.2698722 0 0 0 1.271484,1.269532 1.2706231,1.2698722 0 0 0 1.269531,-1.269532 1.2706231,1.2698722 0 0 0 -1.269531,-1.269531 z m 6.777344,3.003906 c -0.302618,-0.02429 -0.613576,0.0561 -0.933594,0.191407 -0.423651,0.179119 -0.770524,0.416283 -0.947266,0.796875 -0.176741,0.380592 -0.101599,0.73413 -0.05664,0.943359 0.08992,0.418458 0.201046,0.430025 -0.107422,0.841797 -0.314983,0.420468 -0.362242,0.317542 -0.791016,0.351562 -0.214387,0.01701 -0.574551,0.04971 -0.888672,0.326172 -0.31412,0.276464 -0.445068,0.67319 -0.501953,1.132813 -0.05648,0.456347 -0.0266,0.875324 0.214844,1.21875 0.241447,0.343425 0.585318,0.455711 0.789062,0.521484 0.40749,0.131546 0.475089,0.04062 0.677735,0.513672 0.206926,0.483041 0.09296,0.471195 -0.0918,0.859375 -0.09238,0.194091 -0.244698,0.52335 -0.162109,0.933594 0.08259,0.410243 0.360662,0.722735 0.730468,1.001953 0.367172,0.277228 0.745875,0.459041 1.164063,0.421875 0.418188,-0.03717 0.686917,-0.276466 0.845703,-0.419922 0.317573,-0.286913 0.274042,-0.391358 0.785156,-0.330078 0.521909,0.06258 0.455201,0.153652 0.699219,0.507812 0.122009,0.177079 0.329853,0.473644 0.726562,0.607422 0.39671,0.133778 0.805732,0.04955 1.232422,-0.130859 0.423651,-0.179119 0.770524,-0.41433 0.947266,-0.794922 0.176742,-0.380592 0.103552,-0.73413 0.05859,-0.943359 -0.08992,-0.418459 -0.201046,-0.431979 0.107422,-0.84375 0.314982,-0.420468 0.360288,-0.315588 0.789062,-0.34961 0.214387,-0.01701 0.576504,-0.04971 0.890625,-0.326172 0.314121,-0.276465 0.445069,-0.673191 0.501953,-1.132812 0.05648,-0.456348 0.02465,-0.875325 -0.216797,-1.21875 -0.241447,-0.343424 -0.585317,-0.455712 -0.789062,-0.521485 -0.40749,-0.131546 -0.473135,-0.04257 -0.675781,-0.515625 -0.206926,-0.483041 -0.09491,-0.471195 0.08984,-0.859375 0.09238,-0.19409 0.244698,-0.521397 0.16211,-0.93164 -0.08259,-0.410242 -0.360663,-0.722736 -0.730469,-1.001953 -0.183586,-0.138614 -0.36988,-0.254529 -0.5625,-0.330078 -0.19262,-0.07555 -0.390515,-0.11038 -0.599609,-0.0918 -0.418189,0.03717 -0.68887,0.276465 -0.847657,0.419922 -0.317572,0.286912 -0.272089,0.389405 -0.783203,0.328125 -0.521908,-0.06257 -0.455201,-0.153653 -0.699219,-0.507813 -0.122008,-0.177079 -0.331806,-0.473644 -0.728515,-0.607422 -0.09918,-0.03345 -0.197956,-0.05245 -0.298828,-0.06055 z m -0.166016,1.408203 c 0.01155,0.01483 0.01318,0.01713 0.03906,0.05469 0.182934,0.265506 0.705042,0.985723 1.6875,1.103515 0.977409,0.117188 1.65007,-0.46412 1.888672,-0.679687 0.02875,-0.02598 0.02834,-0.02535 0.04297,-0.03711 0.03489,0.01717 0.08414,0.0421 0.183594,0.117188 0.104354,0.07879 0.147005,0.124163 0.173828,0.154297 -0.007,0.01746 -0.006,0.0198 -0.02539,0.06055 -0.138508,0.29101 -0.502806,1.102424 -0.113282,2.011718 0.387523,0.904623 1.227044,1.198042 1.533203,1.296875 0.03767,0.01216 0.03713,0.01272 0.05469,0.01953 0.0025,0.03912 0.0054,0.09421 -0.0098,0.216797 -0.01611,0.130167 -0.03421,0.188448 -0.04688,0.226563 -0.01867,0.0026 -0.0216,0.0043 -0.06641,0.0078 -0.321442,0.02551 -1.205895,0.116701 -1.798828,0.908203 -0.589887,0.787436 -0.423026,1.660209 -0.355469,1.97461 0.0083,0.03854 0.0069,0.03803 0.0098,0.05664 -0.0326,0.02173 -0.07788,0.05161 -0.191407,0.09961 -0.121677,0.05145 -0.183352,0.06621 -0.222656,0.07422 -0.01155,-0.01483 -0.01318,-0.01713 -0.03906,-0.05469 -0.182935,-0.265506 -0.70309,-0.985723 -1.685547,-1.103516 -0.97741,-0.117185 -1.652023,0.464121 -1.890625,0.679688 -0.02811,0.0254 -0.02837,0.0234 -0.04297,0.03516 -0.03506,-0.01731 -0.08486,-0.04068 -0.183594,-0.115234 -0.105525,-0.07968 -0.147324,-0.126335 -0.173828,-0.15625 0.007,-0.01749 0.0081,-0.0202 0.02734,-0.06055 0.138508,-0.29101 0.502805,-1.100472 0.113281,-2.009766 -0.387522,-0.904622 -1.228997,-1.19804 -1.535156,-1.296875 -0.03648,-0.01178 -0.03519,-0.01275 -0.05273,-0.01953 -0.0025,-0.03912 -0.0074,-0.09421 0.0078,-0.216797 0.01624,-0.131243 0.03423,-0.190688 0.04688,-0.228515 0.01861,-0.0026 0.02092,-0.0023 0.06641,-0.0059 0.321443,-0.02551 1.207848,-0.116701 1.800782,-0.908203 0.589886,-0.787435 0.423026,-1.660209 0.355468,-1.974609 -0.0084,-0.03918 -0.0069,-0.03998 -0.0098,-0.05859 0.03263,-0.02174 0.07606,-0.05167 0.189453,-0.09961 0.121643,-0.05143 0.183344,-0.06426 0.222656,-0.07227 z m 1.457031,2.554688 a 1.2706231,1.2698722 0 0 0 -1.269531,1.271484 1.2706231,1.2698722 0 0 0 1.269531,1.269532 1.2706231,1.2698722 0 0 0 1.271485,-1.269532 1.2706231,1.2698722 0 0 0 -1.271485,-1.271484 z" fill="#008055"/>
</svg>
