<svg xmlns="http://www.w3.org/2000/svg" width="48" height="48">
	<path d="m 14.80957,2.7353515 c -1.586185,0 -3.027502,0.45288 -4.09375,1.355468 -1.0662465,0.902591 -1.7089845,2.267013 -1.7089845,3.814454 V 40.073242 c 0,1.681493 0.620335,3.087956 1.7070315,3.966797 1.086696,0.878842 2.524939,1.224609 4.095703,1.224609 h 18.994141 c 1.54719,0 2.892888,-0.532069 3.810547,-1.484375 0.917659,-0.952306 1.378906,-2.275981 1.378906,-3.707031 V 12.803711 c 0,-1.577085 -0.452883,-2.9287195 -1.398437,-3.8476565 -0.945555,-0.918937 -2.284718,-1.322266 -3.791016,-1.322266 h -7.523438 a 1,1 0 0 0 -1,1 1,1 0 0 0 1,1 h 7.523438 c 1.16169,0 1.916533,0.287522 2.398437,0.7558595 0.481904,0.468338 0.791016,1.200287 0.791016,2.414063 v 27.269531 c 0,1.012839 -0.305517,1.786154 -0.818359,2.31836 -0.512844,0.532206 -1.262456,0.873046 -2.371094,0.873046 H 14.80957 c -1.271474,0 -2.234601,-0.291401 -2.83789,-0.779296 -0.603288,-0.487896 -0.964844,-1.178613 -0.964844,-2.41211 V 7.9052735 c 0,-1.02698 0.363509,-1.748314 1,-2.28711 0.636491,-0.538796 1.597629,-0.882812 2.802734,-0.882812 h 18.751953 a 1,1 0 0 0 1,-1 1,1 0 0 0 -1,-1 z m 4.544922,16.2343755 a 0.90008998,0.90008998 0 0 0 -0.773437,0.445312 l -4.839844,8.265625 a 0.89999998,0.89999998 0 0 0 0.322266,1.230469 0.89999998,0.89999998 0 0 0 1.230468,-0.320313 l 1.123047,-1.917968 h 5.71875 l 1.066406,1.902343 a 0.89999998,0.89999998 0 0 0 1.22461,0.345703 0.89999998,0.89999998 0 0 0 0.345703,-1.224609 l -4.630859,-8.267578 a 0.90008998,0.90008998 0 0 0 -0.78711,-0.458984 z m -0.01563,2.710937 1.789063,3.191406 h -3.65625 z m 8.501953,7.048828 c -2.87892,0 -4.947265,2.318353 -4.947265,4.919922 0,1.59713 0.60868,2.770752 1.36914,3.763672 h -0.857422 a 0.89999998,0.89999998 0 0 0 -0.90039,0.900391 0.89999998,0.89999998 0 0 0 0.90039,0.90039 h 2.896485 a 0.90008998,0.90008998 0 0 0 0.541015,-1.621094 c -1.197867,-0.899706 -2.148437,-1.999329 -2.148437,-3.943359 0,-1.687283 1.200541,-3.121094 3.146484,-3.121094 1.931844,0 3.060547,1.484023 3.060547,3.121094 0,1.867052 -0.992114,2.833644 -2.1875,4.027344 a 0.90008998,0.90008998 0 0 0 0.634766,1.537109 h 2.93164 a 0.89999998,0.89999998 0 0 0 0.898438,-0.90039 0.89999998,0.89999998 0 0 0 -0.898438,-0.900391 h -0.998046 c 0.763565,-0.984724 1.417968,-2.129247 1.417968,-3.763672 0,-2.52863 -1.964331,-4.919922 -4.859375,-4.919922 z" fill="#008055"/>
</svg>
