<svg xmlns="http://www.w3.org/2000/svg" width="48" height="48">
	<path d="m 14.809571,2.7353517 c -1.58619,0 -3.027502,0.4528796 -4.09375,1.3554687 C 9.6495718,4.9934096 9.0068362,6.3578328 9.0068362,7.9052736 V 40.073242 c 0,1.681491 0.6203376,3.087955 1.7070318,3.966797 1.086694,0.878842 2.522985,1.224609 4.09375,1.224609 h 18.996093 c 1.547191,0 2.892888,-0.532068 3.810547,-1.484375 0.91766,-0.952306 1.378906,-2.275981 1.378906,-3.707031 V 12.803711 c 0,-1.577085 -0.452885,-2.9287198 -1.398437,-3.8476558 -0.945552,-0.9189376 -2.28472,-1.322266 -3.791016,-1.322266 h -7.52539 a 1,1 0 0 0 -1,1 1,1 0 0 0 1,1 h 7.52539 c 1.161685,0 1.916535,0.287521 2.398438,0.7558588 0.481903,0.468339 0.791015,1.200288 0.791015,2.414063 v 27.269531 c 0,1.01284 -0.307469,1.786153 -0.820312,2.31836 -0.512843,0.532206 -1.260502,0.873046 -2.369141,0.873046 H 14.807618 c -1.271475,0 -2.232652,-0.291401 -2.835938,-0.779296 -0.603286,-0.487896 -0.964844,-1.178611 -0.964844,-2.41211 V 7.9052736 c 0,-1.0269791 0.363509,-1.7483135 1,-2.2871094 0.636492,-0.5387959 1.597624,-0.8828125 2.802735,-0.8828125 h 18.751953 a 1,1 0 0 0 1,-1 1,1 0 0 0 -1,-1 z m 8.845703,16.4531243 c -0.653193,-0.0058 -1.300228,0.238306 -1.769531,0.697266 a 1.0001,1.0001 0 0 0 -0.0078,0.0078 l -6.208984,6.207031 c -0.507125,0.496879 -0.805234,1.184076 -0.765625,1.851562 0.03961,0.667487 0.370906,1.2479 0.816406,1.699219 a 1.0001,1.0001 0 0 0 0.0039,0.0059 l 6.587891,6.587891 a 1.0001,1.0001 0 0 0 0.03124,0.02927 c 0.390332,0.357648 0.901266,0.684635 1.550781,0.755859 0.649515,0.07122 1.369981,-0.183631 1.929688,-0.689453 a 1.0001,1.0001 0 0 0 0.04101,-0.03906 l 6.822271,-6.902346 a 1,1 0 0 0 -0.0098,-1.414062 1,1 0 0 0 -1.414062,0.0078 l -6.785156,6.865234 c -0.231164,0.207354 -0.293634,0.19166 -0.367188,0.183594 -0.07366,-0.0081 -0.229478,-0.07433 -0.412109,-0.240234 -0.0017,-0.0015 -0.0022,-4.2e-4 -0.0039,-0.002 l -6.550781,-6.552735 c -0.193018,-0.195539 -0.240053,-0.343223 -0.244141,-0.412109 -0.0041,-0.06889 -0.01212,-0.126324 0.169922,-0.304688 a 1.0001,1.0001 0 0 0 0.0059,-0.0078 l 6.208984,-6.207031 c 0.21137,-0.206712 0.430065,-0.27002 0.689453,0.01563 a 1.0001,1.0001 0 0 0 0.0332,0.03516 l 2.164063,2.164062 c 0.178737,0.192149 0.176943,0.252076 0.158203,0.390625 -0.01874,0.13855 -0.129414,0.394356 -0.417969,0.69336 l -4.085937,4.08789 a 1,1 0 0 0 0,1.414063 1,1 0 0 0 1.414062,0 l 4.09961,-4.099609 a 1.0001,1.0001 0 0 0 0.01172,-0.01172 c 0.493132,-0.51099 0.865804,-1.11307 0.960938,-1.816407 0.09513,-0.703336 -0.161614,-1.468735 -0.675781,-2.021484 a 1.0001,1.0001 0 0 0 -0.02539,-0.02539 l -2.15625,-2.154297 c -0.48784,-0.537167 -1.145649,-0.793012 -1.798841,-0.79879 z" fill="#008055"/>
</svg>
