<svg xmlns="http://www.w3.org/2000/svg" width="48" height="48">
	<path d="m 14.808594,2.7353516 c -1.586185,0 -3.027503,0.4528796 -4.09375,1.3554688 C 9.6485965,4.9934096 9.0078125,6.3578327 9.0078125,7.9052735 V 40.073242 c 0,1.681492 0.618382,3.087955 1.7050785,3.966797 1.086696,0.878841 2.524937,1.224609 4.095703,1.224609 h 18.99414 c 1.547191,0 2.892888,-0.532068 3.810547,-1.484375 0.917659,-0.952306 1.378907,-2.275981 1.378907,-3.707031 V 12.805664 c 0,-1.577085 -0.450933,-2.9306724 -1.396485,-3.8496092 C 36.650151,8.0371179 35.30903,7.6357423 33.802734,7.6357423 h -7.523437 a 1,1 0 0 0 -1,1 1,1 0 0 0 1,1 h 7.523437 c 1.161685,0 1.916536,0.2855681 2.398438,0.7539057 0.481902,0.468338 0.791016,1.202241 0.791016,2.416016 v 27.267578 c 0,1.01284 -0.305516,1.786153 -0.81836,2.318359 -0.512844,0.532206 -1.262454,0.873047 -2.371094,0.873047 h -18.99414 c -1.271476,0 -2.234602,-0.291401 -2.837891,-0.779297 -0.603289,-0.487896 -0.962891,-1.178611 -0.962891,-2.412109 V 7.9052735 c 0,-1.0269792 0.36351,-1.7483136 1,-2.2871093 0.636491,-0.5387959 1.595677,-0.8828126 2.800782,-0.8828126 h 18.751953 a 1,1 0 0 0 1,-1 1,1 0 0 0 -1,-1 z m 9.21875,20.5605464 c -2.998776,0 -5.291016,2.697923 -5.291016,6.085938 0,3.401954 2.385842,5.927734 5.291016,5.927734 1.45259,0 2.805112,-0.624469 3.763672,-1.683594 a 0.89999998,0.89999998 0 0 0 -0.06445,-1.271484 0.89999998,0.89999998 0 0 0 -1.271485,0.0625 c -0.637421,0.704295 -1.481644,1.09375 -2.427734,1.09375 -1.892187,0 -3.490235,-1.522941 -3.490235,-4.128906 0,-2.619905 1.552071,-4.28711 3.490235,-4.28711 1.69245,0 3.026015,1.320238 3.353515,3.386719 h -5.134765 a 0.89999998,0.89999998 0 0 0 -0.900391,0.900391 0.89999998,0.89999998 0 0 0 0.900391,0.898437 h 6.173828 a 0.90008998,0.90008998 0 0 0 0.898437,-0.898437 c 0,-3.388013 -2.292223,-6.085938 -5.291015,-6.085938 z m -7.988281,8.570313 a 1.7764144,1.7764144 0 0 0 -1.777344,1.777343 1.7764144,1.7764144 0 0 0 1.777344,1.775391 1.7764144,1.7764144 0 0 0 1.77539,-1.775391 1.7764144,1.7764144 0 0 0 -1.77539,-1.777343 z" fill="#008055"/>
</svg>
