<svg xmlns="http://www.w3.org/2000/svg" width="48" height="48">
	<path d="m 14.808593,2.7353514 c -1.586184,0 -3.027502,0.4528795 -4.093749,1.3554687 C 9.6485969,4.9934093 9.0078126,6.3578324 9.0078126,7.9052732 V 40.073242 c 0,1.681493 0.6183819,3.087956 1.7050784,3.966797 1.086696,0.878842 2.524939,1.22461 4.095702,1.22461 h 18.994141 c 1.547195,0 2.892886,-0.532069 3.810547,-1.484375 0.917661,-0.952307 1.378906,-2.275981 1.378906,-3.707032 V 12.803711 c 0,-1.577085 -0.45093,-2.9287196 -1.396484,-3.8476565 C 36.650149,8.0371176 35.309034,7.6337888 33.802734,7.6337888 h -7.523437 a 1,1 0 0 0 -1,1 1,1 0 0 0 1,1 h 7.523437 c 1.161691,0 1.916534,0.2875213 2.398438,0.7558592 0.481903,0.468338 0.791015,1.200288 0.791015,2.414063 v 27.269531 c 0,1.01284 -0.305515,1.786154 -0.818359,2.31836 -0.512844,0.532206 -1.262449,0.873047 -2.371094,0.873047 H 14.808593 c -1.271474,0 -2.234601,-0.291401 -2.83789,-0.779297 -0.603288,-0.487896 -0.96289,-1.178612 -0.96289,-2.41211 V 7.9052732 c 0,-1.0269792 0.363509,-1.7483135 1,-2.2871093 0.63649,-0.5387959 1.595677,-0.8828125 2.80078,-0.8828125 h 18.751954 a 1,1 0 0 0 1,-1 1,1 0 0 0 -1,-1 z m 9.359376,13.3339846 c -1.450992,-1.93e-4 -3.008308,0.486322 -4.298829,1.429688 -1.295058,0.946682 -2.328125,2.451791 -2.328125,4.314453 a 1.1,1.1 0 0 0 1.101563,1.099609 1.1,1.1 0 0 0 1.099609,-1.099609 c 0,-1.073538 0.54605,-1.895982 1.425782,-2.539063 0.87973,-0.64308 2.087056,-1.008171 3.011718,-1.005859 h 0.0078 0.0078 c 1.766731,-0.02096 3.967201,1.483852 4.058594,3.861328 0.02152,1.100018 -0.155649,1.71215 -0.496094,2.263672 -0.341908,0.553892 -0.92414,1.093124 -1.794922,1.798828 -1.096567,0.847363 -1.85523,1.559296 -2.351562,2.40625 -0.49985,0.852956 -0.650391,1.785994 -0.650391,2.775391 a 1.1,1.1 0 0 0 1.09961,1.099609 1.1,1.1 0 0 0 1.099609,-1.099609 c 0,-0.796544 0.08317,-1.207458 0.349609,-1.66211 0.266436,-0.454651 0.801753,-1.010994 1.81836,-1.794922 l 0.0098,-0.0078 0.01172,-0.0078 c 0.911379,-0.738605 1.705598,-1.420957 2.28125,-2.353515 0.575652,-0.932558 0.853669,-2.073918 0.824219,-3.472656 v -0.0098 -0.0078 c -0.132415,-3.651545 -3.300369,-6.02267 -6.285167,-5.988285 z m -0.0098,18.462891 a 1.874343,1.917129 0 0 0 -1.873047,1.917969 1.874343,1.917129 0 0 0 1.873047,1.917968 1.874343,1.917129 0 0 0 1.875,-1.917968 1.874343,1.917129 0 0 0 -1.875,-1.917969 z" fill="#008055"/>
</svg>
