<svg xmlns="http://www.w3.org/2000/svg" width="48" height="48">
	<path d="m 14.808594,2.734375 c -1.586186,0 -3.02555,0.454833 -4.091797,1.357422 C 9.6505497,4.994386 9.0078123,6.358809 9.0078123,7.90625 v 32.167969 c 0,1.681492 0.6203349,3.087955 1.7070317,3.966797 1.086696,0.878841 2.522985,1.224609 4.09375,1.224609 h 18.996094 c 1.547191,0 2.892887,-0.534022 3.810546,-1.486328 0.91766,-0.952307 1.376954,-2.274028 1.376954,-3.705078 V 12.804688 c 0,-1.577086 -0.450931,-2.92872 -1.396485,-3.847657 C 36.650149,8.038094 35.310987,7.634766 33.804688,7.634766 h -7.525391 a 1,1 0 0 0 -1,1 1,1 0 0 0 1,1 h 7.525391 c 1.16169,0 1.916533,0.287521 2.398437,0.755859 0.481904,0.468338 0.789063,1.200287 0.789063,2.414063 v 27.269531 c 0,1.01284 -0.305517,1.786153 -0.81836,2.318359 -0.512843,0.532206 -1.260502,0.873047 -2.36914,0.873047 H 14.808594 c -1.271476,0 -2.232649,-0.291401 -2.835938,-0.779297 -0.603289,-0.487896 -0.964844,-1.178612 -0.964844,-2.412109 V 7.90625 c 0,-1.026979 0.36351,-1.750267 1,-2.289062 0.636491,-0.538796 1.595677,-0.882813 2.800782,-0.882813 l 18.753906,0.002 a 1,1 0 0 0 1,-1 1,1 0 0 0 -1,-1 z m 2.705078,19.240234 c -0.712225,0 -1.396957,0.143652 -1.947266,0.56836 -0.550308,0.424708 -0.871094,1.141026 -0.871094,1.914062 v 7.845703 c 0,0.735033 0.333326,1.417971 0.865235,1.847657 0.531909,0.429685 1.220394,0.626953 1.953125,0.626953 a 0.80000001,0.80000001 0 0 0 0.800781,-0.800782 0.80000001,0.80000001 0 0 0 -0.800781,-0.798828 c -0.4418,0 -0.762692,-0.124335 -0.947266,-0.273437 -0.184573,-0.149102 -0.271484,-0.302845 -0.271484,-0.601563 v -7.845703 c 0,-0.397473 0.08919,-0.524333 0.25,-0.648437 0.160806,-0.124105 0.485014,-0.234375 0.96875,-0.234375 h 13.195312 c 0.391363,0 0.60128,0.108447 0.736328,0.242187 0.135049,0.133741 0.226563,0.325253 0.226563,0.640625 v 7.845703 c 0,0.408057 -0.09391,0.566827 -0.205078,0.669922 -0.111163,0.103095 -0.328033,0.205078 -0.757813,0.205078 H 19.861328 a 0.80000001,0.80000001 0 0 0 -0.800781,0.798828 0.80000001,0.80000001 0 0 0 0.800781,0.800782 h 10.847656 c 0.69286,0 1.356216,-0.1769 1.845704,-0.63086 0.489486,-0.45396 0.716796,-1.131126 0.716796,-1.84375 v -7.845703 c 0,-0.665967 -0.232334,-1.314979 -0.699218,-1.777343 -0.466885,-0.462365 -1.137114,-0.705079 -1.863282,-0.705079 z m 7.779297,2.933594 a 0.69999999,0.69999999 0 0 0 -0.701172,0.701172 0.69999999,0.69999999 0 0 0 0.701172,0.699219 h 4.671875 a 0.69999999,0.69999999 0 0 0 0.699218,-0.699219 0.69999999,0.69999999 0 0 0 -0.699218,-0.701172 z m -6.38086,0.550781 c -0.293961,0 -0.626789,0.07286 -0.90039,0.310547 -0.273602,0.23769 -0.421875,0.621336 -0.421875,1.011719 v 3.279297 c 0,0.340296 0.133596,0.682457 0.380859,0.919922 0.247263,0.237465 0.591367,0.359375 0.941406,0.359375 a 0.60000002,0.60000002 0 0 0 0.59961,-0.601563 0.60000002,0.60000002 0 0 0 -0.59961,-0.599609 c -0.08946,0 -0.107366,-0.02159 -0.111328,-0.02539 -0.004,-0.0038 -0.01172,-5.7e-4 -0.01172,-0.05273 V 26.78125 c 0,-0.139667 0.01976,-0.116104 0.0098,-0.107422 -0.01,0.0087 0.01727,-0.01563 0.113281,-0.01563 h 3.375 c 0.09908,0 0.07886,0.01525 0.06055,-0.0039 -0.01831,-0.01916 0.0098,-0.01307 0.0098,0.126953 v 3.279297 c 0,0.132221 0.03569,0.07813 -0.07227,0.07813 h -1.679687 a 0.60000002,0.60000002 0 0 0 -0.59961,0.599609 0.60000002,0.60000002 0 0 0 0.59961,0.601563 h 1.679687 c 0.664366,0 1.271485,-0.591138 1.271485,-1.279297 V 26.78125 c 0,-0.344538 -0.09375,-0.697495 -0.341797,-0.957031 -0.248043,-0.259536 -0.603375,-0.365235 -0.927735,-0.365235 z m 6.38086,2.216797 a 0.69999999,0.69999999 0 0 0 -0.701172,0.699219 0.69999999,0.69999999 0 0 0 0.701172,0.701172 h 4.671875 A 0.69999999,0.69999999 0 0 0 30.664062,28.375 0.69999999,0.69999999 0 0 0 29.964844,27.675781 Z m 0,2.765625 a 0.69999999,0.69999999 0 0 0 -0.701172,0.701172 0.69999999,0.69999999 0 0 0 0.701172,0.699219 h 4.671875 a 0.69999999,0.69999999 0 0 0 0.699218,-0.699219 0.69999999,0.69999999 0 0 0 -0.699218,-0.701172 z" fill="#008055"/>
</svg>
