<svg xmlns="http://www.w3.org/2000/svg" width="48" height="48">
	<path d="m 14.80957,2.7343748 c -1.586185,0 -3.027503,0.4548327 -4.09375,1.3574219 C 9.649573,4.9943859 9.008789,6.3568564 9.008789,7.9042962 L 9.006839,40.074218 c 0,1.681493 0.620334,3.087956 1.707031,3.966797 1.086696,0.878842 2.524938,1.22461 4.095703,1.22461 h 18.99414 c 1.547192,0 2.892888,-0.534022 3.810547,-1.486329 0.91766,-0.952306 1.378907,-2.274027 1.378907,-3.705078 V 12.804687 c 0,-1.577085 -0.452884,-2.9306718 -1.398438,-3.8496088 -0.945554,-0.918937 -2.284716,-1.320313 -3.791016,-1.320313 h -7.523437 a 1,1 0 0 0 -1,1 1,1 0 0 0 1,1 h 7.523437 c 1.161691,0 1.916534,0.287522 2.398438,0.7558598 0.481904,0.468338 0.791016,1.200287 0.791016,2.414062 v 27.269531 c 0,1.01284 -0.305517,1.786154 -0.81836,2.31836 -0.512843,0.532206 -1.262455,0.873047 -2.371094,0.873047 H 14.80957 c -1.271475,0 -2.234602,-0.293354 -2.837891,-0.78125 -0.603288,-0.487897 -0.964843,-1.176659 -0.964843,-2.410157 l 0.002,-32.1699218 c 0,-1.026978 0.363509,-1.748313 1,-2.2871089 0.63649,-0.5387958 1.595676,-0.8828125 2.800781,-0.8828125 H 33.56157 a 1,1 0 0 0 1,-1 1,1 0 0 0 -1,-1 z m 6.326172,15.5078122 c -0.107964,-0.0081 -0.2164,-0.0036 -0.324219,0.01367 -0.862552,0.138555 -1.511085,1.057798 -1.34375,2.037109 a 0.80008001,0.80008001 0 0 0 0.002,0.01172 c 0.276256,1.49108 0.974777,3.00225 1.892578,4.474609 -0.322554,2.877398 -1.335482,5.744643 -2.560547,8.136719 -1.323207,0.702035 -2.527615,1.497269 -3.509765,2.382813 a 0.80008001,0.80008001 0 0 0 -0.0078,0.0059 c -0.754277,0.695277 -0.724276,1.849448 -0.134765,2.466797 0.294755,0.308675 0.726965,0.514046 1.201172,0.505859 0.474206,-0.0082 0.949844,-0.241428 1.3125,-0.626953 a 0.80008001,0.80008001 0 0 0 0.02539,-0.0293 c 0.813909,-0.955277 1.623748,-2.141957 2.359375,-3.484375 2.507172,-1.221763 5.511198,-2.127119 8.443359,-2.439453 1.326645,0.780965 2.707272,1.439482 4.125,1.792969 a 0.80008001,0.80008001 0 0 0 0.01367,0.0039 c 0.509492,0.117676 1.039386,0.0035 1.414063,-0.269531 0.374677,-0.273016 0.60447,-0.67103 0.679687,-1.097656 0.07522,-0.426626 -0.0094,-0.906055 -0.302734,-1.296875 -0.29334,-0.390821 -0.780047,-0.647011 -1.328125,-0.714844 C 31.73662,29.941363 30.294761,29.970387 28.84869,30.080105 27.570728,29.27572 26.345202,28.301954 25.270565,27.210964 24.361458,26.288023 23.642196,25.27226 22.97955,24.259792 23.07897,22.790496 23.084833,21.314409 22.799862,19.886745 22.614908,18.955793 21.891545,18.29897 21.1358,18.242214 Z m -0.02734,1.587891 c 0.02992,0.0279 0.07316,0.118038 0.123047,0.36914 0.02,0.100224 -0.0077,0.213351 0.0098,0.314454 -0.03976,-0.159011 -0.168352,-0.338731 -0.197265,-0.494141 -0.04021,-0.24941 0.02842,-0.184708 0.02148,-0.183594 -0.0035,5.69e-4 0.01305,-0.03376 0.04297,-0.0059 z m 1.554688,6.61914 c 0.495896,0.630019 0.89218,1.299423 1.46875,1.884766 0.767,0.778672 1.680161,1.398554 2.558593,2.058594 -1.993675,0.327295 -3.905098,0.878698 -5.722656,1.623047 0.766115,-1.744762 1.345598,-3.599734 1.695313,-5.566407 z m 9.800781,5.251954 c 0.136883,0.0138 0.294931,-0.01731 0.429687,0 a 0.80008001,0.80008001 0 0 0 0.002,0.002 c 0.211788,0.02621 0.238659,0.07798 0.246094,0.08789 0.0074,0.0099 0.01237,0.02169 0.0059,0.05859 -0.0065,0.0369 -0.03197,0.07259 -0.04492,0.08203 -0.01205,0.0088 -0.01808,0.02165 -0.103516,0.0039 -0.178998,-0.04473 -0.35551,-0.180008 -0.535156,-0.234374 z M 16.674808,36.28125 c -0.06407,0.0791 -0.125466,0.205875 -0.189453,0.28125 -0.110782,0.110728 -0.162687,0.11521 -0.164062,0.115234 -0.0015,2.5e-5 5.84e-4,0.0032 -0.01367,-0.01172 -0.02851,-0.02986 -0.132973,-0.0034 0.0625,-0.183593 0.08189,-0.07371 0.218787,-0.128458 0.304687,-0.201172 z" fill="#008055"/>
</svg>
