<svg xmlns="http://www.w3.org/2000/svg" width="48" height="48">
	<path d="m 14.809571,2.734375 c -1.586186,0 -3.027505,0.454832 -4.09375,1.357422 -1.066247,0.902589 -1.708985,2.265059 -1.708985,3.8125 v 32.169921 c 0,1.681493 0.620335,3.087956 1.707031,3.966797 1.086697,0.878842 2.524939,1.22461 4.095704,1.22461 h 18.99414 c 1.547191,0 2.892888,-0.534022 3.810547,-1.486328 0.917659,-0.952307 1.378906,-2.274028 1.378906,-3.705079 V 12.804687 c 0,-1.577085 -0.452883,-2.928719 -1.398437,-3.847656 C 36.649173,8.038094 35.310011,7.634765 33.803711,7.634765 h -7.523437 a 1,1 0 0 0 -1,1 1,1 0 0 0 1,1 h 7.523437 c 1.161691,0 1.916534,0.287522 2.398438,0.75586 0.481903,0.468338 0.791015,1.200287 0.791015,2.414062 v 27.269531 c 0,1.01284 -0.305516,1.786154 -0.818359,2.31836 -0.512843,0.532206 -1.262455,0.873047 -2.371094,0.873047 h -18.99414 c -1.271476,0 -2.234602,-0.293354 -2.837891,-0.78125 -0.603289,-0.487896 -0.964844,-1.176659 -0.964844,-2.410157 V 7.904297 c 0,-1.02698 0.36351,-1.748314 1,-2.28711 0.636491,-0.538796 1.59763,-0.882812 2.802735,-0.882812 h 18.751953 a 1,1 0 0 0 1,-1 1,1 0 0 0 -1,-1 z m 12.988281,19.558593 c -0.428383,0.0159 -0.719775,0.283775 -0.882813,0.517579 -0.162179,0.232572 -0.252203,0.481426 -0.316406,0.759765 -3.4e-4,0.0015 -0.0016,0.0024 -0.002,0.0039 l -2.384766,8.673829 -2.263672,-8.541016 -0.002,-0.0039 c -0.07557,-0.316022 -0.180448,-0.589626 -0.365234,-0.835938 -0.18567,-0.247489 -0.511915,-0.49853 -0.925781,-0.5 -0.413867,-0.0015 -0.742168,0.248263 -0.925782,0.492188 -0.183613,0.243924 -0.283572,0.51176 -0.351562,0.814453 l -1.986328,8.160156 -0.617188,-2.835937 a 0.80008001,0.80008001 0 0 0 -0.0059,-0.02148 c -0.133198,-0.53666 -0.366614,-1.028541 -0.775391,-1.382812 -0.408776,-0.354272 -0.954227,-0.509733 -1.498047,-0.509766 a 0.80000001,0.80000001 0 0 0 -0.800781,0.798828 0.80000001,0.80000001 0 0 0 0.800781,0.800782 c 0.275661,1.6e-5 0.370399,0.04914 0.451172,0.11914 0.08043,0.06971 0.184281,0.223328 0.267578,0.556641 0,0 0.002,0.002 0.002,0.002 l 0.93164,4.289062 a 0.80008001,0.80008001 0 0 0 0.002,0.0059 c 0.06984,0.310879 0.14781,0.563256 0.300781,0.8125 0.07649,0.124622 0.174644,0.255665 0.339844,0.371094 0.165201,0.115427 0.422928,0.201546 0.667969,0.173828 0.490083,-0.05544 0.702606,-0.370128 0.839844,-0.603516 0.137237,-0.233388 0.224146,-0.481929 0.300781,-0.775391 a 0.80008001,0.80008001 0 0 0 0.0039,-0.01367 l 2.06836,-8.490235 2.326172,8.779297 a 0.80008001,0.80008001 0 0 0 0.0059,0.01953 c 0.08152,0.278924 0.164317,0.511661 0.296875,0.736328 0.132558,0.224668 0.363248,0.56957 0.890625,0.585938 0.263688,0.0082 0.505782,-0.109164 0.650391,-0.230469 0.144607,-0.121305 0.225572,-0.244073 0.292968,-0.363281 0.134792,-0.238416 0.213066,-0.485434 0.291016,-0.792969 l 2.384766,-8.662109 1.984374,8.71875 c 0.06406,0.287422 0.134821,0.524174 0.25586,0.751953 0.121039,0.227779 0.332216,0.58242 0.861328,0.611328 0.264556,0.01445 0.512252,-0.104181 0.65625,-0.224609 0.143998,-0.120429 0.220941,-0.239282 0.283203,-0.353516 0.123217,-0.226069 0.187086,-0.451133 0.242188,-0.716797 l 0.002,-0.0059 0.730468,-3.408203 a 0.80008001,0.80008001 0 0 0 0.0039,-0.01758 c 0.05612,-0.291599 0.124666,-0.364646 0.18164,-0.408204 0.05698,-0.04356 0.183893,-0.09961 0.484375,-0.09961 A 0.80000001,0.80000001 0 0 0 34.295932,29.250048 0.80000001,0.80000001 0 0 0 33.49515,28.45122 c -0.511178,0 -1.029027,0.103967 -1.455078,0.429687 -0.42605,0.32572 -0.676511,0.830789 -0.78125,1.375 l 0.002,-0.01563 -0.322265,1.503906 -1.84961,-8.11914 a 0.80008001,0.80008001 0 0 0 0,-0.0078 c -0.07454,-0.313344 -0.171335,-0.57813 -0.347656,-0.824219 -0.176321,-0.246087 -0.514977,-0.515902 -0.943359,-0.5 z" fill="#008055"/>
</svg>
