<svg xmlns="http://www.w3.org/2000/svg" width="48" height="48">
	<path d="m 14.80957,2.7353517 c -1.58619,0 -3.027508,0.4548308 -4.09375,1.3574218 C 9.649579,4.9953647 9.006836,6.3578363 9.006836,7.9052733 V 40.075195 c 0,1.681487 0.620352,3.085999 1.707031,3.964844 1.086679,0.878845 2.523003,1.224609 4.09375,1.224609 h 18.996094 c 1.547178,0 2.89289,-0.532069 3.810547,-1.484375 0.917656,-0.952305 1.378906,-2.274026 1.378906,-3.705078 V 12.805664 c 0,-1.577083 -0.452887,-2.9306717 -1.398438,-3.8496087 -0.94555,-0.918939 -2.284711,-1.320313 -3.791015,-1.320313 H 26.27832 a 1,1 0 0 0 -1,1 1,1 0 0 0 1,1 h 7.525391 c 1.161696,0 1.916538,0.287523 2.398437,0.7558587 0.4819,0.468337 0.791016,1.200285 0.791016,2.414063 v 27.269531 c 0,1.012839 -0.307469,1.786153 -0.820313,2.31836 -0.512843,0.532206 -1.260519,0.871093 -2.36914,0.871093 H 14.807617 c -1.271453,0 -2.232666,-0.291404 -2.835937,-0.779297 -0.603273,-0.487892 -0.964844,-1.176652 -0.964844,-2.410156 V 7.9052733 c 0,-1.026983 0.363516,-1.748315 1,-2.287109 0.636483,-0.5387941 1.597624,-0.8828126 2.802734,-0.8828126 h 18.751953 a 1,1 0 0 0 1,-1 1,1 0 0 0 -1,-1 z m 8.552734,18.2207033 c -3.391142,0 -5.540081,2.32369 -5.84375,4.810546 -0.303668,2.486856 1.206665,5.21293 4.259766,5.88086 a 1.0001,1.0001 0 0 0 0.01367,0.002 c 0.184816,0.03776 0.353361,0.126993 0.441406,0.214844 0.08804,0.08785 0.128906,0.147676 0.128906,0.339843 v 5.09961 a 1,1 0 0 0 1,1 1,1 0 0 0 1,-1 v -5.09961 c 0,-0.696142 -0.294559,-1.332601 -0.716796,-1.753906 -0.422238,-0.421304 -0.939871,-0.654912 -1.453125,-0.759766 l 0.01367,0.002 c -2.127428,-0.46542 -2.896856,-2.097058 -2.703124,-3.683594 0.19373,-1.586537 1.320388,-3.052734 3.859374,-3.052734 h 6.212891 a 1,1 0 0 0 1,-1 1,1 0 0 0 -1,-1 z m 3.580079,2.853515 a 1,1 0 0 0 -1,1 v 12.494141 a 1,1 0 0 0 1,1 1,1 0 0 0 1,-1 V 24.80957 a 1,1 0 0 0 -1,-1 z" fill="#008055"/>
</svg>
