<svg xmlns="http://www.w3.org/2000/svg" width="48" height="48">
	<path d="m 14.808594,2.7353515 c -1.58619,0 -3.027509,0.4528778 -4.09375,1.3554688 C 9.6486024,4.9934114 9.0078125,6.3578366 9.0078125,7.9052735 V 40.073242 c 0,1.681486 0.6183842,3.087952 1.7050785,3.966797 1.086693,0.878844 2.524912,1.224609 4.095703,1.224609 h 18.99414 c 1.547179,0 2.892891,-0.532069 3.810547,-1.484375 0.917657,-0.952306 1.378907,-2.27598 1.378907,-3.707031 V 12.80371 c 0,-1.577081 -0.452887,-2.9287166 -1.398438,-3.8476556 C 36.648198,8.0371164 35.309038,7.633789 33.802734,7.633789 h -7.523437 a 1,1 0 0 0 -1,1.0000004 1,1 0 0 0 1,1 h 7.523437 c 1.161696,0 1.916539,0.287522 2.398438,0.7558586 0.481899,0.468337 0.791016,1.200285 0.791016,2.414062 v 27.269532 c 0,1.012838 -0.305516,1.786152 -0.81836,2.318359 -0.512844,0.532207 -1.262473,0.873047 -2.371094,0.873047 h -18.99414 c -1.271509,0 -2.23461,-0.291404 -2.83789,-0.779297 -0.603282,-0.487893 -0.962892,-1.178606 -0.962892,-2.412109 V 7.9052735 c 0,-1.0269832 0.363517,-1.7483156 1,-2.2871095 0.636484,-0.5387939 1.595671,-0.8828125 2.800782,-0.8828125 h 18.751953 a 1,1 0 0 0 1,-1 1,1 0 0 0 -1,-1 z m 2.166015,18.8476555 a 1,1 0 0 0 -1,1 v 10.964844 c 0,0.341989 0.01919,0.653683 0.101563,0.972656 0.08237,0.318974 0.236583,0.703964 0.646484,0.97461 0.409903,0.270645 0.953559,0.247542 1.308594,0.117187 0.354163,-0.130035 0.631149,-0.328563 0.927734,-0.582031 l 4.472657,-3.740234 a 1.0001,1.0001 0 0 0 0.0625,-0.05469 c 0.215951,-0.213509 0.310942,-0.22517 0.347656,-0.226562 0.03671,-0.0014 0.133205,0.0027 0.365234,0.199218 l 4.605469,3.94336 c 0.330542,0.293667 0.703748,0.518325 1.162109,0.568359 0.458361,0.05004 0.940704,-0.149808 1.222657,-0.417969 0.563904,-0.536319 0.646484,-1.135287 0.646484,-1.693357 V 22.645507 a 1,1 0 0 0 -1,-1 1,1 0 0 0 -1,1 v 10.75586 L 25.503906,29.68457 a 1.0001,1.0001 0 0 0 -0.0039,-0.002 c -0.48242,-0.408679 -1.084588,-0.696525 -1.734375,-0.671875 -0.649787,0.02465 -1.227885,0.35602 -1.677734,0.800781 l 0.06055,-0.05469 -4.173829,3.488281 v -10.66211 a 1,1 0 0 0 -1,-1 z" fill="#008055"/>
</svg>
