<svg xmlns="http://www.w3.org/2000/svg" width="48" height="48">
	<path d="m 14.808594,1.734375 c -1.776726,0 -3.457157,0.5092642 -4.738282,1.59375 C 8.7891865,4.4126108 8.0078125,6.0985784 8.0078125,7.90625 v 32.167969 c 0,1.905493 0.747771,3.669824 2.0761705,4.74414 1.328402,1.074316 3.0042,1.447266 4.724611,1.447266 h 18.99414 c 1.766467,0 3.411184,-0.628657 4.53125,-1.791016 1.120067,-1.162358 1.658204,-2.760232 1.658204,-4.40039 V 14.804687 c 0,-1.758739 -0.52184,-3.420216 -1.699219,-4.564453 -1.17738,-1.144236 -2.811631,-1.605468 -4.490235,-1.605468 h -5.591796 a 2,2 0 0 0 -2,2 2,2 0 0 0 2,2 h 5.591796 c 0.989388,0 1.451093,0.229617 1.701172,0.472656 0.250079,0.243039 0.488282,0.665145 0.488282,1.697265 v 25.269532 c 0,0.803741 -0.228629,1.302843 -0.539063,1.625 -0.310435,0.322156 -0.761029,0.566406 -1.650391,0.566406 h -18.99414 c -1.12183,0 -1.8474,-0.26617 -2.208985,-0.558594 -0.361584,-0.292424 -0.591797,-0.623305 -0.591797,-1.632812 V 7.90625 c 0,-0.7667484 0.224873,-1.1684915 0.646485,-1.5253906 C 13.075909,6.0239602 13.79403,5.734375 14.808594,5.734375 l 18.751953,0.00195 a 2,2 0 0 0 2,-2 2,2 0 0 0 -2,-2 z m 2.240234,19.849609 a 1,1 0 0 0 -1,1 v 10.964844 c 0,0.341989 0.02115,0.653683 0.103516,0.972656 0.08237,0.318974 0.236582,0.703964 0.646484,0.97461 0.409902,0.270645 0.95356,0.247542 1.308594,0.117187 0.355034,-0.130355 0.630313,-0.329624 0.927734,-0.583984 l 4.470703,-3.738281 a 1.0001,1.0001 0 0 0 0.0625,-0.05664 c 0.215952,-0.213509 0.310941,-0.223217 0.347657,-0.224609 0.03671,-0.0014 0.133205,0.0027 0.365234,0.199218 l 4.605469,3.94336 c 0.0011,9.91e-4 0.0028,9.63e-4 0.0039,0.002 0.329707,0.292213 0.701389,0.516541 1.158203,0.566406 0.45836,0.05004 0.942656,-0.149808 1.22461,-0.417969 0.56391,-0.536369 0.644537,-1.135337 0.644537,-1.693407 V 22.646484 a 1,1 0 0 0 -1,-1 1,1 0 0 0 -1,1 v 10.753907 l -4.339844,-3.714844 a 1.0001,1.0001 0 0 0 -0.0039,-0.0039 c -0.482421,-0.408679 -1.082634,-0.694572 -1.732422,-0.669922 -0.621398,0.02357 -1.176225,0.330593 -1.617188,0.746094 l -4.175781,3.490234 V 22.583984 a 1,1 0 0 0 -1,-1 z" fill="#008055"/>
</svg>
