<svg xmlns="http://www.w3.org/2000/svg" width="48" height="48">
	<path d="m 14.808594,1.7353516 c -1.776726,0 -3.457157,0.5073111 -4.738282,1.5917969 C 8.7891875,4.4116343 8.0078125,6.0976019 8.0078125,7.9052735 V 40.073242 c 0,1.905489 0.749725,3.669827 2.0781245,4.74414 1.3284,1.074314 3.002248,1.447266 4.722657,1.447266 h 18.996094 c 1.766466,0 3.40923,-0.628659 4.529296,-1.791016 1.120067,-1.162356 1.658204,-2.760235 1.658204,-4.40039 V 14.805664 c 0,-1.75874 -0.52184,-3.42217 -1.699219,-4.566407 -1.17738,-1.1442351 -2.809678,-1.6035148 -4.488281,-1.6035148 h -5.59375 a 2,2 0 0 0 -2,1.9999998 2,2 0 0 0 2,2 h 5.59375 c 0.989386,0 1.451093,0.229617 1.701171,0.472656 0.250079,0.243039 0.486329,0.665145 0.486329,1.697266 v 25.267578 c 0,0.803734 -0.226675,1.302844 -0.53711,1.625 -0.310434,0.322156 -0.761027,0.566406 -1.65039,0.566406 H 14.808594 c -1.12183,0 -1.847399,-0.264217 -2.208985,-0.556641 -0.361585,-0.292423 -0.591797,-0.625265 -0.591797,-1.634765 V 7.9052735 c 0,-0.7667484 0.224873,-1.1665383 0.646485,-1.5234375 0.421612,-0.3568992 1.139733,-0.6464845 2.154297,-0.6464845 H 33.5625 a 2,2 0 0 0 2,-2 2,2 0 0 0 -2,-2 z m 3.449219,19.8847654 a 1,1 0 0 0 -1,1 1,1 0 0 0 1,1 h 9.36914 c 1.835822,0 2.408695,1.011113 2.40625,2.02539 -0.0024,1.014278 -0.587879,2.03125 -2.40625,2.03125 H 19.78125 c -0.688764,0 -1.371966,0.212522 -1.837891,0.699219 -0.465924,0.486697 -0.632812,1.14142 -0.632812,1.763672 v 4.572266 a 1,1 0 0 0 1,1 1,1 0 0 0 1,-1 v -4.572266 c 0,-0.286118 0.0617,-0.363704 0.07813,-0.380859 0.01642,-0.01716 0.06795,-0.08203 0.392578,-0.08203 h 7.845703 c 2.71009,0 4.401396,-2.011083 4.40625,-4.02539 0.0049,-2.014308 -1.684421,-4.03125 -4.40625,-4.03125 z" fill="#008055"/>
</svg>
