<svg xmlns="http://www.w3.org/2000/svg" width="48" height="48">
	<path d="m 14.809571,2.7353515 c -1.586186,0 -3.027503,0.45288 -4.09375,1.355469 -1.066247,0.902589 -1.707032,2.267013 -1.707032,3.814453 L 9.006839,40.073242 c 0,1.681492 0.620336,3.087956 1.707031,3.966797 1.086697,0.878842 2.524939,1.224609 4.095704,1.224609 h 18.99414 c 1.547191,0 2.892888,-0.534021 3.810547,-1.486328 0.917659,-0.952306 1.378906,-2.274028 1.378906,-3.705078 V 12.803711 c 0,-1.577085 -0.452883,-2.9287185 -1.398437,-3.8476555 -0.945557,-0.918937 -2.284719,-1.322266 -3.791019,-1.322266 h -7.523437 a 1,1 0 0 0 -1,1 1,1 0 0 0 1,1 h 7.523437 c 1.161691,0 1.916534,0.287521 2.398438,0.7558585 0.481903,0.468338 0.791015,1.200289 0.791015,2.414063 v 27.269531 c 0,1.01284 -0.305516,1.786153 -0.818359,2.31836 -0.512843,0.532206 -1.262455,0.873046 -2.371094,0.873046 h -18.99414 c -1.271475,0 -2.234602,-0.2914 -2.837891,-0.779296 -0.603289,-0.487896 -0.964844,-1.178612 -0.964844,-2.41211 l 0.002,-32.1679685 c 0,-1.026979 0.361557,-1.748313 0.998047,-2.287109 0.636491,-0.538796 1.59763,-0.882813 2.802735,-0.882813 h 18.751953 a 1,1 0 0 0 1,-1 1,1 0 0 0 -1,-1 z m 3.449218,18.8847655 a 1,1 0 0 0 -1,1 1,1 0 0 0 1,1 h 9.367188 c 1.835821,0 2.410647,1.011114 2.408203,2.025391 -0.0024,1.014277 -0.589833,2.03125 -2.408203,2.03125 h -7.845703 c -0.688764,0 -1.371967,0.212522 -1.837891,0.699219 -0.465924,0.486696 -0.632812,1.139468 -0.632812,1.761718 v 4.574219 a 1,1 0 0 0 1,1 1,1 0 0 0 1,-1 v -4.574219 c 0,-0.286118 0.0617,-0.36175 0.07813,-0.378906 0.01642,-0.01716 0.06795,-0.08203 0.392578,-0.08203 h 7.845703 c 2.710089,0 4.403349,-2.011083 4.408203,-4.025391 0.0049,-2.014308 -1.686374,-4.03125 -4.408203,-4.03125 z" fill="#008055"/>
</svg>
