<svg xmlns="http://www.w3.org/2000/svg" width="48" height="48">
	<path d="m 14.80957,2.734375 c -1.586185,0 -3.027502,0.4548327 -4.09375,1.3574219 C 9.6495735,4.994386 9.0068355,6.356856 9.0068355,7.904297 v 32.169922 c 0,1.681492 0.620335,3.086002 1.7070315,3.964844 1.086696,0.878841 2.524939,1.226562 4.095703,1.226562 h 18.994141 c 1.54719,0 2.892888,-0.534022 3.810547,-1.486328 0.917659,-0.952307 1.378906,-2.274028 1.378906,-3.705078 V 12.804687 c 0,-1.577084 -0.452883,-2.930672 -1.398437,-3.849609 C 36.649172,8.036141 35.31001,7.634766 33.803711,7.634766 h -7.523438 a 1,1 0 0 0 -1,1 1,1 0 0 0 1,1 h 7.523438 c 1.16169,0 1.916533,0.287521 2.398437,0.755859 0.481904,0.468338 0.791016,1.200287 0.791016,2.414062 v 27.269532 c 0,1.01284 -0.305517,1.786153 -0.818359,2.318359 -0.512844,0.532206 -1.262456,0.873047 -2.371094,0.873047 H 14.80957 c -1.271474,0 -2.234601,-0.293354 -2.83789,-0.78125 -0.603289,-0.487896 -0.964844,-1.176659 -0.964844,-2.410156 V 7.904297 c 0,-1.026979 0.363509,-1.748314 1,-2.2871095 C 12.643327,5.0783917 13.604465,4.734375 14.80957,4.734375 h 18.751953 a 1,1 0 0 0 1,-1 1,1 0 0 0 -1,-1 z m 5.626953,18.511719 c -1.311282,0.0021 -2.417089,0.480438 -3.146484,1.240234 -0.729395,0.759796 -1.080164,1.759879 -1.074219,2.744141 0.01189,1.968523 1.624433,3.968042 4.21875,3.974609 a 1.0001,1.0001 0 0 0 0.0039,0 h 6.638671 c 0.804252,0 1.29226,0.260786 1.634766,0.626953 0.342506,0.366167 0.531202,0.878541 0.535156,1.400391 0.004,0.52185 -0.175755,1.027548 -0.511718,1.388672 -0.335964,0.361123 -0.825902,0.625 -1.658204,0.625 h -9.035156 a 1,1 0 0 0 -1,1 1,1 0 0 0 1,1 h 9.035156 c 1.30363,0 2.405352,-0.49223 3.123047,-1.263672 0.717697,-0.771442 1.054364,-1.777387 1.046875,-2.765625 -0.0075,-0.988238 -0.357343,-1.985555 -1.074218,-2.751953 -0.716876,-0.766399 -1.809801,-1.259766 -3.095704,-1.259766 h -6.636718 -0.002 c -1.66254,-0.0052 -2.216582,-0.980804 -2.222657,-1.986328 -0.003,-0.503013 0.175535,-0.991357 0.517578,-1.347656 0.342044,-0.356299 0.851021,-0.62362 1.705079,-0.625 h 9.234375 a 1,1 0 0 0 1,-1 1,1 0 0 0 -1,-1 h -9.234375 a 1.0001,1.0001 0 0 0 -0.002,0 z" fill="#008055"/>
</svg>
