<svg xmlns="http://www.w3.org/2000/svg" width="48" height="48">
	<path d="m 14.80957,1.7353517 c -1.776725,0 -3.459109,0.507311 -4.740234,1.591797 -1.281125,1.0844857 -2.0625,2.7704538 -2.0625,4.5781246 V 40.073242 c 0,1.90549 0.749725,3.669827 2.078125,4.744141 1.3284,1.074314 3.002246,1.447265 4.722656,1.447265 h 18.996094 c 1.766467,0 3.40923,-0.628659 4.529297,-1.791015 1.120067,-1.162357 1.660156,-2.760236 1.660156,-4.400391 V 14.803711 c 0,-1.75874 -0.523793,-3.420217 -1.701172,-4.564453 C 37.114613,9.0950212 35.482315,8.6337892 33.803711,8.6337892 h -5.59375 a 2,2 0 0 0 -2,1.9999998 2,2 0 0 0 2,2 h 5.59375 c 0.989386,0 1.451093,0.229618 1.701172,0.472656 0.250078,0.243039 0.488281,0.665146 0.488281,1.697266 v 25.269531 c 0,0.803735 -0.228627,1.302844 -0.539062,1.625 -0.310436,0.322156 -0.761028,0.566406 -1.650391,0.566406 H 14.807617 c -1.12183,0 -1.845446,-0.26617 -2.207031,-0.558593 -0.361585,-0.292424 -0.59375,-0.623313 -0.59375,-1.632813 V 7.9052732 c 0,-0.7667477 0.224872,-1.1684912 0.646484,-1.5253902 0.421613,-0.3568993 1.141686,-0.6445313 2.15625,-0.6445313 h 18.751953 a 2,2 0 0 0 2,-2 2,2 0 0 0 -2,-2 z M 20.436523,21.24707 c -1.311283,0.0021 -2.417088,0.480439 -3.146484,1.240235 -0.729395,0.759795 -1.080165,1.757925 -1.074219,2.742187 0.01189,1.968524 1.624433,3.968043 4.21875,3.974609 a 1.0001,1.0001 0 0 0 0.002,0 h 6.640626 c 0.804251,0 1.292259,0.260787 1.634765,0.626954 0.342506,0.366167 0.531202,0.878541 0.535156,1.40039 0.004,0.52185 -0.175754,1.027549 -0.511718,1.388672 -0.335965,0.361124 -0.825903,0.625 -1.658203,0.625 h -9.035157 a 1,1 0 0 0 -1,1 1,1 0 0 0 1,1 h 9.035157 c 1.303629,0 2.40535,-0.49223 3.123046,-1.263672 0.717697,-0.771442 1.054364,-1.775434 1.046875,-2.763672 -0.0075,-0.988237 -0.357342,-1.985554 -1.074218,-2.751953 -0.716876,-0.766398 -1.809801,-1.261719 -3.095703,-1.261719 H 20.44043 c -1.664483,-0.0042 -2.218532,-0.980301 -2.22461,-1.986328 -0.003,-0.503013 0.175534,-0.989404 0.517579,-1.345703 0.341697,-0.355939 0.850625,-0.623084 1.703124,-0.625 h 9.236329 a 1,1 0 0 0 1,-1 1,1 0 0 0 -1,-1 z" fill="#008055"/>
</svg>
