<svg xmlns="http://www.w3.org/2000/svg" width="48" height="48">
	<path d="m 14.808594,2.7343748 c -1.586185,0 -3.027501,0.4548334 -4.09375,1.3574219 C 9.6485946,4.9943852 9.0078127,6.3568542 9.0078127,7.9042962 V 40.074218 c 0,1.681492 0.6183841,3.086002 1.7050783,3.964844 1.086694,0.878842 2.524938,1.226563 4.095703,1.226563 h 18.99414 c 1.547187,0 2.892889,-0.534022 3.810547,-1.486329 0.917658,-0.952306 1.378906,-2.274027 1.378906,-3.705078 V 12.804687 c 0,-1.577084 -0.450933,-2.9306718 -1.396484,-3.8496088 -0.945551,-0.918938 -2.286669,-1.320313 -3.792969,-1.320313 h -7.523437 a 1,1 0 0 0 -1,1 1,1 0 0 0 1,1 h 7.523437 c 1.161691,0 1.916537,0.287522 2.398438,0.7558598 0.481901,0.468337 0.791015,1.200286 0.791015,2.414062 v 27.269531 c 0,1.01284 -0.305517,1.786154 -0.818359,2.31836 -0.512842,0.532206 -1.262461,0.873047 -2.371094,0.873047 h -18.99414 c -1.271475,0 -2.234605,-0.293355 -2.837891,-0.78125 -0.603286,-0.487896 -0.96289,-1.176658 -0.96289,-2.410157 V 7.9042962 c 0,-1.026976 0.363507,-1.748312 1,-2.287109 0.636493,-0.5387963 1.595676,-0.8828124 2.800781,-0.8828124 h 18.751953 a 1,1 0 0 0 1,-1 1,1 0 0 0 -1,-1 z m 4.30664,15.8730472 c -0.41881,0.007 -0.84351,0.04967 -1.27539,0.134765 a 0.84663287,0.84663287 0 0 0 -0.0059,0 c -0.54432,0.11193 -1.057835,0.375657 -1.396485,0.810547 -0.33865,0.43486 -0.46875,0.979401 -0.46875,1.525391 v 3.615234 a 0.84654823,0.84654823 0 0 0 0.847656,0.847656 0.84654823,0.84654823 0 0 0 0.845704,-0.847656 v -3.615234 c 0,-0.29072 0.05843,-0.416445 0.111328,-0.484375 0.0527,-0.0679 0.13653,-0.1389 0.40039,-0.19336 1.74358,-0.34121 3.497467,0.243451 5.367187,1.025391 1.87127,0.78252 3.813102,1.764675 5.951172,1.853515 0.23493,0.0103 0.40653,0.0851 0.5,0.167969 0.0933,0.0829 0.15889,0.167391 0.16211,0.431641 l 0.0098,11.068359 c -1.9e-4,0.24881 -0.06259,0.335489 -0.115234,0.386719 -0.0515,0.0501 -0.142456,0.098 -0.347656,0.0957 -1.77634,-0.0838 -3.516532,-0.885984 -5.388672,-1.646484 -1.87594,-0.76199 -3.926108,-1.473294 -6.236328,-1.027344 -0.27153,0.0502 -0.32644,-0.0055 -0.34375,-0.01953 -0.0171,-0.0147 -0.06551,-0.06274 -0.06641,-0.257813 v -4.36914 c 0,-0.48613 0.09862,-0.616143 0.632812,-0.814453 1.73998,-0.472491 3.294676,0.02238 4.847656,0.77539 v 4.355469 a 0.84654823,0.84654823 0 0 0 0.845703,0.845703 0.84654823,0.84654823 0 0 0 0.845704,-0.845703 v -3.460938 c 1.334089,0.7325 2.673208,1.417934 4.173828,1.277344 a 0.84654823,0.84654823 0 0 0 0.763672,-0.921875 0.84654823,0.84654823 0 0 0 -0.921876,-0.763672 c -0.972549,0.091 -2.363734,-0.66474 -4.015624,-1.52539 v -4.115235 a 0.84654823,0.84654823 0 0 0 -0.845704,-0.845703 0.84654823,0.84654823 0 0 0 -0.845703,0.845703 v 3.298828 C 21.584954,25.551263 19.7945,25.116108 17.8125,25.667968 a 0.84663287,0.84663287 0 0 0 -0.0625,0.01953 c -1.0262,0.37185 -1.777344,1.326415 -1.777344,2.421875 v 4.373047 a 0.84663287,0.84663287 0 0 0 0,0.0039 c 0.002,0.56739 0.206222,1.157315 0.669922,1.546875 0.46371,0.38956 1.117993,0.505969 1.751953,0.386719 a 0.84663287,0.84663287 0 0 0 0.0039,0 c 1.797189,-0.34694 3.463303,0.196703 5.277343,0.933593 1.81405,0.73688 3.735995,1.672218 5.958984,1.773438 a 0.84663287,0.84663287 0 0 0 0.01953,0 c 0.57653,0.0134 1.156438,-0.172825 1.574218,-0.578125 0.417781,-0.40536 0.628907,-0.993203 0.628907,-1.601563 l -0.0098,-11.078125 a 0.84663287,0.84663287 0 0 0 0,-0.0098 c -0.0102,-0.669 -0.287819,-1.285495 -0.730469,-1.677735 -0.44265,-0.39227 -0.998515,-0.567447 -1.546875,-0.591797 a 0.84663287,0.84663287 0 0 0 -0.0098,0 c -1.64003,-0.0674 -3.436874,-0.915719 -5.371094,-1.724609 -1.45068,-0.60672 -3.004109,-1.189483 -4.662109,-1.251953 -0.1382,-0.005 -0.278389,-0.0069 -0.417969,-0.0039 z" fill="#008055"/>
</svg>
