<svg xmlns="http://www.w3.org/2000/svg" width="48" height="48">
	<path d="m 14.80957,2.7343752 c -1.586185,0 -3.027501,0.4548334 -4.09375,1.3574218 C 9.649571,4.9943857 9.008789,6.3568548 9.008789,7.9042968 L 9.006839,40.074219 c 0,1.681491 0.620337,3.086002 1.707031,3.964844 1.086694,0.878842 2.524938,1.226562 4.095703,1.226562 h 18.99414 c 1.547196,0 2.892889,-0.534021 3.810547,-1.486328 0.917659,-0.952307 1.378907,-2.274029 1.378907,-3.705078 V 12.804688 c 0,-1.577084 -0.452886,-2.9306732 -1.398438,-3.8496092 -0.945551,-0.918939 -2.284716,-1.320313 -3.791016,-1.320313 h -7.523437 a 1,1 0 0 0 -1,1 1,1 0 0 0 1,1 h 7.523437 c 1.161691,0 1.916537,0.287522 2.398438,0.7558592 0.481901,0.468338 0.791016,1.200287 0.791016,2.414063 v 27.269531 c 0,1.012841 -0.305518,1.786153 -0.81836,2.31836 -0.512841,0.532205 -1.262449,0.873046 -2.371094,0.873046 H 14.80957 c -1.271475,0 -2.234605,-0.293354 -2.837891,-0.78125 -0.603286,-0.487895 -0.964843,-1.176657 -0.964843,-2.410156 l 0.002,-32.1699222 c 0,-1.026978 0.361553,-1.748313 0.998047,-2.287109 0.636493,-0.5387967 1.597629,-0.8828126 2.802734,-0.8828126 H 33.56157 a 1,1 0 0 0 1,-1 1,1 0 0 0 -1,-1 z m 6.160156,15.8886718 a 0.89999998,0.89999998 0 0 0 -0.898437,0.898438 v 2.732422 a 0.89999998,0.89999998 0 0 0 0.898437,0.90039 0.89999998,0.89999998 0 0 0 0.900391,-0.90039 v -2.732422 a 0.89999998,0.89999998 0 0 0 -0.900391,-0.898438 z m 3.052734,0 a 0.89999998,0.89999998 0 0 0 -0.90039,0.898438 v 2.732422 a 0.89999998,0.89999998 0 0 0 0.90039,0.90039 0.89999998,0.89999998 0 0 0 0.900391,-0.90039 V 19.521485 A 0.89999998,0.89999998 0 0 0 24.02246,18.623047 Z m 3.052735,0 a 0.89999998,0.89999998 0 0 0 -0.900391,0.898438 v 2.732422 a 0.89999998,0.89999998 0 0 0 0.900391,0.90039 0.89999998,0.89999998 0 0 0 0.900391,-0.90039 v -2.732422 a 0.89999998,0.89999998 0 0 0 -0.900391,-0.898438 z m -9.132813,1.351563 c -0.634555,0 -1.299507,0.183074 -1.839843,0.638672 -0.540337,0.455598 -0.896485,1.200557 -0.896485,2.044921 v 11.482422 a 0.90008998,0.90008998 0 0 0 0,0.02539 c 0.02386,0.808113 0.397792,1.535035 0.957032,1.990234 0.559239,0.4552 1.265061,0.660157 1.982421,0.660157 l 12.017579,-0.01758 c 0.721941,0 1.432005,-0.198691 1.943359,-0.697266 0.511354,-0.498576 0.736328,-1.221183 0.736328,-1.978516 V 22.658203 c 0,-0.708063 -0.233244,-1.400771 -0.71875,-1.90625 -0.485506,-0.505477 -1.199162,-0.777343 -1.960937,-0.777343 h -0.71875 a 0.89999998,0.89999998 0 0 0 -0.900391,0.898437 0.89999998,0.89999998 0 0 0 0.900391,0.900391 h 0.71875 c 0.365794,0 0.542231,0.09972 0.664062,0.226562 0.121831,0.126843 0.214844,0.325307 0.214844,0.658203 v 11.464844 c 0,0.431418 -0.09867,0.597131 -0.19336,0.689453 C 30.753942,34.90482 30.573874,35 30.163086,35 l -12.017579,0.01563 c -0.369999,0 -0.668016,-0.109639 -0.847656,-0.255859 -0.17964,-0.14622 -0.281018,-0.307937 -0.291015,-0.646484 V 22.658203 c 0,-0.397244 0.10576,-0.543362 0.255859,-0.669921 0.150099,-0.12656 0.403003,-0.214844 0.679687,-0.214844 h 0.759766 a 0.89999998,0.89999998 0 0 0 0.900391,-0.900391 0.89999998,0.89999998 0 0 0 -0.900391,-0.898437 z m 8.574219,5.082031 a 0.80000001,0.80000001 0 0 0 -0.710937,0.441406 l -2.164063,4.302735 a 0.80000001,0.80000001 0 0 0 -0.002,0.0059 0.80000001,0.80000001 0 0 0 -0.01563,0.0332 0.80000001,0.80000001 0 0 0 -0.01563,0.03711 0.80000001,0.80000001 0 0 0 -0.0039,0.0078 0.80000001,0.80000001 0 0 0 -0.01758,0.05664 0.80000001,0.80000001 0 0 0 -0.03125,0.21875 0.80000001,0.80000001 0 0 0 0,0.002 0.80000001,0.80000001 0 0 0 0,0.002 0.80000001,0.80000001 0 0 0 0.0039,0.07031 0.80000001,0.80000001 0 0 0 0.002,0.02148 0.80000001,0.80000001 0 0 0 0.02539,0.126953 0.80000001,0.80000001 0 0 0 0.002,0.0039 0.80000001,0.80000001 0 0 0 0.02344,0.06641 0.80000001,0.80000001 0 0 0 0.002,0.0039 0.80000001,0.80000001 0 0 0 0.0293,0.06641 0.80000001,0.80000001 0 0 0 0.002,0.002 0.80000001,0.80000001 0 0 0 0.0078,0.01367 0.80000001,0.80000001 0 0 0 0.02734,0.04883 0.80000001,0.80000001 0 0 0 0.002,0.002 0.80000001,0.80000001 0 0 0 0.04101,0.05859 0.80000001,0.80000001 0 0 0 0.04102,0.04883 0.80000001,0.80000001 0 0 0 0.0098,0.01172 0.80000001,0.80000001 0 0 0 0.113281,0.09961 0.80000001,0.80000001 0 0 0 0.06055,0.03906 0.80000001,0.80000001 0 0 0 0.002,0.002 0.80000001,0.80000001 0 0 0 0.04688,0.02539 0.80000001,0.80000001 0 0 0 0.01758,0.0078 0.80000001,0.80000001 0 0 0 0.06836,0.0293 0.80000001,0.80000001 0 0 0 0.0059,0.002 0.80000001,0.80000001 0 0 0 0.308593,0.04492 h 2.607422 v 0.734375 h -0.43164 a 0.80000001,0.80000001 0 0 0 -0.798828,0.800781 0.80000001,0.80000001 0 0 0 0.798828,0.798828 h 2.46289 A 0.80000001,0.80000001 0 0 0 29.83496,32.494141 0.80000001,0.80000001 0 0 0 29.036132,31.69336 h -0.43164 v -3.587891 a 0.80000001,0.80000001 0 0 0 -0.798828,-0.800781 0.80000001,0.80000001 0 0 0 -0.800782,0.800781 v 1.253906 H 25.65332 l 1.580078,-3.142578 a 0.80000001,0.80000001 0 0 0 -0.353516,-1.074218 0.80000001,0.80000001 0 0 0 -0.363281,-0.08594 z m -6.958984,0.183594 a 0.80000001,0.80000001 0 0 0 -0.800781,0.798828 0.80000001,0.80000001 0 0 0 0.800781,0.800781 h 0.574219 v 4.853516 h -0.431641 a 0.80000001,0.80000001 0 0 0 -0.798828,0.800781 0.80000001,0.80000001 0 0 0 0.798828,0.798828 h 2.462891 a 0.80000001,0.80000001 0 0 0 0.798828,-0.798828 0.80000001,0.80000001 0 0 0 -0.798828,-0.800781 h -0.431641 v -5.654297 a 0.80000001,0.80000001 0 0 0 -0.0039,-0.07422 0.80000001,0.80000001 0 0 0 -0.794922,-0.724609 z" fill="#008055"/>
</svg>
