<svg xmlns="http://www.w3.org/2000/svg" width="48" height="48">
	<path d="m 14.808594,2.7353517 c -1.586185,0 -3.027503,0.4528796 -4.09375,1.3554687 C 9.6485965,4.9934096 9.0078125,6.3578329 9.0078125,7.9052735 V 40.073242 c 0,1.681492 0.618381,3.087956 1.7050785,3.966797 1.086696,0.878841 2.524938,1.224609 4.095703,1.224609 h 18.99414 c 1.547191,0 2.892888,-0.532068 3.810547,-1.484375 0.917659,-0.952306 1.378907,-2.275981 1.378907,-3.707031 V 12.803711 c 0,-1.577085 -0.450931,-2.9287197 -1.396485,-3.8476562 -0.945554,-0.9189369 -2.28667,-1.3222656 -3.792969,-1.3222656 h -7.523437 a 1,1 0 0 0 -1,1 1,1 0 0 0 1,1.0000001 h 7.523437 c 1.16169,0 1.916534,0.287521 2.398438,0.7558587 0.481904,0.468338 0.791016,1.200288 0.791016,2.414063 v 27.269531 c 0,1.01284 -0.305518,1.786153 -0.81836,2.318359 -0.512844,0.532206 -1.262456,0.873047 -2.371094,0.873047 h -18.99414 c -1.271475,0 -2.234602,-0.2914 -2.837891,-0.779297 -0.603288,-0.487896 -0.962891,-1.178611 -0.962891,-2.412109 V 7.9052735 c 0,-1.0269791 0.36351,-1.7483135 1,-2.2871093 0.636491,-0.5387959 1.595677,-0.8828125 2.800782,-0.8828125 h 18.751953 a 1,1 0 0 0 1,-1 1,1 0 0 0 -1,-1 z m 9.21875,15.0449213 c -1.328342,0.09171 -2.591936,0.828381 -3.310547,2.078125 -1.106673,1.924626 -0.504288,4.375875 1.289062,5.613281 a 0.90834279,0.8917306 85.000864 0 0 0.0059,0.0098 0.90834279,0.8917306 85.000864 0 0 0.167969,0.152344 c 0,0 0.002,0.002 0.002,0.002 0.0023,0.0014 0.0035,0.0045 0.0059,0.0059 a 0.90834279,0.8917306 85.000864 0 0 0.04883,0.0293 0.90834279,0.8917306 85.000864 0 1 0.002,0 0.90834279,0.8917306 85.000864 0 0 0.0078,0.0059 c 0.0037,0.0021 0.008,0.0018 0.01172,0.0039 a 0.90834279,0.8917306 85.000864 0 0 0.203125,0.06836 c 0,0 0.002,0 0.002,0 1.946937,0.985629 4.345167,0.300862 5.439453,-1.638672 1.133581,-2.009183 0.451473,-4.603983 -1.519531,-5.769531 -0.739128,-0.43708 -1.558465,-0.615569 -2.355469,-0.560547 z m 0.117187,1.804688 c 0.453702,-0.03019 0.921689,0.07428 1.347657,0.326172 1.135911,0.671718 1.518087,2.126962 0.861328,3.291015 -0.65676,1.164054 -2.087201,1.558654 -3.228516,0.896485 a 0.90834279,0.8917306 85.000864 0 0 -0.01172,-0.0059 0.90834279,0.8917306 85.000864 0 0 -0.02148,-0.01367 c -1.130433,-0.681221 -1.502091,-2.13836 -0.835938,-3.296875 0.416345,-0.724071 1.1325,-1.146954 1.888672,-1.197265 z m -0.171875,7.27539 c -1.850306,0 -3.582466,0.379398 -4.916015,1.322266 -1.333549,0.942868 -2.189078,2.505215 -2.179688,4.455078 v 2.408203 c 0,0.918203 0.388087,1.760586 1.041016,2.257813 0.652929,0.497227 1.466363,0.667968 2.322265,0.667968 a 0.89999998,0.89999998 0 0 0 0.900391,-0.90039 0.89999998,0.89999998 0 0 0 -0.900391,-0.900391 c -0.602257,0 -1.018329,-0.135789 -1.232421,-0.298828 -0.214093,-0.163039 -0.330079,-0.336153 -0.330079,-0.826172 v -2.412109 a 0.90008998,0.90008998 0 0 0 0,-0.0039 c -0.007,-1.462545 0.511759,-2.337793 1.417969,-2.978516 0.906209,-0.640723 2.281005,-0.990234 3.876953,-0.990234 1.753024,0 3.231482,0.369174 4.199219,1.02539 0.967736,0.656216 1.496094,1.529426 1.496094,2.947266 v 2.412109 c 0,0.39046 -0.113865,0.63748 -0.292969,0.8125 -0.179105,0.17502 -0.4616,0.3125 -0.957031,0.3125 h -5.595703 a 0.89999998,0.89999998 0 0 0 -0.898438,0.900391 0.89999998,0.89999998 0 0 0 0.898438,0.90039 h 5.595703 c 0.867096,0 1.660049,-0.284029 2.214844,-0.826171 0.554794,-0.542143 0.833984,-1.309433 0.833984,-2.09961 v -2.412109 c 0,-1.927962 -0.892979,-3.49152 -2.285156,-4.435547 -1.392179,-0.944027 -3.211575,-1.337891 -5.208985,-1.337891 z" fill="#008055"/>
</svg>
