<svg xmlns="http://www.w3.org/2000/svg" width="48" height="48">
	<path d="m 38.895141,4.9786617 c -1.19333,0.06872 -2.487058,0.623211 -3.658203,1.791016 a 0.70006999,0.70006999 0 0 0 -0.002,0.002 l -7.152344,7.1738283 c -0.826763,0.782747 -1.381622,0.94161 -2.558594,0.603515 L 12.733032,10.87124 a 0.70006999,0.70006999 0 0 0 -0.02344,-0.0059 c -1.422252,-0.354733 -2.507883,-0.34858 -3.4238278,-0.0078 -0.915945,0.340767 -1.587331,0.963969 -2.308594,1.671875 a 0.70006999,0.70006999 0 0 0 -0.00391,0.0059 c -0.830922,0.830922 -1.422027,1.422856 -1.582031,2.246093 -0.080002,0.411619 0.030026,0.881046 0.277343,1.222657 0.247318,0.34161 0.584117,0.588831 1.001954,0.830078 L 16.940057,22.76969 c 0.61715,0.371209 0.893272,0.693219 0.933594,0.832031 0.04032,0.138812 0.02726,0.359964 -0.486329,0.912109 l -3.08789,3.087891 c -0.939621,0.903024 -1.523286,1.170125 -2.791016,0.900391 l -1.8339838,-0.46875 c -0.719538,-0.196577 -1.390555,-0.291415 -2.054688,-0.152344 -0.662765,0.138784 -1.264219,0.521051 -1.800781,1.097656 -0.298558,0.311989 -0.531049,0.594501 -0.693359,0.908203 -0.163308,0.315632 -0.250833,0.699336 -0.167969,1.064453 0.165727,0.730234 0.742387,1.090448 1.416016,1.5 a 0.70006999,0.70006999 0 0 0 0.013671,0.0078 l 4.0859378,2.355469 a 0.69999999,0.69999999 0 0 0 0.957031,-0.257813 0.69999999,0.69999999 0 0 0 -0.257812,-0.955078 L 7.1002192,31.254053 c -0.599771,-0.364649 -0.780546,-0.625437 -0.777344,-0.611329 0.0016,0.0071 -0.017429,0.0092 0.044922,-0.111328 0.062351,-0.120508 0.214027,-0.328168 0.464844,-0.589843 a 0.70006999,0.70006999 0 0 0 0.00781,-0.0078 c 0.4029,-0.433793 0.716939,-0.608461 1.066406,-0.68164 0.349467,-0.07318 0.787075,-0.03616 1.398437,0.130859 a 0.70006999,0.70006999 0 0 0 0.011719,0.0039 l 1.8691408,0.476563 a 0.70006999,0.70006999 0 0 0 0.02734,0.0078 c 1.634816,0.349136 2.943469,-0.18995 4.056641,-1.259766 a 0.70006999,0.70006999 0 0 0 0.0098,-0.0098 l 3.115234,-3.115235 a 0.70006999,0.70006999 0 0 0 0.01758,-0.01758 C 19.078618,24.753 19.436295,23.966433 19.217437,23.212995 18.998579,22.459557 18.385939,22.005408 17.662749,21.570417 A 0.70006999,0.70006999 0 0 0 17.651,21.5646 L 7.3717042,15.62124 c -0.326314,-0.188403 -0.508609,-0.354223 -0.570313,-0.439453 -0.061704,-0.08523 -0.050267,-0.05702 -0.035156,-0.134766 0.03022,-0.155488 0.407388,-0.731606 1.197265,-1.521484 0.695684,-0.682429 1.219014,-1.135395 1.810547,-1.355469 0.5933728,-0.220758 1.3324848,-0.260379 2.5957028,0.05469 l 12.767578,3.669922 c 1.503549,0.431905 2.840086,0.07961 3.908204,-0.931641 a 0.70006999,0.70006999 0 0 0 0.01563,-0.01563 l 7.166015,-7.1875003 c 1.955191,-1.94803 3.743576,-1.665868 4.72461,-0.671875 0.981409,0.994374 1.259559,2.845054 -0.619141,4.8007813 l -7.083984,7.039063 a 0.70006999,0.70006999 0 0 0 -0.01367,0.01367 c -0.986745,1.031753 -1.586399,2.372528 -1.199219,3.892578 a 0.70006999,0.70006999 0 0 0 0.0059,0.01758 l 3.611329,12.78125 c 0.574197,2.209644 -0.481984,3.988322 -1.857422,5.244141 -0.27601,0.242332 -0.490594,0.366299 -0.617188,0.410156 -0.127334,0.04411 -0.150864,0.03561 -0.21289,0.01172 -0.123408,-0.04753 -0.461677,-0.381958 -0.847657,-1.035156 l -0.002,-0.0039 c -7.93e-4,-0.0013 -0.0012,-6.04e-4 -0.002,-0.002 l -5.873047,-10.21875 -0.002,-0.002 c -0.242825,-0.426963 -0.472403,-0.764319 -0.751953,-1.03125 -0.280148,-0.267502 -0.649728,-0.469159 -1.048828,-0.486328 -0.798201,-0.03434 -1.327992,0.480637 -1.927735,1.085937 l -3.107421,3.107422 c -0.576656,0.563348 -1.036682,1.146165 -1.271485,1.853516 -0.234803,0.70735 -0.212338,1.496843 0.04492,2.359375 l 0.501953,1.912109 c 0.194174,0.847304 0.134534,1.595258 -0.617187,2.318359 -0.292364,0.248737 -0.520722,0.401839 -0.634766,0.451172 -0.118167,0.05112 -0.07078,0.03029 -0.06836,0.03125 0.0048,0.0019 -0.329348,-0.335934 -0.775391,-1.064453 l -2.580078,-4.402344 a 0.69999999,0.69999999 0 0 0 -0.957031,-0.25 0.69999999,0.69999999 0 0 0 -0.25,0.958985 l 2.585937,4.414062 a 0.70006999,0.70006999 0 0 0 0.0059,0.01172 c 0.453858,0.741281 0.729681,1.344637 1.453126,1.632813 0.361722,0.144087 0.79473,0.102752 1.140624,-0.04688 0.345895,-0.149627 0.657046,-0.380609 1.017579,-0.691406 a 0.70006999,0.70006999 0 0 0 0.02539,-0.02344 c 1.126493,-1.07664 1.284505,-2.496096 1.019531,-3.652344 a 0.70006999,0.70006999 0 0 0 -0.0059,-0.02148 l -0.513672,-1.955079 a 0.70006999,0.70006999 0 0 0 -0.0059,-0.02148 c -0.20081,-0.673268 -0.190565,-1.116081 -0.05664,-1.519531 0.133924,-0.40345 0.424437,-0.808917 0.919922,-1.292969 a 0.70006999,0.70006999 0 0 0 0.0059,-0.0059 l 3.115235,-3.115235 a 0.70006999,0.70006999 0 0 0 0.002,-0.002 c 0.535537,-0.5405 0.866958,-0.67409 0.873047,-0.673828 0.003,1.31e-4 0.02349,-0.01215 0.142578,0.101563 0.119087,0.113711 0.29775,0.350151 0.503906,0.71289 a 0.70006999,0.70006999 0 0 0 0.002,0.002 l 5.878907,10.226563 a 0.70006999,0.70006999 0 0 0 0.002,0.0059 c 0.431651,0.733279 0.828486,1.358976 1.554687,1.638672 0.363101,0.139848 0.793234,0.137712 1.173828,0.0059 0.380595,-0.131852 0.727273,-0.366206 1.089844,-0.685546 a 0.70006999,0.70006999 0 0 0 0.0098,-0.0078 c 1.617819,-1.474721 3.0026,-3.830733 2.273437,-6.636719 a 0.70006999,0.70006999 0 0 0 -0.0039,-0.01563 L 33.393188,22.488428 v -0.0039 c -0.263178,-1.038773 0.05406,-1.736734 0.849609,-2.570312 l 7.089844,-7.044922 a 0.70006999,0.70006999 0 0 0 0.0098,-0.01172 c 2.26222,-2.354972 2.138444,-5.2006803 0.605468,-6.7539063 -0.766487,-0.776613 -1.859404,-1.193723 -3.052734,-1.125 z" fill="#008055"/>
</svg>
