<svg xmlns="http://www.w3.org/2000/svg" width="48" height="48">
	<path d="m 39.41317,4.0015525 c -0.179653,-0.0073 -0.361914,-0.0064 -0.544922,0.0039 -1.464055,0.08282 -3.015138,0.735669 -4.324218,2.041015 a 1.70017,1.70017 0 0 0 -0.0039,0.0039 l -7.138672,7.1601555 c -0.643319,0.609282 -0.649533,0.632831 -1.587891,0.363281 L 13.022545,9.8960845 a 1.70017,1.70017 0 0 0 -0.05859,-0.01563 C 11.428083,9.4973895 10.096651,9.4774095 8.9502826,9.9038945 7.8039142,10.330377 7.0292945,11.07681 6.2920794,11.800379 a 1.70017,1.70017 0 0 0 -0.011719,0.01172 c -0.8602234,0.86024 -1.6027798,1.461508 -1.8554688,2.761719 -0.1263445,0.650105 0.067361,1.475267 0.4472657,2 0.3799049,0.524733 0.8292822,0.832338 1.3125,1.111328 v -0.002 L 16.438564,23.61088 c 0.31832,0.191468 0.241152,0.113492 0.287109,0.150391 -0.03085,0.03416 -0.01078,0.0073 -0.05664,0.05664 l -3.048828,3.046875 c -0.815312,0.783587 -0.883707,0.856283 -1.886719,0.642578 L 9.9522328,27.054287 C 9.1554442,26.836599 8.3176821,26.702134 7.4287952,26.888271 c -0.8865868,0.185655 -1.6934124,0.713112 -2.3261719,1.392578 -0.3314141,0.346758 -0.6193479,0.682033 -0.8515625,1.13086 -0.2354184,0.455018 -0.3971113,1.115155 -0.2539062,1.746093 0.2864099,1.261876 1.1447582,1.691192 1.8710937,2.132813 a 1.70017,1.70017 0 0 0 0.03125,0.01758 l 3.546875,2.054688 A 1.7,1.7 0 0 0 11.768639,34.74374 1.7,1.7 0 0 0 11.149498,32.419521 L 7.7744983,30.466396 c 0.1262024,-0.101468 0.2683486,-0.232984 0.3496094,-0.25 0.1247031,-0.02611 0.3975689,-0.02872 0.9316406,0.117188 a 1.70017,1.70017 0 0 0 0.027344,0.0078 l 1.8691407,0.476563 a 1.70017,1.70017 0 0 0 0.06641,0.01563 c 1.894591,0.404619 3.722719,-0.329417 4.958985,-1.517579 a 1.70017,1.70017 0 0 0 0.02344,-0.02344 l 3.115234,-3.115234 a 1.70017,1.70017 0 0 0 0.04297,-0.04297 c 0.77466,-0.832784 1.379575,-2.024326 1.033203,-3.216797 -0.346371,-1.192471 -1.203026,-1.740153 -2.001953,-2.220703 a 1.70017,1.70017 0 0 0 -0.02539,-0.01367 L 8.0928577,14.860927 c 0.1105618,-0.143 0.1101699,-0.157755 0.5800781,-0.632812 l 0.00391,-0.002 c 0.6801717,-0.667218 1.0968348,-1.000035 1.4589852,-1.134766 0.361931,-0.134649 0.857514,-0.195971 2,0.08789 0.0033,8.3e-4 0.0025,-8.36e-4 0.0059,0 l 12.732422,3.662109 a 1.70017,1.70017 0 0 0 0.002,0 c 1.736818,0.498914 3.63058,0.0065 4.871094,-1.167969 a 1.70017,1.70017 0 0 0 0.03516,-0.03516 l 7.162109,-7.1835935 c 1.6802,-1.675407 2.72116,-1.274881 3.308594,-0.679687 0.587434,0.595194 0.977803,1.733745 -0.626953,3.4042965 l -7.068359,7.02539 a 1.70017,1.70017 0 0 0 -0.03125,0.03125 c -1.119481,1.170543 -1.919151,2.969816 -1.445313,4.830078 a 1.70017,1.70017 0 0 0 0.01172,0.04102 l 3.607422,12.761719 c 0.457148,1.759212 -0.347024,3.108546 -1.521485,4.199219 -0.07229,-0.08452 0.0038,-0.0037 -0.189453,-0.332032 l 0.0098,0.01367 -5.875,-10.21875 c -0.269993,-0.475062 -0.538402,-0.88632 -0.933594,-1.263672 -0.395192,-0.377352 -1.013315,-0.732379 -1.695312,-0.761718 -1.363996,-0.05868 -2.036037,0.729273 -2.681641,1.380859 l -3.095703,3.095703 c -0.634634,0.619989 -1.214625,1.329484 -1.521484,2.253906 -0.306861,0.924422 -0.260473,1.963218 0.03711,2.960938 l -0.01563,-0.05469 0.501953,1.916016 c 0.112363,0.493025 0.06708,0.783776 -0.171875,1.111328 -0.04073,-0.05909 -0.05692,-0.06121 -0.09961,-0.130859 0,0 0,-0.002 0,-0.002 l -1.900391,-3.261719 a 1.7,1.7 0 0 0 -2.324219,-0.613281 1.7,1.7 0 0 0 -0.613281,2.324218 l 1.919922,3.294922 a 1.70017,1.70017 0 0 0 0.01953,0.03125 c 0.459423,0.750406 0.689944,1.545626 1.933594,2.041016 0.621825,0.247695 1.401598,0.161394 1.910156,-0.05859 0.508558,-0.219988 0.873663,-0.508626 1.271485,-0.851562 a 1.70017,1.70017 0 0 0 0.06445,-0.05859 c 1.389025,-1.327554 1.617812,-3.222769 1.302734,-4.597656 a 1.70017,1.70017 0 0 0 -0.01367,-0.05078 L 20.50692,36.280849 a 1.70017,1.70017 0 0 0 -0.01563,-0.05469 c -0.160488,-0.53808 -0.130227,-0.731591 -0.06836,-0.917969 0.06187,-0.186378 0.234369,-0.46712 0.671875,-0.894531 a 1.70017,1.70017 0 0 0 0.01367,-0.01367 l 3.107422,-3.107422 5.835937,10.152344 a 1.70017,1.70017 0 0 0 0.0078,0.01563 c 0.462454,0.785605 0.900333,1.617149 2.05664,2.0625 0.578154,0.222675 1.299833,0.212101 1.861329,0.01758 0.561495,-0.194523 0.999144,-0.508533 1.421874,-0.88086 a 1.70017,1.70017 0 0 0 0.02148,-0.01953 c 1.789145,-1.630893 3.40965,-4.395034 2.570312,-7.625 a 1.70017,1.70017 0 0 0 -0.0098,-0.03516 L 34.376061,22.226162 v -0.002 c -0.177434,-0.698263 -0.05746,-0.940676 0.601563,-1.63086 l 7.072265,-7.029297 a 1.70017,1.70017 0 0 0 0.0293,-0.0293 c 2.536164,-2.640147 2.520701,-6.1960305 0.59375,-8.1484365 -0.843041,-0.854178 -2.002193,-1.333596 -3.259766,-1.384766 z" fill="#008055"/>
</svg>
