<svg xmlns="http://www.w3.org/2000/svg" width="48" height="48">
	<path d="M 24.041156,2.7739038 C 17.592748,2.7798339 11.693378,5.6941432 7.7462349,10.365701 5.2200631,13.355497 3.494942,17.066023 2.9356881,21.193825 a 2.1968433,2.2031624 85.000004 0 0 1.8886718,2.470704 2.1968433,2.2031624 85.000004 0 0 2.4765625,-1.884766 C 8.4889678,13.010908 16.215095,6.6715125 25.074359,7.197732 c 8.859264,0.526219 15.776549,7.73822 15.91211,16.585937 0.135561,8.847719 -6.553822,16.262812 -15.392578,17.058594 a 2.1968433,2.2031624 85.000004 0 0 -1.998047,2.384766 2.1968433,2.2031624 85.000004 0 0 2.390625,1.990234 C 37.080871,44.218397 45.562878,34.819276 45.392719,23.713357 45.222559,12.607438 36.457605,3.4734422 25.338031,2.8129663 24.903673,2.7871663 24.47105,2.7735083 24.041156,2.7739038 Z m -0.07031,6.2539063 a 2.2,2.2 0 0 0 -2.199221,2.2011719 v 12.591797 a 2.20022,2.20022 0 0 0 0.650391,1.5625 l 6.443359,6.388672 a 2.2,2.2 0 0 0 3.111328,-0.01367 2.2,2.2 0 0 0 -0.01367,-3.111328 L 26.170063,22.90281 V 11.228982 A 2.2,2.2 0 0 0 23.970844,9.0278101 Z M 4.7833443,26.143044 a 2.2,2.2 0 0 0 -1.5371094,0.646485 2.2,2.2 0 0 0 0.00586,3.111328 l 5.5722656,5.554687 -5.5722656,5.556641 a 2.2,2.2 0 0 0 -0.00586,3.111328 2.2,2.2 0 0 0 3.1113281,0.0039 l 5.582031,-5.564453 5.580078,5.564453 A 2.2,2.2 0 0 0 20.631,44.123513 2.2,2.2 0 0 0 20.6271,41.012185 L 15.054834,35.455544 20.6271,29.900857 a 2.2,2.2 0 0 0 0.0039,-3.111328 2.2,2.2 0 0 0 -1.572265,-0.646485 2.2,2.2 0 0 0 -1.539063,0.640625 L 11.939594,32.348122 6.357563,26.783669 A 2.2,2.2 0 0 0 4.7833443,26.143044 Z" fill="#008055"/>
</svg>
