<svg xmlns="http://www.w3.org/2000/svg" width="48" height="48">
	<path d="m 43.890625,3.6621095 a 1.8,1.8 0 0 0 -1.800781,1.798828 V 42.539063 a 1.8,1.8 0 0 0 1.800781,1.798828 1.8,1.8 0 0 0 1.798828,-1.798828 V 5.4609375 a 1.8,1.8 0 0 0 -1.798828,-1.798828 z m -20.292969,4.183594 c -0.908318,-0.05881 -1.466065,0.355673 -1.939453,0.677734 -0.525623,0.357599 -1.017819,0.791485 -1.583984,1.316406 l -7.34375,6.2167975 c -0.876365,0.666784 -1.053969,0.673828 -2.080078,0.673828 H 7.1875001 C 4.2845214,16.730304 2.310547,19.203858 2.310547,21.734375 v 4.869141 c 0,2.523372 1.994733,4.765625 4.6601563,4.765625 h 3.7734377 c 0.884963,0 1.488388,0.155917 2.058594,0.642578 l 5.24414,4.484375 a 1.9,1.9 0 0 0 2.679688,-0.208985 1.9,1.9 0 0 0 -0.208985,-2.677734 l -5.246093,-4.486328 a 1.90019,1.90019 0 0 0 -0.002,-0.002 C 13.887736,27.941755 12.203378,27.568359 10.744141,27.568359 H 6.9707033 c -0.4329765,0 -0.8613282,-0.488815 -0.8613282,-0.964843 v -4.869141 c 0,-0.503084 0.4555041,-1.203161 1.078125,-1.203126 h 3.4628909 c 1.433089,0 2.992417,-0.388384 4.400391,-1.46289 a 1.90019,1.90019 0 0 0 0.07422,-0.06055 l 7.238282,-6.125 v 25.376953 a 1.9,1.9 0 0 0 1.90039,1.900391 1.9,1.9 0 0 0 1.900391,-1.900391 V 12.177734 c 0,-0.858139 -0.0268,-1.533348 -0.205078,-2.2324215 -0.08914,-0.349537 -0.213804,-0.724212 -0.513672,-1.125 -0.299869,-0.400788 -0.856285,-0.800654 -1.435547,-0.917969 -0.144816,-0.02933 -0.28235,-0.04824 -0.41211,-0.05664 z M 37.300782,10.404297 A 1.8,1.8 0 0 0 35.5,12.205078 v 23.591797 a 1.8,1.8 0 0 0 1.800782,1.798828 1.8,1.8 0 0 0 1.798828,-1.798828 V 12.205078 a 1.8,1.8 0 0 0 -1.798828,-1.800781 z m -6.589844,6.005859 a 1.8,1.8 0 0 0 -1.800782,1.798828 v 11.582032 a 1.8,1.8 0 0 0 1.800782,1.800781 1.8,1.8 0 0 0 1.798828,-1.800781 V 18.208984 a 1.8,1.8 0 0 0 -1.798828,-1.798828 z" fill="#008055"/>
</svg>
