<svg xmlns="http://www.w3.org/2000/svg" width="48" height="48">
	<path d="m 24.000976,3.0498281 c -4.676595,0 -8.800781,3.5344095 -8.800781,8.6406249 v 9.25 c 0,5.146147 4.442173,8.742199 8.800781,8.742188 4.332752,-2.2e-5 8.761334,-3.42467 8.798829,-8.736328 v -0.002 -9.253907 c 0,-5.3799675 -4.439821,-8.6406249 -8.798829,-8.6406249 z m 0,1.5996094 c 3.580973,0 7.199219,2.5302842 7.199219,7.0410155 v 9.244141 c -0.03127,4.429182 -3.703511,7.14842 -7.199219,7.148438 -3.469852,8e-6 -7.201171,-2.927545 -7.201171,-7.142579 v -9.25 c 0,-4.2596434 3.311087,-7.0410155 7.201171,-7.0410155 z M 9.5087891,21.196313 a 0.80000001,0.80000001 0 0 0 -0.7988282,0.798828 c 0,7.723997 6.3111401,13.659539 14.4843751,14.046875 v 3.9375 c 0,1.250106 -0.323294,2.045196 -0.851563,2.558594 -0.528268,0.513398 -1.342911,0.810547 -2.539062,0.810547 h -3.982422 a 0.80000001,0.80000001 0 0 0 -0.800781,0.800781 0.80000001,0.80000001 0 0 0 0.800781,0.800781 h 3.982422 c 1.471838,0 2.755108,-0.391748 3.654297,-1.265625 0.899189,-0.873877 1.335937,-2.164324 1.335937,-3.705078 V 35.3135 A 0.80008001,0.80008001 0 0 0 23.995117,34.512719 C 16.178046,34.500935 10.30957,29.083961 10.30957,21.995141 A 0.80000001,0.80000001 0 0 0 9.5087891,21.196313 Z m 28.9804689,0 a 0.80000001,0.80000001 0 0 0 -0.798829,0.798828 c 0,3.370739 -1.246711,6.599689 -3.638671,8.824219 -2.218148,2.062895 -4.258963,2.998026 -6.570313,3.632812 a 0.80000001,0.80000001 0 0 0 -0.558594,0.984375 0.80000001,0.80000001 0 0 0 0.982422,0.558594 c 2.47443,-0.679574 4.831096,-1.767021 7.236328,-4.003906 2.75338,-2.560651 4.148438,-6.230373 4.148438,-9.996094 A 0.80000001,0.80000001 0 0 0 38.489258,21.196313 Z M 27.288086,43.334985 a 0.80000001,0.80000001 0 0 0 -0.800781,0.798828 0.80000001,0.80000001 0 0 0 0.800781,0.800781 h 4.935547 a 0.80000001,0.80000001 0 0 0 0.800781,-0.800781 0.80000001,0.80000001 0 0 0 -0.800781,-0.798828 z" fill="#008055"/>
</svg>
