<svg xmlns="http://www.w3.org/2000/svg" width="48" height="48">
	<path d="m 33.554688,8.9755637 c -0.619655,-0.125495 -1.067262,0.148089 -1.515626,0.453126 -0.448363,0.305036 -0.928166,0.7244043 -1.5,1.2558593 l 0.02734,-0.02539 -7.394531,6.259766 c -1.040551,0.793193 -1.611648,0.90625 -2.759766,0.90625 h -3.46289 c -2.242876,-1.27e-4 -3.775391,1.960668 -3.775391,3.904297 v 4.86914 c 0,1.93072 1.541358,3.664063 3.560547,3.664063 h 3.773437 c 1.051201,0 1.968299,0.22103 2.773438,0.908203 a 0.80008001,0.80008001 0 0 0 0.002,0.002 l 6.960938,5.896484 a 0.80000001,0.80000001 0 0 0 1.128906,-0.09375 0.80000001,0.80000001 0 0 0 -0.09375,-1.126953 l -6.960938,-5.894531 -0.002,-0.002 C 23.16998,28.974755 21.799995,28.663065 20.507808,28.663065 h -3.773437 c -1.079211,0 -1.960937,-0.995772 -1.960937,-2.064453 v -4.86914 c 0,-1.089972 0.893056,-2.302807 2.175781,-2.302735 h 3.46289 c 1.317654,0 2.474944,-0.277136 3.734375,-1.238281 a 0.80008001,0.80008001 0 0 0 0.03125,-0.02539 l 7.421875,-6.28125 a 0.80008001,0.80008001 0 0 0 0.02734,-0.02539 c 0.549067,-0.510295 0.998901,-0.892118 1.3125,-1.105469 0.177456,-0.120729 0.123037,-0.09918 0.167969,-0.117187 0.06647,0.271464 0.11914,0.793358 0.11914,1.539062 v 26.082031 a 0.80000001,0.80000001 0 0 0 0.798829,0.800782 0.80000001,0.80000001 0 0 0 0.800781,-0.800782 V 12.17283 c 0,-0.817344 -0.03652,-1.437859 -0.169922,-1.960937 -0.0667,-0.2615393 -0.15722,-0.5072493 -0.330078,-0.7382823 -0.172858,-0.231032 -0.461657,-0.435299 -0.771484,-0.498047 z" fill="#008055"/>
</svg>
