<svg xmlns="http://www.w3.org/2000/svg" width="48" height="48">
	<path d="m 37.276954,5.3809253 a 1.9,1.9 0 0 0 -1.394532,0.671875 1.9,1.9 0 0 0 0.222657,2.6777339 c 4.378578,3.7060378 6.610976,9.9106608 6.566406,15.9492188 -0.04457,6.038559 -2.373724,11.704503 -6.412109,14.472657 a 1.9,1.9 0 0 0 -0.492188,2.642578 1.9,1.9 0 0 0 2.640625,0.492187 c 5.418615,-3.714247 8.010995,-10.601936 8.0625,-17.580078 0.05151,-6.978142 -2.446835,-14.252789 -7.910156,-18.8769529 A 1.9,1.9 0 0 0 37.276954,5.3809253 Z M 22.816016,7.8457692 c -0.908318,-0.05881 -1.466065,0.355674 -1.939453,0.677734 -0.525624,0.357599 -1.01782,0.791485 -1.583984,1.316407 l -7.34375,6.2167958 C 11.072464,16.72349 10.89486,16.730534 9.8687511,16.730534 H 6.4058601 C 3.5028813,16.73037 1.528907,19.203923 1.528907,21.734441 v 4.86914 c 0,2.523372 1.9947328,4.763672 4.6601562,4.763672 h 3.7753909 c 0.8849629,0 1.4864349,0.157871 2.0566399,0.644531 v -0.002 l 5.244141,4.486329 a 1.9,1.9 0 0 0 2.679687,-0.208985 1.9,1.9 0 0 0 -0.208984,-2.677734 l -5.246094,-4.486328 a 1.90019,1.90019 0 0 0 0,-0.002 C 13.10805,27.941821 11.423691,27.568425 9.9644541,27.568425 H 6.1890632 c -0.4329766,0 -0.859375,-0.488815 -0.859375,-0.964844 v -4.86914 c 0,-0.503083 0.4535507,-1.203161 1.0761719,-1.203125 h 3.462891 c 1.4330889,0 2.9924169,-0.388385 4.4003899,-1.462891 a 1.90019,1.90019 0 0 0 0.07422,-0.06055 l 7.238281,-6.126953 v 25.378906 a 1.9,1.9 0 0 0 1.900391,1.900391 1.9,1.9 0 0 0 1.90039,-1.900391 V 12.1778 c 0,-0.85814 -0.02484,-1.533348 -0.203124,-2.2324218 -0.08914,-0.349537 -0.215757,-0.724212 -0.515626,-1.125 -0.299868,-0.400788 -0.856285,-0.800654 -1.435546,-0.917968 -0.144816,-0.02933 -0.28235,-0.04824 -0.41211,-0.05664 z m 10.144532,3.2929688 a 1.9,1.9 0 0 0 -1.408204,0.640625 1.9,1.9 0 0 0 0.16211,2.683593 c 2.575395,2.278901 3.962748,6.220105 3.935547,10.072266 -0.0272,3.852161 -1.482468,7.41316 -3.78125,9.060547 a 1.9,1.9 0 0 0 -0.439453,2.652344 1.9,1.9 0 0 0 2.652343,0.4375 c 3.679718,-2.637013 5.33364,-7.374111 5.367188,-12.125 0.03355,-4.750889 -1.568339,-9.716661 -5.214844,-12.94336 a 1.9,1.9 0 0 0 -1.273437,-0.478515 z m -3.556641,6.43164 a 1.9,1.9 0 0 0 -1.339844,0.527344 1.9,1.9 0 0 0 -0.05664,2.6875 c 0.529191,0.551987 0.979958,1.835272 0.966797,3.228516 -0.01316,1.393244 -0.490058,2.804128 -1.052734,3.476562 a 1.9,1.9 0 0 0 0.238281,2.677734 1.9,1.9 0 0 0 2.675782,-0.238281 c 1.365923,-1.632366 1.919488,-3.767378 1.939453,-5.880859 0.01996,-2.113481 -0.493281,-4.296419 -2.025391,-5.894531 a 1.9,1.9 0 0 0 -1.345704,-0.583985 z" fill="#008055"/>
</svg>
