<svg xmlns="http://www.w3.org/2000/svg" width="48" height="48">
	<path d="m 20.964844,1.089844 c -0.40532,0 -0.818934,0.0076 -1.328125,0.154297 -0.509192,0.146674 -1.131904,0.523889 -1.50586,1.042969 -0.74409,1.03285 -0.666087,1.924336 -0.65625,3.001953 0,0.255116 -0.05391,0.530422 -0.09961,0.75 -1.384228,0.122033 -2.706139,0.512934 -3.683594,1.46289 -1.154184,1.121714 -1.669922,2.753589 -1.669922,4.494141 v 28.824219 c 0,1.619248 0.529082,3.188719 1.628907,4.330078 1.099823,1.141358 2.71444,1.759765 4.458984,1.759765 a 1.9,1.9 0 0 0 1.900391,-1.898437 1.9,1.9 0 0 0 -1.900391,-1.900391 c -0.911286,0 -1.391977,-0.254489 -1.722656,-0.597656 -0.330679,-0.343167 -0.566407,-0.868708 -0.566407,-1.693359 V 11.996094 c 0,-1.050248 0.246259,-1.503946 0.519532,-1.769531 0.273274,-0.265586 0.762933,-0.5 1.769531,-0.5 0.738699,0 1.498227,-0.351559 1.957031,-0.796875 0.458803,-0.445317 0.689451,-0.923437 0.847657,-1.357422 0.31641,-0.867971 0.361328,-1.647244 0.361328,-2.283203 a 1.90019,1.90019 0 0 0 0,-0.01563 C 21.27159,4.824522 21.2241,5.015117 21.24414,4.888667 h 5.49414 c 0.01079,0.08213 -0.01367,-0.03713 -0.01367,0.400391 0,0.633235 0.05286,1.406293 0.367188,2.267578 0.157164,0.430642 0.382424,0.901985 0.832031,1.349609 0.449607,0.447624 1.210772,0.820313 1.966797,0.820313 1.006597,0 1.49821,0.234414 1.771484,0.5 0.273275,0.265585 0.517579,0.719283 0.517579,1.769531 v 28.824219 c 0,0.824651 -0.235729,1.350192 -0.566407,1.693359 -0.330678,0.343167 -0.811371,0.597656 -1.722656,0.597656 H 24 A 1.9,1.9 0 0 0 22.099609,45.011719 1.9,1.9 0 0 0 24,46.910156 h 5.890625 c 1.744544,0 3.359161,-0.618407 4.458984,-1.759765 1.099824,-1.141359 1.628907,-2.71083 1.628907,-4.330078 V 11.996094 c 0,-1.740552 -0.513785,-3.372427 -1.667969,-4.494141 -0.976219,-0.948755 -2.297424,-1.340129 -3.679688,-1.46289 -0.04952,-0.227223 -0.105468,-0.522305 -0.105468,-0.75 0,-0.979549 0.01993,-1.917243 -0.695313,-2.910157 C 29.11484,1.385992 27.842022,1.089844 26.871094,1.089844 Z m 3.193359,12.330078 c -1.770634,-0.0039 -3.478103,0.582959 -4.734375,1.769531 -1.257669,1.187892 -1.982422,2.950175 -1.982422,4.896485 a 1.9,1.9 0 0 0 1.900391,1.90039 1.9,1.9 0 0 0 1.900391,-1.90039 c 0,-1.066291 0.321245,-1.691058 0.791015,-2.134766 0.469772,-0.443708 1.168146,-0.733262 2.119141,-0.730469 h 0.0039 0.002 c 1.449557,0 2.523162,0.888312 2.597656,3.207031 0.03557,2.125893 -0.282232,2.241334 -1.759765,3.654297 l 0.03516,-0.03125 c -1.00108,0.9109 -1.749029,1.725731 -2.244141,2.722657 -0.495111,0.996926 -0.634765,2.065691 -0.634765,3.123046 a 1.9,1.9 0 0 0 1.90039,1.898438 1.9,1.9 0 0 0 1.900391,-1.898438 c 0,-0.775044 0.06514,-1.086941 0.236328,-1.43164 0.171191,-0.344699 0.551108,-0.832515 1.398438,-1.603516 l 0.01758,-0.01563 0.01758,-0.01758 c 1.616233,-1.545601 2.98706,-3.487199 2.933594,-6.484375 v -0.01172 -0.01172 C 30.437886,16.456 27.630122,13.421077 24.160156,13.419922 Z M 24,34.195313 A 3.074666,3.074666 0 0 0 20.925781,37.269531 3.074666,3.074666 0 0 0 24,40.345703 3.074666,3.074666 0 0 0 27.074219,37.269531 3.074666,3.074666 0 0 0 24,34.195313 Z" fill="#008055"/>
</svg>
