<svg xmlns="http://www.w3.org/2000/svg" width="48" height="48">
	<path d="m 20.964844,2.1894531 c -0.360363,0 -0.688311,0.014231 -1.025391,0.1113281 -0.33708,0.097097 -0.690236,0.3155081 -0.916015,0.6289063 -0.451559,0.6267963 -0.45791,1.335719 -0.449219,2.3652344 -5.39e-4,0.4205783 -0.06527,0.9894722 -0.197266,1.3515625 -0.06628,0.1818137 -0.147255,0.3028501 -0.191406,0.3457031 -0.04415,0.042853 -0.0201,0.033203 -0.07617,0.033203 -1.471847,0 -2.75316,0.3917374 -3.652344,1.265625 -0.899183,0.8738876 -1.335937,2.1643514 -1.335937,3.7050784 v 28.824218 c 0,1.389235 0.445089,2.656104 1.322265,3.566407 0.877177,0.910303 2.162678,1.423828 3.666016,1.423828 0.441675,4.32e-4 0.800134,-0.357153 0.800781,-0.798828 4.32e-4,-0.442438 -0.358343,-0.801213 -0.800781,-0.800781 -1.152492,0 -1.960346,-0.359372 -2.513672,-0.933594 -0.553326,-0.574222 -0.875,-1.402364 -0.875,-2.457032 V 11.996094 c 0,-1.250073 0.323289,-2.0451816 0.851563,-2.558594 0.528274,-0.5134124 1.340966,-0.8125 2.537109,-0.8125 0.460591,0 0.901535,-0.2030249 1.191406,-0.484375 0.289871,-0.2813501 0.459324,-0.6140637 0.580078,-0.9453125 0.241508,-0.6624976 0.292969,-1.3578328 0.292969,-1.90625 1.3e-5,-0.0026 1.3e-5,-0.00521 0,-0.00781 -0.008,-0.9486846 0.127939,-1.3875619 0.148438,-1.4160156 0.01025,-0.014227 -0.02619,-4.062e-4 0.06055,-0.025391 0.08674,-0.024985 0.28706,-0.050781 0.582032,-0.050781 h 5.90625 c 0.616002,0 0.703656,0.076519 0.769531,0.1679687 0.06587,0.091449 0.185547,0.5146939 0.185547,1.3320313 0,0.5347361 0.05693,1.2278088 0.298828,1.890625 0.120947,0.3314081 0.288679,0.6629858 0.574219,0.9472656 0.28554,0.2842799 0.72601,0.4980469 1.191406,0.4980469 1.196143,0 2.008835,0.2990876 2.537109,0.8125 0.528274,0.5134124 0.851563,1.308521 0.851563,2.558594 v 28.824218 c 0,1.054668 -0.321674,1.88281 -0.875,2.457032 -0.553326,0.574222 -1.36118,0.933594 -2.513672,0.933594 h -8.179687 c -0.442438,-4.33e-4 -0.801214,0.358343 -0.800782,0.800781 6.47e-4,0.441676 0.359106,0.79926 0.800782,0.798828 h 8.179687 c 1.503338,0 2.788839,-0.513525 3.666016,-1.423828 0.877176,-0.910303 1.322265,-2.177172 1.322265,-3.566407 V 11.996094 c 0,-1.540727 -0.436754,-2.8311908 -1.335937,-3.7050784 -0.899184,-0.8738876 -2.180497,-1.265625 -3.652344,-1.265625 -0.04266,0 -0.0156,0.013486 -0.0625,-0.033203 -0.0469,-0.046689 -0.130949,-0.1742612 -0.199219,-0.3613281 -0.13654,-0.3741339 -0.203125,-0.950333 -0.203125,-1.3417969 0,-0.9134626 -0.0376,-1.6419275 -0.488281,-2.2675781 C 28.486817,2.3958337 27.697422,2.1894531 26.871094,2.1894531 Z M 19.673828,24.597656 c -1.104569,0 -2,0.895431 -2,2 0,1.104569 0.895431,2 2,2 h 8.652344 c 1.104569,0 2,-0.895431 2,-2 0,-1.104569 -0.895431,-2 -2,-2 z m 0,11.533203 c -1.104569,0 -2,0.895431 -2,2 0,1.104569 0.895431,2 2,2 h 8.652344 c 1.104569,0 2,-0.895431 2,-2 0,-1.104569 -0.895431,-2 -2,-2 z" fill="#008055"/>
</svg>
