<svg xmlns="http://www.w3.org/2000/svg" width="48" height="48">
	<path d="M 20.964844 1.0898438 C 20.559524 1.0898438 20.143957 1.0974668 19.634766 1.2441406 C 19.125574 1.3908144 18.504816 1.768031 18.130859 2.2871094 C 17.386769 3.3199605 17.464772 4.2114456 17.474609 5.2890625 C 17.474609 5.5441791 17.420699 5.8194852 17.375 6.0390625 C 15.990548 6.1610128 14.669001 6.5518604 13.691406 7.5019531 C 12.537222 8.6236674 12.021484 10.255542 12.021484 11.996094 L 12.021484 40.820312 C 12.021484 42.439561 12.550567 44.009032 13.650391 45.150391 C 14.750215 46.291749 16.364831 46.910156 18.109375 46.910156 A 1.9 1.9 0 0 0 20.009766 45.011719 A 1.9 1.9 0 0 0 18.109375 43.111328 C 17.198089 43.111328 16.717397 42.856838 16.386719 42.513672 C 16.05604 42.170505 15.820312 41.644965 15.820312 40.820312 L 15.820312 11.996094 C 15.820312 10.945845 16.06657 10.492149 16.339844 10.226562 C 16.613117 9.9609772 17.102778 9.7265625 18.109375 9.7265625 C 18.848074 9.7265625 19.607603 9.3750043 20.066406 8.9296875 C 20.52521 8.4843707 20.755857 8.006251 20.914062 7.5722656 C 21.230474 6.7042948 21.275391 5.9250221 21.275391 5.2890625 A 1.90019 1.90019 0 0 0 21.273438 5.2734375 C 21.269648 4.824527 21.222149 5.0151218 21.242188 4.8886719 L 26.738281 4.8886719 C 26.749313 4.9715442 26.724609 4.8527811 26.724609 5.2890625 C 26.724609 5.9222982 26.777471 6.6953554 27.091797 7.5566406 C 27.24896 7.9872832 27.474221 8.4586264 27.923828 8.90625 C 28.373436 9.3538736 29.1346 9.7265625 29.890625 9.7265625 C 30.897222 9.7265625 31.386883 9.9609772 31.660156 10.226562 C 31.93343 10.492149 32.179688 10.945845 32.179688 11.996094 L 32.179688 40.820312 C 32.179688 41.644965 31.94396 42.170505 31.613281 42.513672 C 31.282603 42.856838 30.801911 43.111328 29.890625 43.111328 L 24 43.111328 A 1.9 1.9 0 0 0 22.099609 45.011719 A 1.9 1.9 0 0 0 24 46.910156 L 29.890625 46.910156 C 31.635169 46.910156 33.249785 46.291749 34.349609 45.150391 C 35.449433 44.009032 35.978516 42.439561 35.978516 40.820312 L 35.978516 11.996094 C 35.978516 10.255542 35.462778 8.6236674 34.308594 7.5019531 C 33.332376 6.5531981 32.013124 6.1618236 30.630859 6.0390625 C 30.581338 5.8118394 30.525391 5.5167578 30.525391 5.2890625 C 30.525391 4.3095139 30.545316 3.3718203 29.830078 2.3789062 C 29.11484 1.3859924 27.842021 1.0898438 26.871094 1.0898438 L 20.964844 1.0898438 z M 19.673828 13.0625 A 2 2 0 0 0 17.673828 15.0625 A 2 2 0 0 0 19.673828 17.0625 L 28.326172 17.0625 A 2 2 0 0 0 30.326172 15.0625 A 2 2 0 0 0 28.326172 13.0625 L 19.673828 13.0625 z M 19.673828 24.597656 A 2 2 0 0 0 17.673828 26.597656 A 2 2 0 0 0 19.673828 28.597656 L 28.326172 28.597656 A 2 2 0 0 0 30.326172 26.597656 A 2 2 0 0 0 28.326172 24.597656 L 19.673828 24.597656 z M 19.673828 36.130859 A 2 2 0 0 0 17.673828 38.130859 A 2 2 0 0 0 19.673828 40.130859 L 28.326172 40.130859 A 2 2 0 0 0 30.326172 38.130859 A 2 2 0 0 0 28.326172 36.130859 L 19.673828 36.130859 z " fill="#008055"/>
</svg>
