<svg xmlns="http://www.w3.org/2000/svg" width="48" height="48">
	<path d="m 20.964844,2.1894531 c -0.360363,0 -0.688311,0.014231 -1.025391,0.1113281 -0.337079,0.097097 -0.690236,0.3155081 -0.916015,0.6289063 -0.451559,0.6267963 -0.45791,1.335719 -0.449219,2.3652343 -5.39e-4,0.4205784 -0.06527,0.9894723 -0.197266,1.3515628 -0.06628,0.181813 -0.147255,0.30285 -0.191406,0.345703 -0.04415,0.04285 -0.0201,0.0332 -0.07617,0.0332 -1.471846,0 -2.75316,0.391737 -3.652343,1.265625 -0.899184,0.873888 -1.335938,2.1643514 -1.335938,3.7050784 V 40.82031 c 0,1.389233 0.445089,2.656103 1.322266,3.566406 0.877176,0.910303 2.162677,1.423828 3.666015,1.423828 0.442438,4.32e-4 0.801213,-0.358343 0.800781,-0.800781 -6.47e-4,-0.441675 -0.359106,-0.79926 -0.800781,-0.798828 -1.152492,0 -1.960346,-0.359372 -2.513672,-0.933594 -0.553326,-0.574222 -0.875,-1.402365 -0.875,-2.457031 V 11.996094 c 0,-1.250073 0.323289,-2.0451814 0.851563,-2.5585944 0.528274,-0.513412 1.340966,-0.8125 2.537109,-0.8125 0.460591,0 0.901536,-0.203025 1.191407,-0.484375 0.28987,-0.28135 0.459324,-0.614063 0.580078,-0.945312 0.241507,-0.662498 0.292968,-1.3578329 0.292968,-1.9062501 1.3e-5,-0.0026 1.3e-5,-0.00521 0,-0.00781 -0.008,-0.9486847 0.125986,-1.387562 0.146485,-1.4160156 0.01025,-0.014227 -0.02424,-4.061e-4 0.0625,-0.025391 0.08674,-0.024984 0.287059,-0.050781 0.582031,-0.050781 h 5.90625 c 0.616002,0 0.703656,0.076519 0.769531,0.1679687 0.06587,0.091449 0.185547,0.5146938 0.185547,1.3320313 0,0.5347361 0.05693,1.2278091 0.298828,1.8906251 0.120948,0.331408 0.288679,0.662986 0.574219,0.947265 0.28554,0.28428 0.72601,0.498047 1.191406,0.498047 1.196144,0 2.008836,0.299088 2.53711,0.8125 0.528274,0.513413 0.851562,1.308521 0.851562,2.558594 v 28.824219 c 0,1.054666 -0.321674,1.882809 -0.875,2.457031 -0.553326,0.574222 -1.36118,0.933594 -2.513672,0.933594 h -8.063679 c -0.441675,-4.32e-4 -0.800133,0.357152 -0.800781,0.798826 -4.32e-4,0.442438 0.358343,0.801213 0.800781,0.800781 h 8.063677 c 1.503338,0 2.788839,-0.513525 3.666016,-1.423828 0.877176,-0.910303 1.322265,-2.177173 1.322265,-3.566406 V 11.996094 c 0,-1.540727 -0.436753,-2.8311904 -1.335937,-3.7050784 -0.899184,-0.873888 -2.180497,-1.265625 -3.652344,-1.265625 -0.04266,0 -0.0156,0.01349 -0.0625,-0.0332 -0.0469,-0.04669 -0.130948,-0.174261 -0.199219,-0.361328 -0.13654,-0.3741341 -0.203124,-0.9503332 -0.203124,-1.3417971 0,-0.9134626 -0.0376,-1.6419275 -0.488282,-2.2675781 C 28.486818,2.3958337 27.697422,2.1894531 26.871094,2.1894531 Z" fill="#008055"/>
</svg>
