<svg xmlns="http://www.w3.org/2000/svg" width="48" height="48">
	<path d="m 20.964844,1.0898435 c -0.40532,0 -0.820887,0.00762 -1.330078,0.1542969 -0.509192,0.1466738 -1.129951,0.5238903 -1.503907,1.0429688 -0.74409,1.0328511 -0.666087,1.9243362 -0.65625,3.0019531 0,0.2551166 -0.05391,0.5304227 -0.09961,0.75 -1.384452,0.1219503 -2.706,0.5127981 -3.683594,1.4628901 -1.154183,1.121715 -1.669922,2.7535886 -1.669922,4.4941406 v 28.824219 c 0,1.619248 0.529083,3.18872 1.628907,4.330078 1.099824,1.141358 2.71444,1.759766 4.458984,1.759766 a 1.9,1.9 0 0 0 1.900391,-1.900391 1.9,1.9 0 0 0 -1.900391,-1.898437 c -0.911285,0 -1.391977,-0.25449 -1.722656,-0.597657 -0.330679,-0.343166 -0.566407,-0.868707 -0.566407,-1.693359 V 11.996093 c 0,-1.050248 0.244304,-1.503945 0.517579,-1.769531 0.273272,-0.2655856 0.764887,-0.4999996 1.771484,-0.4999996 0.738699,0 1.498228,-0.351558 1.957031,-0.796875 0.458803,-0.445317 0.689451,-0.923437 0.847657,-1.357422 0.316411,-0.867971 0.359375,-1.6472436 0.359375,-2.2832031 a 1.90019,1.90019 0 0 0 0,-0.015625 c -0.0038,-0.4489105 -0.05129,-0.2583157 -0.03125,-0.3847657 h 5.496093 c 0.01103,0.082872 -0.01367,-0.035891 -0.01367,0.4003907 0,0.6332357 0.05286,1.4062931 0.367188,2.2675781 0.157162,0.430643 0.382424,0.901986 0.832031,1.349609 0.449607,0.447624 1.210772,0.820313 1.966797,0.820313 1.006597,0 1.496257,0.234414 1.769531,0.4999996 0.273274,0.265586 0.519532,0.719283 0.519532,1.769531 v 28.824219 c 0,0.824652 -0.235729,1.350193 -0.566407,1.693359 -0.330678,0.343167 -0.811371,0.597657 -1.722656,0.597657 H 24 A 1.9,1.9 0 0 0 22.099609,45.009765 1.9,1.9 0 0 0 24,46.910156 h 5.890625 c 1.744545,0 3.359161,-0.618408 4.458984,-1.759766 1.099824,-1.141358 1.628907,-2.71083 1.628907,-4.330078 V 11.996093 c 0,-1.740552 -0.515738,-3.3724256 -1.669922,-4.4941406 -0.976219,-0.948754 -2.295471,-1.3401291 -3.677735,-1.4628901 -0.04952,-0.2272231 -0.105468,-0.5223047 -0.105468,-0.75 0,-0.9795486 0.01993,-1.9172423 -0.695313,-2.9101563 C 29.11484,1.385992 27.842022,1.0898435 26.871094,1.0898435 Z" fill="#008055"/>
</svg>
