<svg xmlns="http://www.w3.org/2000/svg" width="48" height="48">
	<path d="m 20.96582,1.0888671 c -0.40532,0 -0.820886,0.00958 -1.330078,0.15625 -0.509191,0.1466739 -1.131903,0.5219373 -1.505859,1.0410157 -0.74409,1.0328507 -0.664134,1.92629 -0.654297,3.0039061 0,0.255117 -0.05391,0.530423 -0.09961,0.75 -1.384452,0.12195 -2.707953,0.512798 -3.685547,1.462891 -1.154185,1.121714 -1.669922,2.7535891 -1.669922,4.4941401 v 28.822266 c 0,1.619248 0.531036,3.190673 1.630859,4.332031 1.099825,1.141359 2.71444,1.759766 4.458985,1.759766 a 1.9,1.9 0 0 0 1.90039,-1.900391 1.9,1.9 0 0 0 -1.90039,-1.90039 c -0.911285,0 -1.391978,-0.252537 -1.722657,-0.595703 -0.330679,-0.343168 -0.566406,-0.870661 -0.566406,-1.695313 V 11.99707 c 0,-1.050248 0.244304,-1.503945 0.517578,-1.769531 0.273273,-0.2655861 0.764888,-0.5019531 1.771485,-0.5019531 0.738699,0 1.498228,-0.351558 1.957031,-0.796875 0.458803,-0.445317 0.68945,-0.923436 0.847656,-1.357422 0.316412,-0.867971 0.359375,-1.64529 0.359375,-2.28125 a 1.90019,1.90019 0 0 0 0,-0.01758 c -0.0038,-0.447782 -0.05141,-0.255873 -0.03125,-0.382812 h 5.494141 c 0.01104,0.08289 -0.01172,-0.03586 -0.01172,0.40039 0,0.633236 0.05286,1.40434 0.367187,2.265625 0.157163,0.430643 0.380471,0.903939 0.830079,1.351563 0.449607,0.447623 1.210772,0.818359 1.966796,0.818359 1.006598,0 1.498211,0.236367 1.771485,0.5019531 0.273274,0.265586 0.517578,0.719283 0.517578,1.769531 v 28.822266 c 0,0.824652 -0.235728,1.352145 -0.566406,1.695313 -0.330678,0.343166 -0.811371,0.595703 -1.722657,0.595703 h -5.888671 a 1.9,1.9 0 0 0 -1.900391,1.90039 1.9,1.9 0 0 0 1.900391,1.900391 h 5.888671 c 1.744544,0 3.359162,-0.618407 4.458985,-1.759766 1.099823,-1.141358 1.630859,-2.712783 1.630859,-4.332031 V 11.99707 c 0,-1.740551 -0.515737,-3.3724261 -1.669922,-4.4941401 -0.975758,-0.948309 -2.296199,-1.33986 -3.677734,-1.462891 -0.04966,-0.227178 -0.105469,-0.521788 -0.105469,-0.75 0,-0.9795483 0.01993,-1.9172421 -0.695312,-2.9101561 C 29.115817,1.3869688 27.842999,1.0888671 26.87207,1.0888671 Z m 3.035157,12.3417969 a 1.9,1.9 0 0 0 -1.900391,1.900391 v 14.564453 a 1.9,1.9 0 0 0 1.900391,1.900391 1.9,1.9 0 0 0 1.898437,-1.900391 V 15.331055 a 1.9,1.9 0 0 0 -1.898437,-1.900391 z m 0,20.765625 a 3.074666,3.074666 0 0 0 -3.076172,3.074219 3.074666,3.074666 0 0 0 3.076172,3.074219 3.074666,3.074666 0 0 0 3.074218,-3.074219 3.074666,3.074666 0 0 0 -3.074218,-3.074219 z" fill="#008055"/>
</svg>
