<svg xmlns="http://www.w3.org/2000/svg" width="48" height="48">
	<path d="m 20.964844,1.0898438 c -0.40532,0 -0.820887,0.00762 -1.330078,0.1542968 -0.509192,0.1466738 -1.12995,0.5238904 -1.503907,1.0429688 -0.74409,1.0328511 -0.666087,1.9243362 -0.65625,3.0019531 0,0.2551166 -0.05391,0.5304227 -0.09961,0.75 -1.384452,0.1219503 -2.705999,0.5127979 -3.683594,1.4628906 -1.154184,1.1217143 -1.669922,2.7535889 -1.669922,4.4941409 v 28.824218 c 0,1.619249 0.529083,3.18872 1.628907,4.330079 1.099824,1.141358 2.71444,1.759765 4.458984,1.759765 1.048884,2.16e-4 1.899528,-0.849554 1.900391,-1.898437 2.16e-4,-1.049646 -0.850745,-1.900607 -1.900391,-1.900391 -0.911286,0 -1.391978,-0.25449 -1.722656,-0.597656 -0.330679,-0.343167 -0.566407,-0.868707 -0.566407,-1.69336 V 11.996094 c 0,-1.050249 0.246258,-1.503945 0.519532,-1.769532 0.273273,-0.2655848 0.762934,-0.4999995 1.769531,-0.4999995 0.738699,0 1.498228,-0.3515582 1.957031,-0.796875 0.458804,-0.4453168 0.689451,-0.9234365 0.847656,-1.3574219 0.316412,-0.8679708 0.361329,-1.6472435 0.361329,-2.2832031 -6.29e-4,-0.00521 -0.0013,-0.010419 -0.002,-0.015625 -0.0038,-0.4489105 -0.05129,-0.2583157 -0.03125,-0.3847656 h 5.496093 c 0.01103,0.082872 -0.01367,-0.035891 -0.01367,0.4003906 0,0.6332357 0.05286,1.4062929 0.367188,2.2675781 0.157163,0.4306426 0.382424,0.9019858 0.832031,1.3496094 0.449608,0.4476236 1.210772,0.8203125 1.966797,0.8203125 1.006597,0 1.496258,0.2344147 1.769531,0.4999995 0.273274,0.265587 0.519532,0.719283 0.519532,1.769532 v 28.824218 c 0,0.824653 -0.235728,1.350193 -0.566407,1.69336 -0.330678,0.343166 -0.81137,0.597656 -1.722656,0.597656 H 24 c -1.049646,-2.16e-4 -1.900607,0.850745 -1.900391,1.900391 8.63e-4,1.048883 0.851507,1.898653 1.900391,1.898437 h 5.890625 c 1.744544,0 3.35916,-0.618407 4.458984,-1.759765 1.099824,-1.141359 1.628907,-2.71083 1.628907,-4.330079 V 11.996094 c 0,-1.740552 -0.515738,-3.3724266 -1.669922,-4.4941409 -0.976218,-0.948755 -2.29547,-1.3401295 -3.677735,-1.4628906 -0.04952,-0.2272231 -0.105468,-0.5223047 -0.105468,-0.75 0,-0.9795486 0.01993,-1.9172422 -0.695313,-2.9101563 C 29.11484,1.3859924 27.842021,1.0898438 26.871094,1.0898438 Z M 19.673828,36.130859 c -1.104569,0 -2,0.895431 -2,2 0,1.104569 0.895431,2 2,2 h 8.652344 c 1.104569,0 2,-0.895431 2,-2 0,-1.104569 -0.895431,-2 -2,-2 z" fill="#008055"/>
</svg>
