<svg xmlns="http://www.w3.org/2000/svg" width="48" height="48">
	<path d="M 20.964844 2.1894531 C 20.604481 2.1894531 20.276533 2.2036846 19.939453 2.3007812 C 19.602373 2.3978781 19.249217 2.6162893 19.023438 2.9296875 C 18.571879 3.5564838 18.565528 4.2654065 18.574219 5.2949219 C 18.57368 5.7155002 18.50895 6.2843941 18.376953 6.6464844 C 18.310675 6.8282981 18.229698 6.9493345 18.185547 6.9921875 C 18.141396 7.0350405 18.165444 7.0253906 18.109375 7.0253906 C 16.637528 7.0253906 15.356215 7.417128 14.457031 8.2910156 C 13.557848 9.1649032 13.121094 10.455367 13.121094 11.996094 L 13.121094 40.820312 C 13.121094 42.209547 13.566183 43.476416 14.443359 44.386719 C 15.320536 45.297022 16.606037 45.810547 18.109375 45.810547 A 0.80000001 0.80000001 0 0 0 18.910156 45.011719 A 0.80000001 0.80000001 0 0 0 18.109375 44.210938 C 16.956883 44.210938 16.149029 43.851566 15.595703 43.277344 C 15.042377 42.703122 14.720703 41.87498 14.720703 40.820312 L 14.720703 11.996094 C 14.720703 10.746021 15.043992 9.9509124 15.572266 9.4375 C 16.10054 8.9240876 16.913232 8.625 18.109375 8.625 C 18.569966 8.625 19.01091 8.4219751 19.300781 8.140625 C 19.590652 7.8592749 19.760105 7.5265613 19.880859 7.1953125 C 20.122367 6.5328149 20.173828 5.8374797 20.173828 5.2890625 A 0.80008001 0.80008001 0 0 0 20.173828 5.28125 C 20.165819 4.3325654 20.301767 3.8936881 20.322266 3.8652344 C 20.332515 3.8510075 20.296076 3.8648282 20.382812 3.8398438 C 20.469549 3.8148591 20.669872 3.7890625 20.964844 3.7890625 L 26.871094 3.7890625 C 27.487096 3.7890625 27.57475 3.865582 27.640625 3.9570312 C 27.7065 4.0484807 27.826172 4.4717251 27.826172 5.2890625 C 27.826172 5.8237986 27.883105 6.5168713 28.125 7.1796875 C 28.245947 7.5110956 28.413679 7.8426733 28.699219 8.1269531 C 28.984759 8.411233 29.425229 8.625 29.890625 8.625 C 31.086768 8.625 31.89946 8.9240876 32.427734 9.4375 C 32.956008 9.9509124 33.279297 10.746021 33.279297 11.996094 L 33.279297 40.820312 C 33.279297 41.87498 32.957623 42.703122 32.404297 43.277344 C 31.850971 43.851566 31.043117 44.210938 29.890625 44.210938 L 21.759766 44.210938 A 0.80000001 0.80000001 0 0 0 20.958984 45.011719 A 0.80000001 0.80000001 0 0 0 21.759766 45.810547 L 29.890625 45.810547 C 31.393963 45.810547 32.679464 45.297022 33.556641 44.386719 C 34.433817 43.476416 34.878906 42.209547 34.878906 40.820312 L 34.878906 11.996094 C 34.878906 10.455367 34.442152 9.1649032 33.542969 8.2910156 C 32.643785 7.417128 31.362472 7.0253906 29.890625 7.0253906 C 29.847961 7.0253906 29.875021 7.0388764 29.828125 6.9921875 C 29.781229 6.9454986 29.697176 6.8179263 29.628906 6.6308594 C 29.492366 6.2567255 29.425781 5.6805264 29.425781 5.2890625 C 29.425781 4.3755999 29.388183 3.647135 28.9375 3.0214844 C 28.486817 2.3958337 27.697422 2.1894531 26.871094 2.1894531 L 20.964844 2.1894531 z M 24 13.431641 A 1.9 1.9 0 0 0 22.099609 15.330078 L 22.099609 29.896484 A 1.9 1.9 0 0 0 24 31.794922 A 1.9 1.9 0 0 0 25.900391 29.896484 L 25.900391 15.330078 A 1.9 1.9 0 0 0 24 13.431641 z M 24 34.195312 A 3.074666 3.074666 0 0 0 20.925781 37.269531 A 3.074666 3.074666 0 0 0 24 40.345703 A 3.074666 3.074666 0 0 0 27.074219 37.269531 A 3.074666 3.074666 0 0 0 24 34.195312 z " fill="#008055"/>
</svg>
