<svg xmlns="http://www.w3.org/2000/svg" width="48" height="48">
	<path d="M 20.52467,4.8750254 C 20.171967,4.7945076 19.814137,4.7924554 19.458264,4.900416 18.746518,5.1163372 18.27467,5.9003873 18.27467,6.6914316 V 18.08401 c 0,0.206412 -0.03178,0.298844 -0.05273,0.363281 0.0211,-0.02067 -0.125106,0.005 -0.509766,-0.271484 a 0.80008001,0.80008001 0 0 0 -0.01172,-0.0078 l -3.978516,-2.751954 a 0.80000001,0.80000001 0 0 0 -1.113281,0.203125 0.80000001,0.80000001 0 0 0 0.203125,1.113282 l 3.966797,2.742187 c 7.49e-4,5.38e-4 0.0012,0.0014 0.002,0.002 0.63329,0.454739 1.311664,0.777019 2.054687,0.50586 0.371951,-0.13574 0.673008,-0.449114 0.830079,-0.789063 0.15707,-0.339948 0.208984,-0.705247 0.208984,-1.109375 V 6.6914316 c 0,-0.3429699 0.0033,-0.2459514 0.04883,-0.2597656 0.04554,-0.013814 0.371129,-0.0109 0.8125,0.2578125 a 0.80008001,0.80008001 0 0 0 0.01172,0.00781 l 12.458984,7.2851565 a 0.80008001,0.80008001 0 0 0 0.03711,0.02148 c 0.476178,0.245179 0.595376,0.481918 0.611329,0.623047 0.01595,0.141129 -0.03728,0.379891 -0.472657,0.726562 a 0.80008001,0.80008001 0 0 0 -0.01563,0.01367 l -8.226562,6.921875 a 0.80008001,0.80008001 0 0 0 -0.01367,0.01172 c -0.569519,0.503038 -0.877934,1.189506 -0.84375,1.857422 0.03418,0.667915 0.39875,1.280393 0.953125,1.666016 l 8.021484,5.953124 c 0.516785,0.387298 0.666666,0.724268 0.675782,0.886719 0.0091,0.162851 -0.03928,0.347234 -0.492188,0.636719 l -12.65039,7.955078 c -0.433869,0.249182 -0.803771,0.306415 -0.886719,0.304688 -0.0081,-0.02011 -0.0293,-0.04411 -0.0293,-0.212891 V 29.751979 c 0,-0.449771 -0.05547,-0.845148 -0.251953,-1.210938 -0.196487,-0.365789 -0.607183,-0.669559 -1.019531,-0.728515 -0.824698,-0.117913 -1.42486,0.3174 -2.066407,0.853515 l -3.677734,2.798828 a 0.80000001,0.80000001 0 0 0 -0.152344,1.121094 0.80000001,0.80000001 0 0 0 1.121094,0.152344 l 3.707031,-2.822266 a 0.80008001,0.80008001 0 0 0 0.02734,-0.02344 c 0.412039,-0.344326 0.622354,-0.378227 0.675781,-0.412109 0.01721,0.07412 0.03711,0.09774 0.03711,0.271484 v 11.595703 c 0,0.429099 0.08207,0.834164 0.31836,1.177734 0.236294,0.343571 0.631445,0.564252 0.998047,0.626953 0.733204,0.125403 1.370876,-0.148733 1.996093,-0.507812 a 0.80008001,0.80008001 0 0 0 0.02734,-0.01758 l 12.681641,-7.97461 a 0.80008001,0.80008001 0 0 0 0.0059,-0.0039 c 0.760552,-0.486122 1.274873,-1.248103 1.228516,-2.074218 -0.04636,-0.826116 -0.57062,-1.521278 -1.31836,-2.080079 a 0.80008001,0.80008001 0 0 0 -0.002,-0.002 L 26.169236,24.52537 a 0.80008001,0.80008001 0 0 0 -0.01953,-0.01367 c -0.190125,-0.132252 -0.261785,-0.284212 -0.269531,-0.435547 -0.0077,-0.151336 0.03679,-0.339543 0.304688,-0.576172 l 8.195312,-6.894531 0.002,-0.002 c 0.7118,-0.567682 1.154116,-1.34573 1.0625,-2.15625 -0.09171,-0.811383 -0.683257,-1.462744 -1.46875,-1.867187 L 21.553967,5.3164316 C 21.217087,5.1127114 20.872751,4.9544878 20.52467,4.8750254 Z" fill="#008055"/>
</svg>
