<svg xmlns="http://www.w3.org/2000/svg" width="48" height="48">
	<path d="m 26.059236,24.293674 a 2.5714347,2.5714347 0 0 0 -1.80011,0.753349 2.5714347,2.5714347 0 0 0 0,3.634583 l 6.09817,6.09817 -6.09817,6.098171 a 2.5714347,2.5714347 0 0 0 0,3.634584 2.5714347,2.5714347 0 0 0 3.637227,0 l 6.095526,-6.095528 6.098171,6.095528 a 2.5714347,2.5714347 0 0 0 3.637227,0 2.5714347,2.5714347 0 0 0 0,-3.634584 l -6.098171,-6.098171 6.098171,-6.09817 a 2.5714347,2.5714347 0 0 0 0,-3.634583 2.5714347,2.5714347 0 0 0 -1.837117,-0.753349 2.5714347,2.5714347 0 0 0 -1.80011,0.753349 l -6.098171,6.095526 -6.095526,-6.095526 a 2.5714347,2.5714347 0 0 0 -1.837117,-0.753349 z" fill="#008055"/>
</svg>
