<svg xmlns="http://www.w3.org/2000/svg" width="48" height="48">
	<path d="m 10.807298,1.7855684 c -0.249635,0.00649 -0.510784,0.047551 -0.783203,0.1308593 C 8.9344163,2.2496591 8.2037823,3.5463332 8.2037823,4.5531466 V 13.078537 L 5.8815173,11.46135 a 1.8,1.8 0 0 0 -2.50586,0.447266 1.8,1.8 0 0 0 0.449219,2.505859 l 3.5,2.441406 c 0.00287,0.0021 0.00689,0.0038 0.00977,0.0059 0.697846,0.504605 1.601852,1.041161 2.8339837,0.58789 0.618605,-0.227569 1.118118,-0.768391 1.349609,-1.273437 0.231491,-0.505047 0.285157,-0.976084 0.285157,-1.441407 V 6.0063116 l 9.804687,5.7792974 -6.935547,5.880859 a 1.80018,1.80018 0 0 0 -0.03125,0.0293 c -0.709655,0.631889 -1.1592,1.580804 -1.111328,2.523438 0.04787,0.942633 0.566764,1.801519 1.306641,2.320312 l 6.886718,5.152344 -9.919921,6.289062 v -8.818359 c 0,-0.508977 -0.04742,-1.022746 -0.34961,-1.589844 -0.302191,-0.567098 -1.029334,-1.118278 -1.7128897,-1.216797 -1.367112,-0.197037 -2.025952,0.445603 -2.69336,1.007813 l -3.222656,2.470703 a 1.8,1.8 0 0 0 -0.332031,2.523437 1.8,1.8 0 0 0 2.523437,0.332032 l 2.1875,-1.677735 v 8.513672 c 0,0.526625 0.096451,1.113577 0.470703,1.66211 0.374252,0.548532 1.042096,0.925027 1.6015627,1.021484 1.118934,0.192913 1.833177,-0.197625 2.503906,-0.585938 a 1.80018,1.80018 0 0 0 0.06055,-0.03711 l 11.246094,-7.128906 a 1.80018,1.80018 0 0 0 0.0098,-0.0078 c 0.884377,-0.569809 1.651748,-1.642002 1.585938,-2.824218 -0.06581,-1.182218 -0.781475,-2.047745 -1.599609,-2.664063 a 1.80018,1.80018 0 0 0 -0.0059,-0.0039 l -6.605471,-4.941468 6.824219,-5.789062 -0.03906,0.03125 c 0.821193,-0.659133 1.475378,-1.720638 1.34375,-2.894531 C 25.46864,10.1898 24.627714,9.3253666 23.719409,8.8539276 L 12.785813,2.4066621 C 12.40103,2.1705186 11.98218,1.9650732 11.524095,1.8597871 11.295052,1.807144 11.056932,1.7790744 10.807298,1.7855684 Z m 26.384765,7.9531252 c -0.249634,-0.0065 -0.487754,0.02158 -0.716796,0.07422 -0.458086,0.105285 -0.876933,0.3126834 -1.261719,0.5488284 l -11.017578,6.49414 0.08398,-0.04688 c -0.908305,0.471439 -1.749231,1.335873 -1.880859,2.509766 -0.131629,1.173893 0.522557,2.235398 1.34375,2.894531 l -0.03906,-0.03125 6.824219,5.78711 -6.605469,4.943359 a 1.80018,1.80018 0 0 0 -0.0059,0.0039 c -0.818135,0.616318 -1.533798,1.481847 -1.59961,2.664063 -0.06581,1.182216 0.701561,2.254409 1.585938,2.824218 a 1.80018,1.80018 0 0 0 0.01172,0.0078 l 11.244181,7.126976 a 1.80018,1.80018 0 0 0 0.0625,0.03906 c 0.670729,0.388318 1.384974,0.77885 2.503907,0.585938 0.559466,-0.09646 1.225355,-0.472952 1.599609,-1.021484 0.374254,-0.548533 0.470703,-1.135483 0.470703,-1.66211 v -8.513672 l 2.1875,1.677735 a 1.8,1.8 0 0 0 2.523438,-0.332029 1.8,1.8 0 0 0 -0.332032,-2.523438 l -3.222656,-2.470703 c -0.667404,-0.562213 -1.326245,-1.204851 -2.693359,-1.007813 -0.683557,0.09852 -1.410701,0.6497 -1.712891,1.216797 -0.30219,0.567098 -0.349609,1.080867 -0.349609,1.589844 v 8.818359 l -9.919922,-6.289062 6.886719,-5.152344 c 0.739877,-0.518792 1.258768,-1.379632 1.30664,-2.322266 0.04787,-0.942633 -0.401672,-1.889595 -1.111328,-2.521484 a 1.80018,1.80018 0 0 0 -0.03125,-0.0293 l -6.933594,-5.880859 9.802735,-5.779297 v 8.728516 c 0,0.465321 0.05366,0.936359 0.285156,1.441406 0.231491,0.505047 0.731004,1.045868 1.349609,1.273437 1.23721,0.455139 2.144734,-0.0893 2.84375,-0.595703 l 3.501954,-2.439453 a 1.8,1.8 0 0 0 0.447265,-2.505859 1.8,1.8 0 0 0 -2.505859,-0.447266 l -2.322266,1.617188 v -8.527344 c 0,-1.006819 -0.730636,-2.303491 -1.820312,-2.6367194 -0.27242,-0.08331 -0.533569,-0.124365 -0.783204,-0.130859 z" fill="#008055"/>
</svg>
