<svg xmlns="http://www.w3.org/2000/svg" width="48" height="48">
	<path d="m 20.780384,3.6909068 c -0.510756,-0.1165479 -1.06422,-0.1212507 -1.669922,0.0625 -1.211405,0.3675014 -2.03711,1.8104017 -2.03711,2.9375 v 9.5859372 l -2.669921,-1.847656 a 2,2 0 0 0 -2.783203,0.507813 2,2 0 0 0 0.507812,2.781249 l 3.951172,2.730469 c 0.784679,0.563925 1.791957,1.163559 3.166015,0.662109 0.687029,-0.250724 1.247263,-0.850152 1.507813,-1.414062 0.26055,-0.56391 0.320312,-1.092432 0.320312,-1.613281 V 8.2768443 l 11.123047,6.5058597 -7.830078,6.58789 a 2.0002,2.0002 0 0 0 -0.03516,0.03125 c -0.795727,0.702844 -1.302058,1.763009 -1.248047,2.81836 0.05396,1.054388 0.638471,2.012065 1.464844,2.58789 7.54e-4,5.26e-4 0.0012,0.0014 0.002,0.002 l 7.77539,5.773438 -11.251953,7.076172 v -9.908203 c 0,-0.5697 -0.05473,-1.144745 -0.394531,-1.777344 -0.339805,-0.6326 -1.150336,-1.241252 -1.908203,-1.34961 -1.515735,-0.216716 -2.253527,0.492076 -3.003906,1.119141 l 0.07031,-0.05664 -3.707031,2.822266 a 2,2 0 0 0 -0.378906,2.802734 2,2 0 0 0 2.802735,0.38086 l 2.51953,-1.917969 v 9.572266 c 0,0.589515 0.111177,1.248593 0.53125,1.859375 0.420074,0.610781 1.161766,1.022619 1.783203,1.128906 1.242876,0.212573 2.044012,-0.217999 2.796876,-0.650391 a 2.0002,2.0002 0 0 0 0.06836,-0.04102 l 12.681641,-7.976563 a 2.0002,2.0002 0 0 0 0.01367,-0.0078 c 0.991286,-0.6336 1.855523,-1.828779 1.78125,-3.152344 -0.07427,-1.323565 -0.880176,-2.288086 -1.798828,-2.974609 a 2.0002,2.0002 0 0 0 -0.0059,-0.0039 l -7.460938,-5.537109 7.66211,-6.447266 c 0.92145,-0.733712 1.658297,-1.918349 1.509765,-3.232421 -0.148532,-1.314135 -1.093849,-2.273046 -2.111328,-2.796937 l 0.09375,0.05078 -12.427734,-7.2675785 -0.0039,-0.00195 C 21.756165,4.0346208 21.289695,3.8071266 20.78039,3.6909097 Z" fill="#008055"/>
</svg>
