<svg xmlns="http://www.w3.org/2000/svg" width="48" height="48">
	<path d="m 19.092404,7.4092263 a 0.80000001,0.80000001 0 0 0 -0.800781,0.800781 0.80000001,0.80000001 0 0 0 0.800781,0.800781 h 19.248047 c 1.25012,0 2.045192,0.323283 2.558593,0.851562 0.513402,0.5282797 0.810547,1.3410057 0.810547,2.5371097 l 0.03906,22.589844 c 0,1.126668 -0.327463,2.124814 -0.896485,2.826172 -0.567494,0.699473 -1.358464,1.138095 -2.490234,1.173828 H 19.035763 a 0.80000001,0.80000001 0 0 0 -0.800781,0.800781 0.80000001,0.80000001 0 0 0 0.800781,0.800781 H 38.37756 a 0.80008001,0.80008001 0 0 0 0.02344,-0.002 c 1.555431,-0.04605 2.850407,-0.726631 3.69336,-1.765625 0.842953,-1.038994 1.253906,-2.399553 1.253906,-3.833984 a 0.80008001,0.80008001 0 0 0 0,-0.002 l -0.03711,-22.58789 c 0,-1.471796 -0.391752,-2.7531477 -1.265625,-3.6523437 -0.873873,-0.899196 -2.164299,-1.33789 -3.705078,-1.33789 z m 0.03906,6.3242177 c -4.784334,0.09383 -9.5137074,2.742468 -13.6328124,7.392578 -1.229206,1.329906 -1.045842,3.285998 0.070312,4.652344 3.281813,4.1984 8.3832404,7.619243 14.1464854,8.605469 5.768124,0.987061 12.197512,-0.535892 17.847656,-6.132813 a 0.80000001,0.80000001 0 0 0 0.0059,-1.130859 0.80000001,0.80000001 0 0 0 -1.130859,-0.0059 C 31.111351,32.390883 25.297458,33.714799 19.984982,32.80571 14.672506,31.896621 9.8621626,28.682252 6.8189656,24.784226 a 0.80008001,0.80008001 0 0 0 -0.011719,-0.01563 c -0.751098,-0.9166 -0.821531,-1.820593 -0.130859,-2.5625 a 0.80008001,0.80008001 0 0 0 0.013672,-0.01367 c 3.9176484,-4.425065 8.2573904,-6.776703 12.4726564,-6.859375 4.215266,-0.08267 8.422339,2.062641 12.189453,7.03125 a 0.80008001,0.80008001 0 0 0 0,0.002 c 0.286275,0.375209 0.318213,0.60008 0.285157,0.798828 -0.03306,0.198747 -0.172981,0.445665 -0.498047,0.720703 -3.311655,2.760114 -6.430006,3.58503 -9.246094,3.322266 -2.813488,-0.262522 -5.362172,-1.64639 -7.392578,-3.476563 l -0.002,-0.002 c -0.182158,-0.170289 -0.224252,-0.307915 -0.22461,-0.386719 -3.58e-4,-0.07898 0.01359,-0.178367 0.246094,-0.365234 0,0 0,-0.002 0,-0.002 3.410393,-2.684195 7.871311,-2.218797 10.724609,0.867187 a 0.80000001,0.80000001 0 0 0 1.13086,0.04492 0.80000001,0.80000001 0 0 0 0.04492,-1.130859 C 23.043656,19.104627 17.551306,18.546651 13.524044,21.721726 a 0.80008001,0.80008001 0 0 0 -0.0039,0.0039 c -0.5207,0.417001 -0.848468,1.015174 -0.845703,1.625 0.0028,0.609826 0.306078,1.153256 0.736328,1.552734 a 0.80008001,0.80008001 0 0 0 0.0078,0.0078 c 2.227993,2.011308 5.081216,3.587843 8.326171,3.890625 3.244957,0.302781 6.84556,-0.704872 10.423829,-3.689454 a 0.80008001,0.80008001 0 0 0 0.0059,-0.0039 c 0.518334,-0.438562 0.927797,-0.998985 1.041016,-1.679687 0.113118,-0.6801 -0.112491,-1.40484 -0.589844,-2.03125 v -0.002 C 28.64235,16.142342 23.917686,13.639514 19.1315,13.733384 Z" fill="#008055"/>
</svg>
