<svg xmlns="http://www.w3.org/2000/svg" width="48" height="48">
	<path d="m 18.977834,6.309547 a 1.9,1.9 0 0 0 -1.90039,1.900391 1.9,1.9 0 0 0 1.90039,1.90039 h 19.248047 c 1.050268,0 1.503953,0.244303 1.769532,0.517578 0.265578,0.273276 0.5,0.764922 0.5,1.771485 a 1.90019,1.90019 0 0 0 0,0.002 l 0.03906,22.589844 c -4.52e-4,0.914037 -0.27197,1.66202 -0.652344,2.130859 -0.380692,0.469233 -0.825095,0.742451 -1.673828,0.767578 H 18.921194 a 1.9,1.9 0 0 0 -1.900391,1.900391 1.9,1.9 0 0 0 1.900391,1.90039 h 19.34375 a 1.90019,1.90019 0 0 0 0.05469,-0.002 c 1.843308,-0.05457 3.482404,-0.900757 4.513672,-2.171875 1.031268,-1.271117 1.5,-2.881324 1.5,-4.527343 a 1.90019,1.90019 0 0 0 0,-0.0039 l -0.03711,-22.585937 c 0,-1.661337 -0.454481,-3.265722 -1.576172,-4.419922 -1.121691,-1.1542 -2.753548,-1.669922 -4.494141,-1.669922 z m 0.02148,6.523438 c -5.09985,0.100022 -10.0432988,2.912382 -14.2734374,7.68164 -1.5323049,1.657189 -1.2934214,4.196292 0.021484,5.81836 3.4158542,4.36907 8.6826324,7.907586 14.7011724,8.9375 6.024424,1.03092 12.802682,-0.60375 18.634765,-6.38086 a 1.7,1.7 0 0 0 0.01172,-2.404297 1.7,1.7 0 0 0 -2.404297,-0.01172 C 30.545835,31.569998 25.078923,32.78415 20.022752,31.91892 14.966581,31.053691 10.324499,27.955798 7.4153298,24.229467 a 1.70017,1.70017 0 0 0 -0.02539,-0.03125 c -0.542286,-0.661763 -0.549862,-0.96871 -0.167969,-1.378906 a 1.70017,1.70017 0 0 0 0.027344,-0.03125 C 11.052913,18.491844 15.173771,16.30779 19.067674,16.23142 c 3.893903,-0.07637 7.807724,1.867699 11.453125,6.675781 a 1.70017,1.70017 0 0 0 0.002,0.0039 c 0.06345,0.08317 0.07,0.09669 0.08398,0.11914 -0.02493,0.03362 -0.06435,0.08526 -0.16211,0.167969 -3.160911,2.63283 -6.007415,3.353513 -8.582031,3.113281 -2.37264,-0.221386 -4.540082,-1.38101 -6.375,-2.908203 2.975822,-1.992099 6.561419,-1.567695 8.982422,1.050781 a 1.7,1.7 0 0 0 2.402344,0.09375 1.7,1.7 0 0 0 0.09375,-2.402343 C 23.295737,18.175674 17.22676,17.566328 12.852872,21.014616 a 1.70017,1.70017 0 0 0 -0.01172,0.0098 c -0.681154,0.545818 -1.185874,1.421993 -1.181641,2.330078 0.0042,0.908085 0.457135,1.681379 1.025391,2.208984 a 1.70017,1.70017 0 0 0 0.01758,0.01563 c 2.338303,2.11088 5.358479,3.793938 8.84375,4.119141 3.485271,0.325203 7.358918,-0.787836 11.085937,-3.896484 a 1.70017,1.70017 0 0 0 0.0078,-0.0078 c 0.627078,-0.530557 1.191329,-1.26694 1.349609,-2.21875 0.158281,-0.95181 -0.177496,-1.958275 -0.763672,-2.726562 -4.104532,-5.411408 -9.120127,-8.115777 -14.226562,-8.015625 z" fill="#008055"/>
</svg>
