<svg xmlns="http://www.w3.org/2000/svg" width="48" height="48">
	<path d="m 18.146485,5.5655248 a 1.80018,1.80018 0 0 0 -0.339844,0.037109 L 6.0175782,8.0381807 A 1.80018,1.80018 0 0 0 4.7968751,10.655369 l 5.7109379,10.595703 a 1.80018,1.80018 0 0 0 3.111328,0.09961 c 0.707649,-1.132996 2.2739,-1.806457 2.929687,-1.974609 a 1.8,1.8 0 0 0 1.296875,-2.191406 1.8,1.8 0 0 0 -2.191406,-1.294922 c -0.784796,0.201231 -1.980543,0.661716 -3.132812,1.509766 L 9.1113282,11.075291 16.195313,9.6104467 c 0.0075,3.6523643 1.642325,7.5182503 5.578125,9.3535163 4.207892,1.962192 8.204999,1.173458 11.132812,-0.525391 2.927814,-1.698849 4.956726,-4.18283 6.107422,-5.865234 a 1.8,1.8 0 0 0 -0.46875,-2.501954 1.8,1.8 0 0 0 -2.501953,0.46875 c -0.949203,1.387807 -2.737948,3.505478 -4.943359,4.785157 -2.205412,1.279678 -4.65558,1.845421 -7.804688,0.376953 C 20.161163,14.24097 19.24998,10.606616 19.921875,7.7823217 A 1.80018,1.80018 0 0 0 18.146485,5.5655248 Z M 24,23.879978 c -6.827937,0 -12.405836,1.871891 -17.1406249,4.84375 a 1.70017,1.70017 0 0 0 -0.074219,0.05078 C 4.0098825,30.730737 2.31938,32.60862 1.705078,34.766695 c -0.614302,2.158075 0.044334,4.276598 1.1503906,6.173828 0.4520128,0.775308 1.2575942,1.214517 1.9589844,1.376953 0.7013902,0.162436 1.369721,0.13611 2.0488281,0.04102 1.3582142,-0.190189 2.7807633,-0.693956 4.1503909,-1.333984 1.369627,-0.640029 2.660529,-1.411484 3.673828,-2.253907 0.50665,-0.421211 0.948375,-0.853559 1.306641,-1.392578 0.358266,-0.539019 0.717067,-1.306219 0.470703,-2.248047 a 1.70017,1.70017 0 0 0 -0.01953,-0.06445 c -0.417917,-1.373162 -1.228746,-2.319374 -2.316407,-3.421875 a 1.7,1.7 0 0 0 -2.404296,-0.01563 1.7,1.7 0 0 0 -0.01563,2.402344 c 0.865847,0.877661 1.030855,1.181407 1.236328,1.6875 -0.116077,0.131807 -0.203291,0.247658 -0.431641,0.4375 -0.686592,0.570809 -1.793068,1.253356 -2.9394534,1.789062 -1.1463851,0.535707 -2.3577892,0.931513 -3.1816406,1.046875 -0.3535034,0.0495 -0.5685156,0.02865 -0.6972656,0.01172 C 4.9401687,37.642015 4.6981252,36.669641 4.9746095,35.698338 5.266462,34.673045 6.2879746,33.297009 8.7148439,31.579197 12.976219,28.914299 17.804833,27.278416 24,27.278416 c 6.195168,0 11.023837,1.635888 15.285157,4.300781 2.426869,1.717812 3.448381,3.093848 3.740234,4.119141 0.276484,0.971303 0.03444,1.943677 -0.720703,3.304687 -0.12834,0.01701 -0.342914,0.0379 -0.697266,-0.01172 -0.823843,-0.115362 -2.037223,-0.511169 -3.183593,-1.046875 -1.146371,-0.535705 -2.250932,-1.21826 -2.9375,-1.789062 -0.228004,-0.189558 -0.315557,-0.305749 -0.431641,-0.4375 0.205419,-0.506003 0.370516,-0.809793 1.236328,-1.6875 a 1.70017,1.70017 0 0 0 -0.230469,-2.58203 C 32.495612,28.936887 27.792686,27.825291 24,27.825291 c -3.487234,0 -5.590921,0.749009 -7.230469,1.429687 a 1.7,1.7 0 0 0 -0.917968,2.222656 1.7,1.7 0 0 0 2.220703,0.917969 C 19.627518,31.749921 20.954435,31.225681 24,31.225681 c 2.533367,0 5.725747,0.878604 8.365235,2.216797 -0.334308,0.496 -0.625454,1.008272 -0.8125,1.623047 a 1.70017,1.70017 0 0 0 -0.01758,0.06445 c -0.246408,0.941815 0.112446,1.709015 0.470703,2.248047 0.358256,0.539032 0.799998,0.971364 1.30664,1.392578 1.013285,0.842429 2.302259,1.613877 3.671875,2.253907 1.369617,0.640028 2.794134,1.143795 4.152344,1.333984 0.679105,0.09509 1.347439,0.121421 2.048828,-0.04102 0.70139,-0.162436 1.506973,-0.601646 1.958985,-1.376953 1.106056,-1.89723 1.764692,-4.015753 1.15039,-6.173828 -0.6143,-2.158068 -2.304802,-4.035951 -5.080076,-5.99218 a 1.70017,1.70017 0 0 0 -0.07617,-0.05078 C 36.403928,25.751864 30.827938,23.879978 24,23.879978 Z" fill="#008055"/>
</svg>
