<svg xmlns="http://www.w3.org/2000/svg" width="48" height="48">
	<path d="m 12.173618,2.4320292 c -0.267353,0.010196 -0.532089,0.032885 -0.794922,0.068359 C 10.327365,2.6422865 9.3188502,2.9969759 8.4099462,3.6546855 6.5921391,4.9701048 5.4044942,7.201885 4.515415,10.478904 a 1.70017,1.70017 0 0 0 -0.021484,0.08789 C 3.32064,16.032542 3.4692296,21.912224 5.8044774,28.328514 8.1397472,34.744665 11.806661,39.344825 16.21854,42.777732 a 1.70017,1.70017 0 0 0 0.07226,0.05469 c 2.787488,1.938768 5.131072,2.885388 7.369141,2.724609 2.238069,-0.160778 4.003653,-1.5048 5.408203,-3.193359 0.573925,-0.689944 0.710312,-1.597867 0.623047,-2.3125 -0.08727,-0.714634 -0.340478,-1.333833 -0.662109,-1.939453 -0.643264,-1.211241 -1.603954,-2.377198 -2.673828,-3.445313 -1.069876,-1.068114 -2.234835,-2.015638 -3.373047,-2.679687 -0.569107,-0.332025 -1.124842,-0.599664 -1.753907,-0.751953 -0.629064,-0.15229 -1.472701,-0.225463 -2.273437,0.328125 a 1.70017,1.70017 0 0 0 -0.05469,0.03906 c -1.147117,0.862274 -1.759839,1.948412 -2.423828,3.347656 a 1.7,1.7 0 0 0 0.806641,2.263672 1.7,1.7 0 0 0 2.265625,-0.80664 c 0.528288,-1.113279 0.755296,-1.37227 1.160156,-1.738282 0.163584,0.06397 0.303835,0.10609 0.560547,0.25586 0.771216,0.449938 1.79006,1.254424 2.685547,2.148437 0.895487,0.894013 1.682076,1.900054 2.072265,2.634766 0.168422,0.317131 0.222395,0.526448 0.25,0.652344 -1.020284,1.174628 -1.85238,1.732346 -2.859374,1.804687 -1.062377,0.07632 -2.705439,-0.41194 -5.146485,-2.101562 C 14.307373,36.969257 11.11951,32.990333 8.9997902,27.166404 6.880927,21.344651 6.7635876,16.248293 7.8103372,11.33242 8.5946132,8.463452 9.5384102,7.0336085 10.402133,6.4085918 c 0.818159,-0.592043 1.816341,-0.6974417 3.353516,-0.453125 0.05989,0.1148264 0.15201,0.3103264 0.226563,0.6601562 0.173384,0.8135886 0.216773,2.0872095 0.105468,3.3476562 -0.111305,1.2604468 -0.37422,2.5326688 -0.675781,3.3730468 -0.100379,0.279732 -0.179486,0.402498 -0.263672,0.556641 -0.545824,-0.01992 -0.88706,-0.07247 -2.007812,-0.585938 a 1.70017,1.70017 0 0 0 -2.3496098,1.09961 c -1.140719,4.208875 -0.576582,9.008352 0.720704,12.572265 1.1929418,3.276457 2.6154458,4.998388 3.8164058,6.306641 a 1.7,1.7 0 0 0 2.402344,0.101562 1.7,1.7 0 0 0 0.103515,-2.40039 c -1.13844,-1.240148 -2.084896,-2.307879 -3.126953,-5.169922 -0.866659,-2.380897 -1.132463,-5.682696 -0.777344,-8.621094 0.580462,0.144496 1.161056,0.243505 1.802735,0.208984 a 1.70017,1.70017 0 0 0 0.06641,-0.0059 c 0.969272,-0.09056 1.569113,-0.68797 1.953125,-1.208984 0.384011,-0.521015 0.638791,-1.084922 0.861328,-1.705078 0.445073,-1.240314 0.728346,-2.714778 0.861328,-4.220704 C 17.607382,8.7581348 17.592287,7.2479919 17.30643,5.9066386 17.163502,5.235962 16.960718,4.5980582 16.568149,3.9945292 16.17558,3.3910005 15.488402,2.782977 14.605259,2.6234355 v 0.00195 C 13.794841,2.4788624 12.975677,2.4014417 12.173618,2.4320292 Z M 30.488071,13.365623 a 1.80018,1.80018 0 0 0 -1.041016,0.349609 l -9.33789,6.847657 a 1.80018,1.80018 0 0 0 0,2.904296 l 9.33789,6.847657 a 1.80018,1.80018 0 0 0 2.851563,-1.228516 c 0.151547,-1.218105 1.231058,-2.421994 1.728515,-2.824219 a 1.8,1.8 0 0 0 0.267579,-2.53125 1.8,1.8 0 0 0 -2.53125,-0.267578 c -0.598078,0.483582 -1.371725,1.42231 -2.03711,2.591797 l -5.505859,-4.041015 5.457031,-4.001954 c 1.524126,3.147903 4.549986,5.802735 8.734375,5.802735 h 4.011719 a 1.8,1.8 0 0 0 1.800781,-1.798828 1.8,1.8 0 0 0 -1.800781,-1.800782 h -4.011719 c -3.32686,0 -5.580289,-2.752536 -6.136719,-5.417968 a 1.80018,1.80018 0 0 0 -1.787109,-1.431641 z" fill="#008055"/>
</svg>
