<svg xmlns="http://www.w3.org/2000/svg" width="48" height="48">
	<path d="M 12.172696,2.4320321 C 11.905343,2.442228 11.640607,2.464917 11.377774,2.5003915 10.326444,2.6422894 9.3179278,2.9969787 8.4090242,3.6546884 6.5912172,4.9701077 5.4055254,7.2018875 4.5164461,10.478908 a 1.70017,1.70017 0 0 0 -0.021484,0.08789 c -1.1732905,5.465747 -1.0266542,11.347383 1.3085937,17.763672 2.33527,6.416151 6.0021832,11.016311 10.4140622,14.449219 a 1.70017,1.70017 0 0 0 0.07422,0.05273 c 2.787489,1.938743 5.13108,2.885388 7.369141,2.72461 2.23806,-0.160778 4.001698,-1.504827 5.40625,-3.19336 0.573925,-0.689944 0.712265,-1.595913 0.625,-2.310547 -0.08726,-0.714633 -0.342431,-1.333832 -0.664063,-1.939453 -0.643263,-1.211241 -1.601999,-2.377198 -2.671875,-3.445312 -1.069875,-1.068115 -2.236787,-2.015638 -3.375,-2.679688 -0.569106,-0.332025 -1.124842,-0.601617 -1.753906,-0.753906 -0.629064,-0.152289 -1.472701,-0.225462 -2.273438,0.328125 a 1.70017,1.70017 0 0 0 -0.05469,0.03906 c -1.147118,0.862273 -1.759839,1.948411 -2.423828,3.347656 a 1.7,1.7 0 0 0 0.806641,2.265625 1.7,1.7 0 0 0 2.265624,-0.806641 c 0.528746,-1.11424 0.756521,-1.373937 1.16211,-1.740234 0.163504,0.06404 0.302621,0.106521 0.558594,0.255859 0.771215,0.449939 1.79006,1.256378 2.685546,2.150391 0.895487,0.894013 1.682077,1.8981 2.072266,2.632812 0.167898,0.316146 0.222119,0.525978 0.25,0.652344 -1.02028,1.174603 -1.852373,1.7343 -2.859375,1.806641 -1.064344,0.07646 -2.707722,-0.412186 -5.15625,-2.109375 C 14.301254,36.964492 11.116833,32.985514 8.998868,27.166408 6.8800084,21.344663 6.7646242,16.250242 7.811368,11.334376 8.5956452,8.4653985 9.5394389,7.0355655 10.403165,6.4105477 11.221322,5.8185049 12.217552,5.711153 13.754727,5.9554696 c 0.05989,0.1148265 0.15201,0.3103265 0.226563,0.6601563 0.173384,0.8135886 0.216774,2.0891626 0.105469,3.3496096 -0.111306,1.2604475 -0.374221,2.5326685 -0.675782,3.3730475 -0.100282,0.279463 -0.179519,0.400544 -0.263672,0.554687 -0.545824,-0.01992 -0.88706,-0.07247 -2.007812,-0.585937 a 1.70017,1.70017 0 0 0 -2.3496094,1.101562 c -1.140719,4.208875 -0.5746277,9.008352 0.7226562,12.572266 1.1929432,3.276457 2.6154462,4.996435 3.8164062,6.304687 a 1.7,1.7 0 0 0 2.400391,0.103516 1.7,1.7 0 0 0 0.103515,-2.402344 c -1.13844,-1.240147 -2.084896,-2.307879 -3.126953,-5.169922 -0.866461,-2.380351 -1.132005,-5.681207 -0.777344,-8.61914 0.580393,0.144459 1.161135,0.241547 1.802735,0.207031 a 1.70017,1.70017 0 0 0 0.06836,-0.0039 c 0.969272,-0.09056 1.567161,-0.689924 1.951172,-1.210938 0.384011,-0.521014 0.638791,-1.082968 0.861329,-1.703125 0.445073,-1.240313 0.728345,-2.71673 0.861328,-4.222656 C 17.60646,8.7581375 17.593319,7.2479945 17.307462,5.9066415 17.164534,5.2359649 16.959797,4.598061 16.567228,3.9945321 16.174658,3.3910033 15.48748,2.784933 14.604337,2.6253915 13.79392,2.4788653 12.974755,2.4014445 12.172696,2.4320321 Z M 33.096525,13.367579 a 1.80018,1.80018 0 0 0 -1.796875,1.576172 c -0.15154,1.218094 -1.23105,2.421983 -1.728516,2.824219 a 1.8,1.8 0 0 0 -0.267578,2.53125 1.8,1.8 0 0 0 2.53125,0.267578 c 0.598061,-0.483574 1.371723,-1.422308 2.037109,-2.591797 l 5.509766,4.041016 -5.458985,4.003906 C 32.398972,22.871002 29.371789,20.215236 25.186368,20.215236 H 21.17465 a 1.8,1.8 0 0 0 -1.800782,1.800781 1.8,1.8 0 0 0 1.800782,1.798828 h 4.011718 c 3.32687,0 5.582252,2.752551 6.138672,5.417969 a 1.80018,1.80018 0 0 0 2.826172,1.083984 l 9.337891,-6.849609 a 1.80018,1.80018 0 0 0 0,-2.902344 l -9.337891,-6.849609 a 1.80018,1.80018 0 0 0 -1.054687,-0.347657 z" fill="#008055"/>
</svg>
