<svg xmlns="http://www.w3.org/2000/svg" width="48" height="48">
	<path d="m 26.277344,6.876953 c -1.010855,0 -1.829924,0.425014 -2.365235,0.992188 -0.535311,0.567173 -0.845098,1.224896 -1.154296,1.804687 -0.309201,0.579791 -0.60813,1.077586 -0.982422,1.40625 -0.374293,0.328664 -0.815302,0.542969 -1.646485,0.542969 a 0.80000001,0.80000001 0 0 0 -0.798828,0.798828 0.80000001,0.80000001 0 0 0 0.798828,0.800781 c 1.150478,0 2.062155,-0.378336 2.701172,-0.939453 0.639016,-0.561117 1.016356,-1.250837 1.339844,-1.857422 0.323487,-0.606584 0.601765,-1.136376 0.90625,-1.458984 0.304484,-0.322608 0.577396,-0.490235 1.201172,-0.490235 h 6.146484 c 0.743712,0 1.038178,0.184019 1.31836,0.486329 0.280182,0.30231 0.511476,0.806749 0.77539,1.408203 0.263914,0.601453 0.567574,1.302477 1.169922,1.884765 0.602348,0.582289 1.507374,0.966797 2.675781,0.966797 h 1.621094 c 1.196143,0 2.008836,0.299088 2.537109,0.8125 0.528275,0.513413 0.851563,1.306568 0.851563,2.556641 v 19.541015 c 0,1.054668 -0.321675,1.88281 -0.875,2.457032 -0.553326,0.574222 -1.36118,0.933594 -2.513672,0.933594 H 8.6289065 c -1.301403,0 -2.311261,-0.297223 -2.962891,-0.824219 -0.651631,-0.526997 -1.039063,-1.288103 -1.039063,-2.566407 V 16.591797 c 0,-1.079014 0.390845,-1.86427 1.070313,-2.439453 0.679468,-0.575183 1.688431,-0.929688 2.931641,-0.929688 h 7.3964845 a 0.80000001,0.80000001 0 0 0 0.800781,-0.800781 0.80000001,0.80000001 0 0 0 -0.800781,-0.798828 H 8.6289065 c -1.548082,0 -2.941575,0.442377 -3.964844,1.308594 -1.02327,0.866217 -1.636719,2.16477 -1.636719,3.660156 v 19.541015 c 0,1.636698 0.592505,2.970794 1.630859,3.810547 1.038355,0.839754 2.429866,1.179688 3.970704,1.179688 H 39.984375 c 1.503338,0 2.788838,-0.513525 3.666016,-1.423828 0.877175,-0.910303 1.322265,-2.177172 1.322265,-3.566407 V 16.591797 c 0,-1.540727 -0.436754,-2.831191 -1.335937,-3.705078 -0.899184,-0.873888 -2.180498,-1.263672 -3.652344,-1.263672 h -1.621094 c -0.855829,0 -1.246367,-0.210086 -1.564453,-0.517578 C 36.480742,10.797976 36.239081,10.313437 35.982422,9.728516 35.725763,9.143594 35.460487,8.462471 34.916016,7.875 34.371544,7.287529 33.512791,6.876953 32.423828,6.876953 Z m 3.005859,9.833985 c -3.202464,-0.06525 -6.344057,1.577935 -8.041015,4.548828 -2.418144,4.233483 -0.98127,9.584967 3.138671,12.125 a 0.79999791,0.80000211 85.028494 0 0 0.220704,0.191406 0.79999791,0.80000211 85.028494 0 0 0.01563,0.0098 0.79999791,0.80000211 85.028494 0 0 0.265625,0.08789 c 4.28394,2.2596 9.63129,0.772981 12.046875,-3.464844 2.464424,-4.323511 0.951334,-9.848101 -3.371094,-12.314453 -1.350759,-0.770735 -2.819727,-1.153936 -4.275391,-1.183593 z m -0.03906,1.59375 c 1.197189,0.02619 2.405357,0.343613 3.521484,0.980468 3.571604,2.037936 4.809781,6.560315 2.773438,10.132813 -2.036344,3.572498 -6.559382,4.812075 -10.132813,2.777343 a 0.79999791,0.80000211 85.028494 0 0 -0.0039,-0.0039 0.79999791,0.80000211 85.028494 0 0 -0.0059,-0.002 c -3.569775,-2.04114 -4.805173,-6.566049 -2.765625,-10.136719 1.402191,-2.454835 3.979467,-3.805657 6.613282,-3.748046 z M 8.3007805,19.695312 a 0.69999999,0.69999999 0 0 0 -0.65039,0.515626 0.69999999,0.69999999 0 0 0 0.490234,0.859374 c 0.80769,0.220602 1.22813,0.582609 1.523438,1.13086 0.295307,0.54825 0.4355465,1.335045 0.4355465,2.3125 v 4.08789 c 0,0.983648 -0.1195355,1.755427 -0.3984375,2.283204 C 9.4222695,31.412542 9.0147445,31.766159 8.1445305,32 a 0.69999999,0.69999999 0 0 0 -0.49414,0.857422 0.69999999,0.69999999 0 0 0 0.857422,0.49414 c 1.149387,-0.308858 1.9768355,-0.95555 2.4296875,-1.8125 0.452853,-0.856948 0.560547,-1.851547 0.560547,-2.9375 v -4.08789 c 0,-1.103045 -0.138565,-2.116988 -0.601563,-2.976563 -0.462997,-0.859574 -1.2810085,-1.514407 -2.3867185,-1.816406 a 0.69999999,0.69999999 0 0 0 -0.208985,-0.02539 z" fill="#008055"/>
</svg>
