<svg xmlns="http://www.w3.org/2000/svg" width="48" height="48">
	<path d="m 8.4951174,4.6717215 c -1.5225595,0 -2.7834066,0.4306423 -3.6347656,1.3066406 C 4.0089928,6.8543604 3.6240236,8.105774 3.6240236,9.560393 l -0.037109,28.265625 a 0.70006999,0.70006999 0 0 0 0,0.002 c 0,1.415197 0.4065895,2.753608 1.2324219,3.771485 0.8258323,1.017877 2.0879444,1.683186 3.6171872,1.728515 a 0.69999999,0.69999999 0 0 0 0.71875,-0.677734 0.69999999,0.69999999 0 0 0 -0.677734,-0.720703 C 7.3146824,41.895064 6.4914163,41.439092 5.9052736,40.716643 5.3191311,39.994195 4.9873049,38.973876 4.9873049,37.827971 L 5.0244139,9.562347 a 0.70006999,0.70006999 0 0 0 0,-0.002 c 0,-1.21338 0.3039027,-2.0559698 0.8398437,-2.6074215 C 6.400199,6.4015198 7.2268769,6.0721121 8.4951174,6.0721121 H 39.520508 c 1.075576,0 1.932116,0.3287776 2.527343,0.9023438 0.595228,0.5735661 0.964844,1.4115341 0.964844,2.5859371 v 28.267578 c 0,1.316346 -0.30111,2.349582 -0.847656,3.025391 -0.546546,0.67581 -1.343833,1.076172 -2.644531,1.076172 H 12.172851 a 0.69999999,0.69999999 0 0 0 -0.699218,0.699219 0.69999999,0.69999999 0 0 0 0.699218,0.699218 h 27.347657 c 1.614301,0 2.914171,-0.579559 3.734375,-1.59375 0.820204,-1.014189 1.158203,-2.380395 1.158203,-3.90625 V 9.560393 c 0,-1.481396 -0.505234,-2.7368158 -1.394532,-3.5937496 C 42.129258,5.1097095 40.888832,4.6717215 39.520508,4.6717215 Z M 12.49707,9.47055 c -1.162354,0 -2.15365,0.33254 -2.8261716,1.023437 -0.672522,0.690897 -0.96875,1.672196 -0.96875,2.78125 L 8.6748044,34.21469 c 0,1.083512 0.311247,2.117838 0.955079,2.910157 0.6438306,0.792317 1.6366916,1.310741 2.8183586,1.345703 a 0.69999999,0.69999999 0 0 0 0.720703,-0.677735 0.69999999,0.69999999 0 0 0 -0.679687,-0.720703 c -0.815834,-0.02414 -1.369594,-0.333096 -1.773438,-0.830078 -0.40349,-0.496547 -0.640209,-1.212487 -0.640625,-2.025391 v -0.002 l 0.02734,-20.939453 c 0,-0.867445 0.215437,-1.43811 0.572265,-1.804687 0.35683,-0.366578 0.91382,-0.59961 1.822266,-0.59961 H 35.51855 c 0.760568,0 1.346394,0.230841 1.75,0.619141 0.403608,0.3883 0.660157,0.955139 0.660157,1.785156 v 20.939453 c 0,0.94788 -0.217839,1.67012 -0.587891,2.126953 -0.370051,0.456834 -0.897359,0.730469 -1.822266,0.730469 H 15.758789 a 0.69999999,0.69999999 0 0 0 -0.701172,0.699219 0.69999999,0.69999999 0 0 0 0.701172,0.701172 h 19.759765 c 1.237995,0 2.266083,-0.45293 2.910157,-1.248047 0.644073,-0.795117 0.90039,-1.852046 0.90039,-3.009766 V 13.275237 c 0,-1.137483 -0.39195,-2.123497 -1.089843,-2.794922 C 37.541364,9.80889 36.571387,9.47055 35.518554,9.47055 Z m 11.658203,5.476562 a 1.60016,1.60016 0 0 0 -1.367187,0.787109 L 14.81543,29.243987 a 1.6,1.6 0 0 0 0.566406,2.191406 1.6,1.6 0 0 0 2.189453,-0.566406 l 1.814453,-3.074219 h 9.292969 l 1.720703,3.048829 a 1.6,1.6 0 0 0 2.18164,0.605468 1.6,1.6 0 0 0 0.605469,-2.179687 L 25.55957,15.759612 a 1.60016,1.60016 0 0 0 -1.404297,-0.8125 z m -0.01953,4.800781 2.736328,4.847657 h -5.597656 z" fill="#008055"/>
</svg>
