<svg xmlns="http://www.w3.org/2000/svg" width="48" height="48">
	<path d="m 24.106446,1.6606132 c -2.822888,-0.033737 -5.383341,0.8770855 -7.322265,2.2695313 -1.944165,1.3962093 -3.397159,3.2982494 -3.488282,5.5839843 a 1.90019,1.90019 0 0 0 -0.002,0.076172 v 9.0390622 c -0.01643,0.326513 0.129606,0.279297 -0.291015,0.279297 a 1.90019,1.90019 0 0 0 -0.05664,0 c -1.843181,0.05478 -3.4824205,0.900809 -4.5136725,2.171874 -1.031252,1.271066 -1.5,2.883286 -1.5,4.529297 a 1.90019,1.90019 0 0 0 0,0.0039 l 0.039063,14.642578 c 0.00108,1.659246 0.455826,3.261238 1.576171,4.414062 1.121685,1.154201 2.7535945,1.669922 4.4941415,1.669922 h 21.933594 c 1.619251,0 3.188721,-0.531039 4.330078,-1.630859 1.141357,-1.099821 1.761719,-2.714451 1.761719,-4.458985 V 25.609831 c 0,-1.705473 -0.371001,-3.357882 -1.425782,-4.662109 -1.05478,-1.304227 -2.782933,-2.039062 -4.666015,-2.039062 H 20.842774 a 1.9,1.9 0 0 0 -1.90039,1.90039 1.9,1.9 0 0 0 1.90039,1.898438 h 14.132813 c 1.031917,0 1.398968,0.245111 1.710937,0.630859 0.31197,0.385748 0.580078,1.134658 0.580078,2.271484 v 14.640625 c 0,0.911266 -0.254488,1.391977 -0.597656,1.722657 -0.343168,0.330679 -0.86871,0.566406 -1.693359,0.566406 H 13.041993 c -1.050253,0 -1.50398,-0.244329 -1.769531,-0.517578 -0.265551,-0.273249 -0.501953,-0.76485 -0.501953,-1.771485 a 1.90019,1.90019 0 0 0 0,-0.0039 l -0.03711,-14.636719 c 0,-0.915088 0.269708,-1.665556 0.650391,-2.134765 0.380683,-0.46921 0.826962,-0.742353 1.675781,-0.767578 h -0.05664 c 2.177218,0 3.964498,-1.85744 4.08789,-3.845704 a 1.90019,1.90019 0 0 0 0.0039,-0.11914 V 9.6625726 c 0.02499,-0.5798045 0.626108,-1.7251936 1.90625,-2.6445315 1.282302,-0.9208907 3.111094,-1.5895207 5.074218,-1.5625 a 1.90019,1.90019 0 0 0 0.04297,0 c 2.139245,-0.017001 3.916315,0.7187243 5.130865,1.6621034 1.21455,0.9433791 1.720057,2.1319573 1.722657,2.4863281 a 1.9,1.9 0 0 0 1.914062,1.8867184 1.9,1.9 0 0 0 1.884766,-1.9140622 C 34.754708,7.4226997 33.456281,5.5722373 31.581056,4.1156914 29.710243,2.6625725 27.118803,1.6415988 24.106446,1.6606132 Z M 23.999024,23.47116 c -3.177986,0 -5.634765,2.405568 -5.634765,5.203124 0,1.911812 1.081998,3.2756 2.355469,4.205079 v 5.904297 c 0,3.739077 6.492187,3.736901 6.492187,0 v -5.888672 c 1.288448,-0.913977 2.423828,-2.261318 2.423828,-4.220704 0,-2.815996 -2.483138,-5.172416 -5.621094,-5.203124 a 1.50015,1.50015 0 0 0 -0.01563,0 z m -0.0078,3.001953 c 1.700883,0.02 2.644531,1.164899 2.644531,2.201171 0,1.159731 -0.640648,1.781537 -1.554687,2.205079 a 1.50015,1.50015 0 0 0 -0.869141,1.361328 v 6.542969 c 0,-0.0057 -0.492187,-0.127678 -0.492187,0 v -6.542969 a 1.50015,1.50015 0 0 0 -0.869141,-1.361328 c -0.764015,-0.354231 -1.486328,-1.151118 -1.486328,-2.205079 0,-1.045235 0.906784,-2.196755 2.626953,-2.201171 z" fill="#008055"/>
</svg>
