<svg xmlns="http://www.w3.org/2000/svg" width="48" height="48">
	<path d="m 12.708008,7.4091798 c -1.527422,0 -3.0181394,0.6199878 -3.9160155,1.7285156 C 7.8941163,10.246223 7.6025393,11.610538 7.6025393,12.961914 v 22.527344 c 0,1.421851 0.5158653,2.794785 1.4863282,3.728515 0.9704625,0.93373 2.2959995,1.373047 3.6191405,1.373047 a 2,2 0 0 0 2,-2 2,2 0 0 0 -2,-2 c -0.487958,0 -0.715991,-0.131057 -0.845703,-0.255859 C 11.732593,36.210158 11.60254,36.032637 11.60254,35.489258 V 12.961914 c 0,-0.751854 0.181851,-1.164631 0.296875,-1.30664 0.115023,-0.14201 0.175816,-0.246094 0.808593,-0.246094 h 22.583985 c 0.487958,0 0.715991,0.129104 0.845703,0.253906 0.129712,0.124802 0.259765,0.302324 0.259765,0.845703 v 22.529297 c 0,0.751885 -0.181871,1.162699 -0.296874,1.304687 -0.115004,0.141989 -0.175746,0.248047 -0.808594,0.248047 H 17.788087 a 2,2 0 0 0 -2,2 2,2 0 0 0 2,2 h 17.503906 c 1.527452,0 3.020097,-0.621919 3.917968,-1.730468 0.897872,-1.10855 1.1875,-2.470922 1.1875,-3.822266 V 12.508789 c 0,-1.421851 -0.515865,-2.7947853 -1.486328,-3.7285154 C 37.94067,7.8465435 36.615134,7.4091798 35.291993,7.4091798 Z m 4.65625,14.4902342 a 2.0999999,2.0999999 0 0 0 -2.101562,2.099609 2.0999999,2.0999999 0 0 0 2.101562,2.09961 h 13.273438 a 2.0999999,2.0999999 0 0 0 2.099609,-2.09961 2.0999999,2.0999999 0 0 0 -2.099609,-2.099609 z" fill="#008055"/>
</svg>
