<svg xmlns="http://www.w3.org/2000/svg" width="48" height="48">
	<path d="m 12.708008,7.4101565 c -1.52742,0 -3.0201209,0.6199718 -3.9179692,1.7285154 -0.8978482,1.1085431 -1.1875,2.4728741 -1.1875,3.8242191 v 22.527343 c 0,1.421814 0.5158898,2.79477 1.4863282,3.728516 0.970438,0.933748 2.295999,1.371094 3.619141,1.371094 a 2,2 0 0 0 2,-2 2,2 0 0 0 -2,-2 c -0.487959,0 -0.716017,-0.129123 -0.845704,-0.253906 -0.129686,-0.124784 -0.259765,-0.302299 -0.259765,-0.845704 V 12.962891 c 0,-0.751886 0.181873,-1.164652 0.296875,-1.306641 0.115002,-0.141989 0.175813,-0.246094 0.808594,-0.246094 h 22.583984 c 0.487962,0 0.715993,0.129106 0.845703,0.253906 0.12971,0.124801 0.259766,0.302325 0.259766,0.845704 v 22.527343 c 0,0.751886 -0.181872,1.164653 -0.296876,1.306641 -0.115003,0.141988 -0.175745,0.246094 -0.808593,0.246094 h -17.50586 a 2,2 0 0 0 -2,2 2,2 0 0 0 2,2 h 17.50586 c 1.527452,0 3.020097,-0.619967 3.917969,-1.728516 0.897871,-1.10855 1.1875,-2.472875 1.1875,-3.824219 V 12.509766 c 0,-1.421851 -0.515864,-2.7947885 -1.486329,-3.728516 C 37.940668,7.8475225 36.61513,7.4101565 35.291992,7.4101565 Z m 19.544921,6.9550775 a 2,2 0 0 0 -1.708984,1 l -7.660156,13.275391 -4.763672,-7.822266 a 2,2 0 0 0 -2.748047,-0.667968 2,2 0 0 0 -0.667969,2.748047 l 6.517578,10.703125 a 2.0002,2.0002 0 0 0 3.441406,-0.04102 l 9.345704,-16.195308 a 2,2 0 0 0 -0.734375,-2.732422 2,2 0 0 0 -1.021485,-0.267578 z" fill="#008055"/>
</svg>
