<svg xmlns="http://www.w3.org/2000/svg" width="48" height="48">
	<path d="m 8.6279296,4.1103514 c -1.7204098,0 -3.3962093,0.3729518 -4.7246094,1.4472656 -1.3284001,1.0743138 -2.0761718,2.838651 -2.0761718,4.744141 v 19.539063 c 0,1.807671 0.7794216,3.491686 2.0605468,4.576171 1.2811253,1.084486 2.9635087,1.59375 4.7402344,1.59375 H 21.256836 v 1.708985 c 0,1.03212 -0.238203,1.454228 -0.488281,1.697265 -0.250078,0.243039 -0.711786,0.472657 -1.701172,0.472657 H 10.90918 a 2,2 0 0 0 -2.0000004,2 2,2 0 0 0 2.0000004,2 h 8.158203 c 1.678604,0 3.310902,-0.45928 4.488281,-1.603516 1.177379,-1.144236 1.701172,-2.807666 1.701172,-4.566406 v -3.708985 a 2.0002,2.0002 0 0 0 -2,-2 H 8.6279296 c -1.0145643,0 -1.7346377,-0.289585 -2.15625,-0.646484 C 6.0500673,31.007359 5.8271483,30.607569 5.8271483,29.840821 V 10.301758 c 0,-1.0095006 0.230212,-1.3423423 0.5917969,-1.634766 C 6.7805301,8.3745683 7.5060994,8.1103514 8.6279296,8.1103514 H 39.983399 c 0.889363,0 1.339955,0.2442503 1.65039,0.5664062 0.310436,0.3221559 0.539063,0.8212654 0.539063,1.6250004 v 19.539063 c 0,1.03212 -0.238203,1.454227 -0.488281,1.697265 -0.250079,0.243039 -0.711786,0.472656 -1.701172,0.472656 H 28.715821 a 2,2 0 0 0 -2,2 2,2 0 0 0 2,2 h 11.267578 c 1.678604,0 3.310902,-0.459279 4.488281,-1.603515 1.177379,-1.144236 1.701172,-2.807667 1.701172,-4.566406 V 10.301758 c 0,-1.6401556 -0.538136,-3.2380344 -1.658203,-4.400391 -1.120068,-1.1623566 -2.764783,-1.7910156 -4.53125,-1.7910156 z m 9.5078134,8.0898446 a 1.9,1.9 0 0 0 -1.328126,0.55664 1.9,1.9 0 0 0 0,2.6875 l 4.503907,4.503906 -4.503907,4.50586 a 1.9,1.9 0 0 0 0,2.6875 1.9,1.9 0 0 0 2.6875,0 l 4.503907,-4.50586 4.505859,4.50586 a 1.9,1.9 0 0 0 2.6875,0 1.9,1.9 0 0 0 0,-2.6875 l -4.505859,-4.50586 4.505859,-4.503906 a 1.9,1.9 0 0 0 0,-2.6875 1.9,1.9 0 0 0 -1.359375,-0.55664 1.9,1.9 0 0 0 -1.328125,0.55664 l -4.505859,4.503906 -4.503907,-4.503906 a 1.9,1.9 0 0 0 -1.359374,-0.55664 z m 9.9375,27.689453 a 2,2 0 0 0 -2,2 2,2 0 0 0 2,2 h 7.140624 a 2,2 0 0 0 2,-2 2,2 0 0 0 -2,-2 z" fill="#008055"/>
</svg>
