<svg xmlns="http://www.w3.org/2000/svg" width="48" height="48">
	<path d="m 12.158203,5.0761896 a 2.0999974,2.1000024 65.042186 0 0 -2.021484,1.78125 c -0.8364144,5.4448364 1.599849,10.8867384 6.21875,13.8886714 4.6189,3.001933 10.582664,3.020261 15.21875,0.04492 2.318043,-1.487669 4.095363,-3.589649 5.191406,-6 C 37.861668,12.380682 38.277546,9.6622943 37.875,6.9375177 A 2.0999974,2.1000024 65.042186 0 0 35.490235,5.1660333 2.0999974,2.1000024 65.042186 0 0 33.720703,7.5527521 c 0.565321,3.8265789 -1.158684,7.6138949 -4.414062,9.7031249 -3.255378,2.08923 -7.416846,2.076655 -10.660156,-0.03125 -3.243311,-2.107905 -4.944738,-5.905249 -4.357422,-9.7285155 A 2.0999974,2.1000024 65.042186 0 0 12.53125,5.0996271 2.0999974,2.1000024 65.042186 0 0 12.158203,5.0761896 Z M 2.8886717,6.8867365 A 2.0999999,2.0999999 0 0 0 0.7890624,8.9863459 2.0999999,2.0999999 0 0 0 2.8886717,11.087908 H 7.0058592 A 2.0999999,2.0999999 0 0 0 9.1054686,8.9863459 2.0999999,2.0999999 0 0 0 7.0058592,6.8867365 Z m 38.1074223,0 a 2.0999999,2.0999999 0 0 0 -2.101563,2.0996094 2.0999999,2.0999999 0 0 0 2.101563,2.1015621 h 4.115234 a 2.0999999,2.0999999 0 0 0 2.09961,-2.1015621 2.0999999,2.0999999 0 0 0 -2.09961,-2.0996094 z M 11.925781,18.904314 a 2.0999999,2.0999999 0 0 0 -1.427734,0.615235 l -2.9101565,2.910156 a 2.0999999,2.0999999 0 0 0 0,2.970703 2.0999999,2.0999999 0 0 0 2.9687505,0 l 2.912109,-2.910156 a 2.0999999,2.0999999 0 0 0 0,-2.970703 2.0999999,2.0999999 0 0 0 -1.542969,-0.615235 z m 24.035157,0 a 2.0999999,2.0999999 0 0 0 -1.427735,0.615235 2.0999999,2.0999999 0 0 0 0,2.970703 l 2.910157,2.910156 a 2.0999999,2.0999999 0 0 0 2.96875,0 2.0999999,2.0999999 0 0 0 0,-2.970703 L 37.501953,19.519549 A 2.0999999,2.0999999 0 0 0 35.960938,18.904314 Z M 24,24.181658 a 1.8,1.8 0 0 0 -1.798828,1.800782 v 2.859374 c 0,2.122337 -1.712859,3.525065 -3.310547,3.869141 a 1.80018,1.80018 0 0 0 -1.08789,2.802735 l 4.730468,6.654296 a 1.80018,1.80018 0 0 0 2.933594,0 l 4.732422,-6.654296 a 1.80018,1.80018 0 0 0 -0.859375,-2.736329 c -0.779346,-0.280256 -0.804922,-0.459372 -1.544922,-0.96289 a 1.8,1.8 0 0 0 -2.5,0.474609 1.8,1.8 0 0 0 0.474609,2.5 c -0.01541,-0.01049 0.334005,0.183524 0.371094,0.216797 L 24,38.019549 22.03711,35.255877 c 2.098291,-1.251934 3.763671,-3.480412 3.763671,-6.414063 V 25.98244 A 1.8,1.8 0 0 0 24,24.181658 Z" fill="#008055"/>
</svg>
