<svg xmlns="http://www.w3.org/2000/svg" width="48" height="48">
	<path d="M 24.023438,5.0769043 A 1.80018,1.80018 0 0 0 22.533203,5.8327637 L 17.802734,12.48706 a 1.80018,1.80018 0 0 0 0.857422,2.736329 c 0.779318,0.280256 0.805045,0.459424 1.544922,0.96289 a 1.8,1.8 0 0 0 2.501953,-0.474609 1.8,1.8 0 0 0 -0.476562,-2.501953 c 0.01542,0.01049 -0.333911,-0.18345 -0.371094,-0.216797 L 24,9.9812012 25.962891,12.744873 c -2.098226,1.251953 -3.761719,3.480485 -3.761719,6.414062 V 22.01831 A 1.8,1.8 0 0 0 24,23.817139 1.8,1.8 0 0 0 25.800781,22.01831 v -2.859375 c 0,-2.122339 1.712837,-3.525062 3.310547,-3.86914 A 1.80018,1.80018 0 0 0 30.199219,12.48706 L 25.466797,5.8327637 A 1.80018,1.80018 0 0 0 24.023438,5.0769043 Z M 9.0156248,21.985107 a 2.0999999,2.0999999 0 0 0 -1.4277344,0.615235 2.0999999,2.0999999 0 0 0 0,2.970703 l 2.9101566,2.910156 a 2.0999999,2.0999999 0 0 0 2.970703,0 2.0999999,2.0999999 0 0 0 0,-2.970703 L 10.558594,22.600342 A 2.0999999,2.0999999 0 0 0 9.0156248,21.985107 Z m 29.8554692,0 a 2.0999999,2.0999999 0 0 0 -1.427735,0.615235 l -2.910156,2.910156 a 2.0999999,2.0999999 0 0 0 0,2.970703 2.0999999,2.0999999 0 0 0 2.96875,0 l 2.912109,-2.910156 a 2.0999999,2.0999999 0 0 0 0,-2.970703 2.0999999,2.0999999 0 0 0 -1.542968,-0.615235 z m -14.828125,3.003906 c -2.647939,-0.0076 -5.299145,0.731081 -7.617188,2.21875 -2.318043,1.48767 -4.095364,3.591602 -5.191406,6.001953 -1.096043,2.410351 -1.5099683,5.12874 -1.107422,7.853516 a 2.0999974,2.1000024 65.042186 0 0 2.382812,1.769531 2.0999974,2.1000024 65.042186 0 0 1.769532,-2.384765 c -0.565321,-3.82658 1.158684,-7.613895 4.414062,-9.703125 3.255378,-2.08923 7.418799,-2.078608 10.66211,0.0293 3.24331,2.107904 4.944737,5.907201 4.357422,9.730468 a 2.0999974,2.1000024 65.042186 0 0 1.757812,2.394532 2.0999974,2.1000024 65.042186 0 0 2.392578,-1.75586 C 38.699695,35.698474 36.265384,30.254618 31.646484,27.252685 29.337034,25.751719 26.690907,24.996653 24.042969,24.989013 Z M 2.8906248,36.912842 A 2.0999999,2.0999999 0 0 0 0.78906225,39.012451 2.0999999,2.0999999 0 0 0 2.8906248,41.11206 H 7.0058592 A 2.0999999,2.0999999 0 0 0 9.1054686,39.012451 2.0999999,2.0999999 0 0 0 7.0058592,36.912842 Z m 38.1054692,0 a 2.0999999,2.0999999 0 0 0 -2.09961,2.099609 2.0999999,2.0999999 0 0 0 2.09961,2.099609 h 4.115234 a 2.0999999,2.0999999 0 0 0 2.09961,-2.099609 2.0999999,2.0999999 0 0 0 -2.09961,-2.099609 z" fill="#008055"/>
</svg>
