<svg xmlns="http://www.w3.org/2000/svg" width="48" height="48">
	<path d="m 24.413668,1.8166666 c -4.735634,-0.09174 -9.524499,1.322492 -13.59375,4.326172 -1.1626432,0.858194 -2.2183174,1.810568 -3.1640623,2.839844 -6.6202173,7.2049304 -7.84302701,18.1651104 -2.4960938,26.7519534 0.6132954,0.984205 1.9082633,1.284995 2.8925782,0.671875 0.9842053,-0.613295 1.2849946,-1.908263 0.671875,-2.892578 -4.972976,-7.986292 -2.9794623,-18.404974 4.5898439,-23.9921884 7.569306,-5.587214 18.112637,-4.423545 24.279297,2.6816414 6.16666,7.105186 5.835101,17.710263 -0.761719,24.417969 -6.59682,6.707706 -17.191455,7.213392 -24.398438,1.166015 -0.887958,-0.744724 -2.211351,-0.629342 -2.9570308,0.257813 -0.7460474,0.88825 -0.6306111,2.213144 0.2578125,2.958984 8.8559223,7.431001 21.9875943,6.80296 30.0937503,-1.439453 8.106156,-8.242411 8.513123,-21.382447 0.935547,-30.1132814 -4.262387,-4.911094 -10.260937,-7.516816 -16.34961,-7.634766 z m -9.55664,20.2226564 c -1.159493,2.15e-4 -2.099395,0.940117 -2.09961,2.09961 -8.63e-4,1.160256 0.939354,2.101347 2.09961,2.101562 h 18.685547 c 1.160256,-2.16e-4 2.100472,-0.941307 2.099609,-2.101562 -2.15e-4,-1.159493 -0.940116,-2.099394 -2.099609,-2.09961 z" fill="#008055"/>
</svg>
