<svg xmlns="http://www.w3.org/2000/svg" width="48" height="48">
	<path d="M 24.000976,5.705078 C 22.840721,5.7042149 21.899629,6.6444316 21.899414,7.8046873 V 10.96289 c 2.15e-4,1.160256 0.941306,2.100473 2.101562,2.09961 1.159493,-2.15e-4 2.099395,-0.940117 2.09961,-2.09961 V 7.8046873 C 26.10037,6.6451942 25.160469,5.7052933 24.000976,5.705078 Z m -11.509765,4.744141 c -0.537093,0.01488 -1.048054,0.23506 -1.427735,0.615234 -0.819369,0.819975 -0.819369,2.148775 0,2.96875 l 2.232422,2.232422 c 0.820199,0.820671 2.150504,0.820671 2.970703,0 0.819369,-0.819975 0.819369,-2.148775 0,-2.96875 L 14.032226,11.064453 C 13.624788,10.65653 13.067559,10.434062 12.491211,10.449219 Z m 22.904297,0 c -0.537093,0.01488 -1.048054,0.23506 -1.427735,0.615234 l -2.234375,2.232422 c -0.819369,0.819975 -0.819369,2.148775 0,2.96875 0.820199,0.820671 2.150504,0.820671 2.970703,0 l 2.232422,-2.232422 c 0.819369,-0.819975 0.819369,-2.148775 0,-2.96875 -0.407438,-0.407923 -0.964667,-0.630391 -1.541015,-0.615234 z m -11.609376,4 c -1.542492,0.05789 -3.082251,0.510708 -4.458984,1.378906 -0.917822,0.578799 -1.700079,1.301613 -2.332031,2.125 -1.895855,2.47016 -2.436323,5.836108 -1.224609,8.857422 0.390436,0.973023 1.495247,1.445889 2.46875,1.05664 0.9741,-0.390435 1.447195,-1.496655 1.05664,-2.470703 -0.941917,-2.348598 -0.08179,-5.005694 2.058594,-6.355469 2.140387,-1.349775 4.907652,-0.9812 6.621094,0.88086 1.71344,1.862059 1.850886,4.64895 0.328125,6.669922 -1.522762,2.020971 -4.239618,2.658971 -6.501953,1.52539 -0.938908,-0.472015 -2.082662,-0.09222 -2.552735,0.847657 -0.470424,0.938944 -0.08988,2.081445 0.849609,2.550781 3.880455,1.944366 8.628326,0.829743 11.240235,-2.636719 2.611909,-3.466462 2.372561,-8.337365 -0.566406,-11.53125 -1.836855,-1.996178 -4.415507,-2.994924 -6.986329,-2.898437 z" fill="#008055"/>
</svg>
