<svg xmlns="http://www.w3.org/2000/svg" width="48" height="48">
	<path d="M 24.000976,5.705078 A 2.0999999,2.0999999 0 0 0 21.899414,7.8046873 V 10.96289 a 2.0999999,2.0999999 0 0 0 2.101562,2.09961 2.0999999,2.0999999 0 0 0 2.09961,-2.09961 V 7.8046873 A 2.0999999,2.0999999 0 0 0 24.000976,5.705078 Z m -11.509765,4.744141 a 2.0999999,2.0999999 0 0 0 -1.427735,0.615234 2.0999999,2.0999999 0 0 0 0,2.96875 l 2.232422,2.232422 a 2.0999999,2.0999999 0 0 0 2.970703,0 2.0999999,2.0999999 0 0 0 0,-2.96875 l -2.234375,-2.232422 a 2.0999999,2.0999999 0 0 0 -1.541015,-0.615234 z m 22.904297,0 a 2.0999999,2.0999999 0 0 0 -1.427735,0.615234 l -2.234375,2.232422 a 2.0999999,2.0999999 0 0 0 0,2.96875 2.0999999,2.0999999 0 0 0 2.970703,0 l 2.232422,-2.232422 a 2.0999999,2.0999999 0 0 0 0,-2.96875 2.0999999,2.0999999 0 0 0 -1.541015,-0.615234 z m -11.609376,4 c -1.542492,0.05789 -3.082251,0.510708 -4.458984,1.378906 -0.917822,0.578799 -1.700079,1.301613 -2.332031,2.125 -1.895855,2.47016 -2.436323,5.836108 -1.224609,8.857422 a 1.8999957,1.9000043 84.999678 0 0 2.46875,1.05664 1.8999957,1.9000043 84.999678 0 0 1.05664,-2.470703 c -0.941917,-2.348598 -0.08179,-5.005694 2.058594,-6.355469 2.140387,-1.349775 4.907652,-0.9812 6.621094,0.88086 1.71344,1.862059 1.850886,4.64895 0.328125,6.669922 -1.522762,2.020971 -4.239618,2.658971 -6.501953,1.52539 a 1.8999957,1.9000043 84.999678 0 0 -2.552735,0.847657 1.8999957,1.9000043 84.999678 0 0 0.849609,2.550781 c 3.880455,1.944366 8.628326,0.829743 11.240235,-2.636719 2.611909,-3.466462 2.372561,-8.337365 -0.566406,-11.53125 -1.836855,-1.996178 -4.415507,-2.994924 -6.986329,-2.898437 z M 7.803711,21.90039 A 2.0999999,2.0999999 0 0 0 5.7041016,24 2.0999999,2.0999999 0 0 0 7.803711,26.099609 h 3.158203 A 2.0999999,2.0999999 0 0 0 13.061523,24 2.0999999,2.0999999 0 0 0 10.961914,21.90039 Z m 29.234375,0 A 2.0999999,2.0999999 0 0 0 34.938476,24 a 2.0999999,2.0999999 0 0 0 2.09961,2.099609 h 3.158203 A 2.0999999,2.0999999 0 0 0 42.295898,24 2.0999999,2.0999999 0 0 0 40.196289,21.90039 Z m -22.314454,9.220704 a 2.0999999,2.0999999 0 0 0 -1.427734,0.613281 l -2.232422,2.232422 a 2.0999999,2.0999999 0 0 0 0,2.970703 2.0999999,2.0999999 0 0 0 2.96875,0 l 2.234375,-2.232422 a 2.0999999,2.0999999 0 0 0 0,-2.970703 2.0999999,2.0999999 0 0 0 -1.542969,-0.613281 z m 18.439454,0 a 2.0999999,2.0999999 0 0 0 -1.429688,0.613281 2.0999999,2.0999999 0 0 0 0,2.970703 l 2.234375,2.232422 a 2.0999999,2.0999999 0 0 0 2.96875,0 2.0999999,2.0999999 0 0 0 0,-2.970703 l -2.232422,-2.232422 a 2.0999999,2.0999999 0 0 0 -1.541015,-0.613281 z m -9.16211,3.816406 a 2.0999999,2.0999999 0 0 0 -2.101562,2.101562 v 3.15625 a 2.0999999,2.0999999 0 0 0 2.101562,2.09961 2.0999999,2.0999999 0 0 0 2.09961,-2.09961 v -3.15625 A 2.0999999,2.0999999 0 0 0 24.000976,34.9375 Z" fill="#008055"/>
</svg>
