<svg xmlns="http://www.w3.org/2000/svg" width="48" height="48">
	<path d="m 23.999023,6.904297 a 0.89999998,0.89999998 0 0 0 -0.898437,0.9003906 v 3.1562504 a 0.89999998,0.89999998 0 0 0 0.898437,0.90039 0.89999998,0.89999998 0 0 0 0.900391,-0.90039 V 7.8046876 A 0.89999998,0.89999998 0 0 0 23.999023,6.904297 Z m -11.46289,4.744141 a 0.89999998,0.89999998 0 0 0 -0.625,0.261718 0.89999998,0.89999998 0 0 0 0,1.273438 l 2.232422,2.232422 a 0.89999998,0.89999998 0 0 0 1.273437,0 0.89999998,0.89999998 0 0 0 0,-1.271485 L 13.18457,11.910156 a 0.89999998,0.89999998 0 0 0 -0.648437,-0.261718 z m 22.904296,0 a 0.89999998,0.89999998 0 0 0 -0.625,0.261718 l -2.232421,2.234375 a 0.89999998,0.89999998 0 0 0 0,1.271485 0.89999998,0.89999998 0 0 0 1.271484,0 l 2.234375,-2.232422 a 0.89999998,0.89999998 0 0 0 0,-1.273438 0.89999998,0.89999998 0 0 0 -0.648438,-0.261718 z m -11.273437,3.892578 c -1.660356,-0.0072 -3.332191,0.505278 -4.751953,1.560547 -0.811293,0.60301 -1.475378,1.335898 -1.984375,2.15039 -1.526992,2.443477 -1.650931,5.620124 -0.107422,8.230469 a 0.7999982,0.80000183 84.999678 0 0 1.095703,0.28125 0.7999982,0.80000183 84.999678 0 0 0.28125,-1.095703 c -1.648211,-2.787415 -0.929053,-6.353412 1.669922,-8.285156 2.598977,-1.931745 6.218165,-1.590772 8.412109,0.791015 2.193945,2.381788 2.235948,6.017347 0.09766,8.449219 -2.138292,2.431871 -5.747682,2.855518 -8.390624,0.984375 a 0.7999982,0.80000183 84.999678 0 0 -1.117188,0.191406 0.7999982,0.80000183 84.999678 0 0 0.191407,1.115235 c 3.300066,2.336372 7.847632,1.802143 10.517577,-1.234375 2.669945,-3.036518 2.61834,-7.615864 -0.121093,-10.589844 -1.540935,-1.672863 -3.65823,-2.539605 -5.792973,-2.548828 z M 7.803711,23.09961 A 0.89999998,0.89999998 0 0 0 6.9052735,24 0.89999998,0.89999998 0 0 0 7.803711,24.898438 h 3.158203 A 0.89999998,0.89999998 0 0 0 11.862305,24 0.89999998,0.89999998 0 0 0 10.961914,23.09961 Z m 29.234375,0 A 0.89999998,0.89999998 0 0 0 36.137695,24 a 0.89999998,0.89999998 0 0 0 0.900391,0.898438 h 3.158203 A 0.89999998,0.89999998 0 0 0 41.094726,24 0.89999998,0.89999998 0 0 0 40.196289,23.09961 Z m -22.267578,9.21875 a 0.89999998,0.89999998 0 0 0 -0.626953,0.263671 l -2.232422,2.232422 a 0.89999998,0.89999998 0 0 0 0,1.273438 0.89999998,0.89999998 0 0 0 1.273437,0 l 2.232422,-2.232422 a 0.89999998,0.89999998 0 0 0 0,-1.273438 0.89999998,0.89999998 0 0 0 -0.646484,-0.263671 z m 18.4375,0 a 0.89999998,0.89999998 0 0 0 -0.625,0.263671 0.89999998,0.89999998 0 0 0 0,1.273438 l 2.232421,2.232422 a 0.89999998,0.89999998 0 0 0 1.273438,0 0.89999998,0.89999998 0 0 0 0,-1.273438 L 33.854492,32.582031 A 0.89999998,0.89999998 0 0 0 33.208008,32.31836 Z m -9.208985,3.818359 a 0.89999998,0.89999998 0 0 0 -0.898437,0.900391 v 3.158203 a 0.89999998,0.89999998 0 0 0 0.898437,0.90039 0.89999998,0.89999998 0 0 0 0.900391,-0.90039 V 37.03711 a 0.89999998,0.89999998 0 0 0 -0.900391,-0.900391 z" fill="#008055"/>
</svg>
