<svg xmlns="http://www.w3.org/2000/svg" width="48" height="48">
	<path d="m 23.694791,8.6368327 c -0.487764,-0.01425 -0.970105,0.0518 -1.429688,0.167968 l 0.06445,-0.01563 L 11.8276,11.031359 a 1.8,1.8 0 0 0 -1.384765,2.136719 1.8,1.8 0 0 0 2.136718,1.384765 l 10.501953,-2.242187 a 1.80018,1.80018 0 0 0 0.06445,-0.01563 c 0.408505,-0.10326 0.544721,-0.04845 0.552734,-0.04492 0.008,0.0035 0.05437,-0.01984 0.197266,0.316406 a 1.80018,1.80018 0 0 0 0.0059,0.01172 l 2.492187,5.74414 c 0.347161,0.848338 0.834494,1.696893 1.646485,2.335938 0.81199,0.639044 1.87051,0.960177 2.980469,1.005859 l 11.314453,0.564453 c 0.630667,0.03646 1.177605,0.04374 1.746093,-0.05078 0.573573,-0.09536 1.282213,-0.326617 1.808594,-0.964844 0.526382,-0.638226 0.616398,-1.455231 0.558594,-2.035156 -0.0578,-0.579924 -0.216705,-1.065652 -0.414062,-1.601562 a 1.80018,1.80018 0 0 0 -0.01172,-0.03125 l -1.533203,-3.941407 a 1.80018,1.80018 0 0 0 -0.05273,-0.121093 c -0.329805,-0.690425 -0.69678,-1.411427 -1.416015,-2.003907 -0.719236,-0.592479 -1.591905,-0.869817 -2.580078,-1.050781 a 1.80018,1.80018 0 0 0 -0.02734,-0.0059 L 30.411588,8.7501137 a 1.8,1.8 0 0 0 -2.072266,1.4785153 1.8,1.8 0 0 0 1.478516,2.072266 l 9.974609,1.667969 c 0.718266,0.131536 0.890081,0.246439 0.939453,0.287109 0.04779,0.03937 0.180629,0.212984 0.441406,0.751953 l 1.41211,3.626953 c -0.02771,-0.0014 -0.02595,0.0017 -0.05469,0 a 1.80018,1.80018 0 0 0 -0.01563,-0.002 L 31.185025,18.068473 a 1.80018,1.80018 0 0 0 -0.01563,-0.002 c -0.581151,-0.02392 -0.759772,-0.126076 -0.902344,-0.238281 -0.142572,-0.112206 -0.326709,-0.340678 -0.542968,-0.869141 a 1.80018,1.80018 0 0 0 -0.01367,-0.03516 l -2.5,-5.765625 -0.002,-0.0039 C 26.809372,10.217644 26.097207,9.3721247 25.149869,8.9551917 24.675529,8.7464297 24.182555,8.6510807 23.694791,8.6368327 Z M 7.7787755,12.088004 a 1.80018,1.80018 0 0 0 -1.6035156,0.970703 l -4.4375,8.560547 a 1.8,1.8 0 0 0 0.7695313,2.425782 1.8,1.8 0 0 0 2.4277343,-0.769532 L 5.974088,21.269645 v 10.439453 c -0.00426,2.17235 1.472323,4.295272 3.7050784,4.835938 a 1.80018,1.80018 0 0 0 0.017578,0.0039 l 11.5507806,2.681641 c 1.460181,0.360972 2.933866,-0.03217 3.869141,-0.84961 0.935275,-0.817438 1.412109,-1.917819 1.412109,-3.070312 v -14.60351 a 1.8,1.8 0 0 0 -1.800781,-1.800781 1.8,1.8 0 0 0 -1.800781,1.800781 v 14.603516 c 0,0.04351 -0.0767,0.269363 -0.179688,0.359375 -0.102987,0.09001 -0.152476,0.185633 -0.634766,0.06641 a 1.80018,1.80018 0 0 0 -0.02539,-0.0059 L 10.526822,33.045036 C 9.7213324,32.849985 9.5708528,32.609379 9.5736974,31.714957 a 1.80018,1.80018 0 0 0 0,-0.0059 V 13.888786 A 1.80018,1.80018 0 0 0 7.7787755,12.088004 Z M 42.407681,23.480583 A 1.8,1.8 0 0 0 40.6069,25.281364 v 5.445312 c 0,0.420354 0.123371,0.406457 -0.523437,0.623047 l -11.933594,3.679688 a 1.8,1.8 0 0 0 -1.189453,2.25 1.8,1.8 0 0 0 2.251953,1.191406 l 11.972656,-3.69336 a 1.80018,1.80018 0 0 0 0.04102,-0.01367 c 1.836612,-0.61501 2.982422,-2.415463 2.982422,-4.03711 v -5.445312 a 1.8,1.8 0 0 0 -1.800782,-1.800781 z" fill="#008055"/>
</svg>
