<svg xmlns="http://www.w3.org/2000/svg" width="48" height="48">
	<path d="m 24.081583,5.4911252 c -0.485796,-0.01419 -0.967855,0.05267 -1.425782,0.167969 h -0.0059 l -10.4375,2.226562 a 1.8,1.8 0 0 0 -1.384766,2.1367188 1.8,1.8 0 0 0 2.136719,1.384766 L 23.466307,9.1649532 a 1.80018,1.80018 0 0 0 0.06641,-0.01563 c 0.408529,-0.103263 0.544714,-0.04845 0.552734,-0.04492 0.008,0.0035 0.05435,-0.01986 0.197266,0.316407 a 1.80018,1.80018 0 0 0 0.0059,0.01172 l 2.490234,5.7441398 c 0.347142,0.848323 0.836461,1.696879 1.648438,2.335938 0.811976,0.639058 1.870511,0.960177 2.980469,1.005859 l 11.3125,0.564453 c 0.631565,0.03656 1.176971,0.04384 1.746093,-0.05078 0.573575,-0.09536 1.282221,-0.3266 1.808594,-0.964844 0.526373,-0.638244 0.618353,-1.45525 0.560547,-2.035156 -0.05781,-0.579907 -0.216721,-1.065664 -0.414063,-1.601563 a 1.80018,1.80018 0 0 0 -0.01172,-0.03125 l -1.535157,-3.939453 a 1.80018,1.80018 0 0 0 -0.05273,-0.123047 C 44.492019,9.6463982 44.125059,8.9254012 43.405806,8.3329212 42.686553,7.7404412 41.815881,7.4631022 40.827681,7.2821402 a 1.80018,1.80018 0 0 0 -0.02734,-0.0059 L 30.798379,5.6044062 a 1.8,1.8 0 0 0 -2.072265,1.478516 1.8,1.8 0 0 0 1.478515,2.072266 l 9.97461,1.6679678 c 0.7183,0.131538 0.888128,0.24644 0.9375,0.28711 0.04779,0.03937 0.182568,0.212938 0.443359,0.751953 l 1.410157,3.626953 c -0.02766,-0.0014 -0.02601,0.0017 -0.05469,0 a 1.80018,1.80018 0 0 0 -0.01563,-0.002 L 31.571817,14.922766 a 1.80018,1.80018 0 0 0 -0.01758,-0.002 c -0.581144,-0.02392 -0.757842,-0.12609 -0.900391,-0.238281 -0.142548,-0.112193 -0.326711,-0.340664 -0.542969,-0.869141 a 1.80018,1.80018 0 0 0 -0.01367,-0.03516 L 27.595254,8.0125592 c -0.398787,-0.938329 -1.111868,-1.785605 -2.060547,-2.203125 -0.47434,-0.20876 -0.96536,-0.304111 -1.453125,-0.31836 z M 7.5210358,9.0438602 a 1.80018,1.80018 0 0 0 -1.605469,0.9726558 l -4.564453,8.816406 a 1.8,1.8 0 0 0 0.769531,2.425781 1.8,1.8 0 0 0 2.425781,-0.771484 l 1.167969,-2.255859 v 4.105468 a 1.8,1.8 0 0 0 1.798828,1.800782 1.8,1.8 0 0 0 1.800782,-1.800782 V 10.842688 A 1.80018,1.80018 0 0 0 7.5210358,9.0438602 Z M 25.112833,15.760656 a 1.8,1.8 0 0 0 -1.798828,1.800782 v 14.603515 c 0,0.0435 -0.0767,0.271313 -0.179688,0.361329 -0.102992,0.09001 -0.154408,0.183683 -0.636719,0.06445 a 1.80018,1.80018 0 0 0 -0.01563,-0.0039 l -2.740234,-0.65039 a 1.8,1.8 0 0 0 -2.167969,1.33789 1.8,1.8 0 0 0 1.335938,2.166016 l 2.740234,0.650391 -0.01563,-0.0059 c 1.460189,0.360969 2.933857,-0.03217 3.869141,-0.849609 0.935283,-0.817436 1.410156,-1.917814 1.410156,-3.070313 V 17.561438 a 1.8,1.8 0 0 0 -1.800781,-1.800782 z m 17.68164,4.574219 a 1.8,1.8 0 0 0 -1.800781,1.800781 v 5.445313 c 0,0.417008 0.112292,0.409729 -0.517578,0.621094 -0.005,0.0017 -0.0028,0.0022 -0.0078,0.0039 l -11.279296,3.582031 a 1.8,1.8 0 0 0 -1.169922,2.261719 1.8,1.8 0 0 0 2.259765,1.169922 l 11.306628,-3.591791 a 1.80018,1.80018 0 0 0 0.02734,-0.0098 c 1.83659,-0.615007 2.980468,-2.415404 2.980468,-4.037109 v -5.445313 a 1.8,1.8 0 0 0 -1.798828,-1.800781 z m -38.2226562,4.34375 a 1.9,1.9 0 0 0 -1.328125,0.556641 1.9,1.9 0 0 0 0,2.6875 l 5.671875,5.671875 -5.671875,5.671875 a 1.9,1.9 0 0 0 0,2.6875 1.9,1.9 0 0 0 2.6875,0 l 5.6718752,-5.671875 5.671875,5.671875 a 1.9,1.9 0 0 0 2.685547,0 1.9,1.9 0 0 0 0,-2.6875 l -5.671875,-5.671875 5.671875,-5.671875 a 1.9,1.9 0 0 0 0,-2.6875 1.9,1.9 0 0 0 -1.357422,-0.556641 1.9,1.9 0 0 0 -1.328125,0.556641 l -5.671875,5.671875 -5.6718752,-5.671875 a 1.9,1.9 0 0 0 -1.359375,-0.556641 z" fill="#008055"/>
</svg>
