<svg xmlns="http://www.w3.org/2000/svg" width="48" height="48">
	<path d="M 23.982166,4.5283845 C 23.494401,4.5141358 23.01011,4.582138 22.550525,4.6983064 l 0.06641,-0.015625 -10.503906,2.242187 A 1.8,1.8 0 0 0 10.728263,9.0596344 1.8,1.8 0 0 0 12.864982,10.4444 L 23.366935,8.2041654 a 1.80018,1.80018 0 0 0 0.06641,-0.01563 c 0.408529,-0.103263 0.544714,-0.04845 0.552734,-0.04492 0.008,0.0035 0.05435,-0.02182 0.197266,0.314454 a 1.80018,1.80018 0 0 0 0.0059,0.01367 l 2.503906,5.7773426 -0.01367,-0.03516 c 0.347142,0.848323 0.836462,1.696879 1.648438,2.335937 0.80805,0.635968 1.860756,0.957739 2.964844,1.00586 h 0.0059 l 11.322266,0.566406 -0.01367,-0.002 c 0.63787,0.03731 1.186191,0.04653 1.759765,-0.04883 0.573575,-0.09536 1.282221,-0.328553 1.808594,-0.966797 0.526373,-0.638244 0.618354,-1.45525 0.560547,-2.035156 -0.05781,-0.579907 -0.216721,-1.065664 -0.414063,-1.601563 a 1.80018,1.80018 0 0 0 -0.01172,-0.03125 L 44.775135,9.4971344 A 1.80018,1.80018 0 0 0 44.7224,9.3740874 c -0.329803,-0.69043 -0.696763,-1.411426 -1.416015,-2.003906 -0.719254,-0.59248 -1.589926,-0.867866 -2.578126,-1.048828 a 1.80018,1.80018 0 0 0 -0.02734,-0.0059 L 30.698963,4.6436189 a 1.8,1.8 0 0 0 -2.072266,1.4785155 1.8,1.8 0 0 0 1.478516,2.072266 l 9.974609,1.667968 c 0.718301,0.131539 0.888128,0.2464396 0.9375,0.2871096 0.04789,0.03945 0.181525,0.212324 0.443359,0.753906 l 1.410157,3.623047 c -0.02766,-0.0014 -0.026,0.0017 -0.05469,0 a 1.80018,1.80018 0 0 0 -0.01563,0 L 31.4724,13.960025 a 1.80018,1.80018 0 0 0 -0.01758,0 c -0.581144,-0.02392 -0.757842,-0.12609 -0.900391,-0.238281 -0.142548,-0.112193 -0.32671,-0.342617 -0.542968,-0.871094 a 1.80018,1.80018 0 0 0 -0.01367,-0.0332 l -2.50586,-5.7792966 0.0039,0.01367 C 27.097051,6.1134934 26.38397,5.2662172 25.435291,4.848697 24.960951,4.6399369 24.469931,4.5426333 23.982166,4.5283845 Z M 7.6208372,8.0147124 A 1.80018,1.80018 0 0 0 6.0153685,8.9854154 L 1.4509154,17.801822 a 1.8,1.8 0 0 0 0.7714843,2.427734 1.8,1.8 0 0 0 2.4257813,-0.771484 l 1.1660156,-2.251954 v 4.101563 a 1.8,1.8 0 0 0 1.8007812,1.800781 1.8,1.8 0 0 0 1.7988278,-1.800781 V 9.8135404 A 1.80018,1.80018 0 0 0 7.6208372,8.0147124 Z M 25.058338,15.036197 a 1.8,1.8 0 0 0 -1.798829,1.800781 v 16.771484 a 1.8,1.8 0 0 0 1.798829,1.800782 1.8,1.8 0 0 0 1.800781,-1.800782 V 16.836978 a 1.8,1.8 0 0 0 -1.800781,-1.800781 z m 17.636718,4.33789 a 1.8,1.8 0 0 0 -1.800781,1.800781 v 5.445313 c 0,0.420295 0.121419,0.406454 -0.52539,0.623047 a 1.80018,1.80018 0 0 0 -0.02539,0.0098 L 29.00365,31.25104 a 1.8,1.8 0 0 0 -1.099609,2.296875 1.8,1.8 0 0 0 2.296875,1.097657 l 11.3125,-3.988282 c 1.83659,-0.615007 2.980469,-2.415404 2.980469,-4.037109 v -5.445313 a 1.8,1.8 0 0 0 -1.798829,-1.800781 z m -30.582031,3.402344 c -0.813737,0.01418 -1.633988,0.128902 -2.4453124,0.351563 a 1.9002898,1.8997101 85.000521 0 0 -1.330078,2.333984 1.9002898,1.8997101 85.000521 0 0 2.3359374,1.330078 c 2.685697,-0.737065 5.506724,0.41533 6.912109,2.820312 1.405385,2.404983 1.022327,5.428898 -0.9375,7.408204 a 1.9002898,1.8997101 85.000521 0 0 0.01563,2.6875 1.9002898,1.8997101 85.000521 0 0 0.171875,0.152343 1.9002898,1.8997101 85.000521 0 0 2.513672,-0.166015 c 3.157496,-3.188878 3.781968,-8.126988 1.517578,-12.001953 -1.839815,-3.148409 -5.227713,-4.977467 -8.753906,-4.916016 z m -6.6601565,3.214844 a 1.9002898,1.8997101 85.000521 0 0 -1.3261719,0.5625 c -3.15749576,3.188878 -3.78001416,8.126987 -1.515625,12.001953 2.2643891,3.874964 6.870202,5.751978 11.1972664,4.564453 a 1.9002898,1.8997101 85.000521 0 0 1.330078,-2.333984 1.9002898,1.8997101 85.000521 0 0 -2.333985,-1.330079 C 10.118734,40.193185 7.2957529,39.040789 5.8903685,36.635806 4.484984,34.230823 4.8680418,31.206908 6.8278685,29.227603 a 1.9002898,1.8997101 85.000521 0 0 -0.015625,-2.6875 1.9002898,1.8997101 85.000521 0 0 -0.171875,-0.152344 1.9002898,1.8997101 85.000521 0 0 -1.1875,-0.396484 z" fill="#008055"/>
</svg>
