<svg xmlns="http://www.w3.org/2000/svg" width="48" height="48">
	<path d="m 24.081303,5.7843904 c -0.487765,-0.01425 -0.970102,0.0518 -1.429687,0.167968 l -10.4375,2.226563 A 1.8,1.8 0 0 0 10.82935,10.31564 1.8,1.8 0 0 0 12.966069,11.700405 L 23.468022,9.4582184 a 1.80018,1.80018 0 0 0 0.06445,-0.01563 c 0.40853,-0.103264 0.544714,-0.04845 0.552735,-0.04492 0.008,0.0035 0.05435,-0.01986 0.197265,0.316406 a 1.80018,1.80018 0 0 0 0.0059,0.01172 l 2.492187,5.7441396 c 0.347142,0.848324 0.834508,1.696879 1.646484,2.335938 0.811977,0.639058 1.870513,0.960177 2.980469,1.005859 l 11.314453,0.564453 c 0.630676,0.03646 1.177603,0.04374 1.746094,-0.05078 0.573574,-0.09536 1.282221,-0.3266 1.808594,-0.964844 0.526373,-0.638244 0.6164,-1.455249 0.558594,-2.035156 -0.05781,-0.579906 -0.216721,-1.065664 -0.414063,-1.601562 a 1.80018,1.80018 0 0 0 -0.01172,-0.03125 l -1.533203,-3.939453 a 1.80018,1.80018 0 0 0 -0.05273,-0.123047 C 44.493728,9.9396624 44.126768,9.2186654 43.407515,8.6261854 42.688262,8.0337054 41.815637,7.7563674 40.827437,7.5754044 a 1.80018,1.80018 0 0 0 -0.02734,-0.0059 L 30.7981,5.8976714 a 1.8,1.8 0 0 0 -2.072265,1.478515 1.8,1.8 0 0 0 1.478515,2.072266 l 9.97461,1.6679686 c 0.7183,0.131537 0.890081,0.246439 0.939453,0.287109 0.04755,0.03917 0.181372,0.215697 0.439453,0.748047 l 1.414062,3.630859 c -0.02771,-0.0014 -0.02595,0.0017 -0.05469,0 a 1.80018,1.80018 0 0 0 -0.01563,-0.002 L 31.571538,15.21603 a 1.80018,1.80018 0 0 0 -0.01563,-0.002 C 30.974769,15.190159 30.796118,15.087987 30.653569,14.975796 30.51102,14.863604 30.326858,14.635132 30.1106,14.106655 a 1.80018,1.80018 0 0 0 -0.01367,-0.03516 l -2.5,-5.7656246 -0.002,-0.0039 c -0.39911,-0.936745 -1.111255,-1.782289 -2.058593,-2.199219 -0.47434,-0.20876 -0.967314,-0.304111 -1.455079,-0.318359 z M 7.5207563,9.3371244 A 1.80018,1.80018 0 0 0 5.9172407,10.30978 L 1.3508344,19.126186 A 1.8,1.8 0 0 0 2.1223188,21.551968 1.8,1.8 0 0 0 4.5481,20.780483 L 5.7141157,18.52853 v 7.175781 A 1.8,1.8 0 0 0 7.5148969,27.50314 1.8,1.8 0 0 0 9.3156782,25.704311 V 11.135952 A 1.80018,1.80018 0 0 0 7.5207563,9.3371244 Z M 25.114506,16.053921 a 1.8,1.8 0 0 0 -1.800781,1.800781 v 14.603516 c 0,0.0435 -0.0767,0.271313 -0.179687,0.361328 -0.102992,0.09001 -0.152455,0.183684 -0.634766,0.06445 a 1.80018,1.80018 0 0 0 -0.02148,-0.0039 l -2.464844,-0.578125 a 1.8,1.8 0 0 0 -2.162109,1.34375 1.8,1.8 0 0 0 1.341797,2.162109 l 2.449218,0.572266 c 1.457561,0.357551 2.927758,-0.03562 3.861328,-0.851563 0.935284,-0.817435 1.41211,-1.917814 1.41211,-3.070312 V 17.854702 A 1.8,1.8 0 0 0 25.11451,16.053921 Z m 17.679688,4.574219 a 1.8,1.8 0 0 0 -1.800781,1.800781 v 5.447265 c 0,0.419314 0.120238,0.406076 -0.521485,0.621094 0,0 -0.002,0.002 -0.002,0.002 l -11.074219,3.40625 a 1.8,1.8 0 0 0 -1.189453,2.248047 1.8,1.8 0 0 0 2.25,1.191406 l 11.115235,-3.419922 a 1.80018,1.80018 0 0 0 0.04102,-0.01367 c 1.836591,-0.615007 2.982422,-2.413451 2.982422,-4.035157 v -5.447265 a 1.8,1.8 0 0 0 -1.800781,-1.800781 z m -23.285156,1.689453 a 2,2 0 0 0 -1.708985,1 L 10.309819,36.296108 5.6652876,28.669155 A 2,2 0 0 0 2.9172407,28.00314 2,2 0 0 0 2.2492719,30.751186 l 6.4003907,10.507813 a 2.0002,2.0002 0 0 0 3.4394534,-0.04102 l 9.175781,-15.90039 a 2,2 0 0 0 -0.732422,-2.732422 2,2 0 0 0 -1.023437,-0.267578 z" fill="#008055"/>
</svg>
