<svg xmlns="http://www.w3.org/2000/svg" width="48" height="48">
	<path d="M 6.9882812 6.3085938 C 5.2115556 6.3085938 3.5291721 6.8178579 2.2480469 7.9023438 C 0.96692165 8.9868296 0.1875 10.670844 0.1875 12.478516 L 0.1875 35.5 C 0.1875 37.40549 0.93527179 39.169827 2.2636719 40.244141 C 3.592072 41.318454 5.2678715 41.691406 6.9882812 41.691406 L 37.556641 41.691406 C 39.361506 41.691406 40.975764 40.816821 41.857422 39.683594 C 42.73908 38.550366 43.118134 37.374569 43.583984 36.289062 L 47.431641 27.792969 A 2.0002 2.0002 0 0 0 47.46875 27.703125 C 48.163924 25.941491 47.786821 23.833068 46.511719 22.570312 C 45.236616 21.307557 43.431282 20.798828 41.419922 20.798828 L 18.289062 20.798828 C 16.551166 20.798828 14.974353 21.518703 13.953125 22.568359 C 12.932557 23.617337 12.344797 24.826418 11.707031 26.080078 C 11.706619 26.080889 11.705491 26.08122 11.705078 26.082031 L 8.2382812 32.654297 A 2 2 0 0 0 9.0742188 35.357422 A 2 2 0 0 0 11.777344 34.521484 L 15.255859 27.921875 A 2.0002 2.0002 0 0 0 15.269531 27.896484 C 15.894369 26.668303 16.406676 25.782573 16.820312 25.357422 C 17.233949 24.93227 17.427319 24.798828 18.289062 24.798828 L 41.419922 24.798828 C 42.708252 24.798828 43.467973 25.185037 43.697266 25.412109 C 43.925473 25.638107 43.98824 25.620416 43.748047 26.230469 L 39.923828 34.675781 A 2.0002 2.0002 0 0 0 39.908203 34.710938 C 39.390894 35.916351 39.004227 36.837035 38.701172 37.226562 C 38.398117 37.61609 38.407605 37.691406 37.556641 37.691406 L 6.9882812 37.691406 C 5.866451 37.691406 5.1408818 37.425236 4.7792969 37.132812 C 4.417712 36.840389 4.1875 36.5095 4.1875 35.5 L 4.1875 12.478516 C 4.1875 11.711767 4.4123721 11.311977 4.8339844 10.955078 C 5.2555966 10.598179 5.9737169 10.308594 6.9882812 10.308594 L 25.740234 10.308594 A 2 2 0 0 0 27.740234 8.3085938 A 2 2 0 0 0 25.740234 6.3085938 L 6.9882812 6.3085938 z " fill="#008055"/>
</svg>
