<svg xmlns="http://www.w3.org/2000/svg" width="48" height="48">
	<path d="m 13.899413,1.9218749 a 1.5,1.5 0 0 0 -1.5,1.5 v 1.7324218 a 1.5,1.5 0 0 0 1.5,1.5 1.5,1.5 0 0 0 1.5,-1.5 V 3.4218749 a 1.5,1.5 0 0 0 -1.5,-1.5 z M 7.5634763,4.5234373 A 1.5,1.5 0 0 0 6.55957,4.9628905 a 1.5,1.5 0 0 0 0,2.1210937 l 1.2246094,1.2246094 a 1.5,1.5 0 0 0 2.1210938,0 1.5,1.5 0 0 0 0,-2.1210937 L 8.6826169,4.9628905 A 1.5,1.5 0 0 0 7.5634763,4.5234373 Z m 12.5566397,0 a 1.5,1.5 0 0 0 -1.001953,0.4394532 l -1.224609,1.2246094 a 1.5,1.5 0 0 0 0,2.1210937 1.5,1.5 0 0 0 2.121094,0 l 1.224609,-1.2246094 a 1.5,1.5 0 0 0 0,-2.1210937 1.5,1.5 0 0 0 -1.119141,-0.4394532 z m -6.673828,2.7011719 c -0.885412,0.067094 -1.759627,0.3713697 -2.51953,0.9257813 -0.506603,0.3696077 -0.923433,0.8240817 -1.2441411,1.328125 -0.9621214,1.5121315 -1.059004,3.4905675 -0.1171875,5.1191405 a 1.2999939,1.3000061 84.997242 0 0 0.8593746,0.623047 1.2999939,1.3000061 84.997242 0 0 0.533204,0.914062 c 2.037893,1.462556 4.880812,1.149049 6.55078,-0.722656 1.669969,-1.871704 1.657192,-4.72929 -0.02734,-6.5878904 C 16.42861,7.6625928 14.921975,7.1127852 13.446288,7.2246092 Z m 0.207032,2.5820313 c 0.694172,-0.055449 1.39834,0.2056365 1.902343,0.7617185 0.806406,0.889733 0.811148,2.21728 0.01172,3.113281 -0.799429,0.896002 -2.118187,1.039986 -3.09375,0.339844 A 1.2999939,1.3000061 84.997242 0 0 11.981445,13.80664 1.2999939,1.3000061 84.997242 0 0 11.815429,13.296875 C 11.214285,12.257388 11.4899,10.959692 12.45996,10.251953 12.823733,9.9865512 13.236816,9.8399098 13.65332,9.8066405 Z M 5.0205075,10.800781 a 1.5,1.5 0 0 0 -1.5,1.5 1.5,1.5 0 0 0 1.5,1.5 h 1.7304688 a 1.5,1.5 0 0 0 1.5,-1.5 1.5,1.5 0 0 0 -1.5,-1.5 z m 16.0273435,0 a 1.5,1.5 0 0 0 -1.5,1.5 1.5,1.5 0 0 0 1.5,1.5 h 1.730469 a 1.5,1.5 0 0 0 1.5,-1.5 1.5,1.5 0 0 0 -1.5,-1.5 z m 13.041015,3.244141 c -1.952462,0.02824 -3.658559,0.481696 -5.091796,1.230468 -2.866476,1.497545 -4.540914,3.980223 -5.513672,5.978516 a 1.90019,1.90019 0 0 0 -0.002,0.002 c -0.675971,1.396081 -0.668581,3.141429 0.255859,4.291016 0.92444,1.149587 2.295963,1.521484 3.617188,1.521484 H 39.37207 c 1.033638,0 1.775663,0.294851 2.21875,0.669922 0.443086,0.375071 0.68164,0.806844 0.68164,1.599609 v 10.648438 c 0,1.031917 -0.243158,1.398968 -0.628906,1.710937 -0.385748,0.31197 -1.134658,0.580078 -2.271484,0.580078 H 8.0146482 c -0.9112726,0 -1.3919762,-0.254488 -1.7226563,-0.597656 C 5.9613118,41.336519 5.7255856,40.810977 5.7255856,39.986328 V 29.33789 c 0,-1.050252 0.2462774,-1.50202 0.5195313,-1.767578 0.2732539,-0.265558 0.7628975,-0.501953 1.7695313,-0.501953 H 19.690429 a 1.9,1.9 0 0 0 1.900391,-1.90039 1.9,1.9 0 0 0 -1.900391,-1.898438 H 8.0146482 c -1.6613764,0 -3.2637702,0.452527 -4.4179688,1.574219 -1.1541986,1.121692 -1.6699218,2.753593 -1.6699218,4.49414 v 10.648438 c 0,1.619251 0.5290837,3.188721 1.6289062,4.330078 1.0998224,1.141357 2.7144469,1.761719 4.4589844,1.761719 H 39.37207 c 1.705473,0 3.355928,-0.371001 4.660156,-1.425782 1.304227,-1.05478 2.041016,-2.782933 2.041016,-4.666015 l -0.002,-10.648438 c 0,-1.781635 -0.765752,-3.433721 -2.02539,-4.5 -1.259593,-1.066279 -2.916121,-1.568359 -4.673782,-1.568359 H 27.354492 c -0.296902,0 -0.478375,-0.05555 -0.578126,-0.09375 0.01944,-0.04188 0.03082,-0.06853 0.123047,-0.259766 l 0.002,-0.0039 c 0.755588,-1.550914 2.001735,-3.299124 3.855469,-4.267578 1.855173,-0.969205 4.419015,-1.353236 8.509766,0.257812 a 1.9,1.9 0 0 0 2.464844,-1.072265 1.9,1.9 0 0 0 -1.072266,-2.462891 C 38.240284,14.414561 36.04133,14.01668 34.088866,14.044922 Z m -25.3007804,1.8125 a 1.5,1.5 0 0 0 -1.0039062,0.4375 L 6.55957,17.519531 a 1.5,1.5 0 0 0 0,2.121094 1.5,1.5 0 0 0 2.1230469,0 l 1.2226563,-1.22461 a 1.5,1.5 0 0 0 0,-2.121093 1.5,1.5 0 0 0 -1.1171876,-0.4375 z m 10.1074214,0 a 1.5,1.5 0 0 0 -1.001953,0.4375 1.5,1.5 0 0 0 0,2.121093 l 1.224609,1.22461 a 1.5,1.5 0 0 0 2.121094,0 1.5,1.5 0 0 0 0,-2.121094 l -1.224609,-1.224609 a 1.5,1.5 0 0 0 -1.119141,-0.4375 z m -4.996094,2.091797 a 1.5,1.5 0 0 0 -1.5,1.5 v 1.730468 a 1.5,1.5 0 0 0 1.5,1.5 1.5,1.5 0 0 0 1.5,-1.5 v -1.730468 a 1.5,1.5 0 0 0 -1.5,-1.5 z M 9.7900388,29.533203 A 1.7,1.7 0 0 0 8.09082,31.232422 1.7,1.7 0 0 0 9.7900388,32.933593 h 1.5078122 a 1.7,1.7 0 0 0 1.699219,-1.701171 1.7,1.7 0 0 0 -1.699219,-1.699219 z m 6.7246092,0 a 1.7,1.7 0 0 0 -1.699219,1.699219 1.7,1.7 0 0 0 1.699219,1.701171 h 1.507812 a 1.7,1.7 0 0 0 1.699219,-1.701171 1.7,1.7 0 0 0 -1.699219,-1.699219 z m 6.724609,0 a 1.7,1.7 0 0 0 -1.699219,1.699219 1.7,1.7 0 0 0 1.699219,1.701171 h 1.507813 a 1.7,1.7 0 0 0 1.699218,-1.701171 1.7,1.7 0 0 0 -1.699218,-1.699219 z m 6.724609,0 a 1.7,1.7 0 0 0 -1.699218,1.699219 1.7,1.7 0 0 0 1.699218,1.701171 h 1.50586 a 1.7,1.7 0 0 0 1.701172,-1.701171 1.7,1.7 0 0 0 -1.701172,-1.699219 z m 6.72461,0 a 1.7,1.7 0 0 0 -1.699219,1.699219 1.7,1.7 0 0 0 1.699219,1.701171 h 1.505859 a 1.7,1.7 0 0 0 1.701172,-1.701171 1.7,1.7 0 0 0 -1.701172,-1.699219 z M 9.7900388,36.378906 A 1.7,1.7 0 0 0 8.09082,38.078125 1.7,1.7 0 0 0 9.7900388,39.777343 h 1.5078122 a 1.7,1.7 0 0 0 1.699219,-1.699218 1.7,1.7 0 0 0 -1.699219,-1.699219 z m 6.7246092,0.01367 a 1.7,1.7 0 0 0 -1.699219,1.699219 1.7,1.7 0 0 0 1.699219,1.701172 h 14.957031 a 1.7,1.7 0 0 0 1.699219,-1.701172 1.7,1.7 0 0 0 -1.699219,-1.699219 z m 20.173828,0.01367 a 1.7,1.7 0 0 0 -1.699219,1.699219 1.7,1.7 0 0 0 1.699219,1.701171 h 1.505859 a 1.7,1.7 0 0 0 1.701172,-1.701171 1.7,1.7 0 0 0 -1.701172,-1.699219 z" fill="#008055"/>
</svg>
