<svg xmlns="http://www.w3.org/2000/svg" width="48" height="48">
	<path d="m 23.856456,2.831625 c -8.384874,0.1894851 -13.796875,6.048038 -13.796875,13.25 a 0.80008001,0.80008001 0 0 0 0,0.01172 c 0.08751,5.949155 2.967803,9.622938 5.927734,13.451172 2.959932,3.828233 6.042923,7.866026 7.095703,14.943359 a 0.80000001,0.80000001 0 0 0 0.908204,0.673828 0.80000001,0.80000001 0 0 0 0.673828,-0.910156 C 23.557631,36.80691 20.218484,32.401491 17.25294,28.566 14.288548,24.731996 11.741258,21.522889 11.659191,16.075766 11.662054,9.658967 16.216457,4.6072643 23.885753,4.4312344 31.085924,4.3198497 36.340831,9.426973 36.340831,16.081625 c 0,5.242841 -2.402508,8.469228 -5.40625,12.296875 -2.081816,2.652845 -4.060742,5.30289 -5.785156,8.650391 a 0.80000001,0.80000001 0 0 0 0.345703,1.078125 0.80000001,0.80000001 0 0 0 1.076172,-0.345704 c 1.653665,-3.210159 3.556683,-5.761376 5.623047,-8.394531 3.019897,-3.848233 5.746093,-7.544357 5.746093,-13.285156 0,-7.509328 -6.095096,-13.3734953 -14.078125,-13.25 a 0.80008001,0.80008001 0 0 0 -0.0059,0 z m 0.5,6.777344 c -1.406858,-0.106486 -2.8496,0.281842 -4.054688,1.185547 -0.602544,0.451852 -1.101214,0.999427 -1.490234,1.609375 -1.16706,1.829841 -1.340081,4.219102 -0.304687,6.251953 a 0.80781383,0.79226056 85.000953 0 0 1.068359,0.345703 0.80781383,0.79226056 85.000953 0 0 0.337891,-1.085938 c -1.024574,-2.011605 -0.463084,-4.475606 1.330078,-5.820312 1.793161,-1.344706 4.263221,-1.157468 5.839843,0.439453 1.576624,1.596921 1.776748,4.114748 0.470704,5.953125 -1.306046,1.838377 -3.716301,2.429255 -5.695313,1.398437 a 0.80781383,0.79226056 85.000953 0 0 -1.064453,0.351563 0.80781383,0.79226056 85.000953 0 0 0.347656,1.085937 c 2.667358,1.389361 5.940141,0.585798 7.695313,-1.884765 1.755171,-2.470564 1.48467,-5.894218 -0.640625,-8.046875 -1.062648,-1.076329 -2.432986,-1.676718 -3.839844,-1.783203 z" fill="#008055"/>
</svg>
