<svg xmlns="http://www.w3.org/2000/svg" width="48" height="48">
	<path d="m 33.705491,1.7249116 c -2.77468,-0.157022 -5.65136,0.7486899 -7.984375,3.0820312 L 7.3285381,23.201474 c -5.5175536,5.518433 -4.4586824,14.208498 0.3359376,19.003907 4.7527413,4.753406 13.2844913,5.97149 18.9921873,0.345703 l 0.0039,-0.0059 14.089843,-14.091797 a 1.9,1.9 0 0 0 0,-2.685546 1.9,1.9 0 0 0 -2.6875,0 L 23.988694,39.844052 C 19.82499,43.948005 13.743881,42.914167 10.350023,39.519834 6.9982424,36.167502 6.1157918,29.789842 10.016038,25.888974 L 28.408616,7.4944428 c 3.185972,-3.1864175 7.425103,-2.3370231 9.976563,0.214844 2.796645,2.7971312 3.211703,6.9811722 0.214844,9.9785152 L 24.086351,32.203427 c -2.010565,1.97324 -4.689634,1.490291 -6.091797,0.08789 -1.360074,-1.360119 -1.766233,-4.243228 0.08594,-6.095703 l 10.207029,-10.20703 a 1.9,1.9 0 0 0 0,-2.6875 1.9,1.9 0 0 0 -2.6875,0.002 L 15.392991,23.510068 c -3.373829,3.374385 -2.979663,8.574929 -0.08594,11.46875 2.848756,2.849238 7.993281,3.338812 11.457031,-0.07813 l 0.0059,-0.0059 14.517579,-14.519532 C 45.725863,15.936246 45.171834,9.1216548 41.072679,5.0217866 39.152709,3.10151 36.480172,1.8819335 33.705491,1.7249116 Z" fill="#008055"/>
</svg>
