<svg xmlns="http://www.w3.org/2000/svg" width="48" height="48">
	<path d="m 10.632812,6.1395823 c -1.54567,0 -3.0720563,0.5095772 -4.1855465,1.5820312 C 5.3337753,8.7940676 4.736328,10.369306 4.736328,12.03216 v 17.123047 c 0,1.600991 0.3453873,3.186467 1.375,4.458984 1.0296127,1.272518 2.73122,1.986329 4.521484,1.986329 h 2.404297 a 2.0999999,2.0999999 0 0 0 2.09961,-2.09961 2.0999999,2.0999999 0 0 0 -2.09961,-2.099609 h -2.404297 c -0.849956,0 -1.047567,-0.172255 -1.255859,-0.429688 C 9.168661,30.714181 8.9375,30.127416 8.9375,29.155207 V 12.03216 c 0,-0.741445 0.192741,-1.062585 0.423828,-1.285156 0.231087,-0.222571 0.603625,-0.408203 1.271484,-0.408203 h 26.753907 c 0.882601,0 1.177028,0.196052 1.332031,0.355469 0.155003,0.159414 0.345703,0.492259 0.345703,1.33789 v 17.123047 c 0,0.863179 -0.24694,1.444114 -0.517578,1.763672 -0.270638,0.319558 -0.540502,0.482422 -1.160156,0.482422 h -2.90625 a 2.0999999,2.0999999 0 0 0 -2.09961,2.099609 2.0999999,2.0999999 0 0 0 2.09961,2.09961 h 2.90625 c 1.712095,0 3.330354,-0.746809 4.365234,-1.96875 1.03488,-1.221943 1.511719,-2.812742 1.511719,-4.476563 V 12.03216 c 0,-1.569668 -0.433653,-3.1327647 -1.535156,-4.2656246 C 40.627011,6.6336755 39.031907,6.1395823 37.386719,6.1395823 Z M 28.867187,24.852473 c -0.13538,-0.0087 -0.271674,-0.0074 -0.40625,0.002 -0.5383,0.0373 -1.059072,0.211756 -1.478515,0.470703 l -9.271485,5.443359 c -0.810504,0.43801 -1.68787,1.266812 -1.714843,2.523438 -0.02697,1.256626 0.857124,2.159637 1.689453,2.621094 l 9.287109,5.453124 c 0,0 0.002,0 0.002,0 0.822742,0.507292 2.015422,0.722999 3.017578,0.164063 1.002767,-0.559276 1.449219,-1.68944 1.449219,-2.658203 v -6.679688 a 1.9,1.9 0 0 0 -1.90039,-1.90039 1.9,1.9 0 0 0 -1.900391,1.90039 v 5.160157 l -6.820313,-4.003907 7.267578,-4.265625 a 1.9,1.9 0 0 0 1.453126,0.677735 1.9,1.9 0 0 0 1.90039,-1.900391 c 0,-0.962809 -0.41469,-2.064231 -1.396484,-2.650391 -0.368173,-0.219809 -0.771594,-0.331381 -1.177735,-0.357421 z" fill="#008055"/>
</svg>
