<svg xmlns="http://www.w3.org/2000/svg" width="48" height="48">
	<path d="m 10.613281,6.1393715 c -1.645192,0 -3.240295,0.494089 -4.341797,1.626953 C 5.169983,8.8991885 4.736328,10.462287 4.736328,12.03195 v 17.123047 c 0,1.663832 0.476839,3.254627 1.511719,4.476562 1.03488,1.221935 2.653152,1.96875 4.365234,1.96875 h 2.90625 a 2.0999999,2.0999999 0 0 0 2.09961,-2.099609 2.0999999,2.0999999 0 0 0 -2.09961,-2.099609 h -2.90625 c -0.619617,0 -0.88951,-0.162857 -1.160156,-0.482422 C 9.18248,30.599104 8.935547,30.018164 8.935547,29.154997 V 12.03195 c 0,-0.845637 0.190705,-1.178479 0.345703,-1.337891 0.154998,-0.159411 0.449423,-0.353515 1.332031,-0.353515 h 26.753907 c 0.667908,0 1.040417,0.183694 1.271484,0.40625 0.231067,0.222555 0.423828,0.543685 0.423828,1.285156 v 17.123047 c 0,0.972209 -0.231161,1.558973 -0.439453,1.816406 -0.208292,0.257433 -0.405917,0.429688 -1.255859,0.429688 h -2.404297 a 2.0999999,2.0999999 0 0 0 -2.09961,2.099609 2.0999999,2.0999999 0 0 0 2.09961,2.099609 h 2.404297 c 1.790257,0 3.489923,-0.713811 4.519531,-1.986328 1.029608,-1.272517 1.376953,-2.857994 1.376953,-4.458984 V 12.03195 c 0,-1.662829 -0.597454,-3.2380785 -1.710938,-4.3105475 -1.113483,-1.072469 -2.639855,-1.582031 -4.185546,-1.582031 z m 8.572266,18.7089845 c -0.399854,0.01737 -0.801693,0.118398 -1.177734,0.328125 -1.002777,0.559273 -1.449219,1.689447 -1.449219,2.658203 v 6.677735 a 1.9,1.9 0 0 0 1.90039,1.90039 1.9,1.9 0 0 0 1.898438,-1.90039 v -5.160157 l 6.822266,4.00586 -7.267578,4.265625 a 1.9,1.9 0 0 0 -1.455079,-0.677735 1.9,1.9 0 0 0 -1.90039,1.900391 c 0,0.962815 0.414678,2.064245 1.396484,2.650391 0.981806,0.586145 2.223602,0.402628 3.0625,-0.115235 L 30.28711,35.9382 c 0.810909,-0.437746 1.687372,-1.266309 1.714843,-2.523438 0.02747,-1.257128 -0.855159,-2.161597 -1.6875,-2.623047 l -9.287109,-5.453124 c 0,0 -0.002,0 -0.002,0 -0.411124,-0.253475 -0.915335,-0.433365 -1.441407,-0.480469 -0.131678,-0.01179 -0.265152,-0.01555 -0.398437,-0.0098 z" fill="#008055"/>
</svg>
