<svg xmlns="http://www.w3.org/2000/svg" width="48" height="48">
	<path d="m 15.234375,1.9235397 a 1.9,1.9 0 0 0 -1.900391,1.9003907 1.9,1.9 0 0 0 1.900391,1.8984374 h 1.335937 V 17.075884 h -1 a 1.9,1.9 0 0 0 -1.898437,1.90039 1.9,1.9 0 0 0 1.898437,1.898438 h 5.800782 a 1.9,1.9 0 0 0 1.898437,-1.898438 1.9,1.9 0 0 0 -1.898437,-1.90039 h -1 V 3.8239304 A 1.9,1.9 0 0 0 20.367194,3.708696 1.9,1.9 0 0 0 18.47071,1.9235397 Z m -4.621094,8.4335943 c -1.645192,0 -3.240295,0.492136 -4.341797,1.625 -1.101502,1.132864 -1.535156,2.695962 -1.535156,4.265625 v 17.123047 c 0,1.663804 0.476845,3.256564 1.511719,4.478515 1.034874,1.221952 2.653125,1.96875 4.365234,1.96875 h 2.908203 a 2.0999999,2.0999999 0 0 0 2.09961,-2.099609 2.0999999,2.0999999 0 0 0 -2.09961,-2.101562 h -2.908203 c -0.619691,0 -0.88953,-0.162874 -1.160156,-0.482422 C 9.182499,34.814929 8.9375,34.234001 8.9375,33.370806 V 16.247759 c 0,-0.845637 0.190705,-1.178479 0.345703,-1.337891 0.154998,-0.159411 0.44747,-0.353515 1.330078,-0.353515 h 1.517578 a 2.0999999,2.0999999 0 0 0 2.099609,-2.09961 2.0999999,2.0999999 0 0 0 -2.099609,-2.099609 z m 14.046875,0 a 2.0999999,2.0999999 0 0 0 -2.099609,2.099609 2.0999999,2.0999999 0 0 0 2.099609,2.09961 H 37.36914 c 0.667839,0 1.038443,0.183677 1.269532,0.40625 0.231089,0.222572 0.425781,0.543714 0.425781,1.285156 v 17.123047 c 0,0.972209 -0.233114,1.560926 -0.441406,1.818359 -0.208292,0.257433 -0.403964,0.427735 -1.253907,0.427735 h -2.40625 a 2.0999999,2.0999999 0 0 0 -2.099609,2.101562 2.0999999,2.0999999 0 0 0 2.099609,2.099609 h 2.40625 c 1.790258,0 3.489924,-0.715764 4.519532,-1.988281 1.029608,-1.272517 1.375,-2.857994 1.375,-4.458984 V 16.247759 c 0,-1.662858 -0.597452,-3.236142 -1.710938,-4.308594 -1.113486,-1.072452 -2.637932,-1.582031 -4.183594,-1.582031 z M 19.1875,29.064165 c -0.400408,0.01736 -0.803653,0.118392 -1.179688,0.328125 -1.00276,0.559288 -1.449218,1.6914 -1.449218,2.660156 v 6.677735 a 1.9,1.9 0 0 0 1.90039,1.90039 1.9,1.9 0 0 0 1.900391,-1.90039 v -5.160157 l 6.820312,4.003907 -7.267578,4.265625 a 1.9,1.9 0 0 0 -1.453125,-0.677735 1.9,1.9 0 0 0 -1.90039,1.900391 c 0,0.962815 0.414697,2.064231 1.396484,2.650391 0.981786,0.586159 2.223617,0.402681 3.0625,-0.115235 l 9.330078,-5.476562 -0.06055,0.0332 c 0.81091,-0.437746 1.689326,-1.266309 1.716797,-2.523438 0.02747,-1.257128 -0.855159,-2.159644 -1.6875,-2.621093 L 21.027341,29.55635 c -0.411392,-0.253988 -0.914682,-0.435255 -1.441407,-0.482422 -0.131681,-0.01179 -0.264968,-0.01555 -0.398437,-0.0098 z" fill="#008055"/>
</svg>
