<svg xmlns="http://www.w3.org/2000/svg" width="48" height="48">
	<path d="m 26.472656,1.9204167 a 1.9,1.9 0 0 0 -1.900391,1.8984375 1.9,1.9 0 0 0 1.900391,1.9003909 h 1.335937 V 17.07276 h -1 a 1.9,1.9 0 0 0 -1.90039,1.900391 1.9,1.9 0 0 0 1.90039,1.898437 h 5.798829 a 1.9,1.9 0 0 0 1.90039,-1.898437 1.9,1.9 0 0 0 -1.90039,-1.900391 H 31.609375 V 3.8188542 A 1.9,1.9 0 0 0 31.605468,3.7036199 1.9,1.9 0 0 0 29.708984,1.9204167 Z M 10.632812,10.352057 c -1.545661,0 -3.072061,0.509579 -4.185547,1.582031 -1.113486,1.072453 -1.710937,2.647689 -1.710937,4.310547 v 17.123047 c 0,1.600991 0.345392,3.186468 1.375,4.458985 1.029608,1.272517 2.731227,1.988281 4.521484,1.988281 h 2.404297 a 2.0999999,2.0999999 0 0 0 2.099609,-2.101563 2.0999999,2.0999999 0 0 0 -2.099609,-2.099609 h -2.404297 c -0.849942,0 -1.047567,-0.170301 -1.255859,-0.427734 C 9.168661,34.928609 8.9375,34.339892 8.9375,33.367682 V 16.244635 c 0,-0.741442 0.192739,-1.062583 0.423828,-1.285156 0.231089,-0.222573 0.603645,-0.40625 1.271484,-0.40625 h 12.708984 a 2.0999999,2.0999999 0 0 0 2.09961,-2.099609 2.0999999,2.0999999 0 0 0 -2.09961,-2.101563 z m 25.238281,0 a 2.0999999,2.0999999 0 0 0 -2.101562,2.101563 2.0999999,2.0999999 0 0 0 2.101562,2.099609 h 1.515625 c 0.882608,0 1.177033,0.194104 1.332032,0.353516 0.154998,0.159411 0.345703,0.492253 0.345703,1.33789 v 17.123047 c 0,0.863168 -0.246933,1.444107 -0.517578,1.763672 -0.270646,0.319565 -0.540539,0.482422 -1.160157,0.482422 h -2.90625 a 2.0999999,2.0999999 0 0 0 -2.101562,2.101562 2.0999999,2.0999999 0 0 0 2.101562,2.09961 h 2.90625 c 1.712083,0 3.330355,-0.746815 4.365235,-1.96875 1.034879,-1.221935 1.511719,-2.814683 1.511719,-4.478516 V 16.244635 c 0,-1.569663 -0.433655,-3.132761 -1.535157,-4.265625 -1.101502,-1.132863 -2.696605,-1.626953 -4.341797,-1.626953 z m -7.001953,18.71875 c -0.135563,-0.0089 -0.271673,-0.0074 -0.40625,0.002 -0.538304,0.0373 -1.059074,0.213699 -1.478515,0.472657 l 0.03711,-0.02344 -9.306641,5.464844 c -0.0012,6.22e-4 -0.0028,0.0013 -0.0039,0.002 -0.809946,0.438233 -1.685459,1.268095 -1.712891,2.523438 -0.02745,1.256007 0.85386,2.157316 1.685547,2.61914 0,0 0.002,0.002 0.002,0.002 l 9.289063,5.453125 c 0,0 0.002,0 0.002,0 0.822733,0.507309 2.015429,0.721057 3.017578,0.16211 1.002761,-0.559288 1.449219,-1.689447 1.449219,-2.658204 v -6.677734 a 1.9,1.9 0 0 0 -1.900391,-1.90039 1.9,1.9 0 0 0 -1.90039,1.90039 v 5.158203 l -6.820313,-4.003906 7.267578,-4.265625 a 1.9,1.9 0 0 0 1.455079,0.679688 1.9,1.9 0 0 0 1.898437,-1.900391 c 0,-0.962815 -0.412745,-2.064231 -1.394531,-2.650391 -0.36817,-0.21981 -0.772997,-0.332786 -1.179688,-0.359375 z" fill="#008055"/>
</svg>
