<svg xmlns="http://www.w3.org/2000/svg" width="48" height="48">
	<path d="m 30.096341,34.402604 c 0.152183,0.0099 0.305382,0.0086 0.457031,-0.002 0.606598,-0.04228 1.197232,-0.241318 1.685547,-0.541016 l 11.884767,-6.9375 c 0.95839,-0.514897 1.9405,-1.45616 1.970703,-2.855469 0.03018,-1.398227 -0.954554,-2.417356 -1.939453,-2.960937 0,0 -0.002,-0.002 -0.002,-0.002 L 32.250642,14.156416 c -0.0017,-10e-4 -0.0042,-9.1e-4 -0.0059,-0.002 -0.959403,-0.586731 -2.294287,-0.815155 -3.412109,-0.195313 -1.119808,0.620944 -1.636719,1.889202 -1.636719,3.019532 v 8.496093 a 2,2 0 0 0 2,2 2,2 0 0 0 2,-2 v -7.302593 l 9.994178,5.832031 -10.259767,5.988281 a 2,2 0 0 0 -1.734375,-1.005859 2,2 0 0 0 -2,2 c 0,1.124034 0.482432,2.364171 1.580078,3.015625 0.411618,0.244295 0.863763,0.370618 1.320313,0.400391 z m -5.84961,-8.203125 A 2.2,2.2 0 0 0 26.44595,24.00026 2.2,2.2 0 0 0 24.246731,21.799088 H 4.104153 a 2.2,2.2 0 0 0 -2.199218,2.201172 2.2,2.2 0 0 0 2.199218,2.199219 z" fill="#008055"/>
</svg>
