<svg xmlns="http://www.w3.org/2000/svg" width="48" height="48">
	<path d="m 24,1.949219 c -5.217322,0 -9.90039,4.0539528 -9.90039,9.742188 v 9.25 c 0,5.786285 4.930763,9.841809 9.90039,9.841796 4.90822,-2.5e-5 9.858614,-3.909763 9.900391,-9.828125 v -0.0078 -9.255859 c 0,-5.977581 -5.006485,-9.7422 -9.900391,-9.7422 z m 0,3.8007812 c 3.046074,0 6.09961,2.0282728 6.09961,5.9414068 v 9.236328 C 30.07263,24.750213 26.92024,26.982407 24,26.982422 c -2.858832,7e-6 -6.099609,-2.466121 -6.099609,-6.041015 v -9.25 C 17.900391,8.01378 20.650643,5.7500002 24,5.7500002 Z M 21.554688,8.908203 a 1.9,1.9 0 0 0 -1.900391,1.898438 1.9,1.9 0 0 0 1.900391,1.90039 h 4.890625 a 1.9,1.9 0 0 0 1.90039,-1.90039 1.9,1.9 0 0 0 -1.90039,-1.898438 z m 0,5.535157 a 1.9,1.9 0 0 0 -1.900391,1.898437 1.9,1.9 0 0 0 1.900391,1.900391 h 4.890625 a 1.9,1.9 0 0 0 1.90039,-1.900391 1.9,1.9 0 0 0 -1.90039,-1.898437 z m 0,5.533203 a 1.9,1.9 0 0 0 -1.900391,1.90039 1.9,1.9 0 0 0 1.900391,1.900391 h 4.890625 a 1.9,1.9 0 0 0 1.90039,-1.900391 1.9,1.9 0 0 0 -1.90039,-1.90039 z m -12.044922,0.11914 a 1.9,1.9 0 0 0 -1.900391,1.900391 c 0,7.976754 6.315258,14.174868 14.484375,15.042969 v 2.941406 c 0,1.050286 -0.244317,1.503963 -0.517578,1.769531 -0.273261,0.265569 -0.764868,0.5 -1.771484,0.5 h -3.984375 a 1.9,1.9 0 0 0 -1.898438,1.900391 1.9,1.9 0 0 0 1.898438,1.90039 h 3.984375 c 1.661373,0 3.265725,-0.454465 4.419922,-1.576171 1.154196,-1.121707 1.669922,-2.753567 1.669922,-4.494141 v -4.666016 a 1.90019,1.90019 0 0 0 -1.898438,-1.90039 C 16.694824,33.403056 11.410157,28.472502 11.410157,21.996094 A 1.9,1.9 0 0 0 9.509766,20.095703 Z m 28.980469,0 a 1.9,1.9 0 0 0 -1.900391,1.900391 c 0,3.099189 -1.143625,6.024132 -3.287109,8.017578 -2.11878,1.970482 -3.274408,2.340441 -4.701172,2.943359 a 1.9,1.9 0 0 0 -1.009766,2.488282 1.9,1.9 0 0 0 2.488282,1.011718 c 1.291595,-0.545799 3.305947,-1.330858 5.810546,-3.660156 3.001856,-2.791734 4.5,-6.76351 4.5,-10.800781 a 1.9,1.9 0 0 0 -1.90039,-1.900391 z m -9.544922,22.138672 a 1.9,1.9 0 0 0 -1.898438,1.900391 1.9,1.9 0 0 0 1.898438,1.900391 h 3.728516 a 1.9,1.9 0 0 0 1.90039,-1.900391 1.9,1.9 0 0 0 -1.90039,-1.900391 z" fill="#008055"/>
</svg>
