<svg xmlns="http://www.w3.org/2000/svg" width="48" height="48">
	<path d="m 8.6279293,5.7763675 c -1.7054491,0 -3.3578821,0.371007 -4.662109,1.425781 -1.304227,1.054774 -2.0390625,2.782922 -2.0390625,4.6660155 v 19.748047 a 1.9,1.9 0 0 0 1.9003905,1.898437 1.9,1.9 0 0 0 1.9003909,-1.898437 V 11.868164 c 0,-1.031906 0.2431481,-1.398961 0.6289061,-1.710937 C 6.7422032,9.8452505 7.4911392,9.5771485 8.6279293,9.5771485 H 39.983398 c 0.911286,0 1.391978,0.25449 1.722656,0.5976565 0.330679,0.343167 0.566407,0.868708 0.566407,1.693359 v 19.539063 c 0,1.050248 -0.244304,1.503945 -0.517579,1.769531 -0.273273,0.265585 -0.764886,0.5 -1.771484,0.5 h -1.990234 c -1.327482,0 -2.518589,0.503079 -3.335938,1.166015 -0.817349,0.662937 -1.321252,1.407939 -1.746094,2.001954 -0.424841,0.594014 -0.771056,1.037185 -1.048828,1.263671 -0.277771,0.226486 -0.424748,0.314454 -0.925781,0.314454 H 18.049804 c -0.542111,0 -0.727764,-0.100997 -1.027343,-0.335938 C 16.722882,37.851973 16.363315,37.406553 15.920898,36.813477 15.478481,36.2204 14.952632,35.478135 14.118164,34.823242 13.283696,34.168349 12.086985,33.676758 10.74707,33.676758 H 7.8466792 a 1.9,1.9 0 0 0 -1.90039,1.90039 1.9,1.9 0 0 0 1.90039,1.900391 H 10.74707 c 0.540955,0 0.726093,0.101048 1.025391,0.335938 0.299297,0.234889 0.658978,0.680137 1.101562,1.273437 0.442584,0.5933 0.967736,1.335394 1.802735,1.990234 0.834998,0.65484 2.032663,1.146485 3.373046,1.146485 h 12.886719 c 1.324302,0 2.512677,-0.506626 3.326172,-1.169922 0.813495,-0.663295 1.314624,-1.405687 1.738281,-1.998047 0.423658,-0.59236 0.769148,-1.034875 1.048828,-1.261719 0.279681,-0.226844 0.433982,-0.316406 0.94336,-0.316406 h 1.990234 c 1.661393,0 3.265738,-0.454458 4.419922,-1.576172 1.154184,-1.121715 1.669922,-2.753588 1.669922,-4.49414 V 11.868164 c 0,-1.619248 -0.531036,-3.1887195 -1.63086,-4.3300785 -1.099823,-1.141358 -2.71444,-1.761718 -4.458984,-1.761718 z M 13.21582,10.975586 a 1.9,1.9 0 0 0 -1.900391,1.900391 v 5.86914 a 1.9,1.9 0 0 0 1.900391,1.900391 1.9,1.9 0 0 0 1.898438,-1.900391 v -5.86914 A 1.9,1.9 0 0 0 13.21582,10.975586 Z m 7.189453,0 a 1.9,1.9 0 0 0 -1.900391,1.900391 v 5.86914 a 1.9,1.9 0 0 0 1.900391,1.900391 1.9,1.9 0 0 0 1.900391,-1.900391 v -5.86914 a 1.9,1.9 0 0 0 -1.900391,-1.900391 z m 7.189453,0 a 1.9,1.9 0 0 0 -1.90039,1.900391 v 5.86914 a 1.9,1.9 0 0 0 1.90039,1.900391 1.9,1.9 0 0 0 1.900391,-1.900391 v -5.86914 a 1.9,1.9 0 0 0 -1.900391,-1.900391 z m 7.189453,0 a 1.9,1.9 0 0 0 -1.90039,1.900391 v 5.86914 a 1.9,1.9 0 0 0 1.90039,1.900391 1.9,1.9 0 0 0 1.900391,-1.900391 v -5.86914 a 1.9,1.9 0 0 0 -1.900391,-1.900391 z" fill="#008055"/>
</svg>
