<svg xmlns="http://www.w3.org/2000/svg" width="48" height="48">
	<path d="m 8.9609376,4.2050782 c -1.7337059,0 -3.3346378,0.680548 -4.3105469,1.8867187 C 3.6744815,7.297968 3.3339844,8.8202904 3.3339844,10.386719 v 27.785156 c 0,1.606726 0.5711,3.100207 1.6269531,4.117188 1.0558531,1.01698 2.5081299,1.505859 4.0000001,1.505859 A 1.8,1.8 0 0 0 10.759766,41.994141 1.8,1.8 0 0 0 8.9609376,40.19336 c -0.73943,0 -1.2024313,-0.209553 -1.5019532,-0.498047 C 7.1594625,39.406818 6.9335938,38.98885 6.9335938,38.171875 V 10.386719 c 0,-1.0274718 0.2436842,-1.695146 0.515625,-2.0312502 C 7.7211597,8.0193647 8.0332435,7.8046876 8.9609376,7.8046876 l 30.0800784,0.00195 c 0.73945,0 1.200477,0.2095525 1.5,0.498047 0.299523,0.2884943 0.525391,0.706463 0.525391,1.5234375 V 37.613282 c 0,1.027471 -0.24173,1.695146 -0.513672,2.03125 -0.271942,0.336103 -0.584005,0.550781 -1.511719,0.550781 l -24.927735,-0.002 a 1.8,1.8 0 0 0 -1.798828,1.800781 1.8,1.8 0 0 0 1.798828,1.800781 h 24.927735 c 1.733717,0 3.334631,-0.680547 4.310547,-1.886718 0.975916,-1.206173 1.314453,-2.728494 1.314453,-4.294922 V 9.8281251 c 0,-1.6067255 -0.571094,-3.1002068 -1.626953,-4.1171875 C 41.983204,4.6939569 40.532896,4.2050782 39.041016,4.2050782 Z M 30.628907,15.433594 c -2.034683,0 -3.865483,1.059305 -5.06836,2.644531 -1.202877,1.585227 -1.857422,3.687093 -1.857422,6.027344 0,4.703881 2.990245,8.460938 6.925782,8.460938 2.007337,0 3.804899,-0.989747 4.908203,-2.498047 1.103304,-1.5083 1.607422,-3.454684 1.607422,-5.583985 a 1.70017,1.70017 0 0 0 -1.699219,-1.701171 h -3.117188 a 1.7,1.7 0 0 0 -1.699218,1.701171 1.7,1.7 0 0 0 1.699218,1.699219 h 1.199219 c -0.168679,0.76187 -0.405347,1.427147 -0.734375,1.876953 -0.553371,0.7565 -1.1665,1.105469 -2.164062,1.105469 -1.774463,0 -3.525391,-1.687827 -3.525391,-5.060547 0,-1.697949 0.490093,-3.081882 1.166016,-3.972656 0.675923,-0.890774 1.456058,-1.298828 2.359375,-1.298828 0.903475,0 1.685394,0.40804 2.361328,1.298828 a 1.7,1.7 0 0 0 2.382812,0.326172 1.7,1.7 0 0 0 0.326172,-2.38086 c -1.202866,-1.585212 -3.035587,-2.644531 -5.070312,-2.644531 z m -14.386719,0.02539 c -1.39559,-0.0021 -2.815139,0.404915 -3.962891,1.335937 -1.147752,0.931022 -1.943359,2.454584 -1.943359,4.201172 a 1.699995,1.699995 0 0 0 1.701171,1.701172 1.699995,1.699995 0 0 0 1.699219,-1.701172 c 0,-0.818012 0.255397,-1.213206 0.683594,-1.560547 0.428198,-0.34734 1.110732,-0.57723 1.816407,-0.576172 0.705675,0.0011 1.390175,0.232687 1.820312,0.582032 0.430137,0.349344 0.683594,0.745268 0.683594,1.554687 0,0.794321 -0.196372,1.170567 -0.646484,1.666016 -0.450115,0.495448 -1.225431,1.023096 -2.181641,1.611328 -1.912422,1.176465 -4.611091,2.689461 -5.876954,5.916016 a 1.700165,1.700165 0 0 0 1.582032,2.322265 h 9.171875 a 1.699995,1.699995 0 0 0 1.699219,-1.701172 1.699995,1.699995 0 0 0 -1.699219,-1.699219 h -5.871094 c 0.797923,-0.700449 1.73827,-1.302199 2.777344,-1.941406 0.991563,-0.60998 2.034362,-1.250248 2.916016,-2.220703 0.881654,-0.970454 1.529296,-2.357546 1.529296,-3.953125 0,-1.74258 -0.795594,-3.262766 -1.941406,-4.193359 -1.145811,-0.930593 -2.561441,-1.341658 -3.957031,-1.34375 z" fill="#008055"/>
</svg>
