<svg xmlns="http://www.w3.org/2000/svg" width="48" height="48">
	<path d="m 8.9599611,4.2060546 c -1.7337059,0 -3.3346377,0.6785947 -4.3105469,1.8847656 C 3.6735052,7.2969911 3.333008,8.8212668 3.333008,10.387695 v 27.783203 c 0,1.606726 0.5730531,3.100207 1.6289062,4.117188 1.0558532,1.01698 2.5061768,1.505859 3.9980469,1.505859 A 1.8,1.8 0 0 0 10.760742,41.995117 1.8,1.8 0 0 0 8.9599611,40.194336 c -0.7394298,0 -1.2024312,-0.209553 -1.5019531,-0.498047 C 7.1584861,39.407794 6.9345705,38.987873 6.9345705,38.170898 V 10.387695 c 0,-1.0274714 0.241731,-1.6951457 0.5136719,-2.0312498 C 7.7201832,8.0203411 8.0322671,7.805664 8.9599611,7.805664 H 39.040039 c 0.73943,0 1.200478,0.2115054 1.5,0.5 0.299522,0.2884944 0.525391,0.7064631 0.525391,1.5234374 V 37.612304 c 0,1.027472 -0.241731,1.695146 -0.513672,2.03125 -0.271941,0.336105 -0.584025,0.550782 -1.511719,0.550782 H 14.114258 a 1.8,1.8 0 0 0 -1.800781,1.800781 1.8,1.8 0 0 0 1.800781,1.798828 h 24.925781 c 1.733706,0 3.334638,-0.678595 4.310547,-1.884766 0.975909,-1.20617 1.316406,-2.730446 1.316406,-4.296875 V 9.8291014 c 0,-1.6067254 -0.573053,-3.100207 -1.628906,-4.1171874 C 41.982233,4.6949335 40.531909,4.2060546 39.040039,4.2060546 Z M 24.754883,15.43457 c -2.034701,0 -3.865471,1.05735 -5.068359,2.642578 -1.202888,1.585228 -1.857422,3.689046 -1.857422,6.029297 0,4.703817 2.99021,8.458984 6.925781,8.458984 1.967762,0 3.784703,-0.970686 5.011719,-2.501953 a 1.7,1.7 0 0 0 -0.263672,-2.390625 1.7,1.7 0 0 0 -2.390625,0.263672 c -0.672565,0.839334 -1.470204,1.228516 -2.357422,1.228516 -1.774409,0 -3.525391,-1.686011 -3.525391,-5.058594 0,-1.697949 0.490089,-3.081884 1.166016,-3.972656 0.675927,-0.890772 1.456016,-1.298828 2.359375,-1.298828 0.903392,0 1.685431,0.408079 2.361328,1.298828 a 1.7,1.7 0 0 0 2.382813,0.326172 1.7,1.7 0 0 0 0.326172,-2.382813 C 28.622313,16.491897 26.789571,15.43457 24.754883,15.43457 Z" fill="#008055"/>
</svg>
