<svg xmlns="http://www.w3.org/2000/svg" width="48" height="48">
	<path d="m 8.9609374,4.2060546 c -1.7337059,0 -3.3346375,0.6785946 -4.3105466,1.8847657 C 3.6744816,7.296991 3.3339845,8.8193134 3.3339845,10.385742 v 27.785156 c 0,1.606725 0.5711002,3.100207 1.6269531,4.117187 1.0558533,1.016981 2.5081298,1.50586 3.9999998,1.50586 A 1.8,1.8 0 0 0 10.759765,41.993163 1.8,1.8 0 0 0 8.9609374,40.194335 c -0.7394299,0 -1.202431,-0.211505 -1.501953,-0.5 C 7.1594625,39.405841 6.9335945,38.987872 6.9335945,38.170898 V 10.385742 c 0,-1.0274715 0.2417309,-1.6951455 0.5136709,-2.0312499 C 7.7192064,8.018388 8.0332435,7.805664 8.9609374,7.805664 H 39.039062 c 0.73943,0 1.202431,0.2095523 1.501953,0.4980469 0.299522,0.2884946 0.525391,0.7064626 0.525391,1.5234376 V 37.612304 c 0,1.027472 -0.243684,1.695146 -0.515625,2.03125 -0.271941,0.336104 -0.584025,0.550781 -1.511719,0.550781 H 14.113281 a 1.8,1.8 0 0 0 -1.798828,1.798828 1.8,1.8 0 0 0 1.798828,1.800782 h 24.925781 c 1.733706,0 3.334638,-0.680548 4.310547,-1.886719 0.975909,-1.206171 1.316406,-2.728493 1.316406,-4.294922 V 9.8271484 c 0,-1.6067258 -0.5711,-3.098254 -1.626953,-4.1152344 -1.055853,-1.0169804 -2.50813,-1.5058594 -4,-1.5058594 z M 24.205078,15.43457 c -2.034683,0 -3.865483,1.057352 -5.06836,2.642578 -1.202875,1.585226 -1.857421,3.687092 -1.857421,6.027344 0,4.70388 2.990244,8.460937 6.925781,8.460937 2.007337,0 3.802946,-0.989747 4.90625,-2.498047 1.103304,-1.5083 1.609375,-3.454683 1.609375,-5.583984 a 1.70017,1.70017 0 0 0 -1.699219,-1.699219 h -3.117187 a 1.7,1.7 0 0 0 -1.699219,1.699219 1.7,1.7 0 0 0 1.699219,1.699219 h 1.199218 c -0.168678,0.761889 -0.407294,1.427138 -0.736328,1.876953 -0.553371,0.7565 -1.164547,1.105469 -2.162109,1.105469 -1.774463,0 -3.527344,-1.687828 -3.527344,-5.060547 0,-1.697949 0.490093,-3.081883 1.166016,-3.972657 0.675923,-0.890773 1.458011,-1.298828 2.361328,-1.298828 0.903475,0 1.685394,0.40804 2.361328,1.298828 a 1.7,1.7 0 0 0 2.380859,0.328125 1.7,1.7 0 0 0 0.328125,-2.382812 C 28.072524,16.491936 26.239803,15.43457 24.205078,15.43457 Z" fill="#008055"/>
</svg>
