<svg xmlns="http://www.w3.org/2000/svg" width="48" height="48">
	<path d="m 24.788573,8.5221989 c -0.444642,-0.010409 -0.888424,-0.00959 -1.332031,0.00195 C 16.358827,8.7089124 9.4429011,11.687642 4.2534174,16.910871 a 0.60000002,0.60000002 0 0 0 0.00195,0.847656 0.60000002,0.60000002 0 0 0 0.8496094,-0.002 C 15.056152,7.7406922 31.515578,6.2903969 42.895995,17.744855 a 0.60000002,0.60000002 0 0 0 0.847657,0.0039 0.60000002,0.60000002 0 0 0 0.002,-0.84961 C 38.202353,11.319837 31.458209,8.6783327 24.788573,8.5221989 Z M 23.868652,17.10423 c -4.961107,-0.07359 -9.926508,1.790089 -13.785157,5.673828 a 0.60000002,0.60000002 0 0 0 0.0039,0.84961 0.60000002,0.60000002 0 0 0 0.847656,-0.0039 c 7.264422,-7.31166 18.589534,-7.020132 25.841797,0.279296 a 0.60000002,0.60000002 0 0 0 0.849609,0.002 0.60000002,0.60000002 0 0 0 0.002,-0.847657 C 33.786429,19.19038 28.829758,17.177824 23.868652,17.10423 Z m 0.191406,8.679688 c -2.726139,0.0049 -5.469885,1.101622 -7.720703,3.273437 a 0.60000002,0.60000002 0 0 0 -0.01563,0.847657 0.60000002,0.60000002 0 0 0 0.847656,0.01563 c 4.099603,-3.955709 9.709069,-3.982582 13.646484,-0.01953 a 0.60000002,0.60000002 0 0 0 0.84961,0.002 0.60000002,0.60000002 0 0 0 0.002,-0.847656 C 29.494103,26.865921 26.786239,25.779064 24.0601,25.783972 Z m -0.05469,5.359375 c -2.285624,0 -4.148437,1.875761 -4.148437,4.169922 0,2.294161 1.862813,4.171875 4.148437,4.171875 2.285624,0 4.146485,-1.877714 4.146485,-4.171875 0,-2.294161 -1.860861,-4.169922 -4.146485,-4.169922 z m 0,1.199219 c 1.632879,0 2.947266,1.32088 2.947266,2.970703 0,1.649823 -1.314387,2.970703 -2.947266,2.970703 -1.632878,0 -2.947265,-1.32088 -2.947265,-2.970703 0,-1.649823 1.314387,-2.970703 2.947265,-2.970703 z" fill="#008055"/>
</svg>
