<svg xmlns="http://www.w3.org/2000/svg" width="48" height="48">
	<path d="M 24.787109 9.6542969 C 24.344121 9.6439474 23.900943 9.6447139 23.458984 9.65625 C 16.387646 9.8408279 9.4958776 12.810337 4.3242188 18.015625 A 0.5 0.5 0 0 0 4.3261719 18.722656 A 0.5 0.5 0 0 0 5.0332031 18.720703 C 15.020025 8.6689405 31.549281 7.2171863 42.966797 18.708984 A 0.5 0.5 0 0 0 43.673828 18.710938 A 0.5 0.5 0 0 0 43.675781 18.003906 C 38.14992 12.442094 31.43194 9.8095395 24.787109 9.6542969 z M 23.878906 16.763672 C 18.550226 16.686972 13.214623 18.676536 9.0917969 22.826172 A 2 2 0 0 0 9.0996094 25.65625 A 2 2 0 0 0 11.927734 25.646484 C 18.663802 18.866615 29.03656 19.131341 35.785156 25.923828 A 2 2 0 0 0 38.613281 25.933594 A 2 2 0 0 0 38.623047 23.105469 C 34.529225 18.985022 29.207586 16.840372 23.878906 16.763672 z M 24.066406 25.566406 C 20.994458 25.570304 17.904134 26.77431 15.435547 29.15625 A 1.9 1.9 0 0 0 15.388672 31.841797 A 1.9 1.9 0 0 0 18.074219 31.890625 C 21.738285 28.355166 26.406841 28.339201 29.896484 31.851562 A 1.9 1.9 0 0 0 32.583984 31.859375 A 1.9 1.9 0 0 0 32.591797 29.173828 C 30.192538 26.758949 27.138354 25.562508 24.066406 25.566406 z M 23.966797 32.777344 A 3.5475385 3.5706074 0 0 0 20.457031 36.347656 A 3.5475385 3.5706074 0 0 0 24.005859 39.919922 A 3.5475385 3.5706074 0 0 0 27.552734 36.347656 A 3.5475385 3.5706074 0 0 0 24.005859 32.777344 A 3.5475385 3.5706074 0 0 0 23.966797 32.777344 z " fill="#008055"/>
</svg>
