<svg xmlns="http://www.w3.org/2000/svg" width="48" height="48">
	<path d="m 8.9609373,4.2050544 c -1.733706,0 -3.3346377,0.6805478 -4.3105469,1.8867187 C 3.6744812,7.2979436 3.3339841,8.8202666 3.3339841,10.386695 v 27.785157 c 0,1.606725 0.5711001,3.100207 1.6269532,4.117187 1.0558531,1.016981 2.5081298,1.50586 4,1.50586 A 1.8,1.8 0 0 0 10.759765,41.994117 1.8,1.8 0 0 0 8.9609373,40.193336 c -0.7394299,0 -1.2024312,-0.209552 -1.5019532,-0.498047 C 7.1594624,39.406795 6.9335935,38.988826 6.9335935,38.171852 V 10.386695 c 0,-1.0274714 0.2417311,-1.6951454 0.5136719,-2.0312504 0.2719408,-0.336104 0.5859778,-0.550781 1.5136719,-0.550781 l 30.0781247,0.002 c 0.73943,0 1.202432,0.209553 1.501954,0.498047 0.299521,0.288495 0.52539,0.706463 0.52539,1.523438 V 37.613305 c 0,1.027471 -0.243684,1.695146 -0.515625,2.03125 -0.271941,0.336104 -0.584025,0.548828 -1.511719,0.548828 H 14.113281 a 1.8,1.8 0 0 0 -1.798828,1.800781 1.8,1.8 0 0 0 1.798828,1.800782 h 24.925781 c 1.733706,0 3.334638,-0.680548 4.310547,-1.886719 0.975909,-1.206171 1.316407,-2.728494 1.316407,-4.294922 V 9.8281016 c 0,-1.606726 -0.571101,-3.100207 -1.626954,-4.1171879 -1.055853,-1.0169804 -2.508129,-1.5058593 -4,-1.5058593 z M 30.628906,15.43357 c -2.034698,0 -3.865473,1.059304 -5.068359,2.644532 -1.202886,1.585228 -1.857422,3.687092 -1.857422,6.027343 0,4.703814 2.990211,8.460938 6.925781,8.460938 2.007331,0 3.802948,-0.989733 4.90625,-2.498047 1.103302,-1.508314 1.609375,-3.45464 1.609375,-5.583984 A 1.70017,1.70017 0 0 0 35.445312,22.78318 h -3.117187 a 1.7,1.7 0 0 0 -1.699219,1.701172 1.7,1.7 0 0 0 1.699219,1.699218 h 1.199219 c -0.168708,0.761259 -0.407499,1.427414 -0.736328,1.876953 -0.553373,0.756511 -1.164561,1.105469 -2.16211,1.105469 -1.774409,0 -3.527344,-1.68796 -3.527344,-5.060547 0,-1.697948 0.49009,-3.081884 1.166016,-3.972656 0.675926,-0.890772 1.457977,-1.298828 2.361328,-1.298828 0.903406,0 1.685428,0.408075 2.361328,1.298828 a 1.7,1.7 0 0 0 2.38086,0.326172 1.7,1.7 0 0 0 0.328125,-2.380859 C 34.496339,16.492855 32.663601,15.43357 30.628906,15.43357 Z m -17.443359,0.05469 a 1.70017,1.70017 0 0 0 -1.699219,1.701172 v 5.845703 a 1.70017,1.70017 0 0 0 1.699219,1.699219 c 2.204217,0 3.581955,-0.0108 4.40039,0.330078 0.818236,0.341055 1.345703,0.872135 1.345703,1.910156 a 1.70017,1.70017 0 0 0 0,0.0039 c 0.0019,0.910134 -0.30683,1.274334 -0.86914,1.654297 -0.56231,0.379963 -1.446515,0.591797 -2.019531,0.591797 -0.494012,0 -1.102639,-0.138368 -1.519532,-0.382813 -0.416893,-0.244444 -0.664461,-0.506058 -0.794922,-1.070312 a 1.7,1.7 0 0 0 -2.039062,-1.273438 1.7,1.7 0 0 0 -1.273438,2.039063 c 0.34405,1.488046 1.319205,2.611201 2.388672,3.238281 1.069467,0.627081 2.210403,0.84961 3.238282,0.84961 1.227513,0 2.64025,-0.308445 3.923828,-1.175782 1.283137,-0.867039 2.368609,-2.478048 2.365234,-4.476562 -8.96e-4,-2.43298 -1.611924,-4.285942 -3.4375,-5.046875 -1.301408,-0.542044 -2.61956,-0.590862 -4.007812,-0.585938 v -2.451171 h 5.435547 a 1.7,1.7 0 0 0 1.699218,-1.699219 1.7,1.7 0 0 0 -1.699218,-1.701172 z" fill="#008055"/>
</svg>
