<svg xmlns="http://www.w3.org/2000/svg" width="48" height="48">
	<path d="m 41.356445,4.6095484 c -0.88203,0 -1.689407,0.3356741 -2.248046,0.9609375 -0.55864,0.6252635 -0.859375,1.5139167 -0.859375,2.5683594 V 40.953298 c 0,0.276142 0.223858,0.5 0.5,0.5 0.276142,0 0.5,-0.223858 0.5,-0.5 V 8.1388453 c 0,-0.8656573 0.240083,-1.4933822 0.605468,-1.9023438 0.365386,-0.4089615 0.862804,-0.6269531 1.501953,-0.6269531 h 1.841797 c 0.763077,0 1.236795,0.2173862 1.566407,0.6113281 0.329612,0.3939421 0.529296,1.0276906 0.529296,1.9179688 V 40.953298 c 0,0.926976 -0.232993,1.69154 -0.601562,2.197266 -0.368569,0.505725 -0.844067,0.773437 -1.494141,0.773437 h -2.029297 c -0.276142,0 -0.5,0.223858 -0.5,0.5 0,0.276142 0.223858,0.5 0.5,0.5 h 2.029297 c 0.952346,0 1.774124,-0.458269 2.302735,-1.183593 0.528611,-0.725325 0.792968,-1.696086 0.792968,-2.78711 V 8.1388453 c 0,-1.0386218 -0.229786,-1.9205107 -0.763671,-2.5585938 C 44.996388,4.9421686 44.172316,4.6095484 43.198242,4.6095484 Z M 29.508789,13.961111 c -0.882031,0 -1.687456,0.335673 -2.246094,0.960937 -0.558637,0.625264 -0.861328,1.513918 -0.861328,2.56836 v 23.46289 c 0,0.276142 0.223858,0.5 0.5,0.5 0.276142,0 0.5,-0.223858 0.5,-0.5 v -23.46289 c 0,-0.865659 0.242039,-1.493383 0.607422,-1.902344 0.365383,-0.408961 0.860851,-0.626953 1.5,-0.626953 h 1.841797 c 0.763077,0 1.236794,0.217386 1.566406,0.611328 0.329612,0.393942 0.529297,1.02769 0.529297,1.917969 v 23.46289 c 0,0.926977 -0.232995,1.691541 -0.601562,2.197266 -0.368568,0.505724 -0.844061,0.773437 -1.494141,0.773437 h -2.029297 c -0.276142,0 -0.5,0.223858 -0.5,0.5 0,0.276142 0.223858,0.5 0.5,0.5 h 2.029297 c 0.95235,0 1.774124,-0.458269 2.302735,-1.183593 0.52861,-0.725326 0.792968,-1.696086 0.792968,-2.78711 v -23.46289 c 0,-1.038623 -0.227833,-1.920511 -0.761718,-2.558594 -0.533886,-0.638083 -1.359911,-0.970703 -2.333985,-0.970703 z m -11.845703,9.748047 c -0.88202,0 -1.689401,0.335698 -2.248047,0.960937 -0.558645,0.625239 -0.861328,1.511964 -0.861328,2.566406 v 13.716797 c 0,0.276142 0.223858,0.5 0.5,0.5 0.276142,0 0.5,-0.223858 0.5,-0.5 V 27.236501 c 0,-0.865657 0.242042,-1.491455 0.607422,-1.90039 0.36538,-0.408936 0.862793,-0.626953 1.501953,-0.626953 h 1.839844 c 0.763076,0 1.236795,0.217396 1.566406,0.611328 0.329612,0.393931 0.529297,1.025791 0.529297,1.916015 v 13.716797 c 0,0.926976 -0.231041,1.69154 -0.599609,2.197266 -0.368569,0.505725 -0.84602,0.773437 -1.496094,0.773437 h -2.029297 c -0.276142,0 -0.5,0.223858 -0.5,0.5 0,0.276142 0.223858,0.5 0.5,0.5 h 2.029297 c 0.952346,0 1.774123,-0.458269 2.302734,-1.183593 0.528611,-0.725325 0.792969,-1.696086 0.792969,-2.78711 V 27.236501 c 0,-1.038575 -0.227833,-1.920525 -0.761719,-2.558593 -0.533886,-0.638069 -1.359911,-0.96875 -2.333984,-0.96875 z M 5.8154299,31.875173 c -1.124877,0 -2.2422323,0.453379 -2.9941407,1.294922 -0.7519083,0.841543 -1.1152343,1.989194 -1.1152343,3.232422 v 4.550781 c 0,0.828427 0.6715729,1.5 1.5,1.5 0.8284271,0 1.5,-0.671573 1.5,-1.5 v -4.550781 c 0,-0.676872 0.1814015,-1.041743 0.3535156,-1.234375 0.1721141,-0.192632 0.3595663,-0.292969 0.7558594,-0.292969 h 1.8417969 c 0.5520864,0 0.673491,0.104111 0.7988281,0.253906 0.1253371,0.149795 0.296875,0.531565 0.296875,1.273438 v 4.550781 c 0,0.762927 -0.2016298,1.321297 -0.4101562,1.607422 -0.2085265,0.286125 -0.337737,0.363281 -0.6855469,0.363281 h -2.03125 c -0.8284271,0 -1.5,0.671573 -1.5,1.5 0,0.828427 0.6715729,1.5 1.5,1.5 h 2.03125 c 1.2546201,0 2.4207192,-0.650778 3.1093752,-1.595703 0.688656,-0.944925 0.986328,-2.119927 0.986328,-3.375 v -4.550781 c 0,-1.186927 -0.257931,-2.317014 -0.996094,-3.199219 -0.738163,-0.882205 -1.9145357,-1.328125 -3.0996092,-1.328125 z" fill="#008055"/>
</svg>
