<svg xmlns="http://www.w3.org/2000/svg" width="48" height="48">
	<path d="m 8.9609376,4.2060544 c -1.7337059,0 -3.3346377,0.6785948 -4.3105469,1.8847656 -0.9759091,1.2061709 -1.3164062,2.7304466 -1.3164062,4.296875 v 27.783203 c 0,1.606725 0.5730531,3.100207 1.6289062,4.117187 1.0558532,1.016981 2.5061768,1.50586 3.9980469,1.50586 A 1.8,1.8 0 0 0 10.761719,41.995116 1.8,1.8 0 0 0 8.9609376,40.194335 c -0.7394298,0 -1.2024312,-0.209552 -1.5019531,-0.498047 C 7.1594626,39.407794 6.9335939,38.987872 6.9335939,38.170898 V 10.387695 c 0,-1.0274716 0.2436841,-1.6951458 0.515625,-2.03125 C 7.7211597,8.0203409 8.0332436,7.8056638 8.9609376,7.8056638 H 39.041016 c 0.739429,0 1.200477,0.2115054 1.5,0.5 0.299521,0.2884945 0.52539,0.7064631 0.52539,1.5234375 V 37.612304 c 0,1.027472 -0.241731,1.695146 -0.513672,2.03125 -0.27194,0.336104 -0.584024,0.550781 -1.511718,0.550781 H 14.115234 a 1.8,1.8 0 0 0 -1.800781,1.800781 1.8,1.8 0 0 0 1.800781,1.798829 h 24.925782 c 1.733705,0 3.334637,-0.678595 4.310547,-1.884766 0.975909,-1.206171 1.314453,-2.730447 1.314453,-4.296875 V 9.8291013 c 0,-1.6067256 -0.571101,-3.1002071 -1.626953,-4.1171875 C 41.98321,4.6949333 40.532885,4.2060544 39.041016,4.2060544 Z M 20.138672,15.512695 A 1.70017,1.70017 0 0 0 18.4375,17.211913 v 13.576172 a 1.70017,1.70017 0 0 0 1.701172,1.699219 h 7.724609 A 1.7,1.7 0 0 0 29.5625,30.788085 1.7,1.7 0 0 0 27.863281,29.088866 h -6.02539 V 25.65332 h 4.054687 a 1.7,1.7 0 0 0 1.699219,-1.699219 1.7,1.7 0 0 0 -1.699219,-1.701172 h -4.054687 v -3.339844 h 6.02539 A 1.7,1.7 0 0 0 29.5625,17.211913 1.7,1.7 0 0 0 27.863281,15.512695 Z" fill="#008055"/>
</svg>
