<svg xmlns="http://www.w3.org/2000/svg" width="48" height="48">
	<path d="M 7.6582031 1.9765625 C 6.1063763 1.9765625 4.5893977 2.4014541 3.4941406 3.4667969 C 2.3988836 4.5321396 1.9140625 6.0785994 1.9140625 7.7050781 L 1.9140625 25.652344 C 1.9140625 27.171595 2.4123717 28.655353 3.453125 29.736328 C 4.4938783 30.817303 6.0226341 31.400391 7.6582031 31.400391 L 14.341797 31.400391 A 1.9 1.9 0 0 0 16.242188 29.501953 A 1.9 1.9 0 0 0 14.341797 27.601562 L 7.6582031 27.601562 C 6.8565922 27.601562 6.463373 27.38404 6.1914062 27.101562 C 5.9194395 26.819085 5.7148438 26.377682 5.7148438 25.652344 L 5.7148438 7.7050781 C 5.7148438 6.7682969 5.9279077 6.4002136 6.1425781 6.1914062 C 6.3572486 5.982599 6.7617 5.7753906 7.6582031 5.7753906 L 25.482422 5.7753906 C 26.400825 5.7753906 27.044874 6.0374169 27.417969 6.3535156 C 27.791064 6.6696143 27.988281 7.0168557 27.988281 7.7050781 L 27.988281 13.625 A 1.9 1.9 0 0 0 29.888672 15.525391 A 1.9 1.9 0 0 0 31.789062 13.625 L 31.789062 7.7050781 C 31.789062 6.0288206 31.064455 4.4628244 29.875 3.4550781 C 28.685545 2.4473318 27.125499 1.9765625 25.482422 1.9765625 L 7.6582031 1.9765625 z M 22.410156 17.349609 C 21.141609 17.349609 19.987022 17.754753 19.158203 18.552734 C 18.329384 19.350715 17.859375 20.522317 17.859375 21.894531 L 17.859375 39.71875 C 17.859375 41.127697 18.172932 42.395258 18.9375 43.339844 C 19.702068 44.28443 20.914852 44.824219 22.410156 44.824219 A 0.69999999 0.69999999 0 0 0 23.109375 44.125 A 0.69999999 0.69999999 0 0 0 22.410156 43.423828 C 21.228181 43.423828 20.516107 43.065241 20.025391 42.458984 C 19.534674 41.852728 19.259766 40.918013 19.259766 39.71875 L 19.259766 21.894531 C 19.259766 20.829565 19.59427 20.077244 20.128906 19.5625 C 20.663542 19.047756 21.434104 18.75 22.410156 18.75 L 40.355469 18.75 C 41.510048 18.75 42.251178 19.048264 42.730469 19.541016 C 43.209759 20.033767 43.486328 20.791088 43.486328 21.894531 L 43.486328 39.71875 C 43.486328 40.865998 43.157559 41.798797 42.623047 42.429688 C 42.088535 43.060578 41.355697 43.423828 40.355469 43.423828 L 26.019531 43.423828 A 0.69999999 0.69999999 0 0 0 25.320312 44.125 A 0.69999999 0.69999999 0 0 0 26.019531 44.824219 L 40.355469 44.824219 C 41.71971 44.824219 42.902076 44.265639 43.691406 43.333984 C 44.480736 42.40233 44.884766 41.132982 44.884766 39.71875 L 44.884766 21.894531 C 44.884766 20.549654 44.52923 19.383585 43.734375 18.566406 C 42.93952 17.749228 41.764149 17.349609 40.355469 17.349609 L 22.410156 17.349609 z " fill="#008055"/>
</svg>
