<svg xmlns="http://www.w3.org/2000/svg" width="48" height="48">
	<path d="m 8.9609374,4.206055 c -1.7337053,0 -3.3346375,0.678594 -4.3105466,1.884765 -0.9759092,1.206171 -1.3164063,2.730447 -1.3164063,4.296875 v 27.783203 c 0,1.606726 0.5711,3.100207 1.6269531,4.117188 1.0558533,1.01698 2.5081301,1.505859 3.9999998,1.505859 A 1.8,1.8 0 0 0 10.759765,41.995117 1.8,1.8 0 0 0 8.9609374,40.194336 c -0.7394299,0 -1.202431,-0.209552 -1.5019529,-0.498047 C 7.1594626,39.407794 6.9335939,38.987873 6.9335939,38.170898 V 10.387695 c 0,-1.027471 0.2436843,-1.695146 0.515625,-2.03125 C 7.7211594,8.020341 8.0332435,7.805664 8.9609374,7.805664 H 39.041015 c 0.73943,0 1.200478,0.211505 1.5,0.5 0.299522,0.288495 0.525391,0.706463 0.525391,1.523437 v 27.783204 c 0,1.027471 -0.241731,1.695145 -0.513672,2.03125 -0.271941,0.336104 -0.584025,0.550781 -1.511719,0.550781 H 14.113281 a 1.8,1.8 0 0 0 -1.798828,1.800781 1.8,1.8 0 0 0 1.798828,1.798828 h 24.927734 c 1.733706,0 3.334638,-0.678595 4.310547,-1.884765 0.975909,-1.206171 1.314453,-2.730447 1.314453,-4.296875 V 9.829101 c 0,-1.606724 -0.5711,-3.100207 -1.626953,-4.117187 C 41.983209,4.694934 40.532886,4.206055 39.041015,4.206055 Z M 23.75,13.999023 c -5.316741,0.131028 -10.503801,2.317232 -14.3789065,6.169922 a 1.6,1.6 0 0 0 -0.00586,2.261719 1.6,1.6 0 0 0 2.2617185,0.0078 c 6.60239,-6.564201 17.431145,-7.557818 25.02539,-0.0078 a 1.6,1.6 0 0 0 2.261719,-0.0078 1.6,1.6 0 0 0 -0.0059,-2.261718 C 34.513826,15.792355 29.066741,13.867996 23.75,13.999023 Z m 0.304687,6.078125 c -3.780934,-0.0537 -7.567101,1.34382 -10.496094,4.25586 a 1.500005,1.500005 0 0 0 -0.0059,2.121093 1.500005,1.500005 0 0 0 2.121094,0.0059 c 4.718814,-4.691502 12.001142,-4.508636 16.730469,0.193359 a 1.500005,1.500005 0 0 0 2.121093,-0.0059 1.500005,1.500005 0 0 0 -0.0059,-2.121094 C 31.611894,21.635535 27.835621,20.130849 24.054687,20.077148 Z M 24.1875,26.24707 c -2.180603,0.0026 -4.373118,0.847897 -6.126953,2.519531 a 1.4,1.4 0 0 0 -0.04883,1.978516 1.4,1.4 0 0 0 1.980468,0.04883 c 2.564529,-2.444331 5.834834,-2.456131 8.275391,-0.0293 a 1.4,1.4 0 0 0 1.978515,-0.0039 1.4,1.4 0 0 0 -0.0039,-1.980469 C 28.536766,27.084441 26.368103,26.24444 24.1875,26.24707 Z m -0.113281,5.105469 a 2.5044816,2.4899969 0 0 0 -2.435547,2.490234 2.5044816,2.4899969 0 0 0 2.503906,2.490235 2.5044816,2.4899969 0 0 0 2.505859,-2.490235 2.5044816,2.4899969 0 0 0 -2.505859,-2.490234 2.5044816,2.4899969 0 0 0 -0.06836,0 z" fill="#008055"/>
</svg>
