<svg xmlns="http://www.w3.org/2000/svg" width="48" height="48">
	<path d="M 20.474609 9.2441406 C 19.340481 9.2441406 18.24962 9.7893095 17.587891 10.625 C 16.926161 11.460691 16.642578 12.506061 16.642578 13.589844 C 16.642578 18.057715 19.929903 21.977522 22.830078 25.089844 C 25.578911 28.03985 28.15625 31.680828 28.15625 34.410156 C 28.15625 34.923574 28.014092 35.250012 27.904297 35.388672 C 27.794501 35.527331 27.769262 35.556641 27.525391 35.556641 L 20.603516 35.556641 C 20.206498 35.556641 20.242376 35.520929 20.171875 35.427734 C 20.101374 35.33454 19.958984 34.999392 19.958984 34.410156 C 19.958984 31.822456 20.712552 30.249163 22.431641 28.404297 A 1.6 1.6 0 0 0 22.351562 26.142578 A 1.6 1.6 0 0 0 20.089844 26.222656 C 18.003553 28.46159 16.759766 31.100057 16.759766 34.410156 C 16.759766 35.447321 16.960027 36.483566 17.621094 37.357422 C 18.28216 38.231277 19.440223 38.755859 20.603516 38.755859 L 27.525391 38.755859 C 28.659519 38.755859 29.75038 38.210691 30.412109 37.375 C 31.073839 36.539309 31.357422 35.493939 31.357422 34.410156 C 31.357422 29.942285 28.070069 26.02255 25.169922 22.910156 A 1.60016 1.60016 0 0 0 25.169922 22.908203 C 22.421117 19.958325 19.84375 16.319172 19.84375 13.589844 C 19.84375 13.076426 19.985908 12.749988 20.095703 12.611328 C 20.205499 12.472669 20.230738 12.443359 20.474609 12.443359 L 27.396484 12.443359 C 27.793487 12.443359 27.757622 12.479072 27.828125 12.572266 C 27.898628 12.665459 28.041016 13.000679 28.041016 13.589844 C 28.041016 15.990103 27.26567 17.669755 25.556641 19.503906 A 1.6 1.6 0 0 0 25.636719 21.765625 A 1.6 1.6 0 0 0 27.898438 21.685547 C 29.994808 19.435698 31.240234 16.763584 31.240234 13.589844 C 31.240234 12.552709 31.039976 11.516409 30.378906 10.642578 C 29.717836 9.7687468 28.559772 9.2441406 27.396484 9.2441406 L 20.474609 9.2441406 z " fill="#008055"/>
</svg>
