<svg xmlns="http://www.w3.org/2000/svg" width="48" height="48">
	<path d="m 40.856446,5.1095468 c -0.882027,0 -1.689409,0.335674 -2.248047,0.960938 -0.558638,0.625263 -0.861329,1.513916 -0.861329,2.568359 V 41.453297 c 0,0.276142 0.223858,0.5 0.5,0.5 0.276142,0 0.5,-0.223858 0.5,-0.5 V 8.6388438 c 0,-0.865657 0.242038,-1.493382 0.607422,-1.902344 0.365385,-0.408961 0.86281,-0.626953 1.501954,-0.626953 h 1.841796 c 0.763083,0 1.23484,0.217386 1.564454,0.611328 0.329612,0.393942 0.53125,1.027691 0.53125,1.917969 V 41.453297 c 0,0.926976 -0.232998,1.691568 -0.601563,2.197266 -0.368565,0.505698 -0.84405,0.773437 -1.494141,0.773437 h -2.03125 c -0.276142,0 -0.5,0.223858 -0.5,0.5 0,0.276142 0.223858,0.5 0.5,0.5 h 2.03125 c 0.95234,0 1.774117,-0.460245 2.302735,-1.185547 0.528617,-0.725302 0.792969,-1.694132 0.792969,-2.785156 V 8.6388438 c 0,-1.038622 -0.229785,-1.920511 -0.763672,-2.558594 -0.533887,-0.638083 -1.357954,-0.970703 -2.332032,-0.970703 z M 29.008789,14.46111 c -0.88202,0 -1.689401,0.335698 -2.248047,0.960937 -0.558645,0.62524 -0.861328,1.513917 -0.861328,2.568359 v 23.462891 c 0,0.276142 0.223858,0.5 0.5,0.5 0.276142,0 0.5,-0.223858 0.5,-0.5 V 17.990406 c 0,-0.865657 0.242042,-1.493408 0.607422,-1.902343 0.36538,-0.408936 0.862793,-0.626953 1.501953,-0.626953 h 1.841797 c 0.763086,0 1.234847,0.217412 1.564453,0.611328 0.329606,0.393915 0.53125,1.02769 0.53125,1.917968 v 23.462891 c 0,0.926976 -0.232998,1.691567 -0.601562,2.197266 C 31.976163,44.156261 31.500671,44.424 30.850586,44.424 h -2.029297 c -0.276142,0 -0.5,0.223858 -0.5,0.5 0,0.276142 0.223858,0.5 0.5,0.5 h 2.029297 c 0.952336,0 1.774119,-0.460245 2.302734,-1.185547 0.528616,-0.725301 0.792969,-1.694132 0.792969,-2.785156 V 17.990406 c 0,-1.038621 -0.22978,-1.920534 -0.763672,-2.558593 -0.533891,-0.63806 -1.357967,-0.970703 -2.332031,-0.970703 z m -11.847656,9.746093 c -0.882027,0 -1.687456,0.337628 -2.246094,0.962891 -0.558638,0.625263 -0.861328,1.511964 -0.861328,2.566406 v 13.716797 c 0,0.276142 0.223858,0.5 0.5,0.5 0.276142,0 0.5,-0.223858 0.5,-0.5 V 27.7365 c 0,-0.865657 0.240084,-1.491429 0.605468,-1.90039 0.365385,-0.408962 0.86281,-0.628907 1.501954,-0.628907 h 1.841796 c 0.763083,0 1.236794,0.21934 1.566407,0.613282 0.329613,0.393941 0.529297,1.025737 0.529297,1.916015 v 13.716797 c 0,0.926976 -0.232998,1.691568 -0.601563,2.197266 C 20.128505,44.156261 19.65302,44.424 19.002929,44.424 h -2.029296 c -0.276142,0 -0.5,0.223858 -0.5,0.5 0,0.276142 0.223858,0.5 0.5,0.5 h 2.029296 c 0.95234,0 1.774117,-0.460245 2.302735,-1.185547 0.528618,-0.725302 0.792969,-1.694132 0.792969,-2.785156 V 27.7365 c 0,-1.038622 -0.229785,-1.92051 -0.763672,-2.558594 -0.533887,-0.638083 -1.357954,-0.970703 -2.332032,-0.970703 z M 5.3154295,33.375172 c -0.8820308,0 -1.6894099,0.335674 -2.2480469,0.960938 -0.558637,0.625264 -0.8613281,1.511964 -0.8613281,2.566406 v 4.550781 c 0,0.276142 0.2238576,0.5 0.5,0.5 0.2761424,0 0.5,-0.223858 0.5,-0.5 v -4.550781 c 0,-0.865658 0.2420388,-1.49143 0.6074219,-1.900391 0.3653828,-0.408961 0.8628039,-0.626953 1.5019531,-0.626953 h 1.8398437 c 0.7630766,0 1.2367948,0.217397 1.5664063,0.611328 0.3296115,0.393932 0.5292969,1.025792 0.5292969,1.916016 v 4.550781 c 0,0.926977 -0.2329998,1.691568 -0.6015626,2.197266 C 8.2808513,44.156261 7.8053636,44.424 7.1552732,44.424 H 5.1259764 c -0.2761424,0 -0.5,0.223858 -0.5,0.5 0,0.276142 0.2238576,0.5 0.5,0.5 h 2.0292968 c 0.9523397,0 1.7741196,-0.460244 2.3027344,-1.185547 0.5286148,-0.725302 0.7929684,-1.694132 0.7929684,-2.785156 v -4.550781 c 0,-1.038576 -0.227832,-1.920526 -0.7617184,-2.558594 -0.533886,-0.638068 -1.3599109,-0.96875 -2.3339844,-0.96875 z" fill="#008055"/>
</svg>
