<svg xmlns="http://www.w3.org/2000/svg" width="48" height="48">
	<path d="m 8.9609376,4.2050784 c -1.7337061,0 -3.3365909,0.6805478 -4.3125001,1.8867187 C 3.6725283,7.297968 3.3339844,8.8202906 3.3339844,10.386719 v 27.785157 c 0,1.606725 0.5711,3.098254 1.6269531,4.115234 1.0558531,1.01698 2.50813,1.507812 4.0000001,1.507812 A 1.8,1.8 0 0 0 10.759766,41.994141 1.8,1.8 0 0 0 8.9609376,40.19336 c -0.7394301,0 -1.2024311,-0.209552 -1.5019531,-0.498047 C 7.1594625,39.406819 6.9335936,38.98885 6.9335936,38.171876 V 10.386719 c 0,-1.0274716 0.241731,-1.6951459 0.513672,-2.03125 0.271941,-0.3361042 0.5859779,-0.5507813 1.513672,-0.5507813 H 39.039063 c 0.73945,0 1.20243,0.2115057 1.501953,0.5 0.299523,0.2884944 0.525391,0.7064631 0.525391,1.5234375 V 37.613282 c 0,1.027471 -0.243683,1.695147 -0.515625,2.03125 -0.271942,0.336103 -0.584005,0.548828 -1.511719,0.548828 H 14.113282 a 1.8,1.8 0 0 0 -1.798828,1.800781 1.8,1.8 0 0 0 1.798828,1.800781 h 24.925781 c 1.733716,0 3.334631,-0.680547 4.310547,-1.886718 0.975916,-1.206172 1.316406,-2.728494 1.316406,-4.294922 V 9.8281252 c 0,-1.6067256 -0.571094,-3.1002068 -1.626953,-4.1171875 -1.055859,-1.0169806 -2.50812,-1.5058593 -4,-1.5058593 z M 30.628907,15.433594 c -2.034683,0 -3.867436,1.059305 -5.070313,2.644532 -1.202877,1.585226 -1.855469,3.687092 -1.855469,6.027343 0,4.703881 2.990245,8.460938 6.925782,8.460938 2.007337,0 3.802946,-0.989747 4.90625,-2.498047 1.103304,-1.5083 1.609375,-3.454684 1.609375,-5.583984 a 1.70017,1.70017 0 0 0 -1.699219,-1.701172 h -3.117188 a 1.7,1.7 0 0 0 -1.699218,1.701172 1.7,1.7 0 0 0 1.699218,1.699218 h 1.199219 c -0.168705,0.761239 -0.4075,1.427421 -0.736328,1.876954 -0.553371,0.7565 -1.164547,1.105468 -2.162109,1.105468 -1.774463,0 -3.527344,-1.687827 -3.527344,-5.060547 0,-1.697948 0.490093,-3.081882 1.166016,-3.972656 0.675923,-0.890774 1.458011,-1.298828 2.361328,-1.298828 0.903475,0 1.685394,0.40804 2.361328,1.298828 a 1.7,1.7 0 0 0 2.380859,0.326172 1.7,1.7 0 0 0 0.326172,-2.380859 C 34.4944,16.492914 32.663632,15.433594 30.628907,15.433594 Z m -17.88086,0.0059 a 1.7,1.7 0 0 0 -1.701172,1.699218 1.7,1.7 0 0 0 1.701172,1.699219 h 4.017578 l -2.498046,3.06836 a 1.70017,1.70017 0 0 0 1.318359,2.773437 c 1.086417,0 2.065445,0.235389 2.609375,0.585938 0.54393,0.350549 0.800781,0.652069 0.800781,1.65039 a 1.70017,1.70017 0 0 0 0.002,0.0059 c 0.0031,0.907537 -0.305518,1.267103 -0.867187,1.646484 -0.561669,0.379381 -1.445694,0.591797 -2.017578,0.591797 -0.493131,0 -1.099572,-0.13687 -1.515625,-0.380859 -0.416054,-0.243991 -0.664721,-0.505023 -0.794922,-1.06836 a 1.7,1.7 0 0 0 -2.039063,-1.273437 1.7,1.7 0 0 0 -1.273437,2.039062 c 0.343698,1.487064 1.318047,2.609618 2.386719,3.236328 1.068671,0.62671 2.209258,0.847657 3.236328,0.847657 1.226615,0 2.638669,-0.307084 3.921875,-1.173829 1.282765,-0.866447 2.367453,-2.476598 2.361328,-4.474609 -0.0014,-1.95892 -0.998196,-3.626662 -2.359375,-4.503906 -0.421096,-0.271386 -0.887927,-0.389968 -1.341797,-0.552735 l 2.964844,-3.642578 a 1.70017,1.70017 0 0 0 -1.31836,-2.773437 z" fill="#008055"/>
</svg>
