<svg xmlns="http://www.w3.org/2000/svg" width="48" height="48">
	<path d="M 23.449219,8.08945 C 15.955861,8.276945 8.646309,11.395938 3.1894532,16.888278 a 2.0999999,2.0999999 0 0 0 0.00977,2.96875 2.0999999,2.0999999 0 0 0 2.9707031,-0.0098 C 15.586355,10.369567 31.008101,8.943107 41.832035,19.837428 a 2.0999999,2.0999999 0 0 0 2.96875,0.0078 2.0999999,2.0999999 0 0 0 0.0098,-2.96875 C 38.619504,10.645237 30.942577,7.901953 23.449219,8.08945 Z m 0.429687,8.673828 c -5.32868,-0.0767 -10.664283,1.912864 -14.787109,6.0625 a 2,2 0 0 0 0.00781,2.830078 2,2 0 0 0 2.828126,-0.0098 C 18.6638,18.866187 29.036558,19.130913 35.785154,25.9234 a 2,2 0 0 0 2.828125,0.0098 2,2 0 0 0 0.0098,-2.828126 c -4.093822,-4.120446 -9.41546,-6.265096 -14.744141,-6.341796 z m 0.1875,8.802734 c -3.071948,0.0039 -6.160319,1.207903 -8.628906,3.589844 a 1.9,1.9 0 0 0 -0.04883,2.685547 1.9,1.9 0 0 0 2.685547,0.04883 c 3.664067,-3.53546 8.332622,-3.551425 11.822266,-0.03906 a 1.9,1.9 0 0 0 2.6875,0.0078 1.9,1.9 0 0 0 0.0078,-2.685547 c -2.399258,-2.414879 -5.453442,-3.61132 -8.525391,-3.607422 z m -0.09961,7.210938 a 3.5475385,3.5706074 0 0 0 -3.509766,3.570312 3.5475385,3.5706074 0 0 0 3.548828,3.572266 3.5475385,3.5706074 0 0 0 3.546876,-3.572266 3.5475385,3.5706074 0 0 0 -3.546876,-3.570312 3.5475385,3.5706074 0 0 0 -0.03906,0 z" fill="#008055"/>
</svg>
