<svg xmlns="http://www.w3.org/2000/svg" width="48" height="48">
	<path d="m 41.356445,4.6115 c -0.88202,0 -1.689401,0.335698 -2.248047,0.9609375 -0.558645,0.6252395 -0.859375,1.5119636 -0.859375,2.5664062 V 40.953297 c 0,0.276142 0.223858,0.5 0.5,0.5 0.276142,0 0.5,-0.223858 0.5,-0.5 V 8.1388437 c 0,-0.8656573 0.240089,-1.4914551 0.605469,-1.9003906 C 40.219872,5.8295176 40.717285,5.6115 41.356445,5.6115 h 1.841797 c 0.763077,0 1.236795,0.2173964 1.566406,0.6113281 0.329612,0.3939317 0.529297,1.0257913 0.529297,1.9160156 V 40.953297 c 0,0.926976 -0.232998,1.691568 -0.601562,2.197266 C 44.323819,43.656261 43.848327,43.924 43.198242,43.924 h -2.029297 c -0.276142,0 -0.5,0.223858 -0.5,0.5 0,0.276142 0.223858,0.5 0.5,0.5 h 2.029297 c 0.952336,0 1.774119,-0.458292 2.302735,-1.183593 0.528615,-0.725302 0.792968,-1.696085 0.792968,-2.78711 V 8.1388437 c 0,-1.0385756 -0.229786,-1.9205255 -0.763672,-2.5585937 C 44.996387,4.9421817 44.172316,4.6115 43.198242,4.6115 Z m -11.847656,9.351563 c -0.882031,0 -1.687457,0.335688 -2.246094,0.960937 -0.558637,0.625249 -0.861328,1.51201 -0.861328,2.566407 v 23.46289 c 0,0.276142 0.223858,0.5 0.5,0.5 0.276142,0 0.5,-0.223858 0.5,-0.5 v -23.46289 c 0,-0.865604 0.240086,-1.49144 0.605469,-1.900391 0.365383,-0.408951 0.862804,-0.626953 1.501953,-0.626953 h 1.841797 c 0.763076,0 1.236795,0.217396 1.566406,0.611328 0.329612,0.393932 0.529297,1.025791 0.529297,1.916016 v 23.46289 c 0,0.926977 -0.233,1.691568 -0.601562,2.197266 C 32.476163,43.656261 32.000676,43.924 31.350586,43.924 h -2.029297 c -0.276142,0 -0.5,0.223858 -0.5,0.5 0,0.276142 0.223858,0.5 0.5,0.5 h 2.029297 c 0.95234,0 1.774119,-0.458291 2.302734,-1.183593 0.528615,-0.725303 0.792969,-1.696086 0.792969,-2.78711 v -23.46289 c 0,-1.038576 -0.229786,-1.920526 -0.763672,-2.558594 -0.533886,-0.638068 -1.357958,-0.96875 -2.332031,-0.96875 z m -11.845703,8.746094 c -1.124913,0 -2.242247,0.453355 -2.994141,1.294922 -0.751894,0.841565 -1.115234,1.989193 -1.115234,3.232421 v 13.716797 c 0,0.828427 0.671573,1.5 1.5,1.5 0.828427,0 1.5,-0.671573 1.5,-1.5 V 27.2365 c 0,-0.676872 0.179431,-1.041715 0.351562,-1.234375 0.172131,-0.192659 0.361545,-0.292968 0.757813,-0.292968 h 1.839844 c 0.552079,0 0.673489,0.104105 0.798828,0.253906 0.125338,0.149801 0.296875,0.531503 0.296875,1.273437 v 13.716797 c 0,0.762927 -0.199691,1.32328 -0.408203,1.609375 -0.208513,0.286095 -0.339667,0.361328 -0.6875,0.361328 h -2.029297 c -0.828427,0 -1.5,0.671573 -1.5,1.5 0,0.828427 0.671573,1.5 1.5,1.5 h 2.029297 c 1.254586,0 2.42266,-0.650798 3.111328,-1.595703 0.688667,-0.944905 0.984375,-2.119927 0.984375,-3.375 V 27.2365 c 0,-1.186965 -0.257935,-2.316994 -0.996094,-3.199218 C 21.86438,23.155057 20.688,22.709157 19.50293,22.709157 Z M 5.8154302,31.875172 c -1.12491,0 -2.242249,0.453357 -2.994141,1.294922 -0.7518916,0.841565 -1.1152344,1.991147 -1.1152344,3.234375 v 4.548828 c 0,0.828427 0.6715731,1.5 1.5000004,1.5 0.8284271,0 1.5,-0.671573 1.5,-1.5 v -4.548828 c 0,-0.676872 0.181384,-1.043668 0.353515,-1.236328 0.172131,-0.19266 0.359599,-0.292969 0.75586,-0.292969 h 1.839843 c 0.552087,0 0.673491,0.104106 0.798828,0.253907 0.12534,0.149799 0.296876,0.533456 0.296876,1.27539 v 4.548828 c 0,0.762927 -0.199691,1.323281 -0.408204,1.609375 -0.208512,0.286095 -0.339659,0.361328 -0.6875,0.361328 h -2.029296 c -0.8284271,0 -1.5,0.671573 -1.5,1.5 0,0.828427 0.6715729,1.5 1.5,1.5 h 2.029296 c 1.254589,0 2.4226578,-0.650797 3.1113278,-1.595703 0.688671,-0.944905 0.984376,-2.119927 0.984376,-3.375 v -4.548828 c 0,-1.186965 -0.25598,-2.318947 -0.994141,-3.201172 -0.738161,-0.882224 -1.9164888,-1.328125 -3.1015628,-1.328125 z" fill="#008055"/>
</svg>
