<svg xmlns="http://www.w3.org/2000/svg" width="48" height="48">
	<path d="m 8.9609378,4.206055 c -1.7337061,0 -3.3346382,0.6785947 -4.3105472,1.8847656 -0.9759092,1.2061709 -1.3164063,2.730447 -1.3164063,4.2968744 v 27.783204 c 0,1.606725 0.5711,3.100207 1.6269531,4.117187 1.0558531,1.016981 2.5081293,1.505859 4.0000004,1.505859 A 1.8,1.8 0 0 0 10.759766,41.993164 1.8,1.8 0 0 0 8.9609378,40.194336 c -0.73943,0 -1.202431,-0.211505 -1.5019541,-0.5 C 7.1594627,39.405842 6.9335938,38.987873 6.9335938,38.170899 V 10.387695 c 0,-1.027471 0.243684,-1.6951453 0.515625,-2.0312494 0.2719409,-0.3361041 0.584025,-0.5507814 1.511719,-0.5507814 H 39.039063 c 0.739429,0 1.202431,0.2095524 1.501953,0.4980469 0.299522,0.2884946 0.52539,0.708416 0.52539,1.5253909 v 27.783203 c 0,1.027471 -0.243684,1.695146 -0.515625,2.03125 -0.27194,0.336104 -0.584024,0.550781 -1.511718,0.550781 H 14.113281 a 1.8,1.8 0 0 0 -1.798828,1.798828 1.8,1.8 0 0 0 1.798828,1.800781 h 24.925782 c 1.733706,0 3.334637,-0.680547 4.310547,-1.886718 0.975909,-1.206171 1.316406,-2.728494 1.316406,-4.294922 V 9.829102 c 0,-1.606726 -0.5711,-3.1002073 -1.626953,-4.1171878 -1.055853,-1.0169804 -2.50813,-1.5058593 -4,-1.5058593 z M 30.628906,15.434571 c -2.03472,0 -3.865481,1.057327 -5.068359,2.642578 -1.202878,1.58525 -1.857422,3.687093 -1.857422,6.027343 0,4.703814 2.99025,8.460938 6.925781,8.460938 2.007316,0 3.802938,-0.989754 4.90625,-2.498047 1.103313,-1.508293 1.609375,-3.45464 1.609375,-5.583984 A 1.70017,1.70017 0 0 0 35.445313,22.78418 h -3.117188 a 1.7,1.7 0 0 0 -1.699219,1.699219 1.7,1.7 0 0 0 1.699219,1.699218 h 1.199219 c -0.168679,0.761897 -0.407298,1.427149 -0.736328,1.876954 -0.553365,0.756481 -1.164535,1.105468 -2.16211,1.105468 -1.774449,0 -3.527343,-1.68796 -3.527343,-5.060547 0,-1.69795 0.490083,-3.081857 1.166015,-3.972656 0.675933,-0.890799 1.457989,-1.298828 2.361328,-1.298828 0.903329,0 1.685401,0.40804 2.361328,1.298828 a 1.7,1.7 0 0 0 2.38086,0.328125 1.7,1.7 0 0 0 0.328125,-2.382812 c -1.202853,-1.585212 -3.035541,-2.642578 -5.070313,-2.642578 z m -14.177734,0.107421 a 1.7,1.7 0 0 0 -1.455078,0.898438 l -4.988281,9.341797 a 1.7,1.7 0 0 0 -0.0039,0.0059 1.7,1.7 0 0 0 -0.02539,0.05273 1.7,1.7 0 0 0 -0.027344,0.05664 1.7,1.7 0 0 0 -0.00391,0.0098 1.7,1.7 0 0 0 -0.029297,0.07422 1.7,1.7 0 0 0 -0.027344,0.07813 1.7,1.7 0 0 0 -0.013672,0.04102 1.7,1.7 0 0 0 -0.00391,0.01172 1.7,1.7 0 0 0 -0.019531,0.07813 1.7,1.7 0 0 0 -0.015625,0.06836 1.7,1.7 0 0 0 -0.011719,0.06445 1.7,1.7 0 0 0 0,0.0039 1.7,1.7 0 0 0 -0.00977,0.08008 1.7,1.7 0 0 0 -0.00781,0.109375 1.7,1.7 0 0 0 -0.00195,0.06641 1.7,1.7 0 0 0 0,0.01367 1.7,1.7 0 0 0 0.00391,0.07227 1.7,1.7 0 0 0 0,0.02344 1.7,1.7 0 0 0 0.00391,0.04297 1.7,1.7 0 0 0 0.00977,0.08789 1.7,1.7 0 0 0 0.00781,0.05273 1.7,1.7 0 0 0 0.013672,0.06641 1.7,1.7 0 0 0 0.00586,0.02734 1.7,1.7 0 0 0 0.019531,0.07617 1.7,1.7 0 0 0 0.011719,0.03516 1.7,1.7 0 0 0 0.017578,0.05859 1.7,1.7 0 0 0 0.017578,0.04688 1.7,1.7 0 0 0 0.03125,0.07813 1.7,1.7 0 0 0 0,0.002 1.7,1.7 0 0 0 0.039062,0.08203 1.7,1.7 0 0 0 0.021485,0.04102 1.7,1.7 0 0 0 0.02734,0.04883 1.7,1.7 0 0 0 0.0332,0.05469 1.7,1.7 0 0 0 0.03125,0.04688 1.7,1.7 0 0 0 0.01563,0.02344 1.7,1.7 0 0 0 0.04492,0.05859 1.7,1.7 0 0 0 0.01172,0.01758 1.7,1.7 0 0 0 0.04297,0.05078 1.7,1.7 0 0 0 0.04688,0.05273 1.7,1.7 0 0 0 0.05273,0.05469 1.7,1.7 0 0 0 0.01953,0.01758 1.7,1.7 0 0 0 0.05078,0.04492 1.7,1.7 0 0 0 0.02734,0.02539 1.7,1.7 0 0 0 0.07422,0.05859 1.7,1.7 0 0 0 0.08984,0.0625 1.7,1.7 0 0 0 0.09375,0.05664 1.7,1.7 0 0 0 0.0332,0.01953 1.7,1.7 0 0 0 0.08984,0.04492 1.7,1.7 0 0 0 0.01172,0.0059 1.7,1.7 0 0 0 0.09766,0.03906 1.7,1.7 0 0 0 0.05078,0.01953 1.7,1.7 0 0 0 0.07031,0.02148 1.7,1.7 0 0 0 0.0098,0.0039 1.7,1.7 0 0 0 0.07813,0.01953 1.7,1.7 0 0 0 0.107422,0.02148 1.7,1.7 0 0 0 0.109375,0.01563 1.7,1.7 0 0 0 0.109375,0.0078 1.7,1.7 0 0 0 0.06641,0.002 h 6.251953 v 2.824219 a 1.7,1.7 0 0 0 1.701171,1.699218 1.7,1.7 0 0 0 1.699219,-1.699218 v -8.986328 a 1.7,1.7 0 0 0 -1.699219,-1.699219 1.7,1.7 0 0 0 -1.701171,1.699219 v 2.761718 h -3.417969 l 3.654297,-6.841797 A 1.7,1.7 0 0 0 17.296913,15.741413 1.7,1.7 0 0 0 16.45121,15.542194 Z" fill="#008055"/>
</svg>
