<svg xmlns="http://www.w3.org/2000/svg" width="48" height="48">
	<path d="m 23.894168,3.1965321 a 0.80000001,0.80000001 0 0 0 -0.751953,0.84375 0.80000001,0.80000001 0 0 0 0.84375,0.753907 c 2.871191,-0.16445 5.3261,1.512443 7.722656,3.378906 2.396557,1.8664629 4.672566,3.9797499 7.445313,3.9472659 0.668107,0.0011 1.078561,0.09098 1.263672,0.171875 0.186234,0.08139 0.167726,0.08612 0.197265,0.169922 0.05908,0.167606 -0.03773,0.87059 -0.05273,1.767578 -0.145791,7.351551 -1.180316,12.930764 -3.361328,17.365234 -2.181228,4.434909 -5.505392,7.768212 -10.408203,10.65625 -1.146602,0.6733 -2.008096,0.971175 -2.820313,0.966797 -0.812217,-0.0044 -1.662175,-0.305672 -2.806641,-1.056641 a 0.80008001,0.80008001 0 0 0 -0.03125,-0.01953 C 15.229453,38.6508 11.934589,34.452121 10.007449,29.716064 8.0803101,24.980007 7.5452651,19.678135 7.3238561,14.073486 a 0.80008001,0.80008001 0 0 0 0,-0.002 c -0.032368,-0.767776 0.167619,-1.184119 0.4375,-1.472656 0.26988,-0.288536 0.66437,-0.462505 1.089843,-0.523437 2.1127279,-0.303048 4.1132569,-1.714886 6.1191409,-3.1718749 2.005884,-1.45699 4.0141,-2.988769 5.810547,-3.683594 a 0.80000001,0.80000001 0 0 0 0.457031,-1.033203 0.80000001,0.80000001 0 0 0 -1.035156,-0.458985 c -2.142253,0.828576 -4.193634,2.443949 -6.171875,3.88086 -1.978241,1.43691 -3.886778,2.6668129 -5.4062499,2.8847659 -0.707826,0.101366 -1.458106,0.400908 -2.03125,1.013671 -0.572778,0.612372 -0.913295,1.523737 -0.867188,2.628907 0.223791,5.66495 0.754118,11.1586 2.798829,16.183593 2.0424639,5.019478 5.6221299,9.54126 11.7773429,13.185547 1.283708,0.840182 2.456362,1.306001 3.66211,1.3125 1.210008,0.0065 2.367075,-0.4408 3.638671,-1.1875 5.096889,-3.002361 8.706132,-6.598637 11.033204,-11.330078 2.327072,-4.731441 3.37712,-10.555046 3.52539,-18.041016 a 0.80008001,0.80008001 0 0 0 0,-0.002 c 0.0111,-0.663712 0.279434,-1.422604 -0.03906,-2.326171 -0.159248,-0.451785 -0.5528,-0.882713 -1.0625,-1.105469 -0.509701,-0.222757 -1.115507,-0.304688 -1.914063,-0.304688 a 0.80008001,0.80008001 0 0 0 -0.0098,0 C 37.257169,10.542678 35.132954,8.8111421 32.69101,6.9093301 30.249067,5.0075191 27.427044,2.9940901 23.894135,3.1964391 Z M 23.747684,16.923095 c -4.411611,0.111738 -8.711796,1.928195 -11.935547,5.117187 a 0.69999999,0.69999999 0 0 0 -0.0059,0.988282 0.69999999,0.69999999 0 0 0 0.990234,0.0059 c 5.944099,-5.880012 15.758064,-6.743313 22.568359,-0.0098 a 0.69999999,0.69999999 0 0 0 0.990235,-0.0059 0.69999999,0.69999999 0 0 0 -0.0059,-0.990234 c -3.667071,-3.625792 -8.18987,-5.217173 -12.601481,-5.105435 z m 0.253906,5.189453 c -3.096009,-0.04472 -6.194947,1.097886 -8.601562,3.478516 a 0.64999998,0.64999998 0 0 0 -0.0039,0.917968 0.64999998,0.64999998 0 0 0 0.917969,0.0059 c 4.318369,-4.271741 11.041392,-4.103458 15.357422,0.166016 a 0.64999998,0.64999998 0 0 0 0.917969,-0.0039 0.64999998,0.64999998 0 0 0 -0.0039,-0.919922 c -2.393899,-2.36811 -5.487989,-3.599861 -8.583998,-3.644578 z m 0.117188,5.251953 c -1.721594,0.0033 -3.455273,0.680547 -4.867188,2.019531 a 0.60000002,0.60000002 0 0 0 -0.02148,0.847657 0.60000002,0.60000002 0 0 0 0.847656,0.02148 c 2.41877,-2.293831 5.678786,-2.306721 7.996094,-0.01758 a 0.60000002,0.60000002 0 0 0 0.849609,-0.0059 0.60000002,0.60000002 0 0 0 -0.0059,-0.847657 c -1.36721,-1.350581 -3.077199,-2.020815 -4.798791,-2.017531 z m -0.03516,3.304688 c -1.461504,0 -2.662109,1.184188 -2.662109,2.638672 0,1.454483 1.200605,2.638671 2.662109,2.638671 1.461505,0 2.66211,-1.184188 2.66211,-2.638671 0,-1.454484 -1.200605,-2.638672 -2.66211,-2.638672 z m 0,1 c 0.926895,0 1.66211,0.730522 1.66211,1.638672 0,0.90815 -0.735215,1.638671 -1.66211,1.638671 -0.926894,0 -1.662109,-0.730521 -1.662109,-1.638671 0,-0.90815 0.735215,-1.638672 1.662109,-1.638672 z" fill="#008055"/>
</svg>
