<svg xmlns="http://www.w3.org/2000/svg" width="48" height="48">
	<path d="m 8.6279295,6.876953 c -1.540838,0 -2.932348,0.341887 -3.970703,1.181641 -1.038354,0.839753 -1.630859,2.173849 -1.630859,3.810547 v 21.345703 a 0.80000001,0.80000001 0 0 0 0.800781,0.798828 0.80000001,0.80000001 0 0 0 0.798828,-0.798828 V 11.869141 c 0,-1.278303 0.387432,-2.03941 1.039063,-2.566407 0.65163,-0.526996 1.661488,-0.826171 2.96289,-0.826171 H 39.983398 c 1.152493,0 1.9623,0.361324 2.515625,0.935546 0.553326,0.574222 0.873047,1.402365 0.873047,2.457032 v 19.539062 c 0,1.250073 -0.323289,2.045181 -0.851562,2.558594 -0.528275,0.513412 -1.340967,0.810547 -2.53711,0.810547 h -1.990234 c -1.090663,0 -1.980869,0.385175 -2.642578,0.921875 -0.66171,0.536699 -1.120424,1.193573 -1.544922,1.787109 -0.424498,0.593536 -0.815198,1.123632 -1.248047,1.476563 -0.43285,0.35293 -0.881746,0.560546 -1.621094,0.560546 H 18.049805 c -0.77319,0 -1.252463,-0.213821 -1.707032,-0.570312 -0.454568,-0.356491 -0.862221,-0.887328 -1.304687,-1.480469 -0.442466,-0.59314 -0.918107,-1.249891 -1.597656,-1.783203 -0.67955,-0.533312 -1.584722,-0.912109 -2.69336,-0.912109 H 6.7822265 a 0.80000001,0.80000001 0 0 0 -0.800781,0.800781 0.80000001,0.80000001 0 0 0 0.800781,0.800781 H 10.74707 c 0.772233,0 1.250863,0.213844 1.705078,0.570313 0.454216,0.356469 0.862152,0.887234 1.304688,1.480468 0.442536,0.593235 0.919601,1.24796 1.599609,1.78125 0.68001,0.533291 1.584055,0.91211 2.69336,0.91211 h 12.886718 c 1.085988,0 1.972443,-0.383071 2.63086,-0.919922 0.658417,-0.536851 1.115063,-1.19427 1.539062,-1.787109 0.424,-0.592839 0.816632,-1.121528 1.251953,-1.47461 0.435322,-0.353081 0.888568,-0.5625 1.634766,-0.5625 h 1.990234 c 1.471847,0 2.753161,-0.391737 3.652344,-1.265625 0.899183,-0.873887 1.337891,-2.164351 1.337891,-3.705078 V 11.869141 c 0,-1.389234 -0.447043,-2.658057 -1.324219,-3.56836 C 42.772238,7.390478 41.486736,6.876953 39.983398,6.876953 Z m 4.5878905,5.199219 a 0.80000001,0.80000001 0 0 0 -0.800781,0.800781 v 5.869141 a 0.80000001,0.80000001 0 0 0 0.800781,0.800781 0.80000001,0.80000001 0 0 0 0.798828,-0.800781 V 12.876953 A 0.80000001,0.80000001 0 0 0 13.21582,12.076172 Z m 7.189453,0 a 0.80000001,0.80000001 0 0 0 -0.800781,0.800781 v 5.869141 a 0.80000001,0.80000001 0 0 0 0.800781,0.800781 0.80000001,0.80000001 0 0 0 0.798829,-0.800781 v -5.869141 a 0.80000001,0.80000001 0 0 0 -0.798829,-0.800781 z m 7.189454,0 a 0.80000001,0.80000001 0 0 0 -0.800782,0.800781 v 5.869141 a 0.80000001,0.80000001 0 0 0 0.800782,0.800781 0.80000001,0.80000001 0 0 0 0.800781,-0.800781 v -5.869141 a 0.80000001,0.80000001 0 0 0 -0.800781,-0.800781 z m 7.189453,0 a 0.80000001,0.80000001 0 0 0 -0.800782,0.800781 v 5.869141 a 0.80000001,0.80000001 0 0 0 0.800782,0.800781 0.80000001,0.80000001 0 0 0 0.800781,-0.800781 V 12.876953 A 0.80000001,0.80000001 0 0 0 34.78418,12.076172 Z" fill="#008055"/>
</svg>
