<svg xmlns="http://www.w3.org/2000/svg" width="48" height="48">
	<path d="M 8.9609376,4.2050779 C 7.227232,4.2050779 5.6263,4.8856257 4.650391,6.0917967 3.674482,7.2979674 3.333984,8.8202901 3.333984,10.386719 v 27.785156 c 0,1.606725 0.573054,3.100207 1.628907,4.117187 1.055853,1.016981 2.506176,1.50586 3.9980466,1.50586 A 1.8,1.8 0 0 0 10.759766,41.994141 1.8,1.8 0 0 0 8.9609376,40.195312 c -0.7394296,0 -1.2024306,-0.211505 -1.5019536,-0.5 -0.299521,-0.288494 -0.52539,-0.706463 -0.52539,-1.523437 V 10.386719 c 0,-1.0274721 0.243684,-1.6951463 0.515625,-2.0312505 C 7.72116,8.0193644 8.033244,7.8066404 8.9609376,7.8066404 H 39.041016 c 0.73943,0 1.200478,0.2095523 1.5,0.4980469 0.299522,0.2884945 0.52539,0.7064631 0.52539,1.5234375 V 37.613281 c 0,1.027472 -0.241731,1.695146 -0.513672,2.03125 -0.27194,0.336104 -0.584024,0.550781 -1.511718,0.550781 H 14.115234 a 1.8,1.8 0 0 0 -1.800781,1.798829 1.8,1.8 0 0 0 1.800781,1.800781 h 24.925782 c 1.733706,0 3.334637,-0.680548 4.310547,-1.886719 0.975909,-1.206171 1.314453,-2.728493 1.314453,-4.294922 V 9.8281248 c 0,-1.6067256 -0.5711,-3.1002071 -1.626953,-4.1171875 C 41.98321,4.6939568 40.532886,4.2050779 39.041016,4.2050779 Z M 19.181641,15.488281 A 1.7,1.7 0 0 0 17.482422,17.1875 v 8.412109 c 0,4.252898 3.287183,6.905547 6.513672,6.91211 3.226489,0.0066 6.523437,-2.644045 6.523437,-6.91211 V 17.1875 A 1.7,1.7 0 0 0 28.81836,15.488281 1.7,1.7 0 0 0 27.119141,17.1875 v 8.412109 c 0,2.700836 -1.523253,3.514957 -3.115235,3.511719 -1.591981,-0.0032 -3.121093,-0.834916 -3.121093,-3.511719 V 17.1875 a 1.7,1.7 0 0 0 -1.701172,-1.699219 z" fill="#008055"/>
</svg>
