<svg xmlns="http://www.w3.org/2000/svg" width="48" height="48">
	<path d="M 24.106447,1.6605647 C 21.283547,1.6268274 18.72311,2.5396033 16.784181,3.932049 14.840012,5.3282584 13.387023,7.2283453 13.2959,9.5140803 a 1.90019,1.90019 0 0 0 -0.002,0.076172 v 9.3183597 h -0.291016 a 1.90019,1.90019 0 0 0 -0.05664,0.002 c -1.843182,0.05477 -3.4824125,0.900813 -4.5136726,2.171875 -1.0312601,1.271062 -1.5,2.881324 -1.5,4.527344 a 1.90019,1.90019 0 0 0 0,0.0059 l 0.039062,14.640625 c 0.00108,1.659253 0.4558177,3.261242 1.5761719,4.414063 1.121692,1.154195 2.7516387,1.669921 4.4921877,1.669921 h 21.935546 c 1.619248,0 3.18873,-0.531036 4.330078,-1.630859 1.14135,-1.099823 1.761719,-2.714455 1.761719,-4.458984 V 25.609784 c 0,-1.70547 -0.371008,-3.35788 -1.425781,-4.66211 -1.054773,-1.304229 -2.782937,-2.039062 -4.666016,-2.039062 H 20.842775 a 1.9,1.9 0 0 0 -1.900391,1.90039 1.9,1.9 0 0 0 1.900391,1.900391 h 14.132812 c 1.031911,0 1.398973,0.243161 1.710938,0.628906 0.311965,0.385746 0.580078,1.134654 0.580078,2.271485 v 14.640625 c 0,0.91127 -0.254494,1.391979 -0.597656,1.722656 -0.343163,0.330677 -0.868717,0.566406 -1.69336,0.566406 H 13.040041 c -1.050253,0 -1.502021,-0.244325 -1.767579,-0.517578 -0.265558,-0.273253 -0.501953,-0.764857 -0.501953,-1.771484 a 1.90019,1.90019 0 0 0 0,-0.0039 L 10.7334,25.605877 c 9.03e-4,-0.912993 0.270338,-1.660479 0.650391,-2.128906 0.379787,-0.468102 0.826966,-0.74124 1.671874,-0.767578 l 2.138672,-0.002 a 1.90019,1.90019 0 0 0 1.900391,-1.898438 V 9.6625178 c 0.02499,-0.5798054 0.62611,-1.7251956 1.90625,-2.6445312 1.282306,-0.9208908 3.111077,-1.5875677 5.074219,-1.5605469 a 1.90019,1.90019 0 0 0 0.04102,0 c 2.139239,-0.016995 3.918263,0.7167771 5.132813,1.6601562 1.21455,0.9433791 1.720057,2.1319574 1.722656,2.4863281 v 5.578125 a 1.9,1.9 0 0 0 1.898438,1.900391 1.9,1.9 0 0 0 1.90039,-1.900391 V 9.5902522 a 1.90019,1.90019 0 0 0 0,-0.013672 C 34.754709,7.4226511 33.456281,5.5741418 31.581056,4.1175959 29.710243,2.6644769 27.118804,1.64155 24.106447,1.6605647 Z M 23.999025,23.473065 c -3.177986,0 -5.634766,2.403616 -5.634766,5.201172 0,1.91181 1.081999,3.2756 2.355469,4.205078 v 5.904297 c 0,3.739077 6.492187,3.736901 6.492187,0 V 32.89494 c 1.288449,-0.913976 2.421876,-2.261317 2.421876,-4.220703 0,-2.815997 -2.481186,-5.170464 -5.619141,-5.201172 a 1.50015,1.50015 0 0 0 -0.01563,0 z m -0.0039,3.001953 c 1.69754,0.02231 2.638672,1.164023 2.638672,2.199219 0,1.15973 -0.638696,1.78349 -1.552735,2.207031 a 1.50015,1.50015 0 0 0 -0.869141,1.359375 v 6.542969 c 0,-0.0057 -0.492187,-0.127678 -0.492187,0 v -6.542969 a 1.50015,1.50015 0 0 0 -0.869141,-1.359375 c -0.764015,-0.35423 -1.486328,-1.15307 -1.486328,-2.207031 0,-1.046157 0.907737,-2.196825 2.63086,-2.199219 z" fill="#008055"/>
</svg>
