<svg xmlns="http://www.w3.org/2000/svg" width="48" height="48">
	<path d="M 7.6582031 3.1757812 C 6.3133206 3.1757812 5.1472552 3.5332671 4.3300781 4.328125 C 3.5129011 5.1229829 3.1152344 6.2963986 3.1152344 7.7050781 L 3.1152344 25.652344 C 3.1152344 26.920886 3.5203808 28.075479 4.3183594 28.904297 C 5.116338 29.733115 6.2859893 30.201172 7.6582031 30.201172 L 15.025391 30.201172 C 15.41138 30.200741 15.724179 29.887942 15.724609 29.501953 C 15.725257 29.115201 15.412143 28.801213 15.025391 28.800781 L 7.6582031 28.800781 C 6.593237 28.800781 5.8409133 28.468228 5.3261719 27.933594 C 4.8114305 27.398959 4.5136719 26.628392 4.5136719 25.652344 L 4.5136719 7.7050781 C 4.5136719 6.5504977 4.8138902 5.8113235 5.3066406 5.3320312 C 5.7993911 4.8527392 6.5547556 4.5761719 7.6582031 4.5761719 L 25.482422 4.5761719 C 26.629669 4.5761719 27.562466 4.9029863 28.193359 5.4375 C 28.824252 5.9720137 29.189453 6.7048446 29.189453 7.7050781 L 29.189453 14.617188 C 29.189884 15.003177 29.502683 15.315976 29.888672 15.316406 C 30.274661 15.315976 30.58746 15.003177 30.587891 14.617188 L 30.587891 7.7050781 C 30.587891 6.3408317 30.029313 5.160425 29.097656 4.3710938 C 28.165999 3.5817625 26.896654 3.1757812 25.482422 3.1757812 L 7.6582031 3.1757812 z M 22.410156 17.349609 C 21.141609 17.349609 19.987022 17.754753 19.158203 18.552734 C 18.329384 19.350715 17.859375 20.522317 17.859375 21.894531 L 17.859375 39.71875 C 17.859375 41.127697 18.172932 42.395258 18.9375 43.339844 C 19.702068 44.28443 20.914852 44.824219 22.410156 44.824219 C 22.796146 44.823789 23.108945 44.51099 23.109375 44.125 C 23.110023 43.738248 22.796908 43.424259 22.410156 43.423828 C 21.228181 43.423828 20.516107 43.065241 20.025391 42.458984 C 19.534674 41.852728 19.259766 40.918013 19.259766 39.71875 L 19.259766 21.894531 C 19.259766 20.829565 19.59427 20.077244 20.128906 19.5625 C 20.663542 19.047756 21.434104 18.75 22.410156 18.75 L 40.355469 18.75 C 41.510048 18.75 42.251178 19.048264 42.730469 19.541016 C 43.209759 20.033767 43.486328 20.791088 43.486328 21.894531 L 43.486328 39.71875 C 43.486328 40.865998 43.157559 41.798797 42.623047 42.429688 C 42.088535 43.060578 41.355697 43.423828 40.355469 43.423828 L 26.019531 43.423828 C 25.632779 43.424259 25.319664 43.738248 25.320312 44.125 C 25.320743 44.51099 25.633541 44.823789 26.019531 44.824219 L 40.355469 44.824219 C 41.71971 44.824219 42.902076 44.265639 43.691406 43.333984 C 44.480736 42.40233 44.884766 41.132982 44.884766 39.71875 L 44.884766 21.894531 C 44.884766 20.549654 44.52923 19.383585 43.734375 18.566406 C 42.93952 17.749228 41.764149 17.349609 40.355469 17.349609 L 22.410156 17.349609 z M 24.527344 29.027344 A 1.9 1.9 0 0 0 22.626953 30.925781 A 1.9 1.9 0 0 0 24.527344 32.826172 L 37.800781 32.826172 A 1.9 1.9 0 0 0 39.701172 30.925781 A 1.9 1.9 0 0 0 37.800781 29.027344 L 24.527344 29.027344 z " fill="#008055"/>
</svg>
