<svg xmlns="http://www.w3.org/2000/svg" width="48" height="48">
	<path d="M 7.6582031 3.1757812 C 6.3133206 3.1757812 5.1472552 3.5332671 4.3300781 4.328125 C 3.5129011 5.1229829 3.1152344 6.2963986 3.1152344 7.7050781 L 3.1152344 25.652344 C 3.1152344 26.920886 3.5203808 28.075479 4.3183594 28.904297 C 5.116338 29.733115 6.2859893 30.201172 7.6582031 30.201172 L 14.355469 30.201172 A 0.69999999 0.69999999 0 0 0 15.056641 29.501953 A 0.69999999 0.69999999 0 0 0 14.355469 28.800781 L 7.6582031 28.800781 C 6.593237 28.800781 5.8409133 28.468228 5.3261719 27.933594 C 4.8114305 27.398959 4.5136719 26.628392 4.5136719 25.652344 L 4.5136719 7.7050781 C 4.5136719 6.5504977 4.8138902 5.8113234 5.3066406 5.3320312 C 5.7993911 4.8527391 6.5547556 4.5761719 7.6582031 4.5761719 L 25.482422 4.5761719 C 26.629669 4.5761719 27.562466 4.9029863 28.193359 5.4375 C 28.824252 5.9720137 29.189453 6.7048446 29.189453 7.7050781 L 29.189453 14.007812 A 0.69999999 0.69999999 0 0 0 29.888672 14.707031 A 0.69999999 0.69999999 0 0 0 30.587891 14.007812 L 30.587891 7.7050781 C 30.587891 6.3408317 30.029313 5.160425 29.097656 4.3710938 C 28.165999 3.5817625 26.896654 3.1757812 25.482422 3.1757812 L 7.6582031 3.1757812 z M 22.410156 16.150391 C 20.890899 16.150391 19.407148 16.648697 18.326172 17.689453 C 17.245196 18.730209 16.660156 20.258962 16.660156 21.894531 L 16.660156 39.71875 C 16.660156 41.307427 17.004608 42.859167 18.003906 44.09375 C 19.003204 45.328333 20.646283 46.023438 22.410156 46.023438 A 1.9 1.9 0 0 0 24.308594 44.125 A 1.9 1.9 0 0 0 22.410156 42.224609 C 21.496749 42.224609 21.213018 42.019384 20.957031 41.703125 C 20.701044 41.386866 20.460938 40.738283 20.460938 39.71875 L 20.460938 21.894531 C 20.460938 21.09292 20.678458 20.69775 20.960938 20.425781 C 21.243417 20.153812 21.684814 19.949219 22.410156 19.949219 L 40.355469 19.949219 C 41.292248 19.949219 41.660334 20.164235 41.869141 20.378906 C 42.077947 20.593577 42.285156 20.998032 42.285156 21.894531 L 42.285156 39.71875 C 42.285156 40.637153 42.023128 41.281204 41.707031 41.654297 C 41.390934 42.027389 41.043687 42.224609 40.355469 42.224609 L 27.738281 42.224609 A 1.9 1.9 0 0 0 25.837891 44.125 A 1.9 1.9 0 0 0 27.738281 46.023438 L 40.355469 46.023438 C 42.031721 46.023438 43.599676 45.298827 44.607422 44.109375 C 45.615167 42.919923 46.085938 41.361827 46.085938 39.71875 L 46.085938 21.894531 C 46.085938 20.342711 45.659089 18.823775 44.59375 17.728516 C 43.528411 16.633257 41.98195 16.150391 40.355469 16.150391 L 22.410156 16.150391 z " fill="#008055"/>
</svg>
