<svg xmlns="http://www.w3.org/2000/svg" width="48" height="48">
	<path d="m 8.9599611,4.205078 c -1.733706,0 -3.3346377,0.6805479 -4.3105469,1.8867188 C 3.673505,7.2979676 3.3330079,8.8202903 3.3330079,10.386719 v 27.785156 c 0,1.606726 0.5730532,3.098254 1.6289063,4.115234 1.0558531,1.016981 2.5061767,1.507813 3.9980469,1.507813 A 1.8,1.8 0 0 0 10.760742,41.994141 1.8,1.8 0 0 0 8.9599611,40.193359 c -0.7394299,0 -1.2024313,-0.209552 -1.5019532,-0.498047 C 7.1584862,39.406818 6.9345705,38.988849 6.9345705,38.171875 V 10.386719 c 0,-1.027472 0.241731,-1.6951462 0.5136718,-2.0312503 C 7.7201832,8.0193645 8.032267,7.8046874 8.9599611,7.8046874 H 39.040038 c 0.73943,0 1.202432,0.2115054 1.501954,0.5 0.299522,0.2884946 0.523437,0.7064631 0.523437,1.5234375 V 37.613281 c 0,1.027472 -0.241731,1.695146 -0.513672,2.03125 -0.271941,0.336104 -0.584024,0.548828 -1.511719,0.548828 H 14.114257 a 1.8,1.8 0 0 0 -1.800781,1.800782 1.8,1.8 0 0 0 1.800781,1.800781 h 24.925781 c 1.733706,0 3.334638,-0.680548 4.310547,-1.886719 0.97591,-1.206171 1.316407,-2.728493 1.316407,-4.294922 V 9.8281249 c 0,-1.6067256 -0.573054,-3.1002071 -1.628907,-4.1171875 C 41.982232,4.693957 40.531909,4.205078 39.040038,4.205078 Z M 19.180664,15.541016 a 1.7,1.7 0 0 0 -1.699219,1.699218 v 13.519532 a 1.7,1.7 0 0 0 1.699219,1.699218 1.7,1.7 0 0 0 1.701171,-1.699218 v -5.263672 h 6.042969 a 1.7,1.7 0 0 0 0.19336,-0.01172 v 5.275391 a 1.7,1.7 0 0 0 1.701171,1.699218 1.7,1.7 0 0 0 1.699219,-1.699218 V 17.240234 a 1.7,1.7 0 0 0 -1.699219,-1.699218 1.7,1.7 0 0 0 -1.701171,1.699218 v 4.867188 a 1.7,1.7 0 0 0 -0.19336,-0.01172 h -6.042969 v -4.855469 a 1.7,1.7 0 0 0 -1.701171,-1.699218 z" fill="#008055"/>
</svg>
