<svg xmlns="http://www.w3.org/2000/svg" width="48" height="48">
	<path d="m 24.550644,2.0847795 c -0.242178,-0.00437 -0.487088,-6.036e-4 -0.736328,0.013672 a 1.9,1.9 0 0 0 -1.789063,2.0058598 1.9,1.9 0 0 0 2.00586,1.787109 c 2.416259,-0.138393 4.619022,1.306275 6.984375,3.148438 2.360259,1.8381937 4.737794,4.2108567 8.113281,4.1816397 0.280072,0 0.255177,0.01657 0.394531,0.03711 -0.03376,0.155643 -0.06789,0.224278 -0.08008,0.953124 l 0.002,-0.0059 c -0.143814,7.260961 -1.167086,12.673254 -3.248047,16.904297 -2.08096,4.231043 -5.211086,7.383918 -9.980468,10.193359 -1.05924,0.621707 -1.717536,0.817355 -2.25586,0.814453 -0.538735,-0.0029 -1.163911,-0.189249 -2.208984,-0.875 a 1.90019,1.90019 0 0 0 -0.07422,-0.04687 C 15.953254,37.811837 12.853985,33.838989 11.007675,29.301576 9.1613647,24.764163 8.6258837,19.593285 8.4061127,14.030092 a 1.90019,1.90019 0 0 0 0,-0.0039 c -0.022562,-0.535164 0.079238,-0.610151 0.140625,-0.675782 0.061387,-0.06563 0.212003,-0.152414 0.443359,-0.185546 2.4146093,-0.34635 4.4174153,-1.702587 6.2128913,-3.03125 1.795475,-1.3286639 3.430787,-2.6966749 4.537109,-3.2929689 a 1.9,1.9 0 0 0 0.771484,-2.574225 1.9,1.9 0 0 0 -2.574218,-0.7714844 c -1.743278,0.9396064 -3.351167,2.3681724 -4.994141,3.5839844 -1.642974,1.215812 -3.2745963,2.149568 -4.4921873,2.324219 -0.901944,0.129167 -1.89805,0.515893 -2.679688,1.3515619 -0.780459,0.834409 -1.216975,2.089315 -1.162109,3.425781 5.1e-5,0.0013 -5.2e-5,0.0026 0,0.0039 0,0 0,0.002 0,0.002 0.22556,5.704388 0.754097,11.325034 2.878906,16.546875 2.118997,5.207556 5.8901613,9.949539 12.2031253,13.697265 1.380882,0.902341 2.774723,1.478377 4.25,1.486329 1.483489,0.008 2.843639,-0.540729 4.201172,-1.337891 a 1.90019,1.90019 0 0 0 0.002,0 c 5.230317,-3.080959 9.035551,-6.857662 11.462891,-11.792969 2.427339,-4.935307 3.486632,-10.926266 3.636718,-18.503906 a 1.90019,1.90019 0 0 0 0,-0.0059 c 0.0084,-0.503336 0.395283,-1.301397 -0.101562,-2.710938 -0.248422,-0.704771 -0.928073,-1.428101 -1.660156,-1.7480469 -0.732084,-0.319945 -1.470253,-0.396484 -2.353516,-0.396484 a 1.90019,1.90019 0 0 0 -0.02344,0 C 37.840524,9.4355351 35.822619,7.9679241 33.349472,6.0418111 31.030897,4.2360791 28.183318,2.1503465 24.550644,2.0847795 Z M 23.724472,16.037904 c -4.64548,0.113395 -9.176941,2.012271 -12.5625,5.361328 a 1.6,1.6 0 0 0 -0.01367,2.263672 1.6,1.6 0 0 0 2.263672,0.01172 c 5.620483,-5.559885 14.829303,-6.410246 21.302735,-0.0098 a 1.6,1.6 0 0 0 2.261718,-0.01172 1.6,1.6 0 0 0 -0.01172,-2.263672 c -3.835586,-3.79236 -8.594755,-5.464958 -13.240235,-5.351563 z m 0.265625,5.236328 c -3.315894,-0.04659 -6.636681,1.172227 -9.205078,3.712891 a 1.5,1.5 0 0 0 -0.01172,2.121094 1.5,1.5 0 0 0 2.121094,0.01172 c 3.994806,-3.951672 10.154526,-3.79834 14.162109,0.166015 a 1.5,1.5 0 0 0 2.121094,-0.01172 1.5,1.5 0 0 0 -0.01172,-2.121093 c -2.548108,-2.520623 -5.859887,-3.83232 -9.175781,-3.878907 z m 0.113281,5.31836 c -1.93125,0.0028 -3.872987,0.743907 -5.419921,2.210937 a 1.4,1.4 0 0 0 -0.05274,1.978516 1.4,1.4 0 0 0 1.980469,0.05273 c 2.14873,-2.03774 4.843628,-2.043696 6.882812,-0.0293 a 1.4,1.4 0 0 0 1.980469,-0.01367 1.4,1.4 0 0 0 -0.01172,-1.978516 c -1.506308,-1.488 -3.428124,-2.223482 -5.359375,-2.220703 z m -0.03711,4.576172 a 2.1622891,2.1389635 0 0 0 -2.162109,2.140625 2.1622891,2.1389635 0 0 0 2.162109,2.138672 2.1622891,2.1389635 0 0 0 2.162109,-2.138672 2.1622891,2.1389635 0 0 0 -2.162109,-2.140625 z" fill="#008055"/>
</svg>
