<svg xmlns="http://www.w3.org/2000/svg" width="48" height="48">
	<path d="M 24.787109 9.6542969 C 24.344121 9.6439474 23.900943 9.6447139 23.458984 9.65625 C 16.387646 9.8408279 9.4958776 12.810337 4.3242188 18.015625 A 0.5 0.5 0 0 0 4.3261719 18.722656 A 0.5 0.5 0 0 0 5.0332031 18.720703 C 15.020025 8.6689405 31.549281 7.2171863 42.966797 18.708984 A 0.5 0.5 0 0 0 43.673828 18.710938 A 0.5 0.5 0 0 0 43.675781 18.003906 C 38.14992 12.442094 31.43194 9.8095395 24.787109 9.6542969 z M 23.869141 18.238281 C 18.934289 18.164909 13.994076 20.020018 10.154297 23.884766 A 0.5 0.5 0 0 0 10.158203 24.591797 A 0.5 0.5 0 0 0 10.865234 24.589844 C 18.167396 17.240199 29.56137 17.531548 36.849609 24.867188 A 0.5 0.5 0 0 0 37.556641 24.869141 A 0.5 0.5 0 0 0 37.558594 24.162109 C 33.734593 20.313239 28.803992 18.311653 23.869141 18.238281 z M 24.060547 26.916016 C 21.361008 26.921001 18.64227 28.008411 16.408203 30.164062 A 0.5 0.5 0 0 0 16.396484 30.871094 A 0.5 0.5 0 0 0 17.103516 30.882812 C 21.236622 26.894778 26.916812 26.867516 30.888672 30.865234 A 0.5 0.5 0 0 0 31.595703 30.867188 A 0.5 0.5 0 0 0 31.599609 30.160156 C 29.441459 27.987956 26.760085 26.91103 24.060547 26.916016 z M 23.966797 32.777344 A 3.5475385 3.5706074 0 0 0 20.457031 36.347656 A 3.5475385 3.5706074 0 0 0 24.005859 39.919922 A 3.5475385 3.5706074 0 0 0 27.552734 36.347656 A 3.5475385 3.5706074 0 0 0 24.005859 32.777344 A 3.5475385 3.5706074 0 0 0 23.966797 32.777344 z " fill="#008055"/>
</svg>
