<svg xmlns="http://www.w3.org/2000/svg" width="48" height="48">
	<path d="m 40.856445,4.9601318 c -0.906314,0 -1.742348,0.3472471 -2.320312,0.9941406 -0.577964,0.6468936 -0.886719,1.5614445 -0.886719,2.6347657 V 41.403491 c 2.16e-4,0.331066 0.268543,0.599393 0.599609,0.599609 0.331066,-2.15e-4 0.599394,-0.268543 0.59961,-0.599609 V 8.5890381 c 0,-0.8467788 0.235972,-1.4466529 0.582031,-1.8339844 0.34606,-0.3873315 0.810927,-0.5957031 1.425781,-0.5957031 h 1.841797 c 0.741982,0 1.18105,0.2066443 1.490235,0.5761718 0.309186,0.3695278 0.505859,0.9780718 0.505859,1.8535157 V 41.403491 c 0,0.910571 -0.229471,1.654934 -0.582031,2.138672 -0.352559,0.483738 -0.794198,0.732422 -1.414063,0.732422 h -2.029297 c -0.331066,2.16e-4 -0.599393,0.268543 -0.599609,0.599609 2.16e-4,0.331066 0.268543,0.599393 0.599609,0.599609 h 2.029297 c 0.982565,0 1.840144,-0.477347 2.384766,-1.224609 0.544622,-0.747262 0.810547,-1.738274 0.810547,-2.845703 V 8.5890381 c 0,-1.0534562 -0.230842,-1.9605496 -0.785157,-2.6230469 C 44.554084,5.3034939 43.69342,4.9601318 42.698242,4.9601318 Z M 29.010742,14.311694 c -0.906306,0 -1.744294,0.347271 -2.322265,0.994141 -0.577973,0.64687 -0.886719,1.561444 -0.886719,2.634766 v 23.46289 c 2.16e-4,0.331066 0.268543,0.599393 0.599609,0.599609 0.331066,-2.15e-4 0.599394,-0.268543 0.59961,-0.599609 v -23.46289 c 0,-0.846779 0.235977,-1.44668 0.582031,-1.833985 0.346053,-0.387305 0.81286,-0.59375 1.427734,-0.59375 h 1.839844 c 0.741988,0 1.181058,0.204718 1.490234,0.574219 0.309177,0.369501 0.50586,0.978072 0.50586,1.853516 v 23.46289 c 0,0.910571 -0.229473,1.654934 -0.582032,2.138672 -0.352558,0.483738 -0.794204,0.732422 -1.414062,0.732422 h -2.029297 c -0.331066,2.16e-4 -0.599393,0.268543 -0.599609,0.599609 2.16e-4,0.331066 0.268543,0.599393 0.599609,0.599609 h 2.029297 c 0.98256,0 1.840145,-0.477347 2.384766,-1.224609 0.54462,-0.747262 0.8125,-1.738274 0.8125,-2.845703 v -23.46289 c 0,-1.053457 -0.23279,-1.960573 -0.78711,-2.623047 -0.554319,-0.662474 -1.414995,-1.00586 -2.410156,-1.00586 z m -11.847656,9.746094 c -0.906315,0 -1.744302,0.3492 -2.322266,0.996094 -0.577963,0.646893 -0.886718,1.559491 -0.886718,2.632812 v 13.716797 c 2.16e-4,0.331066 0.268543,0.599393 0.599609,0.599609 0.331066,-2.16e-4 0.599393,-0.268543 0.599609,-0.599609 V 27.686694 c 0,-0.846779 0.235973,-1.446653 0.582032,-1.833984 0.346059,-0.387332 0.812879,-0.59375 1.427734,-0.59375 h 1.841797 c 0.741982,0 1.179096,0.206644 1.488281,0.576172 0.309186,0.369527 0.505859,0.976118 0.505859,1.851562 v 13.716797 c 0,0.910571 -0.229471,1.654934 -0.582031,2.138672 -0.35256,0.483738 -0.792244,0.732422 -1.412109,0.732422 h -2.03125 c -0.331066,2.15e-4 -0.599394,0.268543 -0.59961,0.599609 2.16e-4,0.331066 0.268544,0.599394 0.59961,0.599609 h 2.03125 c 0.982565,0 1.83819,-0.477347 2.382812,-1.224609 0.544623,-0.747262 0.8125,-1.738274 0.8125,-2.845703 V 27.686694 c 0,-1.053456 -0.232794,-1.960549 -0.787109,-2.623047 C 20.858771,24.40115 20.00006,24.057788 19.004883,24.057788 Z M 5.3154295,33.225757 c -0.906319,0 -1.744303,0.347246 -2.322265,0.99414 -0.577963,0.646894 -0.886719,1.559493 -0.886719,2.632813 v 4.550781 c 2.157e-4,0.331066 0.2685435,0.599393 0.599609,0.599609 0.3318284,8.64e-4 0.6013479,-0.26778 0.601563,-0.599609 V 36.85271 c 0,-0.84678 0.23402,-1.446654 0.580078,-1.833985 0.346057,-0.38733 0.812873,-0.59375 1.427734,-0.59375 h 1.8417971 c 0.7419769,0 1.1790972,0.206654 1.4882813,0.576172 0.309184,0.369518 0.5078125,0.976174 0.5078125,1.851563 v 4.550781 c 0,0.910572 -0.2294738,1.654935 -0.5820313,2.138672 C 8.2187317,44.0259 7.777092,44.274585 7.1572266,44.274585 H 5.1279295 c -0.331828,-8.64e-4 -0.6013469,0.26778 -0.601562,0.599609 2.151e-4,0.331829 0.269734,0.600473 0.601562,0.599609 h 2.0292971 c 0.9825646,0 1.8381925,-0.477346 2.3828125,-1.224609 0.5446199,-0.747263 0.8124999,-1.738275 0.8124999,-2.845703 V 36.85271 c 0,-1.053411 -0.232796,-1.958612 -0.7871093,-2.621094 C 9.0111163,33.569134 8.1523998,33.225757 7.1572266,33.225757 Z" fill="#008055"/>
</svg>
