<svg xmlns="http://www.w3.org/2000/svg" width="48" height="48">
	<path d="M 21.332752,3.1100624 C 20.920997,3.1453564 20.547125,3.2633081 20.223377,3.3893593 19.57588,3.6414617 18.994419,3.998203 18.344471,4.4538124 a 2.0002,2.0002 0 0 0 -0.0078,0.00391 C 9.2546042,10.881719 7.2730352,22.653415 10.957752,31.110063 a 2.0002,2.0002 0 0 0 0.0078,0.01758 c 4.551881,10.191705 16.630554,14.368691 25.96875,13.705078 a 2,2 0 0 0 1.853516,-2.136719 2,2 0 0 0 -2.136719,-1.853516 c -7.852263,0.558017 -18.413421,-3.269173 -22.02539,-11.330078 -4.9e-4,-0.0011 4.89e-4,-0.0028 0,-0.0039 -2.866903,-6.584168 -1.394478,-16.185969 5.671887,-21.48243 -0.602727,6.101247 -0.387736,12.439964 2.769531,18.533203 a 2.0002,2.0002 0 0 0 0.002,0.0059 c 2.633591,5.049369 5.411814,9.019931 10.634766,12.810547 A 2,2 0 0 0 36.496861,38.932368 2,2 0 0 0 36.053502,36.1394 C 31.33491,32.714829 29.127462,29.530321 26.617955,24.719478 v -0.002 c -4.6e-4,-8.81e-4 -0.0015,-0.0011 -0.002,-0.002 C 23.806009,19.289925 23.66202,13.57812 24.340564,7.5436562 l -0.002,0.00586 C 24.42367,6.8101724 24.457932,6.1588733 24.307361,5.4401406 24.156791,4.7214078 23.635566,3.7358435 22.674549,3.3268593 22.19404,3.1223672 21.744507,3.0747688 21.332752,3.1100624 Z" fill="#008055"/>
</svg>
