<svg xmlns="http://www.w3.org/2000/svg" width="48" height="48">
	<path d="m 22.201483,4.4283609 c -0.523404,-0.222749 -1.048884,-0.117719 -1.546875,0.07617 -0.497992,0.193891 -1.021987,0.505614 -1.626953,0.929688 a 0.80008001,0.80008001 0 0 0 -0.002,0.002 C 10.449027,11.502739 8.5977364,22.697565 12.052999,30.627625 a 0.80008001,0.80008001 0 0 0 0.0039,0.0078 c 4.267853,9.555763 15.893166,13.630092 24.78711,12.998047 A 0.80000001,0.80000001 0 0 0 37.586248,42.77797 0.80000001,0.80000001 0 0 0 36.730779,42.037736 C 28.430906,42.627564 17.411216,38.692827 13.519842,29.988908 l -0.002,-0.0059 C 10.372154,22.756026 12.048823,12.331653 19.947576,6.7428139 l 0.002,-0.002 c 0.543648,-0.380868 0.987043,-0.630025 1.285157,-0.746094 0.298649,-0.116278 0.399935,-0.07013 0.339843,-0.0957 -0.06009,-0.02557 -0.05647,-0.102327 -0.01172,0.111328 0.04475,0.213655 0.05658,0.638312 -0.0098,1.214844 a 0.80008001,0.80008001 0 0 0 0,0.002 C 20.847174,13.505409 20.962018,19.895796 24.127275,26.004535 a 0.80008001,0.80008001 0 0 0 0.002,0.002 c 2.596633,4.978528 5.203297,8.713425 10.275391,12.394531 a 0.80000001,0.80000001 0 0 0 1.117187,-0.177735 0.80000001,0.80000001 0 0 0 -0.177734,-1.117187 c -4.8701,-3.534515 -7.248125,-6.955254 -9.79498,-11.83794 l -0.002,-0.002 C 22.585328,19.548497 22.452913,13.547098 23.142889,7.4088289 v -0.002 c 0.07682,-0.668549 0.08947,-1.222901 -0.01563,-1.724609 -0.105212,-0.502277 -0.402378,-1.031158 -0.925781,-1.253906 z" fill="#008055"/>
</svg>
