<svg xmlns="http://www.w3.org/2000/svg" width="48" height="48">
	<path d="M 11.950196,1.8498619 C 10.435783,1.8312089 9.0722151,2.3304164 8.0283207,3.1037682 6.9815604,3.8792431 6.1508088,4.9492823 6.0966801,6.3498619 a 1.60016,1.60016 0 0 0 0,0.0625 V 10.324471 H 6.6025395 C 5.5295244,10.357361 4.524122,10.889538 3.9208989,11.656502 3.3176756,12.423466 3.0654301,13.35587 3.0654301,14.283455 a 1.60016,1.60016 0 0 0 0,0.0039 l 0.019531,7.193359 c 6.777e-4,0.921599 0.2460375,1.889571 0.9296876,2.615234 0.6845957,0.726668 1.691735,1.041016 2.6562499,1.041016 H 17.118164 c 0.927196,0 1.877712,-0.325146 2.5625,-1.005859 0.684789,-0.680714 1.035157,-1.66169 1.035157,-2.654297 v -7.19336 c 0,-0.930423 -0.188111,-1.887488 -0.81836,-2.691406 -0.630248,-0.803911 -1.715333,-1.267571 -2.779297,-1.267571 h -5.86914 a 1.6,1.6 0 0 0 -1.5996095,1.599609 1.6,1.6 0 0 0 1.5996095,1.59961 h 5.86914 c 0.324547,0 0.238987,0.01646 0.259766,0.04297 0.02078,0.0265 0.136719,0.25057 0.136719,0.716796 v 7.19336 c 0,0.312392 -0.0675,0.362559 -0.08984,0.384765 -0.02234,0.02221 -0.06973,0.07422 -0.306641,0.07422 H 6.6708988 c -0.364865,0 -0.3519109,-0.0604 -0.3281249,-0.03516 0.023786,0.02525 -0.058594,-0.03558 -0.058594,-0.423828 a 1.60016,1.60016 0 0 0 0,-0.0039 l -0.017578,-7.19336 c 0.00112,-0.327881 0.1009635,-0.556855 0.1699219,-0.644531 0.069349,-0.08817 0.05633,-0.104912 0.2656249,-0.111328 h 0.9941407 a 1.60016,1.60016 0 0 0 1.5996094,-1.59961 V 6.4729088 C 9.2961702,6.4658885 9.4444435,6.0371833 9.9345707,5.6740807 10.424698,5.3109781 11.152311,5.0362705 11.916993,5.0471275 a 1.60016,1.60016 0 0 0 0.03516,0 c 0.845883,-0.00695 1.535141,0.292369 1.99414,0.6601563 0.458999,0.3677873 0.571153,0.8330991 0.570313,0.7148437 v 1.9570318 a 1.6,1.6 0 0 0 1.599609,1.599609 1.6,1.6 0 0 0 1.59961,-1.599609 V 6.4123619 a 1.60016,1.60016 0 0 0 0,-0.011719 C 17.70622,5.049868 16.959045,4.0226927 15.946289,3.2111901 14.938845,2.4039433 13.551791,1.8427138 11.950196,1.8498619 Z m 18.441406,0.234375 c -1.705445,0 -3.357879,0.3710147 -4.66211,1.4257813 C 24.425263,4.5647847 23.69043,6.2929444 23.69043,8.1760333 V 32.201424 c 0,1.781649 0.765753,3.435657 2.025391,4.501953 1.259637,1.066296 2.918109,1.56836 4.675781,1.56836 h 1.072266 v 1.808593 c 0,1.050286 -0.244318,1.503963 -0.517579,1.769532 -0.273261,0.265568 -0.762914,0.501953 -1.769531,0.501953 H 25.69043 a 1.9,1.9 0 0 0 -1.898438,1.898437 1.9,1.9 0 0 0 1.898438,1.900391 h 3.486328 c 1.661374,0 3.263772,-0.454466 4.417969,-1.576172 1.154196,-1.121706 1.669922,-2.753566 1.669922,-4.494141 v -3.708984 a 1.90019,1.90019 0 0 0 -1.900391,-1.900391 l -2.972656,0.002 c -1.033618,0 -1.777603,-0.294834 -2.220703,-0.669922 -0.4431,-0.375089 -0.681641,-0.808791 -0.681641,-1.601563 V 8.1760333 c 0,-1.0318991 0.245104,-1.398966 0.63086,-1.710937 0.385754,-0.311971 1.134689,-0.5800781 2.271484,-0.5800781 h 8.134766 c 0.91129,0 1.39198,0.2544953 1.722656,0.5976562 0.330676,0.343161 0.566406,0.8687147 0.566406,1.6933589 V 32.201424 c 0,1.050286 -0.24627,1.503963 -0.519531,1.769531 -0.273261,0.265569 -0.762915,0.501954 -1.769531,0.501954 a 1.9,1.9 0 0 0 -1.900391,1.898437 1.9,1.9 0 0 0 1.900391,1.900391 c 1.661373,0 3.263772,-0.454466 4.417968,-1.576172 1.154197,-1.121707 1.669922,-2.753567 1.669922,-4.494141 V 8.1760333 c 0,-1.6192438 -0.52908,-3.1887261 -1.628906,-4.3300776 C 41.885525,2.7046041 40.270907,2.0842369 38.526368,2.0842369 Z m 7.466797,40.2675781 a 1.9,1.9 0 0 0 -1.900391,1.898437 1.9,1.9 0 0 0 1.900391,1.900391 h 5.175781 a 1.9,1.9 0 0 0 1.900391,-1.900391 1.9,1.9 0 0 0 -1.900391,-1.898437 z" fill="#008055"/>
</svg>
