<svg xmlns="http://www.w3.org/2000/svg" width="48" height="48">
	<path d="M 11.950196,1.8498619 C 10.435783,1.8312089 9.0722151,2.3304164 8.0283207,3.1037682 6.9815604,3.8792431 6.1508088,4.9492823 6.0966801,6.3498619 c -4.069e-4,0.020831 -4.069e-4,0.041669 0,0.0625 v 3.9121091 h 0.5058594 c -1.0730151,0.03289 -2.0784175,0.565067 -2.6816406,1.332031 -0.6032233,0.766964 -0.8554688,1.699368 -0.8554688,2.626953 -1.6e-6,0.0013 -1.6e-6,0.0026 0,0.0039 l 0.019531,7.193359 c 6.777e-4,0.921599 0.2460375,1.889571 0.9296876,2.615234 0.6845957,0.726668 1.691735,1.041016 2.6562499,1.041016 H 17.118164 c 0.927196,0 1.877712,-0.325146 2.5625,-1.005859 0.684789,-0.680714 1.035157,-1.66169 1.035157,-2.654297 v -7.19336 c 0,-0.930423 -0.188111,-1.887488 -0.81836,-2.691406 -0.630248,-0.803911 -1.715333,-1.267571 -2.779297,-1.267571 h -5.86914 c -0.88335,2.16e-4 -1.5993937,0.716259 -1.5996095,1.599609 2.153e-4,0.883351 0.7162585,1.599394 1.5996095,1.59961 h 5.86914 c 0.324547,0 0.238987,0.01646 0.259766,0.04297 0.02078,0.0265 0.136719,0.25057 0.136719,0.716796 v 7.19336 c 0,0.312392 -0.0675,0.362559 -0.08984,0.384765 -0.02234,0.02221 -0.06973,0.07422 -0.306641,0.07422 H 6.6708988 c -0.364865,0 -0.3519109,-0.0604 -0.3281249,-0.03516 0.023786,0.02525 -0.058594,-0.03558 -0.058594,-0.423828 1.6e-6,-0.0013 1.6e-6,-0.0026 0,-0.0039 l -0.017578,-7.19336 c 0.00112,-0.327881 0.1009635,-0.556855 0.1699219,-0.644531 0.069349,-0.08817 0.05633,-0.104912 0.2656249,-0.111328 h 0.9941407 c 0.8833142,-3.04e-4 1.5993058,-0.716296 1.5996094,-1.59961 V 6.4729088 C 9.2961702,6.4658885 9.4444435,6.0371833 9.9345707,5.6740807 10.424698,5.3109781 11.152311,5.0362705 11.916993,5.0471275 c 0.01172,1.288e-4 0.02344,1.288e-4 0.03516,0 0.845883,-0.00695 1.535141,0.292369 1.99414,0.6601563 0.458999,0.3677873 0.571153,0.8330991 0.570313,0.7148437 v 1.9570318 c 2.16e-4,0.8833502 0.716259,1.5993932 1.599609,1.599609 0.883351,-2.153e-4 1.599394,-0.7162584 1.59961,-1.599609 V 6.4123619 c 1.4e-5,-0.00391 1.4e-5,-0.00781 0,-0.011719 C 17.70622,5.049868 16.959045,4.0226927 15.946289,3.2111901 14.938845,2.4039433 13.551791,1.8427138 11.950196,1.8498619 Z" fill="#008055"/>
</svg>
