<svg xmlns="http://www.w3.org/2000/svg" width="48" height="48">
	<path d="m 41.356445,4.6105243 c -0.882031,0 -1.689407,0.335674 -2.248047,0.9609375 -0.55864,0.6252634 -0.861328,1.5119636 -0.861328,2.5664062 v 32.814453 c 0,0.276142 0.223858,0.5 0.5,0.5 0.276142,0 0.5,-0.223858 0.5,-0.5 V 8.137868 c 0,-0.8656573 0.242036,-1.4914291 0.607422,-1.9003906 0.365385,-0.4089615 0.862804,-0.6269531 1.501953,-0.6269531 h 1.841797 c 0.763076,0 1.234841,0.2173862 1.564453,0.6113281 0.329612,0.3939419 0.53125,1.0257374 0.53125,1.9160156 v 32.814453 c 0,0.926976 -0.232994,1.691541 -0.601563,2.197266 -0.368569,0.505725 -0.844066,0.773437 -1.49414,0.773437 h -2.029297 c -0.276142,0 -0.5,0.223858 -0.5,0.5 0,0.276142 0.223858,0.5 0.5,0.5 h 2.029297 c 0.952346,0 1.774123,-0.458269 2.302734,-1.183593 0.528611,-0.725325 0.792969,-1.696085 0.792969,-2.78711 V 8.137868 c 0,-1.0386218 -0.229787,-1.9205107 -0.763672,-2.5585937 -0.533886,-0.6380831 -1.357958,-0.96875 -2.332031,-0.96875 z M 29.508789,12.962087 c -1.124913,0 -2.240297,0.453355 -2.992188,1.294922 -0.751891,0.841566 -1.115234,1.989196 -1.115234,3.232422 v 23.46289 c 0,0.828427 0.671573,1.5 1.5,1.5 0.828427,0 1.5,-0.671573 1.5,-1.5 v -23.46289 c 0,-0.676875 0.179433,-1.041717 0.351562,-1.234375 0.172129,-0.192659 0.359592,-0.292969 0.75586,-0.292969 h 1.841796 c 0.55208,0 0.67349,0.102152 0.798828,0.251953 0.12534,0.149801 0.296876,0.533456 0.296876,1.275391 v 23.46289 c 0,0.76293 -0.201632,1.323251 -0.410157,1.609375 -0.208524,0.286124 -0.337737,0.361328 -0.685547,0.361328 h -2.029296 c -0.828427,0 -1.5,0.671573 -1.5,1.5 0,0.828427 0.671573,1.5 1.5,1.5 h 2.029296 c 1.254621,0 2.422676,-0.648824 3.111328,-1.59375 0.688653,-0.944925 0.984376,-2.121882 0.984376,-3.376953 v -23.46289 c 0,-1.186966 -0.257935,-2.316995 -0.996094,-3.199219 -0.738159,-0.882224 -1.914539,-1.328125 -3.09961,-1.328125 z m -11.847657,9.746094 c -1.124912,0 -2.240293,0.453375 -2.992187,1.294922 -0.751894,0.841544 -1.115234,1.991182 -1.115234,3.234374 v 13.714844 c 0,0.828427 0.671573,1.5 1.5,1.5 0.828427,-10e-7 1.499999,-0.671573 1.499999,-1.5 V 27.237477 c 0,-0.676807 0.179432,-1.043673 0.351563,-1.236328 0.172131,-0.192654 0.359592,-0.292968 0.755859,-0.292968 h 1.841797 c 0.55208,0 0.673491,0.104111 0.798828,0.253906 0.125337,0.149795 0.296875,0.533517 0.296875,1.27539 v 13.714844 c 0,0.762927 -0.199677,1.323249 -0.408203,1.609375 -0.208526,0.286126 -0.339698,0.361328 -0.6875,0.361328 h -2.029297 c -0.828427,0 -1.5,0.671573 -1.5,1.5 0,0.828427 0.671573,1.5 1.5,1.5 h 2.029297 c 1.254618,0 2.422675,-0.648825 3.111328,-1.59375 0.688654,-0.944924 0.984375,-2.12188 0.984375,-3.376953 V 27.237477 c 0,-1.186925 -0.257933,-2.318967 -0.996093,-3.201171 C 21.864378,23.154101 20.688,22.708181 19.502929,22.708181 Z M 5.8154296,31.874196 c -1.124877,0 -2.2422322,0.453379 -2.9941406,1.294922 -0.7519084,0.841543 -1.1152344,1.991147 -1.1152344,3.234375 v 4.548828 c 0,0.828427 0.6715729,1.5 1.5,1.5 0.8284271,0 1.5,-0.671573 1.5,-1.5 v -4.548828 c 0,-0.676872 0.1794484,-1.041743 0.3515625,-1.234375 0.1721141,-0.192632 0.3615194,-0.294922 0.7578125,-0.294922 h 1.8398437 c 0.5520865,0 0.6734911,0.104112 0.7988281,0.253907 0.1253372,0.149793 0.296875,0.533517 0.296875,1.27539 v 4.548828 c 0,0.762927 -0.1996766,1.32325 -0.4082031,1.609375 -0.2085264,0.286125 -0.3396901,0.361328 -0.6875,0.361328 H 5.6259765 c -0.8284271,0 -1.5,0.671573 -1.5,1.5 0,0.828427 0.6715729,1.5 1.5,1.5 h 2.0292968 c 1.2546202,0 2.4226717,-0.648825 3.1113277,-1.59375 0.688656,-0.944924 0.984375,-2.12188 0.984375,-3.376953 v -4.548828 c 0,-1.186927 -0.25793,-2.318967 -0.996093,-3.201172 C 10.01672,32.320116 8.840347,31.874196 7.6552733,31.874196 Z" fill="#008055"/>
</svg>
