<svg xmlns="http://www.w3.org/2000/svg" width="48" height="48">
	<path d="M 9.7802732,2.5763438 C 8.5407779,2.5623448 7.426201,2.9773288 6.573242,3.6173598 5.7164929,4.2602338 5.0339148,5.1474618 4.9892576,6.3185318 a 1.40014,1.40014 0 0 0 -0.00195,0.05273 v 3.058594 l 0.5664062,-0.002 a 1.40014,1.40014 0 0 0 -0.042969,0.002 c -0.8945535,0.02779 -1.7388185,0.481805 -2.2382813,1.1250002 -0.4994628,0.643195 -0.703125,1.415134 -0.703125,2.18164 a 1.40014,1.40014 0 0 0 0,0.0039 l 0.013672,5.816407 c 6.606e-4,0.759797 0.1991753,1.566462 0.7695312,2.179687 0.5713081,0.614249 1.4204438,0.88086 2.2167969,0.88086 h 8.3417974 c 0.770572,0 1.568469,-0.275468 2.138671,-0.84961 0.570203,-0.574142 0.853516,-1.393432 0.853516,-2.214844 V 12.73649 c 0,-0.765156 -0.150277,-1.557943 -0.673828,-2.234375 C 15.705944,9.8256838 14.793029,9.4278958 13.911136,9.4278958 a 1.40014,1.40014 0 0 0 -0.002,0 H 9.7373045 a 1.4,1.4 0 0 0 -1.4003907,1.4003912 1.4,1.4 0 0 0 1.4003907,1.400391 h 4.1738285 c 0.226546,0 0.107351,-0.0087 0.103515,-0.01367 -0.0038,-0.005 0.08984,0.15734 0.08984,0.521484 v 5.816406 c 0,0.233789 -0.04867,0.24793 -0.04297,0.242188 0.0057,-0.0057 0.0083,0.02344 -0.15039,0.02344 H 5.5693357 c -0.1077815,0 -0.1379634,-0.006 -0.1621093,-0.0098 -0.010321,-0.03985 -0.023438,-0.11286 -0.023438,-0.25586 a 1.40014,1.40014 0 0 0 0,-0.002 L 5.370117,12.732594 c 0.00121,-0.247656 0.076126,-0.41309 0.1132812,-0.460938 0.037452,-0.04823 -0.013872,-0.03896 0.1152344,-0.04297 H 6.3876951 A 1.40014,1.40014 0 0 0 7.7880857,10.828295 V 6.4239978 c -0.00126,0.03297 0.096643,-0.290609 0.4667969,-0.568359 0.3701534,-0.27775 0.9227441,-0.488763 1.5,-0.480469 a 1.40014,1.40014 0 0 0 0.03125,0 c 0.6416934,-0.0052 1.1620514,0.225268 1.5078124,0.50586 0.345761,0.28059 0.416971,0.636229 0.416016,0.5 v 1.320312 a 1.4,1.4 0 0 0 1.40039,1.400391 1.4,1.4 0 0 0 1.400391,-1.400391 v -1.330078 a 1.40014,1.40014 0 0 0 0,-0.0098 c -0.0079,-1.13283 -0.623986,-1.98339 -1.453125,-2.65625 -0.825625,-0.670007 -1.963756,-1.135578 -3.2773438,-1.128906 z m 31.0761728,2.533203 c -0.882027,0 -1.689409,0.335674 -2.248047,0.960938 -0.558638,0.625263 -0.861329,1.513916 -0.861329,2.568359 V 41.453297 a 0.5,0.5 0 0 0 0.5,0.5 0.5,0.5 0 0 0 0.5,-0.5 V 8.6388438 c 0,-0.865657 0.242038,-1.493382 0.607422,-1.902344 0.365385,-0.408961 0.86281,-0.626953 1.501954,-0.626953 h 1.841796 c 0.763083,0 1.23484,0.217386 1.564454,0.611328 0.329612,0.393942 0.53125,1.027691 0.53125,1.917969 V 41.453297 c 0,0.926976 -0.232998,1.691568 -0.601563,2.197266 -0.368565,0.505698 -0.84405,0.773437 -1.494141,0.773437 h -2.03125 a 0.5,0.5 0 0 0 -0.5,0.5 0.5,0.5 0 0 0 0.5,0.5 h 2.03125 c 0.95234,0 1.774117,-0.460245 2.302735,-1.185547 0.528617,-0.725302 0.792969,-1.694132 0.792969,-2.785156 V 8.6388438 c 0,-1.038622 -0.229785,-1.920511 -0.763672,-2.558594 -0.533887,-0.638083 -1.357954,-0.970703 -2.332032,-0.970703 z M 29.008789,14.46111 c -0.88202,0 -1.689401,0.335698 -2.248047,0.960937 -0.558645,0.62524 -0.861328,1.513917 -0.861328,2.568359 v 23.462891 a 0.5,0.5 0 0 0 0.5,0.5 0.5,0.5 0 0 0 0.5,-0.5 V 17.990406 c 0,-0.865657 0.242042,-1.493408 0.607422,-1.902343 0.36538,-0.408936 0.862793,-0.626953 1.501953,-0.626953 h 1.841797 c 0.763086,0 1.234847,0.217412 1.564453,0.611328 0.329606,0.393915 0.53125,1.02769 0.53125,1.917968 v 23.462891 c 0,0.926976 -0.232998,1.691567 -0.601562,2.197266 C 31.976163,44.156261 31.500671,44.424 30.850586,44.424 h -2.029297 a 0.5,0.5 0 0 0 -0.5,0.5 0.5,0.5 0 0 0 0.5,0.5 h 2.029297 c 0.952336,0 1.774119,-0.460245 2.302734,-1.185547 0.528616,-0.725301 0.792969,-1.694132 0.792969,-2.785156 V 17.990406 c 0,-1.038621 -0.22978,-1.920534 -0.763672,-2.558593 -0.533891,-0.63806 -1.357967,-0.970703 -2.332031,-0.970703 z m -11.847656,9.746093 c -0.882027,0 -1.687456,0.337628 -2.246094,0.962891 -0.558638,0.625263 -0.861328,1.511964 -0.861328,2.566406 v 13.716797 a 0.5,0.5 0 0 0 0.5,0.5 0.5,0.5 0 0 0 0.5,-0.5 V 27.7365 c 0,-0.865657 0.240084,-1.491429 0.605468,-1.90039 0.365385,-0.408962 0.86281,-0.628907 1.501954,-0.628907 h 1.841796 c 0.763083,0 1.236794,0.21934 1.566407,0.613282 0.329613,0.393941 0.529297,1.025737 0.529297,1.916015 v 13.716797 c 0,0.926976 -0.232998,1.691568 -0.601563,2.197266 C 20.128505,44.156261 19.65302,44.424 19.002929,44.424 h -2.029296 a 0.5,0.5 0 0 0 -0.5,0.5 0.5,0.5 0 0 0 0.5,0.5 h 2.029296 c 0.95234,0 1.774117,-0.460245 2.302735,-1.185547 0.528618,-0.725302 0.792969,-1.694132 0.792969,-2.785156 V 27.7365 c 0,-1.038622 -0.229785,-1.92051 -0.763672,-2.558594 -0.533887,-0.638083 -1.357954,-0.970703 -2.332032,-0.970703 z M 5.3154295,33.375172 c -0.8820308,0 -1.6894099,0.335674 -2.2480469,0.960938 -0.558637,0.625264 -0.8613281,1.511964 -0.8613281,2.566406 v 4.550781 a 0.5,0.5 0 0 0 0.5,0.5 0.5,0.5 0 0 0 0.5,-0.5 v -4.550781 c 0,-0.865658 0.2420388,-1.49143 0.6074219,-1.900391 0.3653828,-0.408961 0.8628039,-0.626953 1.5019531,-0.626953 h 1.8398437 c 0.7630766,0 1.2367948,0.217397 1.5664063,0.611328 0.3296115,0.393932 0.5292969,1.025792 0.5292969,1.916016 v 4.550781 c 0,0.926977 -0.2329998,1.691568 -0.6015626,2.197266 C 8.2808513,44.156261 7.8053636,44.424 7.1552732,44.424 H 5.1259764 a 0.5,0.5 0 0 0 -0.5,0.5 0.5,0.5 0 0 0 0.5,0.5 h 2.0292968 c 0.9523397,0 1.7741196,-0.460244 2.3027344,-1.185547 0.5286148,-0.725302 0.7929684,-1.694132 0.7929684,-2.785156 v -4.550781 c 0,-1.038576 -0.227832,-1.920526 -0.7617184,-2.558594 -0.533886,-0.638068 -1.3599109,-0.96875 -2.3339844,-0.96875 z" fill="#008055"/>
</svg>
