<svg xmlns="http://www.w3.org/2000/svg" width="48" height="48">
	<path d="m 40.856445,3.6095464 c -1.124912,0 -2.242247,0.4533565 -2.994141,1.2949218 C 37.11041,5.7460337 36.74707,6.8956154 36.74707,8.1388432 V 40.953296 c 0,0.828427 0.671573,1.5 1.5,1.5 0.828427,0 1.5,-0.671573 1.5,-1.5 V 8.1388432 c 0,-0.676872 0.181385,-1.0417152 0.353516,-1.234375 0.172131,-0.1926596 0.359591,-0.2949218 0.755859,-0.2949218 h 1.841797 c 0.552079,0 0.673489,0.1041054 0.798828,0.2539062 0.125339,0.1498008 0.296875,0.5334561 0.296875,1.2753906 V 40.953296 c 0,0.762928 -0.20163,1.32325 -0.410156,1.609375 C 43.175262,42.848797 43.046044,42.924 42.698242,42.924 h -2.029297 c -0.828427,0 -1.5,0.671573 -1.5,1.5 0,0.828427 0.671573,1.5 1.5,1.5 h 2.029297 c 1.254618,0 2.422674,-0.650779 3.111328,-1.595704 0.688654,-0.944924 0.984375,-2.119927 0.984375,-3.375 V 8.1388432 c 0,-1.1869654 -0.257935,-2.3169945 -0.996094,-3.1992187 C 45.059692,4.0574003 43.883312,3.6095464 42.698242,3.6095464 Z M 29.008789,12.963062 c -1.124913,0 -2.240297,0.451402 -2.992188,1.292969 -0.751891,0.841567 -1.115234,1.991149 -1.115234,3.234375 v 23.46289 c 0,0.828427 0.671573,1.5 1.5,1.5 0.828427,0 1.5,-0.671573 1.5,-1.5 v -23.46289 c 0,-0.676875 0.179433,-1.041717 0.351562,-1.234375 0.172129,-0.192658 0.359592,-0.292969 0.75586,-0.292969 h 1.841797 c 0.552079,0 0.673489,0.102152 0.798828,0.251953 0.125338,0.149801 0.296875,0.533456 0.296875,1.275391 v 23.46289 c 0,0.76293 -0.201631,1.323251 -0.410157,1.609375 C 31.327608,42.848796 31.198395,42.924 30.850586,42.924 h -2.029297 c -0.828427,0 -1.5,0.671573 -1.5,1.5 0,0.828427 0.671573,1.5 1.5,1.5 h 2.029297 c 1.25462,0 2.422675,-0.650778 3.111328,-1.595704 0.688653,-0.944925 0.984375,-2.119929 0.984375,-3.375 v -23.46289 c 0,-1.186966 -0.257935,-2.316995 -0.996094,-3.199219 -0.738159,-0.882224 -1.914539,-1.328125 -3.099609,-1.328125 z m -11.847657,9.746094 c -1.124912,0 -2.240293,0.453376 -2.992187,1.294922 -0.751894,0.841545 -1.115234,1.989229 -1.115234,3.232422 v 13.716796 c 0,0.828427 0.671573,1.5 1.5,1.5 0.828427,0 1.5,-0.671573 1.5,-1.5 V 27.2365 c 0,-0.676808 0.179431,-1.041721 0.351562,-1.234376 0.172131,-0.192654 0.359592,-0.292968 0.755859,-0.292968 h 1.841797 c 0.55208,0 0.673491,0.104111 0.798829,0.253906 0.125337,0.149795 0.296874,0.531564 0.296874,1.273438 v 13.716796 c 0,0.762928 -0.199676,1.32325 -0.408203,1.609375 -0.208526,0.286126 -0.339698,0.361329 -0.6875,0.361329 h -2.029297 c -0.828427,0 -1.5,0.671573 -1.5,1.5 0,0.828427 0.671573,1.5 1.5,1.5 h 2.029297 c 1.254618,0 2.422675,-0.650779 3.111329,-1.595704 0.688653,-0.944924 0.984374,-2.119927 0.984374,-3.375 V 27.2365 c 0,-1.186927 -0.257933,-2.317014 -0.996093,-3.199219 C 21.364378,23.155076 20.188,22.709156 19.002929,22.709156 Z M 5.3154297,31.875171 c -1.1249099,0 -2.2422488,0.453377 -2.9941406,1.294922 -0.7518921,0.841545 -1.1152344,1.991183 -1.1152344,3.234375 v 4.548828 c 0,0.828427 0.6715729,1.5 1.5,1.5 0.8284271,0 1.5,-0.671573 1.5,-1.5 v -4.548828 c 0,-0.676807 0.1794319,-1.043673 0.3515625,-1.236328 0.1721305,-0.192655 0.3615523,-0.292969 0.7578125,-0.292969 h 1.8398437 c 0.5520864,0 0.6734911,0.104112 0.7988281,0.253907 0.1253373,0.149795 0.296875,0.533517 0.296875,1.27539 v 4.548828 c 0,0.762928 -0.1996766,1.32325 -0.4082031,1.609375 C 7.6342469,42.848797 7.5030833,42.924 7.1552734,42.924 H 5.1259765 c -0.8284271,0 -1.5,0.671573 -1.5,1.5 0,0.828427 0.6715729,1.5 1.5,1.5 h 2.0292969 c 1.2546202,0 2.4226719,-0.650779 3.1113276,-1.595704 0.688656,-0.944924 0.984375,-2.119927 0.984375,-3.375 v -4.548828 c 0,-1.186927 -0.25793,-2.318967 -0.996094,-3.201172 C 9.5167213,32.321091 8.340347,31.875171 7.1552734,31.875171 Z" fill="#008055"/>
</svg>
