<svg xmlns="http://www.w3.org/2000/svg" width="48" height="48">
	<path d="M 10.280273,2.0773211 C 9.0408078,2.063323 7.926214,2.4763619 7.0732421,3.1163837 6.2164794,3.7592499 5.5339112,4.6464827 5.4892577,5.8175555 a 1.40014,1.40014 0 0 0 0,0.054688 v 3.0566407 h 0.5214844 c -0.894555,0.027789 -1.7388196,0.4817801 -2.2382812,1.1249998 -0.4994617,0.64322 -0.703125,1.415114 -0.703125,2.18164 a 1.40014,1.40014 0 0 0 0,0.0039 l 0.013672,5.81836 c 6.608e-4,0.759769 0.2011276,1.566489 0.7714844,2.179687 0.5713087,0.614224 1.4184906,0.88086 2.2148437,0.88086 h 8.341797 c 0.770523,0 1.568442,-0.275489 2.138671,-0.84961 0.570229,-0.574119 0.853516,-1.393436 0.853516,-2.214843 v -5.818364 c 0,-0.765151 -0.150278,-1.555987 -0.673828,-2.232422 C 16.205941,9.3266683 15.293028,8.9288837 14.411133,8.9288837 h -4.173828 a 1.4,1.4 0 0 0 -1.4003911,1.4003903 1.4,1.4 0 0 0 1.4003911,1.400391 h 4.173828 c 0.226554,0 0.107354,-0.0087 0.103515,-0.01367 -0.0038,-0.005 0.08984,0.155383 0.08984,0.519531 v 5.81836 c 0,0.233792 -0.0487,0.246005 -0.04297,0.240234 0.0057,-0.0058 0.0084,0.02344 -0.15039,0.02344 H 6.0693358 c -0.1077815,0 -0.1379633,-0.006 -0.1621093,-0.0098 -0.010304,-0.0397 -0.023437,-0.112018 -0.023437,-0.253901 a 1.40014,1.40014 0 0 0 0,-0.0039 l -0.013672,-5.816403 c 6.087e-4,-0.249402 0.075979,-0.414852 0.1132812,-0.46289 0.035571,-0.04581 0.00338,-0.03826 0.109375,-0.04102 l 0.794922,-0.002 A 1.40014,1.40014 0 0 0 8.2880858,10.329274 V 5.9249774 C 8.2868358,5.9578504 8.3847408,5.6343518 8.7548827,5.356618 9.125025,5.0788843 9.6776082,4.8659013 10.254883,4.8741961 a 1.40014,1.40014 0 0 0 0.03125,0 c 0.6417,-0.00523 1.162053,0.22527 1.507812,0.5058594 0.345759,0.2805895 0.416971,0.6381784 0.416016,0.5019532 v 1.3203124 a 1.4,1.4 0 0 0 1.40039,1.3984376 1.4,1.4 0 0 0 1.400391,-1.3984376 V 5.872243 a 1.40014,1.40014 0 0 0 0,-0.00977 C 15.002842,4.7296477 14.386756,3.8790836 13.557617,3.206223 12.731993,2.5362143 11.593864,2.0706446 10.280273,2.0773167 Z m 31.076172,2.5332032 c -0.882031,0 -1.689407,0.335674 -2.248047,0.9609375 -0.55864,0.6252634 -0.861328,1.5119636 -0.861328,2.5664062 v 32.814453 a 0.5,0.5 0 0 0 0.5,0.5 0.5,0.5 0 0 0 0.5,-0.5 V 8.137868 c 0,-0.8656573 0.242036,-1.4914291 0.607422,-1.9003906 0.365385,-0.4089615 0.862804,-0.6269531 1.501953,-0.6269531 h 1.841797 c 0.763076,0 1.234841,0.2173862 1.564453,0.6113281 0.329612,0.3939419 0.53125,1.0257374 0.53125,1.9160156 v 32.814453 c 0,0.926976 -0.232994,1.691541 -0.601563,2.197266 -0.368569,0.505725 -0.844066,0.773437 -1.49414,0.773437 h -2.029297 a 0.5,0.5 0 0 0 -0.5,0.5 0.5,0.5 0 0 0 0.5,0.5 h 2.029297 c 0.952346,0 1.774123,-0.458269 2.302734,-1.183593 0.528611,-0.725325 0.792969,-1.696085 0.792969,-2.78711 V 8.137868 c 0,-1.0386218 -0.229787,-1.9205107 -0.763672,-2.5585937 -0.533886,-0.6380831 -1.357958,-0.96875 -2.332031,-0.96875 z M 29.508789,12.962087 c -1.124913,0 -2.240297,0.453355 -2.992188,1.294922 -0.751891,0.841566 -1.115234,1.989196 -1.115234,3.232422 v 23.46289 a 1.5,1.5 0 0 0 1.5,1.5 1.5,1.5 0 0 0 1.5,-1.5 v -23.46289 c 0,-0.676875 0.179433,-1.041717 0.351562,-1.234375 0.172129,-0.192659 0.359592,-0.292969 0.75586,-0.292969 h 1.841796 c 0.55208,0 0.67349,0.102152 0.798828,0.251953 0.12534,0.149801 0.296876,0.533456 0.296876,1.275391 v 23.46289 c 0,0.76293 -0.201632,1.323251 -0.410157,1.609375 -0.208524,0.286124 -0.337737,0.361328 -0.685547,0.361328 h -2.029296 a 1.5,1.5 0 0 0 -1.5,1.5 1.5,1.5 0 0 0 1.5,1.5 h 2.029296 c 1.254621,0 2.422676,-0.648824 3.111328,-1.59375 0.688653,-0.944925 0.984376,-2.121882 0.984376,-3.376953 v -23.46289 c 0,-1.186966 -0.257935,-2.316995 -0.996094,-3.199219 -0.738159,-0.882224 -1.914539,-1.328125 -3.09961,-1.328125 z m -11.847657,9.746094 c -1.124912,0 -2.240293,0.453375 -2.992187,1.294922 -0.751894,0.841544 -1.115234,1.991182 -1.115234,3.234374 v 13.714844 a 1.5,1.5 0 0 0 1.5,1.5 1.5,1.5 0 0 0 1.499999,-1.5 V 27.237477 c 0,-0.676807 0.179432,-1.043673 0.351563,-1.236328 0.172131,-0.192654 0.359592,-0.292968 0.755859,-0.292968 h 1.841797 c 0.55208,0 0.673491,0.104111 0.798828,0.253906 0.125337,0.149795 0.296875,0.533517 0.296875,1.27539 v 13.714844 c 0,0.762927 -0.199677,1.323249 -0.408203,1.609375 -0.208526,0.286126 -0.339698,0.361328 -0.6875,0.361328 h -2.029297 a 1.5,1.5 0 0 0 -1.5,1.5 1.5,1.5 0 0 0 1.5,1.5 h 2.029297 c 1.254618,0 2.422675,-0.648825 3.111328,-1.59375 0.688654,-0.944924 0.984375,-2.12188 0.984375,-3.376953 V 27.237477 c 0,-1.186925 -0.257933,-2.318967 -0.996093,-3.201171 C 21.864378,23.154101 20.688,22.708181 19.502929,22.708181 Z M 5.8154296,31.874196 c -1.124877,0 -2.2422322,0.453379 -2.9941406,1.294922 -0.7519084,0.841543 -1.1152344,1.991147 -1.1152344,3.234375 v 4.548828 a 1.5,1.5 0 0 0 1.5,1.5 1.5,1.5 0 0 0 1.5,-1.5 v -4.548828 c 0,-0.676872 0.1794484,-1.041743 0.3515625,-1.234375 0.1721141,-0.192632 0.3615194,-0.294922 0.7578125,-0.294922 h 1.8398437 c 0.5520865,0 0.6734911,0.104112 0.7988281,0.253907 0.1253372,0.149793 0.296875,0.533517 0.296875,1.27539 v 4.548828 c 0,0.762927 -0.1996766,1.32325 -0.4082031,1.609375 -0.2085264,0.286125 -0.3396901,0.361328 -0.6875,0.361328 H 5.6259765 a 1.5,1.5 0 0 0 -1.5,1.5 1.5,1.5 0 0 0 1.5,1.5 h 2.0292968 c 1.2546202,0 2.4226717,-0.648825 3.1113277,-1.59375 0.688656,-0.944924 0.984375,-2.12188 0.984375,-3.376953 v -4.548828 c 0,-1.186927 -0.25793,-2.318967 -0.996093,-3.201172 C 10.01672,32.320116 8.840347,31.874196 7.6552733,31.874196 Z" fill="#008055"/>
</svg>
