<svg xmlns="http://www.w3.org/2000/svg" width="48" height="48">
	<path d="M 9.7802733,2.0763433 C 8.5408137,2.0623485 7.4281638,2.4773396 6.5751953,3.1173589 5.7184325,3.7602251 5.0339113,4.647458 4.9892578,5.8185308 a 1.40014,1.40014 0 0 0 0,0.054687 V 8.9298585 H 5.5126953 C 4.6181118,8.9575615 3.7719435,9.411635 3.2724609,10.054859 2.7729784,10.698082 2.5693359,11.469973 2.5693359,12.2365 a 1.40014,1.40014 0 0 0 0,0.0039 l 0.015625,5.816406 c 3.307e-4,0.760354 0.19867,1.565973 0.7695313,2.179688 0.5713375,0.614232 1.4185345,0.882818 2.2148437,0.882818 h 8.3417961 c 0.770524,0 1.568443,-0.277442 2.138672,-0.851562 0.57023,-0.574121 0.853516,-1.391484 0.853516,-2.212891 V 12.2365 c 0,-0.765153 -0.150277,-1.557941 -0.673828,-2.234375 C 15.705941,9.3256903 14.793029,8.9298589 13.911132,8.9298589 H 9.7373043 A 1.4,1.4 0 0 0 8.3369141,10.33025 1.4,1.4 0 0 0 9.7373043,11.728687 h 4.1738277 c 0.226556,0 0.109308,-0.0068 0.105469,-0.01172 -0.0038,-0.005 0.08789,0.155382 0.08789,0.519532 v 5.818359 c 0,0.233793 -0.0487,0.246005 -0.04297,0.240234 0.0057,-0.0058 0.0084,0.02344 -0.150391,0.02344 H 5.5693359 c -0.1077994,0 -0.137962,-0.006 -0.1621094,-0.0098 -0.010308,-0.0397 -0.023437,-0.111989 -0.023437,-0.253906 a 1.40014,1.40014 0 0 0 0,-0.0039 l -0.013672,-5.81836 c 0.00121,-0.247734 0.076148,-0.413118 0.1132812,-0.460937 0.03743,-0.0482 -0.013852,-0.03897 0.1152344,-0.04297 H 6.3896484 A 1.40014,1.40014 0 0 0 7.7880859,10.33025 V 5.9259526 C 7.7868325,5.9588254 7.8847406,5.6353271 8.2548828,5.3575932 8.625025,5.0798595 9.1776093,4.8668766 9.7548823,4.8751714 a 1.40014,1.40014 0 0 0 0.033204,0 c 0.6416997,-0.00523 1.1600997,0.2252699 1.5058587,0.5058594 0.345759,0.2805894 0.416971,0.6381784 0.416016,0.5019531 v 1.3183593 a 1.4,1.4 0 0 0 1.40039,1.4003907 1.4,1.4 0 0 0 1.400391,-1.4003907 v -1.328125 a 1.40014,1.40014 0 0 0 0,-0.00977 C 14.502796,4.7306273 13.886755,3.8800632 13.057617,3.2072026 12.231992,2.5371933 11.093865,2.0696703 9.7802733,2.0763433 Z M 40.856445,3.6095464 c -1.124912,0 -2.242247,0.4533565 -2.994141,1.2949218 C 37.11041,5.7460337 36.74707,6.8956154 36.74707,8.1388432 V 40.953296 a 1.5,1.5 0 0 0 1.5,1.5 1.5,1.5 0 0 0 1.5,-1.5 V 8.1388432 c 0,-0.676872 0.181385,-1.0417152 0.353516,-1.234375 0.172131,-0.1926596 0.359591,-0.2949218 0.755859,-0.2949218 h 1.841797 c 0.552079,0 0.673489,0.1041054 0.798828,0.2539062 0.125339,0.1498008 0.296875,0.5334561 0.296875,1.2753906 V 40.953296 c 0,0.762928 -0.20163,1.32325 -0.410156,1.609375 C 43.175262,42.848797 43.046044,42.924 42.698242,42.924 h -2.029297 a 1.5,1.5 0 0 0 -1.5,1.5 1.5,1.5 0 0 0 1.5,1.5 h 2.029297 c 1.254618,0 2.422674,-0.650779 3.111328,-1.595704 0.688654,-0.944924 0.984375,-2.119927 0.984375,-3.375 V 8.1388432 c 0,-1.1869654 -0.257935,-2.3169945 -0.996094,-3.1992187 C 45.059692,4.0574003 43.883312,3.6095464 42.698242,3.6095464 Z M 29.008789,12.963062 c -1.124913,0 -2.240297,0.451402 -2.992188,1.292969 -0.751891,0.841567 -1.115234,1.991149 -1.115234,3.234375 v 23.46289 a 1.5,1.5 0 0 0 1.5,1.5 1.5,1.5 0 0 0 1.5,-1.5 v -23.46289 c 0,-0.676875 0.179433,-1.041717 0.351562,-1.234375 0.172129,-0.192658 0.359592,-0.292969 0.75586,-0.292969 h 1.841797 c 0.552079,0 0.673489,0.102152 0.798828,0.251953 0.125338,0.149801 0.296875,0.533456 0.296875,1.275391 v 23.46289 c 0,0.76293 -0.201631,1.323251 -0.410157,1.609375 C 31.327608,42.848796 31.198395,42.924 30.850586,42.924 h -2.029297 a 1.5,1.5 0 0 0 -1.5,1.5 1.5,1.5 0 0 0 1.5,1.5 h 2.029297 c 1.25462,0 2.422675,-0.650778 3.111328,-1.595704 0.688653,-0.944925 0.984375,-2.119929 0.984375,-3.375 v -23.46289 c 0,-1.186966 -0.257935,-2.316995 -0.996094,-3.199219 -0.738159,-0.882224 -1.914539,-1.328125 -3.099609,-1.328125 z m -11.847657,9.746094 c -1.124912,0 -2.240293,0.453376 -2.992187,1.294922 -0.751894,0.841545 -1.115234,1.989229 -1.115234,3.232422 v 13.716796 a 1.5,1.5 0 0 0 1.5,1.5 1.5,1.5 0 0 0 1.5,-1.5 V 27.2365 c 0,-0.676808 0.179431,-1.041721 0.351562,-1.234376 0.172131,-0.192654 0.359592,-0.292968 0.755859,-0.292968 h 1.841797 c 0.55208,0 0.673491,0.104111 0.798829,0.253906 0.125337,0.149795 0.296874,0.531564 0.296874,1.273438 v 13.716796 c 0,0.762928 -0.199676,1.32325 -0.408203,1.609375 -0.208526,0.286126 -0.339698,0.361329 -0.6875,0.361329 h -2.029297 a 1.5,1.5 0 0 0 -1.5,1.5 1.5,1.5 0 0 0 1.5,1.5 h 2.029297 c 1.254618,0 2.422675,-0.650779 3.111329,-1.595704 0.688653,-0.944924 0.984374,-2.119927 0.984374,-3.375 V 27.2365 c 0,-1.186927 -0.257933,-2.317014 -0.996093,-3.199219 C 21.364378,23.155076 20.188,22.709156 19.002929,22.709156 Z M 5.3154297,31.875171 c -1.1249099,0 -2.2422488,0.453377 -2.9941406,1.294922 -0.7518921,0.841545 -1.1152344,1.991183 -1.1152344,3.234375 v 4.548828 a 1.5,1.5 0 0 0 1.5,1.5 1.5,1.5 0 0 0 1.5,-1.5 v -4.548828 c 0,-0.676807 0.1794319,-1.043673 0.3515625,-1.236328 0.1721305,-0.192655 0.3615523,-0.292969 0.7578125,-0.292969 h 1.8398437 c 0.5520864,0 0.6734911,0.104112 0.7988281,0.253907 0.1253373,0.149795 0.296875,0.533517 0.296875,1.27539 v 4.548828 c 0,0.762928 -0.1996766,1.32325 -0.4082031,1.609375 C 7.6342469,42.848797 7.5030833,42.924 7.1552734,42.924 H 5.1259765 a 1.5,1.5 0 0 0 -1.5,1.5 1.5,1.5 0 0 0 1.5,1.5 h 2.0292969 c 1.2546202,0 2.4226719,-0.650779 3.1113276,-1.595704 0.688656,-0.944924 0.984375,-2.119927 0.984375,-3.375 v -4.548828 c 0,-1.186927 -0.25793,-2.318967 -0.996094,-3.201172 C 9.5167213,32.321091 8.340347,31.875171 7.1552734,31.875171 Z" fill="#008055"/>
</svg>
