<svg xmlns="http://www.w3.org/2000/svg" width="48" height="48">
	<path d="M 10.280274,2.0763453 C 9.040768,2.0622826 7.9281681,2.4773187 7.0751955,3.1173609 6.2184287,3.7602503 5.5339112,4.6474657 5.489258,5.8185328 a 1.40014,1.40014 0 0 0 0,0.052734 v 3.0585937 l 0.5664062,-0.00195 a 1.40014,1.40014 0 0 0 -0.042969,0.00195 c -0.894555,0.027789 -1.7407727,0.4817804 -2.2402344,1.1250005 -0.4994617,0.643219 -0.703125,1.415114 -0.703125,2.18164 a 1.40014,1.40014 0 0 0 0,0.0039 l 0.015625,5.816406 c 6.61e-4,0.759769 0.1991749,1.566489 0.7695313,2.179687 0.5713087,0.614223 1.4184906,0.88086 2.2148437,0.88086 h 8.3417972 c 0.770524,0 1.568443,-0.275489 2.138672,-0.84961 0.570229,-0.574121 0.855469,-1.393436 0.855469,-2.214843 v -5.816407 c 0,-0.765119 -0.150275,-1.557962 -0.673828,-2.234375 C 16.207892,9.3257069 15.293029,8.9279004 14.411133,8.9279004 h -4.173828 a 1.4,1.4 0 0 0 -1.4003911,1.4003906 1.4,1.4 0 0 0 1.4003911,1.400391 h 4.173828 c 0.226554,0 0.10931,-0.0068 0.105469,-0.01172 -0.0038,-0.005 0.08789,0.155451 0.08789,0.519531 V 18.0529 c 0,0.233792 -0.04675,0.247958 -0.04101,0.242187 0.0057,-0.0058 0.0064,0.02344 -0.152344,0.02344 H 6.0693361 c -0.1075383,0 -0.136309,-0.006 -0.1601562,-0.0098 -0.010787,-0.03986 -0.025391,-0.112893 -0.025391,-0.255859 a 1.40014,1.40014 0 0 0 0,-0.002 l -0.013672,-5.818359 c 0.00121,-0.247741 0.07808,-0.413089 0.1152344,-0.460937 0.037451,-0.04823 -0.015834,-0.03896 0.1132812,-0.04297 H 6.8896487 A 1.40014,1.40014 0 0 0 8.2880862,10.328298 V 5.9259547 C 8.2868329,5.9588218 8.3847499,5.6333778 8.7548831,5.3556422 9.1250162,5.0779065 9.6796076,4.8668476 10.256836,4.8751734 a 1.40014,1.40014 0 0 0 0.03125,0 c 0.641701,-0.00523 1.160101,0.22527 1.50586,0.5058594 0.345758,0.2805894 0.416971,0.6362253 0.416015,0.5 v 1.3203125 a 1.4,1.4 0 0 0 1.400391,1.4003906 1.4,1.4 0 0 0 1.40039,-1.4003906 V 5.8712672 a 1.40014,1.40014 0 0 0 0,-0.00977 C 15.002797,4.7286762 14.388709,3.8800652 13.559571,3.2072047 12.733942,2.5371924 11.593873,2.0696681 10.280274,2.0763453 Z m 31.076171,2.5332031 c -0.88203,0 -1.689407,0.3356741 -2.248046,0.9609375 -0.55864,0.6252635 -0.859375,1.5139167 -0.859375,2.5683594 V 40.953298 a 0.5,0.5 0 0 0 0.5,0.5 0.5,0.5 0 0 0 0.5,-0.5 V 8.1388453 c 0,-0.8656573 0.240083,-1.4933822 0.605468,-1.9023438 0.365386,-0.4089615 0.862804,-0.6269531 1.501953,-0.6269531 h 1.841797 c 0.763077,0 1.236795,0.2173862 1.566407,0.6113281 0.329612,0.3939421 0.529296,1.0276906 0.529296,1.9179688 V 40.953298 c 0,0.926976 -0.232993,1.69154 -0.601562,2.197266 -0.368569,0.505725 -0.844067,0.773437 -1.494141,0.773437 h -2.029297 a 0.5,0.5 0 0 0 -0.5,0.5 0.5,0.5 0 0 0 0.5,0.5 h 2.029297 c 0.952346,0 1.774124,-0.458269 2.302735,-1.183593 0.528611,-0.725325 0.792968,-1.696086 0.792968,-2.78711 V 8.1388453 c 0,-1.0386218 -0.229786,-1.9205107 -0.763671,-2.5585938 C 44.996388,4.9421686 44.172316,4.6095484 43.198242,4.6095484 Z M 29.508789,13.961111 c -0.882031,0 -1.687456,0.335673 -2.246094,0.960937 -0.558637,0.625264 -0.861328,1.513918 -0.861328,2.56836 v 23.46289 a 0.5,0.5 0 0 0 0.5,0.5 0.5,0.5 0 0 0 0.5,-0.5 v -23.46289 c 0,-0.865659 0.242039,-1.493383 0.607422,-1.902344 0.365383,-0.408961 0.860851,-0.626953 1.5,-0.626953 h 1.841797 c 0.763077,0 1.236794,0.217386 1.566406,0.611328 0.329612,0.393942 0.529297,1.02769 0.529297,1.917969 v 23.46289 c 0,0.926977 -0.232995,1.691541 -0.601562,2.197266 -0.368568,0.505724 -0.844061,0.773437 -1.494141,0.773437 h -2.029297 a 0.5,0.5 0 0 0 -0.5,0.5 0.5,0.5 0 0 0 0.5,0.5 h 2.029297 c 0.95235,0 1.774124,-0.458269 2.302735,-1.183593 0.52861,-0.725326 0.792968,-1.696086 0.792968,-2.78711 v -23.46289 c 0,-1.038623 -0.227833,-1.920511 -0.761718,-2.558594 -0.533886,-0.638083 -1.359911,-0.970703 -2.333985,-0.970703 z m -11.845703,9.748047 c -0.88202,0 -1.689401,0.335698 -2.248047,0.960937 -0.558645,0.625239 -0.861328,1.511964 -0.861328,2.566406 v 13.716797 a 0.5,0.5 0 0 0 0.5,0.5 0.5,0.5 0 0 0 0.5,-0.5 V 27.236501 c 0,-0.865657 0.242042,-1.491455 0.607422,-1.90039 0.36538,-0.408936 0.862793,-0.626953 1.501953,-0.626953 h 1.839844 c 0.763076,0 1.236795,0.217396 1.566406,0.611328 0.329612,0.393931 0.529297,1.025791 0.529297,1.916015 v 13.716797 c 0,0.926976 -0.231041,1.69154 -0.599609,2.197266 -0.368569,0.505725 -0.84602,0.773437 -1.496094,0.773437 h -2.029297 a 0.5,0.5 0 0 0 -0.5,0.5 0.5,0.5 0 0 0 0.5,0.5 h 2.029297 c 0.952346,0 1.774123,-0.458269 2.302734,-1.183593 0.528611,-0.725325 0.792969,-1.696086 0.792969,-2.78711 V 27.236501 c 0,-1.038575 -0.227833,-1.920525 -0.761719,-2.558593 -0.533886,-0.638069 -1.359911,-0.96875 -2.333984,-0.96875 z M 5.8154299,31.875173 c -1.124877,0 -2.2422323,0.453379 -2.9941407,1.294922 -0.7519083,0.841543 -1.1152343,1.989194 -1.1152343,3.232422 v 4.550781 a 1.5,1.5 0 0 0 1.5,1.5 1.5,1.5 0 0 0 1.5,-1.5 v -4.550781 c 0,-0.676872 0.1814015,-1.041743 0.3535156,-1.234375 0.1721141,-0.192632 0.3595663,-0.292969 0.7558594,-0.292969 h 1.8417969 c 0.5520864,0 0.673491,0.104111 0.7988281,0.253906 0.1253371,0.149795 0.296875,0.531565 0.296875,1.273438 v 4.550781 c 0,0.762927 -0.2016298,1.321297 -0.4101562,1.607422 -0.2085265,0.286125 -0.337737,0.363281 -0.6855469,0.363281 h -2.03125 a 1.5,1.5 0 0 0 -1.5,1.5 1.5,1.5 0 0 0 1.5,1.5 h 2.03125 c 1.2546201,0 2.4207192,-0.650778 3.1093752,-1.595703 0.688656,-0.944925 0.986328,-2.119927 0.986328,-3.375 v -4.550781 c 0,-1.186927 -0.257931,-2.317014 -0.996094,-3.199219 -0.738163,-0.882205 -1.9145357,-1.328125 -3.0996092,-1.328125 z" fill="#008055"/>
</svg>
