<svg xmlns="http://www.w3.org/2000/svg" width="48" height="48">
	<path d="M 10.280273,2.0763437 C 9.0407882,2.062349 7.9281482,2.4773316 7.0751952,3.1173594 6.2184482,3.7602341 5.5339152,4.6474632 5.4892582,5.8185312 a 1.40014,1.40014 0 0 0 0,0.054688 v 3.0566407 h 0.523437 c -0.894555,0.027789 -1.740772,0.4818022 -2.240234,1.1250001 -0.499463,0.643197 -0.703125,1.415139 -0.703125,2.18164 a 1.40014,1.40014 0 0 0 0,0.0039 l 0.015625,5.818359 c 6.61e-4,0.759769 0.199175,1.566489 0.769531,2.179687 0.571309,0.614223 1.418491,0.88086 2.214844,0.88086 h 8.3417968 c 0.770523,0 1.568442,-0.275489 2.138672,-0.84961 0.570229,-0.57412 0.855468,-1.393436 0.855468,-2.214843 v -5.81836 c 0,-0.765151 -0.152204,-1.557957 -0.675781,-2.234375 C 16.205915,9.3257078 15.292986,8.9298594 14.411133,8.9298594 H 10.237305 A 1.4,1.4 0 0 0 8.8369142,10.33025 1.4,1.4 0 0 0 10.237305,11.728688 h 4.173828 c 0.226596,0 0.109333,-0.0067 0.105468,-0.01172 -0.0039,-0.005 0.08789,0.155383 0.08789,0.519531 v 5.81836 c 0,0.233793 -0.04675,0.246005 -0.04101,0.240234 0.0057,-0.0058 0.0064,0.02344 -0.152344,0.02344 H 6.0693362 c -0.107782,0 -0.137964,-0.006 -0.162109,-0.0098 -0.010304,-0.0397 -0.023438,-0.112023 -0.023438,-0.253906 a 1.40014,1.40014 0 0 0 0,-0.0039 l -0.013672,-5.816406 c 6.08e-4,-0.24933 0.077934,-0.414854 0.115234,-0.46289 0.03745,-0.04823 -0.015833,-0.03896 0.113282,-0.04297 h 0.791015 A 1.40014,1.40014 0 0 0 8.2880862,10.33025 V 5.9259531 c -0.00126,0.032968 0.096644,-0.2906091 0.466797,-0.5683594 0.370152,-0.2777502 0.922751,-0.4907163 1.4999998,-0.4824219 a 1.40014,1.40014 0 0 0 0.0332,0 c 0.6417,-0.00523 1.1601,0.22527 1.505859,0.5058594 0.345759,0.2805895 0.416971,0.6381785 0.416016,0.5019532 v 1.3183593 a 1.4,1.4 0 0 0 1.40039,1.4003907 1.4,1.4 0 0 0 1.400391,-1.4003907 v -1.328125 a 1.40014,1.40014 0 0 0 0,-0.00977 C 15.002797,4.7306278 14.388709,3.8800637 13.55957,3.2072031 12.733942,2.5371908 11.593873,2.0696665 10.280273,2.0763437 Z M 41.356445,4.6115 c -0.88202,0 -1.689401,0.335698 -2.248047,0.9609375 -0.558645,0.6252395 -0.859375,1.5119636 -0.859375,2.5664062 V 40.953297 a 0.5,0.5 0 0 0 0.5,0.5 0.5,0.5 0 0 0 0.5,-0.5 V 8.1388437 c 0,-0.8656573 0.240089,-1.4914551 0.605469,-1.9003906 C 40.219872,5.8295176 40.717285,5.6115 41.356445,5.6115 h 1.841797 c 0.763077,0 1.236795,0.2173964 1.566406,0.6113281 0.329612,0.3939317 0.529297,1.0257913 0.529297,1.9160156 V 40.953297 c 0,0.926976 -0.232998,1.691568 -0.601562,2.197266 C 44.323819,43.656261 43.848327,43.924 43.198242,43.924 h -2.029297 a 0.5,0.5 0 0 0 -0.5,0.5 0.5,0.5 0 0 0 0.5,0.5 h 2.029297 c 0.952336,0 1.774119,-0.458292 2.302735,-1.183593 0.528615,-0.725302 0.792968,-1.696085 0.792968,-2.78711 V 8.1388437 c 0,-1.0385756 -0.229786,-1.9205255 -0.763672,-2.5585937 C 44.996387,4.9421817 44.172316,4.6115 43.198242,4.6115 Z m -11.847656,9.351563 c -0.882031,0 -1.687457,0.335688 -2.246094,0.960937 -0.558637,0.625249 -0.861328,1.51201 -0.861328,2.566407 v 23.46289 a 0.5,0.5 0 0 0 0.5,0.5 0.5,0.5 0 0 0 0.5,-0.5 v -23.46289 c 0,-0.865604 0.240086,-1.49144 0.605469,-1.900391 0.365383,-0.408951 0.862804,-0.626953 1.501953,-0.626953 h 1.841797 c 0.763076,0 1.236795,0.217396 1.566406,0.611328 0.329612,0.393932 0.529297,1.025791 0.529297,1.916016 v 23.46289 c 0,0.926977 -0.233,1.691568 -0.601562,2.197266 C 32.476163,43.656261 32.000676,43.924 31.350586,43.924 h -2.029297 a 0.5,0.5 0 0 0 -0.5,0.5 0.5,0.5 0 0 0 0.5,0.5 h 2.029297 c 0.95234,0 1.774119,-0.458291 2.302734,-1.183593 0.528615,-0.725303 0.792969,-1.696086 0.792969,-2.78711 v -23.46289 c 0,-1.038576 -0.229786,-1.920526 -0.763672,-2.558594 -0.533886,-0.638068 -1.357958,-0.96875 -2.332031,-0.96875 z m -11.845703,8.746094 c -1.124913,0 -2.242247,0.453355 -2.994141,1.294922 -0.751894,0.841565 -1.115234,1.989193 -1.115234,3.232421 v 13.716797 a 1.5,1.5 0 0 0 1.5,1.5 1.5,1.5 0 0 0 1.5,-1.5 V 27.2365 c 0,-0.676872 0.179431,-1.041715 0.351562,-1.234375 0.172131,-0.192659 0.361545,-0.292968 0.757813,-0.292968 h 1.839844 c 0.552079,0 0.673489,0.104105 0.798828,0.253906 0.125338,0.149801 0.296875,0.531503 0.296875,1.273437 v 13.716797 c 0,0.762927 -0.199691,1.32328 -0.408203,1.609375 -0.208513,0.286095 -0.339667,0.361328 -0.6875,0.361328 h -2.029297 a 1.5,1.5 0 0 0 -1.5,1.5 1.5,1.5 0 0 0 1.5,1.5 h 2.029297 c 1.254586,0 2.42266,-0.650798 3.111328,-1.595703 0.688667,-0.944905 0.984375,-2.119927 0.984375,-3.375 V 27.2365 c 0,-1.186965 -0.257935,-2.316994 -0.996094,-3.199218 C 21.86438,23.155057 20.688,22.709157 19.50293,22.709157 Z M 5.8154302,31.875172 c -1.12491,0 -2.242249,0.453357 -2.994141,1.294922 -0.7518916,0.841565 -1.1152344,1.991147 -1.1152344,3.234375 v 4.548828 a 1.5,1.5 0 0 0 1.5000004,1.5 1.5,1.5 0 0 0 1.5,-1.5 v -4.548828 c 0,-0.676872 0.181384,-1.043668 0.353515,-1.236328 0.172131,-0.19266 0.359599,-0.292969 0.75586,-0.292969 h 1.839843 c 0.552087,0 0.673491,0.104106 0.798828,0.253907 0.12534,0.149799 0.296876,0.533456 0.296876,1.27539 v 4.548828 c 0,0.762927 -0.199691,1.323281 -0.408204,1.609375 -0.208512,0.286095 -0.339659,0.361328 -0.6875,0.361328 h -2.029296 a 1.5,1.5 0 0 0 -1.5,1.5 1.5,1.5 0 0 0 1.5,1.5 h 2.029296 c 1.254589,0 2.4226578,-0.650797 3.1113278,-1.595703 0.688671,-0.944905 0.984376,-2.119927 0.984376,-3.375 v -4.548828 c 0,-1.186965 -0.25598,-2.318947 -0.994141,-3.201172 -0.738161,-0.882224 -1.9164888,-1.328125 -3.1015628,-1.328125 z" fill="#008055"/>
</svg>
