<svg xmlns="http://www.w3.org/2000/svg" width="48" height="48">
	<path d="m 23.677734,4.9746094 c -1.424247,0.02955 -2.517064,0.6546674 -3.191406,1.5527344 -0.674332,0.898068 -0.999579,1.9937601 -1.292969,3.1113281 -0.586779,2.2351281 -1.037373,4.5276981 -2.689453,5.7812501 -1.652089,1.253542 -3.980594,1.070036 -6.291015,1.033203 -1.1552057,-0.01841 -2.2992685,6e-4 -3.3457035,0.408203 -1.0464247,0.407602 -1.941483,1.292477 -2.3535156,2.65625 -0.4120224,1.363764 -0.1554318,2.594774 0.4902343,3.513672 0.6456661,0.918899 1.586473,1.568956 2.5585938,2.193359 1.5866005,1.019084 2.867245,1.582397 3.791577,2.959812 0.620073,0.937456 1.940357,0.170442 1.445312,-0.71875 -1.16332,-1.8949 -2.8135766,-2.58796 -4.3716546,-3.588718 C 7.4976097,23.27953 6.7263741,22.702293 6.3125,22.113281 5.8986361,21.524278 5.7487895,20.967109 6.046875,19.980469 6.3449606,18.99383 6.7784676,18.612839 7.4492188,18.351562 8.1199802,18.090297 9.0802457,18.03707 10.185547,18.054688 c 2.210613,0.03523 5.025386,0.355268 7.285156,-1.359376 2.25977,-1.714643 2.708092,-4.511815 3.269531,-6.65039 0.280714,-1.0692881 0.593153,-1.9790376 1.025391,-2.5546876 0.432248,-0.575661 0.914919,-0.8926995 1.945313,-0.9140625 1.030394,-0.02137 1.526684,0.2747962 1.982421,0.8320312 0.455737,0.557234 0.804109,1.4549858 1.128907,2.5117188 0.649615,2.1134581 1.21406,4.8883391 3.542968,6.5078121 2.328907,1.619483 5.128691,1.181545 7.335938,1.054688 1.103633,-0.06342 2.065091,-0.04964 2.746094,0.183594 0.681012,0.233231 1.131972,0.596881 1.470703,1.570312 0.338732,0.973431 0.209408,1.534966 -0.179688,2.140625 -0.389096,0.605669 -1.13254,1.218043 -2.037109,1.853516 -1.809128,1.270955 -4.275269,2.663381 -5.095703,5.378906 -0.820423,2.715536 0.460958,5.240608 1.263672,7.300781 0.401363,1.030092 0.683241,1.952077 0.671875,2.671875 -0.01136,0.719799 -0.216063,1.259833 -1.03711,1.882813 -0.821048,0.622991 -1.395592,0.675111 -2.091797,0.492187 -0.696215,-0.182915 -1.506773,-0.70321 -2.390625,-1.367187 -1.767715,-1.327974 -3.857398,-3.242413 -6.693359,-3.183594 -2.835951,0.05882 -4.841594,2.056916 -6.552734,3.457031 -0.855565,0.700062 -1.642049,1.255164 -2.330079,1.466797 -0.688031,0.211623 -1.265165,0.182159 -2.111328,-0.40625 -0.846173,-0.588399 -1.074046,-1.119187 -1.115234,-1.83789 -0.04119,-0.718714 0.204187,-1.649465 0.5625,-2.695313 0.643818,-1.87918 1.6568,-3.615938 1.180077,-6.000696 -0.308851,-0.965339 -1.817368,-0.363946 -1.511719,0.751953 0.153826,1.672164 -0.563007,2.924372 -1.18203,4.731165 -0.374487,1.093065 -0.710742,2.183445 -0.646484,3.304687 0.06425,1.121252 0.629228,2.247225 1.798828,3.060547 1.1696,0.813312 2.420758,0.951246 3.49414,0.621094 1.073383,-0.330162 1.982759,-1.024193 2.876954,-1.755859 1.788401,-1.463324 3.498936,-3.054655 5.572265,-3.097657 2.07332,-0.043 3.849733,1.475352 5.697266,2.863282 0.923761,0.693954 1.859172,1.351358 2.945312,1.636718 1.086149,0.28537 2.329967,0.09548 3.464844,-0.765625 1.134888,-0.861112 1.654145,-2.007908 1.671875,-3.130859 0.01772,-1.12294 -0.363722,-2.200752 -0.783203,-3.277344 -0.838961,-2.153196 -1.822459,-4.274485 -1.222656,-6.259765 0.599802,-1.985281 2.591614,-3.204872 4.482422,-4.533204 0.945409,-0.664172 1.85977,-1.352 2.466797,-2.296874 0.607014,-0.944887 0.811958,-2.187694 0.34375,-3.533204 -0.468199,-1.345511 -1.400456,-2.190824 -2.462891,-2.554687 -1.062426,-0.363864 -2.203966,-0.333877 -3.357422,-0.267578 -2.306902,0.132586 -4.62745,0.412485 -6.330078,-0.771485 C 29.576669,13.931264 29.032452,11.658103 28.353516,9.4492188 28.014038,8.3447768 27.642628,7.2638702 26.931641,6.3945312 26.220653,5.5252032 25.10198,4.9450724 23.677734,4.9746094 Z" fill="#008055"/>
</svg>
