<svg xmlns="http://www.w3.org/2000/svg" width="48" height="48">
	<path d="m 8.626953,4.7283331 c -1.540836,0 -2.930394,0.3418938 -3.96875,1.1816406 -1.038355,0.839747 -1.630859,2.173854 -1.630859,3.810547 V 29.259583 c 0,1.495395 0.613447,2.793947 1.636719,3.660157 1.023271,0.866209 2.414813,1.310546 3.96289,1.310546 2.490922,0 4.141651,0.932339 5.054688,2.347657 0.913036,1.415318 1.10641,3.401725 0.326172,5.626953 a 0.80008001,0.80008001 0 0 0 0.93164,1.046875 c 5.592499,-1.25787 9.771497,-5.548316 9.90625,-9.796875 a 0.80000001,0.80000001 0 0 0 -0.773437,-0.824219 0.80000001,0.80000001 0 0 0 -0.824219,0.773438 c -0.09222,2.907706 -3.175122,6.401093 -7.511719,7.84375 0.387356,-2.042985 0.273938,-4.010433 -0.710937,-5.53711 -1.226726,-1.901574 -3.49001,-3.082031 -6.398438,-3.082031 -1.243212,0 -2.250221,-0.354512 -2.929687,-0.929688 C 5.0178,31.123861 4.626953,30.338609 4.626953,29.259583 V 9.7205207 c 0,-1.278297 0.38548,-2.039416 1.03711,-2.566406 0.651629,-0.526991 1.661486,-0.824219 2.96289,-0.824219 h 31.357422 c 1.152494,0 1.960347,0.359378 2.513672,0.933594 0.553325,0.574216 0.875,1.40237 0.875,2.457031 V 29.259583 c 0,1.250106 -0.323294,2.045196 -0.851562,2.558594 -0.528269,0.513398 -1.340958,0.810547 -2.53711,0.810547 H 27.689453 a 0.80000001,0.80000001 0 0 0 -0.798828,0.800781 0.80000001,0.80000001 0 0 0 0.798828,0.800781 h 12.294922 c 1.471839,0 2.753155,-0.391747 3.652344,-1.265624 0.899189,-0.873878 1.335937,-2.164325 1.335937,-3.705079 V 9.7205207 c 0,-1.389229 -0.445088,-2.658063 -1.322265,-3.568359 -0.877178,-0.9102969 -2.16268,-1.4238286 -3.666016,-1.4238286 z" fill="#008055"/>
</svg>
