<svg xmlns="http://www.w3.org/2000/svg" width="48" height="48">
	<path d="m 8.496094,4.6709214 c -1.5225592,0 -2.7834062,0.4306423 -3.6347652,1.3066406 -0.851359,0.8759983 -1.236329,2.1274111 -1.236329,3.5820316 L 3.5878908,37.825219 a 0.70006999,0.70006999 0 0 0 0,0.002 c 0,1.415196 0.404637,2.753607 1.230469,3.771484 0.825832,1.017877 2.087944,1.683185 3.6171874,1.728516 A 0.69999999,0.69999999 0 0 0 9.1562503,42.649437 0.69999999,0.69999999 0 0 0 8.4785159,41.928734 C 7.3156588,41.894265 6.4923928,41.440245 5.9062498,40.717797 5.3201088,39.995349 4.9863288,38.973075 4.9863288,37.827172 L 5.0253908,9.5615466 a 0.70006999,0.70006999 0 0 0 0,-0.002 c 0,-1.2133811 0.303903,-2.0559706 0.839844,-2.6074222 C 6.4011758,6.4006725 7.2278538,6.071265 8.496094,6.071265 h 31.025391 c 1.075576,0 1.932116,0.3287776 2.527344,0.9023437 0.595227,0.5735662 0.964843,1.4115339 0.964843,2.5859379 V 37.827125 c 0,1.316345 -0.30111,2.349581 -0.847656,3.02539 -0.546546,0.67581 -1.343833,1.076172 -2.644531,1.076172 H 11.94336 a 0.69999999,0.69999999 0 0 0 -0.701172,0.699219 0.69999999,0.69999999 0 0 0 0.701172,0.701172 h 27.578125 c 1.614301,0 2.914171,-0.581513 3.734375,-1.595703 0.820204,-1.014191 1.15625,-2.380396 1.15625,-3.90625 V 9.5595936 c 0,-1.4813975 -0.503281,-2.7368165 -1.392578,-3.5937504 C 42.130235,5.1089094 40.889809,4.6709214 39.521485,4.6709214 Z m 4.001953,4.7988282 c -1.162354,0 -2.15365,0.33254 -2.8261717,1.0234374 -0.672522,0.690898 -0.96875,1.672196 -0.96875,2.78125 l -0.027344,20.939454 c 0,1.083511 0.3112468,2.117838 0.9550781,2.910156 0.6438316,0.792318 1.6366926,1.312694 2.8183596,1.347656 a 0.69999999,0.69999999 0 0 0 0.720703,-0.679688 0.69999999,0.69999999 0 0 0 -0.679687,-0.720703 c -0.815833,-0.02414 -1.369594,-0.333096 -1.773438,-0.830078 -0.40349,-0.496546 -0.640209,-1.212487 -0.640625,-2.02539 v -0.002 l 0.02734,-20.939454 c 0,-0.867445 0.215438,-1.438109 0.572266,-1.804687 0.356828,-0.366578 0.913819,-0.599609 1.822265,-0.599609 h 23.021485 c 0.760567,0 1.346393,0.23084 1.75,0.61914 0.403607,0.3883 0.660156,0.95514 0.660156,1.785156 v 20.939454 c 0,0.947879 -0.217839,1.672072 -0.587891,2.128906 -0.370051,0.456833 -0.89736,0.728515 -1.822265,0.728515 H 15.84961 a 0.69999999,0.69999999 0 0 0 -0.699219,0.699219 0.69999999,0.69999999 0 0 0 0.699219,0.701172 h 19.669922 c 1.237994,0 2.266083,-0.45293 2.910156,-1.248047 0.644073,-0.795117 0.898438,-1.852045 0.898438,-3.009765 V 13.274437 c 0,-1.137483 -0.389998,-2.123495 -1.087891,-2.794922 C 37.542342,9.8080906 36.572364,9.4697496 35.519532,9.4697496 Z m 8.431641,5.4765624 a 1.6,1.6 0 0 0 -1.59961,1.59961 1.6,1.6 0 0 0 1.59961,1.601562 h 1.636719 v 11.951172 h -1.298829 a 1.6,1.6 0 0 0 -1.601562,1.599609 1.6,1.6 0 0 0 1.601562,1.601563 h 5.798829 a 1.6,1.6 0 0 0 1.599609,-1.601563 1.6,1.6 0 0 0 -1.599609,-1.599609 H 25.765625 V 16.545922 a 1.6,1.6 0 0 0 -0.0039,-0.105469 1.6,1.6 0 0 0 -1.595703,-1.494141 z" fill="#008055"/>
</svg>
