<svg xmlns="http://www.w3.org/2000/svg" width="48" height="48">
	<path d="m 8.4951171,3.670922 c -1.704216,0 -3.272951,0.501558 -4.349609,1.609375 -1.076658,1.107818 -1.519531,2.654317 -1.519531,4.28125 l -0.039063,28.263672 a 1.70017,1.70017 0 0 0 0,0.002 c 0,1.607549 0.459992,3.173447 1.457031,4.402344 0.99704,1.228897 2.572334,2.044568 4.363282,2.097656 a 1.7,1.7 0 0 0 1.7499999,-1.648437 1.7,1.7 0 0 0 -1.6484379,-1.75 c -0.901152,-0.02671 -1.411236,-0.330369 -1.826172,-0.841797 -0.414608,-0.511024 -0.694869,-1.305265 -0.695312,-2.257813 v -0.002 L 6.0263671,9.5635 a 1.70017,1.70017 0 0 0 0,-0.002 c 0,-1.041066 0.245999,-1.590523 0.556641,-1.910156 0.310642,-0.319633 0.825525,-0.580078 1.912109,-0.580078 H 39.522461 c 0.86647,0 1.446853,0.251886 1.832031,0.623047 0.385178,0.37116 0.658203,0.912065 0.658203,1.867187 v 28.265625 c 0,1.166696 -0.27197,1.964329 -0.623046,2.398438 -0.351076,0.434109 -0.790492,0.703125 -1.867188,0.703125 H 14.036133 a 1.7,1.7 0 0 0 -1.699219,1.699218 1.7,1.7 0 0 0 1.699219,1.701172 h 25.486328 c 1.838304,0 3.494092,-0.710906 4.509766,-1.966796 1.015674,-1.255891 1.380859,-2.859653 1.380859,-4.535157 V 9.561547 c 0,-1.700678 -0.599872,-3.257067 -1.699219,-4.316406 C 42.61452,4.185802 41.099891,3.670922 39.522461,3.670922 Z m 4.0039069,5.59961 c -1.198627,0 -2.251129,0.346755 -2.9687499,1.083984 -0.717621,0.737229 -1.025391,1.776352 -1.025391,2.919922 l -0.029297,20.939453 a 0.90008998,0.90008998 0 0 0 0,0.002 c 0,1.122044 0.321885,2.200648 1,3.035156 0.6781149,0.834509 1.7348209,1.383414 2.9687499,1.419922 a 0.89999998,0.89999998 0 0 0 0.925781,-0.873047 0.89999998,0.89999998 0 0 0 -0.873046,-0.925781 c -0.763572,-0.02259 -1.255441,-0.303021 -1.625,-0.757812 -0.36956,-0.454792 -0.595704,-1.123182 -0.595704,-1.898438 l 0.02734,-20.9395 a 0.90008998,0.90008998 0 0 0 0,-0.002 c 0,-0.83293 0.203896,-1.345769 0.515625,-1.666016 0.311729,-0.320246 0.807514,-0.537109 1.679688,-0.537109 h 23.021484 c 0.718815,0 1.247809,0.214647 1.609375,0.5625 0.361566,0.347853 0.599609,0.854532 0.599609,1.640625 v 20.941406 c 0,0.917903 -0.212063,1.591493 -0.542968,2 -0.330906,0.408507 -0.785837,0.65625 -1.666016,0.65625 H 16.610352 a 0.89999998,0.89999998 0 0 0 -0.900391,0.900391 0.89999998,0.89999998 0 0 0 0.900391,0.898437 h 18.910156 c 1.282721,0 2.381234,-0.478822 3.064453,-1.322265 0.68322,-0.843443 0.945313,-1.945115 0.945313,-3.132813 V 13.274438 c 0,-1.181407 -0.41241,-2.225628 -1.152344,-2.9375 C 37.637996,9.625066 36.615093,9.270532 35.520508,9.270532 Z m 8.43164,5.675781 a 1.6,1.6 0 0 0 -1.599609,1.601562 1.6,1.6 0 0 0 1.599609,1.59961 h 1.636719 v 11.951172 h -1.300781 a 1.6,1.6 0 0 0 -1.59961,1.601562 1.6,1.6 0 0 0 1.59961,1.59961 h 5.800781 a 1.6,1.6 0 0 0 1.599609,-1.59961 1.6,1.6 0 0 0 -1.599609,-1.601562 H 25.766602 V 16.547875 a 1.6,1.6 0 0 0 -0.0039,-0.105468 1.6,1.6 0 0 0 -1.595703,-1.496094 z" fill="#008055"/>
</svg>
