<svg xmlns="http://www.w3.org/2000/svg" width="48" height="48">
	<path d="m 8.6269534,9.2783205 c -1.6755204,0 -3.2792694,0.36518 -4.5351563,1.3808595 -1.2558869,1.01568 -1.9648437,2.673425 -1.9648437,4.511718 v 9.964844 c 0,1.274971 0.1424078,2.617253 0.9140624,3.824219 0.7493234,1.172035 2.2296169,1.946468 3.8867188,1.992187 v 3.66211 c 0,0.954357 0.221312,1.956384 0.8984375,2.787109 0.6771255,0.830725 1.8143131,1.320313 2.9609379,1.320313 h 26.986328 c 1.170826,0 2.266114,-0.489542 2.945313,-1.253907 0.679199,-0.764364 0.964843,-1.706485 0.964843,-2.605468 a 1.7,1.7 0 0 0 -1.701171,-1.701172 1.7,1.7 0 0 0 -1.699219,1.701172 c 0,0.158017 -0.05967,0.29612 -0.105469,0.347656 -0.04579,0.05154 -0.05727,0.113281 -0.404297,0.113281 H 10.78711 c -0.355276,0 -0.298702,-0.03661 -0.326172,-0.07031 -0.02747,-0.0337 -0.132812,-0.232729 -0.132812,-0.638672 v -3.699219 c 0,-0.820914 -0.06226,-1.747207 -0.8300789,-2.515625 -0.7678162,-0.768419 -1.6937903,-0.814454 -2.4335937,-0.814454 -0.8733846,0 -0.9582129,-0.144221 -1.1582032,-0.457031 C 5.70626,26.81512 5.5253908,26.07987 5.5253908,25.135742 v -9.964844 c 0,-1.076706 0.2709801,-1.516117 0.7050782,-1.867187 0.434098,-0.351069 1.2297645,-0.625 2.3964844,-0.625 H 39.982423 c 0.955141,0 1.496027,0.273027 1.867187,0.658204 0.37116,0.385176 0.623047,0.967511 0.623047,1.833984 v 9.964844 c 0,1.08658 -0.260441,1.603417 -0.580078,1.914062 -0.319637,0.310645 -0.869096,0.556641 -1.910156,0.556641 H 14.203126 a 1.7,1.7 0 0 0 -1.699219,1.701172 1.7,1.7 0 0 0 1.699219,1.699219 h 25.779297 c 1.626929,0 3.173428,-0.442877 4.28125,-1.519532 1.10782,-1.076655 1.609374,-2.647342 1.609374,-4.351562 v -9.964845 c 0,-1.577427 -0.516829,-3.092058 -1.576171,-4.191406 C 43.237533,9.8801435 41.68311,9.2783205 39.982423,9.2783205 Z M 37.853516,15.333008 a 1.7,1.7 0 0 0 -1.699219,1.699219 v 6.203125 a 1.7,1.7 0 0 0 1.699219,1.699218 1.7,1.7 0 0 0 1.701172,-1.699218 v -6.203125 a 1.7,1.7 0 0 0 -1.701172,-1.699219 z m -5.507812,0.126953 a 1.7,1.7 0 0 0 -1.699219,1.699219 v 6.203125 a 1.7,1.7 0 0 0 1.699219,1.701172 1.7,1.7 0 0 0 1.701172,-1.701172 V 17.15918 a 1.7,1.7 0 0 0 -1.701172,-1.699219 z m -5.507813,0.126954 a 1.7,1.7 0 0 0 -1.699218,1.699218 v 6.203125 a 1.7,1.7 0 0 0 1.699218,1.701172 1.7,1.7 0 0 0 1.699219,-1.701172 v -6.203125 a 1.7,1.7 0 0 0 -1.699219,-1.699218 z m -5.507812,0.126953 A 1.7,1.7 0 0 0 19.63086,17.41504 v 6.203125 a 1.7,1.7 0 0 0 1.699219,1.699218 1.7,1.7 0 0 0 1.699218,-1.699218 V 17.41504 a 1.7,1.7 0 0 0 -1.699218,-1.701172 z m -11.015625,0.126953 a 1.7,1.7 0 0 0 -1.7011725,1.701172 v 6.203125 a 1.7,1.7 0 0 0 1.7011725,1.699219 1.7,1.7 0 0 0 1.699219,-1.699219 v -6.203125 a 1.7,1.7 0 0 0 -1.699219,-1.701172 z m 5.507812,0 a 1.7,1.7 0 0 0 -1.701172,1.701172 v 6.203125 a 1.7,1.7 0 0 0 1.701172,1.699219 1.7,1.7 0 0 0 1.699219,-1.699219 v -6.203125 a 1.7,1.7 0 0 0 -1.699219,-1.701172 z" fill="#008055"/>
</svg>
