<svg xmlns="http://www.w3.org/2000/svg" width="48" height="48">
	<path d="m 14.241211,1.9267579 c -1.619251,0 -3.188722,0.5290858 -4.3300783,1.6289062 C 8.7697759,4.6554845 8.149414,6.2701148 8.149414,8.0146481 V 39.37207 c 0,1.705474 0.3710006,3.355929 1.4257812,4.660156 1.0547808,1.304229 2.7829328,2.041016 4.6660158,2.041016 a 1.9,1.9 0 0 0 1.898437,-1.90039 1.9,1.9 0 0 0 -1.898437,-1.900391 c -1.031918,0 -1.400921,-0.243159 -1.712891,-0.628906 -0.311969,-0.385748 -0.578125,-1.134658 -0.578125,-2.271485 V 8.0146481 c 0,-0.9112652 0.254488,-1.3919763 0.597656,-1.7226559 0.343169,-0.3306796 0.868711,-0.5664062 1.69336,-0.5664062 h 19.539062 c 1.050315,0 1.503968,0.2462782 1.769532,0.5195312 0.265562,0.2732531 0.5,0.7629042 0.5,1.7695309 V 39.37207 c 0,1.033616 -0.294829,1.775653 -0.669922,2.21875 -0.375094,0.443098 -0.806845,0.681641 -1.59961,0.681641 H 19.924805 a 1.9,1.9 0 0 0 -1.900391,1.900391 1.9,1.9 0 0 0 1.900391,1.898437 h 13.855468 c 1.781635,0 3.433693,-0.765763 4.5,-2.025391 1.066307,-1.259627 1.570313,-2.916143 1.570313,-4.673828 V 8.0146481 c 0,-1.6613718 -0.45446,-3.2637714 -1.576172,-4.4179684 C 37.152701,2.4424828 35.520858,1.9267579 33.780273,1.9267579 Z M 24.948242,17.668945 a 1.60016,1.60016 0 0 0 -1.617187,1.396485 c -0.08691,0.676639 -0.7891,1.463647 -1.09961,1.707031 a 1.6,1.6 0 0 0 -0.359375,2.123047 c -0.784604,-0.306953 -1.644068,-0.496094 -2.583984,-0.496094 h -2.859375 a 1.6,1.6 0 0 0 -1.59961,1.599609 1.6,1.6 0 0 0 1.59961,1.59961 h 2.859375 c 2.226386,0 3.702521,1.788469 4.064453,3.46875 a 1.60016,1.60016 0 0 0 2.492187,0.966797 l 6.654297,-4.730469 a 1.60016,1.60016 0 0 0 0,-2.609375 l -6.654297,-4.730469 a 1.60016,1.60016 0 0 0 -0.896484,-0.294922 z m 0.664063,4.058594 3.197265,2.271484 -3.15625,2.244141 c -0.59236,-1.056982 -1.504826,-1.924332 -2.568359,-2.617188 a 1.6,1.6 0 0 0 1.121094,-0.333984 c 0.401702,-0.314863 0.933627,-0.855321 1.40625,-1.564453 z" fill="#008055"/>
</svg>
