<svg xmlns="http://www.w3.org/2000/svg" width="48" height="48">
	<path d="m 8.62793,8.150391 c -1.7054742,0 -3.3578822,0.369047 -4.6621096,1.423828 -1.3042274,1.05478 -2.0390625,2.782933 -2.0390625,4.666016 V 33.78125 c 0,1.781635 0.765763,3.433693 2.0253906,4.5 1.2596276,1.066307 2.9180966,1.568359 4.6757815,1.568359 a 1.9,1.9 0 0 0 1.90039,-1.898437 1.9,1.9 0 0 0 -1.90039,-1.900391 c -1.0336159,0 -1.7776059,-0.294828 -2.2207034,-0.669922 C 5.9641292,35.005767 5.725586,34.574015 5.725586,33.78125 V 14.240235 c 0,-1.031918 0.2451118,-1.398969 0.6308594,-1.710938 0.3857477,-0.311969 1.134658,-0.580078 2.2714846,-0.580078 h 31.355469 c 0.911331,0 1.391972,0.254489 1.722656,0.597656 0.330684,0.343167 0.566406,0.86871 0.566406,1.69336 V 33.78125 c 0,1.050293 -0.244304,1.502 -0.517578,1.767578 -0.273274,0.265578 -0.764919,0.501953 -1.771484,0.501953 H 14.204102 a 1.9,1.9 0 0 0 -1.900391,1.900391 1.9,1.9 0 0 0 1.900391,1.898437 h 25.779297 c 1.661334,0 3.26572,-0.452521 4.419921,-1.574218 1.154202,-1.121697 1.669922,-2.753533 1.669922,-4.494141 V 14.240235 c 0,-1.619251 -0.531018,-3.188721 -1.630859,-4.330079 C 43.342542,8.768798 41.727967,8.150391 39.983399,8.150391 Z m 15.408203,6.677734 a 1.60016,1.60016 0 0 0 -0.107422,0.002 1.60016,1.60016 0 0 0 -1.232422,0.671875 l -4.732422,6.654297 a 1.60016,1.60016 0 0 0 1.101563,2.513672 c 0.676625,0.08686 1.463839,0.787316 1.707031,1.097656 a 1.6,1.6 0 0 0 2.125,0.359375 c -0.307358,0.785043 -0.498047,1.643402 -0.498047,2.583985 v 2.859375 a 1.6,1.6 0 0 0 1.599609,1.601562 1.6,1.6 0 0 0 1.59961,-1.601562 v -2.859375 c 0,-2.226386 1.788469,-3.702521 3.46875,-4.064453 A 1.60016,1.60016 0 0 0 30.03418,22.156297 L 25.303711,15.502 a 1.60016,1.60016 0 0 0 -1.267578,-0.673828 z m -0.03711,4.361328 2.246094,3.15625 c -1.058527,0.5929 -1.927735,1.506923 -2.621094,2.572266 a 1.6,1.6 0 0 0 -0.332031,-1.123047 c -0.31505,-0.40204 -0.854588,-0.935368 -1.564453,-1.408203 z" fill="#008055"/>
</svg>
