<svg xmlns="http://www.w3.org/2000/svg" width="48" height="48">
	<path d="m 14.241211,1.9267575 c -1.619251,0 -3.18872,0.5310186 -4.330079,1.6308594 C 8.769775,4.6574577 8.149414,6.2700797 8.149414,8.0146482 V 39.37207 c 0,1.705473 0.371,3.355928 1.425781,4.660156 1.054781,1.304227 2.782933,2.041016 4.666016,2.041016 a 1.9,1.9 0 0 0 1.90039,-1.900391 1.9,1.9 0 0 0 -1.90039,-1.900391 c -1.031918,0 -1.398968,-0.243158 -1.710938,-0.628906 -0.311969,-0.385748 -0.580078,-1.134658 -0.580078,-2.271484 V 8.0146482 c 0,-0.9113317 0.254489,-1.3900189 0.597656,-1.7207032 0.343167,-0.3306842 0.86871,-0.5683594 1.69336,-0.5683594 h 19.539062 c 1.050293,0 1.503954,0.2462529 1.769531,0.5195313 0.265578,0.2732784 0.5,0.7629037 0.5,1.7695313 V 39.37207 c 0,1.033638 -0.292893,1.775666 -0.667968,2.21875 -0.375075,0.443083 -0.808729,0.68164 -1.601563,0.68164 H 19.924804 a 1.9,1.9 0 0 0 -1.90039,1.900391 1.9,1.9 0 0 0 1.90039,1.900391 h 13.855469 c 1.781666,0 3.435653,-0.767703 4.501953,-2.027344 1.0663,-1.259642 1.56836,-2.916167 1.56836,-4.673828 V 8.0146482 c 0,-1.6613727 -0.454475,-3.2637472 -1.576172,-4.4179688 C 37.152717,2.4424578 35.520881,1.9267575 33.780273,1.9267575 Z m 8.78125,15.7421875 a 1.60016,1.60016 0 0 0 -0.867188,0.294921 l -6.652344,4.732422 a 1.60016,1.60016 0 0 0 0,2.607422 l 6.652344,4.730469 a 1.60016,1.60016 0 0 0 2.515625,-1.099609 c 0.08687,-0.676703 0.787393,-1.465853 1.097656,-1.708985 a 1.6,1.6 0 0 0 0.357422,-2.123047 c 0.785072,0.307374 1.645315,0.498047 2.585938,0.498047 h 2.859375 a 1.6,1.6 0 0 0 1.599609,-1.601562 1.6,1.6 0 0 0 -1.599609,-1.59961 h -2.859375 c -2.226514,0 -3.702606,-1.786576 -4.064453,-3.466797 a 1.60016,1.60016 0 0 0 -1.625,-1.263671 z m -0.673829,4.085937 c 0.59233,1.05676 1.503058,1.924457 2.566407,2.617188 a 1.6,1.6 0 0 0 -1.121094,0.335937 c -0.402102,0.315099 -0.933437,0.854532 -1.40625,1.564453 l -3.197266,-2.273437 z" fill="#008055"/>
</svg>
