<svg xmlns="http://www.w3.org/2000/svg" width="48" height="48">
	<path d="m 8.6279295,8.1494145 c -1.7054337,0 -3.3559251,0.36906 -4.6601562,1.423828 C 2.6635422,10.62801 1.9267577,12.356153 1.9267577,14.239257 v 19.541016 c 0,1.78166 0.7676938,3.433706 2.0273437,4.5 1.2596499,1.066294 2.9161437,1.570312 4.6738281,1.570312 A 1.9,1.9 0 0 0 10.52832,37.950195 1.9,1.9 0 0 0 8.6279295,36.049804 c -1.0336155,0 -1.7756248,-0.294816 -2.21875,-0.669922 C 5.9660544,35.004777 5.7275389,34.573013 5.7275389,33.780273 V 14.239257 c 0,-1.031895 0.2431373,-1.398955 0.6289063,-1.710937 0.3857689,-0.311982 1.1347181,-0.580078 2.2714843,-0.580078 H 39.985351 c 0.911266,0 1.390024,0.254488 1.720703,0.597656 0.33068,0.343168 0.56836,0.86871 0.56836,1.693359 v 19.541016 c 0,1.050315 -0.246279,1.502016 -0.519532,1.767578 -0.273253,0.265563 -0.762903,0.501953 -1.769531,0.501953 h -25.78125 a 1.9,1.9 0 0 0 -1.898437,1.900391 1.9,1.9 0 0 0 1.898437,1.90039 h 25.78125 c 1.661373,0 3.263772,-0.454459 4.417969,-1.576171 1.154197,-1.121713 1.669922,-2.753556 1.669922,-4.494141 V 14.239257 c 0,-1.61925 -0.531039,-3.188721 -1.63086,-4.3300775 -1.09982,-1.141357 -2.712497,-1.759765 -4.457031,-1.759765 z M 24.000976,14.829101 a 1.6,1.6 0 0 0 -1.599609,1.59961 v 2.859374 c 0,2.226514 -1.78853,3.702606 -3.46875,4.064454 a 1.60016,1.60016 0 0 0 -0.966797,2.490234 l 4.730469,6.654297 a 1.60016,1.60016 0 0 0 2.607421,0 l 4.732422,-6.654297 A 1.60016,1.60016 0 0 0 28.93457,23.329101 c -0.676703,-0.08687 -1.4639,-0.787393 -1.707031,-1.097656 a 1.6,1.6 0 0 0 -2.125,-0.357422 c 0.307373,-0.785072 0.498047,-1.645315 0.498047,-2.585938 v -2.859374 a 1.6,1.6 0 0 0 -1.59961,-1.59961 z m 0.373047,8.25586 a 1.6,1.6 0 0 0 0.333984,1.11914 c 0.315084,0.402082 0.85459,0.935405 1.564453,1.408203 l -2.273437,3.197266 -2.244141,-3.15625 c 1.057785,-0.592464 1.925903,-1.50407 2.619141,-2.568359 z" fill="#008055"/>
</svg>
