<svg xmlns="http://www.w3.org/2000/svg" width="48" height="48">
	<path d="m 24.25586,2.025391 a 2,2 0 0 0 -2,2 v 14.564453 a 2,2 0 0 0 2,2 2,2 0 0 0 2,-2 V 4.025391 a 2,2 0 0 0 -2,-2 z m -13.857422,17.27539 c -1.705474,0 -3.355929,0.369048 -4.660157,1.423828 -1.304227,1.054781 -2.041015,2.782934 -2.041015,4.666016 v 7.8125 c 0,1.781666 0.767701,3.435653 2.027344,4.501953 1.259641,1.0663 2.916166,1.56836 4.673828,1.56836 a 1.9,1.9 0 0 0 1.90039,-1.900391 1.9,1.9 0 0 0 -1.90039,-1.898438 c -1.033639,0 -1.775667,-0.294846 -2.21875,-0.669921 C 7.736604,34.429613 7.498047,33.995959 7.498047,33.203125 v -7.8125 c 0,-1.031917 0.243159,-1.398968 0.628906,-1.710937 0.385748,-0.31197 1.134658,-0.580079 2.271485,-0.580079 h 6.953125 a 1.9,1.9 0 0 0 1.90039,-1.898437 1.9,1.9 0 0 0 -1.90039,-1.900391 z m 20.861328,0 a 1.9,1.9 0 0 0 -1.900391,1.900391 1.9,1.9 0 0 0 1.900391,1.898437 h 6.953125 c 0.911331,0 1.391972,0.25449 1.722656,0.597657 0.330684,0.343167 0.566406,0.86871 0.566406,1.693359 v 7.8125 c 0,1.050293 -0.244304,1.503954 -0.517578,1.769531 -0.273274,0.265578 -0.764919,0.501953 -1.771484,0.501953 a 1.9,1.9 0 0 0 -1.898438,1.898438 1.9,1.9 0 0 0 1.898438,1.900391 c 1.661335,0 3.26572,-0.454475 4.419922,-1.576172 1.154201,-1.121697 1.669921,-2.753533 1.669921,-4.494141 v -7.8125 c 0,-1.619251 -0.531018,-3.18872 -1.630859,-4.330078 -1.099841,-1.141358 -2.714416,-1.759766 -4.458984,-1.759766 z m -7.003906,4.869141 a 3.074666,3.074666 0 0 0 -3.074219,3.074219 3.074666,3.074666 0 0 0 3.074219,3.074218 3.074666,3.074666 0 0 0 3.074218,-3.074218 3.074666,3.074666 0 0 0 -3.074218,-3.074219 z m -6.259766,8.441406 c -1.066252,0 -2.200484,0.179965 -3.03125,1.056641 -0.830766,0.876675 -0.933594,1.950164 -0.933594,2.904297 v 5.658203 c 0,0.978235 0.250951,2.109216 1.113281,2.867187 0.862331,0.757971 1.884118,0.876953 2.851563,0.876953 H 30.53125 c 1.017393,0 2.068831,-0.221185 2.873047,-0.970703 0.804216,-0.749517 1.080151,-1.832437 1.080078,-2.773437 V 37.03125 a 1.8,1.8 0 0 0 -1.800781,-1.798828 1.8,1.8 0 0 0 -1.798828,1.798828 v 5.199219 c 6e-6,0.08167 -0.0017,0.07394 -0.0039,0.111328 -0.06982,0.01391 -0.148999,0.0332 -0.34961,0.0332 H 17.996094 c -0.203207,0 -0.272417,-0.01722 -0.361328,-0.03125 -0.0019,-0.04773 -0.002,-0.02838 -0.002,-0.113281 v -5.658203 c 0,-0.200439 0.01387,-0.253179 0.02539,-0.337891 0.08236,-0.01054 0.126967,-0.02344 0.337891,-0.02344 h 11.849609 a 1.8,1.8 0 0 0 1.800781,-1.798829 1.8,1.8 0 0 0 -1.800781,-1.800781 z" fill="#008055"/>
</svg>
