<svg xmlns="http://www.w3.org/2000/svg" width="48" height="48">
	<path d="m 16.976563,3.8448042 a 1.999995,1.999995 0 0 0 -1.437501,0.585937 1.999995,1.999995 0 0 0 0,2.828125 l 5.978516,5.9785158 -5.978516,5.978515 a 1.999995,1.999995 0 0 0 0,2.828126 1.999995,1.999995 0 0 0 2.828126,0 l 5.978515,-5.978516 5.978516,5.978516 a 1.999995,1.999995 0 0 0 2.828125,0 1.999995,1.999995 0 0 0 0,-2.828126 l -5.978516,-5.978515 5.978516,-5.9785158 a 1.999995,1.999995 0 0 0 0,-2.828125 1.999995,1.999995 0 0 0 -1.388672,-0.585937 1.999995,1.999995 0 0 0 -1.439453,0.585937 L 24.345703,10.409257 18.367188,4.4307412 A 1.999995,1.999995 0 0 0 16.976563,3.8448042 Z M 10.398437,17.456132 c -1.7054515,0 -3.3559175,0.371029 -4.6601555,1.425781 -1.304241,1.054752 -2.041016,2.782933 -2.041016,4.666016 l 0.00195,7.8125 c 0,1.781635 0.765763,3.433693 2.025391,4.5 1.259627,1.066307 2.916143,1.568359 4.6738275,1.568359 a 1.9,1.9 0 0 0 1.900391,-1.898437 1.9,1.9 0 0 0 -1.900391,-1.900391 c -1.0336155,0 -1.7756525,-0.294829 -2.2187495,-0.669922 -0.443098,-0.375093 -0.681641,-0.806844 -0.681641,-1.599609 v -7.8125 c 0,-1.031918 0.243171,-1.400943 0.628906,-1.712891 0.385735,-0.311948 1.134636,-0.578125 2.2714845,-0.578125 h 1.40625 a 1.9,1.9 0 0 0 1.900391,-1.90039 1.9,1.9 0 0 0 -1.900391,-1.900391 z m 26.369141,0 a 1.9,1.9 0 0 0 -1.90039,1.900391 1.9,1.9 0 0 0 1.90039,1.90039 h 1.445313 c 0.911355,0 1.391984,0.252562 1.722656,0.595703 0.330671,0.343142 0.566406,0.870664 0.566406,1.695313 v 7.8125 c 0,1.05023 -0.244288,1.50198 -0.517578,1.767578 -0.273289,0.265598 -0.762991,0.501953 -1.769531,0.501953 a 1.9,1.9 0 0 0 -1.900391,1.900391 1.9,1.9 0 0 0 1.900391,1.898437 c 1.661358,0 3.263782,-0.452517 4.417969,-1.574219 1.154184,-1.121702 1.669921,-2.75357 1.669921,-4.49414 v -7.8125 c 0,-1.619251 -0.531005,-3.190697 -1.630859,-4.332032 -1.099854,-1.141333 -2.714441,-1.759765 -4.458984,-1.759765 z M 17.972656,30.790116 c -1.066253,0 -2.200485,0.179965 -3.03125,1.056641 -0.830765,0.876675 -0.93164,1.950164 -0.93164,2.904297 v 5.658203 c 0,0.978235 0.248998,2.11117 1.111328,2.86914 0.86233,0.757972 1.884117,0.876954 2.851562,0.876954 h 12.535157 c 1.017392,0 2.068831,-0.223139 2.873046,-0.972657 0.804217,-0.749517 1.080152,-1.832437 1.080079,-2.773437 v -5.199219 a 1.8,1.8 0 0 0 -1.798829,-1.798828 1.8,1.8 0 0 0 -1.800781,1.800781 v 5.197266 c 6e-6,0.08311 -0.0017,0.07575 -0.0039,0.113281 -0.06982,0.01353 -0.14902,0.03125 -0.349609,0.03125 H 17.972656 c -0.203206,0 -0.272725,-0.01722 -0.361328,-0.03125 -0.002,-0.04772 -0.002,-0.02839 -0.002,-0.113281 v -5.658203 c 0,-0.201199 0.01384,-0.253529 0.02539,-0.337891 0.08236,-0.01082 0.127022,-0.02344 0.33789,-0.02344 h 11.84961 a 1.8,1.8 0 0 0 1.800781,-1.798829 1.8,1.8 0 0 0 -1.800781,-1.800781 z" fill="#008055"/>
</svg>
