<svg xmlns="http://www.w3.org/2000/svg" width="48" height="48">
	<path d="m 9.8505857,4.0839843 c -1.7468105,0 -3.424011,0.7504533 -4.4042968,2.0253906 -0.980286,1.2749378 -1.296875,2.8292898 -1.296875,4.4121101 V 38.03125 c 0,1.637607 0.5510239,3.185014 1.6191406,4.267578 1.0681166,1.082565 2.5704659,1.617188 4.0820312,1.617188 A 2.0999999,2.0999999 0 0 0 11.950195,41.816407 2.0999999,2.0999999 0 0 0 9.8505857,39.714844 c -0.5878347,0 -0.8866166,-0.157252 -1.09375,-0.367187 -0.2071333,-0.209936 -0.40625,-0.554413 -0.40625,-1.316407 V 10.521485 c 0,-0.9852813 0.2319923,-1.5995253 0.4257813,-1.8515633 0.193789,-0.252037 0.3169293,-0.384765 1.0742187,-0.384765 H 38.151367 c 0.587835,0 0.884663,0.157255 1.091797,0.367187 0.207134,0.209932 0.408203,0.554481 0.408203,1.316406 V 37.476563 c 0,0.985376 -0.231987,1.601477 -0.425781,1.853515 -0.193794,0.252039 -0.316971,0.384766 -1.074219,0.384766 H 15.18457 a 2.0999999,2.0999999 0 0 0 -2.099609,2.101563 2.0999999,2.0999999 0 0 0 2.099609,2.099609 h 22.966797 c 1.746752,0 3.423991,-0.750454 4.404297,-2.025391 0.980306,-1.274936 1.294922,-2.831139 1.294922,-4.414062 V 9.9687497 c 0,-1.637574 -0.549072,-3.183082 -1.617188,-4.2656248 C 41.165282,4.6205819 39.662932,4.0839843 38.151367,4.0839843 Z M 34.235351,10.998047 a 2.0999999,2.0999999 0 0 0 -1.798828,1.087891 l -9.794922,17.84375 -6.214843,-10.726563 a 2.0999999,2.0999999 0 0 0 -2.871094,-0.763672 2.0999999,2.0999999 0 0 0 -0.763672,2.869141 l 8.082031,13.949219 a 2.1002099,2.1002099 0 0 0 3.658203,-0.04297 L 36.118164,14.107422 A 2.0999999,2.0999999 0 0 0 35.288086,11.25586 2.0999999,2.0999999 0 0 0 34.235351,10.998047 Z" fill="#008055"/>
</svg>
