<svg xmlns="http://www.w3.org/2000/svg" width="48" height="48">
	<path d="m 25.233496,2.4982725 a 2.2,2.2 0 0 0 -2.201172,2.1992188 2.2,2.2 0 0 0 2.201172,2.2011722 c 5.817393,0 10.487479,3.028646 12.355469,8.7187495 1.631218,6.158939 0.04408,9.617969 -2.574219,12.203125 -1.512932,1.493819 -3.286035,1.767879 -5.378906,1.345703 -2.092871,-0.422176 -4.325748,-1.699069 -5.771484,-3.072266 a 2.20022,2.20022 0 0 0 -3.609376,0.919922 l -4.855468,15.029297 a 2.20022,2.20022 0 0 0 2.013672,2.875 l 15.800781,0.582031 a 2.20022,2.20022 0 0 0 2.021484,-3.236328 C 34.358414,40.625021 34.61669,38.358705 34.856543,37.474835 a 2.2,2.2 0 0 0 -1.546875,-2.699219 2.2,2.2 0 0 0 -2.699219,1.546875 c -0.282414,1.040712 -0.531836,2.754053 -0.27539,4.667968 l -9.853516,-0.363281 3.035156,-9.396484 c 1.587566,1.004416 3.315007,1.857718 5.25,2.248047 3.098954,0.625124 6.686923,0.09014 9.337891,-2.527344 3.549052,-3.504123 5.708852,-9.128911 3.724609,-16.535156 a 2.20022,2.20022 0 0 0 -0.03125,-0.109375 C 39.38403,6.8628465 32.701645,2.4982725 25.233496,2.4982725 Z M 7.3018557,6.58421 a 1.9,1.9 0 0 0 -1.330079,0.5566405 1.9,1.9 0 0 0 0,2.6875 l 4.5058603,4.5058585 -4.5058603,4.503907 a 1.9,1.9 0 0 0 0,2.6875 1.9,1.9 0 0 0 2.6875,0 l 4.5058603,-4.503907 4.503906,4.503907 a 1.9,1.9 0 0 0 2.6875,0 1.9,1.9 0 0 0 0,-2.6875 l -4.503906,-4.503907 4.503906,-4.5058585 a 1.9,1.9 0 0 0 0,-2.6875 A 1.9,1.9 0 0 0 18.999121,6.58421 1.9,1.9 0 0 0 17.669043,7.1408505 L 13.165137,11.646709 8.6592767,7.1408505 A 1.9,1.9 0 0 0 7.3018557,6.58421 Z" fill="#008055"/>
</svg>
