<svg xmlns="http://www.w3.org/2000/svg" width="48" height="48">
	<path d="m 24.446196,2.5979078 c -8.135661,0 -15.288713,5.3847558 -17.400391,13.2558592 -1.365506,5.089705 -0.936068,10.557692 1.949219,14.492188 a 2.0999999,2.0999999 0 0 0 2.935547,0.451171 2.0999999,2.0999999 0 0 0 0.451172,-2.935546 C 10.528231,25.334055 9.999752,21.051773 11.102446,16.941658 12.726529,10.888021 18.148778,6.7971266 24.446196,6.7971266 c 5.855979,0 10.573402,3.0608525 12.453125,8.7929684 1.638556,6.186669 0.03765,9.694933 -2.601562,12.300781 -1.538779,1.519333 -3.353011,1.79984 -5.46875,1.373047 -2.115739,-0.426792 -4.361013,-1.711574 -5.820313,-3.097656 a 2.1002099,2.1002099 0 0 0 -3.445312,0.876953 l -4.855469,15.029297 a 2.1002099,2.1002099 0 0 0 1.921875,2.744141 l 15.800781,0.583984 a 2.1002099,2.1002099 0 0 0 1.929688,-3.089844 c -0.895792,-1.673929 -0.63117,-3.962601 -0.386719,-4.863281 a 2.0999999,2.0999999 0 0 0 -1.476563,-2.576172 2.0999999,2.0999999 0 0 0 -2.576172,1.476563 c -0.285516,1.051987 -0.543619,2.801152 -0.259765,4.748047 l -10.103516,-0.375 3.119141,-9.650391 c 1.604935,1.032832 3.356037,1.913914 5.322266,2.310547 3.076081,0.620515 6.624898,0.08997 9.25,-2.501953 3.528078,-3.483472 5.674176,-9.058568 3.697265,-16.4375 a 2.1002099,2.1002099 0 0 0 -0.03125,-0.105469 C 38.513742,6.9312191 31.877181,2.5979078 24.446196,2.5979078 Z" fill="#008055"/>
</svg>
