<svg xmlns="http://www.w3.org/2000/svg" width="48" height="48">
	<path d="m 8.6279296,4.1103517 c -1.7204335,0 -3.3962092,0.3729453 -4.7246095,1.4472656 C 2.5749199,6.6319377 1.8271483,8.3962796 1.8271483,10.301758 V 29.84082 c 0,1.807664 0.7794264,3.493636 2.0605468,4.578125 1.2811205,1.08449 2.9635051,1.591797 4.7402345,1.591797 H 21.254883 v 1.708985 c 0,1.032125 -0.236255,1.45423 -0.486328,1.697265 -0.250074,0.243036 -0.71178,0.472656 -1.701172,0.472656 H 10.90918 a 2,2 0 0 0 -2.0000004,2 2,2 0 0 0 2.0000004,2 h 8.158203 c 1.678608,0 3.310905,-0.459276 4.488281,-1.603515 1.177376,-1.14424 1.699219,-2.807672 1.699219,-4.566406 v -3.708985 a 2.0002,2.0002 0 0 0 -2,-2 H 8.6279296 c -1.0145707,0 -1.7346456,-0.289589 -2.15625,-0.646484 C 6.050075,31.007362 5.8271483,30.607576 5.8271483,29.84082 V 10.301758 c 0,-1.0095119 0.2302222,-1.3423485 0.5917969,-1.6347657 C 6.7805199,8.3745752 7.506063,8.1103517 8.6279296,8.1103517 H 39.983398 c 0.88941,0 1.339951,0.2442498 1.650391,0.5664063 0.310441,0.3221564 0.539063,0.8212679 0.539063,1.625 V 29.84082 c 0,1.032101 -0.238182,1.454214 -0.488282,1.697266 -0.250099,0.243052 -0.711779,0.472656 -1.701172,0.472656 H 28.713867 a 2,2 0 0 0 -2,2 2,2 0 0 0 2,2 h 11.269531 c 1.678608,0 3.310881,-0.459292 4.488282,-1.603515 1.177401,-1.144225 1.701172,-2.807648 1.701172,-4.566407 V 10.301758 c 0,-1.6401582 -0.538119,-3.2380347 -1.658204,-4.4003907 C 43.394565,4.7390113 41.74989,4.1103517 39.983398,4.1103517 Z M 27.657227,10.81543 a 1.70017,1.70017 0 0 0 -1.675782,1.492187 c -0.111634,0.906543 -0.943924,1.853105 -1.3125,2.154297 a 1.7,1.7 0 0 0 -0.240234,2.392578 1.7,1.7 0 0 0 2.392578,0.240235 c 0.4617,-0.377291 1.063761,-1.049732 1.595703,-1.910157 l 3.935547,2.917969 -3.892578,2.884766 c -1.308956,-2.514885 -3.797417,-4.585938 -7.166016,-4.585938 -2.325791,0 -4.615531,1.019164 -6.070312,3.080078 -1.454781,2.060914 -2.150391,4.962368 -2.150391,8.841797 a 1.7,1.7 0 0 0 1.701172,1.699219 1.7,1.7 0 0 0 1.699219,-1.699219 c 0,-3.457691 0.669675,-5.667796 1.527344,-6.882812 0.857669,-1.215016 1.82956,-1.638672 3.292968,-1.638672 2.542599,0 4.279711,2.144607 4.710938,4.232422 a 1.70017,1.70017 0 0 0 2.675781,1.021484 l 7.53711,-5.587891 a 1.70017,1.70017 0 0 0 0,-2.730468 l -7.53711,-5.587891 A 1.70017,1.70017 0 0 0 27.657227,10.81543 Z m 0.416015,29.074218 a 2,2 0 0 0 -2,2 2,2 0 0 0 2,2 h 7.140625 a 2,2 0 0 0 2,-2 2,2 0 0 0 -2,-2 z" fill="#008055"/>
</svg>
