<svg xmlns="http://www.w3.org/2000/svg" width="48" height="48">
	<path d="m 23.254561,1.9329884 c -0.32327,0.016086 -0.651108,0.050978 -0.986328,0.087891 -9.51249,0.869159 -17.6600956,7.341067 -19.8945311,17.3437496 a 2.0002,2.0002 0 0 0 -0.00586,0.02344 c -1.2644216,5.994699 0.1097218,11.484277 2.6347655,15.75 2.525044,4.265725 6.1413646,7.37455 9.7382816,8.859376 A 2,2 0 0 0 17.352218,42.911504 2,2 0 0 0 16.26628,40.300176 C 13.659786,39.224202 10.534458,36.632483 8.4440144,33.100957 6.3563988,29.574209 5.2429783,25.176297 6.2799519,20.23377 8.1532571,11.856336 14.677945,6.720977 22.649093,5.999395 a 2.0002,2.0002 0 0 0 0.03906,-0.0039 c 0.07576,-0.0084 0.01468,-0.0023 0.08399,-0.0059 l -3.324219,6.300781 a 2.0002,2.0002 0 0 0 -0.03125,0.06055 c -0.565404,1.167396 -1.035363,2.499012 -0.316407,3.972656 0.35948,0.736823 1.069608,1.320209 1.78711,1.591797 0.717501,0.271589 1.438325,0.320254 2.201172,0.271485 l 4.982422,-0.1875 -8.070316,8.41214 a 2,2 0 0 0 0.05859,2.828125 2,2 0 0 0 2.828125,-0.05859 l 9.277344,-9.669922 c 0.425445,-0.402029 0.792814,-0.806391 1.091796,-1.300781 0.31965,-0.528564 0.658198,-1.257352 0.423829,-2.232422 -0.234369,-0.97507 -1.150698,-1.661763 -1.837891,-1.878906 -0.687193,-0.217143 -1.300483,-0.219783 -1.992188,-0.166016 l -6.863281,0.25586 c 0.01747,-0.04184 0.0071,-0.04363 0.0293,-0.08984 10e-4,-0.0021 9.26e-4,-0.0018 0.002,-0.0039 l 3.730469,-7.072266 a 2.0002,2.0002 0 0 0 0.0098,-0.01563 C 27.079867,6.38429 27.319995,5.712484 27.274173,4.899794 27.228353,4.087105 26.739231,3.190539 26.106204,2.716201 25.473177,2.241861 24.848112,2.0307792 24.211673,1.9564349 23.896616,1.9196319 23.577912,1.9169119 23.254641,1.9329979 Z m 8.134766,1.1933596 a 2,2 0 0 0 -1.828125,1.193359 2,2 0 0 0 1.023438,2.636719 c 7.297904,3.216814 13.211226,10.806002 11.103515,20.798828 -2.109143,9.912995 -11.377241,15.085514 -19.419922,14.230469 a 2,2 0 0 0 -2.199219,1.777343 2,2 0 0 0 1.777344,2.199219 c 10.048078,1.068246 21.212933,-5.415364 23.75586,-17.378906 a 2.0002,2.0002 0 0 0 0,-0.0039 C 48.111767,16.681499 40.941816,7.150456 32.197921,3.29627 A 2,2 0 0 0 31.389327,3.126348 Z M 16.967452,23.729863 a 1.8,1.8 0 0 0 -1.808594,1.550782 l -0.951172,6.761718 c -0.143067,0.99146 -0.129016,2.218262 0.902344,3.091797 1.030734,0.873005 2.251262,0.67783 3.19336,0.367188 l 6.595703,-2.173828 a 1.8,1.8 0 0 0 1.146484,-2.273438 1.8,1.8 0 0 0 -2.273437,-1.144531 l -5.902344,1.943359 0.855468,-6.072265 a 1.8,1.8 0 0 0 -1.533203,-2.033203 1.8,1.8 0 0 0 -0.224609,-0.01758 z" fill="#008055"/>
</svg>
