<svg xmlns="http://www.w3.org/2000/svg" width="48" height="48">
	<path d="m 27.357963,2.7201359 c -1.717512,0.047959 -3.34433,0.3126071 -4.720703,0.726562 -0.917582,0.275972 -1.722854,0.606614 -2.425782,1.089844 -0.702927,0.483231 -1.509765,1.244792 -1.509765,2.501953 0,1.182937 0.540676,2.026032 1.007812,2.728516 0.467137,0.7024841 0.955615,1.3435961 1.38086,2.1035161 0.85049,1.519839 1.55857,3.471684 0.945312,7.18164 a 1.8,1.8 0 0 0 1.482422,2.06836 1.8,1.8 0 0 0 2.070313,-1.482422 C 26.318274,15.222861 25.371745,12.149272 24.23101,10.110761 23.660642,9.0915059 23.069136,8.3195299 22.705619,7.7728699 c -0.185747,-0.279328 -0.152002,-0.253435 -0.207031,-0.375 0.268222,-0.152298 0.618297,-0.336238 1.175781,-0.503906 1.349899,-0.405993 3.314335,-0.664105 5.214844,-0.552734 1.900508,0.111371 3.723812,0.603814 4.917969,1.433594 1.194156,0.829777 1.880859,1.835901 1.880859,3.7871091 0,2.881418 -0.877474,5.581816 -4.712891,8.158203 -0.806755,-0.64626 -1.628779,-1.133553 -2.427734,-1.337891 a 1.8,1.8 0 0 0 -2.189453,1.296875 1.8,1.8 0 0 0 1.296875,2.191407 c 0.06725,0.0172 1.232808,0.585635 1.789062,1.277343 a 1.80018,1.80018 0 0 0 2.298828,0.433594 c 5.769744,-3.309653 7.544922,-7.982862 7.544922,-12.019531 0,-2.9838421 -1.434875,-5.3607291 -3.425781,-6.7441411 -1.990906,-1.383412 -4.415477,-1.932821 -6.761719,-2.0703122 -0.58656,-0.034373 -1.169683,-0.04333 -1.742187,-0.027344 z M 12.72515,18.573652 c -2.38957,0.03419 -4.4961868,0.738856 -6.2441398,1.748046 -2.584073,1.49191 -3.926296,3.923969 -4.1289065,6.339844 -0.2026105,2.415876 0.5338438,4.789976 1.5878906,6.890625 1.0540468,2.100649 2.4423229,3.934718 3.8378909,5.248047 0.697784,0.656665 1.386301,1.187548 2.15625,1.554688 0.7699488,0.367139 1.8331378,0.685234 2.9218748,0.05664 1.024421,-0.591487 1.484567,-1.480528 1.859375,-2.236328 0.374807,-0.755799 0.685368,-1.49786 1.130859,-2.246094 0.890983,-1.496467 2.226531,-3.088198 5.746094,-4.412109 A 1.8,1.8 0 0 0 22.643119,29.198652 1.8,1.8 0 0 0 20.32476,28.14787 c -4.188637,1.575589 -6.377223,3.932296 -7.572266,5.939454 -0.597521,1.003578 -0.970048,1.900127 -1.261719,2.488281 -0.149211,0.300884 -0.144896,0.258794 -0.222656,0.367187 C 11.002115,36.78655 10.668245,36.57577 10.244682,36.177167 9.2181372,35.211115 8.0125472,33.638509 7.1587442,31.936933 c -0.853803,-1.701576 -1.340277,-3.525554 -1.21875,-4.974609 0.121527,-1.449056 0.650066,-2.547848 2.339844,-3.523438 2.4955348,-1.44081 5.2746748,-2.031729 9.4238278,0.002 -0.156362,1.02195 -0.169786,1.979305 0.05273,2.773438 a 1.8,1.8 0 0 0 2.21875,1.248047 1.8,1.8 0 0 0 1.248047,-2.220704 c -0.01872,-0.06681 -0.107973,-1.360025 0.212891,-2.1875 A 1.80018,1.80018 0 0 0 20.66265,20.847089 c -2.875545,-1.670985 -5.547929,-2.307628 -7.9375,-2.273437 z m 12.527344,3.93164 a 2.7332432,2.7332432 0 0 0 -2.732422,2.732422 2.7332432,2.7332432 0 0 0 2.732422,2.734375 2.7332432,2.7332432 0 0 0 2.734375,-2.734375 2.7332432,2.7332432 0 0 0 -2.734375,-2.732422 z m 5.78125,2.535156 a 1.8,1.8 0 0 0 -1.386719,0.658204 1.8,1.8 0 0 0 0.248047,2.533203 c 3.458798,2.839702 6.593939,3.556525 8.929688,3.58789 1.167874,0.01568 2.131943,-0.108918 2.787109,-0.15039 0.335199,-0.02122 0.296962,-0.0053 0.429688,0.0078 -0.0022,0.308423 -0.01881,0.702901 -0.152344,1.269531 -0.323343,1.372029 -1.080247,3.202766 -2.126953,4.792969 -1.046707,1.590204 -2.385473,2.921726 -3.701172,3.541016 -1.315699,0.619289 -2.530899,0.711922 -4.220703,-0.263672 -2.495216,-1.440673 -4.395254,-3.550981 -4.708985,-8.160156 0.963261,-0.375545 1.796483,-0.843691 2.373047,-1.433594 a 1.8,1.8 0 0 0 -0.0293,-2.546875 1.8,1.8 0 0 0 -2.544922,0.0293 c -0.04832,0.04944 -1.124792,0.774247 -2.001953,0.910156 a 1.80018,1.80018 0 0 0 -1.52539,1.773438 c -0.01854,6.651508 3.140917,10.526537 6.636719,12.544921 2.584096,1.491907 5.361161,1.436774 7.554687,0.404297 2.193526,-1.032476 3.881634,-2.857153 5.173828,-4.820312 1.292194,-1.963159 2.185418,-4.082003 2.625,-5.947266 0.219791,-0.932631 0.336566,-1.794162 0.269531,-2.644531 -0.06703,-0.850369 -0.323343,-1.930054 -1.412109,-2.558594 -1.024437,-0.591496 -2.023288,-0.545483 -2.865234,-0.492187 -0.841947,0.0533 -1.640993,0.156223 -2.511719,0.144531 -1.741452,-0.02338 -3.787056,-0.385386 -6.69336,-2.771484 a 1.8,1.8 0 0 0 -1.146484,-0.408204 z" fill="#008055"/>
</svg>
