<svg xmlns="http://www.w3.org/2000/svg" width="48" height="48">
	<path d="m 17.933934,2.0498869 c -0.319919,-0.015487 -0.648255,0.017729 -0.980469,0.1113281 -1.328857,0.3743972 -2.135137,1.6112563 -2.40625,2.8378906 l -1.292969,5.6601564 c -0.148892,0.643511 -0.363398,1.004659 -0.613281,1.242188 -0.249883,0.237528 -0.586245,0.428585 -1.296875,0.513672 -0.0059,6.39e-4 -0.01172,0.0013 -0.01758,0.002 l -5.7226565,0.74414 C 4.3724097,13.286028 3.0868964,13.873937 2.502291,15.165169 1.9176856,16.4564 2.41302,17.972256 3.3089316,18.971809 l -0.070313,-0.08398 3.59375,4.507813 c 0.7484309,1.012631 0.8404541,1.555736 0.1894531,2.671874 l -2.9980468,4.957032 c -0.5898022,0.966802 -1.1312451,2.184411 -0.484375,3.576172 0.3240665,0.697239 0.9698699,1.22368 1.5996094,1.480468 0.6297392,0.256789 1.2599113,0.325354 1.9355468,0.31836 h 5.3066429 c 1.049666,2.16e-4 1.900635,-0.850776 1.900391,-1.900442 -8.63e-4,-1.048883 -0.851507,-1.898653 -1.900391,-1.898437 H 7.5120586 l 2.7773434,-4.591797 c 0.0053,-0.0091 0.0105,-0.01818 0.01563,-0.02734 1.303986,-2.235678 0.99613,-4.939043 -0.4238278,-6.855469 -0.013343,-0.01847 -0.027017,-0.03671 -0.041016,-0.05469 L 6.4944851,16.878013 11.79722,16.186607 c 1.337239,-0.160113 2.55955,-0.674428 3.460937,-1.53125 0.901387,-0.856821 1.430201,-1.977935 1.699219,-3.140625 6.7e-4,-0.002 0.0013,-0.0039 0.002,-0.0059 l 1.19336,-5.2304695 3.820312,3.6914062 c 0.940843,0.9613753 2.117543,1.5995193 3.345703,1.7636723 1.22816,0.164153 2.41516,-0.116714 3.498047,-0.595703 0.01902,-0.0082 0.0379,-0.01662 0.05664,-0.02539 L 33.709375,8.7822697 33.197656,14.12602 c -0.0017,0.02211 -0.003,0.04425 -0.0039,0.06641 -0.132557,2.207341 0.898539,4.859783 3.466797,6.009766 l 4.787109,2.304688 -4.480468,2.923828 c -0.0016,0.001 -0.0023,0.0029 -0.0039,0.0039 l -0.0098,0.0059 c -1.048274,0.674627 -1.925579,1.589249 -2.386719,2.732422 -0.46323,1.148354 -0.477313,2.406156 -0.230469,3.65625 0.0036,0.01829 0.0075,0.03652 0.01172,0.05469 l 1.195313,5.232422 -5.095704,-1.685547 c -0.01942,-0.0068 -0.03895,-0.01334 -0.05859,-0.01953 -2.34191,-0.689377 -4.923064,0.02937 -6.5625,1.953126 -0.01393,0.0154 -0.0276,0.03102 -0.04102,0.04687 L 20.433963,41.614341 18.74451,37.27645 c -0.381156,-0.977976 -1.483109,-1.461611 -2.460938,-1.080078 -0.976913,0.381162 -1.460316,1.48171 -1.080078,2.458984 l 1.84375,4.728516 c 0.0069,0.01768 0.01406,0.03526 0.02148,0.05273 0.448777,1.05687 1.168393,2.172889 2.601563,2.460938 1.433169,0.288048 2.654586,-0.576471 3.445312,-1.550782 0.0039,-0.0039 0.0078,-0.0078 0.01172,-0.01172 l 3.595703,-4.511719 c 0.938113,-1.099274 1.23567,-1.164096 2.580078,-0.769531 l 5.480469,1.8125 c 0.02135,0.0075 0.04284,0.0147 0.06445,0.02148 1.161734,0.339215 2.532764,0.524425 3.681641,-0.492187 0.574438,-0.508308 0.875677,-1.243157 0.957031,-1.88086 0.08135,-0.637702 0.0025,-1.224486 -0.144531,-1.826172 l 0.0078,0.02734 -1.285156,-5.623047 v -0.0039 c -0.150557,-0.766233 -0.09257,-1.196872 0.02734,-1.494141 0.120227,-0.298046 0.332118,-0.585837 0.923828,-0.964844 0.0046,-0.0026 0.0091,-0.0052 0.01367,-0.0078 l 4.873047,-3.179688 0.0039,-0.002 c 0.984747,-0.639475 1.86184,-1.677358 1.84375,-3.070312 -0.01811,-1.394565 -1.064569,-2.528087 -2.251953,-3.091797 l -5.238282,-2.523438 c -0.01552,-0.0074 -0.03115,-0.01453 -0.04687,-0.02148 -1.150294,-0.515064 -1.297478,-1.127439 -1.226563,-2.3125 v -0.002 l 0.546875,-5.7304693 c 6.88e-4,-0.00521 0.0014,-0.010414 0.002,-0.015625 0.09982,-1.1407145 -0.01528,-2.4770644 -1.181691,-3.4042108 -1.166409,-0.9271465 -2.70922,-0.6823143 -3.894531,-0.1015625 l -5.179687,2.4960937 c -0.0017,7.379e-4 -0.0022,-7.349e-4 -0.0039,0 -0.646485,0.2852226 -1.110063,0.3485882 -1.453132,0.3027344 -0.343952,-0.045972 -0.659124,-0.1702718 -1.132812,-0.6542969 -0.01284,-0.012554 -0.02587,-0.024925 -0.03906,-0.037109 l -4.1875,-4.046875 c -0.0071,-0.00722 -0.01427,-0.01438 -0.02149,-0.021484 C 19.775524,2.5828646 18.893689,2.096349 17.933934,2.0498869 Z" fill="#008055"/>
</svg>
