<svg xmlns="http://www.w3.org/2000/svg" width="48" height="48">
	<path d="m 17.308593,2.387724 c -0.760654,0 -1.346689,0.02182 -2.023437,0.261719 -0.338374,0.119948 -0.727461,0.314525 -1.074219,0.691406 -0.346759,0.376882 -0.572587,0.943658 -0.605469,1.40625 -0.06576,0.925186 0.253669,1.372489 0.464844,1.753907 0.211175,0.381417 0.424355,0.693848 0.611328,1 a 1.90019,1.90019 0 0 0 0.01367,0.02148 c 0.825354,1.311376 0.974955,3.592242 1.025391,5.988281 -7.32e-4,0.698634 -0.0162,1.663286 0.697265,2.652344 0.725803,1.006167 2.06089,1.455078 3.388672,1.455078 h 8.341797 c 1.412758,0 2.796813,-0.541674 3.509766,-1.572266 0.712952,-1.03059 0.701171,-2.04253 0.701171,-2.767578 a 1.90019,1.90019 0 0 0 0,-0.01563 c -0.02088,-2.308624 0.03988,-4.202997 1.027344,-5.669921 l 0.002,-0.002 C 33.619901,7.248928 33.856555,6.906913 34.076216,6.485326 34.296331,6.062867 34.59841,5.522722 34.459029,4.612279 34.319648,3.701836 33.437781,2.90007 32.771529,2.659154 32.105276,2.418237 31.508211,2.387669 30.763716,2.387669 Z m 0.921875,3.798829 h 11.644531 c -1.316034,2.413782 -1.33366,4.986018 -1.314453,7.109374 l -0.002,-0.01758 c 0,0.253079 -0.0259,0.426112 -0.04297,0.529297 -0.05708,0.0034 -0.103982,0.0098 -0.367187,0.0098 H 19.80664 c -0.190824,0 -0.188774,-0.0026 -0.257813,-0.0059 -0.01213,-0.09056 -0.02734,-0.163038 -0.02734,-0.339844 a 1.90019,1.90019 0 0 0 0,-0.04102 C 19.475647,11.253065 19.460817,8.59944 18.230471,6.18654 Z M 11.80664,8.165068 c -1.469523,0 -3.0068536,0.42261 -4.2539057,1.470703 -1.2470525,1.048093 -2.0722657,2.762863 -2.0722657,4.71875 v 25.087891 a 2.0002,2.0002 0 0 0 0.00195,0.05859 c 0.055347,1.869443 0.9167697,3.539498 2.2089844,4.58789 1.2922144,1.048392 2.924554,1.523438 4.589843,1.523438 a 2.0002,2.0002 0 0 0 0.0039,0 l 24.046875,-0.03906 c 1.678602,0 3.310901,-0.459273 4.488281,-1.603515 1.17738,-1.144243 1.699219,-2.807657 1.699219,-4.566407 V 14.354521 c 0,-1.640161 -0.538143,-3.236075 -1.658204,-4.398437 -1.12006,-1.162362 -2.762834,-1.791016 -4.529296,-1.791016 a 2,2 0 0 0 -2,2 2,2 0 0 0 2,2 c 0.889337,0 1.339951,0.244243 1.65039,0.566406 0.310439,0.322164 0.53711,0.819309 0.53711,1.623047 v 25.048828 c 0,1.032151 -0.236258,1.454234 -0.486328,1.697266 -0.250071,0.243032 -0.711775,0.472656 -1.701172,0.472656 a 2.0002,2.0002 0 0 0 -0.0039,0 l -24.046875,0.03906 c -0.89591,0 -1.622202,-0.265347 -2.070312,-0.628907 C 9.7628274,40.619869 9.5048215,40.204421 9.4804685,39.381865 V 14.354521 c 0,-0.959112 0.265384,-1.337593 0.6445305,-1.65625 0.379148,-0.318657 1.004764,-0.533203 1.681641,-0.533203 a 2,2 0 0 0 2,-2 2,2 0 0 0 -2,-2 z m 12.066406,11.322266 a 2,2 0 0 0 -2,2 v 9.521484 a 2,2 0 0 0 2,2 2,2 0 0 0 2,-2 v -9.521484 a 2,2 0 0 0 -2,-2 z m -0.121093,14.748047 a 2.7528822,2.7528822 0 0 0 -2.751954,2.751953 2.7528822,2.7528822 0 0 0 2.751954,2.753906 2.7528822,2.7528822 0 0 0 2.753906,-2.753906 2.7528822,2.7528822 0 0 0 -2.753906,-2.751953 z" fill="#008055"/>
</svg>
