<svg xmlns="http://www.w3.org/2000/svg" width="48" height="48">
	<path d="m 24.055664,1.5812143 c -1.344344,-0.01392 -2.72181,0.3867783 -3.828125,1.3183594 -1.106314,0.9315811 -1.845703,2.442429 -1.845703,4.150391 V 23.342933 a 1.8,1.8 0 0 0 1.800781,1.798828 1.8,1.8 0 0 0 1.798828,-1.798828 V 7.0499647 c 0,-0.776989 0.22488,-1.110544 0.564453,-1.396485 0.339574,-0.28594 0.889149,-0.478698 1.472657,-0.472656 0.583507,0.006 1.152605,0.211819 1.505859,0.511719 0.353254,0.299899 0.568359,0.635812 0.568359,1.357422 0,3.4663833 -0.0293,14.9315903 -0.0293,18.4824223 0,2.519646 1.195321,4.337246 2.53125,5.341796 l -0.04688,-0.03711 c 1.572083,1.266477 2.326171,2.58322 2.326171,4.873047 0,3.900604 -2.415967,7.101148 -6.90039,7.107422 -4.434369,-0.05785 -6.847656,-3.176796 -6.847656,-7.128906 0,-2.613099 2.059436,-4.844464 3.259765,-5.529297 A 1.8,1.8 0 0 0 21.057608,27.70426 1.8,1.8 0 0 0 18.60253,27.032386 c -2.327569,1.327966 -5.076172,4.370347 -5.076172,8.65625 0,5.605408 4.156672,10.656073 10.414063,10.730468 a 1.80018,1.80018 0 0 0 0.02148,0 c 6.340511,0 10.511719,-5.135816 10.511719,-10.708984 0,-3.242973 -1.442653,-5.883058 -3.667969,-7.675781 a 1.80018,1.80018 0 0 0 -0.04688,-0.03711 c -0.862893,-0.64885 -1.095703,-0.754491 -1.095703,-2.464843 0,-3.530769 0.03125,-14.995605 0.03125,-18.4824223 0,-1.683491 -0.747211,-3.1739593 -1.839844,-4.1015629 C 26.761859,2.0207983 25.400008,1.5951347 24.055664,1.5812143 Z M 23.926758,32.030433 a 3.840766,3.8502173 0 0 0 -3.839844,3.84961 3.840766,3.8502173 0 0 0 3.839844,3.849609 3.840766,3.8502173 0 0 0 3.841797,-3.849609 3.840766,3.8502173 0 0 0 -3.841797,-3.84961 z" fill="#008055"/>
</svg>
