<svg xmlns="http://www.w3.org/2000/svg" width="48" height="48">
	<path d="m 23.533632,2.6049844 c -4.323298,0.088985 -8.587167,1.2713884 -12.765625,3.4296874 a 0.69999999,0.69999999 0 0 0 -0.300781,0.94336 0.69999999,0.69999999 0 0 0 0.943359,0.300781 c 8.042206,-4.154042 16.14307,-4.5396629 24.615235,-0.294922 a 0.69999999,0.69999999 0 0 0 0.939453,-0.3125 0.69999999,0.69999999 0 0 0 -0.3125,-0.939453 C 32.239075,3.5205778 27.856931,2.5159992 23.533632,2.6049844 Z m 0.822266,5.3593754 c -0.449676,-0.0054 -0.897914,0.0016 -1.345703,0.02148 C 15.845568,8.3035638 9.0061848,11.83065 5.1957418,17.790528 a 0.69999999,0.69999999 0 0 0 0.21289,0.966796 0.69999999,0.69999999 0 0 0 0.966797,-0.21289 C 13.445561,7.4861128 31.987267,5.2670608 41.65082,18.272953 a 0.69999999,0.69999999 0 0 0 0.980469,0.144532 0.69999999,0.69999999 0 0 0 0.144531,-0.980469 C 37.984975,10.989159 31.101042,8.0453848 24.355898,7.9643598 Z M 23.564882,13.23975 c -0.913584,0.025 -1.85134,0.114206 -2.8125,0.271485 a 0.70006999,0.70006999 0 0 0 -0.02344,0.0039 C 13.632508,14.913536 9.6052098,18.94528 7.8773788,23.7124 c -1.727831,4.767123 -1.233983,10.215336 0.396485,14.667969 a 0.69999999,0.69999999 0 0 0 0.896484,0.416016 0.69999999,0.69999999 0 0 0 0.417969,-0.898438 c -1.533783,-4.188597 -1.975239,-9.347783 -0.394531,-13.708984 1.5796582,-4.358313 5.1006422,-7.9719 11.7949212,-9.294922 7.207991,-1.175919 12.785369,1.626266 16.509766,6.714844 1.876618,2.728816 2.753808,5.769414 2.585937,8.169922 -0.167783,2.399258 -1.242646,4.089281 -3.453124,4.623047 -0.0017,3.8e-4 -0.0022,-3.8e-4 -0.0039,0 -2.431744,0.554895 -3.647391,0.13092 -4.503906,-0.707032 -0.857101,-0.838525 -1.364479,-2.269936 -1.857422,-3.828125 -0.492942,-1.558188 -0.970787,-3.233625 -2.087891,-4.480468 -1.117103,-1.246844 -2.915758,-1.906998 -5.515624,-1.433594 a 0.70006999,0.70006999 0 0 0 -0.02344,0.0059 c -2.153605,0.46778 -3.668345,1.869387 -4.396484,3.69336 -0.728139,1.823973 -0.722715,4.042492 -0.07227,6.304687 1.300897,4.52439 5.222514,9.281319 11.626953,11.408203 A 0.69999999,0.69999999 0 0 0 30.68207,44.921391 0.69999999,0.69999999 0 0 0 30.23871,44.036625 C 24.2655,42.05295 20.679859,37.624216 19.514101,33.569828 c -0.582879,-2.027194 -0.550831,-3.945229 0.0293,-5.398437 0.578519,-1.449179 1.650532,-2.459688 3.380859,-2.839844 2.285564,-0.413622 3.395639,0.07829 4.210938,0.988281 0.816796,0.911659 1.298467,2.39946 1.794922,3.96875 0.496455,1.569291 1.009537,3.228976 2.21289,4.40625 1.203354,1.177275 3.088786,1.692183 5.800782,1.072266 a 0.70006999,0.70006999 0 0 0 0.0059,-0.002 c 2.80897,-0.673683 4.334511,-3.075352 4.53125,-5.888672 0.196739,-2.81332 -0.797241,-6.107601 -2.833985,-9.066406 a 0.70006999,0.70006999 0 0 0 -0.01172,-0.01758 C 35.649496,16.70794 31.409006,13.947554 26.230898,13.353032 25.36788,13.253944 24.478467,13.214747 23.564882,13.23975 Z m 0.06641,5.080078 c -0.283771,0.0091 -0.566221,0.02714 -0.847657,0.05469 -3.377225,0.330582 -6.537821,1.971073 -8.308593,4.513672 -4.350002,6.246023 -2.262352,15.130652 4.339843,21.84375 a 0.69999999,0.69999999 0 0 0 0.990235,0.0078 0.69999999,0.69999999 0 0 0 0.0078,-0.990234 c -6.275725,-6.381143 -8.061272,-14.501131 -4.189453,-20.060547 1.96923,-2.827558 6.333747,-4.504555 10.326172,-3.8125 3.992425,0.692055 7.628758,3.576706 8.40625,10.109375 a 0.69999999,0.69999999 0 0 0 0.777344,0.613281 0.69999999,0.69999999 0 0 0 0.613281,-0.779297 C 34.912235,22.809948 30.712612,19.279589 26.189882,18.49561 25.341871,18.348613 24.4826,18.292454 23.631289,18.319828 Z m 0.203124,10.261719 a 0.69999999,0.69999999 0 0 0 -0.04297,0.002 0.69999999,0.69999999 0 0 0 -0.650391,0.746094 c 0.25888,3.786698 1.672265,6.886703 4.113281,8.888672 2.441017,2.001969 5.859581,2.865327 9.970704,2.371094 A 0.69999999,0.69999999 0 0 0 37.836368,39.81011 0.69999999,0.69999999 0 0 0 37.059024,39.198782 C 33.227946,39.659348 30.243362,38.85886 28.143008,37.136282 26.042655,35.413703 24.77654,32.72985 24.53754,29.233938 a 0.69999999,0.69999999 0 0 0 -0.703126,-0.652344 z" fill="#008055"/>
</svg>
