<svg xmlns="http://www.w3.org/2000/svg" width="48" height="48">
	<path d="m 8.6542971,7.7234201 c -1.5407699,0 -2.8311985,0.436751 -3.7050781,1.335938 C 4.0753394,9.9585451 3.683594,11.23986 3.683594,12.711701 L 3.646485,34.674592 a 0.80008001,0.80008001 0 0 0 0,0.002 c 0,1.434432 0.4109693,2.795007 1.2539063,3.833984 0.842937,1.038979 2.1360349,1.719519 3.6914062,1.765626 A 0.80000001,0.80000001 0 0 0 9.4160159,39.500764 0.80000001,0.80000001 0 0 0 8.6386721,38.676545 C 7.5020434,38.642852 6.7115914,38.204064 6.1425784,37.502717 5.5735654,36.80137 5.246094,35.803213 5.246094,34.676545 l 0.037109,-21.96289 a 0.80008001,0.80008001 0 0 0 0,-0.002 c 0,-1.196159 0.2991046,-2.008846 0.8125,-2.537109 C 6.6090983,9.6462831 7.4041666,9.3229831 8.6542967,9.3229831 H 39.363281 c 1.054666,0 1.882809,0.321675 2.457032,0.8749999 0.574223,0.553326 0.933594,1.361197 0.933594,2.513672 v 21.964844 c 0,1.301381 -0.29722,2.311251 -0.824219,2.962891 -0.526999,0.651639 -1.288108,1.037109 -2.566407,1.037109 H 12.103516 a 0.80000001,0.80000001 0 0 0 -0.800781,0.800781 0.80000001,0.80000001 0 0 0 0.800781,0.798829 h 27.259765 c 1.636702,0 2.970796,-0.592499 3.810547,-1.63086 0.839751,-1.03836 1.179688,-2.42793 1.179688,-3.96875 V 12.711701 c 0,-1.503324 -0.513526,-2.7888409 -1.423828,-3.6660149 -0.910302,-0.877175 -2.177172,-1.322266 -3.566407,-1.322266 z M 7.5957034,26.932405 a 0.80000001,0.80000001 0 0 0 -0.7988282,0.800781 0.80000001,0.80000001 0 0 0 0.7988282,0.800781 H 40.355469 a 0.80000001,0.80000001 0 0 0 0.798828,-0.800781 0.80000001,0.80000001 0 0 0 -0.798828,-0.800781 z M 24,29.877717 a 0.80000001,0.80000001 0 0 0 -0.800781,0.800781 v 6.046875 A 0.80000001,0.80000001 0 0 0 24,37.526155 0.80000001,0.80000001 0 0 0 24.798828,36.725373 V 30.678498 A 0.80000001,0.80000001 0 0 0 24,29.877717 Z" fill="#008055"/>
</svg>
