<svg xmlns="http://www.w3.org/2000/svg" width="48" height="48">
	<path d="m 23.410225,1.376094 c -4.59478,0.140743 -9.114339,1.505972 -12.77539,4.011719 a 1.90019,1.90019 0 0 0 -0.02734,0.01953 C 5.6130221,8.95248 2.9105055,13.503778 2.6387451,18.15539 c -0.2717604,4.651611 1.8818836,9.213477 5.826172,12.769531 a 1.90019,1.90019 0 0 0 0.00195,0.002 c 3.9319179,3.533894 7.7691949,4.420358 9.9218749,4.957031 2.104393,0.532764 2.86521,1.520324 3.269531,2.957032 0.404322,1.436707 0.198509,3.426173 -0.474609,5.230468 a 1.90019,1.90019 0 0 0 2.646484,2.355469 c 3.32791,-1.701563 5.269866,-3.802693 6.970703,-5.894531 1.700838,-2.091838 3.213359,-4.174489 6.0625,-6.498047 a 1.9,1.9 0 0 0 0.271485,-2.673828 1.9,1.9 0 0 0 -2.673828,-0.271484 c -3.206559,2.615042 -4.99631,5.063434 -6.607422,7.044921 -0.760023,0.934743 -1.480367,1.75217 -2.306641,2.517579 0.0079,-0.951336 0.03192,-1.907483 -0.230469,-2.839844 -0.711728,-2.529042 -2.786233,-4.799192 -5.99414,-5.611328 a 1.90019,1.90019 0 0 0 -0.0078,-0.002 c -2.246297,-0.560144 -5.015909,-1.140721 -8.304687,-4.095703 l -0.002,-0.002 C 7.7393721,25.152999 6.2358381,21.730698 6.4317101,18.378047 c 0.195635,-3.348612 2.083189,-6.818019 6.3593749,-9.859375 6.773468,-4.627676 18.058149,-4.415077 24.513672,1.386719 3.228798,2.912057 4.318147,6.147443 4.277343,9.185547 -0.04081,3.038796 -1.33035,5.883207 -2.943359,7.580078 a 1.9,1.9 0 0 0 0.06836,2.685547 1.9,1.9 0 0 0 2.6875,-0.06836 c 2.337691,-2.459229 3.934019,-6.106256 3.988282,-10.146484 0.05426,-4.040228 -1.551467,-8.468921 -5.535157,-12.060547 a 1.90019,1.90019 0 0 0 -0.002,-0.002 C 35.84978,3.48788 30.638678,1.632322 25.380882,1.391672 24.723658,1.361592 24.066577,1.355942 23.410179,1.376042 Z m -7.80664,16.074219 a 2,2 0 0 0 -2,2 2,2 0 0 0 2,2 h 16.361328 a 2,2 0 0 0 2,-2 2,2 0 0 0 -2,-2 z" fill="#008055"/>
</svg>
