<svg xmlns="http://www.w3.org/2000/svg" width="48" height="48">
	<path d="M 25.379952,1.3920577 C 20.122158,1.1514075 14.817916,2.5244413 10.633859,5.3881515 a 1.90019,1.90019 0 0 0 -0.02539,0.01953 C 5.6139951,8.9528185 2.9114791,13.504117 2.639719,18.155728 2.3679586,22.80734 4.5216031,27.369206 8.4658911,30.925259 a 1.90019,1.90019 0 0 0 0.00195,0.002 c 3.9354289,3.53705 7.7761469,4.422458 9.9277339,4.958985 2.098634,0.533214 2.857884,1.520098 3.261719,2.955078 0.404321,1.436708 0.200462,3.426173 -0.472656,5.230469 a 1.90019,1.90019 0 0 0 2.644531,2.355468 c 3.32791,-1.701563 5.271819,-3.802693 6.972656,-5.894531 1.700838,-2.091838 3.213359,-4.174489 6.0625,-6.498047 a 1.9,1.9 0 0 0 0.271485,-2.671875 1.9,1.9 0 0 0 -2.673829,-0.273437 c -3.206559,2.615042 -4.998262,5.063435 -6.609374,7.044922 -0.760007,0.934722 -1.478437,1.752183 -2.304688,2.517578 0.0078,-0.950872 0.02984,-1.907938 -0.232422,-2.839844 -0.711728,-2.529042 -2.786233,-4.799191 -5.99414,-5.611328 a 1.90019,1.90019 0 0 0 -0.0059,-0.002 c -2.246297,-0.560144 -5.017862,-1.140721 -8.30664,-4.095703 l -0.002,-0.002 C 7.7383971,25.153337 6.2368151,21.731035 6.4326871,18.378385 c 0.195635,-3.348614 2.083183,-6.818017 6.3593749,-9.8593745 6.773469,-4.6276715 18.05815,-4.4150748 24.513671,1.386719 3.228799,2.9120565 4.318148,6.1474425 4.277344,9.1855465 -0.04081,3.038797 -1.33035,5.883207 -2.943359,7.580078 a 1.9,1.9 0 0 0 0.06836,2.685547 1.9,1.9 0 0 0 2.685547,-0.06641 c 2.337691,-2.45923 3.934019,-6.10821 3.988281,-10.148438 0.05426,-4.040228 -1.551467,-8.46892 -5.535156,-12.0605465 a 1.90019,1.90019 0 0 0 -0.002,-0.002 C 35.848849,3.4882661 30.637747,1.632708 25.379952,1.3920577 Z" fill="#008055"/>
</svg>
