<svg xmlns="http://www.w3.org/2000/svg" width="48" height="48">
	<path d="m 23.410225,1.3767108 c -4.59478,0.140743 -9.114339,1.505973 -12.77539,4.011719 a 1.90019,1.90019 0 0 0 -0.02734,0.01953 C 5.6130221,8.9530968 2.9105051,13.504396 2.6387451,18.156007 c -0.27176,4.651612 1.881884,9.213478 5.826172,12.769531 a 1.90019,1.90019 0 0 0 0.00391,0.002 c 3.9354289,3.537051 7.7761459,4.422458 9.9277349,4.958985 2.098629,0.533213 2.857882,1.520085 3.261718,2.955078 0.404323,1.43672 0.200461,3.426175 -0.472656,5.230469 a 1.90019,1.90019 0 0 0 2.644531,2.355468 c 3.327913,-1.701564 5.27182,-3.802683 6.972657,-5.894531 1.700836,-2.091848 3.211407,-4.174491 6.060546,-6.498047 a 1.9,1.9 0 0 0 0.273438,-2.671875 1.9,1.9 0 0 0 -2.673828,-0.271484 c -3.206561,2.615044 -4.998262,5.061472 -6.609375,7.042969 -0.760007,0.934727 -1.478437,1.75218 -2.304688,2.517578 0.0078,-0.950874 0.02984,-1.907936 -0.232422,-2.839844 -0.711727,-2.52905 -2.786229,-4.79919 -5.99414,-5.611328 a 1.90019,1.90019 0 0 0 -0.0059,0 c -2.246297,-0.560144 -5.017862,-1.142674 -8.30664,-4.097656 l -0.002,-0.002 C 7.7393731,25.153616 6.2377921,21.731314 6.4336631,18.378664 c 0.195578,-3.347635 2.079971,-6.816703 6.3535149,-9.8574222 6.7718,-4.630387 18.058003,-4.417582 24.515626,1.382813 3.23051,2.9125742 4.322062,6.1487032 4.28125,9.1875002 -0.04081,3.038797 -1.330351,5.883207 -2.94336,7.580078 a 1.9,1.9 0 0 0 0.06836,2.685547 1.9,1.9 0 0 0 2.685546,-0.06641 c 2.337691,-2.45923 3.934019,-6.10821 3.988282,-10.148438 0.05426,-4.040228 -1.551467,-8.46892 -5.535157,-12.0605472 a 1.90019,1.90019 0 0 0 -0.002,-0.002 c -3.995946,-3.591291 -9.207048,-5.44685 -14.464844,-5.6875 -0.657224,-0.03008 -1.314305,-0.03573 -1.970703,-0.01563 z m 8.78125,8.6445312 a 2,2 0 0 0 -1.708984,1 L 23.771554,22.657961 19.669991,15.91968 a 2,2 0 0 0 -2.748047,-0.669922 2,2 0 0 0 -0.669922,2.75 l 5.857422,9.619141 a 2.0002,2.0002 0 0 0 3.441406,-0.04102 l 8.396485,-14.556641 a 2,2 0 0 0 -0.732422,-2.732421 2,2 0 0 0 -1.023438,-0.267579 z" fill="#008055"/>
</svg>
