<svg xmlns="http://www.w3.org/2000/svg" width="48" height="48">
	<path d="M 34.395045,0.86556991 A 1.60016,1.60016 0 0 0 33.547389,1.1390069 c -1.546924,1.04265 -3.375146,2.633563 -5.048829,5.367188 l -3.957031,-1.574219 a 1.60016,1.60016 0 0 0 -1.992187,0.712891 l -2.298828,4.158203 a 1.6,1.6 0 0 0 0.625,2.1757811 1.6,1.6 0 0 0 2.173828,-0.626953 l 1.61914,-2.9257811 3.806641,1.515625 a 1.60016,1.60016 0 0 0 2.029297,-0.783203 c 1.225001,-2.496438 2.385115,-3.535438 3.648437,-4.458985 0.340946,0.526481 0.477031,0.884261 1.167969,1.513672 0.744248,0.677973 1.887968,1.062479 3.19336,1.220703 -0.01989,0.72589 0.14362,1.396263 0.351562,1.837891 0.223935,0.475594 0.414208,0.7809501 0.474609,0.9160151 a 1.6,1.6 0 0 0 0.947266,1.908204 1.6,1.6 0 0 0 2.080078,-0.888672 c 0.324487,-0.808962 0.160931,-1.6964261 -0.05859,-2.2226561 -0.219524,-0.526231 -0.442762,-0.850909 -0.548828,-1.076172 -0.106066,-0.225264 -0.108938,-0.283014 -0.101562,-0.355469 0.0074,-0.07246 0.03964,-0.269638 0.404297,-0.705078 A 1.60016,1.60016 0 0 0 40.45169,4.2679139 c -1.85657,0.458571 -2.401075,0.104319 -2.976563,-0.419922 -0.575488,-0.524241 -0.947981,-1.463974 -1.847656,-2.457031 A 1.60016,1.60016 0 0 0 34.395045,0.86556991 Z M 17.617701,13.367523 a 1.9,1.9 0 0 0 -1.900391,1.898438 1.9,1.9 0 0 0 1.900391,1.90039 h 24.171875 c 0.83884,0 0.796875,0.120571 0.796875,0.585938 v 21.849609 c 0,1.225257 -0.34293,2.129496 -0.890625,2.722656 -0.547694,0.593161 -1.35104,1.009766 -2.820312,1.009766 H 22.03567 c -1.292187,0 -2.069186,-0.39793 -2.628906,-1.007813 -0.559721,-0.609882 -0.919922,-1.527019 -0.919922,-2.724609 V 20.273773 a 1.9,1.9 0 0 0 -1.900391,-1.900391 1.9,1.9 0 0 0 -1.900391,1.900391 v 19.328125 c 0,1.98271 0.626566,3.883529 1.921876,5.294922 1.295308,1.411393 3.2423,2.238281 5.427734,2.238281 h 16.839844 c 2.293097,0 4.295878,-0.805657 5.613281,-2.232422 1.317403,-1.426764 1.898437,-3.340338 1.898437,-5.300781 V 17.752289 c 0,-2.333434 -2.106156,-4.384766 -4.597656,-4.384766 z m -6.410156,2.28125 a 1.9,1.9 0 0 0 -1.8691408,1.408203 l -1.55664,5.8125 c -0.090051,0.336063 -0.131334,0.348463 -0.291016,0.46875 -0.159682,0.120287 -0.508691,0.283081 -1.035156,0.492188 -0.526466,0.209107 -1.232251,0.466389 -1.949219,1.023437 -0.7169677,0.557048 -1.3720756,1.46551 -1.6660156,2.5625 L 1.7817638,31.36557 c -0.6017929,2.246103 0.5457155,4.110344 1.21875,5.058594 0.6730345,0.948249 0.883508,0.985595 0.6367188,1.90625 l -1.5214844,5.677734 a 1.9,1.9 0 0 0 1.34375,2.326172 1.9,1.9 0 0 0 2.328125,-1.34375 l 1.521484,-5.675781 c 0.605181,-2.257646 -0.532792,-4.134394 -1.210937,-5.089844 -0.678146,-0.955451 -0.885423,-0.985156 -0.646484,-1.876953 l 1.058593,-3.947266 c 0.100605,-0.37546 0.163557,-0.41706 0.328125,-0.544922 0.164569,-0.127861 0.504462,-0.28956 1.019532,-0.49414 0.515068,-0.204581 1.205062,-0.449784 1.919921,-0.988282 0.7148598,-0.538497 1.3833248,-1.435394 1.6738288,-2.519531 l 1.55664,-5.814453 a 1.9,1.9 0 0 0 -1.34375,-2.326172 1.9,1.9 0 0 0 -0.457031,-0.06445 z m 15.111328,4.646484 a 1.85,1.85 0 0 0 -1.849609,1.84961 v 15.755859 a 1.85,1.85 0 0 0 1.849609,1.849609 1.85,1.85 0 0 0 1.849609,-1.849609 V 22.144867 a 1.85,1.85 0 0 0 -1.849609,-1.84961 z m 8.435547,0 a 1.85,1.85 0 0 0 -1.84961,1.84961 v 15.755859 a 1.85,1.85 0 0 0 1.84961,1.849609 1.85,1.85 0 0 0 1.849609,-1.849609 V 22.144867 a 1.85,1.85 0 0 0 -1.849609,-1.84961 z" fill="#008055"/>
</svg>
