<svg xmlns="http://www.w3.org/2000/svg" width="48" height="48">
	<path d="m 23.410225,1.3766853 c -4.59478,0.1407427 -9.11434,1.5059725 -12.77539,4.0117185 a 1.90019,1.90019 0 0 0 -0.02734,0.01758 C 5.6130216,8.9511208 2.9105054,13.504373 2.6387451,18.155984 2.3669847,22.807596 4.5206285,27.367509 8.4649172,30.923563 a 1.90019,1.90019 0 0 0 0.00195,0.002 c 3.9354288,3.537049 7.7780998,4.42441 9.9296868,4.960937 2.098632,0.533215 2.857884,1.520099 3.261719,2.955078 0.404322,1.436708 0.200462,3.426174 -0.472656,5.230469 a 1.90019,1.90019 0 0 0 2.644531,2.355469 c 3.32791,-1.701563 5.271819,-3.804647 6.972656,-5.896485 1.700838,-2.091838 3.211406,-4.172536 6.060547,-6.496093 a 1.9,1.9 0 0 0 0.271485,-2.673828 1.9,1.9 0 0 0 -2.671875,-0.271485 c -3.206559,2.615043 -4.998263,5.063435 -6.609375,7.044922 -0.760621,0.935478 -1.479531,1.753624 -2.306641,2.519531 0.0081,-0.951981 0.0321,-1.908798 -0.230469,-2.841797 -0.711728,-2.529042 -2.786233,-4.799191 -5.99414,-5.611328 a 1.90019,1.90019 0 0 0 -0.0059,-0.002 c -2.246297,-0.560144 -5.017862,-1.142674 -8.30664,-4.097656 l -0.002,-0.002 c -3.2684228,-2.94766 -4.7700045,-6.369961 -4.574133,-9.722612 0.1957094,-3.349879 2.0817122,-6.819144 6.361328,-9.8613282 6.773709,-4.626147 18.054932,-4.412504 24.509765,1.388672 3.2288,2.9120582 4.320101,6.1493962 4.279297,9.1875002 -0.04081,3.038797 -1.33035,5.883208 -2.943359,7.580078 a 1.9,1.9 0 0 0 0.06836,2.685547 1.9,1.9 0 0 0 2.685547,-0.06836 c 2.337691,-2.459229 3.934019,-6.106256 3.988282,-10.146484 0.05426,-4.04023 -1.551468,-8.470875 -5.535157,-12.0625002 a 1.90019,1.90019 0 0 0 -0.002,-0.002 C 35.849825,3.4865658 30.638723,1.6329608 25.380928,1.3923103 24.723704,1.362229 24.066622,1.3565792 23.410225,1.3766853 Z M 18.283272,11.488014 a 1.9,1.9 0 0 0 -1.328125,0.55664 1.9,1.9 0 0 0 0,2.6875 l 4.505859,4.503907 -4.505859,4.505859 a 1.9,1.9 0 0 0 0,2.6875 1.9,1.9 0 0 0 2.6875,0 l 4.505859,-4.505859 4.503907,4.505859 a 1.9,1.9 0 0 0 2.6875,0 1.9,1.9 0 0 0 0,-2.6875 l -4.503907,-4.505859 4.503907,-4.503907 a 1.9,1.9 0 0 0 0,-2.6875 1.9,1.9 0 0 0 -1.357422,-0.55664 1.9,1.9 0 0 0 -1.330078,0.55664 l -4.503907,4.503907 -4.505859,-4.503907 a 1.9,1.9 0 0 0 -1.359375,-0.55664 z" fill="#008055"/>
</svg>
