<svg xmlns="http://www.w3.org/2000/svg" width="48" height="48">
	<path d="m 23.410226,1.3766855 c -4.594779,0.1407475 -9.11434,1.505992 -12.775391,4.011719 a 1.90019,1.90019 0 0 0 -0.02734,0.01758 C 5.6130211,8.9511165 2.9105061,13.504373 2.6387451,18.155984 c -0.27176,4.65161 1.881884,9.211524 5.826172,12.767578 a 1.90019,1.90019 0 0 0 0.00195,0.002 c 3.9354439,3.537171 7.7782309,4.424345 9.9296879,4.960938 2.098642,0.533217 2.857886,1.520116 3.261719,2.955078 0.404319,1.43669 0.20047,3.426107 -0.472657,5.230469 a 1.90019,1.90019 0 0 0 2.644532,2.355468 c 3.327917,-1.701567 5.27182,-3.804622 6.972656,-5.896484 1.700836,-2.091863 3.211411,-4.17254 6.060547,-6.496094 A 1.9,1.9 0 0 0 37.134835,31.36106 1.9,1.9 0 0 0 34.46296,31.089576 c -3.206564,2.615046 -4.998261,5.063409 -6.609375,7.044922 -0.760621,0.935489 -1.479531,1.753615 -2.30664,2.519531 0.0081,-0.951982 0.0321,-1.908802 -0.230469,-2.841797 -0.711731,-2.529035 -2.786245,-4.799194 -5.994141,-5.611328 a 1.90019,1.90019 0 0 0 -0.0059,-0.002 c -2.246427,-0.560279 -5.017877,-1.142596 -8.306641,-4.097657 l -0.002,-0.002 C 7.7393731,25.151637 6.2377921,21.729334 6.4336631,18.376685 6.6292421,15.029051 8.5136352,11.56193 12.787179,8.5212165 c 6.772921,-4.631118 18.060488,-4.420346 24.517578,1.382813 3.228799,2.9120565 4.3201,6.1493955 4.279297,9.1874995 -0.04081,3.038797 -1.33035,5.883207 -2.943359,7.580078 a 1.9,1.9 0 0 0 0.06836,2.685547 1.9,1.9 0 0 0 2.685547,-0.06836 c 2.337691,-2.459229 3.934019,-6.106256 3.988281,-10.146484 0.05426,-4.040228 -1.551467,-8.470874 -5.535156,-12.0624995 a 1.90019,1.90019 0 0 0 -0.002,-0.002 C 35.849825,3.4865925 30.63872,1.6329591 25.380929,1.3923105 24.723705,1.3622294 24.066623,1.3565787 23.410226,1.3766855 Z m -7.5,15.2636715 a 2.6518643,2.65187 0 0 0 -2.595703,2.652344 2.6518643,2.65187 0 0 0 2.652343,2.652343 2.6518643,2.65187 0 0 0 2.652344,-2.652343 2.6518643,2.65187 0 0 0 -2.652344,-2.652344 2.6518643,2.65187 0 0 0 -0.05664,0 z m 15.982422,0.01172 a 2.6518643,2.65187 0 0 0 -2.652344,2.652343 2.6518643,2.65187 0 0 0 2.652344,2.652344 2.6518643,2.65187 0 0 0 2.652343,-2.652344 2.6518643,2.65187 0 0 0 -2.652343,-2.652343 z m -8.136719,0.0059 a 2.6518643,2.65187 0 0 0 -2.59375,2.650391 2.6518643,2.65187 0 0 0 2.652344,2.652343 2.6518643,2.65187 0 0 0 2.65039,-2.652343 2.6518643,2.65187 0 0 0 -2.65039,-2.650391 2.6518643,2.65187 0 0 0 -0.05859,0 z" fill="#008055"/>
</svg>
