<svg xmlns="http://www.w3.org/2000/svg" width="48" height="48">
	<path d="m 18.911978,4.8359375 c -1.644769,0 -3.213612,0.471598 -4.414062,1.488281 -1.20045,1.016683 -1.933594,2.602991 -1.933594,4.2890625 v 2.90625 c 0,2.951832 -2.445366,4.949733 -4.8007813,5.44336 a 2.0002,2.0002 0 0 0 -1.205078,3.136718 l 6.3906253,8.746094 a 2.0002,2.0002 0 0 0 3.230468,0 l 6.390625,-8.746094 a 2.0002,2.0002 0 0 0 -1.367187,-3.164062 c -1.003033,-0.1253 -2.082967,-1.080635 -2.423828,-1.503906 a 2,2 0 0 0 -2.8125,-0.302735 2,2 0 0 0 -0.302735,2.8125 c 0.430538,0.534627 1.193089,1.234195 2.173829,1.853516 l -3.273438,4.480469 -3.236328,-4.427735 c 2.880932,-1.531196 5.236328,-4.431137 5.236328,-8.328125 v -2.90625 c 0,-0.6456285 0.178481,-0.9474865 0.519531,-1.2363285 0.34105,-0.288841 0.945894,-0.541015 1.828125,-0.541015 h 17.121094 c 0.862876,0 1.225614,0.197466 1.408203,0.375 0.182589,0.177534 0.384766,0.501579 0.384766,1.4023425 v 26.753908 c 0,0.688738 -0.192739,1.087744 -0.435547,1.339843 -0.242808,0.252099 -0.594041,0.457032 -1.357422,0.457032 H 18.911978 a 2,2 0 0 0 -2,2 2,2 0 0 0 2,2 h 17.121094 c 1.640919,0 3.186064,-0.589164 4.238281,-1.681641 1.052217,-1.092478 1.554688,-2.590474 1.554688,-4.115234 V 10.613281 c 0,-1.6270355 -0.486017,-3.1925185 -1.595703,-4.2714845 -1.109687,-1.078966 -2.644842,-1.505859 -4.197266,-1.505859 z" fill="#008055"/>
</svg>
