<svg xmlns="http://www.w3.org/2000/svg" width="48" height="48">
	<path d="m 24,1.4136543 a 2,2 0 0 0 -2,2 v 4.1171875 a 2,2 0 0 0 2,2 2,2 0 0 0 2,-2 V 3.4136543 a 2,2 0 0 0 -2,-2 z M 9.0976562,7.597248 a 2,2 0 0 0 -1.4394531,0.5859378 2,2 0 0 0 0,2.8281252 l 2.9101559,2.910156 a 2,2 0 0 0 2.830078,0 2,2 0 0 0 0,-2.828125 L 10.486328,8.1831858 A 2,2 0 0 0 9.0976562,7.597248 Z m 29.8554688,0 a 2,2 0 0 0 -1.439453,0.5859378 l -2.910157,2.9101562 a 2,2 0 0 0 0,2.828125 2,2 0 0 0 2.828125,0 l 2.910157,-2.910156 a 2,2 0 0 0 0,-2.8281252 2,2 0 0 0 -1.388672,-0.5859378 z m -15.105469,3.103516 c -3.985111,0.04505 -7.816477,1.813258 -10.435547,4.933594 a 1.8999977,1.9000023 85.083622 0 0 0.234375,2.677734 1.8999977,1.9000023 85.083622 0 0 2.675781,-0.232422 c 2.341143,-2.789214 6.000455,-4.089559 9.576172,-3.400391 3.575718,0.68917 6.492128,3.255309 7.628907,6.714844 a 1.8999977,1.9000023 85.083622 0 0 2.396484,1.212891 1.8999977,1.9000023 85.083622 0 0 1.21289,-2.398438 c -1.565207,-4.763362 -5.5962,-8.310863 -10.519531,-9.259765 -0.923124,-0.177919 -1.84989,-0.258444 -2.769531,-0.248047 z m -1.576172,7.734375 c -4.643551,-0.03224 -7.987935,1.844709 -9.943359,4.330078 -1.539171,1.956307 -2.132845,4.110853 -2.3964844,6.087891 -1.3891349,0.237572 -2.9350952,0.650455 -4.5136719,1.570312 -2.177728,1.268991 -4.2732406,3.591764 -4.3632813,6.863281 -0.0805528,2.927006 0.8449191,5.391941 2.5898438,6.990235 1.7449247,1.598293 4.0986869,2.258001 6.5800778,2.308593 a 1.9,1.9 0 0 0 1.939453,-1.861328 1.9,1.9 0 0 0 -1.861328,-1.9375 C 8.4436155,42.748795 7.0729534,42.263944 6.2128906,41.476155 5.3528277,40.688364 4.7928153,39.524882 4.8515625,37.390217 4.9008315,35.600074 5.8620342,34.56321 7.3320312,33.706623 8.8020282,32.850037 10.754865,32.436373 11.664062,32.39217 a 1.90019,1.90019 0 0 0 1.808594,-1.863281 c 0.02836,-1.582061 0.551633,-3.774247 1.841797,-5.414063 1.290164,-1.639815 3.253909,-2.904426 6.929687,-2.878906 3.726666,0.02586 6.99001,2.138097 8.982422,5.324219 a 1.90019,1.90019 0 0 0 2.335938,0.748047 c 0.943513,-0.389226 1.741125,-0.493044 2.300781,-0.419922 0.559656,0.07312 0.901963,0.252136 1.261719,0.699219 0.714777,0.88828 0.732026,2.049845 -0.425782,3.666015 a 1.90019,1.90019 0 0 0 1.332032,2.994141 c 1.433339,0.160944 2.824562,0.689349 3.740234,1.40625 0.910701,0.713008 1.366246,1.480868 1.376953,2.576172 -0.01049,0.520118 -0.199976,1.399602 -0.908203,2.113281 -0.715292,0.720799 -2.055225,1.468836 -4.9375,1.441406 a 1.90019,1.90019 0 0 0 -0.01758,0 h -21.25 a 1.9,1.9 0 0 0 -1.90039,1.900391 1.9,1.9 0 0 0 1.90039,1.90039 h 21.232422 c 3.597835,0.03424 6.128161,-1.010824 7.669922,-2.564453 1.54176,-1.553629 1.99563,-3.416742 2.013672,-4.759765 a 1.90019,1.90019 0 0 0 0.002,-0.03516 c -0.01229,-2.326801 -1.222941,-4.298544 -2.839844,-5.564454 -0.941135,-0.736836 -2.028418,-1.229031 -3.162109,-1.599609 0.640836,-2.030076 0.47443,-4.190143 -0.867188,-5.857422 -0.945274,-1.174727 -2.316251,-1.901417 -3.728516,-2.085937 -0.942168,-0.1231 -1.890087,0.01996 -2.833984,0.261718 -2.654346,-3.482862 -6.625076,-5.913219 -11.25,-5.945312 z M 2.8886718,22.524983 a 2,2 0 0 0 -2,2 2,2 0 0 0 2,2 h 4.1171875 a 2,2 0 0 0 2,-2 2,2 0 0 0 -2,-2 z m 40.3710932,0 a 2,2 0 0 0 -2,2 2,2 0 0 0 2,2 h 1.851563 a 2,2 0 0 0 2,-2 2,2 0 0 0 -2,-2 z" fill="#008055"/>
</svg>
