<svg xmlns="http://www.w3.org/2000/svg" width="48" height="48">
	<path d="m 22.270002,1.6885209 c -4.643556,-0.03226 -7.987936,1.844701 -9.943359,4.330078 -1.53938,1.95658 -2.132938,4.1106531 -2.3964835,6.0878901 -1.3891013,0.237585 -2.9351645,0.648544 -4.5136722,1.56836 -2.1777255,1.268988 -4.2732402,3.591785 -4.3632813,6.863281 -0.0805527,2.927016 0.8449237,5.393971 2.5898437,6.992188 1.7449201,1.598217 4.0988118,2.257716 6.5800773,2.308593 a 1.90019,1.90019 0 0 0 0.03906,0 h 1.816406 a 1.9,1.9 0 0 0 1.900391,-1.90039 1.9,1.9 0 0 0 -1.900391,-1.900391 H 10.301252 C 8.44201,26.000007 7.0714766,25.515341 6.2114091,24.727583 c -0.8600675,-0.787758 -1.4181223,-1.9493 -1.359375,-4.083984 0.049269,-1.790104 1.0085162,-2.82896 2.4785156,-3.685547 1.4699997,-0.856587 3.4228483,-1.268301 4.3320303,-1.3125 a 1.90019,1.90019 0 0 0 1.808594,-1.863281 c 0.02836,-1.582049 0.551632,-3.77424 1.841797,-5.4140631 1.290165,-1.639822 3.253914,-2.906397 6.929688,-2.880859 3.726778,0.02603 6.990029,2.140106 8.982421,5.3261721 a 1.90019,1.90019 0 0 0 2.335938,0.748047 c 0.943506,-0.389207 1.741117,-0.493055 2.300781,-0.419922 0.559664,0.07313 0.901958,0.25018 1.261719,0.697265 0.714778,0.888276 0.732021,2.05183 -0.425781,3.667969 a 1.90019,1.90019 0 0 0 1.332031,2.994141 c 1.433345,0.160961 2.824558,0.68934 3.740234,1.40625 0.910706,0.713017 1.366245,1.480868 1.376954,2.576172 -0.01049,0.520077 -0.199972,1.399591 -0.908204,2.113281 -0.715296,0.72081 -2.055234,1.468849 -4.9375,1.441406 a 1.90019,1.90019 0 0 0 -0.01758,0 h -3.574218 a 1.9,1.9 0 0 0 -1.900391,1.900391 1.9,1.9 0 0 0 1.900391,1.90039 h 3.55664 c 3.597845,0.03426 6.128166,-1.012766 7.669922,-2.566406 1.541756,-1.55364 1.995629,-3.414807 2.013672,-4.757812 a 1.90019,1.90019 0 0 0 0.002,-0.03516 c -0.01229,-2.3268 -1.222945,-4.298537 -2.839844,-5.564453 -0.940632,-0.736447 -2.027136,-1.229036 -3.160156,-1.599609 0.640813,-2.030043 0.472462,-4.190172 -0.869141,-5.8574221 -0.945269,-1.174714 -2.316259,-1.901395 -3.728515,-2.085937 -0.942163,-0.123115 -1.890084,0.01998 -2.833985,0.261718 -2.654359,-3.482815 -6.625177,-5.913011 -11.25,-5.945312 z m 2.6875,12.8554681 a 1.9,1.9 0 0 0 -1.597656,0.949219 L 16.127424,28.00688 a 1.90019,1.90019 0 0 0 -0.002,0.002 c -0.663173,1.152956 -1.288126,2.284256 -0.763672,3.851563 0.262227,0.783653 1.014226,1.497349 1.763672,1.761719 0.749446,0.264368 1.457811,0.247107 2.203125,0.138671 a 1.90019,1.90019 0 0 0 0.02148,-0.002 l 6.671876,-1.050781 -6.875,10.673828 a 1.9,1.9 0 0 0 0.568359,2.626953 1.9,1.9 0 0 0 2.626953,-0.568359 l 7.1875,-11.158203 -0.01758,0.02344 c 0.368491,-0.552945 0.669722,-1.097894 0.871094,-1.707031 0.201371,-0.609137 0.353515,-1.345107 0.02539,-2.207031 -0.328124,-0.861925 -1.270213,-1.510953 -2.050781,-1.666016 -0.736922,-0.146392 -1.404496,-0.06425 -2.138672,0.105469 l -6.796875,1.068359 7.226563,-12.505859 a 1.9,1.9 0 0 0 -0.69336,-2.595703 1.9,1.9 0 0 0 -0.998047,-0.253907 z" fill="#008055"/>
</svg>
