<svg xmlns="http://www.w3.org/2000/svg" width="48" height="48">
	<path d="m 14.87227,7.7565806 c -2.709441,-0.01753 -4.730437,1.24553 -5.7324221,2.7949224 -0.432833,0.669292 -0.668851,1.346227 -0.820312,2.005859 -0.557493,0.137738 -1.045623,0.133413 -1.6562502,0.464844 -1.1714509,0.635831 -2.4670196,1.95632 -2.5214844,3.798828 -0.044088,1.492177 0.5124399,2.927418 1.5429687,3.806641 1.0305289,0.879223 2.3221809,1.184719 3.5996089,1.208984 A 1.8,1.8 0 0 0 11.118364,20.071034 1.8,1.8 0 0 0 9.3527389,18.23705 c -0.728281,-0.01383 -1.156867,-0.199877 -1.330078,-0.347656 -0.173211,-0.14778 -0.303485,-0.276458 -0.283203,-0.962891 0.00994,-0.336102 0.126505,-0.461185 0.640625,-0.740234 0.514119,-0.27905 1.349843,-0.446525 1.6250001,-0.458985 a 1.80018,1.80018 0 0 0 1.71875,-1.763672 c 0.0077,-0.399486 0.142045,-1.000167 0.4375,-1.457031 0.402495,-0.622388 0.96304,-1.161545 2.6875,-1.150391 1.245809,0.0081 3.729063,1.215707 4.767578,2.636719 a 1.8,1.8 0 0 0 2.515625,0.390625 1.8,1.8 0 0 0 0.390625,-2.515625 C 20.686056,9.3548616 17.728481,7.7751026 14.87227,7.7565806 Z m 7.855469,8.3515634 c -3.990663,-0.02741 -6.917201,1.58195 -8.623047,3.726562 -1.282754,1.612695 -1.796748,3.369863 -2.050781,5.011719 -1.153234,0.215818 -2.4069521,0.565703 -3.6992191,1.310547 -1.8928168,1.090992 -3.7582456,3.135653 -3.8378906,5.998047 -0.069948,2.514104 0.7471354,4.687151 2.2910156,6.085937 1.54388,1.398787 3.6020631,1.958797 5.7421881,2.001953 a 1.9,1.9 0 0 0 1.9375,-1.861328 1.9,1.9 0 0 0 -1.861329,-1.9375 c -1.524596,-0.03074 -2.61205,-0.42561 -3.2675781,-1.019531 -0.655527,-0.593921 -1.092584,-1.450977 -1.044922,-3.164063 0.037975,-1.364796 0.752473,-2.126387 1.9394531,-2.810547 1.186982,-0.684158 2.813538,-1.024079 3.53125,-1.058593 a 1.90019,1.90019 0 0 0 1.806641,-1.863281 c 0.02282,-1.258578 0.451909,-3.025687 1.486328,-4.326172 1.03442,-1.300486 2.58965,-2.313802 5.623047,-2.292969 3.043322,0.02087 5.708044,1.725505 7.339844,4.306641 a 1.90019,1.90019 0 0 0 2.324219,0.74414 c 0.762676,-0.311209 1.390232,-0.387042 1.800781,-0.333984 0.410549,0.05306 0.621397,0.164378 0.876953,0.478515 0.506331,0.622409 0.552255,1.395771 -0.369141,2.667969 a 1.90019,1.90019 0 0 0 1.328125,3.001953 c 1.16641,0.129547 2.29566,0.559191 3.013672,1.115235 0.710021,0.549854 1.027742,1.090339 1.039063,1.890625 -0.0068,0.361812 -0.136754,1.013484 -0.669922,1.544921 -0.537311,0.535568 -1.581188,1.141564 -3.962891,1.119141 a 1.90019,1.90019 0 0 0 -0.01953,0 H 18.387895 a 1.9,1.9 0 0 0 -1.90039,1.900391 1.9,1.9 0 0 0 1.90039,1.898437 h 16.996094 c 3.089497,0.02909 5.313306,-0.862669 6.68164,-2.226562 1.368336,-1.363893 1.77871,-3.003111 1.794922,-4.197266 a 1.90019,1.90019 0 0 0 0,-0.03516 c -0.01095,-2.050631 -1.099273,-3.798561 -2.519531,-4.898438 -0.756206,-0.585621 -1.607945,-1.007876 -2.5,-1.322265 0.441953,-1.692427 0.27599,-3.471375 -0.851562,-4.857422 -0.846295,-1.040293 -2.081582,-1.685549 -3.335938,-1.847656 -0.779688,-0.100764 -1.55583,-0.0019 -2.326172,0.175781 -2.29459,-2.889794 -5.67306,-4.898853 -9.599609,-4.925781 z" fill="#008055"/>
</svg>
