<svg xmlns="http://www.w3.org/2000/svg" width="48" height="48">
	<path d="m 22.269531,2.0566409 c -4.643551,-0.03224 -7.987936,1.8447086 -9.943359,4.3300781 -1.539171,1.956307 -2.132845,4.110853 -2.396485,6.087891 -1.389135,0.237572 -2.935095,0.650455 -4.513672,1.570312 -2.177728,1.268991 -4.2732402,3.591764 -4.3632809,6.863281 -0.0805528,2.927006 0.844919,5.391941 2.5898439,6.990235 1.744925,1.598293 4.098687,2.258 6.580078,2.308593 a 1.9,1.9 0 0 0 1.939453,-1.861328 1.9,1.9 0 0 0 -1.861328,-1.9375 C 8.441662,26.370297 7.071,25.885446 6.210937,25.097657 5.350874,24.309867 4.792815,23.146384 4.851562,21.011719 c 0.04927,-1.790143 1.008519,-2.827007 2.478516,-3.683594 1.469997,-0.856586 3.422834,-1.27025 4.332031,-1.314453 a 1.90019,1.90019 0 0 0 1.808594,-1.863281 c 0.02836,-1.582061 0.551633,-3.774247 1.841797,-5.4140626 1.290164,-1.6398156 3.253909,-2.9044267 6.929687,-2.8789063 3.726666,0.02586 6.99001,2.1380965 8.982422,5.3242189 a 1.90019,1.90019 0 0 0 2.335938,0.748047 c 0.943513,-0.389226 1.741125,-0.493044 2.300781,-0.419922 0.559656,0.07312 0.901962,0.252136 1.261719,0.699219 0.714776,0.88828 0.732026,2.049846 -0.425782,3.666015 a 1.90019,1.90019 0 0 0 1.332032,2.994141 c 1.433339,0.160944 2.824562,0.689349 3.740234,1.40625 0.910701,0.713008 1.366246,1.480868 1.376953,2.576172 -0.01049,0.520118 -0.199976,1.399602 -0.908203,2.113281 -0.715292,0.720799 -2.053272,1.468836 -4.935547,1.441406 a 1.90019,1.90019 0 0 0 -0.01953,0 h -21.25 a 1.9,1.9 0 0 0 -1.900391,1.900391 1.9,1.9 0 0 0 1.900391,1.90039 h 21.232422 c 3.597835,0.03424 6.128161,-1.010824 7.669922,-2.564453 1.54176,-1.553629 1.997583,-3.416742 2.015625,-4.759765 a 1.90019,1.90019 0 0 0 0,-0.03516 C 46.938886,20.520856 45.72823,18.549113 44.111328,17.283203 43.170693,16.546759 42.084195,16.054159 40.951172,15.683594 41.591983,13.653537 41.425587,11.493433 40.083984,9.8261721 39.13871,8.6514448 37.765779,7.9247549 36.353515,7.7402346 35.411347,7.617135 34.463428,7.7601934 33.519531,8.0019534 30.865185,4.5190908 26.894455,2.0887342 22.269531,2.0566409 Z M 10.677734,31.642578 A 1.699995,1.699995 0 0 0 9.164062,32.625 l -1.21875,2.613281 a 1.699995,1.699995 0 0 0 0.822266,2.257813 1.699995,1.699995 0 0 0 2.257812,-0.822266 l 1.21875,-2.613281 a 1.699995,1.699995 0 0 0 -0.822265,-2.257812 1.699995,1.699995 0 0 0 -0.744141,-0.160157 z m 26.728516,0 A 1.699995,1.699995 0 0 0 35.890625,32.625 l -1.21875,2.613281 a 1.699995,1.699995 0 0 0 0.822265,2.257813 1.699995,1.699995 0 0 0 2.259766,-0.822266 l 1.21875,-2.613281 A 1.699995,1.699995 0 0 0 38.15039,31.802735 1.699995,1.699995 0 0 0 37.40625,31.642578 Z m -14.039063,1.703125 a 1.2,1.2 0 0 0 -1.042968,0.714844 l -1.28125,2.908203 -1.876954,-2.5625 a 1.2,1.2 0 0 0 -0.947265,-0.490234 1.2,1.2 0 0 0 -0.730469,0.232422 1.2,1.2 0 0 0 -0.257812,1.675781 l 1.878906,2.5625 -3.160156,0.345703 a 1.2,1.2 0 0 0 -1.0625,1.322266 1.2,1.2 0 0 0 1.324218,1.0625 l 3.158203,-0.345703 -1.28125,2.908203 a 1.2,1.2 0 0 0 0.615235,1.582031 1.2,1.2 0 0 0 1.582031,-0.613281 l 1.28125,-2.908203 1.876953,2.5625 a 1.2,1.2 0 0 0 1.677734,0.257812 1.2,1.2 0 0 0 0.257813,-1.677734 l -1.876953,-2.5625 3.15625,-0.34375 a 1.2,1.2 0 0 0 1.0625,-1.324219 1.2,1.2 0 0 0 -1.1875,-1.068359 1.2,1.2 0 0 0 -0.134766,0.0059 l -3.158203,0.345703 1.279297,-2.908203 A 1.2,1.2 0 0 0 23.90625,33.445313 1.2,1.2 0 0 0 23.367187,33.345703 Z M 6.8125,39.931641 A 1.699995,1.699995 0 0 0 5.298828,40.91211 l -1.21875,2.613281 a 1.699995,1.699995 0 0 0 0.822265,2.259766 1.699995,1.699995 0 0 0 2.257813,-0.822266 L 8.378906,42.34961 A 1.699995,1.699995 0 0 0 7.55664,40.089844 1.699995,1.699995 0 0 0 6.8125,39.931641 Z m 26.728515,0 A 1.7,1.7 0 0 0 32.02539,40.91211 l -1.21875,2.613281 a 1.7,1.7 0 0 0 0.822266,2.259766 1.7,1.7 0 0 0 2.259766,-0.822266 l 1.21875,-2.613281 a 1.7,1.7 0 0 0 -0.822266,-2.259766 1.7,1.7 0 0 0 -0.744141,-0.158203 z" fill="#008055"/>
</svg>
