<svg xmlns="http://www.w3.org/2000/svg" width="48" height="48">
	<path d="M 22.267577,2.056641 C 17.624026,2.024402 14.279642,3.90135 12.324218,6.3867194 10.785364,8.3426236 10.193467,10.497878 9.929687,12.47461 8.540364,12.71212 6.99297,13.124872 5.414062,14.044922 c -2.177728,1.268991 -4.273241,3.591764 -4.363281,6.863282 -0.080553,2.927005 0.846873,5.393894 2.591796,6.992187 1.744926,1.598294 4.098687,2.256047 6.580079,2.306641 a 1.9,1.9 0 0 0 1.9375,-1.861328 1.9,1.9 0 0 0 -1.861329,-1.9375 C 8.439709,26.370298 7.069047,25.885446 6.208984,25.097657 5.348921,24.309868 4.790862,23.146384 4.849609,21.011719 c 0.049269,-1.790142 1.008518,-2.827007 2.478515,-3.683593 1.469997,-0.856587 3.424787,-1.268297 4.333985,-1.3125 a 1.90019,1.90019 0 0 0 1.80664,-1.863282 c 0.02836,-1.58206 0.551633,-3.7762 1.841797,-5.4160152 1.290164,-1.6398156 3.255862,-2.9044267 6.931641,-2.8789063 3.726666,0.02586 6.99001,2.1380964 8.982422,5.3242185 a 1.90019,1.90019 0 0 0 2.333984,0.75 c 0.943513,-0.389225 1.743078,-0.494997 2.302734,-0.421875 0.559658,0.07312 0.90001,0.252136 1.259766,0.699219 0.714777,0.88828 0.732026,2.051799 -0.425781,3.667969 a 1.90019,1.90019 0 0 0 1.332031,2.99414 c 1.433339,0.160944 2.824562,0.687397 3.740234,1.404297 0.910701,0.713008 1.366246,1.482821 1.376954,2.578125 -0.01049,0.520118 -0.198024,1.39765 -0.90625,2.111328 -0.715293,0.720799 -2.055226,1.47079 -4.9375,1.44336 a 1.90019,1.90019 0 0 0 -0.01758,0 h -21.25 a 1.9,1.9 0 0 0 -1.900391,1.898437 1.9,1.9 0 0 0 1.900391,1.900391 h 21.230468 c 3.597835,0.03424 6.130115,-1.010824 7.671875,-2.564453 1.541761,-1.553629 1.99563,-3.41479 2.013672,-4.757813 a 1.90019,1.90019 0 0 0 0,-0.03516 c -0.01229,-2.326801 -1.222941,-4.300497 -2.839844,-5.566406 -0.940697,-0.736493 -2.027049,-1.22709 -3.160156,-1.597657 0.640957,-2.030166 0.474499,-4.19201 -0.867187,-5.8593745 C 39.136757,8.6514451 37.765779,7.9267084 36.353515,7.7421881 35.411488,7.619107 34.463288,7.7622301 33.519531,8.0039069 30.865204,4.520242 26.893152,2.088739 22.267577,2.056641 Z m -7.253906,29.63086 a 3.4464149,3.4464149 0 0 0 -3.447265,3.447265 3.4464149,3.4464149 0 0 0 3.447265,3.447266 3.4464149,3.4464149 0 0 0 3.445313,-3.447266 3.4464149,3.4464149 0 0 0 -3.445313,-3.447265 z m 15.6875,0 a 3.4464149,3.4464149 0 0 0 -3.445312,3.447265 3.4464149,3.4464149 0 0 0 3.445312,3.447266 3.4464149,3.4464149 0 0 0 3.447266,-3.447266 3.4464149,3.4464149 0 0 0 -3.447266,-3.447265 z M 10.65039,39.052735 a 3.4464149,3.4464149 0 0 0 -3.445313,3.447266 3.4464149,3.4464149 0 0 0 3.445313,3.445312 3.4464149,3.4464149 0 0 0 3.447266,-3.445312 3.4464149,3.4464149 0 0 0 -3.447266,-3.447266 z m 15.689453,0 a 3.4464149,3.4464149 0 0 0 -3.447266,3.447266 3.4464149,3.4464149 0 0 0 3.447266,3.445312 3.4464149,3.4464149 0 0 0 3.447266,-3.445312 3.4464149,3.4464149 0 0 0 -3.447266,-3.447266 z" fill="#008055"/>
</svg>
