<svg xmlns="http://www.w3.org/2000/svg" width="48" height="48">
	<path d="m 22.267578,2.0566413 c -4.643551,-0.03224 -7.985983,1.8447086 -9.941407,4.3300781 -1.539137,1.9562638 -2.132829,4.1108856 -2.396484,6.0878906 -1.3893228,0.23751 -2.9347641,0.650262 -4.5136718,1.570313 -2.177728,1.26899 -4.2751938,3.591764 -4.3652344,6.863281 -0.0805528,2.927005 0.8468722,5.391941 2.5917969,6.990234 1.7449246,1.598294 4.0986869,2.258 6.5800783,2.308594 a 1.9,1.9 0 0 0 1.9375,-1.861328 1.9,1.9 0 0 0 -1.859375,-1.939453 C 8.441662,26.368345 7.0690468,25.885446 6.2089839,25.097657 5.3489211,24.309868 4.7908618,23.146384 4.8496089,21.01172 c 0.049269,-1.790144 1.0085186,-2.827008 2.4785157,-3.683594 1.469997,-0.856587 3.4247874,-1.27025 4.3339844,-1.314453 a 1.90019,1.90019 0 0 0 1.806641,-1.863282 c 0.02836,-1.58206 0.553586,-3.774247 1.84375,-5.4140622 1.290164,-1.6398156 3.253909,-2.9044267 6.929687,-2.8789063 3.726666,0.02586 6.99001,2.1380965 8.982422,5.3242185 a 1.90019,1.90019 0 0 0 2.335938,0.748047 c 0.943513,-0.389225 1.741125,-0.493044 2.300781,-0.419922 0.559656,0.07312 0.900009,0.252136 1.259765,0.699219 0.714777,0.88828 0.732027,2.049846 -0.425781,3.666016 a 1.90019,1.90019 0 0 0 1.333985,2.99414 c 1.433339,0.160944 2.822608,0.68935 3.738281,1.40625 0.910701,0.713009 1.368199,1.480868 1.378906,2.576172 -0.01049,0.520117 -0.199974,1.3996 -0.908203,2.113281 -0.715292,0.720799 -2.055225,1.468837 -4.9375,1.441407 a 1.90019,1.90019 0 0 0 -0.01758,0 h -21.25 a 1.9,1.9 0 0 0 -1.900391,1.90039 1.9,1.9 0 0 0 1.900391,1.900391 h 21.232422 c 3.597835,0.03424 6.128161,-1.012777 7.669922,-2.566406 1.54176,-1.553629 1.995629,-3.41479 2.013672,-4.757813 a 1.90019,1.90019 0 0 0 0,-0.03516 c -0.01229,-2.326801 -1.220989,-4.298544 -2.837891,-5.564453 -0.941136,-0.736836 -2.028419,-1.229031 -3.162109,-1.59961 0.640836,-2.030075 0.47443,-4.190143 -0.867188,-5.8574215 C 39.136757,8.6514452 37.765779,7.9247553 36.353515,7.740235 35.411347,7.6171354 34.463428,7.7601938 33.519531,8.0019538 30.865197,4.5185604 26.892932,2.0887375 22.267578,2.0566413 Z m 9.580078,30.7734377 a 1.2,1.2 0 0 0 -1.042969,0.716797 l -1.279297,2.908203 -1.878906,-2.564453 a 1.2,1.2 0 0 0 -0.947265,-0.490235 1.2,1.2 0 0 0 -0.730469,0.232422 1.2,1.2 0 0 0 -0.257813,1.677735 l 1.878906,2.5625 -3.158203,0.345703 a 1.2,1.2 0 0 0 -1.0625,1.322265 1.2,1.2 0 0 0 1.322266,1.0625 l 3.158203,-0.345703 -1.279297,2.908203 a 1.2,1.2 0 0 0 0.613281,1.582032 1.2,1.2 0 0 0 1.582032,-0.615235 l 1.28125,-2.908203 1.876953,2.5625 a 1.2,1.2 0 0 0 1.677734,0.259766 1.2,1.2 0 0 0 0.257813,-1.677735 l -1.878906,-2.5625 3.160156,-0.345703 a 1.2,1.2 0 0 0 1.0625,-1.322265 1.2,1.2 0 0 0 -1.189453,-1.070313 1.2,1.2 0 0 0 -0.134766,0.0078 l -3.158203,0.345703 1.28125,-2.908203 a 1.2,1.2 0 0 0 -0.615234,-1.582032 1.2,1.2 0 0 0 -0.447266,-0.101562 1.2,1.2 0 0 0 -0.0918,0 z m -14.705078,0.02344 a 1.2,1.2 0 0 0 -1.044922,0.716797 l -1.279297,2.908203 -1.878906,-2.5625 a 1.2,1.2 0 0 0 -0.947266,-0.490234 1.2,1.2 0 0 0 -0.728516,0.230469 1.2,1.2 0 0 0 -0.259765,1.677734 l 1.878906,2.5625 -3.1582031,0.345703 a 1.2,1.2 0 0 0 -1.0625,1.322266 1.2,1.2 0 0 0 1.3222657,1.0625 l 3.1582034,-0.345703 -1.279297,2.908203 a 1.2,1.2 0 0 0 0.615234,1.582031 1.2,1.2 0 0 0 1.582032,-0.615234 l 1.279296,-2.908203 1.878907,2.564453 a 1.2,1.2 0 0 0 1.675781,0.257812 1.2,1.2 0 0 0 0.259766,-1.677734 l -1.878907,-2.5625 3.158203,-0.34375 a 1.2,1.2 0 0 0 1.0625,-1.324219 1.2,1.2 0 0 0 -1.189453,-1.070312 1.2,1.2 0 0 0 -0.132812,0.0078 l -3.158203,0.345703 1.279297,-2.908203 a 1.2,1.2 0 0 0 -0.615235,-1.582031 1.2,1.2 0 0 0 -0.445312,-0.101563 1.2,1.2 0 0 0 -0.0918,0 z" fill="#008055"/>
</svg>
