<svg xmlns="http://www.w3.org/2000/svg" width="48" height="48">
	<path d="M 22.269531 2.0566406 C 17.62598 2.0244011 14.283549 3.9013492 12.328125 6.3867188 C 10.788778 8.3432492 10.195203 10.497402 9.9316406 12.474609 C 8.5423558 12.712132 6.9968094 13.122957 5.4179688 14.042969 C 3.2402407 15.31196 1.142775 17.634733 1.0527344 20.90625 C 0.97218152 23.833255 1.8996067 26.300144 3.6445312 27.898438 C 5.3894559 29.496731 7.7432185 30.154484 10.224609 30.205078 A 1.9 1.9 0 0 0 12.162109 28.345703 A 1.9 1.9 0 0 0 10.302734 26.40625 C 8.4436159 26.368344 7.0710004 25.883492 6.2109375 25.095703 C 5.3508746 24.307914 4.7928153 23.146383 4.8515625 21.011719 C 4.9008319 19.221576 5.8600811 18.182759 7.3300781 17.326172 C 8.8000752 16.469585 10.754866 16.057875 11.664062 16.013672 A 1.90019 1.90019 0 0 0 13.470703 14.150391 C 13.499063 12.56833 14.024289 10.376144 15.314453 8.7363281 C 16.604617 7.0965125 18.568362 5.8299483 22.244141 5.8554688 C 25.970806 5.8813288 29.23415 7.9955176 31.226562 11.181641 A 1.90019 1.90019 0 0 0 33.5625 11.929688 C 34.506013 11.540461 35.303625 11.434691 35.863281 11.507812 C 36.422937 11.580936 36.763291 11.759948 37.123047 12.207031 C 37.837824 13.095311 37.855073 14.25883 36.697266 15.875 A 1.90019 1.90019 0 0 0 38.03125 18.869141 C 39.464589 19.030084 40.853859 19.55849 41.769531 20.275391 C 42.680232 20.988399 43.137729 21.756259 43.148438 22.851562 C 43.137951 23.371681 42.948464 24.251163 42.240234 24.964844 C 41.524942 25.685642 40.185009 26.43368 37.302734 26.40625 A 1.90019 1.90019 0 0 0 37.285156 26.40625 L 16.035156 26.40625 A 1.9 1.9 0 0 0 14.134766 28.306641 A 1.9 1.9 0 0 0 16.035156 30.205078 L 37.267578 30.205078 C 40.865413 30.239318 43.39574 29.194254 44.9375 27.640625 C 46.47926 26.086996 46.93313 24.225835 46.951172 22.882812 A 1.90019 1.90019 0 0 0 46.951172 22.847656 C 46.938886 20.520855 45.730184 18.549113 44.113281 17.283203 C 43.172146 16.546367 42.084863 16.054172 40.951172 15.683594 C 41.592009 13.653518 41.425602 11.493451 40.083984 9.8261719 C 39.138711 8.6514444 37.767733 7.9247547 36.355469 7.7402344 C 35.412642 7.6170487 34.464078 7.7598052 33.519531 8.0019531 C 30.865185 4.5190903 26.894456 2.0887339 22.269531 2.0566406 z M 10.679688 31.642578 A 1.7 1.7 0 0 0 9.1640625 32.623047 L 4.0800781 43.525391 A 1.7 1.7 0 0 0 4.9023438 45.785156 A 1.7 1.7 0 0 0 7.1621094 44.962891 L 12.246094 34.060547 A 1.7 1.7 0 0 0 11.423828 31.800781 A 1.7 1.7 0 0 0 10.679688 31.642578 z M 17.361328 31.642578 A 1.7 1.7 0 0 0 15.845703 32.623047 L 10.761719 43.525391 A 1.7 1.7 0 0 0 11.583984 45.785156 A 1.7 1.7 0 0 0 13.84375 44.962891 L 18.927734 34.060547 A 1.7 1.7 0 0 0 18.105469 31.800781 A 1.7 1.7 0 0 0 17.361328 31.642578 z M 24.042969 31.642578 A 1.7 1.7 0 0 0 22.527344 32.623047 L 17.445312 43.525391 A 1.7 1.7 0 0 0 18.267578 45.785156 A 1.7 1.7 0 0 0 20.525391 44.962891 L 25.609375 34.060547 A 1.7 1.7 0 0 0 24.787109 31.800781 A 1.7 1.7 0 0 0 24.042969 31.642578 z M 30.724609 31.642578 A 1.7 1.7 0 0 0 29.210938 32.623047 L 24.126953 43.525391 A 1.7 1.7 0 0 0 24.949219 45.785156 A 1.7 1.7 0 0 0 27.207031 44.962891 L 32.291016 34.060547 A 1.7 1.7 0 0 0 31.46875 31.800781 A 1.7 1.7 0 0 0 30.724609 31.642578 z M 37.40625 31.642578 A 1.7 1.7 0 0 0 35.892578 32.623047 L 30.808594 43.525391 A 1.7 1.7 0 0 0 31.630859 45.785156 A 1.7 1.7 0 0 0 33.890625 44.962891 L 38.972656 34.060547 A 1.7 1.7 0 0 0 38.150391 31.800781 A 1.7 1.7 0 0 0 37.40625 31.642578 z " fill="#008055"/>
</svg>
