<svg xmlns="http://www.w3.org/2000/svg" width="48" height="48">
	<path d="m 22.269531,2.0566406 c -4.643552,-0.032239 -7.987936,1.8447087 -9.94336,4.3300782 -1.539347,1.9565305 -2.130969,4.1106832 -2.3945309,6.0878902 -1.3895144,0.237447 -2.9363798,0.648113 -4.515625,1.568359 -2.177728,1.268991 -4.2732406,3.591764 -4.3632812,6.863282 -0.0805529,2.927005 0.8468721,5.393894 2.5917969,6.992187 1.7449246,1.598293 4.0986869,2.256047 6.5800782,2.306641 a 1.9,1.9 0 0 0 1.9375,-1.859375 1.9,1.9 0 0 0 -1.861328,-1.939453 C 8.4416618,26.368343 7.0709998,25.883492 6.210937,25.095703 5.3508742,24.307914 4.7928148,23.146383 4.851562,21.011718 c 0.049269,-1.790142 1.0085186,-2.828959 2.4785156,-3.685547 1.469997,-0.856586 3.4228344,-1.268295 4.3320314,-1.3125 a 1.90019,1.90019 0 0 0 1.808594,-1.863281 c 0.02836,-1.58206 0.551632,-3.774246 1.841797,-5.4140618 1.290162,-1.6398156 3.253908,-2.9063799 6.929687,-2.8808594 3.726666,0.02586 6.99001,2.1400495 8.982422,5.3261722 a 1.90019,1.90019 0 0 0 2.335937,0.748046 c 0.943513,-0.389225 1.741126,-0.494997 2.300782,-0.421875 0.559656,0.07312 0.901962,0.252137 1.261718,0.699219 0.714777,0.88828 0.732027,2.051799 -0.425781,3.667969 a 1.90019,1.90019 0 0 0 1.332031,2.99414 c 1.43334,0.160944 2.824562,0.68935 3.740235,1.40625 0.910701,0.713009 1.366245,1.480868 1.376953,2.576172 -0.01049,0.520118 -0.198023,1.399603 -0.90625,2.113281 -0.715292,0.720799 -2.055225,1.468837 -4.9375,1.441407 a 1.90019,1.90019 0 0 0 -0.01953,0 h -21.25 a 1.9,1.9 0 0 0 -1.898438,1.90039 1.9,1.9 0 0 0 1.898438,1.900391 h 21.25 l -0.01758,-0.002 c 3.597837,0.03424 6.130114,-1.010824 7.671876,-2.564453 1.54176,-1.553629 1.995629,-3.41479 2.013671,-4.757813 a 1.90019,1.90019 0 0 0 0,-0.03516 c -0.01229,-2.326801 -1.222941,-4.298544 -2.839843,-5.564453 -0.940635,-0.736444 -2.027133,-1.229045 -3.160157,-1.59961 0.640812,-2.030056 0.474416,-4.19016 -0.867187,-5.8574211 C 39.13871,8.6514445 37.765779,7.9247547 36.353515,7.7402344 35.411288,7.6171271 34.463486,7.7601583 33.519531,8.0019532 30.865185,4.5190906 26.894455,2.0887339 22.269531,2.0566406 Z M 10.677734,31.642578 a 1.699995,1.699995 0 0 0 -1.513672,0.980469 l -1.21875,2.613281 a 1.699995,1.699995 0 0 0 0.8222656,2.259765 1.699995,1.699995 0 0 0 2.2578124,-0.822265 l 1.21875,-2.613281 a 1.699995,1.699995 0 0 0 -0.822266,-2.259766 1.699995,1.699995 0 0 0 -0.74414,-0.158203 z m 13.365234,0 a 1.699995,1.699995 0 0 0 -1.515625,0.980469 l -1.21875,2.613281 a 1.699995,1.699995 0 0 0 0.822266,2.259765 1.699995,1.699995 0 0 0 2.259765,-0.822265 l 1.21875,-2.613281 a 1.699995,1.699995 0 0 0 -0.822265,-2.259766 1.699995,1.699995 0 0 0 -0.744141,-0.158203 z m 13.363282,0 a 1.699995,1.699995 0 0 0 -1.515626,0.980469 l -1.21875,2.613281 a 1.699995,1.699995 0 0 0 0.822266,2.259765 1.699995,1.699995 0 0 0 2.259766,-0.822265 l 1.21875,-2.613281 A 1.699995,1.699995 0 0 0 38.15039,31.800781 1.699995,1.699995 0 0 0 37.40625,31.642578 Z M 6.8124995,39.93164 a 1.699995,1.699995 0 0 0 -1.5136719,0.980469 l -1.21875,2.613281 a 1.699995,1.699995 0 0 0 0.8222656,2.259766 1.699995,1.699995 0 0 0 2.2578126,-0.822266 l 1.21875,-2.613281 A 1.699995,1.699995 0 0 0 7.5566401,40.089843 1.699995,1.699995 0 0 0 6.8124995,39.93164 Z m 13.3652345,0 a 1.699995,1.699995 0 0 0 -1.515625,0.980469 l -1.21875,2.613281 a 1.699995,1.699995 0 0 0 0.822265,2.259766 1.699995,1.699995 0 0 0 2.259766,-0.822266 l 1.21875,-2.613281 a 1.699995,1.699995 0 0 0 -0.822266,-2.259766 1.699995,1.699995 0 0 0 -0.74414,-0.158203 z m 13.363281,0 a 1.699995,1.699995 0 0 0 -1.515625,0.980469 l -1.21875,2.613281 a 1.699995,1.699995 0 0 0 0.822266,2.259766 1.699995,1.699995 0 0 0 2.259765,-0.822266 l 1.21875,-2.613281 A 1.699995,1.699995 0 0 0 34.285156,40.089843 1.699995,1.699995 0 0 0 33.541015,39.93164 Z" fill="#008055"/>
</svg>
