<svg xmlns="http://www.w3.org/2000/svg" width="48" height="48">
	<path d="m 22.267578,2.0585943 c -4.643551,-0.03224 -7.987936,1.8447086 -9.94336,4.3300781 -1.539346,1.9565305 -2.130969,4.1106836 -2.394531,6.0878906 -1.389514,0.237447 -2.93638,0.648112 -4.515625,1.568359 -2.1777275,1.268991 -4.2732404,3.591764 -4.363281,6.863281 -0.0805528,2.927006 0.8468722,5.393894 2.5917969,6.992188 1.7449251,1.598293 4.0986871,2.257999 6.5800781,2.308594 a 1.9,1.9 0 0 0 1.9375,-1.861329 1.9,1.9 0 0 0 -1.861328,-1.939453 C 8.439709,26.370297 7.069047,25.887399 6.208984,25.099609 5.348921,24.31182 4.790862,23.148337 4.849609,21.013672 c 0.049269,-1.790143 1.008519,-2.82896 2.478516,-3.685547 1.469997,-0.856587 3.422834,-1.268297 4.332031,-1.3125 a 1.90019,1.90019 0 0 0 1.808594,-1.863281 c 0.02836,-1.582061 0.551633,-3.774247 1.841797,-5.4140622 1.290164,-1.6398156 3.253908,-2.9063798 6.929687,-2.8808594 3.726666,0.02586 6.99001,2.1400496 8.982422,5.3261716 a 1.90019,1.90019 0 0 0 2.335938,0.748047 c 0.943511,-0.389225 1.741125,-0.494997 2.300781,-0.421875 0.559656,0.07312 0.901961,0.252135 1.261719,0.699219 0.714776,0.888279 0.732026,2.051798 -0.425782,3.667968 a 1.90019,1.90019 0 0 0 1.332032,2.994141 c 1.433339,0.160944 2.824561,0.689349 3.740234,1.40625 0.910701,0.713008 1.366245,1.480868 1.376953,2.576172 -0.01049,0.520118 -0.198023,1.399602 -0.90625,2.113281 -0.715292,0.720799 -2.055225,1.468836 -4.9375,1.441406 a 1.9,1.9 0 0 0 -1.917969,1.882813 1.9,1.9 0 0 0 1.88086,1.917969 c 3.597835,0.03424 6.130114,-1.012778 7.671875,-2.566407 1.54176,-1.553629 1.995629,-3.414789 2.013671,-4.757812 a 1.90019,1.90019 0 0 0 0,-0.03516 c -0.01228,-2.3268 -1.222941,-4.298543 -2.839843,-5.564453 C 43.16874,16.548712 42.082242,16.056112 40.949218,15.685547 41.59003,13.65549 41.423634,11.495386 40.082031,9.8281255 39.136757,8.6533982 37.763826,7.9267083 36.351562,7.742188 35.409595,7.6191146 34.463231,7.7622646 33.519531,8.0039068 30.865197,4.5205134 26.892932,2.0906905 22.267578,2.0585943 Z m 7.373047,15.6738277 c -3.503732,-0.04595 -7.805942,1.091437 -11.753907,3.773437 a 1.7,1.7 0 0 0 -0.451171,2.361329 1.7,1.7 0 0 0 2.361328,0.451171 c 3.353865,-2.278408 7.09551,-3.221024 9.800781,-3.185546 1.352635,0.01774 2.432322,0.297617 3.005859,0.615234 0.556818,0.308358 0.574698,0.42535 0.574219,0.660156 -0.0077,0.09598 -0.197708,0.518152 -1.287109,1.076172 -1.103853,0.565423 -2.835485,1.083266 -4.769531,1.435547 -3.868096,0.704563 -8.625702,0.775766 -11.283204,0.289063 a 1.7,1.7 0 0 0 -1.978515,1.367187 1.7,1.7 0 0 0 1.365234,1.978516 c 3.360188,0.615396 8.225807,0.488584 12.505859,-0.291016 2.140027,-0.3898 4.113546,-0.93568 5.710938,-1.753906 1.597392,-0.818227 3.096758,-2.083861 3.152344,-4.017578 a 1.70017,1.70017 0 0 0 0,-0.03516 C 36.608021,20.859327 35.542286,19.489089 34.25,18.773438 32.957713,18.057787 31.392491,17.755397 29.640625,17.732422 Z M 29.490234,29.697266 A 1.7,1.7 0 0 0 28.8125,29.839844 c -3.610506,1.579086 -8.280593,2.345743 -13.324219,1.742187 a 1.7,1.7 0 0 0 -1.890625,1.486328 1.7,1.7 0 0 0 1.486328,1.890626 c 5.622974,0.672884 10.871383,-0.158073 15.091797,-2.003907 a 1.7,1.7 0 0 0 0.875,-2.238281 1.7,1.7 0 0 0 -1.560547,-1.019531 z m -7.255859,6.580078 a 1.7,1.7 0 0 0 -0.572266,0.121094 c -2.181707,0.877835 -6.167502,1.335992 -8.658203,0.923828 a 1.7,1.7 0 0 0 -1.955078,1.40039 1.7,1.7 0 0 0 1.398437,1.953125 c 3.33872,0.552496 7.483483,0.0844 10.484375,-1.123046 A 1.7,1.7 0 0 0 23.875,37.341797 1.7,1.7 0 0 0 22.234375,36.277344 Z m -7.63086,5.525391 a 1.7,1.7 0 0 0 -0.671875,0.162109 c -1.058944,0.50354 -2.302895,1.10783 -5.029296,0.884765 A 1.7,1.7 0 0 0 7.068359,44.40625 1.7,1.7 0 0 0 8.625,46.238281 c 3.394898,0.277757 5.621929,-0.65733 6.765625,-1.201172 a 1.7,1.7 0 0 0 0.80664,-2.265624 1.7,1.7 0 0 0 -1.59375,-0.96875 z"  fill="#008055"/>
</svg>
