<svg xmlns="http://www.w3.org/2000/svg" width="48" height="48">
	<path d="m 22.267577,2.0546882 c -4.643551,-0.03224 -7.987935,1.8447086 -9.943359,4.3300781 -1.539137,1.9562638 -2.130876,4.1108857 -2.3945311,6.0878907 -1.3895524,0.237434 -2.9363129,0.650027 -4.515625,1.570312 -2.177728,1.268991 -4.2732406,3.591765 -4.3632813,6.863282 -0.0805528,2.927005 0.8468722,5.393894 2.5917969,6.992187 1.7449247,1.598294 4.0986869,2.256047 6.5800785,2.306641 a 1.90019,1.90019 0 0 0 0.03711,0 h 6.755859 a 1.9,1.9 0 0 0 1.900391,-1.900391 1.9,1.9 0 0 0 -1.900391,-1.90039 H 10.287109 C 8.4348596,26.364323 7.0669604,25.881582 6.2089838,25.095704 5.3489209,24.307915 4.7908616,23.144431 4.8496088,21.009766 c 0.049269,-1.790142 1.0085186,-2.827007 2.4785156,-3.683593 1.469997,-0.856587 3.4247866,-1.268297 4.3339846,-1.3125 a 1.90019,1.90019 0 0 0 1.80664,-1.865235 c 0.02836,-1.582061 0.551633,-3.774247 1.841797,-5.4140623 1.290164,-1.6398156 3.255862,-2.9044267 6.931641,-2.8789063 3.726666,0.02586 6.988057,2.1380965 8.980469,5.3242186 a 1.90019,1.90019 0 0 0 2.335937,0.748047 c 0.943513,-0.389225 1.741125,-0.493044 2.300781,-0.419922 0.559656,0.07312 0.901963,0.252136 1.261719,0.699219 0.714777,0.88828 0.732026,2.049846 -0.425781,3.666016 a 1.90019,1.90019 0 0 0 1.332031,2.996093 c 1.433339,0.160944 2.824562,0.687397 3.740234,1.404297 0.910708,0.713014 1.366252,1.482809 1.376954,2.578125 -0.01083,0.520315 -0.198704,1.398335 -0.90625,2.111328 -0.715293,0.720799 -2.055226,1.468837 -4.9375,1.441407 a 1.90019,1.90019 0 0 0 -0.01758,0 h -6.75586 a 1.9,1.9 0 0 0 -1.90039,1.90039 1.9,1.9 0 0 0 1.90039,1.900391 h 6.736328 c 3.597835,0.03424 6.130115,-1.010824 7.671875,-2.564453 1.541761,-1.553629 1.99563,-3.41479 2.013672,-4.757813 a 1.90019,1.90019 0 0 0 0,-0.03711 c -0.01229,-2.326801 -1.222941,-4.298544 -2.839844,-5.564453 -0.940716,-0.736508 -2.027023,-1.229043 -3.160156,-1.59961 0.640837,-2.030076 0.47443,-4.190143 -0.867187,-5.8574216 C 39.136757,8.649492 37.765779,7.9247553 36.353515,7.740235 35.411488,7.6171539 34.463288,7.760277 33.519531,8.0019538 30.865213,4.5178936 26.893471,2.0867882 22.267577,2.0546882 Z m 1.730469,14.7265628 a 2,2 0 0 0 -2,2 v 14.564453 a 2,2 0 0 0 2,2 2,2 0 0 0 2,-2 V 18.781251 a 2,2 0 0 0 -2,-2 z m 0,22.142578 a 3.074666,3.074666 0 0 0 -3.076172,3.076172 3.074666,3.074666 0 0 0 3.076172,3.074218 3.074666,3.074666 0 0 0 3.074219,-3.074218 3.074666,3.074666 0 0 0 -3.074219,-3.076172 z" fill="#008055"/>
</svg>
