<svg xmlns="http://www.w3.org/2000/svg" width="48" height="48">
	<path d="m 17.587093,2.0672002 c -0.404691,0.03908 -0.771161,0.15725 -1.101563,0.283203 -0.660804,0.251906 -1.26815,0.613808 -1.927734,1.076172 a 2.0002,2.0002 0 0 0 -0.0078,0.0059 C 5.3002518,9.9750382 2.049796,24.890881 10.594905,35.082825 a 2,2 0 0 0 2.81836,0.248047 2,2 0 0 0 0.248047,-2.816407 C 6.8425437,24.381569 9.543389,12.36787 16.446468,7.0691532 15.350751,13.462219 15.736621,19.234619 19.880062,26.672668 a 2,2 0 0 0 2.720703,0.775391 2,2 0 0 0 0.773437,-2.720703 C 19.334232,17.47505 19.261307,13.112811 20.528499,6.6804812 l -0.0059,0.02539 c 0.163799,-0.778461 0.252466,-1.470769 0.115234,-2.251954 -0.137232,-0.781183 -0.754486,-1.828894 -1.720703,-2.201171 -0.483109,-0.186139 -0.925387,-0.224629 -1.330078,-0.185547 z m 9.05664,25.9492178 c -2.984515,-0.02001 -5.247053,1.1695 -6.564453,2.78125 -0.902189,1.103772 -1.296017,2.289061 -1.523437,3.427735 -0.79524,0.171343 -1.63866,0.431923 -2.515625,0.923828 -1.447029,0.811663 -2.948271,2.40273 -3.011719,4.621094 -0.05373,1.879329 0.595428,3.585583 1.816406,4.662109 1.220978,1.076526 2.807292,1.482112 4.417969,1.513672 a 1.8,1.8 0 0 0 1.835938,-1.763672 1.8,1.8 0 0 0 -1.765626,-1.835937 c -1.043133,-0.02044 -1.735694,-0.287486 -2.107421,-0.615235 -0.371728,-0.327749 -0.629095,-0.757851 -0.597657,-1.857422 0.02175,-0.760536 0.388671,-1.146625 1.171875,-1.585937 0.783204,-0.439313 1.930504,-0.67413 2.382813,-0.695313 a 1.80018,1.80018 0 0 0 1.714844,-1.763672 c 0.01472,-0.790046 0.301776,-1.937908 0.96875,-2.753906 0.666973,-0.815998 1.649978,-1.473076 3.751953,-1.458984 a 1.80018,1.80018 0 0 0 0.002,0 c 2.064495,0.01369 3.86564,1.138843 4.970703,2.839844 a 1.80018,1.80018 0 0 0 2.173828,0.691406 c 0.505286,-0.200657 0.897993,-0.235814 1.111328,-0.208984 0.213335,0.02683 0.25606,0.05222 0.369141,0.1875 0.221555,0.265035 0.29938,0.498511 -0.283203,1.28125 a 1.80018,1.80018 0 0 0 1.25,2.863281 c 0.785435,0.0849 1.541807,0.374969 1.982422,0.707031 0.433429,0.326647 0.55808,0.560706 0.564453,0.957031 -0.0047,0.147658 -0.05428,0.465141 -0.337891,0.740235 -0.291218,0.282471 -0.931208,0.687035 -2.585937,0.671875 a 1.80018,1.80018 0 0 0 -0.01563,0 H 24.27264 a 1.8,1.8 0 0 0 -1.800782,1.798828 1.8,1.8 0 0 0 1.800782,1.800781 h 11.53125 c 2.30725,0.02114 4.034295,-0.631447 5.123046,-1.6875 1.088753,-1.056053 1.428085,-2.341324 1.441407,-3.294922 a 1.80018,1.80018 0 0 0 0,-0.0332 c -0.0088,-1.61113 -0.899997,-2.993237 -2.007813,-3.828125 -0.508782,-0.383436 -1.069376,-0.662393 -1.648437,-0.886719 0.208378,-1.205365 0.111071,-2.422119 -0.705078,-3.398437 -0.68482,-0.819226 -1.689331,-1.326377 -2.681641,-1.451172 -0.502859,-0.06324 -0.975987,0.139338 -1.464844,0.220703 -1.739257,-2.099892 -4.277169,-3.550814 -7.216797,-3.570313 z" fill="#008055"/>
</svg>
