<svg xmlns="http://www.w3.org/2000/svg" width="48" height="48">
	<path d="m 22.269531,2.0585943 c -4.643551,-0.03224 -7.987937,1.8427555 -9.943359,4.328125 -1.539348,1.9565305 -2.13097,4.1126367 -2.394532,6.0898437 -1.3892847,0.237523 -2.9367843,0.648348 -4.515625,1.568359 -2.1777278,1.268991 -4.2732406,3.591765 -4.3632812,6.863282 -0.0805528,2.927005 0.8468722,5.393894 2.5917969,6.992187 1.7449246,1.598294 4.0986869,2.256047 6.5800783,2.306641 a 1.9,1.9 0 0 0 1.9375,-1.859375 1.9,1.9 0 0 0 -1.861328,-1.939453 C 8.4416619,26.370298 7.0709998,25.885446 6.2109369,25.097657 5.3508741,24.309868 4.7928148,23.148337 4.8515619,21.013673 c 0.049269,-1.790143 1.0085186,-2.828961 2.4785157,-3.685547 1.469997,-0.856587 3.4247874,-1.268297 4.3339844,-1.3125 a 1.90019,1.90019 0 0 0 1.806641,-1.863282 c 0.02836,-1.582061 0.551633,-3.7762 1.841797,-5.4160153 1.290164,-1.6398156 3.255862,-2.9044267 6.93164,-2.8789063 3.726666,0.02586 6.99001,2.1380965 8.982422,5.3242186 a 1.90019,1.90019 0 0 0 2.333984,0.75 c 0.943513,-0.389225 1.743079,-0.494997 2.302735,-0.421875 0.559656,0.07312 0.900009,0.252136 1.259765,0.699219 0.714777,0.88828 0.732027,2.051799 -0.425781,3.667969 a 1.90019,1.90019 0 0 0 1.333985,2.994141 c 1.433339,0.160942 2.822608,0.689348 3.738281,1.40625 0.912015,0.714036 1.369481,1.482243 1.378906,2.580078 -0.01116,0.520508 -0.201334,1.397064 -0.908203,2.109375 -0.715292,0.720798 -2.055225,1.468836 -4.9375,1.441406 a 1.90019,1.90019 0 0 0 -0.01758,0 h -21.25 a 1.9,1.9 0 0 0 -1.900391,1.900391 1.9,1.9 0 0 0 1.900391,1.898437 h 21.230469 c 3.597835,0.03424 6.130114,-1.010824 7.671875,-2.564453 1.54176,-1.553629 1.995629,-3.41479 2.013672,-4.757813 a 1.90019,1.90019 0 0 0 0,-0.03516 c -0.01229,-2.326801 -1.222942,-4.298544 -2.839844,-5.564453 -0.941136,-0.736836 -2.026466,-1.229031 -3.160156,-1.59961 0.640836,-2.030076 0.47443,-4.190143 -0.867188,-5.8574214 C 39.13871,8.6533981 37.767732,7.9267083 36.355468,7.742188 35.412842,7.6190286 34.46388,7.7618773 33.519531,8.0039068 30.865185,4.5210443 26.894455,2.0906876 22.269531,2.0585943 Z M 15.384765,32.308595 c -2.539942,0.08862 -5.213306,0.941398 -7.8066406,2.958984 a 1.7,1.7 0 0 0 -0.296875,2.386719 1.7,1.7 0 0 0 2.3847656,0.296875 c 2.396844,-1.864718 4.460505,-2.344044 6.634766,-2.238282 2.17426,0.105762 4.479454,0.899367 6.9375,1.824219 2.458045,0.924852 5.058743,1.976145 7.908203,2.357422 2.84946,0.381277 5.975726,0.01493 9.091797,-1.820313 a 1.7,1.7 0 0 0 0.603515,-2.326171 1.7,1.7 0 0 0 -2.328124,-0.603516 c -2.461591,1.449778 -4.628596,1.684979 -6.916016,1.378906 -2.28742,-0.306072 -4.666369,-1.228933 -7.16211,-2.167969 -2.49574,-0.939035 -5.116585,-1.90023 -7.970703,-2.039062 -0.356764,-0.01735 -0.717229,-0.02047 -1.080078,-0.0078 z m 0,6.230468 c -2.539942,0.08862 -5.213306,0.941399 -7.8066406,2.958985 a 1.7,1.7 0 0 0 -0.296875,2.386718 1.7,1.7 0 0 0 2.3847656,0.296875 c 2.396844,-1.864718 4.460505,-2.344043 6.634766,-2.238281 2.17426,0.105762 4.479454,0.899367 6.9375,1.824219 2.458045,0.924852 5.058743,1.976145 7.908203,2.357422 2.84946,0.381277 5.975726,0.01493 9.091797,-1.820313 a 1.7,1.7 0 0 0 0.603515,-2.326172 1.7,1.7 0 0 0 -2.328124,-0.603515 c -2.461591,1.449778 -4.628596,1.684978 -6.916016,1.378906 -2.28742,-0.306072 -4.666369,-1.228933 -7.16211,-2.167969 -2.49574,-0.939035 -5.116585,-1.90023 -7.970703,-2.039062 -0.356764,-0.01735 -0.717229,-0.02047 -1.080078,-0.0078 z" fill="#008055"/>
</svg>
