<svg xmlns="http://www.w3.org/2000/svg" width="48" height="48">
	<path d="M 22.269531,2.056641 C 17.62598,2.024402 14.281595,3.90135 12.326172,6.386719 10.787317,8.342624 10.19542,10.497878 9.93164,12.474611 c -1.3895518,0.237434 -2.9363128,0.650026 -4.5156248,1.570312 -2.177728,1.268991 -4.27324,3.591763 -4.363281,6.863281 -0.080553,2.927006 0.846872,5.393895 2.591797,6.992188 1.744925,1.598294 4.098687,2.256047 6.5800778,2.306641 a 1.90019,1.90019 0 0 0 0.03711,0 h 5.03711 a 1.9,1.9 0 0 0 1.90039,-1.900391 1.9,1.9 0 0 0 -1.90039,-1.898438 H 10.300782 C 8.4416632,26.370294 7.0710012,25.885447 6.2109382,25.097657 5.3508752,24.309868 4.7928162,23.146385 4.8515632,21.01172 c 0.049269,-1.790143 1.008519,-2.827008 2.478516,-3.683594 1.469997,-0.856587 3.4228338,-1.268297 4.3320308,-1.3125 a 1.90019,1.90019 0 0 0 1.808594,-1.863281 c 0.02836,-1.582061 0.551633,-3.776201 1.841797,-5.4160162 1.290164,-1.6398158 3.253908,-2.9044278 6.929687,-2.8789058 3.726666,0.025859 6.99001,2.138096 8.982422,5.324218 a 1.90019,1.90019 0 0 0 2.335937,0.750001 c 0.943513,-0.389226 1.741126,-0.494998 2.300782,-0.421876 0.559656,0.07312 0.901962,0.252137 1.261718,0.69922 0.714777,0.888279 0.732027,2.051797 -0.425781,3.667967 a 1.90019,1.90019 0 0 0 1.332031,2.994142 c 1.433341,0.160944 2.824562,0.687396 3.740235,1.404297 0.910701,0.713007 1.366245,1.482821 1.376953,2.578125 -0.01049,0.520118 -0.198023,1.397649 -0.90625,2.111328 -0.715292,0.720798 -2.055225,1.470789 -4.9375,1.443359 a 1.90019,1.90019 0 0 0 -0.01953,0 h -2.648438 a 1.9,1.9 0 0 0 -1.90039,1.898438 1.9,1.9 0 0 0 1.90039,1.900391 h 2.63086 c 3.597835,0.03424 6.130114,-1.010824 7.671875,-2.564453 1.54176,-1.55363 1.995628,-3.41479 2.013672,-4.757813 a 1.90019,1.90019 0 0 0 0,-0.03516 C 46.938885,20.52281 45.72823,18.549114 44.111328,17.283204 43.170713,16.546775 42.084169,16.056112 40.951172,15.685548 41.592103,13.655401 41.425656,11.493519 40.083984,9.8261725 39.13871,8.6514451 37.765779,7.9267084 36.353515,7.7421881 35.411465,7.6191039 34.463312,7.7602629 33.519531,8.0019538 30.865176,4.519486 26.894136,2.088732 22.269531,2.056641 Z m 1.845703,14.718751 c -1.70994,-0.0013 -3.465047,0.540126 -4.970703,1.625 -1.509666,1.087763 -2.785156,2.902593 -2.785156,5.136719 a 2,2 0 0 0 2,2 2,2 0 0 0 2,-2 c 0,-0.778536 0.368909,-1.347246 1.123047,-1.890625 0.754136,-0.54338 1.873548,-0.874937 2.636718,-0.873047 h 0.01563 l 0.01367,-0.002 c 1.380611,-0.01618 3.279099,1.203036 3.359375,3.11914 0.01843,0.998004 -0.121889,1.412655 -0.380859,1.826171 -0.26147,0.417509 -0.783281,0.917526 -1.673828,1.628908 -1.170818,0.892588 -2.044341,1.680485 -2.652344,2.703125 -0.61481,1.034089 -0.800781,2.204746 -0.800781,3.298828 a 2,2 0 0 0 2,2 2,2 0 0 0 2,-2 c 0,-0.73834 0.05739,-0.946368 0.240234,-1.253906 0.182845,-0.307539 0.649769,-0.816891 1.671875,-1.59375 l 0.01758,-0.01367 0.01953,-0.01563 c 0.964543,-0.770489 1.874697,-1.523233 2.56836,-2.630861 0.693663,-1.107625 1.027353,-2.498992 0.99414,-4.052734 l -0.002,-0.01563 V 23.7558 C 31.352914,19.494335 27.675448,16.740867 24.115234,16.775392 Z M 24,38.927735 A 3.074666,3.074666 0 0 0 20.923828,42.001954 3.074666,3.074666 0 0 0 24,45.076173 3.074666,3.074666 0 0 0 27.074218,42.001954 3.074666,3.074666 0 0 0 24,38.927735 Z" fill="#008055"/>
</svg>
