<svg xmlns="http://www.w3.org/2000/svg" width="48" height="48">
	<path d="m 20.65277,2.3566332 c -1.021955,0.06999 -1.822686,0.539379 -2.564454,1.052734 a 2.0002,2.0002 0 0 0 -0.01562,0.01172 C 13.469773,6.6768682 10.297657,11.873511 9.8402705,17.217961 a 2,2 0 0 0 1.8222645,2.164062 2,2 0 0 0 2.16211,-1.822265 c 0.322246,-3.765363 2.726595,-7.8667908 6.107421,-10.4726558 -0.412708,2.292787 -0.74572,4.4471578 -0.580078,7.0507808 a 2,2 0 0 0 2.123047,1.86914 2,2 0 0 0 1.869141,-2.123046 c -0.160475,-2.522394 0.190948,-4.4485408 0.701172,-7.1914068 0.180216,-0.859305 0.218832,-1.716903 -0.171875,-2.585937 -0.390707,-0.869034 -1.327352,-1.516517 -2.119141,-1.673828 -0.395894,-0.07866 -0.760911,-0.099502 -1.101562,-0.07617 z m 1.617187,15.1445308 c -4.643557,-0.03226 -7.987937,1.844701 -9.943359,4.330078 -1.539137,1.95627 -2.130877,4.110889 -2.3945315,6.087891 -1.389555,0.237434 -2.936315,0.650029 -4.515624,1.570312 -2.1777264,1.268988 -4.2732406,3.591786 -4.3632818,6.863282 -0.0805525,2.927016 0.8468769,5.392017 2.5917969,6.990234 1.7449199,1.598217 4.0988109,2.257717 6.5800774,2.308594 a 1.9,1.9 0 0 0 1.9375,-1.861328 1.9,1.9 0 0 0 -1.861328,-1.9375 C 8.4419645,41.814607 7.0714315,41.329938 6.2113635,40.54218 c -0.860067,-0.787758 -1.418122,-1.951254 -1.359375,-4.085938 0.049269,-1.790104 1.008516,-2.827006 2.478516,-3.683593 1.47,-0.856589 3.4248005,-1.270255 4.3339835,-1.314454 a 1.90019,1.90019 0 0 0 1.806641,-1.863281 c 0.02836,-1.582049 0.551632,-3.77424 1.841797,-5.414062 1.290165,-1.639823 3.255868,-2.904445 6.93164,-2.878907 3.72678,0.02603 6.988076,2.138154 8.980469,5.324219 a 1.90019,1.90019 0 0 0 2.335938,0.748047 c 0.943527,-0.389215 1.741117,-0.49304 2.300781,-0.419922 0.559664,0.07312 0.90197,0.252148 1.261719,0.699219 0.714841,0.888409 0.732021,2.049876 -0.425781,3.666015 a 1.90019,1.90019 0 0 0 1.332031,2.994141 c 1.433345,0.160961 2.824557,0.689341 3.740234,1.40625 0.910712,0.713022 1.366252,1.482809 1.376953,2.578125 -0.01083,0.520273 -0.198698,1.39833 -0.90625,2.111328 -0.715298,0.720804 -2.055223,1.468805 -4.9375,1.441406 a 1.90019,1.90019 0 0 0 -0.01758,0 H 16.033629 a 1.9,1.9 0 0 0 -1.898437,1.900391 1.9,1.9 0 0 0 1.898437,1.900391 h 21.232422 c 3.597833,0.0342 6.130121,-1.010832 7.671875,-2.564453 1.541754,-1.553622 1.995629,-3.41676 2.013672,-4.759766 a 1.90019,1.90019 0 0 0 0,-0.03516 c -0.01229,-2.326801 -1.222946,-4.298538 -2.839844,-5.564453 -0.940714,-0.736512 -2.027027,-1.229034 -3.160156,-1.59961 0.640834,-2.030062 0.474385,-4.190107 -0.867188,-5.857422 -0.945281,-1.174729 -2.316259,-1.899477 -3.728515,-2.083984 -0.942022,-0.123072 -1.890238,0.02005 -2.833985,0.261719 -2.654331,-3.484014 -6.626161,-5.914958 -11.251953,-5.947266 z" fill="#008055"/>
</svg>
