<svg xmlns="http://www.w3.org/2000/svg" width="48" height="48">
	<path d="m 24.000977,1.4079539 a 2,2 0 0 0 -2,2 v 4.1152346 a 2,2 0 0 0 2,2 2,2 0 0 0 2,-2 V 3.4079539 a 2,2 0 0 0 -2,-2 z M 9.09668,7.5915475 a 2,2 0 0 0 -1.4375,0.585938 2,2 0 0 0 0,2.8281255 l 2.910156,2.910156 a 2,2 0 0 0 2.828125,0 2,2 0 0 0 0,-2.828125 L 10.487305,8.1774855 A 2,2 0 0 0 9.09668,7.5915475 Z m 29.855468,0 a 2,2 0 0 0 -1.4375,0.585938 l -2.912109,2.9101565 a 2,2 0 0 0 0,2.828125 2,2 0 0 0 2.830078,0 l 2.910157,-2.910156 a 2,2 0 0 0 0,-2.8281255 2,2 0 0 0 -1.390626,-0.585938 z M 23.754883,10.697017 c -4.77297,0.09091 -9.317732,2.658601 -11.78125,7.003906 -3.284691,5.793739 -1.956531,13.138654 3.148437,17.416016 a 1.8999977,1.9000023 65.042186 0 0 2.675782,-0.236328 1.8999977,1.9000023 65.042186 0 0 -0.236328,-2.677735 c -3.718146,-3.115369 -4.67557,-8.40715 -2.283204,-12.626953 2.392367,-4.219803 7.427175,-6.117952 12.009766,-4.527344 4.582591,1.590608 7.357613,6.199597 6.621094,10.994141 a 1.8999977,1.9000023 65.042186 0 0 1.589844,2.166016 1.8999977,1.9000023 65.042186 0 0 2.166015,-1.591797 C 38.676271,20.034086 34.826021,13.640667 28.53418,11.456782 26.96122,10.910811 25.345873,10.666714 23.754883,10.697017 Z M 2.889648,22.519282 a 2,2 0 0 0 -2,2 2,2 0 0 0 2,2 h 4.115235 a 2,2 0 0 0 2,-2 2,2 0 0 0 -2,-2 z m 38.105469,0 a 2,2 0 0 0 -2,2 2,2 0 0 0 2,2 h 4.115235 a 2,2 0 0 0 2,-2 2,2 0 0 0 -2,-2 z m -10.667969,6.140626 c -2.984509,-0.01995 -5.247059,1.171445 -6.564453,2.783203 -0.902185,1.103774 -1.296017,2.289057 -1.523437,3.427734 -0.795186,0.171338 -1.638746,0.430028 -2.515625,0.921875 -1.447038,0.811653 -2.948271,2.40468 -3.011719,4.623047 -0.05373,1.879333 0.595432,3.585596 1.816406,4.662109 1.220974,1.076513 2.807327,1.482052 4.417969,1.513672 a 1.8,1.8 0 0 0 1.835938,-1.765625 1.8,1.8 0 0 0 -1.765625,-1.833984 c -1.043169,-0.02048 -1.735691,-0.287485 -2.107422,-0.615235 -0.371731,-0.327749 -0.629095,-0.757843 -0.597656,-1.857422 0.02175,-0.760542 0.38868,-1.146638 1.171874,-1.585937 0.783195,-0.439299 1.930553,-0.674149 2.382813,-0.695313 a 1.80018,1.80018 0 0 0 1.714844,-1.763671 c 0.01472,-0.79006 0.301771,-1.937895 0.96875,-2.753907 0.666979,-0.816012 1.651926,-1.473034 3.753906,-1.458984 2.06456,0.01377 3.865649,1.136903 4.970703,2.837891 a 1.80018,1.80018 0 0 0 2.173828,0.693359 c 0.505293,-0.200646 0.897976,-0.237769 1.111328,-0.210938 0.213352,0.02683 0.256067,0.05419 0.369141,0.189454 0.221525,0.264991 0.297471,0.498401 -0.285156,1.28125 a 1.80018,1.80018 0 0 0 1.251953,2.863281 c 0.785417,0.08489 1.541805,0.37302 1.982422,0.705078 0.434475,0.327429 0.560632,0.560958 0.566406,0.958984 -0.0046,0.147466 -0.05595,0.464856 -0.339844,0.740235 -0.291222,0.282482 -0.931215,0.687035 -2.585937,0.671875 a 1.80018,1.80018 0 0 0 -0.01563,0 H 28.067383 a 1.8,1.8 0 0 0 -1.800781,1.798828 1.8,1.8 0 0 0 1.800781,1.800781 h 11.419922 c 2.307258,0.02114 4.034299,-0.631427 5.123047,-1.6875 1.088747,-1.056073 1.428084,-2.341322 1.441406,-3.294922 a 1.80018,1.80018 0 0 0 0,-0.03516 c -0.0088,-1.611119 -0.899997,-2.993253 -2.007813,-3.828125 -0.508761,-0.383413 -1.069401,-0.660447 -1.648437,-0.884766 0.208372,-1.205372 0.111089,-2.424081 -0.705078,-3.40039 -0.684826,-0.819208 -1.689348,-1.324424 -2.681641,-1.449219 -0.503183,-0.06328 -0.975681,0.139209 -1.464844,0.220703 -1.73926,-2.099884 -4.277225,-3.55266 -7.216797,-3.572265 z m -18.318359,5.876953 a 2,2 0 0 0 -1.439453,0.585937 L 7.65918,38.032954 a 2,2 0 0 0 0,2.828125 2,2 0 0 0 2.828125,0 l 2.910156,-2.910156 a 2,2 0 0 0 0,-2.828125 2,2 0 0 0 -1.388672,-0.585937 z" fill="#008055"/>
</svg>
