<svg xmlns="http://www.w3.org/2000/svg" width="48" height="48">
	<path d="m 24,0.8896486 a 2,2 0 0 0 -2,1.9999998 v 4.115235 a 2,2 0 0 0 2,2 2,2 0 0 0 2,-2 V 2.8896484 A 2,2 0 0 0 24,0.8896486 Z M 9.0976562,7.0712894 a 2,2 0 0 0 -1.4394531,0.585937 2,2 0 0 0 0,2.8281246 l 2.9101559,2.91211 a 2,2 0 0 0 2.828125,0 2,2 0 0 0 0,-2.830078 L 10.486328,7.6572264 A 2,2 0 0 0 9.0976562,7.0712894 Z m 29.8554688,0 a 2,2 0 0 0 -1.439453,0.585937 l -2.910156,2.9101566 a 2,2 0 0 0 0,2.830078 2,2 0 0 0 2.828124,0 l 2.910157,-2.91211 a 2,2 0 0 0 0,-2.8281246 2,2 0 0 0 -1.388672,-0.585937 z M 24.169922,10.182617 c -2.899221,-0.03743 -5.825391,0.829602 -8.31836,2.648437 -1.424553,1.039336 -2.59502,2.306876 -3.496093,3.720704 -2.7032214,4.241482 -2.9725856,9.789598 -0.324219,14.36914 a 1.8999977,1.9000023 85.083622 0 0 2.597656,0.69336 1.8999977,1.9000023 85.083622 0 0 0.69336,-2.595704 c -2.574418,-4.451669 -1.384796,-10.086247 2.769531,-13.117187 4.154326,-3.030939 9.884433,-2.445099 13.33789,1.365234 3.453457,3.810333 3.476322,9.571011 0.05273,13.408203 -3.423588,3.837192 -9.148296,4.469101 -13.326172,1.470704 a 1.8999977,1.9000023 85.083622 0 0 -2.652344,0.435546 1.8999977,1.9000023 85.083622 0 0 0.435547,2.650391 c 5.730513,4.112703 13.682997,3.233924 18.378906,-2.029297 4.695908,-5.263221 4.664612,-13.261901 -0.07227,-18.488281 -2.664493,-2.939839 -6.348603,-4.483129 -10.076172,-4.53125 z M 2.8886718,21.999023 a 2,2 0 0 0 -1.9999999,2 2,2 0 0 0 1.9999999,2 h 4.1171875 a 2,2 0 0 0 2,-2 2,2 0 0 0 -2,-2 z m 38.1054682,0 a 2,2 0 0 0 -2,2 2,2 0 0 0 2,2 h 4.117188 a 2,2 0 0 0 2,-2 2,2 0 0 0 -2,-2 z M 12.007812,34.016601 a 2,2 0 0 0 -1.439453,0.585938 l -2.9101559,2.910156 a 2,2 0 0 0 0,2.828125 2,2 0 0 0 2.8281249,0 l 2.910156,-2.910156 a 2,2 0 0 0 0,-2.828125 2,2 0 0 0 -1.388672,-0.585938 z m 24.035157,0 a 2,2 0 0 0 -1.439453,0.585938 2,2 0 0 0 0,2.828125 l 2.910156,2.910156 a 2,2 0 0 0 2.828125,0 2,2 0 0 0 0,-2.828125 L 37.43164,34.602539 A 2,2 0 0 0 36.042969,34.016601 Z M 24,38.995117 a 2,2 0 0 0 -2,2 v 4.115234 a 2,2 0 0 0 2,2 2,2 0 0 0 2,-2 v -4.115234 a 2,2 0 0 0 -2,-2 z" fill="#008055"/>
</svg>
