<svg xmlns="http://www.w3.org/2000/svg" width="48" height="48">
	<path d="m 22.269531,2.0585946 c -4.643551,-0.03224 -7.985983,1.8447085 -9.941406,4.3300784 -1.539137,1.956264 -2.13283,4.110886 -2.396485,6.08789 -1.389321,0.237511 -2.9347637,0.650262 -4.5136714,1.570313 -2.1777278,1.268991 -4.2751936,3.591764 -4.3652344,6.863281 -0.0805527,2.927005 0.8468724,5.391941 2.5917969,6.990234 1.7449245,1.598294 4.0986869,2.258 6.5800779,2.308594 a 1.90019,1.90019 0 0 0 0.0625,0 l 8.884766,-0.107422 A 1.9,1.9 0 0 0 21.048828,28.177735 1.9,1.9 0 0 0 19.125,26.300782 l -8.822266,0.107422 c -0.0015,-3e-5 -0.0024,3e-5 -0.0039,0 C 8.441944,26.369624 7.0703221,25.886778 6.2109374,25.09961 5.3508746,24.311821 4.7928152,23.148337 4.8515624,21.013673 4.9008317,19.22353 5.8600811,18.186666 7.330078,17.330079 c 1.469997,-0.856587 3.424788,-1.27025 4.333984,-1.314453 a 1.90019,1.90019 0 0 0 1.806641,-1.863281 c 0.02836,-1.582061 0.553586,-3.774247 1.84375,-5.414063 1.290164,-1.639815 3.253909,-2.904427 6.929687,-2.878906 3.726666,0.02586 6.99001,2.138096 8.982422,5.324219 a 1.90019,1.90019 0 0 0 2.335938,0.748046 c 0.943513,-0.389224 1.741125,-0.493044 2.300781,-0.419921 0.559656,0.07312 0.90001,0.252136 1.259766,0.699218 0.714777,0.88828 0.733979,2.049846 -0.423828,3.666016 a 1.90019,1.90019 0 0 0 1.332031,2.994141 c 1.433339,0.160943 2.822609,0.689349 3.738281,1.40625 0.910701,0.713008 1.368199,1.480868 1.378906,2.576172 -0.01049,0.520117 -0.199974,1.3996 -0.908203,2.113281 -0.715292,0.720798 -2.055225,1.468836 -4.9375,1.441406 a 1.9,1.9 0 0 0 -1.917968,1.882813 1.9,1.9 0 0 0 1.882812,1.917968 c 3.597835,0.03424 6.128162,-1.012777 7.669922,-2.566406 1.54176,-1.553629 1.99563,-3.41479 2.013672,-4.757812 a 1.90019,1.90019 0 0 0 0,-0.03516 c -0.01229,-2.326801 -1.220988,-4.298543 -2.837891,-5.564453 -0.941135,-0.736836 -2.028418,-1.229031 -3.162109,-1.599609 0.640837,-2.030076 0.47443,-4.190143 -0.867188,-5.857422 C 39.13871,8.653399 37.767733,7.926709 36.355469,7.742188 35.413301,7.619089 34.465382,7.762147 33.521484,8.003907 30.867143,4.5208282 26.894631,2.0906891 22.269531,2.0585946 Z m 5.929688,20.2871094 c -1.329926,-0.03754 -2.676757,0.383483 -3.78125,1.306641 -1.276144,1.066631 -1.764007,2.487332 -1.857422,3.558593 -0.04671,0.535631 -0.01179,0.99828 0.0332,1.34375 0.04499,0.345471 0.110881,0.821167 0.07813,0.457032 a 1.6,1.6 0 0 0 1.736328,1.451171 1.6,1.6 0 0 0 1.451172,-1.738281 c -0.04496,-0.499755 -0.06742,-0.396804 -0.0918,-0.583984 -0.02438,-0.18718 -0.04004,-0.415248 -0.01953,-0.650391 0.04101,-0.470286 0.1556,-0.908853 0.722656,-1.382812 1.161863,-0.971107 2.732906,-0.760092 3.667969,0.480468 0.965515,1.280947 0.55813,2.851792 -0.05078,3.667969 -0.583357,0.781896 -1.803193,1.412955 -4.515624,1.291016 A 1.60016,1.60016 0 0 0 25.5,31.544923 H 5.1718749 a 1.6,1.6 0 0 0 -1.5996094,1.601562 1.6,1.6 0 0 0 1.5996094,1.59961 l 20.2558591,-0.002 c 3.293948,0.148083 5.825761,-0.696674 7.226563,-2.574218 1.375188,-1.843283 1.969067,-4.94728 0.03906,-7.507813 -0.980218,-1.300469 -2.417506,-2.080216 -3.925781,-2.271484 -0.188534,-0.02391 -0.37837,-0.03956 -0.568359,-0.04492 z M 36.9375,35.978517 c -0.309315,-0.01025 -0.629156,-0.0083 -0.960938,0.0059 h -20.27539 a 1.6,1.6 0 0 0 -1.59961,1.599609 1.6,1.6 0 0 0 1.59961,1.59961 h 20.34375 a 1.60016,1.60016 0 0 0 0.06836,-0.002 c 2.23527,-0.09553 2.651307,0.09871 3.578125,1.027344 0.509396,0.510393 0.705861,1.9698 0.08789,2.699219 -0.675586,0.797425 -1.745161,0.895273 -2.521485,0.251953 -0.553846,-0.458955 -0.662289,-0.718278 -0.697265,-0.814453 -0.03498,-0.09617 0.02805,0.127448 -0.05078,-0.488281 a 1.6,1.6 0 0 0 -1.789063,-1.382813 1.6,1.6 0 0 0 -1.384766,1.789063 c -0.04033,-0.31503 -0.03651,0.479251 0.216797,1.175781 0.253307,0.69653 0.780519,1.453382 1.664063,2.185547 2.098457,1.73894 5.246391,1.426038 7.003906,-0.648438 1.81513,-2.142481 1.558052,-5.202056 -0.263672,-7.027343 -1.228764,-1.231168 -2.854325,-1.898981 -5.019531,-1.970703 z m -27.117188,5.46875 a 1.6,1.6 0 0 0 -1.599609,1.599609 1.6,1.6 0 0 0 1.599609,1.599609 H 29.71289 a 1.6,1.6 0 0 0 1.59961,-1.599609 1.6,1.6 0 0 0 -1.59961,-1.599609 z" fill="#008055"/>
</svg>
