<svg xmlns="http://www.w3.org/2000/svg" width="48" height="48">
	<path d="M 19.859375 3.8984375 C 15.868712 3.8710303 12.942171 5.4823406 11.236328 7.6269531 C 9.9533286 9.2399602 9.4394789 10.996566 9.1855469 12.638672 C 8.0323618 12.854502 6.7785188 13.202466 5.4863281 13.947266 C 3.5935114 15.038257 1.7280825 17.082919 1.6484375 19.945312 C 1.5784894 22.459417 2.3955739 24.632461 3.9394531 26.03125 C 5.4833323 27.430039 7.5415151 27.992 9.6816406 28.035156 A 1.9 1.9 0 0 0 11.619141 26.173828 A 1.9 1.9 0 0 0 9.7578125 24.234375 C 8.2332181 24.203631 7.1457627 23.81072 6.4902344 23.216797 C 5.8347061 22.622874 5.3996037 21.763867 5.4472656 20.050781 C 5.4852406 18.685985 6.1977849 17.924393 7.3847656 17.240234 C 8.5717463 16.556076 10.198303 16.216155 10.916016 16.181641 A 1.90019 1.90019 0 0 0 12.724609 14.318359 C 12.747427 13.05978 13.174567 11.292673 14.208984 9.9921875 C 15.243401 8.6917024 16.798634 7.6783859 19.832031 7.6992188 C 22.875365 7.7200895 25.540063 9.4247175 27.171875 12.005859 A 1.90019 1.90019 0 0 0 29.496094 12.75 C 30.25877 12.43879 30.88633 12.364911 31.296875 12.417969 C 31.70742 12.471026 31.918276 12.580394 32.173828 12.894531 C 32.680154 13.516923 32.726078 14.290297 31.804688 15.5625 A 1.90019 1.90019 0 0 0 33.132812 18.564453 C 34.299222 18.694 35.428472 19.123644 36.146484 19.679688 C 36.864496 20.235731 37.187054 20.778431 37.191406 21.59375 A 1.9 1.9 0 0 0 39.101562 23.484375 A 1.9 1.9 0 0 0 40.992188 21.574219 C 40.98124 19.523587 39.892914 17.775658 38.472656 16.675781 C 37.716443 16.090154 36.864722 15.667905 35.972656 15.353516 C 36.414607 13.661089 36.248663 11.882139 35.121094 10.496094 C 34.274805 9.4557911 33.039514 8.8105473 31.785156 8.6484375 C 31.0049 8.5475992 30.22792 8.6462397 29.457031 8.8242188 C 27.162436 5.935303 23.785211 3.9253605 19.859375 3.8984375 z M 25.224609 19.964844 C 21.233947 19.937437 18.307408 21.548748 16.601562 23.693359 C 15.318561 25.306366 14.804714 27.062972 14.550781 28.705078 C 13.397597 28.920908 12.143752 29.268873 10.851562 30.013672 C 8.9587482 31.104662 7.0913706 33.14933 7.0117188 36.011719 C 6.9417707 38.525827 7.7608072 40.698868 9.3046875 42.097656 C 10.848568 43.496445 12.906751 44.058406 15.046875 44.101562 A 1.9 1.9 0 0 0 16.984375 42.240234 A 1.9 1.9 0 0 0 15.123047 40.300781 C 13.598451 40.270037 12.510996 39.877125 11.855469 39.283203 C 11.199942 38.689282 10.762885 37.830278 10.810547 36.117188 C 10.848525 34.752395 11.56302 33.990798 12.75 33.306641 C 13.93698 32.622483 15.561584 32.282561 16.279297 32.248047 A 1.90019 1.90019 0 0 0 18.087891 30.384766 C 18.110708 29.126188 18.539799 27.359079 19.574219 26.058594 C 20.608638 24.758108 22.163868 23.744792 25.197266 23.765625 C 28.240588 23.786496 30.905299 25.491135 32.537109 28.072266 A 1.90019 1.90019 0 0 0 34.861328 28.816406 C 35.623999 28.505201 36.25156 28.431317 36.662109 28.484375 C 37.072658 28.537433 37.283507 28.6468 37.539062 28.960938 C 38.045393 29.583346 38.08936 30.356721 37.167969 31.628906 A 1.90019 1.90019 0 0 0 38.498047 34.630859 C 39.664464 34.76041 40.793707 35.19005 41.511719 35.746094 C 42.221739 36.295949 42.53946 36.836438 42.550781 37.636719 C 42.543936 37.998538 42.414028 38.650202 41.880859 39.181641 C 41.343549 39.717208 40.297719 40.323204 37.916016 40.300781 A 1.90019 1.90019 0 0 0 37.898438 40.300781 L 20.933594 40.300781 A 1.9 1.9 0 0 0 19.033203 42.201172 A 1.9 1.9 0 0 0 20.933594 44.101562 L 37.880859 44.101562 C 40.970356 44.130649 43.194166 43.236942 44.5625 41.873047 C 45.930834 40.509152 46.339256 38.869939 46.355469 37.675781 A 1.90019 1.90019 0 0 0 46.355469 37.640625 C 46.344521 35.589999 45.258147 33.842064 43.837891 32.742188 C 43.081678 32.15656 42.229956 31.734313 41.337891 31.419922 C 41.779796 29.727537 41.61385 27.94851 40.486328 26.5625 C 39.640034 25.522207 38.404744 24.876953 37.150391 24.714844 C 36.370137 24.614006 35.593152 24.712649 34.822266 24.890625 C 32.527668 22.001716 29.150438 19.991767 25.224609 19.964844 z "  fill="#008055"/>
</svg>
