<?xml version="1.0" encoding="UTF-8" standalone="no"?>
<svg
   viewBox="0 0 576 512"
   version="1.1"
   id="svg4"
   sodipodi:docname="camera-movie.svg"
   inkscape:version="1.2.2 (b0a8486541, 2022-12-01)"
   xmlns:inkscape="http://www.inkscape.org/namespaces/inkscape"
   xmlns:sodipodi="http://sodipodi.sourceforge.net/DTD/sodipodi-0.dtd"
   xmlns="http://www.w3.org/2000/svg"
   xmlns:svg="http://www.w3.org/2000/svg">
  <defs
     id="defs8" />
  <sodipodi:namedview
     id="namedview6"
     pagecolor="#505050"
     bordercolor="#ffffff"
     borderopacity="1"
     inkscape:showpageshadow="0"
     inkscape:pageopacity="0"
     inkscape:pagecheckerboard="1"
     inkscape:deskcolor="#505050"
     showgrid="false"
     inkscape:zoom="1.7070312"
     inkscape:cx="170.7643"
     inkscape:cy="256"
     inkscape:window-width="934"
     inkscape:window-height="992"
     inkscape:window-x="0"
     inkscape:window-y="0"
     inkscape:window-maximized="1"
     inkscape:current-layer="svg4" />
  <!--! Font Awesome Pro 6.1.0 by @fontawesome - https://fontawesome.com License - https://fontawesome.com/license (Commercial License) Copyright 2022 Fonticons, Inc. -->
  <path
     d="M368 288H31.1C14.33 288 0 302.3 0 319.1S14.33 352 31.1 352h32L64 464C64 490.5 85.49 512 112 512h256c26.51 0 48-21.49 48-48v-128C416 309.5 394.5 288 368 288zM352 0C303.4 0 261.8 27.38 240 67.25C218.3 27.38 176.6 0 128 0c-70.75 0-128 57.25-128 128S57.23 255.1 127.1 255.1L352 256c70.75 0 128-57.25 128-128S422.8 0 352 0zM128 192c-35.38 0-64-28.62-64-64s28.62-64 64-64s64 28.62 64 64S163.4 192 128 192zM352 192c-35.38 0-64-28.62-64-64s28.62-64 64-64s64 28.62 64 64S387.4 192 352 192zM524.8 262.5L448 320v128l76.76 57.54C545.9 521.4 576 506.3 576 479.9V288C576 261.7 545.9 246.6 524.8 262.5z"
     id="path2"
     style="fill:#cdd6f4;fill-opacity:1" />
</svg>
