<svg xmlns="http://www.w3.org/2000/svg" width="48" height="48">
	<path d="m 24.027053,3.0041523 c -3.475511,-0.00136 -6.96877,0.8447149 -10.138672,2.5781249 a 2.1002099,2.1002099 0 0 0 -0.07031,0.04102 c -1.431407,0.856464 -2.613299,1.598971 -3.050781,3.230469 -0.218741,0.815748 -0.06444,1.7027908 0.222656,2.3359368 0.287092,0.633146 0.660699,1.103859 1.064453,1.568359 l 20.646485,24.810547 a 2.1002099,2.1002099 0 0 0 0.07226,0.08203 c 0.429536,0.46448 0.303522,0.471646 0.330078,0.351563 0.02656,-0.120083 -0.03786,0.197752 -0.917968,0.6875 C 25.29963,42.520756 17.081186,41.118856 11.579787,35.207277 5.5851112,28.458645 6.4194652,20.784716 9.6149432,15.199465 a 2.0999999,2.0999999 0 0 0 -0.78125,-2.865235 2.0999999,2.0999999 0 0 0 -2.865234,0.779297 c -3.908498,6.831511 -4.738221,16.787089 2.484375,24.902344 a 2.1002099,2.1002099 0 0 0 0.029297,0.0332 c 6.7221408,7.242926 17.2023348,9.066117 25.7460928,4.3125 a 2.1002099,2.1002099 0 0 0 0,-0.002 c 1.444393,-0.803753 2.629256,-1.880739 2.976563,-3.451172 0.347307,-1.570433 -0.387645,-3.069154 -1.34961,-4.109375 l 0.07422,0.08398 -20.675781,-24.845703 a 2.1002099,2.1002099 0 0 0 -0.0293,-0.03516 c -0.10517,-0.1209928 -0.09444,-0.1242198 -0.158203,-0.2109368 0.01464,0.06194 0.08254,-0.04211 0.847656,-0.527344 6.751089,-3.686086 15.372627,-2.345312 20.640625,3.4414058 5.647388,6.545712 5.015054,14.190533 2.097657,19.798828 a 2.0999999,2.0999999 0 0 0 0.894531,2.832031 2.0999999,2.0999999 0 0 0 2.832031,-0.894531 c 3.557639,-6.83907 4.185521,-16.592279 -2.667969,-24.5097658 a 2.1002099,2.1002099 0 0 0 -0.0332,-0.03711 C 35.562215,5.3637072 29.819569,3.0064206 24.027053,3.0041523 Z" fill="#008055"/>
</svg>
