<svg xmlns="http://www.w3.org/2000/svg" width="48" height="48">
	<path d="m 14.375,6.5273435 c -1.776714,0 -3.45066,0.51673 -4.7050775,1.617188 -1.254419,1.100458 -1.976563,2.7759985 -1.976563,4.5527345 V 35.28125 c 0,1.878149 0.687646,3.628639 1.990235,4.720703 1.3025855,1.092065 2.9709955,1.470703 4.6914055,1.470703 h 19.623047 c 1.766467,0 3.41256,-0.616205 4.5625,-1.761718 1.14994,-1.145514 1.746094,-2.756937 1.746094,-4.429688 V 15.273437 c 0,-1.787282 -0.58276,-3.468503 -1.789063,-4.59375 C 37.311274,9.5544415 35.676648,9.1035155 33.998047,9.1035155 H 25.8125 a 2,2 0 0 0 -2,2.0000005 2,2 0 0 0 2,2 h 8.185547 c 0.989388,0 1.510117,0.237976 1.791016,0.5 0.280898,0.262024 0.517578,0.666345 0.517578,1.669921 V 35.28125 c 0,0.77114 -0.230005,1.256704 -0.570313,1.595703 -0.340308,0.338998 -0.848917,0.595703 -1.738281,0.595703 H 14.375 c -1.121831,0 -1.793472,-0.260483 -2.121094,-0.535156 -0.327622,-0.274673 -0.560547,-0.619408 -0.560547,-1.65625 V 12.697266 c 0,-0.797675 0.224689,-1.205976 0.613281,-1.546875 0.388594,-0.3409 1.053783,-0.623047 2.06836,-0.623047 h 7.722656 a 2,2 0 0 0 2,-2.0000005 2,2 0 0 0 -2,-2 z m 9.505859,10.1191405 a 1.9,1.9 0 0 0 -1.90039,1.900391 v 4.736328 h -4.736328 a 1.9,1.9 0 0 0 -1.900391,1.900391 1.9,1.9 0 0 0 1.900391,1.90039 h 4.736328 v 4.736329 a 1.9,1.9 0 0 0 1.90039,1.90039 1.9,1.9 0 0 0 1.900391,-1.90039 v -4.736329 h 4.736328 a 1.9,1.9 0 0 0 1.900391,-1.90039 1.9,1.9 0 0 0 -1.900391,-1.900391 H 25.78125 v -4.736328 a 1.9,1.9 0 0 0 -1.900391,-1.900391 z" fill="#008055"/>
</svg>
