<svg xmlns="http://www.w3.org/2000/svg" width="48" height="48">
	<path d="m 24.175059,2.7154339 c -2.760207,0.047244 -5.5368,0.6279843 -8.173828,1.7792969 -3.164435,1.381576 -5.863581,3.4693514 -7.9531246,6.0195312 -3.482574,4.2503 -5.273458,9.788021 -4.720703,15.501953 a 2.1968433,2.2031624 85.000004 0 0 2.402344,1.97461 2.1968433,2.2031624 85.000004 0 0 1.982421,-2.398438 C 7.0090114,18.323709 11.056525,11.447011 17.764903,8.5181683 24.473281,5.5893244 32.288682,7.2874499 37.1692,12.733012 c 4.880518,5.445562 5.695489,13.376773 2.02539,19.695313 -3.670098,6.318539 -10.97495,9.561611 -18.140625,8.050781 a 2.1968433,2.2031624 85.000004 0 0 -2.611328,1.695313 2.1968433,2.2031624 85.000004 0 0 1.699219,2.603515 C 29.15374,46.678023 38.390189,42.578075 43.00709,34.629497 47.623991,26.680917 46.59384,16.651431 40.456309,9.8033247 36.236756,5.0952509 30.247515,2.611497 24.175059,2.7154339 Z m 0.279297,6.2480469 A 2.2,2.2 0 0 0 22.255137,11.1627 v 12.591797 a 2.20022,2.20022 0 0 0 0.650391,1.5625 l 6.443359,6.388672 a 2.2,2.2 0 0 0 3.111328,-0.01367 2.2,2.2 0 0 0 -0.01172,-3.111328 L 26.655528,22.836528 V 11.1627 A 2.2,2.2 0 0 0 24.454356,8.9634808 Z M 12.927012,22.125591 A 2.2,2.2 0 0 0 10.72584,24.326762 V 31.50645 H 3.5188094 a 2.2,2.2 0 0 0 -2.201172,2.201172 2.2,2.2 0 0 0 2.201172,2.199219 H 10.72584 v 7.18164 a 2.2,2.2 0 0 0 2.201172,2.199219 2.2,2.2 0 0 0 2.199219,-2.199219 v -7.18164 h 7.207031 a 2.2,2.2 0 0 0 2.201172,-2.199219 2.2,2.2 0 0 0 -2.201172,-2.201172 h -7.207031 v -7.179688 a 2.2,2.2 0 0 0 -2.199219,-2.201171 z" fill="#008055"/>
</svg>
