<svg xmlns="http://www.w3.org/2000/svg" width="48" height="48">
	<path d="m 14.219727,1.540582 c -1.807688,0 -3.493635,0.7813703 -4.578125,2.0625 -1.08449,1.2811297 -1.591797,2.9615667 -1.591797,4.7382809 a 2,2 0 0 0 2,2.0000001 2,2 0 0 0 2,-2.0000001 c 0,-1.0145842 0.287646,-1.7327012 0.644531,-2.1542965 0.356885,-0.4215953 0.758578,-0.6464844 1.525391,-0.6464844 h 19.539062 c 1.009496,0 1.340378,0.230198 1.632813,0.5917969 0.292435,0.3615989 0.558593,1.0871834 0.558593,2.208984 V 41.269098 c 0,1.03367 -0.243949,1.020894 -0.65625,1.109375 -0.4123,0.08848 -1.046677,-0.0795 -1.410156,-0.609375 a 2.0002,2.0002 0 0 0 -0.0078,-0.0098 l -6.626954,-9.533203 a 2.0002,2.0002 0 0 0 -0.02344,-0.03125 c -0.755721,-1.041775 -1.962874,-1.918643 -3.388672,-1.841797 -1.425798,0.07685 -2.49358,1.019172 -3.189453,2.089844 l -6.382812,9.40039 c -0.314942,0.452011 -1.024207,0.681635 -1.496094,0.585938 -0.471888,-0.0957 -0.71875,-0.06916 -0.71875,-1.160156 V 13.917535 a 2,2 0 0 0 -2,-2 2,2 0 0 0 -2,2 v 27.351563 c 0,2.615902 1.871515,4.663875 3.923828,5.080078 2.052313,0.416203 4.27136,-0.350813 5.574219,-2.220703 a 2.0002,2.0002 0 0 0 0.01367,-0.01953 L 23.9795,34.655817 a 2.0002,2.0002 0 0 0 0.02148,-0.0332 c 0.0486,-0.07477 -0.0249,-0.0026 0.0098,-0.04688 l 6.580078,9.466797 -0.0059,-0.01172 c 1.293421,1.885527 3.515351,2.693782 5.546875,2.257813 2.031524,-0.435969 3.818359,-2.473801 3.818359,-5.019531 V 8.3413629 c 0,-1.7203979 -0.37295,-3.3962079 -1.447265,-4.724609 C 37.428615,2.2883528 35.664294,1.540582 33.758789,1.540582 Z m 9.779296,7.3789059 a 2,2 0 0 0 -2,2.0000001 v 4.636719 h -4.636718 a 2,2 0 0 0 -2,2 2,2 0 0 0 2,2 h 4.636718 v 4.636719 a 2,2 0 0 0 2,2 2,2 0 0 0 2,-2 v -4.636719 h 4.636719 a 2,2 0 0 0 2,-2 2,2 0 0 0 -2,-2 h -4.636719 v -4.636719 a 2,2 0 0 0 -2,-2.0000001 z" fill="#008055"/>
</svg>
