<svg xmlns="http://www.w3.org/2000/svg" width="48" height="48">
	<path d="m 16.192383,7.3007815 c -1.277586,0 -2.356638,0.334512 -3.113281,0.970703 -0.756643,0.63619 -1.066711,1.465245 -1.197266,1.9882815 a 1.7,1.7 0 0 0 1.236328,2.0625 1.7,1.7 0 0 0 2.0625,-1.238282 c 0.04584,-0.183664 0.05926,-0.188503 0.08594,-0.210937 0.02668,-0.02243 0.191067,-0.171875 0.925781,-0.171875 H 30.12793 c 0.583478,0 0.83597,0.151509 0.990234,0.304687 0.154264,0.153179 0.275391,0.377688 0.275391,0.833985 v 6.544922 c 0,0.622551 -0.128648,0.780452 -0.232422,0.876953 -0.103774,0.0965 -0.369042,0.248047 -1.033203,0.248047 H 16.192383 c -0.678157,0 -1.137204,-0.189458 -1.371094,-0.378907 -0.233889,-0.18945 -0.328125,-0.336428 -0.328125,-0.746093 v -1.423828 c 0,-1.5507 -0.821126,-2.991441 -1.9375,-3.869141 a 1.70017,1.70017 0 0 0 -0.06836,-0.05078 L 6.1708985,8.5624995 A 1.70017,1.70017 0 0 0 6.0556642,8.4882815 C 5.2912531,8.0340955 4.2405935,7.7267795 3.2177735,8.2636715 2.1949535,8.8005635 1.8336741,9.9545795 1.8544922,10.878905 l -0.037109,8.648439 0.00195,-0.03711 c -0.012338,0.464186 0.057411,0.978378 0.3476562,1.474609 0.2902448,0.496231 0.8320527,0.896663 1.3457032,1.044922 1.0273008,0.296518 1.7760301,-0.03388 2.4394531,-0.400391 a 1.70017,1.70017 0 0 0 0.2128907,-0.138672 l 3.484375,-2.669921 a 1.7,1.7 0 0 0 0.316409,-2.382812 1.7,1.7 0 0 0 -2.3847656,-0.316406 l -2.3554688,1.804687 0.023437,-5.828125 5.212891,3.695312 c 0.607562,0.47751 0.63086,0.484781 0.63086,1.187501 v 1.423828 c 0,1.334333 0.61628,2.60167 1.58789,3.388672 0.971611,0.786999 2.213676,1.136717 3.511719,1.136717 H 30.12793 c 1.224738,0 2.442758,-0.314904 3.349609,-1.158203 0.906851,-0.843298 1.316406,-2.099139 1.316406,-3.367187 v -6.544921 c 0,-1.199303 -0.420786,-2.3936235 -1.279296,-3.2460945 -0.858512,-0.852471 -2.089897,-1.292968 -3.386719,-1.292968 z M 17.87207,25.089844 c -1.224731,0 -2.442769,0.314898 -3.349609,1.158203 -0.90684,0.843305 -1.316406,2.099149 -1.316406,3.367187 v 6.544922 c 0,1.199301 0.420795,2.393622 1.279297,3.246094 0.858501,0.852473 2.089906,1.292969 3.386718,1.292969 h 13.935547 c 1.277564,0 2.356647,-0.334511 3.113282,-0.970703 0.756634,-0.636193 1.066715,-1.465208 1.197265,-1.988282 a 1.7,1.7 0 0 0 -1.236328,-2.0625 1.7,1.7 0 0 0 -2.0625,1.238282 c -0.04583,0.183625 -0.05926,0.188504 -0.08594,0.210937 -0.02668,0.02243 -0.191106,0.171875 -0.925782,0.171875 H 17.87207 c -0.583457,0 -0.835973,-0.151511 -0.990234,-0.304687 -0.154261,-0.153177 -0.275391,-0.377685 -0.275391,-0.833985 v -6.544922 c 0,-0.622561 0.126704,-0.780457 0.230469,-0.876953 0.103765,-0.0965 0.371008,-0.248047 1.035156,-0.248047 h 13.935547 c 0.678137,0 1.1372,0.189454 1.371094,0.378907 0.233894,0.189451 0.328125,0.336433 0.328125,0.746093 v 1.423829 c 0,1.550638 0.821033,2.991416 1.9375,3.86914 a 1.70017,1.70017 0 0 0 0.06836,0.05078 l 6.316407,4.478515 a 1.70017,1.70017 0 0 0 0.115234,0.07422 c 0.764313,0.454133 1.815117,0.76158 2.837891,0.224609 1.022772,-0.53697 1.383759,-1.691174 1.36328,-2.615233 l 0.03711,-8.648438 -0.002,0.03711 c 0.01232,-0.464174 -0.05742,-0.978401 -0.347656,-1.47461 -0.290238,-0.496209 -0.832052,-0.896657 -1.345703,-1.044921 -1.027304,-0.296528 -1.776046,0.03388 -2.439453,0.40039 a 1.70017,1.70017 0 0 0 -0.212891,0.138672 l -3.484375,2.669922 a 1.7,1.7 0 0 0 -0.314453,2.384766 1.7,1.7 0 0 0 2.382812,0.314453 l 2.355469,-1.804688 -0.02344,5.828125 -5.212891,-3.695312 c -0.607592,-0.477507 -0.630859,-0.484711 -0.630859,-1.1875 v -1.423828 c 0,-1.334341 -0.616282,-2.601675 -1.587891,-3.388672 -0.97156,-0.786999 -2.213637,-1.136719 -3.51167,-1.136719 z" fill="#008055"/>
</svg>
