<svg xmlns="http://www.w3.org/2000/svg" width="48" height="48">
	<path d="m 8.4951176,3.6714725 c -1.704216,0 -3.272952,0.501558 -4.34961,1.609375 -1.076657,1.107817 -1.519531,2.652363 -1.519531,4.279297 L 2.5869146,37.82577 a 1.70017,1.70017 0 0 0 0,0.002 c 0,1.607549 0.458038,3.173446 1.455078,4.402344 0.997039,1.228897 2.574286,2.044568 4.365234,2.097656 a 1.7,1.7 0 0 0 1.7500004,-1.648438 1.7,1.7 0 0 0 -1.6484384,-1.75 c -0.901151,-0.02671 -1.411236,-0.330369 -1.826171,-0.841796 -0.414609,-0.511024 -0.69487,-1.305265 -0.695313,-2.257813 v -0.002 L 6.0263676,9.5620975 a 1.70017,1.70017 0 0 0 0,-0.002 c 0,-1.041067 0.245998,-1.590524 0.55664,-1.910156 0.310643,-0.319633 0.825526,-0.578126 1.91211,-0.578126 H 39.522461 c 0.866471,0 1.446854,0.251887 1.832032,0.623047 0.385178,0.371161 0.658203,0.910113 0.658203,1.865235 V 37.827676 c 0,1.166696 -0.271971,1.962375 -0.623047,2.396484 -0.351076,0.434109 -0.790492,0.703125 -1.867188,0.703125 H 14.036133 a 1.7,1.7 0 0 0 -1.699218,1.701172 1.7,1.7 0 0 0 1.699218,1.699219 h 25.486328 c 1.838304,0 3.494092,-0.708953 4.509766,-1.964844 1.015674,-1.255891 1.380859,-2.859652 1.380859,-4.535156 V 9.5601445 c 0,-1.700678 -0.599871,-3.255114 -1.699218,-4.314453 -1.099347,-1.05934 -2.613977,-1.574219 -4.191407,-1.574219 z m 4.0019534,5.599609 c -1.198627,0 -2.249176,0.344803 -2.9667974,1.0820315 -0.717621,0.737229 -1.027344,1.776352 -1.027344,2.919922 l -0.027344,20.939454 a 0.90008998,0.90008998 0 0 0 0,0.002 c 0,1.122043 0.321885,2.200647 1,3.035156 0.6781164,0.834509 1.7328694,1.385367 2.9667974,1.421875 a 0.89999998,0.89999998 0 0 0 0.927735,-0.873047 0.89999998,0.89999998 0 0 0 -0.873047,-0.925781 c -0.763572,-0.02259 -1.25544,-0.303022 -1.625,-0.757813 -0.369214,-0.454365 -0.595279,-1.124103 -0.595703,-1.898437 v -0.002 l 0.02734,-20.939453 a 0.90008998,0.90008998 0 0 0 0,-0.002 c 0,-0.83293 0.203896,-1.343816 0.515625,-1.664062 0.311729,-0.320246 0.805562,-0.539063 1.677735,-0.539063 h 23.021484 c 0.718815,0 1.249762,0.214647 1.611328,0.5625 0.361566,0.347854 0.59961,0.854532 0.59961,1.640625 v 20.941407 c 0,0.917902 -0.212064,1.593446 -0.542969,2.001953 -0.330906,0.408507 -0.78779,0.654297 -1.667969,0.654297 h -18.9082 a 0.89999998,0.89999998 0 0 0 -0.900391,0.90039 0.89999998,0.89999998 0 0 0 0.900391,0.900391 h 18.908203 c 1.282722,0 2.383187,-0.478823 3.066406,-1.322266 0.68322,-0.843443 0.94336,-1.947068 0.94336,-3.134765 V 13.273035 c 0,-1.181407 -0.410457,-2.225628 -1.150391,-2.9375 C 37.637996,9.6236635 36.61314,9.2710815 35.518555,9.2710815 Z m 11.658203,5.6757815 a 1.60016,1.60016 0 0 0 -1.367188,0.78711 l -7.970703,13.509766 a 1.6,1.6 0 0 0 0.564453,2.191406 1.6,1.6 0 0 0 2.191407,-0.566406 l 1.814453,-3.074219 h 9.292969 l 1.720703,3.048828 a 1.6,1.6 0 0 0 2.179687,0.605469 1.6,1.6 0 0 0 0.607422,-2.179688 L 25.559571,15.759363 a 1.60016,1.60016 0 0 0 -1.404297,-0.8125 z m -0.01953,4.798829 2.738281,4.849609 h -5.599609 z" fill="#008055"/>
</svg>
