<svg xmlns="http://www.w3.org/2000/svg" width="48" height="48">
	<path d="m 8.6279297,3.5293693 c -1.7203939,0 -3.3962058,0.372957 -4.7246093,1.447266 -1.3284035,1.074306 -2.0761719,2.836686 -2.0761719,4.742187 V 29.259838 c 0,1.807663 0.7794264,3.491683 2.0605469,4.576171 1.2811204,1.08449 2.963505,1.59375 4.7402343,1.59375 2.1778223,0 3.3671603,0.748209 4.0449223,1.798829 0.677761,1.050619 0.887746,2.627572 0.203125,4.580078 a 2.0002,2.0002 0 0 0 2.326171,2.613281 c 6.051893,-1.361186 10.683387,-5.874135 10.84375,-10.929688 a 2,2 0 0 0 -1.935546,-2.0625 2,2 0 0 0 -2.0625,1.935547 c -0.0577,1.819179 -1.943773,4.441636 -4.857422,6.03125 -0.02396,-1.565071 -0.335424,-3.063549 -1.15625,-4.335937 -1.461988,-2.266273 -4.184673,-3.63086 -7.4062503,-3.63086 -1.0145706,0 -1.7326923,-0.289589 -2.1542968,-0.646484 C 6.0520283,30.42638 5.8271485,30.026594 5.8271485,29.259838 V 9.7188223 c 0,-1.009489 0.2302004,-1.340382 0.5917969,-1.632813 0.3615965,-0.29243 1.0871783,-0.55664 2.2089843,-0.55664 H 39.983398 c 0.889343,0 1.339954,0.244248 1.650391,0.566406 0.310437,0.322158 0.539063,0.819315 0.539063,1.623047 V 29.259838 c 0,1.032125 -0.238208,1.45423 -0.488282,1.697265 -0.250073,0.243036 -0.711779,0.472656 -1.701172,0.472656 H 29.65918 a 2,2 0 0 0 -2,2 2,2 0 0 0 2,2 h 10.324218 c 1.678608,0 3.312858,-0.459276 4.490235,-1.603515 1.177377,-1.14424 1.699219,-2.807671 1.699219,-4.566406 V 9.7188223 c 0,-1.640158 -0.53814,-3.236084 -1.658204,-4.398437 -1.120063,-1.162355 -2.764792,-1.791016 -4.53125,-1.791016 z M 24.024414,11.369213 a 1.9,1.9 0 0 0 -1.900391,1.90039 v 4.738282 h -4.736328 a 1.9,1.9 0 0 0 -1.90039,1.898437 1.9,1.9 0 0 0 1.90039,1.900391 h 4.736328 v 4.738281 a 1.9,1.9 0 0 0 1.900391,1.898437 1.9,1.9 0 0 0 1.898438,-1.898437 v -4.738281 h 4.738281 a 1.9,1.9 0 0 0 1.90039,-1.900391 1.9,1.9 0 0 0 -1.90039,-1.898437 h -4.738281 v -4.738282 a 1.9,1.9 0 0 0 -1.898438,-1.90039 z" fill="#008055"/>
</svg>
