<svg xmlns="http://www.w3.org/2000/svg" width="48" height="48">
	<path d="m 36.017265,2.1599282 c -1.48103,-0.1230899 -3.030425,0.446441 -4.15625,1.5722655 a 1.90019,1.90019 0 0 0 -0.002,0.002 L 8.1442194,27.490007 a 1.90019,1.90019 0 0 0 -0.023438,0.02344 c -0.997159,1.034548 -1.947181,2.408193 -2.476562,4.00586 a 1.90019,1.90019 0 0 0 -0.019532,0.05859 l -3.496094,11.839844 a 1.90019,1.90019 0 0 0 2.378907,2.355469 L 17.335625,41.855241 a 1.9,1.9 0 0 0 1.261718,-2.371094 1.9,1.9 0 0 0 -2.371093,-1.261719 l -9.4531246,2.884766 2.478515,-8.392578 c 0.279039,-0.842134 0.9933676,-1.929401 1.6054686,-2.564453 L 34.548515,6.4196937 c 0.426576,-0.426575 0.739368,-0.507141 1.154297,-0.472656 0.414929,0.03449 0.982759,0.267949 1.56836,0.853516 l 4.195312,4.1953123 c 0.57291,0.572857 0.680248,0.941338 0.683594,1.175781 0.0033,0.234443 -0.07445,0.580329 -0.671875,1.177735 L 21.278984,33.482194 a 1.90019,1.90019 0 0 0 -0.02148,0.02148 c -0.379471,0.390394 -0.459273,0.318644 -0.314453,0.31836 0.144819,-2.84e-4 0.105719,0.08717 -0.238282,-0.277344 a 1.90019,1.90019 0 0 0 -0.04492,-0.04688 l -4.289062,-4.25 a 1.9,1.9 0 0 0 -2.6875,0.01172 1.9,1.9 0 0 0 0.01172,2.6875 l 4.289062,4.25 -0.04297,-0.04492 c 0.752149,0.79699 1.780104,1.471159 3.009766,1.46875 1.229662,-0.0024 2.251101,-0.666144 3.03125,-1.46875 L 44.161797,16.038835 a 1.90019,1.90019 0 0 0 0.0039,-0.0039 C 45.251223,14.949441 45.969779,13.579774 45.9489,12.116967 45.92802,10.65416 45.189918,9.3442157 44.153978,8.3083727 L 39.956719,4.1130537 C 38.859119,3.0155193 37.498296,2.2830181 36.017265,2.1599282 Z" fill="#008055"/>
</svg>
