<svg xmlns="http://www.w3.org/2000/svg" width="48" height="48">
	<path d="m 18.34082,2.274417 c -1.174561,0 -2.36849,0.221967 -3.208984,1.134765 -0.840494,0.912799 -0.931641,2.01087 -0.931641,2.976563 v 9.162109 a 1.8,1.8 0 0 0 1.798828,1.800781 1.8,1.8 0 0 0 1.800782,-1.800781 V 6.385745 c 0,-0.266994 0.02203,-0.38373 0.03711,-0.47461 0.08883,-0.01513 0.202055,-0.03711 0.503906,-0.03711 h 11.710938 c 0.224434,0 0.264925,0.01152 0.351562,0.02148 0.01724,0.11103 0.04102,0.216227 0.04102,0.490235 v 9.162109 a 1.8,1.8 0 0 0 1.798828,1.800781 1.8,1.8 0 0 0 1.800781,-1.800781 V 6.38574 c 0,-1.013424 -0.04912,-2.085191 -0.892578,-3.017578 -0.843455,-0.932389 -2.017363,-1.09375 -3.099609,-1.09375 z m -7.941406,16.773437 c -1.7054497,0 -3.3578819,0.371007 -4.6621093,1.425781 -1.3042276,1.054775 -2.0390626,2.782922 -2.0390626,4.666016 v 7.8125 c 0,1.781642 0.7657582,3.433697 2.0253907,4.5 1.2596324,1.066303 2.9181006,1.570312 4.6757812,1.570312 a 1.9,1.9 0 0 0 1.900391,-1.90039 1.9,1.9 0 0 0 -1.900391,-1.900391 c -1.0336093,0 -1.7775981,-0.294825 -2.2207031,-0.669922 -0.443105,-0.375097 -0.6796875,-0.806851 -0.6796875,-1.599609 l -0.00195,-7.8125 c 0,-1.031907 0.2451018,-1.398962 0.6308594,-1.710938 0.3857575,-0.311975 1.1346941,-0.580078 2.2714842,-0.580078 H 38.21387 c 0.911286,0 1.391978,0.25449 1.722656,0.597656 0.330679,0.343168 0.566407,0.868708 0.566407,1.69336 v 7.8125 c 0,1.050311 -0.244321,1.503966 -0.517578,1.769531 -0.273258,0.265566 -0.764864,0.5 -1.771485,0.5 a 1.9,1.9 0 0 0 -1.90039,1.900391 1.9,1.9 0 0 0 1.90039,1.90039 c 1.661369,0 3.265722,-0.454461 4.419922,-1.576172 1.1542,-1.121709 1.667969,-2.753551 1.667969,-4.49414 v -7.8125 c 0,-1.619248 -0.529082,-3.18872 -1.628906,-4.330078 -1.099824,-1.141359 -2.71444,-1.761719 -4.458985,-1.761719 z m 7.572266,13.314453 c -1.066234,0 -2.200478,0.178025 -3.03125,1.054688 -0.830772,0.876662 -0.933618,1.95013 -0.933594,2.904296 v 5.660157 c 0,0.978215 0.249012,2.109197 1.111328,2.867187 0.862316,0.757991 1.886078,0.876953 2.853516,0.876953 h 12.535156 c 1.017413,0 2.06882,-0.223148 2.873047,-0.972656 0.804227,-0.749508 1.080122,-1.832453 1.080078,-2.773437 v -5.197266 a 1.8,1.8 0 0 0 -1.800781,-1.800781 1.8,1.8 0 0 0 -1.798828,1.800781 v 5.199219 c 3e-6,0.08168 -0.0017,0.07394 -0.0039,0.111328 -0.06998,0.01387 -0.14987,0.0332 -0.349609,0.0332 H 17.97168 c -0.204292,0 -0.274441,-0.01716 -0.363282,-0.03125 -0.002,-0.04773 -0.002,-0.02839 -0.002,-0.113281 v -5.660157 c -5e-6,-0.200031 0.01389,-0.251478 0.02539,-0.335937 0.08248,-0.01057 0.127716,-0.02344 0.339844,-0.02344 h 11.849609 a 1.8,1.8 0 0 0 1.800781,-1.800782 1.8,1.8 0 0 0 -1.800781,-1.798828 z" fill="#008055"/>
</svg>
