<svg xmlns="http://www.w3.org/2000/svg" width="48" height="48">
	<path d="m 14.808593,1.7353514 c -1.776729,0 -3.457138,0.5092732 -4.738281,1.59375 C 8.78917,4.4135779 8.0078126,6.0975835 8.0078126,7.9052732 V 40.075195 c 0,1.905502 0.7497216,3.667881 2.0781244,4.742188 1.328404,1.074307 3.002262,1.447266 4.722656,1.447266 h 18.996094 c 1.766491,0 3.409213,-0.62866 4.529297,-1.791016 1.120084,-1.162356 1.658203,-2.758279 1.658203,-4.398438 V 14.805664 c 0,-1.758759 -0.521838,-3.422183 -1.699219,-4.566406 -1.17738,-1.1442237 -2.80971,-1.603516 -4.488281,-1.603516 h -5.59375 a 2,2 0 0 0 -2,2 2,2 0 0 0 2,2 h 5.59375 c 0.98933,0 1.451077,0.229605 1.701172,0.472657 0.250095,0.243051 0.486328,0.665164 0.486328,1.697265 v 25.269531 c 0,0.803732 -0.226669,1.300891 -0.537109,1.623047 -0.310441,0.322157 -0.760981,0.566407 -1.650391,0.566407 H 14.808593 c -1.121806,0 -1.847387,-0.264211 -2.208984,-0.556641 -0.361597,-0.29243 -0.591797,-0.623323 -0.591797,-1.632813 V 7.9052732 c 0,-0.7667303 0.224852,-1.1665291 0.646485,-1.5234375 0.421631,-0.3569083 1.139726,-0.6464843 2.154296,-0.6464843 H 33.5625 a 2,2 0 0 0 2,-2 2,2 0 0 0 -2,-2 z m 9.242188,18.1367196 a 1.9,1.9 0 0 0 -1.900391,1.90039 v 4.736328 h -4.736328 a 1.9,1.9 0 0 0 -1.900391,1.900391 1.9,1.9 0 0 0 1.900391,1.900391 h 4.736328 v 4.736328 a 1.9,1.9 0 0 0 1.900391,1.90039 1.9,1.9 0 0 0 1.90039,-1.90039 V 30.309571 H 30.6875 A 1.9,1.9 0 0 0 32.58789,28.40918 1.9,1.9 0 0 0 30.6875,26.508789 h -4.736329 v -4.736328 a 1.9,1.9 0 0 0 -1.90039,-1.90039 z" fill="#008055"/>
</svg>
