<svg xmlns="http://www.w3.org/2000/svg" width="48" height="48">
	<path d="m 28.836576,40.831975 a 2.20022,2.20022 0 0 0 1.349609,-0.445312 L 43.856108,30.042912 a 2.20022,2.20022 0 0 0 0,-3.507813 L 30.186185,16.191349 a 2.20022,2.20022 0 0 0 -3.511719,1.490234 c -0.250548,2.077281 -1.924046,3.959151 -2.71289,4.617188 a 2.2,2.2 0 0 0 -0.28125,3.097656 2.2,2.2 0 0 0 3.099609,0.28125 c 0.915183,-0.763426 2.252835,-2.177786 3.208984,-4.11914 l 8.892579,6.730468 -8.990235,6.804688 c -2.063519,-4.810645 -6.409684,-9.00586 -12.595703,-9.00586 -2.86628,0 -4.959231,-0.932844 -6.677734,-3.417968 C 8.8993227,20.184741 7.6725127,15.893199 7.6725127,9.3690831 a 2.2,2.2 0 0 0 -2.199219,-2.201171 2.2,2.2 0 0 0 -2.201171,2.201171 c 0,7.0587849 1.251315,12.2252369 3.726562,15.8046879 2.475247,3.579451 6.2913553,5.314453 10.2968753,5.314453 5.065898,0 8.546701,4.322576 9.408203,8.580079 a 2.20022,2.20022 0 0 0 2.132813,1.763672 z" fill="#008055"/>
</svg>
