<svg xmlns="http://www.w3.org/2000/svg" width="48" height="48">
	<path d="M 7.3603515,4.871092 C 6.6005385,4.878392 5.8596833,5.0585338 5.1943359,5.4433576 3.8636411,6.2130053 3.092773,7.7707419 3.092773,9.3671858 V 29.437498 c 0,1.2729 0.2409905,2.515249 0.9179691,3.574219 0.6769786,1.058969 1.7022395,1.811398 2.8925781,2.386718 a 1.90019,1.90019 0 0 0 0.1035157,0.04688 l 10.4921871,4.314454 a 1.90019,1.90019 0 0 0 0.04297,0.01758 c 1.105596,0.42257 2.273864,0.975788 3.234375,1.511718 0.960511,0.535931 1.755754,1.123192 1.917969,1.285157 a 1.90019,1.90019 0 0 0 3.242187,-1.345703 V 16.431639 c 0.08325,-1.992732 1.179601,-2.926339 3.203125,-3.898438 L 39.50879,8.9589827 a 1.90019,1.90019 0 0 0 0.02148,-0.00781 c 0.877781,-0.3149913 1.326147,-0.1861992 1.416016,-0.1367188 0.08987,0.04948 0.160156,0.012142 0.160156,0.5527344 V 29.175779 c 0,0.852977 -0.141261,1.359495 -0.363281,1.732422 -0.219132,0.368077 -0.568117,0.702167 -1.310547,1.066406 L 28.19238,36.244138 a 1.9,1.9 0 0 0 -1.101563,2.451172 1.9,1.9 0 0 0 2.451172,1.101563 l 11.376953,-4.322266 a 1.90019,1.90019 0 0 0 0.154297,-0.06641 c 1.237819,-0.600007 2.276279,-1.449267 2.935547,-2.556641 0.659268,-1.107373 0.898438,-2.374658 0.898438,-3.675781 V 9.3671858 c 0,-1.5539076 -0.768545,-3.1329398 -2.126954,-3.8808594 C 41.422409,4.738708 39.812617,4.8143074 38.24902,5.3749983 L 27.737305,8.9980452 a 1.90019,1.90019 0 0 0 -0.199219,0.082031 c -2.64253,1.2615456 -5.253874,3.5829456 -5.400391,7.2031246 a 1.90019,1.90019 0 0 0 0,0.07617 V 37.742185 C 21.123344,37.20078 20.031448,36.659236 18.899414,36.22656 L 8.5439452,31.968748 C 7.7528684,31.583605 7.4041388,31.262476 7.2138671,30.964842 7.0218557,30.664486 6.8935546,30.264298 6.8935546,29.437498 V 9.3671858 c 0,-0.5572561 0.1118748,-0.5819883 0.203125,-0.6347656 0.09125,-0.052777 0.4194966,-0.1627449 1.0917969,0.1152343 a 1.90019,1.90019 0 0 0 0.083984,0.03125 L 19.795898,13.015623 A 1.9,1.9 0 0 0 22.227539,11.869139 1.9,1.9 0 0 0 21.081055,9.4394514 L 9.555664,5.3027326 9.639648,5.3359356 C 8.8988285,5.0296254 8.1201645,4.8637947 7.3603515,4.871092 Z" fill="#008055"/>
</svg>
