<svg xmlns="http://www.w3.org/2000/svg" width="48" height="48">
	<path d="m 7.516601,3.7656716 c -0.911702,0 -1.860688,0.3361426 -2.53125,1.0234376 C 4.314791,5.476404 3.987305,6.4429674 3.987305,7.4102034 v 5.0937496 c 0,2.054921 1.282672,3.516117 2.392578,4.515624 a 1.70017,1.70017 0 0 0 0.013672,0.01172 l 8.248046,7.267578 c 0,0 0.002,0 0.002,0 0.915789,0.821455 2.430132,1.075879 3.451172,0.462891 1.021527,-0.613283 1.476562,-1.697683 1.476562,-2.787109 v -9.396485 a 1.7,1.7 0 0 0 -1.701172,-1.699218 1.7,1.7 0 0 0 -1.699219,1.699218 v 8.53711 L 8.65332,14.492234 C 7.814826,13.737141 7.385742,13.089291 7.385742,12.503953 V 7.4102034 c 0,-0.266316 0.055514,-0.270915 0.033203,-0.248047 -0.02231,0.02287 -0.057839,0.0039 0.097656,0.0039 h 8.533204 c 0.07391,0 0.06926,4.43e-4 0.09766,0.002 0.01042,0.04811 0.02344,0.103625 0.02344,0.242188 a 1.7,1.7 0 0 0 1.699219,1.701171 1.7,1.7 0 0 0 1.701172,-1.701171 c 0,-0.895028 -0.22618,-1.8482719 -0.898438,-2.5839849 -0.672257,-0.735713 -1.685232,-1.0605469 -2.623046,-1.0605469 z m 23.6875,19.1328124 c -0.464213,0.0018 -0.915761,0.10986 -1.298828,0.339843 -1.021511,0.613292 -1.476562,1.69573 -1.476562,2.785157 v 9.398437 a 1.7,1.7 0 0 0 1.699219,1.699219 1.7,1.7 0 0 0 1.701171,-1.699219 v -8.537109 l 7.515626,6.623047 c 0.83854,0.755048 1.267578,1.402942 1.267578,1.988281 v 5.091797 c 0,0.266315 -0.05356,0.270914 -0.03125,0.248047 0.02231,-0.02287 0.05792,-0.002 -0.09766,-0.002 h -8.533203 c -0.07316,0 -0.06896,-4.48e-4 -0.09766,-0.002 -0.01006,-0.04845 -0.02344,-0.105345 -0.02344,-0.24414 a 1.7,1.7 0 0 0 -1.701171,-1.699219 1.7,1.7 0 0 0 -1.699219,1.699219 c 0,0.894982 0.226182,1.848237 0.898437,2.583984 0.672256,0.735747 1.685206,1.0625 2.623047,1.0625 h 8.533203 c 0.911724,0 1.860664,-0.336137 2.53125,-1.023437 0.670587,-0.6873 0.998047,-1.655812 0.998047,-2.623047 v -5.091797 c 0,-2.054921 -1.282519,-3.516093 -2.392578,-4.515625 a 1.70017,1.70017 0 0 0 -0.01367,-0.01172 l -8.248047,-7.267578 c -0.457806,-0.411213 -1.066413,-0.680128 -1.6875,-0.769531 -0.155271,-0.02235 -0.312059,-0.0338 -0.466797,-0.0332 z" fill="#008055"/>
</svg>
