<svg xmlns="http://www.w3.org/2000/svg" width="48" height="48">
	<path d="m 20.928711,1.6269531 c -1.480507,0 -2.893523,0.425618 -3.972656,1.34375 -1.079134,0.918131 -1.736328,2.348282 -1.736328,3.867187 V 33.15039 c 0,1.593293 0.629655,3.091653 1.751953,4.003907 1.122298,0.912252 2.527847,1.222656 3.955078,1.222656 h 15.458984 c 1.477387,0 2.869068,-0.531518 3.814453,-1.517578 0.945386,-0.986061 1.394532,-2.335033 1.394532,-3.708985 V 12.480468 c 0,-1.466693 -0.434506,-2.8736489 -1.431641,-3.8476559 -0.997134,-0.974007 -2.380015,-1.361328 -3.777344,-1.361328 h -4.552734 a 1.8,1.8 0 0 0 -1.798828,1.798828 1.8,1.8 0 0 0 1.798828,1.8007809 h 4.552734 c 0.773872,0 1.097203,0.175238 1.261719,0.335938 0.164516,0.1607 0.347656,0.457381 0.347656,1.273437 V 33.15039 c 0,0.624999 -0.175767,0.98862 -0.394531,1.216797 -0.218764,0.228177 -0.530831,0.410156 -1.214844,0.410156 H 20.926758 c -0.885768,0 -1.432544,-0.210364 -1.685547,-0.416015 -0.253002,-0.205652 -0.419922,-0.41995 -0.419922,-1.210938 V 6.8378901 c 0,-0.586815 0.16023,-0.864171 0.466797,-1.125 0.306567,-0.260828 0.849533,-0.486328 1.640625,-0.486328 h 15.259766 a 1.8,1.8 0 0 0 1.800781,-1.798828 1.8,1.8 0 0 0 -1.800781,-1.800781 z m -8.814453,7.99414 c -1.480475,0 -2.8935435,0.4275709 -3.9726555,1.3457039 -1.079113,0.918131 -1.734376,2.346332 -1.734376,3.865234 l -0.00195,26.3125 c 0,1.593292 0.629657,3.091653 1.751953,4.003906 1.122298,0.912254 2.5278465,1.22461 3.9550785,1.22461 h 15.458984 c 1.477387,0 2.869068,-0.533471 3.814453,-1.519532 0.945386,-0.98606 1.394531,-2.335033 1.394531,-3.708984 a 1.8,1.8 0 0 0 -1.800781,-1.800781 1.8,1.8 0 0 0 -1.798828,1.800781 c 0,0.624998 -0.175767,0.98862 -0.394531,1.216797 -0.218764,0.228177 -0.530831,0.410156 -1.214844,0.410156 H 12.112305 c -0.885769,0 -1.432544,-0.210364 -1.685547,-0.416016 -0.253002,-0.205651 -0.419922,-0.41995 -0.419922,-1.210937 v -26.3125 c 0,-0.586808 0.160234,-0.86417 0.466797,-1.125 0.306562,-0.26083 0.849599,-0.486328 1.640625,-0.486328 a 1.8,1.8 0 0 0 1.798828,-1.798828 1.8,1.8 0 0 0 -1.798828,-1.8007819 z" fill="#008055"/>
</svg>
