<svg xmlns="http://www.w3.org/2000/svg" width="48" height="48">
	<path d="m 28.786772,7.1685534 a 2.20022,2.20022 0 0 0 -2.111328,1.9355469 c -0.250542,2.0771567 -1.926,3.9591497 -2.714844,4.6171867 a 2.2,2.2 0 0 0 -0.279297,3.09961 2.2,2.2 0 0 0 3.097656,0.279297 c 0.91527,-0.763499 2.252824,-2.177527 3.208985,-4.119141 l 8.894531,6.730469 -8.990235,6.802734 c -2.063812,-4.810053 -6.410338,-9.001953 -12.595703,-9.001953 -4.00552,0 -7.8235809,1.735002 -10.2988281,5.314453 -2.4752471,3.579451 -3.7246093,8.747856 -3.7246093,15.806641 a 2.2,2.2 0 0 0 2.1992187,2.199218 2.2,2.2 0 0 0 2.2011719,-2.199218 c 0,-6.524116 1.2248565,-10.817611 2.9433598,-13.302735 1.718502,-2.485124 3.813407,-3.417968 6.679687,-3.417968 5.065898,0 8.544743,4.322466 9.40625,8.580078 a 2.20022,2.20022 0 0 0 3.484375,1.318359 L 43.855131,21.465428 a 2.20022,2.20022 0 0 0 0,-3.507813 L 30.187162,7.6138659 a 2.20022,2.20022 0 0 0 -1.40039,-0.4453125 z" fill="#008055"/>
</svg>
