<svg xmlns="http://www.w3.org/2000/svg" width="48" height="48">
	<path d="m 14.375977,6.6279295 c -1.757661,0 -3.407851,0.5103266 -4.6406254,1.5917969 C 8.5025768,9.3011967 7.7939453,10.945978 7.7939453,12.698242 v 22.583985 c 0,1.857117 0.6749099,3.572902 1.953125,4.644531 1.2782147,1.07163 2.9234607,1.445313 4.6289067,1.445313 h 19.621094 c 1.744539,0 3.362487,-0.607072 4.492187,-1.732422 1.1297,-1.125351 1.716797,-2.70721 1.716797,-4.357422 V 15.272461 c 0,-1.767691 -0.574644,-3.415864 -1.757813,-4.519531 C 37.265075,9.6492625 35.658444,9.2041014 33.997071,9.2041014 h -8.183594 a 1.9,1.9 0 0 0 -1.900391,1.8984376 1.9,1.9 0 0 0 1.900391,1.900391 h 8.183594 c 1.006616,0 1.555338,0.243736 1.859375,0.527344 0.304036,0.283607 0.548828,0.719019 0.548828,1.742187 v 20.009766 c 0,0.793679 -0.237108,1.306854 -0.597656,1.666015 -0.36055,0.359162 -0.899257,0.625 -1.810547,0.625 H 14.375977 c -1.136796,0 -1.835503,-0.263485 -2.1875,-0.558593 -0.351998,-0.295108 -0.595704,-0.674548 -0.595704,-1.732422 V 12.698242 c 0,-0.822154 0.238197,-1.263157 0.648438,-1.623046 0.410241,-0.35989 1.101136,-0.648438 2.134766,-0.648438 H 22.09668 A 1.9,1.9 0 0 0 23.997071,8.5283201 1.9,1.9 0 0 0 22.09668,6.6279295 Z m 9.541015,9.6093755 a 1.60016,1.60016 0 0 0 -0.107421,0.002 1.60016,1.60016 0 0 0 -1.232422,0.671875 l -4.732422,6.654297 a 1.60016,1.60016 0 0 0 0.96875,2.490234 c 1.68022,0.361848 3.466797,1.83794 3.466797,4.064454 v 2.859374 a 1.6,1.6 0 0 0 1.599609,1.59961 1.6,1.6 0 0 0 1.599609,-1.59961 v -2.859374 c 0,-2.943152 -1.712526,-5.16869 -3.84375,-6.363282 l 2.246094,-3.158203 2.4375,3.429688 c -0.399687,0.261971 -0.928153,0.424793 -1.242187,0.730468 a 1.6,1.6 0 0 0 -0.03125,2.263672 1.6,1.6 0 0 0 2.261719,0.0293 c 0.22596,-0.219946 1.210791,-0.852776 1.787109,-1.035156 a 1.60016,1.60016 0 0 0 0.820312,-2.451172 l -4.730468,-6.654297 a 1.60016,1.60016 0 0 0 -1.267579,-0.673828 z" fill="#008055"/>
</svg>
