<svg xmlns="http://www.w3.org/2000/svg" width="48" height="48">
	<path d="M 23.831083,1.731921 C 14.958531,1.9324268 8.9599889,8.3429585 8.9599889,16.08153 a 1.90019,1.90019 0 0 0 0,0.0293 c 0.092553,6.291655 3.2001761,10.284178 6.1562501,14.107422 2.956074,3.823244 5.863689,7.606829 6.878907,14.431641 a 1.9,1.9 0 0 0 2.158203,1.599609 1.9,1.9 0 0 0 1.601562,-2.158203 C 24.609929,36.394137 21.093453,31.734511 18.124052,27.89403 15.157995,24.057876 12.840881,21.167544 12.76077,16.069812 12.76637,10.192991 16.732717,5.6996533 23.911161,5.5346553 c 6.657361,-0.098963 11.330078,4.4843867 11.330078,10.5488277 0,4.889465 -2.222462,7.760972 -5.185547,11.634766 -1.479314,1.93411 -3.43795,4.466173 -4.914062,7.125 a 1.9,1.9 0 0 0 0.740234,2.582031 1.9,1.9 0 0 0 2.582032,-0.738281 c 1.275287,-2.297094 3.124889,-4.719286 4.609375,-6.660156 2.964915,-3.876187 5.966797,-7.849184 5.966797,-13.94336 0,-8.0969161 -6.67407,-14.4833834 -15.195313,-14.351562 a 1.90019,1.90019 0 0 0 -0.01367,0 z m -0.207031,6.8574218 c -1.159864,0.045205 -2.318161,0.3789663 -3.361328,1.0175782 -0.695445,0.425742 -1.297542,0.960693 -1.794922,1.572266 -1.492143,1.834715 -2.038895,4.365114 -1.320313,6.740234 a 1.8175823,1.7825874 85.000953 0 0 2.228516,1.207031 1.8175823,1.7825874 85.000953 0 0 1.177734,-2.267578 c -0.478832,-1.582678 0.156075,-3.279749 1.552735,-4.134766 1.396661,-0.855015 3.154343,-0.628677 4.296875,0.544922 1.142531,1.173599 1.350495,2.969658 0.501953,4.388672 -0.848542,1.419014 -2.513425,2.053889 -4.060547,1.554688 a 1.8175823,1.7825874 85.000953 0 0 -2.234375,1.18164 1.8175823,1.7825874 85.000953 0 0 1.169922,2.283203 c 3.099242,1.000016 6.482885,-0.294645 8.171875,-3.11914 1.68899,-2.824495 1.267761,-6.490249 -1.023438,-8.84375 C 27.49674,9.2434049 25.557159,8.5140004 23.624052,8.5893428 Z" fill="#008055"/>
</svg>
