<svg xmlns="http://www.w3.org/2000/svg" width="48" height="48">
	<path d="m 8.6542976,7.6025379 c -1.79507,0 -3.519688,0.5379746 -4.708984,1.7617187 -1.189296,1.2237444 -1.662109,2.9138884 -1.662109,4.6269534 l -0.03711,24.203125 c -0.00173,1.215179 0.9820863,2.201616 2.197266,2.203125 1.2151794,0.0017 2.2016161,-0.982086 2.203125,-2.197266 l 0.037109,-24.205078 v -0.0039 c 0,-0.954925 0.218037,-1.356834 0.416016,-1.560547 0.197979,-0.203713 0.558898,-0.427734 1.554687,-0.427734 H 39.363283 c 0.761913,0 1.204229,0.212468 1.484375,0.482422 0.280146,0.269953 0.505859,0.660351 0.505859,1.505859 v 24.207035 c 4.31e-4,1.215179 0.985993,2.199866 2.201172,2.199219 1.214417,-4.31e-4 2.198788,-0.984802 2.199219,-2.199219 V 13.99121 c 0,-1.810323 -0.649149,-3.513279 -1.853516,-4.6738284 -1.204367,-1.160549 -2.855133,-1.7148437 -4.537109,-1.7148437 z" fill="#008055"/>
</svg>
