<svg xmlns="http://www.w3.org/2000/svg" width="48" height="48">
	<path d="m 9.0214846,6.3085939 c -1.7767259,0 -3.4571562,0.5092641 -4.7382814,1.59375 -1.2811252,1.0844861 -2.0625,2.7685001 -2.0625,4.5761721 V 35.5 c 0,1.90549 0.7497249,3.669827 2.078125,4.744141 1.3284001,1.074314 3.0022464,1.447265 4.7226564,1.447265 H 39.591797 c 1.766467,0 3.40923,-0.628659 4.529297,-1.791015 C 45.241161,38.738034 45.779297,37.140155 45.779297,35.5 V 19.365234 c 0,-1.758739 -0.521839,-3.422169 -1.699218,-4.566406 -1.17738,-1.144236 -2.809678,-1.603515 -4.488282,-1.603515 H 16.460938 c -1.72041,0 -3.396209,0.372951 -4.724609,1.447265 -1.328402,1.074314 -2.0761727,2.838651 -2.0761727,4.744141 v 14.201172 a 2,2 0 0 0 2.0000007,2 2,2 0 0 0 2,-2 V 19.386719 c 0,-1.0095 0.230213,-1.342342 0.591796,-1.634766 0.361585,-0.292423 1.087155,-0.55664 2.208985,-0.55664 h 23.130859 c 0.989386,0 1.451094,0.229617 1.701172,0.472656 0.250079,0.243039 0.486328,0.665145 0.486328,1.697265 V 35.5 c 0,0.803735 -0.226674,1.302844 -0.537109,1.625 -0.310435,0.322156 -0.761028,0.566406 -1.650391,0.566406 H 9.0214846 c -1.1218305,0 -1.8454464,-0.26617 -2.2070314,-0.558593 C 6.4528683,36.840389 6.2207032,36.5095 6.2207032,35.5 V 12.478516 c 0,-0.766749 0.2248721,-1.166539 0.6464844,-1.523438 0.4216122,-0.356899 1.1397324,-0.646484 2.154297,-0.646484 H 27.775391 a 2,2 0 0 0 2,-2.0000001 2,2 0 0 0 -2,-2 z M 27.59961,18.845703 a 1.9,1.9 0 0 0 -1.900391,1.900391 v 4.736328 h -4.736328 a 1.9,1.9 0 0 0 -1.900391,1.900391 1.9,1.9 0 0 0 1.900391,1.90039 h 4.736328 v 4.736328 A 1.9,1.9 0 0 0 27.59961,35.919922 1.9,1.9 0 0 0 29.5,34.019531 v -4.736328 h 4.736329 a 1.9,1.9 0 0 0 1.90039,-1.90039 1.9,1.9 0 0 0 -1.90039,-1.900391 H 29.5 v -4.736328 a 1.9,1.9 0 0 0 -1.90039,-1.900391 z" fill="#008055"/>
</svg>
