<svg xmlns="http://www.w3.org/2000/svg" width="48" height="48">
	<path d="m 18.074219,3.6132342 a 2.8305027,2.8305027 0 0 0 -2.832032,2.8300781 2.8305027,2.8305027 0 0 0 2.832032,2.830078 2.8305027,2.8305027 0 0 0 2.830078,-2.830078 2.8305027,2.8305027 0 0 0 -2.830078,-2.8300781 z m -11.6250005,0.00195 a 2.8305027,2.8305027 0 0 0 -2.830078,2.8300781 2.8305027,2.8305027 0 0 0 2.830078,2.8300779 2.8305027,2.8305027 0 0 0 2.830078,-2.8300779 2.8305027,2.8305027 0 0 0 -2.830078,-2.8300781 z m 23.2714845,0.00977 a 2.8305027,2.8305027 0 0 0 -2.830078,2.8300782 2.8305027,2.8305027 0 0 0 2.830078,2.8300782 2.8305027,2.8305027 0 0 0 2.830078,-2.8300782 2.8305027,2.8305027 0 0 0 -2.830078,-2.8300782 z m 11.839844,0.00195 a 2.8305027,2.8305027 0 0 0 -2.830078,2.83203 2.8305027,2.8305027 0 0 0 2.830078,2.830078 2.8305027,2.8305027 0 0 0 2.832031,-2.830078 2.8305027,2.8305027 0 0 0 -2.832031,-2.8320312 z M 24.232422,11.947218 a 2.0002,2.0002 0 0 0 -1.703125,0.986328 L 10.730469,33.040968 a 2,2 0 0 0 0.71289,2.738281 2,2 0 0 0 2.738282,-0.71289 l 2.792968,-4.761719 a 2,2 0 0 0 0.08008,0.002 h 14.091796 l 2.654297,4.726563 a 2,2 0 0 0 2.722657,0.763672 2,2 0 0 0 0.763671,-2.722657 L 25.998047,12.966749 A 2.0002,2.0002 0 0 0 24.232422,11.947218 Z M 6.4453125,15.445265 a 2.8305027,2.8305027 0 0 0 -2.830078,2.830078 2.8305027,2.8305027 0 0 0 2.830078,2.830078 2.8305027,2.8305027 0 0 0 2.830078,-2.830078 2.8305027,2.8305027 0 0 0 -2.830078,-2.830078 z m 35.1230465,0.01563 a 2.8305027,2.8305027 0 0 0 -2.832031,2.830078 2.8305027,2.8305027 0 0 0 2.832031,2.830078 2.8305027,2.8305027 0 0 0 2.830079,-2.830078 2.8305027,2.8305027 0 0 0 -2.830079,-2.830078 z m -17.353515,2.501953 4.685547,8.34375 H 19.320313 Z M 6.4316405,27.091749 a 2.8305027,2.8305027 0 0 0 -2.830078,2.830079 2.8305027,2.8305027 0 0 0 2.830078,2.830078 2.8305027,2.8305027 0 0 0 2.830078,-2.830078 2.8305027,2.8305027 0 0 0 -2.830078,-2.830079 z m 35.1230475,0.01563 a 2.8305027,2.8305027 0 0 0 -2.830079,2.830078 2.8305027,2.8305027 0 0 0 2.830079,2.830078 2.8305027,2.8305027 0 0 0 2.830078,-2.830078 2.8305027,2.8305027 0 0 0 -2.830078,-2.830078 z M 18.072266,38.71089 a 2.8305027,2.8305027 0 0 0 -2.830079,2.830078 2.8305027,2.8305027 0 0 0 2.830079,2.832031 2.8305027,2.8305027 0 0 0 2.832031,-2.832031 2.8305027,2.8305027 0 0 0 -2.832031,-2.830078 z m -11.6230475,0.002 a 2.8305027,2.8305027 0 0 0 -2.830078,2.832032 2.8305027,2.8305027 0 0 0 2.830078,2.830078 2.8305027,2.8305027 0 0 0 2.830078,-2.830078 2.8305027,2.8305027 0 0 0 -2.830078,-2.832032 z m 23.2714845,0.01172 a 2.8305027,2.8305027 0 0 0 -2.832031,2.830078 2.8305027,2.8305027 0 0 0 2.832031,2.830078 2.8305027,2.8305027 0 0 0 2.830078,-2.830078 2.8305027,2.8305027 0 0 0 -2.830078,-2.830078 z m 11.839844,0.002 a 2.8305027,2.8305027 0 0 0 -2.830078,2.830078 2.8305027,2.8305027 0 0 0 2.830078,2.830078 2.8305027,2.8305027 0 0 0 2.830078,-2.830078 2.8305027,2.8305027 0 0 0 -2.830078,-2.830078 z" fill="#008055"/>
</svg>
