<svg xmlns="http://www.w3.org/2000/svg" width="48" height="48">
	<path d="m 24.36237,6.9000845 a 2.0002,2.0002 0 0 0 -1.710938,0.992187 L 5.0576825,38.091491 a 2,2 0 0 0 0.7207032,2.736328 2,2 0 0 0 2.7363276,-0.722656 l 4.5078127,-7.738281 a 2,2 0 0 0 0.621094,0.09961 h 21.583984 l 4.240235,7.605469 a 2,2 0 0 0 2.720703,0.773437 2,2 0 0 0 0.773437,-2.720703 L 26.126042,7.9254745 a 2.0002,2.0002 0 0 0 -1.763672,-1.02539 z m -0.02148,6.0390625 8.65625,15.527344 H 15.295963 Z" fill="#008055"/>
</svg>
