<svg xmlns="http://www.w3.org/2000/svg" width="48" height="48">
	<path d="M 24.615235,3.8340209 A 2.0002,2.0002 0 0 0 22.904297,4.8262084 L 5.3105469,35.027381 a 2,2 0 0 0 0.7207032,2.734374 2,2 0 0 0 2.734375,-0.722656 l 4.5078129,-7.736328 a 2,2 0 0 0 0.623047,0.09961 h 21.583984 l 4.238281,7.605468 a 2,2 0 0 0 2.720704,0.771485 2,2 0 0 0 0.773437,-2.720703 L 26.378907,4.8594116 A 2.0002,2.0002 0 0 0 24.615235,3.8340209 Z M 24.59375,9.8711308 33.25,25.402381 H 15.544922 Z M 5.2070313,40.166052 a 2,2 0 0 0 -2,2 2,2 0 0 0 2,2 H 42.792969 a 2,2 0 0 0 2,-2 2,2 0 0 0 -2,-2 z" fill="#008055"/>
</svg>
