<svg xmlns="http://www.w3.org/2000/svg" width="48" height="48">
	<path d="m 24.440939,3.0003221 a 2.20022,2.20022 0 0 0 -1.871093,1.095703 L 0.72609545,41.693682 a 2.2,2.2 0 0 0 0.79687495,3.007812 2.2,2.2 0 0 0 3.007813,-0.796875 l 5.7187496,-9.84375 a 2.2,2.2 0 0 0 0.894531,0.191406 h 26.804688 a 2.2,2.2 0 0 0 0.152343,-0.0059 l 5.347657,9.621094 a 2.2,2.2 0 0 0 2.992187,0.855469 2.2,2.2 0 0 0 0.853516,-2.992188 L 26.394064,4.1311821 a 2.20022,2.20022 0 0 0 -1.953125,-1.13086 z m -0.01172,6.652344 11.230468,20.2011719 H 12.692893 Z" fill="#008055"/>
</svg>
