<svg xmlns="http://www.w3.org/2000/svg" width="48" height="48">
	<path d="M 24.363897,1.3891185 A 2.0002,2.0002 0 0 0 22.651007,2.381306 L 5.0572575,32.580525 a 2,2 0 0 0 0.720703,2.734375 2,2 0 0 0 2.736328,-0.720703 l 4.5078125,-7.738282 a 2,2 0 0 0 0.621093,0.09961 h 21.583985 l 4.240234,7.605468 a 2,2 0 0 0 2.720703,0.773438 2,2 0 0 0 0.773438,-2.720703 L 26.125616,2.4145091 A 2.0002,2.0002 0 0 0 24.363897,1.3891185 Z m -0.02148,6.0371095 8.65625,15.529297 H 15.295538 Z m 2.484375,22.261719 a 1.80018,1.80018 0 0 0 -1.787109,1.574218 c -0.14558,1.157384 -1.197321,2.323575 -1.681641,2.710938 a 1.8,1.8 0 0 0 -0.28125,2.529297 1.8,1.8 0 0 0 2.529297,0.283203 c 0.586243,-0.468882 1.345801,-1.375239 2.001953,-2.50586 l 5.332031,3.869141 -5.28125,3.833985 C 26.147674,38.918843 23.164195,36.350056 19.05921,36.350056 h -7.949219 a 1.8,1.8 0 0 0 -1.8007805,1.798828 1.8,1.8 0 0 0 1.8007805,1.800781 h 7.949219 c 3.264664,0 5.46243,2.66629 6.003906,5.232422 a 1.80018,1.80018 0 0 0 2.818359,1.085938 l 9.181641,-6.66211 a 1.80018,1.80018 0 0 0 0,-2.914062 l -9.181641,-6.66211 a 1.80018,1.80018 0 0 0 -1.054687,-0.341796 z" fill="#008055"/>
</svg>
