<svg xmlns="http://www.w3.org/2000/svg" width="48" height="48">
	<path d="m 15.796656,8.5214846 a 1.7,1.7 0 0 0 -1.699218,1.7011714 1.7,1.7 0 0 0 1.699218,1.699219 h 27.625 A 1.7,1.7 0 0 0 45.120875,10.222656 1.7,1.7 0 0 0 43.421656,8.5214846 Z M 8.3572034,11.701172 A 2.0002,2.0002 0 0 0 6.382594,13.460937 c -0.2600757,2.156214 -1.9675104,4.06566 -2.7832031,4.746094 a 2,2 0 0 0 -0.2558594,2.818359 2,2 0 0 0 2.8183594,0.253907 c 0.9325394,-0.777905 2.3263515,-2.238359 3.2695312,-4.267578 l 9.2910159,7.033203 -9.2910159,7.033203 C 8.4882411,29.048907 7.0944265,27.588448 6.1618909,26.810547 a 2,2 0 0 0 -2.8183594,0.253906 2,2 0 0 0 0.2558594,2.818359 c 0.8156983,0.680438 2.5231274,2.589881 2.7832031,4.746094 a 2.0002,2.0002 0 0 0 3.1933594,1.355469 L 23.243922,25.640625 a 2.0002,2.0002 0 0 0 0,-3.191406 L 9.5759534,12.105469 a 2.0002,2.0002 0 0 0 -1.21875,-0.404297 z m 16.9999996,3.710937 a 1.7,1.7 0 0 0 -1.699218,1.699219 1.7,1.7 0 0 0 1.699218,1.699219 h 18.064453 a 1.7,1.7 0 0 0 1.699219,-1.699219 1.7,1.7 0 0 0 -1.699219,-1.699219 z m 4.564453,6.888672 A 1.7,1.7 0 0 0 28.222438,24 a 1.7,1.7 0 0 0 1.699218,1.701172 h 13.5 A 1.7,1.7 0 0 0 45.120875,24 1.7,1.7 0 0 0 43.421656,22.300781 Z m -4.564453,6.888672 a 1.7,1.7 0 0 0 -1.699218,1.699219 1.7,1.7 0 0 0 1.699218,1.701171 h 18.064453 a 1.7,1.7 0 0 0 1.699219,-1.701171 1.7,1.7 0 0 0 -1.699219,-1.699219 z m -9.560547,6.888672 a 1.7,1.7 0 0 0 -1.699218,1.701172 1.7,1.7 0 0 0 1.699218,1.699218 h 27.625 a 1.7,1.7 0 0 0 1.699219,-1.699218 1.7,1.7 0 0 0 -1.699219,-1.701172 z" fill="#008055"/>
</svg>
