<svg xmlns="http://www.w3.org/2000/svg" width="48" height="48">
	<path d="M 10.187499,8.522461 A 1.7,1.7 0 0 0 8.4882815,10.22168 1.7,1.7 0 0 0 10.187499,11.922852 H 37.810546 A 1.7,1.7 0 0 0 39.511718,10.22168 1.7,1.7 0 0 0 37.810546,8.522461 Z m 0,6.888672 a 1.7,1.7 0 0 0 -1.6992175,1.699219 1.7,1.7 0 0 0 1.6992175,1.701172 h 27.623047 a 1.7,1.7 0 0 0 1.701172,-1.701172 1.7,1.7 0 0 0 -1.701172,-1.699219 z m 0,6.888672 a 1.7,1.7 0 0 0 -1.6992175,1.701172 1.7,1.7 0 0 0 1.6992175,1.699219 h 27.623047 a 1.7,1.7 0 0 0 1.701172,-1.699219 1.7,1.7 0 0 0 -1.701172,-1.701172 z m 0,6.888672 a 1.7,1.7 0 0 0 -1.6992175,1.701172 1.7,1.7 0 0 0 1.6992175,1.699218 h 27.623047 a 1.7,1.7 0 0 0 1.701172,-1.699218 1.7,1.7 0 0 0 -1.701172,-1.701172 z m 0,6.890625 a 1.7,1.7 0 0 0 -1.6992175,1.699218 1.7,1.7 0 0 0 1.6992175,1.699219 h 27.623047 a 1.7,1.7 0 0 0 1.701172,-1.699219 1.7,1.7 0 0 0 -1.701172,-1.699218 z" fill="#008055"/>
</svg>
