<svg xmlns="http://www.w3.org/2000/svg" width="48" height="48">
	<path d="M 37.8125,8.5214845 A -1.7,1.7 0 0 1 39.511719,10.222657 -1.7,1.7 0 0 1 37.8125,11.921876 H 10.189453 A -1.7,1.7 0 0 1 8.4882812,10.222657 -1.7,1.7 0 0 1 10.189453,8.5214845 Z M 26.537109,15.41211 a -1.7,1.7 0 0 1 1.701172,1.699219 -1.7,1.7 0 0 1 -1.701172,1.699219 H 10.189453 A -1.7,1.7 0 0 1 8.4882812,17.111329 -1.7,1.7 0 0 1 10.189453,15.41211 Z m 0,6.888672 a -1.7,1.7 0 0 1 1.701172,1.699219 -1.7,1.7 0 0 1 -1.701172,1.701171 H 10.189453 A -1.7,1.7 0 0 1 8.4882812,24.000001 -1.7,1.7 0 0 1 10.189453,22.300782 Z m 0,6.888672 a -1.7,1.7 0 0 1 1.701172,1.699218 -1.7,1.7 0 0 1 -1.701172,1.701172 H 10.189453 A -1.7,1.7 0 0 1 8.4882812,30.888672 -1.7,1.7 0 0 1 10.189453,29.189454 Z M 37.8125,36.078126 a -1.7,1.7 0 0 1 1.699219,1.701172 -1.7,1.7 0 0 1 -1.699219,1.699218 H 10.189453 A -1.7,1.7 0 0 1 8.4882812,37.779298 -1.7,1.7 0 0 1 10.189453,36.078126 Z" fill="#008055"/>
</svg>
