<svg xmlns="http://www.w3.org/2000/svg" width="48" height="48">
	<path d="m 32.203344,8.5214846 a -1.7,1.7 0 0 1 1.699218,1.7011714 -1.7,1.7 0 0 1 -1.699218,1.699219 h -27.625 A -1.7,1.7 0 0 1 2.879125,10.222656 -1.7,1.7 0 0 1 4.578344,8.5214846 Z m 7.439453,3.1796874 a -2.0002,2.0002 0 0 1 1.974609,1.759765 c 0.260076,2.156214 1.96751,4.06566 2.783203,4.746094 a -2,2 0 0 1 0.25586,2.818359 -2,2 0 0 1 -2.81836,0.253907 C 40.90557,20.501392 39.511758,19.040938 38.568578,17.011719 l -9.291016,7.033203 9.291016,7.033203 c 0.943181,-2.029218 2.336996,-3.489677 3.269531,-4.267578 a -2,2 0 0 1 2.81836,0.253906 -2,2 0 0 1 -0.25586,2.818359 c -0.815698,0.680438 -2.523127,2.589881 -2.783203,4.746094 a -2.0002,2.0002 0 0 1 -3.193359,1.355469 L 24.756078,25.640625 a -2.0002,2.0002 0 0 1 0,-3.191406 l 13.667969,-10.34375 a -2.0002,2.0002 0 0 1 1.21875,-0.404297 z m -17,3.710937 a -1.7,1.7 0 0 1 1.699218,1.699219 -1.7,1.7 0 0 1 -1.699218,1.699219 H 4.578344 A -1.7,1.7 0 0 1 2.879125,17.111328 -1.7,1.7 0 0 1 4.578344,15.412109 Z m -4.564453,6.888672 A -1.7,1.7 0 0 1 19.777562,24 -1.7,1.7 0 0 1 18.078344,25.701172 h -13.5 A -1.7,1.7 0 0 1 2.879125,24 -1.7,1.7 0 0 1 4.578344,22.300781 Z m 4.564453,6.888672 a -1.7,1.7 0 0 1 1.699218,1.699219 -1.7,1.7 0 0 1 -1.699218,1.701171 H 4.578344 A -1.7,1.7 0 0 1 2.879125,30.888672 -1.7,1.7 0 0 1 4.578344,29.189453 Z m 9.560547,6.888672 a -1.7,1.7 0 0 1 1.699218,1.701172 -1.7,1.7 0 0 1 -1.699218,1.699218 h -27.625 A -1.7,1.7 0 0 1 2.879125,37.779297 -1.7,1.7 0 0 1 4.578344,36.078125 Z" fill="#008055"/>
</svg>
