<svg xmlns="http://www.w3.org/2000/svg" width="48" height="48">
	<path d="m 10.374023,42.09668 a 2.2,2.2 0 0 0 2.199219,2.201172 H 35.426758 A 2.2,2.2 0 0 0 37.625976,42.09668 2.2,2.2 0 0 0 35.426758,39.897461 H 12.573242 a 2.2,2.2 0 0 0 -2.199219,2.199219 z m 1.082032,-18.78125 a 2.20022,2.20022 0 0 0 0.445312,1.349609 l 10.34375,13.669922 a 2.20022,2.20022 0 0 0 3.509766,0 L 36.098633,24.665039 A 2.20022,2.20022 0 0 0 34.608398,21.15332 c -2.077211,-0.250548 -3.959307,-1.924161 -4.617187,-2.71289 a 2.2,2.2 0 0 0 -3.09961,-0.28125 2.2,2.2 0 0 0 -0.279296,3.099609 c 0.763393,0.91523 2.176402,2.252903 4.117187,3.208984 l -6.730469,8.892578 -6.802734,-8.990234 c 4.810135,-2.063751 9.003906,-6.4102 9.003906,-12.595703 V 5.9013673 a 2.2,2.2 0 0 0 -2.199219,-2.199219 2.2,2.2 0 0 0 -2.201171,2.199219 v 5.8730467 c 0,5.065898 -4.322576,8.546701 -8.580079,9.408203 a 2.20022,2.20022 0 0 0 -1.763671,2.132813 z" fill="#008055"/>
</svg>
