<svg xmlns="http://www.w3.org/2000/svg" width="48" height="48">
	<path d="m 11.455991,25.860347 a 2.20022,2.20022 0 0 0 0.445313,1.349609 l 10.34375,13.669921 a 2.20022,2.20022 0 0 0 3.509765,0 l 10.34375,-13.669921 a 2.20022,2.20022 0 0 0 -1.490234,-3.511719 c -2.077281,-0.250548 -3.95915,-1.924046 -4.617187,-2.71289 a 2.2,2.2 0 0 0 -3.09961,-0.28125 2.2,2.2 0 0 0 -0.279297,3.099609 c 0.763498,0.915269 2.177494,2.252824 4.119141,3.208984 l -6.730469,8.892578 -6.804687,-8.990234 C 22.006361,24.851276 26.200132,20.5049 26.200132,14.319331 V 8.4462831 a 2.2,2.2 0 0 0 -2.199219,-2.199219 2.2,2.2 0 0 0 -2.201172,2.199219 v 5.8730479 c 0,5.066017 -4.322575,8.546701 -8.580078,9.408203 a 2.20022,2.20022 0 0 0 -1.763672,2.132813 z" fill="#008055"/>
</svg>
