<svg xmlns="http://www.w3.org/2000/svg" width="48" height="48">
	<path d="m 31.061861,36.542748 a 2.20022,2.20022 0 0 0 2.113281,-1.935546 c 0.250542,-2.077157 1.924046,-3.959151 2.712891,-4.617188 a 2.2,2.2 0 0 0 0.28125,-3.097656 2.2,2.2 0 0 0 -3.09961,-0.279297 c -0.915021,0.763291 -2.252856,2.176417 -3.208984,4.117187 l -8.892578,-6.730468 8.990234,-6.804688 c 2.063524,4.8107 6.409618,9.00586 12.595703,9.00586 h 2.371093 A 2.2,2.2 0 0 0 47.12436,23.99978 2.2,2.2 0 0 0 44.925141,21.800561 h -2.371093 c -5.066017,0 -8.546696,-4.322466 -9.408203,-8.580078 a 2.20022,2.20022 0 0 0 -3.482422,-1.318359 l -13.669921,10.34375 a 2.20022,2.20022 0 0 0 0,3.507812 l 13.669921,10.345703 a 2.20022,2.20022 0 0 0 1.398438,0.443359 z m -14.246094,0 a 2.2,2.2 0 0 0 1.681641,-0.871093 2.2,2.2 0 0 0 -0.425781,-3.082031 L 6.7200643,23.99978 18.071627,15.409936 a 2.2,2.2 0 0 0 0.425781,-3.082031 2.2,2.2 0 0 0 -3.082031,-0.425781 L 1.7474083,22.245874 a 2.20022,2.20022 0 0 0 0,3.507812 L 15.415377,36.099389 a 2.2,2.2 0 0 0 1.40039,0.443359 z" fill="#008055"/>
</svg>
