<svg xmlns="http://www.w3.org/2000/svg" width="48" height="48">
	<path d="m 25.860347,36.544009 a 2.20022,2.20022 0 0 0 1.349609,-0.445313 l 13.669921,-10.34375 a 2.20022,2.20022 0 0 0 0,-3.509765 L 27.209956,11.901431 a 2.20022,2.20022 0 0 0 -3.511719,1.490234 c -0.250548,2.077281 -1.924046,3.95915 -2.71289,4.617187 a 2.2,2.2 0 0 0 -0.28125,3.09961 2.2,2.2 0 0 0 3.099609,0.279297 c 0.915269,-0.763498 2.252824,-2.177494 3.208984,-4.119141 l 8.892578,6.730469 -8.990234,6.804687 C 24.851276,25.993639 20.5049,21.799868 14.319331,21.799868 H 8.4462833 a 2.2,2.2 0 0 0 -2.199219,2.199219 2.2,2.2 0 0 0 2.199219,2.201172 h 5.8730477 c 5.066017,0 8.546701,4.322575 9.408203,8.580078 a 2.20022,2.20022 0 0 0 2.132813,1.763672 z" fill="#008055"/>
</svg>
