<svg xmlns="http://www.w3.org/2000/svg" width="48" height="48">
	<path d="M 37.625977,5.9033199 A 2.2,2.2 0 0 0 35.426758,3.702148 H 12.573242 a 2.2,2.2 0 0 0 -2.199218,2.2011719 2.2,2.2 0 0 0 2.199218,2.1992187 H 35.426758 A 2.2,2.2 0 0 0 37.625977,5.9033199 Z M 36.543945,24.68457 A 2.20022,2.20022 0 0 0 36.098633,23.334961 L 25.754883,9.6650386 a 2.20022,2.20022 0 0 0 -3.509766,0 L 11.901367,23.334961 a 2.20022,2.20022 0 0 0 1.490235,3.511719 c 2.077211,0.250548 3.959307,1.924161 4.617187,2.71289 a 2.2,2.2 0 0 0 3.09961,0.28125 2.2,2.2 0 0 0 0.279296,-3.099609 c -0.763393,-0.91523 -2.176402,-2.252903 -4.117187,-3.208984 l 6.730469,-8.892578 6.802734,8.990234 c -4.810135,2.063751 -9.003906,6.4102 -9.003906,12.595703 v 5.873047 a 2.2,2.2 0 0 0 2.199219,2.199219 2.2,2.2 0 0 0 2.201171,-2.199219 v -5.873047 c 0,-5.065898 4.322576,-8.546701 8.580079,-9.408203 a 2.20022,2.20022 0 0 0 1.763671,-2.132813 z" fill="#008055"/>
</svg>
