<svg xmlns="http://www.w3.org/2000/svg" width="48" height="48">
	<path d="m 34.322448,3.2394797 c -0.778276,0.0052 -1.576862,0.1667131 -2.353516,0.4492187 L 4.9064322,13.532448 c -1.4501223,0.527385 -2.6909298,1.516925 -3.3593748,2.882813 -0.66844477,1.365887 -0.69547477,3.024738 -0.1269531,4.585937 l 7.0449219,19.34375 c 0.553134,1.518994 1.421488,2.879506 2.8007808,3.708984 1.379293,0.82948 3.182968,0.923223 4.867188,0.310547 l 27.095703,-9.855468 c 1.598754,-0.58159 2.841323,-1.81397 3.388672,-3.296875 0.547349,-1.482906 0.454457,-3.135512 -0.117188,-4.705078 a 1.90019,1.90019 0 0 0 -0.002,-0.0059 c -0.780402,-2.114701 -1.87376,-3.692852 -3.623047,-5.066406 l -5.365234,-4.375 a 1.90019,1.90019 0 0 0 -0.02734,-0.02344 c -1.028084,-0.80667 -2.397101,-1.129605 -3.621094,-0.785156 -1.223992,0.344449 -2.209333,1.311681 -2.699218,2.517578 l 0.01367,-0.03516 -1.529296,3.552734 0.03906,-0.08594 c -0.18944,0.385354 -0.06741,0.256702 -0.130859,0.369141 -0.107474,-0.04639 -0.09255,-0.02551 -0.251953,-0.113282 a 1.90019,1.90019 0 0 0 -0.113282,-0.05664 L 27.027526,21.38987 c -1.190197,-0.594122 -2.597187,-0.700391 -3.71875,-0.212891 -1.121563,0.487501 -1.844989,1.37262 -2.355469,2.279297 l -7.597656,12.828125 a 1.9,1.9 0 0 0 0.666016,2.601563 1.9,1.9 0 0 0 2.603515,-0.666016 l 7.619141,-12.863281 a 1.90019,1.90019 0 0 0 0.02148,-0.03711 c 0.257821,-0.457923 0.496654,-0.632129 0.556641,-0.658204 0.05999,-0.02607 0.05231,-0.09847 0.507812,0.128907 a 1.90019,1.90019 0 0 0 0.04492,0.01953 l 2.205078,1.033203 -0.111328,-0.05664 c 0.648022,0.356805 1.2273,0.611719 1.898438,0.722657 0.671138,0.110937 1.512061,-0.01068 2.11914,-0.400391 1.214159,-0.779417 1.339311,-1.683062 1.609375,-2.232422 a 1.90019,1.90019 0 0 0 0.03906,-0.08594 l 1.53125,-3.552735 a 1.90019,1.90019 0 0 0 0.01563,-0.03711 c 0.118014,-0.290503 0.202052,-0.289065 0.208984,-0.291016 0.0069,-0.0019 0.03355,-0.04872 0.244141,0.115235 0,0 0.002,0.002 0.002,0.002 l 5.363281,4.375 a 1.90019,1.90019 0 0 0 0.02734,0.02148 c 1.353743,1.06297 1.763656,1.659025 2.402344,3.388672 0.321853,0.886644 0.297491,1.606083 0.121093,2.083984 -0.176725,0.478795 -0.451148,0.799259 -1.121093,1.042969 l -27.095703,9.855469 c -0.884681,0.321824 -1.242143,0.224752 -1.609375,0.0039 -0.367232,-0.220846 -0.830988,-0.7695 -1.189453,-1.753906 L 4.9904172,19.700417 c -0.283279,-0.777901 -0.2122558,-1.245372 -0.03125,-1.615235 0.181005,-0.369862 0.542416,-0.726506 1.246093,-0.982421 L 33.26776,7.2590113 c 0.906093,-0.329589 1.347874,-0.255781 1.634766,-0.117188 0.286892,0.138593 0.633302,0.465564 0.949219,1.333985 l 2.787109,7.6562497 a 1.9,1.9 0 0 0 2.435547,1.134765 1.9,1.9 0 0 0 1.134766,-2.435547 l -2.78711,-7.6542967 v -0.002 C 38.882082,5.6916323 37.947863,4.3948349 36.55487,3.7219015 35.858116,3.3853107 35.100724,3.2342837 34.322448,3.2394797 Z M 12.793151,18.217995 a 3.6089751,3.6016426 64.516131 0 0 -1.166016,0.216797 3.6089751,3.6016426 64.516131 0 0 -2.1503898,4.623047 3.6089751,3.6016426 64.516131 0 0 4.6210938,2.158203 3.6089751,3.6016426 64.516131 0 0 2.148437,-4.621094 3.6089751,3.6016426 64.516131 0 0 -3.453125,-2.376953 z" fill="#008055"/>
</svg>
