<svg xmlns="http://www.w3.org/2000/svg" width="48" height="48">
	<path d="m 23.899084,3.3833241 c -2.059117,0.045477 -3.608245,1.5403894 -4.59375,3.4023434 L 19.34049,6.7212145 2.2350217,36.467308 c -1.080186,1.785865 -1.31056431,3.940962 -0.3300782,5.617188 0.9804862,1.676225 2.9275187,2.533203 4.9882808,2.533203 a 2.0999999,2.0999999 0 0 0 2.101563,-2.09961 2.0999999,2.0999999 0 0 0 -2.101563,-2.101562 c -0.994737,0 -1.275664,-0.306676 -1.361328,-0.453125 -0.085663,-0.14645 -0.218239,-0.472584 0.296875,-1.324219 a 2.1002099,2.1002099 0 0 0 0.023438,-0.03906 L 22.981115,8.8149645 a 2.1002099,2.1002099 0 0 0 0.03711,-0.06445 c 0.585996,-1.107145 1.021423,-1.169046 0.972657,-1.167969 -0.04877,0.0011 0.339473,-0.004 0.970703,1.158204 a 2.1002099,2.1002099 0 0 0 0.02344,0.04492 l 17.13086,29.7851565 a 2.1002099,2.1002099 0 0 0 0.02344,0.03906 c 0.525809,0.869371 0.403556,1.2581 0.330078,1.392578 -0.07348,0.134479 -0.283482,0.414063 -1.271484,0.414063 H 12.420568 a 2.0999999,2.0999999 0 0 0 -2.099609,2.099609 2.0999999,2.0999999 0 0 0 2.099609,2.09961 h 28.777344 c 2.067498,0 4.026584,-0.896713 4.957031,-2.59961 0.930447,-1.702896 0.647517,-3.811949 -0.421875,-5.580078 L 28.6276,6.6919175 l 0.02344,0.04492 C 27.605767,4.8123335 25.9582,3.3378471 23.899084,3.3833241 Z" fill="#008055"/>
</svg>
