<svg xmlns="http://www.w3.org/2000/svg" width="48" height="48">
	<path d="M 15.015625,3.678711 A 2.0999999,2.0999999 0 0 0 12.916016,5.7783203 V 28.350586 c 0,1.795765 0.514511,3.502065 1.617187,4.804687 1.102677,1.302623 2.818627,2.097657 4.652344,2.097657 H 41.900391 A 2.0999999,2.0999999 0 0 0 44,33.15332 2.0999999,2.0999999 0 0 0 41.900391,31.051758 H 19.185547 c -0.740782,0 -1.108566,-0.209261 -1.447265,-0.609375 -0.338699,-0.400115 -0.623047,-1.096272 -0.623047,-2.091797 V 5.7783203 A 2.0999999,2.0999999 0 0 0 15.015625,3.678711 Z m -8.9140626,6.947266 a 2.0999999,2.0999999 0 0 0 -2.1015625,2.099609 2.0999999,2.0999999 0 0 0 2.1015625,2.099609 h 3.84375 A 2.0999999,2.0999999 0 0 0 12.044922,12.725586 2.0999999,2.0999999 0 0 0 9.9453124,10.625977 Z m 14.1835946,0 a 2.0999999,2.0999999 0 0 0 -2.09961,2.099609 2.0999999,2.0999999 0 0 0 2.09961,2.099609 h 10.80664 c 0.740711,0 1.108548,0.211198 1.447266,0.611328 0.338718,0.40013 0.623047,1.094344 0.623047,2.089844 v 10.585938 a 2.0999999,2.0999999 0 0 0 2.099609,2.099609 2.0999999,2.0999999 0 0 0 2.099609,-2.099609 V 17.526367 c 0,-1.79579 -0.512552,-3.500127 -1.615234,-4.802734 -1.102682,-1.302608 -2.820608,-2.097656 -4.654297,-2.097656 z m 14.976562,25.167968 a 2.0999999,2.0999999 0 0 0 -2.099609,2.101563 v 4.326172 a 2.0999999,2.0999999 0 0 0 2.099609,2.099609 2.0999999,2.0999999 0 0 0 2.099609,-2.099609 v -4.326172 a 2.0999999,2.0999999 0 0 0 -2.099609,-2.101563 z" fill="#008055"/>
</svg>
