<svg xmlns="http://www.w3.org/2000/svg" width="48" height="48">
	<path d="M 4.5126954,3.8984375 A 1.9,1.9 0 0 0 2.6123048,5.7988281 1.9,1.9 0 0 0 4.5126954,7.6992187 H 6.020508 A 1.9,1.9 0 0 0 7.920899,5.7988281 1.9,1.9 0 0 0 6.020508,3.8984375 Z M 18.647461,5.0214844 a 1.9,1.9 0 0 0 -1.900391,1.8984375 1.9,1.9 0 0 0 1.900391,1.9003906 h 1.507812 A 1.9,1.9 0 0 0 22.053711,6.9199219 1.9,1.9 0 0 0 20.155273,5.0214844 Z M 30.831055,7.53125 a 1.9,1.9 0 0 0 -1.900391,1.8984375 1.9,1.9 0 0 0 1.900391,1.9003905 h 1.507812 A 1.9,1.9 0 0 0 34.239258,9.4296875 1.9,1.9 0 0 0 32.338867,7.53125 Z M 11.086914,9.1367185 A 1.9,1.9 0 0 0 9.186523,11.037109 1.9,1.9 0 0 0 11.086914,12.9375 h 1.507813 a 1.9,1.9 0 0 0 1.898437,-1.900391 1.9,1.9 0 0 0 -1.898437,-1.9003905 z m 31.185547,2.5996095 a 1.9,1.9 0 0 0 -1.900391,1.90039 1.9,1.9 0 0 0 1.900391,1.898438 h 1.505859 a 1.9,1.9 0 0 0 1.900391,-1.898438 1.9,1.9 0 0 0 -1.900391,-1.90039 z M 4.2216798,13.003906 a 1.9,1.9 0 0 0 -1.9003907,1.90039 1.9,1.9 0 0 0 1.9003907,1.900391 H 5.729492 a 1.9,1.9 0 0 0 1.900391,-1.900391 1.9,1.9 0 0 0 -1.900391,-1.90039 z m 17.7187502,0.93164 a 1.9,1.9 0 0 0 -1.900391,1.900391 1.9,1.9 0 0 0 1.900391,1.898437 h 1.507812 a 1.9,1.9 0 0 0 1.898438,-1.898437 1.9,1.9 0 0 0 -1.898438,-1.900391 z m -9.333985,2.023438 a 1.9,1.9 0 0 0 -1.90039,1.90039 1.9,1.9 0 0 0 1.90039,1.900391 h 1.50586 a 1.9,1.9 0 0 0 1.90039,-1.900391 1.9,1.9 0 0 0 -1.90039,-1.90039 z m 19.22461,1.470703 a 1.9,1.9 0 0 0 -1.898438,1.900391 1.9,1.9 0 0 0 1.898438,1.90039 h 1.507812 a 1.9,1.9 0 0 0 1.900391,-1.90039 1.9,1.9 0 0 0 -1.900391,-1.900391 z M 7.317383,20.910156 a 1.9,1.9 0 0 0 -1.9003908,1.90039 1.9,1.9 0 0 0 1.9003908,1.898438 h 1.507812 a 1.9,1.9 0 0 0 1.900391,-1.898438 1.9,1.9 0 0 0 -1.900391,-1.90039 z m 10.027344,1.603515 a 1.9,1.9 0 0 0 -1.900391,1.900391 1.9,1.9 0 0 0 1.900391,1.900391 h 1.505859 a 1.9,1.9 0 0 0 1.900391,-1.900391 1.9,1.9 0 0 0 -1.900391,-1.900391 z m 21.314453,3.576172 a 1.9,1.9 0 0 0 -1.898438,1.900391 1.9,1.9 0 0 0 1.898438,1.90039 h 1.507812 a 1.9,1.9 0 0 0 1.900391,-1.90039 1.9,1.9 0 0 0 -1.900391,-1.900391 z m -12.748047,0.486328 a 1.9,1.9 0 0 0 -1.900391,1.900391 1.9,1.9 0 0 0 1.900391,1.900391 h 1.505859 a 1.9,1.9 0 0 0 1.900391,-1.900391 1.9,1.9 0 0 0 -1.900391,-1.900391 z M 11.09082,27.816406 a 1.9,1.9 0 0 0 -1.90039,1.90039 1.9,1.9 0 0 0 1.90039,1.900391 h 1.507813 a 1.9,1.9 0 0 0 1.898437,-1.900391 1.9,1.9 0 0 0 -1.898437,-1.90039 z m 5.634766,5.646484 a 1.9,1.9 0 0 0 -1.900391,1.900391 1.9,1.9 0 0 0 1.900391,1.90039 h 1.505859 a 1.9,1.9 0 0 0 1.900391,-1.90039 1.9,1.9 0 0 0 -1.900391,-1.900391 z M 6.55957,33.964843 a 1.9,1.9 0 0 0 -1.9003902,1.900391 1.9,1.9 0 0 0 1.9003902,1.90039 h 1.50586 a 1.9,1.9 0 0 0 1.90039,-1.90039 1.9,1.9 0 0 0 -1.90039,-1.900391 z m 25.628907,0.25586 a 1.9,1.9 0 0 0 -1.900391,1.90039 1.9,1.9 0 0 0 1.900391,1.898438 h 1.505859 a 1.9,1.9 0 0 0 1.900391,-1.898438 1.9,1.9 0 0 0 -1.900391,-1.90039 z m -20.261719,5.86914 a 1.9,1.9 0 0 0 -1.900391,1.900391 1.9,1.9 0 0 0 1.900391,1.90039 h 1.505859 a 1.9,1.9 0 0 0 1.900391,-1.90039 1.9,1.9 0 0 0 -1.900391,-1.900391 z m 28.248047,0.04492 a 1.9,1.9 0 0 0 -1.898438,1.900391 1.9,1.9 0 0 0 1.898438,1.90039 h 1.507812 a 1.9,1.9 0 0 0 1.900391,-1.90039 1.9,1.9 0 0 0 -1.900391,-1.900391 z M 24.00293,40.300781 a 1.9,1.9 0 0 0 -1.898438,1.90039 1.9,1.9 0 0 0 1.898438,1.900391 h 1.507812 a 1.9,1.9 0 0 0 1.900391,-1.900391 1.9,1.9 0 0 0 -1.900391,-1.90039 z" fill="#008055"/>
</svg>
