<svg xmlns="http://www.w3.org/2000/svg" width="48" height="48">
	<path d="m 20.47269,14.788266 a 1.50015,1.50015 0 0 0 -1.5,1.5 v 15.144531 a 1.50015,1.50015 0 0 0 1.5,1.5 l 5.384765,0.002 c 1.855536,7.3e-5 3.35893,-0.681064 4.265625,-1.732422 0.903129,-1.047223 1.200458,-2.316481 1.1875,-3.421875 -0.0027,-2.127304 -1.249278,-3.655082 -2.515625,-4.46289 0.963242,-0.833272 1.798828,-2.120581 1.798828,-3.896485 0,-1.532627 -0.827892,-2.837282 -1.884765,-3.580078 -1.056874,-0.742796 -2.304162,-1.052734 -3.517578,-1.052734 z m 19.451172,0.0059 c -4.598231,0 -8.121094,4.117658 -8.121094,9.222656 0,5.130029 3.668387,8.992188 8.121094,8.992188 2.226344,0 4.303325,-0.950291 5.77539,-2.560547 a 1.6,1.6 0 0 0 -0.101562,-2.261719 1.6,1.6 0 0 0 -2.259766,0.101563 c -0.897455,0.981704 -2.079147,1.519531 -3.414062,1.519531 -2.669835,0 -4.919922,-2.090365 -4.919922,-5.791016 0,-3.725681 2.188392,-6.021484 4.919922,-6.021484 1.365782,0 2.527967,0.566688 3.423828,1.601562 a 1.6,1.6 0 0 0 2.257812,0.16211 1.6,1.6 0 0 0 0.16211,-2.25586 c -1.4477,-1.672344 -3.544613,-2.708984 -5.84375,-2.708984 z M 10.400424,15.430844 A 1.5501499,1.5501499 0 0 0 8.9687831,16.315609 L 1.992221,30.995297 a 1.5499949,1.5499949 0 0 0 0.734375,2.064453 1.5499949,1.5499949 0 0 0 2.0644531,-0.734375 l 1.6152344,-3.398437 a 1.5,1.5 0 0 0 0.3320312,0.03711 h 6.9707033 a 1.5,1.5 0 0 0 0.08008,-0.0039 l 1.410156,3.308594 A 1.5499949,1.5499949 0 0 0 17.23441,33.0871 1.5499949,1.5499949 0 0 0 18.05277,31.053897 L 11.794955,16.37225 a 1.5501499,1.5501499 0 0 0 -1.394531,-0.941406 z m 11.572266,2.357422 h 3.21875 c 0.661483,0 1.367027,0.206497 1.792968,0.505859 0.425942,0.299362 0.609375,0.560591 0.609375,1.126953 0,1.179271 -0.329951,1.477602 -0.855468,1.830078 -0.525518,0.352477 -1.28676,0.534165 -2.066407,0.802735 a 1.50015,1.50015 0 0 0 0.06055,2.855468 c 0.739527,0.21951 1.691382,0.445236 2.421875,0.892579 0.730494,0.447342 1.158203,0.849882 1.158203,1.984375 a 1.50015,1.50015 0 0 0 0,0.02148 c 0.0073,0.52186 -0.146635,1.069144 -0.460937,1.433594 -0.314303,0.364449 -0.799797,0.693406 -1.994141,0.693359 H 21.97269 Z m -11.679688,2.964843 2.220703,5.210938 H 7.8164401 Z" fill="#008055"/>
</svg>
