<svg xmlns="http://www.w3.org/2000/svg" width="48" height="48">
	<path d="m 10.914062,2.7983828 a 2,2 0 0 0 -1.9999999,2 2,2 0 0 0 1.9999999,2 h 27.119141 c 0.92284,0 1.268333,0.2090136 1.451172,0.3945312 0.182839,0.1855177 0.376953,0.5402624 0.376953,1.3984374 V 32.464398 c 0,0.87705 -0.250845,1.47579 -0.544922,1.818359 -0.294076,0.342569 -0.614682,0.527344 -1.283203,0.527344 h -2.947266 c -3.020859,0 -5.044601,-2.458819 -5.542968,-4.804687 a 2.0002,2.0002 0 0 0 -3.126953,-1.207032 l -8.865235,6.390625 a 2.0002,2.0002 0 0 0 0,3.244141 l 8.865235,6.390625 a 2.0002,2.0002 0 0 0 3.154296,-1.371094 c 0.125672,-0.992362 1.091278,-2.074601 1.523438,-2.417968 a 2,2 0 0 0 0.320312,-2.810547 2,2 0 0 0 -0.310546,-0.310547 c 1.173044,0.56607 2.507563,0.896484 3.982421,0.896484 h 2.947266 c 1.694969,0 3.289143,-0.722944 4.318359,-1.921875 1.029216,-1.198931 1.509766,-2.773878 1.509766,-4.423828 V 8.5913514 c 0,-1.5571247 -0.438521,-3.1002738 -1.529297,-4.2070311 C 41.241255,3.2775629 39.672563,2.7983828 38.033203,2.7983828 Z M 9.3007811,31.806195 a 5.162394,5.1055856 0 0 0 -5.1621092,5.105469 5.162394,5.1055856 0 0 0 5.1621092,5.105468 5.162394,5.1055856 0 0 0 5.1640629,-5.105468 5.162394,5.1055856 0 0 0 -5.1640629,-5.105469 z m 17.3613279,1.74414 c 0.872695,1.63307 2.201042,3.0786 3.888672,4.044922 a 2,2 0 0 0 -1.945312,0.306641 c -0.545062,0.433073 -1.261206,1.209369 -1.892579,2.205078 l -4.572265,-3.294922 z" fill="#008055"/>
</svg>
