<svg xmlns="http://www.w3.org/2000/svg" width="48" height="48">
	<path d="m 22.898614,8.3195459 a 2.20022,2.20022 0 0 0 -2.046875,3.0644531 c 0.821647,1.924226 0.313134,4.39116 -0.04102,5.355469 a 2.2,2.2 0 0 0 1.306641,2.822266 2.2,2.2 0 0 0 2.822266,-1.306641 c 0.410819,-1.118614 0.863128,-3.010987 0.720703,-5.169922 l 11.066406,1.380859 -4.384766,10.388672 c -4.192291,-3.13383 -10.051413,-4.592737 -15.408203,-1.5 a 2.20022,2.20022 0 0 0 -0.01172,0.0059 c -5.786779,3.38799 -8.8690596,8.152296 -10.8613231,13.331991 a 2.2,2.2 0 0 0 1.2636719,2.841797 2.2,2.2 0 0 0 2.8417972,-1.263672 c 1.786918,-4.645816 4.112617,-8.25874 8.96875,-11.105469 4.386848,-2.531443 9.561112,-0.5294 12.435547,2.726563 a 2.20022,2.20022 0 0 0 3.675781,-0.59961 L 41.912286,13.499234 A 2.20022,2.20022 0 0 0 40.156427,10.460171 L 23.146661,8.3371239 a 2.20022,2.20022 0 0 0 -0.248047,-0.01758 z" fill="#008055"/>
</svg>
