<svg xmlns="http://www.w3.org/2000/svg" width="48" height="48">
	<path d="M 30.484375 0.97070312 C 30.338672 0.96820984 30.200664 0.97913497 30.078125 0.99804688 C 29.58797 1.0736945 29.199052 1.246394 28.802734 1.4628906 A 1.60016 1.60016 0 0 0 28.720703 1.5117188 C 26.601042 2.8397355 25.262854 4.4985907 24.601562 6.2597656 C 23.940271 8.0209406 23.940641 9.8049019 24.154297 11.431641 C 24.367953 13.058379 24.791811 14.564151 25.085938 15.84375 C 25.233011 16.483596 25.187143 16.785043 25.240234 17.273438 C 24.532698 16.27175 23.955256 15.132732 23.326172 13.851562 C 22.487832 12.144234 21.243727 10.195365 18.820312 9.421875 A 1.60016 1.60016 0 0 0 18.738281 9.3984375 C 18.23384 9.2668945 17.750919 9.1861663 17.201172 9.2519531 C 16.651425 9.3177399 15.990164 9.620155 15.591797 10.128906 C 14.802836 11.136481 14.999137 12.093726 15.169922 12.994141 C 15.419918 14.45466 14.933445 15.717131 14.037109 17.183594 C 13.140774 18.650056 11.847533 20.167738 10.917969 21.970703 C 9.9884045 23.773668 9.5154909 26.102336 10.603516 28.423828 C 11.69154 30.745321 14.029501 32.944109 18.199219 35.470703 A 1.6 1.6 0 0 0 20.398438 34.929688 A 1.6 1.6 0 0 0 19.857422 32.732422 C 15.954709 30.367616 14.142438 28.435207 13.5 27.064453 C 12.857562 25.693699 13.074935 24.769572 13.761719 23.4375 C 14.448502 22.105428 15.695915 20.604872 16.767578 18.851562 C 17.790749 17.177589 18.597891 15.112666 18.304688 12.767578 C 19.247785 13.241416 19.821907 13.976205 20.453125 15.261719 C 21.192309 16.767111 21.947112 18.811945 23.705078 20.535156 C 24.377924 21.22815 25.273629 21.596449 26.259766 21.478516 C 27.254394 21.359566 28.307666 20.445104 28.529297 19.332031 L 28.529297 19.330078 C 28.81894 17.882562 28.52301 16.510114 28.205078 15.126953 C 27.887001 13.743158 27.502307 12.341812 27.328125 11.015625 C 27.153943 9.6894383 27.188467 8.4745345 27.597656 7.3847656 C 27.831587 6.7617529 28.248957 6.1571258 28.814453 5.5585938 C 28.583546 7.7014516 29.137333 9.7016573 29.998047 11.441406 C 31.130917 13.731261 32.720297 15.734483 33.916016 17.722656 C 35.111734 19.71083 35.899425 21.590803 35.773438 23.693359 C 35.656689 25.641732 34.587656 28.017316 32.013672 30.945312 C 32.030102 30.903366 32.009637 30.85181 32.029297 30.806641 C 32.183839 30.451567 32.500931 29.99498 32.888672 29.369141 C 33.664153 28.117463 34.484476 26.048523 33.773438 23.208984 A 1.60016 1.60016 0 0 0 33.75 23.128906 C 33.622785 22.713814 33.510452 22.367452 33.257812 21.96875 C 33.005173 21.570048 32.330794 20.960087 31.513672 20.990234 C 30.696549 21.020382 30.317685 21.416833 30.042969 21.683594 C 29.773108 21.945639 29.568766 22.208153 29.339844 22.507812 C 27.252101 25.166887 25.651132 26.211672 24.716797 26.289062 C 24.249629 26.327758 23.822916 26.225185 23.201172 25.796875 C 22.579428 25.368565 21.821905 24.59021 20.992188 23.443359 A 1.60016 1.60016 0 0 0 20.986328 23.435547 C 20.763234 23.131892 20.572627 22.871877 20.199219 22.591797 C 20.012515 22.451757 19.761388 22.292832 19.376953 22.216797 C 18.992518 22.140762 18.473959 22.219486 18.119141 22.425781 C 17.409503 22.838372 17.305796 23.301463 17.1875 23.630859 C 17.069204 23.960256 17.002111 24.266887 16.929688 24.619141 A 1.60016 1.60016 0 0 0 16.916016 24.6875 C 16.588062 26.724694 16.996553 29.271719 19.353516 31.822266 A 1.6 1.6 0 0 0 21.613281 31.912109 A 1.6 1.6 0 0 0 21.703125 29.650391 C 20.706894 28.572337 20.276032 27.798543 20.095703 27.087891 C 20.524853 27.51971 20.922534 28.111871 21.386719 28.431641 C 22.460996 29.171693 23.716361 29.583221 24.980469 29.478516 C 27.108184 29.302279 28.917212 27.757288 30.796875 25.595703 C 30.766532 26.415266 30.566184 27.042801 30.167969 27.685547 C 29.858743 28.184658 29.436601 28.746058 29.095703 29.529297 C 28.754805 30.312536 28.561018 31.341502 28.751953 32.443359 C 28.948919 33.578702 29.907883 34.598406 30.984375 34.791016 C 32.060867 34.983625 33.077331 34.559785 33.826172 33.828125 A 1.60016 1.60016 0 0 0 33.873047 33.779297 C 37.267912 30.166529 38.787904 26.902828 38.96875 23.884766 C 39.149596 20.866703 37.995031 18.295067 36.658203 16.072266 C 35.321375 13.849464 33.787796 11.884251 32.867188 10.023438 C 31.946579 8.1626228 31.583613 6.5674038 32.294922 4.5527344 A 1.60016 1.60016 0 0 0 32.298828 4.5410156 C 32.456552 4.0825533 32.564123 3.6543342 32.564453 3.15625 C 32.564783 2.6581658 32.417375 1.9691818 31.855469 1.4746094 C 31.434039 1.1036801 30.921484 0.97818298 30.484375 0.97070312 z M 9.7050781 34.283203 A 2.000005 2.000005 0 0 0 7.796875 35.701172 A 2.000005 2.000005 0 0 0 9.1308594 38.195312 L 37.708984 46.863281 A 2.000005 2.000005 0 0 0 40.203125 45.529297 A 2.000005 2.000005 0 0 0 38.869141 43.035156 L 10.291016 34.369141 A 2.000005 2.000005 0 0 0 9.7050781 34.283203 z M 38.232422 34.363281 A 2.000005 2.000005 0 0 0 37.714844 34.447266 L 31.703125 36.246094 A 2.000005 2.000005 0 0 0 30.361328 38.736328 A 2.000005 2.000005 0 0 0 32.849609 40.078125 L 38.863281 38.279297 A 2.000005 2.000005 0 0 0 40.205078 35.789062 A 2.000005 2.000005 0 0 0 38.232422 34.363281 z M 15.667969 41.230469 A 2.000005 2.000005 0 0 0 15.150391 41.314453 L 9.1367188 43.113281 A 2.000005 2.000005 0 0 0 7.7949219 45.603516 A 2.000005 2.000005 0 0 0 10.285156 46.945312 L 16.296875 45.146484 A 2.000005 2.000005 0 0 0 17.638672 42.65625 A 2.000005 2.000005 0 0 0 15.667969 41.230469 z " fill="#008055"/>
</svg>
