<svg xmlns="http://www.w3.org/2000/svg" width="48" height="48">
	<path d="m 12.827695,3.6386718 c -1.619251,0 -3.1887218,0.5290859 -4.3300785,1.6289063 C 7.3562597,6.3673985 6.7378508,7.9820285 6.7378508,9.7265624 v 8.3183596 a 1.9,1.9 0 0 0 1.9003907,1.90039 1.9,1.9 0 0 0 1.8984375,-1.90039 V 9.7265624 c 0,-0.9112658 0.254488,-1.3919766 0.597656,-1.7226562 C 11.477503,7.6732266 12.003046,7.4375 12.827695,7.4375 h 22.466797 c 1.050253,0 1.503948,0.2462622 1.769531,0.5195312 0.265583,0.273269 0.501953,0.7629276 0.501953,1.7695312 v 8.3183596 a 1.9,1.9 0 0 0 1.898438,1.90039 1.9,1.9 0 0 0 1.90039,-1.90039 V 9.7265624 c 0,-1.6613961 -0.454454,-3.2637877 -1.576172,-4.4179687 -1.121717,-1.154181 -2.753593,-1.6699219 -4.49414,-1.6699219 z M 44.173398,19.582031 a 1.9,1.9 0 0 0 -1.900391,1.898437 v 16.789063 c 0,0.824649 -0.235722,1.350192 -0.566406,1.693359 -0.330684,0.343167 -0.811324,0.597657 -1.722656,0.597657 H 8.6284758 c -1.1368263,0 -1.8857369,-0.268109 -2.2714843,-0.580079 C 5.9712439,39.6685 5.7280852,39.301448 5.7280852,38.269531 V 25.179687 L 22.630429,37.28125 a 1.90019,1.90019 0 0 0 2.289063,-0.05859 L 40.458554,24.839844 A 1.9,1.9 0 0 0 40.761289,22.169922 1.9,1.9 0 0 0 38.091367,21.86914 L 23.675351,33.357422 7.2066008,21.564453 C 6.6740936,21.18314 6.1942916,20.874384 5.5562102,20.673828 4.9181288,20.473272 3.8681966,20.467113 3.1226165,21.042968 c -0.7455803,0.575856 -0.9502176,1.29493 -1.0664063,1.88086 -0.1161888,0.585929 -0.1353138,1.160481 -0.1289063,1.822266 v 13.523437 c 0,1.883083 0.734835,3.611235 2.0390626,4.666016 1.3042273,1.05478 2.9566356,1.425781 4.6621093,1.425781 H 39.983945 c 1.744568,0 3.359143,-0.620361 4.458984,-1.761719 1.099841,-1.141358 1.63086,-2.710827 1.63086,-4.330078 V 21.480468 a 1.9,1.9 0 0 0 -1.900391,-1.898437 z" fill="#008055"/>
</svg>
