<svg xmlns="http://www.w3.org/2000/svg" width="48" height="48">
	<path d="M 45.518985,31.121738 A 2.20022,2.20022 0 0 0 43.583439,29.01041 c -2.077153,-0.250527 -3.959168,-1.926005 -4.617188,-2.714844 a 2.2,2.2 0 0 0 -3.097656,-0.279297 2.2,2.2 0 0 0 -0.28125,3.097657 c 0.763302,0.915051 2.178365,2.252864 4.11914,3.208984 l -6.730468,8.894531 -6.802735,-8.990234 c 4.810055,-2.063807 9.003907,-6.410306 9.003907,-12.595703 v -5.873047 a 2.2,2.2 0 0 0 -2.201172,-2.201171 2.2,2.2 0 0 0 -2.199219,2.201171 v 5.873047 c 0,5.065957 -4.322467,8.544751 -8.580078,9.40625 a 2.20022,2.20022 0 0 0 -1.318359,3.484375 l 10.34375,13.667969 a 2.20022,2.20022 0 0 0 3.507812,0 l 10.34375,-13.667969 a 2.20022,2.20022 0 0 0 0.445312,-1.400391 z M 27.567814,16.830723 a 2.20022,2.20022 0 0 0 -0.445313,-1.34961 L 16.778751,1.8111921 a 2.20022,2.20022 0 0 0 -3.509765,0 L 2.9252362,15.481113 a 2.20022,2.20022 0 0 0 1.492187,3.511719 c 2.077153,0.250527 3.957214,1.924052 4.615235,2.712891 a 2.2,2.2 0 0 0 3.0996088,0.28125 2.2,2.2 0 0 0 0.279297,-3.09961 C 11.648262,17.972312 10.235152,16.634499 8.2943762,15.678379 l 6.7304688,-8.8925775 6.802734,8.9902335 c -4.810192,2.063747 -9.003906,6.410174 -9.003906,12.595703 v 5.873047 a 2.2,2.2 0 0 0 2.199219,2.199219 2.2,2.2 0 0 0 2.201172,-2.199219 v -5.873047 c 0,-5.065945 4.32247,-8.546705 8.580078,-9.408203 a 2.20022,2.20022 0 0 0 1.763672,-2.132812 z" fill="#008055"/>
</svg>
