<svg xmlns="http://www.w3.org/2000/svg" width="48" height="48">
	<path d="m 11.357421,4.6212008 c -0.973585,0.02027 -2.1531511,0.288229 -3.1699221,1.167969 -1.016772,0.87974 -1.666016,2.359613 -1.666016,4.044922 V 41.379014 a 2,2 0 0 0 2,2 2,2 0 0 0 2.0000001,-2 V 9.8340918 c 0,-0.810391 0.171285,-0.922696 0.283203,-1.019531 0.108175,-0.0936 0.358877,-0.176695 0.615235,-0.1875 3.320312,0.03864 7.51809,1.6803252 11.904296,3.1425782 4.400802,1.467118 9.142743,2.784508 13.75586,1.179687 a 2.0002,2.0002 0 0 0 0.05859,-0.02148 c 0.155924,-0.05971 0.200656,-0.07645 0.339843,-0.130859 v 12.486328 c 0,0.281931 -0.03887,0.331794 -0.199218,0.503906 -0.153332,0.164581 -0.476846,0.370148 -0.841797,0.53125 -3.31971,1.188814 -6.714628,0.429425 -10.410156,-0.841797 -3.716481,-1.278429 -7.55154,-3.113281 -11.685547,-3.113281 a 2,2 0 0 0 -2,2 2,2 0 0 0 2,2 c 2.846872,0 6.427968,1.535389 10.384765,2.896484 3.956797,1.361096 8.474171,2.5028 13.138672,0.800782 a 2.0002,2.0002 0 0 0 0.09375,-0.03711 c 0.714833,-0.30296 1.532138,-0.743427 2.246094,-1.509766 0.713955,-0.766338 1.273437,-1.935599 1.273437,-3.230468 v -12.69727 c 0,-0.786058 0.0024,-1.375936 -0.123047,-2.035156 -0.06271,-0.32961 -0.155077,-0.6986452 -0.421874,-1.1210942 -0.266798,-0.422448 -0.788689,-0.862788 -1.320313,-1.037109 -1.063248,-0.348643 -1.661212,-0.04086 -2.191406,0.140625 -0.516257,0.176713 -1.031265,0.395665 -1.667969,0.640625 -3.104816,1.0748862 -6.949247,0.206546 -11.166012,-1.199219 -4.221765,-1.407432 -8.659297,-3.315518 -13.171875,-3.353516 a 2.0002,2.0002 0 0 0 -0.05859,0 z" fill="#008055"/>
</svg>
