<svg xmlns="http://www.w3.org/2000/svg" width="48" height="48">
	<path d="m 25.136521,9.2808025 a 2.2,2.2 0 0 0 -2.207031,1.9257815 2.2,2.2 0 0 0 1.910156,2.457031 l 14.125,1.763672 -5.535156,13.113281 a 2.2,2.2 0 0 0 1.169922,2.882813 2.2,2.2 0 0 0 2.882813,-1.171875 L 44.14824,14.458537 A 2.20022,2.20022 0 0 0 42.394334,11.421428 L 25.384568,9.2964275 a 2.2,2.2 0 0 0 -0.248047,-0.01563 z M 12.798631,16.40385 a 2.20022,2.20022 0 0 0 -2.048828,3.0625 c 0.821554,1.924103 0.313134,4.391159 -0.04102,5.355468 a 2.2,2.2 0 0 0 1.306641,2.824219 2.2,2.2 0 0 0 2.824218,-1.30664 c 0.410904,-1.118843 0.861438,-3.012417 0.71875,-5.171876 l 11.06836,1.382813 -4.384766,10.388672 C 18.049544,29.804354 12.189371,28.34394 6.8318336,31.437053 L 4.7790986,32.6226 a 2.2,2.2 0 0 0 -0.804687,3.005859 2.2,2.2 0 0 0 3.003906,0.804688 L 9.0310526,35.2476 c 4.3873214,-2.53297 9.5625904,-0.527891 12.4375004,2.728515 a 2.20022,2.20022 0 0 0 3.675781,-0.601562 l 6.666015,-15.792969 a 2.20022,2.20022 0 0 0 -1.753906,-3.037109 l -17.009765,-2.125 a 2.20022,2.20022 0 0 0 -0.248047,-0.01563 z" fill="#008055"/>
</svg>
