<svg xmlns="http://www.w3.org/2000/svg" width="48" height="48">
	<path d="m 22.828405,9.2802078 a 2.2,2.2 0 0 0 -0.212891,0.01758 L 5.6057477,11.420833 a 2.20022,2.20022 0 0 0 -1.753906,3.039062 l 6.6660163,15.791016 a 2.2,2.2 0 0 0 2.882812,1.171875 2.2,2.2 0 0 0 1.171875,-2.882813 L 9.0373887,15.426692 23.160436,13.66302 a 2.2,2.2 0 0 0 1.912109,-2.455078 2.2,2.2 0 0 0 -2.24414,-1.9277342 z m 12.451172,7.1230472 a 2.20022,2.20022 0 0 0 -0.326172,0.01758 l -17.009766,2.123047 a 2.20022,2.20022 0 0 0 -1.753906,3.039062 l 6.666015,15.792969 a 2.20022,2.20022 0 0 0 3.78711,0.464844 c 1.25564,-1.673623 3.646251,-2.467216 4.658203,-2.642578 a 2.2,2.2 0 0 0 1.792969,-2.542971 2.2,2.2 0 0 0 -2.544922,-1.792969 c -1.174467,0.203525 -3.039188,0.759722 -4.837891,1.962891 L 21.37528,22.549739 32.56278,21.153255 c -0.61799,5.197728 1.049211,11.002779 6.40625,14.095703 l 2.052734,1.185547 a 2.2,2.2 0 0 0 3.005859,-0.806641 2.2,2.2 0 0 0 -0.80664,-3.003906 L 41.168248,31.438411 C 36.78091,28.905351 35.930083,23.421532 37.31278,19.303645 a 2.20022,2.20022 0 0 0 -2.033203,-2.90039 z" fill="#008055"/>
</svg>
