<svg xmlns="http://www.w3.org/2000/svg" width="48" height="48">
	<path d="m 31.594726,7.7607655 a 2.2,2.2 0 0 0 -2.201172,2.201172 2.2,2.2 0 0 0 2.201172,2.1992185 c 0.632263,-1.37e-4 1.12124,0.477874 1.121094,1.154297 v 21.339844 c 1.46e-4,0.676423 -0.488831,1.156388 -1.121094,1.15625 a 2.2,2.2 0 0 0 -2.201172,2.199219 2.2,2.2 0 0 0 2.201172,2.201172 c 3.035937,6.62e-4 5.520185,-2.526264 5.519531,-5.556641 v -21.337891 -0.002 C 37.113824,10.285912 34.629999,7.7600565 31.594726,7.7607185 Z m -15.1875,0.0293 c -3.035872,-4.97e-4 -5.521976,2.5243755 -5.521484,5.5546875 v 21.339841 c -4.92e-4,3.030313 2.485692,5.555183 5.521484,5.554688 a 2.2,2.2 0 0 0 2.199219,-2.199219 2.2,2.2 0 0 0 -2.201172,-2.199219 c -0.632408,1.03e-4 -1.11925,-0.479763 -1.119141,-1.15625 V 13.34475 c -1.09e-4,-0.676487 0.486813,-1.156353 1.119141,-1.15625 a 2.2,2.2 0 0 0 2.201172,-2.1992185 2.2,2.2 0 0 0 -2.199219,-2.199219 z" fill="#008055"/>
</svg>
