<svg xmlns="http://www.w3.org/2000/svg" width="48" height="48">
	<path d="m 14.12793,8.373047 c -1.5248,0 -3.02277,0.502443 -4.115235,1.554687 -1.092464,1.052245 -1.679687,2.597365 -1.679687,4.238282 v 19.113281 c 0,1.58602 0.343458,3.148135 1.353515,4.396484 1.010058,1.248349 2.673531,1.951172 4.441407,1.951172 a 2,2 0 0 0 2,-2 2,2 0 0 0 -2,-2 c -0.872345,0 -1.104184,-0.185196 -1.332031,-0.466797 -0.227848,-0.281601 -0.462891,-0.893679 -0.462891,-1.880859 V 14.166016 c 0,-0.763384 0.202965,-1.114591 0.455078,-1.357422 0.252113,-0.242831 0.651114,-0.435547 1.339844,-0.435547 h 19.763672 c 0.900758,0 1.224805,0.20217 1.402343,0.384765 0.177539,0.182596 0.373047,0.545269 0.373047,1.408204 v 19.113281 c 0,0.882241 -0.250228,1.487082 -0.539062,1.828125 -0.288834,0.341043 -0.590664,0.519531 -1.236328,0.519531 H 19.276367 a 2,2 0 0 0 -2,2 2,2 0 0 0 2,2 h 14.615235 c 1.686085,0 3.272379,-0.733137 4.289062,-1.933594 1.016683,-1.200456 1.486328,-2.769304 1.486328,-4.414062 V 14.166016 c 0,-1.552466 -0.42689,-3.085609 -1.505859,-4.195313 -1.078969,-1.109704 -2.6425,-1.597656 -4.269531,-1.597656 z" fill="#008055"/>
</svg>
