<svg xmlns="http://www.w3.org/2000/svg" width="48" height="48">
	<path d="m 44.787109,12.420898 a 2,2 0 0 0 -2,2 v 19.158204 a 2,2 0 0 0 2,2 2,2 0 0 0 2,-2 V 14.420898 a 2,2 0 0 0 -2,-2 z M 4.2636719,12.891602 c -0.4640153,0.02035 -0.927747,0.138199 -1.359375,0.376953 -1.1510079,0.636676 -1.6914062,1.943483 -1.6914062,3.126953 v 10.302734 a 2,2 0 0 0 2,2 2,2 0 0 0 2,-2 V 17.393555 L 16.570312,24.004883 5.0253907,30.727539 a 2,2 0 0 0 -1.8125,-1.160156 2,2 0 0 0 -2,2 c 0,1.177104 0.5043386,2.458577 1.6328125,3.126953 1.1284738,0.668376 2.5578672,0.471644 3.5800781,-0.154297 L 6.3886723,34.563479 19.33789,27.02051 c 1.009522,-0.540913 2.023396,-1.513139 2.054688,-2.949219 0.03129,-1.436079 -0.982774,-2.491386 -2.021484,-3.0625 l 0.04297,0.02344 L 6.4394532,13.479492 C 5.9368905,13.171796 5.3408695,12.958542 4.7265625,12.90332 4.5729858,12.88952 4.4183437,12.88482 4.2636719,12.8916 Z m 20.5449221,0 c -0.464016,0.02035 -0.927747,0.138201 -1.359376,0.376953 -1.151009,0.636671 -1.691406,1.943478 -1.691406,3.126953 v 10.302734 a 2,2 0 0 0 2,2 2,2 0 0 0 2,-2 v -9.304687 l 11.357422,6.611328 -11.542969,6.720703 a 2,2 0 0 0 -1.814453,-1.158203 2,2 0 0 0 -2,2 c 0,1.177099 0.504337,2.458574 1.632813,3.126953 1.128475,0.668379 2.557867,0.471639 3.580078,-0.154297 l -0.03711,0.02344 12.951171,-7.542969 c 1.009473,-0.540941 2.021497,-1.515162 2.052735,-2.951172 0.03124,-1.43601 -0.982804,-2.489425 -2.021485,-3.060547 l 0.04297,0.02344 -13.011719,-7.576172 0.03711,0.02344 c -0.502565,-0.307694 -1.098585,-0.520951 -1.712891,-0.576172 -0.153576,-0.0138 -0.308219,-0.0185 -0.46289,-0.01172 z" fill="#008055"/>
</svg>
