<svg xmlns="http://www.w3.org/2000/svg" width="48" height="48">
	<path d="m 23.913086,5.3363773 c -1.783324,0.03909 -3.043436,1.312857 -3.789062,2.714844 L 8.5224605,28.127393 c -0.840745,1.383569 -1.064886,3.191534 -0.230469,4.611328 0.834418,1.419794 2.4625555,2.095703 4.0585945,2.095703 a 2.2,2.2 0 0 0 2.201172,-2.199219 2.2,2.2 0 0 0 -2.201172,-2.199218 c -0.05327,0 -0.03845,-0.0056 -0.07813,-0.0078 0.0067,-0.01118 0.0024,-0.0035 0.0098,-0.01563 a 2.20022,2.20022 0 0 0 0.02539,-0.04102 L 23.97168,10.185987 a 2.20022,2.20022 0 0 0 0.02148,-0.03906 2.20022,2.20022 0 0 0 0.01172,0.01953 l 11.664062,20.185547 a 2.20022,2.20022 0 0 0 0.02539,0.04102 c 0.01689,0.02779 0.008,0.01731 0.02148,0.04102 -0.0043,1.3e-5 -0.0014,0 -0.0059,0 H 18.399414 a 2.2,2.2 0 0 0 -2.201172,2.201171 2.2,2.2 0 0 0 2.201172,2.199219 h 17.310547 c 1.603054,0 3.253436,-0.716752 4.046875,-2.162109 0.793439,-1.445358 0.526698,-3.199501 -0.302734,-4.564453 L 27.81543,7.9652843 l 0.02539,0.04687 C 27.051857,6.5663153 25.69641,5.2972933 23.913086,5.3363773 Z M 6.0439445,38.264112 a 2.2,2.2 0 0 0 -2.199218,2.199218 2.2,2.2 0 0 0 2.199218,2.201172 H 41.956055 a 2.2,2.2 0 0 0 2.199219,-2.201172 2.2,2.2 0 0 0 -2.199219,-2.199218 z" fill="#008055"/>
</svg>
