<svg xmlns="http://www.w3.org/2000/svg" width="48" height="48">
	<path d="m 24.086914,42.663623 c 1.783324,-0.03909 3.043436,-1.312857 3.789062,-2.714844 L 39.47754,19.872607 c 0.840745,-1.383569 1.064886,-3.191534 0.230469,-4.611328 -0.834418,-1.419794 -2.462556,-2.095703 -4.058595,-2.095703 a 2.2,2.2 0 0 0 -2.201172,2.199219 2.2,2.2 0 0 0 2.201172,2.199218 c 0.05327,0 0.03845,0.0056 0.07813,0.0078 -0.0067,0.01118 -0.0024,0.0035 -0.0098,0.01563 a 2.20022,2.20022 0 0 0 -0.02539,0.04102 L 24.02832,37.814013 a 2.20022,2.20022 0 0 0 -0.02148,0.03906 2.20022,2.20022 0 0 0 -0.01172,-0.01953 L 12.331058,17.647996 a 2.20022,2.20022 0 0 0 -0.02539,-0.04102 c -0.01689,-0.02779 -0.008,-0.01731 -0.02148,-0.04102 0.0043,-1.3e-5 0.0014,0 0.0059,0 h 17.310498 a 2.2,2.2 0 0 0 2.201172,-2.201171 2.2,2.2 0 0 0 -2.201172,-2.199219 H 12.290039 c -1.603054,0 -3.2534356,0.716752 -4.0468746,2.162109 -0.793439,1.445358 -0.526698,3.199501 0.302734,4.564453 L 20.18457,40.034716 20.15918,39.987846 c 0.788963,1.445839 2.14441,2.714861 3.927734,2.675777 z M 41.956056,9.7358878 a 2.2,2.2 0 0 0 2.199218,-2.199218 2.2,2.2 0 0 0 -2.199218,-2.201172 H 6.0439454 a 2.2,2.2 0 0 0 -2.199219,2.201172 2.2,2.2 0 0 0 2.199219,2.199218 z" fill="#008055"/>
</svg>
