<svg xmlns="http://www.w3.org/2000/svg" width="48" height="48">
	<path d="m 11.429929,12.722001 c 0.703283,-0.78415 1.487681,-1.512261 2.354056,-2.1704 6.930998,-5.2651163 16.778608,-4.3830574 22.662785,2.030725 5.884177,6.413781 5.916078,16.298989 0.07458,22.751671 -5.841494,6.452681 -15.680545,7.401329 -22.646323,2.182316 a 1.9999986,2.0000014 84.928618 0 1 -0.401619,-2.799933 1.9999986,2.0000014 84.928618 0 1 2.799936,-0.40162 c 5.34077,4.001497 12.804726,3.282762 17.283488,-1.664607 4.478767,-4.947368 4.453632,-12.445491 -0.05786,-17.363035 C 28.987487,10.369574 21.518741,9.7009022 16.204639,13.737746 10.890537,17.77459 9.5322471,25.147582 13.059785,30.812583 A 1.9999986,2.0000014 84.928618 0 1 12.4205,33.567721 1.9999986,2.0000014 84.928618 0 1 9.6638605,32.927182 C 5.6381219,26.462103 6.5069405,18.211045 11.429929,12.722001 Z" fill="#008055"/>
</svg>
