<svg xmlns="http://www.w3.org/2000/svg" width="48" height="48">
	<path d="m 34.274854,40.21425 c 0.789601,0.07145 1.589822,-0.06031 2.3125,-0.457031 1.445358,-0.793439 2.16211,-2.445774 2.16211,-4.048828 V 18.446672 a 2.2,2.2 0 0 0 -2.199219,-2.199219 2.2,2.2 0 0 0 -2.201172,2.199219 l 0.002,17.261719 c 0,0.477446 -0.08099,0.30127 0.119141,0.191406 0.200132,-0.109864 0.260439,0.04974 -0.16211,-0.207031 a 2.20022,2.20022 0 0 0 -0.04101,-0.02539 L 14.081547,24.003314 a 2.20022,2.20022 0 0 0 -0.02148,-0.01172 2.20022,2.20022 0 0 0 0.04102,-0.02148 L 34.286573,12.306047 a 2.20022,2.20022 0 0 0 0.04102,-0.02539 c 0.403957,-0.24547 0.280251,-0.08686 0.0957,-0.195312 -0.184548,-0.108452 -0.07227,-0.218836 -0.07227,0.265625 a 2.2,2.2 0 0 0 2.199219,2.199219 2.2,2.2 0 0 0 2.199219,-2.199219 c 0,-1.59604 -0.67588,-3.2242173 -2.095703,-4.0585943 -1.419823,-0.834377 -3.225832,-0.612214 -4.609375,0.228516 l 0.04101,-0.02539 -20.11914,11.6269533 -0.0039,0.002 c -1.400512,0.745878 -2.6718871,2.005372 -2.7109371,3.78711 -0.03909,1.783324 1.2299361,3.138771 2.6757811,3.927734 l -0.04688,-0.02539 20.142584,11.638622 c 0.682476,0.414717 1.462353,0.690271 2.251953,0.761719 z" fill="#008055"/>
</svg>
