<svg xmlns="http://www.w3.org/2000/svg" width="48" height="48">
	<path d="m 13.725147,7.7857501 c -0.789601,-0.07145 -1.589822,0.06031 -2.3125,0.457031 -1.4453584,0.793439 -2.1621102,2.4457739 -2.1621102,4.0488279 v 17.261719 a 2.2,2.2 0 0 0 2.1992192,2.199219 2.2,2.2 0 0 0 2.201172,-2.199219 l -0.002,-17.261719 c 0,-0.477446 0.08099,-0.30127 -0.119141,-0.191406 -0.200132,0.109864 -0.260439,-0.04974 0.16211,0.207031 a 2.20022,2.20022 0 0 0 0.04101,0.02539 l 20.185547,11.664062 a 2.20022,2.20022 0 0 0 0.02148,0.01172 2.20022,2.20022 0 0 0 -0.04102,0.02148 L 13.713428,35.693953 a 2.20022,2.20022 0 0 0 -0.04102,0.02539 c -0.403957,0.24547 -0.280251,0.08686 -0.0957,0.195312 0.184548,0.108452 0.07227,0.218836 0.07227,-0.265625 A 2.2,2.2 0 0 0 11.449759,33.449811 2.2,2.2 0 0 0 9.2505398,35.64903 c 0,1.59604 0.6758798,3.224217 2.0957032,4.058594 1.419823,0.834377 3.225832,0.612214 4.609375,-0.228516 l -0.04101,0.02539 20.11914,-11.626953 0.0039,-0.002 c 1.400512,-0.745878 2.671887,-2.005372 2.710937,-3.78711 0.03909,-1.783324 -1.229936,-3.138771 -2.675781,-3.927734 l 0.04688,0.02539 L 15.9771,8.5474691 c -0.682476,-0.414717 -1.462353,-0.690271 -2.251953,-0.761719 z" fill="#008055"/>
</svg>
