<svg xmlns="http://www.w3.org/2000/svg" width="48" height="48">
	<path d="m 14.376953,6.5273438 c -1.776714,0 -3.454565,0.5167276 -4.7089842,1.6171874 C 8.4135497,9.2449914 7.6933594,10.920527 7.6933594,12.697266 V 35.28125 c 0,1.878148 0.6856932,3.630591 1.9882812,4.722656 1.3025884,1.092065 2.9709974,1.46875 4.6914064,1.46875 h 19.623047 c 1.766467,0 3.41256,-0.616205 4.5625,-1.761718 1.14994,-1.145514 1.746094,-2.756937 1.746094,-4.429688 V 15.273438 c 0,-1.787284 -0.582761,-3.468501 -1.789063,-4.59375 C 37.309324,9.5544398 35.674698,9.1035156 33.996094,9.1035156 h -8.185547 c -1.10457,0 -2,0.8954307 -2,2.0000004 0,1.104569 0.895431,2 2,2 h 8.185547 c 0.989386,0 1.512067,0.239928 1.792968,0.501953 0.280901,0.262027 0.515626,0.664392 0.515626,1.667969 V 35.28125 c 0,0.77114 -0.230005,1.256705 -0.570313,1.595703 -0.340307,0.338998 -0.848918,0.595703 -1.738281,0.595703 H 14.373047 c -1.12183,0 -1.791519,-0.260484 -2.119141,-0.535156 -0.327622,-0.274672 -0.558594,-0.619408 -0.558594,-1.65625 V 12.697266 c 0,-0.797681 0.220782,-1.205975 0.609376,-1.546875 0.388593,-0.3409 1.057688,-0.623047 2.072265,-0.623047 h 7.720703 c 1.103807,-0.0011 1.998048,-0.8961929 1.998047,-2.0000002 1e-6,-1.1038073 -0.89424,-1.9989221 -1.998047,-2 z m 11.052735,8.9589842 c -0.37822,-0.0027 -0.74356,0.06678 -1.089844,0.236328 -0.692566,0.339091 -0.994346,0.927286 -1.169922,1.273438 -0.351151,0.692302 -0.195312,0.820088 -1.085938,1.044922 -0.909815,0.229679 -0.839195,0.04074 -1.482422,-0.400391 -0.321612,-0.220565 -0.872513,-0.590327 -1.640624,-0.558594 -0.768112,0.03173 -1.411535,0.445496 -2.017579,1.029297 -0.601773,0.579686 -1.039251,1.209345 -1.091797,1.978516 -0.05255,0.76917 0.305514,1.327255 0.517579,1.652344 0.424131,0.650178 0.609925,0.579367 0.359375,1.46289 -0.255948,0.902558 -0.380243,0.74569 -1.083985,1.082031 -0.351872,0.168171 -0.952026,0.459726 -1.308593,1.140625 -0.356568,0.680899 -0.315977,1.447057 -0.113282,2.263672 0.201266,0.810859 0.525996,1.505467 1.166016,1.935547 0.64002,0.43008 1.303764,0.396062 1.691406,0.375 2.002277,0.04503 3.010698,-1.320214 1.948005,-2.295332 -0.682812,-0.4744 -1.598991,-0.327082 -2.090583,-0.300371 -0.0648,0.0035 -0.07154,0.0024 -0.0918,0.002 -0.01434,-0.04003 -0.04754,-0.133977 -0.09961,-0.34375 -0.05423,-0.218465 -0.05839,-0.317045 -0.0625,-0.388672 0.02903,-0.01571 0.02486,-0.01471 0.08398,-0.04297 0.523351,-0.250126 1.973968,-0.987757 2.464844,-2.71875 0.48841,-1.722294 -0.367466,-3.109135 -0.683594,-3.59375 -0.03546,-0.05436 -0.0391,-0.06045 -0.04883,-0.07812 0.02723,-0.03181 0.09153,-0.107045 0.248047,-0.257813 0.161951,-0.156007 0.244573,-0.210603 0.304687,-0.25 0.02816,0.01727 0.02515,0.01311 0.08008,0.05078 0.478349,0.328055 1.842983,1.217839 3.587891,0.777344 1.736141,-0.438282 2.509752,-1.874614 2.771485,-2.390625 0.03003,-0.0592 0.0341,-0.06384 0.04492,-0.08203 0.04191,0.0075 0.137586,0.02603 0.345703,0.08594 0.216785,0.06241 0.303113,0.108201 0.367188,0.140625 -9.27e-4,0.03298 0.0031,0.02831 -0.002,0.09375 -0.045,0.578182 -0.132939,2.205596 1.121094,3.496094 1.247731,1.284012 2.877217,1.234522 3.455078,1.203125 0.06618,-0.0036 0.07266,-0.0024 0.09375,-0.002 0.01422,0.03964 0.04532,0.1329 0.09766,0.34375 0.05453,0.219709 0.06044,0.319301 0.06445,0.390625 -0.02902,0.0157 -0.02517,0.0129 -0.08398,0.04102 -0.523352,0.250129 -1.975921,0.987758 -2.466797,2.71875 -0.488409,1.722295 0.369419,3.109136 0.685547,3.59375 0.03604,0.05525 0.03684,0.06188 0.04688,0.08008 -0.02765,0.03227 -0.09273,0.106241 -0.248047,0.255859 -0.16195,0.156007 -0.244575,0.210602 -0.304688,0.25 -0.02812,-0.01727 -0.02585,-0.0136 -0.08008,-0.05078 -0.478348,-0.328055 -1.842981,-1.215886 -3.58789,-0.775391 -1.736141,0.438281 -2.507799,1.87266 -2.769532,2.388672 -0.02978,0.0587 -0.03427,0.06414 -0.04492,0.08203 -0.0419,-0.0075 -0.139515,-0.02602 -0.347656,-0.08594 -0.216785,-0.06241 -0.305064,-0.108201 -0.36914,-0.140625 9.26e-4,-0.03299 7.22e-4,-0.02827 0.0059,-0.09375 0.03455,-0.443861 0.05985,-1.288578 -0.278473,-1.933572 -0.844691,-1.373863 -2.541233,-0.361139 -2.385296,1.544072 9.01e-4,0.539143 -0.0056,1.238381 0.405956,1.887547 0.411544,0.649166 1.091651,1.001561 1.900391,1.234375 0.803039,0.231173 1.5672,0.294167 2.259766,-0.04492 0.692567,-0.33909 0.994346,-0.927287 1.169922,-1.273438 0.351151,-0.692303 0.199216,-0.820087 1.089843,-1.044922 0.909814,-0.229679 0.83529,-0.04074 1.478516,0.400391 0.321614,0.220564 0.872514,0.592279 1.640625,0.560547 0.768112,-0.03173 1.415439,-0.44745 2.021484,-1.03125 0.601772,-0.579687 1.041204,-1.209346 1.09375,-1.978516 0.05255,-0.76917 -0.309418,-1.3253 -0.521484,-1.65039 -0.424131,-0.650178 -0.611878,-0.581321 -0.361328,-1.464844 0.255949,-0.902559 0.384147,-0.745689 1.087891,-1.082031 0.351871,-0.16817 0.94812,-0.459726 1.304687,-1.140625 0.356567,-0.680898 0.319882,-1.447057 0.117187,-2.263672 -0.201267,-0.810859 -0.527947,-1.503515 -1.167968,-1.933594 -0.64002,-0.43008 -1.303765,-0.398015 -1.691406,-0.376953 -0.775283,0.04212 -0.80719,0.238766 -1.447266,-0.419922 -0.653866,-0.672879 -0.455046,-0.702997 -0.394531,-1.480469 0.03026,-0.388736 0.07561,-1.052006 -0.335938,-1.701172 -0.411544,-0.649166 -1.09165,-0.999608 -1.900391,-1.232421 -0.40152,-0.115587 -0.793655,-0.190658 -1.171874,-0.19336 z m -1.634766,5.544922 c -0.690516,0.01273 -1.38218,0.192676 -2.011719,0.548828 -0.839386,0.474869 -1.465896,1.206385 -1.822265,2.052734 -0.35637,0.84635 -0.444236,1.8082 -0.197266,2.740235 0.18373,0.695055 0.896933,1.108976 1.591797,0.923828 0.695303,-0.183848 1.10925,-0.897097 0.923828,-1.591797 -0.194416,-0.733697 0.122494,-1.489495 0.783203,-1.863281 0.660711,-0.373786 1.472904,-0.25535 2.001953,0.289062 0.52905,0.544412 0.62328,1.358359 0.230469,2.007813 -0.39281,0.649454 -1.158733,0.945948 -1.886719,0.730469 -0.68821,-0.203449 -1.411175,0.189068 -1.615234,0.876953 -0.203694,0.68872 0.189892,1.412045 0.878906,1.615234 1.84951,0.547442 3.851517,-0.226756 4.849609,-1.876953 0.998091,-1.650197 0.754223,-3.784873 -0.589843,-5.167969 -0.840041,-0.864434 -1.985858,-1.30637 -3.136719,-1.285156 z" fill="#008055"/>
</svg>
