<svg xmlns="http://www.w3.org/2000/svg" width="48" height="48">
	<path d="m 43.241246,23.99022 c 4.88e-4,-2.235296 -1.8073,-4.047457 -4.037109,-4.046875 -2.229046,4.99e-4 -4.035644,1.812344 -4.035156,4.046875 -4.88e-4,2.234531 1.80611,4.046376 4.035156,4.046875 2.229808,5.82e-4 4.037597,-1.811579 4.037109,-4.046875 z M 28.04004,24.0117 c 4.88e-4,-2.234532 -1.80611,-4.046376 -4.035156,-4.046875 -2.229809,-5.83e-4 -4.037598,1.811578 -4.03711,4.046875 5.89e-4,2.234533 1.808062,4.045504 4.03711,4.044921 2.228285,-4.99e-4 4.034568,-1.811153 4.035156,-4.044921 z M 12.850551,23.99998 c -4.99e-4,-2.228285 -1.811153,-4.034568 -4.0449222,-4.035156 -2.234531,-4.88e-4 -4.046376,1.80611 -4.046875,4.035156 -5.82e-4,2.229808 1.811579,4.037597 4.046875,4.037109 2.2345332,-5.88e-4 4.0455042,-1.808061 4.0449222,-4.037109 z" fill="#008055"/>
</svg>
