<svg xmlns="http://www.w3.org/2000/svg" width="48" height="48">
	<path d="m 23.990237,4.7587365 c -2.235296,-4.878e-4 -4.047457,1.8073007 -4.046875,4.0371094 4.99e-4,2.2290461 1.812344,4.0356441 4.046875,4.0351561 2.234531,4.88e-4 4.046376,-1.80611 4.046875,-4.0351561 5.82e-4,-2.2298086 -1.811579,-4.0375971 -4.046875,-4.0371094 z m 0.02148,15.2012065 c -2.234532,-4.88e-4 -4.046376,1.80611 -4.046875,4.035156 -5.83e-4,2.229809 1.811578,4.037598 4.046875,4.03711 2.234533,-5.89e-4 4.045504,-1.808062 4.044921,-4.03711 -4.99e-4,-2.228285 -1.811153,-4.034568 -4.044921,-4.035156 z m -0.01172,15.189489 c -2.228285,4.99e-4 -4.034568,1.811153 -4.035156,4.044922 -4.88e-4,2.234531 1.80611,4.046376 4.035156,4.046875 2.229808,5.82e-4 4.037597,-1.811579 4.037109,-4.046875 -5.88e-4,-2.234533 -1.808061,-4.045504 -4.037109,-4.044922 z" fill="#008055"/>
</svg>
