<svg xmlns="http://www.w3.org/2000/svg" width="48" height="48">
	<path d="M 8.638671,4.2666015 A 2.2,2.2 0 0 0 6.439453,6.4658203 V 41.532226 a 2.2,2.2 0 0 0 2.199218,2.201172 2.2,2.2 0 0 0 2.201172,-2.201172 V 6.4658203 A 2.2,2.2 0 0 0 8.638671,4.2666015 Z m 15.332032,0 A 2.2,2.2 0 0 0 21.771484,6.4658203 V 41.532226 a 2.2,2.2 0 0 0 2.199219,2.201172 2.2,2.2 0 0 0 2.201172,-2.201172 V 6.4658203 A 2.2,2.2 0 0 0 23.970703,4.2666015 Z m 15.390625,0 A 2.2,2.2 0 0 0 37.162109,6.4658203 V 41.532226 a 2.2,2.2 0 0 0 2.199219,2.201172 2.2,2.2 0 0 0 2.199219,-2.201172 V 6.4658203 A 2.2,2.2 0 0 0 39.361328,4.2666015 Z" fill="#008055"/>
</svg>
