<svg xmlns="http://www.w3.org/2000/svg" width="48" height="48">
	<path d="m 43.347655,23.990235 a 3.1446428,3.1523814 0 0 0 -3.144531,-3.152343 3.1446428,3.1523814 0 0 0 -3.144531,3.152343 3.1446428,3.1523814 0 0 0 3.144531,3.152344 3.1446428,3.1523814 0 0 0 3.144531,-3.152344 z m -16.199219,0.01953 a 3.1446428,3.1523814 0 0 0 -3.144531,-3.152344 3.1446428,3.1523814 0 0 0 -3.144531,3.152344 3.1446428,3.1523814 0 0 0 3.144531,3.152343 3.1446428,3.1523814 0 0 0 3.144531,-3.152343 z m -16.191406,-0.0098 a 3.1523814,3.1446428 0 0 0 -3.1523441,-3.144531 3.1523814,3.1446428 0 0 0 -3.152343,3.144531 3.1523814,3.1446428 0 0 0 3.152343,3.144531 3.1523814,3.1446428 0 0 0 3.1523441,-3.144531 z" fill="#008055"/>
</svg>
