<svg xmlns="http://www.w3.org/2000/svg" width="48" height="48">
	<path d="m 23.990234,4.6523439 a 3.1523814,3.1446428 0 0 0 -3.152343,3.1445312 3.1523814,3.1446428 0 0 0 3.152343,3.1445309 3.1523814,3.1446428 0 0 0 3.152344,-3.1445309 3.1523814,3.1446428 0 0 0 -3.152344,-3.1445312 z m 0.01953,16.1992191 a 3.1523814,3.1446428 0 0 0 -3.152344,3.144531 3.1523814,3.1446428 0 0 0 3.152344,3.144531 3.1523814,3.1446428 0 0 0 3.152343,-3.144531 3.1523814,3.1446428 0 0 0 -3.152343,-3.144531 z M 24,37.042969 A 3.1446428,3.1523814 0 0 0 20.855469,40.195313 3.1446428,3.1523814 0 0 0 24,43.347656 3.1446428,3.1523814 0 0 0 27.144531,40.195313 3.1446428,3.1523814 0 0 0 24,37.042969 Z" fill="#008055"/>
</svg>
