<svg xmlns="http://www.w3.org/2000/svg" width="48" height="48">
	<path d="m 16.421875,11.457536 a 2.20022,2.20022 0 0 0 -1.275391,0.443359 L 1.4765628,22.244645 a 2.20022,2.20022 0 0 0 0,3.509766 l 13.6699212,10.34375 a 2.20022,2.20022 0 0 0 3.511719,-1.490235 c 0.250543,-2.077163 1.924108,-3.959201 2.712891,-4.617187 a 2.2,2.2 0 0 0 0.28125,-3.09961 2.2,2.2 0 0 0 -3.09961,-0.279296 c -0.91531,0.763531 -2.252837,2.177507 -3.208984,4.11914 L 6.4511722,24.000504 15.34375,17.270036 c 0.956128,1.940771 2.293963,3.353896 3.208984,4.117187 a 2.2,2.2 0 0 0 3.09961,-0.279297 2.2,2.2 0 0 0 -0.28125,-3.099609 C 20.582249,17.35028 18.908745,15.470239 18.658203,13.393083 a 2.20022,2.20022 0 0 0 -2.236328,-1.935547 z m 15.033203,0 a 2.20022,2.20022 0 0 0 -2.111328,1.935547 c -0.250542,2.077156 -1.925999,3.957197 -2.714844,4.615234 a 2.2,2.2 0 0 0 -0.279297,3.099609 2.2,2.2 0 0 0 3.097657,0.279297 c 0.915021,-0.763291 2.252856,-2.176416 3.208984,-4.117187 l 8.894531,6.730468 -8.894531,6.730469 c -0.956147,-1.941633 -2.293674,-3.355609 -3.208984,-4.11914 a 2.2,2.2 0 0 0 -3.097657,0.279296 2.2,2.2 0 0 0 0.279297,3.09961 c 0.788783,0.657986 2.464301,2.540024 2.714844,4.617187 a 2.20022,2.20022 0 0 0 3.511719,1.490235 l 13.667968,-10.34375 a 2.20022,2.20022 0 0 0 0,-3.509766 L 32.855469,11.900895 a 2.20022,2.20022 0 0 0 -1.400391,-0.443359 z" fill="#008055"/>
</svg>
