<svg xmlns="http://www.w3.org/2000/svg" width="48" height="48">
	<path d="m 7.1680252,28.836576 a 2.20022,2.20022 0 0 0 0.445312,1.349609 L 17.957088,43.856108 a 2.20022,2.20022 0 0 0 3.507813,0 l 10.34375,-13.669923 a 2.20022,2.20022 0 0 0 -1.490234,-3.511719 c -2.077281,-0.250548 -3.959151,-1.924046 -4.617188,-2.71289 a 2.2,2.2 0 0 0 -3.097656,-0.28125 2.2,2.2 0 0 0 -0.28125,3.099609 c 0.763426,0.915183 2.177786,2.252835 4.11914,3.208984 l -6.730468,8.892579 -6.804688,-8.990235 c 4.810645,-2.063519 9.00586,-6.409684 9.00586,-12.595703 0,-2.86628 0.932844,-4.959231 3.417968,-6.677734 2.485124,-1.718503 6.776666,-2.945313 13.300782,-2.945313 A 2.2,2.2 0 0 0 40.832088,5.473294 2.2,2.2 0 0 0 38.630917,3.272123 c -7.058785,0 -12.225237,1.251315 -15.804688,3.726562 -3.579451,2.475247 -5.314453,6.291355 -5.314453,10.296875 0,5.065898 -4.322576,8.546701 -8.5800788,9.408203 a 2.20022,2.20022 0 0 0 -1.763672,2.132813 z" fill="#008055"/>
</svg>
