<svg xmlns="http://www.w3.org/2000/svg" width="48" height="48">
	<path d="m 24.033203,1.8968667 a 1.90019,1.90019 0 0 0 -1.558594,0.7675781 l -6.984375,9.4042962 a 1.90019,1.90019 0 0 0 1.292969,3.019532 c 1.225699,0.150594 2.440598,1.22876 2.841797,1.71875 a 1.9,1.9 0 0 0 2.673828,0.265625 1.9,1.9 0 0 0 0.267578,-2.673829 C 22.079663,13.804355 21.154777,13.037251 20,12.369523 l 4,-5.3847657 3.960937,5.3320307 c -3.186357,1.561076 -5.859375,4.622809 -5.859375,8.841797 A 1.9,1.9 0 0 0 24,23.058976 1.9,1.9 0 0 0 25.90039,21.158585 c 0,-3.290925 2.769351,-5.538829 5.470704,-6.095703 a 1.90019,1.90019 0 0 0 1.140624,-2.994141 L 25.52539,2.6644448 A 1.90019,1.90019 0 0 0 24.033203,1.8968667 Z M 13.134765,15.115616 a 1.90019,1.90019 0 0 0 -1.064453,0.373047 l -9.4062492,6.986328 a 1.90019,1.90019 0 0 0 0,3.050782 l 9.4062492,6.986328 a 1.90019,1.90019 0 0 0 3.017578,-1.294922 c 0.150596,-1.225707 1.228839,-2.440662 1.71875,-2.841797 a 1.9,1.9 0 0 0 0.267578,-2.673828 1.9,1.9 0 0 0 -2.673828,-0.265625 c -0.594511,0.486781 -1.363536,1.409659 -2.03125,2.564453 l -5.3847646,-4 5.3320306,-3.960937 c 1.561109,3.186389 4.622832,5.861328 8.841797,5.861328 a 1.9,1.9 0 0 0 1.900391,-1.900391 1.9,1.9 0 0 0 -1.900391,-1.900391 c -3.290954,0 -5.536878,-2.767326 -6.09375,-5.46875 a 1.90019,1.90019 0 0 0 -1.929688,-1.515625 z m 21.603516,0 a 1.90019,1.90019 0 0 0 -1.826172,1.667969 c -0.150596,1.225707 -1.226886,2.440662 -1.716797,2.841797 a 1.9,1.9 0 0 0 -0.267578,2.673828 1.9,1.9 0 0 0 2.673828,0.265625 c 0.59453,-0.486795 1.363527,-1.409603 2.03125,-2.564453 l 5.384766,4 -5.332031,3.960937 c -1.56111,-3.186389 -4.624785,-5.861328 -8.84375,-5.861328 a 1.9,1.9 0 0 0 -1.898438,1.900391 1.9,1.9 0 0 0 1.898438,1.900391 c 3.290954,0 5.538831,2.767326 6.095703,5.46875 a 1.90019,1.90019 0 0 0 2.99414,1.142578 l 9.404297,-6.986328 a 1.90019,1.90019 0 0 0 0,-3.050782 L 35.93164,15.488663 A 1.90019,1.90019 0 0 0 34.738281,15.115616 Z M 24,24.941788 a 1.9,1.9 0 0 0 -1.898438,1.900391 c 0,3.290954 -2.769357,5.538831 -5.470703,6.095703 a 1.90019,1.90019 0 0 0 -1.140625,2.994141 l 6.984375,9.404296 a 1.90019,1.90019 0 0 0 3.050781,0 l 6.986328,-9.404296 A 1.90019,1.90019 0 0 0 31.21875,32.912491 c -1.225699,-0.150594 -2.442551,-1.22876 -2.84375,-1.71875 a 1.9,1.9 0 0 0 -2.673828,-0.265625 1.9,1.9 0 0 0 -0.265625,2.673829 C 25.922251,34.196363 26.845368,34.963536 28,35.631241 l -4,5.384766 -3.960938,-5.332031 c 3.186444,-1.561042 5.861328,-4.622721 5.861328,-8.841797 A 1.9,1.9 0 0 0 24,24.941788 Z" fill="#008055"/>
</svg>
