<svg xmlns="http://www.w3.org/2000/svg" width="48" height="48">
	<path d="M 24.022461,3.2725922 A 2.20022,2.20022 0 0 0 22.233398,4.1456391 L 11.889648,17.813608 a 2.20022,2.20022 0 0 0 1.490235,3.511719 c 2.077194,0.250543 3.95913,1.925984 4.617187,2.714843 a 2.2,2.2 0 0 0 3.09961,0.279297 2.2,2.2 0 0 0 0.279297,-3.097656 c -0.76357,-0.915345 -2.177225,-2.254765 -4.119141,-3.210938 l 6.730469,-8.8925776 6.804687,8.9921876 c -4.809982,2.063835 -9.003906,6.408436 -9.003906,12.59375 0,0.08661 0.01205,0.171388 0.01367,0.257812 -0.05665,2.731421 -0.998208,4.75669 -3.40625,6.421875 -2.485127,1.718491 -6.778619,2.94336 -13.3027347,2.94336 a 2.2,2.2 0 0 0 -2.2011715,2.201172 2.2,2.2 0 0 0 2.2011715,2.199218 c 7.0587737,0 12.2252267,-1.249375 15.8046877,-3.724609 1.268014,-0.876845 2.293247,-1.929291 3.103516,-3.091797 0.809935,1.162442 1.833606,2.214992 3.101562,3.091797 3.579461,2.475234 8.747867,3.724609 15.806641,3.724609 a 2.2,2.2 0 0 0 2.199218,-2.199218 2.2,2.2 0 0 0 -2.199218,-2.201172 c -6.524116,0 -10.817608,-1.224869 -13.302735,-2.94336 -2.408042,-1.665185 -3.349597,-3.690454 -3.40625,-6.421875 0.0016,-0.08642 0.01367,-0.171201 0.01367,-0.257812 a 2.2,2.2 0 0 0 -0.01367,-0.238281 c 0.134859,-4.934755 4.378839,-8.320233 8.56836,-9.167969 a 2.20022,2.20022 0 0 0 1.318359,-3.484375 L 25.743164,4.1456391 A 2.20022,2.20022 0 0 0 24.022461,3.2725922 Z" fill="#008055"/>
</svg>
