<svg xmlns="http://www.w3.org/2000/svg" width="48" height="48">
	<path d="m 29.615989,7.8004104 c -0.766206,0.00463 -1.545802,0.1616527 -2.292969,0.4335937 L 11.414817,14.023067 c -1.407145,0.512162 -2.6331281,1.483955 -3.2949221,2.835937 -0.661795,1.351982 -0.683543,2.992567 -0.132813,4.50586 l 5.2910161,14.53125 c 0.528306,1.451646 1.366331,2.784105 2.732422,3.605468 1.366091,0.821364 3.164673,0.907088 4.792969,0.314454 a 2.0999999,2.0999999 0 0 0 1.253906,-2.691407 2.0999999,2.0999999 0 0 0 -2.691406,-1.255859 c -0.744905,0.271115 -0.944423,0.181702 -1.191407,0.0332 -0.246984,-0.148499 -0.637978,-0.580832 -0.951172,-1.441406 l -5.289062,-14.5332 c -0.23557,-0.647298 -0.166149,-0.971011 -0.04297,-1.222657 0.123181,-0.251645 0.376529,-0.522377 0.958984,-0.734375 l 15.908205,-5.791015 c 0.777766,-0.283078 1.077294,-0.198851 1.242187,-0.119141 0.164893,0.07971 0.430033,0.29228 0.701172,1.037109 l 5.289063,14.531251 c 0.276293,0.759109 0.243088,1.339917 0.113281,1.691406 -0.129807,0.351489 -0.295278,0.565118 -0.830078,0.759765 l -11.28125,4.105469 a 2.0999999,2.0999999 0 0 0 -1.253907,2.691406 2.0999999,2.0999999 0 0 0 2.691407,1.253907 L 36.709739,34.02502 c 1.561099,-0.568182 2.794491,-1.789169 3.333984,-3.25 0.539493,-1.460831 0.444738,-3.070351 -0.105469,-4.582031 L 34.649192,11.659785 C 34.130331,10.234454 33.214108,8.9475427 31.826926,8.2769729 31.133335,7.941688 30.382194,7.7957842 29.615989,7.8004104 Z" fill="#008055"/>
</svg>
