<svg xmlns="http://www.w3.org/2000/svg" width="48" height="48">
	<path d="M 40.831447,28.786772 A 2.20022,2.20022 0 0 0 38.8959,26.675444 c -2.077157,-0.250542 -3.95915,-1.926 -4.617187,-2.714844 a 2.2,2.2 0 0 0 -3.09961,-0.279297 2.2,2.2 0 0 0 -0.279297,3.097656 c 0.763499,0.91527 2.177527,2.252824 4.119141,3.208985 l -6.730469,8.894531 -6.802734,-8.990235 c 4.810053,-2.063812 9.001953,-6.410338 9.001953,-12.595703 0,-4.00552 -1.735002,-7.8235813 -5.314453,-10.2988285 C 21.593793,4.5224614 16.425388,3.2730992 9.3666026,3.2730992 a 2.2,2.2 0 0 0 -2.199218,2.1992187 2.2,2.2 0 0 0 2.199218,2.2011719 c 6.5241164,0 10.8176114,1.2248565 13.3027354,2.9433602 2.485124,1.718502 3.417968,3.813407 3.417968,6.679687 0,5.065898 -4.322466,8.544743 -8.580078,9.40625 a 2.20022,2.20022 0 0 0 -1.318359,3.484375 l 10.345703,13.667969 a 2.20022,2.20022 0 0 0 3.507813,0 L 40.386134,30.187162 a 2.20022,2.20022 0 0 0 0.445313,-1.40039 z" fill="#008055"/>
</svg>
