<svg xmlns="http://www.w3.org/2000/svg" width="48" height="48">
	<path d="m 12.203125,6.4384765 a 2.2,2.2 0 0 0 -2.199219,2.201172 2.2,2.2 0 0 0 2.199219,2.1992185 h 23.593751 a 2.2,2.2 0 0 0 2.199218,-2.1992185 2.2,2.2 0 0 0 -2.199218,-2.201172 z m 0,15.3320315 a 2.2,2.2 0 0 0 -2.199219,2.201172 2.2,2.2 0 0 0 2.199219,2.199218 h 23.593751 a 2.2,2.2 0 0 0 2.199218,-2.199218 2.2,2.2 0 0 0 -2.199218,-2.201172 z m 0,15.390625 a 2.2,2.2 0 0 0 -2.199219,2.199219 2.2,2.2 0 0 0 2.199219,2.201171 h 23.593751 a 2.2,2.2 0 0 0 2.199218,-2.201171 2.2,2.2 0 0 0 -2.199218,-2.199219 z" fill="#008055"/>
</svg>
