<svg xmlns="http://www.w3.org/2000/svg" width="48" height="48">
	<path d="m 22.139654,11.455991 a 2.20022,2.20022 0 0 0 -1.349609,0.445313 L 7.120123,22.245054 a 2.20022,2.20022 0 0 0 0,3.509765 l 13.669922,10.34375 a 2.20022,2.20022 0 0 0 3.511719,-1.490234 c 0.250548,-2.077281 1.924046,-3.95915 2.71289,-4.617187 a 2.2,2.2 0 0 0 0.28125,-3.09961 2.2,2.2 0 0 0 -3.099609,-0.279297 c -0.915269,0.763498 -2.252824,2.177494 -3.208984,4.119141 l -8.892578,-6.730469 8.990234,-6.804687 c 2.063758,4.810135 6.410134,9.003906 12.595703,9.003906 h 5.873047 a 2.2,2.2 0 0 0 2.199219,-2.199219 2.2,2.2 0 0 0 -2.199219,-2.201172 H 33.68067 c -5.066017,0 -8.546701,-4.322575 -9.408203,-8.580078 a 2.20022,2.20022 0 0 0 -2.132813,-1.763672 z" fill="#008055"/>
</svg>
