<svg xmlns="http://www.w3.org/2000/svg" width="48" height="48">
	<path d="m 34.658203,45.38561 c 1.002378,0.139463 2.000328,-0.01686 2.832032,-0.486328 1.663407,-0.938935 2.560546,-2.761531 2.560546,-4.689453 V 14.239126 a 2.0999999,2.0999999 0 0 0 -2.099609,-2.099609 2.0999999,2.0999999 0 0 0 -2.101563,2.099609 v 25.970703 c 0,0.620277 -0.29381,0.957859 -0.423828,1.03125 -0.130017,0.07339 -0.196197,0.250738 -0.914062,-0.355469 a 2.1002099,2.1002099 0 0 0 -0.01563,-0.01367 L 15.59375,25.213735 C 13.536102,23.470782 12.150391,21.692578 12.150391,19.817251 V 8.8543596 c 0,-0.86741 0.233998,-1.287926 0.535156,-1.578125 0.301158,-0.290198 0.771859,-0.511718 1.554688,-0.511718 H 33.78125 c 1.013985,0 1.404498,0.232096 1.625,0.458984 0.220502,0.226887 0.443359,0.658692 0.443359,1.630859 a 2.0999999,2.0999999 0 0 0 2.101563,2.0996104 2.0999999,2.0999999 0 0 0 2.099609,-2.0996104 c 0,-1.695833 -0.466039,-3.358031 -1.632812,-4.558593 -1.166773,-1.200563 -2.859804,-1.730469 -4.636719,-1.730469 H 14.240235 c -1.661072,0 -3.285384,0.545245 -4.46875,1.685547 -1.183367,1.140301 -1.822266,2.815125 -1.822266,4.603515 V 19.817251 c 0,3.807649 2.533777,6.572092 4.935547,8.605469 a 2.1002099,2.1002099 0 0 0 0.01563,0.01367 l 18.902339,15.658204 c 0.847817,0.715947 1.853091,1.151553 2.855468,1.291016 z" fill="#008055"/>
</svg>
