<svg xmlns="http://www.w3.org/2000/svg" width="48" height="48">
	<path d="M 7.511719,5.3779298 A 2.2,2.2 0 0 0 5.3105471,7.5791017 V 40.420898 A 2.2,2.2 0 0 0 7.511719,42.62207 2.2,2.2 0 0 0 9.7109378,40.420898 V 7.5791017 A 2.2,2.2 0 0 0 7.511719,5.3779298 Z m 9.384766,1.0195313 a 2.2,2.2 0 0 0 -2.199219,2.1992187 2.2,2.2 0 0 0 2.199219,2.2011712 H 40.488282 A 2.2,2.2 0 0 0 42.689453,8.5966798 2.2,2.2 0 0 0 40.488282,6.3974611 Z m 0,15.3320309 a 2.2,2.2 0 0 0 -2.199219,2.199219 2.2,2.2 0 0 0 2.199219,2.201172 h 23.591797 a 2.2,2.2 0 0 0 2.201171,-2.201172 2.2,2.2 0 0 0 -2.201171,-2.199219 z m 0,15.388672 a 2.2,2.2 0 0 0 -2.199219,2.201172 2.2,2.2 0 0 0 2.199219,2.199219 h 23.591797 a 2.2,2.2 0 0 0 2.201171,-2.199219 2.2,2.2 0 0 0 -2.201171,-2.201172 z" fill="#008055"/>
</svg>
