<svg xmlns="http://www.w3.org/2000/svg" width="48" height="48">
	<path d="m 7.5813928,2.2460948 a 2.2,2.2 0 0 0 -2.2031252,2.1972656 2.2,2.2 0 0 0 2.1972652,2.203125 l 28.6894542,0.037109 a 2.20022,2.20022 0 0 0 0.0039,0 c 0.954925,0 1.356833,0.2180367 1.560547,0.4160156 0.203713,0.1979789 0.427734,0.5588982 0.427734,1.5546875 V 39.363282 c 0,0.761914 -0.212468,1.204229 -0.482422,1.484375 -0.269954,0.280146 -0.660345,0.505859 -1.505859,0.505859 H 7.5774868 a 2.2,2.2 0 0 0 -2.1992192,2.199219 2.2,2.2 0 0 0 2.1992192,2.201172 H 36.268893 c 1.810325,0 3.513277,-0.649149 4.673828,-1.853516 1.160551,-1.204367 1.714844,-2.855133 1.714844,-4.537109 V 8.6542979 c 0,-1.7950707 -0.537975,-3.5196882 -1.761719,-4.7089844 -1.223277,-1.1888419 -2.912606,-1.6617494 -4.625,-1.6621093 h -0.002 z M 21.231783,11.455079 a 2.20022,2.20022 0 0 0 -1.349609,0.445313 L 6.214205,22.246094 a 2.20022,2.20022 0 0 0 0,3.507813 l 13.667969,10.34375 a 2.20022,2.20022 0 0 0 3.511719,-1.490234 c 0.250528,-2.077179 1.926017,-3.959178 2.714844,-4.617188 a 2.2,2.2 0 0 0 0.279296,-3.097656 2.2,2.2 0 0 0 -3.097656,-0.28125 c -0.915262,0.763478 -2.25284,2.177666 -3.208984,4.11914 l -8.894532,-6.730468 8.990235,-6.802735 c 2.063811,4.810032 6.410308,9.001953 12.595703,9.001953 a 2.2,2.2 0 0 0 2.199219,-2.199218 2.2,2.2 0 0 0 -2.199219,-2.201172 c -5.06596,0 -8.544754,-4.322515 -9.40625,-8.580078 a 2.20022,2.20022 0 0 0 -2.134766,-1.763672 z" fill="#008055"/>
</svg>
