<svg xmlns="http://www.w3.org/2000/svg" width="48" height="48">
	<path d="m 7.5820314,2.2460951 a 2.2,2.2 0 0 0 -2.203125,2.197265 2.2,2.2 0 0 0 2.1972656,2.2031254 l 28.689453,0.037109 a 2.20022,2.20022 0 0 0 0.0039,0 c 0.954925,0 1.358787,0.2180367 1.5625,0.4160156 0.203713,0.1979788 0.425781,0.5588982 0.425781,1.5546875 V 39.361329 c 0,0.761914 -0.212468,1.206183 -0.482422,1.486328 -0.269953,0.280146 -0.660345,0.50586 -1.505859,0.50586 H 7.5781252 a 2.2,2.2 0 0 0 -2.1992188,2.199218 2.2,2.2 0 0 0 2.1992188,2.201172 H 36.269531 c 1.810326,0 3.513277,-0.649149 4.673828,-1.853515 1.160551,-1.204367 1.714844,-2.857087 1.714844,-4.539063 V 8.654298 c 0,-1.7950708 -0.536022,-3.521641 -1.759766,-4.7109379 -1.223277,-1.188842 -2.914559,-1.659796 -4.626953,-1.660156 h -0.002 z M 19.033203,11.457032 a 2.20022,2.20022 0 0 0 -2.113281,1.935547 c -0.250529,2.077179 -1.924064,3.957225 -2.712891,4.615235 a 2.2,2.2 0 0 0 -0.28125,3.099609 2.2,2.2 0 0 0 3.09961,0.279297 c 0.915059,-0.763309 2.252867,-2.176402 3.208984,-4.117188 l 8.892578,6.730469 -8.990234,6.804687 C 18.073301,25.993797 13.727284,21.798829 7.5410158,21.798829 A 2.2,2.2 0 0 0 5.341797,24.000001 2.2,2.2 0 0 0 7.5410158,26.19922 c 5.0659602,0 8.5467072,4.322514 9.4082032,8.580078 a 2.20022,2.20022 0 0 0 3.482422,1.318359 l 13.669921,-10.34375 a 2.20022,2.20022 0 0 0 0,-3.509765 L 20.431641,11.900392 a 2.20022,2.20022 0 0 0 -1.398438,-0.44336 z" fill="#008055"/>
</svg>
