<svg xmlns="http://www.w3.org/2000/svg" width="48" height="48">
	<path d="m 32.689631,5.4356065 a 2.2010304,2.1989691 52.000073 0 0 -1.933594,1.1054692 2.2010304,2.1989691 52.000073 0 0 0.816406,3.001953 C 37.576812,12.991078 40.517032,20.041919 38.744318,26.763732 36.971604,33.485545 30.943363,38.148388 24.027521,38.162169 17.11168,38.175951 11.070614,33.539622 9.2716619,26.826232 7.4727096,20.112841 10.386362,13.049368 16.379084,9.5762317 a 2.2010304,2.1989691 52.000073 0 0 0.798828,-3.007813 2.2010304,2.1989691 52.000073 0 0 -3.00586,-0.800781 C 8.3972989,9.1144497 4.8382851,15.080593 4.3947085,21.488341 c -0.1478588,2.135916 0.051881,4.319295 0.6289063,6.472656 2.3081008,8.61345 10.1230202,14.62124 19.0175782,14.603516 8.894559,-0.01772 16.68338,-6.052554 18.957031,-14.673828 2.273651,-8.621273 -1.51896,-17.729238 -9.238281,-22.1621093 A 2.2010304,2.1989691 52.000073 0 0 32.689631,5.4356065 Z M 19.461115,13.492247 a 2.2,2.2 0 0 0 -2.199219,2.199219 V 29.90045 a 2.2,2.2 0 0 0 2.199219,2.199219 2.2,2.2 0 0 0 2.199219,-2.199219 V 15.691466 a 2.2,2.2 0 0 0 -2.199219,-2.199219 z m 9.078125,0 a 2.2,2.2 0 0 0 -2.199219,2.199219 V 29.90045 a 2.2,2.2 0 0 0 2.199219,2.199219 2.2,2.2 0 0 0 2.201172,-2.199219 V 15.691466 A 2.2,2.2 0 0 0 28.53924,13.492247 Z" fill="#008055"/>
</svg>
