<svg xmlns="http://www.w3.org/2000/svg" width="48" height="48">
	<path d="m 8.6279298,4.1103517 c -1.7204382,0 -3.3962115,0.3729373 -4.7246094,1.4472656 C 2.5749225,6.6319456 1.8271485,8.3962758 1.8271485,10.301758 V 29.84082 c 0,1.807688 0.7794172,3.491682 2.0605469,4.576172 1.2811297,1.08449 2.9635194,1.59375 4.7402344,1.59375 H 21.256836 v 1.708984 c 0,1.032151 -0.238211,1.454234 -0.488282,1.697266 -0.25007,0.243032 -0.711774,0.472656 -1.701172,0.472656 h -8.158203 a 2,2 0 0 0 -1.9999992,2 2,2 0 0 0 1.9999992,2 h 8.158203 c 1.678603,0 3.310902,-0.459273 4.488282,-1.603515 1.177379,-1.144243 1.701172,-2.807657 1.701172,-4.566407 v -3.708984 a 2.0002,2.0002 0 0 0 -2,-2 H 8.6279298 c -1.014585,0 -1.7327016,-0.289599 -2.1542969,-0.646484 C 6.0520376,31.007373 5.8271485,30.607632 5.8271485,29.84082 V 10.301758 c 0,-1.0095188 0.2302198,-1.342344 0.5917969,-1.6347657 C 6.7805225,8.3745706 7.506068,8.1103517 8.6279298,8.1103517 H 39.983398 c 0.889404,0 1.339947,0.2442442 1.650391,0.5664062 0.310443,0.322162 0.539062,0.821261 0.539062,1.6250001 V 29.84082 c 0,1.032126 -0.238185,1.454217 -0.488281,1.697266 -0.250096,0.243048 -0.711775,0.472656 -1.701172,0.472656 H 28.71582 a 2,2 0 0 0 -2,2 2,2 0 0 0 2,2 h 11.267578 c 1.678603,0 3.31283,-0.459289 4.490234,-1.603516 1.177406,-1.144226 1.699219,-2.807632 1.699219,-4.566406 V 10.301758 c 0,-1.6401618 -0.538121,-3.2380277 -1.658203,-4.4003907 -1.120082,-1.162363 -2.764754,-1.7910156 -4.53125,-1.7910156 z M 23.969726,10.557617 a 1.700165,1.700165 0 0 0 -1.351562,0.710938 l -5.041016,7.044921 a 1.700165,1.700165 0 0 0 1.167969,2.675782 c 0.399079,0.05089 0.786013,0.222848 1.076172,0.417968 0.290158,0.195121 0.504664,0.53452 0.36914,0.289063 a 1.699995,1.699995 0 0 0 2.310547,0.667969 1.699995,1.699995 0 0 0 0.666016,-2.310547 c -0.371724,-0.673257 -0.797577,-1.028593 -1.449219,-1.466797 -0.03152,-0.0212 -0.09058,-0.02588 -0.123047,-0.04688 l 2.40625,-3.363281 2.390625,3.34375 c -2.267062,1.265198 -4.091797,3.621473 -4.091797,6.742187 v 3.029297 a 1.699995,1.699995 0 0 0 1.699219,1.699219 1.699995,1.699995 0 0 0 1.701172,-1.699219 V 25.26269 c 0,-2.349297 1.899438,-3.912405 3.695313,-4.296875 a 1.700165,1.700165 0 0 0 1.027343,-2.652344 L 25.381836,11.26855 a 1.700165,1.700165 0 0 0 -1.41211,-0.710938 z m 4.103516,29.332031 a 2,2 0 0 0 -2,2 2,2 0 0 0 2,2 h 7.140625 a 2,2 0 0 0 2,-2 2,2 0 0 0 -2,-2 z" fill="#008055"/>
</svg>
