<svg xmlns="http://www.w3.org/2000/svg" width="48" height="48">
	<path d="m 25.508626,4.3522876 c -2.022353,0.035804 -4.061298,0.3837964 -6.044922,1.0625 C 11.52921,8.1296022 6.1717588,15.576761 6.1453447,23.942132 c -0.026413,8.365372 5.2834603,15.839557 13.1992183,18.603515 7.915759,2.763959 16.740188,0.228629 21.960938,-6.320312 a 2.1989691,2.2010304 52.000073 0 0 -0.347657,-3.09375 2.1989691,2.2010304 52.000073 0 0 -3.091797,0.351562 C 33.805954,38.576152 26.967564,40.546967 20.799641,38.393304 14.631719,36.23964 10.527162,30.450736 10.547688,23.949944 10.568214,17.449153 14.705614,11.691393 20.885579,9.576897 27.065543,7.4624008 33.895306,9.4742522 37.924641,14.594476 a 2.1989691,2.2010304 52.000073 0 0 3.089844,0.367187 2.1989691,2.2010304 52.000073 0 0 0.369141,-3.089844 C 37.500272,6.9371006 31.575682,4.2448748 25.508626,4.3522876 Z m 2.017578,11.5996094 a 1.90019,1.90019 0 0 0 -0.117188,0.002 1.90019,1.90019 0 0 0 -1.724609,1.289062 c -0.310784,0.918767 -0.805303,1.552104 -1.470703,2.246094 a 1.9,1.9 0 0 0 0.05664,2.685547 1.9,1.9 0 0 0 2.685547,-0.05469 c 0.386707,-0.403322 0.796479,-0.888514 1.181641,-1.4375 l 4.535156,3.31836 -4.306641,3.148437 c -1.464774,-2.77472 -4.246898,-5.048872 -7.99414,-5.048872 h -4.605469 a 1.9,1.9 0 0 0 -1.900391,1.900391 1.9,1.9 0 0 0 1.900391,1.90039 h 4.605469 c 2.84839,0 4.775299,2.360444 5.251953,4.636719 a 1.90019,1.90019 0 0 0 2.982422,1.144531 l 8.408203,-6.148437 a 1.90019,1.90019 0 0 0 0,-3.066406 l -8.408203,-6.148438 a 1.90019,1.90019 0 0 0 -1.080078,-0.367188 z" fill="#008055"/>
</svg>
