<svg xmlns="http://www.w3.org/2000/svg" width="48" height="48">
	<path d="m 45.029243,2.8822823 a 2,2 0 0 0 -1.708984,1 L 35.613227,17.235797 30.818306,9.3607974 a 2,2 0 0 0 -2.75,-0.666015 2,2 0 0 0 -0.666016,2.7480466 l 6.550781,10.753906 a 2.0002,2.0002 0 0 0 3.439453,-0.04102 L 46.783149,5.8822823 A 2,2 0 0 0 46.050727,3.1498604 2,2 0 0 0 45.029243,2.8822823 Z M 20.525337,10.917438 a 2.0002,2.0002 0 0 0 -1.710938,0.994141 L 1.2206491,42.110797 a 2,2 0 0 0 0.7207032,2.734376 2,2 0 0 0 2.7363281,-0.720704 l 4.5078125,-7.738281 a 2,2 0 0 0 0.621094,0.09961 H 31.390571 l 4.240235,7.605469 a 2,2 0 0 0 2.720703,0.773438 2,2 0 0 0 0.771484,-2.720703 L 22.289009,11.944782 a 2.0002,2.0002 0 0 0 -1.763672,-1.027344 z m -0.02149,6.041016 8.65625,15.527343 H 11.45893 Z" fill="#008055"/>
</svg>
