<svg xmlns="http://www.w3.org/2000/svg" width="48" height="48">
	<path d="M 30.126953 1.3496094 A 2.20022 2.20022 0 0 0 27.980469 3.2480469 L 25.628906 20.228516 A 2.20022 2.20022 0 0 0 28.109375 22.708984 L 45.089844 20.355469 A 2.20022 2.20022 0 0 0 46.519531 16.818359 C 45.227918 15.172424 45.081341 12.659736 45.173828 11.636719 A 2.2 2.2 0 0 0 44.513672 9.859375 A 2.2 2.2 0 0 0 43.181641 9.2460938 A 2.2 2.2 0 0 0 40.791016 11.240234 C 40.683703 12.427245 40.736949 14.373051 41.433594 16.421875 L 30.386719 17.951172 L 31.916016 6.9023438 C 33.964837 7.5989661 35.910701 7.6541833 37.097656 7.546875 A 2.2 2.2 0 0 0 39.089844 5.15625 A 2.2 2.2 0 0 0 36.701172 3.1640625 C 35.678071 3.2565569 33.16351 3.1099722 31.517578 1.8183594 A 2.20022 2.20022 0 0 0 30.126953 1.3496094 z M 20.138672 25.947266 A 2.20022 2.20022 0 0 0 19.890625 25.966797 L 2.9101562 28.320312 A 2.20022 2.20022 0 0 0 1.4804688 31.855469 C 2.7720813 33.5014 2.9186671 36.015964 2.8261719 37.039062 A 2.2 2.2 0 0 0 4.8183594 39.429688 A 2.2 2.2 0 0 0 7.2089844 37.435547 C 7.3162935 36.24859 7.2610763 34.302728 6.5644531 32.253906 L 17.613281 30.724609 L 16.083984 41.771484 C 14.035161 41.07484 12.089355 41.021593 10.902344 41.128906 A 2.2 2.2 0 0 0 8.9082031 43.519531 A 2.2 2.2 0 0 0 11.298828 45.511719 C 12.321844 45.419231 14.834533 45.565809 16.480469 46.857422 A 2.20022 2.20022 0 0 0 20.017578 45.427734 L 22.371094 28.447266 A 2.20022 2.20022 0 0 0 21.808594 26.654297 A 2.20022 2.20022 0 0 0 20.138672 25.947266 z " fill="#008055"/>
</svg>
