<svg xmlns="http://www.w3.org/2000/svg" width="48" height="48">
	<path d="m 4.0058591,39.040039 c 0,1.778485 0.704462,3.449854 1.958984,4.464844 1.254522,1.014989 2.8255299,1.361328 4.4218759,1.361328 h 4.773437 c 2.698307,0 4.8125,-2.268574 4.8125,-4.802734 V 10.415039 a 2,2 0 0 0 -2,-1.9999999 2,2 0 0 0 -2,1.9999999 v 29.648438 c 0,0.47564 -0.210007,0.802734 -0.8125,0.802734 h -4.773437 c -0.9975559,0 -1.616545,-0.237893 -1.904298,-0.470703 C 8.1946691,40.162697 8.0058591,39.922955 8.0058591,39.040039 V 8.95996 c 0,-0.697627 0.195351,-1.1058029 0.4433589,-1.3632809 0.2480081,-0.257478 0.60578,-0.46289 1.378906,-0.46289 h 27.785157 c 0.997555,0 1.616544,0.235939 1.904297,0.46875 0.287753,0.23281 0.476563,0.474506 0.476563,1.3574209 v 30.080079 c 0,0.697559 -0.195335,1.103829 -0.44336,1.361328 -0.248024,0.2575 -0.605806,0.464844 -1.378906,0.464844 H 23.101563 a 2,2 0 0 0 -2,2 2,2 0 0 0 2,2 h 15.070312 c 1.650601,0 3.202314,-0.591603 4.259766,-1.689453 1.057451,-1.097851 1.5625,-2.603078 1.5625,-4.136719 V 8.95996 c 0,-1.7784839 -0.704462,-3.451807 -1.958985,-4.466796 -1.254522,-1.01499 -2.82553,-1.359375 -4.421875,-1.359375 H 9.828124 c -1.6505729,0 -3.2022979,0.591606 -4.2597649,1.6894531 -1.057467,1.0978469 -1.5625,2.603046 -1.5625,4.1367179 z" fill="#008055"/>
</svg>
