<svg xmlns="http://www.w3.org/2000/svg" width="48" height="48">
	<path d="m 16.385742,4.7587365 c -2.235296,-4.878e-4 -4.047457,1.8073007 -4.046875,4.0371094 4.99e-4,2.2290461 1.812344,4.0356441 4.046875,4.0351561 2.234531,4.88e-4 4.046376,-1.80611 4.046875,-4.0351561 5.82e-4,-2.2298086 -1.811579,-4.0375971 -4.046875,-4.0371094 z m 15.208985,0.011719 c -2.234531,-4.876e-4 -4.046376,1.8061104 -4.046875,4.0351563 -5.82e-4,2.2298082 1.811579,4.0375972 4.046875,4.0371092 2.235296,4.88e-4 4.047457,-1.807301 4.046875,-4.0371092 -4.99e-4,-2.2290462 -1.812344,-4.0356442 -4.046875,-4.0351563 z m -15.1875,15.1894875 c -2.234532,-4.88e-4 -4.046376,1.80611 -4.046875,4.035156 -5.83e-4,2.229809 1.811578,4.037598 4.046875,4.03711 2.234533,-5.89e-4 4.045504,-1.808062 4.044921,-4.03711 -4.99e-4,-2.228285 -1.811153,-4.034568 -4.044921,-4.035156 z m 15.208984,0.0098 c -2.235296,-4.88e-4 -4.047457,1.8073 -4.046875,4.037109 4.99e-4,2.229046 1.812343,4.035645 4.046875,4.035157 2.233769,-5.88e-4 4.044423,-1.806872 4.044922,-4.035157 5.82e-4,-2.229048 -1.810389,-4.036521 -4.044922,-4.037109 z M 16.395508,35.149432 c -2.228285,4.99e-4 -4.034568,1.811153 -4.035156,4.044922 -4.88e-4,2.234531 1.80611,4.046376 4.035156,4.046875 2.229808,5.82e-4 4.037597,-1.811579 4.037109,-4.046875 -5.88e-4,-2.234533 -1.808061,-4.045504 -4.037109,-4.044922 z m 15.208984,0.0098 c -2.229046,4.99e-4 -4.035644,1.812344 -4.035156,4.046875 5.88e-4,2.233768 1.806871,4.044423 4.035156,4.044922 2.229048,5.83e-4 4.036522,-1.810389 4.03711,-4.044922 4.88e-4,-2.235296 -1.807301,-4.047458 -4.03711,-4.046875 z" fill="#008055"/>
</svg>
