<svg xmlns="http://www.w3.org/2000/svg" width="48" height="48">
	<path d="m 7.118164,5.9097807 c -0.7265082,0.01773 -1.6057225,0.360946 -2.1289062,0.951172 -1.0463676,1.180452 -0.8847656,2.285515 -0.8847656,3.2949223 l -0.039063,27.875 c -0.00279,1.016412 -0.1601024,2.16205 1.0058594,3.292969 0.5833352,0.565801 1.4943424,0.809641 2.1992188,0.761718 0.7048764,-0.04792 1.3042609,-0.26677 1.9609375,-0.572265 l 7.4179691,-3.357422 a 1.9,1.9 0 0 0 0.947265,-2.515625 1.9,1.9 0 0 0 -2.515625,-0.947266 l -7.2148435,3.267578 0.039062,-27.800781 a 1.90019,1.90019 0 0 0 0,-0.0039 c 0,-0.111217 0.017417,-0.133383 0.025391,-0.2265633 L 17.15332,13.831656 a 1.90019,1.90019 0 0 0 0.03711,0.01367 c 0.630549,0.251352 0.74354,0.394504 0.830078,0.541016 0.08654,0.14651 0.210115,0.526859 0.205079,1.384765 a 1.90019,1.90019 0 0 0 0,0.01172 v 17.097656 a 1.9,1.9 0 0 0 1.90039,1.900391 1.9,1.9 0 0 0 1.898438,-1.900391 v -17.085937 -0.01172 c 0.006,-1.185089 -0.130815,-2.309596 -0.732422,-3.328125 -0.603637,-1.021964 -1.611768,-1.707524 -2.69336,-2.138672 L 9.243164,6.3570467 A 1.90019,1.90019 0 0 0 9.172851,6.3297067 C 8.4790241,6.0678177 7.8446722,5.8920477 7.118164,5.9097807 Z m 33.763672,0 c -0.72651,-0.01773 -1.360861,0.158037 -2.054688,0.419922 a 1.90019,1.90019 0 0 0 -0.07031,0.02734 l -9.355469,3.9589843 c -1.081592,0.431148 -2.089723,1.116708 -2.69336,2.138672 -0.603636,1.021964 -0.739405,2.15035 -0.732421,3.339844 V 32.88048 a 1.9,1.9 0 0 0 1.90039,1.900391 1.9,1.9 0 0 0 1.898438,-1.900391 V 15.782828 a 1.90019,1.90019 0 0 0 0,-0.01172 c -0.005,-0.857906 0.118539,-1.238255 0.205078,-1.384765 0.08654,-0.146512 0.199529,-0.289664 0.830078,-0.541016 a 1.90019,1.90019 0 0 0 0.03711,-0.01367 l 9.222657,-3.9023443 c 0.008,0.09318 0.02539,0.1153463 0.02539,0.2265633 a 1.90019,1.90019 0 0 0 0,0.0039 l 0.03906,27.800781 -7.214844,-3.267578 a 1.9,1.9 0 0 0 -2.513672,0.947266 1.9,1.9 0 0 0 0.947266,2.515625 l 7.417968,3.357422 c 0.656677,0.305495 1.254108,0.524342 1.958985,0.572265 0.704876,0.04792 1.615884,-0.195917 2.199218,-0.761718 1.165963,-1.130919 1.008651,-2.276557 1.00586,-3.292969 v -0.002 L 43.89551,10.155823 c 0,-1.0094073 0.161602,-2.1144703 -0.884765,-3.2949223 -0.523184,-0.590226 -1.402398,-0.933439 -2.128906,-0.951172 z" fill="#008055"/>
</svg>
