<svg xmlns="http://www.w3.org/2000/svg" width="48" height="48">
	<path d="m 7.7820447,3.9384768 c -1.1045695,0 -2,0.8954305 -2,2 0,1.1045695 0.8954305,2 2,2 H 9.0183728 V 19.092773 H 8.1199353 c -1.1045695,0 -2,0.895431 -2,2 0,1.104569 0.8954305,2 2,2 h 5.7988277 c 1.104569,0 2,-0.895431 2,-2 0,-1.104569 -0.895431,-2 -2,-2 h -0.90039 V 5.9873049 c 1.99e-4,-0.016275 1.99e-4,-0.032553 0,-0.048828 -1.16e-4,-0.039744 -0.0014,-0.079475 -0.0039,-0.1191406 -0.06304,-1.0562832 -0.937937,-1.880675 -1.9961,-1.8808595 z M 21.014466,10.918945 c -1.215179,-6.47e-4 -2.200741,0.98404 -2.201172,2.199219 -6.48e-4,1.215942 0.98523,2.20182 2.201172,2.201172 h 22.172531 c 1.215178,-4.32e-4 2.199865,-0.985993 2.199218,-2.201172 -4.31e-4,-1.214416 -0.984802,-2.198787 -2.199218,-2.199219 z m -11.0976558,14 c -1.5158641,-0.0025 -3.060787,0.483189 -4.283203,1.556641 -1.222416,1.073452 -2.0253906,2.772267 -2.0253906,4.699219 0,1.104569 0.8954305,2 2,2 1.1045695,0 2,-0.895431 2,-2 0,-0.917829 0.271691,-1.348803 0.6640625,-1.69336 0.3923715,-0.344557 1.001486,-0.563537 1.6386721,-0.5625 0.6371848,10e-4 1.2479018,0.223304 1.6425778,0.570313 0.394675,0.347008 0.666015,0.777227 0.666015,1.685547 0,0.854782 -0.2045,1.241129 -0.6875,1.77539 -0.482998,0.534262 -1.327393,1.116566 -2.3769524,1.769531 -2.0991188,1.305931 -5.1013282,3.021663 -6.4199219,6.660157 -0.4726163,1.30426 0.4936102,2.68186 1.8808594,2.68164 H 15.067201 c 1.104569,0 2,-0.895431 2,-2 0,-1.104569 -0.895431,-2 -2,-2 H 8.4402478 c 0.8090053,-0.689545 1.7690672,-1.286438 2.8281252,-1.945312 1.086803,-0.676136 2.245393,-1.390633 3.232421,-2.482422 0.98703,-1.091789 1.71875,-2.662742 1.71875,-4.458984 0,-1.922441 -0.805278,-3.616701 -2.02539,-4.689454 -1.220112,-1.072752 -2.76148,-1.563938 -4.2773438,-1.566406 z m 11.0976558,6.888672 c -1.215179,-6.47e-4 -2.200741,0.98404 -2.201172,2.199219 4.31e-4,1.215179 0.985993,2.199866 2.201172,2.199219 h 22.172531 c 1.214416,-4.32e-4 2.198787,-0.984803 2.199218,-2.199219 -4.31e-4,-1.214416 -0.984802,-2.198787 -2.199218,-2.199219 z" fill="#008055"/>
</svg>
