<svg xmlns="http://www.w3.org/2000/svg" width="48" height="48">
	<path d="m 39.040039,43.994141 c 1.778485,0 3.449854,-0.704462 4.464844,-1.958984 1.014989,-1.254522 1.361328,-2.82553 1.361328,-4.421876 v -4.773437 c 0,-2.698307 -2.268574,-4.8125 -4.802734,-4.8125 H 10.415039 a 2,2 0 0 0 -1.9999999,2 2,2 0 0 0 1.9999999,2 h 29.648438 c 0.47564,0 0.802734,0.210007 0.802734,0.8125 v 4.773437 c 0,0.997556 -0.237893,1.616545 -0.470703,1.904298 -0.232811,0.287752 -0.472553,0.476562 -1.355469,0.476562 H 8.9599601 c -0.697627,0 -1.105803,-0.195351 -1.363281,-0.443359 -0.257478,-0.248008 -0.46289,-0.60578 -0.46289,-1.378906 V 10.386719 c 0,-0.9975549 0.235939,-1.6165439 0.46875,-1.9042969 0.23281,-0.2877531 0.474506,-0.476563 1.357421,-0.476563 H 39.040039 c 0.697559,0 1.103829,0.195335 1.361328,0.4433599 0.2575,0.2480241 0.464844,0.6058061 0.464844,1.3789061 V 24.898437 a 2,2 0 0 0 2,2 2,2 0 0 0 2,-2 V 9.8281251 c 0,-1.6506011 -0.591603,-3.2023141 -1.689453,-4.259766 -1.097851,-1.057451 -2.603078,-1.5625 -4.136719,-1.5625 H 8.9599601 c -1.778484,0 -3.451807,0.704462 -4.466796,1.9589849 -1.01499,1.2545221 -1.359375,2.8255301 -1.359375,4.421875 v 27.785157 c 0,1.650573 0.591606,3.202298 1.689453,4.259765 1.097847,1.057467 2.603046,1.5625 4.136718,1.5625 z" fill="#008055"/>
</svg>
