<svg xmlns="http://www.w3.org/2000/svg" width="48" height="48">
	<path d="M 23.782227,4.7587892 A 4.04599,4.0360579 0 0 0 19.737305,8.7958986 4.04599,4.0360579 0 0 0 23.782227,12.831055 4.04599,4.0360579 0 0 0 27.829102,8.7958986 4.04599,4.0360579 0 0 0 23.782227,4.7587892 Z M 6.4658205,21.823243 a 2.2,2.2 0 0 0 -2.199219,2.199218 2.2,2.2 0 0 0 2.199219,2.199219 H 41.532227 a 2.2,2.2 0 0 0 2.201171,-2.199219 2.2,2.2 0 0 0 -2.201171,-2.199218 z M 23.793945,35.149414 a 4.0360579,4.04599 0 0 0 -4.037109,4.044922 4.0360579,4.04599 0 0 0 4.037109,4.046875 4.0360579,4.04599 0 0 0 4.035157,-4.046875 4.0360579,4.04599 0 0 0 -4.035157,-4.044922 z" fill="#008055"/>
</svg>
