<svg xmlns="http://www.w3.org/2000/svg" width="48" height="48">
	<path d="m 10.597679,3.9384768 a 2,2 0 0 0 -2,2 2,2 0 0 0 2,2 h 1.236328 V 19.09082 h -0.90039 a 2,2 0 0 0 -2,2 2,2 0 0 0 2,2 h 5.800781 a 2,2 0 0 0 2,-2 2,2 0 0 0 -2,-2 H 15.834007 V 5.987305 a 2,2 0 0 0 0,-0.048828 2,2 0 0 0 -0.0039,-0.1191406 A 2,2 0 0 0 13.834013,3.938477 Z M 33.06057,8.6376956 a 2.0002,2.0002 0 0 0 -1.566406,0.8066406 l -7.46875,10.0546868 a 2.0002,2.0002 0 0 0 1.363281,3.177735 c 1.322995,0.162559 2.626249,1.321595 3.058593,1.849609 a 2,2 0 0 0 2.814454,0.279297 2,2 0 0 0 0.28125,-2.814453 c -0.525107,-0.641303 -1.454837,-1.538416 -2.710938,-2.253906 l 4.267578,-5.744141 4.285156,5.767578 c -3.412478,1.658475 -6.285156,4.925174 -6.285156,9.4375 v 8.339844 a 2,2 0 0 0 2,2 2,2 0 0 0 2,-2 v -8.339844 c 0,-3.535311 2.972621,-5.948969 5.873047,-6.546875 a 2.0002,2.0002 0 0 0 1.201172,-3.152344 L 34.705101,9.4443362 A 2.0002,2.0002 0 0 0 33.06057,8.6376956 Z M 12.732445,24.916992 c -1.515865,-0.0025 -3.060788,0.48514 -4.283203,1.558594 -1.222416,1.073454 -2.0273441,2.772266 -2.0273441,4.699219 a 2,2 0 0 0 2.0000001,2 2,2 0 0 0 2,-2 c 0,-0.917832 0.273644,-1.348802 0.666016,-1.69336 0.39237,-0.344557 0.999533,-0.56549 1.636718,-0.564453 0.637185,0.001 1.249855,0.223304 1.644532,0.570313 0.394675,0.347009 0.666015,0.779177 0.666015,1.6875 0,0.854782 -0.204502,1.241129 -0.6875,1.77539 -0.482998,0.534262 -1.327394,1.114613 -2.376953,1.767578 -2.099119,1.305932 -5.1013282,3.023616 -6.4199219,6.66211 a 2.0002,2.0002 0 0 0 1.8808599,2.68164 h 10.451171 a 2,2 0 0 0 2,-2 2,2 0 0 0 -2,-2 h -6.630859 c 0.809612,-0.690646 1.769698,-1.287568 2.830078,-1.947265 1.086803,-0.676136 2.245392,-1.390633 3.232422,-2.482422 0.98703,-1.091789 1.720703,-2.660789 1.720703,-4.457031 0,-1.922442 -0.805278,-3.618653 -2.025391,-4.691406 -1.220111,-1.072755 -2.761478,-1.563939 -4.277343,-1.566407 z" fill="#008055"/>
</svg>
