<svg xmlns="http://www.w3.org/2000/svg" width="48" height="48">
	<path d="m 43.994141,8.9599611 c 0,-1.7784844 -0.704462,-3.4498542 -1.958984,-4.4648438 -1.254522,-1.0149895 -2.82553,-1.3613281 -4.421876,-1.3613281 h -4.773437 c -2.698307,0 -4.8125,2.2685744 -4.8125,4.8027344 V 37.584961 a 2,2 0 0 0 2,2 2,2 0 0 0 2,-2 V 7.9365236 c 0,-0.4756401 0.210007,-0.8027344 0.8125,-0.8027344 h 4.773437 c 0.997556,0 1.616545,0.2378926 1.904298,0.470703 0.287752,0.2328106 0.476562,0.4725532 0.476562,1.3554689 V 39.04004 c 0,0.697627 -0.195351,1.105803 -0.443359,1.363281 -0.248008,0.257478 -0.60578,0.46289 -1.378906,0.46289 H 10.386719 c -0.9975548,0 -1.6165438,-0.235939 -1.9042968,-0.46875 -0.2877531,-0.23281 -0.476563,-0.474506 -0.476563,-1.357421 V 8.9599611 c 0,-0.697559 0.195335,-1.1038286 0.4433599,-1.3613282 C 8.6972432,7.3411333 9.0550252,7.1337892 9.8281252,7.1337892 H 24.898437 a 2,2 0 0 0 2,-2 2,2 0 0 0 -2,-2 H 9.8281252 c -1.6506011,0 -3.2023141,0.5916027 -4.259766,1.689453 -1.057451,1.0978505 -1.5625,2.6030777 -1.5625,4.1367188 V 39.04004 c 0,1.778484 0.704462,3.451807 1.9589849,4.466796 1.2545221,1.01499 2.8255301,1.359375 4.4218749,1.359375 h 27.785157 c 1.650573,0 3.202298,-0.591606 4.259765,-1.689453 1.057467,-1.097847 1.5625,-2.603046 1.5625,-4.136718 z" fill="#008055"/>
</svg>
