<svg xmlns="http://www.w3.org/2000/svg" width="48" height="48">
	<path d="m 24.029964,10.863828 c -0.483244,0.0067 -0.965233,0.02674 -1.447265,0.06055 -7.712525,0.540889 -15.203773,4.544634 -20.373047,11.789059 -0.6095424,0.854295 -0.4110325,2.040983 0.443359,2.650391 0.8542956,0.609542 2.0409838,0.411032 2.650391,-0.44336 9.119391,-12.780276 25.497447,-14.073608 36.167969,-2.451172 0.627821,0.71593 0.848853,1.180165 0.871093,1.34961 0.02213,0.16864 0.02146,0.424073 -0.609375,1.193359 -10.787246,12.348365 -25.987597,9.454023 -33.357422,1.679688 -0.7219231,-0.762656 -1.9256325,-0.795025 -2.6875,-0.07227 -0.7608016,0.72227 -0.7922768,1.924456 -0.070312,2.685547 8.864308,9.350847 26.84081,12.13238 39,-1.8125 0.01057,-0.01224 0.02099,-0.02461 0.03125,-0.03711 1.043577,-1.258889 1.647559,-2.709048 1.460937,-4.13086 -0.186621,-1.421812 -0.974698,-2.453408 -1.798828,-3.386719 -0.0084,-0.0085 -0.01685,-0.01701 -0.02539,-0.02539 -5.678842,-6.193536 -13.007189,-9.149211 -20.25586,-9.048823 z" fill="#008055"/>
</svg>
