<svg xmlns="http://www.w3.org/2000/svg" width="48" height="48">
	<path d="m 8.9599611,4.0058595 c -1.7784844,0 -3.4498542,0.704462 -4.4648438,1.958984 -1.0149895,1.254522 -1.3613281,2.82553 -1.3613281,4.4218755 v 4.773437 c 0,2.698307 2.2685744,4.8125 4.8027344,4.8125 H 37.584961 a 2,2 0 0 0 2,-2 2,2 0 0 0 -2,-2 H 7.9365236 c -0.4756401,0 -0.8027344,-0.210007 -0.8027344,-0.8125 v -4.773437 c 0,-0.9975555 0.2378927,-1.6165445 0.4707031,-1.9042975 0.2328105,-0.287752 0.4725531,-0.476562 1.3554688,-0.476562 H 39.04004 c 0.697627,0 1.105803,0.195351 1.363281,0.443359 0.257478,0.248008 0.46289,0.60578 0.46289,1.378906 V 37.613281 c 0,0.997555 -0.235939,1.616544 -0.46875,1.904297 -0.23281,0.287753 -0.474506,0.476563 -1.357421,0.476563 H 8.9599611 c -0.6975589,0 -1.1038285,-0.195335 -1.3613282,-0.44336 C 7.3411333,39.302757 7.1337892,38.944975 7.1337892,38.171875 V 23.101563 a 2,2 0 0 0 -2,-2 2,2 0 0 0 -2,2 v 15.070312 c 0,1.650601 0.5916027,3.202314 1.6894531,4.259766 1.0978504,1.057451 2.6030777,1.5625 4.1367188,1.5625 H 39.04004 c 1.778484,0 3.451807,-0.704462 4.466796,-1.958985 1.01499,-1.254522 1.359375,-2.82553 1.359375,-4.421875 V 9.8281245 c 0,-1.650573 -0.591606,-3.202298 -1.689453,-4.259765 -1.097847,-1.057467 -2.603046,-1.5625 -4.136718,-1.5625 z" fill="#008055"/>
</svg>
