<svg xmlns="http://www.w3.org/2000/svg" width="48" height="48">
	<path d="m 8.4462889,4.758789 a 4.04599,4.0360579 0 0 0 -4.046875,4.03711 4.04599,4.0360579 0 0 0 4.046875,4.035156 4.04599,4.0360579 0 0 0 4.0449221,-4.035156 4.04599,4.0360579 0 0 0 -4.0449221,-4.03711 z m 9.3613281,1.607422 a 2.2,2.2 0 0 0 -2.199219,2.199219 2.2,2.2 0 0 0 2.199219,2.201172 h 23.59375 A 2.2,2.2 0 0 0 43.600586,8.56543 2.2,2.2 0 0 0 41.401367,6.366211 Z m -9.3398438,13.59375 a 4.04599,4.0360579 0 0 0 -4.046875,4.035156 4.04599,4.0360579 0 0 0 4.046875,4.03711 4.04599,4.0360579 0 0 0 4.0449218,-4.03711 4.04599,4.0360579 0 0 0 -4.0449218,-4.035156 z m 9.3398438,1.738281 a 2.2,2.2 0 0 0 -2.199219,2.199219 2.2,2.2 0 0 0 2.199219,2.201172 h 23.59375 a 2.2,2.2 0 0 0 2.199219,-2.201172 2.2,2.2 0 0 0 -2.199219,-2.199219 z M 8.4560545,35.149414 a 4.0360579,4.04599 0 0 0 -4.0351563,4.044922 4.0360579,4.04599 0 0 0 4.0351563,4.046875 4.0360579,4.04599 0 0 0 4.0371095,-4.046875 4.0360579,4.04599 0 0 0 -4.0371095,-4.044922 z m 9.3515625,1.939453 a 2.2,2.2 0 0 0 -2.199219,2.199219 2.2,2.2 0 0 0 2.199219,2.199219 h 23.59375 a 2.2,2.2 0 0 0 2.199219,-2.199219 2.2,2.2 0 0 0 -2.199219,-2.199219 z" fill="#008055"/>
</svg>
