<svg xmlns="http://www.w3.org/2000/svg" width="48" height="48">
	<path d="M 42.449219 3.3671875 A 2.20022 2.20022 0 0 0 42.128906 3.3886719 L 25.150391 5.7382812 A 2.20022 2.20022 0 0 0 23.847656 6.4160156 A 2.20022 2.20022 0 0 0 23.722656 9.2773438 C 25.014267 10.923275 25.158901 13.435884 25.066406 14.458984 A 2.2 2.2 0 0 0 27.060547 16.849609 A 2.2 2.2 0 0 0 29.449219 14.855469 C 29.556508 13.668723 29.502888 11.724198 28.806641 9.6757812 L 39.855469 8.1464844 L 38.324219 19.193359 C 36.275179 18.496516 34.329699 18.443458 33.142578 18.550781 A 2.2 2.2 0 0 0 31.150391 20.9375 A 2.2 2.2 0 0 0 33.539062 22.933594 C 34.562083 22.841106 37.078673 22.985728 38.724609 24.277344 A 2.20022 2.20022 0 0 0 42.261719 22.847656 L 44.611328 5.8691406 A 2.20022 2.20022 0 0 0 42.449219 3.3671875 z M 7.8867188 23.253906 A 2.20022 2.20022 0 0 0 6.328125 23.933594 A 2.20022 2.20022 0 0 0 5.7382812 25.150391 L 3.3886719 42.128906 A 2.20022 2.20022 0 0 0 5.8691406 44.611328 L 22.849609 42.261719 A 2.20022 2.20022 0 0 0 24.277344 38.724609 C 22.985728 37.078674 22.841106 34.562083 22.933594 33.539062 A 2.2 2.2 0 0 0 20.939453 31.150391 A 2.2 2.2 0 0 0 18.550781 33.142578 C 18.443458 34.329699 18.498469 36.275179 19.195312 38.324219 L 8.1464844 39.855469 L 9.6757812 28.806641 C 11.724198 29.502888 13.670676 29.556508 14.857422 29.449219 A 2.2 2.2 0 0 0 16.849609 27.060547 A 2.2 2.2 0 0 0 14.460938 25.066406 C 13.437838 25.158901 10.923274 25.014268 9.2773438 23.722656 A 2.20022 2.20022 0 0 0 7.8867188 23.253906 z " fill="#008055"/>
</svg>
