<svg xmlns="http://www.w3.org/2000/svg" width="48" height="48">
	<path d="M 3.96875,3.661133 A 1.8,1.8 0 0 0 2.167969,5.461914 V 42.538086 A 1.8,1.8 0 0 0 3.96875,44.338867 1.8,1.8 0 0 0 5.767578,42.538086 V 5.461914 A 1.8,1.8 0 0 0 3.96875,3.661133 Z m 40.064453,0 a 1.8,1.8 0 0 0 -1.800781,1.800781 v 37.076172 a 1.8,1.8 0 0 0 1.800781,1.800781 1.8,1.8 0 0 0 1.798828,-1.800781 V 5.461914 A 1.8,1.8 0 0 0 44.033203,3.661133 Z M 10.449219,10.40332 A 1.8,1.8 0 0 0 8.650391,12.204101 V 35.795898 A 1.8,1.8 0 0 0 10.449219,37.59668 1.8,1.8 0 0 0 12.25,35.795898 V 12.204101 A 1.8,1.8 0 0 0 10.449219,10.40332 Z m 27.101562,0 A 1.8,1.8 0 0 0 35.75,12.204101 v 23.591797 a 1.8,1.8 0 0 0 1.800781,1.800782 1.8,1.8 0 0 0 1.800782,-1.800782 V 12.204101 A 1.8,1.8 0 0 0 37.550781,10.40332 Z m -18.568359,4.986328 c -0.997323,0 -2.024195,0.330415 -2.78125,1.056641 -0.757055,0.726226 -1.154297,1.797122 -1.154297,2.867188 v 9.0625 c 0,0.991433 0.212719,2.029264 0.914063,2.892578 0.701344,0.863314 1.87745,1.341796 3.021484,1.341796 A 1.8,1.8 0 0 0 20.78125,30.80957 1.8,1.8 0 0 0 18.982422,29.010742 c -0.341276,0 -0.233452,-0.01779 -0.228515,-0.01172 0.0049,0.0061 -0.107422,-0.17277 -0.107422,-0.623046 v -9.0625 c 0,-0.277105 0.04751,-0.268187 0.04688,-0.267579 -6.35e-4,6.09e-4 0.04113,-0.05664 0.289062,-0.05664 H 28.9375 c 0.180915,0 0.258928,0.01361 0.298828,0.02344 0.01106,0.04202 0.02734,0.126198 0.02734,0.300782 v 9.060546 c 0,0.36342 -0.103872,0.538466 -0.142578,0.583985 -0.03871,0.04552 0.006,0.05273 -0.183594,0.05273 h -5.363281 a 1.8,1.8 0 0 0 -1.800781,1.798828 1.8,1.8 0 0 0 1.800781,1.800781 H 28.9375 c 1.122193,0 2.230045,-0.502121 2.925781,-1.320312 0.695738,-0.818191 1,-1.863555 1,-2.916016 v -9.060546 c 0,-0.988217 -0.281052,-2.047718 -1.041015,-2.826172 -0.759963,-0.778455 -1.848233,-1.097657 -2.884766,-1.097657 z" fill="#008055"/>
</svg>
