<svg xmlns="http://www.w3.org/2000/svg" width="48" height="48">
	<path d="M 14.12793,4.457881 C 11.762023,4.452281 9.8799185,5.019497 8.6181642,6.248897 7.3552647,7.479412 6.9873049,9.14173 6.9873049,10.543819 c 0,2.911936 1.960021,5.077833 4.0136721,7.511718 2.053651,2.433886 4.462138,4.975449 6.125,7.294922 a 2,2 0 0 0 2.791015,0.460938 2,2 0 0 0 0.460938,-2.791016 c -1.911239,-2.665927 -4.384808,-5.251058 -6.320313,-7.544922 -1.935504,-2.293864 -3.070312,-4.457976 -3.070312,-4.93164 0,-0.771311 0.144378,-1.157403 0.423828,-1.429688 0.27945,-0.272284 0.966874,-0.661169 2.710938,-0.65625 a 2.0002,2.0002 0 0 0 0.0059,0 h 19.74414 a 2.0002,2.0002 0 0 0 0.0059,0 c 1.743982,-0.0051 2.431492,0.383952 2.710937,0.65625 0.279446,0.272298 0.423828,0.658377 0.423828,1.429688 0,0.33503 -0.907483,2.302967 -2.568359,4.388672 -1.660876,2.085703 -3.851618,4.458329 -5.746094,6.798828 a 2.0002,2.0002 0 0 0 -0.0039,0.0059 c -1.163337,1.448984 -1.906274,3.271204 -1.90625,5.419922 v 8.087891 c 0,0.596786 -0.06841,0.739104 -0.05273,0.708984 0.01567,-0.03012 0.01538,0.04358 -0.470703,0.324219 l -4.59375,2.566406 v -9.871094 a 2,2 0 0 0 -2,-2 2,2 0 0 0 -2,2 v 11.242188 c 7e-6,0.944323 0.221279,2.195901 1.429687,2.927734 1.208408,0.731833 2.510451,0.331 3.435547,-0.203125 l 5.703125,-3.183594 a 2.0002,2.0002 0 0 0 0.02539,-0.01563 c 0.803956,-0.464161 1.564957,-1.065883 2.019531,-1.939453 0.454573,-0.87357 0.503906,-1.740229 0.503906,-2.55664 v -8.087891 c -1.6e-5,-1.414482 0.237287,-1.9344 1.025391,-2.916016 1.772274,-2.188905 3.959237,-4.555328 5.759765,-6.816406 1.802194,-2.26317 3.439453,-4.25369 3.439453,-6.880859 0,-1.402089 -0.367954,-3.06432 -1.630859,-4.294922 C 38.120167,5.019446 36.238148,4.452053 33.87216,4.457917 H 14.133789 Z" fill="#008055"/>
</svg>
