<svg xmlns="http://www.w3.org/2000/svg" width="48" height="48">
	<path d="m 10.597991,3.9384767 a 2,2 0 0 0 -1.9999998,2 2,2 0 0 0 1.9999998,2 h 1.236328 V 19.09082 h -0.90039 a 2,2 0 0 0 -2.0000002,2 2,2 0 0 0 2.0000002,2 h 5.798828 a 2,2 0 0 0 2,-2 2,2 0 0 0 -2,-2 H 15.834319 V 5.9873049 a 2,2 0 0 0 0,-0.048828 2,2 0 0 0 -0.0039,-0.1191407 2,2 0 0 0 -1.996094,-1.8808593 z m 22.501953,4.6992187 a 2,2 0 0 0 -2,1.9999996 v 8.339844 c 0,3.535312 -2.972614,5.94896 -5.873046,6.546875 a 2.0002,2.0002 0 0 0 -1.201172,3.150391 l 7.46875,10.054687 a 2.0002,2.0002 0 0 0 3.210937,0 l 7.46875,-10.054687 A 2.0002,2.0002 0 0 0 40.812835,25.49707 c -1.323008,-0.162566 -2.626262,-1.31965 -3.058594,-1.847656 a 2,2 0 0 0 -2.814453,-0.28125 2,2 0 0 0 -0.28125,2.814453 c 0.524952,0.641124 1.453502,1.540461 2.708984,2.255859 l -4.267578,5.744141 -4.285156,-5.767578 c 3.413263,-1.658182 6.285156,-4.924389 6.285156,-9.4375 v -8.339844 a 2,2 0 0 0 -2,-1.9999996 z M 12.730804,24.916992 C 11.214939,24.914524 9.6700166,25.402134 8.4476006,26.475586 7.2251846,27.549038 6.42221,29.247853 6.42221,31.174805 a 2,2 0 0 0 2,2 2,2 0 0 0 2,-2 c 0,-0.917829 0.273644,-1.350756 0.666016,-1.695313 0.392371,-0.344557 0.999533,-0.563537 1.636718,-0.5625 0.637186,0.001 1.247904,0.223304 1.642578,0.570313 0.394677,0.347008 0.666016,0.77918 0.666016,1.6875 0,0.854782 -0.202549,1.241129 -0.685547,1.77539 -0.482998,0.534262 -1.329347,1.114613 -2.378906,1.767578 -2.0991188,1.305931 -5.099375,3.023616 -6.4179688,6.66211 a 2.0002,2.0002 0 0 0 1.8808594,2.68164 H 17.883148 a 2,2 0 0 0 2,-2 2,2 0 0 0 -2,-2 h -6.632813 c 0.809617,-0.690658 1.771639,-1.287561 2.832031,-1.947265 1.086803,-0.676136 2.245392,-1.390633 3.232422,-2.482422 0.98703,-1.091789 1.71875,-2.660789 1.71875,-4.457031 0,-1.922441 -0.803325,-3.618654 -2.023437,-4.691407 -1.220112,-1.072752 -2.763433,-1.563938 -4.279297,-1.566406 z" fill="#008055"/>
</svg>
