<svg xmlns="http://www.w3.org/2000/svg" width="48" height="48">
	<path d="M 39.195312,4.7489709 A 4.04599,4.0360579 0 0 0 35.148438,8.7841271 4.04599,4.0360579 0 0 0 39.195312,12.821236 4.04599,4.0360579 0 0 0 43.240234,8.7841271 4.04599,4.0360579 0 0 0 39.195312,4.7489709 Z M 8.7851562,4.7587365 A 4.04599,4.0360579 0 0 0 4.7382812,8.7958459 4.04599,4.0360579 0 0 0 8.7851562,12.831002 4.04599,4.0360579 0 0 0 12.832031,8.7958459 4.04599,4.0360579 0 0 0 8.7851562,4.7587365 Z M 23.994141,4.7704552 A 4.04599,4.0360579 0 0 0 19.947266,8.8056115 4.04599,4.0360579 0 0 0 23.994141,12.842721 4.04599,4.0360579 0 0 0 28.041016,8.8056115 4.04599,4.0360579 0 0 0 23.994141,4.7704552 Z M 39.216797,19.950143 a 4.04599,4.0360579 0 0 0 -4.046875,4.035156 4.04599,4.0360579 0 0 0 4.046875,4.035156 4.04599,4.0360579 0 0 0 4.044922,-4.035156 4.04599,4.0360579 0 0 0 -4.044922,-4.035156 z m -30.4101564,0.0098 a 4.04599,4.0360579 0 0 0 -4.046875,4.035156 4.04599,4.0360579 0 0 0 4.046875,4.03711 4.04599,4.0360579 0 0 0 4.0449214,-4.03711 4.04599,4.0360579 0 0 0 -4.0449214,-4.035156 z m 15.2089844,0.0098 a 4.04599,4.0360579 0 0 0 -4.046875,4.037109 4.04599,4.0360579 0 0 0 4.046875,4.035157 4.04599,4.0360579 0 0 0 4.044922,-4.035157 4.04599,4.0360579 0 0 0 -4.044922,-4.037109 z m 15.189453,15.167969 a 4.0360579,4.04599 0 0 0 -4.035156,4.046875 4.0360579,4.04599 0 0 0 4.035156,4.044922 4.0360579,4.04599 0 0 0 4.03711,-4.044922 4.0360579,4.04599 0 0 0 -4.03711,-4.046875 z m -30.4101561,0.01172 a 4.0360579,4.04599 0 0 0 -4.0351563,4.044922 4.0360579,4.04599 0 0 0 4.0351563,4.046875 4.0360579,4.04599 0 0 0 4.0371091,-4.046875 4.0360579,4.04599 0 0 0 -4.0371091,-4.044922 z m 15.2089841,0.0098 a 4.0360579,4.04599 0 0 0 -4.035156,4.046875 4.0360579,4.04599 0 0 0 4.035156,4.044922 4.0360579,4.04599 0 0 0 4.03711,-4.044922 4.0360579,4.04599 0 0 0 -4.03711,-4.046875 z" fill="#008055"/>
</svg>
