<svg xmlns="http://www.w3.org/2000/svg" width="48" height="48">
	<path d="m 24.029964,10.863828 c -0.483244,0.0067 -0.965233,0.02674 -1.447265,0.06055 -7.712525,0.540889 -15.203773,4.544634 -20.373047,11.789059 a 1.9,1.9 0 0 0 0.443359,2.650391 1.9,1.9 0 0 0 2.650391,-0.44336 c 9.119391,-12.780276 25.497447,-14.073608 36.167969,-2.451172 0.627821,0.71593 0.848853,1.180165 0.871093,1.34961 0.02213,0.16864 0.02146,0.424073 -0.609375,1.193359 C 30.945843,37.36063 15.745492,34.466288 8.375667,26.691953 a 1.9,1.9 0 0 0 -2.6875,-0.07227 1.9,1.9 0 0 0 -0.070312,2.685547 c 8.864308,9.350847 26.84081,12.13238 39,-1.8125 a 1.90019,1.90019 0 0 0 0.03125,-0.03711 c 1.043577,-1.258889 1.647559,-2.709048 1.460937,-4.13086 -0.186621,-1.421812 -0.974698,-2.453408 -1.798828,-3.386719 a 1.90019,1.90019 0 0 0 -0.02539,-0.02539 C 38.606982,13.719115 31.278635,10.76344 24.029964,10.863828 Z m 0.341797,4.986328 c -1.809214,0.02095 -3.620017,0.640473 -5.099609,1.886719 -3.202975,2.697833 -3.660523,7.373268 -1.28125,10.732421 a 1.8028486,1.7971569 14.999873 0 0 0.320312,0.582032 c 0.0022,0.0026 0.0017,0.0052 0.0039,0.0078 a 1.8028486,1.7971569 14.999873 0 0 0.0059,0.0059 1.8028486,1.7971569 14.999873 0 0 0.01172,0.01367 1.8028486,1.7971569 14.999873 0 0 0.535156,0.419922 c 2.932916,2.888646 7.630649,3.211389 10.828125,0.509766 3.37752,-2.853749 3.800359,-7.954948 0.935547,-11.326172 -1.611457,-1.896313 -3.933633,-2.858965 -6.259766,-2.832031 z m 0.480469,3.58789 c 1.13325,0.09412 2.229885,0.625338 3.03125,1.56836 1.60273,1.886043 1.373996,4.654322 -0.521485,6.255859 -1.895481,1.601538 -4.677558,1.37382 -6.283203,-0.509766 a 1.8028486,1.7971569 14.999873 0 0 -0.0059,-0.0039 1.8028486,1.7971569 14.999873 0 0 -0.0039,-0.0078 c -1.599812,-1.888498 -1.366706,-4.657231 0.53125,-6.25586 0.948978,-0.799314 2.118703,-1.140991 3.251953,-1.046875 z" fill="#008055"/>
</svg>
