<svg xmlns="http://www.w3.org/2000/svg" width="48" height="48">
	<path d="M 19.528321,7.5428717 8.0009765,7.5545907 c -2.6875808,0.0011 -4.9082031,2.213335 -4.9082031,4.7792973 v 21.460937 a 1.90019,1.90019 0 0 0 0.00195,0.05469 c 0.073882,2.528472 2.1425557,4.710095 4.6386719,4.705078 l 10.4843757,0.01367 a 1.90019,1.90019 0 0 0 0.0039,0 c 2.376523,0 4.148326,1.010155 4.472656,1.333984 a 1.90019,1.90019 0 0 0 3.242188,-1.345703 V 13.09756 c 0.01592,-0.393351 0.385484,-1.736328 2.419922,-1.736328 h 11.572265 c 0.615965,0 0.869519,0.151204 0.970703,0.24414 0.101185,0.09294 0.207032,0.205145 0.207032,0.726563 v 21.460937 c 0,0.418602 -0.118974,0.656325 -0.216797,0.765625 -0.09782,0.109301 -0.185887,0.205078 -0.646485,0.205078 a 1.90019,1.90019 0 0 0 -0.0039,0 l -11.376953,0.02539 a 1.9,1.9 0 0 0 -1.894531,1.904297 1.9,1.9 0 0 0 1.904297,1.894531 l 11.371093,-0.02344 c 1.353033,0 2.648232,-0.544957 3.478516,-1.472657 0.830284,-0.927699 1.185547,-2.12503 1.185547,-3.298828 V 12.331935 c 0,-1.322282 -0.477779,-2.6439023 -1.4375,-3.5253913 -0.959721,-0.881489 -2.24476,-1.244141 -3.541016,-1.244141 H 28.356446 c -3.842163,0 -6.116271,2.8507643 -6.21875,5.3828133 a 1.90019,1.90019 0 0 0 0,0.07617 v 22.375 C 21.003038,35.02872 19.726632,34.769641 18.223633,34.769435 h -0.002 L 7.7333984,34.75381 a 1.90019,1.90019 0 0 0 -0.00781,0 C 7.1395089,34.754988 6.9209503,34.615129 6.8935546,33.745997 V 12.333888 c 0,-0.662005 0.2049099,-0.980469 1.109375,-0.980469 a 1.90019,1.90019 0 0 0 0.00195,0 l 11.5253914,-0.0098 a 1.9,1.9 0 0 0 1.898437,-1.9023433 1.9,1.9 0 0 0 -1.90039,-1.898438 z" fill="#008055"/>
</svg>
