<svg xmlns="http://www.w3.org/2000/svg" width="48" height="48">
	<path d="m 15.544922,10.276367 c -1.497446,0 -2.982096,0.49496 -4.066406,1.539063 -1.08431,1.044103 -1.6640629,2.577064 -1.6640629,4.1875 v 15.464843 c 0,1.54479 0.3331609,3.083219 1.3359379,4.322266 1.002776,1.239047 2.661759,1.933594 4.394531,1.933594 a 2.0999999,2.0999999 0 0 0 2.099609,-2.09961 2.0999999,2.0999999 0 0 0 -2.099609,-2.099609 c -0.792658,0 -0.949548,-0.152922 -1.130859,-0.376953 -0.181311,-0.224031 -0.400391,-0.763866 -0.400391,-1.679688 V 16.00293 c 0,-0.688815 0.177094,-0.967781 0.378906,-1.16211 0.201813,-0.19433 0.5325,-0.365234 1.152344,-0.365234 h 16.927734 c 0.82774,0 1.081358,0.181272 1.208985,0.3125 0.127626,0.131228 0.304687,0.422062 0.304687,1.214844 v 15.464843 c 0,0.807837 -0.230466,1.341055 -0.472656,1.626954 -0.24219,0.285898 -0.471922,0.429687 -1.041016,0.429687 H 20.46875 a 2.0999999,2.0999999 0 0 0 -2.099609,2.099609 2.0999999,2.0999999 0 0 0 2.099609,2.09961 h 12.003906 c 1.661277,0 3.239527,-0.72584 4.246094,-1.914063 1.006567,-1.188222 1.466797,-2.733114 1.466797,-4.341797 V 16.00293 c 0,-1.516989 -0.419887,-3.039962 -1.494141,-4.144532 -1.074253,-1.104569 -2.628609,-1.582031 -4.21875,-1.582031 z" fill="#008055"/>
</svg>
