<svg xmlns="http://www.w3.org/2000/svg" width="48" height="48">
	<path d="M 38.894531 6.921875 A 2.20022 2.20022 0 0 0 38.576172 6.9433594 L 21.595703 9.2949219 A 2.20022 2.20022 0 0 0 20.167969 12.832031 C 21.459581 14.477963 21.604213 16.992526 21.511719 18.015625 A 2.2 2.2 0 0 0 23.505859 20.404297 A 2.2 2.2 0 0 0 25.894531 18.412109 C 26.00183 17.225261 25.948382 15.279081 25.251953 13.230469 L 36.298828 11.701172 L 34.753906 22.869141 C 29.893169 20.926772 23.854519 21.034153 19.480469 25.408203 L 7.5664062 37.322266 A 2.2 2.2 0 0 0 7.5664062 40.433594 A 2.2 2.2 0 0 0 10.677734 40.433594 L 22.591797 28.519531 C 26.173928 24.9374 31.690783 25.534138 35.310547 27.935547 A 2.20022 2.20022 0 0 0 38.705078 26.404297 L 41.056641 9.4238281 A 2.20022 2.20022 0 0 0 38.894531 6.921875 z " fill="#008055"/>
</svg>
