<svg xmlns="http://www.w3.org/2000/svg" width="48" height="48">
	<path d="m 24.354873,4.9420591 c -1.610695,0.003 -3.103861,0.866299 -3.908203,2.261719 L 3.6751853,36.285809 c -1.2384416,2.14697 -0.4906849,4.935321 1.65625,6.173828 2.1469506,1.238462 4.9353667,0.490714 6.1738277,-1.65625 l 3.488282,-6.050781 h 18.162109 l 3.298828,5.974609 c 1.197156,2.16879 3.967031,2.968971 6.136719,1.773438 a 1.50015,1.50015 0 0 0 0.002,0 c 2.170485,-1.197238 2.970919,-3.970275 1.773438,-6.140625 L 28.319717,7.2779961 c -0.795104,-1.44095 -2.319069,-2.338104 -3.964844,-2.335937 z m 0.0059,3 c 0.557025,-7.33e-4 1.062896,0.297407 1.332032,0.785156 L 41.73968,37.809246 c 0.414178,0.75067 0.154992,1.650371 -0.595704,2.064453 -0.750371,0.413467 -1.650409,0.152434 -2.064453,-0.597656 l -3.72465,-6.748047 A 1.50015,1.50015 0 0 0 34.04042,31.752606 H 14.12831 a 1.50015,1.50015 0 0 0 -1.298828,0.75 L 8.905654,39.303387 C 8.4773159,40.045943 7.5720316,40.288365 6.8294822,39.860028 6.086937,39.431674 5.8445031,38.526426 6.2728416,37.783856 L 23.046279,8.7018251 c 0.272138,-0.472121 0.769608,-0.758755 1.314453,-0.759766 z m -0.103515,6.1660159 a 1.50015,1.50015 0 0 0 -1.251953,0.75 l -6.69336,11.603515 a 1.50015,1.50015 0 0 0 1.300781,2.25 H 30.70843 a 1.50015,1.50015 0 0 0 1.3125,-2.224609 L 25.618545,14.883465 a 1.50015,1.50015 0 0 0 -1.361328,-0.77539 z m 0.01953,4.552734 3.890625,7.050781 h -7.958984 z" fill="#008055"/>
</svg>
