<svg xmlns="http://www.w3.org/2000/svg" width="48" height="48">
	<path d="M 23.654297 3.7851562 C 21.934655 3.8208222 20.38521 4.6745802 19.529297 5.8144531 C 18.673394 6.9543363 18.336097 8.1880197 18.033203 9.3417969 C 17.427405 11.649341 16.975619 13.56492 15.779297 14.472656 C 14.582975 15.380382 12.617689 15.301691 10.232422 15.263672 C 9.039783 15.244662 7.7617864 15.232652 6.4335938 15.75 C 5.1054011 16.267353 3.8627222 17.531118 3.3652344 19.177734 C 2.8677568 20.82435 3.2039248 22.566111 4.0234375 23.732422 C 4.8429604 24.898743 5.9104421 25.597558 6.9140625 26.242188 C 8.2582406 27.105563 8.8977782 27.519074 9.6914062 28.341797 C 11.897099 29.950069 13.984622 27.443181 12.802734 25.677734 C 11.540304 24.029907 10.553685 23.825963 9.0761719 22.876953 C 8.1775367 22.299747 7.5349392 21.773221 7.2949219 21.431641 C 7.0549046 21.09005 6.982672 21.037781 7.1953125 20.333984 C 7.4079428 19.630198 7.495772 19.628087 7.8847656 19.476562 C 8.2737694 19.325039 9.1020437 19.244704 10.169922 19.261719 C 12.305678 19.295759 15.481738 19.720616 18.197266 17.660156 C 20.912804 15.599697 21.359913 12.425533 21.902344 10.359375 C 22.173554 9.3262958 22.473932 8.5506423 22.724609 8.2167969 C 22.975287 7.8829514 23.001329 7.7984477 23.736328 7.7832031 C 24.471337 7.7679591 24.501331 7.8526271 24.765625 8.1757812 C 25.029929 8.4989453 25.363925 9.2583416 25.677734 10.279297 C 26.305344 12.321187 26.883031 15.47578 29.681641 17.421875 C 32.48026 19.36798 35.637018 18.812013 37.769531 18.689453 C 38.835783 18.628163 39.665599 18.677243 40.060547 18.8125 C 40.455484 18.947757 40.543533 18.944308 40.785156 19.638672 C 41.02678 20.333046 40.956125 20.387032 40.730469 20.738281 C 40.504825 21.08953 39.883704 21.63995 39.009766 22.253906 C 37.261898 23.481829 34.442922 25.008271 33.457031 28.271484 C 32.47114 31.534708 33.974458 34.365062 34.75 36.355469 C 35.137766 37.350682 35.350338 38.154831 35.34375 38.572266 C 35.33715 38.989711 35.36691 39.073194 34.78125 39.517578 C 34.195575 39.961972 34.120563 39.912718 33.716797 39.806641 C 33.313041 39.700563 32.596116 39.280171 31.742188 38.638672 C 30.03433 37.355664 27.714567 35.142213 24.306641 35.212891 C 20.898704 35.283571 18.670773 37.590656 17.017578 38.943359 C 16.190976 39.619716 15.490806 40.068683 15.091797 40.191406 C 14.692777 40.31414 14.623119 40.366992 14.019531 39.947266 C 13.415943 39.527549 13.441857 39.444154 13.417969 39.027344 C 13.394079 38.610533 13.57179 37.79949 13.917969 36.789062 C 14.538536 34.977753 15.124513 34.798997 14.998047 32.486328 C 15.003747 29.837578 11.241248 29.812466 11.142578 32.283203 C 11.098008 33.487804 10.69842 33.841287 10.132812 35.492188 C 9.7461929 36.620663 9.3422707 37.832714 9.4238281 39.255859 C 9.5053851 40.679005 10.324143 42.250427 11.736328 43.232422 C 13.148503 44.214416 14.907128 44.432723 16.269531 44.013672 C 17.631924 43.594621 18.627613 42.794435 19.550781 42.039062 C 21.397117 40.528329 22.889271 39.245977 24.390625 39.214844 C 25.891969 39.183704 27.434416 40.403042 29.341797 41.835938 C 30.295482 42.55238 31.324527 43.311622 32.703125 43.673828 C 34.081713 44.036035 35.827005 43.742838 37.197266 42.703125 C 38.567516 41.663416 39.31931 40.06007 39.341797 38.634766 C 39.364297 37.209462 38.90963 36.015778 38.476562 34.904297 C 37.610419 32.681355 36.850821 30.86729 37.285156 29.429688 C 37.719481 27.992096 39.358479 26.898719 41.310547 25.527344 C 42.286576 24.841656 43.325246 24.099687 44.095703 22.900391 C 44.866171 21.701105 45.127806 19.948787 44.5625 18.324219 C 43.997184 16.699641 42.703969 15.489182 41.355469 15.027344 C 40.006979 14.565505 38.72989 14.626876 37.539062 14.695312 C 35.157418 14.832197 33.19777 14.996019 31.964844 14.138672 C 30.731928 13.281324 30.202884 11.383957 29.501953 9.1035156 C 29.151488 7.9632949 28.763759 6.7459766 27.861328 5.6425781 C 26.958908 4.5391694 25.373928 3.7494902 23.654297 3.7851562 z M 24 16.101562 A 2 2 0 0 0 22 18.101562 L 22 22.738281 L 17.363281 22.738281 A 2 2 0 0 0 15.363281 24.738281 A 2 2 0 0 0 17.363281 26.738281 L 22 26.738281 L 22 31.375 A 2 2 0 0 0 24 33.375 A 2 2 0 0 0 26 31.375 L 26 26.738281 L 30.636719 26.738281 A 2 2 0 0 0 32.636719 24.738281 A 2 2 0 0 0 30.636719 22.738281 L 26 22.738281 L 26 18.101562 A 2 2 0 0 0 24 16.101562 z " fill="#008055"/>
</svg>
