<svg xmlns="http://www.w3.org/2000/svg" width="48" height="48">
	<path d="m 11.965871,4.8359375 c -1.552424,0 -3.0856256,0.428846 -4.1953126,1.507812 -1.109686,1.078966 -1.595703,2.642496 -1.595703,4.2695315 v 26.753907 c 0,1.52476 0.500518,3.022758 1.552735,4.115234 1.052217,1.092477 2.5973606,1.681641 4.2382806,1.681641 h 17.123047 a 2,2 0 0 0 2,-2 2,2 0 0 0 -2,-2 H 11.965871 c -0.763381,0 -1.112661,-0.20298 -1.355469,-0.455079 -0.242808,-0.252099 -0.435547,-0.653058 -0.435547,-1.341796 V 10.613281 c 0,-0.9007645 0.202177,-1.2248095 0.384766,-1.4023435 0.182589,-0.177534 0.543374,-0.375 1.40625,-0.375 h 17.123047 c 0.882231,0 1.487075,0.252174 1.828125,0.541016 0.34105,0.288841 0.519531,0.590699 0.519531,1.2363275 v 2.908203 c 0,2.951704 -2.445366,4.94778 -4.800781,5.441407 a 2.0002,2.0002 0 0 0 -1.205078,3.136718 l 6.390625,8.748047 a 2.0002,2.0002 0 0 0 3.228515,0 l 6.390625,-8.748047 a 2.0002,2.0002 0 0 0 -1.367187,-3.164062 c -1.003033,-0.1253 -2.081014,-1.078682 -2.421875,-1.501953 a 2,2 0 0 0 -2.8125,-0.304688 2,2 0 0 0 -0.302735,2.8125 c 0.430524,0.534611 1.191185,1.23616 2.171875,1.855468 l -3.271484,4.48047 -3.238281,-4.429688 c 2.880978,-1.531171 5.238281,-4.429195 5.238281,-8.326172 v -2.908203 c 0,-1.6860715 -0.733144,-3.2723785 -1.933594,-4.2890625 -1.20045,-1.016683 -2.769293,-1.488281 -4.414062,-1.488281 z" fill="#008055"/>
</svg>
