<svg xmlns="http://www.w3.org/2000/svg" width="48" height="48">
	<path d="m 23.654297,3.7851562 c -1.719642,0.035666 -3.269087,0.889424 -4.125,2.0292969 -0.855903,1.1398832 -1.1932,2.3735666 -1.496094,3.5273438 -0.605798,2.3075441 -1.057584,4.2231231 -2.253906,5.1308591 -1.196322,0.907726 -3.161608,0.829035 -5.546875,0.791016 -1.192639,-0.01901 -2.4706356,-0.03102 -3.7988282,0.486328 -1.3281927,0.517353 -2.5708716,1.781118 -3.0683594,3.427734 -0.4974776,1.646616 -0.1613096,3.388377 0.6582031,4.554688 0.8195229,1.166321 1.8870046,1.865136 2.890625,2.509766 1.3441781,0.863375 1.9837157,1.276886 2.7773437,2.099609 2.2056928,1.608272 4.2932158,-0.898616 3.1113278,-2.664063 C 11.540304,24.029907 10.553685,23.825963 9.0761719,22.876953 8.1775367,22.299747 7.5349392,21.773221 7.2949219,21.431641 7.0549046,21.09005 6.982672,21.037781 7.1953125,20.333984 7.4079428,19.630198 7.495772,19.628087 7.8847656,19.476562 c 0.3890038,-0.151523 1.2172781,-0.231858 2.2851564,-0.214843 2.135756,0.03404 5.311816,0.458897 8.027344,-1.601563 2.715538,-2.060459 3.162647,-5.234623 3.705078,-7.300781 0.27121,-1.0330792 0.571588,-1.8087327 0.822265,-2.1425781 0.250678,-0.3338455 0.27672,-0.4183492 1.011719,-0.4335938 0.735009,-0.015244 0.765003,0.069424 1.029297,0.3925781 0.264304,0.3231641 0.5983,1.0825604 0.912109,2.1035158 0.62761,2.04189 1.205297,5.196483 4.003907,7.142578 2.798619,1.946105 5.955377,1.390138 8.08789,1.267578 1.066252,-0.06129 1.896068,-0.01221 2.291016,0.123047 0.394937,0.135257 0.482986,0.131808 0.724609,0.826172 0.241624,0.694374 0.170969,0.74836 -0.05469,1.099609 -0.225644,0.351249 -0.846765,0.901669 -1.720703,1.515625 -1.747868,1.227923 -4.566844,2.754365 -5.552735,6.017578 -0.985891,3.263224 0.517427,6.093578 1.292969,8.083985 0.387766,0.995213 0.600338,1.799362 0.59375,2.216797 -0.0066,0.417445 0.02316,0.500928 -0.5625,0.945312 -0.585675,0.444394 -0.660687,0.39514 -1.064453,0.289063 -0.403756,-0.106078 -1.120681,-0.52647 -1.974609,-1.167969 -1.707858,-1.283008 -4.027621,-3.496459 -7.435547,-3.425781 -3.407937,0.07068 -5.635868,2.377765 -7.289063,3.730468 -0.826602,0.676357 -1.526772,1.125324 -1.925781,1.248047 -0.39902,0.122734 -0.468678,0.175586 -1.072266,-0.24414 -0.603588,-0.419717 -0.577674,-0.503112 -0.601562,-0.919922 -0.02389,-0.416811 0.153821,-1.227854 0.5,-2.238282 0.620567,-1.811309 1.206544,-1.990065 1.080078,-4.302734 0.0057,-2.64875 -3.756799,-2.673862 -3.855469,-0.203125 -0.04457,1.204601 -0.444158,1.558084 -1.009766,3.208985 -0.3866191,1.128475 -0.7905413,2.340526 -0.7089839,3.763671 0.081557,1.423146 0.9003149,2.994568 2.3124999,3.976563 1.412175,0.981994 3.1708,1.200301 4.533203,0.78125 1.362393,-0.419051 2.358082,-1.219237 3.28125,-1.97461 1.846336,-1.510733 3.33849,-2.793085 4.839844,-2.824218 1.501344,-0.03114 3.043791,1.188198 4.951172,2.621094 0.953685,0.716442 1.98273,1.475684 3.361328,1.83789 1.378588,0.362207 3.12388,0.06901 4.494141,-0.970703 1.37025,-1.039709 2.122044,-2.643055 2.144531,-4.068359 0.0225,-1.425304 -0.432167,-2.618988 -0.865235,-3.730469 -0.866143,-2.222942 -1.625741,-4.037007 -1.191406,-5.474609 0.434325,-1.437592 2.073323,-2.530969 4.025391,-3.902344 0.976029,-0.685688 2.014699,-1.427657 2.785156,-2.626953 0.770468,-1.199286 1.032103,-2.951604 0.466797,-4.576172 -0.565316,-1.624578 -1.858531,-2.835037 -3.207031,-3.296875 -1.34849,-0.461839 -2.625579,-0.400468 -3.816407,-0.332032 -2.381644,0.136885 -4.341292,0.300707 -5.574218,-0.55664 C 30.731928,13.281324 30.202884,11.383957 29.501953,9.1035156 29.151488,7.9632949 28.763759,6.7459766 27.861328,5.6425781 26.958908,4.5391694 25.373928,3.7494902 23.654297,3.7851562 Z M 17.363281,22.738281 c -1.104569,0 -2,0.895431 -2,2 0,1.104569 0.895431,2 2,2 h 13.273438 c 1.104569,0 2,-0.895431 2,-2 0,-1.104569 -0.895431,-2 -2,-2 z" fill="#008055"/>
</svg>
