<svg xmlns="http://www.w3.org/2000/svg" width="48" height="48">
	<path d="m 8.6279295,3.7290617 c -1.6904688,0 -3.3175953,0.3671228 -4.5976563,1.4023438 C 2.7502123,6.1666264 2.026367,7.8605451 2.026367,9.7212492 V 29.260312 c 0,1.755635 0.7540251,3.375723 1.9921875,4.423828 1.2381624,1.048105 2.870745,1.544922 4.609375,1.544922 2.2299555,0 3.4959065,0.781177 4.2128905,1.892578 0.716985,1.111401 0.925166,2.75595 0.224609,4.753906 a 1.80018,1.80018 0 0 0 2.09375,2.351563 c 5.975245,-1.343984 10.531402,-5.819229 10.6875,-10.740235 a 1.8,1.8 0 0 0 -1.742187,-1.855468 1.8,1.8 0 0 0 -1.857422,1.742187 c -0.06312,1.989744 -2.150154,4.74714 -5.298828,6.335938 0.02777,-1.642637 -0.230945,-3.221743 -1.082031,-4.541016 -1.422791,-2.205474 -4.068937,-3.539062 -7.2382815,-3.539062 -1.05267,0 -1.8205436,-0.300065 -2.2851563,-0.69336 C 5.8781606,30.542798 5.6259764,30.079077 5.6259764,29.260312 V 9.7212492 c 0,-1.0542959 0.2580297,-1.4575334 0.6679687,-1.7890625 C 6.7038841,7.6006576 7.4761983,7.3286711 8.6279295,7.3286711 H 39.983398 c 0.933194,0 1.444002,0.264733 1.794922,0.6289062 0.35092,0.3641732 0.59375,0.9181121 0.59375,1.7636719 V 29.260312 c 0,1.068418 -0.250424,1.551731 -0.546875,1.839844 -0.296451,0.288112 -0.817962,0.529297 -1.841797,0.529297 H 29.659179 a 1.8,1.8 0 0 0 -1.798828,1.800781 1.8,1.8 0 0 0 1.798828,1.798828 h 10.324219 c 1.644165,0 3.21861,-0.447688 4.34961,-1.546875 1.130999,-1.099187 1.640625,-2.699493 1.640625,-4.421875 V 9.7212492 c 0,-1.5983402 -0.523936,-3.141367 -1.603516,-4.2617187 -1.07958,-1.120352 -2.664113,-1.7304688 -4.386719,-1.7304688 z m 1.7675785,7.9062503 a 1.7,1.7 0 0 0 -1.6992191,1.699219 1.7,1.7 0 0 0 1.6992191,1.701172 h 27.492187 a 1.7,1.7 0 0 0 1.699219,-1.701172 1.7,1.7 0 0 0 -1.699219,-1.699219 z m 0,6.304688 A 1.7,1.7 0 0 0 8.6962889,19.641171 1.7,1.7 0 0 0 10.395508,21.34039 H 37.887695 A 1.7,1.7 0 0 0 39.586914,19.641171 1.7,1.7 0 0 0 37.887695,17.94 Z m 0,6.304687 a 1.7,1.7 0 0 0 -1.6992191,1.701172 1.7,1.7 0 0 0 1.6992191,1.699219 h 27.492187 a 1.7,1.7 0 0 0 1.699219,-1.699219 1.7,1.7 0 0 0 -1.699219,-1.701172 z" fill="#008055"/>
</svg>
