<svg xmlns="http://www.w3.org/2000/svg" width="48" height="48">
	<path d="m 29.191306,5.2050809 a 2.2,2.2 0 0 0 -2.205078,2.195313 l -0.01953,9.0566411 -7.865235,-4.591797 a 2.2,2.2 0 0 0 -1.195312,-0.298829 2.2,2.2 0 0 0 -1.814453,1.089844 2.2,2.2 0 0 0 0.791015,3.009766 l 7.869141,4.591797 -7.875,4.474609 a 2.2,2.2 0 0 0 -0.824219,2.998047 2.2,2.2 0 0 0 2.998047,0.826172 l 7.900391,-4.488281 -0.01953,9.089843 a 2.2,2.2 0 0 0 2.195313,2.205079 2.2,2.2 0 0 0 2.205078,-2.195313 l 0.01953,-9.058594 7.867188,4.591797 a 2.2,2.2 0 0 0 3.00781,-0.791016 2.2,2.2 0 0 0 -0.791015,-3.007812 l -7.869141,-4.59375 7.875,-4.472656 a 2.2,2.2 0 0 0 0.826172,-3 2.2,2.2 0 0 0 -1.964844,-1.113282 2.2,2.2 0 0 0 -1.035156,0.28711 l -7.900391,4.488281 0.01953,-9.0878911 A 2.2,2.2 0 0 0 29.191304,5.2050809 Z M 10.177634,33.304691 a 4.7327332,4.7443795 0 0 0 -4.7324221,4.74414 4.7327332,4.7443795 0 0 0 4.7324221,4.746094 4.7327332,4.7443795 0 0 0 4.732422,-4.746094 4.7327332,4.7443795 0 0 0 -4.732422,-4.74414 z" fill="#008055"/>
</svg>
