<svg xmlns="http://www.w3.org/2000/svg" width="48" height="48">
	<path d="M 29.172852,1.7319234 C 20.3003,1.9324294 14.301758,8.3429604 14.301758,16.081532 c -6.6e-5,0.0091 -6.6e-5,0.01823 0,0.02734 0.09255,6.291655 3.200176,10.286131 6.15625,14.109375 2.956074,3.823244 5.863689,7.606829 6.878906,14.431641 0.154481,1.037553 1.120577,1.7536 2.158203,1.599609 1.037554,-0.154481 1.753601,-1.120577 1.59961,-2.158203 C 29.949744,36.39414 26.433268,31.73256 23.463867,27.892079 20.497811,24.055925 18.18265,21.167546 18.102539,16.069813 18.108139,10.192994 22.074486,5.6977024 29.25293,5.5327044 c 6.657361,-0.09896 11.328125,4.4843856 11.328125,10.5488276 0,4.889465 -2.220509,7.762926 -5.183594,11.636719 -1.479315,1.93411 -3.43795,4.46422 -4.914062,7.123047 -0.509836,0.9174 -0.179262,2.074407 0.738281,2.583984 0.9174,0.509836 2.074407,0.179262 2.583984,-0.738281 1.275288,-2.297093 3.12489,-4.719286 4.609375,-6.660156 2.964915,-3.876187 5.966797,-7.851137 5.966797,-13.945313 0,-8.0969156 -6.67407,-14.4814296 -15.195313,-14.3496086 -0.0046,-1.64e-5 -0.0091,-1.64e-5 -0.01367,0 z m -0.207032,6.855469 c -1.159864,0.0452 -2.318161,0.380919 -3.361328,1.019531 -0.695445,0.4257406 -1.299495,0.9606926 -1.796875,1.5722656 -1.492142,1.834715 -2.038894,4.36316 -1.320312,6.738281 0.290045,0.96093 1.289045,1.502419 2.230468,1.208984 0.941418,-0.29276 1.468856,-1.30915 1.177735,-2.269531 -0.478832,-1.582678 0.156074,-3.277796 1.552734,-4.132813 1.396661,-0.855015 3.15239,-0.628677 4.294922,0.544922 1.142532,1.1736 1.352448,2.969658 0.503906,4.388672 -0.848541,1.419015 -2.513425,2.051936 -4.060547,1.552735 -0.93974,-0.303295 -1.940168,0.226652 -2.234374,1.183593 -0.29531,0.957754 0.228812,1.980625 1.169921,2.283203 3.099242,1.000016 6.482886,-0.296598 8.171875,-3.121093 1.68899,-2.824495 1.267762,-6.49025 -1.023437,-8.84375 C 32.838509,9.2414544 30.898927,8.5120494 28.96582,8.5873924 Z M 5.5166016,33.112782 c -1.0488835,8.63e-4 -1.8986537,0.851507 -1.8984375,1.900391 8.619e-4,1.048121 0.8503167,1.897575 1.8984375,1.898437 l 13.2753904,0 c 1.048884,2.16e-4 1.899528,-0.849554 1.900391,-1.898437 2.16e-4,-1.049646 -0.850745,-1.900607 -1.900391,-1.900391 z" fill="#008055"/>
</svg>
