<svg xmlns="http://www.w3.org/2000/svg" width="48" height="48">
	<path d="M 11.12306,4.7412408 A 2.2,2.2 0 0 0 9.4433727,5.620147 c -3.314036,4.417802 -5.363274,10.069078 -5.044922,17.134766 a 2.2,2.2 0 0 0 2.296875,2.097656 2.2,2.2 0 0 0 2.097656,-2.294922 C 8.5162727,16.416195 10.183838,11.96543 12.962904,8.260772 A 2.2,2.2 0 0 0 12.523451,5.1806939 2.2,2.2 0 0 0 11.24806,4.7412408 a 2.2,2.2 0 0 0 -0.125,0 z m 9.425781,0 A 2.2,2.2 0 0 0 19.107435,5.3154596 C 14.851084,9.19584 11.339591,15.297457 12.199232,22.90335 a 2.2,2.2 0 0 0 2.433594,1.939454 2.2,2.2 0 0 0 1.939453,-2.433594 c -0.68268,-6.040187 2.01891,-10.668198 5.5,-13.8417973 A 2.2,2.2 0 0 0 22.214857,5.4580377 2.2,2.2 0 0 0 20.548841,4.7412408 Z M 33.578138,23.143585 a 2.2,2.2 0 0 0 -0.212891,0.01367 2.2,2.2 0 0 0 -1.939453,2.433593 c 0.68268,6.040187 -2.016956,10.668198 -5.498047,13.841797 a 2.2,2.2 0 0 0 -0.144531,3.109375 2.2,2.2 0 0 0 3.107422,0.142578 c 4.256351,-3.88038 7.767844,-9.981997 6.908203,-17.58789 a 2.2,2.2 0 0 0 -2.220703,-1.953125 z m 7.814453,0 a 2.2,2.2 0 0 0 -0.08789,0.002 2.2,2.2 0 0 0 -2.09961,2.296875 c 0.276709,6.141452 -1.390864,10.592216 -4.169922,14.296875 a 2.2,2.2 0 0 0 0.439454,3.080078 2.2,2.2 0 0 0 3.080078,-0.439453 c 3.314022,-4.417801 5.365226,-10.069078 5.046875,-17.134766 a 2.2,2.2 0 0 0 -2.208985,-2.101562 z" fill="#008055"/>
</svg>
