<svg xmlns="http://www.w3.org/2000/svg" width="48" height="48">
	<path d="M 19.21289,5.4717363 A 2.20022,2.20022 0 0 0 17.863281,5.9170488 L 4.1953125,16.260799 a 2.20022,2.20022 0 0 0 0,3.509766 L 17.863281,30.114315 A 2.20022,2.20022 0 0 0 21.375,28.622127 c 0.250542,-2.077157 1.925999,-3.957197 2.714844,-4.615234 a 2.2,2.2 0 0 0 0.279296,-3.09961 2.2,2.2 0 0 0 -3.097656,-0.279297 c -0.914975,0.763253 -2.252862,2.176572 -3.208984,4.117188 L 9.1679683,18.014705 18.158203,11.211971 c 2.063714,4.810268 6.410121,9.003906 12.595703,9.003906 h 11.835938 a 2.2,2.2 0 0 0 2.199218,-2.201172 2.2,2.2 0 0 0 -2.199218,-2.199219 H 30.753906 c -5.065898,0 -8.544743,-4.322466 -9.40625,-8.5800779 A 2.20022,2.20022 0 0 0 19.21289,5.4717363 Z M 37.65625,34.393611 a 4.0360579,4.04599 0 0 0 -4.03711,4.044922 4.0360579,4.04599 0 0 0 4.03711,4.046875 4.0360579,4.04599 0 0 0 4.035156,-4.046875 4.0360579,4.04599 0 0 0 -4.035156,-4.044922 z m -15.201172,0.02148 a 4.0360579,4.04599 0 0 0 -4.035156,4.044922 4.0360579,4.04599 0 0 0 4.035156,4.046875 4.0360579,4.04599 0 0 0 4.037109,-4.046875 4.0360579,4.04599 0 0 0 -4.037109,-4.044922 z m -15.2089837,0.01954 a 4.0360579,4.04599 0 0 0 -4.0351568,4.046875 4.0360579,4.04599 0 0 0 4.0351568,4.046875 4.0360579,4.04599 0 0 0 4.0371087,-4.046875 4.0360579,4.04599 0 0 0 -4.0371087,-4.046875 z" fill="#008055"/>
</svg>
