<svg xmlns="http://www.w3.org/2000/svg" width="48" height="48">
	<path d="m 14.697794,6.8902824 a 2.0002,2.0002 0 0 0 -1.832032,1.300781 L 1.590372,38.390282 A 2,2 0 0 0 2.7642001,40.962548 2,2 0 0 0 5.3384188,39.78872 L 8.0395912,32.554345 H 21.070841 l 2.576171,7.208984 a 2,2 0 0 0 2.554688,1.208984 2,2 0 0 0 1.210937,-2.554687 L 16.623575,8.2164544 a 2.0002,2.0002 0 0 0 -1.925781,-1.326172 z m 0,7.8300776 4.943359,13.833985 H 9.5337312 Z m 21.302734,3.4375 c -1.632454,-0.0083 -3.264174,0.449756 -4.59375,1.453125 -1.329576,1.00337 -2.308594,2.669495 -2.308594,4.601563 a 1.8,1.8 0 0 0 1.800781,1.798828 1.8,1.8 0 0 0 1.800782,-1.798828 c 0,-0.822832 0.29468,-1.290576 0.875,-1.728516 0.580319,-0.43794 1.494129,-0.729244 2.408203,-0.724609 0.914074,0.0046 1.781598,0.293637 2.351562,0.773437 0.569965,0.479801 0.951172,1.105703 0.951172,2.320313 l -0.04688,11.736328 a 1.80018,1.80018 0 0 0 0,0.0078 c 0,2.312916 1.716145,4.234697 3.677735,4.203125 1.961589,-0.03157 3.61914,-1.918943 3.61914,-4.191406 A 1.8,1.8 0 0 0 44.734898,34.808239 1.8,1.8 0 0 0 42.93607,36.60902 c 0,0.34811 -0.03248,0.485934 -0.0625,0.556641 -0.01708,-0.07833 -0.03422,-0.218571 -0.03516,-0.5625 v -0.0059 L 42.88529,24.85898 a 1.80018,1.80018 0 0 0 0,-0.0059 c 0,-2.128641 -0.892491,-3.946254 -2.232422,-5.074219 -1.339932,-1.127965 -3.01989,-1.612816 -4.652344,-1.621094 z m -1.419922,8.869141 c -0.863397,-0.05196 -1.746651,0.08438 -2.574219,0.402344 -2.206845,0.847904 -3.998046,3.214103 -3.998046,6.398437 0,3.133272 1.532696,5.586904 3.667968,6.666016 2.135273,1.079111 4.859587,0.752885 6.646485,-1.070313 A 1.8,1.8 0 0 0 38.297404,36.87661 1.8,1.8 0 0 0 35.752482,36.902 c -0.707333,0.721702 -1.597445,0.811345 -2.453125,0.378906 -0.85568,-0.432438 -1.691406,-1.419497 -1.691406,-3.453125 0,-1.982666 0.795499,-2.693638 1.689453,-3.037109 0.893954,-0.343471 1.917699,-0.09361 2.376953,0.439453 a 1.8,1.8 0 0 0 2.537109,0.189453 1.8,1.8 0 0 0 0.189454,-2.539063 C 37.603127,27.954499 36.557407,27.379359 35.434123,27.142234 35.153302,27.082954 34.868406,27.044324 34.580607,27.027 Z m 8.277344,10.173828 c 0.0021,-3.4e-5 0.002,0.0018 0.0039,0.002 -0.03791,0.0618 -0.06453,-9.77e-4 -0.0039,-0.002 z m 0.02734,0.02148 c 0.01823,0.02376 0.0159,0.04127 0,0 z" fill="#008055"/>
</svg>
