<svg xmlns="http://www.w3.org/2000/svg" width="48" height="48">
	<path d="m 28.848627,5.4732504 a 2.20022,2.20022 0 0 0 -2.113281,1.9355469 c -0.250542,2.0771569 -1.924047,3.9571967 -2.712891,4.6152337 a 2.2,2.2 0 0 0 -0.28125,3.09961 2.2,2.2 0 0 0 3.099609,0.279297 c 0.915021,-0.763292 2.252857,-2.176417 3.208985,-4.117188 l 8.892578,6.730469 -8.990234,6.804687 C 27.888723,20.009992 23.542677,15.815047 17.356439,15.815047 H 5.5224546 a 2.2,2.2 0 0 0 -2.2011719,2.201172 2.2,2.2 0 0 0 2.2011719,2.199219 H 17.356439 c 5.065898,0 8.544743,4.322466 9.40625,8.580078 a 2.20022,2.20022 0 0 0 3.484375,1.318359 l 13.669922,-10.34375 a 2.20022,2.20022 0 0 0 0,-3.509766 L 30.247064,5.9166098 A 2.20022,2.20022 0 0 0 28.848627,5.4732504 Z m 8.80664,28.9199216 a 4.0360579,4.04599 0 0 0 -4.035156,4.046875 4.0360579,4.04599 0 0 0 4.035156,4.044922 4.0360579,4.04599 0 0 0 4.03711,-4.044922 4.0360579,4.04599 0 0 0 -4.03711,-4.046875 z m -15.201171,0.02148 a 4.0360579,4.04599 0 0 0 -4.035157,4.044922 4.0360579,4.04599 0 0 0 4.035157,4.046875 4.0360579,4.04599 0 0 0 4.037109,-4.046875 4.0360579,4.04599 0 0 0 -4.037109,-4.044922 z M 7.2451108,34.436141 A 4.0360579,4.04599 0 0 0 3.2099546,38.481062 4.0360579,4.04599 0 0 0 7.2451108,42.527938 4.0360579,4.04599 0 0 0 11.28222,38.481062 4.0360579,4.04599 0 0 0 7.2451108,34.436141 Z" fill="#008055"/>
</svg>
