<svg xmlns="http://www.w3.org/2000/svg" width="48" height="48">
	<path d="M 23.986328,1.1887489 C 20.260227,1.2322649 17.687909,3.7961 17.037109,6.626249 c -0.573892,2.495698 0.145734,5.237394 2.078125,7.103516 v 1.386718 h -6.447265 c -1.296917,0 -2.549371,0.457395 -3.400391,1.341797 -0.8510202,0.884402 -1.2325224,2.089516 -1.2324219,3.28125 v 8.166016 a 1.80018,1.80018 0 0 0 1.7988281,1.800781 h 3.9414068 a 1.80018,1.80018 0 0 0 1.46875,-0.755859 c 0.846703,-1.190584 2.636117,-1.739635 4.162109,-1.394532 1.525992,0.345103 2.645535,1.206863 2.671875,3.4375 0.02609,2.209038 -1.104445,3.106444 -2.650391,3.46875 -1.545946,0.362306 -3.322588,-0.171061 -4.152343,-1.419921 A 1.80018,1.80018 0 0 0 13.777344,32.23953 H 9.8339842 a 1.80018,1.80018 0 0 0 -1.7988281,1.798828 v 7.679688 a 1.8,1.8 0 0 0 1.7988281,1.798828 1.8,1.8 0 0 0 1.8007808,-1.798828 v -5.878907 h 1.404297 c 1.873753,2.004791 4.683457,2.720786 7.208985,2.128907 2.866626,-0.671819 5.473799,-3.280463 5.429687,-7.015625 -0.04385,-3.713563 -2.637642,-6.266181 -5.476562,-6.908203 -2.50645,-0.566834 -5.259749,0.139135 -7.140625,2.0625 H 11.634765 V 19.73953 c -3.9e-5,-0.467265 0.118888,-0.673258 0.226563,-0.785156 0.107675,-0.111898 0.271597,-0.238281 0.806641,-0.238281 h 8.248046 a 1.80018,1.80018 0 0 0 1.798829,-1.798828 v -3.910157 a 1.80018,1.80018 0 0 0 -0.767579,-1.474609 c -1.206377,-0.843757 -1.744963,-2.601159 -1.40039,-4.09961 0.344572,-1.49845 1.214682,-2.618047 3.482422,-2.644531 2.246459,-0.02612 3.151864,1.106672 3.513672,2.625 0.361807,1.518329 -0.161241,3.258346 -1.427735,4.085938 a 1.80018,1.80018 0 0 0 -0.816406,1.507812 v 3.908203 a 1.80018,1.80018 0 0 0 1.800781,1.800782 h 8.417969 c 0.462777,5.86e-4 0.519418,0.08793 0.623047,0.21289 0.10392,0.125317 0.224609,0.415629 0.224609,0.808594 v 22.701172 c 0,0.424758 -0.09368,0.542449 -0.146484,0.595703 -0.0528,0.05325 -0.185178,0.177734 -0.753906,0.177734 h -22.50586 a 1.8,1.8 0 0 0 -1.798828,1.800782 1.8,1.8 0 0 0 1.798828,1.798828 h 22.50586 c 1.252091,0 2.468426,-0.392892 3.310547,-1.242188 0.84212,-0.849296 1.189453,-2.019217 1.189453,-3.130859 V 19.737577 c 0,-1.067435 -0.289582,-2.187138 -1.052735,-3.107422 -0.763152,-0.920283 -2.034288,-1.513374 -3.394531,-1.513672 h -6.617187 l -0.002,-1.363281 C 30.914058,11.89421 31.644356,9.095098 31.044876,6.579374 30.363918,3.721728 27.733683,1.145172 23.986282,1.1887489 Z" fill="#008055"/>
</svg>
